<svg width="98" height="81" viewBox="0 0 98 81" fill="none" xmlns="http://www.w3.org/2000/svg">
<path d="M45.0135 28.0796V21.0693M61.6458 35.3649H69.7558M31.9551 45.8116H36.3537M53.9482 60.5195V53.5092" stroke="#05C2DF"/>
<rect x="36.7168" y="28.4419" width="24.567" height="24.567" rx="3.5" stroke="#05C2DF"/>
<rect x="41.3896" y="33.1157" width="15.4948" height="15.4948" rx="3.5" stroke="#05C2DF"/>
<rect x="69.9814" y="1.50049" width="18.5189" height="18.5189" rx="3.5" stroke="#05C2DF"/>
<rect x="74.3799" y="5.89893" width="9.99656" height="9.99656" rx="2.5" stroke="#05C2DF"/>
<rect x="9.5" y="1.50049" width="18.5189" height="18.5189" rx="3.5" stroke="#05C2DF"/>
<rect x="13.8984" y="5.89893" width="9.99656" height="9.99656" rx="2.5" stroke="#05C2DF"/>
<rect x="10.3252" y="61.4316" width="18.5189" height="18.5189" rx="3.5" stroke="#05C2DF"/>
<rect x="14.7236" y="65.8306" width="9.99656" height="9.99656" rx="2.5" stroke="#05C2DF"/>
<rect x="69.9814" y="61.4316" width="18.5189" height="18.5189" rx="3.5" stroke="#05C2DF"/>
<rect x="74.3799" y="65.8306" width="9.99656" height="9.99656" rx="2.5" stroke="#05C2DF"/>
<path d="M54.2236 28.0796V10.8975H69.3439" stroke="#05C2DF"/>
<path d="M36.3535 38.1138L18.8965 38.1138L18.8965 20.5193" stroke="#05C2DF"/>
<path d="M61.7837 41.9629L78.9658 41.9629L78.9658 60.932" stroke="#05C2DF"/>
<path d="M45.5635 53.5093L45.5635 70.6914L29.2061 70.6914" stroke="#05C2DF"/>
<circle cx="45.0133" cy="18.5948" r="1.97423" stroke="#05C2DF"/>
<circle cx="72.2301" cy="35.3649" r="1.97423" stroke="#05C2DF"/>
<circle cx="29.6188" cy="45.8116" r="1.97423" stroke="#05C2DF"/>
<circle cx="53.8111" cy="62.8561" r="1.97423" stroke="#05C2DF"/>
</svg>
