<svg width="98" height="81" viewBox="0 0 98 81" fill="none" xmlns="http://www.w3.org/2000/svg">
<path d="M45.014 28.0795V21.0692M61.6463 35.3647H69.7563M31.9556 45.8115H36.3542M53.9487 60.5194V53.5091" stroke="#05C2DF"/>
<rect x="36.7163" y="28.4421" width="24.567" height="24.567" rx="3.5" stroke="#05C2DF"/>
<rect x="41.3901" y="33.1156" width="15.4948" height="15.4948" rx="3.5" stroke="#05C2DF"/>
<rect x="69.981" y="1.50049" width="18.5189" height="18.5189" rx="3.5" stroke="#05C2DF"/>
<rect x="74.3799" y="5.89911" width="9.99656" height="9.99656" rx="2.5" stroke="#05C2DF"/>
<rect x="9.5" y="1.50049" width="18.5189" height="18.5189" rx="3.5" stroke="#05C2DF"/>
<rect x="13.8984" y="5.89911" width="9.99656" height="9.99656" rx="2.5" stroke="#05C2DF"/>
<rect x="10.3252" y="61.4318" width="18.5189" height="18.5189" rx="3.5" stroke="#05C2DF"/>
<rect x="14.7236" y="65.8304" width="9.99656" height="9.99656" rx="2.5" stroke="#05C2DF"/>
<rect x="69.981" y="61.4318" width="18.5189" height="18.5189" rx="3.5" stroke="#05C2DF"/>
<rect x="74.3799" y="65.8304" width="9.99656" height="9.99656" rx="2.5" stroke="#05C2DF"/>
<path d="M54.2231 28.0795V10.8974H69.3434" stroke="#05C2DF"/>
<path d="M36.3535 38.1139L18.8965 38.1139L18.8965 20.5194" stroke="#05C2DF"/>
<path d="M61.7837 41.9627L78.9658 41.9627L78.9658 60.9317" stroke="#05C2DF"/>
<path d="M45.5635 53.5091L45.5635 70.6912L29.2061 70.6912" stroke="#05C2DF"/>
<circle cx="45.0138" cy="18.595" r="1.97423" stroke="#05C2DF"/>
<circle cx="72.2301" cy="35.3648" r="1.97423" stroke="#05C2DF"/>
<circle cx="29.6188" cy="45.8115" r="1.97423" stroke="#05C2DF"/>
<circle cx="53.8111" cy="62.8562" r="1.97423" stroke="#05C2DF"/>
</svg>
