<svg width="113" height="82" viewBox="0 0 113 82" fill="none" xmlns="http://www.w3.org/2000/svg">
<circle cx="56.6543" cy="41.1557" r="13.5898" stroke="#05C2DF"/>
<path d="M71.0967 26.7505C75.7662 29.8395 78.8461 35.1382 78.8461 41.1561C78.8461 47.1741 75.7662 52.4727 71.0967 55.5618" stroke="#05C2DF"/>
<path d="M71.2725 55.4219L77.6129 63.5235" stroke="#05C2DF"/>
<path d="M77.4371 63.6995C84.8659 58.8276 89.7657 50.4709 89.7657 40.9796C89.7657 31.4884 84.8659 23.1316 77.4371 18.2598L71.0967 26.8898" stroke="#05C2DF"/>
<path d="M84.4824 9.80615C94.4582 16.4153 101.038 27.7519 101.038 40.6277C101.038 53.5034 94.4582 64.84 84.4824 71.4492" stroke="#05C2DF"/>
<path d="M84.4818 9.98227L90.8222 1C103.77 9.53524 112.309 24.1757 112.309 40.8038C112.309 57.4318 103.77 72.0723 90.8222 80.6075L84.3057 71.4491" stroke="#05C2DF"/>
<path d="M42.2119 26.7505C37.5424 29.8395 34.4625 35.1382 34.4625 41.1561C34.4625 47.1741 37.5424 52.4727 42.2119 55.5618" stroke="#05C2DF"/>
<path d="M42.0361 55.4219L35.6957 63.5235" stroke="#05C2DF"/>
<path d="M35.8715 63.6995C28.4427 58.8276 23.5429 50.4709 23.5429 40.9796C23.5429 31.4884 28.4427 23.1316 35.8715 18.2598L42.2119 26.8898" stroke="#05C2DF"/>
<path d="M28.8271 9.80615C18.8513 16.4153 12.2716 27.7519 12.2716 40.6277C12.2716 53.5034 18.8513 64.84 28.8271 71.4492" stroke="#05C2DF"/>
<path d="M28.8278 9.98227L22.4874 1C9.54004 9.53524 1.00037 24.1757 1.00037 40.8038C1.00037 57.4318 9.54004 72.0723 22.4874 80.6075L29.0039 71.4491" stroke="#05C2DF"/>
</svg>
