<svg width="107" height="80" viewBox="0 0 107 80" fill="none" xmlns="http://www.w3.org/2000/svg">
<rect x="22.0615" y="1.92017" width="84.3965" height="59.5917" rx="3.5" stroke="#05C2DF"/>
<line x1="21.5615" y1="51.5709" x2="106.958" y2="51.5709" stroke="#05C2DF"/>
<line x1="60.0723" y1="56.778" x2="67.9243" y2="56.778" stroke="#05C2DF" stroke-linecap="round"/>
<rect x="47.0557" y="62.0386" width="33.8876" height="5.15385" stroke="#05C2DF"/>
<rect x="36.6416" y="73.3995" width="54.716" height="5.15385" stroke="#05C2DF"/>
<path d="M37.9706 72.8727L46.6925 67.7189H81.3067L90.0286 72.8727H37.9706Z" stroke="#05C2DF"/>
<path d="M44.8182 13.7273L52.8182 36.0909H52.9091L60.9091 13.7273H61.6818L53.3636 37H52.3636L44.0455 13.7273H44.8182ZM66.3551 37V13.7273H73.1733C74.4763 13.7273 75.6278 14.0038 76.6278 14.5568C77.6354 15.1098 78.4233 15.8826 78.9915 16.875C79.5672 17.8674 79.8551 19.0303 79.8551 20.3636C79.8551 21.6818 79.5672 22.8371 78.9915 23.8295C78.4233 24.8144 77.6354 25.5833 76.6278 26.1364C75.6278 26.6818 74.4763 26.9545 73.1733 26.9545H66.7188V26.2273H73.1733C74.34 26.2273 75.3703 25.9848 76.2642 25.5C77.1581 25.0152 77.8589 24.3333 78.3665 23.4545C78.8741 22.5758 79.1278 21.5455 79.1278 20.3636C79.1278 19.1742 78.8741 18.1364 78.3665 17.25C77.8589 16.3636 77.1581 15.678 76.2642 15.1932C75.3703 14.7008 74.34 14.4545 73.1733 14.4545H67.0824V37H66.3551ZM75.2188 26.4091L80.946 37H80.1278L74.4006 26.4091H75.2188Z" fill="#05C2DF"/>
</svg>
