<svg version="1.2" xmlns="http://www.w3.org/2000/svg" viewBox="0 0 134 64" width="134" height="64">
	<title>visa-svg</title>
	<style>
		.s0 { fill: #2566af } 
		.s1 { fill: #e6a540 } 
		.s2 { fill: none } 
	</style>
	<g id="Layer">
		<path id="Layer" fill-rule="evenodd" class="s0" d="m54.9 52.6h-9.7l6.1-37.4h9.7zm-7.4-37.4l-15.5 37.4h-10.2l-8.4-32.5c-5.5-3.3-10.2-4.3-10.2-4.3l0.2-0.6h15.3c4.3 0 4.6 3.4 4.6 3.4l3.3 16.8 1.1 5.5 9.3-25.7zm64.9 31.8h-12.3l-2.1 5.6h-10.1l14.5-34.6c0 0 0.9-2.8 4.5-2.8h7.8l7.8 37.4h-8.9zm-1.6-7.7l-2.9-14-5.1 14zm-35.8-13.8c0 4.3 13.5 5.2 13.5 14.9 0 9.3-10 12.8-16.6 12.8-6.7 0-11-2.1-11-2.1l1.4-8.4c4 3.2 16.1 4.1 16.1-1 0-5.1-13.5-5.2-13.5-14.8 0-10.3 11.5-12.4 16.3-12.4 4.5 0 8.8 1.6 8.8 1.6l-1.4 8c-4.2-2.2-13.6-2.8-13.6 1.4z"/>
	</g>
	<path id="Layer" class="s1" d="m17.7 23.1c-7.1-5.8-14.5-7.3-14.5-7.3l0.2-0.6h15.3c4.3 0 4.7 3.4 4.7 3.4l3.2 16.8c0 0-2.2-6.9-8.9-12.3z"/>
	<path id="Layer" class="s2" d="m-8-37h141.7v141.7h-141.7z"/>
</svg>