<svg width="103" height="84" viewBox="0 0 103 84" fill="none" xmlns="http://www.w3.org/2000/svg">
<path d="M68.5319 9.09158L68.532 9.09161L97.3538 20.0406L98.5841 20.508L97.3538 20.9754L77.4016 28.5558L77.2076 28.6295L77.0184 28.5442L51.9254 17.2233L51.9253 17.2232C51.4055 16.9886 50.7957 17.2192 50.562 17.7338L50.5619 17.734C50.3281 18.2481 50.5561 18.8546 51.0746 19.0891C51.0747 19.0892 51.0748 19.0892 51.0749 19.0892L73.4023 29.1627L74.5004 29.6581L73.3743 30.0858L51.6776 38.3279L51.5 38.3954L51.3224 38.3279L5.6462 20.9754L4.41587 20.508L5.6462 20.0406L51.3224 2.68807L51.5 2.6206L51.6776 2.68808L62.9336 6.96486C63.4654 7.16667 64.0613 6.90022 64.264 6.37188C64.4656 5.84547 64.2011 5.25333 63.6686 5.05114L63.6686 5.05111L51.8682 0.567683L68.5319 9.09158ZM68.5319 9.09158C67.9996 8.88946 67.7349 8.29736 67.9366 7.7699C68.1386 7.24253 68.7335 6.9753 69.2669 7.17782L101.838 19.551C102.237 19.7031 102.5 20.0847 102.5 20.508V27.4683C102.5 27.8926 102.237 28.2738 101.838 28.4251L101.838 28.4252L86.2352 34.3526L85.9128 34.4751V34.82V58.8314C85.9128 59.1414 85.7711 59.4355 85.5273 59.6299L85.5271 59.63C83.2945 61.4126 80.9275 63.0062 78.4564 64.4069L78.203 64.5505V64.8418V72.6211V73.0032L78.5717 73.1036C80.8265 73.7174 82.4858 75.7748 82.4858 78.208C82.4858 81.1234 80.1039 83.5 77.173 83.5C74.2429 83.5 71.861 81.1234 71.861 78.208C71.861 75.7748 73.5203 73.7174 75.7751 73.1036L76.1438 73.0032V72.6211V66.4517V65.6523L75.425 66.0022C68.0126 69.6097 59.811 71.5354 51.5 71.5354C39.1759 71.5354 27.0906 67.3072 17.4736 59.63L17.4735 59.6299C17.2302 59.4358 17.0888 59.142 17.0888 58.8314V46.2005C17.0888 45.6362 17.5481 45.1759 18.118 45.1759C18.689 45.1759 19.148 45.6364 19.148 46.2005V58.093V58.338L19.3417 58.4881C28.4986 65.5869 39.8878 69.4871 51.5 69.4871C60.009 69.4871 68.3962 67.3905 75.8755 63.4785L76.1438 63.3382V63.0354V38.9121V38.1873L75.4662 38.4447L51.8685 47.4092C51.7486 47.4546 51.6238 47.4771 51.5 47.4771C51.3764 47.4771 51.2518 47.4546 51.132 47.4094C51.1318 47.4094 51.1317 47.4093 51.1315 47.4092L19.8256 35.5162L19.148 35.2588V35.9836V40.1031C19.148 40.6672 18.689 41.1276 18.118 41.1276C17.5481 41.1276 17.0888 40.6673 17.0888 40.1031V34.8208V34.4759M68.5319 9.09158L17.0888 34.4759M51.1327 0.567337L51.1322 0.567537L1.1625 19.551L51.1327 0.567337ZM51.1327 0.567337C51.3685 0.477476 51.6301 0.477569 51.8678 0.56753L51.1327 0.567337ZM17.0888 34.4759L16.7664 34.3534M17.0888 34.4759L16.7664 34.3534M16.7664 34.3534L1.1625 28.4261L16.7664 34.3534ZM3.2368 22.2534L2.55923 21.996V22.7208V26.4182V26.7631L2.88166 26.8856L49.7924 44.7072L50.47 44.9646V44.2398V40.5424V40.1974L50.1476 40.075L3.2368 22.2534ZM52.53 44.2398V44.9646L53.2076 44.7072L75.8213 36.1167L76.1438 35.9942V35.6493V31.9511V31.2262L75.4662 31.4837L52.8524 40.075L52.53 40.1974V40.5424V44.2398ZM83.6591 58.4873L83.8527 58.3372V58.0922V35.9828V35.258L83.1752 35.5154L78.5254 37.2819L78.203 37.4044V37.7493V61.301V62.1934L78.9641 61.7275C80.5832 60.7362 82.152 59.6562 83.6591 58.4873ZM78.203 34.4865V35.2113L78.8806 34.9539L100.118 26.8856L100.441 26.7631V26.4182V22.7208V21.996L99.7632 22.2534L78.5254 30.3216L78.203 30.4441V30.7891V34.4865ZM0.5 20.508C0.5 20.0848 0.762764 19.7032 1.16221 19.5511L1.1622 28.4259C0.762757 28.2738 0.5 27.8922 0.5 27.469V20.508ZM77.173 81.4509C78.9656 81.4509 80.4265 79.9979 80.4265 78.208C80.4265 76.4174 78.9657 74.9643 77.173 74.9643C75.381 74.9643 73.9202 76.4175 73.9202 78.208C73.9202 79.9978 75.3811 81.4509 77.173 81.4509Z" stroke="#05C2DF"/>
</svg>
