<svg width="78" height="84" viewBox="0 0 78 84" fill="none" xmlns="http://www.w3.org/2000/svg">
<path d="M72.9497 81.1686V81.6686H73.4497H75.8092C76.3149 81.6686 76.7249 82.0784 76.7249 82.5843C76.7249 83.0902 76.315 83.5 75.8092 83.5H2.19109C1.68547 83.5 1.27539 83.0901 1.27539 82.5841C1.27539 82.0782 1.68527 81.6684 2.19109 81.6684H4.55096H5.05096V81.1684V27.8426C5.05096 27.3366 5.46084 26.9269 5.96666 26.9269H17.7644H18.2644V26.4269V14.6291C18.2644 14.1232 18.6743 13.7134 19.1801 13.7134H23.4273H23.9273V13.2134V7.07864C23.9273 6.57273 24.3372 6.16294 24.843 6.16294H30.9778H31.4778V5.66294V1.4157C31.4778 0.909827 31.8878 0.5 32.3935 0.5C32.8992 0.5 33.3092 0.909828 33.3092 1.4157V5.66294V6.16294H33.8092H39.9442C40.4499 6.16294 40.8599 6.57277 40.8599 7.07864V13.2134V13.7134H41.3599H44.1913H44.6913V13.2134V7.07864C44.6913 6.57273 45.1011 6.16294 45.6069 6.16294H72.034C72.5397 6.16294 72.9497 6.57277 72.9497 7.07864V81.1686ZM26.2586 7.99434H25.7586V8.49434V13.2134V13.7134H26.2586H38.5281H39.0281V13.2134V8.49434V7.99434H38.5281H26.2586ZM21.5395 81.6686H22.0395V81.1686V76.4495V75.9495H21.5395H16.8204H16.3204V76.4495V81.1686V81.6686H16.8204H17.7642H18.2642V81.1686V78.8091C18.2642 78.3032 18.6742 77.8934 19.1799 77.8934C19.6856 77.8934 20.0956 78.3032 20.0956 78.8091V81.1686V81.6686H20.5956H21.5395ZM30.9777 81.6686H31.4777V81.1686V47.2669V44.8314V29.2584V28.7584H30.9777H7.38219H6.88219V29.2584V81.1686V81.6686H7.38219H13.989H14.489V81.1686V75.0338C14.489 74.5279 14.8989 74.1181 15.4047 74.1181H22.9552C23.4609 74.1181 23.8709 74.528 23.8709 75.0338V81.1686V81.6686H24.3709H30.9777ZM20.0956 26.427V26.927H20.5956H32.3934C32.8992 26.927 33.3092 27.3369 33.3092 27.8429V28.3147V28.8147H33.8092H38.0565C38.5622 28.8147 38.9722 29.2246 38.9722 29.7304C38.9722 30.2363 38.5623 30.6461 38.0565 30.6461H33.8092H33.3092V31.1461V35.8652V36.3652H33.8092H38.0565C38.5622 36.3652 38.9722 36.775 38.9722 37.2809C38.9722 37.7868 38.5623 38.1966 38.0565 38.1966H33.8092H33.3092V38.6966V43.4157V43.9157H33.8092H44.1911H44.6911V43.4157V16.045V15.545H44.1911H20.5956H20.0956V16.045V26.427ZM57.4047 81.6686H57.9047V81.1686V46.2472V45.7472H57.4047H33.8092H33.3092V46.2472V47.2669V81.1686V81.6686H33.8092H57.4047ZM59.7361 81.1686V81.6686H60.2361H70.6181H70.6183H71.1183V81.1686V8.49434V7.99434H70.6183H47.0228H46.5228V8.49434V14.6293V43.4155V43.9155H47.0228H51.7419H52.2419V43.4155V42.9437C52.2419 42.4378 52.6519 42.028 53.1576 42.028C53.6633 42.028 54.0733 42.4378 54.0733 42.9437V43.4155V43.9155H54.5733H57.4047H57.9047V43.4155V42.9437C57.9047 42.4378 58.3147 42.028 58.8204 42.028C59.3261 42.028 59.7361 42.4378 59.7361 42.9437V44.8314V81.1686Z" stroke="#05C2DF"/>
</svg>
