<svg width="84" height="85" viewBox="0 0 84 85" fill="none" xmlns="http://www.w3.org/2000/svg">
<mask id="path-1-inside-1_1_98" fill="white">
<path d="M65.1057 44.8159L56.0219 33.2522C59.2475 29.9453 61.1953 25.6012 61.5189 20.993H75.5848V22.5324C72.3288 23.2015 69.9907 26.0656 69.987 29.3897C69.9879 33.2541 73.1213 36.3862 76.9857 36.3856C80.8501 36.3848 83.9822 33.2513 83.9815 29.3869C83.9809 26.0623 81.6411 23.1973 78.3837 22.5324V19.5935C78.3837 18.8207 77.7571 18.1941 76.9843 18.1941H61.5189C61.2454 14.3167 59.8172 10.6099 57.4186 7.55124L59.3708 5.59901H75.8423C76.6152 7.78513 79.014 8.93075 81.2 8.15773C83.3861 7.38488 84.5317 4.98605 83.7587 2.8001C82.9857 0.614161 80.5872 -0.531641 78.4012 0.241207C77.2056 0.663841 76.2652 1.60445 75.8425 2.79993H58.7916C58.4204 2.79993 58.0646 2.94757 57.8022 3.20997L55.5421 5.47008C47.765 -2.01978 35.3885 -1.78695 27.8985 5.99016C24.7151 9.29566 22.7959 13.6158 22.4772 18.1939H10.7218L6.14683 7.90391C8.19195 6.82755 8.9774 4.29734 7.90122 2.25222C6.82504 0.207095 4.29465 -0.578172 2.24953 0.498006C0.204581 1.57418 -0.580861 4.10439 0.495317 6.14952C1.06087 7.2243 2.06568 8.00047 3.24856 8.27599L8.53149 20.1629C8.75646 20.668 9.25781 20.9932 9.81059 20.9928H22.477C22.7993 25.548 24.7095 29.8457 27.8747 33.1372L16.0605 44.9514C8.42146 43.8069 1.30088 49.0716 0.1563 56.7107C-0.988277 64.3498 4.27646 71.4703 11.9155 72.6149C12.1461 72.6496 12.3775 72.6782 12.6095 72.7012V79.7698C12.6095 80.5426 13.2361 81.1692 14.009 81.1692H26.8615C27.6344 83.3554 30.0332 84.501 32.2191 83.728C34.4051 82.9549 35.5509 80.5563 34.7779 78.3703C34.0048 76.1844 31.6062 75.0386 29.4202 75.8116C28.2246 76.2343 27.2842 77.1749 26.8615 78.3703H15.4084V72.7012C23.0945 71.935 28.7044 65.0829 27.9382 57.3966C27.4197 52.1955 24.0442 47.7174 19.1869 45.7869L29.9627 35.0111C36.9803 40.5365 46.8579 40.5762 53.9199 35.1077L61.6841 44.9906C50.9634 46.4861 43.4849 56.3891 44.9804 67.1096C46.4759 77.8303 56.3789 85.3088 67.0994 83.8133C77.8201 82.3178 85.2986 72.4148 83.8031 61.6943C82.4897 52.2777 74.6071 45.162 65.1057 44.8159ZM81.1826 29.3897C81.1826 31.7084 79.303 33.588 76.9843 33.588C74.6656 33.588 72.7859 31.7084 72.7859 29.3897C72.7859 27.071 74.6656 25.1913 76.9843 25.1913C79.303 25.1913 81.1826 27.071 81.1826 29.3897ZM79.7832 2.8001C80.556 2.8001 81.1826 3.42671 81.1826 4.19956C81.1826 4.9724 80.556 5.59901 79.7832 5.59901C79.0103 5.59901 78.3837 4.9724 78.3837 4.19956C78.3837 3.42671 79.0103 2.8001 79.7832 2.8001ZM4.21279 5.59901C3.43994 5.59901 2.81333 4.9724 2.81333 4.19956C2.81333 3.42671 3.43994 2.8001 4.21279 2.8001C4.98563 2.8001 5.61224 3.42671 5.61224 4.19956C5.61224 4.9724 4.98563 5.59901 4.21279 5.59901ZM30.8024 78.3705C31.5752 78.3705 32.2018 78.9971 32.2018 79.77C32.2018 80.5428 31.5752 81.1694 30.8024 81.1694C30.0295 81.1694 29.4029 80.5428 29.4029 79.77C29.4029 78.9971 30.0295 78.3705 30.8024 78.3705ZM19.6068 68.4596C16.1482 70.4794 11.8697 70.4794 8.41114 68.4596V65.7754C8.41114 62.6839 10.9174 60.1776 14.009 60.1776C17.1005 60.1776 19.6068 62.6839 19.6068 65.7754V68.4596ZM11.21 54.5798C11.21 53.034 12.4631 51.7809 14.009 51.7809C15.5548 51.7809 16.8079 53.034 16.8079 54.5798C16.8079 56.1257 15.5548 57.3787 14.009 57.3787C12.4631 57.3787 11.21 56.1255 11.21 54.5798ZM22.4057 51.3485C24.2148 53.3999 25.2105 56.0428 25.2046 58.7782C25.204 61.4977 24.2085 64.1229 22.4057 66.1589V65.7754C22.4039 62.7159 20.738 59.8993 18.0576 58.4241C20.1923 56.1878 20.1097 52.6444 17.8734 50.5097C15.637 48.3752 12.0936 48.4576 9.95894 50.6939C7.89422 52.8569 7.89422 56.2609 9.95894 58.424C7.27899 59.8995 5.61381 62.7159 5.61224 65.7753V66.1587C1.52251 61.5213 1.96649 54.4465 6.60375 50.3568C11.2412 46.2671 18.3159 46.7111 22.4057 51.3485ZM51.7942 33.2018C45.952 37.4432 38.044 37.4432 32.2018 33.2018V29.8095C32.2018 27.259 34.2695 25.1913 36.82 25.1913H39.9268L37.8962 30.2685C37.6882 30.7886 37.8105 31.3829 38.2069 31.7786L41.0058 34.5775C41.5523 35.1238 42.4381 35.1238 42.9846 34.5775L45.7835 31.7786C46.1799 31.3827 46.3022 30.7886 46.0942 30.2685L44.065 25.1913H47.176C49.7265 25.1913 51.7942 27.259 51.7942 29.8095V33.2018ZM42.1983 10.4761C42.1458 10.5636 42.1031 10.6563 42.0709 10.753C41.3628 12.876 37.5397 13.6807 35.078 13.9144C35.4535 9.22446 37.6604 6.99829 41.9982 6.99829C45.9698 6.99829 48.1558 8.87635 48.7813 12.7948L44.1183 9.99591C43.4553 9.59847 42.5957 9.81346 42.1983 10.4761ZM43.9278 13.1477L48.9295 16.1495C48.3683 19.5753 44.1461 22.3924 41.998 22.3924C38.8767 21.8608 36.2802 19.6964 35.1953 16.7219C37.5911 16.5245 41.9168 15.7982 43.9278 13.1477ZM43.1539 30.4519L41.998 31.6092L40.842 30.4519L41.998 27.5592L43.1539 30.4519ZM48.1038 22.4568C50.2869 20.7388 51.6302 18.1684 51.7942 15.3952C51.7942 6.142 46.4664 4.19956 41.998 4.19956C37.5295 4.19956 32.2018 6.142 32.2018 15.3952C32.3645 18.1699 33.708 20.7421 35.8922 22.461C32.1826 22.9181 29.3975 26.0718 29.4029 29.8095V30.6604C23.2682 23.7044 23.934 13.0922 30.8902 6.95753C37.8463 0.822854 48.4584 1.48864 54.5931 8.44462C60.1909 14.792 60.1909 24.3128 54.5931 30.6602V29.8094C54.6006 26.0702 51.815 22.9139 48.1038 22.4568ZM74.1854 77.9843C68.3432 82.2257 60.4352 82.2257 54.5931 77.9843V74.592C54.5931 72.0415 56.6608 69.9738 59.2113 69.9738H62.318L60.2874 75.051C60.0794 75.5711 60.2017 76.1652 60.5981 76.561L63.397 79.3599C63.9435 79.9062 64.8294 79.9062 65.3758 79.3599L68.1747 76.561C68.5711 76.1652 68.6934 75.5711 68.4854 75.051L66.4562 69.9738H69.5672C72.1177 69.9738 74.1854 72.0415 74.1854 74.592V77.9843ZM66.3191 57.9301V57.9287L71.3207 60.9305C70.7595 64.3578 66.5374 67.1749 64.3892 67.1749C61.2679 66.6433 58.6714 64.4789 57.5865 61.5043C59.9823 61.307 64.3081 60.5805 66.3191 57.9301ZM57.4689 58.697C57.844 54.0075 60.0509 51.7809 64.3892 51.7809C68.3609 51.7809 70.5468 53.659 71.1724 57.5775L66.5094 54.7786C65.8466 54.3809 64.987 54.5959 64.5893 55.2587C64.5369 55.3462 64.4942 55.4389 64.462 55.5357C63.7539 57.6586 59.9306 58.4633 57.4689 58.697ZM65.5452 75.2343L64.3892 76.3917L63.2333 75.2343L64.3892 72.3417L65.5452 75.2343ZM76.9843 75.4469V74.5918C76.9918 70.8525 74.2062 67.6964 70.495 67.2391C72.6782 65.5211 74.0215 62.9507 74.1854 60.1775C74.1854 50.9243 68.8577 48.9818 64.3892 48.9818C59.9208 48.9818 54.5931 50.9243 54.5931 60.1775C54.7557 62.9522 56.0992 65.5244 58.2834 67.2433C54.5738 67.7004 51.7887 70.8541 51.7942 74.5918V75.4427C45.6738 68.4813 46.3557 57.8762 53.3171 51.7559C60.2785 45.6356 70.8836 46.3175 77.0039 53.2789C79.7006 56.3461 81.1863 60.2915 81.1826 64.3756C81.1818 68.455 79.6886 72.3929 76.9843 75.4469Z"/>
</mask>
<path d="M65.1057 44.8159L56.0219 33.2522C59.2475 29.9453 61.1953 25.6012 61.5189 20.993H75.5848V22.5324C72.3288 23.2015 69.9907 26.0656 69.987 29.3897C69.9879 33.2541 73.1213 36.3862 76.9857 36.3856C80.8501 36.3848 83.9822 33.2513 83.9815 29.3869C83.9809 26.0623 81.6411 23.1973 78.3837 22.5324V19.5935C78.3837 18.8207 77.7571 18.1941 76.9843 18.1941H61.5189C61.2454 14.3167 59.8172 10.6099 57.4186 7.55124L59.3708 5.59901H75.8423C76.6152 7.78513 79.014 8.93075 81.2 8.15773C83.3861 7.38488 84.5317 4.98605 83.7587 2.8001C82.9857 0.614161 80.5872 -0.531641 78.4012 0.241207C77.2056 0.663841 76.2652 1.60445 75.8425 2.79993H58.7916C58.4204 2.79993 58.0646 2.94757 57.8022 3.20997L55.5421 5.47008C47.765 -2.01978 35.3885 -1.78695 27.8985 5.99016C24.7151 9.29566 22.7959 13.6158 22.4772 18.1939H10.7218L6.14683 7.90391C8.19195 6.82755 8.9774 4.29734 7.90122 2.25222C6.82504 0.207095 4.29465 -0.578172 2.24953 0.498006C0.204581 1.57418 -0.580861 4.10439 0.495317 6.14952C1.06087 7.2243 2.06568 8.00047 3.24856 8.27599L8.53149 20.1629C8.75646 20.668 9.25781 20.9932 9.81059 20.9928H22.477C22.7993 25.548 24.7095 29.8457 27.8747 33.1372L16.0605 44.9514C8.42146 43.8069 1.30088 49.0716 0.1563 56.7107C-0.988277 64.3498 4.27646 71.4703 11.9155 72.6149C12.1461 72.6496 12.3775 72.6782 12.6095 72.7012V79.7698C12.6095 80.5426 13.2361 81.1692 14.009 81.1692H26.8615C27.6344 83.3554 30.0332 84.501 32.2191 83.728C34.4051 82.9549 35.5509 80.5563 34.7779 78.3703C34.0048 76.1844 31.6062 75.0386 29.4202 75.8116C28.2246 76.2343 27.2842 77.1749 26.8615 78.3703H15.4084V72.7012C23.0945 71.935 28.7044 65.0829 27.9382 57.3966C27.4197 52.1955 24.0442 47.7174 19.1869 45.7869L29.9627 35.0111C36.9803 40.5365 46.8579 40.5762 53.9199 35.1077L61.6841 44.9906C50.9634 46.4861 43.4849 56.3891 44.9804 67.1096C46.4759 77.8303 56.3789 85.3088 67.0994 83.8133C77.8201 82.3178 85.2986 72.4148 83.8031 61.6943C82.4897 52.2777 74.6071 45.162 65.1057 44.8159ZM81.1826 29.3897C81.1826 31.7084 79.303 33.588 76.9843 33.588C74.6656 33.588 72.7859 31.7084 72.7859 29.3897C72.7859 27.071 74.6656 25.1913 76.9843 25.1913C79.303 25.1913 81.1826 27.071 81.1826 29.3897ZM79.7832 2.8001C80.556 2.8001 81.1826 3.42671 81.1826 4.19956C81.1826 4.9724 80.556 5.59901 79.7832 5.59901C79.0103 5.59901 78.3837 4.9724 78.3837 4.19956C78.3837 3.42671 79.0103 2.8001 79.7832 2.8001ZM4.21279 5.59901C3.43994 5.59901 2.81333 4.9724 2.81333 4.19956C2.81333 3.42671 3.43994 2.8001 4.21279 2.8001C4.98563 2.8001 5.61224 3.42671 5.61224 4.19956C5.61224 4.9724 4.98563 5.59901 4.21279 5.59901ZM30.8024 78.3705C31.5752 78.3705 32.2018 78.9971 32.2018 79.77C32.2018 80.5428 31.5752 81.1694 30.8024 81.1694C30.0295 81.1694 29.4029 80.5428 29.4029 79.77C29.4029 78.9971 30.0295 78.3705 30.8024 78.3705ZM19.6068 68.4596C16.1482 70.4794 11.8697 70.4794 8.41114 68.4596V65.7754C8.41114 62.6839 10.9174 60.1776 14.009 60.1776C17.1005 60.1776 19.6068 62.6839 19.6068 65.7754V68.4596ZM11.21 54.5798C11.21 53.034 12.4631 51.7809 14.009 51.7809C15.5548 51.7809 16.8079 53.034 16.8079 54.5798C16.8079 56.1257 15.5548 57.3787 14.009 57.3787C12.4631 57.3787 11.21 56.1255 11.21 54.5798ZM22.4057 51.3485C24.2148 53.3999 25.2105 56.0428 25.2046 58.7782C25.204 61.4977 24.2085 64.1229 22.4057 66.1589V65.7754C22.4039 62.7159 20.738 59.8993 18.0576 58.4241C20.1923 56.1878 20.1097 52.6444 17.8734 50.5097C15.637 48.3752 12.0936 48.4576 9.95894 50.6939C7.89422 52.8569 7.89422 56.2609 9.95894 58.424C7.27899 59.8995 5.61381 62.7159 5.61224 65.7753V66.1587C1.52251 61.5213 1.96649 54.4465 6.60375 50.3568C11.2412 46.2671 18.3159 46.7111 22.4057 51.3485ZM51.7942 33.2018C45.952 37.4432 38.044 37.4432 32.2018 33.2018V29.8095C32.2018 27.259 34.2695 25.1913 36.82 25.1913H39.9268L37.8962 30.2685C37.6882 30.7886 37.8105 31.3829 38.2069 31.7786L41.0058 34.5775C41.5523 35.1238 42.4381 35.1238 42.9846 34.5775L45.7835 31.7786C46.1799 31.3827 46.3022 30.7886 46.0942 30.2685L44.065 25.1913H47.176C49.7265 25.1913 51.7942 27.259 51.7942 29.8095V33.2018ZM42.1983 10.4761C42.1458 10.5636 42.1031 10.6563 42.0709 10.753C41.3628 12.876 37.5397 13.6807 35.078 13.9144C35.4535 9.22446 37.6604 6.99829 41.9982 6.99829C45.9698 6.99829 48.1558 8.87635 48.7813 12.7948L44.1183 9.99591C43.4553 9.59847 42.5957 9.81346 42.1983 10.4761ZM43.9278 13.1477L48.9295 16.1495C48.3683 19.5753 44.1461 22.3924 41.998 22.3924C38.8767 21.8608 36.2802 19.6964 35.1953 16.7219C37.5911 16.5245 41.9168 15.7982 43.9278 13.1477ZM43.1539 30.4519L41.998 31.6092L40.842 30.4519L41.998 27.5592L43.1539 30.4519ZM48.1038 22.4568C50.2869 20.7388 51.6302 18.1684 51.7942 15.3952C51.7942 6.142 46.4664 4.19956 41.998 4.19956C37.5295 4.19956 32.2018 6.142 32.2018 15.3952C32.3645 18.1699 33.708 20.7421 35.8922 22.461C32.1826 22.9181 29.3975 26.0718 29.4029 29.8095V30.6604C23.2682 23.7044 23.934 13.0922 30.8902 6.95753C37.8463 0.822854 48.4584 1.48864 54.5931 8.44462C60.1909 14.792 60.1909 24.3128 54.5931 30.6602V29.8094C54.6006 26.0702 51.815 22.9139 48.1038 22.4568ZM74.1854 77.9843C68.3432 82.2257 60.4352 82.2257 54.5931 77.9843V74.592C54.5931 72.0415 56.6608 69.9738 59.2113 69.9738H62.318L60.2874 75.051C60.0794 75.5711 60.2017 76.1652 60.5981 76.561L63.397 79.3599C63.9435 79.9062 64.8294 79.9062 65.3758 79.3599L68.1747 76.561C68.5711 76.1652 68.6934 75.5711 68.4854 75.051L66.4562 69.9738H69.5672C72.1177 69.9738 74.1854 72.0415 74.1854 74.592V77.9843ZM66.3191 57.9301V57.9287L71.3207 60.9305C70.7595 64.3578 66.5374 67.1749 64.3892 67.1749C61.2679 66.6433 58.6714 64.4789 57.5865 61.5043C59.9823 61.307 64.3081 60.5805 66.3191 57.9301ZM57.4689 58.697C57.844 54.0075 60.0509 51.7809 64.3892 51.7809C68.3609 51.7809 70.5468 53.659 71.1724 57.5775L66.5094 54.7786C65.8466 54.3809 64.987 54.5959 64.5893 55.2587C64.5369 55.3462 64.4942 55.4389 64.462 55.5357C63.7539 57.6586 59.9306 58.4633 57.4689 58.697ZM65.5452 75.2343L64.3892 76.3917L63.2333 75.2343L64.3892 72.3417L65.5452 75.2343ZM76.9843 75.4469V74.5918C76.9918 70.8525 74.2062 67.6964 70.495 67.2391C72.6782 65.5211 74.0215 62.9507 74.1854 60.1775C74.1854 50.9243 68.8577 48.9818 64.3892 48.9818C59.9208 48.9818 54.5931 50.9243 54.5931 60.1775C54.7557 62.9522 56.0992 65.5244 58.2834 67.2433C54.5738 67.7004 51.7887 70.8541 51.7942 74.5918V75.4427C45.6738 68.4813 46.3557 57.8762 53.3171 51.7559C60.2785 45.6356 70.8836 46.3175 77.0039 53.2789C79.7006 56.3461 81.1863 60.2915 81.1826 64.3756C81.1818 68.455 79.6886 72.3929 76.9843 75.4469Z" stroke="#05C2DF" stroke-width="2" mask="url(#path-1-inside-1_1_98)"/>
</svg>
