<svg width="70" height="82" viewBox="0 0 70 82" fill="none" xmlns="http://www.w3.org/2000/svg">
<path d="M69.2249 7.07864V80.6686H66.8933H56.5113H53.6799H30.0844H27.2529H20.6461H17.8147H17.3708V78.8091C17.3708 77.7507 16.513 76.8934 15.4551 76.8934C14.3973 76.8934 13.5394 77.7507 13.5394 78.8091V80.6686H13.0956H10.2642H3.6574L1.96661 80.6685L1.32617 80.6685V27.8426C1.32617 27.3366 1.73605 26.9269 2.24187 26.9269H14.0396H14.5396V26.4269V14.6291C14.5396 14.1232 14.9495 13.7134 15.4553 13.7134H19.7025H20.2025V13.2134V7.07864C20.2025 6.57273 20.6124 6.16294 21.1182 6.16294H27.253H27.753V5.66294V1.4157C27.753 0.909827 28.163 0.5 28.6687 0.5C29.1744 0.5 29.5844 0.909828 29.5844 1.4157V5.66294V6.16294H30.0844H36.2194C36.7251 6.16294 37.1351 6.57277 37.1351 7.07864V13.2134V13.7134H37.6351H40.4665H40.9665V13.2134V7.07864C40.9665 6.57273 41.3763 6.16294 41.8822 6.16294H68.3092C68.8149 6.16294 69.2249 6.57277 69.2249 7.07864Z" stroke="#05C2DF" stroke-linecap="round"/>
<path d="M36 77.5001V51.0733" stroke="#05C2DF" stroke-linecap="round"/>
<path d="M42 77.4269V51" stroke="#05C2DF" stroke-linecap="round"/>
<path d="M48 77.4269V51" stroke="#05C2DF" stroke-linecap="round"/>
<path d="M50.3226 16.5171C50.3226 17.1611 49.8008 17.6828 49.1569 17.6828C48.513 17.6828 47.9912 17.1611 47.9912 16.5173V14.6296C47.9912 13.9856 48.5132 13.4639 49.1569 13.4639C49.8006 13.4639 50.3226 13.9856 50.3226 14.6296V16.5171Z" fill="#05C2DF" stroke="#05040B" stroke-width="0.5" stroke-linecap="round"/>
<path d="M55.9857 16.5171C55.9857 17.1611 55.4639 17.6828 54.82 17.6828C54.1761 17.6828 53.6543 17.1611 53.6543 16.5173V14.6296C53.6543 13.9856 54.1763 13.4639 54.82 13.4639C55.4637 13.4639 55.9857 13.9856 55.9857 14.6296V16.5171Z" fill="#05C2DF" stroke="#05040B" stroke-width="0.5" stroke-linecap="round"/>
<path d="M61.6498 16.5171C61.6498 17.1611 61.1279 17.6828 60.4841 17.6828C59.8402 17.6828 59.3184 17.1611 59.3184 16.5173V14.6296C59.3184 13.9856 59.8403 13.4639 60.4841 13.4639C61.1278 13.4639 61.6498 13.9856 61.6498 14.6296V16.5171Z" fill="#05C2DF" stroke="#05040B" stroke-width="0.5" stroke-linecap="round"/>
<path d="M50.3226 25.9548C50.3226 26.5988 49.8008 27.1205 49.1569 27.1205C48.513 27.1205 47.9912 26.5988 47.9912 25.9548V24.0671C47.9912 23.4231 48.5132 22.9014 49.1569 22.9014C49.8006 22.9014 50.3226 23.4231 50.3226 24.0671V25.9548Z" fill="#05C2DF" stroke="#05040B" stroke-width="0.5" stroke-linecap="round"/>
<path d="M55.9857 25.9548C55.9857 26.5988 55.4639 27.1205 54.82 27.1205C54.1761 27.1205 53.6543 26.5988 53.6543 25.9548V24.0671C53.6543 23.4231 54.1763 22.9014 54.82 22.9014C55.4637 22.9014 55.9857 23.4231 55.9857 24.0671V25.9548Z" fill="#05C2DF" stroke="#05040B" stroke-width="0.5" stroke-linecap="round"/>
<path d="M61.6498 25.9548C61.6498 26.5988 61.1279 27.1205 60.4841 27.1205C59.8402 27.1205 59.3184 26.5988 59.3184 25.9548V24.0671C59.3184 23.4231 59.8403 22.9014 60.4841 22.9014C61.1278 22.9014 61.6498 23.4231 61.6498 24.0671V25.9548Z" fill="#05C2DF" stroke="#05040B" stroke-width="0.5" stroke-linecap="round"/>
<path d="M50.3226 35.3932C50.3226 36.0372 49.8008 36.5589 49.1569 36.5589C48.5131 36.5589 47.9912 36.0371 47.9912 35.3932V33.5055C47.9912 32.8616 48.5132 32.3398 49.1569 32.3398C49.8006 32.3398 50.3226 32.8616 50.3226 33.5055V35.3932Z" fill="#05C2DF" stroke="#05040B" stroke-width="0.5" stroke-linecap="round"/>
<path d="M55.9857 35.3932C55.9857 36.0372 55.4639 36.5589 54.82 36.5589C54.1761 36.5589 53.6543 36.0371 53.6543 35.3932V33.5055C53.6543 32.8616 54.1763 32.3398 54.82 32.3398C55.4637 32.3398 55.9857 32.8616 55.9857 33.5055V35.3932Z" fill="#05C2DF" stroke="#05040B" stroke-width="0.5" stroke-linecap="round"/>
<path d="M61.6498 35.3932C61.6498 36.0372 61.1279 36.5589 60.4841 36.5589C59.8402 36.5589 59.3184 36.0371 59.3184 35.3932V33.5055C59.3184 32.8616 59.8403 32.3398 60.4841 32.3398C61.1278 32.3398 61.6498 32.8616 61.6498 33.5055V35.3932Z" fill="#05C2DF" stroke="#05040B" stroke-width="0.5" stroke-linecap="round"/>
<path d="M10.683 39.1686C10.683 39.8126 10.1611 40.3343 9.51726 40.3343C8.87355 40.3343 8.35156 39.8125 8.35156 39.1686V37.2809C8.35156 36.637 8.87353 36.1152 9.51726 36.1152C10.161 36.1152 10.683 36.637 10.683 37.2809V39.1686Z" fill="#05C2DF" stroke="#05040B" stroke-width="0.5" stroke-linecap="round"/>
<path d="M16.346 39.1686C16.346 39.8126 15.8242 40.3343 15.1803 40.3343C14.5365 40.3343 14.0146 39.8125 14.0146 39.1686V37.2809C14.0146 36.637 14.5366 36.1152 15.1803 36.1152C15.8241 36.1152 16.346 36.637 16.346 37.2809V39.1686Z" fill="#05C2DF" stroke="#05040B" stroke-width="0.5" stroke-linecap="round"/>
<path d="M22.0081 39.1686C22.0081 39.8126 21.4863 40.3343 20.8425 40.3343C20.1986 40.3343 19.6768 39.8125 19.6768 39.1686V37.2809C19.6768 36.637 20.1987 36.1152 20.8425 36.1152C21.4862 36.1152 22.0081 36.637 22.0081 37.2809V39.1686Z" fill="#05C2DF" stroke="#05040B" stroke-width="0.5" stroke-linecap="round"/>
<path d="M10.683 48.6071C10.683 49.2511 10.1611 49.7728 9.51726 49.7728C8.87355 49.7728 8.35156 49.2509 8.35156 48.6071V46.7194C8.35156 46.0754 8.87353 45.5537 9.51726 45.5537C10.161 45.5537 10.683 46.0754 10.683 46.7194V48.6071Z" fill="#05C2DF" stroke="#05040B" stroke-width="0.5" stroke-linecap="round"/>
<path d="M16.346 48.6071C16.346 49.2511 15.8242 49.7728 15.1803 49.7728C14.5365 49.7728 14.0146 49.251 14.0146 48.6071V46.7194C14.0146 46.0754 14.5366 45.5537 15.1803 45.5537C15.8241 45.5537 16.346 46.0754 16.346 46.7194V48.6071Z" fill="#05C2DF" stroke="#05040B" stroke-width="0.5" stroke-linecap="round"/>
<path d="M22.0081 48.6071C22.0081 49.2511 21.4863 49.7728 20.8425 49.7728C20.1986 49.7728 19.6768 49.251 19.6768 48.6071V46.7194C19.6768 46.0754 20.1987 45.5537 20.8425 45.5537C21.4862 45.5537 22.0081 46.0754 22.0081 46.7194V48.6071Z" fill="#05C2DF" stroke="#05040B" stroke-width="0.5" stroke-linecap="round"/>
<path d="M10.683 58.0446C10.683 58.6886 10.1611 59.2103 9.51726 59.2103C8.87353 59.2103 8.35156 58.6886 8.35156 58.0446V56.1569C8.35156 55.5129 8.87353 54.9912 9.51726 54.9912C10.161 54.9912 10.683 55.5129 10.683 56.1569V58.0446Z" fill="#05C2DF" stroke="#05040B" stroke-width="0.5" stroke-linecap="round"/>
<path d="M16.346 58.0446C16.346 58.6886 15.8242 59.2103 15.1803 59.2103C14.5365 59.2103 14.0146 58.6886 14.0146 58.0446V56.1569C14.0146 55.5129 14.5366 54.9912 15.1803 54.9912C15.8241 54.9912 16.346 55.5129 16.346 56.1569V58.0446Z" fill="#05C2DF" stroke="#05040B" stroke-width="0.5" stroke-linecap="round"/>
<path d="M22.0081 58.0446C22.0081 58.6886 21.4863 59.2103 20.8425 59.2103C20.1986 59.2103 19.6768 58.6886 19.6768 58.0446V56.1569C19.6768 55.5129 20.1987 54.9912 20.8425 54.9912C21.4862 54.9912 22.0081 55.5129 22.0081 56.1569V58.0446Z" fill="#05C2DF" stroke="#05040B" stroke-width="0.5" stroke-linecap="round"/>
<path d="M10.683 67.4831C10.683 68.1271 10.1611 68.6488 9.51726 68.6488C8.87353 68.6488 8.35156 68.1271 8.35156 67.4831V65.5954C8.35156 64.9514 8.87353 64.4297 9.51726 64.4297C10.161 64.4297 10.683 64.9514 10.683 65.5954V67.4831Z" fill="#05C2DF" stroke="#05040B" stroke-width="0.5" stroke-linecap="round"/>
<path d="M16.346 67.4831C16.346 68.1271 15.8242 68.6488 15.1803 68.6488C14.5365 68.6488 14.0146 68.1271 14.0146 67.4831V65.5954C14.0146 64.9514 14.5366 64.4297 15.1803 64.4297C15.8241 64.4297 16.346 64.9514 16.346 65.5954V67.4831Z" fill="#05C2DF" stroke="#05040B" stroke-width="0.5" stroke-linecap="round"/>
<path d="M22.0081 67.4831C22.0081 68.1271 21.4863 68.6488 20.8425 68.6488C20.1986 68.6488 19.6768 68.1271 19.6768 67.4831V65.5954C19.6768 64.9514 20.1987 64.4297 20.8425 64.4297C21.4862 64.4297 22.0081 64.9514 22.0081 65.5954V67.4831Z" fill="#05C2DF" stroke="#05040B" stroke-width="0.5" stroke-linecap="round"/>
<path d="M61.6498 44.8317C61.6498 45.4757 61.1279 45.9974 60.4841 45.9974C59.8402 45.9974 59.3184 45.4756 59.3184 44.8317V42.944C59.3184 42.3 59.8403 41.7783 60.4841 41.7783C61.1278 41.7783 61.6498 42.3 61.6498 42.944V44.8317Z" fill="#05C2DF" stroke="#05040B" stroke-width="0.5" stroke-linecap="round"/>
<path d="M61.6498 54.2702C61.6498 54.9142 61.1279 55.4359 60.4841 55.4359C59.8402 55.4359 59.3184 54.914 59.3184 54.2702V52.3825C59.3184 51.7385 59.8403 51.2168 60.4841 51.2168C61.1278 51.2168 61.6498 51.7385 61.6498 52.3825V54.2702Z" fill="#05C2DF" stroke="#05040B" stroke-width="0.5" stroke-linecap="round"/>
<path d="M61.6498 63.7077C61.6498 64.3517 61.1279 64.8734 60.4841 64.8734C59.8402 64.8734 59.3184 64.3515 59.3184 63.7077V61.82C59.3184 61.176 59.8403 60.6543 60.4841 60.6543C61.1278 60.6543 61.6498 61.176 61.6498 61.82V63.7077Z" fill="#05C2DF" stroke="#05040B" stroke-width="0.5" stroke-linecap="round"/>
<path d="M61.6498 73.1462C61.6498 73.7902 61.1279 74.3119 60.4841 74.3119C59.8402 74.3119 59.3184 73.79 59.3184 73.1462V71.2585C59.3184 70.6145 59.8403 70.0928 60.4841 70.0928C61.1278 70.0928 61.6498 70.6145 61.6498 71.2585V73.1462Z" fill="#05C2DF" stroke="#05040B" stroke-width="0.5" stroke-linecap="round"/>
<path d="M34.3259 20H23" stroke="#05C2DF" stroke-linecap="round"/>
</svg>
