<svg width="83" height="83" viewBox="0 0 83 83" fill="none" xmlns="http://www.w3.org/2000/svg">
<g clip-path="url(#clip0_3495_233)">
<path d="M72.4336 22.1333C72.4336 19.3578 74.6913 17.1 77.4669 17.1C80.2423 17.1 82.5001 19.3579 82.5001 22.1333C82.5001 24.9088 80.2423 27.1665 77.4669 27.1665C74.6915 27.1665 72.4336 24.9087 72.4336 22.1333Z" stroke="#05C2DF"/>
<path d="M0.5 67.7833C0.5 65.0079 2.75787 62.75 5.53328 62.75C8.30884 62.75 10.5666 65.0079 10.5666 67.7833C10.5666 70.5587 8.30884 72.8166 5.53328 72.8166C2.75787 72.8166 0.5 70.5587 0.5 67.7833Z" stroke="#05C2DF"/>
<path d="M73.9784 18.0435L63.1523 12.6305" stroke="#05C2DF"/>
<path d="M57.2163 77.4666C57.2163 74.6912 59.474 72.4333 62.2496 72.4333C65.0251 72.4333 67.2829 74.6914 67.2829 77.4668C67.2829 80.2422 65.0251 82.5001 62.2496 82.5001C59.4741 82.5001 57.2163 80.2421 57.2163 77.4666Z" stroke="#05C2DF"/>
<path d="M58.4861 73.605L48.3564 68.2043" stroke="#05C2DF"/>
<path d="M36.4663 42.8833C36.4663 40.1078 38.724 37.85 41.4996 37.85C44.2751 37.85 46.5329 40.1078 46.5329 42.8833C46.5329 45.6587 44.2751 47.9165 41.4996 47.9165C38.7242 47.9165 36.4663 45.6588 36.4663 42.8833Z" stroke="#05C2DF"/>
<path d="M38.2526 38.6131L30.3135 32.4783" stroke="#05C2DF"/>
<path d="M51.6831 51.1834C51.6831 43.0696 58.286 36.4667 66.3998 36.4667C74.5137 36.4667 81.1165 43.0696 81.1165 51.1834C81.1165 59.2972 74.5137 65.9001 66.3998 65.9001C58.286 65.9001 51.6831 59.2972 51.6831 51.1834Z" stroke="#05C2DF"/>
<path d="M61.3667 47.0333C61.3667 44.2579 63.6244 42 66.4 42C69.1755 42 71.4333 44.2579 71.4333 47.0333C71.4333 49.8087 69.1755 52.0666 66.4 52.0666C63.6246 52.0666 61.3667 49.8088 61.3667 47.0333Z" stroke="#05C2DF"/>
<path d="M73.7589 63.9157L73.7598 63.9152C74.0313 63.7588 74.1996 63.4666 74.1996 63.152V59.5055C74.1996 57.4938 72.5135 55.8333 70.4126 55.8333H62.3866C60.2857 55.8333 58.5996 57.4939 58.5996 59.504V63.1505C58.5996 63.466 58.7674 63.7575 59.0403 63.9157H73.7589ZM73.7589 63.9157C71.5159 65.2138 68.9712 65.9 66.3996 65.9C63.8282 65.9 61.2835 65.2139 59.0406 63.9159L73.7589 63.9157Z" stroke="#05C2DF"/>
<path d="M18.4834 67.7834C18.4834 59.6695 25.0863 53.0667 33.2001 53.0667C41.3139 53.0667 47.9168 59.6694 47.9168 67.7832C47.9168 75.897 41.3139 82.4999 33.2001 82.4999C25.0863 82.4999 18.4834 75.8972 18.4834 67.7834Z" stroke="#05C2DF"/>
<path d="M28.1665 63.6333C28.1665 60.8578 30.4242 58.6 33.1998 58.6C35.9753 58.6 38.2331 60.8578 38.2331 63.6333C38.2331 66.4087 35.9752 68.6665 33.1998 68.6665C30.4244 68.6665 28.1665 66.4088 28.1665 63.6333Z" stroke="#05C2DF"/>
<path d="M40.5606 80.5153L40.5597 80.5158C38.3167 81.8139 35.7719 82.5001 33.2004 82.5001C30.6289 82.5001 28.0843 81.814 25.8413 80.516C25.5683 80.3578 25.4004 80.0662 25.4004 79.7506V76.1041C25.4004 74.094 27.0865 72.4333 29.1874 72.4333H37.2134C39.3143 72.4333 41.0004 74.0939 41.0004 76.1056V79.7521C41.0004 80.0668 40.8321 80.3589 40.5606 80.5153Z" stroke="#05C2DF"/>
<path d="M0.5 33.2C0.5 25.0862 7.10289 18.4833 15.2167 18.4833C23.3304 18.4833 29.9333 25.0862 29.9334 33.2C29.9334 41.3138 23.3306 47.9167 15.2167 47.9167C7.10289 47.9167 0.5 41.3138 0.5 33.2Z" stroke="#05C2DF"/>
<path d="M10.1836 29.05C10.1836 26.2746 12.4413 24.0167 15.2169 24.0167C17.9923 24.0167 20.2502 26.2746 20.2502 29.05C20.2502 31.8254 17.9924 34.0833 15.2169 34.0833C12.4415 34.0833 10.1836 31.8254 10.1836 29.05Z" stroke="#05C2DF"/>
<path d="M22.5767 45.9319L22.5758 45.9325C20.3328 47.2305 17.7881 47.9167 15.2165 47.9167C12.645 47.9167 10.1004 47.2306 7.85744 45.9326C7.58441 45.7744 7.4165 45.4828 7.4165 45.1672V41.5207C7.4165 39.5106 9.10261 37.85 11.2035 37.85H19.2295C21.3303 37.85 23.0165 39.5105 23.0165 41.5222V45.1687C23.0165 45.4833 22.8482 45.7755 22.5767 45.9319Z" stroke="#05C2DF"/>
<path d="M33.7002 15.2167C33.7002 7.10289 40.3031 0.5 48.4169 0.5C56.5306 0.5 63.1335 7.10289 63.1336 15.2167C63.1336 23.3306 56.5307 29.9334 48.4169 29.9334C40.3031 29.9334 33.7002 23.3306 33.7002 15.2167Z" stroke="#05C2DF"/>
<path d="M43.3833 11.0666C43.3833 8.29119 45.641 6.03333 48.4166 6.03333C51.192 6.03333 53.4499 8.29134 53.4499 11.0668C53.4499 13.8422 51.192 16.0999 48.4166 16.0999C45.6412 16.0999 43.3833 13.842 43.3833 11.0666Z" stroke="#05C2DF"/>
<path d="M55.7769 27.9487L55.776 27.9492C53.533 29.2473 50.9882 29.9334 48.4167 29.9334C45.8452 29.9334 43.3006 29.2473 41.0576 27.9493C40.7846 27.7911 40.6167 27.4995 40.6167 27.1839V23.5374C40.6167 21.5274 42.3028 19.8667 44.4037 19.8667H52.4297C54.5305 19.8667 56.2167 21.5271 56.2167 23.5389V27.1854C56.2167 27.5001 56.0484 27.7922 55.7769 27.9487Z" stroke="#05C2DF"/>
<path d="M33.4038 14.4348L24.5391 21.6522" stroke="#05C2DF"/>
<path d="M65.6778 36.087L58.4604 26.3435" stroke="#05C2DF"/>
<path d="M52.1143 56.2957L46.5522 60.6261" stroke="#05C2DF"/>
<path d="M18.3444 67.4827H10.8262" stroke="#05C2DF"/>
<path d="M20.2497 5.53325V5.53328C20.2497 8.30869 17.9919 10.5666 15.2164 10.5666C12.441 10.5666 10.1831 8.30884 10.1831 5.53328C10.1831 2.75788 12.441 0.5 15.2165 0.5C17.992 0.5 20.2498 2.75787 20.2497 5.53325Z" stroke="#05C2DF"/>
<path d="M14.0737 10.826V18.0434" stroke="#05C2DF"/>
</g>
<defs>
<clipPath id="clip0_3495_233">
<rect width="83" height="83" fill="white"/>
</clipPath>
</defs>
</svg>
