<svg width="115" height="85" viewBox="0 0 115 85" fill="none" xmlns="http://www.w3.org/2000/svg">
<path d="M50.4048 18.6443C53.2306 22.5425 54.7245 27.1543 54.7245 31.9805C54.7245 44.522 44.5212 54.7253 31.9797 54.7253C19.4381 54.7253 9.23486 44.522 9.23486 31.9805C9.23486 19.439 19.4381 9.23572 31.9797 9.23572C36.798 9.23572 41.4032 10.7249 45.2973 13.5422" stroke="#05C2DF" stroke-width="1.00668" stroke-linejoin="round"/>
<path d="M31.9808 41.0912C26.958 41.0912 22.8705 37.0038 22.8705 31.9808C22.8705 26.9577 26.9577 22.8705 31.9808 22.8705C37.0038 22.8705 41.091 26.9577 41.091 31.9808C41.091 37.0038 37.0036 41.0912 31.9808 41.0912Z" stroke="#05C2DF" stroke-width="1.00668"/>
<path d="M112.762 1C103.257 1 95.5254 8.73229 95.5254 18.2364V27.2176C93.2525 27.8918 91.1609 29.1109 89.417 30.8082" stroke="#05C2DF" stroke-width="1.00668"/>
<path d="M49.4796 57.5315C53.9453 54.4632 57.5707 50.2573 59.9322 45.3334M94.2965 53.9998C92.6005 52.4513 90.6923 51.1601 88.6241 50.1621L88.2789 49.9955M85.5179 37.3139C85.1301 38.6567 84.9334 40.0389 84.9334 41.4226V48.3812L83.1661 47.5283C76.3596 44.2437 68.8427 42.364 61.2862 42.0317C62.3706 38.8784 62.9607 35.4975 62.9607 31.981C62.9607 14.8983 49.0629 1.00049 31.9805 1.00049C14.898 1.00049 1 14.8983 1 31.981C1 49.0636 14.8978 62.9614 31.9805 62.9614C37.2101 62.9614 42.1402 61.6569 46.4657 59.3592C48.0762 60.7554 74.6828 83.6302 88.5991 83.6302C88.7693 83.6302 88.9388 83.6267 89.1052 83.6198C103.031 83.0385 113.559 71.6193 114 71.1335" stroke="#05C2DF" stroke-width="1.00668"/>
</svg>
