<svg width="84" height="84" viewBox="0 0 84 84" fill="none" xmlns="http://www.w3.org/2000/svg">
<g clip-path="url(#clip0_3495_188)">
<path d="M76.2249 7.07864V80.6686H73.8933H63.5113H60.6799H37.0844H34.2529H27.6461H24.8147H24.3708V78.8091C24.3708 77.7507 23.513 76.8934 22.4551 76.8934C21.3973 76.8934 20.5394 77.7507 20.5394 78.8091V80.6686H20.0956H17.2642H10.6574L8.96661 80.6685L8.32617 80.6685V27.8426C8.32617 27.3366 8.73605 26.9269 9.24187 26.9269H21.0396H21.5396V26.4269V14.6291C21.5396 14.1232 21.9495 13.7134 22.4553 13.7134H26.7025H27.2025V13.2134V7.07864C27.2025 6.57273 27.6124 6.16294 28.1182 6.16294H34.253H34.753V5.66294V1.4157C34.753 0.909827 35.163 0.5 35.6687 0.5C36.1744 0.5 36.5844 0.909828 36.5844 1.4157V5.66294V6.16294H37.0844H43.2194C43.7251 6.16294 44.1351 6.57277 44.1351 7.07864V13.2134V13.7134H44.6351H47.4665H47.9665V13.2134V7.07864C47.9665 6.57273 48.3763 6.16294 48.8822 6.16294H75.3092C75.8149 6.16294 76.2249 6.57277 76.2249 7.07864Z" stroke="#05C2DF" stroke-linecap="round"/>
<path d="M43 77.5V51.0731" stroke="#05C2DF" stroke-linecap="round"/>
<path d="M49 77.4269V51" stroke="#05C2DF" stroke-linecap="round"/>
<path d="M55 77.4269V51" stroke="#05C2DF" stroke-linecap="round"/>
<path d="M57.3226 16.5169C57.3226 17.1609 56.8008 17.6826 56.1569 17.6826C55.513 17.6826 54.9912 17.1608 54.9912 16.517V14.6293C54.9912 13.9853 55.5132 13.4636 56.1569 13.4636C56.8006 13.4636 57.3226 13.9853 57.3226 14.6293V16.5169Z" fill="#05C2DF" stroke="#05040B" stroke-width="0.5" stroke-linecap="round"/>
<path d="M62.9862 16.5169C62.9862 17.1609 62.4643 17.6826 61.8205 17.6826C61.1766 17.6826 60.6548 17.1608 60.6548 16.517V14.6293C60.6548 13.9853 61.1768 13.4636 61.8205 13.4636C62.4642 13.4636 62.9862 13.9853 62.9862 14.6293V16.5169Z" fill="#05C2DF" stroke="#05040B" stroke-width="0.5" stroke-linecap="round"/>
<path d="M68.6493 16.5169C68.6493 17.1609 68.1274 17.6826 67.4836 17.6826C66.8397 17.6826 66.3179 17.1608 66.3179 16.517V14.6293C66.3179 13.9853 66.8398 13.4636 67.4836 13.4636C68.1273 13.4636 68.6493 13.9853 68.6493 14.6293V16.5169Z" fill="#05C2DF" stroke="#05040B" stroke-width="0.5" stroke-linecap="round"/>
<path d="M57.3226 25.955C57.3226 26.599 56.8008 27.1207 56.1569 27.1207C55.513 27.1207 54.9912 26.599 54.9912 25.955V24.0673C54.9912 23.4233 55.5132 22.9016 56.1569 22.9016C56.8006 22.9016 57.3226 23.4233 57.3226 24.0673V25.955Z" fill="#05C2DF" stroke="#05040B" stroke-width="0.5" stroke-linecap="round"/>
<path d="M62.9862 25.955C62.9862 26.599 62.4643 27.1207 61.8205 27.1207C61.1766 27.1207 60.6548 26.599 60.6548 25.955V24.0673C60.6548 23.4233 61.1768 22.9016 61.8205 22.9016C62.4642 22.9016 62.9862 23.4233 62.9862 24.0673V25.955Z" fill="#05C2DF" stroke="#05040B" stroke-width="0.5" stroke-linecap="round"/>
<path d="M68.6493 25.955C68.6493 26.599 68.1274 27.1207 67.4836 27.1207C66.8397 27.1207 66.3179 26.599 66.3179 25.955V24.0673C66.3179 23.4233 66.8398 22.9016 67.4836 22.9016C68.1273 22.9016 68.6493 23.4233 68.6493 24.0673V25.955Z" fill="#05C2DF" stroke="#05040B" stroke-width="0.5" stroke-linecap="round"/>
<path d="M57.3226 35.3934C57.3226 36.0374 56.8008 36.5591 56.1569 36.5591C55.5131 36.5591 54.9912 36.0372 54.9912 35.3934V33.5057C54.9912 32.8617 55.5132 32.34 56.1569 32.34C56.8006 32.34 57.3226 32.8617 57.3226 33.5057V35.3934Z" fill="#05C2DF" stroke="#05040B" stroke-width="0.5" stroke-linecap="round"/>
<path d="M62.9862 35.3934C62.9862 36.0374 62.4643 36.5591 61.8205 36.5591C61.1766 36.5591 60.6548 36.0372 60.6548 35.3934V33.5057C60.6548 32.8617 61.1768 32.34 61.8205 32.34C62.4642 32.34 62.9862 32.8617 62.9862 33.5057V35.3934Z" fill="#05C2DF" stroke="#05040B" stroke-width="0.5" stroke-linecap="round"/>
<path d="M68.6493 35.3934C68.6493 36.0374 68.1274 36.5591 67.4836 36.5591C66.8397 36.5591 66.3179 36.0372 66.3179 35.3934V33.5057C66.3179 32.8617 66.8398 32.34 67.4836 32.34C68.1273 32.34 68.6493 32.8617 68.6493 33.5057V35.3934Z" fill="#05C2DF" stroke="#05040B" stroke-width="0.5" stroke-linecap="round"/>
<path d="M17.6825 39.1686C17.6825 39.8126 17.1606 40.3343 16.5168 40.3343C15.8731 40.3343 15.3511 39.8125 15.3511 39.1686V37.2809C15.3511 36.637 15.873 36.1152 16.5168 36.1152C17.1605 36.1152 17.6825 36.637 17.6825 37.2809V39.1686Z" fill="#05C2DF" stroke="#05040B" stroke-width="0.5" stroke-linecap="round"/>
<path d="M23.3456 39.1686C23.3456 39.8126 22.8237 40.3343 22.1799 40.3343C21.536 40.3343 21.0142 39.8125 21.0142 39.1686V37.2809C21.0142 36.637 21.5361 36.1152 22.1799 36.1152C22.8236 36.1152 23.3456 36.637 23.3456 37.2809V39.1686Z" fill="#05C2DF" stroke="#05040B" stroke-width="0.5" stroke-linecap="round"/>
<path d="M29.0081 39.1686C29.0081 39.8126 28.4863 40.3343 27.8425 40.3343C27.1986 40.3343 26.6768 39.8125 26.6768 39.1686V37.2809C26.6768 36.637 27.1987 36.1152 27.8425 36.1152C28.4862 36.1152 29.0081 36.637 29.0081 37.2809V39.1686Z" fill="#05C2DF" stroke="#05040B" stroke-width="0.5" stroke-linecap="round"/>
<path d="M17.6825 48.6067C17.6825 49.2507 17.1606 49.7724 16.5168 49.7724C15.8731 49.7724 15.3511 49.2506 15.3511 48.6067V46.719C15.3511 46.0751 15.873 45.5533 16.5168 45.5533C17.1605 45.5533 17.6825 46.0751 17.6825 46.719V48.6067Z" fill="#05C2DF" stroke="#05040B" stroke-width="0.5" stroke-linecap="round"/>
<path d="M23.3456 48.6067C23.3456 49.2507 22.8237 49.7724 22.1799 49.7724C21.536 49.7724 21.0142 49.2506 21.0142 48.6067V46.719C21.0142 46.0751 21.5361 45.5533 22.1799 45.5533C22.8236 45.5533 23.3456 46.0751 23.3456 46.719V48.6067Z" fill="#05C2DF" stroke="#05040B" stroke-width="0.5" stroke-linecap="round"/>
<path d="M29.0081 48.6067C29.0081 49.2507 28.4863 49.7724 27.8425 49.7724C27.1986 49.7724 26.6768 49.2506 26.6768 48.6067V46.719C26.6768 46.0751 27.1987 45.5533 27.8425 45.5533C28.4862 45.5533 29.0081 46.0751 29.0081 46.719V48.6067Z" fill="#05C2DF" stroke="#05040B" stroke-width="0.5" stroke-linecap="round"/>
<path d="M17.6825 58.045C17.6825 58.689 17.1606 59.2107 16.5168 59.2107C15.873 59.2107 15.3511 58.689 15.3511 58.045V56.1573C15.3511 55.5133 15.873 54.9916 16.5168 54.9916C17.1605 54.9916 17.6825 55.5133 17.6825 56.1573V58.045Z" fill="#05C2DF" stroke="#05040B" stroke-width="0.5" stroke-linecap="round"/>
<path d="M23.3456 58.045C23.3456 58.689 22.8237 59.2107 22.1799 59.2107C21.536 59.2107 21.0142 58.689 21.0142 58.045V56.1573C21.0142 55.5133 21.5361 54.9916 22.1799 54.9916C22.8236 54.9916 23.3456 55.5133 23.3456 56.1573V58.045Z" fill="#05C2DF" stroke="#05040B" stroke-width="0.5" stroke-linecap="round"/>
<path d="M29.0081 58.045C29.0081 58.689 28.4863 59.2107 27.8425 59.2107C27.1986 59.2107 26.6768 58.689 26.6768 58.045V56.1573C26.6768 55.5133 27.1987 54.9916 27.8425 54.9916C28.4862 54.9916 29.0081 55.5133 29.0081 56.1573V58.045Z" fill="#05C2DF" stroke="#05040B" stroke-width="0.5" stroke-linecap="round"/>
<path d="M17.6825 67.4831C17.6825 68.1271 17.1606 68.6488 16.5168 68.6488C15.873 68.6488 15.3511 68.1271 15.3511 67.4831V65.5954C15.3511 64.9514 15.873 64.4297 16.5168 64.4297C17.1605 64.4297 17.6825 64.9514 17.6825 65.5954V67.4831Z" fill="#05C2DF" stroke="#05040B" stroke-width="0.5" stroke-linecap="round"/>
<path d="M23.3456 67.4831C23.3456 68.1271 22.8237 68.6488 22.1799 68.6488C21.536 68.6488 21.0142 68.1271 21.0142 67.4831V65.5954C21.0142 64.9514 21.5361 64.4297 22.1799 64.4297C22.8236 64.4297 23.3456 64.9514 23.3456 65.5954V67.4831Z" fill="#05C2DF" stroke="#05040B" stroke-width="0.5" stroke-linecap="round"/>
<path d="M29.0081 67.4831C29.0081 68.1271 28.4863 68.6488 27.8425 68.6488C27.1986 68.6488 26.6768 68.1271 26.6768 67.4831V65.5954C26.6768 64.9514 27.1987 64.4297 27.8425 64.4297C28.4862 64.4297 29.0081 64.9514 29.0081 65.5954V67.4831Z" fill="#05C2DF" stroke="#05040B" stroke-width="0.5" stroke-linecap="round"/>
<path d="M68.6493 44.8315C68.6493 45.4755 68.1274 45.9972 67.4836 45.9972C66.8397 45.9972 66.3179 45.4753 66.3179 44.8315V42.9438C66.3179 42.2998 66.8398 41.7781 67.4836 41.7781C68.1273 41.7781 68.6493 42.2998 68.6493 42.9438V44.8315Z" fill="#05C2DF" stroke="#05040B" stroke-width="0.5" stroke-linecap="round"/>
<path d="M68.6493 54.2697C68.6493 54.9137 68.1274 55.4354 67.4836 55.4354C66.8397 55.4354 66.3179 54.9135 66.3179 54.2697V52.382C66.3179 51.738 66.8398 51.2163 67.4836 51.2163C68.1273 51.2163 68.6493 51.738 68.6493 52.382V54.2697Z" fill="#05C2DF" stroke="#05040B" stroke-width="0.5" stroke-linecap="round"/>
<path d="M68.6493 63.7079C68.6493 64.3519 68.1274 64.8736 67.4836 64.8736C66.8397 64.8736 66.3179 64.3518 66.3179 63.7079V61.8202C66.3179 61.1763 66.8398 60.6545 67.4836 60.6545C68.1273 60.6545 68.6493 61.1763 68.6493 61.8202V63.7079Z" fill="#05C2DF" stroke="#05040B" stroke-width="0.5" stroke-linecap="round"/>
<path d="M68.6493 73.146C68.6493 73.79 68.1274 74.3117 67.4836 74.3117C66.8397 74.3117 66.3179 73.7899 66.3179 73.146V71.2583C66.3179 70.6144 66.8398 70.0927 67.4836 70.0927C68.1273 70.0927 68.6493 70.6144 68.6493 71.2583V73.146Z" fill="#05C2DF" stroke="#05040B" stroke-width="0.5" stroke-linecap="round"/>
<path d="M41.3259 20H30" stroke="#05C2DF" stroke-linecap="round"/>
<path fill-rule="evenodd" clip-rule="evenodd" d="M56 42C55.4477 42 55 42.4477 55 43V44H57V43C57 42.4477 56.5523 42 56 42Z" fill="#05C2DF"/>
<path fill-rule="evenodd" clip-rule="evenodd" d="M62 42C61.4477 42 61 42.4477 61 43V44H63V43C63 42.4477 62.5523 42 62 42Z" fill="#05C2DF"/>
</g>
<defs>
<clipPath id="clip0_3495_188">
<rect width="84" height="84" fill="white"/>
</clipPath>
</defs>
</svg>
