<svg width="98" height="81" viewBox="0 0 98 81" fill="none" xmlns="http://www.w3.org/2000/svg">
<g clip-path="url(#clip0_3495_165)">
<path d="M62.2372 5.25331L49.2011 0.107544L0.275391 19.0258L49 41.5L97.7244 19.0178L64.8872 6.43221" stroke="#05C2DF" stroke-miterlimit="10"/>
<path d="M47.9541 15.9352L74.4961 28.0986V71.9292" stroke="#05C2DF" stroke-miterlimit="10"/>
<path d="M16 26L16 40" stroke="#05C2DF" stroke-miterlimit="10"/>
<path d="M16.0801 43.1496V56.7946C16.0801 56.7946 47.5813 83.9771 81.7385 56.7946V26.3093" stroke="#05C2DF" stroke-miterlimit="10"/>
<path d="M74.496 80.9004C76.947 80.9004 78.9339 78.9041 78.9339 76.4416C78.9339 73.9791 76.947 71.9829 74.496 71.9829C72.045 71.9829 70.0581 73.9791 70.0581 76.4416C70.0581 78.9041 72.045 80.9004 74.496 80.9004Z" stroke="#05C2DF" stroke-miterlimit="10"/>
</g>
<defs>
<clipPath id="clip0_3495_165">
<rect width="98" height="81" fill="white"/>
</clipPath>
</defs>
</svg>
