<svg width="39" height="251" viewBox="0 0 39 251" fill="none" xmlns="http://www.w3.org/2000/svg">
<mask id="path-1-outside-1_1_5918" maskUnits="userSpaceOnUse" x="-1.09299" y="-0.489154" width="41.0976" height="253.315" fill="black">
<rect fill="white" x="-1.09299" y="-0.489154" width="41.0976" height="253.315"/>
<path d="M37.9025 240.201L37.9873 250.428L2.98386 239.195L2.87638 226.241L37.6887 214.429L37.7735 224.656L12.5423 232.502L12.5446 232.775L37.9025 240.201ZM24.1461 242.224L23.9866 222.998L31.0772 222.939L31.2367 242.165L24.1461 242.224ZM37.6608 211.067L2.7529 211.357L2.62732 196.221C2.60526 193.562 2.94468 191.326 3.64557 189.513C4.34637 187.689 5.34634 186.312 6.64548 185.38C7.94452 184.438 9.48037 183.959 11.253 183.944C12.5371 183.934 13.7099 184.208 14.7714 184.767C15.8328 185.315 16.7256 186.092 17.4499 187.098C18.1628 188.103 18.6612 189.281 18.9451 190.631L19.286 190.628C19.3304 189.127 19.6998 187.761 20.3941 186.528C21.0771 185.295 22.0292 184.309 23.2504 183.572C24.4602 182.835 25.889 182.459 27.5366 182.445C29.4456 182.43 31.1486 182.916 32.6455 183.903C34.1423 184.879 35.3244 186.279 36.1918 188.101C37.0592 189.924 37.5034 192.102 37.5245 194.636L37.6608 211.067ZM30.0142 201.653L29.9775 197.221C29.9643 195.63 29.6589 194.44 29.0614 193.649C28.4526 192.859 27.563 192.468 26.3925 192.478C25.5744 192.485 24.8828 192.678 24.3177 193.058C23.7527 193.437 23.3253 193.975 23.0356 194.671C22.7458 195.355 22.6049 196.18 22.613 197.146L22.6509 201.714L30.0142 201.653ZM16.7874 201.763L16.7552 197.876C16.7483 197.047 16.6115 196.315 16.3449 195.681C16.0783 195.047 15.6992 194.555 15.2076 194.207C14.7046 193.848 14.0952 193.671 13.3793 193.677C12.2998 193.686 11.4792 194.079 10.9174 194.857C10.3443 195.634 10.0627 196.614 10.0725 197.795L10.1058 201.818L16.7874 201.763ZM19.6603 145.333C23.5465 145.301 26.8311 146.03 29.514 147.519C32.1855 149.008 34.2194 151.031 35.6157 153.588C37.0006 156.144 37.7061 159.002 37.7323 162.161C37.7587 165.343 37.0951 168.224 35.7415 170.803C34.3763 173.371 32.3706 175.422 29.7241 176.956C27.0662 178.478 23.8055 179.255 19.942 179.287C16.0557 179.319 12.7769 178.596 10.1055 177.118C7.42256 175.629 5.38871 173.612 4.00391 171.066C2.60765 168.51 1.89632 165.641 1.86992 162.459C1.84371 159.3 2.50743 156.431 3.86108 153.851C5.20336 151.272 7.20342 149.215 9.86124 147.682C12.5077 146.148 15.774 145.366 19.6603 145.333ZM19.7412 155.083C17.6503 155.1 15.8913 155.393 14.4642 155.962C13.0256 156.52 11.9414 157.341 11.2118 158.427C10.4707 159.501 10.1066 160.822 10.1196 162.39C10.1326 163.959 10.5186 165.279 11.2776 166.353C12.025 167.415 13.1226 168.218 14.5704 168.763C16.0067 169.296 17.7702 169.554 19.8611 169.537C21.9519 169.52 23.7166 169.232 25.1553 168.675C26.5824 168.106 27.6665 167.285 28.4076 166.21C29.1373 165.125 29.4956 163.798 29.4826 162.23C29.4696 160.662 29.0894 159.347 28.3419 158.285C27.583 157.211 26.4853 156.408 25.049 155.874C23.6013 155.329 21.832 155.066 19.7412 155.083ZM1.99856 120.435L1.91993 110.958L24.2828 110.773C26.9418 110.751 29.2481 111.368 31.2018 112.624C33.144 113.87 34.6529 115.619 35.7285 117.871C36.7926 120.124 37.3371 122.744 37.3619 125.733C37.3869 128.744 36.8861 131.385 35.8594 133.655C34.8214 135.925 33.3417 137.698 31.4204 138.976C29.4877 140.242 27.1918 140.886 24.5328 140.908L2.16995 141.093L2.09133 131.616L23.636 131.438C24.7156 131.429 25.6794 131.182 26.5277 130.698C27.3647 130.214 28.0183 129.549 28.4885 128.704C28.9587 127.848 29.1893 126.88 29.1804 125.801C29.1713 124.71 28.9247 123.746 28.4405 122.909C27.9562 122.072 27.2917 121.418 26.4468 120.948C25.5906 120.478 24.6228 120.247 23.5433 120.256L1.99856 120.435ZM9.52659 107.345L1.89049 107.409L1.63877 77.0687L9.27487 77.0053L9.36198 87.5049L36.6338 87.2787L36.7113 96.6193L9.43948 96.8455L9.52659 107.345ZM1.35845 43.2815L1.27983 33.8045L23.6427 33.619C26.3017 33.5969 28.608 34.2142 30.5617 35.4707C32.5039 36.716 34.0128 38.4649 35.0883 40.7175C36.1525 42.9701 36.697 45.5906 36.7218 48.5792C36.7468 51.5904 36.2459 54.231 35.2193 56.501C34.1813 58.7711 32.7016 60.5448 30.7803 61.8221C28.8476 63.0882 26.5517 63.7323 23.8927 63.7543L1.52985 63.9398L1.45122 54.4629L22.9959 54.2842C24.0754 54.2752 25.0393 54.0286 25.8876 53.5442C26.7245 53.06 27.3781 52.3955 27.8484 51.5506C28.3186 50.6944 28.5492 49.7266 28.5403 48.6471C28.5312 47.5562 28.2846 46.5923 27.8003 45.7554C27.3161 44.9184 26.6516 44.2648 25.8067 43.7946C24.9505 43.3244 23.9827 43.0938 22.9032 43.1027L1.35845 43.2815ZM11.9951 10.3924C10.8595 10.4927 9.97669 10.9262 9.34666 11.6928C8.71654 12.4481 8.40784 13.5927 8.42057 15.1267C8.42868 16.104 8.55464 16.9041 8.79845 17.5271C9.03081 18.1388 9.34707 18.5908 9.74723 18.8829C10.1474 19.1751 10.6032 19.3247 11.1146 19.3318C11.5353 19.351 11.9153 19.274 12.2548 19.1007C12.5828 18.9162 12.8816 18.6296 13.1511 18.241C13.4093 17.8525 13.6438 17.3562 13.8547 16.7522C14.0656 16.1481 14.2528 15.4306 14.4164 14.5997L15.0063 11.7311C15.3993 9.79593 15.9254 8.1381 16.5844 6.75758C17.2434 5.37707 18.0238 4.24556 18.9256 3.36304C19.816 2.48063 20.8221 1.83021 21.9436 1.4118C23.0651 0.982028 24.2905 0.755945 25.6199 0.733551C27.9154 0.725871 29.8633 1.28359 31.4636 2.40672C33.0638 3.52985 34.2875 5.14475 35.1346 7.25143C35.9815 9.34675 36.4173 11.8716 36.4418 14.8261C36.4669 17.8601 36.0401 20.5114 35.1611 22.7802C34.2821 25.0375 32.916 26.7989 31.0628 28.0643C29.1981 29.3185 26.8057 29.9634 23.8854 29.999L23.8107 20.9993C24.8784 20.9336 25.7739 20.6591 26.4972 20.1758C27.2205 19.6925 27.766 19.0175 28.1338 18.1508C28.5016 17.2727 28.6804 16.2314 28.6704 15.0269C28.6621 14.0156 28.53 13.1701 28.2744 12.4903C28.0187 11.8106 27.6679 11.2965 27.2218 10.9479C26.7757 10.5993 26.2685 10.4217 25.7003 10.415C25.1663 10.4308 24.7018 10.6108 24.307 10.955C23.9006 11.288 23.5415 11.8364 23.2297 12.6004C22.9065 13.3645 22.6082 14.3954 22.3348 15.6931L21.6137 19.1765C20.9689 22.2729 19.8699 24.7196 18.3165 26.5166C16.7518 28.3024 14.6057 29.2009 11.8785 29.2122C9.66272 29.2419 7.72038 28.6671 6.05145 27.4877C4.37106 26.2971 3.05615 24.6432 2.10674 22.526C1.15723 20.3974 0.67102 17.9525 0.648111 15.1912C0.624731 12.3731 1.07608 9.93181 2.00217 7.86724C2.92825 5.80266 4.2446 4.20646 5.95122 3.07863C7.64637 1.93952 9.6359 1.35482 11.9198 1.3245L11.9951 10.3924Z"/>
</mask>
<path d="M37.9025 240.201L38.9025 240.193L38.8963 239.45L38.1836 239.241L37.9025 240.201ZM37.9873 250.428L37.6818 251.38L38.9988 251.803L38.9873 250.42L37.9873 250.428ZM2.98386 239.195L1.98389 239.203L1.98989 239.926L2.6783 240.147L2.98386 239.195ZM2.87638 226.241L2.55507 225.294L1.87042 225.526L1.87642 226.249L2.87638 226.241ZM37.6887 214.429L38.6886 214.421L38.6772 213.038L37.3674 213.482L37.6887 214.429ZM37.7735 224.656L38.0705 225.611L38.7797 225.39L38.7735 224.648L37.7735 224.656ZM12.5423 232.502L12.2454 231.547L11.5362 231.768L11.5423 232.51L12.5423 232.502ZM12.5446 232.775L11.5446 232.783L11.5508 233.526L12.2635 233.734L12.5446 232.775ZM24.1461 242.224L23.1461 242.233L23.1544 243.233L24.1544 243.224L24.1461 242.224ZM23.9866 222.998L23.9783 221.998L22.9783 222.006L22.9866 223.006L23.9866 222.998ZM31.0772 222.939L32.0772 222.931L32.0689 221.931L31.0689 221.939L31.0772 222.939ZM31.2367 242.165L31.245 243.165L32.245 243.157L32.2367 242.157L31.2367 242.165ZM36.9025 240.209L36.9874 250.436L38.9873 250.42L38.9025 240.193L36.9025 240.209ZM38.2929 249.476L3.28941 238.243L2.6783 240.147L37.6818 251.38L38.2929 249.476ZM3.98382 239.187L3.87635 226.233L1.87642 226.249L1.98389 239.203L3.98382 239.187ZM3.1977 227.188L38.01 215.376L37.3674 213.482L2.55507 225.294L3.1977 227.188ZM36.6887 214.437L36.7736 224.664L38.7735 224.648L38.6886 214.421L36.6887 214.437ZM37.4766 223.701L12.2454 231.547L12.8392 233.457L38.0705 225.611L37.4766 223.701ZM11.5423 232.51L11.5446 232.783L13.5445 232.766L13.5423 232.494L11.5423 232.51ZM12.2635 233.734L37.6214 241.161L38.1836 239.241L12.8256 231.815L12.2635 233.734ZM25.146 242.216L24.9865 222.989L22.9866 223.006L23.1461 242.233L25.146 242.216ZM23.9949 223.998L31.0855 223.939L31.0689 221.939L23.9783 221.998L23.9949 223.998ZM30.0773 222.947L30.2368 242.174L32.2367 242.157L32.0772 222.931L30.0773 222.947ZM31.2284 241.165L24.1378 241.224L24.1544 243.224L31.245 243.165L31.2284 241.165ZM37.6608 211.067L37.6691 212.067L38.669 212.059L38.6608 211.059L37.6608 211.067ZM2.7529 211.357L1.75293 211.365L1.76123 212.365L2.76119 212.357L2.7529 211.357ZM3.64557 189.513L4.57828 189.874L4.57905 189.872L3.64557 189.513ZM6.64548 185.38L7.22809 186.193L7.23278 186.19L6.64548 185.38ZM14.7714 184.767L14.3051 185.652L14.3126 185.656L14.7714 184.767ZM17.4499 187.098L18.2656 186.519L18.2613 186.513L17.4499 187.098ZM18.9451 190.631L17.9666 190.837L18.135 191.637L18.9534 191.631L18.9451 190.631ZM19.286 190.628L19.2943 191.628L20.2571 191.62L20.2856 190.657L19.286 190.628ZM20.3941 186.528L21.2655 187.018L21.2689 187.012L20.3941 186.528ZM23.2504 183.572L23.7673 184.428L23.7708 184.426L23.2504 183.572ZM32.6455 183.903L32.0948 184.738L32.0992 184.741L32.6455 183.903ZM36.1918 188.101L35.2889 188.531L36.1918 188.101ZM30.0142 201.653L30.0225 202.653L31.0225 202.645L31.0142 201.645L30.0142 201.653ZM29.0614 193.649L29.8592 193.046L29.8537 193.039L29.0614 193.649ZM23.0356 194.671L23.9565 195.061L23.9588 195.055L23.0356 194.671ZM22.6509 201.714L21.6509 201.722L21.6592 202.722L22.6592 202.714L22.6509 201.714ZM16.7874 201.763L16.7957 202.763L17.7957 202.754L17.7874 201.754L16.7874 201.763ZM16.3449 195.681L17.2667 195.293L17.2667 195.293L16.3449 195.681ZM15.2076 194.207L14.6262 195.021L14.6296 195.023L15.2076 194.207ZM10.9174 194.857L11.7224 195.45L11.728 195.442L10.9174 194.857ZM10.1058 201.818L9.10587 201.826L9.11416 202.826L10.1141 202.818L10.1058 201.818ZM37.6525 210.067L2.7446 210.357L2.76119 212.357L37.6691 212.067L37.6525 210.067ZM3.75286 211.348L3.62729 196.213L1.62735 196.229L1.75293 211.365L3.75286 211.348ZM3.62729 196.213C3.60591 193.636 3.93626 191.534 4.57828 189.874L2.71287 189.153C1.95309 191.118 1.60461 193.487 1.62735 196.229L3.62729 196.213ZM4.57905 189.872C5.22548 188.189 6.11997 186.987 7.22809 186.193L6.06287 184.568C4.57271 185.636 3.46726 187.189 2.7121 189.155L4.57905 189.872ZM7.23278 186.19C8.3458 185.382 9.67401 184.957 11.2613 184.944L11.2447 182.944C9.28674 182.961 7.54323 183.493 6.05817 184.571L7.23278 186.19ZM11.2613 184.944C12.3921 184.935 13.4001 185.175 14.3051 185.652L15.2376 183.883C14.0196 183.241 12.6821 182.932 11.2447 182.944L11.2613 184.944ZM14.3126 185.656C15.2289 186.129 16.0026 186.799 16.6385 187.682L18.2613 186.513C17.4485 185.385 16.4366 184.502 15.2301 183.879L14.3126 185.656ZM16.6341 187.676C17.2589 188.557 17.7074 189.605 17.9666 190.837L19.9237 190.425C19.615 188.957 19.0667 187.649 18.2656 186.519L16.6341 187.676ZM18.9534 191.631L19.2943 191.628L19.2777 189.628L18.9368 189.631L18.9534 191.631ZM20.2856 190.657C20.3255 189.309 20.6554 188.102 21.2655 187.018L19.5228 186.037C18.7442 187.42 18.3353 188.946 18.2865 190.598L20.2856 190.657ZM21.2689 187.012C21.866 185.934 22.6939 185.076 23.7673 184.428L22.7334 182.716C21.3644 183.543 20.2881 184.655 19.5193 186.043L21.2689 187.012ZM23.7708 184.426C24.8026 183.797 26.0481 183.458 27.5449 183.445L27.5283 181.446C25.7298 181.46 24.1178 181.872 22.7299 182.718L23.7708 184.426ZM27.5449 183.445C29.2688 183.431 30.7746 183.867 32.0948 184.738L33.1962 183.068C31.5226 181.964 29.6225 181.428 27.5283 181.446L27.5449 183.445ZM32.0992 184.741C33.4226 185.604 34.49 186.853 35.2889 188.531L37.0947 187.671C36.1587 185.705 34.8619 184.155 33.1918 183.066L32.0992 184.741ZM35.2889 188.531C36.0797 190.192 36.5044 192.22 36.5245 194.644L38.5244 194.627C38.5025 191.984 38.0387 189.655 37.0947 187.671L35.2889 188.531ZM36.5245 194.644L36.6608 211.075L38.6608 211.059L38.5244 194.627L36.5245 194.644ZM31.0142 201.645L30.9774 197.213L28.9775 197.23L29.0143 201.661L31.0142 201.645ZM30.9774 197.213C30.9635 195.527 30.6436 194.084 29.8592 193.046L28.2637 194.252C28.6743 194.795 28.9651 195.733 28.9775 197.23L30.9774 197.213ZM29.8537 193.039C29.0192 191.956 27.8065 191.466 26.3842 191.478L26.4008 193.478C27.3194 193.47 27.886 193.762 28.2692 194.259L29.8537 193.039ZM26.3842 191.478C25.4103 191.486 24.5179 191.718 23.76 192.228L24.8755 193.888C25.2476 193.638 25.7385 193.484 26.4008 193.478L26.3842 191.478ZM23.76 192.228C23.0149 192.728 22.4692 193.43 22.1125 194.286L23.9588 195.055C24.1814 194.521 24.4905 194.147 24.8755 193.888L23.76 192.228ZM22.1148 194.281C21.7582 195.123 21.6042 196.091 21.613 197.154L23.6129 197.138C23.6057 196.269 23.7334 195.587 23.9564 195.061L22.1148 194.281ZM21.613 197.154L21.6509 201.722L23.6508 201.706L23.6129 197.138L21.613 197.154ZM22.6592 202.714L30.0225 202.653L30.0059 200.653L22.6426 200.714L22.6592 202.714ZM17.7874 201.754L17.7551 197.868L15.7552 197.885L15.7875 201.771L17.7874 201.754ZM17.7551 197.868C17.7474 196.934 17.5931 196.07 17.2667 195.293L15.4231 196.068C15.6299 196.56 15.7492 197.159 15.7552 197.885L17.7551 197.868ZM17.2667 195.293C16.9383 194.512 16.4503 193.862 15.7857 193.391L14.6296 195.023C14.9481 195.249 15.2183 195.581 15.4231 196.068L17.2667 195.293ZM15.7891 193.394C15.088 192.893 14.2637 192.67 13.371 192.677L13.3876 194.677C13.9267 194.672 14.3213 194.803 14.6262 195.021L15.7891 193.394ZM13.371 192.677C12.0194 192.688 10.8803 193.2 10.1069 194.271L11.728 195.442C12.078 194.958 12.5802 194.684 13.3876 194.677L13.371 192.677ZM10.1125 194.263C9.38445 195.251 9.0613 196.455 9.07249 197.804L11.0724 197.787C11.064 196.772 11.3042 196.017 11.7224 195.45L10.1125 194.263ZM9.07249 197.804L9.10587 201.826L11.1058 201.81L11.0724 197.787L9.07249 197.804ZM10.1141 202.818L16.7957 202.763L16.7791 200.763L10.0975 200.818L10.1141 202.818ZM29.514 147.519L30.0009 146.645L29.9993 146.644L29.514 147.519ZM35.6157 153.588L36.495 153.111L36.4933 153.108L35.6157 153.588ZM35.7415 170.803L36.6245 171.273L36.6269 171.268L35.7415 170.803ZM29.7241 176.956L30.2211 177.823L30.2254 177.821L29.7241 176.956ZM10.1055 177.118L9.62016 177.993L9.62139 177.993L10.1055 177.118ZM4.00391 171.066L4.88233 170.589L4.88156 170.587L4.00391 171.066ZM3.86108 153.851L4.74657 154.316L4.74816 154.313L3.86108 153.851ZM9.86124 147.682L10.361 148.548L10.3626 148.547L9.86124 147.682ZM14.4642 155.962L14.8255 156.895L14.8344 156.891L14.4642 155.962ZM11.2118 158.427L12.035 158.995L12.0418 158.985L11.2118 158.427ZM11.2776 166.353L12.0953 165.777L12.094 165.775L11.2776 166.353ZM14.5704 168.763L14.2182 169.699L14.2222 169.7L14.5704 168.763ZM25.1553 168.675L25.5166 169.608L25.5254 169.604L25.1553 168.675ZM28.4076 166.21L29.2309 166.778L29.2376 166.768L28.4076 166.21ZM28.3419 158.285L29.1596 157.709L29.1584 157.707L28.3419 158.285ZM25.0491 155.874L24.6968 156.81L24.7008 156.812L25.0491 155.874ZM19.6686 146.333C23.4274 146.302 26.5318 147.007 29.0287 148.393L29.9993 146.644C27.1303 145.052 23.6656 144.3 19.652 144.333L19.6686 146.333ZM29.0271 148.392C31.5424 149.794 33.4368 151.684 34.738 154.067L36.4933 153.108C35.002 150.378 32.8286 148.222 30.0009 146.645L29.0271 148.392ZM34.7364 154.064C36.0368 156.465 36.7074 159.16 36.7324 162.17L38.7323 162.153C38.7048 158.845 37.9644 155.824 36.495 153.111L34.7364 154.064ZM36.7324 162.17C36.7575 165.202 36.1262 167.918 34.856 170.338L36.6269 171.268C38.064 168.529 38.7599 165.484 38.7323 162.153L36.7324 162.17ZM34.8584 170.334C33.5857 172.728 31.7163 174.646 29.2228 176.09L30.2254 177.821C33.0249 176.199 35.167 174.014 36.6245 171.273L34.8584 170.334ZM29.2272 176.088C26.7522 177.505 23.6697 178.256 19.9337 178.287L19.9503 180.287C23.9412 180.254 27.3802 179.45 30.2211 177.823L29.2272 176.088ZM19.9337 178.287C16.1735 178.318 13.0746 177.618 10.5895 176.243L9.62139 177.993C12.4792 179.574 15.938 180.32 19.9503 180.287L19.9337 178.287ZM10.5908 176.244C8.06364 174.841 6.17094 172.957 4.88233 170.589L3.12549 171.544C4.60647 174.267 6.78148 176.417 9.62016 177.993L10.5908 176.244ZM4.88156 170.587C3.57136 168.188 2.89505 165.483 2.86989 162.451L0.869958 162.467C0.897592 165.798 1.64394 168.832 3.12626 171.546L4.88156 170.587ZM2.86989 162.451C2.84493 159.442 3.4758 156.737 4.74656 154.316L2.9756 153.386C1.53907 156.124 0.842501 159.158 0.869958 162.467L2.86989 162.451ZM4.74816 154.313C5.99754 151.912 7.85861 149.992 10.361 148.548L9.36149 146.816C6.54822 148.439 4.40919 150.632 2.974 153.39L4.74816 154.313ZM10.3626 148.547C12.8238 147.121 15.9096 146.365 19.6686 146.333L19.652 144.333C15.6385 144.367 12.1916 145.176 9.35991 146.817L10.3626 148.547ZM19.7329 154.083C17.5599 154.101 15.6697 154.405 14.094 155.033L14.8344 156.891C16.1129 156.382 17.7407 156.1 19.7495 156.083L19.7329 154.083ZM14.1029 155.03C12.5085 155.647 11.245 156.585 10.3818 157.869L12.0418 158.985C12.6379 158.098 13.5426 157.392 14.8255 156.895L14.1029 155.03ZM10.3886 157.859C9.50885 159.134 9.10531 160.667 9.11967 162.399L11.1196 162.382C11.108 160.977 11.4325 159.868 12.0349 158.995L10.3886 157.859ZM9.11967 162.399C9.13404 164.131 9.56311 165.66 10.4611 166.93L12.094 165.775C11.4741 164.899 11.1313 163.787 11.1196 162.382L9.11967 162.399ZM10.4598 166.928C11.3434 168.184 12.6192 169.097 14.2182 169.699L14.9226 167.827C13.6261 167.339 12.7067 166.646 12.0953 165.777L10.4598 166.928ZM14.2222 169.7C15.8058 170.289 17.6983 170.555 19.8694 170.537L19.8528 168.537C17.8422 168.554 16.2076 168.304 14.9186 167.825L14.2222 169.7ZM19.8694 170.537C22.0409 170.519 23.9331 170.221 25.5165 169.607L24.794 167.743C23.5002 168.244 21.863 168.52 19.8528 168.537L19.8694 170.537ZM25.5254 169.604C27.1028 168.975 28.359 168.042 29.2308 166.778L27.5845 165.643C26.9741 166.527 26.062 167.237 24.7851 167.746L25.5254 169.604ZM29.2376 166.768C30.1005 165.484 30.4969 163.95 30.4826 162.221L28.4826 162.238C28.4943 163.645 28.1741 164.765 27.5777 165.653L29.2376 166.768ZM30.4826 162.221C30.4682 160.493 30.0465 158.969 29.1596 157.709L27.5241 158.86C28.1322 159.724 28.471 160.83 28.4826 162.238L30.4826 162.221ZM29.1584 157.707C28.2649 156.444 26.9903 155.529 25.3973 154.937L24.7008 156.812C25.9804 157.287 26.901 157.979 27.5254 158.862L29.1584 157.707ZM25.4013 154.938C23.8056 154.338 21.9062 154.065 19.7329 154.083L19.7495 156.083C21.7578 156.066 23.397 156.321 24.6968 156.81L25.4013 154.938ZM1.99856 120.435L0.998595 120.443L1.00689 121.443L2.00686 121.435L1.99856 120.435ZM1.91993 110.958L1.91164 109.958L0.911673 109.966L0.919969 110.966L1.91993 110.958ZM31.2018 112.624L30.6609 113.465L30.6621 113.466L31.2018 112.624ZM35.7285 117.871L36.6326 117.444L36.6309 117.44L35.7285 117.871ZM35.8594 133.655L36.7688 134.07L36.7705 134.067L35.8594 133.655ZM31.4204 138.976L31.9684 139.812L31.9741 139.808L31.4204 138.976ZM2.16995 141.093L1.16999 141.102L1.17828 142.102L2.17825 142.093L2.16995 141.093ZM2.09133 131.616L2.08303 130.617L1.08307 130.625L1.09136 131.625L2.09133 131.616ZM26.5277 130.698L27.0236 131.566L27.0285 131.563L26.5277 130.698ZM28.4885 128.704L29.3623 129.191L29.3651 129.186L28.4885 128.704ZM28.4405 122.909L29.306 122.408L28.4405 122.909ZM26.4468 120.948L26.9332 120.074L26.9282 120.072L26.4468 120.948ZM2.99853 120.427L2.9199 110.95L0.919969 110.966L0.998595 120.443L2.99853 120.427ZM1.92823 111.958L24.2911 111.773L24.2745 109.773L1.91164 109.958L1.92823 111.958ZM24.2911 111.773C26.7844 111.752 28.8937 112.329 30.6609 113.465L31.7428 111.783C29.6026 110.407 27.0992 109.749 24.2745 109.773L24.2911 111.773ZM30.6621 113.466C32.4347 114.603 33.8239 116.203 34.826 118.302L36.6309 117.44C35.4819 115.034 33.8534 113.137 31.7416 111.783L30.6621 113.466ZM34.8243 118.298C35.8154 120.396 36.3381 122.869 36.3619 125.741L38.3619 125.724C38.3361 122.62 37.7698 119.851 36.6326 117.444L34.8243 118.298ZM36.3619 125.741C36.386 128.637 35.9041 131.129 34.9483 133.243L36.7705 134.067C37.8681 131.64 38.3878 128.851 38.3619 125.724L36.3619 125.741ZM34.95 133.239C33.9828 135.354 32.6203 136.977 30.8668 138.143L31.9741 139.808C34.0632 138.42 35.6599 136.495 36.7688 134.07L34.95 133.239ZM30.8725 138.139C29.1233 139.285 27.0213 139.887 24.5245 139.908L24.5411 141.908C27.3623 141.884 29.8521 141.199 31.9684 139.812L30.8725 138.139ZM24.5245 139.908L2.16166 140.093L2.17825 142.093L24.5411 141.908L24.5245 139.908ZM3.16992 141.085L3.09129 131.608L1.09136 131.625L1.16999 141.102L3.16992 141.085ZM2.09962 132.616L23.6443 132.438L23.6277 130.438L2.08303 130.617L2.09962 132.616ZM23.6443 132.438C24.8765 132.427 26.0115 132.144 27.0236 131.566L26.0319 129.829C25.3474 130.22 24.5546 130.43 23.6277 130.438L23.6443 132.438ZM27.0285 131.563C28.0217 130.989 28.8042 130.193 29.3623 129.191L27.6148 128.218C27.2323 128.905 26.7076 129.438 26.0269 129.832L27.0285 131.563ZM29.3651 129.186C29.926 128.164 30.1906 127.025 30.1803 125.792L28.1804 125.809C28.1881 126.736 27.9914 127.532 27.612 128.223L29.3651 129.186ZM30.1803 125.792C30.17 124.551 29.8876 123.413 29.306 122.408L27.5749 123.41C27.9618 124.078 28.1726 124.869 28.1804 125.809L30.1803 125.792ZM29.306 122.408C28.7314 121.415 27.9358 120.633 26.9332 120.074L25.9605 121.822C26.6476 122.204 27.1811 122.729 27.5749 123.41L29.306 122.408ZM26.9282 120.072C25.9067 119.511 24.7672 119.246 23.535 119.256L23.5516 121.256C24.4784 121.249 25.2746 121.445 25.9655 121.825L26.9282 120.072ZM23.535 119.256L1.99026 119.435L2.00686 121.435L23.5516 121.256L23.535 119.256ZM9.52659 107.345L9.53488 108.345L10.5348 108.337L10.5266 107.337L9.52659 107.345ZM1.89049 107.409L0.89052 107.417L0.898816 108.417L1.89878 108.408L1.89049 107.409ZM1.63877 77.0687L1.63047 76.0687L0.630507 76.077L0.638804 77.0769L1.63877 77.0687ZM9.27487 77.0053L10.2748 76.997L10.2665 75.997L9.26657 76.0053L9.27487 77.0053ZM9.36198 87.5049L8.36202 87.5132L8.37031 88.5132L9.37028 88.5049L9.36198 87.5049ZM36.6338 87.2787L37.6337 87.2704L37.6254 86.2704L36.6255 86.2787L36.6338 87.2787ZM36.7113 96.6193L36.7196 97.6192L37.7195 97.6109L37.7112 96.611L36.7113 96.6193ZM9.43948 96.8455L9.43118 95.8456L8.43121 95.8539L8.43951 96.8538L9.43948 96.8455ZM9.51829 106.345L1.88219 106.409L1.89878 108.408L9.53488 108.345L9.51829 106.345ZM2.89045 107.4L2.63873 77.0604L0.638804 77.0769L0.89052 107.417L2.89045 107.4ZM1.64707 78.0686L9.28317 78.0053L9.26657 76.0053L1.63047 76.0687L1.64707 78.0686ZM8.2749 77.0136L8.36202 87.5132L10.3619 87.4966L10.2748 76.997L8.2749 77.0136ZM9.37028 88.5049L36.6421 88.2786L36.6255 86.2787L9.35368 86.505L9.37028 88.5049ZM35.6338 87.287L35.7113 96.6276L37.7112 96.611L37.6337 87.2704L35.6338 87.287ZM36.703 95.6193L9.43118 95.8456L9.44777 97.8455L36.7196 97.6192L36.703 95.6193ZM8.43951 96.8538L8.52662 107.353L10.5266 107.337L10.4394 96.8372L8.43951 96.8538ZM1.35845 43.2815L0.358487 43.2898L0.366783 44.2897L1.36675 44.2814L1.35845 43.2815ZM1.27983 33.8045L1.27153 32.8046L0.271565 32.8128L0.279861 33.8128L1.27983 33.8045ZM30.5617 35.4707L30.0208 36.3118L30.022 36.3126L30.5617 35.4707ZM35.0883 40.7175L35.9925 40.2903L35.9908 40.2866L35.0883 40.7175ZM35.2193 56.501L36.1287 56.9169L36.1304 56.9131L35.2193 56.501ZM30.7803 61.8221L31.3283 62.6586L31.334 62.6549L30.7803 61.8221ZM1.52985 63.9398L0.52988 63.9481L0.538176 64.9481L1.53814 64.9398L1.52985 63.9398ZM1.45122 54.4629L1.44292 53.4629L0.442958 53.4712L0.451254 54.4712L1.45122 54.4629ZM25.8876 53.5442L26.3835 54.4127L26.3884 54.4098L25.8876 53.5442ZM27.8484 51.5506L28.7222 52.037L28.725 52.032L27.8484 51.5506ZM27.8003 45.7554L28.6659 45.2546L27.8003 45.7554ZM25.8067 43.7946L26.2931 42.9208L26.2881 42.918L25.8067 43.7946ZM2.35842 43.2732L2.27979 33.7962L0.279861 33.8128L0.358487 43.2898L2.35842 43.2732ZM1.28812 34.8045L23.651 34.6189L23.6344 32.619L1.27153 32.8046L1.28812 34.8045ZM23.651 34.6189C26.1443 34.5983 28.2536 35.1752 30.0208 36.3118L31.1027 34.6297C28.9625 33.2532 26.4591 32.5956 23.6344 32.619L23.651 34.6189ZM30.022 36.3126C31.7945 37.4491 33.1838 39.0496 34.1859 41.1483L35.9908 40.2866C34.8418 37.8803 33.2133 35.983 31.1015 34.6289L30.022 36.3126ZM34.1842 41.1446C35.1753 43.2427 35.698 45.7154 35.7218 48.5875L37.7218 48.5709C37.696 45.4659 37.1297 42.6975 35.9925 40.2903L34.1842 41.1446ZM35.7218 48.5875C35.7459 51.4835 35.264 53.9756 34.3081 56.0889L36.1304 56.9131C37.228 54.4865 37.7477 51.6973 37.7218 48.5709L35.7218 48.5875ZM34.3099 56.0852C33.3427 58.2002 31.9802 59.8236 30.2267 60.9894L31.334 62.6549C33.4231 61.266 35.0198 59.3419 36.1287 56.9169L34.3099 56.0852ZM30.2324 60.9856C28.4832 62.1314 26.3812 62.7336 23.8844 62.7543L23.901 64.7543C26.7222 64.7309 29.2119 64.045 31.3283 62.6586L30.2324 60.9856ZM23.8844 62.7543L1.52155 62.9399L1.53814 64.9398L23.901 64.7543L23.8844 62.7543ZM2.52981 63.9316L2.45119 54.4546L0.451254 54.4712L0.52988 63.9481L2.52981 63.9316ZM1.45952 55.4629L23.0042 55.2841L22.9876 53.2842L1.44292 53.4629L1.45952 55.4629ZM23.0042 55.2841C24.2364 55.2739 25.3714 54.9905 26.3834 54.4126L25.3918 52.6758C24.7073 53.0666 23.9145 53.2765 22.9876 53.2842L23.0042 55.2841ZM26.3884 54.4098C27.3816 53.8351 28.1641 53.0396 28.7222 52.037L26.9747 51.0642C26.5922 51.7513 26.0675 52.2848 25.3868 52.6787L26.3884 54.4098ZM28.725 52.032C29.2859 51.0104 29.5505 49.8709 29.5402 48.6388L27.5403 48.6554C27.548 49.5822 27.3513 50.3784 26.9719 51.0693L28.725 52.032ZM29.5402 48.6388C29.5299 47.3974 29.2474 46.2597 28.6659 45.2546L26.9348 46.2562C27.3217 46.9249 27.5325 47.7149 27.5403 48.6554L29.5402 48.6388ZM28.6659 45.2546C28.0913 44.2614 27.2957 43.4789 26.2931 42.9208L25.3204 44.6683C26.0075 45.0508 26.541 45.5755 26.9348 46.2562L28.6659 45.2546ZM26.2881 42.918C25.2666 42.3571 24.1271 42.0925 22.8949 42.1028L22.9115 44.1027C23.8383 44.095 24.6345 44.2917 25.3254 44.6711L26.2881 42.918ZM22.8949 42.1028L1.35016 42.2815L1.36675 44.2814L22.9115 44.1027L22.8949 42.1028ZM11.9951 10.3924L12.0831 11.3885L13.0027 11.3072L12.995 10.3841L11.9951 10.3924ZM9.34666 11.6928L10.1145 12.3334L10.1192 12.3277L9.34666 11.6928ZM8.79845 17.5271L9.73333 17.172L9.72968 17.1627L8.79845 17.5271ZM9.74723 18.8829L9.15759 19.6906L9.15759 19.6906L9.74723 18.8829ZM11.1146 19.3318L11.1603 18.3329L11.1445 18.3321L11.1286 18.3319L11.1146 19.3318ZM12.2548 19.1007L12.7094 19.9914L12.7275 19.9822L12.7451 19.9723L12.2548 19.1007ZM13.1511 18.241L13.9728 18.8109L13.9785 18.8027L13.984 18.7944L13.1511 18.241ZM14.4164 14.5997L13.4369 14.3983L13.4352 14.4066L14.4164 14.5997ZM15.0063 11.7311L15.9858 11.9325L15.9863 11.9301L15.0063 11.7311ZM18.9256 3.36304L19.625 4.07776L19.6295 4.07335L18.9256 3.36304ZM21.9436 1.4118L22.2932 2.34877L22.3015 2.34559L21.9436 1.4118ZM25.6199 0.733557L25.6166 -0.266542L25.6031 -0.266308L25.6199 0.733557ZM31.4636 2.40672L32.038 1.58819L31.4636 2.40672ZM35.1346 7.25143L34.2068 7.62448L34.2074 7.62619L35.1346 7.25143ZM35.1611 22.7802L36.093 23.143L36.0936 23.1414L35.1611 22.7802ZM31.0628 28.0643L31.6209 28.8941L31.6267 28.8902L31.0628 28.0643ZM23.8854 29.999L22.8854 30.0073L22.8938 31.0111L23.8976 30.9989L23.8854 29.999ZM23.8107 20.9993L23.7493 20.0011L22.8029 20.0594L22.8108 21.0076L23.8107 20.9993ZM26.4972 20.1758L27.0527 21.0073L27.0527 21.0073L26.4972 20.1758ZM28.1338 18.1508L29.0544 18.5415L29.0562 18.5371L28.1338 18.1508ZM28.2744 12.4903L29.2104 12.1383L28.2744 12.4903ZM27.2218 10.9479L27.8375 10.1599L27.2218 10.9479ZM25.7003 10.415L25.712 9.4151L25.6913 9.41486L25.6707 9.41547L25.7003 10.415ZM24.307 10.955L24.9407 11.7286L24.9525 11.7189L24.964 11.7089L24.307 10.955ZM23.2297 12.6004L24.1507 12.99L24.1555 12.9783L23.2297 12.6004ZM22.3348 15.6931L21.3563 15.487L21.3556 15.4904L22.3348 15.6931ZM21.6137 19.1765L22.5927 19.3804L22.593 19.3792L21.6137 19.1765ZM18.3165 26.5166L19.0687 27.1757L19.0731 27.1706L18.3165 26.5166ZM11.8785 29.2122L11.8743 28.2121L11.865 28.2123L11.8785 29.2122ZM6.05145 27.4877L5.47331 28.3037L5.47434 28.3044L6.05145 27.4877ZM2.10674 22.526L1.19348 22.9334L1.19428 22.9351L2.10674 22.526ZM2.00217 7.86724L2.91458 8.27651L2.00217 7.86724ZM5.95122 3.07862L6.50257 3.91293L6.50896 3.90863L5.95122 3.07862ZM11.9198 1.3245L12.9198 1.3162L12.9115 0.31125L11.9066 0.324592L11.9198 1.3245ZM11.907 9.39625C10.5474 9.51639 9.40032 10.0525 8.57408 11.0579L10.1192 12.3277C10.5531 11.7999 11.1716 11.469 12.0831 11.3885L11.907 9.39625ZM8.57881 11.0522C7.73202 12.0671 7.40696 13.49 7.42061 15.135L9.42054 15.1184C9.40873 13.6954 9.70106 12.829 10.1145 12.3334L8.57881 11.0522ZM7.42061 15.135C7.4293 16.183 7.56352 17.1155 7.86722 17.8915L9.72968 17.1627C9.54575 16.6927 9.42806 16.0249 9.42054 15.1184L7.42061 15.135ZM7.86362 17.8822C8.14312 18.618 8.55808 19.2529 9.15759 19.6906L10.3369 18.0752C10.1361 17.9286 9.91849 17.6596 9.73329 17.172L7.86362 17.8822ZM9.15759 19.6906C9.73079 20.109 10.3892 20.3218 11.1007 20.3317L11.1286 18.3319C10.8172 18.3276 10.564 18.2411 10.3369 18.0752L9.15759 19.6906ZM11.069 20.3308C11.6443 20.3571 12.1996 20.2516 12.7094 19.9914L11.8002 18.2101C11.631 18.2964 11.4262 18.345 11.1603 18.3329L11.069 20.3308ZM12.7451 19.9723C13.2344 19.697 13.6386 19.2928 13.9728 18.8109L12.3294 17.6711C12.1246 17.9665 11.9313 18.1354 11.7645 18.2292L12.7451 19.9723ZM13.984 18.7944C14.302 18.3159 14.5698 17.7378 14.7988 17.0818L12.9106 16.4225C12.7178 16.9746 12.5166 17.3891 12.3182 17.6876L13.984 18.7944ZM14.7988 17.0818C15.0293 16.4216 15.2276 15.6562 15.3976 14.7928L13.4352 14.4066C13.2781 15.205 13.1019 15.8746 12.9106 16.4225L14.7988 17.0818ZM15.3959 14.8011L15.9858 11.9325L14.0268 11.5297L13.4369 14.3983L15.3959 14.8011ZM15.9863 11.9301C16.3675 10.0532 16.8715 8.47736 17.4868 7.18838L15.6819 6.32677C14.9792 7.79882 14.4312 9.53863 14.0263 11.532L15.9863 11.9301ZM17.4868 7.18838C18.1057 5.8919 18.8227 4.86292 19.625 4.07775L18.2262 2.64834C17.2249 3.62819 16.3811 4.86224 15.6819 6.32677L17.4868 7.18838ZM19.6295 4.07335C20.4241 3.28592 21.3107 2.71524 22.2931 2.34872L21.5941 0.474879C20.3334 0.945193 19.208 1.67533 18.2217 2.65274L19.6295 4.07335ZM22.3015 2.34559C23.303 1.96179 24.4116 1.75405 25.6368 1.73341L25.6031 -0.266308C24.1695 -0.24216 22.8272 0.00226011 21.5858 0.478015L22.3015 2.34559ZM25.6233 1.73355C27.749 1.72644 29.486 2.24051 30.8891 3.22525L32.038 1.58819C30.2406 0.326678 28.0818 -0.274695 25.6166 -0.26645L25.6233 1.73355ZM30.8891 3.22525C32.3067 4.22018 33.42 5.66773 34.2068 7.62448L36.0624 6.87838C35.155 4.62178 33.821 2.83951 32.038 1.58819L30.8891 3.22525ZM34.2074 7.62619C34.9953 9.57527 35.418 11.9689 35.4418 14.8344L37.4417 14.8178C37.4165 11.7743 36.9678 9.11823 36.0617 6.87668L34.2074 7.62619ZM35.4418 14.8344C35.4662 17.7721 35.0522 20.2931 34.2287 22.4189L36.0936 23.1414C37.0279 20.7297 37.4677 17.948 37.4417 14.8178L35.4418 14.8344ZM34.2293 22.4173C33.4173 24.5025 32.1722 26.0959 30.4989 27.2385L31.6267 28.8902C33.6598 27.5019 35.1469 25.5726 36.093 23.143L34.2293 22.4173ZM30.5047 27.2346C28.8435 28.3519 26.6564 28.9651 23.8732 28.999L23.8976 30.9989C26.9549 30.9616 29.5528 30.2851 31.6209 28.8941L30.5047 27.2346ZM24.8854 29.9907L24.8107 20.991L22.8108 21.0076L22.8854 30.0073L24.8854 29.9907ZM23.8721 21.9974C25.0761 21.9233 26.1521 21.6091 27.0527 21.0073L25.9416 19.3443C25.3957 19.7091 24.6808 19.9439 23.7493 20.0011L23.8721 21.9974ZM27.0527 21.0073C27.9514 20.4068 28.617 19.5721 29.0544 18.5415L27.2133 17.7601C26.9151 18.4629 26.4895 18.9782 25.9416 19.3443L27.0527 21.0073ZM29.0562 18.5371C29.4882 17.5057 29.6812 16.3239 29.6704 15.0186L27.6705 15.0352C27.6796 16.1389 27.515 17.0398 27.2115 17.7645L29.0562 18.5371ZM29.6704 15.0186C29.6614 13.9325 29.5201 12.9619 29.2104 12.1383L27.3384 12.8424C27.5399 13.3783 27.6627 14.0987 27.6705 15.0352L29.6704 15.0186ZM29.2104 12.1383C28.908 11.3345 28.464 10.6495 27.8375 10.1599L26.606 11.7358C26.8718 11.9435 27.1294 12.2868 27.3384 12.8424L29.2104 12.1383ZM27.8375 10.1599C27.218 9.67585 26.4984 9.42431 25.712 9.4151L25.6886 11.415C26.0386 11.4191 26.3334 11.5227 26.606 11.7358L27.8375 10.1599ZM25.6707 9.41547C24.9104 9.43797 24.2229 9.70171 23.6499 10.2012L24.964 11.7089C25.1808 11.52 25.4222 11.4237 25.7298 11.4146L25.6707 9.41547ZM23.6732 10.1815C23.0849 10.6635 22.6461 11.3839 22.3038 12.2225L24.1555 12.9783C24.4369 12.2889 24.7163 11.9124 24.9407 11.7286L23.6732 10.1815ZM22.3087 12.2108C21.9502 13.0583 21.636 14.1589 21.3563 15.487L23.3134 15.8992C23.5803 14.6318 23.8627 13.6706 24.1507 12.99L22.3087 12.2108ZM21.3556 15.4904L20.6345 18.9738L22.593 19.3792L23.3141 15.8959L21.3556 15.4904ZM20.6347 18.9726C20.0135 21.9557 18.9713 24.23 17.56 25.8627L19.0731 27.1706C20.7685 25.2092 21.9243 22.59 22.5927 19.3804L20.6347 18.9726ZM17.5644 25.8576C16.2176 27.3946 14.3621 28.2019 11.8743 28.2122L11.8826 30.2122C14.8494 30.1999 17.2859 29.2102 19.0687 27.1757L17.5644 25.8576ZM11.865 28.2123C9.84174 28.2394 8.11019 27.7181 6.62856 26.6711L5.47434 28.3044C7.33057 29.6161 9.48369 30.2444 11.8919 30.2121L11.865 28.2123ZM6.62959 26.6718C5.11275 25.597 3.90497 24.0921 3.0192 22.1168L1.19428 22.9351C2.20734 25.1942 3.62936 26.9971 5.47331 28.3037L6.62959 26.6718ZM3.01999 22.1186C2.13591 20.1367 1.67005 17.8317 1.64808 15.1829L-0.351855 15.1995C-0.328012 18.0733 0.178551 20.6581 1.19348 22.9334L3.01999 22.1186ZM1.64808 15.1829C1.6256 12.4744 2.05998 10.1817 2.91458 8.27651L1.08976 7.45796C0.0921884 9.6819 -0.376144 12.2719 -0.351855 15.1995L1.64808 15.1829ZM2.91458 8.27651C3.77157 6.36597 4.97069 4.92526 6.50256 3.91291L5.39987 2.24435C3.51852 3.48766 2.08494 5.23936 1.08976 7.45797L2.91458 8.27651ZM6.50896 3.90863C8.0243 2.89037 9.81954 2.35247 11.9331 2.32441L11.9066 0.324592C9.45227 0.357161 7.26843 0.988689 5.39347 2.24861L6.50896 3.90863ZM10.9199 1.3328L10.9951 10.4007L12.995 10.3841L12.9198 1.3162L10.9199 1.3328Z" fill="#05C2DF" fill-opacity="0.5" mask="url(#path-1-outside-1_1_5918)"/>
</svg>
