<svg width="39" height="251" viewBox="0 0 39 251" fill="none" xmlns="http://www.w3.org/2000/svg">
<mask id="path-1-outside-1_1_5917" maskUnits="userSpaceOnUse" x="-1.00755" y="-1.49757" width="41.0976" height="253.315" fill="black">
<rect fill="white" x="-1.00755" y="-1.49757" width="41.0976" height="253.315"/>
<path d="M1.09457 11.1272L1.00972 0.900229L36.0132 12.1329L36.1207 25.087L1.30839 36.899L1.22354 26.6721L26.4548 18.8261L26.4525 18.5534L1.09457 11.1272ZM14.851 9.10386L15.0105 28.3305L7.91984 28.3893L7.76032 9.16269L14.851 9.10386ZM1.33629 40.2611L36.2442 39.9715L36.3698 55.1073C36.3918 57.7663 36.0524 60.0022 35.3515 61.8149C34.6507 63.6389 33.6507 65.0166 32.3516 65.9478C31.0526 66.8905 29.5167 67.3691 27.744 67.3838C26.46 67.3945 25.2872 67.1201 24.2257 66.5607C23.1643 66.0127 22.2715 65.236 21.5472 64.2306C20.8343 63.2251 20.3359 62.0474 20.0519 60.6974L19.711 60.7003C19.6667 62.2007 19.2973 63.5674 18.603 64.8005C17.92 66.0335 16.9679 67.0187 15.7467 67.7561C14.5369 68.4935 13.1081 68.869 11.4605 68.8826C9.55143 68.8985 7.84848 68.4126 6.35159 67.425C4.85481 66.4487 3.6727 65.0494 2.80528 63.227C1.93786 61.4046 1.49364 59.2263 1.47261 56.6923L1.33629 40.2611ZM8.98284 49.6752L9.0196 54.1069C9.0328 55.6978 9.33815 56.8885 9.93563 57.679C10.5445 58.4694 11.4341 58.8598 12.6045 58.8501C13.4227 58.8433 14.1143 58.65 14.6793 58.2703C15.2444 57.8906 15.6718 57.353 15.9615 56.6574C16.2512 55.9731 16.3921 55.1481 16.3841 54.1822L16.3462 49.6142L8.98284 49.6752ZM22.2097 49.5655L22.2419 53.4517C22.2488 54.2813 22.3855 55.0131 22.6522 55.6473C22.9188 56.2815 23.2979 56.7726 23.7894 57.1208C24.2924 57.4803 24.9019 57.6571 25.6178 57.6512C26.6973 57.6422 27.5179 57.249 28.0797 56.4716C28.6528 55.6941 28.9344 54.7144 28.9246 53.5327L28.8912 49.5101L22.2097 49.5655ZM19.3368 105.995C15.4506 106.027 12.166 105.298 9.4831 103.809C6.81157 102.32 4.77767 100.297 3.38141 97.7404C1.99651 95.1836 1.29096 92.3258 1.26475 89.1668C1.23835 85.9851 1.90198 83.1045 3.25562 80.525C4.62073 77.9567 6.62651 75.9059 9.27297 74.3726C11.9309 72.8505 15.1916 72.0734 19.0551 72.0413C22.9413 72.0091 26.2202 72.7319 28.8916 74.2098C31.5745 75.6989 33.6084 77.7162 34.9932 80.2616C36.3894 82.8183 37.1008 85.6875 37.1272 88.8692C37.1534 92.0282 36.4896 94.8975 35.136 97.477C33.7937 100.056 31.7937 102.113 29.1358 103.646C26.4894 105.18 23.223 105.962 19.3368 105.995ZM19.2559 96.245C21.3467 96.2277 23.1057 95.9347 24.5329 95.366C25.9715 94.8086 27.0556 93.9871 27.7853 92.9014C28.5264 91.8271 28.8904 90.5058 28.8774 88.9377C28.8644 87.3696 28.4785 86.0489 27.7195 84.9756C26.9721 83.9135 25.8744 83.1101 24.4267 82.5653C22.9904 82.0317 21.2268 81.7736 19.136 81.791C17.0452 81.8083 15.2804 82.0957 13.8418 82.6531C12.4147 83.2218 11.3305 84.0433 10.5894 85.1177C9.85978 86.2033 9.50146 87.5302 9.51447 89.0983C9.52748 90.6665 9.90772 91.9815 10.6552 93.0436C11.4141 94.1168 12.5117 94.9203 13.948 95.4538C15.3958 95.9986 17.1651 96.2624 19.2559 96.245ZM36.9985 130.893L37.0771 140.37L14.7143 140.556C12.0553 140.578 9.74894 139.96 7.79527 138.704C5.85305 137.458 4.34417 135.71 3.26863 133.457C2.20445 131.204 1.65996 128.584 1.63517 125.595C1.61019 122.584 2.11102 119.943 3.13768 117.674C4.1757 115.403 5.65536 113.63 7.57664 112.352C9.50939 111.086 11.8053 110.442 14.4643 110.42L36.8271 110.235L36.9058 119.712L15.361 119.89C14.2815 119.899 13.3176 120.146 12.4694 120.63C11.6324 121.115 10.9788 121.779 10.5085 122.624C10.0384 123.48 9.80775 124.448 9.81671 125.527C9.82576 126.618 10.0724 127.582 10.5566 128.419C11.0409 129.256 11.7054 129.91 12.5502 130.38C13.4064 130.85 14.3743 131.081 15.4538 131.072L36.9985 130.893ZM29.4705 143.983L37.1066 143.92L37.3583 174.259L29.7222 174.323L29.6351 163.823L2.36331 164.049L2.28582 154.709L29.5576 154.483L29.4705 143.983ZM37.6386 208.047L37.7173 217.524L15.3544 217.709C12.6954 217.731 10.3891 217.114 8.43538 215.857C6.49317 214.612 4.98429 212.863 3.90875 210.611C2.84457 208.358 2.30008 205.737 2.27528 202.749C2.2503 199.738 2.75114 197.097 3.7778 194.827C4.81582 192.557 6.29547 190.783 8.21676 189.506C10.1495 188.24 12.4454 187.596 15.1044 187.574L37.4672 187.388L37.5459 196.865L16.0012 197.044C14.9216 197.053 13.9577 197.3 13.1095 197.784C12.2725 198.268 11.6189 198.933 11.1487 199.778C10.6785 200.634 10.4479 201.602 10.4568 202.681C10.4659 203.772 10.7125 204.736 11.1967 205.573C11.681 206.41 12.3455 207.063 13.1904 207.534C14.0466 208.004 15.0144 208.234 16.0939 208.225L37.6386 208.047ZM27.002 240.936C28.1376 240.835 29.0204 240.402 29.6504 239.635C30.2806 238.88 30.5892 237.735 30.5765 236.201C30.5684 235.224 30.4425 234.424 30.1986 233.801C29.9663 233.189 29.65 232.737 29.2499 232.445C28.8497 232.153 28.3939 232.003 27.8824 231.996C27.4618 231.977 27.0818 232.054 26.7423 232.227C26.4143 232.412 26.1155 232.699 25.846 233.087C25.5878 233.476 25.3533 233.972 25.1424 234.576C24.9315 235.18 24.7443 235.897 24.5807 236.728L23.9908 239.597C23.5978 241.532 23.0717 243.19 22.4127 244.571C21.7537 245.951 20.9733 247.083 20.0715 247.965C19.181 248.848 18.175 249.498 17.0535 249.916C15.932 250.346 14.7066 250.572 13.3772 250.595C11.0817 250.602 9.13381 250.045 7.53353 248.921C5.93325 247.798 4.70958 246.183 3.86253 244.077C3.01557 241.981 2.57983 239.456 2.55532 236.502C2.53015 233.468 2.95703 230.817 3.83597 228.548C4.715 226.291 6.08111 224.529 7.93431 223.264C9.79897 222.01 12.1914 221.365 15.1117 221.329L15.1864 230.329C14.1187 230.395 13.2232 230.669 12.4999 231.152C11.7766 231.636 11.2311 232.311 10.8633 233.177C10.4955 234.055 10.3167 235.097 10.3266 236.301C10.335 237.313 10.4671 238.158 10.7227 238.838C10.9784 239.518 11.3292 240.032 11.7753 240.38C12.2214 240.729 12.7286 240.906 13.2968 240.913C13.8308 240.897 14.2952 240.717 14.6901 240.373C15.0965 240.04 15.4556 239.492 15.7674 238.728C16.0906 237.964 16.3889 236.933 16.6623 235.635L17.3834 232.152C18.0282 229.055 19.1272 226.609 20.6805 224.812C22.2453 223.026 24.3914 222.127 27.1186 222.116C29.3344 222.086 31.2767 222.661 32.9456 223.84C34.626 225.031 35.9409 226.685 36.8904 228.802C37.8399 230.931 38.3261 233.376 38.349 236.137C38.3724 238.955 37.921 241.396 36.9949 243.461C36.0688 245.525 34.7525 247.122 33.0459 248.249C31.3507 249.389 29.3612 249.973 27.0773 250.004L27.002 240.936Z"/>
</mask>
<path d="M1.09457 11.1272L0.0946082 11.1354L0.10077 11.8781L0.813521 12.0868L1.09457 11.1272ZM1.00972 0.900229L1.31528 -0.0519454L-0.00171586 -0.474573L0.0097592 0.908525L1.00972 0.900229ZM36.0132 12.1329L37.0132 12.1246L37.0072 11.4017L36.3188 11.1808L36.0132 12.1329ZM36.1207 25.087L36.442 26.034L37.1267 25.8017L37.1207 25.0787L36.1207 25.087ZM1.30839 36.899L0.308428 36.9073L0.319903 38.2904L1.62971 37.846L1.30839 36.899ZM1.22354 26.6721L0.926607 25.7172L0.217417 25.9377L0.223579 26.6804L1.22354 26.6721ZM26.4548 18.8261L26.7517 19.781L27.4609 19.5605L27.4547 18.8178L26.4548 18.8261ZM26.4525 18.5534L27.4525 18.5451L27.4463 17.8024L26.7336 17.5937L26.4525 18.5534ZM14.851 9.10386L15.851 9.09557L15.8427 8.0956L14.8427 8.1039L14.851 9.10386ZM15.0105 28.3305L15.0188 29.3304L16.0188 29.3221L16.0105 28.3222L15.0105 28.3305ZM7.91984 28.3893L6.91988 28.3976L6.92817 29.3976L7.92814 29.3893L7.91984 28.3893ZM7.76033 9.16269L7.75203 8.16272L6.75206 8.17102L6.76036 9.17099L7.76033 9.16269ZM2.09454 11.1189L2.00969 0.891933L0.0097592 0.908525L0.0946082 11.1354L2.09454 11.1189ZM0.704168 1.8524L35.7077 13.0851L36.3188 11.1808L1.31528 -0.0519454L0.704168 1.8524ZM35.0132 12.1412L35.1207 25.0953L37.1207 25.0787L37.0132 12.1246L35.0132 12.1412ZM35.7994 24.1401L0.98708 35.952L1.62971 37.846L36.442 26.034L35.7994 24.1401ZM2.30836 36.8907L2.22351 26.6638L0.223579 26.6804L0.308428 36.9073L2.30836 36.8907ZM1.52048 27.627L26.7517 19.781L26.1578 17.8712L0.926607 25.7172L1.52048 27.627ZM27.4547 18.8178L27.4525 18.5451L25.4525 18.5617L25.4548 18.8344L27.4547 18.8178ZM26.7336 17.5937L1.37563 10.1675L0.813521 12.0868L26.1715 19.5131L26.7336 17.5937ZM13.851 9.11216L14.0105 28.3388L16.0105 28.3222L15.851 9.09557L13.851 9.11216ZM15.0022 27.3305L7.91155 27.3893L7.92814 29.3893L15.0188 29.3304L15.0022 27.3305ZM8.91981 28.381L8.76029 9.15439L6.76036 9.17099L6.91988 28.3976L8.91981 28.381ZM7.76862 10.1627L14.8593 10.1038L14.8427 8.1039L7.75203 8.16272L7.76862 10.1627ZM1.33629 40.2611L1.32799 39.2611L0.328025 39.2694L0.336322 40.2694L1.33629 40.2611ZM36.2442 39.9715L37.2441 39.9632L37.2358 38.9632L36.2359 38.9715L36.2442 39.9715ZM35.3515 61.8149L34.4188 61.4542L34.418 61.4562L35.3515 61.8149ZM32.3516 65.9478L31.769 65.1351L31.7643 65.1385L32.3516 65.9478ZM24.2257 66.5607L24.6919 65.676L24.6845 65.6722L24.2257 66.5607ZM21.5472 64.2306L20.7314 64.809L20.7358 64.8151L21.5472 64.2306ZM20.0519 60.6974L21.0305 60.4916L20.8621 59.6907L20.0436 59.6975L20.0519 60.6974ZM19.711 60.7003L19.7027 59.7003L18.7399 59.7083L18.7115 60.6707L19.711 60.7003ZM18.603 64.8005L17.7316 64.3098L17.7282 64.316L18.603 64.8005ZM15.7467 67.7561L15.2298 66.9001L15.2263 66.9022L15.7467 67.7561ZM6.35159 67.425L6.90232 66.5903L6.8979 66.5874L6.35159 67.425ZM2.80528 63.227L3.70822 62.7972L2.80528 63.227ZM8.98283 49.6752L8.97454 48.6753L7.97457 48.6836L7.98287 49.6835L8.98283 49.6752ZM9.93563 57.679L9.13783 58.282L9.14341 58.2892L9.93563 57.679ZM15.9615 56.6574L15.0406 56.2674L15.0383 56.2729L15.9615 56.6574ZM16.3462 49.6142L17.3462 49.6059L17.3379 48.6059L16.3379 48.6142L16.3462 49.6142ZM22.2097 49.5655L22.2014 48.5655L21.2014 48.5738L21.2097 49.5738L22.2097 49.5655ZM22.6522 55.6473L21.7303 56.0349L21.7303 56.0349L22.6522 55.6473ZM23.7894 57.1208L24.3709 56.3073L24.3675 56.3048L23.7894 57.1208ZM28.0797 56.4716L27.2747 55.8782L27.2691 55.8859L28.0797 56.4716ZM28.8912 49.5101L29.8912 49.5018L29.8829 48.5018L28.8829 48.5101L28.8912 49.5101ZM1.34458 41.2611L36.2525 40.9714L36.2359 38.9715L1.32799 39.2611L1.34458 41.2611ZM35.2442 39.9798L35.3698 55.1156L37.3697 55.099L37.2441 39.9632L35.2442 39.9798ZM35.3698 55.1156C35.3912 57.6919 35.0608 59.7938 34.4188 61.4542L36.2842 62.1755C37.044 60.2105 37.3925 57.8407 37.3697 55.099L35.3698 55.1156ZM34.418 61.4562C33.7716 63.1388 32.8771 64.3408 31.769 65.1351L32.9342 66.7606C34.4244 65.6924 35.5298 64.1391 36.285 62.1735L34.418 61.4562ZM31.7643 65.1385C30.6513 65.9461 29.3231 66.3707 27.7357 66.3839L27.7523 68.3838C29.7103 68.3676 31.4538 67.8348 32.9389 66.7572L31.7643 65.1385ZM27.7357 66.3839C26.605 66.3933 25.597 66.153 24.6919 65.6761L23.7595 67.4454C24.9774 68.0872 26.315 68.3957 27.7523 68.3838L27.7357 66.3839ZM24.6845 65.6722C23.7682 65.1991 22.9944 64.5287 22.3586 63.6461L20.7358 64.8151C21.5485 65.9433 22.5604 66.8263 23.7669 67.4493L24.6845 65.6722ZM22.363 63.6522C21.7382 62.7711 21.2896 61.7235 21.0305 60.4916L19.0733 60.9033C19.3821 62.3713 19.9304 63.6792 20.7314 64.809L22.363 63.6522ZM20.0436 59.6975L19.7027 59.7003L19.7193 61.7002L20.0602 61.6974L20.0436 59.6975ZM18.7115 60.6707C18.6716 62.0194 18.3417 63.2264 17.7316 64.3099L19.4743 65.2912C20.2529 63.9085 20.6617 62.3819 20.7106 60.7298L18.7115 60.6707ZM17.7282 64.316C17.131 65.394 16.3032 66.2519 15.2298 66.9001L16.2636 68.6122C17.6326 67.7855 18.7089 66.673 19.4777 65.2851L17.7282 64.316ZM15.2263 66.9022C14.1945 67.531 12.9489 67.8702 11.4522 67.8827L11.4688 69.8826C13.2673 69.8677 14.8793 69.4559 16.2671 68.61L15.2263 66.9022ZM11.4522 67.8827C9.72826 67.897 8.22249 67.4613 6.90231 66.5903L5.80088 68.2597C7.47446 69.3639 9.3746 69.9 11.4688 69.8826L11.4522 67.8827ZM6.8979 66.5874C5.57448 65.7242 4.50704 64.4755 3.70822 62.7972L1.90234 63.6567C2.83837 65.6233 4.13513 67.1732 5.80529 68.2626L6.8979 66.5874ZM3.70822 62.7972C2.91738 61.1357 2.49269 59.1084 2.47258 56.684L0.472646 56.7006C0.494579 59.3443 0.958331 61.6734 1.90234 63.6567L3.70822 62.7972ZM2.47258 56.684L2.33625 40.2528L0.336322 40.2694L0.472646 56.7006L2.47258 56.684ZM7.98287 49.6835L8.01964 54.1152L10.0196 54.0986L9.9828 49.667L7.98287 49.6835ZM8.01964 54.1152C8.03362 55.8007 8.35349 57.2442 9.13787 58.2819L10.7334 57.076C10.3228 56.5328 10.032 55.5948 10.0196 54.0986L8.01964 54.1152ZM9.14341 58.2892C9.97789 59.3726 11.1905 59.8618 12.6128 59.85L12.5962 57.8501C11.6777 57.8577 11.1111 57.5663 10.7279 57.0688L9.14341 58.2892ZM12.6128 59.85C13.5868 59.842 14.4791 59.6097 15.2371 59.1003L14.1216 57.4403C13.7494 57.6904 13.2586 57.8446 12.5962 57.8501L12.6128 59.85ZM15.2371 59.1003C15.9822 58.5996 16.5278 57.8985 16.8846 57.0418L15.0383 56.2729C14.8157 56.8075 14.5066 57.1816 14.1216 57.4403L15.2371 59.1003ZM16.8823 57.0473C17.2388 56.2055 17.3929 55.2373 17.3841 54.1739L15.3842 54.1905C15.3914 55.0588 15.2637 55.7408 15.0406 56.2674L16.8823 57.0473ZM17.3841 54.1739L17.3462 49.6059L15.3463 49.6225L15.3842 54.1905L17.3841 54.1739ZM16.3379 48.6142L8.97454 48.6753L8.99113 50.6752L16.3545 50.6141L16.3379 48.6142ZM21.2097 49.5738L21.2419 53.46L23.2419 53.4434L23.2096 49.5572L21.2097 49.5738ZM21.2419 53.46C21.2497 54.3937 21.4039 55.2586 21.7303 56.0349L23.574 55.2597C23.3671 54.7676 23.2479 54.1688 23.2419 53.4434L21.2419 53.46ZM21.7303 56.0349C22.0588 56.8161 22.5468 57.466 23.2114 57.9368L24.3675 56.3048C24.049 56.0792 23.7788 55.7468 23.574 55.2597L21.7303 56.0349ZM23.208 57.9344C23.9091 58.4355 24.7334 58.6585 25.6261 58.6511L25.6095 56.6512C25.0703 56.6557 24.6758 56.5252 24.3709 56.3073L23.208 57.9344ZM25.6261 58.6511C26.9777 58.6399 28.1168 58.1276 28.8902 57.0573L27.2691 55.8859C26.919 56.3704 26.4168 56.6445 25.6095 56.6512L25.6261 58.6511ZM28.8846 57.0649C29.6126 56.0773 29.9358 54.8731 29.9246 53.5244L27.9246 53.541C27.9331 54.5558 27.6929 55.3109 27.2747 55.8783L28.8846 57.0649ZM29.9246 53.5244L29.8912 49.5018L27.8913 49.5184L27.9246 53.541L29.9246 53.5244ZM28.8829 48.5101L22.2014 48.5655L22.218 50.5655L28.8995 50.51L28.8829 48.5101ZM9.48311 103.809L8.99619 104.683L8.9978 104.684L9.48311 103.809ZM3.38141 97.7404L2.50211 98.2167L2.50376 98.2197L3.38141 97.7404ZM3.25562 80.525L2.3726 80.0556L2.37014 80.0603L3.25562 80.525ZM9.27297 74.3726L8.77601 73.5048L8.77164 73.5073L9.27297 74.3726ZM28.8916 74.2098L29.3769 73.3354L29.3757 73.3348L28.8916 74.2098ZM34.9932 80.2617L34.1148 80.7395L34.1155 80.7409L34.9932 80.2617ZM35.136 97.477L34.2505 97.0123L34.2489 97.0153L35.136 97.477ZM29.1358 103.646L28.6361 102.78L28.6345 102.781L29.1358 103.646ZM24.5329 95.366L24.1716 94.4335L24.1627 94.437L24.5329 95.366ZM27.7853 92.9014L26.9621 92.3336L26.9553 92.3436L27.7853 92.9014ZM27.7195 84.9756L26.9018 85.5511L26.903 85.5529L27.7195 84.9756ZM24.4267 82.5653L24.7789 81.6294L24.7749 81.6279L24.4267 82.5653ZM13.8418 82.6531L13.4805 81.7206L13.4717 81.7242L13.8418 82.6531ZM10.5894 85.1177L9.76622 84.5498L9.75947 84.5599L10.5894 85.1177ZM10.6552 93.0436L9.83743 93.6191L9.8387 93.6209L10.6552 93.0436ZM13.948 95.4538L14.3002 94.5179L14.2963 94.5164L13.948 95.4538ZM19.3285 104.995C15.5697 105.026 12.4653 104.321 9.96841 102.935L8.9978 104.684C11.8668 106.276 15.3314 107.028 19.3451 106.995L19.3285 104.995ZM9.97001 102.936C7.45467 101.534 5.56024 99.6437 4.25906 97.2611L2.50376 98.2197C3.99509 100.95 6.16846 103.106 8.99619 104.683L9.97001 102.936ZM4.2607 97.2641C2.9603 94.8634 2.28969 92.1684 2.26472 89.1585L0.264786 89.1751C0.292231 92.4831 1.03273 95.5039 2.50211 98.2167L4.2607 97.2641ZM2.26472 89.1585C2.23956 86.1259 2.87089 83.4101 4.14111 80.9896L2.37014 80.0603C0.933062 82.7988 0.237151 85.8442 0.264786 89.1751L2.26472 89.1585ZM4.13863 80.9943C5.41139 78.5998 7.28083 76.6825 9.7743 75.2378L8.77164 73.5073C5.97219 75.1293 3.83006 77.3136 2.37261 80.0556L4.13863 80.9943ZM9.76992 75.2403C12.2449 73.823 15.3274 73.0723 19.0634 73.0413L19.0468 71.0414C15.0558 71.0745 11.6169 71.8779 8.77602 73.5048L9.76992 75.2403ZM19.0634 73.0413C22.8235 73.0101 25.9225 73.71 28.4075 75.0848L29.3757 73.3348C26.5179 71.7538 23.0591 71.0081 19.0468 71.0414L19.0634 73.0413ZM28.4063 75.0841C30.9334 76.4868 32.8261 78.3709 34.1148 80.7395L35.8716 79.7838C34.3906 77.0615 32.2156 74.9111 29.3769 73.3354L28.4063 75.0841ZM34.1155 80.7409C35.4257 83.1401 36.102 85.845 36.1272 88.8775L38.1271 88.8609C38.0995 85.5301 37.3531 82.4966 35.8708 79.7823L34.1155 80.7409ZM36.1272 88.8775C36.1522 91.8861 35.5213 94.5907 34.2505 97.0123L36.0215 97.9416C37.458 95.2042 38.1546 92.1704 38.1271 88.8609L36.1272 88.8775ZM34.2489 97.0153C32.9995 99.4162 31.1385 101.336 28.6361 102.78L29.6356 104.512C32.4489 102.889 34.5879 100.697 36.0231 97.9386L34.2489 97.0153ZM28.6345 102.781C26.1733 104.207 23.0875 104.964 19.3285 104.995L19.3451 106.995C23.3586 106.961 26.8055 106.152 29.6372 104.512L28.6345 102.781ZM19.2642 97.245C21.4372 97.227 23.3274 96.9228 24.9031 96.295L24.1627 94.437C22.8841 94.9465 21.2563 95.2284 19.2476 95.2451L19.2642 97.245ZM24.8942 96.2984C26.4885 95.6807 27.752 94.7436 28.6152 93.4592L26.9553 92.3436C26.3592 93.2305 25.4545 93.9365 24.1716 94.4335L24.8942 96.2984ZM28.6084 93.4693C29.4882 92.1938 29.8918 90.6609 29.8774 88.9294L27.8775 88.946C27.8891 90.3507 27.5646 91.4603 26.9621 92.3336L28.6084 93.4693ZM29.8774 88.9294C29.863 87.1975 29.434 85.6681 28.536 84.3982L26.903 85.5529C27.5229 86.4296 27.8658 87.5416 27.8775 88.946L29.8774 88.9294ZM28.5373 84.4C27.6537 83.1446 26.3779 82.2311 24.7789 81.6294L24.0745 83.5012C25.371 83.9891 26.2904 84.6825 26.9018 85.5511L28.5373 84.4ZM24.7749 81.6279C23.1913 81.0396 21.2988 80.773 19.1277 80.791L19.1443 82.791C21.1549 82.7743 22.7895 83.0239 24.0785 83.5027L24.7749 81.6279ZM19.1277 80.791C16.9562 80.809 15.064 81.1072 13.4805 81.7207L14.2031 83.5856C15.4969 83.0843 17.1341 82.8076 19.1443 82.791L19.1277 80.791ZM13.4717 81.7242C11.8943 82.3527 10.6381 83.286 9.76628 84.5499L11.4126 85.6855C12.023 84.8007 12.935 84.0909 14.212 83.5821L13.4717 81.7242ZM9.75947 84.5599C8.89661 85.8437 8.50016 87.3778 8.5145 89.1066L10.5144 89.09C10.5028 87.6826 10.8229 86.5629 11.4194 85.6755L9.75947 84.5599ZM8.5145 89.1066C8.52884 90.8351 8.95053 92.359 9.83743 93.6191L11.473 92.468C10.8649 91.6041 10.5261 90.4978 10.5144 89.09L8.5145 89.1066ZM9.8387 93.6209C10.7322 94.8845 12.0068 95.7995 13.5998 96.3912L14.2963 94.5164C13.0166 94.0411 12.096 93.3492 11.4717 92.4662L9.8387 93.6209ZM13.5958 96.3897C15.1915 96.9902 17.0909 97.263 19.2642 97.245L19.2476 95.2451C17.2393 95.2617 15.6001 95.0071 14.3002 94.5179L13.5958 96.3897ZM36.9985 130.893L37.9985 130.885L37.9902 129.885L36.9902 129.893L36.9985 130.893ZM37.0771 140.37L37.0854 141.37L38.0854 141.362L38.0771 140.362L37.0771 140.37ZM7.79527 138.704L8.33622 137.863L8.33502 137.862L7.79527 138.704ZM3.26863 133.457L2.36444 133.884L2.36622 133.888L3.26863 133.457ZM3.13768 117.674L2.22824 117.258L2.22654 117.261L3.13768 117.674ZM7.57664 112.352L7.02867 111.516L7.02299 111.52L7.57664 112.352ZM36.8271 110.235L37.8271 110.226L37.8188 109.226L36.8188 109.235L36.8271 110.235ZM36.9058 119.712L36.914 120.712L37.914 120.703L37.9057 119.703L36.9058 119.712ZM12.4693 120.63L11.9735 119.762L11.9685 119.765L12.4693 120.63ZM10.5085 122.624L9.63478 122.138L9.63202 122.143L10.5085 122.624ZM10.5566 128.419L9.69107 128.92L10.5566 128.419ZM12.5502 130.38L12.0639 131.254L12.0689 131.256L12.5502 130.38ZM35.9986 130.901L36.0772 140.378L38.0771 140.362L37.9985 130.885L35.9986 130.901ZM37.0689 139.37L14.706 139.556L14.7226 141.556L37.0854 141.37L37.0689 139.37ZM14.706 139.556C12.2127 139.576 10.1034 138.999 8.33622 137.863L7.25432 139.545C9.39447 140.921 11.8979 141.579 14.7226 141.556L14.706 139.556ZM8.33502 137.862C6.56243 136.725 5.17315 135.125 4.17104 133.026L2.36622 133.888C3.51519 136.294 5.14368 138.192 7.25552 139.546L8.33502 137.862ZM4.17281 133.03C3.18164 130.932 2.65896 128.459 2.63513 125.587L0.635202 125.604C0.660963 128.709 1.22726 131.477 2.36445 133.884L4.17281 133.03ZM2.63513 125.587C2.61111 122.691 3.09302 120.199 4.04882 118.086L2.22654 117.261C1.12902 119.688 0.609263 122.477 0.635202 125.604L2.63513 125.587ZM4.04711 118.089C5.01427 115.974 6.3768 114.351 8.13029 113.185L7.02299 111.52C4.93392 112.909 3.33713 114.833 2.22825 117.258L4.04711 118.089ZM8.12461 113.189C9.87375 112.043 11.9758 111.441 14.4726 111.42L14.456 109.42C11.6348 109.444 9.14502 110.13 7.02868 111.516L8.12461 113.189ZM14.4726 111.42L36.8354 111.235L36.8188 109.235L14.456 109.42L14.4726 111.42ZM35.8272 110.243L35.9058 119.72L37.9057 119.703L37.8271 110.226L35.8272 110.243ZM36.8975 118.712L15.3527 118.89L15.3693 120.89L36.914 120.712L36.8975 118.712ZM15.3527 118.89C14.1206 118.901 12.9856 119.184 11.9735 119.762L12.9652 121.499C13.6497 121.108 14.4425 120.898 15.3693 120.89L15.3527 118.89ZM11.9685 119.765C10.9754 120.339 10.1929 121.135 9.6348 122.138L11.3823 123.11C11.7648 122.423 12.2895 121.89 12.9702 121.496L11.9685 119.765ZM9.63202 122.143C9.07105 123.164 8.80652 124.304 8.81674 125.536L10.8167 125.519C10.809 124.592 11.0057 123.796 11.3851 123.105L9.63202 122.143ZM8.81674 125.536C8.82704 126.777 9.10953 127.915 9.69107 128.92L11.4222 127.918C11.0353 127.25 10.8245 126.46 10.8167 125.519L8.81674 125.536ZM9.69107 128.92C10.2657 129.913 11.0613 130.696 12.0639 131.254L13.0366 129.506C12.3495 129.124 11.816 128.599 11.4222 127.918L9.69107 128.92ZM12.0689 131.256C13.0904 131.817 14.2299 132.082 15.4621 132.072L15.4455 130.072C14.5187 130.08 13.7225 129.883 13.0316 129.503L12.0689 131.256ZM15.4621 132.072L37.0068 131.893L36.9902 129.893L15.4455 130.072L15.4621 132.072ZM29.4705 143.983L29.4622 142.983L28.4622 142.991L28.4705 143.991L29.4705 143.983ZM37.1066 143.92L38.1066 143.911L38.0983 142.911L37.0983 142.92L37.1066 143.92ZM37.3583 174.259L37.3666 175.259L38.3666 175.251L38.3583 174.251L37.3583 174.259ZM29.7222 174.323L28.7222 174.331L28.7305 175.331L29.7305 175.323L29.7222 174.323ZM29.6351 163.823L30.6351 163.815L30.6268 162.815L29.6268 162.823L29.6351 163.823ZM2.36331 164.049L1.36335 164.058L1.37164 165.058L2.37161 165.049L2.36331 164.049ZM2.28582 154.709L2.27752 153.709L1.27756 153.717L1.28585 154.717L2.28582 154.709ZM29.5576 154.483L29.5659 155.483L30.5659 155.474L30.5576 154.474L29.5576 154.483ZM29.4788 144.983L37.1149 144.92L37.0983 142.92L29.4622 142.983L29.4788 144.983ZM36.1066 143.928L36.3584 174.268L38.3583 174.251L38.1066 143.911L36.1066 143.928ZM37.35 173.26L29.7139 173.323L29.7305 175.323L37.3666 175.259L37.35 173.26ZM30.7222 174.315L30.6351 163.815L28.6351 163.831L28.7222 174.331L30.7222 174.315ZM29.6268 162.823L2.35502 163.049L2.37161 165.049L29.6434 164.823L29.6268 162.823ZM3.36328 164.041L3.28578 154.701L1.28585 154.717L1.36335 164.058L3.36328 164.041ZM2.29411 155.709L29.5659 155.483L29.5493 153.483L2.27752 153.709L2.29411 155.709ZM30.5576 154.474L30.4705 143.975L28.4705 143.991L28.5576 154.491L30.5576 154.474ZM37.6386 208.047L38.6386 208.038L38.6303 207.038L37.6303 207.047L37.6386 208.047ZM37.7173 217.524L37.7256 218.524L38.7255 218.515L38.7172 217.515L37.7173 217.524ZM8.43538 215.857L8.97633 215.016L8.97514 215.016L8.43538 215.857ZM3.90875 210.611L3.00456 211.038L3.00634 211.042L3.90875 210.611ZM3.7778 194.827L2.86835 194.411L2.86665 194.415L3.7778 194.827ZM8.21676 189.506L7.66878 188.67L7.66311 188.673L8.21676 189.506ZM37.4672 187.388L38.4672 187.38L38.4589 186.38L37.4589 186.388L37.4672 187.388ZM37.5459 196.865L37.5542 197.865L38.5541 197.857L38.5458 196.857L37.5459 196.865ZM13.1095 197.784L12.6136 196.915L12.6087 196.918L13.1095 197.784ZM11.1487 199.778L10.2749 199.291L10.2721 199.296L11.1487 199.778ZM11.1967 205.573L10.3312 206.074L11.1967 205.573ZM13.1904 207.534L12.704 208.407L12.709 208.41L13.1904 207.534ZM36.6387 208.055L36.7173 217.532L38.7172 217.515L38.6386 208.038L36.6387 208.055ZM37.709 216.524L15.3461 216.709L15.3627 218.709L37.7256 218.524L37.709 216.524ZM15.3461 216.709C12.8528 216.73 10.7435 216.153 8.97633 215.016L7.89443 216.698C10.0346 218.075 12.538 218.733 15.3627 218.709L15.3461 216.709ZM8.97514 215.016C7.20254 213.879 5.81327 212.279 4.81115 210.18L3.00634 211.042C4.15531 213.448 5.78379 215.345 7.89563 216.699L8.97514 215.016ZM4.81293 210.184C3.82176 208.085 3.29908 205.613 3.27525 202.741L1.27532 202.757C1.30108 205.862 1.86737 208.631 3.00457 211.038L4.81293 210.184ZM3.27525 202.741C3.25122 199.845 3.73314 197.353 4.68894 195.239L2.86665 194.415C1.76914 196.842 1.24938 199.631 1.27532 202.757L3.27525 202.741ZM4.68723 195.243C5.65438 193.128 7.01691 191.505 8.7704 190.339L7.66311 188.673C5.57403 190.062 3.97725 191.986 2.86836 194.411L4.68723 195.243ZM8.76472 190.343C10.5139 189.197 12.6159 188.594 15.1127 188.574L15.0961 186.574C12.2749 186.597 9.78514 187.283 7.66879 188.67L8.76472 190.343ZM15.1127 188.574L37.4755 188.388L37.4589 186.388L15.0961 186.574L15.1127 188.574ZM36.4673 187.397L36.5459 196.874L38.5458 196.857L38.4672 187.38L36.4673 187.397ZM37.5376 195.865L15.9929 196.044L16.0094 198.044L37.5542 197.865L37.5376 195.865ZM15.9929 196.044C14.7607 196.054 13.6257 196.338 12.6136 196.915L13.6053 198.652C14.2898 198.262 15.0826 198.052 16.0094 198.044L15.9929 196.044ZM12.6087 196.918C11.6155 197.493 10.833 198.289 10.2749 199.291L12.0224 200.264C12.4049 199.577 12.9296 199.043 13.6103 198.649L12.6087 196.918ZM10.2721 199.296C9.71116 200.318 9.44663 201.457 9.45686 202.689L11.4568 202.673C11.4491 201.746 11.6458 200.95 12.0252 200.259L10.2721 199.296ZM9.45686 202.689C9.46715 203.931 9.74964 205.068 10.3312 206.074L12.0623 205.072C11.6754 204.403 11.4646 203.613 11.4568 202.673L9.45686 202.689ZM10.3312 206.074C10.9058 207.067 11.7014 207.849 12.704 208.407L13.6767 206.66C12.9896 206.277 12.4561 205.753 12.0623 205.072L10.3312 206.074ZM12.709 208.41C13.7305 208.971 14.87 209.236 16.1022 209.225L16.0856 207.225C15.1588 207.233 14.3626 207.036 13.6717 206.657L12.709 208.41ZM16.1022 209.225L37.6469 209.047L37.6303 207.047L16.0856 207.225L16.1022 209.225ZM27.002 240.936L26.914 239.94L25.9944 240.021L26.0021 240.944L27.002 240.936ZM29.6504 239.635L28.8826 238.995L28.8779 239L29.6504 239.635ZM30.1986 233.801L29.2638 234.156L29.2674 234.165L30.1986 233.801ZM29.2499 232.445L29.8395 231.638L29.8395 231.638L29.2499 232.445ZM27.8824 231.996L27.8368 232.995L27.8526 232.996L27.8685 232.996L27.8824 231.996ZM26.7423 232.227L26.2877 231.337L26.2696 231.346L26.252 231.356L26.7423 232.227ZM25.846 233.087L25.0243 232.517L25.0186 232.525L25.0131 232.534L25.846 233.087ZM24.5807 236.728L25.5602 236.93L25.5619 236.922L24.5807 236.728ZM23.9908 239.597L23.0113 239.396L23.0108 239.398L23.9908 239.597ZM20.0715 247.965L19.372 247.25L19.3676 247.255L20.0715 247.965ZM17.0535 249.916L16.7039 248.979L16.6956 248.983L17.0535 249.916ZM13.3772 250.595L13.3805 251.595L13.394 251.594L13.3772 250.595ZM7.53353 248.921L6.95906 249.74L7.53353 248.921ZM3.86253 244.077L4.79034 243.704L4.78965 243.702L3.86253 244.077ZM3.83597 228.548L2.90412 228.185L2.9035 228.187L3.83597 228.548ZM7.93431 223.264L7.3762 222.434L7.37041 222.438L7.93431 223.264ZM15.1117 221.329L16.1117 221.321L16.1033 220.317L15.0995 220.329L15.1117 221.329ZM15.1864 230.329L15.2478 231.327L16.1942 231.269L16.1863 230.321L15.1864 230.329ZM12.4999 231.152L11.9443 230.321L11.9443 230.321L12.4999 231.152ZM10.8633 233.177L9.94271 232.787L9.94087 232.791L10.8633 233.177ZM10.7227 238.838L9.78672 239.19L10.7227 238.838ZM11.7753 240.38L11.1596 241.168L11.7753 240.38ZM13.2968 240.913L13.2851 241.913L13.3058 241.913L13.3264 241.913L13.2968 240.913ZM14.6901 240.373L14.0564 239.6L14.0446 239.609L14.0331 239.619L14.6901 240.373ZM15.7674 238.728L14.8464 238.338L14.8416 238.35L15.7674 238.728ZM16.6622 235.635L17.6408 235.841L17.6415 235.838L16.6622 235.635ZM17.3834 232.152L16.4044 231.948L16.4041 231.949L17.3834 232.152ZM20.6805 224.812L19.9284 224.152L19.924 224.158L20.6805 224.812ZM27.1186 222.116L27.1228 223.116L27.1321 223.116L27.1186 222.116ZM32.9456 223.84L33.5238 223.024L33.5227 223.024L32.9456 223.84ZM36.8904 228.802L37.8036 228.395L37.8028 228.393L36.8904 228.802ZM36.9949 243.461L36.0825 243.052L36.9949 243.461ZM33.0459 248.25L32.4945 247.415L32.4881 247.419L33.0459 248.25ZM27.0773 250.004L26.0773 250.012L26.0856 251.017L27.0905 251.004L27.0773 250.004ZM27.09 241.932C28.4497 241.812 29.5968 241.276 30.423 240.27L28.8779 239C28.444 239.528 27.8255 239.859 26.914 239.94L27.09 241.932ZM30.4183 240.276C31.2651 239.261 31.5901 237.838 31.5765 236.193L29.5766 236.21C29.5884 237.633 29.296 238.499 28.8826 238.995L30.4183 240.276ZM31.5765 236.193C31.5678 235.145 31.4336 234.213 31.1299 233.437L29.2674 234.165C29.4513 234.635 29.569 235.303 29.5766 236.21L31.5765 236.193ZM31.1335 233.446C30.854 232.71 30.439 232.075 29.8395 231.638L28.6602 233.253C28.861 233.399 29.0786 233.669 29.2638 234.156L31.1335 233.446ZM29.8395 231.638C29.2663 231.219 28.6078 231.006 27.8964 230.996L27.8685 232.996C28.1799 233.001 28.4331 233.087 28.6602 233.253L29.8395 231.638ZM27.9281 230.997C27.3528 230.971 26.7975 231.076 26.2877 231.337L27.1969 233.118C27.3661 233.032 27.5709 232.983 27.8368 232.995L27.9281 230.997ZM26.252 231.356C25.7627 231.631 25.3585 232.035 25.0243 232.517L26.6677 233.657C26.8725 233.362 27.0658 233.193 27.2326 233.099L26.252 231.356ZM25.0131 232.534C24.6951 233.012 24.4273 233.59 24.1983 234.246L26.0865 234.906C26.2793 234.354 26.4805 233.939 26.6789 233.641L25.0131 232.534ZM24.1983 234.246C23.9678 234.907 23.7695 235.672 23.5995 236.535L25.5619 236.922C25.719 236.123 25.8952 235.453 26.0865 234.906L24.1983 234.246ZM23.6012 236.527L23.0113 239.396L24.9703 239.798L25.5602 236.93L23.6012 236.527ZM23.0108 239.398C22.6296 241.275 22.1256 242.851 21.5103 244.14L23.3152 245.001C24.0179 243.529 24.5659 241.789 24.9708 239.796L23.0108 239.398ZM21.5103 244.14C20.8914 245.436 20.1744 246.465 19.3721 247.25L20.7709 248.68C21.7722 247.7 22.616 246.466 23.3152 245.001L21.5103 244.14ZM19.3676 247.255C18.573 248.042 17.6864 248.613 16.7039 248.979L17.403 250.853C18.6637 250.383 19.7891 249.653 20.7754 248.675L19.3676 247.255ZM16.6956 248.983C15.6941 249.366 14.5855 249.574 13.3603 249.595L13.394 251.594C14.8276 251.57 16.1699 251.326 17.4113 250.85L16.6956 248.983ZM13.3738 249.595C11.2481 249.602 9.5111 249.088 8.10799 248.103L6.95906 249.74C8.75652 251.001 10.9153 251.603 13.3805 251.595L13.3738 249.595ZM8.10799 248.103C6.69038 247.108 5.57711 245.66 4.79034 243.704L2.93472 244.45C3.84205 246.706 5.17611 248.489 6.95906 249.74L8.10799 248.103ZM4.78965 243.702C4.0018 241.753 3.57906 239.359 3.55529 236.494L1.55535 236.51C1.5806 239.554 2.02934 242.21 2.9354 244.451L4.78965 243.702ZM3.55529 236.494C3.53091 233.556 3.94488 231.035 4.76843 228.909L2.9035 228.187C1.96918 230.598 1.52938 233.38 1.55535 236.51L3.55529 236.494ZM4.76781 228.911C5.57978 226.826 6.82492 225.232 8.49822 224.09L7.37041 222.438C5.33731 223.826 3.85021 225.756 2.90412 228.185L4.76781 228.911ZM8.49241 224.094C10.1536 222.976 12.3407 222.363 15.1239 222.329L15.0995 220.329C12.0422 220.367 9.44433 221.043 7.37622 222.434L8.49241 224.094ZM14.1117 221.337L14.1864 230.337L16.1863 230.321L16.1117 221.321L14.1117 221.337ZM15.125 229.331C13.921 229.405 12.845 229.719 11.9443 230.321L13.0555 231.984C13.6014 231.619 14.3163 231.384 15.2478 231.327L15.125 229.331ZM11.9443 230.321C11.0457 230.921 10.3801 231.756 9.94272 232.787L11.7838 233.568C12.082 232.865 12.5076 232.35 13.0555 231.984L11.9443 230.321ZM9.94087 232.791C9.50893 233.822 9.31585 235.004 9.32668 236.31L11.3266 236.293C11.3175 235.189 11.4821 234.288 11.7856 233.564L9.94087 232.791ZM9.32668 236.31C9.33569 237.396 9.47698 238.366 9.78672 239.19L11.6587 238.486C11.4571 237.95 11.3344 237.229 11.3266 236.293L9.32668 236.31ZM9.78672 239.19C10.089 239.994 10.5331 240.679 11.1596 241.168L12.391 239.592C12.1253 239.385 11.8677 239.041 11.6587 238.486L9.78672 239.19ZM11.1596 241.168C11.7791 241.652 12.4987 241.904 13.2851 241.913L13.3085 239.913C12.9585 239.909 12.6637 239.805 12.391 239.592L11.1596 241.168ZM13.3264 241.913C14.0867 241.89 14.7741 241.626 15.3472 241.127L14.0331 239.619C13.8163 239.808 13.5749 239.904 13.2673 239.914L13.3264 241.913ZM15.3239 241.147C15.9122 240.665 16.351 239.944 16.6933 239.106L14.8416 238.35C14.5602 239.039 14.2807 239.416 14.0564 239.6L15.3239 241.147ZM16.6884 239.117C17.0469 238.27 17.3611 237.169 17.6408 235.841L15.6837 235.429C15.4168 236.696 15.1343 237.658 14.8464 238.338L16.6884 239.117ZM17.6415 235.838L18.3626 232.354L16.4041 231.949L15.683 235.432L17.6415 235.838ZM18.3624 232.355C18.9836 229.372 20.0258 227.098 21.4371 225.465L19.924 224.158C18.2286 226.119 17.0728 228.738 16.4044 231.948L18.3624 232.355ZM21.4327 225.471C22.7795 223.933 24.635 223.126 27.1228 223.116L27.1145 221.116C24.1477 221.128 21.7112 222.118 19.9284 224.152L21.4327 225.471ZM27.1321 223.116C29.1553 223.089 30.8869 223.61 32.3685 224.657L33.5227 223.024C31.6665 221.712 29.5134 221.084 27.1052 221.116L27.1321 223.116ZM32.3675 224.656C33.8843 225.731 35.0921 227.236 35.9779 229.211L37.8028 228.393C36.7898 226.134 35.3677 224.331 33.5238 223.024L32.3675 224.656ZM35.9771 229.21C36.8612 231.191 37.327 233.496 37.349 236.145L39.3489 236.129C39.3251 233.255 38.8185 230.67 37.8036 228.395L35.9771 229.21ZM37.349 236.145C37.3715 238.854 36.9371 241.146 36.0825 243.052L37.9073 243.87C38.9049 241.646 39.3732 239.056 39.3489 236.129L37.349 236.145ZM36.0825 243.052C35.2255 244.962 34.0264 246.403 32.4945 247.415L33.5972 249.084C35.4786 247.84 36.9122 246.089 37.9073 243.87L36.0825 243.052ZM32.4881 247.419C30.9728 248.438 29.1776 248.976 27.064 249.004L27.0905 251.004C29.5448 250.971 31.7287 250.339 33.6036 249.08L32.4881 247.419ZM28.0772 249.995L28.002 240.927L26.0021 240.944L26.0773 250.012L28.0772 249.995Z" fill="#05C2DF" fill-opacity="0.2" mask="url(#path-1-outside-1_1_5917)"/>
</svg>
