<svg width="39" height="251" viewBox="0 0 39 251" fill="none" xmlns="http://www.w3.org/2000/svg">
<mask id="path-1-outside-1_1_5916" maskUnits="userSpaceOnUse" x="-1.00951" y="-1.49757" width="41.0976" height="253.315" fill="black">
<rect fill="white" x="-1.00951" y="-1.49757" width="41.0976" height="253.315"/>
<path d="M1.09262 11.1272L1.00777 0.900229L36.0113 12.1329L36.1187 25.087L1.30644 36.899L1.22159 26.6721L26.4528 18.8261L26.4506 18.5534L1.09262 11.1272ZM14.849 9.10386L15.0086 28.3305L7.91789 28.3893L7.75837 9.16269L14.849 9.10386ZM1.33433 40.2611L36.2422 39.9715L36.3678 55.1073C36.3899 57.7663 36.0504 60.0022 35.3496 61.8149C34.6488 63.6389 33.6488 65.0166 32.3496 65.9478C31.0506 66.8905 29.5147 67.3691 27.7421 67.3838C26.458 67.3945 25.2853 67.1201 24.2238 66.5607C23.1624 66.0127 22.2695 65.236 21.5453 64.2306C20.8323 63.2251 20.3339 62.0474 20.05 60.6974L19.7091 60.7003C19.6647 62.2007 19.2954 63.5674 18.601 64.8005C17.918 66.0335 16.966 67.0187 15.7448 67.7561C14.5349 68.4935 13.1062 68.869 11.4585 68.8826C9.54948 68.8985 7.84652 68.4126 6.34964 67.425C4.85285 66.4487 3.67075 65.0494 2.80333 63.227C1.9359 61.4046 1.49168 59.2263 1.47066 56.6923L1.33433 40.2611ZM8.98088 49.6752L9.01765 54.1069C9.03085 55.6978 9.33619 56.8885 9.93368 57.679C10.5425 58.4694 11.4322 58.8598 12.6026 58.8501C13.4207 58.8433 14.1123 58.65 14.6774 58.2703C15.2424 57.8906 15.6698 57.353 15.9595 56.6574C16.2493 55.9731 16.3902 55.1481 16.3822 54.1822L16.3443 49.6142L8.98088 49.6752ZM22.2077 49.5655L22.2399 53.4517C22.2468 54.2813 22.3836 55.0131 22.6502 55.6473C22.9169 56.2815 23.2959 56.7726 23.7875 57.1208C24.2905 57.4803 24.8999 57.6571 25.6158 57.6512C26.6953 57.6422 27.5159 57.249 28.0777 56.4716C28.6508 55.6941 28.9325 54.7144 28.9227 53.5327L28.8893 49.5101L22.2077 49.5655ZM19.3348 105.995C15.4486 106.027 12.1641 105.298 9.48115 103.809C6.80961 102.32 4.77571 100.297 3.37945 97.7404C1.99456 95.1836 1.28901 92.3258 1.2628 89.1668C1.2364 85.9851 1.90002 83.1045 3.25367 80.525C4.61877 77.9567 6.62456 75.9059 9.27102 74.3726C11.9289 72.8505 15.1896 72.0734 19.0532 72.0413C22.9394 72.0091 26.2182 72.7319 28.8897 74.2098C31.5726 75.6989 33.6064 77.7162 34.9912 80.2616C36.3875 82.8183 37.0988 85.6875 37.1252 88.8692C37.1514 92.0282 36.4877 94.8975 35.134 97.477C33.7918 100.056 31.7917 102.113 29.1339 103.646C26.4874 105.18 23.2211 105.962 19.3348 105.995ZM19.254 96.245C21.3448 96.2277 23.1038 95.9347 24.5309 95.366C25.9695 94.8086 27.0537 93.9871 27.7833 92.9014C28.5244 91.8271 28.8885 90.5058 28.8755 88.9377C28.8625 87.3696 28.4765 86.0489 27.7176 84.9756C26.9701 83.9135 25.8725 83.1101 24.4247 82.5653C22.9884 82.0317 21.2249 81.7736 19.134 81.791C17.0432 81.8083 15.2785 82.0957 13.8399 82.6531C12.4127 83.2218 11.3286 84.0433 10.5875 85.1177C9.85783 86.2033 9.4995 87.5302 9.51251 89.0983C9.52552 90.6665 9.90577 91.9815 10.6532 93.0436C11.4122 94.1168 12.5098 94.9203 13.9461 95.4538C15.3938 95.9986 17.1631 96.2624 19.254 96.245ZM36.9966 130.893L37.0752 140.37L14.7123 140.556C12.0533 140.578 9.74699 139.96 7.79332 138.704C5.8511 137.458 4.34222 135.71 3.26668 133.457C2.2025 131.204 1.65801 128.584 1.63322 125.595C1.60823 122.584 2.10907 119.943 3.13573 117.674C4.17375 115.403 5.6534 113.63 7.57469 112.352C9.50743 111.086 11.8033 110.442 14.4623 110.42L36.8252 110.235L36.9038 119.712L15.3591 119.89C14.2796 119.899 13.3157 120.146 12.4674 120.63C11.6305 121.115 10.9769 121.779 10.5066 122.624C10.0364 123.48 9.8058 124.448 9.81475 125.527C9.8238 126.618 10.0704 127.582 10.5547 128.419C11.0389 129.256 11.7034 129.91 12.5483 130.38C13.4045 130.85 14.3723 131.081 15.4519 131.072L36.9966 130.893ZM29.4685 143.983L37.1046 143.92L37.3564 174.259L29.7203 174.323L29.6331 163.823L2.36136 164.049L2.28386 154.709L29.5557 154.483L29.4685 143.983ZM37.6367 208.047L37.7153 217.524L15.3524 217.709C12.6934 217.731 10.3871 217.114 8.43343 215.857C6.49122 214.612 4.98234 212.863 3.90679 210.611C2.84261 208.358 2.29813 205.737 2.27333 202.749C2.24835 199.738 2.74918 197.097 3.77584 194.827C4.81386 192.557 6.29352 190.783 8.2148 189.506C10.1475 188.24 12.4434 187.596 15.1024 187.574L37.4653 187.388L37.5439 196.865L15.9992 197.044C14.9197 197.053 13.9558 197.3 13.1075 197.784C12.2706 198.268 11.617 198.933 11.1467 199.778C10.6765 200.634 10.4459 201.602 10.4549 202.681C10.4639 203.772 10.7106 204.736 11.1948 205.573C11.679 206.41 12.3436 207.063 13.1884 207.534C14.0446 208.004 15.0125 208.234 16.092 208.225L37.6367 208.047ZM27.0001 240.936C28.1357 240.835 29.0185 240.402 29.6485 239.635C30.2786 238.88 30.5873 237.735 30.5746 236.201C30.5665 235.224 30.4405 234.424 30.1967 233.801C29.9643 233.189 29.6481 232.737 29.2479 232.445C28.8477 232.153 28.3919 232.003 27.8805 231.996C27.4599 231.977 27.0798 232.054 26.7403 232.227C26.4123 232.412 26.1135 232.699 25.844 233.087C25.5859 233.476 25.3513 233.972 25.1404 234.576C24.9295 235.18 24.7423 235.897 24.5787 236.728L23.9889 239.597C23.5958 241.532 23.0698 243.19 22.4108 244.571C21.7517 245.951 20.9713 247.083 20.0695 247.965C19.1791 248.848 18.1731 249.498 17.0515 249.916C15.93 250.346 14.7046 250.572 13.3752 250.595C11.0797 250.602 9.13186 250.045 7.53157 248.921C5.93129 247.798 4.70763 246.183 3.86057 244.077C3.01361 241.981 2.57788 239.456 2.55337 236.502C2.5282 233.468 2.95508 230.817 3.83401 228.548C4.71304 226.291 6.07916 224.529 7.93236 223.264C9.79702 222.01 12.1895 221.365 15.1097 221.329L15.1844 230.329C14.1167 230.395 13.2213 230.669 12.498 231.152C11.7747 231.636 11.2291 232.311 10.8613 233.177C10.4936 234.055 10.3147 235.097 10.3247 236.301C10.3331 237.313 10.4651 238.158 10.7208 238.838C10.9764 239.518 11.3273 240.032 11.7734 240.38C12.2194 240.729 12.7266 240.906 13.2949 240.913C13.8289 240.897 14.2933 240.717 14.6882 240.373C15.0945 240.04 15.4536 239.492 15.7655 238.728C16.0887 237.964 16.387 236.933 16.6603 235.635L17.3814 232.152C18.0262 229.055 19.1253 226.609 20.6786 224.812C22.2434 223.026 24.3894 222.127 27.1167 222.116C29.3324 222.086 31.2748 222.661 32.9437 223.84C34.6241 225.031 35.939 226.685 36.8884 228.802C37.8379 230.931 38.3241 233.376 38.347 236.137C38.3704 238.955 37.9191 241.396 36.993 243.461C36.0669 245.525 34.7505 247.122 33.0439 248.249C31.3488 249.389 29.3592 249.973 27.0753 250.004L27.0001 240.936Z"/>
</mask>
<path d="M1.09262 11.1272L0.0926551 11.1354L0.0988166 11.8781L0.811568 12.0868L1.09262 11.1272ZM1.00777 0.900229L1.31333 -0.0519454L-0.00366898 -0.474573L0.00780607 0.908525L1.00777 0.900229ZM36.0113 12.1329L37.0112 12.1246L37.0052 11.4017L36.3168 11.1808L36.0113 12.1329ZM36.1187 25.087L36.44 26.034L37.1247 25.8017L37.1187 25.0787L36.1187 25.087ZM1.30644 36.899L0.306474 36.9073L0.31795 38.2904L1.62775 37.846L1.30644 36.899ZM1.22159 26.6721L0.924653 25.7172L0.215464 25.9377L0.221626 26.6804L1.22159 26.6721ZM26.4528 18.8261L26.7498 19.781L27.4589 19.5605L27.4528 18.8178L26.4528 18.8261ZM26.4506 18.5534L27.4505 18.5451L27.4444 17.8024L26.7316 17.5937L26.4506 18.5534ZM14.849 9.10386L15.849 9.09557L15.8407 8.0956L14.8407 8.1039L14.849 9.10386ZM15.0086 28.3305L15.0168 29.3304L16.0168 29.3221L16.0085 28.3222L15.0086 28.3305ZM7.91789 28.3893L6.91792 28.3976L6.92622 29.3976L7.92618 29.3893L7.91789 28.3893ZM7.75837 9.16269L7.75008 8.16272L6.75011 8.17102L6.75841 9.17099L7.75837 9.16269ZM2.09259 11.1189L2.00774 0.891933L0.00780607 0.908525L0.0926551 11.1354L2.09259 11.1189ZM0.702215 1.8524L35.7057 13.0851L36.3168 11.1808L1.31333 -0.0519454L0.702215 1.8524ZM35.0113 12.1412L35.1188 25.0953L37.1187 25.0787L37.0112 12.1246L35.0113 12.1412ZM35.7974 24.1401L0.985127 35.952L1.62775 37.846L36.44 26.034L35.7974 24.1401ZM2.30641 36.8907L2.22156 26.6638L0.221626 26.6804L0.306474 36.9073L2.30641 36.8907ZM1.51853 27.627L26.7498 19.781L26.1559 17.8712L0.924653 25.7172L1.51853 27.627ZM27.4528 18.8178L27.4505 18.5451L25.4506 18.5617L25.4529 18.8344L27.4528 18.8178ZM26.7316 17.5937L1.37367 10.1675L0.811568 12.0868L26.1695 19.5131L26.7316 17.5937ZM13.8491 9.11216L14.0086 28.3388L16.0085 28.3222L15.849 9.09557L13.8491 9.11216ZM15.0003 27.3305L7.90959 27.3893L7.92618 29.3893L15.0168 29.3304L15.0003 27.3305ZM8.91785 28.381L8.75834 9.15439L6.75841 9.17099L6.91792 28.3976L8.91785 28.381ZM7.76667 10.1627L14.8573 10.1038L14.8407 8.1039L7.75008 8.16272L7.76667 10.1627ZM1.33433 40.2611L1.32604 39.2611L0.326072 39.2694L0.334369 40.2694L1.33433 40.2611ZM36.2422 39.9715L37.2422 39.9632L37.2339 38.9632L36.2339 38.9715L36.2422 39.9715ZM35.3496 61.8149L34.4168 61.4542L34.4161 61.4562L35.3496 61.8149ZM32.3496 65.9478L31.767 65.1351L31.7623 65.1385L32.3496 65.9478ZM24.2238 66.5607L24.69 65.676L24.6826 65.6722L24.2238 66.5607ZM21.5453 64.2306L20.7295 64.809L20.7339 64.8151L21.5453 64.2306ZM20.05 60.6974L21.0286 60.4916L20.8601 59.6907L20.0417 59.6975L20.05 60.6974ZM19.7091 60.7003L19.7008 59.7003L18.738 59.7083L18.7095 60.6707L19.7091 60.7003ZM18.601 64.8005L17.7296 64.3098L17.7263 64.316L18.601 64.8005ZM15.7448 67.7561L15.2278 66.9001L15.2243 66.9022L15.7448 67.7561ZM6.34964 67.425L6.90036 66.5903L6.89594 66.5874L6.34964 67.425ZM2.80333 63.227L3.70626 62.7972L2.80333 63.227ZM8.98088 49.6752L8.97258 48.6753L7.97262 48.6836L7.98092 49.6835L8.98088 49.6752ZM9.93368 57.679L9.13588 58.282L9.14146 58.2892L9.93368 57.679ZM15.9595 56.6574L15.0387 56.2674L15.0364 56.2729L15.9595 56.6574ZM16.3443 49.6142L17.3442 49.6059L17.3359 48.6059L16.336 48.6142L16.3443 49.6142ZM22.2077 49.5655L22.1994 48.5655L21.1994 48.5738L21.2077 49.5738L22.2077 49.5655ZM22.6502 55.6473L21.7284 56.0349L21.7284 56.0349L22.6502 55.6473ZM23.7875 57.1208L24.3689 56.3073L24.3655 56.3048L23.7875 57.1208ZM28.0777 56.4716L27.2727 55.8782L27.2672 55.8859L28.0777 56.4716ZM28.8893 49.5101L29.8893 49.5018L29.881 48.5018L28.881 48.5101L28.8893 49.5101ZM1.34263 41.2611L36.2505 40.9714L36.2339 38.9715L1.32604 39.2611L1.34263 41.2611ZM35.2423 39.9798L35.3678 55.1156L37.3678 55.099L37.2422 39.9632L35.2423 39.9798ZM35.3678 55.1156C35.3892 57.6919 35.0589 59.7938 34.4168 61.4542L36.2823 62.1755C37.042 60.2105 37.3905 57.8407 37.3678 55.099L35.3678 55.1156ZM34.4161 61.4562C33.7696 63.1388 32.8752 64.3408 31.767 65.1351L32.9323 66.7606C34.4224 65.6924 35.5279 64.1391 36.283 62.1735L34.4161 61.4562ZM31.7623 65.1385C30.6493 65.9461 29.3211 66.3707 27.7338 66.3839L27.7504 68.3838C29.7084 68.3676 31.4519 67.8348 32.9369 66.7572L31.7623 65.1385ZM27.7338 66.3839C26.6031 66.3933 25.5951 66.153 24.69 65.6761L23.7576 67.4454C24.9755 68.0872 26.313 68.3957 27.7504 68.3838L27.7338 66.3839ZM24.6826 65.6722C23.7663 65.1991 22.9925 64.5287 22.3566 63.6461L20.7339 64.8151C21.5466 65.9433 22.5585 66.8263 23.765 67.4493L24.6826 65.6722ZM22.361 63.6522C21.7363 62.7711 21.2877 61.7235 21.0286 60.4916L19.0714 60.9033C19.3802 62.3713 19.9284 63.6792 20.7295 64.809L22.361 63.6522ZM20.0417 59.6975L19.7008 59.7003L19.7174 61.7002L20.0583 61.6974L20.0417 59.6975ZM18.7095 60.6707C18.6696 62.0194 18.3398 63.2264 17.7297 64.3099L19.4724 65.2912C20.251 63.9085 20.6598 62.3819 20.7086 60.7298L18.7095 60.6707ZM17.7263 64.316C17.1291 65.394 16.3012 66.2519 15.2278 66.9001L16.2617 68.6122C17.6307 67.7855 18.707 66.673 19.4758 65.2851L17.7263 64.316ZM15.2243 66.9022C14.1925 67.531 12.947 67.8702 11.4502 67.8827L11.4668 69.8826C13.2654 69.8677 14.8773 69.4559 16.2652 68.61L15.2243 66.9022ZM11.4502 67.8827C9.72631 67.897 8.22054 67.4613 6.90035 66.5903L5.79892 68.2597C7.47251 69.3639 9.37264 69.9 11.4668 69.8826L11.4502 67.8827ZM6.89594 66.5874C5.57253 65.7242 4.50508 64.4755 3.70626 62.7972L1.90039 63.6567C2.83641 65.6233 4.13318 67.1732 5.80334 68.2626L6.89594 66.5874ZM3.70626 62.7972C2.91543 61.1357 2.49074 59.1084 2.47062 56.684L0.470693 56.7006C0.492626 59.3443 0.956377 61.6734 1.90039 63.6567L3.70626 62.7972ZM2.47062 56.684L2.3343 40.2528L0.334369 40.2694L0.470693 56.7006L2.47062 56.684ZM7.98092 49.6835L8.01768 54.1152L10.0176 54.0986L9.98085 49.667L7.98092 49.6835ZM8.01768 54.1152C8.03167 55.8007 8.35153 57.2442 9.13591 58.2819L10.7315 57.076C10.3209 56.5328 10.03 55.5948 10.0176 54.0986L8.01768 54.1152ZM9.14146 58.2892C9.97593 59.3726 11.1886 59.8618 12.6109 59.85L12.5943 57.8501C11.6757 57.8577 11.1091 57.5663 10.7259 57.0688L9.14146 58.2892ZM12.6109 59.85C13.5848 59.842 14.4772 59.6097 15.2351 59.1003L14.1196 57.4403C13.7475 57.6904 13.2567 57.8446 12.5943 57.8501L12.6109 59.85ZM15.2351 59.1003C15.9802 58.5996 16.5259 57.8985 16.8827 57.0418L15.0364 56.2729C14.8137 56.8075 14.5046 57.1816 14.1196 57.4403L15.2351 59.1003ZM16.8803 57.0473C17.2369 56.2055 17.391 55.2373 17.3821 54.1739L15.3822 54.1905C15.3894 55.0588 15.2617 55.7408 15.0387 56.2674L16.8803 57.0473ZM17.3821 54.1739L17.3442 49.6059L15.3443 49.6225L15.3822 54.1905L17.3821 54.1739ZM16.336 48.6142L8.97258 48.6753L8.98918 50.6752L16.3526 50.6141L16.336 48.6142ZM21.2077 49.5738L21.24 53.46L23.2399 53.4434L23.2077 49.5572L21.2077 49.5738ZM21.24 53.46C21.2477 54.3937 21.402 55.2586 21.7284 56.0349L23.5721 55.2597C23.3652 54.7676 23.2459 54.1688 23.2399 53.4434L21.24 53.46ZM21.7284 56.0349C22.0569 56.8161 22.5448 57.466 23.2094 57.9368L24.3655 56.3048C24.047 56.0792 23.7768 55.7468 23.5721 55.2597L21.7284 56.0349ZM23.206 57.9344C23.9071 58.4355 24.7315 58.6585 25.6241 58.6511L25.6075 56.6512C25.0684 56.6557 24.6738 56.5252 24.3689 56.3073L23.206 57.9344ZM25.6241 58.6511C26.9757 58.6399 28.1148 58.1276 28.8882 57.0573L27.2672 55.8859C26.9171 56.3704 26.4149 56.6445 25.6075 56.6512L25.6241 58.6511ZM28.8826 57.0649C29.6107 56.0773 29.9338 54.8731 29.9226 53.5244L27.9227 53.541C27.9311 54.5558 27.691 55.3109 27.2727 55.8783L28.8826 57.0649ZM29.9226 53.5244L29.8893 49.5018L27.8893 49.5184L27.9227 53.541L29.9226 53.5244ZM28.881 48.5101L22.1994 48.5655L22.216 50.5655L28.8976 50.51L28.881 48.5101ZM9.48115 103.809L8.99424 104.683L8.99584 104.684L9.48115 103.809ZM3.37945 97.7404L2.50015 98.2167L2.5018 98.2197L3.37945 97.7404ZM3.25367 80.525L2.37065 80.0556L2.36819 80.0603L3.25367 80.525ZM9.27102 74.3726L8.77406 73.5048L8.76968 73.5073L9.27102 74.3726ZM28.8897 74.2098L29.375 73.3354L29.3737 73.3348L28.8897 74.2098ZM34.9912 80.2617L34.1128 80.7395L34.1136 80.7409L34.9912 80.2617ZM35.134 97.477L34.2486 97.0123L34.247 97.0153L35.134 97.477ZM29.1339 103.646L28.6341 102.78L28.6326 102.781L29.1339 103.646ZM24.5309 95.366L24.1696 94.4335L24.1608 94.437L24.5309 95.366ZM27.7833 92.9014L26.9601 92.3336L26.9534 92.3436L27.7833 92.9014ZM27.7176 84.9756L26.8998 85.5511L26.9011 85.5529L27.7176 84.9756ZM24.4247 82.5653L24.7769 81.6294L24.773 81.6279L24.4247 82.5653ZM13.8399 82.6531L13.4786 81.7206L13.4697 81.7242L13.8399 82.6531ZM10.5875 85.1177L9.76427 84.5498L9.75752 84.5599L10.5875 85.1177ZM10.6532 93.0436L9.83548 93.6191L9.83674 93.6209L10.6532 93.0436ZM13.9461 95.4538L14.2983 94.5179L14.2943 94.5164L13.9461 95.4538ZM19.3266 104.995C15.5678 105.026 12.4633 104.321 9.96646 102.935L8.99584 104.684C11.8648 106.276 15.3295 107.028 19.3431 106.995L19.3266 104.995ZM9.96806 102.936C7.45271 101.534 5.55829 99.6437 4.25711 97.2611L2.5018 98.2197C3.99314 100.95 6.16651 103.106 8.99424 104.683L9.96806 102.936ZM4.25875 97.2641C2.95834 94.8634 2.28774 92.1684 2.26276 89.1585L0.262833 89.1751C0.290278 92.4831 1.03077 95.5039 2.50016 98.2167L4.25875 97.2641ZM2.26276 89.1585C2.2376 86.1259 2.86894 83.4101 4.13915 80.9896L2.36819 80.0603C0.931109 82.7988 0.235198 85.8442 0.262833 89.1751L2.26276 89.1585ZM4.13668 80.9943C5.40944 78.5998 7.27887 76.6825 9.77235 75.2378L8.76968 73.5073C5.97024 75.1293 3.82811 77.3136 2.37066 80.0556L4.13668 80.9943ZM9.76797 75.2403C12.243 73.823 15.3254 73.0723 19.0614 73.0413L19.0449 71.0414C15.0539 71.0745 11.6149 71.8779 8.77407 73.5048L9.76797 75.2403ZM19.0614 73.0413C22.8216 73.0101 25.9205 73.71 28.4056 75.0848L29.3737 73.3348C26.5159 71.7538 23.0572 71.0081 19.0449 71.0414L19.0614 73.0413ZM28.4044 75.0841C30.9315 76.4868 32.8242 78.3709 34.1128 80.7395L35.8696 79.7838C34.3887 77.0615 32.2136 74.9111 29.375 73.3354L28.4044 75.0841ZM34.1136 80.7409C35.4238 83.1401 36.1001 85.845 36.1252 88.8775L38.1252 88.8609C38.0975 85.5301 37.3512 82.4966 35.8689 79.7823L34.1136 80.7409ZM36.1252 88.8775C36.1502 91.8861 35.5193 94.5907 34.2486 97.0123L36.0195 97.9416C37.4561 95.2042 38.1526 92.1704 38.1252 88.8609L36.1252 88.8775ZM34.247 97.0153C32.9976 99.4162 31.1365 101.336 28.6341 102.78L29.6336 104.512C32.4469 102.889 34.5859 100.697 36.0211 97.9386L34.247 97.0153ZM28.6326 102.781C26.1713 104.207 23.0856 104.964 19.3266 104.995L19.3431 106.995C23.3566 106.961 26.8035 106.152 29.6352 104.512L28.6326 102.781ZM19.2623 97.245C21.4352 97.227 23.3254 96.9228 24.9011 96.295L24.1608 94.437C22.8822 94.9465 21.2544 95.2284 19.2457 95.2451L19.2623 97.245ZM24.8922 96.2984C26.4866 95.6807 27.7501 94.7436 28.6133 93.4592L26.9534 92.3436C26.3573 93.2305 25.4525 93.9365 24.1696 94.4335L24.8922 96.2984ZM28.6065 93.4693C29.4863 92.1938 29.8898 90.6609 29.8755 88.9294L27.8755 88.946C27.8872 90.3507 27.5626 91.4603 26.9602 92.3336L28.6065 93.4693ZM29.8755 88.9294C29.8611 87.1975 29.432 85.6681 28.5341 84.3982L26.9011 85.5529C27.521 86.4296 27.8639 87.5416 27.8755 88.946L29.8755 88.9294ZM28.5353 84.4C27.6517 83.1446 26.3759 82.2311 24.7769 81.6294L24.0725 83.5012C25.369 83.9891 26.2885 84.6825 26.8998 85.5511L28.5353 84.4ZM24.773 81.6279C23.1894 81.0396 21.2968 80.773 19.1257 80.791L19.1423 82.791C21.1529 82.7743 22.7875 83.0239 24.0765 83.5027L24.773 81.6279ZM19.1257 80.791C16.9543 80.809 15.062 81.1072 13.4786 81.7207L14.2012 83.5856C15.495 83.0843 17.1321 82.8076 19.1423 82.791L19.1257 80.791ZM13.4697 81.7242C11.8924 82.3527 10.6362 83.286 9.76433 84.5499L11.4106 85.6855C12.021 84.8007 12.9331 84.0909 14.21 83.5821L13.4697 81.7242ZM9.75752 84.5599C8.89466 85.8437 8.49821 87.3778 8.51255 89.1066L10.5125 89.09C10.5008 87.6826 10.821 86.5629 11.4174 85.6755L9.75752 84.5599ZM8.51255 89.1066C8.52689 90.8351 8.94858 92.359 9.83548 93.6191L11.471 92.468C10.863 91.6041 10.5242 90.4978 10.5125 89.09L8.51255 89.1066ZM9.83674 93.6209C10.7303 94.8845 12.0049 95.7995 13.5978 96.3912L14.2943 94.5164C13.0147 94.0411 12.0941 93.3492 11.4697 92.4662L9.83674 93.6209ZM13.5939 96.3897C15.1895 96.9902 17.0889 97.263 19.2623 97.245L19.2457 95.2451C17.2373 95.2617 15.5981 95.0071 14.2983 94.5179L13.5939 96.3897ZM36.9966 130.893L37.9965 130.885L37.9882 129.885L36.9883 129.893L36.9966 130.893ZM37.0752 140.37L37.0835 141.37L38.0835 141.362L38.0752 140.362L37.0752 140.37ZM7.79332 138.704L8.33426 137.863L8.33307 137.862L7.79332 138.704ZM3.26668 133.457L2.36249 133.884L2.36427 133.888L3.26668 133.457ZM3.13573 117.674L2.22629 117.258L2.22459 117.261L3.13573 117.674ZM7.57469 112.352L7.02671 111.516L7.02104 111.52L7.57469 112.352ZM36.8252 110.235L37.8251 110.226L37.8168 109.226L36.8169 109.235L36.8252 110.235ZM36.9038 119.712L36.9121 120.712L37.9121 120.703L37.9038 119.703L36.9038 119.712ZM12.4674 120.63L11.9716 119.762L11.9666 119.765L12.4674 120.63ZM10.5066 122.624L9.63283 122.138L9.63007 122.143L10.5066 122.624ZM10.5547 128.419L9.68912 128.92L10.5547 128.419ZM12.5483 130.38L12.0619 131.254L12.0669 131.256L12.5483 130.38ZM35.9966 130.901L36.0752 140.378L38.0752 140.362L37.9965 130.885L35.9966 130.901ZM37.0669 139.37L14.704 139.556L14.7206 141.556L37.0835 141.37L37.0669 139.37ZM14.704 139.556C12.2107 139.576 10.1015 138.999 8.33426 137.863L7.25237 139.545C9.39252 140.921 11.8959 141.579 14.7206 141.556L14.704 139.556ZM8.33307 137.862C6.56047 136.725 5.1712 135.125 4.16908 133.026L2.36427 133.888C3.51324 136.294 5.14173 138.192 7.25356 139.546L8.33307 137.862ZM4.17086 133.03C3.17969 130.932 2.65701 128.459 2.63318 125.587L0.633249 125.604C0.65901 128.709 1.22531 131.477 2.3625 133.884L4.17086 133.03ZM2.63318 125.587C2.60915 122.691 3.09107 120.199 4.04687 118.086L2.22459 117.261C1.12707 119.688 0.60731 122.477 0.633249 125.604L2.63318 125.587ZM4.04516 118.089C5.01231 115.974 6.37484 114.351 8.12833 113.185L7.02104 111.52C4.93196 112.909 3.33518 114.833 2.22629 117.258L4.04516 118.089ZM8.12265 113.189C9.8718 112.043 11.9738 111.441 14.4706 111.42L14.454 109.42C11.6328 109.444 9.14307 110.13 7.02672 111.516L8.12265 113.189ZM14.4706 111.42L36.8335 111.235L36.8169 109.235L14.454 109.42L14.4706 111.42ZM35.8252 110.243L35.9038 119.72L37.9038 119.703L37.8251 110.226L35.8252 110.243ZM36.8955 118.712L15.3508 118.89L15.3674 120.89L36.9121 120.712L36.8955 118.712ZM15.3508 118.89C14.1186 118.901 12.9836 119.184 11.9716 119.762L12.9632 121.499C13.6477 121.108 14.4405 120.898 15.3674 120.89L15.3508 118.89ZM11.9666 119.765C10.9734 120.339 10.1909 121.135 9.63285 122.138L11.3803 123.11C11.7628 122.423 12.2875 121.89 12.9682 121.496L11.9666 119.765ZM9.63007 122.143C9.0691 123.164 8.80456 124.304 8.81479 125.536L10.8147 125.519C10.807 124.592 11.0037 123.796 11.3831 123.105L9.63007 122.143ZM8.81479 125.536C8.82509 126.777 9.10757 127.915 9.68912 128.92L11.4202 127.918C11.0333 127.25 10.8225 126.46 10.8147 125.519L8.81479 125.536ZM9.68912 128.92C10.2638 129.913 11.0593 130.696 12.0619 131.254L13.0347 129.506C12.3476 129.124 11.8141 128.599 11.4202 127.918L9.68912 128.92ZM12.0669 131.256C13.0885 131.817 14.228 132.082 15.4601 132.072L15.4436 130.072C14.5167 130.08 13.7205 129.883 13.0296 129.503L12.0669 131.256ZM15.4601 132.072L37.0049 131.893L36.9883 129.893L15.4436 130.072L15.4601 132.072ZM29.4685 143.983L29.4602 142.983L28.4603 142.991L28.4686 143.991L29.4685 143.983ZM37.1046 143.92L38.1046 143.911L38.0963 142.911L37.0963 142.92L37.1046 143.92ZM37.3564 174.259L37.3647 175.259L38.3646 175.251L38.3563 174.251L37.3564 174.259ZM29.7203 174.323L28.7203 174.331L28.7286 175.331L29.7286 175.323L29.7203 174.323ZM29.6332 163.823L30.6331 163.815L30.6248 162.815L29.6249 162.823L29.6332 163.823ZM2.36136 164.049L1.36139 164.058L1.36969 165.058L2.36966 165.049L2.36136 164.049ZM2.28386 154.709L2.27557 153.709L1.2756 153.717L1.2839 154.717L2.28386 154.709ZM29.5557 154.483L29.564 155.483L30.5639 155.474L30.5556 154.474L29.5557 154.483ZM29.4768 144.983L37.1129 144.92L37.0963 142.92L29.4602 142.983L29.4768 144.983ZM36.1047 143.928L36.3564 174.268L38.3563 174.251L38.1046 143.911L36.1047 143.928ZM37.3481 173.26L29.712 173.323L29.7286 175.323L37.3647 175.259L37.3481 173.26ZM30.7202 174.315L30.6331 163.815L28.6332 163.831L28.7203 174.331L30.7202 174.315ZM29.6249 162.823L2.35306 163.049L2.36966 165.049L29.6414 164.823L29.6249 162.823ZM3.36133 164.041L3.28383 154.701L1.2839 154.717L1.36139 164.058L3.36133 164.041ZM2.29216 155.709L29.564 155.483L29.5474 153.483L2.27557 153.709L2.29216 155.709ZM30.5556 154.474L30.4685 143.975L28.4686 143.991L28.5557 154.491L30.5556 154.474ZM37.6367 208.047L38.6366 208.038L38.6284 207.038L37.6284 207.047L37.6367 208.047ZM37.7153 217.524L37.7236 218.524L38.7236 218.515L38.7153 217.515L37.7153 217.524ZM8.43343 215.857L8.97438 215.016L8.97318 215.016L8.43343 215.857ZM3.90679 210.611L3.00261 211.038L3.00438 211.042L3.90679 210.611ZM3.77584 194.827L2.8664 194.411L2.8647 194.415L3.77584 194.827ZM8.2148 189.506L7.66683 188.67L7.66116 188.673L8.2148 189.506ZM37.4653 187.388L38.4653 187.38L38.457 186.38L37.457 186.388L37.4653 187.388ZM37.5439 196.865L37.5522 197.865L38.5522 197.857L38.5439 196.857L37.5439 196.865ZM13.1075 197.784L12.6117 196.915L12.6067 196.918L13.1075 197.784ZM11.1467 199.778L10.2729 199.291L10.2702 199.296L11.1467 199.778ZM11.1948 205.573L10.3292 206.074L11.1948 205.573ZM13.1884 207.534L12.702 208.407L12.7071 208.41L13.1884 207.534ZM36.6367 208.055L36.7153 217.532L38.7153 217.515L38.6366 208.038L36.6367 208.055ZM37.707 216.524L15.3441 216.709L15.3607 218.709L37.7236 218.524L37.707 216.524ZM15.3441 216.709C12.8508 216.73 10.7416 216.153 8.97438 215.016L7.89248 216.698C10.0326 218.075 12.536 218.733 15.3607 218.709L15.3441 216.709ZM8.97318 215.016C7.20059 213.879 5.81131 212.279 4.8092 210.18L3.00438 211.042C4.15336 213.448 5.78184 215.345 7.89368 216.699L8.97318 215.016ZM4.81097 210.184C3.8198 208.085 3.29712 205.613 3.2733 202.741L1.27336 202.757C1.29912 205.862 1.86542 208.631 3.00261 211.038L4.81097 210.184ZM3.2733 202.741C3.24927 199.845 3.73118 197.353 4.68699 195.239L2.8647 194.415C1.76718 196.842 1.24743 199.631 1.27336 202.757L3.2733 202.741ZM4.68527 195.243C5.65243 193.128 7.01496 191.505 8.76845 190.339L7.66116 188.673C5.57208 190.062 3.9753 191.986 2.86641 194.411L4.68527 195.243ZM8.76277 190.343C10.5119 189.197 12.6139 188.594 15.1107 188.574L15.0941 186.574C12.2729 186.597 9.78318 187.283 7.66684 188.67L8.76277 190.343ZM15.1107 188.574L37.4736 188.388L37.457 186.388L15.0941 186.574L15.1107 188.574ZM36.4653 187.397L36.5439 196.874L38.5439 196.857L38.4653 187.38L36.4653 187.397ZM37.5356 195.865L15.9909 196.044L16.0075 198.044L37.5522 197.865L37.5356 195.865ZM15.9909 196.044C14.7587 196.054 13.6238 196.338 12.6117 196.915L13.6033 198.652C14.2878 198.262 15.0807 198.052 16.0075 198.044L15.9909 196.044ZM12.6067 196.918C11.6135 197.493 10.831 198.289 10.273 199.291L12.0205 200.264C12.4029 199.577 12.9277 199.043 13.6083 198.649L12.6067 196.918ZM10.2702 199.296C9.70921 200.318 9.44468 201.457 9.4549 202.689L11.4548 202.673C11.4471 201.746 11.6438 200.95 12.0232 200.259L10.2702 199.296ZM9.4549 202.689C9.4652 203.931 9.74769 205.068 10.3292 206.074L12.0604 205.072C11.6734 204.403 11.4626 203.613 11.4548 202.673L9.4549 202.689ZM10.3292 206.074C10.9039 207.067 11.6994 207.849 12.702 208.407L13.6748 206.66C12.9877 206.277 12.4542 205.753 12.0604 205.072L10.3292 206.074ZM12.7071 208.41C13.7286 208.971 14.8681 209.236 16.1003 209.225L16.0837 207.225C15.1568 207.233 14.3606 207.036 13.6698 206.657L12.7071 208.41ZM16.1003 209.225L37.645 209.047L37.6284 207.047L16.0837 207.225L16.1003 209.225ZM27.0001 240.936L26.9121 239.94L25.9925 240.021L26.0001 240.944L27.0001 240.936ZM29.6485 239.635L28.8806 238.995L28.8759 239L29.6485 239.635ZM30.1967 233.801L29.2618 234.156L29.2655 234.165L30.1967 233.801ZM29.2479 232.445L29.8375 231.638L29.8375 231.638L29.2479 232.445ZM27.8805 231.996L27.8348 232.995L27.8507 232.996L27.8666 232.996L27.8805 231.996ZM26.7403 232.227L26.2857 231.337L26.2677 231.346L26.25 231.356L26.7403 232.227ZM25.844 233.087L25.0223 232.517L25.0166 232.525L25.0111 232.534L25.844 233.087ZM24.5787 236.728L25.5583 236.93L25.5599 236.922L24.5787 236.728ZM23.9889 239.597L23.0094 239.396L23.0089 239.398L23.9889 239.597ZM20.0695 247.965L19.3701 247.25L19.3656 247.255L20.0695 247.965ZM17.0515 249.916L16.702 248.979L16.6937 248.983L17.0515 249.916ZM13.3752 250.595L13.3785 251.595L13.392 251.594L13.3752 250.595ZM7.53157 248.921L6.95711 249.74L7.53157 248.921ZM3.86057 244.077L4.78838 243.704L4.7877 243.702L3.86057 244.077ZM3.83401 228.548L2.90217 228.185L2.90154 228.187L3.83401 228.548ZM7.93236 223.264L7.37425 222.434L7.36845 222.438L7.93236 223.264ZM15.1097 221.329L16.1097 221.321L16.1014 220.317L15.0976 220.329L15.1097 221.329ZM15.1844 230.329L15.2458 231.327L16.1922 231.269L16.1844 230.321L15.1844 230.329ZM12.498 231.152L11.9424 230.321L11.9424 230.321L12.498 231.152ZM10.8613 233.177L9.94075 232.787L9.93892 232.791L10.8613 233.177ZM10.7208 238.838L9.78477 239.19L10.7208 238.838ZM11.7734 240.38L11.1576 241.168L11.7734 240.38ZM13.2949 240.913L13.2832 241.913L13.3038 241.913L13.3244 241.913L13.2949 240.913ZM14.6882 240.373L14.0544 239.6L14.0426 239.609L14.0311 239.619L14.6882 240.373ZM15.7655 238.728L14.8444 238.338L14.8396 238.35L15.7655 238.728ZM16.6603 235.635L17.6388 235.841L17.6395 235.838L16.6603 235.635ZM17.3814 232.152L16.4024 231.948L16.4022 231.949L17.3814 232.152ZM20.6786 224.812L19.9265 224.152L19.922 224.158L20.6786 224.812ZM27.1167 222.116L27.1208 223.116L27.1301 223.116L27.1167 222.116ZM32.9437 223.84L33.5218 223.024L33.5208 223.024L32.9437 223.84ZM36.8884 228.802L37.8017 228.395L37.8009 228.393L36.8884 228.802ZM36.993 243.461L36.0806 243.052L36.993 243.461ZM33.0439 248.25L32.4926 247.415L32.4862 247.419L33.0439 248.25ZM27.0753 250.004L26.0754 250.012L26.0837 251.017L27.0886 251.004L27.0753 250.004ZM27.0881 241.932C28.4478 241.812 29.5948 241.276 30.4211 240.27L28.8759 239C28.4421 239.528 27.8235 239.859 26.9121 239.94L27.0881 241.932ZM30.4163 240.276C31.2631 239.261 31.5882 237.838 31.5745 236.193L29.5746 236.21C29.5864 237.633 29.2941 238.499 28.8806 238.995L30.4163 240.276ZM31.5745 236.193C31.5658 235.145 31.4316 234.213 31.1279 233.437L29.2655 234.165C29.4494 234.635 29.5671 235.303 29.5746 236.21L31.5745 236.193ZM31.1315 233.446C30.852 232.71 30.4371 232.075 29.8375 231.638L28.6583 233.253C28.8591 233.399 29.0766 233.669 29.2619 234.156L31.1315 233.446ZM29.8375 231.638C29.2643 231.219 28.6059 231.006 27.8944 230.996L27.8666 232.996C28.178 233.001 28.4311 233.087 28.6583 233.253L29.8375 231.638ZM27.9262 230.997C27.3508 230.971 26.7955 231.076 26.2857 231.337L27.1949 233.118C27.3641 233.032 27.5689 232.983 27.8348 232.995L27.9262 230.997ZM26.25 231.356C25.7607 231.631 25.3565 232.035 25.0223 232.517L26.6657 233.657C26.8706 233.362 27.0639 233.193 27.2307 233.099L26.25 231.356ZM25.0111 232.534C24.6932 233.012 24.4254 233.59 24.1963 234.246L26.0845 234.906C26.2773 234.354 26.4786 233.939 26.6769 233.641L25.0111 232.534ZM24.1963 234.246C23.9658 234.907 23.7675 235.672 23.5976 236.535L25.5599 236.922C25.7171 236.123 25.8932 235.453 26.0845 234.906L24.1963 234.246ZM23.5992 236.527L23.0094 239.396L24.9684 239.798L25.5582 236.93L23.5992 236.527ZM23.0089 239.398C22.6277 241.275 22.1236 242.851 21.5083 244.14L23.3132 245.001C24.0159 243.529 24.564 241.789 24.9689 239.796L23.0089 239.398ZM21.5083 244.14C20.8894 245.436 20.1724 246.465 19.3701 247.25L20.7689 248.68C21.7702 247.7 22.6141 246.466 23.3132 245.001L21.5083 244.14ZM19.3656 247.255C18.571 248.042 17.6844 248.613 16.702 248.979L17.401 250.853C18.6617 250.383 19.7871 249.653 20.7734 248.675L19.3656 247.255ZM16.6937 248.983C15.6922 249.366 14.5836 249.574 13.3584 249.595L13.392 251.594C14.8257 251.57 16.1679 251.326 17.4094 250.85L16.6937 248.983ZM13.3719 249.595C11.2461 249.602 9.50914 249.088 8.10604 248.103L6.95711 249.74C8.75457 251.001 10.9134 251.603 13.3785 251.595L13.3719 249.595ZM8.10604 248.103C6.68842 247.108 5.57515 245.66 4.78838 243.704L2.93276 244.45C3.8401 246.706 5.17416 248.489 6.95711 249.74L8.10604 248.103ZM4.7877 243.702C3.99985 241.753 3.57711 239.359 3.55333 236.494L1.5534 236.51C1.57865 239.554 2.02738 242.21 2.93345 244.451L4.7877 243.702ZM3.55333 236.494C3.52896 233.556 3.94293 231.035 4.76648 228.909L2.90154 228.187C1.96722 230.598 1.52743 233.38 1.5534 236.51L3.55333 236.494ZM4.76585 228.911C5.57783 226.826 6.82296 225.232 8.49627 224.09L7.36845 222.438C5.33535 223.826 3.84826 225.756 2.90217 228.185L4.76585 228.911ZM8.49046 224.094C10.1517 222.976 12.3388 222.363 15.1219 222.329L15.0976 220.329C12.0402 220.367 9.44238 221.043 7.37426 222.434L8.49046 224.094ZM14.1098 221.337L14.1844 230.337L16.1844 230.321L16.1097 221.321L14.1098 221.337ZM15.123 229.331C13.9191 229.405 12.8431 229.719 11.9424 230.321L13.0535 231.984C13.5994 231.619 14.3144 231.384 15.2458 231.327L15.123 229.331ZM11.9424 230.321C11.0437 230.921 10.3782 231.756 9.94076 232.787L11.7818 233.568C12.0801 232.865 12.5056 232.35 13.0535 231.984L11.9424 230.321ZM9.93892 232.791C9.50698 233.822 9.3139 235.004 9.32473 236.31L11.3247 236.293C11.3155 235.189 11.4802 234.288 11.7837 233.564L9.93892 232.791ZM9.32473 236.31C9.33374 237.396 9.47503 238.366 9.78477 239.19L11.6567 238.486C11.4552 237.95 11.3324 237.229 11.3247 236.293L9.32473 236.31ZM9.78477 239.19C10.0871 239.994 10.5312 240.679 11.1576 241.168L12.3891 239.592C12.1234 239.385 11.8657 239.041 11.6567 238.486L9.78477 239.19ZM11.1576 241.168C11.7771 241.652 12.4967 241.904 13.2832 241.913L13.3066 239.913C12.9565 239.909 12.6618 239.805 12.3891 239.592L11.1576 241.168ZM13.3244 241.913C14.0847 241.89 14.7722 241.626 15.3452 241.127L14.0311 239.619C13.8144 239.808 13.573 239.904 13.2653 239.914L13.3244 241.913ZM15.3219 241.147C15.9102 240.665 16.349 239.944 16.6913 239.106L14.8396 238.35C14.5582 239.039 14.2788 239.416 14.0544 239.6L15.3219 241.147ZM16.6865 239.117C17.045 238.27 17.3591 237.169 17.6388 235.841L15.6818 235.429C15.4148 236.696 15.1324 237.658 14.8445 238.338L16.6865 239.117ZM17.6395 235.838L18.3607 232.354L16.4022 231.949L15.6811 235.432L17.6395 235.838ZM18.3604 232.355C18.9816 229.372 20.0239 227.098 21.4351 225.465L19.922 224.158C18.2267 226.119 17.0708 228.738 16.4024 231.948L18.3604 232.355ZM21.4307 225.471C22.7775 223.933 24.633 223.126 27.1208 223.116L27.1125 221.116C24.1458 221.128 21.7092 222.118 19.9265 224.152L21.4307 225.471ZM27.1301 223.116C29.1534 223.089 30.8849 223.61 32.3666 224.657L33.5208 223.024C31.6646 221.712 29.5114 221.084 27.1033 221.116L27.1301 223.116ZM32.3656 224.656C33.8824 225.731 35.0902 227.236 35.9759 229.211L37.8009 228.393C36.7878 226.134 35.3658 224.331 33.5218 223.024L32.3656 224.656ZM35.9751 229.21C36.8592 231.191 37.3251 233.496 37.3471 236.145L39.347 236.129C39.3231 233.255 38.8166 230.67 37.8017 228.395L35.9751 229.21ZM37.3471 236.145C37.3695 238.854 36.9352 241.146 36.0806 243.052L37.9054 243.87C38.9029 241.646 39.3713 239.056 39.347 236.129L37.3471 236.145ZM36.0806 243.052C35.2236 244.962 34.0244 246.403 32.4926 247.415L33.5953 249.084C35.4766 247.84 36.9102 246.089 37.9054 243.87L36.0806 243.052ZM32.4862 247.419C30.9708 248.438 29.1756 248.976 27.062 249.004L27.0886 251.004C29.5429 250.971 31.7267 250.339 33.6017 249.08L32.4862 247.419ZM28.0753 249.995L28 240.927L26.0001 240.944L26.0754 250.012L28.0753 249.995Z" fill="#05C2DF" mask="url(#path-1-outside-1_1_5916)"/>
</svg>
