<svg xmlns="http://www.w3.org/2000/svg" width="115" height="85" fill="none" stroke="#05c2df" stroke-width="1.007" xmlns:v="https://vecta.io/nano"><path d="M50.405 18.644a22.58 22.58 0 0 1 4.32 13.336c0 12.542-10.203 22.745-22.745 22.745S9.235 44.522 9.235 31.98 19.438 9.235 31.98 9.235a22.58 22.58 0 0 1 13.318 4.307" stroke-linejoin="round"/><path d="M31.981 41.091c-5.023 0-9.11-4.087-9.11-9.11s4.087-9.11 9.11-9.11 9.11 4.087 9.11 9.11-4.087 9.11-9.11 9.11zM112.762 1a17.26 17.26 0 0 0-17.237 17.236v8.981c-2.273.674-4.364 1.893-6.108 3.591M49.48 57.532a31.19 31.19 0 0 0 10.453-12.198M94.297 54a23.65 23.65 0 0 0-5.672-3.838l-.345-.167m-2.761-12.682a14.8 14.8 0 0 0-.584 4.109v6.959l-1.767-.853c-6.806-3.285-14.323-5.164-21.88-5.497a30.85 30.85 0 0 0 1.675-10.051c0-17.083-13.898-30.981-30.98-30.981S1 14.899 1 31.982s13.898 30.98 30.981 30.98a30.79 30.79 0 0 0 14.485-3.602c1.611 1.396 28.217 24.271 42.133 24.271a14.05 14.05 0 0 0 .506-.01C103.031 83.04 113.559 71.62 114 71.135"/></svg>