<svg xmlns="http://www.w3.org/2000/svg" xmlns:xlink="http://www.w3.org/1999/xlink" width="83" height="83" fill="none" xmlns:v="https://vecta.io/nano"><g clip-path="url(#A)" stroke="#05c2df"><use xlink:href="#B"/><path d="M.5 67.783a5.04 5.04 0 0 1 5.033-5.033 5.04 5.04 0 0 1 5.033 5.033 5.04 5.04 0 0 1-5.033 5.033A5.04 5.04 0 0 1 .5 67.783zm73.478-49.739l-10.826-5.413m-5.935 64.836a5.04 5.04 0 0 1 5.033-5.033 5.04 5.04 0 0 1 5.033 5.033A5.04 5.04 0 0 1 62.25 82.5a5.04 5.04 0 0 1-5.033-5.033z"/><path d="M58.486 73.605l-10.13-5.401M36.467 42.883A5.04 5.04 0 0 1 41.5 37.85a5.04 5.04 0 0 1 5.033 5.033 5.04 5.04 0 0 1-5.033 5.033 5.04 5.04 0 0 1-5.033-5.033z"/><path d="M38.252 38.613l-7.939-6.135m21.37 18.706c0-8.114 6.603-14.717 14.717-14.717s14.717 6.603 14.717 14.717S74.514 65.9 66.4 65.9s-14.717-6.603-14.717-14.717z"/><path d="M61.367 47.033A5.04 5.04 0 0 1 66.4 42a5.04 5.04 0 0 1 5.033 5.033 5.04 5.04 0 0 1-5.033 5.033 5.04 5.04 0 0 1-5.033-5.033zm12.392 16.883l.001-.001a.88.88 0 0 0 .44-.763v-3.646c0-2.012-1.686-3.672-3.787-3.672h-8.026c-2.101 0-3.787 1.661-3.787 3.671v3.646c0 .316.168.607.441.765H73.76zm0 0C71.516 65.214 68.971 65.9 66.4 65.9s-5.116-.686-7.359-1.984h14.718zm-55.275 3.867c0-8.114 6.603-14.717 14.717-14.717s14.717 6.603 14.717 14.717A14.74 14.74 0 0 1 33.2 82.5c-8.114 0-14.717-6.603-14.717-14.717z"/><path d="M28.167 63.633A5.04 5.04 0 0 1 33.2 58.6a5.04 5.04 0 0 1 5.033 5.033 5.04 5.04 0 0 1-5.033 5.033 5.04 5.04 0 0 1-5.033-5.033zM40.56 80.516h-.001A14.71 14.71 0 0 1 33.2 82.5c-2.572 0-5.116-.686-7.359-1.984-.273-.158-.441-.45-.441-.765v-3.647c0-2.01 1.686-3.671 3.787-3.671h8.026c2.101 0 3.787 1.66 3.787 3.672v3.647a.88.88 0 0 1-.44.763zM.5 33.2c0-8.114 6.603-14.717 14.717-14.717S29.933 25.086 29.933 33.2 23.33 47.917 15.216 47.917.5 41.314.5 33.2z"/><path d="M10.184 29.05a5.04 5.04 0 0 1 5.033-5.033 5.04 5.04 0 0 1 5.033 5.033 5.04 5.04 0 0 1-5.033 5.033 5.04 5.04 0 0 1-5.033-5.033zm12.393 16.882h-.001c-2.243 1.298-4.788 1.984-7.359 1.984s-5.116-.686-7.359-1.984c-.273-.158-.441-.45-.441-.765V41.52c0-2.01 1.686-3.671 3.787-3.671h8.026c2.101 0 3.787 1.661 3.787 3.672v3.647a.88.88 0 0 1-.44.763zM33.7 15.217C33.7 7.103 40.303.5 48.417.5s14.717 6.603 14.717 14.717-6.603 14.717-14.717 14.717S33.7 23.331 33.7 15.217z"/><path d="M43.383 11.067a5.04 5.04 0 0 1 5.033-5.033 5.04 5.04 0 0 1 5.033 5.033 5.04 5.04 0 0 1-5.033 5.033 5.04 5.04 0 0 1-5.033-5.033zm12.394 16.882h-.001c-2.243 1.298-4.788 1.984-7.359 1.984s-5.116-.686-7.359-1.984c-.273-.158-.441-.45-.441-.765v-3.646c0-2.01 1.686-3.671 3.787-3.671h8.026c2.101 0 3.787 1.66 3.787 3.672v3.646a.88.88 0 0 1-.44.763zM33.404 14.435l-8.865 7.217m41.139 14.435l-7.217-9.743m-6.347 29.952l-5.562 4.33m-28.208 6.856h-7.518M20.25 5.533h0a5.04 5.04 0 0 1-5.033 5.033 5.04 5.04 0 0 1-5.033-5.033A5.04 5.04 0 0 1 15.217.5a5.04 5.04 0 0 1 5.033 5.033z"/><path d="M14.074 10.826v7.217"/></g><defs><clipPath id="A"><path fill="#fff" d="M0 0h83v83H0z"/></clipPath><path id="B" d="M72.434 22.133a5.04 5.04 0 0 1 5.033-5.033 5.04 5.04 0 0 1 5.033 5.033 5.04 5.04 0 0 1-5.033 5.033 5.04 5.04 0 0 1-5.033-5.033z"/></defs></svg>