<svg width="110" height="82" viewBox="0 0 110 82" fill="none" xmlns="http://www.w3.org/2000/svg">
<path d="M48.2043 18.1759C50.899 21.9706 52.3235 26.46 52.3235 31.1581C52.3235 43.3667 42.5938 53.2991 30.6344 53.2991C18.675 53.2991 8.94531 43.3667 8.94531 31.1581C8.94531 18.9495 18.675 9.01709 30.6344 9.01709C35.2291 9.01709 39.6205 10.4667 43.3339 13.2093" stroke="#05C2DF" stroke-width="1.00668" stroke-linejoin="round"/>
<path d="M30.6351 40.0134C25.8681 40.0134 21.9711 36.0503 21.9711 31.1582C21.9711 26.266 25.8679 22.3031 30.6351 22.3031C35.4024 22.3031 39.2992 26.266 39.2992 31.1582C39.2992 36.0503 35.4022 40.0134 30.6351 40.0134Z" stroke="#05C2DF" stroke-width="1.00668"/>
<path d="M107.667 1C98.6043 1 91.2311 8.52701 91.2311 17.7787V26.5216C89.0637 27.1779 87.0692 28.3646 85.4062 30.0168" stroke="#05C2DF" stroke-width="1.00668"/>
<path d="M47.3221 56.0307C51.5806 53.0439 55.0377 48.9496 57.2896 44.1564M90.0588 52.5927C88.4416 51.0853 86.6219 49.8285 84.6497 48.8569L84.3205 48.6947M81.6877 36.3498C81.3179 37.657 81.1303 39.0025 81.1303 40.3494V47.1233L79.445 46.293C72.9545 43.0956 65.7865 41.2658 58.5807 40.9423C59.6148 37.8728 60.1775 34.5817 60.1775 31.1585C60.1775 14.5293 46.9248 1.00049 30.6353 1.00049C14.3457 1.00049 1.09277 14.5293 1.09277 31.1585C1.09277 47.7876 14.3455 61.3164 30.6353 61.3164C35.6222 61.3164 40.3235 60.0466 44.4482 57.8099C45.9839 59.169 71.3555 81.4365 84.6259 81.4365C84.7882 81.4365 84.9498 81.4331 85.1085 81.4263C98.3878 80.8605 108.427 69.7445 108.848 69.2716" stroke="#05C2DF" stroke-width="1.00668"/>
</svg>
