<svg width="50" height="34" viewBox="0 0 50 34" fill="none" xmlns="http://www.w3.org/2000/svg">
<path d="M20 17L26 32L31.5 17" stroke="#05C2DF"/>
<path d="M34 33V25.5M38.5 25.5C46 25.5 44.5 17.5 39.5 17.5H34V25.5M38.5 25.5H34M38.5 25.5L44.5 33" stroke="#05C2DF"/>
<path d="M33 5V0H49.5V5H43.5V11.5L38.5 16V5H33Z" fill="white"/>
<path d="M5 0H0V16L16.5 0H10L5 5V0Z" fill="white"/>
<path d="M9.5 9L6.5 12L10.5 16H16.5L9.5 9Z" fill="white"/>
<path d="M18 16V0H25L34.5 10V16L24 5H22.5V8H25L28.5 11.5H22.5L18 16Z" fill="white"/>
</svg>
