<svg width="245" height="77" viewBox="0 0 245 77" fill="none" xmlns="http://www.w3.org/2000/svg">
<g filter="url(#filter0_d_3_3)">
<path opacity="0.45" d="M55.0001 6.99994C50.1192 3.58867 44.9136 2.35201 39.0001 1.99997C33.0866 1.64794 27.5606 3.00316 22.3212 5.81197C17.0818 8.62078 12.6983 12.8327 9.6452 17.9917C6.59211 23.1506 4.98582 29.0601 5.00022 35.0803C5.01462 41.1004 6.64917 47.0019 9.72691 52.1457C12.8046 57.2895 17.2083 61.4797 22.4611 64.2626C27.7138 67.0455 33.6156 68.315 39.5273 67.9338C45.4391 67.5525 51.1356 65.4353 56.0001 61.9999" stroke="#05C2DF" stroke-width="2" stroke-miterlimit="1.51696"/>
<path d="M38.0307 61.1554C52.6178 61.1554 64.4431 49.3648 64.4431 34.8204C64.4431 20.2759 52.6178 8.48529 38.0307 8.48529C23.4435 8.48529 11.6183 20.2759 11.6183 34.8204C11.6183 49.3648 23.4435 61.1554 38.0307 61.1554Z" stroke="#05C2DF" stroke-miterlimit="10"/>
<path opacity="0.45" d="M90.0001 12.0001H60.0001V14.0001H90.0001V12.0001Z" fill="#05C2DF"/>
<path opacity="0.45" d="M90.0001 56.0001H60.0001V58.0001H90.0001V56.0001Z" fill="#05C2DF"/>
<path d="M49 35L31.75 45.3923L31.75 24.6077L49 35Z" fill="white"/>
<path opacity="0.45" d="M86.2245 12H84.2653V14H86.2245V12Z" fill="#05C2DF"/>
<path opacity="0.45" d="M83.2857 12H81.3265V14H83.2857V12Z" fill="#05C2DF"/>
<path opacity="0.45" d="M89.1633 12H87.2041V14H89.1633V12Z" fill="#05C2DF"/>
<path opacity="0.45" d="M92.102 12H90.1428V14H92.102V12Z" fill="#05C2DF"/>
<path opacity="0.45" d="M95.0409 12H93.0817V14H95.0409V12Z" fill="#05C2DF"/>
<path opacity="0.45" d="M98.9592 12H97V14H98.9592V12Z" fill="#05C2DF"/>
<path opacity="0.45" d="M102.878 12H100.918V14H102.878V12Z" fill="#05C2DF"/>
<path opacity="0.45" d="M106.796 12H104.837V14H106.796V12Z" fill="#05C2DF"/>
<path opacity="0.45" d="M111.694 12H109.735V14H111.694V12Z" fill="#05C2DF"/>
<path opacity="0.45" d="M116.592 12H114.633V14H116.592V12Z" fill="#05C2DF"/>
<path opacity="0.45" d="M121.49 12H119.531V14H121.49V12Z" fill="#05C2DF"/>
<path opacity="0.45" d="M126.388 12H124.429V14H126.388V12Z" fill="#05C2DF"/>
<path opacity="0.45" d="M131.286 12H129.327V14H131.286V12Z" fill="#05C2DF"/>
<path opacity="0.45" d="M136.184 12H134.224V14H136.184V12Z" fill="#05C2DF"/>
<path opacity="0.45" d="M147.547 12.23H145.98V13.83H147.547V12.23Z" fill="#05C2DF"/>
<path opacity="0.45" d="M153.424 12.23H151.857V13.83H153.424V12.23Z" fill="#05C2DF"/>
<path opacity="0.45" d="M159.302 12.23H157.735V13.83H159.302V12.23Z" fill="#05C2DF"/>
<path opacity="0.45" d="M164.886 12.4301H163.612V13.73H164.886V12.4301Z" fill="#05C2DF"/>
<path opacity="0.45" d="M171.743 12.4301H170.469V13.73H171.743V12.4301Z" fill="#05C2DF"/>
<path opacity="0.45" d="M178.6 12.4301H177.327V13.73H178.6V12.4301Z" fill="#05C2DF"/>
<path opacity="0.45" d="M185.457 12.4301H184.184V13.73H185.457V12.4301Z" fill="#05C2DF"/>
<path opacity="0.45" d="M193.294 12.4301H192.02V13.73H193.294V12.4301Z" fill="#05C2DF"/>
<path opacity="0.45" d="M202.11 12.4301H200.837V13.73H202.11V12.4301Z" fill="#05C2DF"/>
<path opacity="0.45" d="M141.669 12.23H140.102V13.83H141.669V12.23Z" fill="#05C2DF"/>
<path opacity="0.45" d="M240.02 12.5H239.041V13.5H240.02V12.5Z" fill="#05C2DF"/>
<path opacity="0.45" d="M226.306 12.5H225.327V13.5H226.306V12.5Z" fill="#05C2DF"/>
<path opacity="0.45" d="M213.571 12.5H212.592V13.5H213.571V12.5Z" fill="#05C2DF"/>
<path opacity="0.45" d="M86.2245 56H84.2653V58H86.2245V56Z" fill="#05C2DF"/>
<path opacity="0.45" d="M83.2857 56H81.3265V58H83.2857V56Z" fill="#05C2DF"/>
<path opacity="0.45" d="M89.1633 56H87.2041V58H89.1633V56Z" fill="#05C2DF"/>
<path opacity="0.45" d="M92.102 56H90.1428V58H92.102V56Z" fill="#05C2DF"/>
<path opacity="0.45" d="M95.0409 56H93.0817V58H95.0409V56Z" fill="#05C2DF"/>
<path opacity="0.45" d="M98.9592 56H97V58H98.9592V56Z" fill="#05C2DF"/>
<path opacity="0.45" d="M102.878 56H100.918V58H102.878V56Z" fill="#05C2DF"/>
<path opacity="0.45" d="M106.796 56H104.837V58H106.796V56Z" fill="#05C2DF"/>
<path opacity="0.45" d="M111.694 56H109.735V58H111.694V56Z" fill="#05C2DF"/>
<path opacity="0.45" d="M116.592 56H114.633V58H116.592V56Z" fill="#05C2DF"/>
<path opacity="0.45" d="M121.49 56H119.531V58H121.49V56Z" fill="#05C2DF"/>
<path opacity="0.45" d="M126.388 56H124.429V58H126.388V56Z" fill="#05C2DF"/>
<path opacity="0.45" d="M131.286 56H129.327V58H131.286V56Z" fill="#05C2DF"/>
<path opacity="0.45" d="M136.184 56H134.224V58H136.184V56Z" fill="#05C2DF"/>
<path opacity="0.45" d="M147.547 56.23H145.98V57.83H147.547V56.23Z" fill="#05C2DF"/>
<path opacity="0.45" d="M153.424 56.23H151.857V57.83H153.424V56.23Z" fill="#05C2DF"/>
<path opacity="0.45" d="M159.302 56.23H157.735V57.83H159.302V56.23Z" fill="#05C2DF"/>
<path opacity="0.45" d="M164.886 56.4301H163.612V57.73H164.886V56.4301Z" fill="#05C2DF"/>
<path opacity="0.45" d="M171.743 56.4301H170.469V57.73H171.743V56.4301Z" fill="#05C2DF"/>
<path opacity="0.45" d="M178.6 56.4301H177.327V57.73H178.6V56.4301Z" fill="#05C2DF"/>
<path opacity="0.45" d="M185.457 56.4301H184.184V57.73H185.457V56.4301Z" fill="#05C2DF"/>
<path opacity="0.45" d="M193.294 56.4301H192.02V57.73H193.294V56.4301Z" fill="#05C2DF"/>
<path opacity="0.45" d="M202.11 56.4301H200.837V57.73H202.11V56.4301Z" fill="#05C2DF"/>
<path opacity="0.45" d="M141.669 56.23H140.102V57.83H141.669V56.23Z" fill="#05C2DF"/>
<path opacity="0.45" d="M240.02 56.5H239.041V57.5H240.02V56.5Z" fill="#05C2DF"/>
<path opacity="0.45" d="M226.306 56.5H225.327V57.5H226.306V56.5Z" fill="#05C2DF"/>
<path opacity="0.45" d="M213.571 56.5H212.592V57.5H213.571V56.5Z" fill="#05C2DF"/>
</g>
<defs>
<filter id="filter0_d_3_3" x="0.00012207" y="0.945251" width="244.02" height="76.0548" filterUnits="userSpaceOnUse" color-interpolation-filters="sRGB">
<feFlood flood-opacity="0" result="BackgroundImageFix"/>
<feColorMatrix in="SourceAlpha" type="matrix" values="0 0 0 0 0 0 0 0 0 0 0 0 0 0 0 0 0 0 127 0" result="hardAlpha"/>
<feOffset dy="4"/>
<feGaussianBlur stdDeviation="2"/>
<feComposite in2="hardAlpha" operator="out"/>
<feColorMatrix type="matrix" values="0 0 0 0 0 0 0 0 0 0 0 0 0 0 0 0 0 0 0.25 0"/>
<feBlend mode="normal" in2="BackgroundImageFix" result="effect1_dropShadow_3_3"/>
<feBlend mode="normal" in="SourceGraphic" in2="effect1_dropShadow_3_3" result="shape"/>
</filter>
</defs>
</svg>
