<svg width="111" height="82" viewBox="0 0 111 82" fill="none" xmlns="http://www.w3.org/2000/svg">
<path d="M68.7897 41.1562C68.7897 48.6715 62.8244 54.7461 55.4874 54.7461C48.1504 54.7461 42.1851 48.6715 42.1851 41.1562C42.1851 33.641 48.1504 27.5664 55.4874 27.5664C62.8244 27.5664 68.7897 33.641 68.7897 41.1562Z" stroke="#05C2DF"/>
<path d="M69.6348 26.7505C74.209 29.8395 77.226 35.1381 77.226 41.156C77.226 47.1739 74.209 52.4725 69.6348 55.5615" stroke="#05C2DF"/>
<path d="M69.8076 55.4219L76.0187 63.5234" stroke="#05C2DF"/>
<path d="M75.8457 63.6997C83.1228 58.8279 87.9226 50.4712 87.9226 40.98C87.9226 31.4888 83.1228 23.1321 75.8457 18.2603L69.6348 26.8902" stroke="#05C2DF"/>
<path d="M82.7471 9.80615C92.5193 16.4153 98.9648 27.752 98.9648 40.6277C98.9648 53.5034 92.5193 64.8401 82.7471 71.4492" stroke="#05C2DF"/>
<path d="M82.7467 9.98225L88.9577 1C101.641 9.53522 110.006 24.1757 110.006 40.8037C110.006 57.4318 101.641 72.0722 88.9577 80.6074L82.5742 71.449" stroke="#05C2DF"/>
<path d="M41.3398 26.7505C36.7655 29.8395 33.7484 35.1381 33.7484 41.156C33.7484 47.1739 36.7655 52.4725 41.3398 55.5615" stroke="#05C2DF"/>
<path d="M41.168 55.4219L34.9569 63.5234" stroke="#05C2DF"/>
<path d="M35.1288 63.6997C27.8515 58.8279 23.0516 50.4712 23.0516 40.98C23.0516 31.4888 27.8515 23.1321 35.1288 18.2603L41.3398 26.8902" stroke="#05C2DF"/>
<path d="M28.2275 9.80615C18.4553 16.4153 12.0099 27.752 12.0099 40.6277C12.0099 53.5034 18.4553 64.8401 28.2275 71.4492" stroke="#05C2DF"/>
<path d="M28.2279 9.98225L22.0168 1C9.33377 9.53522 0.968384 24.1757 0.968384 40.8037C0.968384 57.4318 9.33377 72.0722 22.0168 80.6074L28.4004 71.449" stroke="#05C2DF"/>
</svg>
