<svg width="451" height="94" viewBox="0 0 451 94" fill="none" xmlns="http://www.w3.org/2000/svg">
<path d="M27.324 7.93H17.802V33H10.12V7.93H0.575V0.799998H27.324V7.93ZM38.4995 13.197H52.0465V0.799998H59.7285V33H52.0465V20.304H38.4995V33H30.8175V0.799998H38.4995V13.197ZM90.243 33H65.587V0.799998H90.151V7.723H73.269V13.289H89.162V20.189H73.269V26.077H90.243V33ZM135.576 33H128.193L113.519 13.358V33H105.837V0.799998H113.197L127.871 20.442V0.799998H135.576V33ZM166.071 33H141.415V0.799998H165.979V7.723H149.097V13.289H164.99V20.189H149.097V26.077H166.071V33ZM208.685 33H199.531L193.459 12.231L187.387 33H178.233L168.849 0.799998H176.784L182.925 23.869L189.365 0.799998H197.668L204.108 23.915L210.249 0.799998H218.069L208.685 33ZM253.936 9.931C250.838 8.12167 247.764 7.217 244.713 7.217C243.195 7.217 241.968 7.47 241.033 7.976C240.113 8.482 239.653 9.195 239.653 10.115C239.653 10.437 239.722 10.7283 239.86 10.989C239.998 11.2497 240.243 11.4873 240.596 11.702C240.964 11.9013 241.286 12.07 241.562 12.208C241.853 12.3307 242.328 12.4687 242.988 12.622C243.662 12.76 244.168 12.8597 244.506 12.921C244.843 12.9823 245.433 13.0897 246.277 13.243L247.611 13.473C250.861 14.0403 253.368 15.0907 255.132 16.624C256.91 18.1573 257.8 20.1967 257.8 22.742C257.8 24.2293 257.547 25.5863 257.041 26.813C256.55 28.0243 255.883 29.044 255.04 29.872C254.196 30.7 253.192 31.3977 252.027 31.965C250.877 32.5323 249.65 32.9463 248.347 33.207C247.059 33.4677 245.709 33.598 244.299 33.598C241.569 33.598 238.955 33.2453 236.456 32.54C233.972 31.8347 231.863 30.8227 230.131 29.504L233.972 23.248C237.299 25.502 240.764 26.629 244.368 26.629C245.87 26.629 247.097 26.376 248.048 25.87C248.998 25.3487 249.474 24.605 249.474 23.639C249.474 23.2557 249.382 22.9183 249.198 22.627C249.014 22.3357 248.768 22.0903 248.462 21.891C248.155 21.6917 247.71 21.5077 247.128 21.339C246.56 21.1703 245.985 21.0323 245.403 20.925C244.82 20.8023 244.053 20.6643 243.103 20.511L241.493 20.258C238.104 19.7213 235.559 18.6633 233.857 17.084C232.155 15.4893 231.334 13.2737 231.396 10.437C231.457 7.33966 232.684 4.86333 235.076 3.008C237.468 1.15267 240.565 0.224998 244.368 0.224998C246.698 0.224998 248.86 0.470332 250.854 0.961C252.862 1.45167 255.032 2.341 257.363 3.629L253.936 9.931ZM286.568 7.93H277.046V33H269.364V7.93H259.819V0.799998H286.568V7.93ZM317.837 33H309.649L307.211 26.238H294.423L291.985 33H283.958L296.309 0.799998H305.486L317.837 33ZM296.907 19.292H304.727L300.817 8.436L296.907 19.292ZM335.02 0.799998C338.96 0.799998 341.973 1.71233 344.059 3.537C346.159 5.36167 347.21 7.884 347.21 11.104C347.21 13.6647 346.428 15.796 344.864 17.498C343.3 19.1847 341.084 20.258 338.217 20.718L347.463 33H338.309L329.822 20.948H328.695V33H321.013V0.799998H335.02ZM328.695 7.769V14.485H334.928C336.354 14.485 337.45 14.2013 338.217 13.634C338.999 13.0667 339.39 12.2233 339.39 11.104C339.39 9.98467 338.999 9.149 338.217 8.597C337.435 8.045 336.338 7.769 334.928 7.769H328.695ZM376.232 7.93H366.71V33H359.028V7.93H349.483V0.799998H376.232V7.93ZM398.305 1.467C400.421 0.623664 402.705 0.201997 405.159 0.201997C407.612 0.201997 409.889 0.623664 411.99 1.467C414.106 2.31033 415.9 3.468 417.372 4.94C418.859 6.39667 420.024 8.16 420.868 10.23C421.711 12.3 422.133 14.5233 422.133 16.9C422.133 19.2767 421.711 21.5 420.868 23.57C420.024 25.64 418.859 27.411 417.372 28.883C415.9 30.3397 414.106 31.4897 411.99 32.333C409.889 33.1763 407.612 33.598 405.159 33.598C402.705 33.598 400.421 33.1763 398.305 32.333C396.204 31.4897 394.41 30.3397 392.923 28.883C391.451 27.411 390.293 25.64 389.45 23.57C388.606 21.5 388.185 19.2767 388.185 16.9C388.185 14.5233 388.606 12.3 389.45 10.23C390.293 8.16 391.451 6.39667 392.923 4.94C394.41 3.468 396.204 2.31033 398.305 1.467ZM411.599 10.161C409.927 8.42833 407.781 7.562 405.159 7.562C402.537 7.562 400.382 8.42833 398.696 10.161C397.024 11.8937 396.189 14.14 396.189 16.9C396.189 19.66 397.024 21.9063 398.696 23.639C400.382 25.3717 402.537 26.238 405.159 26.238C407.781 26.238 409.927 25.3717 411.599 23.639C413.285 21.9063 414.129 19.66 414.129 16.9C414.129 14.14 413.285 11.8937 411.599 10.161ZM449.854 20.695H434.306V33H426.624V0.799998H450.958V7.723H434.306V13.749H449.854V20.695Z" fill="white"/>
<path d="M10.948 60.524H2.3L17.71 93L21.896 84.214L22.034 83.938L14.812 68.666L10.948 60.524ZM24.472 60.57L19.274 71.564L19.136 71.84L23.46 80.994L24.288 79.292L33.166 60.57H24.472ZM57.8464 81.132C57.9844 81.132 58.1224 81.132 58.2604 81.132H58.3524C60.8824 81.086 63.2744 80.074 65.0684 78.28C66.8164 76.532 67.8284 74.186 67.9204 71.656C67.9664 71.334 67.9664 71.012 67.9664 70.69C67.9664 69.954 67.8744 69.218 67.6904 68.528C67.2764 66.872 66.4484 65.354 65.2524 64.158C63.9644 62.87 62.3544 61.996 60.5604 61.628C59.9624 61.49 59.3644 61.444 58.7664 61.444H37.6524V72.99L45.4724 80.81V80.764L57.6164 92.862L57.8004 93.046H69.9444L57.8464 81.132ZM57.2944 73.358H49.7964L46.0704 69.632H59.7784C59.8244 69.77 59.8704 69.908 59.9164 70.046C59.9624 70.138 59.9624 70.23 59.9624 70.322C59.9624 70.368 59.9624 70.414 59.9624 70.46C59.9624 70.506 59.9624 70.552 59.9624 70.598C59.9624 71.012 59.8704 71.38 59.7324 71.748C59.6864 71.84 59.6404 71.932 59.5944 72.024C59.5944 72.07 59.5944 72.116 59.5484 72.162C59.5024 72.208 59.4564 72.254 59.4104 72.3C59.3644 72.346 59.3184 72.392 59.2724 72.438C58.9964 72.714 58.6744 72.944 58.3064 73.082C58.1684 73.128 58.0304 73.174 57.8924 73.22C57.7084 73.266 57.5244 73.266 57.3404 73.266L57.2944 73.358ZM37.7444 92.954H45.5644V84.26L37.7444 76.44V92.954ZM105.382 85.18H104.186V61.398H96.3664V93H113.202L105.566 85.364L105.382 85.18ZM108.97 85.18L116.79 93H118.354V85.18H108.97ZM149.962 65.998C146.972 63.008 143.016 61.352 138.784 61.352C135.242 61.352 131.884 62.502 129.078 64.664L128.526 65.124L134.092 70.69L134.506 70.414C135.748 69.632 137.22 69.218 138.738 69.218C140.854 69.218 142.832 70.046 144.35 71.564C145.868 73.082 146.696 75.06 146.696 77.176C146.696 78.694 146.282 80.166 145.5 81.408L145.224 81.822L150.79 87.388L151.25 86.836C153.412 84.03 154.562 80.672 154.562 77.13C154.562 72.898 152.906 68.942 149.916 65.952L149.962 65.998ZM142.97 83.846C141.728 84.628 140.256 85.042 138.738 85.042C136.622 85.042 134.644 84.214 133.126 82.696C131.608 81.178 130.78 79.2 130.78 77.084C130.78 75.566 131.194 74.094 131.976 72.852L132.252 72.438L126.686 66.872L126.226 67.424C124.064 70.23 122.914 73.588 122.914 77.13C122.914 81.362 124.57 85.318 127.56 88.308C130.55 91.298 134.506 92.954 138.738 92.954C142.28 92.954 145.638 91.804 148.444 89.642L148.996 89.182L143.43 83.616L142.97 83.846ZM168.091 73.082C168.505 72.3 169.011 71.564 169.655 70.92C171.219 69.356 173.289 68.482 175.497 68.482C177.705 68.482 179.775 69.356 181.339 70.92C182.121 71.702 182.719 72.576 183.133 73.588L183.317 73.956H191.597L191.413 73.174C190.631 69.632 188.653 66.412 185.801 64.112C182.903 61.766 179.269 60.478 175.543 60.478C170.207 60.478 165.193 63.1 162.157 67.47L161.835 67.884L167.769 73.818L168.091 73.082ZM183.087 79.844C182.673 80.856 182.075 81.73 181.293 82.512C180.649 83.156 179.913 83.662 179.131 84.076C178.901 84.214 178.671 84.306 178.395 84.398C177.613 84.674 176.785 84.858 175.957 84.904C175.589 84.904 175.175 84.904 174.807 84.858C172.875 84.72 171.035 83.892 169.655 82.512C168.275 81.132 167.447 79.292 167.309 77.36V77.13L160.501 70.322L160.179 71.288C159.581 73.036 159.259 74.876 159.259 76.716C159.259 81.04 160.961 85.134 164.043 88.216C167.125 91.298 171.219 93 175.543 93C177.751 93 179.867 92.586 181.891 91.758C182.259 91.62 182.627 91.436 182.995 91.252C185.065 90.194 186.951 88.63 188.377 86.79C189.849 84.904 190.907 82.696 191.413 80.396L191.597 79.614H183.317L183.087 79.844ZM223.05 65.998C220.06 63.008 216.104 61.352 211.872 61.352C208.33 61.352 204.972 62.502 202.166 64.664L201.614 65.124L207.18 70.69L207.594 70.414C208.836 69.632 210.308 69.218 211.826 69.218C213.942 69.218 215.92 70.046 217.438 71.564C218.956 73.082 219.784 75.06 219.784 77.176C219.784 78.694 219.37 80.166 218.588 81.408L218.312 81.822L223.878 87.388L224.338 86.836C226.5 84.03 227.65 80.672 227.65 77.13C227.65 72.898 225.994 68.942 223.004 65.952L223.05 65.998ZM216.058 83.846C214.816 84.628 213.344 85.042 211.826 85.042C209.71 85.042 207.732 84.214 206.214 82.696C204.696 81.178 203.868 79.2 203.868 77.084C203.868 75.566 204.282 74.094 205.064 72.852L205.34 72.438L199.774 66.872L199.314 67.424C197.152 70.23 196.002 73.588 196.002 77.13C196.002 81.362 197.658 85.318 200.648 88.308C203.638 91.298 207.594 92.954 211.826 92.954C215.368 92.954 218.726 91.804 221.532 89.642L222.084 89.182L216.518 83.616L216.058 83.846ZM232.255 93H240.075V82.65L232.255 74.83V93ZM262.615 61.398L248.033 75.98L233.451 61.398H232.209V71.242L240.029 79.062L247.987 87.066L255.945 79.062V93H263.765V61.398H262.615ZM295.464 65.998C292.474 63.008 288.518 61.352 284.286 61.352C280.744 61.352 277.386 62.502 274.58 64.664L274.028 65.124L279.594 70.69L280.008 70.414C281.25 69.632 282.722 69.218 284.24 69.218C286.356 69.218 288.334 70.046 289.852 71.564C291.37 73.082 292.198 75.06 292.198 77.176C292.198 78.694 291.784 80.166 291.002 81.408L290.726 81.822L296.292 87.388L296.752 86.836C298.914 84.03 300.064 80.672 300.064 77.13C300.064 72.898 298.408 68.942 295.418 65.952L295.464 65.998ZM288.472 83.846C287.23 84.628 285.758 85.042 284.24 85.042C282.124 85.042 280.146 84.214 278.628 82.696C277.11 81.178 276.282 79.2 276.282 77.084C276.282 75.566 276.696 74.094 277.478 72.852L277.754 72.438L272.188 66.872L271.728 67.424C269.566 70.23 268.416 73.588 268.416 77.13C268.416 81.362 270.072 85.318 273.062 88.308C276.052 91.298 280.008 92.954 284.24 92.954C287.782 92.954 291.14 91.804 293.946 89.642L294.498 89.182L288.932 83.616L288.472 83.846ZM312.854 93H320.674V84.444L312.854 76.624V93ZM300.986 61.398V69.218H312.854V73.036L320.674 80.856V69.218H332.588V61.398H300.986ZM337.193 61.398V65.308L345.013 73.128V61.398H337.193ZM337.193 93H345.013V76.716L337.193 68.896V93ZM376.593 65.998C373.603 63.008 369.647 61.352 365.415 61.352C361.873 61.352 358.515 62.502 355.709 64.664L355.157 65.124L360.723 70.69L361.137 70.414C362.379 69.632 363.851 69.218 365.369 69.218C367.485 69.218 369.463 70.046 370.981 71.564C372.499 73.082 373.327 75.06 373.327 77.176C373.327 78.694 372.913 80.166 372.131 81.408L371.855 81.822L377.421 87.388L377.881 86.836C380.043 84.03 381.193 80.672 381.193 77.13C381.193 72.898 379.537 68.942 376.547 65.952L376.593 65.998ZM369.601 83.846C368.359 84.628 366.887 85.042 365.369 85.042C363.253 85.042 361.275 84.214 359.757 82.696C358.239 81.178 357.411 79.2 357.411 77.084C357.411 75.566 357.825 74.094 358.607 72.852L358.883 72.438L353.317 66.872L352.857 67.424C350.695 70.23 349.545 73.588 349.545 77.13C349.545 81.362 351.201 85.318 354.191 88.308C357.181 91.298 361.137 92.954 365.369 92.954C368.911 92.954 372.269 91.804 375.075 89.642L375.627 89.182L370.061 83.616L369.601 83.846ZM385.798 93H393.618V82.65L385.798 74.83V93ZM407.28 68.16L407.096 68.344V81.5L387.224 61.628L387.04 61.444H385.798V71.288L393.618 79.108L398.632 84.122L407.234 92.724L407.556 93.046H414.916V60.524L407.28 68.16Z" fill="#05C2DF"/>
</svg>
