<svg width="359" height="27" viewBox="0 0 359 27" fill="none" xmlns="http://www.w3.org/2000/svg">
<path d="M23.56 26H17.782L6.298 10.628V26H0.286V0.799998H6.046L17.53 16.172V0.799998H23.56V26ZM34.1418 26H28.1298V0.799998H34.1418V26ZM50.9338 0.331998C53.3578 0.331998 55.5598 0.865999 57.5398 1.934C59.5198 3.002 61.0498 4.49 62.1298 6.398L56.8558 9.422C55.4998 7.202 53.5018 6.092 50.8618 6.092C48.8578 6.092 47.2018 6.776 45.8938 8.144C44.5858 9.5 43.9318 11.252 43.9318 13.4C43.9318 15.656 44.5978 17.438 45.9298 18.746C47.2738 20.054 48.9238 20.708 50.8798 20.708C53.4598 20.708 55.4878 19.604 56.9638 17.396L61.8958 20.888C60.7318 22.64 59.2018 24.008 57.3058 24.992C55.4218 25.976 53.2978 26.468 50.9338 26.468C49.0138 26.468 47.2318 26.144 45.5878 25.496C43.9438 24.848 42.5398 23.954 41.3758 22.814C40.2238 21.662 39.3178 20.276 38.6578 18.656C37.9978 17.036 37.6678 15.284 37.6678 13.4C37.6678 11.516 37.9978 9.764 38.6578 8.144C39.3178 6.524 40.2238 5.144 41.3758 4.004C42.5398 2.852 43.9438 1.952 45.5878 1.304C47.2318 0.655998 49.0138 0.331998 50.9338 0.331998ZM84.7968 26H65.5008V0.799998H84.7248V6.218H71.5128V10.574H83.9508V15.974H71.5128V20.582H84.7968V26ZM115.677 6.38H108.225V26H102.213V6.38H94.743V0.799998H115.677V6.38ZM124.373 1.322C126.029 0.661998 127.817 0.331998 129.737 0.331998C131.657 0.331998 133.439 0.661998 135.083 1.322C136.739 1.982 138.143 2.888 139.295 4.04C140.459 5.18 141.371 6.56 142.031 8.18C142.691 9.8 143.021 11.54 143.021 13.4C143.021 15.26 142.691 17 142.031 18.62C141.371 20.24 140.459 21.626 139.295 22.778C138.143 23.918 136.739 24.818 135.083 25.478C133.439 26.138 131.657 26.468 129.737 26.468C127.817 26.468 126.029 26.138 124.373 25.478C122.729 24.818 121.325 23.918 120.161 22.778C119.009 21.626 118.103 20.24 117.443 18.62C116.783 17 116.453 15.26 116.453 13.4C116.453 11.54 116.783 9.8 117.443 8.18C118.103 6.56 119.009 5.18 120.161 4.04C121.325 2.888 122.729 1.982 124.373 1.322ZM134.777 8.126C133.469 6.77 131.789 6.092 129.737 6.092C127.685 6.092 125.999 6.77 124.679 8.126C123.371 9.482 122.717 11.24 122.717 13.4C122.717 15.56 123.371 17.318 124.679 18.674C125.999 20.03 127.685 20.708 129.737 20.708C131.789 20.708 133.469 20.03 134.777 18.674C136.097 17.318 136.757 15.56 136.757 13.4C136.757 11.24 136.097 9.482 134.777 8.126ZM183.116 26H177.104V8.756L172.064 23.624H165.674L160.634 8.81V26H154.622V0.799998H163.136L168.878 16.802L174.584 0.799998H183.116V26ZM207 26H187.704V0.799998H206.928V6.218H193.716V10.574H206.154V15.974H193.716V20.582H207V26ZM230.414 26H211.118V0.799998H230.342V6.218H217.13V10.574H229.568V15.974H217.13V20.582H230.414V26ZM253.63 6.38H246.178V26H240.166V6.38H232.696V0.799998H253.63V6.38Z" fill="white"/>
<path d="M277.186 26H283.306V23.84L277.186 17.72V26ZM288.31 1.268L280.282 9.296L272.398 1.412L272.254 1.268H263.578L277.222 14.912L282.514 20.204L283.342 21.032V14.912L296.986 1.268H288.31ZM317.756 4.868C315.416 2.528 312.32 1.232 309.008 1.232C306.236 1.232 303.608 2.132 301.412 3.824L300.98 4.184L305.336 8.54L305.66 8.324C306.632 7.712 307.784 7.388 308.972 7.388C310.628 7.388 312.176 8.036 313.364 9.224C314.552 10.412 315.2 11.96 315.2 13.616C315.2 14.804 314.876 15.956 314.264 16.928L314.048 17.252L318.404 21.608L318.764 21.176C320.456 18.98 321.356 16.352 321.356 13.58C321.356 10.268 320.06 7.172 317.72 4.832L317.756 4.868ZM312.284 18.836C311.312 19.448 310.16 19.772 308.972 19.772C307.316 19.772 305.768 19.124 304.58 17.936C303.392 16.748 302.744 15.2 302.744 13.544C302.744 12.356 303.068 11.204 303.68 10.232L303.896 9.908L299.54 5.552L299.18 5.984C297.488 8.18 296.588 10.808 296.588 13.58C296.588 16.892 297.884 19.988 300.224 22.328C302.564 24.668 305.66 25.964 308.972 25.964C311.744 25.964 314.372 25.064 316.568 23.372L317 23.012L312.644 18.656L312.284 18.836ZM343.572 1.268V13.652C343.572 15.308 342.924 16.856 341.736 18.044C341.412 18.368 341.052 18.656 340.656 18.908L340.152 19.232L344.58 23.66L344.94 23.408C346.38 22.292 347.568 20.816 348.396 19.16C349.26 17.432 349.692 15.56 349.692 13.616V1.232L343.572 1.268ZM337.74 19.808C337.596 19.808 337.452 19.808 337.308 19.808C335.652 19.808 334.104 19.16 332.916 17.972C331.728 16.784 331.08 15.236 331.08 13.58V12.896L324.924 6.74V13.544C324.924 17.612 326.94 21.428 330.288 23.732C332.34 25.136 334.752 25.892 337.272 25.892C338.964 25.892 340.584 25.568 342.132 24.92L342.816 24.632L337.92 19.736L337.74 19.808ZM331.044 1.16H324.888V3.932L331.044 10.088V1.16ZM353.296 1.016V16.136L358.444 21.284V1.016H353.296ZM353.296 26H358.444V25.496L353.296 20.348V26Z" fill="#05C2DF"/>
</svg>
