<svg width="90" height="81" viewBox="0 0 90 81" fill="none" xmlns="http://www.w3.org/2000/svg">
<rect x="2.11279" y="1.93628" width="85.3669" height="60.2803" rx="3.5" stroke="#05C2DF"/>
<line x1="1.61279" y1="52.1627" x2="87.9797" y2="52.1627" stroke="#05C2DF"/>
<line x1="40.5533" y1="57.4288" x2="48.506" y2="57.4288" stroke="#05C2DF" stroke-linecap="round"/>
<rect x="27.3875" y="62.7379" width="34.284" height="5.22378" stroke="#05C2DF"/>
<rect x="16.8555" y="74.2279" width="55.3491" height="5.22378" stroke="#05C2DF"/>
<path d="M18.1845 73.7066L27.0247 68.4828H62.0353L70.8756 73.7066H18.1845Z" stroke="#05C2DF"/>
<path d="M25.1125 13.7955L33.1125 36.1591H33.2034L41.2034 13.7955H41.9761L33.6579 37.0682H32.6579L24.3398 13.7955H25.1125ZM46.6494 37.0682V13.7955H53.4676C54.7706 13.7955 55.9222 14.072 56.9222 14.6251C57.9297 15.1781 58.7176 15.9508 59.2858 16.9432C59.8615 17.9357 60.1494 19.0985 60.1494 20.4319C60.1494 21.7501 59.8615 22.9054 59.2858 23.8978C58.7176 24.8826 57.9297 25.6516 56.9222 26.2046C55.9222 26.7501 54.7706 27.0228 53.4676 27.0228H47.0131V26.2955H53.4676C54.6343 26.2955 55.6646 26.0531 56.5585 25.5682C57.4525 25.0834 58.1532 24.4016 58.6608 23.5228C59.1684 22.644 59.4222 21.6137 59.4222 20.4319C59.4222 19.2425 59.1684 18.2046 58.6608 17.3182C58.1532 16.4319 57.4525 15.7463 56.5585 15.2614C55.6646 14.769 54.6343 14.5228 53.4676 14.5228H47.3767V37.0682H46.6494ZM55.5131 26.4773L61.2403 37.0682H60.4222L54.6949 26.4773H55.5131Z" fill="#05C2DF"/>
</svg>
