<svg width="107" height="80" viewBox="0 0 107 80" fill="none" xmlns="http://www.w3.org/2000/svg">
<rect x="11.5107" y="1.5" width="84.3965" height="59.5917" rx="3.5" stroke="#05C2DF"/>
<line x1="11.0107" y1="51.1509" x2="96.4072" y2="51.1509" stroke="#05C2DF"/>
<line x1="49.5215" y1="56.3579" x2="57.3736" y2="56.3579" stroke="#05C2DF" stroke-linecap="round"/>
<rect x="36.5049" y="61.6182" width="33.8876" height="5.15385" stroke="#05C2DF"/>
<rect x="26.0908" y="72.9795" width="54.716" height="5.15385" stroke="#05C2DF"/>
<path d="M27.4198 72.4527L36.1417 67.2988H70.7559L79.4778 72.4527H27.4198Z" stroke="#05C2DF"/>
<path d="M34.2674 13.3074L42.2674 35.671H42.3583L50.3583 13.3074H51.131L42.8129 36.5801H41.8129L33.4947 13.3074H34.2674ZM55.8043 36.5801V13.3074H62.6225C63.9255 13.3074 65.0771 13.5839 66.0771 14.1369C67.0846 14.6899 67.8725 15.4627 68.4407 16.4551C69.0165 17.4475 69.3043 18.6104 69.3043 19.9437C69.3043 21.2619 69.0165 22.4172 68.4407 23.4096C67.8725 24.3945 67.0846 25.1634 66.0771 25.7164C65.0771 26.2619 63.9255 26.5346 62.6225 26.5346H56.168V25.8074H62.6225C63.7892 25.8074 64.8195 25.5649 65.7134 25.0801C66.6074 24.5952 67.3081 23.9134 67.8157 23.0346C68.3233 22.1558 68.5771 21.1255 68.5771 19.9437C68.5771 18.7543 68.3233 17.7164 67.8157 16.8301C67.3081 15.9437 66.6074 15.2581 65.7134 14.7733C64.8195 14.2808 63.7892 14.0346 62.6225 14.0346H56.5316V36.5801H55.8043ZM64.668 25.9892L70.3952 36.5801H69.5771L63.8498 25.9892H64.668Z" fill="#05C2DF"/>
</svg>
