<svg width="99" height="81" viewBox="0 0 99 81" fill="none" xmlns="http://www.w3.org/2000/svg">
<path d="M45.8612 28.0792V21.0688M62.4935 35.3644H70.6034M32.8027 45.8111H37.2014M54.7959 60.519V53.5087" stroke="#05C2DF"/>
<rect x="37.5645" y="28.4414" width="24.567" height="24.567" rx="3.5" stroke="#05C2DF"/>
<rect x="42.2373" y="33.1152" width="15.4948" height="15.4948" rx="3.5" stroke="#05C2DF"/>
<rect x="70.8291" y="1.5" width="18.5189" height="18.5189" rx="3.5" stroke="#05C2DF"/>
<rect x="75.2275" y="5.89844" width="9.99656" height="9.99656" rx="2.5" stroke="#05C2DF"/>
<rect x="10.3477" y="1.5" width="18.5189" height="18.5189" rx="3.5" stroke="#05C2DF"/>
<rect x="14.7461" y="5.89844" width="9.99656" height="9.99656" rx="2.5" stroke="#05C2DF"/>
<rect x="11.1729" y="61.4312" width="18.5189" height="18.5189" rx="3.5" stroke="#05C2DF"/>
<rect x="15.5713" y="65.8301" width="9.99656" height="9.99656" rx="2.5" stroke="#05C2DF"/>
<rect x="70.8291" y="61.4312" width="18.5189" height="18.5189" rx="3.5" stroke="#05C2DF"/>
<rect x="75.2275" y="65.8301" width="9.99656" height="9.99656" rx="2.5" stroke="#05C2DF"/>
<path d="M55.0713 28.0791V10.897H70.1916" stroke="#05C2DF"/>
<path d="M37.2012 38.1133L19.7441 38.1133L19.7442 20.5188" stroke="#05C2DF"/>
<path d="M62.6313 41.9624L79.8135 41.9624L79.8135 60.9315" stroke="#05C2DF"/>
<path d="M46.4111 53.5088L46.4111 70.6909L30.0537 70.6909" stroke="#05C2DF"/>
<circle cx="45.8609" cy="18.5943" r="1.97423" stroke="#05C2DF"/>
<circle cx="73.0777" cy="35.3644" r="1.97423" stroke="#05C2DF"/>
<circle cx="30.4664" cy="45.8111" r="1.97423" stroke="#05C2DF"/>
<circle cx="54.6588" cy="62.8556" r="1.97423" stroke="#05C2DF"/>
</svg>
