<svg xmlns="http://www.w3.org/2000/svg" width="52" height="335" fill="none" xmlns:v="https://vecta.io/nano"><path d="M50.628 320.048l1-.009-.006-.742-.713-.209-.281.96zm.113 13.635l-.306.953 1.317.422-.011-1.383-1 .008zM4.07 318.707l-1 .008.006.723.688.221.306-.952zm-.143-17.273l-.321-.947-.685.233.006.723 1-.009zm46.416-15.749l1-.008-.011-1.383-1.31.444.321.947zm.113 13.636l.297.955.709-.221-.006-.742-1 .008zm-33.642 10.461l-.297-.955-.709.221.006.743 1-.009zm.003.364l-1 .008.006.743.713.209.281-.96zm15.469 12.599l-1 .009.008 1 1-.009-.008-1zm-.213-25.635l-.008-1-1 .008.008 1 1-.008zm9.454-.079l1-.008-.008-1-1 .008.008 1zm.213 25.636l.008 1 1-.008-.008-1-1 .008zm7.888-2.611l.113 13.636 2-.017-.113-13.636-2 .017zm1.419 12.675L4.375 317.754l-.611 1.905 46.671 14.977.611-1.905zM5.07 318.698l-.143-17.272-2 .017.143 17.272 2-.017zm-.822-16.317l46.416-15.749-.643-1.894-46.416 15.749.643 1.894zm45.095-16.688l.113 13.636 2-.016-.113-13.636-2 .016zm.816 12.673l-33.642 10.461.594 1.91 33.642-10.461-.594-1.91zm-34.345 11.425l.003.363 2-.016-.003-.364-2 .017zm.722 1.315l33.811 9.901.562-1.919-33.811-9.902-.562 1.92zm16.75 11.631l-.213-25.635-2 .016.213 25.636 2-.017zm-1.204-24.627l9.454-.079-.017-2-9.454.079.017 2zm8.446-1.07l.213 25.635 2-.016-.213-25.636-2 .017zm1.204 24.627l-9.454.078.017 2 9.454-.078-.017-2zm8.574-40.465l.008 1 1-.008-.008-1-1 .008zm-46.544.386l-1 .009.008 1 1-.009-.008-1zm1.19-29.124l.933.361.001-.002-.933-.359zm4-5.511l.583.813.005-.003-.587-.81zm10.834-.817l-.466.885.007.004.459-.889zm3.571 3.107l.816-.578-.004-.007-.811.585zm1.994 4.711l-.979.206.168.801.819-.007-.008-1zm.454-.004l.008 1 .963-.008.028-.962-1-.03zm1.477-5.467l.871.491.003-.006-.875-.485zm3.808-3.941l.517.856.004-.002-.52-.854zm12.527.442l-.551.835.004.002.546-.837zm4.728 5.597l-.903.43.903-.43zM40.11 268.65l.008 1 1-.008-.008-1-1 .008zm-1.27-10.672l.798-.602-.006-.008-.792.61zm-8.035 1.363l.921.39.002-.006-.923-.384zm-.513 9.391l-1 .008.008 1 1-.008-.008-1zm-7.818.064l.008 1 1-.008-.008-1-1 .008zm-.59-8.109l.922-.387-.922.387zm-1.516-1.964l-.581.813.003.003.578-.816zm-5.72.865l.805.594.006-.008-.811-.586zm-1.082 9.282l-1 .009.008 1 1-.009-.008-1zm36.732 11.332l-46.544.387.017 1.999 46.544-.386-.017-2zM4.762 281.58l-.167-20.181-2 .017.167 20.181 2-.017zm-.167-20.181c-.029-3.463.415-6.31 1.29-8.574l-1.865-.722c-.993 2.57-1.455 5.685-1.425 9.313l2-.017zm1.291-8.576c.88-2.291 2.108-3.952 3.649-5.057l-1.165-1.625c-1.923 1.378-3.362 3.391-4.351 5.964l1.867.718zm3.654-5.06c1.546-1.122 3.386-1.706 5.564-1.724l-.017-2c-2.549.021-4.804.713-6.722 2.105l1.175 1.619zm5.564-1.724c1.559-.013 2.958.318 4.217.982l.932-1.77c-1.572-.828-3.3-1.228-5.166-1.212l.017 2zm4.224.986c1.27.655 2.342 1.585 3.219 2.803l1.623-1.17c-1.054-1.463-2.364-2.605-3.924-3.41l-.918 1.777zm3.214 2.796c.862 1.217 1.477 2.657 1.831 4.339l1.957-.412c-.403-1.918-1.118-3.618-2.156-5.083l-1.631 1.156zm2.818 5.133l.454-.004-.017-2-.454.004.017 2zm1.446-.974c.055-1.849.508-3.512 1.349-5.006l-1.743-.982c-1.01 1.794-1.542 3.776-1.606 5.929l1.999.059zm1.353-5.012a9.45 9.45 0 0 1 3.45-3.57l-1.034-1.712c-1.776 1.073-3.17 2.514-4.166 4.313l1.75.969zm3.454-3.572c1.435-.874 3.157-1.339 5.203-1.356l-.017-2c-2.348.02-4.436.557-6.227 1.648l1.041 1.708zm5.203-1.356c2.36-.019 4.434.578 6.253 1.779l1.101-1.67c-2.172-1.433-4.64-2.131-7.371-2.109l.017 2zm6.257 1.781c1.822 1.189 3.284 2.904 4.372 5.19l1.806-.86c-1.225-2.574-2.916-4.59-5.085-6.005l-1.093 1.675zm4.372 5.19c1.08 2.269 1.653 5.022 1.68 8.291l2-.016c-.029-3.489-.641-6.544-1.874-9.135l-1.806.86zm1.68 8.291l.182 21.909 2-.017-.182-21.908-2 .016zm-8.014 9.34l-.049-5.909-2 .017.049 5.908 2-.016zm-.049-5.909c-.018-2.216-.44-4.056-1.424-5.357l-1.596 1.205c.61.807 1.002 2.142 1.019 4.169l2-.017zm-1.429-5.365c-1.037-1.347-2.547-1.966-4.359-1.951l.017 2c1.309-.011 2.172.411 2.758 1.172l1.584-1.221zm-4.359-1.951c-1.247.01-2.37.307-3.316.943l1.115 1.66c.561-.377 1.282-.595 2.217-.603l-.017-2zm-3.316.943c-.933.627-1.622 1.508-2.075 2.596l1.846.769c.319-.766.771-1.32 1.344-1.705l-1.115-1.66zm-2.073 2.591c-.453 1.07-.654 2.313-.643 3.698l2-.016c-.01-1.191.165-2.148.484-2.902l-1.842-.78zm-.643 3.698l.05 6.091 2-.017-.051-6.09-2 .016zm1.059 7.083l9.818-.082-.017-2-9.818.082.017 2zm-6.826-.944l-.043-5.181-2 .016.043 5.182 2-.017zm-.043-5.181c-.01-1.211-.21-2.319-.625-3.307l-1.844.775c.296.703.461 1.546.469 2.548l2-.016zm-.625-3.307c-.417-.993-1.032-1.806-1.86-2.393l-1.156 1.632c.482.341.879.838 1.172 1.536l1.844-.775zm-1.857-2.391c-.869-.621-1.896-.903-3.027-.893l.017 2c.778-.007 1.375.183 1.848.52l1.163-1.627zm-3.027-.893c-1.712.014-3.124.657-4.085 1.987l1.621 1.171c.537-.744 1.313-1.149 2.48-1.158l-.017-2zm-4.079 1.979c-.919 1.247-1.336 2.778-1.322 4.52l2-.016c-.012-1.409.322-2.491.932-3.317l-1.61-1.187zm-1.322 4.52l.044 5.364 2-.017-.044-5.363-2 .016zm1.053 6.355l8.909-.074-.017-2-8.909.074.017 2zm25.869-73.399l.487-.873-.002-.001-.485.874zm8.136 8.092l.879-.476-.002-.003-.878.479zm.168 22.954l.883.47.002-.005-.886-.465zm-8.023 8.203l.497.868.004-.002-.501-.866zm-26.158.217l-.485.875h.001l.484-.875zm-8.135-8.069l.878-.478-.001-.001-.878.479zm-.19-22.953l.885.464.002-.003-.887-.461zm8-8.226l.5.866.002-.001-.501-.865zm6.137 11.04l.361.933.009-.004-.37-.929zm-4.337 3.286l.823.568.007-.01-.83-.558zm.088 10.568l.818-.576-.001-.001-.816.577zm4.39 3.214l-.352.936.004.001.348-.937zm14.113-.117l.361.932.009-.003-.37-.929zm4.337-3.286l.823.567.007-.01-.83-.557zm-.088-10.568l.818-.576-.001-.002-.817.578zm-4.39-3.214l-.352.936.004.001.348-.937zm-7.177-13.055c5.054-.041 9.253.906 12.645 2.789l.971-1.749c-3.763-2.089-8.323-3.083-13.632-3.039l.017 1.999zm12.643 2.788c3.406 1.898 5.978 4.463 7.745 7.698l1.755-.959c-1.957-3.583-4.808-6.413-8.526-8.486l-.974 1.747zm7.743 7.695c1.762 3.253 2.668 6.9 2.702 10.963l2-.017c-.036-4.361-1.012-8.334-2.943-11.899l-1.759.953zm2.702 10.963c.034 4.093-.819 7.769-2.54 11.05l1.771.929c1.888-3.598 2.805-7.604 2.769-11.996l-2 .017zm-2.538 11.045c-1.728 3.25-4.266 5.851-7.641 7.807l1.003 1.731c3.682-2.133 6.492-5.001 8.405-8.599l-1.766-.939zm-7.637 7.805c-3.361 1.924-7.53 2.934-12.554 2.976l.017 2c5.279-.044 9.805-1.107 13.531-3.241l-.994-1.735zm-12.554 2.976c-5.056.042-9.247-.899-12.623-2.767l-.968 1.75c3.748 2.074 8.3 3.061 13.608 3.017l-.017-2zm-12.622-2.766c-3.421-1.899-5.992-4.456-7.742-7.673l-1.757.956c1.943 3.571 4.796 6.394 8.529 8.466l.971-1.749zm-7.743-7.674c-1.776-3.251-2.689-6.913-2.723-11.006l-2 .017c.036 4.391 1.02 8.381 2.968 11.948l1.755-.959zm-2.723-11.006c-.034-4.061.818-7.722 2.54-11.004l-1.771-.929c-1.888 3.597-2.806 7.587-2.769 11.95l2-.017zm2.542-11.007c1.697-3.261 4.225-5.866 7.613-7.821l-.999-1.732c-3.699 2.134-6.505 5.012-8.388 8.63l1.774.923zm7.614-7.822c3.343-1.937 7.518-2.955 12.572-2.997l-.017-1.999c-5.309.044-9.845 1.114-13.558 3.266l1.003 1.73zm12.664 8.003c-2.87.024-5.346.426-7.398 1.243l.74 1.858c1.754-.699 3.968-1.079 6.674-1.101l-.017-2zm-7.389 1.24c-2.074.803-3.699 2.014-4.805 3.66l1.66 1.116c.839-1.249 2.105-2.229 3.868-2.911l-.723-1.865zm-4.798 3.65c-1.127 1.634-1.652 3.607-1.633 5.862l2-.017c-.016-1.928.43-3.478 1.279-4.709l-1.646-1.136zm-1.633 5.862c.019 2.254.576 4.224 1.727 5.851l1.633-1.154c-.873-1.235-1.344-2.787-1.36-4.714l-2 .017zm1.726 5.85c1.133 1.609 2.775 2.79 4.856 3.574l.704-1.872c-1.779-.67-3.064-1.631-3.925-2.854l-1.636 1.152zm4.86 3.575c2.062.766 4.543 1.119 7.411 1.095l-.017-2c-2.707.023-4.93-.313-6.698-.97l-.697 1.875zm7.411 1.095c2.868-.024 5.349-.418 7.412-1.217l-.723-1.865c-1.773.687-3.999 1.06-6.706 1.082l.017 2zm7.421-1.22c2.053-.818 3.671-2.026 4.789-3.648l-1.646-1.135c-.857 1.243-2.131 2.226-3.884 2.925l.74 1.858zm4.796-3.658c1.106-1.645 1.622-3.622 1.603-5.873l-2 .016c.016 1.93-.424 3.492-1.263 4.742l1.66 1.115zm1.603-5.873c-.019-2.251-.567-4.214-1.703-5.828l-1.636 1.151c.857 1.218 1.323 2.763 1.339 4.693l2-.016zm-1.704-5.83c-1.147-1.621-2.787-2.804-4.859-3.573l-.696 1.874c1.758.654 3.045 1.613 3.922 2.854l1.633-1.155zm-4.855-3.572c-2.078-.782-4.567-1.143-7.438-1.119l.017 2c2.705-.022 4.934.32 6.717.991l.704-1.872zM2.756 160.36l-1 .008.008 1 1-.008-.008-1zm-.105-12.636l-.008-1-1 .008.008 1 1-.008zm39.043 2.221l-.541.841.001.001.54-.842zm6.035 6.996l.904-.427-.002-.004-.902.431zm.175 21.045l.909.416.002-.004-.911-.412zm-5.919 7.095l.548.836.006-.004-.554-.832zm-39.001 2.823l-1 .009.008.999 1-.008-.008-1zm-.105-12.636l-.008-1-1 .009.008 1 1-.009zm32.582-1.225l.496.869.005-.003-.501-.866zm2.614-2.658l.874.487.003-.005-.876-.482zm-.064-7.727l.866-.501-.866.501zm-2.658-2.614l.486-.874-.005-.003-.481.877zm-31.598-.693l-.105-12.636-2 .017.105 12.636 2-.017zm-1.097-11.627l29.817-.248-.017-2-29.817.248.017 2zm29.817-.248c3.38-.028 6.258.755 8.676 2.31l1.082-1.682c-2.791-1.795-6.063-2.658-9.775-2.628l.017 2zm8.677 2.311c2.42 1.552 4.312 3.735 5.673 6.585l1.805-.862c-1.508-3.157-3.639-5.637-6.398-7.406l-1.08 1.683zm5.671 6.581c1.346 2.849 2.05 6.195 2.082 10.064l2-.017c-.034-4.101-.782-7.743-2.274-10.901l-1.808.854zm2.082 10.064c.032 3.899-.617 7.272-1.915 10.142l1.822.824c1.44-3.183 2.127-6.853 2.092-10.983l-2 .017zm-1.913 10.138c-1.313 2.872-3.169 5.086-5.563 6.678l1.107 1.665c2.73-1.814 4.819-4.33 6.274-7.511l-1.819-.832zm-5.557 6.674c-2.393 1.568-5.261 2.385-8.644 2.413l.017 2c3.707-.031 6.963-.932 9.723-2.74l-1.096-1.673zm-8.644 2.413l-29.817.247.017 2 29.817-.247-.017-2zm-28.809 1.239L3.88 175.26l-2 .017.105 12.636 2-.017zm-1.097-11.628l28.726-.238-.017-2-28.726.238.017 2zm28.726-.238c1.592-.013 3.048-.379 4.343-1.118l-.992-1.737c-.967.552-2.081.844-3.368.855l.017 2zm4.348-1.121c1.272-.736 2.273-1.753 2.987-3.037l-1.748-.973a5.88 5.88 0 0 1-2.241 2.279l1.002 1.731zm2.99-3.042c.718-1.307 1.059-2.769 1.046-4.361l-2 .016c.011 1.287-.263 2.406-.799 3.382l1.753.963zm1.046-4.361c-.013-1.605-.378-3.064-1.121-4.349l-1.731 1.002c.548.948.841 2.059.852 3.363l2-.016zm-1.121-4.349c-.736-1.272-1.753-2.272-3.037-2.987l-.973 1.748a5.88 5.88 0 0 1 2.279 2.241l1.731-1.002zm-3.042-2.99c-1.307-.717-2.769-1.059-4.361-1.046l.017 2c1.287-.01 2.405.263 3.382.799l.963-1.753zm-4.361-1.046l-28.726.239.017 2 28.726-.239-.017-2zm-18.681-16.214l.008.999 1-.008-.008-1-1 .009zm-10.181.084l-1 .008.008 1 1-.008-.008-1zm-.336-40.453l-.008-1-1 .008.008 1 1-.008zm10.182-.085l1-.008-.008-1-1 .008.008 1zm.116 14l-1 .008.008 1 1-.008-.008-1zm36.362-.302l1-.008-.008-1-1 .008.008 1zm.103 12.454l.008 1 1-.008-.008-1-1 .008zm-36.362.302l-.008-1-1 .008.008 1 1-.008zm.108 13l-10.181.084.017 2 10.181-.085-.017-1.999zm-9.173 1.076l-.336-40.453-2 .016.336 40.453 2-.016zm-1.327-39.445l10.182-.085-.017-2-10.181.085.017 2zm9.173-1.076l.116 13.999 2-.016-.116-14-2 .017zm1.124 14.991l36.362-.302-.017-2-36.362.302.017 2zm35.354-1.294l.103 12.455 2-.017-.103-12.454-2 .016zm1.095 11.446l-36.362.302.017 2 36.362-.302-.017-2zm-37.354 1.31l.116 14 2-.017-.116-13.999-2 .016zM1.903 57.488l-1 .008.008 1 1-.008-.008-1zm-.105-12.636l-.008-1-1 .008.008 1 1-.008zm39.042 2.222l-.541.841.001.001.54-.842zm6.035 6.996l.904-.427-.002-.004-.902.431zm.175 21.045l.91.416.002-.004-.911-.412zm-5.919 7.095l.548.836.006-.004-.554-.833zM2.131 85.033l-1 .008.008 1 1-.008-.008-1zm-.105-12.636l-.008-1-1 .008.008 1 1-.008zm32.582-1.225l.496.869.005-.003-.501-.866zm2.614-2.658l.874.486.003-.005-.876-.481zm-.064-7.727l.866-.501-.866.501zM34.5 58.172l.486-.874-.005-.003-.481.877zM2.903 57.48l-.105-12.636-2 .017.105 12.636 2-.017zM1.806 45.852l29.817-.247-.017-2-29.817.247.017 2zm29.817-.247c3.38-.028 6.258.755 8.676 2.31l1.082-1.682c-2.791-1.795-6.064-2.659-9.775-2.628l.017 2zm8.677 2.311c2.42 1.552 4.312 3.735 5.673 6.585l1.805-.862c-1.507-3.157-3.639-5.637-6.398-7.407l-1.08 1.684zm5.671 6.581c1.346 2.849 2.05 6.195 2.082 10.063l2-.017c-.034-4.101-.782-7.743-2.274-10.901l-1.808.854zm2.082 10.063c.032 3.9-.617 7.272-1.914 10.142l1.822.824c1.44-3.183 2.126-6.853 2.092-10.983l-2 .017zm-1.913 10.138c-1.313 2.872-3.169 5.086-5.563 6.678l1.107 1.665c2.73-1.815 4.819-4.33 6.274-7.512l-1.819-.832zm-5.557 6.674c-2.393 1.568-5.261 2.385-8.644 2.413l.017 2c3.708-.031 6.963-.931 9.723-2.74l-1.096-1.673zm-8.644 2.413l-29.817.247.017 2 29.817-.247-.017-2zM3.131 85.025l-.105-12.636-2 .017.105 12.636 2-.017zM2.035 73.397l28.726-.238-.017-2-28.726.238.017 2zm28.726-.238c1.592-.013 3.048-.379 4.343-1.118l-.992-1.737c-.967.552-2.081.844-3.368.855l.017 2zm4.348-1.121c1.272-.736 2.273-1.753 2.987-3.037l-1.748-.973c-.539.969-1.282 1.724-2.241 2.279l1.002 1.731zm2.99-3.042c.718-1.307 1.059-2.769 1.046-4.361l-2 .017c.011 1.287-.263 2.406-.799 3.382l1.753.963zm1.046-4.361c-.013-1.605-.378-3.064-1.121-4.348l-1.731 1.002c.548.948.841 2.059.852 3.363l2-.017zm-1.121-4.348c-.736-1.272-1.753-2.273-3.037-2.987l-.973 1.748c.969.539 1.724 1.282 2.279 2.241l1.731-1.002zm-3.042-2.99c-1.307-.718-2.769-1.059-4.361-1.046l.017 2c1.287-.011 2.406.263 3.382.799l.963-1.753zm-4.361-1.046l-28.726.238.017 2 28.726-.238-.017-2zM16.085 13.636l.088.996.92-.081-.008-.923-1 .008zm-3.531 1.734l.768.641.005-.006-.773-.635zm-.731 7.779l.935-.355-.004-.009-.931.364zm1.265 1.808l-.59.808h0l.59-.808zm1.823.599l.046-.999h-.016-.016l-.014 1zm1.52-.308l.455.891.018-.009.018-.01-.49-.872zm1.195-1.146l.822.57.006-.008.006-.008-.833-.553zm1.687-4.855l-.979-.201-.002.008.981.193zm.787-3.825l.98.201v-.002l-.98-.199zm2.104-6.631l.902.431-.902-.431zm3.122-4.526l.7.715.004-.004-.704-.71zm4.024-2.602l.35.937.008-.003-.358-.934zm4.902-.904l-.003-1h-.014l.017 1zm7.792 2.231l.574-.819-.574.819zm4.895 6.46l-.928.373v.002l.927-.375zm.035 20.705l.932.363v-.002l-.932-.361zm-5.465 7.046l.558.83.006-.004-.564-.826zm-9.57 2.579l-1 .008.008 1.004 1.004-.012-.012-1zm-.1-12l-.061-.998-.946.058.008.948 1-.008zm3.582-1.098l.556.831-.556-.831zm2.182-2.7l.921.391.002-.004-.922-.386zm.187-7.547l.936-.352-.936.352zm-1.404-2.057l.616-.788-.616.788zm-2.029-.71l.012-1h-.021l-.021.001.03.999zm-1.858.72l.634.774.012-.01.012-.01-.657-.754zm-1.436 2.194l.921.39.005-.012-.926-.378zm-1.193 4.124l-.979-.206-.001.003.979.203zm-.961 4.644l.979.204v-.001l-.979-.203zm-4.396 9.787l.752.659.004-.005-.757-.654zm-8.584 3.594l-.004-1h-.009l.013 1zM8.16 36.43l-.578.816.001.001.577-.817zM2.9 29.814l-.913.407.001.002.912-.409zm-.139-19.545l.912.409-.912-.409zm5.265-6.385l.551.834.006-.004-.558-.83zm7.958-2.339l1-.008-.008-1.005-1.005.013.013 1zm.012 11.094c-1.738.154-3.18.834-4.216 2.095l1.545 1.27c.644-.783 1.557-1.259 2.847-1.373l-.176-1.992zm-4.211 2.089c-1.057 1.267-1.485 3.071-1.467 5.228l2-.017c-.016-1.934.379-3.182 1.003-3.93l-1.536-1.281zm-1.467 5.228c.011 1.374.188 2.573.573 3.557l1.863-.729c-.265-.678-.425-1.612-.435-2.844l-2 .017zm.569 3.547c.357.94.877 1.725 1.61 2.26l1.179-1.615c-.334-.244-.657-.664-.92-1.355l-1.87.71zm1.61 2.26c.707.516 1.517.778 2.399.791l.028-2a2.09 2.09 0 0 1-1.248-.406l-1.179 1.615zm2.367.79c.716.033 1.398-.098 2.021-.416l-.909-1.781c-.282.144-.614.218-1.02.2l-.091 1.998zm2.056-.436c.599-.337 1.103-.837 1.527-1.448l-1.643-1.14c-.295.425-.588.689-.864.845l.981 1.743zm1.538-1.464c.404-.608.75-1.352 1.049-2.209l-1.888-.659c-.263.753-.543 1.333-.827 1.761l1.666 1.107zm1.049-2.209c.301-.862.562-1.866.786-3.006l-1.962-.386c-.212 1.075-.45 1.984-.712 2.733l1.888.659zm.784-2.998l.786-3.825-1.959-.403-.787 3.825 1.959.403zm.787-3.827c.512-2.522 1.192-4.65 2.027-6.4l-1.805-.862c-.922 1.932-1.646 4.225-2.182 6.863l1.96.398zm2.027-6.4c.839-1.757 1.816-3.163 2.919-4.242l-1.399-1.429c-1.302 1.274-2.406 2.885-3.325 4.81l1.805.862zm2.923-4.247a10.27 10.27 0 0 1 3.67-2.375L29 .725a12.27 12.27 0 0 0-4.378 2.828l1.408 1.421zm3.678-2.378c1.375-.527 2.892-.81 4.561-.838l-.034-2c-1.877.032-3.627.351-5.243.97l.716 1.868zm4.547-.838c2.891-.01 5.277.69 7.214 2.049l1.149-1.637C40.286.534 37.478-.253 34.248-.242l.007 2zm7.214 2.049c1.951 1.369 3.472 3.355 4.541 6.014l1.856-.746c-1.19-2.959-2.932-5.279-5.248-6.905l-1.149 1.637zm4.542 6.016c1.07 2.648 1.638 5.883 1.67 9.733l2-.017c-.034-4.028-.627-7.526-1.816-10.466l-1.854.749zm1.67 9.733c.033 3.949-.524 7.354-1.64 10.236l1.865.723c1.227-3.168 1.809-6.833 1.775-10.975l-2 .017zM46.041 29.79c-1.105 2.838-2.806 5.018-5.096 6.583l1.128 1.652c2.651-1.81 4.593-4.327 5.832-7.509l-1.864-.726zm-5.091 6.579c-2.283 1.535-5.267 2.364-9.024 2.409l.024 2c4.031-.049 7.426-.941 10.116-2.75l-1.116-1.66zm-8.012 3.401l-.099-12-2 .017.1 12 2-.017zM31.9 28.777c1.56-.096 2.934-.502 4.076-1.265l-1.111-1.663c-.787.526-1.8.852-3.088.931l.123 1.996zm4.076-1.265c1.14-.762 1.987-1.821 2.547-3.141l-1.841-.781c-.421.992-1.028 1.732-1.817 2.259l1.111 1.663zm2.549-3.145c.555-1.324.807-2.853.793-4.56l-2 .017c.012 1.505-.212 2.753-.638 3.771l1.845.773zm.793-4.56c-.012-1.423-.197-2.676-.592-3.726l-1.872.704c.287.762.453 1.765.464 3.038l2-.017zm-.592-3.726c-.387-1.03-.948-1.887-1.724-2.492l-1.231 1.576c.414.324.789.838 1.083 1.621l1.872-.704zm-1.724-2.492a4.27 4.27 0 0 0-2.633-.923l-.023 2a2.27 2.27 0 0 1 1.425.498l1.231-1.576zm-2.674-.922a3.87 3.87 0 0 0-2.485.966l1.314 1.508c.348-.304.745-.46 1.23-.474l-.059-1.999zm-2.462.946c-.724.593-1.282 1.496-1.729 2.589l1.852.756c.385-.944.785-1.503 1.144-1.798l-1.268-1.547zm-1.724 2.578c-.466 1.102-.88 2.546-1.251 4.307l1.957.412c.358-1.7.74-3.005 1.136-3.94l-1.842-.779zm-1.251 4.311l-.962 4.645 1.959.405.962-4.644-1.959-.405zm-.961 4.643c-.836 4.015-2.245 7.105-4.174 9.337l1.513 1.308c2.213-2.56 3.735-5.995 4.619-10.237l-1.958-.408zm-4.169 9.332c-1.868 2.132-4.439 3.239-7.836 3.253l.008 2c3.876-.016 7.028-1.305 9.332-3.935l-1.504-1.318zm-7.845 3.253c-2.762.037-5.141-.676-7.179-2.116l-1.154 1.633c2.413 1.705 5.213 2.525 8.36 2.483l-.027-2zm-7.178-2.115c-2.077-1.472-3.723-3.528-4.925-6.209l-1.825.818c1.33 2.965 3.19 5.319 5.594 7.022l1.156-1.632zm-4.924-6.207c-1.201-2.692-1.829-5.811-1.858-9.381l-2 .017c.031 3.794.7 7.194 2.032 10.179l1.827-.815zm-1.858-9.381c-.03-3.648.555-6.754 1.718-9.348L1.848 9.86C.542 12.772-.077 16.176-.045 20.043l2-.017zm1.718-9.348c1.166-2.599 2.804-4.571 4.904-5.96L7.475 3.05c-2.45 1.619-4.323 3.903-5.626 6.81l1.825.819zm4.911-5.964c2.08-1.398 4.539-2.131 7.414-2.169l-.027-2c-3.216.043-6.063.869-8.503 2.509l1.116 1.66zm6.4-3.161l.1 12.09 2-.017-.1-12.09-2 .017z" fill="#05c2df" fill-opacity=".03"/></svg>