<svg xmlns="http://www.w3.org/2000/svg" width="51" height="334" fill="none" xmlns:v="https://vecta.io/nano"><path d="M1.117 14.339l-1 .008.006.743.713.209.281-.96zM1.004.703l.306-.952-1.317-.423L.004.712l1-.008zM47.676 15.68l1-.008-.006-.723-.688-.221-.306.952zm.143 17.272l.321.947.685-.232-.006-.723-1 .008zM1.403 48.702l-1 .008.011 1.383 1.31-.444-.321-.947zm-.113-13.636l-.297-.955-.709.221.006.743 1-.008zm33.642-10.461l.297.955.709-.221-.006-.743-1 .008zm-.003-.364l1-.008-.006-.743-.713-.209-.281.96zM19.459 11.641l1-.008-.008-1-1 .008.008 1zm.213 25.635l.008 1 1-.008-.008-1-1 .008zm-9.454.078l-1 .008.008 1 1-.008-.008-1zm-.213-25.635l-.008-1-1 .008.008 1 1-.008zm-7.888 2.611L2.004.695l-2 .017.113 13.636 2-.017zM.699 1.655L47.37 16.632l.611-1.904L1.31-.249.699 1.655zm45.977 14.033l.143 17.272 2-.017-.143-17.272-2 .017zm.822 16.317L1.081 47.755l.643 1.894L48.14 33.899l-.643-1.894zM2.403 48.693l-.113-13.636-2 .017.113 13.636 2-.017zm-.816-12.673l33.642-10.461-.594-1.91L.993 34.111l.594 1.91zm34.345-11.425l-.003-.364-2 .017.003.364 2-.017zm-.722-1.315L1.399 13.379.836 15.299l33.811 9.902.562-1.919zM18.459 11.65l.213 25.636 2-.017-.213-25.635-2 .017zm1.204 24.627l-9.454.079.017 2 9.454-.078-.017-2zm-8.446 1.07l-.213-25.635-2 .017.213 25.636 2-.017zM10.014 12.72l9.454-.078-.017-2-9.454.079.017 2zM1.44 53.184l-.008-1-1 .008.008 1 1-.008zm46.544-.386l1-.008-.008-1-1 .008.008 1zm-1.19 29.125l-.933-.361-.001.002.933.359zm-4 5.511l-.583-.813-.005.003.587.809zm-10.835.817l.466-.885-.007-.004-.459.889zm-3.571-3.107l-.816.578.004.006.811-.585zm-1.994-4.711l.979-.206-.168-.801-.818.007.008 1zm-.455.004l-.008-1-.963.008-.028.962.999.03zm-1.477 5.467l-.871-.491-.003.006.875.485zm-3.808 3.941l-.517-.856-.004.002.521.854zm-12.527-.441l.551-.835-.004-.003-.546.838zm-4.728-5.597l.903-.43-.903.43zm8.237-18.069l-.008-1-1 .008.008 1 1-.008zm1.27 10.672l-.798.603.006.007.792-.61zm8.034-1.362l-.921-.39-.002.006.923.384zm.513-9.391l1-.008-.008-1-1 .008.008 1zm7.818-.065l-.008-1-1 .008.008 1 1-.008zm.59 8.109l-.922.388.922-.388zm1.516 1.965l.581-.814-.003-.002-.578.816zm5.72-.866l-.805-.593-.006.008.811.586zm1.082-9.282l1-.008-.008-1-1 .008.008 1zM1.448 54.184l46.544-.386-.017-2-46.544.386.017 2zm45.536-1.378l.167 20.181 2-.017-.167-20.181-2 .017zm.167 20.181c.029 3.463-.415 6.31-1.29 8.575l1.865.721c.993-2.569 1.455-5.684 1.425-9.312l-2 .017zm-1.291 8.576c-.88 2.291-2.108 3.952-3.649 5.057l1.165 1.626c1.923-1.379 3.362-3.391 4.351-5.965l-1.867-.717zm-3.654 5.06c-1.546 1.122-3.386 1.706-5.564 1.724l.017 2c2.549-.021 4.804-.713 6.722-2.105l-1.175-1.619zm-5.564 1.724c-1.559.013-2.958-.319-4.217-.982l-.932 1.769c1.572.828 3.3 1.228 5.166 1.213l-.017-2zm-4.224-.986c-1.27-.656-2.341-1.585-3.219-2.803l-1.623 1.169a11.03 11.03 0 0 0 3.924 3.411l.918-1.777zm-3.214-2.797c-.862-1.216-1.477-2.656-1.831-4.338l-1.957.412c.403 1.918 1.118 3.618 2.156 5.083l1.631-1.157zm-2.818-5.132l-.455.004.017 2 .455-.004-.017-2zm-1.446.974c-.055 1.849-.508 3.511-1.349 5.006l1.743.981c1.01-1.794 1.542-3.776 1.606-5.928l-1.999-.059zm-1.353 5.012c-.825 1.489-1.97 2.675-3.451 3.569l1.034 1.712c1.776-1.073 3.17-2.514 4.166-4.312l-1.75-.969zm-3.454 3.572c-1.435.875-3.157 1.339-5.203 1.356l.017 2c2.348-.02 4.436-.556 6.227-1.648l-1.041-1.708zm-5.203 1.356c-2.36.019-4.434-.578-6.253-1.778l-1.101 1.669c2.173 1.433 4.64 2.132 7.371 2.109l-.017-2zm-6.257-1.781c-1.822-1.189-3.284-2.904-4.372-5.189l-1.806.859c1.225 2.574 2.916 4.59 5.085 6.005l1.093-1.675zm-4.372-5.189c-1.08-2.269-1.653-5.022-1.68-8.291l-2 .017c.029 3.488.641 6.543 1.874 9.134l1.806-.859zm-1.68-8.291L2.44 53.176l-2 .017.182 21.908 2-.017zm8.014-9.34l.049 5.909 2-.017-.049-5.909-2 .017zm.049 5.909c.018 2.216.44 4.056 1.424 5.357l1.596-1.206c-.61-.807-1.002-2.142-1.019-4.168l-2 .017zm1.429 5.365c1.037 1.347 2.547 1.966 4.359 1.951l-.017-2c-1.309.011-2.172-.411-2.758-1.172l-1.585 1.221zm4.359 1.951c1.247-.01 2.37-.307 3.316-.943l-1.116-1.66c-.56.377-1.282.595-2.217.603l.017 2zm3.316-.943c.933-.627 1.622-1.508 2.075-2.596l-1.846-.769c-.319.766-.771 1.32-1.344 1.705l1.116 1.66zm2.073-2.591c.453-1.07.654-2.313.643-3.699l-2 .017c.01 1.19-.165 2.147-.484 2.902l1.842.78zm.643-3.699l-.05-6.091-2 .017.051 6.091 2-.017zm-1.059-7.082l-9.818.081.017 2 9.818-.081-.017-2zm6.826.943l.043 5.182 2-.017-.043-5.182-2 .017zm.043 5.182c.01 1.21.21 2.319.625 3.307l1.844-.775c-.296-.703-.461-1.546-.469-2.548l-2 .017zm.625 3.307c.417.993 1.032 1.806 1.86 2.393l1.156-1.632c-.482-.342-.879-.838-1.173-1.536l-1.844.775zm1.857 2.391c.869.621 1.896.903 3.028.894l-.017-2c-.778.006-1.376-.183-1.848-.521l-1.163 1.627zm3.028.894c1.711-.014 3.124-.657 4.085-1.987l-1.621-1.171c-.537.744-1.313 1.149-2.48 1.159l.017 2zm4.079-1.979c.919-1.247 1.336-2.778 1.322-4.52l-2 .017c.012 1.409-.322 2.49-.932 3.317l1.61 1.187zm1.322-4.52l-.045-5.363-2 .017.045 5.363 2-.017zm-1.053-6.355l-8.909.074.017 2 8.909-.074-.017-2zm-25.869 73.399l-.487.874.002.001.485-.875zm-8.136-8.092l-.879.477.002.003.878-.48zm-.168-22.953l-.883-.47-.002.005.885.465zm8.023-8.204l-.497-.868-.004.003.501.865zm26.158-.217l.485-.874-.001-.001-.484.875zm8.135 8.069l-.878.478.001.002.878-.48zm.191 22.954l-.886-.464-.002.003.887.461zm-8 8.226l-.5-.866-.002.001.501.865zm-6.137-11.04l-.361-.933-.009.004.37.929zm4.337-3.287l-.823-.567-.007.01.83.557zm-.088-10.567l-.818.575.001.002.817-.577zm-4.39-3.214l.352-.936-.004-.001-.348.937zm-14.113.117l-.361-.932-.009.003.37.929zm-4.337 3.286l-.823-.568-.007.01.83.558zm.088 10.568l-.818.576.001.001.816-.577zm4.39 3.214l.352-.936-.004-.002-.348.938zm7.177 13.054c-5.054.042-9.254-.906-12.645-2.788l-.971 1.749c3.763 2.089 8.323 3.083 13.632 3.039l-.017-2zm-12.643-2.787c-3.406-1.899-5.978-4.463-7.745-7.698l-1.755.959c1.957 3.583 4.808 6.413 8.526 8.486l.974-1.747zm-7.743-7.695c-1.762-3.253-2.668-6.9-2.702-10.963l-2 .016c.036 4.361 1.012 8.335 2.943 11.9l1.759-.953zm-2.702-10.963c-.034-4.093.819-7.769 2.54-11.05l-1.771-.929C1.225 110.003.308 114.009.344 118.4l2-.016zm2.538-11.045c1.728-3.251 4.266-5.852 7.641-7.807l-1.003-1.73c-3.682 2.133-6.492 5.001-8.405 8.599l1.766.939zm7.637-7.805c3.361-1.925 7.53-2.934 12.554-2.976l-.017-2c-5.279.044-9.805 1.106-13.531 3.24l.994 1.736zm12.554-2.976c5.055-.042 9.247.899 12.623 2.766l.968-1.75c-3.748-2.074-8.3-3.06-13.608-3.016l.017 2zm12.622 2.766c3.421 1.899 5.992 4.455 7.742 7.672l1.757-.955c-1.943-3.571-4.796-6.394-8.529-8.466l-.971 1.749zm7.743 7.674c1.776 3.251 2.689 6.912 2.723 11.006l2-.017c-.036-4.391-1.02-8.381-2.968-11.948l-1.755.959zm2.723 11.006c.034 4.061-.819 7.722-2.54 11.004l1.771.929c1.888-3.597 2.806-7.588 2.769-11.95l-2 .017zm-2.542 11.007c-1.697 3.26-4.225 5.866-7.613 7.821l.999 1.732c3.699-2.134 6.505-5.012 8.387-8.63l-1.774-.923zm-7.614 7.822c-3.343 1.937-7.518 2.954-12.572 2.996l.017 2c5.309-.044 9.845-1.114 13.558-3.266l-1.003-1.73zm-12.664-8.003c2.87-.024 5.346-.426 7.398-1.243l-.74-1.858c-1.754.699-3.968 1.078-6.674 1.101l.017 2zm7.389-1.24c2.074-.804 3.699-2.014 4.805-3.661l-1.66-1.115c-.839 1.248-2.105 2.228-3.868 2.911l.723 1.865zm4.798-3.651c1.127-1.633 1.652-3.607 1.633-5.861l-2 .017c.016 1.927-.43 3.477-1.279 4.709l1.646 1.135zm1.633-5.861c-.019-2.254-.576-4.224-1.727-5.852l-1.633 1.155c.873 1.234 1.345 2.787 1.36 4.714l2-.017zm-1.726-5.85c-1.133-1.609-2.774-2.791-4.856-3.574l-.704 1.872c1.779.669 3.064 1.631 3.925 2.853l1.636-1.151zm-4.86-3.575c-2.062-.767-4.543-1.119-7.411-1.095l.017 2c2.708-.023 4.93.313 6.698.969l.697-1.874zm-7.411-1.095c-2.868.023-5.349.417-7.412 1.217l.723 1.865c1.773-.688 3.999-1.06 6.706-1.082l-.017-2zm-7.421 1.22c-2.053.818-3.671 2.025-4.79 3.647l1.646 1.136c.857-1.243 2.131-2.227 3.884-2.925l-.74-1.858zm-4.796 3.657c-1.106 1.646-1.622 3.622-1.603 5.874l2-.017c-.016-1.93.424-3.492 1.263-4.741l-1.66-1.116zm-1.603 5.874c.019 2.251.567 4.213 1.703 5.828l1.636-1.152c-.857-1.217-1.323-2.762-1.339-4.693l-2 .017zm1.705 5.829c1.146 1.622 2.787 2.804 4.859 3.574l.697-1.875c-1.758-.653-3.045-1.613-3.922-2.853l-1.633 1.154zm4.855 3.573c2.078.782 4.567 1.142 7.438 1.119l-.017-2c-2.705.022-4.934-.32-6.717-.991l-.704 1.872zm31.086 46.316l1-.008-.008-1-1 .008.008 1zm.105 12.636l.008 1 1-.008-.008-1-1 .008zm-39.043-2.222l.541-.841-.001-.001-.54.842zm-6.035-6.995l-.904.427.002.004.902-.431zm-.175-21.045l-.909-.416-.002.004.911.412zm5.919-7.095l-.548-.836-.006.003.554.833zm39.001-2.823l1-.009-.008-1-1 .009.008 1zm.105 12.635l.008 1 1-.008-.008-1-1 .008zm-32.582 1.225l-.496-.868-.005.003.501.865zm-2.614 2.658l-.874-.486-.003.005.877.481zm.064 7.727l-.866.501.866-.501zm2.658 2.615l-.486.874.005.002.481-.876zm31.598.692l.105 12.636 2-.016-.105-12.636-2 .016zm1.096 11.628l-29.817.247.017 2 29.817-.247-.017-2zm-29.817.247c-3.38.028-6.258-.754-8.676-2.31l-1.082 1.682c2.791 1.796 6.064 2.659 9.775 2.628l-.017-2zm-8.677-2.311c-2.42-1.551-4.312-3.735-5.673-6.584l-1.805.862c1.507 3.157 3.639 5.637 6.398 7.406l1.08-1.684zm-5.671-6.58c-1.346-2.849-2.05-6.196-2.082-10.064l-2 .017c.034 4.101.782 7.743 2.274 10.901l1.808-.854zm-2.082-10.064c-.032-3.9.617-7.272 1.915-10.142l-1.822-.824c-1.44 3.183-2.126 6.852-2.092 10.983l2-.017zm1.913-10.138c1.313-2.872 3.169-5.087 5.563-6.678l-1.107-1.666c-2.73 1.815-4.82 4.33-6.274 7.512l1.819.832zm5.557-6.674c2.393-1.568 5.261-2.385 8.644-2.413l-.017-2c-3.708.031-6.963.931-9.723 2.74l1.096 1.673zm8.644-2.413l29.817-.248-.017-1.999-29.817.247.017 2zm28.809-1.239l.105 12.636 2-.017-.105-12.636-2 .017zm1.096 11.627l-28.726.239.017 2 28.726-.239-.017-2zm-28.726.239c-1.592.013-3.048.379-4.343 1.118l.992 1.737c.967-.553 2.081-.845 3.368-.855l-.017-2zm-4.348 1.121c-1.272.736-2.272 1.753-2.987 3.037l1.748.973a5.88 5.88 0 0 1 2.242-2.279l-1.002-1.731zm-2.99 3.042c-.718 1.307-1.059 2.769-1.046 4.361l2-.016c-.011-1.287.263-2.406.799-3.382l-1.753-.963zm-1.046 4.361c.013 1.605.378 3.064 1.121 4.348l1.731-1.001c-.548-.948-.841-2.059-.852-3.363l-2 .016zm1.121 4.348a7.89 7.89 0 0 0 3.037 2.988l.973-1.748a5.89 5.89 0 0 1-2.279-2.241l-1.731 1.001zm3.042 2.99c1.307.718 2.769 1.06 4.361 1.046l-.017-2c-1.287.011-2.405-.263-3.382-.799l-.963 1.753zm4.361 1.046l28.726-.238-.017-2-28.726.238.017 2zm18.681 16.215l-.008-1-1 .009.008 1 1-.009zm10.182-.084l1-.009-.008-1-1 .009.008 1zm.336 40.453l.008 1 1-.008-.008-1-1 .008zm-10.181.084l-1 .009.008 1 1-.009-.008-1zm-.116-13.999l1-.008-.008-1-1 .008.008 1zm-36.362.302l-1 .008.008 1 1-.009-.008-.999zm-.103-12.455l-.008-1-1 .009.008 1 1-.009zm36.362-.301l.008 1 1-.009-.008-1-1 .009zm-.108-13l10.182-.084-.017-2-10.181.084.016 2zm9.173-1.076l.336 40.453 2-.016-.336-40.454-2 .017zm1.327 39.445l-10.181.084.017 2 10.181-.084-.017-2zm-9.173 1.076l-.116-13.999-2 .016.116 14 2-.017zm-1.124-14.991l-36.362.302.017 1.999 36.362-.301-.017-2zm-35.354 1.293l-.103-12.454-2 .017.103 12.454 2-.017zm-1.095-11.446l36.362-.301-.017-2-36.362.301.017 2zm37.354-1.31l-.116-13.999-2 .017.116 13.999 2-.017zm9.775 71.427l1-.008-.008-1-1 .009.008.999zm.105 12.636l.008 1 1-.008-.008-1-1 .008zm-39.042-2.221l.541-.841-.001-.001-.54.842zm-6.035-6.996l-.904.427.002.004.902-.431zm-.175-21.045l-.909-.415-.002.003.911.412zm5.919-7.094l-.548-.837-.006.004.554.833zm39.001-2.824l1-.008-.008-1-1 .008.008 1zm.105 12.636l.008 1 1-.008-.008-1-1 .008zm-32.582 1.225l-.496-.869-.005.003.501.866zm-2.614 2.658l-.874-.486-.003.005.877.481zm.064 7.727l-.866.501.866-.501zm2.658 2.614l-.486.874.005.003.481-.877zm31.598.693l.105 12.636 2-.017-.105-12.636-2 .017zm1.096 11.627l-29.817.248.017 2 29.817-.248-.017-2zm-29.817.248c-3.38.028-6.258-.755-8.676-2.31l-1.082 1.682c2.791 1.795 6.064 2.659 9.775 2.628l-.017-2zm-8.677-2.311c-2.42-1.552-4.312-3.735-5.673-6.585l-1.805.862c1.507 3.157 3.639 5.637 6.398 7.407l1.079-1.684zm-5.671-6.581c-1.346-2.849-2.05-6.195-2.082-10.063l-2 .016c.034 4.101.782 7.743 2.274 10.901l1.808-.854zm-2.082-10.063c-.032-3.9.617-7.273 1.915-10.142l-1.822-.825c-1.44 3.184-2.126 6.853-2.092 10.983l2-.016zm1.913-10.139c1.313-2.871 3.169-5.086 5.563-6.678l-1.107-1.665c-2.73 1.815-4.82 4.33-6.274 7.512l1.819.831zm5.557-6.674c2.393-1.568 5.261-2.385 8.644-2.413l-.017-2c-3.708.031-6.963.932-9.723 2.74l1.096 1.673zm8.644-2.413l29.817-.247-.017-2-29.817.247.017 2zm28.809-1.239l.105 12.636 2-.016-.105-12.636-2 .016zm1.096 11.628l-28.726.238.017 2 28.726-.238-.017-2zm-28.726.238c-1.592.013-3.048.379-4.343 1.118l.992 1.737c.967-.552 2.081-.844 3.368-.855l-.017-2zm-4.348 1.121a7.88 7.88 0 0 0-2.987 3.038l1.747.972c.539-.968 1.282-1.723 2.241-2.279l-1.002-1.731zm-2.99 3.043c-.718 1.306-1.059 2.769-1.046 4.361l2-.017c-.011-1.287.263-2.405.799-3.382l-1.753-.962zm-1.046 4.361c.013 1.605.378 3.064 1.121 4.348l1.731-1.002c-.548-.948-.841-2.059-.852-3.363l-2 .017zm1.121 4.348c.736 1.272 1.753 2.272 3.037 2.987l.973-1.747a5.89 5.89 0 0 1-2.279-2.242l-1.731 1.002zm3.042 2.99c1.307.718 2.769 1.059 4.361 1.046l-.017-2c-1.287.011-2.405-.263-3.382-.799l-.963 1.753zm4.361 1.046l28.726-.239-.017-1.999-28.726.238.017 2zm14.536 42.614l-.088-.997-.92.082.008.923 1-.008zm3.531-1.734l-.768-.641-.005.006.773.635zm.731-7.779l-.935.355.004.009.931-.364zm-1.265-1.808l.59-.808h0l-.59.808zm-1.823-.599l-.046.999.016.001h.016l.014-1zm-1.52.308l-.455-.89-.018.009-.018.01.49.871zm-1.195 1.147l-.822-.57-.006.008-.006.008.833.554zm-1.687 4.855l.98.201.002-.008-.981-.193zm-.786 3.825l-.98-.202v.003l.98.199zm-2.104 6.631l-.902-.431.902.431zm-3.122 4.526l-.699-.715-.005.005.704.71zm-4.024 2.602l-.349-.937-.008.003.358.934zm-4.902.904l.003 1h.014l-.017-1zm-7.792-2.231l-.574.819.574-.819zm-4.895-6.459l.928-.374-.001-.001-.927.375zm-.035-20.705l-.932-.363-.001.001.932.362zm5.464-7.046l-.558-.83-.006.004.564.826zm9.57-2.58l1-.008-.008-1.004-1.004.013.012.999zm.1 12l.061.998.947-.058-.008-.948-1 .008zm-3.582 1.098l-.556-.831.556.831zm-2.182 2.7l-.921-.391-.002.005.922.386zm-.187 7.547l-.936.352.936-.352zm1.403 2.057l-.616.788.616-.788zm2.029.71l-.012 1 .021.001.021-.001-.029-1zm1.858-.72l-.634-.773-.012.01-.011.01.657.753zm1.436-2.193l-.921-.39-.005.012.926.378zm1.193-4.124l.979.206.001-.003-.979-.203zm.961-4.645l-.979-.203v.001l.979.202zm4.396-9.786l-.752-.659-.004.005.756.654zm8.584-3.594l.004 1 .009-.001-.014-.999zm7.769 2.299l.578-.816-.001-.001-.577.817zm5.26 6.615l.913-.407v-.002l-.912.409zm.139 19.545l-.912-.409.912.409zm-5.265 6.385l-.551-.834-.006.004.558.83zm-7.958 2.339l-1 .008.008 1.005 1.005-.013-.013-1zm-.012-11.094c1.738-.154 3.179-.834 4.216-2.095l-1.545-1.27c-.644.783-1.557 1.258-2.847 1.372l.176 1.993zm4.211-2.09c1.057-1.266 1.485-3.071 1.467-5.227l-2 .016c.016 1.935-.379 3.183-1.003 3.93l1.536 1.281zm1.467-5.227c-.011-1.374-.188-2.573-.573-3.557l-1.862.729c.265.678.425 1.612.435 2.844l2-.016zm-.569-3.547c-.357-.94-.877-1.726-1.61-2.261l-1.179 1.616c.334.244.657.663.92 1.355l1.87-.71zm-1.61-2.261c-.707-.516-1.517-.778-2.399-.791l-.028 2c.482.007.887.143 1.247.407l1.179-1.616zm-2.367-.79c-.715-.032-1.398.099-2.02.417l.909 1.781c.282-.144.614-.218 1.02-.2l.091-1.998zm-2.056.436c-.599.337-1.102.836-1.526 1.448l1.643 1.14c.295-.425.587-.69.864-.845l-.981-1.743zm-1.538 1.464c-.404.608-.75 1.352-1.049 2.209l1.888.66c.263-.754.543-1.334.827-1.762l-1.666-1.107zm-1.049 2.209c-.301.862-.561 1.866-.786 3.007l1.962.386c.212-1.075.45-1.984.712-2.733l-1.888-.66zm-.784 2.998l-.787 3.825 1.959.403.786-3.825-1.959-.403zm-.787 3.828c-.512 2.522-1.192 4.65-2.027 6.399l1.805.862c.922-1.932 1.646-4.225 2.182-6.863l-1.96-.398zm-2.027 6.399c-.839 1.757-1.816 3.163-2.919 4.242l1.399 1.43c1.302-1.274 2.406-2.885 3.325-4.81l-1.805-.862zm-2.923 4.247c-1.091 1.081-2.313 1.869-3.67 2.375l.699 1.874c1.635-.61 3.095-1.557 4.378-2.829l-1.408-1.42zm-3.678 2.378c-1.375.527-2.892.81-4.561.838l.034 2c1.877-.032 3.628-.352 5.243-.971l-.716-1.867zm-4.547.838c-2.891.01-5.277-.69-7.214-2.049l-1.149 1.637c2.331 1.636 5.139 2.423 8.369 2.412l-.007-2zm-7.214-2.049c-1.951-1.37-3.472-3.356-4.541-6.015l-1.856.747c1.19 2.958 2.932 5.279 5.248 6.905l1.149-1.637zm-4.542-6.016c-1.07-2.648-1.638-5.883-1.67-9.733l-2 .016c.033 4.029.627 7.526 1.816 10.466l1.854-.749zm-1.67-9.733c-.033-3.949.524-7.354 1.64-10.236l-1.865-.723c-1.227 3.168-1.809 6.834-1.775 10.975l2-.016zm1.639-10.235c1.105-2.837 2.805-5.018 5.096-6.582l-1.128-1.652c-2.651 1.81-4.593 4.327-5.832 7.509l1.864.725zm5.091-6.578c2.283-1.536 5.267-2.364 9.024-2.41l-.024-1.999c-4.031.049-7.426.94-10.116 2.749l1.116 1.66zm8.012-3.401l.1 11.999 2-.016-.1-12-2 .017zm1.038 10.993c-1.56.096-2.934.502-4.076 1.265l1.111 1.662c.787-.525 1.8-.852 3.088-.931l-.123-1.996zm-4.076 1.265c-1.14.761-1.987 1.821-2.547 3.14l1.841.782c.421-.992 1.028-1.732 1.817-2.26l-1.111-1.662zm-2.549 3.145c-.555 1.324-.807 2.853-.793 4.559l2-.016c-.012-1.505.212-2.753.638-3.771l-1.845-.772zm-.793 4.559c.012 1.424.197 2.676.592 3.726l1.872-.704c-.287-.762-.453-1.764-.464-3.038l-2 .016zm.592 3.726c.387 1.031.949 1.887 1.724 2.493l1.232-1.576c-.414-.324-.789-.839-1.083-1.621l-1.872.704zm1.724 2.493a4.27 4.27 0 0 0 2.633.922l.023-2a2.27 2.27 0 0 1-1.425-.498l-1.232 1.576zm2.674.922c.938-.028 1.781-.352 2.485-.966l-1.314-1.507a1.88 1.88 0 0 1-1.23.474l.059 1.999zm2.462-.946c.724-.593 1.282-1.496 1.728-2.589l-1.852-.756c-.385.944-.785 1.503-1.144 1.798l1.268 1.547zm1.724-2.578c.466-1.102.88-2.546 1.251-4.307l-1.957-.412c-.358 1.7-.74 3.005-1.136 3.94l1.842.779zm1.251-4.31l.962-4.645-1.958-.405-.962 4.644 1.958.406zm.961-4.644c.836-4.015 2.245-7.105 4.174-9.336l-1.513-1.308c-2.213 2.56-3.735 5.995-4.619 10.237l1.958.407zm4.169-9.331c1.868-2.133 4.439-3.239 7.836-3.253l-.008-2c-3.876.016-7.028 1.305-9.332 3.935l1.504 1.318zm7.846-3.254c2.762-.037 5.141.676 7.179 2.116l1.154-1.633c-2.413-1.705-5.213-2.525-8.36-2.482l.027 1.999zm7.178 2.116c2.077 1.471 3.723 3.528 4.925 6.209l1.825-.819c-1.329-2.965-3.19-5.319-5.594-7.022l-1.156 1.632zm4.925 6.207c1.201 2.691 1.829 5.811 1.858 9.38l2-.016c-.032-3.794-.7-7.194-2.032-10.179l-1.827.815zm1.858 9.38c.03 3.648-.555 6.755-1.718 9.348l1.825.819c1.306-2.912 1.925-6.316 1.893-10.183l-2 .016zm-1.718 9.348c-1.166 2.599-2.804 4.572-4.904 5.96l1.103 1.669c2.45-1.62 4.323-3.903 5.626-6.81l-1.825-.819zm-4.911 5.964c-2.08 1.398-4.539 2.131-7.414 2.169l.027 2c3.215-.043 6.063-.869 8.503-2.509l-1.116-1.66zm-6.4 3.161l-.1-12.091-2 .017.1 12.09 2-.016z" fill="#05c2df" fill-opacity=".2"/></svg>