<svg xmlns="http://www.w3.org/2000/svg" width="52" height="334" fill="none" xmlns:v="https://vecta.io/nano"><path d="M50.623 319.611l1-.008-.006-.743-.713-.209-.281.96zm.113 13.636l-.306.952 1.317.423-.011-1.383-1 .008zM4.065 318.27l-1 .008.006.723.688.221.306-.952zm-.143-17.272l-.321-.947-.685.232.006.723 1-.008zm46.416-15.749l1-.009-.011-1.383-1.31.445.321.947zm.113 13.636l.297.954.709-.22-.006-.743-1 .009zM16.81 309.346l-.297-.955-.709.22.006.743 1-.008zm.003.363l-1 .009.006.742.713.209.281-.96zm15.469 12.6l-1 .008.008 1 1-.008-.008-1zm-.213-25.636l-.008-1-1 .009.008 1 1-.009zm9.454-.078l1-.008-.008-1-1 .008.008 1zm.213 25.635l.008 1 1-.008-.008-1-1 .008zm7.888-2.611l.113 13.636 2-.016-.113-13.636-2 .016zm1.419 12.676L4.371 317.318l-.611 1.904 46.671 14.977.611-1.904zM5.065 318.262l-.143-17.272-2 .016.143 17.272 2-.016zm-.822-16.317l46.416-15.749-.643-1.894-46.416 15.749.643 1.894zm45.095-16.688l.113 13.636 2-.017-.113-13.636-2 .017zm.816 12.673l-33.642 10.461.594 1.91 33.642-10.462-.594-1.909zM15.81 309.354l.003.364 2-.017-.003-.364-2 .017zm.722 1.315l33.811 9.902.562-1.92-33.811-9.901-.562 1.919zm16.75 11.631l-.213-25.635-2 .017.213 25.635 2-.017zm-1.204-24.627l9.454-.078-.017-2-9.454.078.017 2zm8.446-1.07l.213 25.636 2-.017-.213-25.635-2 .016zm1.204 24.627l-9.454.079.017 2 9.454-.079-.017-2zm8.574-40.464l.008 1 1-.009-.008-.999-1 .008zm-46.544.386l-1 .008.008 1 1-.008-.008-1zm1.19-29.125l.933.361.001-.002-.933-.359zm4-5.51l.583.813.005-.004-.587-.809zm10.835-.817l-.466.884.007.004.459-.888zm3.571 3.106l.816-.578-.004-.006-.811.584zm1.994 4.711l-.979.206.168.801.818-.007-.008-1zm.455-.003l.008 1 .963-.008.028-.963-.999-.029zm1.477-5.467l.871.49.003-.006-.875-.484zm3.808-3.941l.517.856.004-.002-.521-.854zm12.527.441l-.551.835.005.003.546-.838zm4.728 5.598l-.903.429.903-.429zm-8.237 18.069l.008 1 1-.009-.008-1-1 .009zm-1.27-10.672l.798-.603-.005-.007-.792.61zm-8.034 1.362l.921.39.002-.005-.923-.385zm-.513 9.391l-1 .008.008 1 1-.008-.008-1zm-7.818.065l.008 1 1-.008-.008-1-1 .008zm-.59-8.109l.922-.388-.922.388zm-1.516-1.965l-.581.814.003.002.578-.816zm-5.72.866l.805.593.006-.008-.811-.585zm-1.082 9.282l-1 .008.008 1 1-.008-.008-1zm36.732 11.332l-46.544.386.017 2 46.544-.386-.017-2zm-45.536 1.378l-.167-20.181-2 .016.167 20.181 2-.016zm-.167-20.181c-.029-3.463.415-6.31 1.29-8.575l-1.865-.721c-.993 2.569-1.455 5.684-1.425 9.312l2-.016zm1.291-8.577c.88-2.29 2.108-3.952 3.649-5.056l-1.165-1.626c-1.923 1.379-3.362 3.391-4.351 5.965l1.867.717zm3.654-5.06c1.546-1.122 3.386-1.706 5.564-1.724l-.017-2c-2.549.021-4.804.714-6.722 2.105l1.175 1.619zm5.564-1.724c1.559-.013 2.958.319 4.217.982l.932-1.769c-1.572-.828-3.3-1.228-5.166-1.213l.017 2zm4.224.986c1.27.656 2.342 1.585 3.219 2.803l1.623-1.169c-1.054-1.463-2.364-2.605-3.924-3.411l-.918 1.777zm3.214 2.797c.862 1.216 1.477 2.656 1.831 4.338l1.957-.411c-.403-1.918-1.118-3.619-2.157-5.084l-1.631 1.157zm2.818 5.132l.455-.003-.017-2-.454.003.017 2zm1.446-.974c.055-1.849.508-3.511 1.349-5.006l-1.743-.981c-1.01 1.794-1.542 3.776-1.606 5.928l1.999.059zm1.353-5.012c.825-1.489 1.97-2.675 3.45-3.569l-1.034-1.712c-1.776 1.072-3.17 2.513-4.166 4.312l1.75.969zm3.454-3.571c1.435-.875 3.157-1.339 5.203-1.356l-.017-2c-2.348.019-4.436.556-6.227 1.648l1.041 1.708zm5.203-1.356c2.36-.02 4.434.578 6.253 1.778l1.101-1.669c-2.173-1.434-4.64-2.132-7.371-2.109l.017 2zm6.257 1.781c1.822 1.188 3.284 2.904 4.372 5.189l1.806-.859c-1.225-2.574-2.916-4.591-5.085-6.005l-1.093 1.675zm4.372 5.189c1.08 2.269 1.653 5.023 1.68 8.292l2-.017c-.029-3.488-.641-6.543-1.874-9.134l-1.806.859zm1.68 8.292l.182 21.908 2-.016-.182-21.909-2 .017zm-8.014 9.339l-.049-5.909-2 .017.049 5.909 2-.017zm-.049-5.909c-.018-2.215-.44-4.056-1.424-5.357l-1.596 1.206c.61.807 1.002 2.142 1.019 4.168l2-.017zm-1.429-5.364c-1.038-1.347-2.547-1.966-4.359-1.951l.017 1.999c1.309-.01 2.172.411 2.758 1.172l1.584-1.22zm-4.359-1.951c-1.247.01-2.37.307-3.316.942l1.115 1.661c.561-.377 1.282-.596 2.217-.604l-.017-1.999zm-3.316.942c-.933.628-1.622 1.508-2.075 2.597l1.846.769c.319-.767.771-1.32 1.344-1.705l-1.115-1.661zm-2.073 2.591c-.453 1.07-.654 2.313-.643 3.699l2-.017c-.01-1.19.165-2.147.484-2.902l-1.842-.78zm-.643 3.699l.05 6.09 2-.016-.051-6.091-2 .017zm1.059 7.082l9.818-.081-.017-2-9.818.081.017 2zm-6.826-.943l-.043-5.182-2 .017.043 5.181 2-.016zm-.043-5.182c-.01-1.21-.21-2.319-.625-3.307l-1.844.775c.296.704.461 1.547.469 2.549l2-.017zm-.625-3.307c-.417-.992-1.032-1.806-1.86-2.393l-1.156 1.632c.482.342.879.838 1.173 1.536l1.844-.775zm-1.857-2.39c-.869-.621-1.896-.903-3.028-.894l.017 2c.778-.006 1.375.183 1.848.521l1.163-1.627zm-3.028-.894c-1.711.014-3.124.658-4.085 1.987l1.621 1.171c.537-.743 1.313-1.148 2.48-1.158l-.017-2zm-4.079 1.979c-.919 1.247-1.336 2.778-1.322 4.521l2-.017c-.012-1.409.322-2.49.932-3.317l-1.61-1.187zm-1.322 4.521l.044 5.363 2-.016-.044-5.364-2 .017zm1.053 6.355l8.909-.074-.017-2-8.909.074.017 2zm25.869-73.399l.487-.874-.002-.001-.485.875zm8.136 8.092l.879-.477-.002-.003-.878.48zm.168 22.954l.883.469.002-.005-.886-.464zm-8.023 8.203l.497.868.004-.003-.501-.865zm-26.158.217l-.485.874.001.001.484-.875zm-8.135-8.069l.878-.478-.001-.002-.878.48zm-.19-22.954l.885.465.002-.003-.887-.462zm8-8.226l.5.866.002-.001-.501-.865zm6.137 11.041l.361.932.009-.003-.37-.929zm-4.336 3.286l.823.568.007-.01-.83-.558zm.088 10.568l.818-.576-.001-.002-.816.578zm4.39 3.213l-.352.936.004.002.348-.938zm14.113-.117l.361.933.009-.004-.37-.929zm4.337-3.286l.823.568.007-.01-.83-.558zm-.088-10.568l.818-.575-.001-.002-.816.577zm-4.39-3.213l-.352.935.004.002.348-.937zm-7.177-13.055c5.054-.042 9.253.906 12.645 2.788l.971-1.749c-3.763-2.088-8.323-3.083-13.632-3.039l.017 2zm12.643 2.787c3.406 1.899 5.978 4.463 7.745 7.698l1.755-.959c-1.957-3.583-4.808-6.413-8.526-8.486l-.974 1.747zm7.743 7.695c1.762 3.253 2.668 6.901 2.702 10.964l2-.017c-.036-4.361-1.012-8.335-2.943-11.9l-1.759.953zm2.702 10.964c.034 4.093-.819 7.769-2.54 11.049l1.771.929c1.888-3.598 2.805-7.604 2.769-11.995l-2 .017zm-2.538 11.044c-1.728 3.251-4.266 5.852-7.641 7.808l1.003 1.73c3.682-2.133 6.492-5.001 8.405-8.599l-1.766-.939zm-7.637 7.805c-3.361 1.925-7.53 2.935-12.554 2.976l.017 2c5.279-.044 9.805-1.106 13.531-3.24l-.994-1.736zm-12.554 2.976c-5.056.042-9.247-.899-12.623-2.766l-.968 1.75c3.748 2.074 8.3 3.06 13.608 3.016l-.017-2zm-12.622-2.765c-3.421-1.9-5.992-4.456-7.742-7.673l-1.757.956c1.943 3.57 4.796 6.393 8.529 8.465l.971-1.748zm-7.743-7.675c-1.776-3.251-2.689-6.912-2.723-11.005l-2 .016c.036 4.392 1.02 8.382 2.968 11.948l1.755-.959zM3.58 215.947c-.034-4.062.818-7.723 2.54-11.004l-1.771-.93c-1.888 3.598-2.806 7.588-2.769 11.95l2-.016zm2.542-11.007c1.697-3.261 4.225-5.867 7.613-7.822l-.999-1.732c-3.699 2.134-6.505 5.013-8.388 8.63l1.774.924zm7.614-7.823c3.343-1.937 7.518-2.954 12.572-2.996l-.017-2c-5.309.044-9.845 1.114-13.558 3.266l1.003 1.73zm12.664 8.004c-2.87.023-5.346.425-7.398 1.243l.74 1.858c1.754-.699 3.968-1.079 6.674-1.101l-.017-2zm-7.389 1.239c-2.074.804-3.699 2.015-4.805 3.661l1.66 1.116c.839-1.249 2.105-2.229 3.868-2.912l-.723-1.865zm-4.798 3.651c-1.127 1.633-1.652 3.607-1.633 5.861l2-.017c-.016-1.927.43-3.477 1.279-4.708l-1.646-1.136zm-1.633 5.861c.019 2.255.577 4.224 1.727 5.852l1.633-1.155c-.873-1.234-1.344-2.787-1.36-4.714l-2 .017zm1.726 5.85c1.133 1.61 2.775 2.791 4.856 3.574l.704-1.872c-1.779-.669-3.064-1.63-3.925-2.853l-1.636 1.151zm4.86 3.576c2.062.766 4.543 1.118 7.411 1.095l-.017-2c-2.707.022-4.93-.314-6.698-.97l-.697 1.875zm7.411 1.095c2.868-.024 5.349-.418 7.412-1.217l-.723-1.865c-1.773.687-3.999 1.059-6.706 1.082l.017 2zm7.421-1.221c2.053-.818 3.671-2.025 4.789-3.647l-1.646-1.136c-.858 1.243-2.131 2.227-3.884 2.925l.74 1.858zm4.796-3.657c1.106-1.646 1.622-3.622 1.603-5.874l-2 .017c.016 1.93-.424 3.492-1.263 4.741l1.66 1.116zm1.603-5.874c-.019-2.251-.567-4.213-1.703-5.827l-1.636 1.151c.857 1.218 1.323 2.762 1.339 4.693l2-.017zm-1.705-5.829c-1.146-1.622-2.787-2.804-4.859-3.574l-.696 1.875c1.758.653 3.045 1.613 3.922 2.854l1.633-1.155zm-4.855-3.572c-2.078-.782-4.567-1.143-7.438-1.119l.017 2c2.705-.023 4.934.32 6.717.99l.704-1.871zM2.752 159.923l-1 .008.008 1 1-.008-.008-1zm-.105-12.636l-.008-1-1 .009.008 1 1-.009zm39.043 2.222l-.541.841.001.001.54-.842zm6.035 6.996l.904-.428-.002-.003-.902.431zm.175 21.044l.909.416.002-.004-.911-.412zm-5.919 7.095l.548.837.006-.004-.554-.833zM2.98 187.468l-1 .008.008 1 1-.008-.008-1zm-.105-12.636l-.008-1-1 .008.008 1 1-.008zm32.582-1.225l.496.868.005-.003-.501-.865zm2.614-2.658l.874.486.003-.005-.876-.481zm-.064-7.727l.866-.501-.866.501zm-2.658-2.615l.486-.873-.005-.003-.481.876zm-31.598-.692l-.105-12.636-2 .017.105 12.635 2-.016zm-1.096-11.628l29.817-.247-.017-2-29.817.247.017 2zm29.817-.247c3.38-.028 6.258.754 8.676 2.31l1.082-1.682c-2.791-1.796-6.063-2.659-9.775-2.628l.017 2zm8.677 2.311c2.42 1.551 4.312 3.735 5.673 6.584l1.805-.861c-1.508-3.158-3.639-5.638-6.398-7.407l-1.08 1.684zm5.671 6.581c1.346 2.849 2.05 6.195 2.082 10.063l2-.016c-.034-4.102-.782-7.744-2.274-10.902l-1.808.855zm2.082 10.063c.032 3.9-.617 7.272-1.915 10.142l1.822.824c1.44-3.183 2.127-6.852 2.092-10.982l-2 .016zm-1.913 10.138c-1.313 2.872-3.169 5.087-5.563 6.678l1.107 1.666c2.73-1.815 4.819-4.33 6.274-7.512l-1.819-.832zm-5.557 6.675c-2.393 1.567-5.261 2.384-8.644 2.412l.017 2c3.707-.03 6.962-.931 9.723-2.739l-1.096-1.673zm-8.644 2.412l-29.817.248.017 2 29.817-.248-.017-2zM3.98 187.459l-.105-12.636-2 .017.105 12.636 2-.017zm-1.096-11.627l28.726-.239-.017-2-28.726.239.017 2zm28.726-.239c1.592-.013 3.048-.378 4.343-1.118l-.992-1.737c-.967.553-2.081.845-3.368.855l.017 2zm4.348-1.121c1.272-.736 2.273-1.753 2.987-3.037l-1.748-.973a5.88 5.88 0 0 1-2.241 2.279l1.002 1.731zm2.99-3.042c.718-1.307 1.059-2.769 1.046-4.361l-2 .017c.011 1.286-.263 2.405-.799 3.381l1.753.963zm1.046-4.361c-.013-1.605-.378-3.064-1.121-4.348l-1.731 1.002c.548.947.841 2.059.852 3.363l2-.017zm-1.121-4.348a7.88 7.88 0 0 0-3.037-2.987l-.973 1.747a5.88 5.88 0 0 1 2.279 2.242l1.731-1.002zm-3.042-2.99c-1.307-.718-2.769-1.059-4.361-1.046l.017 2c1.287-.011 2.405.263 3.382.799l.963-1.753zm-4.361-1.046l-28.726.238.017 2 28.726-.238-.017-2zM12.789 142.47l.008 1 1-.008-.008-1-1 .008zm-10.181.084l-1 .009.008 1 1-.009-.008-1zm-.336-40.453l-.008-1-1 .009.008 1 1-.009zm10.182-.084l1-.008-.008-1-1 .008.008 1zm.116 13.999l-1 .009.008 1 1-.009-.008-1zm36.362-.301l1-.009-.008-1-1 .009.008 1zm.103 12.454l.008 1 1-.009-.008-1-1 .009zm-36.362.301l-.008-.999-1 .008.008 1 1-.009zm.108 13l-10.181.084.017 2 10.182-.084-.017-2zm-9.173 1.076l-.336-40.453-2 .017.336 40.453 2-.017zM2.28 103.101l10.181-.084-.016-2-10.182.084.017 2zm9.173-1.076l.116 14 2-.017-.116-13.999-2 .016zm1.124 14.991l36.362-.301-.017-2-36.362.301.017 2zm35.354-1.293l.103 12.454 2-.017-.103-12.454-2 .017zm1.095 11.446l-36.362.302.017 1.999 36.362-.301-.017-2zm-37.354 1.31l.116 13.999 2-.016-.116-14-2 .017zM1.898 57.052l-1 .008.008 1 1-.008-.008-1zm-.105-12.636l-.008-1-1 .008.008 1 1-.008zm39.043 2.222l-.541.841h.001l.54-.842zm6.035 6.996l.904-.427-.002-.004-.902.431zm.175 21.045l.91.416.002-.004-.911-.412zm-5.919 7.095l.548.837.006-.004-.554-.833zM2.127 84.596l-1 .008.008 1 1-.008-.008-1zM2.022 71.96l-.008-1-1 .008.008 1 1-.008zm32.582-1.225l.496.868.005-.003-.501-.866zm2.614-2.658l.874.486.003-.005-.876-.481zm-.064-7.727l.865-.501-.865.501zm-2.658-2.614l.486-.874-.005-.003-.481.877zm-31.598-.693l-.105-12.636-2 .017.105 12.636 2-.017zM1.801 45.416l29.817-.247-.017-2-29.817.247.017 2zm29.817-.247c3.38-.028 6.258.755 8.676 2.31l1.082-1.682c-2.791-1.795-6.064-2.659-9.775-2.628l.017 2zm8.677 2.311c2.42 1.552 4.312 3.735 5.673 6.585l1.805-.862c-1.508-3.157-3.639-5.637-6.398-7.407l-1.079 1.684zm5.671 6.581c1.346 2.849 2.05 6.195 2.082 10.063l2-.017c-.034-4.101-.782-7.743-2.274-10.901l-1.808.854zm2.082 10.063c.032 3.9-.617 7.272-1.914 10.142l1.822.824c1.44-3.183 2.126-6.853 2.092-10.983l-2 .017zm-1.913 10.138c-1.313 2.872-3.169 5.086-5.563 6.678l1.107 1.665c2.73-1.815 4.82-4.33 6.274-7.512l-1.819-.832zm-5.557 6.674c-2.393 1.568-5.261 2.385-8.644 2.413l.017 2c3.707-.031 6.963-.931 9.723-2.74l-1.096-1.673zm-8.644 2.413l-29.817.247.017 2 29.817-.247-.017-2zM3.127 84.588l-.105-12.636-2 .017.105 12.636 2-.017zM2.03 72.96l28.726-.238-.017-2-28.726.238.017 2zm28.726-.238c1.592-.013 3.048-.379 4.343-1.118l-.992-1.737c-.967.552-2.081.844-3.368.855l.017 2zm4.348-1.121c1.272-.736 2.273-1.753 2.987-3.037l-1.748-.973c-.539.969-1.282 1.724-2.241 2.279l1.002 1.731zm2.99-3.042c.718-1.307 1.059-2.769 1.046-4.361l-2 .017c.011 1.287-.263 2.406-.799 3.382l1.753.963zm1.046-4.361c-.013-1.605-.378-3.064-1.121-4.348l-1.731 1.002c.548.948.841 2.059.852 3.363l2-.017zm-1.121-4.348c-.736-1.272-1.753-2.273-3.037-2.987l-.973 1.748c.969.539 1.724 1.282 2.279 2.242l1.731-1.002zm-3.042-2.99c-1.307-.718-2.769-1.059-4.361-1.046l.017 2c1.287-.011 2.406.263 3.382.799l.963-1.753zm-4.361-1.046l-28.726.238.017 2 28.726-.238-.017-2zM16.08 13.2l.088.996.92-.081-.008-.923-1 .008zm-3.531 1.734l.768.641.005-.006-.773-.635zm-.731 7.779l.935-.355-.004-.009-.931.364zm1.265 1.808l-.59.808h0l.59-.808zm1.823.599l.046-.999-.016-.001h-.016l-.014 1zm1.52-.308l.455.891.018-.009.018-.01-.49-.872zm1.195-1.146l.822.57.006-.008.005-.008-.833-.553zm1.687-4.855l-.979-.201-.002.008.981.193zm.787-3.825l.98.201v-.002l-.98-.199zm2.104-6.631l.902.431-.902-.431zm3.122-4.526l.699.715.005-.004-.704-.71zm4.024-2.602l.35.937.008-.003-.358-.934zm4.902-.904l-.003-1h-.014l.017 1zm7.792 2.231l.574-.819-.574.819zm4.895 6.46l-.928.373.001.002.927-.375zm.035 20.705l.932.363.001-.002-.932-.361zm-5.465 7.046l.558.83.006-.004-.564-.826zm-9.57 2.58l-1 .008.008 1.004 1.004-.012-.012-1zm-.1-12l-.061-.998-.946.058.008.948 1-.008zm3.582-1.098l.556.831-.556-.831zm2.182-2.7l.921.391.002-.004-.922-.386zm.187-7.547l.936-.352-.936.352zm-1.403-2.057l.616-.788-.616.788zm-2.029-.711l.012-1h-.021-.021l.03 1zm-1.858.72l.634.774.012-.01.012-.01-.657-.754zm-1.436 2.194l.921.39.005-.012-.926-.378zm-1.193 4.124l-.978-.206-.001.003.979.203zm-.961 4.645l.979.204v-.001l-.979-.203zm-4.396 9.787l.752.659.005-.005-.757-.654zm-8.584 3.594l-.004-1h-.009l.013 1zm-7.769-2.299l-.578.816.001.001.577-.817zm-5.26-6.616l-.913.407.001.002.912-.409zM2.756 9.833l.912.409-.912-.409zm5.265-6.385l.551.834.006-.004-.558-.83zm7.958-2.339l1-.008-.008-1.005-1.005.013.013 1zm.012 11.094c-1.738.154-3.18.834-4.216 2.095l1.545 1.27c.644-.783 1.557-1.259 2.847-1.373l-.176-1.992zm-4.211 2.089c-1.057 1.267-1.485 3.071-1.467 5.227l2-.017c-.016-1.934.379-3.182 1.003-3.93l-1.536-1.281zm-1.467 5.227c.011 1.374.188 2.573.573 3.557l1.863-.729c-.265-.678-.425-1.612-.435-2.844l-2 .017zm.569 3.547c.357.94.877 1.725 1.61 2.26l1.179-1.615c-.334-.244-.657-.664-.92-1.355l-1.87.71zm1.61 2.26c.707.516 1.517.779 2.399.791l.028-2a2.09 2.09 0 0 1-1.247-.406l-1.179 1.615zm2.367.79c.716.033 1.397-.098 2.021-.416l-.909-1.781c-.282.144-.614.218-1.02.2l-.091 1.998zm2.056-.435c.599-.337 1.103-.837 1.527-1.448l-1.643-1.14c-.295.425-.588.689-.864.845l.981 1.743zm1.538-1.464c.404-.608.75-1.352 1.049-2.209l-1.888-.659c-.263.753-.543 1.333-.827 1.761l1.666 1.107zm1.049-2.209c.301-.862.562-1.866.786-3.006l-1.962-.386c-.212 1.076-.45 1.984-.712 2.733l1.888.659zm.784-2.998l.787-3.825-1.959-.403-.787 3.825 1.959.403zm.787-3.827c.512-2.522 1.192-4.65 2.027-6.4l-1.805-.862c-.922 1.932-1.646 4.225-2.182 6.863l1.96.398zm2.027-6.4c.839-1.757 1.816-3.163 2.919-4.242l-1.399-1.429c-1.302 1.274-2.406 2.885-3.325 4.81l1.805.862zm2.923-4.247c1.091-1.082 2.313-1.869 3.67-2.375L28.995.289c-1.635.61-3.095 1.557-4.378 2.828l1.408 1.421zm3.678-2.378c1.375-.527 2.892-.81 4.561-.838l-.034-2c-1.877.032-3.627.351-5.243.97l.716 1.868zm4.547-.838c2.891-.01 5.277.69 7.214 2.049l1.149-1.637C40.282.098 37.474-.69 34.243-.679l.007 2zm7.214 2.049c1.951 1.369 3.472 3.355 4.541 6.014l1.856-.746c-1.19-2.959-2.932-5.279-5.248-6.905l-1.149 1.637zm4.542 6.016c1.07 2.648 1.638 5.883 1.67 9.733l2-.017c-.034-4.028-.627-7.526-1.816-10.466l-1.854.75zm1.67 9.733c.033 3.949-.524 7.354-1.64 10.236l1.865.723c1.227-3.168 1.809-6.833 1.775-10.975l-2 .017zm-1.639 10.234c-1.105 2.838-2.806 5.018-5.096 6.583l1.128 1.652c2.651-1.81 4.593-4.327 5.832-7.509l-1.864-.726zm-5.091 6.579c-2.283 1.535-5.267 2.364-9.024 2.409l.024 2c4.031-.049 7.426-.941 10.116-2.75l-1.116-1.66zm-8.012 3.401l-.099-12-2 .017.1 12 2-.017zM31.896 28.34c1.56-.096 2.934-.502 4.076-1.265l-1.111-1.663c-.787.526-1.8.852-3.088.931l.123 1.996zm4.076-1.265c1.14-.762 1.987-1.821 2.547-3.141l-1.841-.781c-.421.992-1.028 1.732-1.817 2.259l1.111 1.663zm2.549-3.145c.555-1.324.807-2.853.793-4.56l-2 .017c.013 1.505-.212 2.753-.638 3.771l1.845.773zm.793-4.56c-.012-1.423-.197-2.676-.592-3.726l-1.872.704c.287.762.454 1.765.464 3.038l2-.017zm-.592-3.726c-.387-1.03-.949-1.887-1.724-2.493l-1.231 1.576c.414.324.789.838 1.083 1.621l1.872-.704zm-1.724-2.493a4.27 4.27 0 0 0-2.633-.922l-.023 2a2.27 2.27 0 0 1 1.425.499l1.231-1.576zm-2.674-.922a3.87 3.87 0 0 0-2.485.966l1.314 1.508c.348-.304.745-.46 1.23-.474l-.059-1.999zm-2.462.946c-.724.593-1.282 1.496-1.729 2.589l1.852.756c.385-.944.785-1.503 1.144-1.798l-1.268-1.547zm-1.724 2.578c-.466 1.102-.88 2.547-1.251 4.307l1.957.412c.358-1.7.74-3.005 1.136-3.94l-1.842-.779zm-1.251 4.311l-.962 4.645 1.959.405.962-4.645-1.959-.405zm-.961 4.643c-.836 4.015-2.245 7.105-4.174 9.337l1.513 1.308c2.213-2.561 3.735-5.995 4.619-10.237l-1.958-.408zm-4.169 9.332c-1.868 2.132-4.439 3.239-7.836 3.253l.008 2c3.876-.016 7.028-1.305 9.332-3.935l-1.504-1.318zm-7.845 3.253c-2.762.037-5.141-.676-7.179-2.116L7.578 36.81c2.413 1.705 5.213 2.525 8.36 2.483l-.027-2zm-7.178-2.115c-2.077-1.472-3.723-3.528-4.925-6.209l-1.825.818c1.33 2.965 3.19 5.319 5.594 7.022l1.156-1.632zM3.809 28.97c-1.201-2.691-1.829-5.811-1.858-9.381l-2 .017c.031 3.794.7 7.194 2.032 10.179l1.827-.815zM1.951 19.59c-.03-3.648.555-6.754 1.718-9.348l-1.825-.819C.538 12.336-.081 15.739-.049 19.606l2-.017zm1.718-9.348c1.166-2.599 2.804-4.572 4.904-5.96L7.47 2.614c-2.45 1.619-4.323 3.903-5.626 6.81l1.825.819zm4.911-5.964c2.08-1.398 4.539-2.131 7.414-2.169l-.027-2c-3.216.043-6.063.869-8.503 2.509l1.115 1.66zm6.4-3.161l.1 12.091 2-.017-.1-12.09-2 .017z" fill="#05c2df" fill-opacity=".5"/></svg>