<svg width="142" height="122" viewBox="0 0 142 122" fill="none" xmlns="http://www.w3.org/2000/svg">
<g filter="url(#filter0_d)">
<path d="M7 110.5H45V3.5H134" stroke="#05C2DF"/>
<path d="M10.041 110.5C10.041 112.157 8.69787 113.5 7.04102 113.5C5.38416 113.5 4.04102 112.157 4.04102 110.5C4.04102 108.843 5.38416 107.5 7.04102 107.5C8.69787 107.5 10.041 108.843 10.041 110.5Z" fill="#05C2DF"/>
<path d="M137.958 3.5C137.958 5.15685 136.615 6.5 134.958 6.5C133.301 6.5 131.958 5.15685 131.958 3.5C131.958 1.84315 133.301 0.5 134.958 0.5C136.615 0.5 137.958 1.84315 137.958 3.5Z" fill="#05C2DF"/>
</g>
<defs>
<filter id="filter0_d" x="0.0410156" y="0.5" width="141.917" height="121" filterUnits="userSpaceOnUse" color-interpolation-filters="sRGB">
<feFlood flood-opacity="0" result="BackgroundImageFix"/>
<feColorMatrix in="SourceAlpha" type="matrix" values="0 0 0 0 0 0 0 0 0 0 0 0 0 0 0 0 0 0 127 0"/>
<feOffset dy="4"/>
<feGaussianBlur stdDeviation="2"/>
<feColorMatrix type="matrix" values="0 0 0 0 0 0 0 0 0 0 0 0 0 0 0 0 0 0 0.25 0"/>
<feBlend mode="normal" in2="BackgroundImageFix" result="effect1_dropShadow"/>
<feBlend mode="normal" in="SourceGraphic" in2="effect1_dropShadow" result="shape"/>
</filter>
</defs>
</svg>
