<svg width="52" height="333" viewBox="0 0 52 333" fill="none" xmlns="http://www.w3.org/2000/svg">
<path d="M2.39456 49.4845L1.39459 49.4928L1.40666 50.9474L2.76042 50.4152L2.39456 49.4845ZM2.30005 38.0929L1.95308 37.155L1.29425 37.3988L1.30008 38.1012L2.30005 38.0929ZM11.6796 34.623L12.0265 35.5608L12.6854 35.3171L12.6795 34.6147L11.6796 34.623ZM11.532 16.8316L12.5319 16.8233L12.5261 16.1208L11.8633 15.8881L11.532 16.8316ZM2.09616 13.5177L1.09619 13.526L1.10202 14.2285L1.7648 14.4612L2.09616 13.5177ZM2.0035 2.35012L2.35388 1.41351L0.991469 0.903859L1.00354 2.35842L2.0035 2.35012ZM46.9445 19.1619L47.9445 19.1536L47.9388 18.4661L47.2949 18.2252L46.9445 19.1619ZM47.0505 31.9294L47.4163 32.8601L48.0561 32.6086L48.0504 31.9211L47.0505 31.9294ZM21.2243 20.2073L21.5554 19.2637L20.2125 18.7926L20.2243 20.2156L21.2243 20.2073ZM21.3146 31.0869L20.3146 31.0952L20.3264 32.5182L21.6612 32.0249L21.3146 31.0869ZM36.3729 25.5218L36.7196 26.4598L39.3239 25.4973L36.704 24.5782L36.3729 25.5218ZM3.39452 49.4762L3.30001 38.0846L1.30008 38.1012L1.39459 49.4928L3.39452 49.4762ZM2.64701 39.0308L12.0265 35.5608L11.3326 33.6851L1.95308 37.155L2.64701 39.0308ZM12.6795 34.6147L12.5319 16.8233L10.532 16.8399L10.6796 34.6313L12.6795 34.6147ZM11.8633 15.8881L2.42751 12.5742L1.7648 14.4612L11.2006 17.7751L11.8633 15.8881ZM3.09612 13.5094L3.00347 2.34183L1.00354 2.35842L1.09619 13.526L3.09612 13.5094ZM1.65313 3.28674L46.5942 20.0985L47.2949 18.2252L2.35388 1.41351L1.65313 3.28674ZM45.9446 19.1702L46.0505 31.9377L48.0504 31.9211L47.9445 19.1536L45.9446 19.1702ZM46.6846 30.9988L2.02869 48.5538L2.76042 50.4152L47.4163 32.8601L46.6846 30.9988ZM20.2243 20.2156L20.3146 31.0952L22.3145 31.0786L22.2243 20.199L20.2243 20.2156ZM21.6612 32.0249L36.7196 26.4598L36.0263 24.5838L20.9679 30.1489L21.6612 32.0249ZM36.704 24.5782L21.5554 19.2637L20.8933 21.1509L36.0419 26.4654L36.704 24.5782ZM44.2643 85.6854L43.4566 85.0958L43.4538 85.0997L44.2643 85.6854ZM29.1189 88.4671L28.5588 89.2956L28.5638 89.2989L29.1189 88.4671ZM25.3379 84.0183L26.2429 83.5931L25.2092 81.393L24.3955 83.6836L25.3379 84.0183ZM21.5722 89.1378L20.9656 88.3428L20.961 88.3463L21.5722 89.1378ZM6.00188 86.9949L5.21412 87.6109L6.00188 86.9949ZM2.43122 53.9034L2.42292 52.9034L1.42296 52.9117L1.43125 53.9116L2.43122 53.9034ZM47.2297 53.5317L48.2296 53.5234L48.2214 52.5234L47.2214 52.5317L47.2297 53.5317ZM20.5673 64.4413L21.5672 64.433L21.5589 63.433L20.559 63.4413L20.5673 64.4413ZM11.4796 64.5166L11.4713 63.5167L10.4713 63.525L10.4796 64.5249L11.4796 64.5166ZM12.6518 78.5234L11.8168 79.0736L11.8194 79.0776L12.6518 78.5234ZM19.6276 78.4655L18.7835 77.9292L18.7788 77.9367L19.6276 78.4655ZM38.3267 64.2939L39.3266 64.2856L39.3183 63.2856L38.3184 63.2939L38.3267 64.2939ZM29.495 64.3672L29.4867 63.3672L28.4867 63.3755L28.495 64.3755L29.495 64.3672ZM46.3895 72.8033C46.4358 78.3772 45.4066 82.424 43.4566 85.0959L45.0721 86.2749C47.3831 83.1085 48.4374 78.5618 48.3895 72.7867L46.3895 72.8033ZM43.4538 85.0997C41.5616 87.7183 38.7506 89.0833 34.8525 89.1156L34.8691 91.1155C39.2907 91.0788 42.7487 89.4903 45.0749 86.2711L43.4538 85.0997ZM34.8525 89.1156C32.8833 89.1319 31.1686 88.6329 29.674 87.6354L28.5638 89.2989C30.4158 90.535 32.529 91.1349 34.8691 91.1155L34.8525 89.1156ZM29.679 87.6387C28.18 86.6251 27.037 85.2831 26.2429 83.5931L24.4328 84.4436C25.3761 86.4513 26.7538 88.0751 28.5588 89.2955L29.679 87.6387ZM24.3955 83.6836C23.7327 85.5498 22.5967 87.0981 20.9656 88.3428L22.1788 89.9328C24.1093 88.4597 25.4837 86.5952 26.2802 84.3531L24.3955 83.6836ZM20.961 88.3463C19.3758 89.5704 17.5882 90.1869 15.5648 90.2036L15.5814 92.2036C18.0379 92.1832 20.2497 91.4224 22.1834 89.9293L20.961 88.3463ZM15.5648 90.2036C11.6615 90.236 8.78826 88.9349 6.78964 86.3789L5.21412 87.6109C7.65745 90.7355 11.1651 92.2402 15.5814 92.2036L15.5648 90.2036ZM6.78964 86.3789C4.76188 83.7856 3.64616 79.8059 3.6003 74.2784L1.60037 74.2949C1.64796 80.031 2.79993 84.5234 5.21412 87.6109L6.78964 86.3789ZM3.6003 74.2784L3.43119 53.8951L1.43125 53.9116L1.60037 74.2949L3.6003 74.2784ZM2.43952 54.9033L47.238 54.5316L47.2214 52.5317L2.42292 52.9034L2.43952 54.9033ZM46.2297 53.54L46.3895 72.8033L48.3895 72.7867L48.2296 53.5234L46.2297 53.54ZM20.559 63.4413L11.4713 63.5167L11.4879 65.5166L20.5756 65.4412L20.559 63.4413ZM10.4796 64.5249L10.5555 73.6766L12.5555 73.66L12.4795 64.5084L10.4796 64.5249ZM10.5555 73.6766C10.5741 75.9094 10.9486 77.756 11.8168 79.0736L13.4869 77.9732C12.929 77.1266 12.5727 75.7364 12.5555 73.66L10.5555 73.6766ZM11.8194 79.0776C12.7843 80.5268 14.3214 81.1736 16.1938 81.1581L16.1772 79.1582C14.8071 79.1695 13.9884 78.7265 13.4842 77.9692L11.8194 79.0776ZM16.1938 81.1581C18.05 81.1427 19.5593 80.4662 20.4763 78.9943L18.7788 77.9367C18.3063 78.6951 17.5209 79.147 16.1772 79.1582L16.1938 81.1581ZM20.4716 79.0018C21.3178 77.67 21.6617 75.8174 21.6432 73.5846L19.6432 73.6012C19.6605 75.6776 19.3273 77.0735 18.7835 77.9293L20.4716 79.0018ZM21.6432 73.5846L21.5672 64.433L19.5673 64.4495L19.6432 73.6012L21.6432 73.5846ZM38.3184 63.2939L29.4867 63.3672L29.5033 65.3671L38.335 65.2939L38.3184 63.2939ZM28.495 64.3755L28.564 72.6952L30.564 72.6786L30.4949 64.3589L28.495 64.3755ZM28.564 72.6952C28.5823 74.8935 28.9777 76.7176 29.9017 78.0109C30.8716 79.3683 32.3203 80.0003 34.0727 79.9857L34.0561 77.9858C32.8433 77.9959 32.0593 77.5903 31.529 76.8482C30.9529 76.0418 30.5808 74.7041 30.564 72.6786L28.564 72.6952ZM34.0727 79.9857C35.8097 79.9713 37.2321 79.3109 38.1662 77.9367C39.0547 76.6295 39.4139 74.8017 39.3957 72.6053L37.3957 72.6219C37.4125 74.6494 37.0674 75.9955 36.5121 76.8124C36.0024 77.5622 35.2417 77.976 34.0561 77.9858L34.0727 79.9857ZM39.3957 72.6053L39.3266 64.2856L37.3267 64.3022L37.3957 72.6219L39.3957 72.6053ZM46.7656 109.449L47.6914 109.071L47.6905 109.069L46.7656 109.449ZM46.9235 128.488L45.9925 128.123L45.9916 128.126L46.9235 128.488ZM42.1538 136.016L41.4408 135.315L41.4336 135.322L42.1538 136.016ZM34.8344 140.941L35.2194 141.864L34.8344 140.941ZM16.2751 141.095L15.9055 142.024L16.2751 141.095ZM8.84297 136.293L8.13803 137.002L8.13807 137.002L8.84297 136.293ZM3.98101 128.845L4.90685 128.467L4.9059 128.464L3.98101 128.845ZM3.82305 109.805L2.89198 109.44L2.89107 109.443L3.82305 109.805ZM8.56076 102.278L7.84777 101.576L7.84055 101.584L8.56076 102.278ZM15.9124 97.3845L16.2974 98.3074L15.9124 97.3845ZM34.4718 97.2305L34.8414 96.3013L34.4718 97.2305ZM41.8716 102.001L41.1667 102.711L41.1667 102.711L41.8716 102.001ZM34.8234 128.045L34.1232 127.331L34.12 127.334L34.8234 128.045ZM34.6745 110.093L35.3661 109.371L35.3628 109.368L34.6745 110.093ZM15.9231 110.249L15.2229 109.535L15.2197 109.538L15.9231 110.249ZM16.0721 128.2L16.7637 127.478L16.7603 127.475L16.0721 128.2ZM45.8397 109.827C46.986 112.635 47.5773 115.682 47.6047 118.978L49.6046 118.962C49.5753 115.432 48.9406 112.131 47.6914 109.071L45.8397 109.827ZM47.6047 118.978C47.632 122.275 47.0912 125.32 45.9925 128.123L47.8546 128.853C49.054 125.792 49.6339 122.492 49.6046 118.962L47.6047 118.978ZM45.9916 128.126C44.8873 130.965 43.3679 133.356 41.4409 135.315L42.8668 136.717C45.0016 134.547 46.6621 131.919 47.8555 128.851L45.9916 128.126ZM41.4336 135.322C39.5259 137.303 37.2028 138.87 34.4495 140.018L35.2194 141.864C38.2064 140.618 40.7629 138.902 42.874 136.71L41.4336 135.322ZM34.4495 140.018C31.7061 141.162 28.7465 141.752 25.5611 141.778L25.5776 143.778C29.0053 143.749 32.2224 143.114 35.2194 141.864L34.4495 140.018ZM25.5611 141.778C22.3756 141.804 19.4066 141.264 16.6447 140.166L15.9055 142.024C18.9228 143.224 22.15 143.806 25.5776 143.778L25.5611 141.778ZM16.6447 140.166C13.8718 139.063 11.5108 137.534 9.54787 135.583L8.13807 137.002C10.3053 139.156 12.899 140.828 15.9055 142.024L16.6447 140.166ZM9.54791 135.583C7.60853 133.656 6.05898 131.289 4.90685 128.467L3.05518 129.223C4.29848 132.268 5.99023 134.867 8.13803 137.002L9.54791 135.583ZM4.9059 128.464C3.76083 125.679 3.16954 122.644 3.14219 119.347L1.14226 119.364C1.17155 122.894 1.80612 126.184 3.05613 129.225L4.9059 128.464ZM3.14219 119.347C3.11484 116.051 3.65556 112.994 4.75503 110.168L2.89107 109.443C1.6928 112.523 1.11297 115.834 1.14226 119.364L3.14219 119.347ZM4.75412 110.17C5.85941 107.349 7.37047 104.955 9.28097 102.971L7.84055 101.584C5.7322 103.773 4.08478 106.396 2.89198 109.44L4.75412 110.17ZM9.27371 102.979C11.2045 101.016 13.5411 99.4571 16.2974 98.3074L15.5275 96.4616C12.5435 97.7062 9.97894 99.4097 7.84781 101.576L9.27371 102.979ZM16.2974 98.3074C19.0407 97.1631 22.0003 96.574 25.1858 96.5475L25.1692 94.5476C21.7416 94.576 18.5244 95.2115 15.5275 96.4616L16.2974 98.3074ZM25.1858 96.5475C28.3713 96.5211 31.3402 97.0611 34.1022 98.1597L34.8414 96.3013C31.8241 95.1012 28.5968 94.5192 25.1692 94.5476L25.1858 96.5475ZM34.1022 98.1597C36.8764 99.2632 39.2263 100.782 41.1667 102.711L42.5766 101.292C40.4298 99.1584 37.8464 97.4966 34.8414 96.3013L34.1022 98.1597ZM41.1667 102.711C43.1298 104.661 44.6896 107.029 45.8407 109.829L47.6905 109.069C46.4464 106.043 44.7436 103.446 42.5765 101.292L41.1667 102.711ZM35.5236 128.759C38.1271 126.205 39.3972 122.939 39.3649 119.047L37.365 119.063C37.3933 122.467 36.3024 125.194 34.1232 127.331L35.5236 128.759ZM39.3649 119.047C39.3327 115.154 38.0086 111.901 35.3661 109.371L33.9829 110.816C36.2006 112.939 37.3368 115.66 37.365 119.063L39.3649 119.047ZM35.3628 109.368C32.7173 106.858 29.3195 105.65 25.2616 105.683L25.2782 107.683C28.9 107.653 31.772 108.718 33.9862 110.819L35.3628 109.368ZM25.2616 105.683C21.2037 105.717 17.8264 106.982 15.2229 109.535L16.6233 110.963C18.8024 108.826 21.6563 107.713 25.2782 107.683L25.2616 105.683ZM15.2197 109.538C12.6196 112.112 11.3496 115.386 11.3819 119.279L13.3818 119.262C13.3536 115.859 14.4445 113.119 16.6266 110.96L15.2197 109.538ZM11.3819 119.279C11.4142 123.171 12.7384 126.416 15.3838 128.926L16.7603 127.475C14.546 125.374 13.4101 122.665 13.3818 119.262L11.3819 119.279ZM15.3805 128.923C18.0257 131.455 21.4247 132.676 25.4853 132.642L25.4687 130.642C21.8495 130.672 18.9785 129.598 16.7636 127.478L15.3805 128.923ZM25.4853 132.642C29.5458 132.609 32.9241 131.332 35.5269 128.755L34.12 127.334C31.9406 129.491 29.0879 130.612 25.4687 130.642L25.4853 132.642ZM7.56458 182.778L6.84329 183.47L6.84555 183.473L7.56458 182.778ZM7.32512 153.915L6.59454 153.232L6.59243 153.234L7.32512 153.915ZM48.017 148.425L49.0169 148.417L49.0086 147.417L48.0087 147.425L48.017 148.425ZM48.1059 159.145L48.1142 160.145L49.1142 160.136L49.1059 159.136L48.1059 159.145ZM15.0387 161.787L14.3162 161.096L14.3114 161.101L15.0387 161.787ZM15.1467 174.811L14.4309 175.509L14.4358 175.514L15.1467 174.811ZM48.2533 176.904L49.2532 176.896L49.2449 175.896L48.245 175.904L48.2533 176.904ZM48.3422 187.624L48.3505 188.624L49.3505 188.615L49.3422 187.615L48.3422 187.624ZM21.6148 186.845C15.7518 186.894 11.3587 185.264 8.28362 182.083L6.84555 183.473C10.3983 187.148 15.3775 188.897 21.6314 188.845L21.6148 186.845ZM8.28587 182.085C5.21788 178.89 3.59867 174.367 3.54898 168.379L1.54905 168.395C1.60167 174.737 3.32616 179.808 6.84329 183.47L8.28587 182.085ZM3.54898 168.379C3.4993 162.39 5.04324 157.841 8.0578 154.595L6.59243 153.234C3.13656 156.955 1.49643 162.053 1.54905 168.395L3.54898 168.379ZM8.05569 154.598C11.0546 151.389 15.4185 149.695 21.3062 149.647L21.2896 147.647C15.0177 147.699 10.0665 149.517 6.59454 153.232L8.05569 154.598ZM21.3062 149.647L48.0253 149.425L48.0087 147.425L21.2896 147.647L21.3062 149.647ZM47.017 148.433L47.1059 159.153L49.1059 159.136L49.0169 148.417L47.017 148.433ZM48.0976 158.145L21.7945 158.363L21.8111 160.363L48.1142 160.145L48.0976 158.145ZM21.7945 158.363C18.6371 158.389 16.0846 159.248 14.3162 161.096L15.7612 162.478C17.0385 161.144 18.9954 160.386 21.8111 160.363L21.7945 158.363ZM14.3114 161.101C12.5901 162.925 11.7963 165.37 11.8207 168.31L13.8206 168.293C13.7994 165.73 14.4843 163.832 15.766 162.473L14.3114 161.101ZM11.8207 168.31C11.8453 171.269 12.6783 173.712 14.4309 175.509L15.8626 174.112C14.5598 172.777 13.8421 170.881 13.8206 168.293L11.8207 168.31ZM14.4358 175.514C16.2347 177.332 18.801 178.148 21.9585 178.122L21.9419 176.122C19.1262 176.146 17.1569 175.421 15.8577 174.107L14.4358 175.514ZM21.9585 178.122L48.2616 177.904L48.245 175.904L21.9419 176.122L21.9585 178.122ZM47.2533 176.912L47.3422 187.632L49.3422 187.615L49.2532 176.896L47.2533 176.912ZM48.3339 186.624L21.6148 186.845L21.6314 188.845L48.3505 188.624L48.3339 186.624ZM38.7682 229.372L37.7683 229.381L37.7766 230.381L38.7765 230.372L38.7682 229.372ZM38.6583 216.125L39.6583 216.117L39.65 215.117L38.65 215.125L38.6583 216.125ZM3.77951 216.414L2.77955 216.423L2.78784 217.423L3.78781 217.414L3.77951 216.414ZM3.69084 205.727L3.68255 204.727L2.68258 204.735L2.69088 205.735L3.69084 205.727ZM38.5696 205.437L38.5779 206.437L39.5779 206.429L39.5696 205.429L38.5696 205.437ZM38.4595 192.158L38.4512 191.158L37.4512 191.166L37.4595 192.166L38.4595 192.158ZM48.3791 192.075L49.3791 192.067L49.3708 191.067L48.3708 191.075L48.3791 192.075ZM48.6879 229.29L48.6962 230.29L49.6961 230.282L49.6879 229.282L48.6879 229.29ZM39.7682 229.364L39.6583 216.117L37.6583 216.133L37.7683 229.381L39.7682 229.364ZM38.65 215.125L3.77122 215.414L3.78781 217.414L38.6666 217.125L38.65 215.125ZM4.77948 216.406L4.69081 205.718L2.69088 205.735L2.77955 216.423L4.77948 216.406ZM3.69914 206.727L38.5779 206.437L38.5613 204.437L3.68255 204.727L3.69914 206.727ZM39.5696 205.429L39.4594 192.149L37.4595 192.166L37.5697 205.446L39.5696 205.429ZM38.4678 193.158L48.3874 193.075L48.3708 191.075L38.4512 191.158L38.4678 193.158ZM47.3792 192.084L47.6879 229.298L49.6879 229.282L49.3791 192.067L47.3792 192.084ZM48.6796 228.29L38.7599 228.372L38.7765 230.372L48.6962 230.29L48.6796 228.29ZM8.3854 281.712L7.66411 282.404L7.66637 282.407L8.3854 281.712ZM8.14594 252.849L7.41536 252.166L7.41325 252.168L8.14594 252.849ZM48.8378 247.359L49.8378 247.351L49.8295 246.351L48.8295 246.359L48.8378 247.359ZM48.9267 258.079L48.935 259.079L49.935 259.07L49.9267 258.07L48.9267 258.079ZM15.8595 260.721L15.137 260.03L15.1322 260.035L15.8595 260.721ZM15.9676 273.745L15.2517 274.443L15.2566 274.448L15.9676 273.745ZM49.0741 275.838L50.074 275.83L50.0657 274.83L49.0658 274.838L49.0741 275.838ZM49.163 286.558L49.1713 287.558L50.1713 287.549L50.163 286.549L49.163 286.558ZM22.4356 285.779C16.5727 285.828 12.1795 284.198 9.10444 281.017L7.66637 282.407C11.2191 286.083 16.1983 287.831 22.4522 287.779L22.4356 285.779ZM9.10669 281.019C6.0387 277.824 4.41949 273.301 4.3698 267.313L2.36987 267.329C2.42249 273.671 4.14698 278.742 7.66411 282.404L9.10669 281.019ZM4.3698 267.313C4.32012 261.324 5.86406 256.775 8.87862 253.529L7.41325 252.168C3.95738 255.889 2.31725 260.987 2.36987 267.329L4.3698 267.313ZM8.87651 253.532C11.8754 250.323 16.2393 248.629 22.127 248.581L22.1104 246.581C15.8385 246.633 10.8873 248.451 7.41536 252.166L8.87651 253.532ZM22.127 248.581L48.8461 248.359L48.8295 246.359L22.1104 246.581L22.127 248.581ZM47.8378 247.367L47.9268 258.087L49.9267 258.07L49.8378 247.351L47.8378 247.367ZM48.9184 257.079L22.6153 257.297L22.6319 259.297L48.935 259.079L48.9184 257.079ZM22.6153 257.297C19.4579 257.323 16.9054 258.182 15.137 260.03L16.582 261.412C17.8593 260.078 19.8162 259.32 22.6319 259.297L22.6153 257.297ZM15.1322 260.035C13.4109 261.859 12.6171 264.304 12.6415 267.244L14.6415 267.227C14.6202 264.664 15.3051 262.766 16.5868 261.407L15.1322 260.035ZM12.6415 267.244C12.6661 270.203 13.4991 272.646 15.2518 274.443L16.6834 273.046C15.3806 271.711 14.6629 269.815 14.6415 267.227L12.6415 267.244ZM15.2566 274.448C17.0555 276.266 19.6219 277.082 22.7793 277.056L22.7627 275.056C19.947 275.08 17.9777 274.355 16.6785 273.041L15.2566 274.448ZM22.7793 277.056L49.0824 276.838L49.0658 274.838L22.7627 275.056L22.7793 277.056ZM48.0741 275.846L48.163 286.566L50.163 286.549L50.074 275.83L48.0741 275.846ZM49.1547 285.558L22.4356 285.779L22.4522 287.779L49.1713 287.558L49.1547 285.558ZM36.7847 325.866L35.9171 325.368L35.4044 326.263L36.3143 326.748L36.7847 325.866ZM39.3557 307.892L40.2313 307.409L40.2279 307.403L39.3557 307.892ZM35.1503 306.295L34.6751 305.415L35.1503 306.295ZM34.1668 307.327L33.3083 306.814L33.2954 306.836L33.2836 306.858L34.1668 307.327ZM33.474 308.677L32.5759 308.237L32.5615 308.266L32.5492 308.296L33.474 308.677ZM32.9145 310.665L31.9386 310.447L31.9357 310.46L31.9331 310.473L32.9145 310.665ZM32.0884 315.248L31.1031 315.078L31.1016 315.087L32.0884 315.248ZM31.7839 317.107L32.7704 317.271L32.7707 317.269L31.7839 317.107ZM27.4868 327.607L26.7268 326.957L26.724 326.96L27.4868 327.607ZM13.3333 330.38L13.707 329.453L13.7011 329.451L13.3333 330.38ZM9.0544 327.632L9.76212 326.925L9.0544 327.632ZM6.10772 323.464L7.00318 323.019L7.00082 323.014L6.10772 323.464ZM4.3373 318.359L5.31622 318.154L5.31575 318.152L4.3373 318.359ZM5.12801 301.808L4.1638 301.542L4.16338 301.544L5.12801 301.808ZM9.27886 292.973L9.79499 292.116L9.02006 291.649L8.47811 292.374L9.27886 292.973ZM18.0269 298.244L18.8594 298.798L19.4388 297.928L18.543 297.388L18.0269 298.244ZM14.5415 317.858L13.6626 318.335L13.6687 318.346L14.5415 317.858ZM19.0666 319.42L18.5256 318.579L18.5256 318.579L19.0666 319.42ZM20.0821 318.388L19.2391 317.85L20.0821 318.388ZM20.8347 316.526L19.8738 316.249L19.8718 316.256L20.8347 316.526ZM21.3907 314.121L20.4105 313.923L20.408 313.936L20.4058 313.948L21.3907 314.121ZM21.9402 310.916L22.9287 311.067L22.9293 311.063L21.9402 310.916ZM22.2736 308.673L21.2846 308.525L21.2844 308.526L22.2736 308.673ZM26.6013 298.013L25.8659 297.336L25.8626 297.339L26.6013 298.013ZM35.8205 294.513L35.8072 295.513L35.809 295.513L35.8205 294.513ZM46.1987 299.547L45.4136 300.166L45.4136 300.166L46.1987 299.547ZM49.2287 321.474L48.2557 321.243L48.2553 321.245L49.2287 321.474ZM45.592 330.561L45.1215 331.443L45.998 331.91L46.4712 331.037L45.592 330.561ZM37.6523 326.363C40.2064 321.906 41.491 317.446 41.4541 312.995L39.4541 313.011C39.4877 317.05 38.326 321.165 35.9171 325.368L37.6523 326.363ZM41.4541 312.995C41.4357 310.783 41.0533 308.899 40.2312 307.409L38.4801 308.375C39.0876 309.476 39.4374 310.999 39.4541 313.011L41.4541 312.995ZM40.2279 307.403C39.3654 305.865 38.0586 304.982 36.3555 304.997L36.3721 306.996C37.229 306.989 37.9168 307.371 38.4835 308.381L40.2279 307.403ZM36.3555 304.997C35.7598 305.001 35.1925 305.135 34.6751 305.415L35.6255 307.174C35.8301 307.064 36.072 306.999 36.3721 306.996L36.3555 304.997ZM34.6751 305.415C34.1044 305.723 33.6601 306.225 33.3083 306.814L35.0253 307.84C35.2627 307.442 35.474 307.256 35.6255 307.174L34.6751 305.415ZM33.2836 306.858C33.0071 307.379 32.7708 307.839 32.5759 308.237L34.3721 309.116C34.5547 308.743 34.7804 308.304 35.05 307.796L33.2836 306.858ZM32.5492 308.296C32.3474 308.787 32.146 309.52 31.9386 310.447L33.8903 310.884C34.0943 309.972 34.266 309.38 34.3988 309.057L32.5492 308.296ZM31.9331 310.473C31.7486 311.415 31.6141 312.129 31.5307 312.61L33.5013 312.951C33.5808 312.493 33.7119 311.796 33.8958 310.858L31.9331 310.473ZM31.5307 312.61C31.4492 313.08 31.3067 313.903 31.1031 315.078L33.0738 315.419C33.2774 314.244 33.4199 313.421 33.5013 312.951L31.5307 312.61ZM31.1016 315.087L30.797 316.945L32.7707 317.269L33.0753 315.41L31.1016 315.087ZM30.7974 316.943C30.0637 321.363 28.6823 324.67 26.7268 326.957L28.2468 328.257C30.5172 325.602 32.0004 321.909 32.7704 317.271L30.7974 316.943ZM26.724 326.96C24.8166 329.21 22.2755 330.362 18.9976 330.389L19.0142 332.389C22.8188 332.358 25.9316 330.988 28.2496 328.254L26.724 326.96ZM18.9976 330.389C17.0434 330.406 15.2843 330.088 13.707 329.453L12.9597 331.308C14.8073 332.052 16.8299 332.407 19.0142 332.389L18.9976 330.389ZM13.7011 329.451C12.124 328.827 10.8172 327.982 9.76212 326.925L8.34667 328.338C9.61498 329.609 11.1608 330.597 12.9656 331.31L13.7011 329.451ZM9.76212 326.925C8.6837 325.845 7.76249 324.546 7.00317 323.019L5.21227 323.909C6.05846 325.611 7.1017 327.091 8.34667 328.338L9.76212 326.925ZM7.00082 323.014C6.23882 321.501 5.67678 319.883 5.31622 318.154L3.35838 318.563C3.75322 320.455 4.37144 322.24 5.21462 323.914L7.00082 323.014ZM5.31575 318.152C4.95295 316.433 4.76233 314.624 4.74656 312.723L2.74663 312.74C2.76342 314.764 2.96661 316.706 3.35885 318.565L5.31575 318.152ZM4.74656 312.723C4.71578 309.013 5.16561 305.463 6.09264 302.071L4.16338 301.544C3.18552 305.122 2.7144 308.855 2.74663 312.74L4.74656 312.723ZM6.09222 302.073C7.01773 298.707 8.35239 295.881 10.0796 293.572L8.47811 292.374C6.57612 294.916 5.14354 297.98 4.16381 301.542L6.09222 302.073ZM8.76273 293.829L17.5108 299.101L18.543 297.388L9.79499 292.116L8.76273 293.829ZM17.1944 297.69C13.9994 302.492 12.3996 307.519 12.4431 312.755L14.443 312.739C14.4033 307.948 15.8594 303.307 18.8594 298.798L17.1944 297.69ZM12.4431 312.755C12.4613 314.948 12.8448 316.829 13.6627 318.335L15.4203 317.381C14.8083 316.254 14.4595 314.727 14.443 312.739L12.4431 312.755ZM13.6687 318.346C14.5566 319.934 15.9097 320.831 17.6701 320.816L17.6536 318.816C16.7261 318.824 15.9989 318.415 15.4143 317.37L13.6687 318.346ZM17.6701 320.816C18.3705 320.81 19.0279 320.634 19.6076 320.262L18.5256 318.579C18.2989 318.725 18.0198 318.813 17.6536 318.816L17.6701 320.816ZM19.6076 320.262C20.1395 319.919 20.5785 319.469 20.925 318.926L19.2391 317.85C19.0381 318.165 18.8001 318.403 18.5256 318.579L19.6076 320.262ZM20.925 318.926C21.2751 318.378 21.558 317.65 21.7975 316.796L19.8718 316.256C19.6554 317.027 19.4367 317.541 19.2391 317.85L20.925 318.926ZM21.7955 316.803C22.0335 315.977 22.2269 315.141 22.3757 314.294L20.4058 313.948C20.2694 314.725 20.092 315.492 19.8738 316.249L21.7955 316.803ZM22.371 314.319C22.5393 313.485 22.7252 312.399 22.9287 311.067L20.9516 310.765C20.7504 312.082 20.57 313.133 20.4105 313.923L22.371 314.319ZM22.9293 311.063L23.2627 308.821L21.2844 308.526L20.951 310.769L22.9293 311.063ZM23.2625 308.822C23.9539 304.209 25.3458 300.872 27.3399 298.687L25.8626 297.339C23.5015 299.926 22.0083 303.697 21.2846 308.525L23.2625 308.822ZM27.3367 298.691C29.3021 296.558 32.0773 295.463 35.8072 295.513L35.8339 293.513C31.6693 293.457 28.2983 294.696 25.8659 297.336L27.3367 298.691ZM35.809 295.513C39.825 295.559 42.9969 297.103 45.4136 300.166L46.9837 298.927C44.1827 295.377 40.4358 293.566 35.8321 293.513L35.809 295.513ZM45.4136 300.166C47.853 303.258 49.1353 307.324 49.1778 312.45L51.1778 312.434C51.1325 306.979 49.762 302.448 46.9837 298.927L45.4136 300.166ZM49.1778 312.45C49.2042 315.623 48.8945 318.553 48.2557 321.243L50.2017 321.705C50.8822 318.838 51.2052 315.746 51.1778 312.434L49.1778 312.45ZM48.2553 321.245C47.621 323.939 46.447 326.884 44.7127 330.084L46.4712 331.037C48.267 327.723 49.5175 324.611 50.2021 321.704L48.2553 321.245ZM46.0624 329.678L37.2551 324.983L36.3143 326.748L45.1215 331.443L46.0624 329.678Z" fill="#05C2DF"/>
</svg>
