<svg width="52" height="332" viewBox="0 0 52 332" fill="none" xmlns="http://www.w3.org/2000/svg">
<path d="M2.38089 49.0665L1.38092 49.0748L1.39299 50.5294L2.74675 49.9972L2.38089 49.0665ZM2.28638 37.6749L1.93941 36.7371L1.28058 36.9808L1.28641 37.6832L2.28638 37.6749ZM11.6659 34.205L12.0129 35.1429L12.6717 34.8991L12.6659 34.1967L11.6659 34.205ZM11.5183 16.4136L12.5183 16.4053L12.5124 15.7029L11.8497 15.4701L11.5183 16.4136ZM2.08248 13.0998L1.08252 13.1081L1.08835 13.8105L1.75113 14.0433L2.08248 13.0998ZM1.98983 1.93216L2.3402 0.995545L0.977797 0.485891L0.989865 1.94045L1.98983 1.93216ZM46.9309 18.7439L47.9308 18.7356L47.9251 18.0481L47.2812 17.8073L46.9309 18.7439ZM47.0368 31.5115L47.4026 32.4421L48.0425 32.1906L48.0368 31.5032L47.0368 31.5115ZM21.2106 19.7893L21.5417 18.8457L20.1989 18.3746L20.2107 19.7976L21.2106 19.7893ZM21.3009 30.6689L20.3009 30.6772L20.3127 32.1002L21.6476 31.6069L21.3009 30.6689ZM36.3593 25.1038L36.7059 26.0418L39.3102 25.0793L36.6903 24.1602L36.3593 25.1038ZM3.38085 49.0582L3.28634 37.6666L1.28641 37.6832L1.38092 49.0748L3.38085 49.0582ZM2.63334 38.6128L12.0129 35.1429L11.3189 33.2671L1.93941 36.7371L2.63334 38.6128ZM12.6659 34.1967L12.5183 16.4053L10.5183 16.4219L10.6659 34.2133L12.6659 34.1967ZM11.8497 15.4701L2.41384 12.1563L1.75113 14.0433L11.1869 17.3571L11.8497 15.4701ZM3.08245 13.0915L2.9898 1.92386L0.989865 1.94045L1.08252 13.1081L3.08245 13.0915ZM1.63946 2.86877L46.5805 19.6805L47.2812 17.8073L2.3402 0.995545L1.63946 2.86877ZM45.9309 18.7522L46.0368 31.5197L48.0368 31.5032L47.9308 18.7356L45.9309 18.7522ZM46.6709 30.5808L2.01502 48.1359L2.74675 49.9972L47.4026 32.4421L46.6709 30.5808ZM20.2107 19.7976L20.3009 30.6772L22.3009 30.6606L22.2106 19.781L20.2107 19.7976ZM21.6476 31.6069L36.7059 26.0418L36.0126 24.1658L20.9543 29.7309L21.6476 31.6069ZM36.6903 24.1602L21.5417 18.8457L20.8796 20.7329L36.0282 26.0474L36.6903 24.1602ZM44.2507 85.2674L43.4429 84.6779L43.4401 84.6817L44.2507 85.2674ZM29.1052 88.0492L28.5451 88.8776L28.5501 88.8809L29.1052 88.0492ZM25.3242 83.6004L26.2293 83.1751L25.1955 80.975L24.3819 83.2657L25.3242 83.6004ZM21.5585 88.7198L20.9519 87.9248L20.9473 87.9283L21.5585 88.7198ZM5.98821 86.5769L5.20045 87.1929L5.98821 86.5769ZM2.41755 53.4854L2.40925 52.4854L1.40929 52.4937L1.41758 53.4937L2.41755 53.4854ZM47.216 53.1137L48.216 53.1054L48.2077 52.1054L47.2077 52.1137L47.216 53.1137ZM20.5536 64.0233L21.5536 64.015L21.5453 63.015L20.5453 63.0233L20.5536 64.0233ZM11.4659 64.0987L11.4576 63.0987L10.4576 63.107L10.4659 64.107L11.4659 64.0987ZM12.6382 78.1054L11.8031 78.6556L11.8058 78.6596L12.6382 78.1054ZM19.6139 78.0476L18.7698 77.5113L18.7652 77.5188L19.6139 78.0476ZM38.313 63.8759L39.313 63.8676L39.3047 62.8677L38.3047 62.876L38.313 63.8759ZM29.4813 63.9492L29.473 62.9492L28.473 62.9575L28.4813 63.9575L29.4813 63.9492ZM46.3759 72.3853C46.4221 77.9592 45.393 82.006 43.4429 84.6779L45.0584 85.857C47.3694 82.6906 48.4237 78.1438 48.3758 72.3688L46.3759 72.3853ZM43.4401 84.6817C41.548 87.3003 38.7369 88.6653 34.8388 88.6976L34.8554 90.6976C39.277 90.6609 42.735 89.0724 45.0612 85.8531L43.4401 84.6817ZM34.8388 88.6976C32.8697 88.714 31.1549 88.2149 29.6604 87.2174L28.5501 88.8809C30.4021 90.117 32.5153 90.717 34.8554 90.6976L34.8388 88.6976ZM29.6654 87.2208C28.1663 86.2072 27.0233 84.8652 26.2293 83.1751L24.4191 84.0256C25.3624 86.0333 26.7401 87.6571 28.5451 88.8776L29.6654 87.2208ZM24.3819 83.2657C23.719 85.1318 22.583 86.6802 20.9519 87.9248L22.1651 89.5148C24.0956 88.0418 25.4701 86.1772 26.2665 83.9351L24.3819 83.2657ZM20.9473 87.9283C19.3621 89.1524 17.5746 89.7689 15.5512 89.7857L15.5678 91.7856C18.0242 91.7652 20.236 91.0045 22.1697 89.5113L20.9473 87.9283ZM15.5512 89.7857C11.6478 89.8181 8.77459 88.5169 6.77597 85.9609L5.20045 87.1929C7.64378 90.3176 11.1514 91.8222 15.5678 91.7856L15.5512 89.7857ZM6.77597 85.9609C4.74821 83.3677 3.63249 79.388 3.58663 73.8604L1.5867 73.877C1.63429 79.613 2.78626 84.1054 5.20045 87.1929L6.77597 85.9609ZM3.58663 73.8604L3.41751 53.4771L1.41758 53.4937L1.5867 73.877L3.58663 73.8604ZM2.42585 54.4853L47.2243 54.1137L47.2077 52.1137L2.40925 52.4854L2.42585 54.4853ZM46.216 53.122L46.3759 72.3853L48.3758 72.3688L48.216 53.1054L46.216 53.122ZM20.5453 63.0233L11.4576 63.0987L11.4742 65.0986L20.5619 65.0232L20.5453 63.0233ZM10.4659 64.107L10.5419 73.2587L12.5418 73.2421L12.4659 64.0904L10.4659 64.107ZM10.5419 73.2587C10.5604 75.4914 10.935 77.338 11.8031 78.6556L13.4732 77.5552C12.9153 76.7086 12.559 75.3185 12.5418 73.2421L10.5419 73.2587ZM11.8058 78.6596C12.7706 80.1089 14.3077 80.7557 16.1801 80.7401L16.1635 78.7402C14.7934 78.7516 13.9747 78.3086 13.4706 77.5513L11.8058 78.6596ZM16.1801 80.7401C18.0364 80.7247 19.5456 80.0483 20.4627 78.5764L18.7652 77.5188C18.2927 78.2771 17.5072 78.7291 16.1635 78.7402L16.1801 80.7401ZM20.458 78.5838C21.3041 77.252 21.648 75.3995 21.6295 73.1667L19.6296 73.1833C19.6468 75.2597 19.3136 76.6555 18.7699 77.5113L20.458 78.5838ZM21.6295 73.1667L21.5536 64.015L19.5536 64.0316L19.6296 73.1833L21.6295 73.1667ZM38.3047 62.876L29.473 62.9492L29.4896 64.9492L38.3213 64.8759L38.3047 62.876ZM28.4813 63.9575L28.5504 72.2772L30.5503 72.2606L30.4813 63.9409L28.4813 63.9575ZM28.5504 72.2772C28.5686 74.4755 28.964 76.2996 29.888 77.5929C30.8579 78.9504 32.3066 79.5823 34.059 79.5678L34.0424 77.5678C32.8296 77.5779 32.0456 77.1723 31.5154 76.4302C30.9392 75.6238 30.5671 74.2862 30.5503 72.2606L28.5504 72.2772ZM34.059 79.5678C35.796 79.5534 37.2184 78.893 38.1525 77.5187C39.041 76.2116 39.4002 74.3837 39.382 72.1874L37.3821 72.2039C37.3989 74.2315 37.0537 75.5776 36.4984 76.3944C35.9888 77.1443 35.228 77.558 34.0424 77.5678L34.059 79.5678ZM39.382 72.1874L39.313 63.8676L37.313 63.8842L37.3821 72.2039L39.382 72.1874ZM46.7519 109.031L47.6777 108.653L47.6768 108.651L46.7519 109.031ZM46.9099 128.07L45.9788 127.705L45.9779 127.708L46.9099 128.07ZM42.1402 135.598L41.4272 134.897L41.4199 134.904L42.1402 135.598ZM34.8208 140.523L35.2057 141.446L34.8208 140.523ZM16.2614 140.677L15.8918 141.606L16.2614 140.677ZM8.8293 135.875L8.12436 136.584L8.1244 136.584L8.8293 135.875ZM3.96734 128.427L4.89318 128.049L4.89223 128.046L3.96734 128.427ZM3.80938 109.387L2.8783 109.022L2.8774 109.025L3.80938 109.387ZM8.54709 101.86L7.8341 101.158L7.82687 101.166L8.54709 101.86ZM15.8988 96.9665L16.2837 97.8895L15.8988 96.9665ZM34.4581 96.8126L34.8277 95.8834L34.4581 96.8126ZM41.8579 101.583L41.153 102.293L41.153 102.293L41.8579 101.583ZM34.8098 127.627L34.1096 126.913L34.1063 126.916L34.8098 127.627ZM34.6608 109.675L35.3524 108.953L35.3491 108.95L34.6608 109.675ZM15.9095 109.831L15.2093 109.117L15.206 109.12L15.9095 109.831ZM16.0584 127.782L16.75 127.06L16.7467 127.057L16.0584 127.782ZM45.8261 109.409C46.9723 112.217 47.5636 115.264 47.591 118.56L49.5909 118.544C49.5616 115.014 48.927 111.713 47.6777 108.653L45.8261 109.409ZM47.591 118.56C47.6183 121.857 47.0775 124.902 45.9788 127.705L47.8409 128.435C49.0403 125.374 49.6202 122.074 49.5909 118.544L47.591 118.56ZM45.9779 127.708C44.8736 130.547 43.3542 132.938 41.4272 134.897L42.8531 136.299C44.9879 134.129 46.6484 131.501 47.8418 128.433L45.9779 127.708ZM41.4199 134.904C39.5122 136.885 37.1891 138.452 34.4358 139.6L35.2057 141.446C38.1927 140.2 40.7492 138.484 42.8604 136.292L41.4199 134.904ZM34.4358 139.6C31.6924 140.744 28.7329 141.334 25.5474 141.36L25.564 143.36C28.9916 143.332 32.2087 142.696 35.2057 141.446L34.4358 139.6ZM25.5474 141.36C22.3619 141.386 19.393 140.846 16.631 139.748L15.8918 141.606C18.9091 142.806 22.1364 143.388 25.564 143.36L25.5474 141.36ZM16.631 139.748C13.8582 138.645 11.4971 137.116 9.5342 135.165L8.1244 136.584C10.2917 138.738 12.8854 140.41 15.8918 141.606L16.631 139.748ZM9.53424 135.165C7.59486 133.238 6.04531 130.871 4.89318 128.049L3.04151 128.805C4.2848 131.85 5.97656 134.449 8.12436 136.584L9.53424 135.165ZM4.89223 128.046C3.74716 125.261 3.15587 122.226 3.12852 118.929L1.12859 118.946C1.15787 122.476 1.79245 125.766 3.04246 128.807L4.89223 128.046ZM3.12852 118.929C3.10117 115.633 3.64189 112.576 4.74136 109.75L2.8774 109.025C1.67912 112.105 1.0993 115.416 1.12859 118.946L3.12852 118.929ZM4.74045 109.752C5.84574 106.931 7.3568 104.537 9.2673 102.553L7.82687 101.166C5.71853 103.355 4.07111 105.978 2.87831 109.022L4.74045 109.752ZM9.26004 102.561C11.1908 100.598 13.5274 99.0392 16.2837 97.8895L15.5138 96.0436C12.5298 97.2883 9.96527 98.9917 7.83414 101.158L9.26004 102.561ZM16.2837 97.8895C19.0271 96.7452 21.9866 96.156 25.1721 96.1296L25.1555 94.1296C21.7279 94.1581 18.5108 94.7935 15.5138 96.0436L16.2837 97.8895ZM25.1721 96.1296C28.3576 96.1031 31.3265 96.6431 34.0885 97.7418L34.8277 95.8834C31.8104 94.6832 28.5832 94.1012 25.1555 94.1296L25.1721 96.1296ZM34.0885 97.7417C36.8627 98.8452 39.2126 100.364 41.153 102.293L42.5629 100.874C40.4161 98.7404 37.8328 97.0787 34.8277 95.8834L34.0885 97.7417ZM41.153 102.293C43.1161 104.244 44.676 106.611 45.827 109.411L47.6768 108.651C46.4328 105.625 44.73 103.028 42.5628 100.874L41.153 102.293ZM35.51 128.341C38.1134 125.787 39.3836 122.521 39.3513 118.629L37.3513 118.645C37.3796 122.049 36.2887 124.776 34.1096 126.913L35.51 128.341ZM39.3513 118.629C39.319 114.736 37.9949 111.483 35.3524 108.953L33.9693 110.398C36.1869 112.521 37.3231 115.242 37.3513 118.645L39.3513 118.629ZM35.3491 108.95C32.7036 106.44 29.3058 105.232 25.2479 105.265L25.2645 107.265C28.8864 107.235 31.7583 108.3 33.9726 110.401L35.3491 108.95ZM25.2479 105.265C21.19 105.299 17.8128 106.564 15.2093 109.117L16.6097 110.545C18.7888 108.408 21.6427 107.295 25.2645 107.265L25.2479 105.265ZM15.206 109.12C12.6059 111.694 11.3359 114.968 11.3682 118.861L13.3682 118.844C13.3399 115.441 14.4308 112.701 16.6129 110.542L15.206 109.12ZM11.3682 118.861C11.4005 122.753 12.7247 125.998 15.3702 128.508L16.7467 127.057C14.5324 124.956 13.3964 122.248 13.3682 118.844L11.3682 118.861ZM15.3668 128.505C18.0121 131.037 21.4111 132.258 25.4716 132.224L25.455 130.224C21.8358 130.254 18.9649 129.181 16.75 127.06L15.3668 128.505ZM25.4716 132.224C29.5321 132.191 32.9104 130.914 35.5132 128.337L34.1063 126.916C31.9269 129.073 29.0742 130.194 25.455 130.224L25.4716 132.224ZM7.55091 182.36L6.82962 183.052L6.83188 183.055L7.55091 182.36ZM7.31144 153.497L6.58087 152.814L6.57876 152.816L7.31144 153.497ZM48.0033 148.007L49.0033 147.999L48.995 146.999L47.995 147.007L48.0033 148.007ZM48.0922 158.727L48.1005 159.727L49.1005 159.718L49.0922 158.718L48.0922 158.727ZM15.025 161.369L14.3025 160.678L14.2977 160.683L15.025 161.369ZM15.1331 174.393L14.4172 175.091L14.4222 175.096L15.1331 174.393ZM48.2396 176.486L49.2396 176.478L49.2313 175.478L48.2313 175.486L48.2396 176.486ZM48.3285 187.206L48.3368 188.206L49.3368 188.197L49.3285 187.197L48.3285 187.206ZM21.6011 186.427C15.7382 186.476 11.345 184.846 8.26995 181.665L6.83188 183.055C10.3846 186.73 15.3638 188.479 21.6177 188.427L21.6011 186.427ZM8.2722 181.667C5.20421 178.472 3.58499 173.949 3.53531 167.961L1.53538 167.977C1.588 174.319 3.31249 179.39 6.82962 183.052L8.2722 181.667ZM3.53531 167.961C3.48563 161.972 5.02957 157.423 8.04413 154.177L6.57876 152.816C3.12289 156.537 1.48276 161.635 1.53538 167.977L3.53531 167.961ZM8.04202 154.18C11.0409 150.971 15.4049 149.277 21.2925 149.229L21.2759 147.229C15.004 147.281 10.0528 149.099 6.58087 152.814L8.04202 154.18ZM21.2925 149.229L48.0116 149.007L47.995 147.007L21.2759 147.229L21.2925 149.229ZM47.0033 148.015L47.0923 158.735L49.0922 158.718L49.0033 147.999L47.0033 148.015ZM48.0839 157.727L21.7808 157.945L21.7974 159.945L48.1005 159.727L48.0839 157.727ZM21.7808 157.945C18.6234 157.971 16.0709 158.83 14.3025 160.678L15.7475 162.06C17.0248 160.726 18.9817 159.968 21.7974 159.945L21.7808 157.945ZM14.2977 160.683C12.5764 162.507 11.7826 164.952 11.807 167.892L13.807 167.875C13.7857 165.312 14.4706 163.414 15.7523 162.055L14.2977 160.683ZM11.807 167.892C11.8316 170.851 12.6646 173.294 14.4173 175.091L15.8489 173.694C14.5461 172.359 13.8284 170.463 13.807 167.875L11.807 167.892ZM14.4222 175.096C16.221 176.914 18.7874 177.73 21.9448 177.704L21.9282 175.704C19.1125 175.728 17.1433 175.003 15.844 173.689L14.4222 175.096ZM21.9448 177.704L48.2479 177.486L48.2313 175.486L21.9282 175.704L21.9448 177.704ZM47.2396 176.494L47.3286 187.214L49.3285 187.197L49.2396 176.478L47.2396 176.494ZM48.3202 186.206L21.6011 186.427L21.6177 188.427L48.3368 188.206L48.3202 186.206ZM38.7546 228.954L37.7546 228.963L37.7629 229.963L38.7628 229.954L38.7546 228.954ZM38.6446 215.707L39.6446 215.699L39.6363 214.699L38.6363 214.707L38.6446 215.707ZM3.76584 215.996L2.76588 216.005L2.77417 217.005L3.77414 216.996L3.76584 215.996ZM3.67717 205.309L3.66887 204.309L2.66891 204.317L2.6772 205.317L3.67717 205.309ZM38.556 205.019L38.5643 206.019L39.5642 206.011L39.5559 205.011L38.556 205.019ZM38.4458 191.74L38.4375 190.74L37.4375 190.748L37.4458 191.748L38.4458 191.74ZM48.3655 191.657L49.3654 191.649L49.3571 190.649L48.3572 190.657L48.3655 191.657ZM48.6742 228.872L48.6825 229.872L49.6825 229.864L49.6742 228.864L48.6742 228.872ZM39.7545 228.946L39.6446 215.699L37.6447 215.715L37.7546 228.963L39.7545 228.946ZM38.6363 214.707L3.75755 214.996L3.77414 216.996L38.6529 216.707L38.6363 214.707ZM4.76581 215.988L4.67714 205.3L2.6772 205.317L2.76588 216.005L4.76581 215.988ZM3.68547 206.309L38.5643 206.019L38.5477 204.019L3.66887 204.309L3.68547 206.309ZM39.5559 205.011L39.4458 191.731L37.4458 191.748L37.556 205.028L39.5559 205.011ZM38.4541 192.74L48.3738 192.657L48.3572 190.657L38.4375 190.74L38.4541 192.74ZM47.3655 191.666L47.6742 228.88L49.6742 228.864L49.3654 191.649L47.3655 191.666ZM48.6659 227.872L38.7463 227.955L38.7628 229.954L48.6825 229.872L48.6659 227.872ZM8.37173 281.294L7.65044 281.986L7.6527 281.989L8.37173 281.294ZM8.13226 252.431L7.40169 251.748L7.39958 251.75L8.13226 252.431ZM48.8241 246.941L49.8241 246.933L49.8158 245.933L48.8158 245.941L48.8241 246.941ZM48.9131 257.661L48.9214 258.661L49.9213 258.652L49.913 257.652L48.9131 257.661ZM15.8458 260.303L15.1233 259.612L15.1185 259.617L15.8458 260.303ZM15.9539 273.327L15.2381 274.025L15.243 274.03L15.9539 273.327ZM49.0604 275.42L50.0604 275.412L50.0521 274.412L49.0521 274.42L49.0604 275.42ZM49.1493 286.14L49.1576 287.14L50.1576 287.131L50.1493 286.131L49.1493 286.14ZM22.422 285.361C16.559 285.41 12.1658 283.78 9.09077 280.599L7.6527 281.989C11.2054 285.665 16.1846 287.413 22.4386 287.361L22.422 285.361ZM9.09302 280.601C6.02503 277.406 4.40581 272.883 4.35613 266.895L2.3562 266.911C2.40882 273.253 4.13331 278.324 7.65044 281.986L9.09302 280.601ZM4.35613 266.895C4.30645 260.906 5.85039 256.357 8.86495 253.111L7.39958 251.75C3.94371 255.471 2.30358 260.569 2.3562 266.911L4.35613 266.895ZM8.86284 253.114C11.8617 249.905 16.2257 248.212 22.1133 248.163L22.0967 246.163C15.8248 246.215 10.8736 248.033 7.40169 251.748L8.86284 253.114ZM22.1133 248.163L48.8324 247.941L48.8158 245.941L22.0967 246.163L22.1133 248.163ZM47.8242 246.949L47.9131 257.669L49.913 257.652L49.8241 246.933L47.8242 246.949ZM48.9048 256.661L22.6017 256.879L22.6183 258.879L48.9214 258.661L48.9048 256.661ZM22.6017 256.879C19.4442 256.905 16.8918 257.764 15.1234 259.612L16.5683 260.994C17.8456 259.66 19.8026 258.902 22.6183 258.879L22.6017 256.879ZM15.1185 259.617C13.3972 261.441 12.6035 263.886 12.6279 266.826L14.6278 266.809C14.6065 264.246 15.2914 262.348 16.5731 260.989L15.1185 259.617ZM12.6279 266.826C12.6524 269.785 13.4854 272.228 15.2381 274.025L16.6697 272.628C15.367 271.293 14.6492 269.397 14.6278 266.809L12.6279 266.826ZM15.243 274.03C17.0418 275.848 19.6082 276.664 22.7656 276.638L22.749 274.638C19.9333 274.662 17.9641 273.937 16.6648 272.623L15.243 274.03ZM22.7656 276.638L49.0687 276.42L49.0521 274.42L22.749 274.638L22.7656 276.638ZM48.0604 275.428L48.1494 286.148L50.1493 286.131L50.0604 275.412L48.0604 275.428ZM49.141 285.14L22.422 285.361L22.4386 287.361L49.1576 287.14L49.141 285.14ZM36.771 325.448L35.9034 324.951L35.3907 325.845L36.3006 326.33L36.771 325.448ZM39.342 307.474L40.2176 306.991L40.2142 306.985L39.342 307.474ZM35.1366 305.877L34.6614 304.997L35.1366 305.877ZM34.1531 306.909L33.2946 306.396L33.2817 306.418L33.2699 306.44L34.1531 306.909ZM33.4603 308.259L32.5622 307.819L32.5479 307.848L32.5355 307.878L33.4603 308.259ZM32.9008 310.247L31.9249 310.029L31.922 310.042L31.9194 310.055L32.9008 310.247ZM32.0748 314.83L31.0894 314.66L31.0879 314.669L32.0748 314.83ZM31.7702 316.689L32.7567 316.853L32.757 316.851L31.7702 316.689ZM27.4732 327.189L26.7131 326.539L26.7104 326.542L27.4732 327.189ZM13.3197 329.962L13.6933 329.035L13.6874 329.033L13.3197 329.962ZM9.04072 327.214L9.74845 326.507L9.04072 327.214ZM6.09405 323.046L6.9895 322.601L6.98715 322.596L6.09405 323.046ZM4.32362 317.941L5.30255 317.736L5.30208 317.734L4.32362 317.941ZM5.11434 301.39L4.15013 301.124L4.14971 301.126L5.11434 301.39ZM9.26519 292.555L9.78132 291.698L9.00639 291.231L8.46443 291.956L9.26519 292.555ZM18.0132 297.826L18.8458 298.38L19.4251 297.51L18.5294 296.97L18.0132 297.826ZM14.5278 317.44L13.6489 317.917L13.655 317.928L14.5278 317.44ZM19.0529 319.003L18.512 318.161L18.512 318.161L19.0529 319.003ZM20.0684 317.97L19.2255 317.432L20.0684 317.97ZM20.821 316.108L19.8601 315.831L19.8581 315.838L20.821 316.108ZM21.3771 313.703L20.3968 313.505L20.3943 313.518L20.3921 313.53L21.3771 313.703ZM21.9265 310.498L22.915 310.649L22.9156 310.645L21.9265 310.498ZM22.2599 308.256L21.2709 308.107L21.2708 308.109L22.2599 308.256ZM26.5876 297.595L25.8522 296.918L25.849 296.921L26.5876 297.595ZM35.8069 294.095L35.7936 295.095L35.7954 295.095L35.8069 294.095ZM46.185 299.129L45.3999 299.748L45.3999 299.748L46.185 299.129ZM49.215 321.056L48.2421 320.825L48.2416 320.827L49.215 321.056ZM45.5783 330.143L45.1079 331.025L45.9843 331.493L46.4575 330.619L45.5783 330.143ZM37.6386 325.945C40.1927 321.488 41.4773 317.028 41.4404 312.577L39.4405 312.593C39.474 316.632 38.3124 320.747 35.9034 324.951L37.6386 325.945ZM41.4404 312.577C41.4221 310.365 41.0396 308.481 40.2176 306.991L38.4664 307.957C39.0739 309.058 39.4238 310.581 39.4405 312.593L41.4404 312.577ZM40.2142 306.985C39.3517 305.447 38.0449 304.564 36.3419 304.579L36.3585 306.579C37.2154 306.571 37.9031 306.953 38.4698 307.963L40.2142 306.985ZM36.3419 304.579C35.7461 304.584 35.1788 304.717 34.6614 304.997L35.6118 306.756C35.8165 306.646 36.0583 306.581 36.3585 306.579L36.3419 304.579ZM34.6614 304.997C34.0908 305.305 33.6464 305.807 33.2946 306.396L35.0116 307.422C35.249 307.024 35.4603 306.838 35.6118 306.756L34.6614 304.997ZM33.2699 306.44C32.9934 306.961 32.7572 307.421 32.5622 307.819L34.3584 308.698C34.5411 308.325 34.7667 307.886 35.0363 307.378L33.2699 306.44ZM32.5355 307.878C32.3337 308.369 32.1323 309.102 31.9249 310.029L33.8766 310.466C34.0807 309.554 34.2523 308.962 34.3851 308.639L32.5355 307.878ZM31.9194 310.055C31.7349 310.997 31.6004 311.711 31.517 312.192L33.4876 312.533C33.5671 312.075 33.6982 311.378 33.8821 310.44L31.9194 310.055ZM31.517 312.192C31.4356 312.662 31.2931 313.485 31.0895 314.66L33.0601 315.001C33.2637 313.826 33.4062 313.003 33.4876 312.533L31.517 312.192ZM31.0879 314.669L30.7834 316.527L32.757 316.851L33.0616 314.992L31.0879 314.669ZM30.7837 316.525C30.05 320.945 28.6686 324.252 26.7131 326.539L28.2332 327.839C30.5035 325.184 31.9868 321.491 32.7567 316.853L30.7837 316.525ZM26.7104 326.542C24.8029 328.792 22.2618 329.944 18.9839 329.971L19.0005 331.971C22.8051 331.94 25.918 330.57 28.236 327.836L26.7104 326.542ZM18.9839 329.971C17.0297 329.988 15.2706 329.67 13.6933 329.035L12.946 330.89C14.7937 331.634 16.8162 331.99 19.0005 331.971L18.9839 329.971ZM13.6874 329.033C12.1104 328.409 10.8035 327.564 9.74845 326.507L8.33299 327.92C9.60131 329.191 11.1471 330.179 12.9519 330.892L13.6874 329.033ZM9.74845 326.507C8.67003 325.427 7.74881 324.128 6.98949 322.601L5.1986 323.491C6.04479 325.193 7.08803 326.673 8.33299 327.92L9.74845 326.507ZM6.98715 322.596C6.22515 321.083 5.66311 319.465 5.30255 317.736L3.34471 318.145C3.73954 320.037 4.35777 321.822 5.20094 323.496L6.98715 322.596ZM5.30208 317.734C4.93928 316.015 4.74866 314.206 4.73289 312.305L2.73295 312.322C2.74975 314.346 2.95294 316.288 3.34518 318.147L5.30208 317.734ZM4.73289 312.305C4.7021 308.595 5.15193 305.046 6.07897 301.653L4.14971 301.126C3.17185 304.704 2.70073 308.437 2.73295 312.322L4.73289 312.305ZM6.07855 301.655C7.00406 298.289 8.33872 295.463 10.0659 293.154L8.46443 291.956C6.56244 294.498 5.12987 297.562 4.15014 301.124L6.07855 301.655ZM8.74905 293.411L17.4971 298.683L18.5294 296.97L9.78132 291.698L8.74905 293.411ZM17.1807 297.272C13.9857 302.074 12.386 307.101 12.4294 312.337L14.4293 312.321C14.3896 307.53 15.8458 302.889 18.8458 298.38L17.1807 297.272ZM12.4294 312.337C12.4476 314.53 12.8311 316.411 13.649 317.917L15.4066 316.963C14.7946 315.836 14.4458 314.309 14.4293 312.321L12.4294 312.337ZM13.655 317.928C14.543 319.516 15.896 320.413 17.6565 320.398L17.6399 318.398C16.7124 318.406 15.9852 317.997 15.4006 316.952L13.655 317.928ZM17.6565 320.398C18.3569 320.392 19.0143 320.216 19.5939 319.844L18.512 318.161C18.2852 318.307 18.0061 318.395 17.6399 318.398L17.6565 320.398ZM19.5939 319.844C20.1258 319.501 20.5648 319.051 20.9113 318.508L19.2255 317.432C19.0244 317.747 18.7864 317.985 18.512 318.161L19.5939 319.844ZM20.9113 318.508C21.2614 317.96 21.5443 317.232 21.7838 316.378L19.8581 315.838C19.6418 316.609 19.423 317.123 19.2255 317.432L20.9113 318.508ZM21.7819 316.385C22.0198 315.559 22.2132 314.723 22.362 313.876L20.3921 313.53C20.2557 314.307 20.0784 315.074 19.8601 315.831L21.7819 316.385ZM22.3573 313.901C22.5257 313.067 22.7115 311.981 22.915 310.649L20.938 310.347C20.7367 311.664 20.5563 312.715 20.3968 313.505L22.3573 313.901ZM22.9156 310.645L23.249 308.403L21.2708 308.109L20.9374 310.351L22.9156 310.645ZM23.2488 308.404C23.9402 303.791 25.3321 300.454 27.3262 298.269L25.849 296.921C23.4878 299.508 21.9946 303.279 21.2709 308.107L23.2488 308.404ZM27.323 298.273C29.2885 296.14 32.0636 295.045 35.7936 295.095L35.8202 293.095C31.6556 293.039 28.2846 294.278 25.8522 296.918L27.323 298.273ZM35.7954 295.095C39.8114 295.141 42.9832 296.685 45.3999 299.748L46.9701 298.509C44.169 294.959 40.4222 293.148 35.8184 293.095L35.7954 295.095ZM45.3999 299.748C47.8394 302.84 49.1216 306.906 49.1642 312.032L51.1641 312.016C51.1188 306.561 49.7484 302.031 46.9701 298.509L45.3999 299.748ZM49.1642 312.032C49.1905 315.205 48.8808 318.135 48.2421 320.825L50.188 321.287C50.8685 318.42 51.1916 315.328 51.1641 312.016L49.1642 312.032ZM48.2416 320.827C47.6073 323.521 46.4333 326.466 44.6991 329.666L46.4575 330.619C48.2533 327.305 49.5038 324.193 50.1884 321.286L48.2416 320.827ZM46.0487 329.26L37.2415 324.565L36.3006 326.33L45.1079 331.025L46.0487 329.26Z" fill="#05C2DF" fill-opacity="0.05"/>
</svg>
