<svg width="51" height="332" viewBox="0 0 51 332" fill="none" xmlns="http://www.w3.org/2000/svg">
<path d="M49.3554 283.175L50.3554 283.167L50.3433 281.712L48.9896 282.244L49.3554 283.175ZM49.45 294.566L49.7969 295.504L50.4557 295.261L50.4499 294.558L49.45 294.566ZM40.0704 298.036L39.7235 297.098L39.0646 297.342L39.0705 298.045L40.0704 298.036ZM40.218 315.828L39.2181 315.836L39.2239 316.538L39.8867 316.771L40.218 315.828ZM49.6538 319.142L50.6538 319.133L50.648 318.431L49.9852 318.198L49.6538 319.142ZM49.7465 330.309L49.3961 331.246L50.7585 331.755L50.7465 330.301L49.7465 330.309ZM4.80547 313.497L3.80551 313.506L3.81121 314.193L4.4551 314.434L4.80547 313.497ZM4.69955 300.73L4.33368 299.799L3.69388 300.051L3.69958 300.738L4.69955 300.73ZM30.5257 312.452L30.1946 313.396L31.5375 313.867L31.5257 312.444L30.5257 312.452ZM30.4354 301.572L31.4354 301.564L31.4236 300.141L30.0888 300.634L30.4354 301.572ZM15.3771 307.138L15.0304 306.2L12.4261 307.162L15.046 308.081L15.3771 307.138ZM48.3555 283.183L48.45 294.575L50.4499 294.558L50.3554 283.167L48.3555 283.183ZM49.103 293.629L39.7235 297.098L40.4174 298.974L49.7969 295.504L49.103 293.629ZM39.0705 298.045L39.2181 315.836L41.218 315.819L41.0704 298.028L39.0705 298.045ZM39.8867 316.771L49.3225 320.085L49.9852 318.198L40.5494 314.884L39.8867 316.771ZM48.6539 319.15L48.7465 330.317L50.7465 330.301L50.6538 319.133L48.6539 319.15ZM50.0969 329.373L5.15584 312.561L4.4551 314.434L49.3961 331.246L50.0969 329.373ZM5.80544 313.489L5.69951 300.722L3.69958 300.738L3.80551 313.506L5.80544 313.489ZM5.06541 301.661L49.7213 284.105L48.9896 282.244L4.33368 299.799L5.06541 301.661ZM31.5257 312.444L31.4354 301.564L29.4355 301.581L29.5257 312.46L31.5257 312.444ZM30.0888 300.634L15.0304 306.2L15.7237 308.076L30.7821 302.51L30.0888 300.634ZM15.046 308.081L30.1946 313.396L30.8567 311.508L15.7081 306.194L15.046 308.081ZM7.48567 246.974L8.29342 247.563L8.29621 247.56L7.48567 246.974ZM22.6311 244.192L23.1913 243.364L23.1863 243.36L22.6311 244.192ZM26.4122 248.641L25.5071 249.066L26.5408 251.266L27.3545 248.976L26.4122 248.641ZM30.1778 243.522L30.7844 244.317L30.789 244.313L30.1778 243.522ZM45.7481 245.664L46.5359 245.048L45.7481 245.664ZM49.3188 278.756L49.3271 279.756L50.327 279.748L50.3187 278.748L49.3188 278.756ZM4.52032 279.128L3.52036 279.136L3.52865 280.136L4.52862 280.128L4.52032 279.128ZM31.1827 268.218L30.1828 268.226L30.1911 269.226L31.191 269.218L31.1827 268.218ZM40.2704 268.143L40.2787 269.143L41.2787 269.134L41.2704 268.134L40.2704 268.143ZM39.0982 254.136L39.9332 253.586L39.9306 253.582L39.0982 254.136ZM32.1224 254.194L32.9665 254.73L32.9712 254.723L32.1224 254.194ZM13.4233 268.365L12.4234 268.374L12.4317 269.374L13.4316 269.365L13.4233 268.365ZM22.255 268.292L22.2633 269.292L23.2633 269.284L23.255 268.284L22.255 268.292ZM5.36047 259.856C5.31422 254.282 6.34337 250.235 8.29341 247.563L6.67793 246.384C4.36693 249.551 3.31262 254.098 3.36054 259.873L5.36047 259.856ZM8.29621 247.56C10.1884 244.941 12.9994 243.576 16.8975 243.544L16.8809 241.544C12.4594 241.58 9.00134 243.169 6.67513 246.388L8.29621 247.56ZM16.8975 243.544C18.8667 243.527 20.5814 244.026 22.076 245.024L23.1863 243.36C21.3342 242.124 19.221 241.524 16.8809 241.544L16.8975 243.544ZM22.071 245.021C23.57 246.034 24.713 247.376 25.5071 249.066L27.3172 248.216C26.3739 246.208 24.9962 244.584 23.1912 243.364L22.071 245.021ZM27.3545 248.976C28.0173 247.11 29.1533 245.561 30.7844 244.317L29.5712 242.727C27.6407 244.2 26.2663 246.064 25.4698 248.306L27.3545 248.976ZM30.789 244.313C32.3742 243.089 34.1618 242.472 36.1852 242.456L36.1686 240.456C33.7121 240.476 31.5003 241.237 29.5666 242.73L30.789 244.313ZM36.1852 242.456C40.0886 242.423 42.9617 243.724 44.9604 246.28L46.5359 245.048C44.0926 241.924 40.5849 240.419 36.1686 240.456L36.1852 242.456ZM44.9604 246.28C46.9881 248.874 48.1038 252.853 48.1497 258.381L50.1496 258.364C50.102 252.628 48.9501 248.136 46.5359 245.048L44.9604 246.28ZM48.1497 258.381L48.3188 278.764L50.3187 278.748L50.1496 258.364L48.1497 258.381ZM49.3105 277.756L4.51203 278.128L4.52862 280.128L49.3271 279.756L49.3105 277.756ZM5.52029 279.119L5.36047 259.856L3.36054 259.873L3.52036 279.136L5.52029 279.119ZM31.191 269.218L40.2787 269.143L40.2621 267.143L31.1744 267.218L31.191 269.218ZM41.2704 268.134L41.1945 258.983L39.1945 258.999L39.2705 268.151L41.2704 268.134ZM41.1945 258.983C41.1759 256.75 40.8014 254.903 39.9332 253.586L38.2631 254.686C38.821 255.533 39.1773 256.923 39.1945 258.999L41.1945 258.983ZM39.9306 253.582C38.9657 252.132 37.4286 251.486 35.5562 251.501L35.5728 253.501C36.9429 253.49 37.7616 253.933 38.2658 254.69L39.9306 253.582ZM35.5562 251.501C33.7 251.517 32.1907 252.193 31.2737 253.665L32.9712 254.723C33.4437 253.964 34.2291 253.512 35.5728 253.501L35.5562 251.501ZM31.2784 253.658C30.4322 254.989 30.0883 256.842 30.1068 259.075L32.1068 259.058C32.0895 256.982 32.4227 255.586 32.9665 254.73L31.2784 253.658ZM30.1068 259.075L30.1828 268.226L32.1827 268.21L32.1068 259.058L30.1068 259.075ZM13.4316 269.365L22.2633 269.292L22.2467 267.292L13.415 267.365L13.4316 269.365ZM23.255 268.284L23.186 259.964L21.186 259.981L21.2551 268.3L23.255 268.284ZM23.186 259.964C23.1677 257.766 22.7723 255.942 21.8483 254.648C20.8784 253.291 19.4297 252.659 17.6773 252.674L17.6939 254.673C18.9067 254.663 19.6907 255.069 20.221 255.811C20.7971 256.618 21.1692 257.955 21.186 259.981L23.186 259.964ZM17.6773 252.674C15.9403 252.688 14.5179 253.348 13.5838 254.723C12.6953 256.03 12.3361 257.858 12.3544 260.054L14.3543 260.037C14.3375 258.01 14.6826 256.664 15.2379 255.847C15.7476 255.097 16.5083 254.683 17.6939 254.673L17.6773 252.674ZM12.3544 260.054L12.4234 268.374L14.4233 268.357L14.3543 260.037L12.3544 260.054ZM4.98443 223.21L4.05859 223.588L4.05955 223.591L4.98443 223.21ZM4.82647 204.171L5.75754 204.536L5.75845 204.534L4.82647 204.171ZM9.59619 196.643L10.3092 197.344L10.3164 197.337L9.59619 196.643ZM16.9156 191.718L16.5306 190.795L16.9156 191.718ZM35.4749 191.564L35.8445 190.635L35.4749 191.564ZM42.907 196.367L43.612 195.658L43.6119 195.658L42.907 196.367ZM47.769 203.815L46.8432 204.193L46.8441 204.195L47.769 203.815ZM47.927 222.854L48.858 223.219L48.8589 223.217L47.927 222.854ZM43.1892 230.382L43.9022 231.083L43.9095 231.075L43.1892 230.382ZM35.8376 235.275L35.4526 234.352L35.8376 235.275ZM17.2782 235.429L16.9086 236.358L17.2782 235.429ZM9.87839 230.658L10.5833 229.949L10.5833 229.949L9.87839 230.658ZM16.9266 204.615L17.6268 205.329L17.63 205.325L16.9266 204.615ZM17.0755 222.566L16.3839 223.288L16.3872 223.291L17.0755 222.566ZM35.8269 222.41L36.5271 223.124L36.5303 223.121L35.8269 222.41ZM35.6779 204.459L34.9864 205.181L34.9897 205.185L35.6779 204.459ZM5.91027 222.832C4.76406 220.024 4.17269 216.977 4.14535 213.681L2.14541 213.698C2.1747 217.228 2.80938 220.528 4.0586 223.588L5.91027 222.832ZM4.14535 213.681C4.118 210.385 4.65884 207.34 5.75754 204.536L3.89541 203.806C2.69602 206.867 2.11613 210.167 2.14541 213.698L4.14535 213.681ZM5.75845 204.534C6.86275 201.694 8.3821 199.304 10.3091 197.344L8.88324 195.942C6.74839 198.113 5.08793 200.74 3.89449 203.808L5.75845 204.534ZM10.3164 197.337C12.2241 195.356 14.5472 193.79 17.3005 192.641L16.5306 190.795C13.5436 192.041 10.9871 193.758 8.87597 195.949L10.3164 197.337ZM17.3005 192.641C20.0439 191.497 23.0035 190.908 26.189 190.881L26.1724 188.881C22.7447 188.91 19.5276 189.545 16.5306 190.795L17.3005 192.641ZM26.189 190.881C29.3744 190.855 32.3434 191.395 35.1053 192.493L35.8445 190.635C32.8272 189.435 29.6 188.853 26.1724 188.881L26.189 190.881ZM35.1053 192.493C37.8782 193.596 40.2392 195.125 42.2021 197.076L43.6119 195.658C41.4447 193.504 38.851 191.831 35.8445 190.635L35.1053 192.493ZM42.2021 197.076C44.1415 199.004 45.691 201.37 46.8432 204.193L48.6948 203.437C47.4515 200.391 45.7598 197.792 43.612 195.658L42.2021 197.076ZM46.8441 204.195C47.9892 206.98 48.5805 210.016 48.6078 213.312L50.6078 213.296C50.5785 209.765 49.9439 206.475 48.6939 203.434L46.8441 204.195ZM48.6078 213.312C48.6352 216.608 48.0944 219.665 46.995 222.492L48.8589 223.217C50.0572 220.136 50.637 216.826 50.6078 213.296L48.6078 213.312ZM46.9959 222.489C45.8906 225.31 44.3795 227.705 42.469 229.688L43.9095 231.075C46.0178 228.887 47.6652 226.263 48.858 223.219L46.9959 222.489ZM42.4763 229.68C40.5455 231.643 38.209 233.202 35.4526 234.352L36.2226 236.198C39.2066 234.953 41.7711 233.25 43.9022 231.083L42.4763 229.68ZM35.4526 234.352C32.7093 235.496 29.7497 236.085 26.5642 236.112L26.5808 238.112C30.0084 238.083 33.2256 237.448 36.2226 236.198L35.4526 234.352ZM26.5642 236.112C23.3787 236.138 20.4098 235.598 17.6478 234.5L16.9086 236.358C19.9259 237.558 23.1532 238.14 26.5808 238.112L26.5642 236.112ZM17.6478 234.5C14.8736 233.396 12.5237 231.877 10.5833 229.949L9.17345 231.367C11.3202 233.501 13.9036 235.163 16.9086 236.358L17.6478 234.5ZM10.5833 229.949C8.62021 227.998 7.06037 225.63 5.90932 222.83L4.05955 223.591C5.30358 226.617 7.00637 229.214 9.17349 231.367L10.5833 229.949ZM16.2264 203.901C13.6229 206.454 12.3528 209.72 12.3851 213.613L14.385 213.596C14.3568 210.193 15.4476 207.466 17.6268 205.329L16.2264 203.901ZM12.3851 213.613C12.4174 217.505 13.7415 220.758 16.3839 223.288L17.7671 221.844C15.5494 219.721 14.4132 216.999 14.385 213.596L12.3851 213.613ZM16.3872 223.291C19.0327 225.801 22.4305 227.01 26.4884 226.976L26.4718 224.976C22.85 225.006 19.978 223.941 17.7638 221.841L16.3872 223.291ZM26.4884 226.976C30.5463 226.942 33.9236 225.678 36.5271 223.124L35.1267 221.696C32.9476 223.834 30.0937 224.946 26.4718 224.976L26.4884 226.976ZM36.5303 223.121C39.1305 220.548 40.4004 217.273 40.3681 213.38L38.3682 213.397C38.3964 216.8 37.3055 219.54 35.1234 221.7L36.5303 223.121ZM40.3681 213.38C40.3358 209.488 39.0116 206.243 36.3662 203.734L34.9897 205.185C37.204 207.285 38.3399 209.994 38.3682 213.397L40.3681 213.38ZM36.3695 203.737C33.7243 201.204 30.3253 199.983 26.2648 200.017L26.2813 202.017C29.9005 201.987 32.7715 203.061 34.9864 205.181L36.3695 203.737ZM26.2648 200.017C22.2042 200.051 18.826 201.328 16.2231 203.904L17.63 205.325C19.8094 203.168 22.6621 202.047 26.2813 202.017L26.2648 200.017ZM44.1854 149.882L44.9067 149.189L44.9045 149.187L44.1854 149.882ZM44.4249 178.745L45.1555 179.427L45.1576 179.425L44.4249 178.745ZM3.73304 184.234L2.73307 184.243L2.74137 185.243L3.74133 185.234L3.73304 184.234ZM3.6441 173.515L3.6358 172.515L2.63584 172.523L2.64413 173.523L3.6441 173.515ZM36.7113 170.872L37.4338 171.564L37.4386 171.559L36.7113 170.872ZM36.6033 157.849L37.3191 157.15L37.3142 157.146L36.6033 157.849ZM3.49676 155.755L2.49679 155.764L2.50509 156.764L3.50505 156.755L3.49676 155.755ZM3.40782 145.036L3.39953 144.036L2.39956 144.044L2.40786 145.044L3.40782 145.036ZM30.1352 145.814C35.9982 145.765 40.3914 147.395 43.4664 150.577L44.9045 149.187C41.3517 145.511 36.3725 143.762 30.1186 143.814L30.1352 145.814ZM43.4641 150.574C46.5321 153.769 48.1513 158.293 48.201 164.281L50.201 164.264C50.1483 157.922 48.4239 152.852 44.9067 149.189L43.4641 150.574ZM48.201 164.281C48.2507 170.269 46.7068 174.819 43.6922 178.064L45.1576 179.425C48.6135 175.705 50.2536 170.606 50.201 164.264L48.201 164.281ZM43.6943 178.062C40.6955 181.27 36.3315 182.964 30.4438 183.013L30.4604 185.013C36.7323 184.961 41.6835 183.142 45.1555 179.427L43.6943 178.062ZM30.4438 183.013L3.72474 183.234L3.74133 185.234L30.4604 185.013L30.4438 183.013ZM4.733 184.226L4.64407 173.506L2.64413 173.523L2.73307 184.243L4.733 184.226ZM3.6524 174.515L29.9555 174.297L29.9389 172.297L3.6358 172.515L3.6524 174.515ZM29.9555 174.297C33.1129 174.27 35.6654 173.412 37.4338 171.564L35.9888 170.181C34.7115 171.516 32.7546 172.273 29.9389 172.297L29.9555 174.297ZM37.4386 171.559C39.1599 169.735 39.9537 167.29 39.9293 164.349L37.9294 164.366C37.9506 166.93 37.2658 168.828 35.984 170.186L37.4386 171.559ZM39.9293 164.349C39.9048 161.39 39.0718 158.947 37.3191 157.15L35.8875 158.547C37.1902 159.883 37.9079 161.779 37.9294 164.366L39.9293 164.349ZM37.3142 157.146C35.5154 155.327 32.949 154.511 29.7916 154.537L29.8082 156.537C32.6239 156.514 34.5931 157.239 35.8924 158.552L37.3142 157.146ZM29.7916 154.537L3.48846 154.755L3.50505 156.755L29.8082 156.537L29.7916 154.537ZM4.49672 155.747L4.40779 145.027L2.40786 145.044L2.49679 155.764L4.49672 155.747ZM3.41612 146.036L30.1352 145.814L30.1186 143.814L3.39953 144.036L3.41612 146.036ZM12.9818 103.287L13.9818 103.279L13.9735 102.279L12.9735 102.287L12.9818 103.287ZM13.0917 116.534L12.0917 116.543L12.1 117.543L13.1 117.534L13.0917 116.534ZM47.9705 116.245L48.9705 116.237L48.9622 115.237L47.9622 115.245L47.9705 116.245ZM48.0592 126.933L48.0675 127.933L49.0674 127.924L49.0591 126.924L48.0592 126.933ZM13.1804 127.222L13.1721 126.222L12.1721 126.23L12.1804 127.23L13.1804 127.222ZM13.2905 140.502L13.2988 141.502L14.2988 141.493L14.2905 140.493L13.2905 140.502ZM3.37089 140.584L2.37092 140.592L2.37922 141.592L3.37918 141.584L3.37089 140.584ZM3.06213 103.369L3.05384 102.369L2.05387 102.377L2.06217 103.377L3.06213 103.369ZM11.9818 103.295L12.0917 116.543L14.0917 116.526L13.9818 103.279L11.9818 103.295ZM13.1 117.534L47.9788 117.245L47.9622 115.245L13.0834 115.534L13.1 117.534ZM46.9705 116.253L47.0592 126.941L49.0591 126.924L48.9705 116.237L46.9705 116.253ZM48.0509 125.933L13.1721 126.222L13.1887 128.222L48.0675 127.933L48.0509 125.933ZM12.1804 127.23L12.2906 140.51L14.2905 140.493L14.1803 127.214L12.1804 127.23ZM13.2823 139.502L3.36259 139.584L3.37918 141.584L13.2988 141.502L13.2823 139.502ZM4.37085 140.576L4.0621 103.361L2.06217 103.377L2.37092 140.592L4.37085 140.576ZM3.07043 104.369L12.9901 104.287L12.9735 102.287L3.05384 102.369L3.07043 104.369ZM43.3646 50.9475L44.0859 50.2549L44.0837 50.2525L43.3646 50.9475ZM43.6041 79.8105L44.3347 80.4933L44.3368 80.4911L43.6041 79.8105ZM2.91223 85.3003L1.91226 85.3086L1.92056 86.3086L2.92052 86.3003L2.91223 85.3003ZM2.82329 74.5807L2.81499 73.5807L1.81503 73.589L1.82332 74.5889L2.82329 74.5807ZM35.8905 71.9382L36.613 72.6296L36.6178 72.6246L35.8905 71.9382ZM35.7825 58.9147L36.4983 58.2164L36.4934 58.2114L35.7825 58.9147ZM2.67595 56.8213L1.67598 56.8296L1.68428 57.8295L2.68424 57.8212L2.67595 56.8213ZM2.58701 46.1017L2.57872 45.1017L1.57875 45.11L1.58705 46.1099L2.58701 46.1017ZM29.3144 46.8799C35.1774 46.8313 39.5705 48.461 42.6456 51.6425L44.0837 50.2525C40.5309 46.5768 35.5517 44.8281 29.2978 44.88L29.3144 46.8799ZM42.6433 51.6401C45.7113 54.8351 47.3305 59.3585 47.3802 65.3467L49.3802 65.3301C49.3275 58.9881 47.603 53.9175 44.0859 50.2549L42.6433 51.6401ZM47.3802 65.3467C47.4299 71.3349 45.886 75.8845 42.8714 79.13L44.3368 80.4911C47.7926 76.7706 49.4328 71.6721 49.3802 65.3301L47.3802 65.3467ZM42.8735 79.1277C39.8747 82.3362 35.5107 84.0298 29.623 84.0787L29.6396 86.0786C35.9115 86.0266 40.8627 84.2081 44.3347 80.4933L42.8735 79.1277ZM29.623 84.0787L2.90393 84.3003L2.92052 86.3003L29.6396 86.0786L29.623 84.0787ZM3.91219 85.292L3.82325 74.5724L1.82332 74.5889L1.91226 85.3086L3.91219 85.292ZM2.83159 75.5806L29.1347 75.3624L29.1181 73.3625L2.81499 73.5807L2.83159 75.5806ZM29.1347 75.3624C32.2921 75.3362 34.8446 74.4776 36.613 72.6296L35.168 71.2469C33.8907 72.5816 31.9338 73.3391 29.1181 73.3625L29.1347 75.3624ZM36.6178 72.6246C38.3391 70.8005 39.1329 68.3556 39.1085 65.4153L37.1086 65.4319C37.1298 67.9955 36.4449 69.8937 35.1632 71.2519L36.6178 72.6246ZM39.1085 65.4153C39.084 62.4562 38.251 60.013 36.4983 58.2164L35.0666 59.613C36.3694 60.9484 37.0871 62.8446 37.1086 65.4319L39.1085 65.4153ZM36.4934 58.2114C34.6946 56.393 32.1282 55.5769 28.9707 55.6031L28.9873 57.603C31.8031 57.5797 33.7723 58.3046 35.0715 59.618L36.4934 58.2114ZM28.9707 55.6031L2.66765 55.8213L2.68424 57.8212L28.9873 57.603L28.9707 55.6031ZM3.67591 56.813L3.58698 46.0934L1.58705 46.1099L1.67598 56.8296L3.67591 56.813ZM2.59531 47.1016L29.3144 46.8799L29.2978 44.88L2.57872 45.1017L2.59531 47.1016ZM14.9653 6.79359L15.833 7.29081L16.3456 6.3962L15.4358 5.91115L14.9653 6.79359ZM12.3944 24.7675L11.5188 25.2506L11.5222 25.2567L12.3944 24.7675ZM16.5998 26.3647L17.075 27.2446L16.5998 26.3647ZM17.5832 25.3325L18.4417 25.8454L18.4546 25.8237L18.4664 25.8015L17.5832 25.3325ZM18.276 23.9827L19.1742 24.4225L19.1885 24.3933L19.2009 24.3631L18.276 23.9827ZM18.8356 21.994L19.8114 22.2124L19.8143 22.1994L19.8169 22.1863L18.8356 21.994ZM19.6616 17.411L20.6469 17.5817L20.6484 17.5727L19.6616 17.411ZM19.9662 15.5524L18.9797 15.3887L18.9793 15.3907L19.9662 15.5524ZM24.2632 5.05239L25.0232 5.7023L25.026 5.69904L24.2632 5.05239ZM38.4167 2.27887L38.043 3.20647L38.049 3.2088L38.4167 2.27887ZM42.6956 5.02746L41.9879 5.73395L42.6956 5.02746ZM45.6423 9.19518L44.7469 9.64034L44.7492 9.64502L45.6423 9.19518ZM47.4127 14.3007L46.4338 14.5049L46.4343 14.5071L47.4127 14.3007ZM46.622 30.8518L47.5862 31.1169L47.5866 31.1154L46.622 30.8518ZM42.4712 39.6865L41.955 40.543L42.73 41.01L43.2719 40.2855L42.4712 39.6865ZM33.7231 34.4149L32.8906 33.861L32.3112 34.7316L33.207 35.2714L33.7231 34.4149ZM37.2085 14.8014L38.0874 14.3241L38.0813 14.3133L37.2085 14.8014ZM32.6834 13.2388L33.2244 14.0799L33.2244 14.0799L32.6834 13.2388ZM31.6679 14.2713L32.5109 14.8093L31.6679 14.2713ZM30.9154 16.1336L31.8763 16.4106L31.8782 16.4037L30.9154 16.1336ZM30.3593 18.5383L31.3395 18.7362L31.342 18.7238L31.3442 18.7113L30.3593 18.5383ZM29.8099 21.7429L28.8213 21.5919L28.8207 21.5959L29.8099 21.7429ZM29.4765 23.9858L30.4654 24.134L30.4656 24.1328L29.4765 23.9858ZM25.1488 34.6461L25.8842 35.3237L25.8874 35.3202L25.1488 34.6461ZM15.9295 38.1467L15.9428 37.1468L15.941 37.1467L15.9295 38.1467ZM5.55136 33.1126L6.33641 32.4932L6.33641 32.4932L5.55136 33.1126ZM2.52133 11.185L3.4943 11.4159L3.49471 11.4142L2.52133 11.185ZM6.15807 2.09849L6.6285 1.21605L5.75203 0.748819L5.27885 1.6221L6.15807 2.09849ZM14.0977 6.29638C11.5437 10.753 10.259 15.2134 10.296 19.6648L12.2959 19.6482C12.2624 15.6092 13.424 11.4943 15.833 7.29081L14.0977 6.29638ZM10.296 19.6648C10.3143 21.8762 10.6968 23.7608 11.5188 25.2506L13.2699 24.2845C12.6624 23.1834 12.3126 21.6606 12.2959 19.6482L10.296 19.6648ZM11.5222 25.2567C12.3847 26.7945 13.6915 27.6769 15.3945 27.6628L15.3779 25.6628C14.521 25.6699 13.8333 25.2888 13.2665 24.2784L11.5222 25.2567ZM15.3945 27.6628C15.9903 27.6578 16.5575 27.524 17.075 27.2446L16.1246 25.4848C15.9199 25.5954 15.6781 25.6603 15.3779 25.6628L15.3945 27.6628ZM17.075 27.2446C17.6456 26.9364 18.0899 26.4342 18.4417 25.8454L16.7247 24.8197C16.4873 25.2171 16.276 25.403 16.1246 25.4848L17.075 27.2446ZM18.4664 25.8015C18.743 25.2807 18.9792 24.8206 19.1742 24.4225L17.3779 23.543C17.1953 23.916 16.9696 24.3558 16.7 24.8635L18.4664 25.8015ZM19.2009 24.3631C19.4026 23.8726 19.604 23.1391 19.8114 22.2124L17.8597 21.7756C17.6557 22.6871 17.4841 23.2794 17.3512 23.6023L19.2009 24.3631ZM19.8169 22.1863C20.0014 21.2445 20.136 20.5306 20.2194 20.0494L18.2487 19.7079C18.1692 20.1667 18.0381 20.8631 17.8542 21.8018L19.8169 22.1863ZM20.2194 20.0494C20.3008 19.5793 20.4433 18.7568 20.6469 17.5817L18.6763 17.2403C18.4727 18.4153 18.3302 19.2379 18.2487 19.7079L20.2194 20.0494ZM20.6484 17.5727L20.953 15.7141L18.9793 15.3907L18.6747 17.2493L20.6484 17.5727ZM20.9527 15.7162C21.6863 11.2963 23.0678 7.98914 25.0232 5.7023L23.5032 4.40249C21.2328 7.05755 19.7496 10.7503 18.9797 15.3887L20.9527 15.7162ZM25.026 5.69904C26.9335 3.44889 29.4745 2.29706 32.7524 2.26986L32.7358 0.269933C28.9313 0.301498 25.8184 1.67133 23.5004 4.40575L25.026 5.69904ZM32.7524 2.26986C34.7066 2.25365 36.4658 2.5711 38.043 3.20644L38.7903 1.3513C36.9427 0.607022 34.9201 0.251811 32.7358 0.269933L32.7524 2.26986ZM38.049 3.2088C39.626 3.83243 40.9328 4.67703 41.9879 5.73395L43.4034 4.32098C42.135 3.05045 40.5892 2.06266 38.7844 1.34894L38.049 3.2088ZM41.9879 5.73395C43.0663 6.81428 43.9875 8.11298 44.7469 9.64034L46.5378 8.75002C45.6916 7.04791 44.6483 5.56814 43.4034 4.32098L41.9879 5.73395ZM44.7492 9.64502C45.5112 11.1579 46.0732 12.7768 46.4338 14.5049L48.3916 14.0964C47.9968 12.204 47.3786 10.4193 46.5354 8.74534L44.7492 9.64502ZM46.4343 14.5071C46.7971 16.2263 46.9877 18.0354 47.0035 19.9362L49.0034 19.9196C48.9866 17.8953 48.7834 15.9529 48.3912 14.0942L46.4343 14.5071ZM47.0035 19.9362C47.0343 23.6463 46.5844 27.1958 45.6574 30.5882L47.5866 31.1154C48.5645 27.537 49.0356 23.804 49.0034 19.9196L47.0035 19.9362ZM45.6578 30.5866C44.7323 33.9521 43.3976 36.7786 41.6704 39.0875L43.2719 40.2855C45.1739 37.7429 46.6065 34.6795 47.5862 31.1169L45.6578 30.5866ZM42.9873 38.83L34.2393 33.5584L33.207 35.2714L41.955 40.543L42.9873 38.83ZM34.5557 34.9689C37.7506 30.1672 39.3504 25.1399 39.3069 19.9041L37.307 19.9207C37.3468 24.7112 35.8906 29.3523 32.8906 33.861L34.5557 34.9689ZM39.3069 19.9041C39.2887 17.7109 38.9052 15.8306 38.0873 14.3242L36.3297 15.2785C36.9417 16.4057 37.2905 17.9327 37.307 19.9207L39.3069 19.9041ZM38.0813 14.3133C37.1934 12.7254 35.8403 11.8286 34.0799 11.8432L34.0965 13.8431C35.024 13.8354 35.7511 14.244 36.3357 15.2894L38.0813 14.3133ZM34.0799 11.8432C33.3795 11.849 32.7221 12.0249 32.1424 12.3978L33.2244 14.0799C33.4511 13.934 33.7302 13.8462 34.0965 13.8431L34.0799 11.8432ZM32.1424 12.3978C31.6105 12.7399 31.1715 13.1903 30.825 13.7333L32.5109 14.8093C32.7119 14.4943 32.9499 14.2564 33.2244 14.0799L32.1424 12.3978ZM30.825 13.7333C30.475 14.2817 30.192 15.0098 29.9525 15.8635L31.8782 16.4037C32.0946 15.6323 32.3134 15.1188 32.5109 14.8093L30.825 13.7333ZM29.9545 15.8566C29.7165 16.6821 29.5231 17.5184 29.3744 18.3653L31.3442 18.7113C31.4807 17.9345 31.658 17.1676 31.8762 16.4106L29.9545 15.8566ZM29.3791 18.3404C29.2107 19.1745 29.0248 20.2601 28.8213 21.5919L30.7984 21.894C30.9996 20.577 31.18 19.5262 31.3395 18.7362L29.3791 18.3404ZM28.8207 21.5959L28.4873 23.8388L30.4656 24.1328L30.799 21.89L28.8207 21.5959ZM28.4875 23.8376C27.7961 28.4506 26.4042 31.7869 24.4101 33.972L25.8874 35.3202C28.2485 32.7329 29.7417 28.9624 30.4654 24.134L28.4875 23.8376ZM24.4134 33.9684C22.4479 36.1014 19.6727 37.1964 15.9428 37.1468L15.9162 39.1466C20.0807 39.2021 23.4517 37.9634 25.8841 35.3237L24.4134 33.9684ZM15.941 37.1467C11.925 37.1005 8.75311 35.5561 6.33641 32.4932L4.7663 33.732C7.56731 37.282 11.3142 39.0936 15.918 39.1466L15.941 37.1467ZM6.33641 32.4932C3.897 29.4015 2.61473 25.3353 2.5722 20.2089L0.572268 20.2255C0.617522 25.68 1.988 30.2108 4.7663 33.732L6.33641 32.4932ZM2.5722 20.2089C2.54588 17.0362 2.85557 14.1067 3.4943 11.4159L1.54837 10.954C0.867822 13.821 0.544786 16.913 0.572268 20.2255L2.5722 20.2089ZM3.49471 11.4142C4.12902 8.72078 5.30302 5.77557 7.0373 2.57492L5.27885 1.6221C3.48306 4.93627 2.23257 8.04872 1.54796 10.9557L3.49471 11.4142ZM5.68765 2.98094L14.4949 7.67604L15.4358 5.91115L6.6285 1.21605L5.68765 2.98094Z" fill="#05C2DF" fill-opacity="0.5"/>
</svg>
