<svg width="51" height="333" viewBox="0 0 51 333" fill="none" xmlns="http://www.w3.org/2000/svg">
<path d="M49.3476 283.466L50.3476 283.458L50.3355 282.003L48.9818 282.536L49.3476 283.466ZM49.4421 294.858L49.7891 295.796L50.4479 295.552L50.4421 294.849L49.4421 294.858ZM40.0626 298.328L39.7156 297.39L39.0568 297.634L39.0626 298.336L40.0626 298.328ZM40.2102 316.119L39.2102 316.127L39.2161 316.83L39.8789 317.063L40.2102 316.119ZM49.646 319.433L50.646 319.425L50.6402 318.722L49.9774 318.489L49.646 319.433ZM49.7387 330.601L49.3883 331.537L50.7507 332.047L50.7387 330.592L49.7387 330.601ZM4.79766 313.789L3.79769 313.797L3.8034 314.485L4.44729 314.725L4.79766 313.789ZM4.69173 301.021L4.32587 300.091L3.68606 300.342L3.69177 301.03L4.69173 301.021ZM30.5179 312.743L30.1868 313.687L31.5296 314.158L31.5178 312.735L30.5179 312.743ZM30.4276 301.864L31.4276 301.855L31.4158 300.432L30.081 300.926L30.4276 301.864ZM15.3693 307.429L15.0226 306.491L12.4183 307.453L15.0382 308.373L15.3693 307.429ZM48.3477 283.474L48.4422 294.866L50.4421 294.849L50.3476 283.458L48.3477 283.474ZM49.0952 293.92L39.7156 297.39L40.4096 299.266L49.7891 295.796L49.0952 293.92ZM39.0626 298.336L39.2102 316.127L41.2102 316.111L41.0626 298.319L39.0626 298.336ZM39.8789 317.063L49.3147 320.376L49.9774 318.489L40.5416 315.176L39.8789 317.063ZM48.6461 319.441L48.7387 330.609L50.7387 330.592L50.646 319.425L48.6461 319.441ZM50.0891 329.664L5.14803 312.852L4.44729 314.725L49.3883 331.537L50.0891 329.664ZM5.79763 313.781L5.6917 301.013L3.69177 301.03L3.79769 313.797L5.79763 313.781ZM5.0576 301.952L49.7135 284.397L48.9818 282.536L4.32587 300.091L5.0576 301.952ZM31.5178 312.735L31.4276 301.855L29.4276 301.872L29.5179 312.752L31.5178 312.735ZM30.081 300.926L15.0226 306.491L15.7159 308.367L30.7743 302.802L30.081 300.926ZM15.0382 308.373L30.1868 313.687L30.8489 311.8L15.7003 306.485L15.0382 308.373ZM7.47786 247.265L8.28561 247.855L8.2884 247.851L7.47786 247.265ZM22.6233 244.484L23.1834 243.655L23.1784 243.652L22.6233 244.484ZM26.4043 248.932L25.4993 249.358L26.533 251.558L27.3467 249.267L26.4043 248.932ZM30.17 243.813L30.7766 244.608L30.7812 244.604L30.17 243.813ZM45.7403 245.956L46.5281 245.34L45.7403 245.956ZM49.311 279.047L49.3193 280.047L50.3192 280.039L50.3109 279.039L49.311 279.047ZM4.51251 279.419L3.51254 279.427L3.52084 280.427L4.52081 280.419L4.51251 279.419ZM31.1749 268.509L30.175 268.518L30.1833 269.518L31.1832 269.509L31.1749 268.509ZM40.2626 268.434L40.2709 269.434L41.2709 269.426L41.2626 268.426L40.2626 268.434ZM39.0904 254.427L39.9254 253.877L39.9228 253.873L39.0904 254.427ZM32.1146 254.485L32.9587 255.021L32.9634 255.014L32.1146 254.485ZM13.4155 268.657L12.4156 268.665L12.4239 269.665L13.4238 269.657L13.4155 268.657ZM22.2472 268.584L22.2555 269.583L23.2555 269.575L23.2472 268.575L22.2472 268.584ZM5.35266 260.147C5.30641 254.574 6.33555 250.527 8.2856 247.855L6.67012 246.676C4.35911 249.842 3.30481 254.389 3.35272 260.164L5.35266 260.147ZM8.2884 247.851C10.1806 245.232 12.9916 243.867 16.8897 243.835L16.8731 241.835C12.4515 241.872 8.99353 243.46 6.66732 246.68L8.2884 247.851ZM16.8897 243.835C18.8589 243.819 20.5736 244.318 22.0682 245.315L23.1784 243.652C21.3264 242.416 19.2132 241.816 16.8731 241.835L16.8897 243.835ZM22.0632 245.312C23.5622 246.326 24.7052 247.668 25.4993 249.358L27.3094 248.507C26.3661 246.499 24.9884 244.876 23.1834 243.655L22.0632 245.312ZM27.3467 249.267C28.0095 247.401 29.1455 245.853 30.7766 244.608L29.5634 243.018C27.6329 244.491 26.2585 246.356 25.462 248.598L27.3467 249.267ZM30.7812 244.604C32.3664 243.38 34.154 242.764 36.1774 242.747L36.1608 240.747C33.7043 240.767 31.4925 241.528 29.5588 243.021L30.7812 244.604ZM36.1774 242.747C40.0807 242.715 42.9539 244.016 44.9526 246.572L46.5281 245.34C44.0847 242.215 40.5771 240.71 36.1608 240.747L36.1774 242.747ZM44.9526 246.572C46.9803 249.165 48.096 253.145 48.1419 258.672L50.1418 258.656C50.0942 252.92 48.9423 248.427 46.5281 245.34L44.9526 246.572ZM48.1419 258.672L48.311 279.056L50.3109 279.039L50.1418 258.656L48.1419 258.672ZM49.3027 278.047L4.50421 278.419L4.52081 280.419L49.3193 280.047L49.3027 278.047ZM5.51247 279.411L5.35266 260.147L3.35272 260.164L3.51254 279.427L5.51247 279.411ZM31.1832 269.509L40.2709 269.434L40.2543 267.434L31.1666 267.509L31.1832 269.509ZM41.2626 268.426L41.1866 259.274L39.1867 259.291L39.2626 268.442L41.2626 268.426ZM41.1866 259.274C41.1681 257.041 40.7936 255.195 39.9254 253.877L38.2553 254.977C38.8132 255.824 39.1695 257.214 39.1867 259.291L41.1866 259.274ZM39.9228 253.873C38.9579 252.424 37.4208 251.777 35.5484 251.793L35.565 253.793C36.9351 253.781 37.7538 254.224 38.258 254.981L39.9228 253.873ZM35.5484 251.793C33.6921 251.808 32.1829 252.484 31.2659 253.956L32.9634 255.014C33.4358 254.256 34.2213 253.804 35.565 253.793L35.5484 251.793ZM31.2706 253.949C30.4244 255.281 30.0805 257.133 30.099 259.366L32.099 259.349C32.0817 257.273 32.4149 255.877 32.9587 255.021L31.2706 253.949ZM30.099 259.366L30.175 268.518L32.1749 268.501L32.099 259.349L30.099 259.366ZM13.4238 269.657L22.2555 269.583L22.2389 267.584L13.4072 267.657L13.4238 269.657ZM23.2472 268.575L23.1782 260.255L21.1782 260.272L21.2473 268.592L23.2472 268.575ZM23.1782 260.255C23.1599 258.057 22.7645 256.233 21.8405 254.94C20.8706 253.582 19.4219 252.95 17.6695 252.965L17.6861 254.965C18.8989 254.955 19.6829 255.36 20.2132 256.103C20.7893 256.909 21.1614 258.247 21.1782 260.272L23.1782 260.255ZM17.6695 252.965C15.9325 252.979 14.5101 253.64 13.576 255.014C12.6875 256.321 12.3283 258.149 12.3465 260.345L14.3465 260.329C14.3296 258.301 14.6748 256.955 15.2301 256.138C15.7398 255.388 16.5005 254.975 17.6861 254.965L17.6695 252.965ZM12.3465 260.345L12.4156 268.665L14.4155 268.648L14.3465 260.329L12.3465 260.345ZM4.97662 223.502L4.05078 223.88L4.05174 223.882L4.97662 223.502ZM4.81866 204.462L5.74973 204.827L5.75064 204.825L4.81866 204.462ZM9.58837 196.935L10.3014 197.636L10.3086 197.628L9.58837 196.935ZM16.9078 192.01L16.5228 191.087L16.9078 192.01ZM35.4671 191.856L35.8367 190.926L35.4671 191.856ZM42.8992 196.658L43.6042 195.949L43.6041 195.949L42.8992 196.658ZM47.7612 204.106L46.8353 204.484L46.8363 204.486L47.7612 204.106ZM47.9191 223.145L48.8502 223.51L48.8511 223.508L47.9191 223.145ZM43.1814 230.673L43.8944 231.374L43.9016 231.367L43.1814 230.673ZM35.8298 235.566L35.4448 234.643L35.8298 235.566ZM17.2704 235.72L16.9008 236.649L17.2704 235.72ZM9.87058 230.949L10.5755 230.24L10.5755 230.24L9.87058 230.949ZM16.9188 204.906L17.619 205.62L17.6222 205.617L16.9188 204.906ZM17.0677 222.857L16.3761 223.58L16.3794 223.583L17.0677 222.857ZM35.819 222.702L36.5193 223.416L36.5225 223.413L35.819 222.702ZM35.6701 204.75L34.9785 205.473L34.9819 205.476L35.6701 204.75ZM5.90246 223.124C4.75625 220.316 4.16488 217.269 4.13753 213.972L2.1376 213.989C2.16689 217.519 2.80156 220.819 4.05079 223.88L5.90246 223.124ZM4.13753 213.972C4.11019 210.676 4.65103 207.631 5.74973 204.827L3.88759 204.098C2.6882 207.158 2.10831 210.459 2.1376 213.989L4.13753 213.972ZM5.75064 204.825C6.85494 201.986 8.37428 199.595 10.3013 197.636L8.87543 196.233C6.74058 198.404 5.08012 201.032 3.88668 204.1L5.75064 204.825ZM10.3086 197.628C12.2163 195.648 14.5394 194.081 17.2927 192.933L16.5228 191.087C13.5358 192.333 10.9793 194.049 8.86816 196.241L10.3086 197.628ZM17.2927 192.933C20.0361 191.788 22.9957 191.199 26.1811 191.173L26.1646 189.173C22.7369 189.201 19.5198 189.837 16.5228 191.087L17.2927 192.933ZM26.1811 191.173C29.3666 191.146 32.3356 191.686 35.0975 192.785L35.8367 190.926C32.8194 189.726 29.5922 189.144 26.1646 189.173L26.1811 191.173ZM35.0975 192.785C37.8704 193.888 40.2314 195.417 42.1943 197.368L43.6041 195.949C41.4369 193.795 38.8432 192.122 35.8367 190.926L35.0975 192.785ZM42.1943 197.367C44.1337 199.295 45.6832 201.662 46.8353 204.484L48.687 203.728C47.4437 200.682 45.752 198.084 43.6042 195.949L42.1943 197.367ZM46.8363 204.486C47.9814 207.272 48.5727 210.307 48.6 213.603L50.5999 213.587C50.5707 210.057 49.9361 206.766 48.6861 203.726L46.8363 204.486ZM48.6 213.603C48.6274 216.9 48.0866 219.956 46.9872 222.783L48.8511 223.508C50.0494 220.427 50.6292 217.117 50.5999 213.587L48.6 213.603ZM46.9881 222.781C45.8828 225.601 44.3717 227.996 42.4612 229.979L43.9016 231.367C46.01 229.178 47.6574 226.554 48.8502 223.51L46.9881 222.781ZM42.4685 229.972C40.5377 231.935 38.2011 233.494 35.4448 234.643L36.2147 236.489C39.1987 235.244 41.7633 233.541 43.8944 231.374L42.4685 229.972ZM35.4448 234.643C32.7015 235.788 29.7419 236.377 26.5564 236.403L26.573 238.403C30.0006 238.375 33.2178 237.739 36.2147 236.489L35.4448 234.643ZM26.5564 236.403C23.3709 236.43 20.402 235.89 17.64 234.791L16.9008 236.649C19.9181 237.85 23.1454 238.432 26.573 238.403L26.5564 236.403ZM17.64 234.791C14.8658 233.687 12.5159 232.169 10.5755 230.24L9.16564 231.659C11.3124 233.792 13.8958 235.454 16.9008 236.649L17.64 234.791ZM10.5755 230.24C8.6124 228.289 7.05256 225.921 5.90151 223.121L4.05174 223.882C5.29577 226.908 6.99856 229.505 9.16568 231.659L10.5755 230.24ZM16.2186 204.192C13.6151 206.745 12.345 210.011 12.3773 213.904L14.3772 213.887C14.3489 210.484 15.4398 207.757 17.619 205.62L16.2186 204.192ZM12.3773 213.904C12.4095 217.797 13.7336 221.05 16.3761 223.58L17.7593 222.135C15.5416 220.012 14.4054 217.291 14.3772 213.887L12.3773 213.904ZM16.3794 223.583C19.0249 226.093 22.4227 227.301 26.4806 227.267L26.464 225.268C22.8422 225.298 19.9702 224.233 17.756 222.132L16.3794 223.583ZM26.4806 227.267C30.5385 227.234 33.9158 225.969 36.5193 223.416L35.1188 221.988C32.9398 224.125 30.0859 225.237 26.464 225.268L26.4806 227.267ZM36.5225 223.413C39.1226 220.839 40.3926 217.564 40.3603 213.672L38.3604 213.688C38.3886 217.092 37.2977 219.831 35.1156 221.991L36.5225 223.413ZM40.3603 213.672C40.328 209.779 39.0038 206.535 36.3584 204.025L34.9819 205.476C37.1962 207.577 38.3321 210.285 38.3604 213.688L40.3603 213.672ZM36.3617 204.028C33.7165 201.496 30.3175 200.275 26.2569 200.308L26.2735 202.308C29.8927 202.278 32.7637 203.352 34.9786 205.473L36.3617 204.028ZM26.2569 200.308C22.1964 200.342 18.8181 201.619 16.2153 204.195L17.6222 205.617C19.8016 203.46 22.6543 202.338 26.2735 202.308L26.2569 200.308ZM44.1776 150.173L44.8989 149.48L44.8967 149.478L44.1776 150.173ZM44.4171 179.036L45.1477 179.719L45.1498 179.717L44.4171 179.036ZM3.72522 184.526L2.72526 184.534L2.73355 185.534L3.73352 185.526L3.72522 184.526ZM3.63629 173.806L3.62799 172.806L2.62803 172.814L2.63632 173.814L3.63629 173.806ZM36.7035 171.164L37.426 171.855L37.4308 171.85L36.7035 171.164ZM36.5955 158.14L37.3113 157.442L37.3064 157.437L36.5955 158.14ZM3.48895 156.047L2.48898 156.055L2.49728 157.055L3.49724 157.047L3.48895 156.047ZM3.40001 145.327L3.39171 144.327L2.39175 144.335L2.40004 145.335L3.40001 145.327ZM30.1274 146.105C35.9904 146.057 40.3835 147.686 43.4586 150.868L44.8967 149.478C41.3439 145.802 36.3647 144.054 30.1108 144.105L30.1274 146.105ZM43.4563 150.866C46.5243 154.061 48.1435 158.584 48.1932 164.572L50.1931 164.556C50.1405 158.214 48.416 153.143 44.8989 149.48L43.4563 150.866ZM48.1932 164.572C48.2429 170.56 46.699 175.11 43.6844 178.355L45.1498 179.717C48.6056 175.996 50.2458 170.898 50.1931 164.556L48.1932 164.572ZM43.6865 178.353C40.6877 181.562 36.3237 183.255 30.436 183.304L30.4526 185.304C36.7245 185.252 41.6757 183.434 45.1477 179.719L43.6865 178.353ZM30.436 183.304L3.71693 183.526L3.73352 185.526L30.4526 185.304L30.436 183.304ZM4.72519 184.517L4.63625 173.798L2.63632 173.814L2.72526 184.534L4.72519 184.517ZM3.64458 174.806L29.9477 174.588L29.9311 172.588L3.62799 172.806L3.64458 174.806ZM29.9477 174.588C33.1051 174.562 35.6576 173.703 37.426 171.855L35.981 170.472C34.7037 171.807 32.7468 172.565 29.9311 172.588L29.9477 174.588ZM37.4308 171.85C39.1521 170.026 39.9459 167.581 39.9215 164.641L37.9216 164.657C37.9428 167.221 37.2579 169.119 35.9762 170.477L37.4308 171.85ZM39.9215 164.641C39.8969 161.682 39.0639 159.239 37.3113 157.442L35.8796 158.838C37.1824 160.174 37.9001 162.07 37.9216 164.657L39.9215 164.641ZM37.3064 157.437C35.5075 155.619 32.9412 154.802 29.7837 154.829L29.8003 156.828C32.616 156.805 34.5853 157.53 35.8845 158.843L37.3064 157.437ZM29.7837 154.829L3.48065 155.047L3.49724 157.047L29.8003 156.828L29.7837 154.829ZM4.48891 156.038L4.39998 145.319L2.40004 145.335L2.48898 156.055L4.48891 156.038ZM3.40831 146.327L30.1274 146.105L30.1108 144.105L3.39171 144.327L3.40831 146.327ZM12.974 103.578L13.9739 103.57L13.9657 102.57L12.9657 102.578L12.974 103.578ZM13.0839 116.826L12.0839 116.834L12.0922 117.834L13.0922 117.826L13.0839 116.826ZM47.9627 116.536L48.9627 116.528L48.9544 115.528L47.9544 115.536L47.9627 116.536ZM48.0514 127.224L48.0597 128.224L49.0596 128.216L49.0513 127.216L48.0514 127.224ZM13.1726 127.513L13.1643 126.513L12.1643 126.522L12.1726 127.522L13.1726 127.513ZM13.2827 140.793L13.291 141.793L14.291 141.785L14.2827 140.785L13.2827 140.793ZM3.36308 140.875L2.36311 140.884L2.37141 141.884L3.37137 141.875L3.36308 140.875ZM3.05432 103.661L3.04603 102.661L2.04606 102.669L2.05436 103.669L3.05432 103.661ZM11.974 103.587L12.0839 116.834L14.0839 116.817L13.9739 103.57L11.974 103.587ZM13.0922 117.826L47.971 117.536L47.9544 115.536L13.0756 115.826L13.0922 117.826ZM46.9627 116.545L47.0514 127.232L49.0513 127.216L48.9627 116.528L46.9627 116.545ZM48.0431 126.224L13.1643 126.513L13.1809 128.513L48.0597 128.224L48.0431 126.224ZM12.1726 127.522L12.2828 140.801L14.2827 140.785L14.1725 127.505L12.1726 127.522ZM13.2744 139.793L3.35478 139.875L3.37137 141.875L13.291 141.793L13.2744 139.793ZM4.36304 140.867L4.05429 103.652L2.05436 103.669L2.36311 140.884L4.36304 140.867ZM3.06262 104.661L12.9823 104.578L12.9657 102.578L3.04603 102.661L3.06262 104.661ZM43.3568 51.2389L44.0781 50.5463L44.0758 50.5439L43.3568 51.2389ZM43.5963 80.1019L44.3269 80.7847L44.329 80.7825L43.5963 80.1019ZM2.90441 85.5917L1.90445 85.6L1.91274 86.5999L2.91271 86.5916L2.90441 85.5917ZM2.81548 74.872L2.80718 73.8721L1.80721 73.8804L1.81551 74.8803L2.81548 74.872ZM35.8827 72.2296L36.6052 72.921L36.61 72.9159L35.8827 72.2296ZM35.7746 59.2061L36.4905 58.5077L36.4856 58.5028L35.7746 59.2061ZM2.66814 57.1127L1.66817 57.121L1.67647 58.1209L2.67643 58.1126L2.66814 57.1127ZM2.5792 46.393L2.5709 45.3931L1.57094 45.4014L1.57923 46.4013L2.5792 46.393ZM29.3066 47.1713C35.1696 47.1227 39.5627 48.7524 42.6378 51.9339L44.0758 50.5439C40.5231 46.8682 35.5439 45.1195 29.29 45.1714L29.3066 47.1713ZM42.6355 51.9315C45.7035 55.1264 47.3227 59.6498 47.3724 65.6381L49.3723 65.6215C49.3197 59.2794 47.5952 54.2089 44.0781 50.5463L42.6355 51.9315ZM47.3724 65.6381C47.4221 71.6263 45.8781 76.1759 42.8636 79.4213L44.329 80.7825C47.7848 77.0619 49.425 71.9635 49.3723 65.6215L47.3724 65.6381ZM42.8657 79.4191C39.8668 82.6276 35.5029 84.3212 29.6152 84.37L29.6318 86.37C35.9037 86.3179 40.8549 84.4994 44.3269 80.7847L42.8657 79.4191ZM29.6152 84.37L2.89612 84.5917L2.91271 86.5916L29.6318 86.37L29.6152 84.37ZM3.90438 85.5834L3.81544 74.8637L1.81551 74.8803L1.90445 85.6L3.90438 85.5834ZM2.82377 75.872L29.1269 75.6538L29.1103 73.6538L2.80718 73.8721L2.82377 75.872ZM29.1269 75.6538C32.2843 75.6276 34.8368 74.769 36.6052 72.921L35.1602 71.5382C33.8829 72.873 31.926 73.6305 29.1103 73.6538L29.1269 75.6538ZM36.61 72.9159C38.3313 71.0918 39.1251 68.6469 39.1007 65.7067L37.1008 65.7233C37.122 68.2868 36.4371 70.185 35.1554 71.5433L36.61 72.9159ZM39.1007 65.7067C39.0761 62.7476 38.2431 60.3044 36.4905 58.5078L35.0588 59.9043C36.3616 61.2398 37.0793 63.136 37.1008 65.7233L39.1007 65.7067ZM36.4856 58.5028C34.6867 56.6844 32.1204 55.8683 28.9629 55.8945L28.9795 57.8944C31.7952 57.871 33.7645 58.596 35.0637 59.9093L36.4856 58.5028ZM28.9629 55.8945L2.65984 56.1127L2.67643 58.1126L28.9795 57.8944L28.9629 55.8945ZM3.6681 57.1044L3.57916 46.3847L1.57923 46.4013L1.66817 57.121L3.6681 57.1044ZM2.5875 47.393L29.3066 47.1713L29.29 45.1714L2.5709 45.3931L2.5875 47.393ZM14.9575 7.08498L15.8251 7.58219L16.3378 6.68758L15.4279 6.20253L14.9575 7.08498ZM12.3865 25.0589L11.511 25.542L11.5144 25.5481L12.3865 25.0589ZM16.5919 26.6561L17.0671 27.536L16.5919 26.6561ZM17.5754 25.6239L18.4339 26.1367L18.4468 26.1151L18.4586 26.0929L17.5754 25.6239ZM18.2682 24.2741L19.1663 24.7139L19.1807 24.6846L19.1931 24.6545L18.2682 24.2741ZM18.8278 22.2854L19.8036 22.5038L19.8065 22.4908L19.8091 22.4777L18.8278 22.2854ZM19.6538 17.7024L20.6391 17.8731L20.6406 17.8641L19.6538 17.7024ZM19.9584 15.8438L18.9718 15.68L18.9715 15.6821L19.9584 15.8438ZM24.2554 5.34378L25.0154 5.99368L25.0182 5.99042L24.2554 5.34378ZM38.4089 2.57025L38.0352 3.49785L38.0411 3.50019L38.4089 2.57025ZM42.6878 5.31885L41.9801 6.02533L42.6878 5.31885ZM45.6345 9.48656L44.739 9.93172L44.7414 9.9364L45.6345 9.48656ZM47.4049 14.592L46.426 14.7963L46.4265 14.7985L47.4049 14.592ZM46.6142 31.1432L47.5784 31.4083L47.5788 31.4068L46.6142 31.1432ZM42.4634 39.9779L41.9472 40.8344L42.7222 41.3014L43.2641 40.5769L42.4634 39.9779ZM33.7153 34.7063L32.8828 34.1523L32.3034 35.023L33.1992 35.5628L33.7153 34.7063ZM37.2007 15.0927L38.0796 14.6155L38.0735 14.6046L37.2007 15.0927ZM32.6756 13.5302L33.2166 14.3712L33.2166 14.3712L32.6756 13.5302ZM31.6601 14.5627L32.5031 15.1007L31.6601 14.5627ZM30.9076 16.425L31.8684 16.702L31.8704 16.6951L30.9076 16.425ZM30.3515 18.8297L31.3317 19.0275L31.3342 19.0151L31.3364 19.0027L30.3515 18.8297ZM29.8021 22.0343L28.8135 21.8833L28.8129 21.8873L29.8021 22.0343ZM29.4686 24.2772L30.4576 24.4254L30.4578 24.4242L29.4686 24.2772ZM25.1409 34.9375L25.8763 35.6151L25.8796 35.6116L25.1409 34.9375ZM15.9217 38.4381L15.935 37.4381L15.9332 37.4381L15.9217 38.4381ZM5.54354 33.404L6.3286 32.7846L6.3286 32.7846L5.54354 33.404ZM2.51352 11.4764L3.48649 11.7073L3.4869 11.7056L2.51352 11.4764ZM6.15026 2.38988L6.62068 1.50743L5.74422 1.0402L5.27104 1.91348L6.15026 2.38988ZM14.0899 6.58776C11.5359 11.0444 10.2512 15.5048 10.2881 19.9562L12.2881 19.9396C12.2546 15.9006 13.4162 11.7857 15.8251 7.58219L14.0899 6.58776ZM10.2881 19.9562C10.3065 22.1676 10.689 24.0522 11.511 25.542L13.2621 24.5758C12.6546 23.4748 12.3048 21.952 12.2881 19.9396L10.2881 19.9562ZM11.5144 25.5481C12.3768 27.0859 13.6836 27.9683 15.3867 27.9541L15.3701 25.9542C14.5132 25.9613 13.8254 25.5802 13.2587 24.5698L11.5144 25.5481ZM15.3867 27.9541C15.9825 27.9492 16.5497 27.8154 17.0671 27.536L16.1167 25.7762C15.9121 25.8868 15.6703 25.9517 15.3701 25.9542L15.3867 27.9541ZM17.0671 27.536C17.6378 27.2278 18.0821 26.7256 18.4339 26.1367L16.7169 25.1111C16.4795 25.5085 16.2682 25.6944 16.1167 25.7762L17.0671 27.536ZM18.4586 26.0929C18.7352 25.5721 18.9714 25.112 19.1663 24.7139L17.3701 23.8343C17.1875 24.2074 16.9618 24.6471 16.6922 25.1549L18.4586 26.0929ZM19.1931 24.6545C19.3948 24.164 19.5962 23.4305 19.8036 22.5038L17.8519 22.067C17.6479 22.9785 17.4762 23.5708 17.3434 23.8937L19.1931 24.6545ZM19.8091 22.4777C19.9936 21.5359 20.1282 20.822 20.2115 20.3407L18.2409 19.9993C18.1614 20.4581 18.0303 21.1544 17.8464 22.0931L19.8091 22.4777ZM20.2115 20.3407C20.293 19.8707 20.4355 19.0481 20.6391 17.8731L18.6684 17.5317C18.4649 18.7067 18.3223 19.5293 18.2409 19.9993L20.2115 20.3407ZM20.6406 17.8641L20.9452 16.0055L18.9715 15.6821L18.6669 17.5406L20.6406 17.8641ZM20.9449 16.0075C21.6785 11.5877 23.0599 8.28052 25.0154 5.99368L23.4954 4.69387C21.225 7.34894 19.7418 11.0417 18.9719 15.68L20.9449 16.0075ZM25.0182 5.99042C26.9257 3.74027 29.4667 2.58844 32.7446 2.56125L32.728 0.561315C28.9235 0.59288 25.8106 1.96272 23.4926 4.69713L25.0182 5.99042ZM32.7446 2.56125C34.6988 2.54503 36.458 2.86248 38.0352 3.49782L38.7825 1.64268C36.9349 0.898404 34.9123 0.543193 32.728 0.561315L32.7446 2.56125ZM38.0411 3.50019C39.6182 4.12381 40.925 4.96841 41.9801 6.02533L43.3955 4.61236C42.1272 3.34183 40.5814 2.35404 38.7766 1.64032L38.0411 3.50019ZM41.9801 6.02533C43.0585 7.10566 43.9797 8.40436 44.7391 9.93172L46.5299 9.0414C45.6838 7.33929 44.6405 5.85952 43.3955 4.61236L41.9801 6.02533ZM44.7414 9.9364C45.5034 11.4492 46.0654 13.0682 46.426 14.7963L48.3838 14.3878C47.989 12.4954 47.3708 10.7107 46.5276 9.03672L44.7414 9.9364ZM46.4265 14.7985C46.7893 16.5177 46.9799 18.3268 46.9957 20.2276L48.9956 20.211C48.9788 18.1867 48.7756 16.2442 48.3834 14.3856L46.4265 14.7985ZM46.9957 20.2276C47.0264 23.9377 46.5766 27.4872 45.6496 30.8796L47.5788 31.4068C48.5567 27.8284 49.0278 24.0954 48.9956 20.211L46.9957 20.2276ZM45.65 30.878C44.7245 34.2435 43.3898 37.0699 41.6626 39.3789L43.2641 40.5769C45.1661 38.0343 46.5987 34.9709 47.5784 31.4083L45.65 30.878ZM42.9795 39.1214L34.2315 33.8498L33.1992 35.5628L41.9472 40.8344L42.9795 39.1214ZM34.5479 35.2603C37.7428 30.4586 39.3426 25.4313 39.2991 20.1955L37.2992 20.2121C37.3389 25.0026 35.8828 29.6437 32.8828 34.1523L34.5479 35.2603ZM39.2991 20.1955C39.2809 18.0022 38.8974 16.1219 38.0795 14.6155L36.3219 15.5699C36.9339 16.6971 37.2827 18.2241 37.2992 20.2121L39.2991 20.1955ZM38.0735 14.6046C37.1856 13.0168 35.8325 12.12 34.0721 12.1346L34.0887 14.1345C35.0161 14.1268 35.7433 14.5354 36.3279 15.5808L38.0735 14.6046ZM34.0721 12.1346C33.3717 12.1404 32.7143 12.3163 32.1346 12.6892L33.2166 14.3712C33.4433 14.2254 33.7224 14.1375 34.0887 14.1345L34.0721 12.1346ZM32.1346 12.6892C31.6027 13.0313 31.1637 13.4817 30.8172 14.0247L32.5031 15.1007C32.7041 14.7857 32.9421 14.5478 33.2166 14.3712L32.1346 12.6892ZM30.8172 14.0247C30.4671 14.5731 30.1842 15.3012 29.9447 16.1549L31.8704 16.6951C32.0868 15.9236 32.3055 15.4101 32.5031 15.1007L30.8172 14.0247ZM29.9467 16.148C29.7087 16.9735 29.5153 17.8098 29.3666 18.6567L31.3364 19.0027C31.4729 18.2258 31.6502 17.459 31.8684 16.702L29.9467 16.148ZM29.3713 18.6318C29.2029 19.4658 29.017 20.5515 28.8135 21.8833L30.7906 22.1854C30.9918 20.8684 31.1722 19.8176 31.3317 19.0275L29.3713 18.6318ZM28.8129 21.8873L28.4795 24.1301L30.4578 24.4242L30.7912 22.1814L28.8129 21.8873ZM28.4797 24.129C27.7883 28.7419 26.3964 32.0783 24.4023 34.2634L25.8796 35.6116C28.2407 33.0243 29.7339 29.2538 30.4576 24.4254L28.4797 24.129ZM24.4055 34.2598C22.4401 36.3928 19.6649 37.4878 15.935 37.4381L15.9083 39.438C20.0729 39.4935 23.4439 38.2548 25.8763 35.6151L24.4055 34.2598ZM15.9332 37.4381C11.9172 37.3919 8.7453 35.8475 6.3286 32.7846L4.75848 34.0234C7.55949 37.5734 11.3064 39.385 15.9102 39.438L15.9332 37.4381ZM6.3286 32.7846C3.88919 29.6928 2.60692 25.6267 2.56439 20.5003L0.564455 20.5169C0.609709 25.9714 1.98018 30.5022 4.75849 34.0234L6.3286 32.7846ZM2.56439 20.5003C2.53806 17.3276 2.84776 14.3981 3.48649 11.7073L1.54056 11.2454C0.860009 14.1124 0.536973 17.2044 0.564455 20.5169L2.56439 20.5003ZM3.4869 11.7056C4.1212 9.01216 5.29521 6.06696 7.02949 2.8663L5.27104 1.91348C3.47525 5.22766 2.22476 8.3401 1.54015 11.2471L3.4869 11.7056ZM5.67984 3.27232L14.4871 7.96742L15.4279 6.20253L6.62068 1.50743L5.67984 3.27232Z" fill="#05C2DF" fill-opacity="0.1"/>
</svg>
