<svg width="152" height="152" viewBox="0 0 152 152" fill="none" xmlns="http://www.w3.org/2000/svg">
<path d="M21.5456 63.8013H7.5293" stroke="#05C2DF"/>
<path d="M82.5162 63.4653V87.0837L78.3113 88.6391L77.9609 67.1575" stroke="#05C2DF"/>
<path d="M58.6895 63.1299L59.0399 87.6323L63.2447 88.9749L62.8943 67.4933" stroke="#05C2DF"/>
<path d="M74.1075 56.7524H67.0994L62.8945 60.7802V67.1576L67.0994 71.8567H74.1075L77.962 67.1576V60.7802L74.1075 56.7524Z" stroke="#05C2DF"/>
<path d="M135.63 63.8012C135.63 98.17 106.538 126.068 70.6041 126.068C34.6708 126.068 5.57812 98.17 5.57812 63.8012C5.57812 29.4324 34.6708 1.53467 70.6041 1.53467C106.538 1.53467 135.63 29.4324 135.63 63.8012Z" stroke="#05C2DF"/>
<path d="M133.527 63.8014C133.527 97.058 105.375 124.054 70.6033 124.054C35.831 124.054 7.67969 97.058 7.67969 63.8014C7.67969 30.5449 35.831 3.54883 70.6033 3.54883C105.375 3.54883 133.527 30.5449 133.527 63.8014Z" stroke="#05C2DF"/>
<path d="M120.211 64.1369C120.211 90.1638 98.1778 111.299 70.953 111.299C43.7283 111.299 21.6953 90.1638 21.6953 64.1369C21.6953 38.1099 43.7283 16.9746 70.953 16.9746C98.1778 16.9746 120.211 38.1099 120.211 64.1369Z" stroke="#05C2DF"/>
<path d="M118.107 64.1366C118.107 89.0513 97.0158 109.285 70.9522 109.285C44.8885 109.285 23.7969 89.0513 23.7969 64.1366C23.7969 41.8828 40.6214 23.3657 62.79 19.6621C62.9 19.6437 63.0102 19.6257 63.1204 19.608C65.6673 19.2005 68.2837 18.9883 70.9522 18.9883C73.3912 18.9883 75.7867 19.1655 78.1253 19.5073C78.2575 19.5266 78.3895 19.5464 78.5213 19.5668C100.982 23.0363 118.107 41.6848 118.107 64.1366Z" stroke="#05C2DF"/>
<path d="M113.202 64.1368C113.202 86.4562 94.307 104.586 70.9527 104.586C47.5984 104.586 28.7031 86.4562 28.7031 64.1368C28.7031 41.8173 47.5984 23.6875 70.9527 23.6875C94.307 23.6875 113.202 41.8173 113.202 64.1368Z" stroke="#05C2DF"/>
<path d="M104.793 64.1368C104.793 82.0073 89.6628 96.5305 70.9531 96.5305C52.2434 96.5305 37.1133 82.0073 37.1133 64.1368C37.1133 46.2664 52.2434 31.7432 70.9531 31.7432C89.6628 31.7432 104.793 46.2664 104.793 64.1368Z" stroke="#05C2DF"/>
<path d="M97.7838 63.4657C97.7838 73.8019 91.564 82.7602 82.4905 87.0774C82.3994 87.1207 82.308 87.1636 82.2163 87.206C80.947 87.7931 79.6235 88.2898 78.2547 88.6872C78.1575 88.7154 78.06 88.7431 77.9624 88.7703C75.5163 89.452 72.9288 89.8177 70.2513 89.8177C55.025 89.8177 42.7188 77.9995 42.7188 63.4657C42.7188 48.932 55.025 37.1138 70.2513 37.1138C85.4776 37.1138 97.7838 48.932 97.7838 63.4657Z" stroke="#05C2DF"/>
<path d="M82.5171 63.8015C82.5171 57.3134 77.3766 52.0537 70.6033 52.0537C63.8299 52.0537 58.6895 57.3134 58.6895 63.8015" stroke="#05C2DF"/>
<path d="M67.0977 56.7524L70.6017 63.8011L74.1058 56.7524" stroke="#05C2DF"/>
<path d="M61.4929 17.8173C59.04 13.6776 55.1856 5.19687 59.3904 4.39131M77.9622 17.4817C80.415 13.342 84.2695 4.86122 80.0646 4.05566" stroke="#05C2DF"/>
<line x1="70.7539" y1="3.04883" x2="70.7539" y2="23.1878" stroke="#05C2DF"/>
<path d="M117.557 79.241C122.526 79.2761 131.43 79.9228 130.056 83.8138M109.498 93.6739C112.014 97.7785 117.191 104.217 120.022 101.132" stroke="#05C2DF"/>
<line y1="-0.5" x2="20.8066" y2="-0.5" transform="matrix(-0.875092 -0.483957 0.516216 -0.856458 125.838 93.4961)" stroke="#05C2DF"/>
<path d="M33.1101 94.345C30.5886 98.4467 25.1446 105.816 22.3178 102.727M24.7003 80.5833C19.7312 80.6126 10.3656 81.7255 11.7348 85.618M120.361 63.8009L133.676 63.8009" stroke="#05C2DF"/>
<path d="M15.5898 94.0093L33.7298 84.0401" stroke="#05C2DF"/>
<path d="M22.9472 33.593C25.9841 29.3414 34.3004 19.8314 43.2708 15.8036C45.3732 14.7966 48.5269 16.8105 47.1253 20.167C46.7749 21.5096 39.0659 23.1878 28.2033 36.9495C26.8017 38.2921 21.896 37.2851 22.9472 33.9286" stroke="#05C2DF"/>
<path d="M42.4206 21.5096C42.4206 22.8818 41.253 24.0305 39.7669 24.0305C38.2809 24.0305 37.1133 22.8818 37.1133 21.5096C37.1133 20.1374 38.2809 18.9888 39.7669 18.9888C41.253 18.9888 42.4206 20.1374 42.4206 21.5096Z" stroke="#05C2DF"/>
<path d="M118.606 33.1814C115.569 28.9298 107.252 19.4197 98.2819 15.3919C96.1795 14.385 93.0258 16.3989 94.4275 19.7554C94.7779 21.098 102.487 22.7762 113.349 36.5379C114.751 37.8805 119.657 36.8735 118.606 33.517" stroke="#05C2DF"/>
<path d="M99.1321 21.098C99.1321 22.4702 100.3 23.6188 101.786 23.6188C103.272 23.6188 104.439 22.4702 104.439 21.098C104.439 19.7258 103.272 18.5771 101.786 18.5771C100.3 18.5771 99.1321 19.7258 99.1321 21.098Z" stroke="#05C2DF"/>
</svg>
