<svg width="15" height="14" viewBox="0 0 15 14" fill="none" xmlns="http://www.w3.org/2000/svg">
<path d="M1.27183 8.54572C1.23646 8.75627 1.21177 8.96943 1.21177 9.1875C1.21177 11.8411 3.96881 14 7.29211 14C10.6154 14 13.3189 11.8411 13.3189 9.1875C13.3189 8.96943 13.2942 8.75627 13.2588 8.54572C13.7799 8.24995 14.1224 7.66582 14.1224 7C14.1224 6.03488 13.4016 5.25 12.5153 5.25C12.1103 5.25 11.7297 5.41532 11.4379 5.70356C10.428 4.93691 9.0881 4.44928 7.60663 4.38776L8.37546 1.14035L10.1093 1.80093C10.1347 2.74212 10.8414 3.5 11.7117 3.5C12.5981 3.5 13.3189 2.71512 13.3189 1.75C13.3189 0.78488 12.5981 0 11.7117 0C11.0938 0 10.5625 0.385775 10.2937 0.943929L7.81589 0.000455729L6.7746 4.39596C5.37338 4.49167 4.05649 4.97189 3.09273 5.70356C2.80091 5.41532 2.42037 5.25 2.01534 5.25C1.12901 5.25 0.408203 6.03488 0.408203 7C0.408203 7.66582 0.750766 8.24995 1.27183 8.54572ZM9.70281 7C10.3674 7 10.9082 7.5888 10.9082 8.3125C10.9082 9.0362 10.3674 9.625 9.70281 9.625C9.03819 9.625 8.49746 9.0362 8.49746 8.3125C8.49746 7.5888 9.03819 7 9.70281 7ZM9.53101 10.8649L9.87461 11.6553C9.12054 12.0445 8.22751 12.25 7.29211 12.25C6.3567 12.25 5.4101 12.0445 4.65602 11.6553L4.99963 10.8648C6.29455 11.5322 8.23609 11.5322 9.53101 10.8649ZM4.82783 7C5.49245 7 6.03318 7.5888 6.03318 8.3125C6.03318 9.0362 5.49245 9.625 4.82783 9.625C4.16321 9.625 3.62248 9.0362 3.62248 8.3125C3.62248 7.5888 4.16321 7 4.82783 7Z" fill="white"/>
</svg>
