<svg width="161" height="27" viewBox="0 0 161 27" fill="none" xmlns="http://www.w3.org/2000/svg">
<path d="M7.80397 9.94398C7.98397 9.69198 8.19997 9.43999 8.41597 9.22399C9.60397 8.03599 11.152 7.38799 12.808 7.38799C14.464 7.38799 16.012 8.03599 17.2 9.22399C17.776 9.79999 18.244 10.484 18.568 11.24L18.712 11.528H25.048L24.904 10.916C24.22 7.85599 22.42 5.19199 19.828 3.42799C17.776 1.98799 15.364 1.23199 12.844 1.23199C9.20796 1.23199 5.75197 2.81598 3.41197 5.58798L3.12396 5.94798L7.51598 10.34L7.80397 9.94398ZM14.176 15.632L16.408 18.728C15.364 19.448 14.14 19.844 12.844 19.844C11.188 19.844 9.63997 19.196 8.45197 18.008C7.26397 16.82 6.61597 15.272 6.61597 13.616C6.61597 13.292 6.65197 12.968 6.68797 12.644L6.72397 12.392L1.97197 7.63998L1.68398 8.28798C0.891975 9.94398 0.495972 11.744 0.495972 13.616C0.495972 16.928 1.79197 20.024 4.13197 22.364C6.47197 24.704 9.56797 26 12.88 26C15.076 26 17.236 25.424 19.108 24.308V25.964H25.228V15.704L14.176 15.632ZM28.796 26H35.96L42.944 14.516L39.38 8.61198L28.796 26ZM44.096 0.835985L40.532 6.70399L50.72 23.588L52.196 26.036H59.36L44.096 0.835985ZM62.968 26H69.088V17.9L62.968 11.78V26ZM86.728 1.26798L75.316 12.68L63.904 1.26798H62.932V8.97198L69.052 15.092L75.28 21.356L81.508 15.092V26H87.628V1.26798H86.728ZM91.304 1.26798V4.32798L97.424 10.448V1.26798H91.304ZM91.304 26H97.424V13.256L91.304 7.13598V26ZM101.007 26H107.127V17.9L101.007 11.78V26ZM117.819 6.55998L117.675 6.70399V17L102.123 1.44798L101.979 1.30398H101.007V9.00798L107.127 15.128L111.051 19.052L117.783 25.784L118.035 26.036H123.795V0.583984L117.819 6.55998ZM134.753 9.94398C134.933 9.69198 135.149 9.43999 135.365 9.22399C136.553 8.03599 138.101 7.38799 139.757 7.38799C141.413 7.38799 142.961 8.03599 144.149 9.22399C144.725 9.79999 145.193 10.484 145.517 11.24L145.661 11.528H151.997L151.853 10.916C151.169 7.85599 149.369 5.19199 146.777 3.42799C144.725 1.98799 142.313 1.23199 139.793 1.23199C136.157 1.23199 132.701 2.81598 130.361 5.58798L130.073 5.94798L134.465 10.34L134.753 9.94398ZM141.125 15.632L143.357 18.728C142.313 19.448 141.089 19.844 139.793 19.844C138.137 19.844 136.589 19.196 135.401 18.008C134.213 16.82 133.565 15.272 133.565 13.616C133.565 13.292 133.601 12.968 133.637 12.644L133.673 12.392L128.921 7.63998L128.633 8.28798C127.841 9.94398 127.445 11.744 127.445 13.616C127.445 16.928 128.741 20.024 131.081 22.364C133.421 24.704 136.517 26 139.829 26C142.025 26 144.185 25.424 146.057 24.308V25.964H152.177V15.704L141.125 15.632ZM155.745 1.01598V16.136L160.893 21.284V1.01598H155.745ZM155.745 26H160.893V25.496L155.745 20.348V26Z" fill="#05C2DF"/>
</svg>
