<svg width="264" height="27" viewBox="0 0 264 27" fill="none" xmlns="http://www.w3.org/2000/svg">
<path d="M13.652 0.331998C17.564 0.331998 20.69 1.55 23.03 3.986L18.746 8.198C17.366 6.722 15.572 5.984 13.364 5.984C11.336 5.984 9.674 6.674 8.378 8.054C7.082 9.434 6.434 11.216 6.434 13.4C6.434 15.728 7.1 17.57 8.432 18.926C9.776 20.282 11.426 20.96 13.382 20.96C16.922 20.96 19.046 19.442 19.754 16.406H13.616V11.762H25.712C25.796 12.386 25.838 13.016 25.838 13.652C25.838 15.608 25.502 17.402 24.83 19.034C24.17 20.666 23.276 22.016 22.148 23.084C21.02 24.152 19.718 24.98 18.242 25.568C16.778 26.156 15.23 26.45 13.598 26.45C11.738 26.45 9.986 26.138 8.342 25.514C6.71 24.878 5.294 24.002 4.094 22.886C2.906 21.758 1.964 20.378 1.268 18.746C0.584 17.102 0.242 15.32 0.242 13.4C0.242 10.88 0.812 8.63 1.952 6.65C3.092 4.658 4.682 3.11 6.722 2.006C8.762 0.889998 11.072 0.331998 13.652 0.331998ZM48.6718 26H29.3758V0.799998H48.5998V6.218H35.3878V10.574H47.8258V15.974H35.3878V20.582H48.6718V26ZM71.8879 6.38H64.4359V26H58.4239V6.38H50.9539V0.799998H71.8879V6.38ZM88.298 26H82.286V0.799998H88.298V26ZM116.142 26H110.364L98.88 10.628V26H92.868V0.799998H98.628L110.112 16.172V0.799998H116.142V26Z" fill="white"/>
<path d="M137.6 26H143.72V19.304L137.6 13.184V26ZM128.312 1.268V7.388H137.6V10.376L143.72 16.496V7.388H153.044V1.268H128.312ZM177.78 4.868C175.44 2.528 172.344 1.232 169.032 1.232C166.26 1.232 163.632 2.132 161.436 3.824L161.004 4.184L165.36 8.54L165.684 8.324C166.656 7.712 167.808 7.388 168.996 7.388C170.652 7.388 172.2 8.036 173.388 9.224C174.576 10.412 175.224 11.96 175.224 13.616C175.224 14.804 174.9 15.956 174.288 16.928L174.072 17.252L178.428 21.608L178.788 21.176C180.48 18.98 181.38 16.352 181.38 13.58C181.38 10.268 180.084 7.172 177.744 4.832L177.78 4.868ZM172.308 18.836C171.336 19.448 170.184 19.772 168.996 19.772C167.34 19.772 165.792 19.124 164.604 17.936C163.416 16.748 162.768 15.2 162.768 13.544C162.768 12.356 163.092 11.204 163.704 10.232L163.92 9.908L159.564 5.552L159.204 5.984C157.512 8.18 156.612 10.808 156.612 13.58C156.612 16.892 157.908 19.988 160.248 22.328C162.588 24.668 165.684 25.964 168.996 25.964C171.768 25.964 174.396 25.064 176.592 23.372L177.024 23.012L172.668 18.656L172.308 18.836ZM203.596 1.268V13.652C203.596 15.308 202.948 16.856 201.76 18.044C201.436 18.368 201.076 18.656 200.68 18.908L200.176 19.232L204.604 23.66L204.964 23.408C206.404 22.292 207.592 20.816 208.42 19.16C209.284 17.432 209.716 15.56 209.716 13.616V1.232L203.596 1.268ZM197.764 19.808C197.62 19.808 197.476 19.808 197.332 19.808C195.676 19.808 194.128 19.16 192.94 17.972C191.752 16.784 191.104 15.236 191.104 13.58V12.896L184.948 6.74V13.544C184.948 17.612 186.964 21.428 190.312 23.732C192.364 25.136 194.776 25.892 197.296 25.892C198.988 25.892 200.608 25.568 202.156 24.92L202.84 24.632L197.944 19.736L197.764 19.808ZM191.068 1.16H184.912V3.932L191.068 10.088V1.16ZM220.304 10.412C220.628 9.8 221.024 9.224 221.528 8.72C222.752 7.496 224.372 6.812 226.1 6.812C227.828 6.812 229.448 7.496 230.672 8.72C231.284 9.332 231.752 10.016 232.076 10.808L232.22 11.096H238.7L238.556 10.484C237.944 7.712 236.396 5.192 234.164 3.392C231.896 1.556 229.052 0.547999 226.136 0.547999C221.96 0.547999 218.036 2.6 215.66 6.02L215.408 6.344L220.052 10.988L220.304 10.412ZM232.04 15.704C231.716 16.496 231.248 17.18 230.636 17.792C230.132 18.296 229.556 18.692 228.944 19.016C228.764 19.124 228.584 19.196 228.368 19.268C227.756 19.484 227.108 19.628 226.46 19.664C226.172 19.664 225.848 19.664 225.56 19.628C224.048 19.52 222.608 18.872 221.528 17.792C220.448 16.712 219.8 15.272 219.692 13.76V13.58L214.364 8.252L214.112 9.008C213.644 10.376 213.392 11.816 213.392 13.256C213.392 16.64 214.724 19.844 217.136 22.256C219.548 24.668 222.752 26 226.136 26C227.864 26 229.52 25.676 231.104 25.028C231.392 24.92 231.68 24.776 231.968 24.632C233.588 23.804 235.064 22.58 236.18 21.14C237.332 19.664 238.16 17.936 238.556 16.136L238.7 15.524H232.22L232.04 15.704ZM242.183 26H248.303V17.396L242.183 11.276V26ZM257.627 1.268V10.592H252.947L248.303 5.948V1.268H242.183V8.504L250.427 16.748H257.627V26.036H263.747V1.304L257.627 1.268Z" fill="#05C2DF"/>
</svg>
