<svg width="152" height="152" viewBox="0 0 152 152" fill="none" xmlns="http://www.w3.org/2000/svg">
<path d="M21.5456 63.8013H7.5293" stroke="#05C2DF"/>
<path d="M74.1056 56.7529H67.0975L62.8926 60.7807V67.1581L67.0975 71.8572H74.1056L77.9601 67.1581V60.7807L74.1056 56.7529Z" stroke="#05C2DF"/>
<path d="M135.629 63.8012C135.629 98.17 106.536 126.068 70.6025 126.068C34.6689 126.068 5.57617 98.17 5.57617 63.8012C5.57617 29.4324 34.6689 1.53467 70.6025 1.53467C106.536 1.53467 135.629 29.4324 135.629 63.8012Z" stroke="#05C2DF"/>
<path d="M133.525 63.801C133.525 97.0576 105.374 124.054 70.6016 124.054C35.8292 124.054 7.67773 97.0576 7.67773 63.801C7.67773 30.5444 35.8292 3.54834 70.6016 3.54834C105.374 3.54834 133.525 30.5444 133.525 63.801Z" stroke="#05C2DF"/>
<path d="M120.211 64.1369C120.211 90.1639 98.1782 111.299 70.9533 111.299C43.7284 111.299 21.6953 90.1639 21.6953 64.1369C21.6953 38.1099 43.7284 16.9746 70.9533 16.9746C98.1782 16.9746 120.211 38.1099 120.211 64.1369Z" stroke="#05C2DF"/>
<path d="M118.108 64.1367C118.108 89.0514 97.0161 109.285 70.9524 109.285C44.8886 109.285 23.7969 89.0514 23.7969 64.1367C23.7969 41.8828 40.6215 23.3657 62.7901 19.6621C62.9002 19.6437 63.0103 19.6257 63.1206 19.608C65.6675 19.2005 68.2839 18.9883 70.9524 18.9883C73.3914 18.9883 75.7869 19.1655 78.1256 19.5073C78.2578 19.5266 78.3897 19.5464 78.5215 19.5668C100.982 23.0363 118.108 41.6848 118.108 64.1367Z" stroke="#05C2DF"/>
<path d="M113.203 64.1368C113.203 86.4563 94.3073 104.586 70.9529 104.586C47.5985 104.586 28.7031 86.4563 28.7031 64.1368C28.7031 41.8173 47.5985 23.6875 70.9529 23.6875C94.3073 23.6875 113.203 41.8173 113.203 64.1368Z" stroke="#05C2DF"/>
<path d="M104.791 64.1369C104.791 82.0074 89.6611 96.5306 70.9513 96.5306C52.2415 96.5306 37.1113 82.0074 37.1113 64.1369C37.1113 46.2664 52.2415 31.7432 70.9513 31.7432C89.6611 31.7432 104.791 46.2664 104.791 64.1369Z" stroke="#05C2DF"/>
<path d="M97.786 63.4653C97.786 73.8014 91.5662 82.7598 82.4926 87.0769C82.4015 87.1203 82.3101 87.1632 82.2184 87.2056L82.4283 87.6594L82.2184 87.2056C80.9492 87.7927 79.6256 88.2893 78.2568 88.6867C78.1596 88.7149 78.0622 88.7427 77.9645 88.7699C75.5184 89.4516 72.9309 89.8173 70.2533 89.8173C55.027 89.8173 42.7207 77.999 42.7207 63.4653C42.7207 48.9315 55.027 37.1133 70.2533 37.1133C85.4797 37.1133 97.786 48.9315 97.786 63.4653Z" stroke="#05C2DF"/>
<path d="M67.0977 56.7529L70.6017 63.8016L74.1058 56.7529" stroke="#05C2DF"/>
<path d="M61.4909 17.8168C59.0381 13.6771 55.1836 5.19639 59.3885 4.39083M77.9603 17.4812C80.4132 13.3415 84.2677 4.86074 80.0628 4.05518" stroke="#05C2DF"/>
<line x1="70.752" y1="3.04834" x2="70.752" y2="23.1873" stroke="#05C2DF"/>
<path d="M117.557 79.2415C122.526 79.2766 131.43 79.9233 130.056 83.8143M109.498 93.6744C112.014 97.779 117.191 104.218 120.022 101.132" stroke="#05C2DF"/>
<line y1="-0.5" x2="20.8066" y2="-0.5" transform="matrix(-0.875092 -0.483956 0.516218 -0.856458 125.838 93.4966)" stroke="#05C2DF"/>
<path d="M33.1101 94.3454C30.5886 98.4471 25.1446 105.817 22.3177 102.728M24.7003 80.5838C19.7311 80.6131 10.3655 81.7259 11.7347 85.6185M120.361 63.8013L133.677 63.8013" stroke="#05C2DF"/>
<path d="M15.5898 94.0098L33.7299 84.0406" stroke="#05C2DF"/>
<path d="M22.9472 33.5925C25.9841 29.341 34.3004 19.8309 43.2709 15.8031C45.3733 14.7961 48.527 16.81 47.1254 20.1665C46.775 21.5091 39.066 23.1874 28.2033 36.949C26.8017 38.2916 21.896 37.2847 22.9472 33.9282" stroke="#05C2DF"/>
<path d="M42.4206 21.5091C42.4206 22.8813 41.253 24.03 39.767 24.03C38.2809 24.03 37.1133 22.8813 37.1133 21.5091C37.1133 20.137 38.2809 18.9883 39.767 18.9883C41.253 18.9883 42.4206 20.137 42.4206 21.5091Z" stroke="#05C2DF"/>
<path d="M118.607 33.1814C115.571 28.9298 107.254 19.4197 98.2838 15.3919C96.1814 14.385 93.0277 16.3989 94.4293 19.7554C94.7797 21.098 102.489 22.7762 113.351 36.5379C114.753 37.8805 119.659 36.8735 118.607 33.517" stroke="#05C2DF"/>
<path d="M99.1341 21.098C99.1341 22.4702 100.302 23.6188 101.788 23.6188C103.274 23.6188 104.441 22.4702 104.441 21.098C104.441 19.7258 103.274 18.5771 101.788 18.5771C100.302 18.5771 99.1341 19.7258 99.1341 21.098Z" stroke="#05C2DF"/>
</svg>
