<svg width="386" height="44" viewBox="0 0 386 44" fill="none" xmlns="http://www.w3.org/2000/svg">
<path d="M1.6875 8.81818H10.5341L16.6193 23.6477H16.9261L23.0114 8.81818H31.858V35H24.9034V19.8636H24.6989L18.8693 34.7955H14.6761L8.84659 19.7614H8.64205V35H1.6875V8.81818ZM60.5902 21.9091C60.5902 24.8239 60.0234 27.2827 58.8899 29.2855C57.7564 31.2798 56.2266 32.7926 54.3004 33.8239C52.3743 34.8466 50.2266 35.358 47.8572 35.358C45.4709 35.358 43.3146 34.8423 41.3885 33.8111C39.4709 32.7713 37.9453 31.2543 36.8118 29.2599C35.6868 27.2571 35.1243 24.8068 35.1243 21.9091C35.1243 18.9943 35.6868 16.5398 36.8118 14.5455C37.9453 12.5426 39.4709 11.0298 41.3885 10.0071C43.3146 8.97585 45.4709 8.46023 47.8572 8.46023C50.2266 8.46023 52.3743 8.97585 54.3004 10.0071C56.2266 11.0298 57.7564 12.5426 58.8899 14.5455C60.0234 16.5398 60.5902 18.9943 60.5902 21.9091ZM53.2777 21.9091C53.2777 20.3409 53.0689 19.0199 52.6513 17.946C52.2422 16.8636 51.6328 16.0455 50.8232 15.4915C50.022 14.929 49.0334 14.6477 47.8572 14.6477C46.6811 14.6477 45.6882 14.929 44.8786 15.4915C44.0774 16.0455 43.468 16.8636 43.0504 17.946C42.6413 19.0199 42.4368 20.3409 42.4368 21.9091C42.4368 23.4773 42.6413 24.8026 43.0504 25.8849C43.468 26.9588 44.0774 27.777 44.8786 28.3395C45.6882 28.8935 46.6811 29.1705 47.8572 29.1705C49.0334 29.1705 50.022 28.8935 50.8232 28.3395C51.6328 27.777 52.2422 26.9588 52.6513 25.8849C53.0689 24.8026 53.2777 23.4773 53.2777 21.9091ZM63.8789 35V8.81818H75.18C77.1232 8.81818 78.8235 9.17187 80.2809 9.87926C81.7383 10.5866 82.8718 11.6051 83.6815 12.9347C84.4911 14.2642 84.896 15.858 84.896 17.7159C84.896 19.5909 84.4783 21.1719 83.6431 22.4588C82.8164 23.7457 81.6531 24.7173 80.1531 25.3736C78.6616 26.0298 76.9187 26.358 74.9244 26.358H68.1744V20.8352H73.4925C74.3278 20.8352 75.0394 20.733 75.6275 20.5284C76.2241 20.3153 76.68 19.9787 76.9954 19.5185C77.3192 19.0582 77.4812 18.4574 77.4812 17.7159C77.4812 16.9659 77.3192 16.3565 76.9954 15.8878C76.68 15.4105 76.2241 15.0611 75.6275 14.8395C75.0394 14.6094 74.3278 14.4943 73.4925 14.4943H70.9869V35H63.8789ZM79.2198 22.983L85.7653 35H78.0437L71.6516 22.983H79.2198ZM87.9258 35V8.81818H106.795V14.5455H95.0337V19.0455H105.824V24.7727H95.0337V29.2727H106.744V35H87.9258ZM116.776 14.5455V8.81818H139.532V14.5455H131.657V35H124.651V14.5455H116.776ZM142.207 35V8.81818H149.315V19.0455H158.724V8.81818H165.832V35H158.724V24.7727H149.315V35H142.207ZM176.008 35H168.338L176.98 8.81818H186.696L195.338 35H187.667L181.94 16.0284H181.735L176.008 35ZM174.576 24.6705H188.997V29.9886H174.576V24.6705ZM220.513 8.81818V35H214.581L205.121 21.2443H204.967V35H197.859V8.81818H203.893L213.2 22.5227H213.405V8.81818H220.513Z" fill="white"/>
<path d="M250.428 17C250.146 16.1392 249.776 15.3679 249.315 14.6861C248.864 13.9957 248.322 13.4077 247.692 12.9219C247.07 12.4361 246.362 12.0653 245.57 11.8097C244.777 11.554 243.908 11.4261 242.962 11.4261C241.411 11.4261 240 11.8267 238.73 12.6278C237.46 13.429 236.45 14.6094 235.7 16.169C234.95 17.7287 234.575 19.642 234.575 21.9091C234.575 24.1761 234.955 26.0895 235.713 27.6491C236.472 29.2088 237.499 30.3892 238.794 31.1903C240.089 31.9915 241.547 32.392 243.166 32.392C244.666 32.392 245.987 32.0724 247.129 31.4332C248.28 30.7855 249.175 29.8736 249.814 28.6974C250.462 27.5128 250.786 26.1193 250.786 24.517L251.757 24.7216H243.882V21.9091H253.854V24.7216C253.854 26.8778 253.393 28.7528 252.473 30.3466C251.561 31.9403 250.3 33.1761 248.689 34.054C247.087 34.9233 245.246 35.358 243.166 35.358C240.848 35.358 238.811 34.8125 237.055 33.7216C235.308 32.6307 233.945 31.0795 232.964 29.0682C231.993 27.0568 231.507 24.6705 231.507 21.9091C231.507 19.8381 231.784 17.9759 232.338 16.3224C232.901 14.6605 233.693 13.2457 234.716 12.0781C235.739 10.9105 236.949 10.0156 238.347 9.39347C239.744 8.77131 241.283 8.46023 242.962 8.46023C244.342 8.46023 245.629 8.66903 246.822 9.08665C248.024 9.49574 249.094 10.0795 250.031 10.8381C250.977 11.5881 251.766 12.4872 252.396 13.5355C253.027 14.5753 253.462 15.7301 253.7 17H250.428ZM259.549 35H256.225L265.839 8.81818H269.112L278.725 35H275.401L267.577 12.9602H267.373L259.549 35ZM260.776 24.7727H274.174V27.5852H260.776V24.7727ZM282.803 8.81818H286.587L295.485 30.5511H295.792L304.69 8.81818H308.474V35H305.508V15.108H305.252L297.07 35H294.207L286.025 15.108H285.769V35H282.803V8.81818ZM318.001 8.81818V35H314.831V8.81818H318.001ZM345.119 8.81818V35H342.051L327.784 14.4432H327.528V35H324.358V8.81818H327.426L341.744 29.4261H342V8.81818H345.119ZM369.361 17C369.08 16.1392 368.709 15.3679 368.249 14.6861C367.797 13.9957 367.256 13.4077 366.625 12.9219C366.003 12.4361 365.296 12.0653 364.503 11.8097C363.711 11.554 362.841 11.4261 361.895 11.4261C360.344 11.4261 358.934 11.8267 357.664 12.6278C356.394 13.429 355.384 14.6094 354.634 16.169C353.884 17.7287 353.509 19.642 353.509 21.9091C353.509 24.1761 353.888 26.0895 354.647 27.6491C355.405 29.2088 356.432 30.3892 357.728 31.1903C359.023 31.9915 360.48 32.392 362.1 32.392C363.6 32.392 364.921 32.0724 366.063 31.4332C367.213 30.7855 368.108 29.8736 368.748 28.6974C369.395 27.5128 369.719 26.1193 369.719 24.517L370.691 24.7216H362.816V21.9091H372.787V24.7216C372.787 26.8778 372.327 28.7528 371.407 30.3466C370.495 31.9403 369.233 33.1761 367.623 34.054C366.02 34.9233 364.179 35.358 362.1 35.358C359.782 35.358 357.745 34.8125 355.989 33.7216C354.242 32.6307 352.878 31.0795 351.898 29.0682C350.926 27.0568 350.441 24.6705 350.441 21.9091C350.441 19.8381 350.718 17.9759 351.272 16.3224C351.834 14.6605 352.627 13.2457 353.65 12.0781C354.672 10.9105 355.882 10.0156 357.28 9.39347C358.678 8.77131 360.216 8.46023 361.895 8.46023C363.276 8.46023 364.563 8.66903 365.756 9.08665C366.958 9.49574 368.027 10.0795 368.965 10.8381C369.911 11.5881 370.699 12.4872 371.33 13.5355C371.961 14.5753 372.395 15.7301 372.634 17H369.361ZM381.797 8.81818L381.541 27.6364H378.575L378.32 8.81818H381.797ZM380.058 35.2045C379.428 35.2045 378.886 34.9787 378.435 34.527C377.983 34.0753 377.757 33.5341 377.757 32.9034C377.757 32.2727 377.983 31.7315 378.435 31.2798C378.886 30.8281 379.428 30.6023 380.058 30.6023C380.689 30.6023 381.23 30.8281 381.682 31.2798C382.134 31.7315 382.359 32.2727 382.359 32.9034C382.359 33.321 382.253 33.7045 382.04 34.054C381.835 34.4034 381.558 34.6847 381.209 34.8977C380.868 35.1023 380.484 35.2045 380.058 35.2045Z" fill="#05C2DF"/>
<path d="M276 30H281V34H273L276 30Z" fill="#05C2DF"/>
</svg>
