<svg width="89" height="82" viewBox="0 0 89 82" fill="none" xmlns="http://www.w3.org/2000/svg">
<rect x="2.08008" y="2.11804" width="85.3669" height="60.2803" rx="3.5" stroke="#05C2DF"/>
<line x1="1.58008" y1="52.3445" x2="87.947" y2="52.3445" stroke="#05C2DF"/>
<line x1="40.5215" y1="57.6106" x2="48.4741" y2="57.6106" stroke="#05C2DF" stroke-linecap="round"/>
<rect x="27.3555" y="62.9197" width="34.284" height="5.22378" stroke="#05C2DF"/>
<rect x="16.8242" y="74.4097" width="55.3491" height="5.22378" stroke="#05C2DF"/>
<path d="M18.1532 73.8883L26.9934 68.6646H62.0041L70.8443 73.8883H18.1532Z" stroke="#05C2DF"/>
<path d="M34.5097 39.314H33.8377L24.0297 16.85H24.6537L34.1737 38.674L43.7097 16.85H44.3337L34.5097 39.314ZM56.6895 16.85C59.0788 16.85 60.9348 17.378 62.2575 18.434C63.5908 19.49 64.2575 20.9673 64.2575 22.866C64.2575 24.7647 63.5908 26.2473 62.2575 27.314C60.9241 28.37 59.0681 28.898 56.6895 28.898H54.7055L64.1295 39.25H63.3615L53.9855 28.898H49.2975V39.25H48.7055V16.85H56.6895ZM49.2975 17.41V28.354H56.7535C58.9401 28.354 60.6361 27.874 61.8415 26.914C63.0468 25.954 63.6495 24.6047 63.6495 22.866C63.6495 21.138 63.0415 19.7993 61.8255 18.85C60.6201 17.89 58.9295 17.41 56.7535 17.41H49.2975Z" fill="#05C2DF"/>
</svg>
