<svg width="224" height="28" viewBox="0 0 224 28" fill="none" xmlns="http://www.w3.org/2000/svg">
<path d="M0.971591 6.54545V0.818181H23.7273V6.54545H15.8523V27H8.84659V6.54545H0.971591ZM26.4023 27V0.818181H45.2717V6.54545H33.5103V11.0455H44.3001V16.7727H33.5103V21.2727H45.2205V27H26.4023ZM73.2401 10.6364H66.0298C65.9787 10.0398 65.8423 9.49858 65.6207 9.01278C65.4077 8.52699 65.1094 8.10937 64.7259 7.75994C64.3509 7.40199 63.8949 7.12926 63.358 6.94176C62.821 6.74574 62.2116 6.64773 61.5298 6.64773C60.3366 6.64773 59.3267 6.9375 58.5 7.51705C57.6818 8.09659 57.0597 8.92756 56.6335 10.0099C56.2159 11.0923 56.0071 12.392 56.0071 13.9091C56.0071 15.5114 56.2202 16.8537 56.6463 17.9361C57.081 19.0099 57.7074 19.8196 58.5256 20.3651C59.3438 20.902 60.3281 21.1705 61.4787 21.1705C62.1349 21.1705 62.723 21.0895 63.2429 20.9276C63.7628 20.7571 64.2145 20.5142 64.598 20.1989C64.9815 19.8835 65.2926 19.5043 65.5312 19.0611C65.7784 18.6094 65.9446 18.1023 66.0298 17.5398L73.2401 17.5909C73.1548 18.6989 72.8438 19.8281 72.3068 20.9787C71.7699 22.1207 71.0071 23.1776 70.0185 24.1491C69.0384 25.1122 67.8239 25.8878 66.375 26.4759C64.9261 27.0639 63.2429 27.358 61.3253 27.358C58.9219 27.358 56.7656 26.8423 54.8565 25.8111C52.956 24.7798 51.4517 23.2628 50.3438 21.2599C49.2443 19.2571 48.6946 16.8068 48.6946 13.9091C48.6946 10.9943 49.2571 8.53977 50.3821 6.54545C51.5071 4.54261 53.0241 3.02983 54.9332 2.0071C56.8423 0.975851 58.973 0.460226 61.3253 0.460226C62.9787 0.460226 64.5 0.686078 65.8892 1.13778C67.2784 1.58949 68.4972 2.25 69.5455 3.11932C70.5938 3.98011 71.4375 5.04119 72.0767 6.30256C72.7159 7.56392 73.1037 9.00852 73.2401 10.6364ZM76.4648 27V0.818181H83.5728V11.0455H92.9819V0.818181H100.09V27H92.9819V16.7727H83.5728V27H76.4648Z" fill="white"/>
<path d="M126.438 7.36364C126.284 6.06818 125.662 5.0625 124.571 4.34659C123.48 3.63068 122.142 3.27273 120.557 3.27273C119.398 3.27273 118.384 3.46023 117.515 3.83523C116.654 4.21023 115.98 4.72585 115.495 5.3821C115.017 6.03835 114.779 6.78409 114.779 7.61932C114.779 8.31818 114.945 8.91903 115.277 9.42188C115.618 9.91619 116.053 10.3295 116.581 10.6619C117.11 10.9858 117.664 11.2543 118.243 11.4673C118.823 11.6719 119.355 11.8381 119.841 11.9659L122.5 12.6818C123.182 12.8608 123.941 13.108 124.776 13.4233C125.62 13.7386 126.425 14.169 127.192 14.7145C127.968 15.2514 128.607 15.9418 129.11 16.7855C129.613 17.6293 129.864 18.6648 129.864 19.892C129.864 21.3068 129.493 22.5852 128.752 23.7273C128.019 24.8693 126.945 25.777 125.53 26.4503C124.124 27.1236 122.415 27.4602 120.404 27.4602C118.529 27.4602 116.905 27.1577 115.533 26.5526C114.169 25.9474 113.096 25.1037 112.311 24.0213C111.536 22.9389 111.097 21.6818 110.995 20.25H114.267C114.353 21.2386 114.685 22.0568 115.265 22.7045C115.853 23.3437 116.594 23.821 117.489 24.1364C118.392 24.4432 119.364 24.5966 120.404 24.5966C121.614 24.5966 122.701 24.4006 123.664 24.0085C124.627 23.608 125.39 23.054 125.952 22.3466C126.515 21.6307 126.796 20.7955 126.796 19.8409C126.796 18.9716 126.553 18.2642 126.067 17.7188C125.581 17.1733 124.942 16.7301 124.15 16.3892C123.357 16.0483 122.5 15.75 121.58 15.4943L118.358 14.5739C116.313 13.9858 114.694 13.1463 113.5 12.0554C112.307 10.9645 111.711 9.53693 111.711 7.77273C111.711 6.30682 112.107 5.02841 112.9 3.9375C113.701 2.83807 114.775 1.98579 116.121 1.38068C117.476 0.767045 118.989 0.460226 120.659 0.460226C122.347 0.460226 123.847 0.762783 125.159 1.3679C126.472 1.96449 127.512 2.78267 128.279 3.82244C129.054 4.86221 129.463 6.04261 129.506 7.36364H126.438ZM135.077 27V0.818181H143.923C145.977 0.818181 147.656 1.18892 148.96 1.9304C150.273 2.66335 151.244 3.65625 151.875 4.90909C152.506 6.16193 152.821 7.55966 152.821 9.10227C152.821 10.6449 152.506 12.0469 151.875 13.3082C151.253 14.5696 150.29 15.5753 148.986 16.3253C147.682 17.0668 146.011 17.4375 143.974 17.4375H137.634V14.625H143.872C145.278 14.625 146.408 14.3821 147.26 13.8963C148.112 13.4105 148.73 12.7543 149.114 11.9276C149.506 11.0923 149.702 10.1506 149.702 9.10227C149.702 8.05398 149.506 7.11648 149.114 6.28977C148.73 5.46307 148.108 4.81534 147.247 4.34659C146.386 3.86932 145.244 3.63068 143.821 3.63068H138.247V27H135.077ZM157.928 27V0.818181H173.729V3.63068H161.099V12.4773H172.911V15.2898H161.099V24.1875H173.934V27H157.928ZM200.512 9H197.342C197.154 8.08807 196.826 7.28693 196.357 6.59659C195.897 5.90625 195.335 5.3267 194.67 4.85795C194.013 4.38068 193.285 4.02273 192.484 3.78409C191.683 3.54545 190.847 3.42614 189.978 3.42614C188.393 3.42614 186.957 3.8267 185.67 4.62784C184.391 5.42898 183.373 6.60938 182.614 8.16903C181.864 9.72869 181.489 11.642 181.489 13.9091C181.489 16.1761 181.864 18.0895 182.614 19.6491C183.373 21.2088 184.391 22.3892 185.67 23.1903C186.957 23.9915 188.393 24.392 189.978 24.392C190.847 24.392 191.683 24.2727 192.484 24.0341C193.285 23.7955 194.013 23.4418 194.67 22.973C195.335 22.4957 195.897 21.9119 196.357 21.2216C196.826 20.5227 197.154 19.7216 197.342 18.8182H200.512C200.273 20.1562 199.839 21.3537 199.208 22.4105C198.577 23.4673 197.793 24.3665 196.856 25.108C195.918 25.8409 194.866 26.3991 193.698 26.7827C192.539 27.1662 191.299 27.358 189.978 27.358C187.745 27.358 185.759 26.8125 184.021 25.7216C182.282 24.6307 180.914 23.0795 179.917 21.0682C178.92 19.0568 178.421 16.6705 178.421 13.9091C178.421 11.1477 178.92 8.76136 179.917 6.75C180.914 4.73864 182.282 3.1875 184.021 2.09659C185.759 1.00568 187.745 0.460226 189.978 0.460226C191.299 0.460226 192.539 0.651988 193.698 1.03551C194.866 1.41903 195.918 1.98153 196.856 2.72301C197.793 3.45596 198.577 4.35085 199.208 5.40767C199.839 6.45596 200.273 7.65341 200.512 9ZM219.953 7.36364C219.8 6.06818 219.178 5.0625 218.087 4.34659C216.996 3.63068 215.658 3.27273 214.073 3.27273C212.914 3.27273 211.9 3.46023 211.03 3.83523C210.169 4.21023 209.496 4.72585 209.01 5.3821C208.533 6.03835 208.294 6.78409 208.294 7.61932C208.294 8.31818 208.461 8.91903 208.793 9.42188C209.134 9.91619 209.569 10.3295 210.097 10.6619C210.625 10.9858 211.179 11.2543 211.759 11.4673C212.338 11.6719 212.871 11.8381 213.357 11.9659L216.016 12.6818C216.698 12.8608 217.456 13.108 218.292 13.4233C219.135 13.7386 219.941 14.169 220.708 14.7145C221.483 15.2514 222.123 15.9418 222.625 16.7855C223.128 17.6293 223.38 18.6648 223.38 19.892C223.38 21.3068 223.009 22.5852 222.267 23.7273C221.534 24.8693 220.461 25.777 219.046 26.4503C217.64 27.1236 215.931 27.4602 213.919 27.4602C212.044 27.4602 210.421 27.1577 209.049 26.5526C207.685 25.9474 206.611 25.1037 205.827 24.0213C205.051 22.9389 204.613 21.6818 204.51 20.25H207.783C207.868 21.2386 208.201 22.0568 208.78 22.7045C209.368 23.3437 210.11 23.821 211.005 24.1364C211.908 24.4432 212.88 24.5966 213.919 24.5966C215.13 24.5966 216.216 24.4006 217.179 24.0085C218.142 23.608 218.905 23.054 219.468 22.3466C220.03 21.6307 220.311 20.7955 220.311 19.8409C220.311 18.9716 220.069 18.2642 219.583 17.7188C219.097 17.1733 218.458 16.7301 217.665 16.3892C216.873 16.0483 216.016 15.75 215.096 15.4943L211.874 14.5739C209.828 13.9858 208.209 13.1463 207.016 12.0554C205.823 10.9645 205.226 9.53693 205.226 7.77273C205.226 6.30682 205.623 5.02841 206.415 3.9375C207.216 2.83807 208.29 1.98579 209.637 1.38068C210.992 0.767045 212.505 0.460226 214.175 0.460226C215.863 0.460226 217.363 0.762783 218.675 1.3679C219.988 1.96449 221.027 2.78267 221.794 3.82244C222.57 4.86221 222.979 6.04261 223.022 7.36364H219.953Z" fill="#05C2DF"/>
</svg>
