<svg width="131" height="17" viewBox="0 0 131 17" fill="none" xmlns="http://www.w3.org/2000/svg">
<path d="M0.566761 4.06818V0.727272H13.8409V4.06818H9.24716V16H5.16051V4.06818H0.566761ZM15.4014 16V0.727272H26.4085V4.06818H19.5477V6.69318H25.8417V10.0341H19.5477V12.6591H26.3786V16H15.4014ZM42.7234 6.45455H38.5174C38.4876 6.10653 38.408 5.79084 38.2788 5.50746C38.1545 5.22408 37.9805 4.98047 37.7567 4.77663C37.538 4.56783 37.272 4.40874 36.9588 4.29936C36.6456 4.18501 36.2901 4.12784 35.8924 4.12784C35.1964 4.12784 34.6072 4.29687 34.125 4.63494C33.6477 4.97301 33.2848 5.45774 33.0362 6.08913C32.7926 6.72053 32.6708 7.47869 32.6708 8.36364C32.6708 9.2983 32.7951 10.0813 33.0437 10.7127C33.2972 11.3391 33.6626 11.8114 34.1399 12.1296C34.6172 12.4428 35.1914 12.5994 35.8626 12.5994C36.2454 12.5994 36.5884 12.5522 36.8917 12.4577C37.195 12.3583 37.4585 12.2166 37.6822 12.0327C37.9059 11.8487 38.0874 11.6275 38.2266 11.369C38.3707 11.1055 38.4677 10.8097 38.5174 10.4815L42.7234 10.5114C42.6737 11.1577 42.4922 11.8164 42.179 12.4876C41.8658 13.1538 41.4208 13.7702 40.8441 14.337C40.2724 14.8988 39.5639 15.3512 38.7188 15.6942C37.8736 16.0373 36.8917 16.2088 35.7731 16.2088C34.3711 16.2088 33.1133 15.908 31.9996 15.3065C30.891 14.7049 30.0135 13.82 29.3672 12.6516C28.7259 11.4833 28.4052 10.054 28.4052 8.36364C28.4052 6.66335 28.7333 5.23153 29.3896 4.06818C30.0458 2.89986 30.9308 2.0174 32.0444 1.42081C33.158 0.819247 34.4009 0.518465 35.7731 0.518465C36.7376 0.518465 37.625 0.650212 38.4354 0.913706C39.2457 1.1772 39.9567 1.5625 40.5682 2.0696C41.1797 2.57173 41.6719 3.1907 42.0447 3.92649C42.4176 4.66229 42.6438 5.50497 42.7234 6.45455ZM44.6045 16V0.727272H48.7508V6.69318H54.2394V0.727272H58.3857V16H54.2394V10.0341H48.7508V16H44.6045Z" fill="white"/>
<path d="M73.7554 4.54545C73.6659 3.78977 73.303 3.20312 72.6666 2.78551C72.0303 2.3679 71.2497 2.15909 70.325 2.15909C69.6489 2.15909 69.0573 2.26847 68.5502 2.48722C68.048 2.70597 67.6553 3.00675 67.3719 3.38956C67.0935 3.77237 66.9543 4.20739 66.9543 4.6946C66.9543 5.10227 67.0512 5.45277 67.2451 5.74609C67.444 6.03445 67.6975 6.27557 68.0058 6.46946C68.314 6.65838 68.6372 6.81499 68.9752 6.93928C69.3133 7.05859 69.624 7.15554 69.9074 7.23011L71.4585 7.64773C71.8563 7.75213 72.2987 7.89631 72.786 8.08026C73.2781 8.2642 73.748 8.51527 74.1954 8.83345C74.6478 9.14666 75.0207 9.54936 75.314 10.0415C75.6073 10.5337 75.754 11.1378 75.754 11.8537C75.754 12.679 75.5377 13.4247 75.1052 14.0909C74.6776 14.7571 74.0512 15.2866 73.2259 15.6793C72.4056 16.0721 71.4088 16.2685 70.2355 16.2685C69.1418 16.2685 68.1947 16.092 67.3943 15.739C66.5988 15.386 65.9724 14.8938 65.515 14.2624C65.0626 13.631 64.8066 12.8977 64.7469 12.0625H66.656C66.7057 12.6392 66.8996 13.1165 67.2377 13.4943C67.5807 13.8672 68.0132 14.1456 68.5352 14.3295C69.0622 14.5085 69.629 14.598 70.2355 14.598C70.9415 14.598 71.5754 14.4837 72.1372 14.255C72.699 14.0213 73.1439 13.6982 73.472 13.2855C73.8002 12.8679 73.9642 12.3807 73.9642 11.8239C73.9642 11.3168 73.8225 10.9041 73.5392 10.5859C73.2558 10.2678 72.8829 10.0092 72.4205 9.81037C71.9582 9.61151 71.4585 9.4375 70.9216 9.28835L69.0423 8.75142C67.8492 8.40838 66.9046 7.91868 66.2085 7.28232C65.5125 6.64595 65.1645 5.81321 65.1645 4.78409C65.1645 3.92898 65.3957 3.18324 65.858 2.54688C66.3254 1.90554 66.9518 1.40838 67.7373 1.0554C68.5278 0.697443 69.4102 0.518465 70.3847 0.518465C71.3691 0.518465 72.2441 0.694957 73.0097 1.04794C73.7753 1.39595 74.3818 1.87322 74.8293 2.47976C75.2817 3.08629 75.5203 3.77486 75.5452 4.54545H73.7554ZM78.7947 16V0.727272H83.9553C85.1534 0.727272 86.1328 0.943536 86.8935 1.37606C87.6591 1.80362 88.2259 2.38281 88.5938 3.11364C88.9616 3.84446 89.1456 4.6598 89.1456 5.55966C89.1456 6.45952 88.9616 7.27734 88.5938 8.01314C88.2308 8.74893 87.669 9.33558 86.9084 9.77308C86.1477 10.2056 85.1733 10.4219 83.9851 10.4219H80.2862V8.78125H83.9254C84.7457 8.78125 85.4045 8.63956 85.9016 8.35618C86.3988 8.0728 86.7592 7.68999 86.983 7.20774C87.2116 6.72053 87.326 6.17116 87.326 5.55966C87.326 4.94815 87.2116 4.40128 86.983 3.91903C86.7592 3.43679 86.3963 3.05895 85.8942 2.78551C85.392 2.5071 84.7259 2.3679 83.8956 2.3679H80.6442V16H78.7947ZM92.1248 16V0.727272H101.342V2.3679H93.9743V7.52841H100.865V9.16903H93.9743V14.3594H101.461V16H92.1248ZM116.965 5.5H115.116C115.007 4.96804 114.815 4.50071 114.542 4.09801C114.273 3.69531 113.945 3.35724 113.557 3.08381C113.175 2.8054 112.749 2.59659 112.282 2.45739C111.815 2.31818 111.328 2.24858 110.82 2.24858C109.896 2.24858 109.058 2.48224 108.307 2.94957C107.562 3.4169 106.968 4.10547 106.525 5.01527C106.088 5.92507 105.869 7.04119 105.869 8.36364C105.869 9.68608 106.088 10.8022 106.525 11.712C106.968 12.6218 107.562 13.3104 108.307 13.7777C109.058 14.245 109.896 14.4787 110.82 14.4787C111.328 14.4787 111.815 14.4091 112.282 14.2699C112.749 14.1307 113.175 13.9244 113.557 13.6509C113.945 13.3725 114.273 13.032 114.542 12.6293C114.815 12.2216 115.007 11.7543 115.116 11.2273H116.965C116.826 12.0078 116.573 12.7063 116.205 13.3228C115.837 13.9393 115.379 14.4638 114.833 14.8963C114.286 15.3239 113.672 15.6495 112.991 15.8732C112.314 16.0969 111.591 16.2088 110.82 16.2088C109.518 16.2088 108.36 15.8906 107.345 15.2543C106.331 14.6179 105.533 13.7131 104.952 12.5398C104.37 11.3665 104.079 9.97443 104.079 8.36364C104.079 6.75284 104.37 5.3608 104.952 4.1875C105.533 3.0142 106.331 2.10937 107.345 1.47301C108.36 0.836647 109.518 0.518465 110.82 0.518465C111.591 0.518465 112.314 0.630326 112.991 0.854048C113.672 1.07777 114.286 1.40589 114.833 1.83842C115.379 2.26598 115.837 2.788 116.205 3.40447C116.573 4.01598 116.826 4.71449 116.965 5.5ZM128.306 4.54545C128.217 3.78977 127.854 3.20312 127.217 2.78551C126.581 2.3679 125.801 2.15909 124.876 2.15909C124.2 2.15909 123.608 2.26847 123.101 2.48722C122.599 2.70597 122.206 3.00675 121.923 3.38956C121.644 3.77237 121.505 4.20739 121.505 4.6946C121.505 5.10227 121.602 5.45277 121.796 5.74609C121.995 6.03445 122.248 6.27557 122.557 6.46946C122.865 6.65838 123.188 6.81499 123.526 6.93928C123.864 7.05859 124.175 7.15554 124.458 7.23011L126.009 7.64773C126.407 7.75213 126.85 7.89631 127.337 8.08026C127.829 8.2642 128.299 8.51527 128.746 8.83345C129.199 9.14666 129.571 9.54936 129.865 10.0415C130.158 10.5337 130.305 11.1378 130.305 11.8537C130.305 12.679 130.089 13.4247 129.656 14.0909C129.228 14.7571 128.602 15.2866 127.777 15.6793C126.956 16.0721 125.96 16.2685 124.786 16.2685C123.693 16.2685 122.745 16.092 121.945 15.739C121.15 15.386 120.523 14.8938 120.066 14.2624C119.613 13.631 119.357 12.8977 119.298 12.0625H121.207C121.256 12.6392 121.45 13.1165 121.788 13.4943C122.131 13.8672 122.564 14.1456 123.086 14.3295C123.613 14.5085 124.18 14.598 124.786 14.598C125.492 14.598 126.126 14.4837 126.688 14.255C127.25 14.0213 127.695 13.6982 128.023 13.2855C128.351 12.8679 128.515 12.3807 128.515 11.8239C128.515 11.3168 128.373 10.9041 128.09 10.5859C127.807 10.2678 127.434 10.0092 126.971 9.81037C126.509 9.61151 126.009 9.4375 125.472 9.28835L123.593 8.75142C122.4 8.40838 121.455 7.91868 120.759 7.28232C120.063 6.64595 119.715 5.81321 119.715 4.78409C119.715 3.92898 119.946 3.18324 120.409 2.54688C120.876 1.90554 121.503 1.40838 122.288 1.0554C123.079 0.697443 123.961 0.518465 124.935 0.518465C125.92 0.518465 126.795 0.694957 127.56 1.04794C128.326 1.39595 128.933 1.87322 129.38 2.47976C129.832 3.08629 130.071 3.77486 130.096 4.54545H128.306Z" fill="#05C2DF"/>
</svg>
