<svg width="80" height="80" viewBox="0 0 80 80" fill="none" xmlns="http://www.w3.org/2000/svg">
<path d="M36.0135 27.0792V20.0688M52.6458 34.3644H60.7558M22.9551 44.8111H27.3537M44.9482 59.519V52.5087" stroke="#05C2DF"/>
<rect x="27.7168" y="27.4417" width="24.567" height="24.567" rx="3.5" stroke="#05C2DF"/>
<rect x="32.3906" y="32.1152" width="15.4948" height="15.4948" rx="3.5" stroke="#05C2DF"/>
<rect x="60.9805" y="0.500122" width="18.5189" height="18.5189" rx="3.5" stroke="#05C2DF"/>
<rect x="65.3789" y="4.8988" width="9.99656" height="9.99656" rx="2.5" stroke="#05C2DF"/>
<rect x="0.5" y="0.500122" width="18.5189" height="18.5189" rx="3.5" stroke="#05C2DF"/>
<rect x="4.89844" y="4.8988" width="9.99656" height="9.99656" rx="2.5" stroke="#05C2DF"/>
<rect x="1.32422" y="60.4314" width="18.5189" height="18.5189" rx="3.5" stroke="#05C2DF"/>
<rect x="5.72266" y="64.8301" width="9.99656" height="9.99656" rx="2.5" stroke="#05C2DF"/>
<rect x="60.9805" y="60.4314" width="18.5189" height="18.5189" rx="3.5" stroke="#05C2DF"/>
<rect x="65.3789" y="64.8301" width="9.99656" height="9.99656" rx="2.5" stroke="#05C2DF"/>
<path d="M45.2227 27.0791V9.89697H60.3429" stroke="#05C2DF"/>
<path d="M27.3535 37.1135L9.89648 37.1135L9.89649 19.519" stroke="#05C2DF"/>
<path d="M52.7827 40.9623L69.9648 40.9623L69.9648 59.9314" stroke="#05C2DF"/>
<path d="M36.5645 52.5087L36.5645 69.6908L20.2071 69.6908" stroke="#05C2DF"/>
<circle cx="36.0133" cy="17.5946" r="1.97423" stroke="#05C2DF"/>
<circle cx="63.2301" cy="34.3644" r="1.97423" stroke="#05C2DF"/>
<circle cx="20.6188" cy="44.8111" r="1.97423" stroke="#05C2DF"/>
<circle cx="44.8102" cy="61.8558" r="1.97423" stroke="#05C2DF"/>
</svg>
