<svg width="54" height="34" viewBox="0 0 54 34" fill="none" xmlns="http://www.w3.org/2000/svg">
<path d="M52.1286 0H1.79709C0.804585 0 0 0.804585 0 1.79709V31.9048C0 32.8973 0.804585 33.7019 1.79709 33.7019H52.1286C53.1211 33.7019 53.9256 32.8973 53.9256 31.9048V1.79709C53.9256 0.804585 53.1211 0 52.1286 0Z" fill="#F9F9F9"/>
<path d="M24.8151 21.9133H22.1797L23.8263 11.7972H26.4618L24.8151 21.9133Z" fill="#0066B2"/>
<path d="M19.9668 11.7972L17.456 18.7534L17.1594 17.2573L16.2694 12.7086C16.2178 12.426 16.0598 12.1739 15.8278 12.0043C15.5958 11.8347 15.3076 11.7606 15.0226 11.7972H10.8696L10.8223 11.9692C11.7946 12.2116 12.724 12.6016 13.5781 13.1257L15.8653 21.9263H18.6125L22.7871 11.7972H19.9668Z" fill="#0066B2"/>
<path d="M40.6843 21.9262H43.1048L40.9982 11.8101H38.8786C38.6223 11.7902 38.3662 11.8524 38.1475 11.9877C37.9288 12.1229 37.7588 12.3242 37.6619 12.5624L33.7324 21.9262H36.4797L37.03 20.4258H40.3791L40.6843 21.9262ZM37.7866 18.3493L39.171 14.5616L39.9492 18.3493H37.7866Z" fill="#0066B2"/>
<path d="M33.9389 14.2305L34.3173 12.0379C33.5553 11.7704 32.7558 11.6253 31.9484 11.608C30.6371 11.608 27.5158 12.1884 27.5158 14.9657C27.5158 17.5797 31.1616 17.6098 31.1616 18.9855C31.1616 20.3613 27.8942 20.1119 26.8151 19.2435L26.4238 21.5178C27.3638 21.9122 28.3754 22.1069 29.3946 22.0896C31.1917 22.0896 33.9045 21.1566 33.9045 18.6244C33.9045 15.9932 30.2287 15.7482 30.2287 14.6046C30.2287 13.461 32.8125 13.6071 33.9389 14.2305Z" fill="#0066B2"/>
<path d="M17.1594 17.2573L16.2694 12.7086C16.2178 12.426 16.0598 12.1739 15.8278 12.0043C15.5958 11.8347 15.3076 11.7606 15.0226 11.7972H10.8696L10.8223 11.9692C12.2513 12.3326 13.5846 13.0014 14.7303 13.9296C15.8198 14.8047 16.658 15.9529 17.1594 17.2573Z" fill="#F9A533"/>
</svg>
