<svg width="227" height="28" viewBox="0 0 227 28" fill="none" xmlns="http://www.w3.org/2000/svg">
<path d="M0.709961 27H6.82996V19.08L0.709961 12.96V27ZM15.218 15.984L25.226 9.35999L25.442 9.21599V1.87199L10.79 11.556L0.997963 2.23199H0.709961V10.116L17.558 26.964H26.234L15.218 15.984ZM27.288 27H34.452L41.436 15.516L37.872 9.61199L27.288 27ZM42.588 1.83599L39.024 7.70399L49.212 24.588L50.688 27.036H57.852L42.588 1.83599ZM66.811 27H72.931V20.304L66.811 14.184V27ZM57.523 2.26799V8.38799H66.811V11.376L72.931 17.496V8.38799H82.255V2.26799H57.523ZM110.001 20.88H109.065V2.26799H102.945V27H116.121L110.145 21.024L110.001 20.88ZM112.809 20.88L118.929 27H120.153V20.88H112.809ZM144.889 5.86799C142.549 3.52799 139.453 2.23199 136.141 2.23199C133.369 2.23199 130.741 3.13199 128.545 4.82399L128.113 5.18399L132.469 9.53999L132.793 9.32399C133.765 8.71199 134.917 8.38799 136.105 8.38799C137.761 8.38799 139.309 9.03599 140.497 10.224C141.685 11.412 142.333 12.96 142.333 14.616C142.333 15.804 142.009 16.956 141.397 17.928L141.181 18.252L145.537 22.608L145.897 22.176C147.589 19.98 148.489 17.352 148.489 14.58C148.489 11.268 147.193 8.17199 144.853 5.83199L144.889 5.86799ZM139.417 19.836C138.445 20.448 137.293 20.772 136.105 20.772C134.449 20.772 132.901 20.124 131.713 18.936C130.525 17.748 129.877 16.2 129.877 14.544C129.877 13.356 130.201 12.204 130.813 11.232L131.029 10.908L126.673 6.55199L126.313 6.98399C124.621 9.17999 123.721 11.808 123.721 14.58C123.721 17.892 125.017 20.988 127.357 23.328C129.697 25.668 132.793 26.964 136.105 26.964C138.877 26.964 141.505 26.064 143.701 24.372L144.133 24.012L139.777 19.656L139.417 19.836ZM159.077 11.412C159.401 10.8 159.797 10.224 160.301 9.71999C161.525 8.49599 163.145 7.81199 164.873 7.81199C166.601 7.81199 168.221 8.49599 169.445 9.71999C170.057 10.332 170.525 11.016 170.849 11.808L170.993 12.096H177.473L177.329 11.484C176.717 8.71199 175.169 6.19199 172.937 4.39199C170.669 2.55599 167.825 1.54799 164.909 1.54799C160.733 1.54799 156.809 3.59999 154.433 7.01999L154.181 7.34399L158.825 11.988L159.077 11.412ZM170.813 16.704C170.489 17.496 170.021 18.18 169.409 18.792C168.905 19.296 168.329 19.692 167.717 20.016C167.537 20.124 167.357 20.196 167.141 20.268C166.529 20.484 165.881 20.628 165.233 20.664C164.945 20.664 164.621 20.664 164.333 20.628C162.821 20.52 161.381 19.872 160.301 18.792C159.221 17.712 158.573 16.272 158.465 14.76V14.58L153.137 9.25199L152.885 10.008C152.417 11.376 152.165 12.816 152.165 14.256C152.165 17.64 153.497 20.844 155.909 23.256C158.321 25.668 161.525 27 164.909 27C166.637 27 168.293 26.676 169.877 26.028C170.165 25.92 170.453 25.776 170.741 25.632C172.361 24.804 173.837 23.58 174.953 22.14C176.105 20.664 176.933 18.936 177.329 17.136L177.473 16.524H170.993L170.813 16.704ZM202.088 5.86799C199.748 3.52799 196.652 2.23199 193.34 2.23199C190.568 2.23199 187.94 3.13199 185.744 4.82399L185.312 5.18399L189.668 9.53999L189.992 9.32399C190.964 8.71199 192.116 8.38799 193.304 8.38799C194.96 8.38799 196.508 9.03599 197.696 10.224C198.884 11.412 199.532 12.96 199.532 14.616C199.532 15.804 199.208 16.956 198.596 17.928L198.38 18.252L202.736 22.608L203.096 22.176C204.788 19.98 205.688 17.352 205.688 14.58C205.688 11.268 204.392 8.17199 202.052 5.83199L202.088 5.86799ZM196.616 19.836C195.644 20.448 194.492 20.772 193.304 20.772C191.648 20.772 190.1 20.124 188.912 18.936C187.724 17.748 187.076 16.2 187.076 14.544C187.076 13.356 187.4 12.204 188.012 11.232L188.228 10.908L183.872 6.55199L183.512 6.98399C181.82 9.17999 180.92 11.808 180.92 14.58C180.92 17.892 182.216 20.988 184.556 23.328C186.896 25.668 189.992 26.964 193.304 26.964C196.076 26.964 198.704 26.064 200.9 24.372L201.332 24.012L196.976 19.656L196.616 19.836ZM216.276 20.844V27H221.604V26.172L217.716 22.284L216.276 20.844ZM226.284 6.33599C224.988 3.09599 221.82 0.791992 218.112 0.791992C213.36 0.791992 209.472 4.53599 209.256 9.21599H214.62C214.836 7.48799 216.312 6.15599 218.112 6.15599C218.832 6.15599 219.516 6.37199 220.092 6.76799C220.668 7.16399 221.1 7.70399 221.352 8.35199C221.532 8.74799 221.604 9.17999 221.604 9.64799C221.604 10.296 221.424 10.836 221.208 11.268L216.276 16.2V16.452L218.292 18.468L219.912 20.088L221.604 21.78V18.396L223.044 16.956C223.332 16.776 223.62 16.56 223.872 16.344C224.196 16.056 224.484 15.768 224.772 15.444C226.104 13.896 226.932 11.88 226.932 9.68399C226.932 8.53199 226.716 7.41599 226.32 6.40799L226.284 6.33599Z" fill="#05C2DF"/>
</svg>
