<svg width="107" height="78" viewBox="0 0 107 78" fill="none" xmlns="http://www.w3.org/2000/svg">
<circle cx="53.6546" cy="39.1371" r="12.8303" stroke="#05C2DF"/>
<path d="M67.3164 25.5079C71.7342 28.4305 74.6481 33.4435 74.6481 39.1371C74.6481 44.8306 71.7342 49.8436 67.3164 52.7662" stroke="#05C2DF"/>
<path d="M67.4844 52.634L73.483 60.299" stroke="#05C2DF"/>
<path d="M73.3151 60.4655C80.3434 55.8563 84.9791 47.95 84.9791 38.9704C84.9791 29.9908 80.3434 22.0845 73.3151 17.4752L67.3164 25.64" stroke="#05C2DF"/>
<path d="M79.9824 9.47705C89.4205 15.7299 95.6456 26.4555 95.6456 38.6372C95.6456 50.8188 89.4205 61.5444 79.9824 67.7973" stroke="#05C2DF"/>
<path d="M79.983 9.64372L85.9817 1.14563C98.2311 9.22078 106.31 23.0721 106.31 38.8038C106.31 54.5356 98.2311 68.3869 85.9817 76.462L79.8164 67.7973" stroke="#05C2DF"/>
<path d="M39.9883 25.5079C35.5705 28.4305 32.6566 33.4435 32.6566 39.1371C32.6566 44.8306 35.5705 49.8436 39.9883 52.7662" stroke="#05C2DF"/>
<path d="M39.8242 52.634L33.8256 60.299" stroke="#05C2DF"/>
<path d="M33.9896 60.4655C26.9613 55.8563 22.3256 47.95 22.3256 38.9704C22.3256 29.9908 26.9613 22.0845 33.9896 17.4752L39.9883 25.64" stroke="#05C2DF"/>
<path d="M27.3281 9.47705C17.8901 15.7299 11.665 26.4555 11.665 38.6372C11.665 50.8188 17.8901 61.5444 27.3281 67.7973" stroke="#05C2DF"/>
<path d="M27.3275 9.64372L21.3289 1.14563C9.07945 9.22078 1.0001 23.0721 1.0001 38.8038C1.0001 54.5356 9.07945 68.3869 21.3289 76.462L27.4941 67.7973" stroke="#05C2DF"/>
</svg>
