<svg width="135.000000" height="2.000000" viewBox="0 0 135 2" fill="none" xmlns="http://www.w3.org/2000/svg" xmlns:xlink="http://www.w3.org/1999/xlink">
	<desc>
			Created with Pixso.
	</desc>
	<defs/>
	<g opacity="0.450000">
		<path id="Vector" d="M3 0L5 0L5 2L3 2L3 0Z" fill="#05C2DF" fill-opacity="1.000000" fill-rule="evenodd"/>
	</g>
	<g opacity="0.450000">
		<path id="Vector" d="M0 0L2 0L2 2L0 2L0 0Z" fill="#05C2DF" fill-opacity="1.000000" fill-rule="evenodd"/>
	</g>
	<g opacity="0.450000">
		<path id="Vector" d="M6 0L8 0L8 2L6 2L6 0Z" fill="#05C2DF" fill-opacity="1.000000" fill-rule="evenodd"/>
	</g>
	<g opacity="0.450000">
		<path id="Vector" d="M9 0L11 0L11 2L9 2L9 0Z" fill="#05C2DF" fill-opacity="1.000000" fill-rule="evenodd"/>
	</g>
	<g opacity="0.450000">
		<path id="Vector" d="M12 0L14 0L14 2L12 2L12 0Z" fill="#05C2DF" fill-opacity="1.000000" fill-rule="evenodd"/>
	</g>
	<g opacity="0.450000">
		<path id="Vector" d="M16 0L18 0L18 2L16 2L16 0Z" fill="#05C2DF" fill-opacity="1.000000" fill-rule="evenodd"/>
	</g>
	<g opacity="0.450000">
		<path id="Vector" d="M20 0L22 0L22 2L20 2L20 0Z" fill="#05C2DF" fill-opacity="1.000000" fill-rule="evenodd"/>
	</g>
	<g opacity="0.450000">
		<path id="Vector" d="M24 0L26 0L26 2L24 2L24 0Z" fill="#05C2DF" fill-opacity="1.000000" fill-rule="evenodd"/>
	</g>
	<g opacity="0.450000">
		<path id="Vector" d="M29 0L31 0L31 2L29 2L29 0Z" fill="#05C2DF" fill-opacity="1.000000" fill-rule="evenodd"/>
	</g>
	<g opacity="0.450000">
		<path id="Vector" d="M34 0L36 0L36 2L34 2L34 0Z" fill="#05C2DF" fill-opacity="1.000000" fill-rule="evenodd"/>
	</g>
	<g opacity="0.450000">
		<path id="Vector" d="M39 0L41 0L41 2L39 2L39 0Z" fill="#05C2DF" fill-opacity="1.000000" fill-rule="evenodd"/>
	</g>
	<g opacity="0.450000">
		<path id="Vector" d="M44 0L46 0L46 2L44 2L44 0Z" fill="#05C2DF" fill-opacity="1.000000" fill-rule="evenodd"/>
	</g>
	<g opacity="0.450000">
		<path id="Vector" d="M49 0L51 0L51 2L49 2L49 0Z" fill="#05C2DF" fill-opacity="1.000000" fill-rule="evenodd"/>
	</g>
	<g opacity="0.450000">
		<path id="Vector" d="M54 0L56 0L56 2L54 2L54 0Z" fill="#05C2DF" fill-opacity="1.000000" fill-rule="evenodd"/>
	</g>
	<g opacity="0.450000">
		<path id="Vector" d="M66 0.22998L67.6001 0.22998L67.6001 1.83008L66 1.83008L66 0.22998Z" fill="#05C2DF" fill-opacity="1.000000" fill-rule="evenodd"/>
	</g>
	<g opacity="0.450000">
		<path id="Vector" d="M72 0.22998L73.6001 0.22998L73.6001 1.83008L72 1.83008L72 0.22998Z" fill="#05C2DF" fill-opacity="1.000000" fill-rule="evenodd"/>
	</g>
	<g opacity="0.450000">
		<path id="Vector" d="M78 0.22998L79.6001 0.22998L79.6001 1.83008L78 1.83008L78 0.22998Z" fill="#05C2DF" fill-opacity="1.000000" fill-rule="evenodd"/>
	</g>
	<g opacity="0.450000">
		<path id="Vector" d="M84 0.430176L85.3 0.430176L85.3 1.73022L84 1.73022L84 0.430176Z" fill="#05C2DF" fill-opacity="1.000000" fill-rule="evenodd"/>
	</g>
	<g opacity="0.450000">
		<path id="Vector" d="M91 0.430176L92.3 0.430176L92.3 1.73022L91 1.73022L91 0.430176Z" fill="#05C2DF" fill-opacity="1.000000" fill-rule="evenodd"/>
	</g>
	<g opacity="0.450000">
		<path id="Vector" d="M98 0.430176L99.3 0.430176L99.3 1.73022L98 1.73022L98 0.430176Z" fill="#05C2DF" fill-opacity="1.000000" fill-rule="evenodd"/>
	</g>
	<g opacity="0.450000">
		<path id="Vector" d="M105 0.430176L106.3 0.430176L106.3 1.73022L105 1.73022L105 0.430176Z" fill="#05C2DF" fill-opacity="1.000000" fill-rule="evenodd"/>
	</g>
	<g opacity="0.450000">
		<path id="Vector" d="M113 0.430176L114.3 0.430176L114.3 1.73022L113 1.73022L113 0.430176Z" fill="#05C2DF" fill-opacity="1.000000" fill-rule="evenodd"/>
	</g>
	<g opacity="0.450000">
		<path id="Vector" d="M122 0.430176L123.3 0.430176L123.3 1.73022L122 1.73022L122 0.430176Z" fill="#05C2DF" fill-opacity="1.000000" fill-rule="evenodd"/>
	</g>
	<g opacity="0.450000">
		<path id="Vector" d="M60 0.22998L61.6001 0.22998L61.6001 1.83008L60 1.83008L60 0.22998Z" fill="#05C2DF" fill-opacity="1.000000" fill-rule="evenodd"/>
	</g>
	<g opacity="0.450000">
		<path id="Vector" d="M134 0.5L135 0.5L135 1.5L134 1.5L134 0.5Z" fill="#05C2DF" fill-opacity="1.000000" fill-rule="evenodd"/>
	</g>
</svg>
