<svg width="60.942871" height="68.058838" viewBox="0 0 60.9429 68.0588" fill="none" xmlns="http://www.w3.org/2000/svg" xmlns:xlink="http://www.w3.org/1999/xlink">
	<desc>
			Created with Pixso.
	</desc>
	<defs/>
	<g opacity="0.450000">
		<path id="Vector" d="M51 6.05444C46.1191 2.64307 40.9136 1.40649 35 1.05444C29.0864 0.702393 23.5605 2.05762 18.321 4.86646C13.0818 7.67529 8.69824 11.8872 5.64502 17.0461C2.59204 22.2051 0.985596 28.1145 1 34.1348C1.0144 40.155 2.64917 46.0564 5.72681 51.2002C8.80444 56.344 13.2083 60.5342 18.4609 63.3171C23.7136 66.1001 29.6155 67.3696 35.5271 66.9883C41.439 66.6069 47.1355 64.4897 52 61.0544" stroke="#05C2DF" stroke-opacity="1.000000" stroke-width="2.000000"/>
	</g>
	<path id="Vector" d="M34.0305 60.21C19.4434 60.21 7.61816 48.4192 7.61816 33.8748C7.61816 19.3303 19.4434 7.53979 34.0305 7.53979C48.6177 7.53979 60.4429 19.3303 60.4429 33.8748C60.4429 48.4192 48.6177 60.21 34.0305 60.21Z" stroke="#05C2DF" stroke-opacity="1.000000" stroke-width="1.000000"/>
	<path id="Polygon" d="M45 34.0544L27.75 23.6621L27.75 44.4468L45 34.0544Z" fill="#05C2DF" fill-opacity="1.000000" fill-rule="evenodd"/>
</svg>
