<svg width="236.020508" height="68.058105" viewBox="0 0 236.021 68.0581" fill="none" xmlns="http://www.w3.org/2000/svg" xmlns:xlink="http://www.w3.org/1999/xlink">
	<desc>
			Created with Pixso.
	</desc>
	<defs/>
	<rect id="button" width="200.000000" height="48.000000" transform="translate(12.000000 10.054199)" fill="#FFFFFF" fill-opacity="0"/>
	<g opacity="0.450000">
		<path id="Vector" d="M51 6.0542C46.1191 2.64307 40.9131 1.40625 35 1.0542C29.0869 0.702148 23.5605 2.05762 18.3213 4.86621C13.082 7.6748 8.69824 11.8867 5.64551 17.0459C2.5918 22.2051 0.985352 28.1143 1 34.1348C1.01465 40.1548 2.64941 46.0562 5.72656 51.2002C8.80469 56.3438 13.208 60.5342 18.4609 63.3169C23.7139 66.0996 29.6152 67.3691 35.5273 66.9883C41.4395 66.6069 47.1357 64.4897 52 61.0542" stroke="#05C2DF" stroke-opacity="1.000000" stroke-width="2.000000"/>
	</g>
	<path id="Vector" d="M34.0303 60.2095C19.4434 60.2095 7.61816 48.4189 7.61816 33.8745C7.61816 19.3301 19.4434 7.53955 34.0303 7.53955C48.6182 7.53955 60.4434 19.3301 60.4434 33.8745C60.4434 48.4189 48.6182 60.2095 34.0303 60.2095Z" stroke="#05C2DF" stroke-opacity="1.000000" stroke-width="1.000000"/>
	<g opacity="0.450000">
		<path id="Vector" d="M56 11.0542L86 11.0542L86 13.0542L56 13.0542L56 11.0542Z" fill="#05C2DF" fill-opacity="1.000000" fill-rule="evenodd"/>
	</g>
	<g opacity="0.450000">
		<path id="Vector" d="M56 55.0542L86 55.0542L86 57.0542L56 57.0542L56 55.0542Z" fill="#05C2DF" fill-opacity="1.000000" fill-rule="evenodd"/>
	</g>
	<path id="Polygon" d="M45 34.0542L27.75 23.6621L27.75 44.4463L45 34.0542Z" fill="#05C2DF" fill-opacity="1.000000" fill-rule="evenodd"/>
	<g opacity="0.450000">
		<path id="Vector" d="M80.2656 11.0542L82.2246 11.0542L82.2246 13.0542L80.2656 13.0542L80.2656 11.0542Z" fill="#05C2DF" fill-opacity="1.000000" fill-rule="evenodd"/>
	</g>
	<g opacity="0.450000">
		<path id="Vector" d="M77.3262 11.0542L79.2852 11.0542L79.2852 13.0542L77.3262 13.0542L77.3262 11.0542Z" fill="#05C2DF" fill-opacity="1.000000" fill-rule="evenodd"/>
	</g>
	<g opacity="0.450000">
		<path id="Vector" d="M83.2041 11.0542L85.1631 11.0542L85.1631 13.0542L83.2041 13.0542L83.2041 11.0542Z" fill="#05C2DF" fill-opacity="1.000000" fill-rule="evenodd"/>
	</g>
	<g opacity="0.450000">
		<path id="Vector" d="M86.1426 11.0542L88.1016 11.0542L88.1016 13.0542L86.1426 13.0542L86.1426 11.0542Z" fill="#05C2DF" fill-opacity="1.000000" fill-rule="evenodd"/>
	</g>
	<g opacity="0.450000">
		<path id="Vector" d="M89.082 11.0542L91.041 11.0542L91.041 13.0542L89.082 13.0542L89.082 11.0542Z" fill="#05C2DF" fill-opacity="1.000000" fill-rule="evenodd"/>
	</g>
	<g opacity="0.450000">
		<path id="Vector" d="M93 11.0542L94.959 11.0542L94.959 13.0542L93 13.0542L93 11.0542Z" fill="#05C2DF" fill-opacity="1.000000" fill-rule="evenodd"/>
	</g>
	<g opacity="0.450000">
		<path id="Vector" d="M96.918 11.0542L98.877 11.0542L98.877 13.0542L96.918 13.0542L96.918 11.0542Z" fill="#05C2DF" fill-opacity="1.000000" fill-rule="evenodd"/>
	</g>
	<g opacity="0.450000">
		<path id="Vector" d="M100.837 11.0542L102.796 11.0542L102.796 13.0542L100.837 13.0542L100.837 11.0542Z" fill="#05C2DF" fill-opacity="1.000000" fill-rule="evenodd"/>
	</g>
	<g opacity="0.450000">
		<path id="Vector" d="M105.734 11.0542L107.693 11.0542L107.693 13.0542L105.734 13.0542L105.734 11.0542Z" fill="#05C2DF" fill-opacity="1.000000" fill-rule="evenodd"/>
	</g>
	<g opacity="0.450000">
		<path id="Vector" d="M110.633 11.0542L112.592 11.0542L112.592 13.0542L110.633 13.0542L110.633 11.0542Z" fill="#05C2DF" fill-opacity="1.000000" fill-rule="evenodd"/>
	</g>
	<g opacity="0.450000">
		<path id="Vector" d="M115.53 11.0542L117.489 11.0542L117.489 13.0542L115.53 13.0542L115.53 11.0542Z" fill="#05C2DF" fill-opacity="1.000000" fill-rule="evenodd"/>
	</g>
	<g opacity="0.450000">
		<path id="Vector" d="M120.429 11.0542L122.388 11.0542L122.388 13.0542L120.429 13.0542L120.429 11.0542Z" fill="#05C2DF" fill-opacity="1.000000" fill-rule="evenodd"/>
	</g>
	<g opacity="0.450000">
		<path id="Vector" d="M125.326 11.0542L127.285 11.0542L127.285 13.0542L125.326 13.0542L125.326 11.0542Z" fill="#05C2DF" fill-opacity="1.000000" fill-rule="evenodd"/>
	</g>
	<g opacity="0.450000">
		<path id="Vector" d="M130.225 11.0542L132.184 11.0542L132.184 13.0542L130.225 13.0542L130.225 11.0542Z" fill="#05C2DF" fill-opacity="1.000000" fill-rule="evenodd"/>
	</g>
	<g opacity="0.450000">
		<path id="Vector" d="M141.979 11.2842L143.547 11.2842L143.547 12.8843L141.979 12.8843L141.979 11.2842Z" fill="#05C2DF" fill-opacity="1.000000" fill-rule="evenodd"/>
	</g>
	<g opacity="0.450000">
		<path id="Vector" d="M147.857 11.2842L149.425 11.2842L149.425 12.8843L147.857 12.8843L147.857 11.2842Z" fill="#05C2DF" fill-opacity="1.000000" fill-rule="evenodd"/>
	</g>
	<g opacity="0.450000">
		<path id="Vector" d="M153.734 11.2842L155.302 11.2842L155.302 12.8843L153.734 12.8843L153.734 11.2842Z" fill="#05C2DF" fill-opacity="1.000000" fill-rule="evenodd"/>
	</g>
	<g opacity="0.450000">
		<path id="Vector" d="M159.612 11.4844L160.886 11.4844L160.886 12.7842L159.612 12.7842L159.612 11.4844Z" fill="#05C2DF" fill-opacity="1.000000" fill-rule="evenodd"/>
	</g>
	<g opacity="0.450000">
		<path id="Vector" d="M166.47 11.4844L167.743 11.4844L167.743 12.7842L166.47 12.7842L166.47 11.4844Z" fill="#05C2DF" fill-opacity="1.000000" fill-rule="evenodd"/>
	</g>
	<g opacity="0.450000">
		<path id="Vector" d="M173.326 11.4844L174.6 11.4844L174.6 12.7842L173.326 12.7842L173.326 11.4844Z" fill="#05C2DF" fill-opacity="1.000000" fill-rule="evenodd"/>
	</g>
	<g opacity="0.450000">
		<path id="Vector" d="M180.184 11.4844L181.457 11.4844L181.457 12.7842L180.184 12.7842L180.184 11.4844Z" fill="#05C2DF" fill-opacity="1.000000" fill-rule="evenodd"/>
	</g>
	<g opacity="0.450000">
		<path id="Vector" d="M188.021 11.4844L189.294 11.4844L189.294 12.7842L188.021 12.7842L188.021 11.4844Z" fill="#05C2DF" fill-opacity="1.000000" fill-rule="evenodd"/>
	</g>
	<g opacity="0.450000">
		<path id="Vector" d="M196.837 11.4844L198.11 11.4844L198.11 12.7842L196.837 12.7842L196.837 11.4844Z" fill="#05C2DF" fill-opacity="1.000000" fill-rule="evenodd"/>
	</g>
	<g opacity="0.450000">
		<path id="Vector" d="M136.102 11.2842L137.669 11.2842L137.669 12.8843L136.102 12.8843L136.102 11.2842Z" fill="#05C2DF" fill-opacity="1.000000" fill-rule="evenodd"/>
	</g>
	<g opacity="0.450000">
		<path id="Vector" d="M235.041 11.5542L236.021 11.5542L236.021 12.5542L235.041 12.5542L235.041 11.5542Z" fill="#05C2DF" fill-opacity="1.000000" fill-rule="evenodd"/>
	</g>
	<g opacity="0.450000">
		<path id="Vector" d="M221.326 11.5542L222.306 11.5542L222.306 12.5542L221.326 12.5542L221.326 11.5542Z" fill="#05C2DF" fill-opacity="1.000000" fill-rule="evenodd"/>
	</g>
	<g opacity="0.450000">
		<path id="Vector" d="M208.592 11.5542L209.571 11.5542L209.571 12.5542L208.592 12.5542L208.592 11.5542Z" fill="#05C2DF" fill-opacity="1.000000" fill-rule="evenodd"/>
	</g>
	<g opacity="0.450000">
		<path id="Vector" d="M80.2656 55.0542L82.2246 55.0542L82.2246 57.0542L80.2656 57.0542L80.2656 55.0542Z" fill="#05C2DF" fill-opacity="1.000000" fill-rule="evenodd"/>
	</g>
	<g opacity="0.450000">
		<path id="Vector" d="M77.3262 55.0542L79.2852 55.0542L79.2852 57.0542L77.3262 57.0542L77.3262 55.0542Z" fill="#05C2DF" fill-opacity="1.000000" fill-rule="evenodd"/>
	</g>
	<g opacity="0.450000">
		<path id="Vector" d="M83.2041 55.0542L85.1631 55.0542L85.1631 57.0542L83.2041 57.0542L83.2041 55.0542Z" fill="#05C2DF" fill-opacity="1.000000" fill-rule="evenodd"/>
	</g>
	<g opacity="0.450000">
		<path id="Vector" d="M86.1426 55.0542L88.1016 55.0542L88.1016 57.0542L86.1426 57.0542L86.1426 55.0542Z" fill="#05C2DF" fill-opacity="1.000000" fill-rule="evenodd"/>
	</g>
	<g opacity="0.450000">
		<path id="Vector" d="M89.082 55.0542L91.041 55.0542L91.041 57.0542L89.082 57.0542L89.082 55.0542Z" fill="#05C2DF" fill-opacity="1.000000" fill-rule="evenodd"/>
	</g>
	<g opacity="0.450000">
		<path id="Vector" d="M93 55.0542L94.959 55.0542L94.959 57.0542L93 57.0542L93 55.0542Z" fill="#05C2DF" fill-opacity="1.000000" fill-rule="evenodd"/>
	</g>
	<g opacity="0.450000">
		<path id="Vector" d="M96.918 55.0542L98.877 55.0542L98.877 57.0542L96.918 57.0542L96.918 55.0542Z" fill="#05C2DF" fill-opacity="1.000000" fill-rule="evenodd"/>
	</g>
	<g opacity="0.450000">
		<path id="Vector" d="M100.837 55.0542L102.796 55.0542L102.796 57.0542L100.837 57.0542L100.837 55.0542Z" fill="#05C2DF" fill-opacity="1.000000" fill-rule="evenodd"/>
	</g>
	<g opacity="0.450000">
		<path id="Vector" d="M105.734 55.0542L107.693 55.0542L107.693 57.0542L105.734 57.0542L105.734 55.0542Z" fill="#05C2DF" fill-opacity="1.000000" fill-rule="evenodd"/>
	</g>
	<g opacity="0.450000">
		<path id="Vector" d="M110.633 55.0542L112.592 55.0542L112.592 57.0542L110.633 57.0542L110.633 55.0542Z" fill="#05C2DF" fill-opacity="1.000000" fill-rule="evenodd"/>
	</g>
	<g opacity="0.450000">
		<path id="Vector" d="M115.53 55.0542L117.489 55.0542L117.489 57.0542L115.53 57.0542L115.53 55.0542Z" fill="#05C2DF" fill-opacity="1.000000" fill-rule="evenodd"/>
	</g>
	<g opacity="0.450000">
		<path id="Vector" d="M120.429 55.0542L122.388 55.0542L122.388 57.0542L120.429 57.0542L120.429 55.0542Z" fill="#05C2DF" fill-opacity="1.000000" fill-rule="evenodd"/>
	</g>
	<g opacity="0.450000">
		<path id="Vector" d="M125.326 55.0542L127.285 55.0542L127.285 57.0542L125.326 57.0542L125.326 55.0542Z" fill="#05C2DF" fill-opacity="1.000000" fill-rule="evenodd"/>
	</g>
	<g opacity="0.450000">
		<path id="Vector" d="M130.225 55.0542L132.184 55.0542L132.184 57.0542L130.225 57.0542L130.225 55.0542Z" fill="#05C2DF" fill-opacity="1.000000" fill-rule="evenodd"/>
	</g>
	<g opacity="0.450000">
		<path id="Vector" d="M141.979 55.2842L143.547 55.2842L143.547 56.8843L141.979 56.8843L141.979 55.2842Z" fill="#05C2DF" fill-opacity="1.000000" fill-rule="evenodd"/>
	</g>
	<g opacity="0.450000">
		<path id="Vector" d="M147.857 55.2842L149.425 55.2842L149.425 56.8843L147.857 56.8843L147.857 55.2842Z" fill="#05C2DF" fill-opacity="1.000000" fill-rule="evenodd"/>
	</g>
	<g opacity="0.450000">
		<path id="Vector" d="M153.734 55.2842L155.302 55.2842L155.302 56.8843L153.734 56.8843L153.734 55.2842Z" fill="#05C2DF" fill-opacity="1.000000" fill-rule="evenodd"/>
	</g>
	<g opacity="0.450000">
		<path id="Vector" d="M159.612 55.4844L160.886 55.4844L160.886 56.7842L159.612 56.7842L159.612 55.4844Z" fill="#05C2DF" fill-opacity="1.000000" fill-rule="evenodd"/>
	</g>
	<g opacity="0.450000">
		<path id="Vector" d="M166.47 55.4844L167.743 55.4844L167.743 56.7842L166.47 56.7842L166.47 55.4844Z" fill="#05C2DF" fill-opacity="1.000000" fill-rule="evenodd"/>
	</g>
	<g opacity="0.450000">
		<path id="Vector" d="M173.326 55.4844L174.6 55.4844L174.6 56.7842L173.326 56.7842L173.326 55.4844Z" fill="#05C2DF" fill-opacity="1.000000" fill-rule="evenodd"/>
	</g>
	<g opacity="0.450000">
		<path id="Vector" d="M180.184 55.4844L181.457 55.4844L181.457 56.7842L180.184 56.7842L180.184 55.4844Z" fill="#05C2DF" fill-opacity="1.000000" fill-rule="evenodd"/>
	</g>
	<g opacity="0.450000">
		<path id="Vector" d="M188.021 55.4844L189.294 55.4844L189.294 56.7842L188.021 56.7842L188.021 55.4844Z" fill="#05C2DF" fill-opacity="1.000000" fill-rule="evenodd"/>
	</g>
	<g opacity="0.450000">
		<path id="Vector" d="M196.837 55.4844L198.11 55.4844L198.11 56.7842L196.837 56.7842L196.837 55.4844Z" fill="#05C2DF" fill-opacity="1.000000" fill-rule="evenodd"/>
	</g>
	<g opacity="0.450000">
		<path id="Vector" d="M136.102 55.2842L137.669 55.2842L137.669 56.8843L136.102 56.8843L136.102 55.2842Z" fill="#05C2DF" fill-opacity="1.000000" fill-rule="evenodd"/>
	</g>
	<g opacity="0.450000">
		<path id="Vector" d="M235.041 55.5542L236.021 55.5542L236.021 56.5542L235.041 56.5542L235.041 55.5542Z" fill="#05C2DF" fill-opacity="1.000000" fill-rule="evenodd"/>
	</g>
	<g opacity="0.450000">
		<path id="Vector" d="M221.326 55.5542L222.306 55.5542L222.306 56.5542L221.326 56.5542L221.326 55.5542Z" fill="#05C2DF" fill-opacity="1.000000" fill-rule="evenodd"/>
	</g>
	<g opacity="0.450000">
		<path id="Vector" d="M208.592 55.5542L209.571 55.5542L209.571 56.5542L208.592 56.5542L208.592 55.5542Z" fill="#05C2DF" fill-opacity="1.000000" fill-rule="evenodd"/>
	</g>
</svg>
