<svg width="236" height="260" viewBox="0 0 236 260" fill="none" xmlns="http://www.w3.org/2000/svg">
<mask id="path-1-outside-1_1_5915" maskUnits="userSpaceOnUse" x="12.9905" y="4.50243" width="41.0976" height="253.315" fill="black">
<rect fill="white" x="12.9905" y="4.50243" width="41.0976" height="253.315"/>
<path d="M15.0926 17.1272L15.0078 6.90023L50.0113 18.1329L50.1187 31.087L15.3064 42.899L15.2216 32.6721L40.4528 24.8261L40.4506 24.5534L15.0926 17.1272ZM28.849 15.1039L29.0086 34.3305L21.9179 34.3893L21.7584 15.1627L28.849 15.1039ZM15.3343 46.2611L50.2422 45.9715L50.3678 61.1073C50.3899 63.7663 50.0504 66.0022 49.3496 67.8149C48.6488 69.6389 47.6488 71.0166 46.3496 71.9478C45.0506 72.8905 43.5147 73.3691 41.7421 73.3838C40.458 73.3945 39.2853 73.1201 38.2238 72.5607C37.1624 72.0127 36.2695 71.236 35.5453 70.2306C34.8323 69.2251 34.3339 68.0474 34.05 66.6974L33.7091 66.7003C33.6647 68.2007 33.2954 69.5674 32.601 70.8005C31.918 72.0335 30.966 73.0187 29.7448 73.7561C28.5349 74.4935 27.1062 74.869 25.4585 74.8826C23.5495 74.8985 21.8465 74.4126 20.3496 73.425C18.8529 72.4487 17.6707 71.0494 16.8033 69.227C15.9359 67.4046 15.4917 65.2263 15.4707 62.6923L15.3343 46.2611ZM22.9809 55.6752L23.0177 60.1069C23.0308 61.6978 23.3362 62.8885 23.9337 63.679C24.5425 64.4694 25.4322 64.8598 26.6026 64.8501C27.4207 64.8433 28.1123 64.65 28.6774 64.2703C29.2424 63.8906 29.6698 63.353 29.9595 62.6574C30.2493 61.9731 30.3902 61.1481 30.3822 60.1822L30.3443 55.6142L22.9809 55.6752ZM36.2077 55.5655L36.2399 59.4517C36.2468 60.2813 36.3836 61.0131 36.6502 61.6473C36.9169 62.2815 37.2959 62.7726 37.7875 63.1208C38.2905 63.4803 38.8999 63.6571 39.6158 63.6512C40.6953 63.6422 41.5159 63.249 42.0777 62.4716C42.6508 61.6941 42.9325 60.7144 42.9227 59.5327L42.8893 55.5101L36.2077 55.5655ZM33.3348 111.995C29.4486 112.027 26.1641 111.298 23.4812 109.809C20.8096 108.32 18.7757 106.297 17.3795 103.74C15.9946 101.184 15.289 98.3258 15.2628 95.1668C15.2364 91.9851 15.9 89.1045 17.2537 86.525C18.6188 83.9567 20.6246 81.9059 23.271 80.3726C25.9289 78.8505 29.1896 78.0734 33.0532 78.0413C36.9394 78.0091 40.2182 78.7319 42.8897 80.2098C45.5726 81.6989 47.6064 83.7162 48.9912 86.2616C50.3875 88.8183 51.0988 91.6875 51.1252 94.8692C51.1514 98.0282 50.4877 100.897 49.134 103.477C47.7918 106.056 45.7917 108.113 43.1339 109.646C40.4874 111.18 37.2211 111.962 33.3348 111.995ZM33.254 102.245C35.3448 102.228 37.1038 101.935 38.5309 101.366C39.9695 100.809 41.0537 99.9871 41.7833 98.9014C42.5244 97.8271 42.8885 96.5058 42.8755 94.9377C42.8625 93.3696 42.4765 92.0489 41.7176 90.9756C40.9701 89.9135 39.8725 89.1101 38.4247 88.5653C36.9884 88.0317 35.2249 87.7736 33.134 87.791C31.0432 87.8083 29.2785 88.0957 27.8399 88.6531C26.4127 89.2218 25.3286 90.0433 24.5875 91.1177C23.8578 92.2033 23.4995 93.5302 23.5125 95.0983C23.5255 96.6665 23.9058 97.9815 24.6532 99.0436C25.4122 100.117 26.5098 100.92 27.9461 101.454C29.3938 101.999 31.1631 102.262 33.254 102.245ZM50.9966 136.893L51.0752 146.37L28.7123 146.556C26.0533 146.578 23.747 145.96 21.7933 144.704C19.8511 143.458 18.3422 141.71 17.2667 139.457C16.2025 137.204 15.658 134.584 15.6332 131.595C15.6082 128.584 16.1091 125.943 17.1357 123.674C18.1737 121.403 19.6534 119.63 21.5747 118.352C23.5074 117.086 25.8033 116.442 28.4623 116.42L50.8252 116.235L50.9038 125.712L29.3591 125.89C28.2796 125.899 27.3157 126.146 26.4674 126.63C25.6305 127.115 24.9769 127.779 24.5066 128.624C24.0364 129.48 23.8058 130.448 23.8148 131.527C23.8238 132.618 24.0704 133.582 24.5547 134.419C25.0389 135.256 25.7034 135.91 26.5483 136.38C27.4045 136.85 28.3723 137.081 29.4519 137.072L50.9966 136.893ZM43.4685 149.983L51.1046 149.92L51.3564 180.259L43.7203 180.323L43.6331 169.823L16.3614 170.049L16.2839 160.709L43.5557 160.483L43.4685 149.983ZM51.6367 214.047L51.7153 223.524L29.3524 223.709C26.6934 223.731 24.3871 223.114 22.4334 221.857C20.4912 220.612 18.9823 218.863 17.9068 216.611C16.8426 214.358 16.2981 211.737 16.2733 208.749C16.2483 205.738 16.7492 203.097 17.7758 200.827C18.8139 198.557 20.2935 196.783 22.2148 195.506C24.1475 194.24 26.4434 193.596 29.1024 193.574L51.4653 193.388L51.5439 202.865L29.9992 203.044C28.9197 203.053 27.9558 203.3 27.1075 203.784C26.2706 204.268 25.617 204.933 25.1467 205.778C24.6765 206.634 24.4459 207.602 24.4549 208.681C24.4639 209.772 24.7106 210.736 25.1948 211.573C25.679 212.41 26.3436 213.063 27.1884 213.534C28.0446 214.004 29.0125 214.234 30.092 214.225L51.6367 214.047ZM41.0001 246.936C42.1357 246.835 43.0185 246.402 43.6485 245.635C44.2786 244.88 44.5873 243.735 44.5746 242.201C44.5665 241.224 44.4405 240.424 44.1967 239.801C43.9643 239.189 43.6481 238.737 43.2479 238.445C42.8477 238.153 42.3919 238.003 41.8805 237.996C41.4599 237.977 41.0798 238.054 40.7403 238.227C40.4123 238.412 40.1135 238.699 39.844 239.087C39.5859 239.476 39.3513 239.972 39.1404 240.576C38.9295 241.18 38.7423 241.897 38.5787 242.728L37.9889 245.597C37.5958 247.532 37.0698 249.19 36.4108 250.571C35.7517 251.951 34.9713 253.083 34.0695 253.965C33.1791 254.848 32.1731 255.498 31.0515 255.916C29.93 256.346 28.7046 256.572 27.3752 256.595C25.0797 256.602 23.1319 256.045 21.5316 254.921C19.9313 253.798 18.7076 252.183 17.8606 250.077C17.0136 247.981 16.5779 245.456 16.5534 242.502C16.5282 239.468 16.9551 236.817 17.834 234.548C18.713 232.291 20.0792 230.529 21.9324 229.264C23.797 228.01 26.1895 227.365 29.1097 227.329L29.1844 236.329C28.1167 236.395 27.2213 236.669 26.498 237.152C25.7747 237.636 25.2291 238.311 24.8613 239.177C24.4936 240.055 24.3147 241.097 24.3247 242.301C24.3331 243.313 24.4651 244.158 24.7208 244.838C24.9764 245.518 25.3273 246.032 25.7734 246.38C26.2194 246.729 26.7266 246.906 27.2949 246.913C27.8289 246.897 28.2933 246.717 28.6882 246.373C29.0945 246.04 29.4536 245.492 29.7655 244.728C30.0887 243.964 30.387 242.933 30.6603 241.635L31.3814 238.152C32.0262 235.055 33.1253 232.609 34.6786 230.812C36.2434 229.026 38.3894 228.127 41.1167 228.116C43.3324 228.086 45.2748 228.661 46.9437 229.84C48.6241 231.031 49.939 232.685 50.8884 234.802C51.8379 236.931 52.3241 239.376 52.347 242.137C52.3704 244.955 51.9191 247.396 50.993 249.461C50.0669 251.525 48.7505 253.122 47.0439 254.249C45.3488 255.389 43.3592 255.973 41.0753 256.004L41.0001 246.936Z"/>
</mask>
<path d="M15.0926 17.1272L14.0927 17.1354L14.0988 17.8781L14.8116 18.0868L15.0926 17.1272ZM15.0078 6.90023L15.3133 5.94805L13.9963 5.52543L14.0078 6.90853L15.0078 6.90023ZM50.0113 18.1329L51.0112 18.1246L51.0052 17.4017L50.3168 17.1808L50.0113 18.1329ZM50.1187 31.087L50.44 32.034L51.1247 31.8017L51.1187 31.0787L50.1187 31.087ZM15.3064 42.899L14.3065 42.9073L14.3179 44.2904L15.6278 43.846L15.3064 42.899ZM15.2216 32.6721L14.9247 31.7172L14.2155 31.9377L14.2216 32.6804L15.2216 32.6721ZM40.4528 24.8261L40.7498 25.781L41.4589 25.5605L41.4528 24.8178L40.4528 24.8261ZM40.4506 24.5534L41.4505 24.5451L41.4444 23.8024L40.7316 23.5937L40.4506 24.5534ZM28.849 15.1039L29.849 15.0956L29.8407 14.0956L28.8407 14.1039L28.849 15.1039ZM29.0086 34.3305L29.0168 35.3304L30.0168 35.3221L30.0085 34.3222L29.0086 34.3305ZM21.9179 34.3893L20.9179 34.3976L20.9262 35.3976L21.9262 35.3893L21.9179 34.3893ZM21.7584 15.1627L21.7501 14.1627L20.7501 14.171L20.7584 15.171L21.7584 15.1627ZM16.0926 17.1189L16.0077 6.89193L14.0078 6.90853L14.0927 17.1354L16.0926 17.1189ZM14.7022 7.8524L49.7057 19.0851L50.3168 17.1808L15.3133 5.94805L14.7022 7.8524ZM49.0113 18.1412L49.1188 31.0953L51.1187 31.0787L51.0112 18.1246L49.0113 18.1412ZM49.7974 30.1401L14.9851 41.952L15.6278 43.846L50.44 32.034L49.7974 30.1401ZM16.3064 42.8907L16.2216 32.6638L14.2216 32.6804L14.3065 42.9073L16.3064 42.8907ZM15.5185 33.627L40.7498 25.781L40.1559 23.8712L14.9247 31.7172L15.5185 33.627ZM41.4528 24.8178L41.4505 24.5451L39.4506 24.5617L39.4529 24.8344L41.4528 24.8178ZM40.7316 23.5937L15.3737 16.1675L14.8116 18.0868L40.1695 25.5131L40.7316 23.5937ZM27.8491 15.1122L28.0086 34.3388L30.0085 34.3222L29.849 15.0956L27.8491 15.1122ZM29.0003 33.3305L21.9096 33.3893L21.9262 35.3893L29.0168 35.3304L29.0003 33.3305ZM22.9179 34.381L22.7583 15.1544L20.7584 15.171L20.9179 34.3976L22.9179 34.381ZM21.7667 16.1627L28.8573 16.1038L28.8407 14.1039L21.7501 14.1627L21.7667 16.1627ZM15.3343 46.2611L15.326 45.2611L14.3261 45.2694L14.3344 46.2694L15.3343 46.2611ZM50.2422 45.9715L51.2422 45.9632L51.2339 44.9632L50.2339 44.9715L50.2422 45.9715ZM49.3496 67.8149L48.4168 67.4542L48.4161 67.4562L49.3496 67.8149ZM46.3496 71.9478L45.767 71.1351L45.7623 71.1385L46.3496 71.9478ZM38.2238 72.5607L38.69 71.676L38.6826 71.6722L38.2238 72.5607ZM35.5453 70.2306L34.7295 70.809L34.7339 70.8151L35.5453 70.2306ZM34.05 66.6974L35.0286 66.4916L34.8601 65.6907L34.0417 65.6975L34.05 66.6974ZM33.7091 66.7003L33.7008 65.7003L32.738 65.7083L32.7095 66.6707L33.7091 66.7003ZM32.601 70.8005L31.7296 70.3098L31.7263 70.316L32.601 70.8005ZM29.7448 73.7561L29.2278 72.9001L29.2243 72.9022L29.7448 73.7561ZM20.3496 73.425L20.9004 72.5903L20.8959 72.5874L20.3496 73.425ZM16.8033 69.227L17.7063 68.7972L16.8033 69.227ZM22.9809 55.6752L22.9726 54.6753L21.9726 54.6836L21.9809 55.6835L22.9809 55.6752ZM23.9337 63.679L23.1359 64.282L23.1415 64.2892L23.9337 63.679ZM29.9595 62.6574L29.0387 62.2674L29.0364 62.2729L29.9595 62.6574ZM30.3443 55.6142L31.3442 55.6059L31.3359 54.6059L30.336 54.6142L30.3443 55.6142ZM36.2077 55.5655L36.1994 54.5655L35.1994 54.5738L35.2077 55.5738L36.2077 55.5655ZM36.6502 61.6473L35.7284 62.0349L35.7284 62.0349L36.6502 61.6473ZM37.7875 63.1208L38.3689 62.3073L38.3655 62.3048L37.7875 63.1208ZM42.0777 62.4716L41.2727 61.8782L41.2672 61.8859L42.0777 62.4716ZM42.8893 55.5101L43.8893 55.5018L43.881 54.5018L42.881 54.5101L42.8893 55.5101ZM15.3426 47.2611L50.2505 46.9714L50.2339 44.9715L15.326 45.2611L15.3426 47.2611ZM49.2423 45.9798L49.3678 61.1156L51.3678 61.099L51.2422 45.9632L49.2423 45.9798ZM49.3678 61.1156C49.3892 63.6919 49.0589 65.7938 48.4168 67.4542L50.2823 68.1755C51.042 66.2105 51.3905 63.8407 51.3678 61.099L49.3678 61.1156ZM48.4161 67.4562C47.7696 69.1388 46.8752 70.3408 45.767 71.1351L46.9323 72.7606C48.4224 71.6924 49.5279 70.1391 50.283 68.1735L48.4161 67.4562ZM45.7623 71.1385C44.6493 71.9461 43.3211 72.3707 41.7338 72.3839L41.7504 74.3838C43.7084 74.3676 45.4519 73.8348 46.9369 72.7572L45.7623 71.1385ZM41.7338 72.3839C40.6031 72.3933 39.5951 72.153 38.69 71.6761L37.7576 73.4454C38.9755 74.0872 40.313 74.3957 41.7504 74.3838L41.7338 72.3839ZM38.6826 71.6722C37.7663 71.1991 36.9925 70.5287 36.3566 69.6461L34.7339 70.8151C35.5466 71.9433 36.5585 72.8263 37.765 73.4493L38.6826 71.6722ZM36.361 69.6522C35.7363 68.7711 35.2877 67.7235 35.0286 66.4916L33.0714 66.9033C33.3802 68.3713 33.9284 69.6792 34.7295 70.809L36.361 69.6522ZM34.0417 65.6975L33.7008 65.7003L33.7174 67.7002L34.0583 67.6974L34.0417 65.6975ZM32.7095 66.6707C32.6696 68.0194 32.3398 69.2264 31.7297 70.3099L33.4724 71.2912C34.251 69.9085 34.6598 68.3819 34.7086 66.7298L32.7095 66.6707ZM31.7263 70.316C31.1291 71.394 30.3012 72.2519 29.2278 72.9001L30.2617 74.6122C31.6307 73.7855 32.707 72.673 33.4758 71.2851L31.7263 70.316ZM29.2243 72.9022C28.1925 73.531 26.947 73.8702 25.4502 73.8827L25.4668 75.8826C27.2654 75.8677 28.8773 75.4559 30.2652 74.61L29.2243 72.9022ZM25.4502 73.8827C23.7263 73.897 22.2205 73.4613 20.9004 72.5903L19.7989 74.2597C21.4725 75.3639 23.3726 75.9 25.4668 75.8826L25.4502 73.8827ZM20.8959 72.5874C19.5725 71.7242 18.5051 70.4755 17.7063 68.7972L15.9004 69.6567C16.8364 71.6233 18.1332 73.1732 19.8033 74.2626L20.8959 72.5874ZM17.7063 68.7972C16.9154 67.1357 16.4907 65.1084 16.4706 62.684L14.4707 62.7006C14.4926 65.3443 14.9564 67.6734 15.9004 69.6567L17.7063 68.7972ZM16.4706 62.684L16.3343 46.2528L14.3344 46.2694L14.4707 62.7006L16.4706 62.684ZM21.9809 55.6835L22.0177 60.1152L24.0176 60.0986L23.9808 55.667L21.9809 55.6835ZM22.0177 60.1152C22.0317 61.8007 22.3515 63.2442 23.1359 64.2819L24.7315 63.076C24.3209 62.5328 24.03 61.5948 24.0176 60.0986L22.0177 60.1152ZM23.1415 64.2892C23.9759 65.3726 25.1886 65.8618 26.6109 65.85L26.5943 63.8501C25.6757 63.8577 25.1091 63.5663 24.7259 63.0688L23.1415 64.2892ZM26.6109 65.85C27.5848 65.842 28.4772 65.6097 29.2351 65.1003L28.1196 63.4403C27.7475 63.6904 27.2567 63.8446 26.5943 63.8501L26.6109 65.85ZM29.2351 65.1003C29.9802 64.5996 30.5259 63.8985 30.8827 63.0418L29.0364 62.2729C28.8137 62.8075 28.5046 63.1816 28.1196 63.4403L29.2351 65.1003ZM30.8803 63.0473C31.2369 62.2055 31.391 61.2373 31.3821 60.1739L29.3822 60.1905C29.3894 61.0588 29.2617 61.7408 29.0387 62.2674L30.8803 63.0473ZM31.3821 60.1739L31.3442 55.6059L29.3443 55.6225L29.3822 60.1905L31.3821 60.1739ZM30.336 54.6142L22.9726 54.6753L22.9892 56.6752L30.3526 56.6141L30.336 54.6142ZM35.2077 55.5738L35.24 59.46L37.2399 59.4434L37.2077 55.5572L35.2077 55.5738ZM35.24 59.46C35.2477 60.3937 35.402 61.2586 35.7284 62.0349L37.5721 61.2597C37.3652 60.7676 37.2459 60.1688 37.2399 59.4434L35.24 59.46ZM35.7284 62.0349C36.0569 62.8161 36.5448 63.466 37.2094 63.9368L38.3655 62.3048C38.047 62.0792 37.7768 61.7468 37.5721 61.2597L35.7284 62.0349ZM37.206 63.9344C37.9071 64.4355 38.7315 64.6585 39.6241 64.6511L39.6075 62.6512C39.0684 62.6557 38.6738 62.5252 38.3689 62.3073L37.206 63.9344ZM39.6241 64.6511C40.9757 64.6399 42.1148 64.1276 42.8882 63.0573L41.2672 61.8859C40.9171 62.3704 40.4149 62.6445 39.6075 62.6512L39.6241 64.6511ZM42.8826 63.0649C43.6107 62.0773 43.9338 60.8731 43.9226 59.5244L41.9227 59.541C41.9311 60.5558 41.691 61.3109 41.2727 61.8783L42.8826 63.0649ZM43.9226 59.5244L43.8893 55.5018L41.8893 55.5184L41.9227 59.541L43.9226 59.5244ZM42.881 54.5101L36.1994 54.5655L36.216 56.5655L42.8976 56.51L42.881 54.5101ZM23.4812 109.809L22.9942 110.683L22.9958 110.684L23.4812 109.809ZM17.3795 103.74L16.5002 104.217L16.5018 104.22L17.3795 103.74ZM17.2537 86.525L16.3706 86.0556L16.3682 86.0603L17.2537 86.525ZM23.271 80.3726L22.7741 79.5048L22.7697 79.5073L23.271 80.3726ZM42.8897 80.2098L43.375 79.3354L43.3737 79.3348L42.8897 80.2098ZM48.9912 86.2617L48.1128 86.7395L48.1136 86.7409L48.9912 86.2617ZM49.134 103.477L48.2486 103.012L48.247 103.015L49.134 103.477ZM43.1339 109.646L42.6341 108.78L42.6326 108.781L43.1339 109.646ZM38.5309 101.366L38.1696 100.434L38.1608 100.437L38.5309 101.366ZM41.7833 98.9014L40.9601 98.3336L40.9534 98.3436L41.7833 98.9014ZM41.7176 90.9756L40.8998 91.5511L40.9011 91.5529L41.7176 90.9756ZM38.4247 88.5653L38.7769 87.6294L38.773 87.6279L38.4247 88.5653ZM27.8399 88.6531L27.4786 87.7206L27.4697 87.7242L27.8399 88.6531ZM24.5875 91.1177L23.7643 90.5498L23.7575 90.5599L24.5875 91.1177ZM24.6532 99.0436L23.8355 99.6191L23.8367 99.6209L24.6532 99.0436ZM27.9461 101.454L28.2983 100.518L28.2943 100.516L27.9461 101.454ZM33.3266 110.995C29.5678 111.026 26.4633 110.321 23.9665 108.935L22.9958 110.684C25.8648 112.276 29.3295 113.028 33.3431 112.995L33.3266 110.995ZM23.9681 108.936C21.4527 107.534 19.5583 105.644 18.2571 103.261L16.5018 104.22C17.9931 106.95 20.1665 109.106 22.9942 110.683L23.9681 108.936ZM18.2587 103.264C16.9583 100.863 16.2877 98.1684 16.2628 95.1585L14.2628 95.1751C14.2903 98.4831 15.0308 101.504 16.5002 104.217L18.2587 103.264ZM16.2628 95.1585C16.2376 92.1259 16.8689 89.4101 18.1392 86.9896L16.3682 86.0603C14.9311 88.7988 14.2352 91.8442 14.2628 95.1751L16.2628 95.1585ZM18.1367 86.9943C19.4094 84.5998 21.2789 82.6825 23.7723 81.2378L22.7697 79.5073C19.9702 81.1293 17.8281 83.3136 16.3707 86.0556L18.1367 86.9943ZM23.768 81.2403C26.243 79.823 29.3254 79.0723 33.0614 79.0413L33.0449 77.0414C29.0539 77.0745 25.6149 77.8779 22.7741 79.5048L23.768 81.2403ZM33.0614 79.0413C36.8216 79.0101 39.9205 79.71 42.4056 81.0848L43.3737 79.3348C40.5159 77.7538 37.0572 77.0081 33.0449 77.0414L33.0614 79.0413ZM42.4044 81.0841C44.9315 82.4868 46.8242 84.3709 48.1128 86.7395L49.8696 85.7838C48.3887 83.0615 46.2136 80.9111 43.375 79.3354L42.4044 81.0841ZM48.1136 86.7409C49.4238 89.1401 50.1001 91.845 50.1252 94.8775L52.1252 94.8609C52.0975 91.5301 51.3512 88.4966 49.8689 85.7823L48.1136 86.7409ZM50.1252 94.8775C50.1502 97.8861 49.5193 100.591 48.2486 103.012L50.0195 103.942C51.4561 101.204 52.1526 98.1704 52.1252 94.8609L50.1252 94.8775ZM48.247 103.015C46.9976 105.416 45.1365 107.336 42.6341 108.78L43.6336 110.512C46.4469 108.889 48.5859 106.697 50.0211 103.939L48.247 103.015ZM42.6326 108.781C40.1713 110.207 37.0856 110.964 33.3266 110.995L33.3431 112.995C37.3566 112.961 40.8035 112.152 43.6352 110.512L42.6326 108.781ZM33.2623 103.245C35.4352 103.227 37.3254 102.923 38.9011 102.295L38.1608 100.437C36.8822 100.947 35.2544 101.228 33.2457 101.245L33.2623 103.245ZM38.8922 102.298C40.4866 101.681 41.7501 100.744 42.6133 99.4592L40.9534 98.3436C40.3573 99.2305 39.4525 99.9365 38.1696 100.434L38.8922 102.298ZM42.6065 99.4693C43.4863 98.1938 43.8898 96.6609 43.8755 94.9294L41.8755 94.946C41.8872 96.3507 41.5626 97.4603 40.9602 98.3336L42.6065 99.4693ZM43.8755 94.9294C43.8611 93.1975 43.432 91.6681 42.5341 90.3982L40.9011 91.5529C41.521 92.4296 41.8639 93.5416 41.8755 94.946L43.8755 94.9294ZM42.5353 90.4C41.6517 89.1446 40.3759 88.2311 38.7769 87.6294L38.0725 89.5012C39.369 89.9891 40.2885 90.6825 40.8998 91.5511L42.5353 90.4ZM38.773 87.6279C37.1894 87.0396 35.2968 86.773 33.1257 86.791L33.1423 88.791C35.1529 88.7743 36.7875 89.0239 38.0765 89.5027L38.773 87.6279ZM33.1257 86.791C30.9543 86.809 29.062 87.1072 27.4786 87.7207L28.2012 89.5856C29.495 89.0843 31.1321 88.8076 33.1423 88.791L33.1257 86.791ZM27.4697 87.7242C25.8924 88.3527 24.6362 89.286 23.7643 90.5499L25.4106 91.6855C26.021 90.8007 26.9331 90.0909 28.21 89.5821L27.4697 87.7242ZM23.7575 90.5599C22.8947 91.8437 22.4982 93.3778 22.5125 95.1066L24.5125 95.09C24.5008 93.6826 24.821 92.5629 25.4174 91.6755L23.7575 90.5599ZM22.5125 95.1066C22.5269 96.8351 22.9486 98.359 23.8355 99.6191L25.471 98.468C24.863 97.6041 24.5242 96.4978 24.5125 95.09L22.5125 95.1066ZM23.8367 99.6209C24.7303 100.885 26.0049 101.799 27.5978 102.391L28.2943 100.516C27.0147 100.041 26.0941 99.3492 25.4697 98.4662L23.8367 99.6209ZM27.5939 102.39C29.1895 102.99 31.0889 103.263 33.2623 103.245L33.2457 101.245C31.2373 101.262 29.5981 101.007 28.2983 100.518L27.5939 102.39ZM50.9966 136.893L51.9965 136.885L51.9882 135.885L50.9883 135.893L50.9966 136.893ZM51.0752 146.37L51.0835 147.37L52.0835 147.362L52.0752 146.362L51.0752 146.37ZM21.7933 144.704L22.3343 143.863L22.3331 143.862L21.7933 144.704ZM17.2667 139.457L16.3625 139.884L16.3643 139.888L17.2667 139.457ZM17.1357 123.674L16.2263 123.258L16.2246 123.261L17.1357 123.674ZM21.5747 118.352L21.0267 117.516L21.021 117.52L21.5747 118.352ZM50.8252 116.235L51.8251 116.226L51.8168 115.226L50.8169 115.235L50.8252 116.235ZM50.9038 125.712L50.9121 126.712L51.9121 126.703L51.9038 125.703L50.9038 125.712ZM26.4674 126.63L25.9716 125.762L25.9666 125.765L26.4674 126.63ZM24.5066 128.624L23.6328 128.138L23.6301 128.143L24.5066 128.624ZM24.5547 134.419L23.6891 134.92L24.5547 134.419ZM26.5483 136.38L26.0619 137.254L26.0669 137.256L26.5483 136.38ZM49.9966 136.901L50.0752 146.378L52.0752 146.362L51.9965 136.885L49.9966 136.901ZM51.0669 145.37L28.704 145.556L28.7206 147.556L51.0835 147.37L51.0669 145.37ZM28.704 145.556C26.2107 145.576 24.1015 144.999 22.3343 143.863L21.2524 145.545C23.3925 146.921 25.8959 147.579 28.7206 147.556L28.704 145.556ZM22.3331 143.862C20.5605 142.725 19.1712 141.125 18.1691 139.026L16.3643 139.888C17.5132 142.294 19.1417 144.192 21.2536 145.546L22.3331 143.862ZM18.1709 139.03C17.1797 136.932 16.657 134.459 16.6332 131.587L14.6332 131.604C14.659 134.709 15.2253 137.477 16.3625 139.884L18.1709 139.03ZM16.6332 131.587C16.6092 128.691 17.0911 126.199 18.0469 124.086L16.2246 123.261C15.1271 125.688 14.6073 128.477 14.6332 131.604L16.6332 131.587ZM18.0452 124.089C19.0123 121.974 20.3748 120.351 22.1283 119.185L21.021 117.52C18.932 118.909 17.3352 120.833 16.2263 123.258L18.0452 124.089ZM22.1227 119.189C23.8718 118.043 25.9738 117.441 28.4706 117.42L28.454 115.42C25.6328 115.444 23.1431 116.13 21.0267 117.516L22.1227 119.189ZM28.4706 117.42L50.8335 117.235L50.8169 115.235L28.454 115.42L28.4706 117.42ZM49.8252 116.243L49.9038 125.72L51.9038 125.703L51.8251 116.226L49.8252 116.243ZM50.8955 124.712L29.3508 124.89L29.3674 126.89L50.9121 126.712L50.8955 124.712ZM29.3508 124.89C28.1186 124.901 26.9836 125.184 25.9716 125.762L26.9632 127.499C27.6477 127.108 28.4405 126.898 29.3674 126.89L29.3508 124.89ZM25.9666 125.765C24.9734 126.339 24.1909 127.135 23.6328 128.138L25.3803 129.11C25.7628 128.423 26.2875 127.89 26.9682 127.496L25.9666 125.765ZM23.6301 128.143C23.0691 129.164 22.8046 130.304 22.8148 131.536L24.8147 131.519C24.807 130.592 25.0037 129.796 25.3831 129.105L23.6301 128.143ZM22.8148 131.536C22.8251 132.777 23.1076 133.915 23.6891 134.92L25.4202 133.918C25.0333 133.25 24.8225 132.46 24.8147 131.519L22.8148 131.536ZM23.6891 134.92C24.2638 135.913 25.0593 136.696 26.0619 137.254L27.0347 135.506C26.3476 135.124 25.8141 134.599 25.4202 133.918L23.6891 134.92ZM26.0669 137.256C27.0885 137.817 28.228 138.082 29.4601 138.072L29.4436 136.072C28.5167 136.08 27.7205 135.883 27.0296 135.503L26.0669 137.256ZM29.4601 138.072L51.0049 137.893L50.9883 135.893L29.4436 136.072L29.4601 138.072ZM43.4685 149.983L43.4602 148.983L42.4603 148.991L42.4686 149.991L43.4685 149.983ZM51.1046 149.92L52.1046 149.911L52.0963 148.911L51.0963 148.92L51.1046 149.92ZM51.3564 180.259L51.3647 181.259L52.3646 181.251L52.3563 180.251L51.3564 180.259ZM43.7203 180.323L42.7203 180.331L42.7286 181.331L43.7286 181.323L43.7203 180.323ZM43.6332 169.823L44.6331 169.815L44.6248 168.815L43.6249 168.823L43.6332 169.823ZM16.3614 170.049L15.3614 170.058L15.3697 171.058L16.3697 171.049L16.3614 170.049ZM16.2839 160.709L16.2756 159.709L15.2756 159.717L15.2839 160.717L16.2839 160.709ZM43.5557 160.483L43.564 161.483L44.5639 161.474L44.5556 160.474L43.5557 160.483ZM43.4768 150.983L51.1129 150.92L51.0963 148.92L43.4602 148.983L43.4768 150.983ZM50.1047 149.928L50.3564 180.268L52.3563 180.251L52.1046 149.911L50.1047 149.928ZM51.3481 179.26L43.712 179.323L43.7286 181.323L51.3647 181.259L51.3481 179.26ZM44.7202 180.315L44.6331 169.815L42.6332 169.831L42.7203 180.331L44.7202 180.315ZM43.6249 168.823L16.3531 169.049L16.3697 171.049L43.6414 170.823L43.6249 168.823ZM17.3613 170.041L17.2838 160.701L15.2839 160.717L15.3614 170.058L17.3613 170.041ZM16.2922 161.709L43.564 161.483L43.5474 159.483L16.2756 159.709L16.2922 161.709ZM44.5556 160.474L44.4685 149.975L42.4686 149.991L42.5557 160.491L44.5556 160.474ZM51.6367 214.047L52.6366 214.038L52.6284 213.038L51.6284 213.047L51.6367 214.047ZM51.7153 223.524L51.7236 224.524L52.7236 224.515L52.7153 223.515L51.7153 223.524ZM22.4334 221.857L22.9744 221.016L22.9732 221.016L22.4334 221.857ZM17.9068 216.611L17.0026 217.038L17.0044 217.042L17.9068 216.611ZM17.7758 200.827L16.8664 200.411L16.8647 200.415L17.7758 200.827ZM22.2148 195.506L21.6668 194.67L21.6612 194.673L22.2148 195.506ZM51.4653 193.388L52.4653 193.38L52.457 192.38L51.457 192.388L51.4653 193.388ZM51.5439 202.865L51.5522 203.865L52.5522 203.857L52.5439 202.857L51.5439 202.865ZM27.1075 203.784L26.6117 202.915L26.6067 202.918L27.1075 203.784ZM25.1467 205.778L24.2729 205.291L24.2702 205.296L25.1467 205.778ZM25.1948 211.573L24.3292 212.074L25.1948 211.573ZM27.1884 213.534L26.702 214.407L26.7071 214.41L27.1884 213.534ZM50.6367 214.055L50.7153 223.532L52.7153 223.515L52.6366 214.038L50.6367 214.055ZM51.707 222.524L29.3441 222.709L29.3607 224.709L51.7236 224.524L51.707 222.524ZM29.3441 222.709C26.8508 222.73 24.7416 222.153 22.9744 221.016L21.8925 222.698C24.0326 224.075 26.536 224.733 29.3607 224.709L29.3441 222.709ZM22.9732 221.016C21.2006 219.879 19.8113 218.279 18.8092 216.18L17.0044 217.042C18.1534 219.448 19.7818 221.345 21.8937 222.699L22.9732 221.016ZM18.811 216.184C17.8198 214.085 17.2971 211.613 17.2733 208.741L15.2734 208.757C15.2991 211.862 15.8654 214.631 17.0026 217.038L18.811 216.184ZM17.2733 208.741C17.2493 205.845 17.7312 203.353 18.687 201.239L16.8647 200.415C15.7672 202.842 15.2474 205.631 15.2734 208.757L17.2733 208.741ZM18.6853 201.243C19.6524 199.128 21.015 197.505 22.7684 196.339L21.6612 194.673C19.5721 196.062 17.9753 197.986 16.8664 200.411L18.6853 201.243ZM22.7628 196.343C24.5119 195.197 26.6139 194.594 29.1107 194.574L29.0941 192.574C26.2729 192.597 23.7832 193.283 21.6668 194.67L22.7628 196.343ZM29.1107 194.574L51.4736 194.388L51.457 192.388L29.0941 192.574L29.1107 194.574ZM50.4653 193.397L50.5439 202.874L52.5439 202.857L52.4653 193.38L50.4653 193.397ZM51.5356 201.865L29.9909 202.044L30.0075 204.044L51.5522 203.865L51.5356 201.865ZM29.9909 202.044C28.7587 202.054 27.6238 202.338 26.6117 202.915L27.6033 204.652C28.2878 204.262 29.0807 204.052 30.0075 204.044L29.9909 202.044ZM26.6067 202.918C25.6135 203.493 24.831 204.289 24.273 205.291L26.0205 206.264C26.4029 205.577 26.9277 205.043 27.6083 204.649L26.6067 202.918ZM24.2702 205.296C23.7092 206.318 23.4447 207.457 23.4549 208.689L25.4548 208.673C25.4471 207.746 25.6438 206.95 26.0232 206.259L24.2702 205.296ZM23.4549 208.689C23.4652 209.931 23.7477 211.068 24.3292 212.074L26.0604 211.072C25.6734 210.403 25.4626 209.613 25.4548 208.673L23.4549 208.689ZM24.3292 212.074C24.9039 213.067 25.6994 213.849 26.702 214.407L27.6748 212.66C26.9877 212.277 26.4542 211.753 26.0604 211.072L24.3292 212.074ZM26.7071 214.41C27.7286 214.971 28.8681 215.236 30.1003 215.225L30.0837 213.225C29.1568 213.233 28.3606 213.036 27.6698 212.657L26.7071 214.41ZM30.1003 215.225L51.645 215.047L51.6284 213.047L30.0837 213.225L30.1003 215.225ZM41.0001 246.936L40.9121 245.94L39.9925 246.021L40.0001 246.944L41.0001 246.936ZM43.6485 245.635L42.8806 244.995L42.8759 245L43.6485 245.635ZM44.1967 239.801L43.2618 240.156L43.2655 240.165L44.1967 239.801ZM43.2479 238.445L43.8375 237.638L43.8375 237.638L43.2479 238.445ZM41.8805 237.996L41.8348 238.995L41.8507 238.996L41.8666 238.996L41.8805 237.996ZM40.7403 238.227L40.2857 237.337L40.2677 237.346L40.25 237.356L40.7403 238.227ZM39.844 239.087L39.0223 238.517L39.0166 238.525L39.0111 238.534L39.844 239.087ZM38.5787 242.728L39.5583 242.93L39.5599 242.922L38.5787 242.728ZM37.9889 245.597L37.0094 245.396L37.0089 245.398L37.9889 245.597ZM34.0695 253.965L33.3701 253.25L33.3656 253.255L34.0695 253.965ZM31.0515 255.916L30.702 254.979L30.6937 254.983L31.0515 255.916ZM27.3752 256.595L27.3785 257.595L27.392 257.594L27.3752 256.595ZM21.5316 254.921L20.9571 255.74L21.5316 254.921ZM17.8606 250.077L18.7884 249.704L18.7877 249.702L17.8606 250.077ZM17.834 234.548L16.9022 234.185L16.9015 234.187L17.834 234.548ZM21.9324 229.264L21.3743 228.434L21.3685 228.438L21.9324 229.264ZM29.1097 227.329L30.1097 227.321L30.1014 226.317L29.0976 226.329L29.1097 227.329ZM29.1844 236.329L29.2458 237.327L30.1922 237.269L30.1844 236.321L29.1844 236.329ZM26.498 237.152L25.9424 236.321L25.9424 236.321L26.498 237.152ZM24.8613 239.177L23.9408 238.787L23.9389 238.791L24.8613 239.177ZM24.7208 244.838L23.7848 245.19L24.7208 244.838ZM25.7734 246.38L25.1576 247.168L25.7734 246.38ZM27.2949 246.913L27.2832 247.913L27.3038 247.913L27.3244 247.913L27.2949 246.913ZM28.6882 246.373L28.0544 245.6L28.0426 245.609L28.0311 245.619L28.6882 246.373ZM29.7655 244.728L28.8444 244.338L28.8396 244.35L29.7655 244.728ZM30.6603 241.635L31.6388 241.841L31.6395 241.838L30.6603 241.635ZM31.3814 238.152L30.4024 237.948L30.4022 237.949L31.3814 238.152ZM34.6786 230.812L33.9265 230.152L33.922 230.158L34.6786 230.812ZM41.1167 228.116L41.1208 229.116L41.1301 229.116L41.1167 228.116ZM46.9437 229.84L47.5218 229.024L47.5208 229.024L46.9437 229.84ZM50.8884 234.802L51.8017 234.395L51.8009 234.393L50.8884 234.802ZM50.993 249.461L50.0806 249.052L50.993 249.461ZM47.0439 254.25L46.4926 253.415L46.4862 253.419L47.0439 254.25ZM41.0753 256.004L40.0754 256.012L40.0837 257.017L41.0886 257.004L41.0753 256.004ZM41.0881 247.932C42.4478 247.812 43.5948 247.276 44.4211 246.27L42.8759 245C42.4421 245.528 41.8235 245.859 40.9121 245.94L41.0881 247.932ZM44.4163 246.276C45.2631 245.261 45.5882 243.838 45.5745 242.193L43.5746 242.21C43.5864 243.633 43.2941 244.499 42.8806 244.995L44.4163 246.276ZM45.5745 242.193C45.5658 241.145 45.4316 240.213 45.1279 239.437L43.2655 240.165C43.4494 240.635 43.5671 241.303 43.5746 242.21L45.5745 242.193ZM45.1315 239.446C44.852 238.71 44.4371 238.075 43.8375 237.638L42.6583 239.253C42.8591 239.399 43.0766 239.669 43.2619 240.156L45.1315 239.446ZM43.8375 237.638C43.2643 237.219 42.6059 237.006 41.8944 236.996L41.8666 238.996C42.178 239.001 42.4311 239.087 42.6583 239.253L43.8375 237.638ZM41.9262 236.997C41.3508 236.971 40.7955 237.076 40.2857 237.337L41.1949 239.118C41.3641 239.032 41.5689 238.983 41.8348 238.995L41.9262 236.997ZM40.25 237.356C39.7607 237.631 39.3565 238.035 39.0223 238.517L40.6657 239.657C40.8706 239.362 41.0639 239.193 41.2307 239.099L40.25 237.356ZM39.0111 238.534C38.6932 239.012 38.4254 239.59 38.1963 240.246L40.0845 240.906C40.2773 240.354 40.4786 239.939 40.6769 239.641L39.0111 238.534ZM38.1963 240.246C37.9658 240.907 37.7675 241.672 37.5976 242.535L39.5599 242.922C39.7171 242.123 39.8932 241.453 40.0845 240.906L38.1963 240.246ZM37.5992 242.527L37.0094 245.396L38.9684 245.798L39.5582 242.93L37.5992 242.527ZM37.0089 245.398C36.6277 247.275 36.1236 248.851 35.5083 250.14L37.3132 251.001C38.0159 249.529 38.564 247.789 38.9689 245.796L37.0089 245.398ZM35.5083 250.14C34.8894 251.436 34.1724 252.465 33.3701 253.25L34.7689 254.68C35.7702 253.7 36.6141 252.466 37.3132 251.001L35.5083 250.14ZM33.3656 253.255C32.571 254.042 31.6844 254.613 30.702 254.979L31.401 256.853C32.6617 256.383 33.7871 255.653 34.7734 254.675L33.3656 253.255ZM30.6937 254.983C29.6922 255.366 28.5836 255.574 27.3584 255.595L27.392 257.594C28.8257 257.57 30.1679 257.326 31.4094 256.85L30.6937 254.983ZM27.3719 255.595C25.2461 255.602 23.5091 255.088 22.106 254.103L20.9571 255.74C22.7546 257.001 24.9134 257.603 27.3785 257.595L27.3719 255.595ZM22.106 254.103C20.6884 253.108 19.5752 251.66 18.7884 249.704L16.9328 250.45C17.8401 252.706 19.1742 254.489 20.9571 255.74L22.106 254.103ZM18.7877 249.702C17.9998 247.753 17.5771 245.359 17.5533 242.494L15.5534 242.51C15.5787 245.554 16.0274 248.21 16.9334 250.451L18.7877 249.702ZM17.5533 242.494C17.529 239.556 17.9429 237.035 18.7665 234.909L16.9015 234.187C15.9672 236.598 15.5274 239.38 15.5534 242.51L17.5533 242.494ZM18.7659 234.911C19.5778 232.826 20.823 231.232 22.4963 230.09L21.3685 228.438C19.3354 229.826 17.8483 231.756 16.9022 234.185L18.7659 234.911ZM22.4905 230.094C24.1517 228.976 26.3388 228.363 29.1219 228.329L29.0976 226.329C26.0402 226.367 23.4424 227.043 21.3743 228.434L22.4905 230.094ZM28.1098 227.337L28.1844 236.337L30.1844 236.321L30.1097 227.321L28.1098 227.337ZM29.123 235.331C27.9191 235.405 26.8431 235.719 25.9424 236.321L27.0535 237.984C27.5994 237.619 28.3144 237.384 29.2458 237.327L29.123 235.331ZM25.9424 236.321C25.0437 236.921 24.3782 237.756 23.9408 238.787L25.7818 239.568C26.0801 238.865 26.5056 238.35 27.0535 237.984L25.9424 236.321ZM23.9389 238.791C23.507 239.822 23.3139 241.004 23.3247 242.31L25.3247 242.293C25.3155 241.189 25.4802 240.288 25.7837 239.564L23.9389 238.791ZM23.3247 242.31C23.3337 243.396 23.475 244.366 23.7848 245.19L25.6567 244.486C25.4552 243.95 25.3324 243.229 25.3247 242.293L23.3247 242.31ZM23.7848 245.19C24.0871 245.994 24.5312 246.679 25.1576 247.168L26.3891 245.592C26.1234 245.385 25.8657 245.041 25.6567 244.486L23.7848 245.19ZM25.1576 247.168C25.7771 247.652 26.4967 247.904 27.2832 247.913L27.3066 245.913C26.9565 245.909 26.6618 245.805 26.3891 245.592L25.1576 247.168ZM27.3244 247.913C28.0847 247.89 28.7722 247.626 29.3452 247.127L28.0311 245.619C27.8144 245.808 27.573 245.904 27.2653 245.914L27.3244 247.913ZM29.3219 247.147C29.9102 246.665 30.349 245.944 30.6913 245.106L28.8396 244.35C28.5582 245.039 28.2788 245.416 28.0544 245.6L29.3219 247.147ZM30.6865 245.117C31.045 244.27 31.3591 243.169 31.6388 241.841L29.6818 241.429C29.4148 242.696 29.1324 243.658 28.8445 244.338L30.6865 245.117ZM31.6395 241.838L32.3607 238.354L30.4022 237.949L29.6811 241.432L31.6395 241.838ZM32.3604 238.355C32.9816 235.372 34.0239 233.098 35.4351 231.465L33.922 230.158C32.2267 232.119 31.0708 234.738 30.4024 237.948L32.3604 238.355ZM35.4307 231.471C36.7775 229.933 38.633 229.126 41.1208 229.116L41.1125 227.116C38.1458 227.128 35.7092 228.118 33.9265 230.152L35.4307 231.471ZM41.1301 229.116C43.1534 229.089 44.8849 229.61 46.3666 230.657L47.5208 229.024C45.6646 227.712 43.5114 227.084 41.1033 227.116L41.1301 229.116ZM46.3656 230.656C47.8824 231.731 49.0902 233.236 49.9759 235.211L51.8009 234.393C50.7878 232.134 49.3658 230.331 47.5218 229.024L46.3656 230.656ZM49.9751 235.21C50.8592 237.191 51.3251 239.496 51.3471 242.145L53.347 242.129C53.3231 239.255 52.8166 236.67 51.8017 234.395L49.9751 235.21ZM51.3471 242.145C51.3695 244.854 50.9352 247.146 50.0806 249.052L51.9054 249.87C52.9029 247.646 53.3713 245.056 53.347 242.129L51.3471 242.145ZM50.0806 249.052C49.2236 250.962 48.0244 252.403 46.4926 253.415L47.5953 255.084C49.4766 253.84 50.9102 252.089 51.9054 249.87L50.0806 249.052ZM46.4862 253.419C44.9708 254.438 43.1756 254.976 41.062 255.004L41.0886 257.004C43.5429 256.971 45.7267 256.339 47.6017 255.08L46.4862 253.419ZM42.0753 255.995L42 246.927L40.0001 246.944L40.0754 256.012L42.0753 255.995Z" fill="#05C2DF" mask="url(#path-1-outside-1_1_5915)"/>
<mask id="path-3-outside-2_1_5915" maskUnits="userSpaceOnUse" x="182.992" y="3.50243" width="41.0976" height="253.315" fill="black">
<rect fill="white" x="182.992" y="3.50243" width="41.0976" height="253.315"/>
<path d="M185.095 16.1272L185.01 5.90023L220.013 17.1329L220.121 30.087L185.308 41.899L185.224 31.6721L210.455 23.8261L210.453 23.5534L185.095 16.1272ZM198.851 14.1039L199.011 33.3305L191.92 33.3893L191.76 14.1627L198.851 14.1039ZM185.336 45.2611L220.244 44.9715L220.37 60.1073C220.392 62.7663 220.052 65.0022 219.352 66.8149C218.651 68.6389 217.651 70.0166 216.352 70.9478C215.053 71.8905 213.517 72.3691 211.744 72.3838C210.46 72.3945 209.287 72.1201 208.226 71.5607C207.164 71.0127 206.271 70.236 205.547 69.2306C204.834 68.2251 204.336 67.0474 204.052 65.6974L203.711 65.7003C203.667 67.2007 203.297 68.5674 202.603 69.8005C201.92 71.0335 200.968 72.0187 199.747 72.7561C198.537 73.4935 197.108 73.869 195.46 73.8826C193.551 73.8985 191.848 73.4126 190.352 72.425C188.855 71.4487 187.673 70.0494 186.805 68.227C185.938 66.4046 185.494 64.2263 185.473 61.6923L185.336 45.2611ZM192.983 54.6752L193.02 59.1069C193.033 60.6978 193.338 61.8885 193.936 62.679C194.544 63.4694 195.434 63.8598 196.605 63.8501C197.423 63.8433 198.114 63.65 198.679 63.2703C199.244 62.8906 199.672 62.353 199.961 61.6574C200.251 60.9731 200.392 60.1481 200.384 59.1822L200.346 54.6142L192.983 54.6752ZM206.21 54.5655L206.242 58.4517C206.249 59.2813 206.386 60.0131 206.652 60.6473C206.919 61.2815 207.298 61.7726 207.789 62.1208C208.292 62.4803 208.902 62.6571 209.618 62.6512C210.697 62.6422 211.518 62.249 212.08 61.4716C212.653 60.6941 212.934 59.7144 212.925 58.5327L212.891 54.5101L206.21 54.5655ZM203.337 110.995C199.451 111.027 196.166 110.298 193.483 108.809C190.812 107.32 188.778 105.297 187.381 102.74C185.997 100.184 185.291 97.3258 185.265 94.1668C185.238 90.9851 185.902 88.1045 187.256 85.525C188.621 82.9567 190.627 80.9059 193.273 79.3726C195.931 77.8505 199.192 77.0734 203.055 77.0413C206.941 77.0091 210.22 77.7319 212.892 79.2098C215.575 80.6989 217.608 82.7162 218.993 85.2616C220.389 87.8183 221.101 90.6875 221.127 93.8692C221.153 97.0282 220.49 99.8975 219.136 102.477C217.794 105.056 215.794 107.113 213.136 108.646C210.489 110.18 207.223 110.962 203.337 110.995ZM203.256 101.245C205.347 101.228 207.106 100.935 208.533 100.366C209.971 99.8086 211.056 98.9871 211.785 97.9014C212.526 96.8271 212.89 95.5058 212.877 93.9377C212.864 92.3696 212.478 91.0489 211.72 89.9756C210.972 88.9135 209.874 88.1101 208.427 87.5653C206.99 87.0317 205.227 86.7736 203.136 86.791C201.045 86.8083 199.28 87.0957 197.842 87.6531C196.415 88.2218 195.331 89.0433 194.589 90.1177C193.86 91.2033 193.501 92.5302 193.514 94.0983C193.527 95.6665 193.908 96.9815 194.655 98.0436C195.414 99.1168 196.512 99.9203 197.948 100.454C199.396 100.999 201.165 101.262 203.256 101.245ZM220.999 135.893L221.077 145.37L198.714 145.556C196.055 145.578 193.749 144.96 191.795 143.704C189.853 142.458 188.344 140.71 187.269 138.457C186.204 136.204 185.66 133.584 185.635 130.595C185.61 127.584 186.111 124.943 187.138 122.674C188.176 120.403 189.655 118.63 191.577 117.352C193.509 116.086 195.805 115.442 198.464 115.42L220.827 115.235L220.906 124.712L199.361 124.89C198.282 124.899 197.318 125.146 196.469 125.63C195.632 126.115 194.979 126.779 194.509 127.624C194.038 128.48 193.808 129.448 193.817 130.527C193.826 131.618 194.072 132.582 194.557 133.419C195.041 134.256 195.705 134.91 196.55 135.38C197.406 135.85 198.374 136.081 199.454 136.072L220.999 135.893ZM213.47 148.983L221.107 148.92L221.358 179.259L213.722 179.323L213.635 168.823L186.363 169.049L186.286 159.709L213.558 159.483L213.47 148.983ZM221.639 213.047L221.717 222.524L199.354 222.709C196.695 222.731 194.389 222.114 192.435 220.857C190.493 219.612 188.984 217.863 187.909 215.611C186.845 213.358 186.3 210.737 186.275 207.749C186.25 204.738 186.751 202.097 187.778 199.827C188.816 197.557 190.295 195.783 192.217 194.506C194.15 193.24 196.445 192.596 199.104 192.574L221.467 192.388L221.546 201.865L200.001 202.044C198.922 202.053 197.958 202.3 197.109 202.784C196.273 203.268 195.619 203.933 195.149 204.778C194.678 205.634 194.448 206.602 194.457 207.681C194.466 208.772 194.713 209.736 195.197 210.573C195.681 211.41 196.346 212.063 197.19 212.534C198.047 213.004 199.014 213.234 200.094 213.225L221.639 213.047ZM211.002 245.936C212.138 245.835 213.02 245.402 213.65 244.635C214.281 243.88 214.589 242.735 214.577 241.201C214.568 240.224 214.442 239.424 214.199 238.801C213.966 238.189 213.65 237.737 213.25 237.445C212.85 237.153 212.394 237.003 211.882 236.996C211.462 236.977 211.082 237.054 210.742 237.227C210.414 237.412 210.115 237.699 209.846 238.087C209.588 238.476 209.353 238.972 209.142 239.576C208.931 240.18 208.744 240.897 208.581 241.728L207.991 244.597C207.598 246.532 207.072 248.19 206.413 249.571C205.754 250.951 204.973 252.083 204.071 252.965C203.181 253.848 202.175 254.498 201.053 254.916C199.932 255.346 198.707 255.572 197.377 255.595C195.082 255.602 193.134 255.045 191.534 253.921C189.933 252.798 188.71 251.183 187.863 249.077C187.016 246.981 186.58 244.456 186.555 241.502C186.53 238.468 186.957 235.817 187.836 233.548C188.715 231.291 190.081 229.529 191.934 228.264C193.799 227.01 196.191 226.365 199.112 226.329L199.186 235.329C198.119 235.395 197.223 235.669 196.5 236.152C195.777 236.636 195.231 237.311 194.863 238.177C194.496 239.055 194.317 240.097 194.327 241.301C194.335 242.313 194.467 243.158 194.723 243.838C194.978 244.518 195.329 245.032 195.775 245.38C196.221 245.729 196.729 245.906 197.297 245.913C197.831 245.897 198.295 245.717 198.69 245.373C199.096 245.04 199.456 244.492 199.767 243.728C200.091 242.964 200.389 241.933 200.662 240.635L201.383 237.152C202.028 234.055 203.127 231.609 204.681 229.812C206.245 228.026 208.391 227.127 211.119 227.116C213.334 227.086 215.277 227.661 216.946 228.84C218.626 230.031 219.941 231.685 220.89 233.802C221.84 235.931 222.326 238.376 222.349 241.137C222.372 243.955 221.921 246.396 220.995 248.461C220.069 250.525 218.752 252.122 217.046 253.249C215.351 254.389 213.361 254.973 211.077 255.004L211.002 245.936Z"/>
</mask>
<path d="M185.095 16.1272L184.095 16.1354L184.101 16.8781L184.814 17.0868L185.095 16.1272ZM185.01 5.90023L185.315 4.94805L183.998 4.52543L184.01 5.90853L185.01 5.90023ZM220.013 17.1329L221.013 17.1246L221.007 16.4017L220.319 16.1808L220.013 17.1329ZM220.121 30.087L220.442 31.034L221.127 30.8017L221.121 30.0787L220.121 30.087ZM185.308 41.899L184.308 41.9073L184.32 43.2904L185.63 42.846L185.308 41.899ZM185.224 31.6721L184.927 30.7172L184.217 30.9377L184.224 31.6804L185.224 31.6721ZM210.455 23.8261L210.752 24.781L211.461 24.5605L211.455 23.8178L210.455 23.8261ZM210.453 23.5534L211.452 23.5451L211.446 22.8024L210.734 22.5937L210.453 23.5534ZM198.851 14.1039L199.851 14.0956L199.843 13.0956L198.843 13.1039L198.851 14.1039ZM199.011 33.3305L199.019 34.3304L200.019 34.3221L200.01 33.3222L199.011 33.3305ZM191.92 33.3893L190.92 33.3976L190.928 34.3976L191.928 34.3893L191.92 33.3893ZM191.76 14.1627L191.752 13.1627L190.752 13.171L190.76 14.171L191.76 14.1627ZM186.095 16.1189L186.01 5.89193L184.01 5.90853L184.095 16.1354L186.095 16.1189ZM184.704 6.8524L219.708 18.0851L220.319 16.1808L185.315 4.94805L184.704 6.8524ZM219.013 17.1412L219.121 30.0953L221.121 30.0787L221.013 17.1246L219.013 17.1412ZM219.799 29.1401L184.987 40.952L185.63 42.846L220.442 31.034L219.799 29.1401ZM186.308 41.8907L186.224 31.6638L184.224 31.6804L184.308 41.9073L186.308 41.8907ZM185.52 32.627L210.752 24.781L210.158 22.8712L184.927 30.7172L185.52 32.627ZM211.455 23.8178L211.452 23.5451L209.453 23.5617L209.455 23.8344L211.455 23.8178ZM210.734 22.5937L185.376 15.1675L184.814 17.0868L210.171 24.5131L210.734 22.5937ZM197.851 14.1122L198.011 33.3388L200.01 33.3222L199.851 14.0956L197.851 14.1122ZM199.002 32.3305L191.912 32.3893L191.928 34.3893L199.019 34.3304L199.002 32.3305ZM192.92 33.381L192.76 14.1544L190.76 14.171L190.92 33.3976L192.92 33.381ZM191.769 15.1627L198.859 15.1038L198.843 13.1039L191.752 13.1627L191.769 15.1627ZM185.336 45.2611L185.328 44.2611L184.328 44.2694L184.336 45.2694L185.336 45.2611ZM220.244 44.9715L221.244 44.9632L221.236 43.9632L220.236 43.9715L220.244 44.9715ZM219.352 66.8149L218.419 66.4542L218.418 66.4562L219.352 66.8149ZM216.352 70.9478L215.769 70.1351L215.764 70.1385L216.352 70.9478ZM208.226 71.5607L208.692 70.676L208.685 70.6722L208.226 71.5607ZM205.547 69.2306L204.731 69.809L204.736 69.8151L205.547 69.2306ZM204.052 65.6974L205.031 65.4916L204.862 64.6907L204.044 64.6975L204.052 65.6974ZM203.711 65.7003L203.703 64.7003L202.74 64.7083L202.711 65.6707L203.711 65.7003ZM202.603 69.8005L201.732 69.3098L201.728 69.316L202.603 69.8005ZM199.747 72.7561L199.23 71.9001L199.226 71.9022L199.747 72.7561ZM190.352 72.425L190.902 71.5903L190.898 71.5874L190.352 72.425ZM186.805 68.227L187.708 67.7972L186.805 68.227ZM192.983 54.6752L192.975 53.6753L191.975 53.6836L191.983 54.6835L192.983 54.6752ZM193.936 62.679L193.138 63.282L193.143 63.2892L193.936 62.679ZM199.961 61.6574L199.041 61.2674L199.038 61.2729L199.961 61.6574ZM200.346 54.6142L201.346 54.6059L201.338 53.6059L200.338 53.6142L200.346 54.6142ZM206.21 54.5655L206.201 53.5655L205.201 53.5738L205.21 54.5738L206.21 54.5655ZM206.652 60.6473L205.73 61.0349L205.73 61.0349L206.652 60.6473ZM207.789 62.1208L208.371 61.3073L208.367 61.3048L207.789 62.1208ZM212.08 61.4716L211.275 60.8782L211.269 60.8859L212.08 61.4716ZM212.891 54.5101L213.891 54.5018L213.883 53.5018L212.883 53.5101L212.891 54.5101ZM185.345 46.2611L220.252 45.9714L220.236 43.9715L185.328 44.2611L185.345 46.2611ZM219.244 44.9798L219.37 60.1156L221.37 60.099L221.244 44.9632L219.244 44.9798ZM219.37 60.1156C219.391 62.6919 219.061 64.7938 218.419 66.4542L220.284 67.1755C221.044 65.2105 221.392 62.8407 221.37 60.099L219.37 60.1156ZM218.418 66.4562C217.772 68.1388 216.877 69.3408 215.769 70.1351L216.934 71.7606C218.424 70.6924 219.53 69.1391 220.285 67.1735L218.418 66.4562ZM215.764 70.1385C214.651 70.9461 213.323 71.3707 211.736 71.3839L211.752 73.3838C213.71 73.3676 215.454 72.8348 216.939 71.7572L215.764 70.1385ZM211.736 71.3839C210.605 71.3933 209.597 71.153 208.692 70.6761L207.76 72.4454C208.977 73.0872 210.315 73.3957 211.752 73.3838L211.736 71.3839ZM208.685 70.6722C207.768 70.1991 206.994 69.5287 206.359 68.6461L204.736 69.8151C205.549 70.9433 206.56 71.8263 207.767 72.4493L208.685 70.6722ZM206.363 68.6522C205.738 67.7711 205.29 66.7235 205.031 65.4916L203.073 65.9033C203.382 67.3713 203.93 68.6792 204.731 69.809L206.363 68.6522ZM204.044 64.6975L203.703 64.7003L203.719 66.7002L204.06 66.6974L204.044 64.6975ZM202.711 65.6707C202.672 67.0194 202.342 68.2264 201.732 69.3099L203.474 70.2912C204.253 68.9085 204.662 67.3819 204.711 65.7298L202.711 65.6707ZM201.728 69.316C201.131 70.394 200.303 71.2519 199.23 71.9001L200.264 73.6122C201.633 72.7855 202.709 71.673 203.478 70.2851L201.728 69.316ZM199.226 71.9022C198.194 72.531 196.949 72.8702 195.452 72.8827L195.469 74.8826C197.267 74.8677 198.879 74.4559 200.267 73.61L199.226 71.9022ZM195.452 72.8827C193.728 72.897 192.222 72.4613 190.902 71.5903L189.801 73.2597C191.474 74.3639 193.375 74.9 195.469 74.8826L195.452 72.8827ZM190.898 71.5874C189.574 70.7242 188.507 69.4755 187.708 67.7972L185.902 68.6567C186.838 70.6233 188.135 72.1732 189.805 73.2626L190.898 71.5874ZM187.708 67.7972C186.917 66.1357 186.493 64.1084 186.473 61.684L184.473 61.7006C184.495 64.3443 184.958 66.6734 185.902 68.6567L187.708 67.7972ZM186.473 61.684L186.336 45.2528L184.336 45.2694L184.473 61.7006L186.473 61.684ZM191.983 54.6835L192.02 59.1152L194.02 59.0986L193.983 54.667L191.983 54.6835ZM192.02 59.1152C192.034 60.8007 192.353 62.2442 193.138 63.2819L194.733 62.076C194.323 61.5328 194.032 60.5948 194.02 59.0986L192.02 59.1152ZM193.143 63.2892C193.978 64.3726 195.191 64.8618 196.613 64.85L196.596 62.8501C195.678 62.8577 195.111 62.5663 194.728 62.0688L193.143 63.2892ZM196.613 64.85C197.587 64.842 198.479 64.6097 199.237 64.1003L198.122 62.4403C197.749 62.6904 197.259 62.8446 196.596 62.8501L196.613 64.85ZM199.237 64.1003C199.982 63.5996 200.528 62.8985 200.885 62.0418L199.038 61.2729C198.816 61.8075 198.507 62.1816 198.122 62.4403L199.237 64.1003ZM200.882 62.0473C201.239 61.2055 201.393 60.2373 201.384 59.1739L199.384 59.1905C199.391 60.0588 199.264 60.7408 199.041 61.2674L200.882 62.0473ZM201.384 59.1739L201.346 54.6059L199.346 54.6225L199.384 59.1905L201.384 59.1739ZM200.338 53.6142L192.975 53.6753L192.991 55.6752L200.355 55.6141L200.338 53.6142ZM205.21 54.5738L205.242 58.46L207.242 58.4434L207.21 54.5572L205.21 54.5738ZM205.242 58.46C205.25 59.3937 205.404 60.2586 205.73 61.0349L207.574 60.2597C207.367 59.7676 207.248 59.1688 207.242 58.4434L205.242 58.46ZM205.73 61.0349C206.059 61.8161 206.547 62.466 207.211 62.9368L208.367 61.3048C208.049 61.0792 207.779 60.7468 207.574 60.2597L205.73 61.0349ZM207.208 62.9344C207.909 63.4355 208.733 63.6585 209.626 63.6511L209.609 61.6512C209.07 61.6557 208.676 61.5252 208.371 61.3073L207.208 62.9344ZM209.626 63.6511C210.978 63.6399 212.117 63.1276 212.89 62.0573L211.269 60.8859C210.919 61.3704 210.417 61.6445 209.609 61.6512L209.626 63.6511ZM212.885 62.0649C213.613 61.0773 213.936 59.8731 213.925 58.5244L211.925 58.541C211.933 59.5558 211.693 60.3109 211.275 60.8783L212.885 62.0649ZM213.925 58.5244L213.891 54.5018L211.891 54.5184L211.925 58.541L213.925 58.5244ZM212.883 53.5101L206.201 53.5655L206.218 55.5655L212.9 55.51L212.883 53.5101ZM193.483 108.809L192.996 109.683L192.998 109.684L193.483 108.809ZM187.381 102.74L186.502 103.217L186.504 103.22L187.381 102.74ZM187.256 85.525L186.373 85.0556L186.37 85.0603L187.256 85.525ZM193.273 79.3726L192.776 78.5048L192.772 78.5073L193.273 79.3726ZM212.892 79.2098L213.377 78.3354L213.376 78.3348L212.892 79.2098ZM218.993 85.2617L218.115 85.7395L218.116 85.7409L218.993 85.2617ZM219.136 102.477L218.251 102.012L218.249 102.015L219.136 102.477ZM213.136 108.646L212.636 107.78L212.635 107.781L213.136 108.646ZM208.533 100.366L208.172 99.4335L208.163 99.437L208.533 100.366ZM211.785 97.9014L210.962 97.3336L210.955 97.3436L211.785 97.9014ZM211.72 89.9756L210.902 90.5511L210.903 90.5529L211.72 89.9756ZM208.427 87.5653L208.779 86.6294L208.775 86.6279L208.427 87.5653ZM197.842 87.6531L197.481 86.7206L197.472 86.7242L197.842 87.6531ZM194.589 90.1177L193.766 89.5498L193.759 89.5599L194.589 90.1177ZM194.655 98.0436L193.837 98.6191L193.839 98.6209L194.655 98.0436ZM197.948 100.454L198.3 99.5179L198.296 99.5164L197.948 100.454ZM203.329 109.995C199.57 110.026 196.465 109.321 193.968 107.935L192.998 109.684C195.867 111.276 199.331 112.028 203.345 111.995L203.329 109.995ZM193.97 107.936C191.455 106.534 189.56 104.644 188.259 102.261L186.504 103.22C187.995 105.95 190.168 108.106 192.996 109.683L193.97 107.936ZM188.261 102.264C186.96 99.8634 186.29 97.1684 186.265 94.1585L184.265 94.1751C184.292 97.4831 185.033 100.504 186.502 103.217L188.261 102.264ZM186.265 94.1585C186.24 91.1259 186.871 88.4101 188.141 85.9896L186.37 85.0603C184.933 87.7988 184.237 90.8442 184.265 94.1751L186.265 94.1585ZM188.139 85.9943C189.411 83.5998 191.281 81.6825 193.774 80.2378L192.772 78.5073C189.972 80.1293 187.83 82.3136 186.373 85.0556L188.139 85.9943ZM193.77 80.2403C196.245 78.823 199.327 78.0723 203.063 78.0413L203.047 76.0414C199.056 76.0745 195.617 76.8779 192.776 78.5048L193.77 80.2403ZM203.063 78.0413C206.824 78.0101 209.922 78.71 212.408 80.0848L213.376 78.3348C210.518 76.7538 207.059 76.0081 203.047 76.0414L203.063 78.0413ZM212.406 80.0841C214.933 81.4868 216.826 83.3709 218.115 85.7395L219.872 84.7838C218.391 82.0615 216.216 79.9111 213.377 78.3354L212.406 80.0841ZM218.116 85.7409C219.426 88.1401 220.102 90.845 220.127 93.8775L222.127 93.8609C222.099 90.5301 221.353 87.4966 219.871 84.7823L218.116 85.7409ZM220.127 93.8775C220.152 96.8861 219.521 99.5907 218.251 102.012L220.021 102.942C221.458 100.204 222.155 97.1704 222.127 93.8609L220.127 93.8775ZM218.249 102.015C217 104.416 215.138 106.336 212.636 107.78L213.636 109.512C216.449 107.889 218.588 105.697 220.023 102.939L218.249 102.015ZM212.635 107.781C210.173 109.207 207.088 109.964 203.329 109.995L203.345 111.995C207.359 111.961 210.805 111.152 213.637 109.512L212.635 107.781ZM203.264 102.245C205.437 102.227 207.327 101.923 208.903 101.295L208.163 99.437C206.884 99.9465 205.256 100.228 203.248 100.245L203.264 102.245ZM208.894 101.298C210.489 100.681 211.752 99.7436 212.615 98.4592L210.955 97.3436C210.359 98.2305 209.454 98.9365 208.172 99.4335L208.894 101.298ZM212.608 98.4693C213.488 97.1938 213.892 95.6609 213.877 93.9294L211.877 93.946C211.889 95.3507 211.565 96.4603 210.962 97.3336L212.608 98.4693ZM213.877 93.9294C213.863 92.1975 213.434 90.6681 212.536 89.3982L210.903 90.5529C211.523 91.4296 211.866 92.5416 211.877 93.946L213.877 93.9294ZM212.537 89.4C211.654 88.1446 210.378 87.2311 208.779 86.6294L208.074 88.5012C209.371 88.9891 210.29 89.6825 210.902 90.5511L212.537 89.4ZM208.775 86.6279C207.191 86.0396 205.299 85.773 203.128 85.791L203.144 87.791C205.155 87.7743 206.789 88.0239 208.078 88.5027L208.775 86.6279ZM203.128 85.791C200.956 85.809 199.064 86.1072 197.481 86.7207L198.203 88.5856C199.497 88.0843 201.134 87.8076 203.144 87.791L203.128 85.791ZM197.472 86.7242C195.894 87.3527 194.638 88.286 193.766 89.5499L195.413 90.6855C196.023 89.8007 196.935 89.0909 198.212 88.5821L197.472 86.7242ZM193.759 89.5599C192.897 90.8437 192.5 92.3778 192.515 94.1066L194.514 94.09C194.503 92.6826 194.823 91.5629 195.419 90.6755L193.759 89.5599ZM192.515 94.1066C192.529 95.8351 192.951 97.359 193.837 98.6191L195.473 97.468C194.865 96.6041 194.526 95.4978 194.514 94.09L192.515 94.1066ZM193.839 98.6209C194.732 99.8845 196.007 100.799 197.6 101.391L198.296 99.5164C197.017 99.0411 196.096 98.3492 195.472 97.4662L193.839 98.6209ZM197.596 101.39C199.191 101.99 201.091 102.263 203.264 102.245L203.248 100.245C201.239 100.262 199.6 100.007 198.3 99.5179L197.596 101.39ZM220.999 135.893L221.998 135.885L221.99 134.885L220.99 134.893L220.999 135.893ZM221.077 145.37L221.085 146.37L222.085 146.362L222.077 145.362L221.077 145.37ZM191.795 143.704L192.336 142.863L192.335 142.862L191.795 143.704ZM187.269 138.457L186.364 138.884L186.366 138.888L187.269 138.457ZM187.138 122.674L186.228 122.258L186.227 122.261L187.138 122.674ZM191.577 117.352L191.029 116.516L191.023 116.52L191.577 117.352ZM220.827 115.235L221.827 115.226L221.819 114.226L220.819 114.235L220.827 115.235ZM220.906 124.712L220.914 125.712L221.914 125.703L221.906 124.703L220.906 124.712ZM196.469 125.63L195.974 124.762L195.969 124.765L196.469 125.63ZM194.509 127.624L193.635 127.138L193.632 127.143L194.509 127.624ZM194.557 133.419L193.691 133.92L194.557 133.419ZM196.55 135.38L196.064 136.254L196.069 136.256L196.55 135.38ZM219.999 135.901L220.077 145.378L222.077 145.362L221.998 135.885L219.999 135.901ZM221.069 144.37L198.706 144.556L198.723 146.556L221.085 146.37L221.069 144.37ZM198.706 144.556C196.213 144.576 194.103 143.999 192.336 142.863L191.254 144.545C193.394 145.921 195.898 146.579 198.723 146.556L198.706 144.556ZM192.335 142.862C190.562 141.725 189.173 140.125 188.171 138.026L186.366 138.888C187.515 141.294 189.144 143.192 191.256 144.546L192.335 142.862ZM188.173 138.03C187.182 135.932 186.659 133.459 186.635 130.587L184.635 130.604C184.661 133.709 185.227 136.477 186.364 138.884L188.173 138.03ZM186.635 130.587C186.611 127.691 187.093 125.199 188.049 123.086L186.227 122.261C185.129 124.688 184.609 127.477 184.635 130.604L186.635 130.587ZM188.047 123.089C189.014 120.974 190.377 119.351 192.13 118.185L191.023 116.52C188.934 117.909 187.337 119.833 186.228 122.258L188.047 123.089ZM192.125 118.189C193.874 117.043 195.976 116.441 198.473 116.42L198.456 114.42C195.635 114.444 193.145 115.13 191.029 116.516L192.125 118.189ZM198.473 116.42L220.835 116.235L220.819 114.235L198.456 114.42L198.473 116.42ZM219.827 115.243L219.906 124.72L221.906 124.703L221.827 115.226L219.827 115.243ZM220.897 123.712L199.353 123.89L199.369 125.89L220.914 125.712L220.897 123.712ZM199.353 123.89C198.121 123.901 196.986 124.184 195.974 124.762L196.965 126.499C197.65 126.108 198.443 125.898 199.369 125.89L199.353 123.89ZM195.969 124.765C194.975 125.339 194.193 126.135 193.635 127.138L195.382 128.11C195.765 127.423 196.289 126.89 196.97 126.496L195.969 124.765ZM193.632 127.143C193.071 128.164 192.807 129.304 192.817 130.536L194.817 130.519C194.809 129.592 195.006 128.796 195.385 128.105L193.632 127.143ZM192.817 130.536C192.827 131.777 193.11 132.915 193.691 133.92L195.422 132.918C195.035 132.25 194.824 131.46 194.817 130.519L192.817 130.536ZM193.691 133.92C194.266 134.913 195.061 135.696 196.064 136.254L197.037 134.506C196.35 134.124 195.816 133.599 195.422 132.918L193.691 133.92ZM196.069 136.256C197.09 136.817 198.23 137.082 199.462 137.072L199.446 135.072C198.519 135.08 197.722 134.883 197.032 134.503L196.069 136.256ZM199.462 137.072L221.007 136.893L220.99 134.893L199.446 135.072L199.462 137.072ZM213.47 148.983L213.462 147.983L212.462 147.991L212.471 148.991L213.47 148.983ZM221.107 148.92L222.107 148.911L222.098 147.911L221.098 147.92L221.107 148.92ZM221.358 179.259L221.367 180.259L222.367 180.251L222.358 179.251L221.358 179.259ZM213.722 179.323L212.722 179.331L212.731 180.331L213.731 180.323L213.722 179.323ZM213.635 168.823L214.635 168.815L214.627 167.815L213.627 167.823L213.635 168.823ZM186.363 169.049L185.363 169.058L185.372 170.058L186.372 170.049L186.363 169.049ZM186.286 159.709L186.278 158.709L185.278 158.717L185.286 159.717L186.286 159.709ZM213.558 159.483L213.566 160.483L214.566 160.474L214.558 159.474L213.558 159.483ZM213.479 149.983L221.115 149.92L221.098 147.92L213.462 147.983L213.479 149.983ZM220.107 148.928L220.358 179.268L222.358 179.251L222.107 148.911L220.107 148.928ZM221.35 178.26L213.714 178.323L213.731 180.323L221.367 180.259L221.35 178.26ZM214.722 179.315L214.635 168.815L212.635 168.831L212.722 179.331L214.722 179.315ZM213.627 167.823L186.355 168.049L186.372 170.049L213.643 169.823L213.627 167.823ZM187.363 169.041L187.286 159.701L185.286 159.717L185.363 169.058L187.363 169.041ZM186.294 160.709L213.566 160.483L213.549 158.483L186.278 158.709L186.294 160.709ZM214.558 159.474L214.47 148.975L212.471 148.991L212.558 159.491L214.558 159.474ZM221.639 213.047L222.639 213.038L222.63 212.038L221.63 212.047L221.639 213.047ZM221.717 222.524L221.726 223.524L222.726 223.515L222.717 222.515L221.717 222.524ZM192.435 220.857L192.976 220.016L192.975 220.016L192.435 220.857ZM187.909 215.611L187.005 216.038L187.006 216.042L187.909 215.611ZM187.778 199.827L186.868 199.411L186.867 199.415L187.778 199.827ZM192.217 194.506L191.669 193.67L191.663 193.673L192.217 194.506ZM221.467 192.388L222.467 192.38L222.459 191.38L221.459 191.388L221.467 192.388ZM221.546 201.865L221.554 202.865L222.554 202.857L222.546 201.857L221.546 201.865ZM197.109 202.784L196.614 201.915L196.609 201.918L197.109 202.784ZM195.149 204.778L194.275 204.291L194.272 204.296L195.149 204.778ZM195.197 210.573L194.331 211.074L195.197 210.573ZM197.19 212.534L196.704 213.407L196.709 213.41L197.19 212.534ZM220.639 213.055L220.717 222.532L222.717 222.515L222.639 213.038L220.639 213.055ZM221.709 221.524L199.346 221.709L199.363 223.709L221.726 223.524L221.709 221.524ZM199.346 221.709C196.853 221.73 194.744 221.153 192.976 220.016L191.894 221.698C194.035 223.075 196.538 223.733 199.363 223.709L199.346 221.709ZM192.975 220.016C191.203 218.879 189.813 217.279 188.811 215.18L187.006 216.042C188.155 218.448 189.784 220.345 191.896 221.699L192.975 220.016ZM188.813 215.184C187.822 213.085 187.299 210.613 187.275 207.741L185.275 207.757C185.301 210.862 185.867 213.631 187.005 216.038L188.813 215.184ZM187.275 207.741C187.251 204.845 187.733 202.353 188.689 200.239L186.867 199.415C185.769 201.842 185.249 204.631 185.275 207.757L187.275 207.741ZM188.687 200.243C189.654 198.128 191.017 196.505 192.77 195.339L191.663 193.673C189.574 195.062 187.977 196.986 186.868 199.411L188.687 200.243ZM192.765 195.343C194.514 194.197 196.616 193.594 199.113 193.574L199.096 191.574C196.275 191.597 193.785 192.283 191.669 193.67L192.765 195.343ZM199.113 193.574L221.476 193.388L221.459 191.388L199.096 191.574L199.113 193.574ZM220.467 192.397L220.546 201.874L222.546 201.857L222.467 192.38L220.467 192.397ZM221.538 200.865L199.993 201.044L200.009 203.044L221.554 202.865L221.538 200.865ZM199.993 201.044C198.761 201.054 197.626 201.338 196.614 201.915L197.605 203.652C198.29 203.262 199.083 203.052 200.009 203.044L199.993 201.044ZM196.609 201.918C195.615 202.493 194.833 203.289 194.275 204.291L196.022 205.264C196.405 204.577 196.93 204.043 197.61 203.649L196.609 201.918ZM194.272 204.296C193.711 205.318 193.447 206.457 193.457 207.689L195.457 207.673C195.449 206.746 195.646 205.95 196.025 205.259L194.272 204.296ZM193.457 207.689C193.467 208.931 193.75 210.068 194.331 211.074L196.062 210.072C195.675 209.403 195.465 208.613 195.457 207.673L193.457 207.689ZM194.331 211.074C194.906 212.067 195.701 212.849 196.704 213.407L197.677 211.66C196.99 211.277 196.456 210.753 196.062 210.072L194.331 211.074ZM196.709 213.41C197.731 213.971 198.87 214.236 200.102 214.225L200.086 212.225C199.159 212.233 198.363 212.036 197.672 211.657L196.709 213.41ZM200.102 214.225L221.647 214.047L221.63 212.047L200.086 212.225L200.102 214.225ZM211.002 245.936L210.914 244.94L209.994 245.021L210.002 245.944L211.002 245.936ZM213.65 244.635L212.883 243.995L212.878 244L213.65 244.635ZM214.199 238.801L213.264 239.156L213.267 239.165L214.199 238.801ZM213.25 237.445L213.84 236.638L213.84 236.638L213.25 237.445ZM211.882 236.996L211.837 237.995L211.853 237.996L211.869 237.996L211.882 236.996ZM210.742 237.227L210.288 236.337L210.27 236.346L210.252 236.356L210.742 237.227ZM209.846 238.087L209.024 237.517L209.019 237.525L209.013 237.534L209.846 238.087ZM208.581 241.728L209.56 241.93L209.562 241.922L208.581 241.728ZM207.991 244.597L207.011 244.396L207.011 244.398L207.991 244.597ZM204.071 252.965L203.372 252.25L203.368 252.255L204.071 252.965ZM201.053 254.916L200.704 253.979L200.696 253.983L201.053 254.916ZM197.377 255.595L197.381 256.595L197.394 256.594L197.377 255.595ZM191.534 253.921L190.959 254.74L191.534 253.921ZM187.863 249.077L188.79 248.704L188.79 248.702L187.863 249.077ZM187.836 233.548L186.904 233.185L186.903 233.187L187.836 233.548ZM191.934 228.264L191.376 227.434L191.37 227.438L191.934 228.264ZM199.112 226.329L200.112 226.321L200.103 225.317L199.1 225.329L199.112 226.329ZM199.186 235.329L199.248 236.327L200.194 236.269L200.186 235.321L199.186 235.329ZM196.5 236.152L195.944 235.321L195.944 235.321L196.5 236.152ZM194.863 238.177L193.943 237.787L193.941 237.791L194.863 238.177ZM194.723 243.838L193.787 244.19L194.723 243.838ZM195.775 245.38L195.16 246.168L195.775 245.38ZM197.297 245.913L197.285 246.913L197.306 246.913L197.326 246.913L197.297 245.913ZM198.69 245.373L198.056 244.6L198.045 244.609L198.033 244.619L198.69 245.373ZM199.767 243.728L198.846 243.338L198.842 243.35L199.767 243.728ZM200.662 240.635L201.641 240.841L201.641 240.838L200.662 240.635ZM201.383 237.152L200.404 236.948L200.404 236.949L201.383 237.152ZM204.681 229.812L203.928 229.152L203.924 229.158L204.681 229.812ZM211.119 227.116L211.123 228.116L211.132 228.116L211.119 227.116ZM216.946 228.84L217.524 228.024L217.523 228.024L216.946 228.84ZM220.89 233.802L221.804 233.395L221.803 233.393L220.89 233.802ZM220.995 248.461L220.083 248.052L220.995 248.461ZM217.046 253.25L216.495 252.415L216.488 252.419L217.046 253.25ZM211.077 255.004L210.077 255.012L210.086 256.017L211.091 256.004L211.077 255.004ZM211.09 246.932C212.45 246.812 213.597 246.276 214.423 245.27L212.878 244C212.444 244.528 211.825 244.859 210.914 244.94L211.09 246.932ZM214.418 245.276C215.265 244.261 215.59 242.838 215.576 241.193L213.577 241.21C213.588 242.633 213.296 243.499 212.883 243.995L214.418 245.276ZM215.576 241.193C215.568 240.145 215.434 239.213 215.13 238.437L213.267 239.165C213.451 239.635 213.569 240.303 213.577 241.21L215.576 241.193ZM215.133 238.446C214.854 237.71 214.439 237.075 213.84 236.638L212.66 238.253C212.861 238.399 213.079 238.669 213.264 239.156L215.133 238.446ZM213.84 236.638C213.266 236.219 212.608 236.006 211.896 235.996L211.869 237.996C212.18 238.001 212.433 238.087 212.66 238.253L213.84 236.638ZM211.928 235.997C211.353 235.971 210.797 236.076 210.288 236.337L211.197 238.118C211.366 238.032 211.571 237.983 211.837 237.995L211.928 235.997ZM210.252 236.356C209.763 236.631 209.358 237.035 209.024 237.517L210.668 238.657C210.873 238.362 211.066 238.193 211.233 238.099L210.252 236.356ZM209.013 237.534C208.695 238.012 208.427 238.59 208.198 239.246L210.086 239.906C210.279 239.354 210.481 238.939 210.679 238.641L209.013 237.534ZM208.198 239.246C207.968 239.907 207.769 240.672 207.6 241.535L209.562 241.922C209.719 241.123 209.895 240.453 210.086 239.906L208.198 239.246ZM207.601 241.527L207.011 244.396L208.97 244.798L209.56 241.93L207.601 241.527ZM207.011 244.398C206.63 246.275 206.126 247.851 205.51 249.14L207.315 250.001C208.018 248.529 208.566 246.789 208.971 244.796L207.011 244.398ZM205.51 249.14C204.891 250.436 204.174 251.465 203.372 252.25L204.771 253.68C205.772 252.7 206.616 251.466 207.315 250.001L205.51 249.14ZM203.368 252.255C202.573 253.042 201.686 253.613 200.704 253.979L201.403 255.853C202.664 255.383 203.789 254.653 204.775 253.675L203.368 252.255ZM200.696 253.983C199.694 254.366 198.586 254.574 197.36 254.595L197.394 256.594C198.828 256.57 200.17 256.326 201.411 255.85L200.696 253.983ZM197.374 254.595C195.248 254.602 193.511 254.088 192.108 253.103L190.959 254.74C192.757 256.001 194.915 256.603 197.381 256.595L197.374 254.595ZM192.108 253.103C190.69 252.108 189.577 250.66 188.79 248.704L186.935 249.45C187.842 251.706 189.176 253.489 190.959 254.74L192.108 253.103ZM188.79 248.702C188.002 246.753 187.579 244.359 187.555 241.494L185.555 241.51C185.581 244.554 186.029 247.21 186.935 249.451L188.79 248.702ZM187.555 241.494C187.531 238.556 187.945 236.035 188.768 233.909L186.903 233.187C185.969 235.598 185.529 238.38 185.555 241.51L187.555 241.494ZM188.768 233.911C189.58 231.826 190.825 230.232 192.498 229.09L191.37 227.438C189.337 228.826 187.85 230.756 186.904 233.185L188.768 233.911ZM192.492 229.094C194.154 227.976 196.341 227.363 199.124 227.329L199.1 225.329C196.042 225.367 193.444 226.043 191.376 227.434L192.492 229.094ZM198.112 226.337L198.186 235.337L200.186 235.321L200.112 226.321L198.112 226.337ZM199.125 234.331C197.921 234.405 196.845 234.719 195.944 235.321L197.055 236.984C197.601 236.619 198.316 236.384 199.248 236.327L199.125 234.331ZM195.944 235.321C195.046 235.921 194.38 236.756 193.943 237.787L195.784 238.568C196.082 237.865 196.508 237.35 197.055 236.984L195.944 235.321ZM193.941 237.791C193.509 238.822 193.316 240.004 193.327 241.31L195.327 241.293C195.317 240.189 195.482 239.288 195.786 238.564L193.941 237.791ZM193.327 241.31C193.336 242.396 193.477 243.366 193.787 244.19L195.659 243.486C195.457 242.95 195.334 242.229 195.327 241.293L193.327 241.31ZM193.787 244.19C194.089 244.994 194.533 245.679 195.16 246.168L196.391 244.592C196.125 244.385 195.868 244.041 195.659 243.486L193.787 244.19ZM195.16 246.168C195.779 246.652 196.499 246.904 197.285 246.913L197.309 244.913C196.958 244.909 196.664 244.805 196.391 244.592L195.16 246.168ZM197.326 246.913C198.087 246.89 198.774 246.626 199.347 246.127L198.033 244.619C197.816 244.808 197.575 244.904 197.267 244.914L197.326 246.913ZM199.324 246.147C199.912 245.665 200.351 244.944 200.693 244.106L198.842 243.35C198.56 244.039 198.281 244.416 198.056 244.6L199.324 246.147ZM200.688 244.117C201.047 243.27 201.361 242.169 201.641 240.841L199.684 240.429C199.417 241.696 199.134 242.658 198.846 243.338L200.688 244.117ZM201.641 240.838L202.363 237.354L200.404 236.949L199.683 240.432L201.641 240.838ZM202.362 237.355C202.984 234.372 204.026 232.098 205.437 230.465L203.924 229.158C202.229 231.119 201.073 233.738 200.404 236.948L202.362 237.355ZM205.433 230.471C206.78 228.933 208.635 228.126 211.123 228.116L211.115 226.116C208.148 226.128 205.711 227.118 203.928 229.152L205.433 230.471ZM211.132 228.116C213.155 228.089 214.887 228.61 216.369 229.657L217.523 228.024C215.667 226.712 213.513 226.084 211.105 226.116L211.132 228.116ZM216.368 229.656C217.884 230.731 219.092 232.236 219.978 234.211L221.803 233.393C220.79 231.134 219.368 229.331 217.524 228.024L216.368 229.656ZM219.977 234.21C220.861 236.191 221.327 238.496 221.349 241.145L223.349 241.129C223.325 238.255 222.819 235.67 221.804 233.395L219.977 234.21ZM221.349 241.145C221.371 243.854 220.937 246.146 220.083 248.052L221.907 248.87C222.905 246.646 223.373 244.056 223.349 241.129L221.349 241.145ZM220.083 248.052C219.226 249.962 218.026 251.403 216.495 252.415L217.597 254.084C219.479 252.84 220.912 251.089 221.907 248.87L220.083 248.052ZM216.488 252.419C214.973 253.438 213.178 253.976 211.064 254.004L211.091 256.004C213.545 255.971 215.729 255.339 217.604 254.08L216.488 252.419ZM212.077 254.995L212.002 245.927L210.002 245.944L210.077 255.012L212.077 254.995Z" fill="#05C2DF" fill-opacity="0.2" mask="url(#path-3-outside-2_1_5915)"/>
<mask id="path-5-outside-3_1_5915" maskUnits="userSpaceOnUse" x="96.907" y="2.51085" width="41.0976" height="253.315" fill="black">
<rect fill="white" x="96.907" y="2.51085" width="41.0976" height="253.315"/>
<path d="M135.902 243.201L135.987 253.428L100.984 242.195L100.876 229.241L135.689 217.429L135.774 227.656L110.542 235.502L110.545 235.775L135.902 243.201ZM122.146 245.224L121.987 225.998L129.077 225.939L129.237 245.165L122.146 245.224ZM135.661 214.067L100.753 214.357L100.627 199.221C100.605 196.562 100.945 194.326 101.646 192.513C102.346 190.689 103.346 189.312 104.645 188.38C105.945 187.438 107.48 186.959 109.253 186.944C110.537 186.934 111.71 187.208 112.771 187.767C113.833 188.315 114.726 189.092 115.45 190.098C116.163 191.103 116.661 192.281 116.945 193.631L117.286 193.628C117.33 192.127 117.7 190.761 118.394 189.528C119.077 188.295 120.029 187.309 121.25 186.572C122.46 185.835 123.889 185.459 125.537 185.445C127.446 185.43 129.149 185.916 130.645 186.903C132.142 187.879 133.324 189.279 134.192 191.101C135.059 192.924 135.503 195.102 135.524 197.636L135.661 214.067ZM128.014 204.653L127.977 200.221C127.964 198.63 127.659 197.44 127.061 196.649C126.453 195.859 125.563 195.468 124.393 195.478C123.574 195.485 122.883 195.678 122.318 196.058C121.753 196.437 121.325 196.975 121.036 197.671C120.746 198.355 120.605 199.18 120.613 200.146L120.651 204.714L128.014 204.653ZM114.787 204.763L114.755 200.876C114.748 200.047 114.612 199.315 114.345 198.681C114.078 198.047 113.699 197.555 113.208 197.207C112.705 196.848 112.095 196.671 111.379 196.677C110.3 196.686 109.479 197.079 108.917 197.857C108.344 198.634 108.063 199.614 108.072 200.795L108.106 204.818L114.787 204.763ZM117.66 148.333C121.547 148.301 124.831 149.03 127.514 150.519C130.186 152.008 132.219 154.031 133.616 156.588C135.001 159.144 135.706 162.002 135.732 165.161C135.759 168.343 135.095 171.224 133.741 173.803C132.376 176.371 130.371 178.422 127.724 179.956C125.066 181.478 121.805 182.255 117.942 182.287C114.056 182.319 110.777 181.596 108.105 180.118C105.423 178.629 103.389 176.612 102.004 174.066C100.608 171.51 99.8963 168.641 99.8699 165.459C99.8437 162.3 100.507 159.431 101.861 156.851C103.203 154.272 105.203 152.215 107.861 150.682C110.508 149.148 113.774 148.366 117.66 148.333ZM117.741 158.083C115.65 158.1 113.891 158.393 112.464 158.962C111.026 159.52 109.941 160.341 109.212 161.427C108.471 162.501 108.107 163.822 108.12 165.39C108.133 166.959 108.519 168.279 109.278 169.353C110.025 170.415 111.123 171.218 112.57 171.763C114.007 172.296 115.77 172.554 117.861 172.537C119.952 172.52 121.717 172.232 123.155 171.675C124.582 171.106 125.667 170.285 126.408 169.21C127.137 168.125 127.496 166.798 127.483 165.23C127.47 163.662 127.089 162.347 126.342 161.285C125.583 160.211 124.485 159.408 123.049 158.874C121.601 158.329 119.832 158.066 117.741 158.083ZM99.9986 123.435L99.9199 113.958L122.283 113.773C124.942 113.751 127.248 114.368 129.202 115.624C131.144 116.87 132.653 118.619 133.728 120.871C134.793 123.124 135.337 125.744 135.362 128.733C135.387 131.744 134.886 134.385 133.859 136.655C132.821 138.925 131.342 140.698 129.42 141.976C127.488 143.242 125.192 143.886 122.533 143.908L100.17 144.093L100.091 134.616L121.636 134.438C122.716 134.429 123.679 134.182 124.528 133.698C125.365 133.214 126.018 132.549 126.489 131.704C126.959 130.848 127.189 129.88 127.18 128.801C127.171 127.71 126.925 126.746 126.44 125.909C125.956 125.072 125.292 124.418 124.447 123.948C123.591 123.478 122.623 123.247 121.543 123.256L99.9986 123.435ZM107.527 110.345L99.8905 110.409L99.6388 80.0687L107.275 80.0053L107.362 90.5049L134.634 90.2787L134.711 99.6193L107.439 99.8455L107.527 110.345ZM99.3585 46.2815L99.2798 36.8045L121.643 36.619C124.302 36.5969 126.608 37.2142 128.562 38.4707C130.504 39.716 132.013 41.4649 133.088 43.7175C134.153 45.9701 134.697 48.5906 134.722 51.5792C134.747 54.5904 134.246 57.231 133.219 59.501C132.181 61.7711 130.702 63.5448 128.78 64.8221C126.848 66.0882 124.552 66.7323 121.893 66.7543L99.5298 66.9398L99.4512 57.4629L120.996 57.2842C122.075 57.2752 123.039 57.0286 123.888 56.5442C124.725 56.06 125.378 55.3955 125.848 54.5506C126.319 53.6944 126.549 52.7266 126.54 51.6471C126.531 50.5562 126.285 49.5923 125.8 48.7554C125.316 47.9184 124.652 47.2648 123.807 46.7946C122.951 46.3244 121.983 46.0938 120.903 46.1027L99.3585 46.2815ZM109.995 13.3924C108.859 13.4927 107.977 13.9262 107.347 14.6928C106.717 15.4481 106.408 16.5927 106.421 18.1267C106.429 19.104 106.555 19.9041 106.798 20.5271C107.031 21.1388 107.347 21.5908 107.747 21.8829C108.147 22.1751 108.603 22.3247 109.115 22.3318C109.535 22.351 109.915 22.274 110.255 22.1007C110.583 21.9162 110.882 21.6296 111.151 21.241C111.409 20.8525 111.644 20.3562 111.855 19.7522C112.066 19.1481 112.253 18.4306 112.416 17.5997L113.006 14.7311C113.399 12.7959 113.925 11.1381 114.584 9.75758C115.243 8.37707 116.024 7.24556 116.926 6.36304C117.816 5.48063 118.822 4.83021 119.944 4.4118C121.065 3.98203 122.291 3.75594 123.62 3.73355C125.915 3.72587 127.863 4.28359 129.464 5.40672C131.064 6.52985 132.288 8.14475 133.135 10.2514C133.982 12.3468 134.417 14.8716 134.442 17.8261C134.467 20.8601 134.04 23.5114 133.161 25.7802C132.282 28.0375 130.916 29.7989 129.063 31.0643C127.198 32.3185 124.806 32.9634 121.885 32.999L121.811 23.9993C122.878 23.9336 123.774 23.6591 124.497 23.1758C125.22 22.6925 125.766 22.0175 126.134 21.1508C126.502 20.2727 126.68 19.2314 126.67 18.0269C126.662 17.0156 126.53 16.1701 126.274 15.4903C126.019 14.8106 125.668 14.2965 125.222 13.9479C124.776 13.5993 124.269 13.4217 123.7 13.415C123.166 13.4308 122.702 13.6108 122.307 13.955C121.901 14.288 121.542 14.8364 121.23 15.6004C120.906 16.3645 120.608 17.3954 120.335 18.6931L119.614 22.1765C118.969 25.2729 117.87 27.7196 116.317 29.5166C114.752 31.3024 112.606 32.2009 109.878 32.2122C107.663 32.2419 105.72 31.6671 104.051 30.4877C102.371 29.2971 101.056 27.6432 100.107 25.526C99.1572 23.3974 98.671 20.9525 98.6481 18.1912C98.6247 15.3731 99.0761 12.9318 100.002 10.8672C100.928 8.80266 102.245 7.20646 103.951 6.07863C105.646 4.93952 107.636 4.35482 109.92 4.3245L109.995 13.3924Z"/>
</mask>
<path d="M135.902 243.201L136.902 243.193L136.896 242.45L136.184 242.241L135.902 243.201ZM135.987 253.428L135.682 254.38L136.999 254.803L136.987 253.42L135.987 253.428ZM100.984 242.195L99.9839 242.203L99.9899 242.926L100.678 243.147L100.984 242.195ZM100.876 229.241L100.555 228.294L99.8704 228.526L99.8764 229.249L100.876 229.241ZM135.689 217.429L136.689 217.421L136.677 216.038L135.367 216.482L135.689 217.429ZM135.774 227.656L136.07 228.611L136.78 228.39L136.773 227.648L135.774 227.656ZM110.542 235.502L110.245 234.547L109.536 234.768L109.542 235.51L110.542 235.502ZM110.545 235.775L109.545 235.783L109.551 236.526L110.264 236.734L110.545 235.775ZM122.146 245.224L121.146 245.233L121.154 246.233L122.154 246.224L122.146 245.224ZM121.987 225.998L121.978 224.998L120.978 225.006L120.987 226.006L121.987 225.998ZM129.077 225.939L130.077 225.931L130.069 224.931L129.069 224.939L129.077 225.939ZM129.237 245.165L129.245 246.165L130.245 246.157L130.237 245.157L129.237 245.165ZM134.903 243.209L134.987 253.436L136.987 253.42L136.902 243.193L134.903 243.209ZM136.293 252.476L101.289 241.243L100.678 243.147L135.682 254.38L136.293 252.476ZM101.984 242.187L101.876 229.233L99.8764 229.249L99.9839 242.203L101.984 242.187ZM101.198 230.188L136.01 218.376L135.367 216.482L100.555 228.294L101.198 230.188ZM134.689 217.437L134.774 227.664L136.773 227.648L136.689 217.421L134.689 217.437ZM135.477 226.701L110.245 234.547L110.839 236.457L136.07 228.611L135.477 226.701ZM109.542 235.51L109.545 235.783L111.545 235.766L111.542 235.494L109.542 235.51ZM110.264 236.734L135.621 244.161L136.184 242.241L110.826 234.815L110.264 236.734ZM123.146 245.216L122.987 225.989L120.987 226.006L121.146 245.233L123.146 245.216ZM121.995 226.998L129.086 226.939L129.069 224.939L121.978 224.998L121.995 226.998ZM128.077 225.947L128.237 245.174L130.237 245.157L130.077 225.931L128.077 225.947ZM129.228 244.165L122.138 244.224L122.154 246.224L129.245 246.165L129.228 244.165ZM135.661 214.067L135.669 215.067L136.669 215.059L136.661 214.059L135.661 214.067ZM100.753 214.357L99.7529 214.365L99.7612 215.365L100.761 215.357L100.753 214.357ZM101.646 192.513L102.578 192.874L102.579 192.872L101.646 192.513ZM104.645 188.38L105.228 189.193L105.233 189.19L104.645 188.38ZM112.771 187.767L112.305 188.652L112.313 188.656L112.771 187.767ZM115.45 190.098L116.266 189.519L116.261 189.513L115.45 190.098ZM116.945 193.631L115.967 193.837L116.135 194.637L116.953 194.631L116.945 193.631ZM117.286 193.628L117.294 194.628L118.257 194.62L118.286 193.657L117.286 193.628ZM118.394 189.528L119.265 190.018L119.269 190.012L118.394 189.528ZM121.25 186.572L121.767 187.428L121.771 187.426L121.25 186.572ZM130.645 186.903L130.095 187.738L130.099 187.741L130.645 186.903ZM134.192 191.101L133.289 191.531L134.192 191.101ZM128.014 204.653L128.023 205.653L129.023 205.645L129.014 204.645L128.014 204.653ZM127.061 196.649L127.859 196.046L127.854 196.039L127.061 196.649ZM121.036 197.671L121.956 198.061L121.959 198.055L121.036 197.671ZM120.651 204.714L119.651 204.722L119.659 205.722L120.659 205.714L120.651 204.714ZM114.787 204.763L114.796 205.763L115.796 205.754L115.787 204.754L114.787 204.763ZM114.345 198.681L115.267 198.293L115.267 198.293L114.345 198.681ZM113.208 197.207L112.626 198.021L112.63 198.023L113.208 197.207ZM108.917 197.857L109.722 198.45L109.728 198.442L108.917 197.857ZM108.106 204.818L107.106 204.826L107.114 205.826L108.114 205.818L108.106 204.818ZM135.652 213.067L100.745 213.357L100.761 215.357L135.669 215.067L135.652 213.067ZM101.753 214.348L101.627 199.213L99.6274 199.229L99.7529 214.365L101.753 214.348ZM101.627 199.213C101.606 196.636 101.936 194.534 102.578 192.874L100.713 192.153C99.9531 194.118 99.6046 196.487 99.6274 199.229L101.627 199.213ZM102.579 192.872C103.225 191.189 104.12 189.987 105.228 189.193L104.063 187.568C102.573 188.636 101.467 190.189 100.712 192.155L102.579 192.872ZM105.233 189.19C106.346 188.382 107.674 187.957 109.261 187.944L109.245 185.944C107.287 185.961 105.543 186.493 104.058 187.571L105.233 189.19ZM109.261 187.944C110.392 187.935 111.4 188.175 112.305 188.652L113.238 186.883C112.02 186.241 110.682 185.932 109.245 185.944L109.261 187.944ZM112.313 188.656C113.229 189.129 114.003 189.799 114.638 190.682L116.261 189.513C115.449 188.385 114.437 187.502 113.23 186.879L112.313 188.656ZM114.634 190.676C115.259 191.557 115.707 192.605 115.967 193.837L117.924 193.425C117.615 191.957 117.067 190.649 116.266 189.519L114.634 190.676ZM116.953 194.631L117.294 194.628L117.278 192.628L116.937 192.631L116.953 194.631ZM118.286 193.657C118.325 192.309 118.655 191.102 119.265 190.018L117.523 189.037C116.744 190.42 116.335 191.946 116.286 193.598L118.286 193.657ZM119.269 190.012C119.866 188.934 120.694 188.076 121.767 187.428L120.733 185.716C119.364 186.543 118.288 187.655 117.519 189.043L119.269 190.012ZM121.771 187.426C122.803 186.797 124.048 186.458 125.545 186.445L125.528 184.446C123.73 184.46 122.118 184.872 120.73 185.718L121.771 187.426ZM125.545 186.445C127.269 186.431 128.775 186.867 130.095 187.738L131.196 186.068C129.523 184.964 127.622 184.428 125.528 184.446L125.545 186.445ZM130.099 187.741C131.423 188.604 132.49 189.853 133.289 191.531L135.095 190.671C134.159 188.705 132.862 187.155 131.192 186.066L130.099 187.741ZM133.289 191.531C134.08 193.192 134.504 195.22 134.524 197.644L136.524 197.627C136.502 194.984 136.039 192.655 135.095 190.671L133.289 191.531ZM134.524 197.644L134.661 214.075L136.661 214.059L136.524 197.627L134.524 197.644ZM129.014 204.645L128.977 200.213L126.978 200.23L127.014 204.661L129.014 204.645ZM128.977 200.213C128.963 198.527 128.644 197.084 127.859 196.046L126.264 197.252C126.674 197.795 126.965 198.733 126.978 200.23L128.977 200.213ZM127.854 196.039C127.019 194.956 125.807 194.466 124.384 194.478L124.401 196.478C125.319 196.47 125.886 196.762 126.269 197.259L127.854 196.039ZM124.384 194.478C123.41 194.486 122.518 194.718 121.76 195.228L122.875 196.888C123.248 196.638 123.738 196.484 124.401 196.478L124.384 194.478ZM121.76 195.228C121.015 195.728 120.469 196.43 120.112 197.286L121.959 198.055C122.181 197.521 122.49 197.147 122.875 196.888L121.76 195.228ZM120.115 197.281C119.758 198.123 119.604 199.091 119.613 200.154L121.613 200.138C121.606 199.269 121.733 198.587 121.956 198.061L120.115 197.281ZM119.613 200.154L119.651 204.722L121.651 204.706L121.613 200.138L119.613 200.154ZM120.659 205.714L128.023 205.653L128.006 203.653L120.643 203.714L120.659 205.714ZM115.787 204.754L115.755 200.868L113.755 200.885L113.787 204.771L115.787 204.754ZM115.755 200.868C115.747 199.934 115.593 199.07 115.267 198.293L113.423 199.068C113.63 199.56 113.749 200.159 113.755 200.885L115.755 200.868ZM115.267 198.293C114.938 197.512 114.45 196.862 113.786 196.391L112.63 198.023C112.948 198.249 113.218 198.581 113.423 199.068L115.267 198.293ZM113.789 196.394C113.088 195.893 112.264 195.67 111.371 195.677L111.388 197.677C111.927 197.672 112.321 197.803 112.626 198.021L113.789 196.394ZM111.371 195.677C110.019 195.688 108.88 196.2 108.107 197.271L109.728 198.442C110.078 197.958 110.58 197.684 111.388 197.677L111.371 195.677ZM108.112 197.263C107.384 198.251 107.061 199.455 107.072 200.804L109.072 200.787C109.064 199.772 109.304 199.017 109.722 198.45L108.112 197.263ZM107.072 200.804L107.106 204.826L109.106 204.81L109.072 200.787L107.072 200.804ZM108.114 205.818L114.796 205.763L114.779 203.763L108.098 203.818L108.114 205.818ZM127.514 150.519L128.001 149.645L127.999 149.644L127.514 150.519ZM133.616 156.588L134.495 156.111L134.493 156.108L133.616 156.588ZM133.741 173.803L134.624 174.273L134.627 174.268L133.741 173.803ZM127.724 179.956L128.221 180.823L128.225 180.821L127.724 179.956ZM108.105 180.118L107.62 180.993L107.621 180.993L108.105 180.118ZM102.004 174.066L102.882 173.589L102.882 173.587L102.004 174.066ZM101.861 156.851L102.747 157.316L102.748 157.313L101.861 156.851ZM107.861 150.682L108.361 151.548L108.363 151.547L107.861 150.682ZM112.464 158.962L112.825 159.895L112.834 159.891L112.464 158.962ZM109.212 161.427L110.035 161.995L110.042 161.985L109.212 161.427ZM109.278 169.353L110.095 168.777L110.094 168.775L109.278 169.353ZM112.57 171.763L112.218 172.699L112.222 172.7L112.57 171.763ZM123.155 171.675L123.517 172.608L123.525 172.604L123.155 171.675ZM126.408 169.21L127.231 169.778L127.238 169.768L126.408 169.21ZM126.342 161.285L127.16 160.709L127.158 160.707L126.342 161.285ZM123.049 158.874L122.697 159.81L122.701 159.812L123.049 158.874ZM117.669 149.333C121.427 149.302 124.532 150.007 127.029 151.393L127.999 149.644C125.13 148.052 121.666 147.3 117.652 147.333L117.669 149.333ZM127.027 151.392C129.542 152.794 131.437 154.684 132.738 157.067L134.493 156.108C133.002 153.378 130.829 151.222 128.001 149.645L127.027 151.392ZM132.736 157.064C134.037 159.465 134.707 162.16 134.732 165.17L136.732 165.153C136.705 161.845 135.964 158.824 134.495 156.111L132.736 157.064ZM134.732 165.17C134.758 168.202 134.126 170.918 132.856 173.338L134.627 174.268C136.064 171.529 136.76 168.484 136.732 165.153L134.732 165.17ZM132.858 173.334C131.586 175.728 129.716 177.646 127.223 179.09L128.225 180.821C131.025 179.199 133.167 177.014 134.624 174.273L132.858 173.334ZM127.227 179.088C124.752 180.505 121.67 181.256 117.934 181.287L117.95 183.287C121.941 183.254 125.38 182.45 128.221 180.823L127.227 179.088ZM117.934 181.287C114.174 181.318 111.075 180.618 108.59 179.243L107.621 180.993C110.479 182.574 113.938 183.32 117.95 183.287L117.934 181.287ZM108.591 179.244C106.064 177.841 104.171 175.957 102.882 173.589L101.125 174.544C102.606 177.267 104.781 179.417 107.62 180.993L108.591 179.244ZM102.882 173.587C101.571 171.188 100.895 168.483 100.87 165.451L98.87 165.467C98.8976 168.798 99.6439 171.832 101.126 174.546L102.882 173.587ZM100.87 165.451C100.845 162.442 101.476 159.737 102.747 157.316L100.976 156.386C99.5391 159.124 98.8425 162.158 98.87 165.467L100.87 165.451ZM102.748 157.313C103.998 154.912 105.859 152.992 108.361 151.548L107.361 149.816C104.548 151.439 102.409 153.632 100.974 156.39L102.748 157.313ZM108.363 151.547C110.824 150.121 113.91 149.365 117.669 149.333L117.652 147.333C113.639 147.367 110.192 148.176 107.36 149.817L108.363 151.547ZM117.733 157.083C115.56 157.101 113.67 157.405 112.094 158.033L112.834 159.891C114.113 159.382 115.741 159.1 117.749 159.083L117.733 157.083ZM112.103 158.03C110.509 158.647 109.245 159.585 108.382 160.869L110.042 161.985C110.638 161.098 111.543 160.392 112.825 159.895L112.103 158.03ZM108.389 160.859C107.509 162.134 107.105 163.667 107.12 165.399L109.12 165.382C109.108 163.977 109.433 162.868 110.035 161.995L108.389 160.859ZM107.12 165.399C107.134 167.131 107.563 168.66 108.461 169.93L110.094 168.775C109.474 167.899 109.131 166.787 109.12 165.382L107.12 165.399ZM108.46 169.928C109.343 171.184 110.619 172.097 112.218 172.699L112.923 170.827C111.626 170.339 110.707 169.646 110.095 168.777L108.46 169.928ZM112.222 172.7C113.806 173.289 115.698 173.555 117.869 173.537L117.853 171.537C115.842 171.554 114.208 171.304 112.919 170.825L112.222 172.7ZM117.869 173.537C120.041 173.519 121.933 173.221 123.517 172.607L122.794 170.743C121.5 171.244 119.863 171.52 117.853 171.537L117.869 173.537ZM123.525 172.604C125.103 171.975 126.359 171.042 127.231 169.778L125.584 168.643C124.974 169.527 124.062 170.237 122.785 170.746L123.525 172.604ZM127.238 169.768C128.1 168.484 128.497 166.95 128.483 165.221L126.483 165.238C126.494 166.645 126.174 167.765 125.578 168.653L127.238 169.768ZM128.483 165.221C128.468 163.493 128.047 161.969 127.16 160.709L125.524 161.86C126.132 162.724 126.471 163.83 126.483 165.238L128.483 165.221ZM127.158 160.707C126.265 159.444 124.99 158.529 123.397 157.937L122.701 159.812C123.98 160.287 124.901 160.979 125.525 161.862L127.158 160.707ZM123.401 157.938C121.806 157.338 119.906 157.065 117.733 157.083L117.749 159.083C119.758 159.066 121.397 159.321 122.697 159.81L123.401 157.938ZM99.9986 123.435L98.9986 123.443L99.0069 124.443L100.007 124.435L99.9986 123.435ZM99.9199 113.958L99.9116 112.958L98.9117 112.966L98.92 113.966L99.9199 113.958ZM129.202 115.624L128.661 116.465L128.662 116.466L129.202 115.624ZM133.728 120.871L134.633 120.444L134.631 120.44L133.728 120.871ZM133.859 136.655L134.769 137.07L134.771 137.067L133.859 136.655ZM129.42 141.976L129.968 142.812L129.974 142.808L129.42 141.976ZM100.17 144.093L99.17 144.102L99.1783 145.102L100.178 145.093L100.17 144.093ZM100.091 134.616L100.083 133.617L99.0831 133.625L99.0914 134.625L100.091 134.616ZM124.528 133.698L125.024 134.566L125.029 134.563L124.528 133.698ZM126.489 131.704L127.362 132.191L127.365 132.186L126.489 131.704ZM126.44 125.909L127.306 125.408L126.44 125.909ZM124.447 123.948L124.933 123.074L124.928 123.072L124.447 123.948ZM100.999 123.427L100.92 113.95L98.92 113.966L98.9986 123.443L100.999 123.427ZM99.9282 114.958L122.291 114.773L122.275 112.773L99.9116 112.958L99.9282 114.958ZM122.291 114.773C124.784 114.752 126.894 115.329 128.661 116.465L129.743 114.783C127.603 113.407 125.099 112.749 122.275 112.773L122.291 114.773ZM128.662 116.466C130.435 117.603 131.824 119.203 132.826 121.302L134.631 120.44C133.482 118.034 131.853 116.137 129.742 114.783L128.662 116.466ZM132.824 121.298C133.815 123.396 134.338 125.869 134.362 128.741L136.362 128.724C136.336 125.62 135.77 122.851 134.633 120.444L132.824 121.298ZM134.362 128.741C134.386 131.637 133.904 134.129 132.948 136.243L134.771 137.067C135.868 134.64 136.388 131.851 136.362 128.724L134.362 128.741ZM132.95 136.239C131.983 138.354 130.62 139.977 128.867 141.143L129.974 142.808C132.063 141.42 133.66 139.495 134.769 137.07L132.95 136.239ZM128.872 141.139C127.123 142.285 125.021 142.887 122.525 142.908L122.541 144.908C125.362 144.884 127.852 144.199 129.968 142.812L128.872 141.139ZM122.525 142.908L100.162 143.093L100.178 145.093L122.541 144.908L122.525 142.908ZM101.17 144.085L101.091 134.608L99.0914 134.625L99.17 144.102L101.17 144.085ZM100.1 135.616L121.644 135.438L121.628 133.438L100.083 133.617L100.1 135.616ZM121.644 135.438C122.877 135.427 124.011 135.144 125.024 134.566L124.032 132.829C123.347 133.22 122.555 133.43 121.628 133.438L121.644 135.438ZM125.029 134.563C126.022 133.989 126.804 133.193 127.362 132.191L125.615 131.218C125.232 131.905 124.708 132.438 124.027 132.832L125.029 134.563ZM127.365 132.186C127.926 131.164 128.191 130.025 128.18 128.792L126.18 128.809C126.188 129.736 125.991 130.532 125.612 131.223L127.365 132.186ZM128.18 128.792C128.17 127.551 127.888 126.413 127.306 125.408L125.575 126.41C125.962 127.078 126.173 127.869 126.18 128.809L128.18 128.792ZM127.306 125.408C126.731 124.415 125.936 123.633 124.933 123.074L123.96 124.822C124.648 125.204 125.181 125.729 125.575 126.41L127.306 125.408ZM124.928 123.072C123.907 122.511 122.767 122.246 121.535 122.256L121.552 124.256C122.478 124.249 123.275 124.445 123.965 124.825L124.928 123.072ZM121.535 122.256L99.9903 122.435L100.007 124.435L121.552 124.256L121.535 122.256ZM107.527 110.345L107.535 111.345L108.535 111.337L108.527 110.337L107.527 110.345ZM99.8905 110.409L98.8905 110.417L98.8988 111.417L99.8988 111.408L99.8905 110.409ZM99.6388 80.0687L99.6305 79.0687L98.6305 79.077L98.6388 80.0769L99.6388 80.0687ZM107.275 80.0053L108.275 79.997L108.267 78.997L107.267 79.0053L107.275 80.0053ZM107.362 90.5049L106.362 90.5132L106.37 91.5132L107.37 91.5049L107.362 90.5049ZM134.634 90.2787L135.634 90.2704L135.625 89.2704L134.625 89.2787L134.634 90.2787ZM134.711 99.6193L134.72 100.619L135.72 100.611L135.711 99.611L134.711 99.6193ZM107.439 99.8455L107.431 98.8456L106.431 98.8539L106.44 99.8538L107.439 99.8455ZM107.518 109.345L99.8822 109.409L99.8988 111.408L107.535 111.345L107.518 109.345ZM100.89 110.4L100.639 80.0604L98.6388 80.0769L98.8905 110.417L100.89 110.4ZM99.6471 81.0686L107.283 81.0053L107.267 79.0053L99.6305 79.0687L99.6471 81.0686ZM106.275 80.0136L106.362 90.5132L108.362 90.4966L108.275 79.997L106.275 80.0136ZM107.37 91.5049L134.642 91.2786L134.625 89.2787L107.354 89.505L107.37 91.5049ZM133.634 90.287L133.711 99.6276L135.711 99.611L135.634 90.2704L133.634 90.287ZM134.703 98.6193L107.431 98.8456L107.448 100.845L134.72 100.619L134.703 98.6193ZM106.44 99.8538L106.527 110.353L108.527 110.337L108.439 99.8372L106.44 99.8538ZM99.3585 46.2815L98.3585 46.2898L98.3668 47.2897L99.3667 47.2814L99.3585 46.2815ZM99.2798 36.8045L99.2715 35.8046L98.2716 35.8128L98.2799 36.8128L99.2798 36.8045ZM128.562 38.4707L128.021 39.3118L128.022 39.3126L128.562 38.4707ZM133.088 43.7175L133.993 43.2903L133.991 43.2866L133.088 43.7175ZM133.219 59.501L134.129 59.9169L134.13 59.9131L133.219 59.501ZM128.78 64.8221L129.328 65.6586L129.334 65.6549L128.78 64.8221ZM99.5298 66.9398L98.5299 66.9481L98.5382 67.9481L99.5381 67.9398L99.5298 66.9398ZM99.4512 57.4629L99.4429 56.4629L98.443 56.4712L98.4513 57.4712L99.4512 57.4629ZM123.888 56.5442L124.383 57.4127L124.388 57.4098L123.888 56.5442ZM125.848 54.5506L126.722 55.037L126.725 55.032L125.848 54.5506ZM125.8 48.7554L126.666 48.2546L125.8 48.7554ZM123.807 46.7946L124.293 45.9208L124.288 45.918L123.807 46.7946ZM100.358 46.2732L100.28 36.7962L98.2799 36.8128L98.3585 46.2898L100.358 46.2732ZM99.2881 37.8045L121.651 37.6189L121.634 35.619L99.2715 35.8046L99.2881 37.8045ZM121.651 37.6189C124.144 37.5983 126.254 38.1752 128.021 39.3118L129.103 37.6297C126.963 36.2532 124.459 35.5956 121.634 35.619L121.651 37.6189ZM128.022 39.3126C129.795 40.4491 131.184 42.0496 132.186 44.1483L133.991 43.2866C132.842 40.8803 131.213 38.983 129.101 37.6289L128.022 39.3126ZM132.184 44.1446C133.175 46.2427 133.698 48.7154 133.722 51.5875L135.722 51.5709C135.696 48.4659 135.13 45.6975 133.993 43.2903L132.184 44.1446ZM133.722 51.5875C133.746 54.4835 133.264 56.9756 132.308 59.0889L134.13 59.9131C135.228 57.4865 135.748 54.6973 135.722 51.5709L133.722 51.5875ZM132.31 59.0852C131.343 61.2002 129.98 62.8236 128.227 63.9894L129.334 65.6549C131.423 64.266 133.02 62.3419 134.129 59.9169L132.31 59.0852ZM128.232 63.9856C126.483 65.1314 124.381 65.7336 121.884 65.7543L121.901 67.7543C124.722 67.7309 127.212 67.045 129.328 65.6586L128.232 63.9856ZM121.884 65.7543L99.5215 65.9399L99.5381 67.9398L121.901 67.7543L121.884 65.7543ZM100.53 66.9316L100.451 57.4546L98.4513 57.4712L98.5299 66.9481L100.53 66.9316ZM99.4595 58.4629L121.004 58.2841L120.988 56.2842L99.4429 56.4629L99.4595 58.4629ZM121.004 58.2841C122.236 58.2739 123.371 57.9905 124.383 57.4126L123.392 55.6758C122.707 56.0666 121.914 56.2765 120.988 56.2842L121.004 58.2841ZM124.388 57.4098C125.382 56.8351 126.164 56.0396 126.722 55.037L124.975 54.0642C124.592 54.7513 124.067 55.2848 123.387 55.6787L124.388 57.4098ZM126.725 55.032C127.286 54.0104 127.55 52.8709 127.54 51.6388L125.54 51.6554C125.548 52.5822 125.351 53.3784 124.972 54.0693L126.725 55.032ZM127.54 51.6388C127.53 50.3974 127.247 49.2597 126.666 48.2546L124.935 49.2562C125.322 49.9249 125.532 50.7149 125.54 51.6554L127.54 51.6388ZM126.666 48.2546C126.091 47.2614 125.296 46.4789 124.293 45.9208L123.32 47.6683C124.007 48.0508 124.541 48.5755 124.935 49.2562L126.666 48.2546ZM124.288 45.918C123.267 45.3571 122.127 45.0925 120.895 45.1028L120.911 47.1027C121.838 47.095 122.634 47.2917 123.325 47.6711L124.288 45.918ZM120.895 45.1028L99.3502 45.2815L99.3667 47.2814L120.911 47.1027L120.895 45.1028ZM109.995 13.3924L110.083 14.3885L111.003 14.3072L110.995 13.3841L109.995 13.3924ZM107.347 14.6928L108.115 15.3334L108.119 15.3277L107.347 14.6928ZM106.798 20.5271L107.733 20.172L107.73 20.1627L106.798 20.5271ZM107.747 21.8829L107.158 22.6906L107.158 22.6906L107.747 21.8829ZM109.115 22.3318L109.16 21.3329L109.144 21.3321L109.129 21.3319L109.115 22.3318ZM110.255 22.1007L110.709 22.9914L110.727 22.9822L110.745 22.9723L110.255 22.1007ZM111.151 21.241L111.973 21.8109L111.979 21.8027L111.984 21.7944L111.151 21.241ZM112.416 17.5997L111.437 17.3983L111.435 17.4066L112.416 17.5997ZM113.006 14.7311L113.986 14.9325L113.986 14.9301L113.006 14.7311ZM116.926 6.36304L117.625 7.07776L117.63 7.07335L116.926 6.36304ZM119.944 4.4118L120.293 5.34877L120.301 5.34559L119.944 4.4118ZM123.62 3.73356L123.617 2.73346L123.603 2.73369L123.62 3.73356ZM129.464 5.40672L130.038 4.58819L129.464 5.40672ZM133.135 10.2514L132.207 10.6245L132.207 10.6262L133.135 10.2514ZM133.161 25.7802L134.093 26.143L134.094 26.1414L133.161 25.7802ZM129.063 31.0643L129.621 31.8941L129.627 31.8902L129.063 31.0643ZM121.885 32.999L120.885 33.0073L120.894 34.0111L121.898 33.9989L121.885 32.999ZM121.811 23.9993L121.749 23.0011L120.803 23.0594L120.811 24.0076L121.811 23.9993ZM124.497 23.1758L125.053 24.0073L125.053 24.0073L124.497 23.1758ZM126.134 21.1508L127.054 21.5415L127.056 21.5371L126.134 21.1508ZM126.274 15.4903L127.21 15.1383L126.274 15.4903ZM125.222 13.9479L125.838 13.1599L125.222 13.9479ZM123.7 13.415L123.712 12.4151L123.691 12.4149L123.671 12.4155L123.7 13.415ZM122.307 13.955L122.941 14.7286L122.953 14.7189L122.964 14.7089L122.307 13.955ZM121.23 15.6004L122.151 15.99L122.156 15.9783L121.23 15.6004ZM120.335 18.6931L119.356 18.487L119.356 18.4904L120.335 18.6931ZM119.614 22.1765L120.593 22.3804L120.593 22.3792L119.614 22.1765ZM116.317 29.5166L117.069 30.1757L117.073 30.1706L116.317 29.5166ZM109.878 32.2122L109.874 31.2121L109.865 31.2123L109.878 32.2122ZM104.051 30.4877L103.473 31.3037L103.474 31.3044L104.051 30.4877ZM100.107 25.526L99.1935 25.9334L99.1943 25.9351L100.107 25.526ZM100.002 10.8672L100.915 11.2765L100.002 10.8672ZM103.951 6.07862L104.503 6.91293L104.509 6.90863L103.951 6.07862ZM109.92 4.3245L110.92 4.3162L110.911 3.31125L109.907 3.32459L109.92 4.3245ZM109.907 12.3963C108.547 12.5164 107.4 13.0525 106.574 14.0579L108.119 15.3277C108.553 14.7999 109.172 14.469 110.083 14.3885L109.907 12.3963ZM106.579 14.0522C105.732 15.0671 105.407 16.49 105.421 18.135L107.421 18.1184C107.409 16.6954 107.701 15.829 108.115 15.3334L106.579 14.0522ZM105.421 18.135C105.429 19.183 105.564 20.1155 105.867 20.8915L107.73 20.1627C107.546 19.6927 107.428 19.0249 107.421 18.1184L105.421 18.135ZM105.864 20.8822C106.143 21.618 106.558 22.2529 107.158 22.6906L108.337 21.0752C108.136 20.9286 107.918 20.6596 107.733 20.172L105.864 20.8822ZM107.158 22.6906C107.731 23.109 108.389 23.3218 109.101 23.3317L109.129 21.3319C108.817 21.3276 108.564 21.2411 108.337 21.0752L107.158 22.6906ZM109.069 23.3308C109.644 23.3571 110.2 23.2516 110.709 22.9914L109.8 21.2101C109.631 21.2964 109.426 21.345 109.16 21.3329L109.069 23.3308ZM110.745 22.9723C111.234 22.697 111.639 22.2928 111.973 21.8109L110.329 20.6711C110.125 20.9665 109.931 21.1354 109.764 21.2292L110.745 22.9723ZM111.984 21.7944C112.302 21.3159 112.57 20.7378 112.799 20.0818L110.911 19.4225C110.718 19.9746 110.517 20.3891 110.318 20.6876L111.984 21.7944ZM112.799 20.0818C113.029 19.4216 113.228 18.6562 113.398 17.7928L111.435 17.4066C111.278 18.205 111.102 18.8746 110.911 19.4225L112.799 20.0818ZM113.396 17.8011L113.986 14.9325L112.027 14.5297L111.437 17.3983L113.396 17.8011ZM113.986 14.9301C114.367 13.0532 114.871 11.4774 115.487 10.1884L113.682 9.32677C112.979 10.7988 112.431 12.5386 112.026 14.532L113.986 14.9301ZM115.487 10.1884C116.106 8.8919 116.823 7.86292 117.625 7.07775L116.226 5.64834C115.225 6.62819 114.381 7.86224 113.682 9.32677L115.487 10.1884ZM117.63 7.07335C118.424 6.28592 119.311 5.71524 120.293 5.34872L119.594 3.47488C118.333 3.94519 117.208 4.67533 116.222 5.65274L117.63 7.07335ZM120.301 5.34559C121.303 4.96179 122.412 4.75405 123.637 4.73341L123.603 2.73369C122.169 2.75784 120.827 3.00226 119.586 3.47801L120.301 5.34559ZM123.623 4.73355C125.749 4.72644 127.486 5.24051 128.889 6.22525L130.038 4.58819C128.241 3.32668 126.082 2.7253 123.617 2.73355L123.623 4.73355ZM128.889 6.22525C130.307 7.22018 131.42 8.66773 132.207 10.6245L134.062 9.87838C133.155 7.62178 131.821 5.83951 130.038 4.58819L128.889 6.22525ZM132.207 10.6262C132.995 12.5753 133.418 14.9689 133.442 17.8344L135.442 17.8178C135.416 14.7743 134.968 12.1182 134.062 9.87668L132.207 10.6262ZM133.442 17.8344C133.466 20.7721 133.052 23.2931 132.229 25.4189L134.094 26.1414C135.028 23.7297 135.468 20.948 135.442 17.8178L133.442 17.8344ZM132.229 25.4173C131.417 27.5025 130.172 29.0959 128.499 30.2385L129.627 31.8902C131.66 30.5019 133.147 28.5726 134.093 26.143L132.229 25.4173ZM128.505 30.2346C126.843 31.3519 124.656 31.9651 121.873 31.999L121.898 33.9989C124.955 33.9616 127.553 33.2851 129.621 31.8941L128.505 30.2346ZM122.885 32.9907L122.811 23.991L120.811 24.0076L120.885 33.0073L122.885 32.9907ZM121.872 24.9974C123.076 24.9233 124.152 24.6091 125.053 24.0073L123.942 22.3443C123.396 22.7091 122.681 22.9439 121.749 23.0011L121.872 24.9974ZM125.053 24.0073C125.951 23.4068 126.617 22.5721 127.054 21.5415L125.213 20.7601C124.915 21.4629 124.489 21.9782 123.942 22.3443L125.053 24.0073ZM127.056 21.5371C127.488 20.5057 127.681 19.3239 127.67 18.0186L125.67 18.0352C125.68 19.1389 125.515 20.0398 125.211 20.7645L127.056 21.5371ZM127.67 18.0186C127.661 16.9325 127.52 15.9619 127.21 15.1383L125.338 15.8424C125.54 16.3783 125.663 17.0987 125.67 18.0352L127.67 18.0186ZM127.21 15.1383C126.908 14.3345 126.464 13.6495 125.838 13.1599L124.606 14.7358C124.872 14.9435 125.129 15.2868 125.338 15.8424L127.21 15.1383ZM125.838 13.1599C125.218 12.6759 124.498 12.4243 123.712 12.4151L123.689 14.415C124.039 14.4191 124.333 14.5227 124.606 14.7358L125.838 13.1599ZM123.671 12.4155C122.91 12.438 122.223 12.7017 121.65 13.2012L122.964 14.7089C123.181 14.52 123.422 14.4237 123.73 14.4146L123.671 12.4155ZM121.673 13.1815C121.085 13.6635 120.646 14.3839 120.304 15.2225L122.156 15.9783C122.437 15.2889 122.716 14.9124 122.941 14.7286L121.673 13.1815ZM120.309 15.2108C119.95 16.0583 119.636 17.1589 119.356 18.487L121.313 18.8992C121.58 17.6318 121.863 16.6706 122.151 15.99L120.309 15.2108ZM119.356 18.4904L118.634 21.9738L120.593 22.3792L121.314 18.8959L119.356 18.4904ZM118.635 21.9726C118.014 24.9557 116.971 27.23 115.56 28.8627L117.073 30.1706C118.768 28.2092 119.924 25.59 120.593 22.3804L118.635 21.9726ZM115.564 28.8576C114.218 30.3946 112.362 31.2019 109.874 31.2122L109.883 33.2122C112.849 33.1999 115.286 32.2102 117.069 30.1757L115.564 28.8576ZM109.865 31.2123C107.842 31.2394 106.11 30.7181 104.629 29.6711L103.474 31.3044C105.331 32.6161 107.484 33.2444 109.892 33.2121L109.865 31.2123ZM104.63 29.6718C103.113 28.597 101.905 27.0921 101.019 25.1168L99.1943 25.9351C100.207 28.1942 101.629 29.9971 103.473 31.3037L104.63 29.6718ZM101.02 25.1186C100.136 23.1367 99.6701 20.8317 99.6481 18.1829L97.6481 18.1995C97.672 21.0733 98.1786 23.6581 99.1935 25.9334L101.02 25.1186ZM99.6481 18.1829C99.6256 15.4744 100.06 13.1817 100.915 11.2765L99.0898 10.458C98.0922 12.6819 97.6239 15.2719 97.6481 18.1995L99.6481 18.1829ZM100.915 11.2765C101.772 9.36597 102.971 7.92526 104.503 6.91291L103.4 5.24435C101.519 6.48766 100.085 8.23936 99.0898 10.458L100.915 11.2765ZM104.509 6.90863C106.024 5.89037 107.82 5.35247 109.933 5.32441L109.907 3.32459C107.452 3.35716 105.268 3.98869 103.393 5.24861L104.509 6.90863ZM108.92 4.3328L108.995 13.4007L110.995 13.3841L110.92 4.3162L108.92 4.3328Z" fill="#05C2DF" fill-opacity="0.5" mask="url(#path-5-outside-3_1_5915)"/>
</svg>
