<svg version="1.2" xmlns="http://www.w3.org/2000/svg" viewBox="0 0 221 69" width="221" height="69">
	<title>Group 4-svg</title>
	<style>
		.s0 { opacity: .5;fill: #05c2df } 
		.s1 { opacity: .5;fill: none;stroke: #05c2df;stroke-width: 2 } 
		.s2 { fill: none;stroke: #05c2df } 
		.s3 { fill: #05c2df } 
	</style>
	<path id="Layer" class="s0" d="m86 14h-30v-2h30z"/>
	<path id="Layer" class="s0" d="m86 58h-30v-2h30z"/>
	<path id="Layer" class="s1" d="m52 62c-4.9 3.4-10.6 5.6-16.5 5.9-5.9 0.4-11.8-0.9-17-3.6-5.3-2.8-9.7-7-12.8-12.2-3.1-5.1-4.7-11-4.7-17 0-6 1.6-11.9 4.6-17.1 3.1-5.2 7.5-9.4 12.7-12.2 5.3-2.8 10.8-4.2 16.7-3.8 5.9 0.4 11.1 1.6 16 5"/>
	<ellipse id="Layer" class="s2" cx="34" cy="34.8" rx="26.4" ry="26.3"/>
	<path id="Layer" class="s3" d="m45 35l-17.3 10.4 0.1-20.8z"/>
	<path id="Layer" class="s0" d="m91 14h-2v-2h2z"/>
	<path id="Layer" class="s0" d="m88 14h-2v-2h2z"/>
	<path id="Layer" class="s0" d="m94 14h-2v-2h2z"/>
	<path id="Layer" class="s0" d="m97 14h-2v-2h2z"/>
	<path id="Layer" class="s0" d="m100 14h-2v-2h2z"/>
	<path id="Layer" class="s0" d="m104 14h-2v-2h2z"/>
	<path id="Layer" class="s0" d="m108 14h-2v-2h2z"/>
	<path id="Layer" class="s0" d="m112 14h-2v-2h2z"/>
	<path id="Layer" class="s0" d="m117 14h-2v-2h2z"/>
	<path id="Layer" class="s0" d="m122 14h-2v-2h2z"/>
	<path id="Layer" class="s0" d="m127 14h-2v-2h2z"/>
	<path id="Layer" class="s0" d="m132 14h-2v-2h2z"/>
	<path id="Layer" class="s0" d="m137 14h-2v-2h2z"/>
	<path id="Layer" class="s0" d="m142 14h-2v-2h2z"/>
	<path id="Layer" class="s0" d="m153.6 13.8h-1.6v-1.6h1.6z"/>
	<path id="Layer" class="s0" d="m159.6 13.8h-1.6v-1.6h1.6z"/>
	<path id="Layer" class="s0" d="m165.6 13.8h-1.6v-1.6h1.6z"/>
	<path id="Layer" class="s0" d="m171.3 13.7h-1.3v-1.3h1.3z"/>
	<path id="Layer" class="s0" d="m178.3 13.7h-1.3v-1.3h1.3z"/>
	<path id="Layer" class="s0" d="m185.3 13.7h-1.3v-1.3h1.3z"/>
	<path id="Layer" class="s0" d="m192.3 13.7h-1.3v-1.3h1.3z"/>
	<path id="Layer" class="s0" d="m200.3 13.7h-1.3v-1.3h1.3z"/>
	<path id="Layer" class="s0" d="m209.3 13.7h-1.3v-1.3h1.3z"/>
	<path id="Layer" class="s0" d="m147.6 13.8h-1.6v-1.6h1.6z"/>
	<path id="Layer" class="s0" d="m221 13.5h-1v-1h1z"/>
	<path id="Layer" class="s0" d="m91 58h-2v-2h2z"/>
	<path id="Layer" class="s0" d="m88 58h-2v-2h2z"/>
	<path id="Layer" class="s0" d="m94 58h-2v-2h2z"/>
	<path id="Layer" class="s0" d="m97 58h-2v-2h2z"/>
	<path id="Layer" class="s0" d="m100 58h-2v-2h2z"/>
	<path id="Layer" class="s0" d="m104 58h-2v-2h2z"/>
	<path id="Layer" class="s0" d="m108 58h-2v-2h2z"/>
	<path id="Layer" class="s0" d="m112 58h-2v-2h2z"/>
	<path id="Layer" class="s0" d="m117 58h-2v-2h2z"/>
	<path id="Layer" class="s0" d="m122 58h-2v-2h2z"/>
	<path id="Layer" class="s0" d="m127 58h-2v-2h2z"/>
	<path id="Layer" class="s0" d="m132 58h-2v-2h2z"/>
	<path id="Layer" class="s0" d="m137 58h-2v-2h2z"/>
	<path id="Layer" class="s0" d="m142 58h-2v-2h2z"/>
	<path id="Layer" class="s0" d="m153.6 57.8h-1.6v-1.6h1.6z"/>
	<path id="Layer" class="s0" d="m159.6 57.8h-1.6v-1.6h1.6z"/>
	<path id="Layer" class="s0" d="m165.6 57.8h-1.6v-1.6h1.6z"/>
	<path id="Layer" class="s0" d="m171.3 57.7h-1.3v-1.3h1.3z"/>
	<path id="Layer" class="s0" d="m178.3 57.7h-1.3v-1.3h1.3z"/>
	<path id="Layer" class="s0" d="m185.3 57.7h-1.3v-1.3h1.3z"/>
	<path id="Layer" class="s0" d="m192.3 57.7h-1.3v-1.3h1.3z"/>
	<path id="Layer" class="s0" d="m200.3 57.7h-1.3v-1.3h1.3z"/>
	<path id="Layer" class="s0" d="m209.3 57.7h-1.3v-1.3h1.3z"/>
	<path id="Layer" class="s0" d="m147.6 57.8h-1.6v-1.6h1.6z"/>
	<path id="Layer" class="s0" d="m221 57.5h-1v-1h1z"/>
</svg>