<svg width="218" height="27" viewBox="0 0 218 27" fill="none" xmlns="http://www.w3.org/2000/svg">
<path d="M29.0808 26H23.0688V8.75603L18.0288 23.624H11.6388L6.59879 8.81003V26H0.586792V0.800032H9.10081L14.8428 16.802L20.5488 0.800032H29.0808V26ZM40.5448 1.32203C42.2008 0.662031 43.9888 0.332031 45.9088 0.332031C47.8288 0.332031 49.6108 0.662031 51.2548 1.32203C52.9108 1.98203 54.3148 2.88803 55.4668 4.04003C56.6308 5.18003 57.5428 6.56003 58.2028 8.18003C58.8628 9.80003 59.1928 11.54 59.1928 13.4C59.1928 15.26 58.8628 17 58.2028 18.62C57.5428 20.24 56.6308 21.626 55.4668 22.778C54.3148 23.918 52.9108 24.818 51.2548 25.478C49.6108 26.138 47.8288 26.468 45.9088 26.468C43.9888 26.468 42.2008 26.138 40.5448 25.478C38.9008 24.818 37.4968 23.918 36.3328 22.778C35.1808 21.626 34.2748 20.24 33.6148 18.62C32.9548 17 32.6248 15.26 32.6248 13.4C32.6248 11.54 32.9548 9.80003 33.6148 8.18003C34.2748 6.56003 35.1808 5.18003 36.3328 4.04003C37.4968 2.88803 38.9008 1.98203 40.5448 1.32203ZM50.9488 8.12603C49.6408 6.77003 47.9608 6.09203 45.9088 6.09203C43.8568 6.09203 42.1708 6.77003 40.8508 8.12603C39.5428 9.48203 38.8888 11.24 38.8888 13.4C38.8888 15.56 39.5428 17.318 40.8508 18.674C42.1708 20.03 43.8568 20.708 45.9088 20.708C47.9608 20.708 49.6408 20.03 50.9488 18.674C52.2688 17.318 52.9288 15.56 52.9288 13.4C52.9288 11.24 52.2688 9.48203 50.9488 8.12603ZM73.6699 0.800032C76.7539 0.800032 79.1119 1.51403 80.7439 2.94203C82.3879 4.37003 83.2099 6.34403 83.2099 8.86403C83.2099 10.868 82.5979 12.536 81.3739 13.868C80.1499 15.188 78.4159 16.028 76.1719 16.388L83.4079 26H76.2439L69.6019 16.568H68.7199V26H62.7079V0.800032H73.6699ZM68.7199 6.25403V11.51H73.5979C74.7139 11.51 75.5719 11.288 76.1719 10.844C76.7839 10.4 77.0899 9.74003 77.0899 8.86403C77.0899 7.98803 76.7839 7.33403 76.1719 6.90203C75.5599 6.47003 74.7019 6.25403 73.5979 6.25403H68.7199ZM106.262 26H86.9657V0.800032H106.19V6.21803H92.9777V10.574H105.416V15.974H92.9777V20.582H106.262V26ZM137.142 6.38003H129.69V26H123.678V6.38003H116.208V0.800032H137.142V6.38003ZM145.888 10.502H156.49V0.800032H162.502V26H156.49V16.064H145.888V26H139.876V0.800032H145.888V10.502ZM191.531 26H185.123L183.215 20.708H173.207L171.299 26H165.017L174.683 0.800032H181.865L191.531 26ZM175.151 15.272H181.271L178.211 6.77603L175.151 15.272ZM217.29 26H211.512L200.028 10.628V26H194.016V0.800032H199.776L211.26 16.172V0.800032H217.29V26Z" fill="white"/>
</svg>
