<svg width="23" height="23" viewBox="0 0 23 23" fill="none" xmlns="http://www.w3.org/2000/svg">
<path d="M2.10569 13.5984C2.04942 13.9334 2.01012 14.2726 2.01012 14.6196C2.01012 18.8422 6.39726 22.2775 11.6855 22.2775C16.9737 22.2775 21.2755 18.8422 21.2755 14.6196C21.2755 14.2726 21.2363 13.9334 21.18 13.5984C22.0091 13.1277 22.5542 12.1982 22.5542 11.1388C22.5542 9.60301 21.4072 8.35407 19.9969 8.35407C19.3524 8.35407 18.7468 8.61712 18.2825 9.0758C16.6755 7.85587 14.5433 7.07993 12.1859 6.98203L13.4093 1.81458L16.1683 2.86573C16.2088 4.3634 17.3333 5.56938 18.7182 5.56938C20.1286 5.56938 21.2755 4.32044 21.2755 2.78469C21.2755 1.24894 20.1286 0 18.7182 0C17.7349 0 16.8894 0.613864 16.4617 1.50203L12.5189 0.000725179L10.862 6.99508C8.63228 7.14737 6.53678 7.91152 5.0032 9.0758C4.53884 8.61712 3.9333 8.35407 3.2888 8.35407C1.87843 8.35407 0.731445 9.60301 0.731445 11.1388C0.731445 12.1982 1.27655 13.1277 2.10569 13.5984V13.5984ZM15.5215 11.1388C16.5791 11.1388 17.4395 12.0757 17.4395 13.2273C17.4395 14.3789 16.5791 15.3158 15.5215 15.3158C14.4639 15.3158 13.6035 14.3789 13.6035 13.2273C13.6035 12.0757 14.4639 11.1388 15.5215 11.1388V11.1388ZM15.2481 17.2888L15.7949 18.5465C14.595 19.1658 13.1739 19.4928 11.6855 19.4928C10.197 19.4928 8.69072 19.1658 7.49079 18.5465L8.03756 17.2886C10.0981 18.3507 13.1876 18.3507 15.2481 17.2888ZM7.76418 11.1388C8.82175 11.1388 9.6822 12.0757 9.6822 13.2273C9.6822 14.3789 8.82175 15.3158 7.76418 15.3158C6.7066 15.3158 5.84616 14.3789 5.84616 13.2273C5.84616 12.0757 6.7066 11.1388 7.76418 11.1388V11.1388Z" fill="#05C2DF"/>
</svg>
