<svg width="24" height="19" viewBox="0 0 24 19" fill="none" xmlns="http://www.w3.org/2000/svg">
<path d="M9.13403 18.2777C8.12294 18.2777 7.08224 18.2028 6.03529 18.0527C4.19131 17.788 2.32468 16.9058 1.79648 16.6416L0.411133 15.9488L1.911 15.4976C3.55055 15.0045 4.54791 14.6986 5.78252 14.2195C4.5463 13.672 3.59354 12.6869 3.13491 11.4136L2.78599 10.4447L3.07212 10.4846C2.80079 10.2345 2.58655 9.98062 2.42047 9.74974C1.82984 8.92917 1.51713 7.92651 1.58366 7.06727L1.64931 6.22157L2.20284 6.4177C1.96933 6.01435 1.80058 5.58359 1.7014 5.1321C1.45969 4.03105 1.66198 2.8613 2.27116 1.83841L2.75334 1.02877L3.39821 1.73724C5.43769 3.97818 8.0209 5.30751 11.0868 5.69666C10.9616 4.90709 11.0554 4.1451 11.366 3.46208C11.7276 2.66681 12.3708 1.99244 13.2257 1.51174C14.175 0.978024 15.3263 0.719404 16.4675 0.783529C17.6782 0.851569 18.7774 1.2665 19.6504 1.98428C20.0768 1.88295 20.3909 1.77477 20.8155 1.62857C21.0709 1.54063 21.3606 1.44077 21.7231 1.32655L23.0588 0.905578L22.1878 3.18111C22.2452 3.1767 22.3045 3.17295 22.3664 3.1705L23.7927 3.11144L22.9497 4.16534C22.9013 4.22571 22.889 4.24284 22.8719 4.2665C22.8039 4.36016 22.7194 4.47666 21.5622 5.89001C21.2725 6.24392 21.1278 6.70487 21.1548 7.18817C21.2573 9.02479 21.011 10.6865 20.4221 12.1269C19.8652 13.4897 19.0022 14.659 17.8573 15.6022C16.4405 16.7692 14.634 17.5682 12.4877 17.9768C11.4349 18.1772 10.3042 18.2777 9.13403 18.2777V18.2777Z" fill="#05C2DF"/>
</svg>
