<?xml version="1.0" encoding="utf-8"?>
<!-- Generator: Adobe Illustrator 26.0.2, SVG Export Plug-In . SVG Version: 6.00 Build 0)  -->
<svg version="1.1" id="Layer_1" xmlns="http://www.w3.org/2000/svg" xmlns:xlink="http://www.w3.org/1999/xlink" x="0px" y="0px"
	 viewBox="0 0 14 14" style="enable-background:new 0 0 14 14;" xml:space="preserve">
<style type="text/css">
	.st0{fill:#05C2DF;}
</style>
<path class="st0" d="M0.9,8.5c0,0.2-0.1,0.4-0.1,0.6C0.8,11.8,3.6,14,7,14c3.4,0,6.2-2.2,6.2-4.8c0-0.2,0-0.4-0.1-0.6
	C13.7,8.2,14,7.7,14,7c0-1-0.7-1.8-1.6-1.8c-0.4,0-0.8,0.2-1.1,0.5c-1-0.8-2.4-1.3-3.9-1.3l0.8-3.2l1.8,0.7c0,0.9,0.7,1.7,1.6,1.7
	c0.9,0,1.6-0.8,1.6-1.8S12.4,0,11.5,0c-0.6,0-1.2,0.4-1.4,0.9L7.6,0L6.5,4.4C5.1,4.5,3.7,5,2.7,5.7C2.4,5.4,2.1,5.2,1.6,5.2
	C0.7,5.2,0,6,0,7C0,7.7,0.3,8.2,0.9,8.5z M9.5,7c0.7,0,1.2,0.6,1.2,1.3s-0.6,1.3-1.2,1.3C8.8,9.6,8.3,9,8.3,8.3S8.8,7,9.5,7z
	 M9.3,10.9l0.4,0.8C8.9,12,8,12.2,7,12.2c-1,0-1.9-0.2-2.7-0.6l0.4-0.8C6,11.5,8,11.5,9.3,10.9z M4.5,7c0.7,0,1.2,0.6,1.2,1.3
	S5.2,9.6,4.5,9.6S3.3,9,3.3,8.3S3.8,7,4.5,7z"/>
</svg>
