<?xml version="1.0" encoding="utf-8"?>
<!-- Generator: Adobe Illustrator 26.0.2, SVG Export Plug-In . SVG Version: 6.00 Build 0)  -->
<svg version="1.1" id="Layer_1" xmlns="http://www.w3.org/2000/svg" xmlns:xlink="http://www.w3.org/1999/xlink" x="0px" y="0px"
	 viewBox="0 0 15 11" style="enable-background:new 0 0 15 11;" xml:space="preserve">
<style type="text/css">
	.st0{fill:#05C2DF;}
</style>
<path class="st0" d="M5.6,11c-0.6,0-1.3,0-2-0.1c-1.2-0.2-2.4-0.7-2.7-0.9L0,9.5l1-0.3C2,8.9,2.7,8.8,3.4,8.4C2.7,8.1,2,7.5,1.7,6.7
	L1.5,6.1l0.2,0C1.5,5.9,1.4,5.8,1.3,5.6C0.9,5.1,0.7,4.5,0.8,4l0-0.5l0.4,0.1C1,3.3,0.9,3,0.8,2.7C0.7,2,0.8,1.3,1.2,0.7l0.3-0.5
	l0.4,0.4c1.3,1.4,3,2.2,4.9,2.5c-0.1-0.5,0-1,0.2-1.4c0.2-0.5,0.6-0.9,1.2-1.2C8.8,0.1,9.6,0,10.3,0c0.8,0,1.5,0.3,2,0.8
	c0.3-0.1,0.5-0.1,0.7-0.2c0.2-0.1,0.3-0.1,0.6-0.2l0.9-0.3L14,1.5c0,0,0.1,0,0.1,0l0.9,0l-0.5,0.7c0,0,0,0,0,0.1
	c0,0.1-0.1,0.1-0.8,1c-0.2,0.2-0.3,0.5-0.3,0.8c0.1,1.2-0.1,2.2-0.5,3.1c-0.4,0.9-0.9,1.6-1.6,2.2c-0.9,0.7-2.1,1.2-3.4,1.5
	C7.1,10.9,6.3,11,5.6,11z"/>
</svg>
