<svg width="52" height="335" viewBox="0 0 52 335" fill="none" xmlns="http://www.w3.org/2000/svg">
<mask id="path-1-outside-1_1_7863" maskUnits="userSpaceOnUse" x="-1.03272" y="-0.867047" width="53.7858" height="336.412" fill="black">
<rect fill="white" x="-1.03272" y="-0.867047" width="53.7858" height="336.412"/>
<path d="M50.6279 320.048L50.7411 333.683L4.06975 318.707L3.92645 301.434L50.3428 285.685L50.456 299.321L16.8143 309.782L16.8174 310.146L50.6279 320.048ZM32.2861 322.745L32.0734 297.11L41.5276 297.031L41.7403 322.667L32.2861 322.745ZM50.3057 281.202L3.7618 281.588L3.59437 261.407C3.56495 257.862 4.01751 254.881 4.95204 252.464C5.88644 250.032 7.21973 248.195 8.95191 246.953C10.684 245.696 12.7318 245.058 15.0953 245.039C16.8074 245.024 18.3711 245.39 19.7864 246.136C21.2016 246.867 22.3921 247.902 23.3578 249.243C24.3083 250.584 24.9729 252.154 25.3515 253.954L25.806 253.95C25.8652 251.95 26.3576 250.127 27.2834 248.483C28.1941 246.839 29.4635 245.526 31.0918 244.542C32.7049 243.559 34.6099 243.059 36.8068 243.04C39.3521 243.019 41.6227 243.667 43.6186 244.984C45.6143 246.286 47.1904 248.151 48.347 250.581C49.5036 253.011 50.0959 255.915 50.1239 259.294L50.3057 281.202ZM40.1103 268.65L40.0612 262.741C40.0436 260.62 39.6365 259.033 38.8399 257.978C38.0281 256.925 36.8419 256.404 35.2813 256.417C34.1905 256.426 33.2683 256.684 32.5149 257.19C31.7615 257.696 31.1917 258.413 30.8054 259.341C30.419 260.253 30.2312 261.353 30.2419 262.641L30.2924 268.732L40.1103 268.65ZM22.4745 268.796L22.4315 263.615C22.4223 262.509 22.24 261.533 21.8845 260.687C21.529 259.842 21.0235 259.187 20.3681 258.723C19.6975 258.243 18.8849 258.008 17.9304 258.016C16.491 258.028 15.3968 258.552 14.6478 259.588C13.8837 260.625 13.5081 261.931 13.5212 263.507L13.5657 268.87L22.4745 268.796ZM26.305 193.558C31.4866 193.515 35.866 194.486 39.4432 196.471C43.0053 198.457 45.7172 201.154 47.5788 204.563C49.4254 207.972 50.3661 211.783 50.401 215.995C50.4362 220.237 49.5514 224.078 47.7465 227.517C45.9264 230.941 43.252 233.676 39.7234 235.72C36.1795 237.75 31.8319 238.786 26.6806 238.829C21.4989 238.872 17.1271 237.908 13.5652 235.937C9.98802 233.952 7.27622 231.262 5.42982 227.868C3.56814 224.459 2.6197 220.634 2.58451 216.391C2.54956 212.179 3.43452 208.354 5.23938 204.915C7.02909 201.475 9.69583 198.733 13.2396 196.689C16.7682 194.644 21.1233 193.601 26.305 193.558ZM26.4128 206.557C23.625 206.58 21.2797 206.971 19.3769 207.729C17.4587 208.472 16.0132 209.568 15.0403 211.015C14.0522 212.448 13.5668 214.209 13.5841 216.3C13.6015 218.391 14.1161 220.152 15.128 221.583C16.1246 222.999 17.5881 224.07 19.5185 224.797C21.4335 225.508 23.7849 225.852 26.5727 225.829C29.3605 225.806 31.7135 225.423 33.6316 224.68C35.5345 223.921 36.98 222.826 37.9681 221.394C38.941 219.946 39.4188 218.177 39.4014 216.086C39.3841 213.995 38.8771 212.242 37.8805 210.826C36.8685 209.395 35.4051 208.323 33.49 207.612C31.5597 206.886 29.2006 206.534 26.4128 206.557ZM2.75602 160.36L2.65119 147.724L32.4683 147.476C36.0137 147.447 39.0888 148.27 41.6937 149.945C44.2833 151.606 46.2952 153.938 47.7292 156.941C49.1481 159.945 49.8741 163.439 49.9072 167.423C49.9405 171.438 49.2727 174.959 47.9038 177.986C46.5198 181.012 44.5469 183.377 41.9852 185.081C39.4082 186.769 36.347 187.627 32.8017 187.657L2.98455 187.904L2.87971 175.268L31.606 175.03C33.0453 175.018 34.3305 174.689 35.4616 174.043C36.5775 173.398 37.4489 172.512 38.076 171.385C38.7029 170.244 39.0104 168.953 38.9984 167.514C38.9864 166.059 38.6575 164.774 38.0119 163.658C37.3662 162.542 36.4802 161.671 35.3537 161.044C34.2121 160.417 32.9217 160.109 31.4823 160.121L2.75602 160.36ZM12.7934 142.907L2.61192 142.991L2.2763 102.538L12.4578 102.453L12.5739 116.453L48.9363 116.151L49.0396 128.605L12.6772 128.907L12.7934 142.907ZM1.90254 57.4882L1.79771 44.8523L31.6149 44.6049C35.1602 44.5755 38.2353 45.3985 40.8402 47.0739C43.4298 48.7343 45.4417 51.0662 46.8757 54.0696C48.2946 57.0731 49.0206 60.5671 49.0537 64.5519C49.087 68.5669 48.4192 72.0877 47.0503 75.1143C45.6663 78.141 43.6934 80.506 41.1317 82.2091C38.5547 83.8972 35.4936 84.756 31.9482 84.7854L2.13107 85.0328L2.02623 72.3968L30.7525 72.1585C32.1919 72.1466 33.4771 71.8177 34.6081 71.1719C35.724 70.5263 36.5955 69.6402 37.2225 68.5138C37.8494 67.3722 38.1569 66.0817 38.145 64.6424C38.1329 63.1879 37.804 61.9027 37.1584 60.7868C36.5128 59.6709 35.6267 58.7994 34.5003 58.1724C33.3586 57.5455 32.0682 57.238 30.6288 57.2499L1.90254 57.4882ZM16.0847 13.6361C14.5706 13.7699 13.3935 14.3479 12.5535 15.37C11.7133 16.377 11.3017 17.9032 11.3187 19.9486C11.3295 21.2516 11.4975 22.3184 11.8225 23.1491C12.1324 23.9647 12.554 24.5673 13.0876 24.9568C13.6211 25.3464 14.2289 25.5459 14.9108 25.5554C15.4716 25.581 15.9784 25.4783 16.431 25.2473C16.8684 25.0012 17.2667 24.6191 17.6261 24.101C17.9703 23.5829 18.283 22.9212 18.5642 22.1158C18.8454 21.3105 19.0951 20.3538 19.3131 19.2459L20.0996 15.4211C20.6237 12.8409 21.3251 10.6304 22.2038 8.78974C23.0825 6.94905 24.123 5.44037 25.3254 4.26369C26.5127 3.08713 27.854 2.21991 29.3494 1.66203C30.8447 1.089 32.4786 0.787553 34.2512 0.757695C37.3118 0.747455 39.909 1.49109 42.0427 2.98859C44.1764 4.48609 45.808 6.63929 46.9374 9.4482C48.0666 12.242 48.6476 15.6085 48.6803 19.5477C48.7139 23.593 48.1447 27.1282 46.9728 30.1532C45.8007 33.163 43.9792 35.5115 41.5083 37.1987C39.0221 38.8709 35.8322 39.7308 31.9385 39.7782L31.8389 27.7786C33.2625 27.6911 34.4565 27.3251 35.4208 26.6807C36.3852 26.0363 37.1126 25.1363 37.6031 23.9807C38.0934 22.8099 38.3319 21.4215 38.3185 19.8155C38.3073 18.4671 38.1313 17.3397 37.7905 16.4334C37.4496 15.5271 36.9818 14.8416 36.387 14.3768C35.7922 13.912 35.116 13.6752 34.3583 13.6663C33.6463 13.6874 33.0271 13.9274 32.5006 14.3863C31.9588 14.8302 31.48 15.5615 31.0642 16.5801C30.6332 17.5989 30.2355 18.9735 29.8711 20.7038L28.9096 25.3483C28.0498 29.4768 26.5844 32.7391 24.5133 35.1351C22.427 37.5162 19.5656 38.7142 15.9292 38.7292C12.9749 38.7689 10.3851 38.0024 8.15987 36.4299C5.91935 34.8424 4.16615 32.6372 2.90026 29.8142C1.63425 26.9762 0.985967 23.7163 0.955422 20.0346C0.924248 16.2771 1.52605 13.022 2.76083 10.2693C3.99561 7.51651 5.75075 5.38824 8.02623 3.88446C10.2864 2.36566 12.9391 1.58605 15.9844 1.54563L16.0847 13.6361Z"/>
</mask>
<path d="M50.6279 320.048L51.6279 320.039L51.6217 319.297L50.909 319.088L50.6279 320.048ZM50.7411 333.683L50.4355 334.636L51.7525 335.058L51.741 333.675L50.7411 333.683ZM4.06975 318.707L3.06979 318.715L3.07579 319.438L3.7642 319.659L4.06975 318.707ZM3.92645 301.434L3.60514 300.487L2.92049 300.72L2.92649 301.443L3.92645 301.434ZM50.3428 285.685L51.3428 285.677L51.3313 284.294L50.0215 284.738L50.3428 285.685ZM50.456 299.321L50.7529 300.276L51.4621 300.055L51.4559 299.313L50.456 299.321ZM16.8143 309.782L16.5174 308.827L15.8082 309.048L15.8144 309.791L16.8143 309.782ZM16.8174 310.146L15.8174 310.154L15.8236 310.897L16.5363 311.106L16.8174 310.146ZM32.2861 322.745L31.2861 322.754L31.2944 323.754L32.2943 323.745L32.2861 322.745ZM32.0734 297.11L32.0651 296.11L31.0651 296.118L31.0734 297.118L32.0734 297.11ZM41.5276 297.031L42.5275 297.023L42.5193 296.023L41.5193 296.031L41.5276 297.031ZM41.7403 322.667L41.7486 323.667L42.7485 323.659L42.7402 322.659L41.7403 322.667ZM49.628 320.056L49.7411 333.692L51.741 333.675L51.6279 320.039L49.628 320.056ZM51.0466 332.731L4.37531 317.754L3.7642 319.659L50.4355 334.636L51.0466 332.731ZM5.06972 318.698L4.92642 301.426L2.92649 301.443L3.06979 318.715L5.06972 318.698ZM4.24777 302.381L50.6642 286.632L50.0215 284.738L3.60514 300.487L4.24777 302.381ZM49.3429 285.693L49.456 299.329L51.4559 299.313L51.3428 285.677L49.3429 285.693ZM50.159 298.366L16.5174 308.827L17.1113 310.737L50.7529 300.276L50.159 298.366ZM15.8144 309.791L15.8174 310.154L17.8173 310.138L17.8143 309.774L15.8144 309.791ZM16.5363 311.106L50.3469 321.007L50.909 319.088L17.0984 309.186L16.5363 311.106ZM33.286 322.737L33.0733 297.102L31.0734 297.118L31.2861 322.754L33.286 322.737ZM32.0817 298.11L41.5359 298.031L41.5193 296.031L32.0651 296.11L32.0817 298.11ZM40.5276 297.04L40.7403 322.675L42.7402 322.659L42.5275 297.023L40.5276 297.04ZM41.732 321.667L32.2778 321.745L32.2943 323.745L41.7486 323.667L41.732 321.667ZM50.3057 281.202L50.314 282.202L51.3139 282.194L51.3056 281.194L50.3057 281.202ZM3.7618 281.588L2.76184 281.597L2.77013 282.597L3.7701 282.588L3.7618 281.588ZM4.95204 252.464L5.88475 252.825L5.88551 252.823L4.95204 252.464ZM8.95191 246.953L9.53453 247.766L9.53921 247.763L8.95191 246.953ZM19.7864 246.136L19.3202 247.021L19.3276 247.025L19.7864 246.136ZM23.3578 249.243L24.1735 248.665L24.1691 248.658L23.3578 249.243ZM25.3515 253.954L24.3729 254.16L24.5413 254.961L25.3598 254.954L25.3515 253.954ZM25.806 253.95L25.8143 254.95L26.7771 254.942L26.8056 253.98L25.806 253.95ZM27.2834 248.483L28.1548 248.974L28.1582 248.968L27.2834 248.483ZM31.0918 244.542L31.6087 245.398L31.6122 245.396L31.0918 244.542ZM43.6186 244.984L43.0679 245.819L43.0723 245.821L43.6186 244.984ZM48.347 250.581L47.4441 251.011L48.347 250.581ZM40.1103 268.65L40.1186 269.65L41.1185 269.642L41.1102 268.642L40.1103 268.65ZM38.8399 257.978L39.6377 257.376L39.6321 257.368L38.8399 257.978ZM30.8054 259.341L31.7263 259.731L31.7286 259.725L30.8054 259.341ZM30.2924 268.732L29.2924 268.74L29.3007 269.74L30.3007 269.732L30.2924 268.732ZM22.4745 268.796L22.4828 269.796L23.4828 269.788L23.4745 268.788L22.4745 268.796ZM21.8845 260.687L22.8063 260.3L21.8845 260.687ZM20.3681 258.723L19.7867 259.536L19.7901 259.539L20.3681 258.723ZM14.6478 259.588L15.4528 260.182L15.4584 260.174L14.6478 259.588ZM13.5657 268.87L12.5658 268.879L12.574 269.879L13.574 269.87L13.5657 268.87ZM50.2974 280.202L3.7535 280.589L3.7701 282.588L50.314 282.202L50.2974 280.202ZM4.76177 281.58L4.59433 261.399L2.5944 261.416L2.76184 281.597L4.76177 281.58ZM4.59433 261.399C4.56561 257.936 5.0091 255.089 5.88474 252.825L4.01933 252.103C3.02593 254.673 2.5643 257.788 2.5944 261.416L4.59433 261.399ZM5.88551 252.823C6.76554 250.532 7.99335 248.871 9.53452 247.766L8.3693 246.141C6.4461 247.519 5.00733 249.532 4.01856 252.105L5.88551 252.823ZM9.53921 247.763C11.0853 246.641 12.9254 246.057 15.1036 246.039L15.087 244.039C12.5381 244.06 10.2827 244.752 8.36461 246.144L9.53921 247.763ZM15.1036 246.039C16.6624 246.026 18.0613 246.357 19.3202 247.021L20.2526 245.251C18.6809 244.423 16.9524 244.023 15.087 244.039L15.1036 246.039ZM19.3276 247.025C20.5977 247.68 21.6691 248.61 22.5464 249.828L24.1691 248.658C23.115 247.195 21.8055 246.053 20.2452 245.248L19.3276 247.025ZM22.542 249.821C23.4044 251.038 24.0191 252.478 24.3729 254.16L26.33 253.748C25.9266 251.83 25.2122 250.13 24.1735 248.665L22.542 249.821ZM25.3598 254.954L25.8143 254.95L25.7977 252.95L25.3432 252.954L25.3598 254.954ZM26.8056 253.98C26.8602 252.131 27.3132 250.468 28.1548 248.974L26.4121 247.992C25.402 249.786 24.8701 251.768 24.8064 253.921L26.8056 253.98ZM28.1582 248.968C28.983 247.479 30.1282 246.292 31.6087 245.398L30.5748 243.686C28.7988 244.759 27.4051 246.2 26.4087 247.999L28.1582 248.968ZM31.6122 245.396C33.0473 244.522 34.7691 244.057 36.8151 244.04L36.7985 242.04C34.4507 242.06 32.3625 242.597 30.5713 243.688L31.6122 245.396ZM36.8151 244.04C39.1753 244.021 41.2487 244.618 43.0679 245.819L44.1693 244.149C41.9968 242.716 39.529 242.018 36.7985 242.04L36.8151 244.04ZM43.0723 245.821C44.8946 247.01 46.3561 248.725 47.4441 251.011L49.2499 250.151C48.0248 247.577 46.334 245.561 44.1649 244.146L43.0723 245.821ZM47.4441 251.011C48.524 253.28 49.0968 256.033 49.1239 259.302L51.1239 259.286C51.0949 255.797 50.4831 252.742 49.2499 250.151L47.4441 251.011ZM49.1239 259.302L49.3057 281.211L51.3056 281.194L51.1239 259.286L49.1239 259.302ZM41.1102 268.642L41.0612 262.733L39.0613 262.75L39.1103 268.658L41.1102 268.642ZM41.0612 262.733C41.0428 260.517 40.6212 258.677 39.6376 257.376L38.0421 258.581C38.6519 259.388 39.0445 260.723 39.0613 262.75L41.0612 262.733ZM39.6321 257.368C38.5947 256.021 37.0855 255.402 35.273 255.417L35.2896 257.417C36.5983 257.406 37.4615 257.828 38.0476 258.589L39.6321 257.368ZM35.273 255.417C34.0264 255.427 32.9035 255.724 31.9572 256.36L33.0727 258.02C33.6332 257.643 34.3545 257.425 35.2896 257.417L35.273 255.417ZM31.9572 256.36C31.0237 256.987 30.3356 257.868 29.8823 258.956L31.7286 259.725C32.0478 258.959 32.4993 258.405 33.0727 258.02L31.9572 256.36ZM29.8846 258.951C29.4315 260.021 29.2304 261.264 29.2419 262.649L31.2418 262.633C31.232 261.442 31.4066 260.485 31.7263 259.731L29.8846 258.951ZM29.2419 262.649L29.2924 268.74L31.2924 268.723L31.2418 262.633L29.2419 262.649ZM30.3007 269.732L40.1186 269.65L40.102 267.65L30.2841 267.732L30.3007 269.732ZM23.4745 268.788L23.4315 263.607L21.4315 263.623L21.4745 268.805L23.4745 268.788ZM23.4315 263.607C23.4214 262.396 23.2216 261.288 22.8063 260.3L20.9626 261.075C21.2584 261.778 21.4232 262.621 21.4315 263.623L23.4315 263.607ZM22.8063 260.3C22.389 259.307 21.7746 258.494 20.9462 257.907L19.7901 259.539C20.2724 259.88 20.669 260.377 20.9626 261.075L22.8063 260.3ZM20.9496 257.909C20.0808 257.288 19.0533 257.006 17.9221 257.016L17.9387 259.016C18.7164 259.009 19.3141 259.199 19.7867 259.536L20.9496 257.909ZM17.9221 257.016C16.2106 257.03 14.798 257.673 13.8373 259.003L15.4584 260.174C15.9957 259.43 16.7714 259.025 17.9387 259.016L17.9221 257.016ZM13.8429 258.995C12.9238 260.242 12.5068 261.773 12.5213 263.515L14.5212 263.499C14.5095 262.09 14.8435 261.008 15.4528 260.182L13.8429 258.995ZM12.5213 263.515L12.5658 268.879L14.5657 268.862L14.5212 263.499L12.5213 263.515ZM13.574 269.87L22.4828 269.796L22.4662 267.796L13.5574 267.87L13.574 269.87ZM39.4432 196.471L39.9302 195.598L39.9285 195.597L39.4432 196.471ZM47.5788 204.563L48.4581 204.087L48.4565 204.084L47.5788 204.563ZM47.7465 227.517L48.6296 227.987L48.632 227.982L47.7465 227.517ZM39.7234 235.72L40.2204 236.588L40.2248 236.586L39.7234 235.72ZM13.5652 235.937L13.0799 236.812L13.0811 236.812L13.5652 235.937ZM5.42982 227.868L6.30824 227.39L6.30747 227.389L5.42982 227.868ZM5.23938 204.915L6.12487 205.379L6.12646 205.376L5.23938 204.915ZM13.2396 196.689L13.7393 197.555L13.7409 197.554L13.2396 196.689ZM19.3769 207.729L19.7382 208.662L19.747 208.658L19.3769 207.729ZM15.0403 211.015L15.8635 211.583L15.8703 211.573L15.0403 211.015ZM15.128 221.583L15.9458 221.007L15.9445 221.006L15.128 221.583ZM19.5185 224.797L19.1662 225.733L19.1702 225.734L19.5185 224.797ZM33.6316 224.68L33.9929 225.612L34.0018 225.609L33.6316 224.68ZM37.9681 221.394L38.7913 221.961L38.7981 221.951L37.9681 221.394ZM37.8805 210.826L38.6982 210.25L38.697 210.248L37.8805 210.826ZM33.49 207.612L33.1378 208.548L33.1418 208.549L33.49 207.612ZM26.3133 194.557C31.3675 194.516 35.5668 195.463 38.9579 197.346L39.9285 195.597C36.1653 193.508 31.6058 192.514 26.2967 192.558L26.3133 194.557ZM38.9563 197.345C42.3622 199.243 44.9346 201.808 46.7012 205.043L48.4565 204.084C46.4997 200.501 43.6484 197.671 39.9301 195.598L38.9563 197.345ZM46.6995 205.04C48.4616 208.293 49.3674 211.94 49.4011 216.003L51.401 215.986C51.3648 211.625 50.3891 207.652 48.4581 204.087L46.6995 205.04ZM49.4011 216.003C49.435 220.096 48.5825 223.772 46.8611 227.053L48.632 227.982C50.5203 224.384 51.4374 220.378 51.401 215.986L49.4011 216.003ZM46.8635 227.048C45.1357 230.298 42.5977 232.899 39.2221 234.855L40.2248 236.586C43.9063 234.453 46.7171 231.585 48.6296 227.987L46.8635 227.048ZM39.2265 234.853C35.8655 236.777 31.6962 237.787 26.6723 237.829L26.6889 239.829C31.9677 239.785 36.4936 238.722 40.2204 236.588L39.2265 234.853ZM26.6723 237.829C21.6167 237.871 17.4249 236.93 14.0493 235.062L13.0811 236.812C16.8294 238.886 21.3811 239.873 26.6889 239.829L26.6723 237.829ZM14.0505 235.063C10.6291 233.164 8.05846 230.607 6.30824 227.39L4.5514 228.346C6.49398 231.917 9.34694 234.74 13.0799 236.812L14.0505 235.063ZM6.30747 227.389C4.53185 224.138 3.61843 220.476 3.58447 216.383L1.58454 216.4C1.62097 220.791 2.60443 224.781 4.55217 228.348L6.30747 227.389ZM3.58447 216.383C3.55077 212.322 4.40288 208.661 6.12486 205.379L4.3539 204.45C2.46615 208.047 1.54835 212.037 1.58454 216.4L3.58447 216.383ZM6.12646 205.376C7.82327 202.115 10.351 199.51 13.7393 197.555L12.7398 195.823C9.04064 197.957 6.23492 200.835 4.3523 204.453L6.12646 205.376ZM13.7409 197.554C17.0843 195.617 21.2589 194.599 26.3133 194.557L26.2967 192.558C20.9878 192.602 16.4521 193.672 12.7383 195.824L13.7409 197.554ZM26.4045 205.557C23.5346 205.581 21.0581 205.983 19.0067 206.8L19.747 208.658C21.5013 207.959 23.7155 207.579 26.4211 207.557L26.4045 205.557ZM19.0156 206.797C16.9417 207.6 15.3168 208.811 14.2104 210.457L15.8703 211.573C16.7096 210.324 17.9758 209.344 19.7381 208.662L19.0156 206.797ZM14.2172 210.447C13.0903 212.081 12.5655 214.054 12.5842 216.309L14.5841 216.292C14.5681 214.364 15.014 212.814 15.8635 211.583L14.2172 210.447ZM12.5842 216.309C12.6029 218.563 13.1606 220.533 14.3115 222.16L15.9445 221.006C15.0716 219.771 14.6001 218.219 14.5841 216.292L12.5842 216.309ZM14.3102 222.159C15.443 223.768 17.0847 224.949 19.1662 225.733L19.8707 223.861C18.0916 223.191 16.8063 222.23 15.9458 221.007L14.3102 222.159ZM19.1702 225.734C21.2326 226.5 23.713 226.853 26.581 226.829L26.5644 224.829C23.8569 224.852 21.6344 224.516 19.8667 223.859L19.1702 225.734ZM26.581 226.829C29.4494 226.805 31.93 226.411 33.9929 225.612L33.2703 223.747C31.497 224.434 29.2716 224.807 26.5644 224.829L26.581 226.829ZM34.0018 225.609C36.0548 224.791 37.6724 223.583 38.7913 221.961L37.145 220.826C36.2876 222.069 35.0141 223.052 33.2614 223.751L34.0018 225.609ZM38.7981 221.951C39.9042 220.306 40.4201 218.329 40.4014 216.078L38.4015 216.094C38.4175 218.024 37.9778 219.586 37.1382 220.836L38.7981 221.951ZM40.4014 216.078C40.3827 213.827 39.8343 211.864 38.6982 210.25L37.0627 211.401C37.9199 212.619 38.3854 214.164 38.4015 216.094L40.4014 216.078ZM38.697 210.248C37.5505 208.627 35.91 207.444 33.8382 206.675L33.1418 208.549C34.9002 209.203 36.1866 210.162 37.064 211.403L38.697 210.248ZM33.8422 206.676C31.764 205.894 29.2748 205.533 26.4045 205.557L26.4211 207.557C29.1264 207.535 31.3554 207.877 33.1378 208.548L33.8422 206.676ZM2.75602 160.36L1.75606 160.368L1.76435 161.368L2.76432 161.36L2.75602 160.36ZM2.65119 147.724L2.64289 146.724L1.64292 146.732L1.65122 147.732L2.65119 147.724ZM41.6937 149.945L41.1527 150.786L41.1539 150.787L41.6937 149.945ZM47.7292 156.941L48.6334 156.514L48.6316 156.51L47.7292 156.941ZM47.9038 177.986L48.8132 178.402L48.8149 178.398L47.9038 177.986ZM41.9852 185.081L42.5332 185.917L42.5388 185.913L41.9852 185.081ZM2.98455 187.904L1.98458 187.913L1.99288 188.912L2.99284 188.904L2.98455 187.904ZM2.87971 175.268L2.87141 174.268L1.87145 174.277L1.87975 175.277L2.87971 175.268ZM35.4616 174.043L35.9574 174.912L35.9624 174.909L35.4616 174.043ZM38.076 171.385L38.9497 171.872L38.9525 171.867L38.076 171.385ZM38.0119 163.658L38.8774 163.157L38.0119 163.658ZM35.3537 161.044L35.8401 160.17L35.8351 160.167L35.3537 161.044ZM3.75599 160.351L3.65115 147.715L1.65122 147.732L1.75606 160.368L3.75599 160.351ZM2.65948 148.724L32.4766 148.476L32.46 146.476L2.64289 146.724L2.65948 148.724ZM32.4766 148.476C35.8563 148.448 38.7343 149.231 41.1527 150.786L42.2346 149.104C39.4433 147.309 36.1711 146.446 32.46 146.476L32.4766 148.476ZM41.1539 150.787C43.5739 152.339 45.4662 154.522 46.8268 157.372L48.6316 156.51C47.1241 153.353 44.9927 150.873 42.2334 149.104L41.1539 150.787ZM46.825 157.368C48.1709 160.217 48.8751 163.563 48.9072 167.432L50.9071 167.415C50.8731 163.314 50.1253 159.672 48.6334 156.514L46.825 157.368ZM48.9072 167.432C48.9395 171.331 48.2907 174.704 46.9927 177.574L48.8149 178.398C50.2547 175.215 50.9414 171.545 50.9071 167.415L48.9072 167.432ZM46.9944 177.57C45.6812 180.442 43.8255 182.656 41.4315 184.248L42.5388 185.913C45.2683 184.099 47.3583 181.583 48.8132 178.402L46.9944 177.57ZM41.4372 184.244C39.0438 185.812 36.1765 186.629 32.7934 186.657L32.81 188.657C36.5175 188.626 39.7726 187.725 42.5332 185.917L41.4372 184.244ZM32.7934 186.657L2.97625 186.904L2.99284 188.904L32.81 188.657L32.7934 186.657ZM3.98451 187.896L3.87968 175.26L1.87975 175.277L1.98458 187.913L3.98451 187.896ZM2.88801 176.268L31.6143 176.03L31.5977 174.03L2.87141 174.268L2.88801 176.268ZM31.6143 176.03C33.2063 176.017 34.6626 175.651 35.9574 174.912L34.9658 173.175C33.9985 173.727 32.8844 174.019 31.5977 174.03L31.6143 176.03ZM35.9624 174.909C37.2345 174.173 38.2349 173.156 38.9497 171.872L37.2022 170.899C36.663 171.868 35.9204 172.623 34.9608 173.178L35.9624 174.909ZM38.9525 171.867C39.6702 170.56 40.0116 169.098 39.9984 167.506L37.9985 167.522C38.0092 168.809 37.7356 169.928 37.1995 170.904L38.9525 171.867ZM39.9984 167.506C39.9851 165.901 39.6204 164.442 38.8774 163.157L37.1463 164.159C37.6946 165.107 37.9877 166.218 37.9985 167.522L39.9984 167.506ZM38.8774 163.157C38.1414 161.885 37.1243 160.885 35.8401 160.17L34.8674 161.918C35.8361 162.457 36.5911 163.199 37.1463 164.159L38.8774 163.157ZM35.8351 160.167C34.5282 159.45 33.066 159.108 31.474 159.121L31.4906 161.121C32.7773 161.111 33.8961 161.384 34.8724 161.92L35.8351 160.167ZM31.474 159.121L2.74773 159.36L2.76432 161.36L31.4906 161.121L31.474 159.121ZM12.7934 142.907L12.8017 143.906L13.8017 143.898L13.7934 142.898L12.7934 142.907ZM2.61192 142.991L1.61196 142.999L1.62025 143.999L2.62022 143.991L2.61192 142.991ZM2.2763 102.538L2.268 101.538L1.26804 101.546L1.27633 102.546L2.2763 102.538ZM12.4578 102.453L13.4577 102.445L13.4494 101.445L12.4495 101.453L12.4578 102.453ZM12.5739 116.453L11.574 116.461L11.5822 117.461L12.5822 117.453L12.5739 116.453ZM48.9363 116.151L49.9363 116.143L49.928 115.143L48.928 115.151L48.9363 116.151ZM49.0396 128.605L49.0479 129.605L50.0479 129.597L50.0396 128.597L49.0396 128.605ZM12.6772 128.907L12.6689 127.907L11.669 127.915L11.6773 128.915L12.6772 128.907ZM12.7851 141.907L2.60362 141.991L2.62022 143.991L12.8017 143.906L12.7851 141.907ZM3.61189 142.983L3.27627 102.53L1.27633 102.546L1.61196 142.999L3.61189 142.983ZM2.2846 103.538L12.4661 103.453L12.4495 101.453L2.268 101.538L2.2846 103.538ZM11.4578 102.462L11.574 116.461L13.5739 116.445L13.4577 102.445L11.4578 102.462ZM12.5822 117.453L48.9446 117.151L48.928 115.151L12.5656 115.453L12.5822 117.453ZM47.9363 116.159L48.0397 128.614L50.0396 128.597L49.9363 116.143L47.9363 116.159ZM49.0313 127.605L12.6689 127.907L12.6855 129.907L49.0479 129.605L49.0313 127.605ZM11.6773 128.915L11.7934 142.915L13.7934 142.898L13.6772 128.899L11.6773 128.915ZM1.90254 57.4882L0.902578 57.4965L0.910874 58.4965L1.91084 58.4882L1.90254 57.4882ZM1.79771 44.8523L1.78941 43.8524L0.789448 43.8606L0.797744 44.8606L1.79771 44.8523ZM40.8402 47.074L40.2993 47.915L40.3005 47.9158L40.8402 47.074ZM46.8757 54.0696L47.7799 53.6424L47.7781 53.6387L46.8757 54.0696ZM47.0503 75.1143L47.9598 75.5302L47.9615 75.5264L47.0503 75.1143ZM41.1317 82.2091L41.6797 83.0456L41.6854 83.0418L41.1317 82.2091ZM2.13107 85.0328L1.1311 85.0411L1.1394 86.041L2.13936 86.0327L2.13107 85.0328ZM2.02623 72.3968L2.01794 71.3969L1.01797 71.4052L1.02627 72.4051L2.02623 72.3968ZM34.6081 71.1719L35.1039 72.0404L35.1089 72.0375L34.6081 71.1719ZM37.2225 68.5138L38.0963 69.0002L38.099 68.9951L37.2225 68.5138ZM37.1584 60.7868L38.024 60.286L37.1584 60.7868ZM34.5003 58.1724L34.9866 57.2986L34.9816 57.2959L34.5003 58.1724ZM2.90251 57.4799L2.79768 44.844L0.797744 44.8606L0.902578 57.4965L2.90251 57.4799ZM1.80601 45.8523L31.6232 45.6049L31.6066 43.605L1.78941 43.8524L1.80601 45.8523ZM31.6232 45.6049C35.0028 45.5769 37.8808 46.3595 40.2993 47.915L41.3812 46.2329C38.5898 44.4375 35.3176 43.5742 31.6066 43.605L31.6232 45.6049ZM40.3005 47.9158C42.7205 49.4674 44.6127 51.6509 45.9733 54.5004L47.7781 53.6387C46.2707 50.4815 44.1392 48.0013 41.38 46.2321L40.3005 47.9158ZM45.9716 54.4967C47.3174 57.3456 48.0216 60.6919 48.0537 64.5602L50.0536 64.5436C50.0196 60.4424 49.2718 56.8005 47.7799 53.6424L45.9716 54.4967ZM48.0537 64.5602C48.0861 68.46 47.4372 71.8323 46.1392 74.7022L47.9615 75.5264C49.4012 72.3431 50.0879 68.6738 50.0536 64.5436L48.0537 64.5602ZM46.1409 74.6984C44.8277 77.5702 42.972 79.7848 40.5781 81.3764L41.6854 83.0418C44.4149 81.2272 46.5049 78.7119 47.9598 75.5302L46.1409 74.6984ZM40.5838 81.3726C38.1904 82.9404 35.3231 83.7573 31.9399 83.7854L31.9565 85.7853C35.6641 85.7546 38.9191 84.854 41.6797 83.0456L40.5838 81.3726ZM31.9399 83.7854L2.12277 84.0328L2.13936 86.0327L31.9565 85.7853L31.9399 83.7854ZM3.13103 85.0245L3.0262 72.3885L1.02627 72.4051L1.1311 85.0411L3.13103 85.0245ZM2.03453 73.3968L30.7608 73.1585L30.7442 71.1585L2.01794 71.3969L2.03453 73.3968ZM30.7608 73.1585C32.3528 73.1453 33.8091 72.7796 35.1039 72.0403L34.1123 70.3035C33.145 70.8557 32.0309 71.1479 30.7442 71.1585L30.7608 73.1585ZM35.1089 72.0375C36.3811 71.3014 37.3814 70.2844 38.0963 69.0002L36.3488 68.0274C35.8095 68.9961 35.0669 69.7511 34.1073 70.3064L35.1089 72.0375ZM38.099 68.9951C38.8167 67.6882 39.1581 66.2261 39.1449 64.6341L37.145 64.6507C37.1557 65.9373 36.8821 67.0562 36.346 68.0324L38.099 68.9951ZM39.1449 64.6341C39.1316 63.0291 38.7669 61.5701 38.024 60.286L36.2928 61.2876C36.8412 62.2353 37.1342 63.3466 37.145 64.6507L39.1449 64.6341ZM38.024 60.286C37.2879 59.0138 36.2708 58.0135 34.9866 57.2986L34.0139 59.0461C34.9826 59.5854 35.7376 60.328 36.2928 61.2876L38.024 60.286ZM34.9816 57.2959C33.6747 56.5782 32.2126 56.2367 30.6205 56.2499L30.6371 58.2499C31.9238 58.2392 33.0426 58.5128 34.0189 59.0489L34.9816 57.2959ZM30.6205 56.2499L1.89425 56.4883L1.91084 58.4882L30.6371 58.2499L30.6205 56.2499ZM16.0847 13.6361L16.1727 14.6323L17.0923 14.551L17.0846 13.6278L16.0847 13.6361ZM12.5535 15.37L13.3214 16.0107L13.3261 16.0049L12.5535 15.37ZM11.8225 23.1491L12.7574 22.794L12.7538 22.7846L11.8225 23.1491ZM13.0876 24.9568L12.4979 25.7645L12.4979 25.7645L13.0876 24.9568ZM14.9108 25.5554L14.9565 24.5564L14.9406 24.5557L14.9247 24.5555L14.9108 25.5554ZM16.431 25.2473L16.8856 26.138L16.9037 26.1288L16.9213 26.1188L16.431 25.2473ZM17.6261 24.101L18.4478 24.6709L18.4535 24.6627L18.459 24.6544L17.6261 24.101ZM19.3131 19.2459L18.3336 19.0445L18.332 19.0528L19.3131 19.2459ZM20.0996 15.4211L21.0791 15.6225L21.0796 15.6201L20.0996 15.4211ZM22.2038 8.78975L23.1062 9.22054L22.2038 8.78975ZM25.3254 4.2637L26.0249 4.97841L26.0293 4.97398L25.3254 4.2637ZM29.3494 1.66202L29.699 2.599L29.7073 2.59582L29.3494 1.66202ZM34.2512 0.757702L34.2478 -0.242396L34.2343 -0.242162L34.2512 0.757702ZM42.0427 2.98858L42.6172 2.17006L42.0427 2.98858ZM46.9374 9.44819L46.0096 9.82126L46.0102 9.82296L46.9374 9.44819ZM46.9728 30.1532L47.9046 30.516L47.9052 30.5144L46.9728 30.1532ZM41.5083 37.1988L42.0664 38.0285L42.0722 38.0246L41.5083 37.1988ZM31.9385 39.7782L30.9385 39.7865L30.9468 40.7904L31.9507 40.7782L31.9385 39.7782ZM31.8389 27.7786L31.7775 26.7805L30.8311 26.8387L30.839 27.7869L31.8389 27.7786ZM35.4208 26.6807L35.9764 27.5122L35.4208 26.6807ZM37.6031 23.9807L38.5236 24.3714L38.5254 24.367L37.6031 23.9807ZM37.7905 16.4334L38.7264 16.0814L37.7905 16.4334ZM36.387 14.3768L37.0027 13.5889L36.387 14.3768ZM34.3583 13.6663L34.37 12.6664L34.3493 12.6662L34.3287 12.6668L34.3583 13.6663ZM32.5006 14.3863L33.1343 15.1599L33.1461 15.1502L33.1576 15.1402L32.5006 14.3863ZM31.0642 16.5801L31.9852 16.9697L31.99 16.958L31.0642 16.5801ZM29.8711 20.7038L28.8925 20.4977L28.8918 20.5011L29.8711 20.7038ZM28.9096 25.3483L29.8886 25.5522L29.8888 25.551L28.9096 25.3483ZM24.5133 35.1351L25.2655 35.7942L25.2699 35.7891L24.5133 35.1351ZM15.9292 38.7292L15.9251 37.7292L15.9158 37.7293L15.9292 38.7292ZM8.15987 36.4299L7.58174 37.2459L7.58276 37.2466L8.15987 36.4299ZM2.90026 29.8142L1.987 30.2216L1.9878 30.2234L2.90026 29.8142ZM2.76083 10.2693L3.67324 10.6785L2.76083 10.2693ZM8.02623 3.88447L8.57759 4.71876L8.58398 4.71446L8.02623 3.88447ZM15.9844 1.54563L16.9843 1.53733L16.976 0.532392L15.9711 0.545734L15.9844 1.54563ZM15.9967 12.64C14.2585 12.7936 12.8172 13.4742 11.7809 14.7351L13.3261 16.0049C13.9699 15.2215 14.8827 14.7462 16.1727 14.6323L15.9967 12.64ZM11.7856 14.7294C10.7288 15.9961 10.3008 17.8006 10.3187 19.9569L12.3187 19.9403C12.3026 18.0059 12.6978 16.758 13.3213 16.0107L11.7856 14.7294ZM10.3187 19.9569C10.3301 21.3306 10.5063 22.5298 10.8913 23.5135L12.7538 22.7846C12.4886 22.107 12.3289 21.1725 12.3187 19.9403L10.3187 19.9569ZM10.8877 23.5042C11.2447 24.444 11.765 25.2294 12.4979 25.7645L13.6772 24.1492C13.343 23.9052 13.02 23.4855 12.7574 22.794L10.8877 23.5042ZM12.4979 25.7645C13.2045 26.2804 14.0149 26.543 14.8969 26.5553L14.9247 24.5555C14.4428 24.5487 14.0377 24.4124 13.6772 24.1492L12.4979 25.7645ZM14.8651 26.5543C15.5807 26.587 16.2627 26.456 16.8856 26.138L15.9764 24.3566C15.6941 24.5007 15.3626 24.575 14.9565 24.5564L14.8651 26.5543ZM16.9213 26.1188C17.52 25.782 18.0238 25.2823 18.4478 24.6709L16.8044 23.5311C16.5097 23.956 16.2168 24.2204 15.9407 24.3758L16.9213 26.1188ZM18.459 24.6544C18.863 24.0464 19.209 23.3028 19.5083 22.4455L17.6201 21.7862C17.357 22.5396 17.0776 23.1195 16.7932 23.5475L18.459 24.6544ZM19.5083 22.4455C19.8091 21.5839 20.0698 20.5794 20.2943 19.439L18.332 19.0528C18.1203 20.1282 17.8817 21.037 17.6201 21.7862L19.5083 22.4455ZM20.2927 19.4473L21.0791 15.6225L19.1201 15.2196L18.3336 19.0445L20.2927 19.4473ZM21.0796 15.6201C21.5919 13.0982 22.2712 10.9697 23.1062 9.22054L21.3013 8.35893C20.3789 10.2911 19.6555 12.5836 19.1196 15.222L21.0796 15.6201ZM23.1062 9.22054C23.9448 7.46389 24.9219 6.05773 26.0248 4.97841L24.626 3.54899C23.3241 4.82301 22.2201 6.43422 21.3013 8.35893L23.1062 9.22054ZM26.0293 4.97398C27.1207 3.89241 28.3427 3.10493 29.699 2.59897L28.9999 0.725095C27.3654 1.3349 25.9046 2.28183 24.6215 3.55339L26.0293 4.97398ZM29.7073 2.59582C31.0826 2.06876 32.5997 1.78566 34.268 1.75757L34.2343 -0.242162C32.3576 -0.210538 30.6069 0.109234 28.9916 0.728247L29.7073 2.59582ZM34.2545 1.75768C37.1454 1.74801 39.5317 2.44799 41.4682 3.80712L42.6172 2.17006C40.2863 0.534164 37.4782 -0.253113 34.2478 -0.242304L34.2545 1.75768ZM41.4682 3.80712C43.4193 5.17642 44.9404 7.16228 46.0096 9.82126L47.8652 9.07516C46.6755 6.11633 44.9335 3.79577 42.6172 2.17006L41.4682 3.80712ZM46.0102 9.82296C47.0804 12.4705 47.6484 15.7058 47.6803 19.556L49.6803 19.5394C49.6468 15.5112 49.0529 12.0134 47.8645 9.07346L46.0102 9.82296ZM47.6803 19.556C47.7131 23.5051 47.1568 26.9099 46.0403 29.7919L47.9052 30.5144C49.1325 27.3465 49.7146 23.681 49.6803 19.5394L47.6803 19.556ZM46.0409 29.7903C44.9359 32.6279 43.2354 34.8085 40.9444 36.3729L42.0722 38.0246C44.7231 36.2145 46.6655 33.6981 47.9046 30.516L46.0409 29.7903ZM40.9502 36.369C38.6675 37.9043 35.6829 38.7325 31.9263 38.7783L31.9507 40.7782C35.9814 40.729 39.3767 39.8376 42.0664 38.0285L40.9502 36.369ZM32.9384 39.7699L32.8389 27.7703L30.839 27.7869L30.9385 39.7865L32.9384 39.7699ZM31.9003 28.7768C33.4601 28.6808 34.8347 28.2751 35.9764 27.5122L34.8653 25.8492C34.0783 26.3751 33.0648 26.7013 31.7775 26.7805L31.9003 28.7768ZM35.9764 27.5122C37.1162 26.7506 37.9636 25.6909 38.5236 24.3714L36.6825 23.59C36.2617 24.5817 35.6543 25.322 34.8653 25.8492L35.9764 27.5122ZM38.5254 24.367C39.08 23.0429 39.3327 21.514 39.3185 19.8072L37.3186 19.8238C37.331 21.329 37.1068 22.577 36.6807 23.5944L38.5254 24.367ZM39.3185 19.8072C39.3067 18.384 39.1214 17.1315 38.7264 16.0814L36.8545 16.7855C37.1412 17.5479 37.308 18.5502 37.3186 19.8238L39.3185 19.8072ZM38.7264 16.0814C38.3389 15.051 37.7779 14.1946 37.0027 13.5889L35.7712 15.1648C36.1857 15.4886 36.5603 16.0033 36.8545 16.7855L38.7264 16.0814ZM37.0027 13.5889C36.2345 12.9886 35.3459 12.6778 34.37 12.6664L34.3466 14.6663C34.886 14.6726 35.3499 14.8355 35.7712 15.1648L37.0027 13.5889ZM34.3287 12.6668C33.3904 12.6945 32.5482 13.0183 31.8435 13.6325L33.1576 15.1402C33.506 14.8365 33.9022 14.6803 34.3879 14.6659L34.3287 12.6668ZM31.8668 13.6128C31.143 14.2058 30.5846 15.109 30.1383 16.2022L31.99 16.958C32.3754 16.014 32.7745 15.4547 33.1343 15.1599L31.8668 13.6128ZM30.1432 16.1905C29.6769 17.2928 29.2634 18.737 28.8925 20.4977L30.8496 20.9099C31.2076 19.2099 31.5895 17.905 31.9851 16.9697L30.1432 16.1905ZM28.8918 20.5011L27.9303 25.1456L29.8888 25.551L30.8503 20.9065L28.8918 20.5011ZM27.9306 25.1444C27.0944 29.1597 25.6858 32.2495 23.7568 34.4812L25.2699 35.7891C27.483 33.2287 29.0052 29.794 29.8886 25.5522L27.9306 25.1444ZM23.7612 34.4761C21.8928 36.6084 19.322 37.7152 15.9251 37.7292L15.9333 39.7292C19.8092 39.7132 22.9611 38.4239 25.2654 35.7942L23.7612 34.4761ZM15.9158 37.7293C13.1539 37.7664 10.7749 37.0534 8.73698 35.6133L7.58276 37.2466C9.99531 38.9515 12.7959 39.7713 15.9426 39.7291L15.9158 37.7293ZM8.73801 35.614C6.66104 34.1423 5.01497 32.0861 3.81272 29.4051L1.9878 30.2234C3.31733 33.1883 5.17766 35.5425 7.58174 37.2459L8.73801 35.614ZM3.81352 29.4069C2.61293 26.7154 1.985 23.5955 1.95539 20.0263L-0.0445434 20.0429C-0.0130645 23.8371 0.655568 27.2369 1.987 30.2216L3.81352 29.4069ZM1.95539 20.0263C1.92512 16.3784 2.50995 13.272 3.67324 10.6785L1.84842 9.86C0.542156 12.7721 -0.0766258 16.1759 -0.0445434 20.0429L1.95539 20.0263ZM3.67324 10.6785C4.83893 8.07982 6.47683 6.10702 8.57757 4.71873L7.47488 3.05018C5.02466 4.66944 3.1523 6.95321 1.84842 9.86L3.67324 10.6785ZM8.58398 4.71446C10.6644 3.31651 13.1228 2.58369 15.9976 2.54555L15.9711 0.545734C12.7555 0.588404 9.90849 1.41482 7.46848 3.05444L8.58398 4.71446ZM14.9844 1.55392L15.0847 13.6444L17.0846 13.6278L16.9843 1.53733L14.9844 1.55392Z" fill="#05C2DF" fill-opacity="0.03" mask="url(#path-1-outside-1_1_7863)"/>
</svg>
