<svg width="51" height="335" viewBox="0 0 51 335" fill="none" xmlns="http://www.w3.org/2000/svg">
<mask id="path-1-outside-1_1_7860" maskUnits="userSpaceOnUse" x="-1.00063" y="-0.86677" width="53.7858" height="336.412" fill="black">
<rect fill="white" x="-1.00063" y="-0.86677" width="53.7858" height="336.412"/>
<path d="M1.12451 14.6301L1.01137 0.994246L47.6827 15.9712L47.826 33.2433L1.4096 48.9926L1.29647 35.3567L34.9381 24.8954L34.9351 24.5318L1.12451 14.6301ZM19.4664 11.9324L19.6791 37.5679L10.2249 37.6463L10.0122 12.0109L19.4664 11.9324ZM1.44679 53.4754L47.9906 53.0892L48.1581 73.2704C48.1875 76.8157 47.7349 79.7968 46.8004 82.2138C45.866 84.6458 44.5327 86.4827 42.8005 87.7244C41.0685 88.9812 39.0207 89.6195 36.6571 89.6391C34.9451 89.6533 33.3814 89.2874 31.966 88.5416C30.5508 87.8109 29.3604 86.7753 28.3947 85.4347C27.4441 84.0941 26.7796 82.5238 26.401 80.7239L25.9465 80.7276C25.8873 82.7282 25.3948 84.5505 24.469 86.1946C23.5584 87.8386 22.289 89.1522 20.6607 90.1354C19.0476 91.1185 17.1426 91.6192 14.9457 91.6374C12.4003 91.6586 10.1297 91.0107 8.13387 89.6939C6.13815 88.3922 4.56201 86.5264 3.40545 84.0966C2.24888 81.6667 1.65659 78.7624 1.62856 75.3837L1.44679 53.4754ZM11.6422 66.0276L11.6912 71.9365C11.7088 74.0576 12.1159 75.6452 12.9126 76.6993C13.7244 77.7532 14.9106 78.2736 16.4711 78.2607C17.562 78.2516 18.4841 77.994 19.2375 77.4877C19.9909 76.9814 20.5608 76.2646 20.947 75.3371C21.3334 74.4248 21.5212 73.3247 21.5106 72.0369L21.46 65.9462L11.6422 66.0276ZM29.2779 65.8813L29.3209 71.0629C29.3301 72.169 29.5125 73.1447 29.868 73.9903C30.2235 74.8359 30.7289 75.4908 31.3843 75.9551C32.055 76.4344 32.8676 76.6701 33.8221 76.6621C35.2614 76.6502 36.3556 76.126 37.1046 75.0894C37.8688 74.0527 38.2443 72.7465 38.2312 71.1708L38.1867 65.8074L29.2779 65.8813ZM25.4475 141.12C20.2658 141.163 15.8864 140.192 12.3092 138.206C8.74716 136.221 6.0353 133.523 4.17362 130.115C2.32709 126.705 1.38635 122.895 1.35141 118.683C1.31621 114.441 2.20104 110.6 4.00591 107.161C5.82604 103.736 8.50042 101.002 12.029 98.9574C15.5729 96.9279 19.9205 95.8918 25.0719 95.849C30.2535 95.806 34.6253 96.7698 38.1872 98.7403C41.7644 100.726 44.4762 103.416 46.3226 106.809C48.1843 110.218 49.1327 114.044 49.1679 118.286C49.2029 122.498 48.3179 126.324 46.5131 129.763C44.7234 133.202 42.0566 135.944 38.5129 137.989C34.9842 140.033 30.6291 141.077 25.4475 141.12ZM25.3396 128.121C28.1274 128.098 30.4727 127.707 32.3756 126.949C34.2937 126.205 35.7392 125.11 36.7121 123.663C37.7003 122.23 38.1857 120.468 38.1683 118.378C38.151 116.287 37.6364 114.526 36.6244 113.095C35.6278 111.679 34.1643 110.607 32.234 109.881C30.3189 109.17 27.9675 108.825 25.1797 108.849C22.3919 108.872 20.039 109.255 18.1208 109.998C16.218 110.756 14.7725 111.852 13.7843 113.284C12.8114 114.732 12.3337 116.501 12.351 118.592C12.3684 120.683 12.8754 122.436 13.872 123.852C14.8839 125.283 16.3474 126.354 18.2624 127.066C20.1928 127.792 22.5518 128.144 25.3396 128.121ZM48.9964 174.318L49.1013 186.954L19.2841 187.201C15.7388 187.231 12.6637 186.408 10.0588 184.732C7.46914 183.072 5.45731 180.74 4.02325 177.737C2.60434 174.733 1.87836 171.239 1.8453 167.254C1.81199 163.239 2.47977 159.719 3.84865 156.692C5.23268 153.665 7.20555 151.3 9.76726 149.597C12.3443 147.909 15.4054 147.05 18.9508 147.021L48.7679 146.774L48.8727 159.409L20.1465 159.648C18.7071 159.66 17.4219 159.989 16.2909 160.634C15.175 161.28 14.3035 162.166 13.6765 163.292C13.0496 164.434 12.7421 165.725 12.754 167.164C12.7661 168.618 13.0949 169.904 13.7406 171.019C14.3862 172.135 15.2723 173.007 16.3987 173.634C17.5403 174.261 18.8308 174.568 20.2701 174.556L48.9964 174.318ZM38.9591 191.771L49.1405 191.687L49.4762 232.14L39.2947 232.224L39.1785 218.225L2.81616 218.527L2.71283 206.072L39.0752 205.771L38.9591 191.771ZM49.8499 277.189L49.9548 289.825L20.1376 290.073C16.5923 290.102 13.5172 289.279 10.9123 287.604C8.32263 285.943 6.31079 283.612 4.87673 280.608C3.45783 277.605 2.73185 274.111 2.69879 270.126C2.66547 266.111 3.33326 262.59 4.70213 259.563C6.08616 256.537 8.05903 254.172 10.6207 252.469C13.1977 250.781 16.2589 249.922 19.8042 249.892L49.6214 249.645L49.7262 262.281L20.9999 262.519C19.5606 262.531 18.2754 262.86 17.1444 263.506C16.0285 264.151 15.157 265.037 14.53 266.164C13.903 267.306 13.5956 268.596 13.6075 270.035C13.6196 271.49 13.9484 272.775 14.5941 273.891C15.2397 275.007 16.1258 275.878 17.2522 276.505C18.3938 277.132 19.6843 277.44 21.1236 277.428L49.8499 277.189ZM35.6678 321.042C37.1819 320.908 38.3589 320.33 39.199 319.308C40.0391 318.301 40.4507 316.775 40.4338 314.729C40.423 313.426 40.255 312.359 39.9299 311.529C39.6201 310.713 39.1984 310.11 38.6649 309.721C38.1313 309.331 37.5236 309.132 36.8417 309.122C36.2808 309.097 35.7741 309.199 35.3214 309.43C34.8841 309.677 34.4857 310.059 34.1264 310.577C33.7822 311.095 33.4695 311.756 33.1883 312.562C32.9071 313.367 32.6574 314.324 32.4393 315.432L31.6528 319.257C31.1288 321.837 30.4274 324.047 29.5487 325.888C28.67 327.729 27.6294 329.237 26.427 330.414C25.2398 331.591 23.8985 332.458 22.403 333.016C20.9077 333.589 19.2738 333.89 17.5013 333.92C14.4407 333.93 11.8435 333.187 9.70978 331.689C7.57607 330.192 5.94451 328.038 4.81511 325.23C3.68583 322.436 3.10485 319.069 3.07217 315.13C3.03861 311.085 3.60778 307.55 4.77969 304.525C5.95173 301.515 7.77322 299.166 10.2442 297.479C12.7304 295.807 15.9203 294.947 19.814 294.9L19.9136 306.899C18.49 306.987 17.296 307.353 16.3316 307.997C15.3672 308.641 14.6398 309.541 14.1494 310.697C13.6591 311.868 13.4206 313.256 13.4339 314.862C13.4451 316.211 13.6212 317.338 13.962 318.244C14.3029 319.151 14.7707 319.836 15.3655 320.301C15.9603 320.766 16.6365 321.003 17.3942 321.011C18.1062 320.99 18.7254 320.75 19.2519 320.291C19.7937 319.848 20.2725 319.116 20.6883 318.098C21.1193 317.079 21.517 315.704 21.8814 313.974L22.8429 309.329C23.7026 305.201 25.168 301.939 27.2391 299.543C29.3255 297.162 32.1869 295.964 35.8233 295.949C38.7776 295.909 41.3674 296.675 43.5926 298.248C45.8331 299.835 47.5863 302.041 48.8522 304.863C50.1182 307.702 50.7665 310.961 50.797 314.643C50.8282 318.401 50.2264 321.656 48.9916 324.408C47.7569 327.161 46.0017 329.289 43.7262 330.793C41.466 332.312 38.8133 333.092 35.7681 333.132L35.6678 321.042Z"/>
</mask>
<path d="M1.12451 14.6301L0.12454 14.6384L0.130701 15.3811L0.843456 15.5898L1.12451 14.6301ZM1.01137 0.994246L1.31693 0.0420717L-6.7467e-05 -0.380556L0.0114076 1.00254L1.01137 0.994246ZM47.6827 15.9712L48.6827 15.9629L48.6767 15.2399L47.9882 15.019L47.6827 15.9712ZM47.826 33.2433L48.1473 34.1903L48.832 33.958L48.826 33.235L47.826 33.2433ZM1.4096 48.9926L0.409632 49.0009L0.421107 50.384L1.73091 49.9396L1.4096 48.9926ZM1.29647 35.3567L0.999532 34.4018L0.290339 34.6223L0.2965 35.365L1.29647 35.3567ZM34.9381 24.8954L35.235 25.8503L35.9442 25.6298L35.9381 24.8871L34.9381 24.8954ZM34.9351 24.5318L35.9351 24.5235L35.9289 23.7808L35.2161 23.5721L34.9351 24.5318ZM19.4664 11.9324L20.4664 11.9241L20.4581 10.9242L19.4581 10.9325L19.4664 11.9324ZM19.6791 37.5679L19.6874 38.5679L20.6873 38.5596L20.679 37.5596L19.6791 37.5679ZM10.2249 37.6463L9.2249 37.6546L9.23319 38.6546L10.2332 38.6463L10.2249 37.6463ZM10.0122 12.0109L10.0039 11.0109L9.00391 11.0192L9.01221 12.0192L10.0122 12.0109ZM2.12447 14.6218L2.01134 0.98595L0.0114076 1.00254L0.12454 14.6384L2.12447 14.6218ZM0.705816 1.94642L47.3771 16.9234L47.9882 15.019L1.31693 0.0420717L0.705816 1.94642ZM46.6827 15.9795L46.826 33.2516L48.826 33.235L48.6827 15.9629L46.6827 15.9795ZM47.5047 32.2964L1.08828 48.0456L1.73091 49.9396L48.1473 34.1903L47.5047 32.2964ZM2.40956 48.9843L2.29643 35.3484L0.2965 35.365L0.409632 49.0009L2.40956 48.9843ZM1.5934 36.3116L35.235 25.8503L34.6412 23.9405L0.999532 34.4018L1.5934 36.3116ZM35.9381 24.8871L35.9351 24.5235L33.9351 24.5401L33.9381 24.9037L35.9381 24.8871ZM35.2161 23.5721L1.40555 13.6704L0.843456 15.5898L34.654 25.4915L35.2161 23.5721ZM18.4664 11.9407L18.6791 37.5762L20.679 37.5596L20.4664 11.9241L18.4664 11.9407ZM19.6708 36.5679L10.2166 36.6464L10.2332 38.6463L19.6874 38.5679L19.6708 36.5679ZM11.2248 37.638L11.0121 12.0026L9.01221 12.0192L9.2249 37.6546L11.2248 37.638ZM10.0205 13.0108L19.4747 12.9324L19.4581 10.9325L10.0039 11.0109L10.0205 13.0108ZM1.44679 53.4754L1.43849 52.4754L0.438528 52.4837L0.446824 53.4837L1.44679 53.4754ZM47.9906 53.0892L48.9906 53.0809L48.9823 52.081L47.9823 52.0893L47.9906 53.0892ZM46.8004 82.2137L45.8677 81.8531L45.8669 81.8551L46.8004 82.2137ZM42.8005 87.7244L42.2179 86.9116L42.2132 86.915L42.8005 87.7244ZM31.966 88.5416L32.4323 87.6569L32.4248 87.653L31.966 88.5416ZM28.3947 85.4348L27.5789 86.0132L27.5833 86.0193L28.3947 85.4348ZM26.401 80.7238L27.3796 80.518L27.2111 79.7171L26.3927 79.7239L26.401 80.7238ZM25.9465 80.7276L25.9382 79.7277L24.9754 79.7356L24.9469 80.6981L25.9465 80.7276ZM24.469 86.1946L23.5977 85.7039L23.5943 85.7101L24.469 86.1946ZM20.6607 90.1354L20.1438 89.2794L20.1403 89.2815L20.6607 90.1354ZM8.13387 89.6939L8.68459 88.8592L8.68017 88.8563L8.13387 89.6939ZM3.40545 84.0966L4.30838 83.6668L3.40545 84.0966ZM11.6422 66.0276L11.6339 65.0276L10.6339 65.0359L10.6422 66.0359L11.6422 66.0276ZM12.9126 76.6993L12.1148 77.3022L12.1204 77.3095L12.9126 76.6993ZM20.947 75.3371L20.0262 74.9471L20.0239 74.9526L20.947 75.3371ZM21.46 65.9462L22.46 65.9379L22.4517 64.9379L21.4517 64.9462L21.46 65.9462ZM29.2779 65.8813L29.2696 64.8813L28.2697 64.8896L28.278 65.8896L29.2779 65.8813ZM29.868 73.9903L28.9461 74.3779L29.868 73.9903ZM31.3843 75.9551L31.9658 75.1415L31.9624 75.1391L31.3843 75.9551ZM37.1046 75.0894L36.2996 74.496L36.2941 74.5037L37.1046 75.0894ZM38.1867 65.8074L39.1867 65.7991L39.1784 64.7991L38.1784 64.8074L38.1867 65.8074ZM1.45509 54.4754L47.9989 54.0892L47.9823 52.0893L1.43849 52.4754L1.45509 54.4754ZM46.9907 53.0975L47.1581 73.2787L49.158 73.2621L48.9906 53.0809L46.9907 53.0975ZM47.1581 73.2787C47.1868 76.7413 46.7434 79.5885 45.8677 81.8531L47.7331 82.5744C48.7265 80.0052 49.1881 76.8901 49.158 73.2621L47.1581 73.2787ZM45.8669 81.8551C44.9869 84.1457 43.7591 85.8069 42.2179 86.9116L43.3831 88.5372C45.3063 87.1585 46.7451 85.146 47.7339 82.5724L45.8669 81.8551ZM42.2132 86.915C40.6672 88.0369 38.827 88.621 36.6488 88.6391L36.6654 90.639C39.2143 90.6179 41.4698 89.9256 43.3878 88.5338L42.2132 86.915ZM36.6488 88.6391C35.0901 88.652 33.6912 88.3203 32.4322 87.6569L31.4998 89.4263C33.0716 90.2546 34.8 90.6545 36.6654 90.639L36.6488 88.6391ZM32.4248 87.653C31.1547 86.9973 30.0833 86.068 29.2061 84.8502L27.5833 86.0193C28.6374 87.4825 29.9469 88.6245 31.5073 89.4301L32.4248 87.653ZM29.2104 84.8564C28.3481 83.64 27.7333 82.1999 27.3796 80.518L25.4224 80.9297C25.8258 82.8477 26.5402 84.5482 27.5789 86.0131L29.2104 84.8564ZM26.3927 79.7239L25.9382 79.7277L25.9548 81.7276L26.4093 81.7238L26.3927 79.7239ZM24.9469 80.6981C24.8922 82.5469 24.4392 84.2095 23.5977 85.704L25.3404 86.6853C26.3504 84.8915 26.8824 82.9094 26.946 80.7572L24.9469 80.6981ZM23.5943 85.7101C22.7695 87.1991 21.6242 88.3854 20.1438 89.2794L21.1776 90.9915C22.9537 89.919 24.3473 88.4781 25.3438 86.6792L23.5943 85.7101ZM20.1403 89.2815C18.7052 90.1561 16.9834 90.6205 14.9374 90.6375L14.954 92.6374C17.3018 92.6179 19.39 92.081 21.1811 90.9893L20.1403 89.2815ZM14.9374 90.6375C12.5771 90.6571 10.5037 90.0594 8.68458 88.8592L7.58315 90.5286C9.75569 91.962 12.2235 92.6601 14.954 92.6374L14.9374 90.6375ZM8.68017 88.8563C6.85783 87.6677 5.39634 85.9526 4.30838 83.6668L2.50251 84.5263C3.72767 87.1003 5.41847 89.1167 7.58757 90.5315L8.68017 88.8563ZM4.30838 83.6668C3.22841 81.3978 2.65564 78.6444 2.62852 75.3754L0.62859 75.392C0.657531 78.8804 1.26936 81.9355 2.50251 84.5263L4.30838 83.6668ZM2.62852 75.3754L2.44676 53.4671L0.446824 53.4837L0.62859 75.392L2.62852 75.3754ZM10.6422 66.0359L10.6912 71.9448L12.6912 71.9282L12.6422 66.0193L10.6422 66.0359ZM10.6912 71.9448C10.7096 74.1606 11.1313 76.0009 12.1148 77.3022L13.7104 76.0963C13.1006 75.2895 12.708 73.9547 12.6912 71.9282L10.6912 71.9448ZM12.1204 77.3095C13.1578 78.6563 14.667 79.2757 16.4794 79.2607L16.4628 77.2607C15.1541 77.2716 14.291 76.85 13.7048 76.089L12.1204 77.3095ZM16.4794 79.2607C17.7261 79.2503 18.849 78.9536 19.7953 78.3177L18.6798 76.6577C18.1193 77.0344 17.3979 77.253 16.4628 77.2607L16.4794 79.2607ZM19.7953 78.3177C20.7287 77.6905 21.4168 76.8101 21.8702 75.7215L20.0239 74.9526C19.7047 75.7191 19.2531 76.2724 18.6798 76.6577L19.7953 78.3177ZM21.8678 75.7271C22.321 74.6571 22.522 73.414 22.5105 72.0286L20.5106 72.0451C20.5205 73.2354 20.3458 74.1924 20.0262 74.9471L21.8678 75.7271ZM22.5105 72.0286L22.46 65.9379L20.4601 65.9545L20.5106 72.0451L22.5105 72.0286ZM21.4517 64.9462L11.6339 65.0276L11.6505 67.0276L21.4683 66.9461L21.4517 64.9462ZM28.278 65.8896L28.321 71.0712L30.3209 71.0546L30.2779 65.873L28.278 65.8896ZM28.321 71.0712C28.331 72.2814 28.5309 73.3902 28.9461 74.3779L30.7898 73.6027C30.494 72.8993 30.3292 72.0565 30.3209 71.0546L28.321 71.0712ZM28.9461 74.3779C29.3635 75.3705 29.9778 76.1842 30.8063 76.7711L31.9624 75.1391C31.48 74.7974 31.0835 74.3012 30.7898 73.6027L28.9461 74.3779ZM30.8029 76.7687C31.6716 77.3895 32.6991 77.6715 33.8304 77.6621L33.8138 75.6622C33.036 75.6686 32.4383 75.4792 31.9658 75.1415L30.8029 76.7687ZM33.8304 77.6621C35.5419 77.6479 36.9545 77.0046 37.9151 75.6751L36.2941 74.5037C35.7567 75.2473 34.981 75.6525 33.8138 75.6622L33.8304 77.6621ZM37.9096 75.6827C38.8286 74.4359 39.2457 72.9052 39.2312 71.1625L37.2313 71.1791C37.243 72.5879 36.9089 73.6695 36.2997 74.4961L37.9096 75.6827ZM39.2312 71.1625L39.1867 65.7991L37.1868 65.8157L37.2313 71.1791L39.2312 71.1625ZM38.1784 64.8074L29.2696 64.8813L29.2862 66.8813L38.195 66.8073L38.1784 64.8074ZM12.3092 138.206L11.8223 139.08L11.8239 139.081L12.3092 138.206ZM4.17362 130.115L3.29432 130.591L3.29597 130.594L4.17362 130.115ZM4.0059 107.161L3.12288 106.691L3.12042 106.696L4.0059 107.161ZM12.029 98.9574L11.5321 98.0896L11.5277 98.0921L12.029 98.9574ZM38.1872 98.7403L38.6725 97.866L38.6713 97.8653L38.1872 98.7403ZM46.3226 106.809L45.4442 107.287L45.445 107.289L46.3226 106.809ZM46.5131 129.763L45.6276 129.299L45.626 129.302L46.5131 129.763ZM38.5129 137.989L38.0131 137.123L38.0115 137.124L38.5129 137.989ZM32.3756 126.949L32.0143 126.016L32.0054 126.02L32.3756 126.949ZM36.7121 123.663L35.8889 123.095L35.8822 123.105L36.7121 123.663ZM36.6244 113.095L35.8067 113.67L35.8079 113.672L36.6244 113.095ZM32.234 109.881L32.5862 108.945L32.5822 108.944L32.234 109.881ZM18.1208 109.998L17.7595 109.066L17.7507 109.069L18.1208 109.998ZM13.7843 113.284L12.9611 112.716L12.9544 112.726L13.7843 113.284ZM13.872 123.852L13.0542 124.428L13.0555 124.429L13.872 123.852ZM18.2624 127.066L18.6147 126.13L18.6107 126.128L18.2624 127.066ZM25.4392 140.12C20.385 140.162 16.1857 139.214 12.7945 137.332L11.8239 139.081C15.5872 141.17 20.1467 142.164 25.4558 142.12L25.4392 140.12ZM12.7961 137.333C9.39026 135.434 6.81787 132.87 5.05127 129.635L3.29597 130.594C5.25272 134.177 8.10406 137.007 11.8223 139.08L12.7961 137.333ZM5.05291 129.638C3.29088 126.385 2.38509 122.738 2.35138 118.675L0.351445 118.691C0.387627 123.052 1.36331 127.026 3.29432 130.591L5.05291 129.638ZM2.35138 118.675C2.31742 114.582 3.16996 110.906 4.89139 107.625L3.12042 106.696C1.23213 110.294 0.315011 114.3 0.351445 118.691L2.35138 118.675ZM4.88892 107.63C6.61671 104.379 9.15474 101.778 12.5304 99.8226L11.5277 98.0921C7.8461 100.225 5.03538 103.093 3.12289 106.691L4.88892 107.63ZM12.526 99.8251C15.887 97.9004 20.0563 96.8907 25.0802 96.849L25.0636 94.8491C19.7848 94.8929 15.2589 95.9553 11.5321 98.0896L12.526 99.8251ZM25.0802 96.849C30.1357 96.8071 34.3276 97.7479 37.7031 99.6154L38.6713 97.8653C34.923 95.7917 30.3713 94.805 25.0636 94.8491L25.0802 96.849ZM37.7019 99.6147C41.1233 101.514 43.694 104.07 45.4442 107.287L47.2011 106.332C45.2585 102.761 42.4055 99.938 38.6725 97.866L37.7019 99.6147ZM45.445 107.289C47.2206 110.54 48.134 114.201 48.168 118.295L50.1679 118.278C50.1315 113.887 49.148 109.897 47.2003 106.33L45.445 107.289ZM48.168 118.295C48.2017 122.356 47.3496 126.017 45.6276 129.299L47.3986 130.228C49.2863 126.631 50.2041 122.64 50.1679 118.278L48.168 118.295ZM45.626 129.302C43.9292 132.562 41.4014 135.168 38.0131 137.123L39.0126 138.855C42.7118 136.721 45.5175 133.843 47.4001 130.225L45.626 129.302ZM38.0115 137.124C34.6682 139.061 30.4936 140.078 25.4392 140.12L25.4558 142.12C30.7646 142.076 35.3003 141.006 39.0142 138.854L38.0115 137.124ZM25.3479 129.121C28.2178 129.097 30.6943 128.695 32.7458 127.878L32.0054 126.02C30.2511 126.719 28.037 127.098 25.3313 127.121L25.3479 129.121ZM32.7369 127.881C34.8108 127.077 36.4357 125.867 37.5421 124.22L35.8822 123.105C35.0428 124.354 33.7767 125.333 32.0143 126.016L32.7369 127.881ZM37.5353 124.23C38.6621 122.597 39.187 120.623 39.1683 118.369L37.1684 118.386C37.1844 120.313 36.7384 121.863 35.889 123.095L37.5353 124.23ZM39.1683 118.369C39.1496 116.115 38.5919 114.145 37.4409 112.517L35.8079 113.672C36.6808 114.907 37.1524 116.459 37.1684 118.386L39.1683 118.369ZM37.4422 112.519C36.3094 110.91 34.6678 109.728 32.5862 108.945L31.8818 110.817C33.6609 111.486 34.9462 112.448 35.8067 113.67L37.4422 112.519ZM32.5822 108.944C30.5198 108.177 28.0395 107.825 25.1714 107.849L25.188 109.849C27.8956 109.826 30.118 110.162 31.8858 110.818L32.5822 108.944ZM25.1714 107.849C22.303 107.872 19.8225 108.266 17.7595 109.066L18.4821 110.931C20.2555 110.243 22.4809 109.871 25.188 109.849L25.1714 107.849ZM17.7507 109.069C15.6976 109.887 14.08 111.094 12.9612 112.716L14.6075 113.852C15.4649 112.609 16.7383 111.625 18.491 110.927L17.7507 109.069ZM12.9544 112.726C11.8483 114.372 11.3324 116.348 11.3511 118.6L13.351 118.583C13.335 116.653 13.7746 115.091 14.6143 113.842L12.9544 112.726ZM11.3511 118.6C11.3697 120.851 11.9182 122.813 13.0542 124.428L14.6898 123.276C13.8326 122.059 13.367 120.514 13.351 118.583L11.3511 118.6ZM13.0555 124.429C14.202 126.051 15.8425 127.233 17.9142 128.003L18.6107 126.128C16.8523 125.475 15.5658 124.515 14.6885 123.275L13.0555 124.429ZM17.9102 128.002C19.9885 128.784 22.4776 129.144 25.3479 129.121L25.3313 127.121C22.6261 127.143 20.3971 126.801 18.6147 126.13L17.9102 128.002ZM48.9964 174.318L49.9964 174.31L49.9881 173.31L48.9881 173.318L48.9964 174.318ZM49.1013 186.954L49.1096 187.954L50.1095 187.946L50.1012 186.946L49.1013 186.954ZM10.0588 184.732L10.5997 183.891L10.5985 183.891L10.0588 184.732ZM4.02325 177.737L3.11906 178.164L3.12084 178.168L4.02325 177.737ZM3.84865 156.692L2.93921 156.276L2.93751 156.28L3.84865 156.692ZM9.76726 149.597L9.21929 148.761L9.21362 148.764L9.76726 149.597ZM48.7679 146.774L49.7679 146.765L49.7596 145.765L48.7596 145.774L48.7679 146.774ZM48.8727 159.409L48.881 160.409L49.881 160.401L49.8727 159.401L48.8727 159.409ZM16.2909 160.634L15.795 159.766L15.7901 159.769L16.2909 160.634ZM13.6765 163.292L12.8027 162.806L12.7999 162.811L13.6765 163.292ZM13.7406 171.019L12.875 171.52L13.7406 171.019ZM16.3987 173.634L15.9123 174.508L15.9174 174.51L16.3987 173.634ZM47.9965 174.326L48.1013 186.962L50.1012 186.946L49.9964 174.31L47.9965 174.326ZM49.093 185.954L19.2758 186.201L19.2924 188.201L49.1096 187.954L49.093 185.954ZM19.2758 186.201C15.8962 186.229 13.0181 185.447 10.5997 183.891L9.51782 185.573C12.3092 187.369 15.5814 188.232 19.2924 188.201L19.2758 186.201ZM10.5985 183.891C8.17852 182.339 6.28628 180.155 4.92565 177.306L3.12084 178.168C4.62832 181.325 6.75977 183.805 9.51901 185.574L10.5985 183.891ZM4.92743 177.31C3.58153 174.461 2.87736 171.114 2.84526 167.246L0.845332 167.263C0.879358 171.364 1.62715 175.006 3.11907 178.164L4.92743 177.31ZM2.84526 167.246C2.81291 163.346 3.46177 159.974 4.75979 157.104L2.93751 156.28C1.49777 159.463 0.811065 163.133 0.845332 167.263L2.84526 167.246ZM4.75808 157.108C6.07124 154.236 7.92699 152.022 10.3209 150.43L9.21362 148.764C6.48411 150.579 4.39411 153.094 2.93921 156.276L4.75808 157.108ZM10.3152 150.434C12.7086 148.866 15.5759 148.049 18.959 148.021L18.9425 146.021C15.2349 146.052 11.9799 146.952 9.2193 148.761L10.3152 150.434ZM18.959 148.021L48.7762 147.773L48.7596 145.774L18.9425 146.021L18.959 148.021ZM47.7679 146.782L47.8728 159.418L49.8727 159.401L49.7679 146.765L47.7679 146.782ZM48.8644 158.409L20.1382 158.648L20.1548 160.648L48.881 160.409L48.8644 158.409ZM20.1382 158.648C18.5461 158.661 17.0899 159.027 15.795 159.766L16.7867 161.503C17.754 160.951 18.8681 160.658 20.1548 160.648L20.1382 158.648ZM15.7901 159.769C14.5179 160.505 13.5176 161.522 12.8027 162.806L14.5502 163.779C15.0895 162.81 15.832 162.055 16.7917 161.5L15.7901 159.769ZM12.7999 162.811C12.0822 164.118 11.7408 165.58 11.754 167.172L13.754 167.156C13.7433 165.869 14.0169 164.75 14.553 163.774L12.7999 162.811ZM11.754 167.172C11.7674 168.777 12.1321 170.236 12.875 171.52L14.6061 170.519C14.0578 169.571 13.7648 168.46 13.754 167.156L11.754 167.172ZM12.875 171.52C13.6111 172.792 14.6282 173.793 15.9124 174.508L16.8851 172.76C15.9164 172.221 15.1614 171.478 14.6061 170.519L12.875 171.52ZM15.9174 174.51C17.2243 175.228 18.6864 175.57 20.2784 175.556L20.2619 173.556C18.9752 173.567 17.8564 173.294 16.8801 172.757L15.9174 174.51ZM20.2784 175.556L49.0047 175.318L48.9881 173.318L20.2619 173.556L20.2784 175.556ZM38.9591 191.771L38.9508 190.771L37.9508 190.78L37.9591 191.78L38.9591 191.771ZM49.1405 191.687L50.1405 191.678L50.1322 190.678L49.1322 190.687L49.1405 191.687ZM49.4762 232.14L49.4845 233.14L50.4844 233.132L50.4761 232.132L49.4762 232.14ZM39.2947 232.224L38.2947 232.233L38.303 233.233L39.303 233.224L39.2947 232.224ZM39.1785 218.225L40.1785 218.217L40.1702 217.217L39.1702 217.225L39.1785 218.225ZM2.81616 218.527L1.81619 218.535L1.82449 219.535L2.82445 219.527L2.81616 218.527ZM2.71283 206.072L2.70453 205.072L1.70457 205.081L1.71287 206.081L2.71283 206.072ZM39.0752 205.771L39.0835 206.771L40.0835 206.762L40.0752 205.762L39.0752 205.771ZM38.9674 192.771L49.1488 192.687L49.1322 190.687L38.9508 190.771L38.9674 192.771ZM48.1406 191.695L48.4762 232.148L50.4761 232.132L50.1405 191.678L48.1406 191.695ZM49.4679 231.14L39.2864 231.224L39.303 233.224L49.4845 233.14L49.4679 231.14ZM40.2947 232.216L40.1785 218.217L38.1786 218.233L38.2947 232.233L40.2947 232.216ZM39.1702 217.225L2.80786 217.527L2.82445 219.527L39.1868 219.225L39.1702 217.225ZM3.81612 218.518L3.7128 206.064L1.71287 206.081L1.81619 218.535L3.81612 218.518ZM2.72113 207.072L39.0835 206.771L39.0669 204.771L2.70453 205.072L2.72113 207.072ZM40.0752 205.762L39.959 191.763L37.9591 191.78L38.0753 205.779L40.0752 205.762ZM49.8499 277.19L50.8499 277.181L50.8416 276.181L49.8416 276.19L49.8499 277.19ZM49.9548 289.825L49.9631 290.825L50.963 290.817L50.9547 289.817L49.9548 289.825ZM10.9123 287.604L11.4532 286.763L11.452 286.762L10.9123 287.604ZM4.87674 280.608L3.97255 281.035L3.97433 281.039L4.87674 280.608ZM4.70214 259.563L3.79269 259.148L3.79099 259.151L4.70214 259.563ZM10.6208 252.469L10.0728 251.632L10.0671 251.636L10.6208 252.469ZM49.6214 249.645L50.6214 249.637L50.6131 248.637L49.6131 248.645L49.6214 249.645ZM49.7262 262.281L49.7345 263.281L50.7345 263.273L50.7262 262.273L49.7262 262.281ZM17.1444 263.506L16.6485 262.637L16.6436 262.64L17.1444 263.506ZM14.53 266.164L13.6562 265.678L13.6534 265.683L14.53 266.164ZM14.5941 273.891L13.7285 274.392L14.5941 273.891ZM17.2522 276.505L16.7658 277.379L16.7709 277.382L17.2522 276.505ZM48.85 277.198L48.9548 289.834L50.9547 289.817L50.8499 277.181L48.85 277.198ZM49.9465 288.825L20.1293 289.073L20.1459 291.073L49.9631 290.825L49.9465 288.825ZM20.1293 289.073C16.7497 289.101 13.8716 288.318 11.4532 286.763L10.3713 288.445C13.1627 290.24 16.4349 291.104 20.1459 291.073L20.1293 289.073ZM11.452 286.762C9.032 285.21 7.13977 283.027 5.77914 280.177L3.97433 281.039C5.48181 284.196 7.61326 286.676 10.3725 288.446L11.452 286.762ZM5.78091 280.181C4.43502 277.332 3.73084 273.986 3.69875 270.118L1.69882 270.134C1.73284 274.235 2.48064 277.877 3.97256 281.035L5.78091 280.181ZM3.69875 270.118C3.66639 266.218 4.31526 262.845 5.61328 259.976L3.79099 259.151C2.35126 262.335 1.66455 266.004 1.69882 270.134L3.69875 270.118ZM5.61157 259.979C6.92473 257.108 8.78048 254.893 11.1744 253.301L10.0671 251.636C7.33759 253.451 5.24759 255.966 3.7927 259.148L5.61157 259.979ZM11.1687 253.305C13.5621 251.737 16.4294 250.92 19.8125 250.892L19.7959 248.892C16.0884 248.923 12.8334 249.824 10.0728 251.632L11.1687 253.305ZM19.8125 250.892L49.6297 250.645L49.6131 248.645L19.7959 248.892L19.8125 250.892ZM48.6214 249.653L48.7263 262.289L50.7262 262.273L50.6214 249.637L48.6214 249.653ZM49.7179 261.281L20.9917 261.519L21.0082 263.519L49.7345 263.281L49.7179 261.281ZM20.9917 261.519C19.3996 261.532 17.9434 261.898 16.6485 262.637L17.6402 264.374C18.6074 263.822 19.7216 263.53 21.0082 263.519L20.9917 261.519ZM16.6436 262.64C15.3714 263.376 14.3711 264.393 13.6562 265.678L15.4037 266.65C15.9429 265.682 16.6855 264.927 17.6452 264.371L16.6436 262.64ZM13.6534 265.683C12.9357 266.99 12.5943 268.452 12.6075 270.044L14.6075 270.027C14.5968 268.74 14.8704 267.622 15.4065 266.645L13.6534 265.683ZM12.6075 270.044C12.6209 271.649 12.9855 273.108 13.7285 274.392L15.4596 273.39C14.9113 272.442 14.6183 271.331 14.6075 270.027L12.6075 270.044ZM13.7285 274.392C14.4646 275.664 15.4816 276.664 16.7658 277.379L17.7386 275.632C16.7699 275.092 16.0149 274.35 15.4596 273.39L13.7285 274.392ZM16.7709 277.382C18.0778 278.1 19.5399 278.441 21.1319 278.428L21.1153 276.428C19.8287 276.439 18.7098 276.165 17.7336 275.629L16.7709 277.382ZM21.1319 278.428L49.8582 278.189L49.8416 276.19L21.1153 276.428L21.1319 278.428ZM35.6678 321.042L35.5798 320.045L34.6602 320.127L34.6678 321.05L35.6678 321.042ZM39.199 319.308L38.4311 318.667L38.4264 318.673L39.199 319.308ZM39.9299 311.529L38.995 311.884L38.9987 311.893L39.9299 311.529ZM38.6649 309.721L39.2545 308.913L39.2545 308.913L38.6649 309.721ZM36.8417 309.122L36.796 310.121L36.8119 310.122L36.8278 310.122L36.8417 309.122ZM35.3214 309.43L34.8668 308.54L34.8488 308.549L34.8311 308.559L35.3214 309.43ZM34.1264 310.577L33.3046 310.007L33.299 310.015L33.2935 310.023L34.1264 310.577ZM32.4393 315.432L33.4189 315.633L33.4205 315.625L32.4393 315.432ZM31.6528 319.257L30.6733 319.055L30.6729 319.058L31.6528 319.257ZM29.5487 325.888L28.6463 325.457L29.5487 325.888ZM26.427 330.414L25.7276 329.699L25.7231 329.704L26.427 330.414ZM22.403 333.016L22.0535 332.079L22.0452 332.082L22.403 333.016ZM17.5013 333.92L17.5046 334.92L17.5181 334.92L17.5013 333.92ZM9.70978 331.689L9.13531 332.508L9.70978 331.689ZM4.81511 325.23L5.74292 324.856L5.74223 324.855L4.81511 325.23ZM4.77969 304.525L3.84785 304.162L3.84722 304.163L4.77969 304.525ZM10.2442 297.479L9.68605 296.649L9.68025 296.653L10.2442 297.479ZM19.814 294.9L20.814 294.891L20.8056 293.887L19.8018 293.9L19.814 294.9ZM19.9136 306.899L19.975 307.897L20.9214 307.839L20.9135 306.891L19.9136 306.899ZM16.3316 307.997L15.7761 307.166L16.3316 307.997ZM14.1494 310.697L13.2289 310.306L13.227 310.311L14.1494 310.697ZM13.962 318.244L13.026 318.596L13.962 318.244ZM15.3655 320.301L14.7498 321.089L15.3655 320.301ZM17.3942 321.011L17.3825 322.011L17.4031 322.012L17.4238 322.011L17.3942 321.011ZM19.2519 320.291L18.6181 319.518L18.6063 319.528L18.5948 319.538L19.2519 320.291ZM20.6883 318.098L19.7672 317.708L19.7625 317.72L20.6883 318.098ZM21.8814 313.974L22.8599 314.18L22.8606 314.177L21.8814 313.974ZM22.8429 309.329L21.8639 309.126L21.8637 309.127L22.8429 309.329ZM27.2391 299.543L26.487 298.884L26.4826 298.889L27.2391 299.543ZM35.8233 295.949L35.8274 296.949L35.8367 296.948L35.8233 295.949ZM43.5926 298.248L44.1707 297.432L44.1697 297.431L43.5926 298.248ZM48.8522 304.863L49.7655 304.456L49.7647 304.454L48.8522 304.863ZM48.9916 324.408L48.0792 323.999L48.9916 324.408ZM43.7262 330.793L43.1749 329.959L43.1685 329.963L43.7262 330.793ZM35.7681 333.132L34.7681 333.14L34.7765 334.145L35.7814 334.132L35.7681 333.132ZM35.7558 322.038C37.494 321.884 38.9353 321.204 39.9716 319.943L38.4264 318.673C37.7826 319.456 36.8698 319.932 35.5798 320.045L35.7558 322.038ZM39.9668 319.948C41.0237 318.682 41.4516 316.877 41.4337 314.721L39.4338 314.737C39.4499 316.672 39.0546 317.92 38.4311 318.667L39.9668 319.948ZM41.4337 314.721C41.4223 313.347 41.2461 312.148 40.8612 311.164L38.9987 311.893C39.2639 312.571 39.4236 313.505 39.4338 314.737L41.4337 314.721ZM40.8648 311.174C40.5078 310.234 39.9874 309.448 39.2545 308.913L38.0752 310.529C38.4094 310.773 38.7324 311.192 38.9951 311.884L40.8648 311.174ZM39.2545 308.913C38.5479 308.397 37.7376 308.135 36.8556 308.122L36.8278 310.122C37.3096 310.129 37.7147 310.265 38.0752 310.529L39.2545 308.913ZM36.8874 308.123C36.1718 308.091 35.4898 308.222 34.8668 308.54L35.7761 310.321C36.0584 310.177 36.3899 310.103 36.796 310.121L36.8874 308.123ZM34.8311 308.559C34.2325 308.896 33.7287 309.395 33.3046 310.007L34.9481 311.147C35.2427 310.722 35.5357 310.457 35.8118 310.302L34.8311 308.559ZM33.2935 310.023C32.8895 310.631 32.5435 311.375 32.2442 312.232L34.1324 312.892C34.3954 312.138 34.6749 311.558 34.9593 311.13L33.2935 310.023ZM32.2442 312.232C31.9433 313.094 31.6826 314.098 31.4581 315.239L33.4205 315.625C33.6322 314.55 33.8708 313.641 34.1324 312.892L32.2442 312.232ZM31.4598 315.23L30.6733 319.055L32.6324 319.458L33.4188 315.633L31.4598 315.23ZM30.6729 319.058C30.1606 321.58 29.4813 323.708 28.6463 325.457L30.4511 326.319C31.3735 324.387 32.0969 322.094 32.6328 319.456L30.6729 319.058ZM28.6463 325.457C27.8077 327.214 26.8306 328.62 25.7276 329.699L27.1265 331.129C28.4283 329.855 29.5323 328.244 30.4511 326.319L28.6463 325.457ZM25.7231 329.704C24.6318 330.785 23.4098 331.573 22.0535 332.079L22.7526 333.953C24.3871 333.343 25.8478 332.396 27.1309 331.124L25.7231 329.704ZM22.0452 332.082C20.6699 332.609 19.1528 332.892 17.4844 332.92L17.5181 334.92C19.3949 334.888 21.1456 334.569 22.7609 333.949L22.0452 332.082ZM17.4979 332.92C14.607 332.93 12.2208 332.23 10.2842 330.871L9.13531 332.508C11.4662 334.144 14.2743 334.931 17.5046 334.92L17.4979 332.92ZM10.2842 330.871C8.3332 329.501 6.81204 327.515 5.74292 324.856L3.8873 325.603C5.07698 328.561 6.81894 330.882 9.13531 332.508L10.2842 330.871ZM5.74223 324.855C4.67206 322.207 4.10408 318.972 4.07213 315.122L2.0722 315.138C2.10562 319.167 2.6996 322.664 3.88798 325.604L5.74223 324.855ZM4.07213 315.122C4.03937 311.173 4.59563 307.768 5.71216 304.886L3.84722 304.163C2.61993 307.331 2.03784 310.997 2.0722 315.138L4.07213 315.122ZM5.71154 304.887C6.81652 302.05 8.51703 299.869 10.8081 298.305L9.68025 296.653C7.02942 298.463 5.08695 300.98 3.84785 304.162L5.71154 304.887ZM10.8023 298.309C13.085 296.773 16.0696 295.945 19.8262 295.899L19.8018 293.9C15.771 293.949 12.3757 294.84 9.68606 296.649L10.8023 298.309ZM18.814 294.908L18.9136 306.907L20.9135 306.891L20.814 294.891L18.814 294.908ZM19.8522 305.901C18.2923 305.997 16.9178 306.403 15.7761 307.166L16.8872 308.829C17.6742 308.303 18.6876 307.976 19.975 307.897L19.8522 305.901ZM15.7761 307.166C14.6363 307.927 13.7889 308.987 13.2289 310.306L15.0699 311.088C15.4908 310.096 16.0982 309.356 16.8872 308.829L15.7761 307.166ZM13.227 310.311C12.6725 311.635 12.4198 313.164 12.434 314.871L14.4339 314.854C14.4214 313.349 14.6457 312.101 15.0718 311.083L13.227 310.311ZM12.434 314.871C12.4458 316.294 12.6311 317.546 13.026 318.596L14.898 317.892C14.6112 317.13 14.4445 316.128 14.4339 314.854L12.434 314.871ZM13.026 318.596C13.4136 319.627 13.9746 320.483 14.7498 321.089L15.9812 319.513C15.5668 319.189 15.1922 318.674 14.898 317.892L13.026 318.596ZM14.7498 321.089C15.5179 321.689 16.4066 322 17.3825 322.011L17.4059 320.011C16.8664 320.005 16.4026 319.842 15.9812 319.513L14.7498 321.089ZM17.4238 322.011C18.362 321.983 19.2043 321.659 19.909 321.045L18.5948 319.538C18.2465 319.841 17.8503 319.997 17.3646 320.012L17.4238 322.011ZM19.8857 321.065C20.6094 320.472 21.1679 319.569 21.6141 318.476L19.7625 317.72C19.3771 318.664 18.978 319.223 18.6181 319.518L19.8857 321.065ZM21.6093 318.487C22.0756 317.385 22.4891 315.941 22.8599 314.18L20.9029 313.768C20.5448 315.468 20.163 316.773 19.7673 317.708L21.6093 318.487ZM22.8606 314.177L23.8221 309.532L21.8637 309.127L20.9022 313.771L22.8606 314.177ZM23.8219 309.533C24.658 305.518 26.0666 302.428 27.9957 300.197L26.4826 298.889C24.2694 301.449 22.7472 304.884 21.8639 309.126L23.8219 309.533ZM27.9912 300.202C29.8597 298.069 32.4305 296.963 35.8274 296.949L35.8191 294.949C31.9433 294.965 28.7913 296.254 26.487 298.884L27.9912 300.202ZM35.8367 296.948C38.5985 296.911 40.9775 297.624 43.0155 299.064L44.1697 297.431C41.7572 295.726 38.9566 294.906 35.8098 294.949L35.8367 296.948ZM43.0145 299.064C45.0914 300.535 46.7375 302.592 47.9398 305.273L49.7647 304.454C48.4351 301.489 46.5748 299.135 44.1707 297.432L43.0145 299.064ZM47.939 305.271C49.1395 307.962 49.7675 311.082 49.7971 314.651L51.797 314.635C51.7655 310.841 51.0969 307.441 49.7655 304.456L47.939 305.271ZM49.7971 314.651C49.8273 318.299 49.2425 321.406 48.0792 323.999L49.904 324.818C51.2103 321.906 51.8291 318.502 51.797 314.635L49.7971 314.651ZM48.0792 323.999C46.9135 326.598 45.2756 328.571 43.1749 329.959L44.2776 331.628C46.7278 330.008 48.6002 327.725 49.904 324.818L48.0792 323.999ZM43.1685 329.963C41.0881 331.361 38.6297 332.094 35.7548 332.132L35.7814 334.132C38.997 334.089 41.844 333.263 44.284 331.623L43.1685 329.963ZM36.7681 333.124L36.6678 321.033L34.6678 321.05L34.7681 333.14L36.7681 333.124Z" fill="#05C2DF" fill-opacity="0.02" mask="url(#path-1-outside-1_1_7860)"/>
</svg>
