<svg width="52" height="334" viewBox="0 0 52 334" fill="none" xmlns="http://www.w3.org/2000/svg">
<mask id="path-1-outside-1_1_7862" maskUnits="userSpaceOnUse" x="-1.04688" y="-1.01109" width="53.7858" height="336.412" fill="black">
<rect fill="white" x="-1.04688" y="-1.01109" width="53.7858" height="336.412"/>
<path d="M50.6138 319.904L50.7269 333.539L4.05559 318.562L3.91229 301.29L50.3287 285.541L50.4418 299.177L16.8002 309.638L16.8032 310.002L50.6138 319.904ZM32.2719 322.601L32.0592 296.966L41.5134 296.887L41.7261 322.523L32.2719 322.601ZM50.2915 281.058L3.74764 281.444L3.58021 261.263C3.55079 257.718 4.00335 254.737 4.93788 252.32C5.87228 249.888 7.20557 248.051 8.93775 246.809C10.6698 245.552 12.7176 244.914 15.0812 244.895C16.7932 244.88 18.3569 245.246 19.7723 245.992C21.1875 246.723 22.3779 247.758 23.3436 249.099C24.2942 250.44 24.9587 252.01 25.3373 253.81L25.7918 253.806C25.851 251.806 26.3435 249.983 27.2693 248.339C28.1799 246.695 29.4493 245.381 31.0776 244.398C32.6907 243.415 34.5957 242.914 36.7926 242.896C39.338 242.875 41.6086 243.523 43.6044 244.84C45.6001 246.141 47.1763 248.007 48.3328 250.437C49.4894 252.867 50.0817 255.771 50.1097 259.15L50.2915 281.058ZM40.0961 268.506L40.0471 262.597C40.0295 260.476 39.6224 258.888 38.8257 257.834C38.0139 256.781 36.8277 256.26 35.2672 256.273C34.1763 256.282 33.2542 256.54 32.5008 257.046C31.7474 257.552 31.1775 258.269 30.7913 259.197C30.4049 260.109 30.217 261.209 30.2277 262.497L30.2783 268.588L40.0961 268.506ZM22.4603 268.652L22.4174 263.471C22.4082 262.365 22.2258 261.389 21.8703 260.543C21.5148 259.698 21.0094 259.043 20.354 258.579C19.6833 258.099 18.8707 257.864 17.9162 257.872C16.4769 257.883 15.3827 258.408 14.6337 259.444C13.8695 260.481 13.494 261.787 13.5071 263.363L13.5516 268.726L22.4603 268.652ZM26.2908 193.413C31.4725 193.37 35.8519 194.342 39.4291 196.327C42.9911 198.313 45.703 201.01 47.5647 204.419C49.4112 207.828 50.3519 211.639 50.3869 215.851C50.4221 220.093 49.5372 223.934 47.7324 227.373C45.9122 230.797 43.2379 233.532 39.7093 235.576C36.1654 237.606 31.8178 238.642 26.6664 238.685C21.4848 238.728 17.113 237.764 13.5511 235.793C9.97386 233.808 7.26206 231.118 5.41566 227.724C3.55398 224.315 2.60554 220.49 2.57035 216.247C2.5354 212.035 3.42036 208.21 5.22522 204.77C7.01493 201.331 9.68167 198.589 13.2254 196.545C16.7541 194.5 21.1092 193.456 26.2908 193.413ZM26.3987 206.413C23.6109 206.436 21.2656 206.827 19.3627 207.585C17.4446 208.328 15.999 209.424 15.0262 210.871C14.038 212.304 13.5526 214.065 13.57 216.156C13.5873 218.247 14.1019 220.008 15.1138 221.439C16.1105 222.855 17.574 223.926 19.5043 224.653C21.4194 225.364 23.7708 225.708 26.5586 225.685C29.3463 225.662 31.6993 225.279 33.6174 224.536C35.5203 223.777 36.9658 222.682 37.954 221.25C38.9268 219.802 39.4046 218.033 39.3873 215.942C39.3699 213.851 38.8629 212.098 37.8663 210.682C36.8544 209.251 35.3909 208.179 33.4758 207.468C31.5455 206.742 29.1865 206.39 26.3987 206.413ZM2.74186 160.216L2.63703 147.58L32.4542 147.332C35.9995 147.303 39.0746 148.126 41.6795 149.801C44.2692 151.462 46.281 153.794 47.715 156.797C49.134 159.8 49.8599 163.295 49.893 167.279C49.9263 171.294 49.2585 174.815 47.8896 177.842C46.5056 180.868 44.5327 183.233 41.971 184.937C39.394 186.625 36.3329 187.483 32.7875 187.513L2.97039 187.76L2.86555 175.124L31.5918 174.886C33.0312 174.874 34.3164 174.545 35.4474 173.899C36.5633 173.254 37.4348 172.368 38.0618 171.241C38.6887 170.1 38.9962 168.809 38.9843 167.37C38.9722 165.915 38.6434 164.63 37.9977 163.514C37.3521 162.398 36.466 161.527 35.3396 160.9C34.198 160.273 32.9075 159.965 31.4681 159.977L2.74186 160.216ZM12.7792 142.762L2.59776 142.847L2.26214 102.394L12.4436 102.309L12.5598 116.309L48.9221 116.007L49.0255 128.461L12.6631 128.763L12.7792 142.762ZM1.88838 57.3442L1.78355 44.7083L31.6007 44.4609C35.146 44.4315 38.2212 45.2545 40.8261 46.9299C43.4157 48.5903 45.4275 50.9222 46.8616 53.9255C48.2805 56.929 49.0065 60.4231 49.0395 64.4078C49.0728 68.4228 48.405 71.9436 47.0362 74.9703C45.6521 77.997 43.6793 80.3619 41.1176 82.0651C38.5406 83.7532 35.4794 84.6119 31.9341 84.6413L2.11691 84.8887L2.01207 72.2528L30.7384 72.0145C32.1777 72.0025 33.4629 71.6737 34.5939 71.0279C35.7098 70.3822 36.5813 69.4962 37.2083 68.3697C37.8353 67.2281 38.1427 65.9377 38.1308 64.4983C38.1187 63.0438 37.7899 61.7586 37.1442 60.6427C36.4986 59.5268 35.6125 58.6554 34.4861 58.0283C33.3445 57.4014 32.054 57.0939 30.6147 57.1059L1.88838 57.3442ZM16.0705 13.4921C14.5564 13.6259 13.3794 14.2038 12.5393 15.226C11.6992 16.233 11.2876 17.7592 11.3045 19.8046C11.3154 21.1076 11.4833 22.1744 11.8084 23.005C12.1182 23.8207 12.5399 24.4233 13.0734 24.8128C13.607 25.2023 14.2147 25.4018 14.8966 25.4113C15.4575 25.437 15.9642 25.3343 16.4169 25.1032C16.8542 24.8572 17.2526 24.4751 17.6119 23.9569C17.9561 23.4389 18.2688 22.7772 18.55 21.9718C18.8313 21.1664 19.0809 20.2098 19.299 19.1019L20.0855 15.277C20.6095 12.6968 21.3109 10.4864 22.1896 8.6457C23.0683 6.80501 24.1089 5.29633 25.3113 4.11964C26.4985 2.94309 27.8398 2.07587 29.3353 1.51799C30.8306 0.944955 32.4645 0.64351 34.237 0.613652C37.2977 0.603412 39.8948 1.34704 42.0285 2.84454C44.1622 4.34205 45.7938 6.49525 46.9232 9.30416C48.0525 12.0979 48.6335 15.4644 48.6661 19.4037C48.6997 23.449 48.1305 26.9841 46.9586 30.0091C45.7866 33.019 43.9651 35.3675 41.4941 37.0547C39.0079 38.7269 35.818 39.5867 31.9243 39.6342L31.8248 27.6346C33.2483 27.547 34.4423 27.181 35.4067 26.5367C36.3711 25.8923 37.0985 24.9923 37.5889 23.8366C38.0792 22.6659 38.3177 21.2775 38.3044 19.6715C38.2932 18.323 38.1172 17.1957 37.7763 16.2894C37.4354 15.3831 36.9676 14.6975 36.3728 14.2328C35.778 13.768 35.1018 13.5312 34.3441 13.5223C33.6322 13.5434 33.0129 13.7834 32.4864 14.2423C31.9446 14.6862 31.4658 15.4175 31.05 16.4361C30.619 17.4549 30.2213 18.8294 29.8569 20.5598L28.8954 25.2043C28.0357 29.3328 26.5703 32.595 24.4992 34.9911C22.4128 37.3721 19.5514 38.5701 15.9151 38.5851C12.9607 38.6248 10.371 37.8584 8.14571 36.2859C5.90519 34.6984 4.15199 32.4931 2.8861 29.6702C1.62009 26.8321 0.971807 23.5722 0.941262 19.8905C0.910088 16.1331 1.51189 12.878 2.74667 10.1252C3.98145 7.37247 5.73659 5.2442 8.01207 3.74042C10.2723 2.22162 12.925 1.44201 15.9702 1.40159L16.0705 13.4921Z"/>
</mask>
<path d="M50.6138 319.904L51.6137 319.895L51.6076 319.153L50.8948 318.944L50.6138 319.904ZM50.7269 333.539L50.4214 334.492L51.7383 334.914L51.7269 333.531L50.7269 333.539ZM4.05559 318.562L3.05563 318.571L3.06162 319.294L3.75004 319.515L4.05559 318.562ZM3.91229 301.29L3.59098 300.343L2.90633 300.576L2.91233 301.299L3.91229 301.29ZM50.3287 285.541L51.3287 285.533L51.3172 284.15L50.0074 284.594L50.3287 285.541ZM50.4418 299.177L50.7388 300.132L51.4479 299.911L51.4418 299.169L50.4418 299.177ZM16.8002 309.638L16.5032 308.683L15.7941 308.904L15.8002 309.647L16.8002 309.638ZM16.8032 310.002L15.8032 310.01L15.8094 310.753L16.5221 310.962L16.8032 310.002ZM32.2719 322.601L31.2719 322.61L31.2802 323.61L32.2802 323.601L32.2719 322.601ZM32.0592 296.966L32.0509 295.966L31.0509 295.974L31.0592 296.974L32.0592 296.966ZM41.5134 296.887L42.5134 296.879L42.5051 295.879L41.5051 295.887L41.5134 296.887ZM41.7261 322.523L41.7344 323.523L42.7344 323.515L42.7261 322.515L41.7261 322.523ZM49.6138 319.912L49.7269 333.548L51.7269 333.531L51.6137 319.895L49.6138 319.912ZM51.0325 332.587L4.36115 317.61L3.75004 319.515L50.4214 334.492L51.0325 332.587ZM5.05556 318.554L4.91226 301.282L2.91233 301.299L3.05563 318.571L5.05556 318.554ZM4.2336 302.237L50.65 286.488L50.0074 284.594L3.59098 300.343L4.2336 302.237ZM49.3287 285.549L49.4419 299.185L51.4418 299.169L51.3287 285.533L49.3287 285.549ZM50.1449 298.222L16.5032 308.683L17.0971 310.593L50.7388 300.132L50.1449 298.222ZM15.8002 309.647L15.8032 310.01L17.8032 309.994L17.8001 309.63L15.8002 309.647ZM16.5221 310.962L50.3327 320.863L50.8948 318.944L17.0842 309.042L16.5221 310.962ZM33.2719 322.593L33.0592 296.957L31.0592 296.974L31.2719 322.61L33.2719 322.593ZM32.0675 297.966L41.5217 297.887L41.5051 295.887L32.0509 295.966L32.0675 297.966ZM40.5135 296.896L40.7261 322.531L42.7261 322.515L42.5134 296.879L40.5135 296.896ZM41.7178 321.523L32.2636 321.601L32.2802 323.601L41.7344 323.523L41.7178 321.523ZM50.2915 281.058L50.2998 282.058L51.2998 282.05L51.2915 281.05L50.2915 281.058ZM3.74764 281.444L2.74768 281.453L2.75597 282.453L3.75594 282.444L3.74764 281.444ZM4.93788 252.32L5.87059 252.681L5.87135 252.679L4.93788 252.32ZM8.93775 246.809L9.52037 247.622L9.52505 247.619L8.93775 246.809ZM19.7723 245.992L19.306 246.877L19.3135 246.881L19.7723 245.992ZM23.3436 249.099L24.1594 248.521L24.155 248.514L23.3436 249.099ZM25.3373 253.81L24.3587 254.016L24.5272 254.817L25.3456 254.81L25.3373 253.81ZM25.7918 253.806L25.8001 254.806L26.7629 254.798L26.7914 253.836L25.7918 253.806ZM27.2693 248.339L28.1406 248.83L28.144 248.824L27.2693 248.339ZM31.0776 244.398L31.5945 245.254L31.598 245.252L31.0776 244.398ZM43.6044 244.84L43.0537 245.675L43.0581 245.677L43.6044 244.84ZM48.3328 250.437L47.4299 250.867L48.3328 250.437ZM40.0961 268.506L40.1044 269.506L41.1044 269.498L41.0961 268.498L40.0961 268.506ZM38.8257 257.834L39.6235 257.231L39.6179 257.224L38.8257 257.834ZM30.7913 259.197L31.7121 259.587L31.7144 259.581L30.7913 259.197ZM30.2783 268.588L29.2783 268.596L29.2866 269.596L30.2866 269.588L30.2783 268.588ZM22.4603 268.652L22.4686 269.652L23.4686 269.644L23.4603 268.644L22.4603 268.652ZM21.8703 260.543L22.7922 260.156L21.8703 260.543ZM20.354 258.579L19.7725 259.392L19.7759 259.395L20.354 258.579ZM14.6337 259.444L15.4387 260.038L15.4442 260.03L14.6337 259.444ZM13.5516 268.726L12.5516 268.735L12.5599 269.735L13.5599 269.726L13.5516 268.726ZM50.2832 280.058L3.73934 280.444L3.75594 282.444L50.2998 282.058L50.2832 280.058ZM4.74761 281.436L4.58017 261.255L2.58024 261.272L2.74768 281.453L4.74761 281.436ZM4.58017 261.255C4.55145 257.792 4.99494 254.945 5.87058 252.681L4.00517 251.959C3.01177 254.529 2.55014 257.644 2.58024 261.272L4.58017 261.255ZM5.87135 252.679C6.75138 250.388 7.97919 248.727 9.52036 247.622L8.35514 245.997C6.43194 247.375 4.99317 249.388 4.0044 251.961L5.87135 252.679ZM9.52505 247.619C11.0711 246.497 12.9113 245.913 15.0895 245.895L15.0729 243.895C12.524 243.916 10.2685 244.608 8.35045 246L9.52505 247.619ZM15.0895 245.895C16.6482 245.882 18.0471 246.213 19.306 246.877L20.2385 245.107C18.6667 244.279 16.9383 243.879 15.0729 243.895L15.0895 245.895ZM19.3135 246.881C20.5836 247.536 21.655 248.466 22.5322 249.683L24.155 248.514C23.1009 247.051 21.7913 245.909 20.231 245.104L19.3135 246.881ZM22.5278 249.677C23.3902 250.894 24.005 252.334 24.3587 254.016L26.3159 253.604C25.9125 251.686 25.1981 249.986 24.1594 248.521L22.5278 249.677ZM25.3456 254.81L25.8001 254.806L25.7835 252.806L25.329 252.81L25.3456 254.81ZM26.7914 253.836C26.8461 251.987 27.2991 250.324 28.1406 248.83L26.3979 247.848C25.3879 249.642 24.8559 251.624 24.7923 253.777L26.7914 253.836ZM28.144 248.824C28.9688 247.335 30.1141 246.148 31.5945 245.254L30.5607 243.542C28.7846 244.615 27.3909 246.056 26.3945 247.855L28.144 248.824ZM31.598 245.252C33.0331 244.378 34.7549 243.913 36.8009 243.896L36.7843 241.896C34.4365 241.916 32.3483 242.453 30.5572 243.544L31.598 245.252ZM36.8009 243.896C39.1611 243.877 41.2346 244.474 43.0537 245.674L44.1551 244.005C41.9826 242.572 39.5148 241.874 36.7843 241.896L36.8009 243.896ZM43.0581 245.677C44.8805 246.866 46.3419 248.581 47.4299 250.867L49.2358 250.007C48.0106 247.433 46.3198 245.417 44.1507 244.002L43.0581 245.677ZM47.4299 250.867C48.5099 253.136 49.0826 255.889 49.1098 259.158L51.1097 259.142C51.0808 255.653 50.4689 252.598 49.2358 250.007L47.4299 250.867ZM49.1098 259.158L49.2915 281.067L51.2915 281.05L51.1097 259.142L49.1098 259.158ZM41.0961 268.498L41.047 262.589L39.0471 262.605L39.0961 268.514L41.0961 268.498ZM41.047 262.589C41.0287 260.373 40.607 258.533 39.6235 257.231L38.0279 258.437C38.6377 259.244 39.0303 260.579 39.0471 262.605L41.047 262.589ZM39.6179 257.224C38.5805 255.877 37.0713 255.258 35.2589 255.273L35.2755 257.273C36.5841 257.262 37.4473 257.684 38.0335 258.445L39.6179 257.224ZM35.2589 255.273C34.0122 255.283 32.8893 255.58 31.943 256.216L33.0585 257.876C33.619 257.499 34.3404 257.281 35.2755 257.273L35.2589 255.273ZM31.943 256.216C31.0095 256.843 30.3215 257.724 29.8681 258.812L31.7144 259.581C32.0336 258.815 32.4852 258.261 33.0585 257.876L31.943 256.216ZM29.8705 258.807C29.4173 259.877 29.2163 261.12 29.2278 262.505L31.2277 262.489C31.2178 261.298 31.3925 260.341 31.7121 259.587L29.8705 258.807ZM29.2278 262.505L29.2783 268.596L31.2782 268.579L31.2277 262.489L29.2278 262.505ZM30.2866 269.588L40.1044 269.506L40.0878 267.506L30.27 267.588L30.2866 269.588ZM23.4603 268.644L23.4173 263.462L21.4174 263.479L21.4604 268.661L23.4603 268.644ZM23.4173 263.462C23.4073 262.252 23.2074 261.143 22.7922 260.156L20.9485 260.931C21.2442 261.634 21.4091 262.477 21.4174 263.479L23.4173 263.462ZM22.7922 260.156C22.3748 259.163 21.7605 258.349 20.932 257.763L19.7759 259.395C20.2582 259.736 20.6548 260.232 20.9485 260.931L22.7922 260.156ZM20.9354 257.765C20.0666 257.144 19.0392 256.862 17.9079 256.872L17.9245 258.872C18.7023 258.865 19.3 259.054 19.7725 259.392L20.9354 257.765ZM17.9079 256.872C16.1964 256.886 14.7838 257.529 13.8231 258.859L15.4442 260.03C15.9815 259.286 16.7573 258.881 17.9245 258.872L17.9079 256.872ZM13.8287 258.851C12.9097 260.098 12.4926 261.629 12.5071 263.371L14.507 263.355C14.4953 261.946 14.8294 260.864 15.4386 260.038L13.8287 258.851ZM12.5071 263.371L12.5516 268.735L14.5515 268.718L14.507 263.355L12.5071 263.371ZM13.5599 269.726L22.4686 269.652L22.452 267.652L13.5433 267.726L13.5599 269.726ZM39.4291 196.327L39.916 195.454L39.9144 195.453L39.4291 196.327ZM47.5647 204.419L48.444 203.943L48.4423 203.94L47.5647 204.419ZM47.7324 227.373L48.6154 227.842L48.6179 227.838L47.7324 227.373ZM39.7093 235.576L40.2062 236.444L40.2106 236.442L39.7093 235.576ZM13.5511 235.793L13.0658 236.668L13.067 236.668L13.5511 235.793ZM5.41566 227.724L6.29408 227.246L6.29331 227.245L5.41566 227.724ZM5.22522 204.77L6.11071 205.235L6.1123 205.232L5.22522 204.77ZM13.2254 196.545L13.7252 197.411L13.7268 197.41L13.2254 196.545ZM19.3627 207.585L19.724 208.518L19.7329 208.514L19.3627 207.585ZM15.0262 210.871L15.8494 211.439L15.8561 211.429L15.0262 210.871ZM15.1138 221.439L15.9316 220.863L15.9303 220.862L15.1138 221.439ZM19.5043 224.653L19.1521 225.589L19.1561 225.59L19.5043 224.653ZM33.6175 224.536L33.9788 225.468L33.9876 225.465L33.6175 224.536ZM37.954 221.25L38.7772 221.817L38.7839 221.807L37.954 221.25ZM37.8663 210.682L38.6841 210.106L38.6828 210.104L37.8663 210.682ZM33.4758 207.468L33.1236 208.404L33.1276 208.405L33.4758 207.468ZM26.2991 194.413C31.3533 194.372 35.5526 195.319 38.9438 197.202L39.9144 195.453C36.1511 193.364 31.5916 192.369 26.2825 192.414L26.2991 194.413ZM38.9422 197.201C42.348 199.099 44.9204 201.664 46.687 204.898L48.4423 203.94C46.4856 200.357 43.6342 197.527 39.916 195.454L38.9422 197.201ZM46.6854 204.895C48.4474 208.149 49.3532 211.796 49.3869 215.859L51.3868 215.842C51.3507 211.481 50.375 207.508 48.444 203.943L46.6854 204.895ZM49.3869 215.859C49.4209 219.952 48.5683 223.628 46.8469 226.908L48.6179 227.838C50.5062 224.239 51.4233 220.234 51.3868 215.842L49.3869 215.859ZM46.8494 226.904C45.1216 230.154 42.5836 232.755 39.2079 234.711L40.2106 236.442C43.8922 234.308 46.7029 231.441 48.6154 227.842L46.8494 226.904ZM39.2123 234.709C35.8513 236.633 31.682 237.643 26.6581 237.685L26.6747 239.685C31.9535 239.641 36.4794 238.578 40.2062 236.444L39.2123 234.709ZM26.6581 237.685C21.6026 237.727 17.4107 236.786 14.0351 234.918L13.067 236.668C16.8153 238.742 21.367 239.729 26.6747 239.685L26.6581 237.685ZM14.0364 234.919C10.6149 233.02 8.04429 230.463 6.29408 227.246L4.53724 228.202C6.47982 231.773 9.33278 234.596 13.0658 236.668L14.0364 234.919ZM6.29331 227.245C4.51769 223.994 3.60427 220.332 3.57031 216.239L1.57038 216.256C1.60681 220.647 2.59027 224.637 4.53801 228.204L6.29331 227.245ZM3.57031 216.239C3.53661 212.178 4.38872 208.517 6.1107 205.235L4.33974 204.306C2.45199 207.903 1.53419 211.893 1.57038 216.256L3.57031 216.239ZM6.1123 205.232C7.80911 201.971 10.3369 199.366 13.7252 197.411L12.7257 195.679C9.02648 197.813 6.22076 200.691 4.33814 204.309L6.1123 205.232ZM13.7268 197.41C17.0701 195.473 21.2447 194.455 26.2991 194.413L26.2825 192.414C20.9737 192.458 16.438 193.528 12.7241 195.679L13.7268 197.41ZM26.3904 205.413C23.5205 205.437 21.0439 205.839 18.9925 206.656L19.7329 208.514C21.4872 207.815 23.7013 207.435 26.407 207.413L26.3904 205.413ZM19.0014 206.653C16.9275 207.456 15.3026 208.667 14.1962 210.313L15.8561 211.429C16.6955 210.18 17.9616 209.2 19.724 208.518L19.0014 206.653ZM14.203 210.303C13.0762 211.937 12.5513 213.91 12.57 216.164L14.5699 216.148C14.5539 214.22 14.9999 212.67 15.8493 211.439L14.203 210.303ZM12.57 216.164C12.5887 218.419 13.1464 220.389 14.2974 222.016L15.9303 220.862C15.0574 219.627 14.5859 218.075 14.5699 216.148L12.57 216.164ZM14.2961 222.015C15.4288 223.624 17.0705 224.805 19.1521 225.589L19.8565 223.717C18.0774 223.047 16.7921 222.086 15.9316 220.863L14.2961 222.015ZM19.1561 225.59C21.2184 226.356 23.6988 226.709 26.5669 226.685L26.5503 224.685C23.8427 224.708 21.6203 224.372 19.8525 223.715L19.1561 225.59ZM26.5669 226.685C29.4353 226.661 31.9158 226.267 33.9787 225.468L33.2562 223.603C31.4828 224.29 29.2574 224.663 26.5503 224.685L26.5669 226.685ZM33.9876 225.465C36.0407 224.646 37.6583 223.439 38.7771 221.817L37.1308 220.682C36.2734 221.925 35 222.908 33.2473 223.607L33.9876 225.465ZM38.7839 221.807C39.89 220.162 40.4059 218.185 40.3872 215.934L38.3873 215.95C38.4033 217.88 37.9637 219.442 37.124 220.692L38.7839 221.807ZM40.3872 215.934C40.3686 213.683 39.8201 211.72 38.6841 210.106L37.0485 211.257C37.9057 212.475 38.3713 214.02 38.3873 215.95L40.3872 215.934ZM38.6828 210.104C37.5363 208.483 35.8958 207.3 33.8241 206.531L33.1276 208.405C34.886 209.059 36.1725 210.018 37.0498 211.259L38.6828 210.104ZM33.8281 206.532C31.7498 205.75 29.2607 205.389 26.3904 205.413L26.407 207.413C29.1122 207.391 31.3412 207.733 33.1236 208.404L33.8281 206.532ZM2.74186 160.216L1.7419 160.224L1.75019 161.224L2.75016 161.216L2.74186 160.216ZM2.63703 147.58L2.62873 146.58L1.62876 146.588L1.63706 147.588L2.63703 147.58ZM41.6795 149.801L41.1386 150.642L41.1398 150.643L41.6795 149.801ZM47.715 156.797L48.6192 156.37L48.6175 156.366L47.715 156.797ZM47.8896 177.842L48.7991 178.258L48.8008 178.254L47.8896 177.842ZM41.971 184.937L42.519 185.773L42.5247 185.769L41.971 184.937ZM2.97039 187.76L1.97042 187.768L1.97872 188.768L2.97868 188.76L2.97039 187.76ZM2.86555 175.124L2.85725 174.124L1.85729 174.133L1.86559 175.133L2.86555 175.124ZM35.4474 173.899L35.9433 174.768L35.9482 174.765L35.4474 173.899ZM38.0618 171.241L38.9356 171.728L38.9384 171.723L38.0618 171.241ZM37.9977 163.514L38.8633 163.013L37.9977 163.514ZM35.3396 160.9L35.8259 160.026L35.8209 160.023L35.3396 160.9ZM3.74183 160.207L3.63699 147.571L1.63706 147.588L1.7419 160.224L3.74183 160.207ZM2.64532 148.58L32.4625 148.332L32.4459 146.332L2.62873 146.58L2.64532 148.58ZM32.4625 148.332C35.8421 148.304 38.7202 149.087 41.1386 150.642L42.2205 148.96C39.4291 147.165 36.1569 146.302 32.4459 146.332L32.4625 148.332ZM41.1398 150.643C43.5598 152.195 45.452 154.378 46.8126 157.228L48.6175 156.366C47.11 153.209 44.9785 150.729 42.2193 148.96L41.1398 150.643ZM46.8109 157.224C48.1568 160.073 48.8609 163.419 48.893 167.288L50.893 167.271C50.8589 163.17 50.1111 159.528 48.6192 156.37L46.8109 157.224ZM48.893 167.288C48.9254 171.187 48.2765 174.56 46.9785 177.43L48.8008 178.254C50.2405 175.071 50.9272 171.401 50.893 167.271L48.893 167.288ZM46.9802 177.426C45.6671 180.298 43.8113 182.512 41.4174 184.104L42.5247 185.769C45.2542 183.955 47.3442 181.439 48.7991 178.258L46.9802 177.426ZM41.4231 184.1C39.0297 185.668 36.1624 186.485 32.7792 186.513L32.7958 188.513C36.5034 188.482 39.7584 187.581 42.519 185.773L41.4231 184.1ZM32.7792 186.513L2.96209 186.76L2.97868 188.76L32.7958 188.513L32.7792 186.513ZM3.97035 187.752L3.86552 175.116L1.86559 175.133L1.97042 187.768L3.97035 187.752ZM2.87385 176.124L31.6001 175.886L31.5835 173.886L2.85725 174.124L2.87385 176.124ZM31.6001 175.886C33.1922 175.873 34.6484 175.507 35.9432 174.768L34.9516 173.031C33.9843 173.583 32.8702 173.875 31.5835 173.886L31.6001 175.886ZM35.9482 174.765C37.2204 174.029 38.2207 173.012 38.9356 171.728L37.1881 170.755C36.6488 171.724 35.9062 172.479 34.9466 173.034L35.9482 174.765ZM38.9384 171.723C39.6561 170.416 39.9975 168.954 39.9842 167.361L37.9843 167.378C37.995 168.665 37.7214 169.784 37.1853 170.76L38.9384 171.723ZM39.9842 167.361C39.9709 165.757 39.6062 164.297 38.8633 163.013L37.1322 164.015C37.6805 164.963 37.9735 166.074 37.9843 167.378L39.9842 167.361ZM38.8633 163.013C38.1272 161.741 37.1101 160.741 35.8259 160.026L34.8532 161.774C35.8219 162.313 36.5769 163.055 37.1322 164.015L38.8633 163.013ZM35.8209 160.023C34.514 159.306 33.0519 158.964 31.4598 158.977L31.4764 160.977C32.7631 160.967 33.8819 161.24 34.8582 161.776L35.8209 160.023ZM31.4598 158.977L2.73356 159.216L2.75016 161.216L31.4764 160.977L31.4598 158.977ZM12.7792 142.762L12.7875 143.762L13.7875 143.754L13.7792 142.754L12.7792 142.762ZM2.59776 142.847L1.5978 142.855L1.60609 143.855L2.60606 143.847L2.59776 142.847ZM2.26214 102.394L2.25384 101.394L1.25388 101.402L1.26217 102.402L2.26214 102.394ZM12.4436 102.309L13.4436 102.301L13.4353 101.301L12.4353 101.309L12.4436 102.309ZM12.5598 116.309L11.5598 116.317L11.5681 117.317L12.5681 117.309L12.5598 116.309ZM48.9221 116.007L49.9221 115.999L49.9138 114.999L48.9138 115.007L48.9221 116.007ZM49.0255 128.461L49.0338 129.461L50.0337 129.453L50.0254 128.453L49.0255 128.461ZM12.6631 128.763L12.6548 127.763L11.6548 127.771L11.6631 128.771L12.6631 128.763ZM12.7709 141.763L2.58946 141.847L2.60606 143.847L12.7875 143.762L12.7709 141.763ZM3.59773 142.839L3.26211 102.385L1.26217 102.402L1.5978 142.855L3.59773 142.839ZM2.27044 103.394L12.4519 103.309L12.4353 101.309L2.25384 101.394L2.27044 103.394ZM11.4436 102.318L11.5598 116.317L13.5597 116.301L13.4436 102.301L11.4436 102.318ZM12.5681 117.309L48.9304 117.007L48.9138 115.007L12.5515 115.309L12.5681 117.309ZM47.9222 116.015L48.0255 128.47L50.0254 128.453L49.9221 115.999L47.9222 116.015ZM49.0172 127.461L12.6548 127.763L12.6714 129.763L49.0338 129.461L49.0172 127.461ZM11.6631 128.771L11.7793 142.771L13.7792 142.754L13.663 128.755L11.6631 128.771ZM1.88838 57.3442L0.888418 57.3525L0.896714 58.3525L1.89668 58.3442L1.88838 57.3442ZM1.78355 44.7083L1.77525 43.7083L0.775287 43.7166L0.783584 44.7166L1.78355 44.7083ZM40.8261 46.9299L40.2851 47.7709L40.2863 47.7717L40.8261 46.9299ZM46.8616 53.9255L47.7658 53.4984L47.764 53.4947L46.8616 53.9255ZM47.0362 74.9703L47.9456 75.3861L47.9473 75.3823L47.0362 74.9703ZM41.1176 82.0651L41.6655 82.9016L41.6712 82.8978L41.1176 82.0651ZM2.11691 84.8887L1.11694 84.897L1.12524 85.897L2.1252 85.8887L2.11691 84.8887ZM2.01207 72.2528L2.00378 71.2528L1.00381 71.2611L1.01211 72.2611L2.01207 72.2528ZM34.5939 71.0279L35.0898 71.8963L35.0947 71.8935L34.5939 71.0279ZM37.2083 68.3698L38.0821 68.8561L38.0849 68.8511L37.2083 68.3698ZM37.1442 60.6427L38.0098 60.1419L37.1442 60.6427ZM34.4861 58.0283L34.9725 57.1546L34.9674 57.1518L34.4861 58.0283ZM2.88835 57.3359L2.78351 44.7L0.783584 44.7166L0.888418 57.3525L2.88835 57.3359ZM1.79185 45.7082L31.609 45.4609L31.5924 43.4609L1.77525 43.7083L1.79185 45.7082ZM31.609 45.4609C34.9886 45.4328 37.8667 46.2155 40.2851 47.7709L41.367 46.0888C38.5756 44.2935 35.3034 43.4301 31.5924 43.4609L31.609 45.4609ZM40.2863 47.7717C42.7063 49.3234 44.5985 51.5068 45.9592 54.3564L47.764 53.4947C46.2565 50.3375 44.1251 47.8572 41.3658 46.0881L40.2863 47.7717ZM45.9574 54.3527C47.3033 57.2016 48.0075 60.5478 48.0396 64.4161L50.0395 64.3995C50.0055 60.2984 49.2577 56.6564 47.7657 53.4984L45.9574 54.3527ZM48.0396 64.4161C48.0719 68.3159 47.423 71.6882 46.125 74.5582L47.9473 75.3823C49.387 72.1991 50.0738 68.5297 50.0395 64.3995L48.0396 64.4161ZM46.1267 74.5544C44.8136 77.4262 42.9578 79.6407 40.5639 81.2323L41.6712 82.8978C44.4007 81.0831 46.4907 78.5678 47.9456 75.3861L46.1267 74.5544ZM40.5696 81.2286C38.1762 82.7964 35.3089 83.6133 31.9258 83.6414L31.9424 85.6413C35.6499 85.6105 38.9049 84.7099 41.6655 82.9016L40.5696 81.2286ZM31.9258 83.6414L2.10861 83.8887L2.1252 85.8887L31.9424 85.6413L31.9258 83.6414ZM3.11687 84.8804L3.01204 72.2445L1.01211 72.2611L1.11694 84.897L3.11687 84.8804ZM2.02037 73.2528L30.7467 73.0144L30.7301 71.0145L2.00378 71.2528L2.02037 73.2528ZM30.7467 73.0144C32.3387 73.0012 33.7949 72.6356 35.0898 71.8963L34.0981 70.1595C33.1309 70.7117 32.0167 71.0038 30.7301 71.0145L30.7467 73.0144ZM35.0947 71.8935C36.3669 71.1574 37.3672 70.1403 38.0821 68.8561L36.3346 67.8834C35.7954 68.8521 35.0528 69.6071 34.0931 70.1623L35.0947 71.8935ZM38.0849 68.8511C38.8026 67.5442 39.144 66.082 39.1308 64.49L37.1308 64.5066C37.1415 65.7933 36.8679 66.9121 36.3318 67.8884L38.0849 68.8511ZM39.1308 64.49C39.1175 62.8851 38.7528 61.426 38.0098 60.1419L36.2787 61.1435C36.827 62.0912 37.12 63.2026 37.1308 64.5066L39.1308 64.49ZM38.0098 60.1419C37.2737 58.8698 36.2567 57.8694 34.9725 57.1546L33.9997 58.9021C34.9684 59.4413 35.7234 60.1839 36.2787 61.1435L38.0098 60.1419ZM34.9674 57.1518C33.6605 56.4341 32.1984 56.0927 30.6064 56.1059L30.623 58.1058C31.9096 58.0952 33.0285 58.3687 34.0047 58.9049L34.9674 57.1518ZM30.6064 56.1059L1.88009 56.3442L1.89668 58.3442L30.623 58.1058L30.6064 56.1059ZM16.0705 13.4921L16.1585 14.4882L17.0781 14.4069L17.0705 13.4838L16.0705 13.4921ZM12.5393 15.226L13.3072 15.8666L13.3119 15.8609L12.5393 15.226ZM11.8084 23.005L12.7433 22.6499L12.7396 22.6406L11.8084 23.005ZM13.0734 24.8128L12.4838 25.6205L12.4838 25.6205L13.0734 24.8128ZM14.8966 25.4113L14.9423 24.4124L14.9264 24.4116L14.9106 24.4114L14.8966 25.4113ZM16.4169 25.1033L16.8715 25.9939L16.8895 25.9847L16.9072 25.9748L16.4169 25.1033ZM17.6119 23.9569L18.4337 24.5268L18.4393 24.5186L18.4448 24.5104L17.6119 23.9569ZM19.299 19.1018L18.3194 18.9004L18.3178 18.9087L19.299 19.1018ZM20.0855 15.277L21.065 15.4784L21.0655 15.4761L20.0855 15.277ZM22.1896 8.64571L23.0921 9.0765L22.1896 8.64571ZM25.3113 4.11965L26.0107 4.83437L26.0152 4.82993L25.3113 4.11965ZM29.3353 1.51797L29.6848 2.45496L29.6931 2.45177L29.3353 1.51797ZM34.237 0.613659L34.2337 -0.386439L34.2202 -0.386205L34.237 0.613659ZM42.0285 2.84454L42.603 2.02602L42.0285 2.84454ZM46.9232 9.30415L45.9954 9.67722L45.9961 9.67892L46.9232 9.30415ZM46.9586 30.0091L47.8905 30.372L47.8911 30.3704L46.9586 30.0091ZM41.4941 37.0547L42.0523 37.8845L42.0581 37.8805L41.4941 37.0547ZM31.9243 39.6342L30.9243 39.6425L30.9327 40.6464L31.9365 40.6341L31.9243 39.6342ZM31.8248 27.6346L31.7634 26.6365L30.8169 26.6947L30.8248 27.6429L31.8248 27.6346ZM35.4067 26.5367L35.9623 27.3681L35.4067 26.5367ZM37.5889 23.8367L38.5094 24.2273L38.5113 24.2229L37.5889 23.8367ZM37.7763 16.2894L38.7123 15.9373L37.7763 16.2894ZM36.3728 14.2328L36.9885 13.4448L36.3728 14.2328ZM34.3441 13.5223L34.3558 12.5224L34.3352 12.5221L34.3146 12.5227L34.3441 13.5223ZM32.4864 14.2423L33.1202 15.0158L33.132 15.0061L33.1435 14.9961L32.4864 14.2423ZM31.05 16.4361L31.9711 16.8257L31.9758 16.814L31.05 16.4361ZM29.8569 20.5598L28.8784 20.3537L28.8777 20.357L29.8569 20.5598ZM28.8954 25.2043L29.8744 25.4081L29.8746 25.407L28.8954 25.2043ZM24.4992 34.9911L25.2513 35.6501L25.2557 35.645L24.4992 34.9911ZM15.9151 38.5851L15.9109 37.5851L15.9016 37.5852L15.9151 38.5851ZM8.14571 36.2859L7.56758 37.1018L7.5686 37.1026L8.14571 36.2859ZM2.8861 29.6702L1.97284 30.0776L1.97364 30.0794L2.8861 29.6702ZM2.74667 10.1252L3.65908 10.5345L2.74667 10.1252ZM8.01207 3.74042L8.56343 4.57472L8.56982 4.57042L8.01207 3.74042ZM15.9702 1.40159L16.9702 1.39329L16.9618 0.388349L15.9569 0.401691L15.9702 1.40159ZM15.9825 12.496C14.2443 12.6495 12.803 13.3302 11.7668 14.5911L13.3119 15.8609C13.9557 15.0775 14.8685 14.6022 16.1585 14.4882L15.9825 12.496ZM11.7715 14.5853C10.7146 15.8521 10.2867 17.6565 10.3046 19.8129L12.3045 19.7963C12.2885 17.8618 12.6837 16.6139 13.3072 15.8666L11.7715 14.5853ZM10.3046 19.8129C10.316 21.1866 10.4922 22.3858 10.8772 23.3695L12.7396 22.6406C12.4744 21.963 12.3147 21.0285 12.3045 19.7963L10.3046 19.8129ZM10.8735 23.3601C11.2305 24.2999 11.7509 25.0854 12.4838 25.6205L13.6631 24.0051C13.3289 23.7612 13.0059 23.3415 12.7432 22.65L10.8735 23.3601ZM12.4838 25.6205C13.1904 26.1363 14.0008 26.3989 14.8827 26.4112L14.9106 24.4114C14.4287 24.4047 14.0236 24.2683 13.6631 24.0051L12.4838 25.6205ZM14.8509 26.4103C15.5665 26.443 16.2485 26.3119 16.8715 25.9939L15.9622 24.2126C15.6799 24.3567 15.3484 24.4309 14.9423 24.4124L14.8509 26.4103ZM16.9072 25.9748C17.5058 25.638 18.0096 25.1383 18.4337 24.5268L16.7902 23.3871C16.4956 23.8119 16.2027 24.0764 15.9265 24.2317L16.9072 25.9748ZM18.4448 24.5104C18.8488 23.9023 19.1948 23.1588 19.4942 22.3014L17.6059 21.6422C17.3429 22.3956 17.0634 22.9755 16.779 23.4035L18.4448 24.5104ZM19.4942 22.3014C19.795 21.4399 20.0557 20.4354 20.2802 19.295L18.3178 18.9087C18.1061 19.9841 17.8675 20.8929 17.6059 21.6422L19.4942 22.3014ZM20.2785 19.3033L21.065 15.4784L19.106 15.0756L18.3195 18.9005L20.2785 19.3033ZM21.0655 15.4761C21.5777 12.9541 22.2571 10.8256 23.0921 9.0765L21.2872 8.21489C20.3648 10.1471 19.6414 12.4395 19.1055 15.078L21.0655 15.4761ZM23.0921 9.0765C23.9306 7.31985 24.9078 5.91368 26.0107 4.83437L24.6118 3.40494C23.31 4.67897 22.206 6.29018 21.2872 8.21489L23.0921 9.0765ZM26.0152 4.82993C27.1066 3.74836 28.3285 2.96089 29.6848 2.45493L28.9857 0.581052C27.3512 1.19086 25.8905 2.13779 24.6074 3.40934L26.0152 4.82993ZM29.6931 2.45177C31.0684 1.92472 32.5855 1.64162 34.2539 1.61352L34.2202 -0.386205C32.3434 -0.354581 30.5927 -0.0348091 28.9774 0.584204L29.6931 2.45177ZM34.2404 1.61364C37.1313 1.60396 39.5175 2.30395 41.4541 3.66308L42.603 2.02602C40.2721 0.390121 37.464 -0.397156 34.2337 -0.386347L34.2404 1.61364ZM41.4541 3.66308C43.4051 5.03238 44.9263 7.01824 45.9954 9.67722L47.851 8.93112C46.6613 5.97229 44.9194 3.65173 42.603 2.02602L41.4541 3.66308ZM45.9961 9.67892C47.0663 12.3264 47.6342 15.5617 47.6662 19.412L49.6661 19.3954C49.6327 15.3671 49.0387 11.8694 47.8503 8.92941L45.9961 9.67892ZM47.6662 19.412C47.6989 23.3611 47.1427 26.7659 46.0261 29.6479L47.8911 30.3704C49.1184 27.2024 49.7005 23.5369 49.6661 19.3954L47.6662 19.412ZM46.0268 29.6463C44.9218 32.4839 43.2213 34.6645 40.9302 36.2289L42.0581 37.8805C44.7089 36.0705 46.6514 33.554 47.8905 30.372L46.0268 29.6463ZM40.9361 36.2249C38.6533 37.7603 35.6687 38.5885 31.9121 38.6343L31.9365 40.6341C35.9673 40.585 39.3626 39.6935 42.0522 37.8845L40.9361 36.2249ZM32.9243 39.6259L32.8247 27.6263L30.8248 27.6429L30.9243 39.6425L32.9243 39.6259ZM31.8862 28.6327C33.446 28.5368 34.8205 28.131 35.9623 27.3681L34.8511 25.7052C34.0641 26.2311 33.0507 26.5573 31.7634 26.6365L31.8862 28.6327ZM35.9623 27.3681C37.102 26.6065 37.9494 25.5469 38.5094 24.2273L36.6684 23.446C36.2475 24.4377 35.6401 25.178 34.8511 25.7052L35.9623 27.3681ZM38.5113 24.2229C39.0658 22.8988 39.3185 21.37 39.3043 19.6632L37.3044 19.6798C37.3169 21.185 37.0926 22.4329 36.6665 23.4504L38.5113 24.2229ZM39.3043 19.6632C39.2925 18.24 39.1072 16.9875 38.7123 15.9373L36.8403 16.6414C37.1271 17.4039 37.2938 18.4061 37.3044 19.6798L39.3043 19.6632ZM38.7123 15.9373C38.3247 14.907 37.7637 14.0505 36.9885 13.4448L35.7571 15.0207C36.1715 15.3445 36.5461 15.8592 36.8403 16.6414L38.7123 15.9373ZM36.9885 13.4448C36.2204 12.8445 35.3317 12.5338 34.3558 12.5224L34.3324 14.5222C34.8719 14.5285 35.3357 14.6914 35.7571 15.0207L36.9885 13.4448ZM34.3146 12.5227C33.3763 12.5505 32.534 12.8742 31.8293 13.4884L33.1435 14.9961C33.4918 14.6925 33.888 14.5362 34.3737 14.5218L34.3146 12.5227ZM31.8526 13.4688C31.1289 14.0618 30.5704 14.965 30.1242 16.0582L31.9758 16.814C32.3612 15.87 32.7603 15.3106 33.1202 15.0158L31.8526 13.4688ZM30.129 16.0465C29.6628 17.1487 29.2492 18.593 28.8784 20.3537L30.8354 20.7659C31.1935 19.0659 31.5753 17.761 31.971 16.8257L30.129 16.0465ZM28.8777 20.357L27.9162 25.0016L29.8746 25.407L30.8361 20.7625L28.8777 20.357ZM27.9164 25.0004C27.0803 29.0156 25.6717 32.1054 23.7426 34.3371L25.2557 35.645C27.4689 33.0846 28.9911 29.6499 29.8744 25.4081L27.9164 25.0004ZM23.7471 34.332C21.8786 36.4643 19.3078 37.5711 15.9109 37.5851L15.9192 39.5851C19.795 39.5691 22.947 38.2798 25.2513 35.6501L23.7471 34.332ZM15.9016 37.5852C13.1398 37.6223 10.7608 36.9094 8.72282 35.4692L7.5686 37.1026C9.98115 38.8074 12.7817 39.6273 15.9285 39.5851L15.9016 37.5852ZM8.72385 35.47C6.64688 33.9983 5.00081 31.942 3.79856 29.261L1.97364 30.0794C3.30317 33.0442 5.1635 35.3984 7.56758 37.1018L8.72385 35.47ZM3.79936 29.2628C2.59877 26.5714 1.97084 23.4514 1.94123 19.8823L-0.0587035 19.8988C-0.0272247 23.6931 0.641408 27.0928 1.97284 30.0776L3.79936 29.2628ZM1.94123 19.8823C1.91096 16.2343 2.49579 13.1279 3.65908 10.5345L1.83426 9.71595C0.527996 12.6281 -0.0907859 16.0319 -0.0587035 19.8988L1.94123 19.8823ZM3.65908 10.5345C4.82477 7.93577 6.46267 5.96298 8.56341 4.57469L7.46072 2.90613C5.0105 4.52539 3.13814 6.80916 1.83426 9.71595L3.65908 10.5345ZM8.56982 4.57042C10.6502 3.17247 13.1086 2.43964 15.9835 2.40151L15.9569 0.401691C12.7413 0.444362 9.89433 1.27077 7.45432 2.9104L8.56982 4.57042ZM14.9702 1.40988L15.0706 13.5004L17.0705 13.4838L16.9702 1.39329L14.9702 1.40988Z" fill="#05C2DF" fill-opacity="0.1" mask="url(#path-1-outside-1_1_7862)"/>
</svg>
