<svg width="51" height="335" viewBox="0 0 51 335" fill="none" xmlns="http://www.w3.org/2000/svg">
<mask id="path-1-outside-1_1_7859" maskUnits="userSpaceOnUse" x="-1.01723" y="-0.865305" width="53.7858" height="336.412" fill="black">
<rect fill="white" x="-1.01723" y="-0.865305" width="53.7858" height="336.412"/>
<path d="M1.1079 14.6316L0.994772 0.995711L47.6661 15.9727L47.8094 33.2448L1.393 48.9941L1.27986 35.3582L34.9215 24.8969L34.9185 24.5333L1.1079 14.6316ZM19.4498 11.9339L19.6625 37.5694L10.2083 37.6478L9.99557 12.0123L19.4498 11.9339ZM1.43019 53.4769L47.974 53.0907L48.1415 73.2718C48.1709 76.8172 47.7183 79.7983 46.7838 82.2152C45.8494 84.6473 44.5161 86.4842 42.7839 87.7259C41.0519 88.9827 39.0041 89.6209 36.6405 89.6405C34.9285 89.6547 33.3648 89.2889 31.9494 88.5431C30.5342 87.8123 29.3438 86.7767 28.3781 85.4362C27.4275 84.0956 26.763 82.5253 26.3844 80.7253L25.9299 80.7291C25.8707 82.7296 25.3782 84.552 24.4524 86.1961C23.5418 87.8401 22.2723 89.1537 20.6441 90.1369C19.031 91.12 17.126 91.6207 14.9291 91.6389C12.3837 91.66 10.1131 91.0122 8.11726 89.6954C6.12155 88.3937 4.54541 86.5279 3.38885 84.098C2.23228 81.6681 1.63999 78.7639 1.61195 75.3852L1.43019 53.4769ZM11.6256 66.0291L11.6746 71.938C11.6922 74.0591 12.0993 75.6467 12.896 76.7007C13.7078 77.7546 14.894 78.2751 16.4545 78.2622C17.5454 78.2531 18.4675 77.9954 19.2209 77.4892C19.9743 76.9829 20.5442 76.266 20.9304 75.3386C21.3168 74.4262 21.5046 73.3262 21.494 72.0383L21.4434 65.9476L11.6256 66.0291ZM29.2613 65.8828L29.3043 71.0644C29.3135 72.1704 29.4959 73.1462 29.8514 73.9918C30.2069 74.8373 30.7123 75.4923 31.3677 75.9565C32.0384 76.4358 32.851 76.6715 33.8055 76.6636C35.2448 76.6517 36.339 76.1274 37.088 75.0909C37.8522 74.0542 38.2277 72.748 38.2146 71.1723L38.1701 65.8088L29.2613 65.8828ZM25.4309 141.122C20.2492 141.165 15.8698 140.193 12.2926 138.208C8.73056 136.222 6.01869 133.525 4.15702 130.116C2.31049 126.707 1.36975 122.896 1.33481 118.684C1.29961 114.442 2.18444 110.601 3.9893 107.162C5.80944 103.738 8.48382 101.003 12.0124 98.9588C15.5563 96.9293 19.9039 95.8932 25.0553 95.8505C30.2369 95.8075 34.6087 96.7713 38.1706 98.7418C41.7478 100.727 44.4596 103.417 46.306 106.811C48.1677 110.22 49.1161 114.045 49.1513 118.288C49.1863 122.5 48.3013 126.325 46.4965 129.765C44.7068 133.204 42.04 135.946 38.4963 137.99C34.9676 140.035 30.6125 141.079 25.4309 141.122ZM25.323 128.122C28.1108 128.099 30.4561 127.708 32.359 126.95C34.2771 126.207 35.7226 125.111 36.6955 123.664C37.6837 122.231 38.1691 120.47 38.1517 118.379C38.1344 116.288 37.6197 114.527 36.6078 113.096C35.6112 111.68 34.1477 110.609 32.2174 109.882C30.3023 109.171 27.9509 108.827 25.1631 108.85C22.3753 108.873 20.0224 109.256 18.1042 110C16.2014 110.758 14.7559 111.853 13.7677 113.286C12.7948 114.733 12.3171 116.502 12.3344 118.593C12.3518 120.684 12.8588 122.437 13.8554 123.853C14.8673 125.285 16.3308 126.356 18.2458 127.067C20.1762 127.794 22.5352 128.145 25.323 128.122ZM48.9798 174.319L49.0847 186.955L19.2675 187.203C15.7222 187.232 12.6471 186.409 10.0422 184.734C7.45254 183.073 5.4407 180.742 4.00665 177.738C2.58774 174.735 1.86176 171.241 1.8287 167.256C1.79539 163.241 2.46317 159.72 3.83205 156.693C5.21607 153.667 7.18895 151.302 9.75066 149.599C12.3277 147.911 15.3888 147.052 18.9342 147.022L48.7513 146.775L48.8561 159.411L20.1299 159.649C18.6905 159.661 17.4053 159.99 16.2743 160.636C15.1584 161.281 14.2869 162.168 13.6599 163.294C13.033 164.436 12.7255 165.726 12.7374 167.165C12.7495 168.62 13.0783 169.905 13.724 171.021C14.3696 172.137 15.2557 173.008 16.3821 173.635C17.5237 174.262 18.8142 174.57 20.2535 174.558L48.9798 174.319ZM38.9425 191.773L49.1239 191.688L49.4596 232.141L39.2781 232.226L39.1619 218.226L2.79956 218.528L2.69623 206.074L39.0586 205.772L38.9425 191.773ZM49.8333 277.191L49.9382 289.827L20.121 290.074C16.5757 290.104 13.5006 289.281 10.8957 287.605C8.30603 285.945 6.29419 283.613 4.86013 280.61C3.44123 277.606 2.71524 274.112 2.68218 270.127C2.64887 266.112 3.31666 262.592 4.68553 259.565C6.06956 256.538 8.04243 254.173 10.6041 252.47C13.1811 250.782 16.2423 249.923 19.7876 249.894L49.6048 249.646L49.7096 262.282L20.9833 262.521C19.544 262.533 18.2588 262.862 17.1278 263.507C16.0119 264.153 15.1404 265.039 14.5134 266.165C13.8864 267.307 13.579 268.597 13.5909 270.037C13.603 271.491 13.9318 272.777 14.5775 273.892C15.2231 275.008 16.1092 275.88 17.2356 276.507C18.3772 277.134 19.6677 277.441 21.107 277.429L49.8333 277.191ZM35.6512 321.043C37.1653 320.909 38.3423 320.331 39.1824 319.309C40.0225 318.302 40.4341 316.776 40.4172 314.731C40.4064 313.428 40.2384 312.361 39.9133 311.53C39.6035 310.714 39.1818 310.112 38.6483 309.722C38.1147 309.333 37.507 309.133 36.8251 309.124C36.2642 309.098 35.7575 309.201 35.3048 309.432C34.8675 309.678 34.4691 310.06 34.1098 310.578C33.7656 311.096 33.4529 311.758 33.1717 312.563C32.8905 313.369 32.6408 314.325 32.4227 315.433L31.6362 319.258C31.1122 321.838 30.4108 324.049 29.5321 325.889C28.6534 327.73 27.6128 329.239 26.4104 330.416C25.2232 331.592 23.8819 332.459 22.3864 333.017C20.8911 333.59 19.2572 333.892 17.4847 333.922C14.4241 333.932 11.8269 333.188 9.69318 331.691C7.55947 330.193 5.92791 328.04 4.79851 325.231C3.66923 322.437 3.08825 319.071 3.05557 315.131C3.022 311.086 3.59118 307.551 4.76309 304.526C5.93513 301.516 7.75662 299.168 10.2276 297.48C12.7138 295.808 15.9037 294.948 19.7974 294.901L19.897 306.901C18.4734 306.988 17.2794 307.354 16.315 307.999C15.3506 308.643 14.6232 309.543 14.1328 310.699C13.6425 311.869 13.404 313.258 13.4173 314.864C13.4285 316.212 13.6046 317.339 13.9454 318.246C14.2863 319.152 14.7541 319.838 15.3489 320.302C15.9437 320.767 16.6199 321.004 17.3776 321.013C18.0896 320.992 18.7088 320.752 19.2353 320.293C19.7771 319.849 20.2559 319.118 20.6717 318.099C21.1027 317.08 21.5004 315.706 21.8648 313.975L22.8263 309.331C23.686 305.202 25.1514 301.94 27.2225 299.544C29.3089 297.163 32.1703 295.965 35.8066 295.95C38.761 295.91 41.3507 296.677 43.576 298.249C45.8165 299.837 47.5697 302.042 48.8356 304.865C50.1016 307.703 50.7499 310.963 50.7804 314.645C50.8116 318.402 50.2098 321.657 48.975 324.41C47.7403 327.163 45.9851 329.291 43.7096 330.795C41.4494 332.314 38.7967 333.093 35.7515 333.134L35.6512 321.043Z"/>
</mask>
<path d="M1.1079 14.6316L0.107938 14.6399L0.1141 15.3826L0.826854 15.5913L1.1079 14.6316ZM0.994772 0.995711L1.30033 0.0435366L-0.016669 -0.379091L-0.00519398 1.00401L0.994772 0.995711ZM47.6661 15.9727L48.6661 15.9644L48.6601 15.2414L47.9716 15.0205L47.6661 15.9727ZM47.8094 33.2448L48.1307 34.1918L48.8154 33.9595L48.8094 33.2365L47.8094 33.2448ZM1.393 48.9941L0.393031 49.0024L0.404506 50.3855L1.71431 49.941L1.393 48.9941ZM1.27986 35.3582L0.98293 34.4033L0.273737 34.6238L0.279899 35.3665L1.27986 35.3582ZM34.9215 24.8969L35.2184 25.8518L35.9276 25.6313L35.9215 24.8886L34.9215 24.8969ZM34.9185 24.5333L35.9185 24.525L35.9123 23.7823L35.1995 23.5736L34.9185 24.5333ZM19.4498 11.9339L20.4498 11.9256L20.4415 10.9256L19.4415 10.9339L19.4498 11.9339ZM19.6625 37.5694L19.6708 38.5693L20.6707 38.561L20.6624 37.5611L19.6625 37.5694ZM10.2083 37.6478L9.20829 37.6561L9.21659 38.6561L10.2166 38.6478L10.2083 37.6478ZM9.99557 12.0123L9.98727 11.0124L8.98731 11.0207L8.99561 12.0206L9.99557 12.0123ZM2.10787 14.6233L1.99474 0.987415L-0.00519398 1.00401L0.107938 14.6399L2.10787 14.6233ZM0.689215 1.94789L47.3605 16.9248L47.9716 15.0205L1.30033 0.0435366L0.689215 1.94789ZM46.6661 15.981L46.8094 33.2531L48.8094 33.2365L48.6661 15.9644L46.6661 15.981ZM47.4881 32.2978L1.07168 48.0471L1.71431 49.941L48.1307 34.1918L47.4881 32.2978ZM2.39296 48.9858L2.27983 35.3499L0.279899 35.3665L0.393031 49.0024L2.39296 48.9858ZM1.5768 36.3131L35.2184 25.8518L34.6246 23.942L0.98293 34.4033L1.5768 36.3131ZM35.9215 24.8886L35.9185 24.525L33.9185 24.5416L33.9215 24.9052L35.9215 24.8886ZM35.1995 23.5736L1.38895 13.6719L0.826854 15.5913L34.6374 25.493L35.1995 23.5736ZM18.4498 11.9422L18.6625 37.5777L20.6624 37.5611L20.4498 11.9256L18.4498 11.9422ZM19.6542 36.5694L10.2 36.6478L10.2166 38.6478L19.6708 38.5693L19.6542 36.5694ZM11.2082 37.6395L10.9955 12.004L8.99561 12.0206L9.20829 37.6561L11.2082 37.6395ZM10.0039 13.0123L19.4581 12.9339L19.4415 10.9339L9.98727 11.0124L10.0039 13.0123ZM1.43019 53.4769L1.42189 52.4769L0.421926 52.4852L0.430223 53.4852L1.43019 53.4769ZM47.974 53.0907L48.974 53.0824L48.9657 52.0824L47.9657 52.0907L47.974 53.0907ZM46.7838 82.2152L45.8511 81.8546L45.8503 81.8566L46.7838 82.2152ZM42.7839 87.7259L42.2013 86.9131L42.1966 86.9165L42.7839 87.7259ZM31.9494 88.5431L32.4157 87.6583L32.4082 87.6545L31.9494 88.5431ZM28.3781 85.4362L27.5623 86.0146L27.5667 86.0207L28.3781 85.4362ZM26.3844 80.7253L27.363 80.5195L27.1945 79.7186L26.3761 79.7253L26.3844 80.7253ZM25.9299 80.7291L25.9216 79.7291L24.9588 79.7371L24.9303 80.6995L25.9299 80.7291ZM24.4524 86.1961L23.5811 85.7054L23.5777 85.7115L24.4524 86.1961ZM20.6441 90.1369L20.1272 89.2809L20.1237 89.283L20.6441 90.1369ZM8.11726 89.6954L8.66799 88.8607L8.66356 88.8578L8.11726 89.6954ZM3.38884 84.098L4.29178 83.6683L3.38884 84.098ZM11.6256 66.0291L11.6173 65.0291L10.6173 65.0374L10.6256 66.0374L11.6256 66.0291ZM12.896 76.7007L12.0982 77.3037L12.1038 77.311L12.896 76.7007ZM20.9304 75.3386L20.0096 74.9486L20.0073 74.9541L20.9304 75.3386ZM21.4434 65.9476L22.4434 65.9393L22.4351 64.9394L21.4351 64.9477L21.4434 65.9476ZM29.2613 65.8828L29.253 64.8828L28.2531 64.8911L28.2614 65.8911L29.2613 65.8828ZM29.8514 73.9918L28.9295 74.3794L29.8514 73.9918ZM31.3677 75.9565L31.9492 75.1429L31.9458 75.1405L31.3677 75.9565ZM37.088 75.0909L36.283 74.4975L36.2775 74.5052L37.088 75.0909ZM38.1701 65.8088L39.1701 65.8005L39.1618 64.8006L38.1618 64.8089L38.1701 65.8088ZM1.43848 54.4768L47.9823 54.0907L47.9657 52.0907L1.42189 52.4769L1.43848 54.4768ZM46.9741 53.099L47.1415 73.2801L49.1414 73.2635L48.974 53.0824L46.9741 53.099ZM47.1415 73.2801C47.1702 76.7427 46.7268 79.5899 45.8511 81.8546L47.7165 82.5759C48.7099 80.0067 49.1715 76.8916 49.1414 73.2635L47.1415 73.2801ZM45.8503 81.8566C44.9703 84.1471 43.7425 85.8084 42.2013 86.9131L43.3665 88.5386C45.2897 87.16 46.7285 85.1474 47.7173 82.5739L45.8503 81.8566ZM42.1966 86.9165C40.6506 88.0384 38.8104 88.6225 36.6322 88.6406L36.6488 90.6405C39.1977 90.6194 41.4532 89.9271 43.3712 88.5352L42.1966 86.9165ZM36.6322 88.6406C35.0735 88.6535 33.6746 88.3218 32.4156 87.6584L31.4832 89.4277C33.055 90.256 34.7834 90.656 36.6488 90.6405L36.6322 88.6406ZM32.4082 87.6545C31.1381 86.9987 30.0667 86.0695 29.1895 84.8517L27.5667 86.0207C28.6208 87.484 29.9303 88.626 31.4907 89.4316L32.4082 87.6545ZM29.1938 84.8578C28.3314 83.6415 27.7167 82.2014 27.363 80.5195L25.4058 80.9311C25.8092 82.8491 26.5236 84.5496 27.5623 86.0146L29.1938 84.8578ZM26.3761 79.7253L25.9216 79.7291L25.9382 81.7291L26.3927 81.7253L26.3761 79.7253ZM24.9303 80.6995C24.8756 82.5484 24.4226 84.2109 23.5811 85.7054L25.3238 86.6867C26.3338 84.893 26.8658 82.9109 26.9294 80.7587L24.9303 80.6995ZM23.5777 85.7115C22.7529 87.2006 21.6076 88.3869 20.1272 89.2809L21.161 90.9929C22.9371 89.9204 24.3307 88.4795 25.3272 86.6806L23.5777 85.7115ZM20.1237 89.283C18.6886 90.1576 16.9668 90.622 14.9208 90.6389L14.9374 92.6389C17.2852 92.6194 19.3734 92.0824 21.1645 90.9908L20.1237 89.283ZM14.9208 90.6389C12.5605 90.6585 10.4871 90.0609 8.66798 88.8607L7.56655 90.53C9.73909 91.9635 12.2069 92.6615 14.9374 92.6389L14.9208 90.6389ZM8.66356 88.8578C6.84122 87.6692 5.37974 85.954 4.29178 83.6683L2.48591 84.5278C3.71107 87.1018 5.40187 89.1182 7.57096 90.5329L8.66356 88.8578ZM4.29178 83.6683C3.21181 81.3993 2.63904 78.6459 2.61192 75.3769L0.611988 75.3935C0.64093 78.8819 1.25275 81.937 2.48591 84.5278L4.29178 83.6683ZM2.61192 75.3769L2.43015 53.4686L0.430223 53.4852L0.611988 75.3935L2.61192 75.3769ZM10.6256 66.0374L10.6746 71.9463L12.6746 71.9297L12.6256 66.0208L10.6256 66.0374ZM10.6746 71.9463C10.693 74.1621 11.1147 76.0024 12.0982 77.3037L13.6938 76.0978C13.084 75.291 12.6914 73.9561 12.6746 71.9297L10.6746 71.9463ZM12.1038 77.311C13.1412 78.6578 14.6504 79.2772 16.4628 79.2621L16.4462 77.2622C15.1375 77.273 14.2744 76.8515 13.6882 76.0905L12.1038 77.311ZM16.4628 79.2621C17.7095 79.2518 18.8324 78.9551 19.7787 78.3192L18.6632 76.6592C18.1027 77.0358 17.3813 77.2544 16.4462 77.2622L16.4628 79.2621ZM19.7787 78.3192C20.7121 77.6919 21.4002 76.8115 21.8536 75.723L20.0073 74.9541C19.6881 75.7205 19.2365 76.2739 18.6632 76.6592L19.7787 78.3192ZM21.8512 75.7285C22.3044 74.6586 22.5054 73.4154 22.4939 72.03L20.494 72.0466C20.5039 73.2369 20.3292 74.1939 20.0096 74.9486L21.8512 75.7285ZM22.4939 72.03L22.4434 65.9393L20.4435 65.9559L20.494 72.0466L22.4939 72.03ZM21.4351 64.9477L11.6173 65.0291L11.6339 67.029L21.4517 66.9476L21.4351 64.9477ZM28.2614 65.8911L28.3044 71.0727L30.3043 71.0561L30.2613 65.8745L28.2614 65.8911ZM28.3044 71.0727C28.3144 72.2828 28.5143 73.3917 28.9295 74.3794L30.7732 73.6042C30.4774 72.9008 30.3126 72.058 30.3043 71.0561L28.3044 71.0727ZM28.9295 74.3794C29.3469 75.372 29.9612 76.1857 30.7897 76.7725L31.9458 75.1405C31.4634 74.7989 31.0669 74.3027 30.7732 73.6042L28.9295 74.3794ZM30.7863 76.7701C31.655 77.391 32.6825 77.673 33.8138 77.6636L33.7972 75.6636C33.0194 75.6701 32.4217 75.4807 31.9492 75.143L30.7863 76.7701ZM33.8138 77.6636C35.5253 77.6494 36.9379 77.006 37.8985 75.6766L36.2775 74.5052C35.7401 75.2488 34.9644 75.654 33.7972 75.6636L33.8138 77.6636ZM37.893 75.6842C38.812 74.4374 39.2291 72.9066 39.2146 71.164L37.2147 71.1806C37.2263 72.5894 36.8923 73.671 36.2831 74.4975L37.893 75.6842ZM39.2146 71.164L39.1701 65.8005L37.1702 65.8171L37.2147 71.1806L39.2146 71.164ZM38.1618 64.8089L29.253 64.8828L29.2696 66.8827L38.1784 66.8088L38.1618 64.8089ZM12.2926 138.208L11.8057 139.081L11.8073 139.082L12.2926 138.208ZM4.15701 130.116L3.27772 130.592L3.27937 130.595L4.15701 130.116ZM3.9893 107.162L3.10628 106.693L3.10382 106.697L3.9893 107.162ZM12.0124 98.9588L11.5155 98.091L11.5111 98.0936L12.0124 98.9588ZM38.1706 98.7418L38.6559 97.8674L38.6547 97.8668L38.1706 98.7418ZM46.306 106.811L45.4276 107.289L45.4284 107.29L46.306 106.811ZM46.4965 129.765L45.611 129.3L45.6094 129.303L46.4965 129.765ZM38.4963 137.99L37.9965 137.124L37.9949 137.125L38.4963 137.99ZM32.359 126.95L31.9977 126.018L31.9888 126.021L32.359 126.95ZM36.6955 123.664L35.8723 123.096L35.8656 123.106L36.6955 123.664ZM36.6078 113.096L35.7901 113.672L35.7913 113.674L36.6078 113.096ZM32.2174 109.882L32.5696 108.947L32.5656 108.945L32.2174 109.882ZM18.1042 110L17.7429 109.067L17.7341 109.071L18.1042 110ZM13.7677 113.286L12.9445 112.718L12.9378 112.728L13.7677 113.286ZM13.8554 123.853L13.0376 124.429L13.0389 124.431L13.8554 123.853ZM18.2458 127.067L18.5981 126.131L18.5941 126.13L18.2458 127.067ZM25.4226 140.122C20.3684 140.164 16.1691 139.216 12.7779 137.333L11.8073 139.082C15.5706 141.171 20.1301 142.166 25.4392 142.122L25.4226 140.122ZM12.7795 137.334C9.37366 135.436 6.80127 132.871 5.03466 129.637L3.27937 130.595C5.23612 134.178 8.08746 137.009 11.8057 139.081L12.7795 137.334ZM5.03631 129.64C3.27428 126.387 2.36848 122.739 2.33477 118.676L0.334844 118.693C0.371026 123.054 1.3467 127.027 3.27772 130.592L5.03631 129.64ZM2.33477 118.676C2.30082 114.583 3.15336 110.907 4.87478 107.627L3.10382 106.697C1.21553 110.296 0.29841 114.301 0.334844 118.693L2.33477 118.676ZM4.87232 107.631C6.6001 104.381 9.13813 101.78 12.5138 99.8241L11.5111 98.0936C7.8295 100.227 5.01878 103.095 3.10629 106.693L4.87232 107.631ZM12.5094 99.8266C15.8704 97.9019 20.0397 96.8921 25.0636 96.8505L25.047 94.8505C19.7682 94.8943 15.2423 95.9568 11.5155 98.091L12.5094 99.8266ZM25.0636 96.8505C30.1191 96.8085 34.311 97.7494 37.6865 99.6168L38.6547 97.8668C34.9064 95.7931 30.3547 94.8065 25.047 94.8505L25.0636 96.8505ZM37.6853 99.6161C41.1067 101.515 43.6774 104.072 45.4276 107.289L47.1844 106.333C45.2419 102.762 42.3889 99.9394 38.6559 97.8675L37.6853 99.6161ZM45.4284 107.29C47.204 110.542 48.1174 114.203 48.1514 118.296L50.1513 118.279C50.1149 113.888 49.1314 109.898 47.1837 106.332L45.4284 107.29ZM48.1514 118.296C48.1851 122.358 47.333 126.019 45.611 129.3L47.382 130.229C49.2697 126.632 50.1875 122.642 50.1513 118.279L48.1514 118.296ZM45.6094 129.303C43.9126 132.564 41.3848 135.169 37.9965 137.124L38.996 138.857C42.6952 136.722 45.5009 133.844 47.3835 130.226L45.6094 129.303ZM37.9949 137.125C34.6515 139.062 30.477 140.08 25.4226 140.122L25.4392 142.122C30.748 142.078 35.2837 141.008 38.9976 138.856L37.9949 137.125ZM25.3313 129.122C28.2012 129.098 30.6777 128.696 32.7292 127.879L31.9888 126.021C30.2345 126.72 28.0204 127.1 25.3147 127.122L25.3313 129.122ZM32.7203 127.883C34.7942 127.079 36.4191 125.868 37.5255 124.222L35.8656 123.106C35.0262 124.355 33.7601 125.335 31.9977 126.018L32.7203 127.883ZM37.5187 124.232C38.6455 122.598 39.1704 120.625 39.1517 118.371L37.1518 118.387C37.1677 120.315 36.7218 121.865 35.8724 123.096L37.5187 124.232ZM39.1517 118.371C39.133 116.116 38.5753 114.146 37.4243 112.519L35.7913 113.674C36.6642 114.908 37.1358 116.46 37.1518 118.387L39.1517 118.371ZM37.4256 112.521C36.2928 110.911 34.6512 109.73 32.5696 108.947L31.8652 110.818C33.6443 111.488 34.9296 112.449 35.7901 113.672L37.4256 112.521ZM32.5656 108.945C30.5032 108.179 28.0229 107.826 25.1548 107.85L25.1714 109.85C27.879 109.828 30.1014 110.163 31.8692 110.82L32.5656 108.945ZM25.1548 107.85C22.2864 107.874 19.8059 108.268 17.7429 109.067L18.4655 110.932C20.2389 110.245 22.4643 109.872 25.1714 109.85L25.1548 107.85ZM17.7341 109.071C15.681 109.889 14.0634 111.096 12.9446 112.718L14.5909 113.853C15.4483 112.61 16.7217 111.627 18.4744 110.929L17.7341 109.071ZM12.9378 112.728C11.8317 114.374 11.3158 116.35 11.3345 118.601L13.3344 118.585C13.3184 116.655 13.758 115.093 14.5977 113.843L12.9378 112.728ZM11.3345 118.601C11.3531 120.853 11.9016 122.815 13.0376 124.429L14.6732 123.278C13.816 122.06 13.3504 120.515 13.3344 118.585L11.3345 118.601ZM13.0389 124.431C14.1854 126.052 15.8259 127.235 17.8976 128.005L18.5941 126.13C16.8357 125.477 15.5492 124.517 14.6719 123.276L13.0389 124.431ZM17.8936 128.003C19.9719 128.785 22.461 129.146 25.3313 129.122L25.3147 127.122C22.6095 127.145 20.3805 126.802 18.5981 126.131L17.8936 128.003ZM48.9798 174.319L49.9798 174.311L49.9715 173.311L48.9715 173.32L48.9798 174.319ZM49.0847 186.955L49.093 187.955L50.0929 187.947L50.0846 186.947L49.0847 186.955ZM10.0422 184.734L10.5831 183.893L10.5819 183.892L10.0422 184.734ZM4.00665 177.738L3.10246 178.165L3.10424 178.169L4.00665 177.738ZM3.83205 156.693L2.92261 156.278L2.92091 156.281L3.83205 156.693ZM9.75066 149.599L9.20268 148.762L9.19702 148.766L9.75066 149.599ZM48.7513 146.775L49.7513 146.767L49.743 145.767L48.743 145.775L48.7513 146.775ZM48.8561 159.411L48.8644 160.411L49.8644 160.403L49.8561 159.403L48.8561 159.411ZM16.2743 160.636L15.7784 159.767L15.7735 159.77L16.2743 160.636ZM13.6599 163.294L12.7861 162.808L12.7833 162.813L13.6599 163.294ZM13.724 171.021L12.8584 171.522L13.724 171.021ZM16.3821 173.635L15.8957 174.509L15.9008 174.512L16.3821 173.635ZM47.9799 174.328L48.0847 186.964L50.0846 186.947L49.9798 174.311L47.9799 174.328ZM49.0764 185.955L19.2592 186.203L19.2758 188.203L49.093 187.955L49.0764 185.955ZM19.2592 186.203C15.8796 186.231 13.0015 185.448 10.5831 183.893L9.50122 185.575C12.2926 187.37 15.5648 188.234 19.2758 188.203L19.2592 186.203ZM10.5819 183.892C8.16192 182.34 6.26968 180.157 4.90905 177.307L3.10424 178.169C4.61172 181.326 6.74317 183.806 9.50241 185.576L10.5819 183.892ZM4.91083 177.311C3.56493 174.462 2.86076 171.116 2.82866 167.248L0.82873 167.264C0.862756 171.365 1.61055 175.007 3.10247 178.165L4.91083 177.311ZM2.82866 167.248C2.79631 163.348 3.44517 159.975 4.74319 157.106L2.92091 156.281C1.48117 159.465 0.794464 163.134 0.82873 167.264L2.82866 167.248ZM4.74148 157.109C6.05464 154.238 7.91039 152.023 10.3043 150.431L9.19702 148.766C6.4675 150.581 4.37751 153.096 2.92261 156.278L4.74148 157.109ZM10.2986 150.435C12.692 148.867 15.5593 148.05 18.9424 148.022L18.9259 146.022C15.2183 146.053 11.9633 146.954 9.2027 148.762L10.2986 150.435ZM18.9424 148.022L48.7596 147.775L48.743 145.775L18.9259 146.022L18.9424 148.022ZM47.7513 146.783L47.8562 159.419L49.8561 159.403L49.7513 146.767L47.7513 146.783ZM48.8478 158.411L20.1216 158.649L20.1382 160.649L48.8644 160.411L48.8478 158.411ZM20.1216 158.649C18.5295 158.662 17.0733 159.028 15.7784 159.767L16.7701 161.504C17.7374 160.952 18.8515 160.66 20.1382 160.649L20.1216 158.649ZM15.7735 159.77C14.5013 160.506 13.501 161.523 12.7861 162.808L14.5336 163.78C15.0729 162.812 15.8154 162.057 16.7751 161.501L15.7735 159.77ZM12.7833 162.813C12.0656 164.12 11.7242 165.582 11.7374 167.174L13.7374 167.157C13.7267 165.87 14.0003 164.752 14.5364 163.775L12.7833 162.813ZM11.7374 167.174C11.7508 168.779 12.1155 170.238 12.8584 171.522L14.5895 170.52C14.0412 169.572 13.7482 168.461 13.7374 167.157L11.7374 167.174ZM12.8584 171.522C13.5945 172.794 14.6116 173.794 15.8958 174.509L16.8685 172.762C15.8998 172.222 15.1448 171.48 14.5895 170.52L12.8584 171.522ZM15.9008 174.512C17.2077 175.23 18.6698 175.571 20.2618 175.558L20.2453 173.558C18.9586 173.569 17.8398 173.295 16.8635 172.759L15.9008 174.512ZM20.2618 175.558L48.9881 175.319L48.9715 173.32L20.2453 173.558L20.2618 175.558ZM38.9425 191.773L38.9342 190.773L37.9342 190.781L37.9425 191.781L38.9425 191.773ZM49.1239 191.688L50.1239 191.68L50.1156 190.68L49.1156 190.688L49.1239 191.688ZM49.4596 232.141L49.4679 233.141L50.4678 233.133L50.4595 232.133L49.4596 232.141ZM39.2781 232.226L38.2781 232.234L38.2864 233.234L39.2864 233.226L39.2781 232.226ZM39.1619 218.226L40.1619 218.218L40.1536 217.218L39.1536 217.226L39.1619 218.226ZM2.79956 218.528L1.79959 218.536L1.80789 219.536L2.80785 219.528L2.79956 218.528ZM2.69623 206.074L2.68793 205.074L1.68797 205.082L1.69626 206.082L2.69623 206.074ZM39.0586 205.772L39.0669 206.772L40.0669 206.764L40.0586 205.764L39.0586 205.772ZM38.9508 192.773L49.1322 192.688L49.1156 190.688L38.9342 190.773L38.9508 192.773ZM48.124 191.697L48.4596 232.15L50.4595 232.133L50.1239 191.68L48.124 191.697ZM49.4513 231.141L39.2698 231.226L39.2864 233.226L49.4679 233.141L49.4513 231.141ZM40.2781 232.218L40.1619 218.218L38.162 218.235L38.2781 232.234L40.2781 232.218ZM39.1536 217.226L2.79126 217.528L2.80785 219.528L39.1702 219.226L39.1536 217.226ZM3.79952 218.52L3.69619 206.066L1.69626 206.082L1.79959 218.536L3.79952 218.52ZM2.70453 207.074L39.0669 206.772L39.0503 204.772L2.68793 205.074L2.70453 207.074ZM40.0586 205.764L39.9424 191.764L37.9425 191.781L38.0586 205.781L40.0586 205.764ZM49.8333 277.191L50.8333 277.183L50.825 276.183L49.825 276.191L49.8333 277.191ZM49.9382 289.827L49.9465 290.827L50.9464 290.819L50.9381 289.819L49.9382 289.827ZM10.8957 287.605L11.4366 286.764L11.4354 286.763L10.8957 287.605ZM4.86013 280.61L3.95595 281.037L3.95773 281.041L4.86013 280.61ZM4.68553 259.565L3.77609 259.149L3.77439 259.153L4.68553 259.565ZM10.6041 252.47L10.0562 251.634L10.0505 251.637L10.6041 252.47ZM49.6048 249.646L50.6048 249.638L50.5965 248.638L49.5965 248.646L49.6048 249.646ZM49.7096 262.282L49.7179 263.282L50.7179 263.274L50.7096 262.274L49.7096 262.282ZM17.1278 263.507L16.6319 262.639L16.627 262.642L17.1278 263.507ZM14.5134 266.165L13.6396 265.679L13.6368 265.684L14.5134 266.165ZM14.5775 273.892L13.7119 274.393L14.5775 273.892ZM17.2356 276.507L16.7492 277.381L16.7543 277.383L17.2356 276.507ZM48.8334 277.199L48.9382 289.835L50.9381 289.819L50.8333 277.183L48.8334 277.199ZM49.9299 288.827L20.1127 289.074L20.1293 291.074L49.9465 290.827L49.9299 288.827ZM20.1127 289.074C16.7331 289.102 13.855 288.32 11.4366 286.764L10.3547 288.446C13.1461 290.242 16.4183 291.105 20.1293 291.074L20.1127 289.074ZM11.4354 286.763C9.0154 285.212 7.12317 283.028 5.76254 280.179L3.95773 281.041C5.46521 284.198 7.59665 286.678 10.3559 288.447L11.4354 286.763ZM5.76431 280.182C4.41842 277.334 3.71424 273.987 3.68215 270.119L1.68222 270.136C1.71624 274.237 2.46404 277.879 3.95595 281.037L5.76431 280.182ZM3.68215 270.119C3.64979 266.219 4.29866 262.847 5.59668 259.977L3.77439 259.153C2.33466 262.336 1.64795 266.005 1.68222 270.136L3.68215 270.119ZM5.59496 259.981C6.90812 257.109 8.76387 254.894 11.1578 253.303L10.0505 251.637C7.32099 253.452 5.23099 255.967 3.7761 259.149L5.59496 259.981ZM11.1521 253.307C13.5455 251.739 16.4128 250.922 19.7959 250.894L19.7793 248.894C16.0718 248.925 12.8168 249.825 10.0562 251.634L11.1521 253.307ZM19.7959 250.894L49.6131 250.646L49.5965 248.646L19.7793 248.894L19.7959 250.894ZM48.6048 249.655L48.7097 262.291L50.7096 262.274L50.6048 249.638L48.6048 249.655ZM49.7013 261.282L20.975 261.521L20.9916 263.521L49.7179 263.282L49.7013 261.282ZM20.975 261.521C19.383 261.534 17.9268 261.9 16.6319 262.639L17.6236 264.376C18.5908 263.823 19.705 263.531 20.9916 263.521L20.975 261.521ZM16.627 262.642C15.3548 263.378 14.3545 264.395 13.6396 265.679L15.3871 266.652C15.9263 265.683 16.6689 264.928 17.6286 264.373L16.627 262.642ZM13.6368 265.684C12.9191 266.991 12.5777 268.453 12.5909 270.045L14.5909 270.029C14.5802 268.742 14.8538 267.623 15.3899 266.647L13.6368 265.684ZM12.5909 270.045C12.6042 271.65 12.9689 273.109 13.7119 274.393L15.443 273.392C14.8947 272.444 14.6017 271.333 14.5909 270.029L12.5909 270.045ZM13.7119 274.393C14.448 275.665 15.465 276.666 16.7492 277.381L17.722 275.633C16.7533 275.094 15.9983 274.351 15.443 273.392L13.7119 274.393ZM16.7543 277.383C18.0612 278.101 19.5233 278.442 21.1153 278.429L21.0987 276.429C19.8121 276.44 18.6932 276.166 17.717 275.63L16.7543 277.383ZM21.1153 278.429L49.8416 278.191L49.825 276.191L21.0987 276.429L21.1153 278.429ZM35.6512 321.043L35.5632 320.047L34.6436 320.128L34.6512 321.051L35.6512 321.043ZM39.1824 319.309L38.4145 318.669L38.4098 318.674L39.1824 319.309ZM39.9133 311.53L38.9784 311.885L38.9821 311.895L39.9133 311.53ZM38.6483 309.722L39.2379 308.915L39.2379 308.915L38.6483 309.722ZM36.8251 309.124L36.7794 310.123L36.7953 310.124L36.8111 310.124L36.8251 309.124ZM35.3048 309.432L34.8502 308.541L34.8322 308.55L34.8145 308.56L35.3048 309.432ZM34.1098 310.578L33.288 310.008L33.2824 310.017L33.2769 310.025L34.1098 310.578ZM32.4227 315.433L33.4023 315.635L33.4039 315.626L32.4227 315.433ZM31.6362 319.258L30.6567 319.057L30.6563 319.059L31.6362 319.258ZM29.5321 325.889L28.6296 325.459L29.5321 325.889ZM26.4104 330.416L25.711 329.701L25.7065 329.705L26.4104 330.416ZM22.3864 333.017L22.0369 332.08L22.0286 332.083L22.3864 333.017ZM17.4847 333.922L17.488 334.922L17.5015 334.921L17.4847 333.922ZM9.69317 331.691L9.11871 332.509L9.69317 331.691ZM4.79851 325.231L5.72632 324.858L5.72563 324.856L4.79851 325.231ZM4.76309 304.526L3.83125 304.163L3.83062 304.165L4.76309 304.526ZM10.2276 297.48L9.66945 296.651L9.66365 296.655L10.2276 297.48ZM19.7974 294.901L20.7974 294.893L20.789 293.889L19.7852 293.901L19.7974 294.901ZM19.897 306.901L19.9583 307.899L20.9048 307.84L20.8969 306.892L19.897 306.901ZM16.315 307.998L15.7595 307.167L16.315 307.998ZM14.1328 310.699L13.2123 310.308L13.2104 310.312L14.1328 310.699ZM13.9454 318.246L13.0094 318.598L13.9454 318.246ZM15.3489 320.302L14.7332 321.09L15.3489 320.302ZM17.3776 321.013L17.3659 322.013L17.3865 322.013L17.4071 322.012L17.3776 321.013ZM19.2353 320.293L18.6015 319.519L18.5897 319.529L18.5782 319.539L19.2353 320.293ZM20.6717 318.099L19.7506 317.709L19.7459 317.721L20.6717 318.099ZM21.8648 313.975L22.8433 314.181L22.844 314.178L21.8648 313.975ZM22.8263 309.331L21.8473 309.127L21.8471 309.128L22.8263 309.331ZM27.2225 299.544L26.4704 298.885L26.466 298.89L27.2225 299.544ZM35.8066 295.95L35.8108 296.95L35.8201 296.95L35.8066 295.95ZM43.576 298.249L44.1541 297.433L44.1531 297.433L43.576 298.249ZM48.8356 304.865L49.7489 304.458L49.7481 304.456L48.8356 304.865ZM48.975 324.41L48.0626 324.001L48.975 324.41ZM43.7096 330.795L43.1583 329.96L43.1519 329.965L43.7096 330.795ZM35.7515 333.134L34.7515 333.142L34.7599 334.147L35.7648 334.133L35.7515 333.134ZM35.7392 322.039C37.4774 321.886 38.9187 321.205 39.955 319.944L38.4098 318.674C37.766 319.458 36.8532 319.933 35.5632 320.047L35.7392 322.039ZM39.9502 319.95C41.0071 318.683 41.435 316.879 41.4171 314.722L39.4172 314.739C39.4332 316.673 39.038 317.921 38.4145 318.669L39.9502 319.95ZM41.4171 314.722C41.4057 313.349 41.2295 312.149 40.8446 311.166L38.9821 311.895C39.2473 312.572 39.407 313.507 39.4172 314.739L41.4171 314.722ZM40.8482 311.175C40.4912 310.235 39.9708 309.45 39.2379 308.915L38.0586 310.53C38.3928 310.774 38.7158 311.194 38.9785 311.885L40.8482 311.175ZM39.2379 308.915C38.5313 308.399 37.721 308.136 36.839 308.124L36.8111 310.124C37.293 310.13 37.6981 310.267 38.0586 310.53L39.2379 308.915ZM36.8708 308.125C36.1552 308.092 35.4732 308.223 34.8502 308.541L35.7595 310.323C36.0418 310.179 36.3733 310.104 36.7794 310.123L36.8708 308.125ZM34.8145 308.56C34.2159 308.897 33.7121 309.397 33.288 310.008L34.9315 311.148C35.2261 310.723 35.519 310.459 35.7952 310.303L34.8145 308.56ZM33.2769 310.025C32.8729 310.633 32.5269 311.376 32.2276 312.234L34.1158 312.893C34.3788 312.14 34.6583 311.56 34.9427 311.132L33.2769 310.025ZM32.2276 312.234C31.9267 313.095 31.666 314.1 31.4415 315.24L33.4039 315.626C33.6156 314.551 33.8542 313.642 34.1158 312.893L32.2276 312.234ZM31.4432 315.232L30.6567 319.057L32.6157 319.46L33.4022 315.635L31.4432 315.232ZM30.6563 319.059C30.144 321.581 29.4647 323.71 28.6296 325.459L30.4345 326.32C31.3569 324.388 32.0803 322.096 32.6162 319.457L30.6563 319.059ZM28.6296 325.459C27.7911 327.215 26.814 328.621 25.711 329.701L27.1099 331.13C28.4117 329.856 29.5157 328.245 30.4345 326.32L28.6296 325.459ZM25.7065 329.705C24.6152 330.787 23.3932 331.574 22.0369 332.08L22.736 333.954C24.3705 333.344 25.8312 332.397 27.1143 331.126L25.7065 329.705ZM22.0286 332.083C20.6533 332.61 19.1362 332.894 17.4678 332.922L17.5015 334.921C19.3783 334.89 21.129 334.57 22.7443 333.951L22.0286 332.083ZM17.4813 332.922C14.5904 332.931 12.2042 332.231 10.2676 330.872L9.11871 332.509C11.4496 334.145 14.2577 334.932 17.488 334.922L17.4813 332.922ZM10.2676 330.872C8.3166 329.503 6.79544 327.517 5.72632 324.858L3.8707 325.604C5.06038 328.563 6.80234 330.883 9.11871 332.509L10.2676 330.872ZM5.72563 324.856C4.65546 322.209 4.08747 318.973 4.05553 315.123L2.0556 315.14C2.08902 319.168 2.683 322.666 3.87138 325.606L5.72563 324.856ZM4.05553 315.123C4.02277 311.174 4.57903 307.769 5.69556 304.887L3.83062 304.165C2.60333 307.333 2.02124 310.998 2.0556 315.14L4.05553 315.123ZM5.69493 304.889C6.79992 302.051 8.50043 299.871 10.7915 298.306L9.66365 296.655C7.01281 298.465 5.07035 300.981 3.83125 304.163L5.69493 304.889ZM10.7857 298.31C13.0684 296.775 16.053 295.947 19.8096 295.901L19.7852 293.901C15.7544 293.95 12.3591 294.842 9.66946 296.651L10.7857 298.31ZM18.7974 294.909L18.897 306.909L20.8969 306.892L20.7974 294.893L18.7974 294.909ZM19.8356 305.902C18.2757 305.998 16.9012 306.404 15.7595 307.167L16.8706 308.83C17.6576 308.304 18.671 307.978 19.9583 307.899L19.8356 305.902ZM15.7595 307.167C14.6197 307.929 13.7723 308.988 13.2123 310.308L15.0533 311.089C15.4742 310.097 16.0816 309.357 16.8706 308.83L15.7595 307.167ZM13.2104 310.312C12.6559 311.636 12.4032 313.165 12.4174 314.872L14.4173 314.855C14.4048 313.35 14.6291 312.102 15.0552 311.085L13.2104 310.312ZM12.4174 314.872C12.4292 316.295 12.6145 317.548 13.0094 318.598L14.8814 317.894C14.5946 317.131 14.4279 316.129 14.4173 314.855L12.4174 314.872ZM13.0094 318.598C13.397 319.628 13.958 320.485 14.7332 321.09L15.9646 319.514C15.5502 319.191 15.1756 318.676 14.8814 317.894L13.0094 318.598ZM14.7332 321.09C15.5013 321.691 16.39 322.001 17.3659 322.013L17.3893 320.013C16.8498 320.007 16.386 319.844 15.9646 319.514L14.7332 321.09ZM17.4071 322.012C18.3454 321.985 19.1877 321.661 19.8924 321.047L18.5782 319.539C18.2299 319.843 17.8337 319.999 17.348 320.013L17.4071 322.012ZM19.8691 321.066C20.5928 320.473 21.1513 319.57 21.5975 318.477L19.7459 317.721C19.3605 318.665 18.9614 319.225 18.6015 319.519L19.8691 321.066ZM21.5927 318.489C22.059 317.386 22.4725 315.942 22.8433 314.181L20.8863 313.769C20.5282 315.469 20.1464 316.774 19.7507 317.709L21.5927 318.489ZM22.844 314.178L23.8055 309.534L21.8471 309.128L20.8856 313.773L22.844 314.178ZM23.8053 309.535C24.6414 305.52 26.05 302.43 27.9791 300.198L26.466 298.89C24.2528 301.451 22.7306 304.885 21.8473 309.127L23.8053 309.535ZM27.9746 300.203C29.8431 298.071 32.4139 296.964 35.8108 296.95L35.8025 294.95C31.9267 294.966 28.7747 296.255 26.4704 298.885L27.9746 300.203ZM35.8201 296.95C38.5819 296.913 40.9609 297.626 42.9989 299.066L44.1531 297.433C41.7406 295.728 38.94 294.908 35.7932 294.95L35.8201 296.95ZM42.9979 299.065C45.0748 300.537 46.7209 302.593 47.9232 305.274L49.7481 304.456C48.4185 301.491 46.5582 299.137 44.1541 297.433L42.9979 299.065ZM47.9224 305.272C49.1229 307.964 49.7509 311.084 49.7805 314.653L51.7804 314.636C51.7489 310.842 51.0803 307.442 49.7489 304.458L47.9224 305.272ZM49.7805 314.653C49.8107 318.301 49.2259 321.407 48.0626 324.001L49.8874 324.819C51.1937 321.907 51.8125 318.503 51.7804 314.636L49.7805 314.653ZM48.0626 324.001C46.8969 326.599 45.259 328.572 43.1583 329.96L44.261 331.629C46.7112 330.01 48.5836 327.726 49.8874 324.819L48.0626 324.001ZM43.1519 329.965C41.0715 331.363 38.6131 332.096 35.7382 332.134L35.7648 334.133C38.9804 334.091 41.8274 333.264 44.2674 331.625L43.1519 329.965ZM36.7515 333.125L36.6512 321.035L34.6512 321.051L34.7515 333.142L36.7515 333.125Z" fill="#05C2DF" fill-opacity="0.05" mask="url(#path-1-outside-1_1_7859)"/>
</svg>
