<svg width="98" height="81" viewBox="0 0 98 81" fill="none" xmlns="http://www.w3.org/2000/svg">
<path d="M45.0135 28.079V21.0687M61.6458 35.3643H69.7558M31.9551 45.811H36.3537M53.9482 60.5189V53.5086" stroke="#05C2DF"/>
<rect x="36.7168" y="28.4416" width="24.567" height="24.567" rx="3.5" stroke="#05C2DF"/>
<rect x="41.3906" y="33.1151" width="15.4948" height="15.4948" rx="3.5" stroke="#05C2DF"/>
<rect x="69.9805" y="1.5" width="18.5189" height="18.5189" rx="3.5" stroke="#05C2DF"/>
<rect x="74.3789" y="5.89862" width="9.99656" height="9.99656" rx="2.5" stroke="#05C2DF"/>
<rect x="9.5" y="1.5" width="18.5189" height="18.5189" rx="3.5" stroke="#05C2DF"/>
<rect x="13.8984" y="5.89862" width="9.99656" height="9.99656" rx="2.5" stroke="#05C2DF"/>
<rect x="10.3242" y="61.4313" width="18.5189" height="18.5189" rx="3.5" stroke="#05C2DF"/>
<rect x="14.7227" y="65.8299" width="9.99656" height="9.99656" rx="2.5" stroke="#05C2DF"/>
<rect x="69.9805" y="61.4313" width="18.5189" height="18.5189" rx="3.5" stroke="#05C2DF"/>
<rect x="74.3789" y="65.8299" width="9.99656" height="9.99656" rx="2.5" stroke="#05C2DF"/>
<path d="M54.2227 28.079V10.8969H69.3429" stroke="#05C2DF"/>
<path d="M36.3535 38.1134L18.8965 38.1134L18.8965 20.5189" stroke="#05C2DF"/>
<path d="M61.7827 41.9622L78.9648 41.9622L78.9648 60.9313" stroke="#05C2DF"/>
<path d="M45.5645 53.5086L45.5645 70.6907L29.2071 70.6907" stroke="#05C2DF"/>
<circle cx="45.0133" cy="18.5945" r="1.97423" stroke="#05C2DF"/>
<circle cx="72.2301" cy="35.3643" r="1.97423" stroke="#05C2DF"/>
<circle cx="29.6188" cy="45.811" r="1.97423" stroke="#05C2DF"/>
<circle cx="53.8102" cy="62.8557" r="1.97423" stroke="#05C2DF"/>
</svg>
