<svg width="50" height="330" viewBox="0 0 50 330" fill="none" xmlns="http://www.w3.org/2000/svg">
  <path d="M48.3545 282.175L49.3544 282.167L49.3424 280.712L47.9886 281.244L48.3545 282.175ZM48.449 293.566L48.7959 294.504L49.4548 294.261L49.4489 293.558L48.449 293.566ZM39.0694 297.036L38.7225 296.098L38.0636 296.342L38.0695 297.045L39.0694 297.036ZM39.2171 314.828L38.2171 314.836L38.2229 315.538L38.8857 315.771L39.2171 314.828ZM48.6529 318.142L49.6528 318.133L49.647 317.431L48.9842 317.198L48.6529 318.142ZM48.7455 329.309L48.3951 330.246L49.7576 330.755L49.7455 329.301L48.7455 329.309ZM3.8045 312.497L2.80453 312.506L2.81023 313.193L3.45412 313.434L3.8045 312.497ZM3.69857 299.73L3.33271 298.799L2.6929 299.051L2.6986 299.738L3.69857 299.73ZM29.5247 311.452L29.1937 312.396L30.5365 312.867L30.5247 311.444L29.5247 311.452ZM29.4344 300.572L30.4344 300.564L30.4226 299.141L29.0878 299.634L29.4344 300.572ZM14.3761 306.138L14.0294 305.2L11.4251 306.162L14.0451 307.081L14.3761 306.138ZM47.3545 282.183L47.449 293.575L49.4489 293.558L49.3544 282.167L47.3545 282.183ZM48.102 292.629L38.7225 296.098L39.4164 297.974L48.7959 294.504L48.102 292.629ZM38.0695 297.045L38.2171 314.836L40.217 314.819L40.0694 297.028L38.0695 297.045ZM38.8857 315.771L48.3215 319.085L48.9842 317.198L39.5484 313.884L38.8857 315.771ZM47.6529 318.15L47.7456 329.317L49.7455 329.301L49.6528 318.133L47.6529 318.15ZM49.0959 328.373L4.15487 311.561L3.45412 313.434L48.3951 330.246L49.0959 328.373ZM4.80446 312.489L4.69853 299.722L2.6986 299.738L2.80453 312.506L4.80446 312.489ZM4.06443 300.661L48.7203 283.105L47.9886 281.244L3.33271 298.799L4.06443 300.661ZM30.5247 311.444L30.4344 300.564L28.4345 300.581L28.5247 311.46L30.5247 311.444ZM29.0878 299.634L14.0294 305.2L14.7228 307.076L29.7811 301.51L29.0878 299.634ZM14.0451 307.081L29.1937 312.396L29.8558 310.508L14.7071 305.194L14.0451 307.081ZM6.48469 245.974L7.29245 246.563L7.29523 246.56L6.48469 245.974ZM21.6301 243.192L22.1903 242.364L22.1853 242.36L21.6301 243.192ZM25.4112 247.641L24.5061 248.066L25.5398 250.266L26.3535 247.976L25.4112 247.641ZM29.1768 242.522L29.7835 243.317L29.788 243.313L29.1768 242.522ZM44.7471 244.664L45.5349 244.048L44.7471 244.664ZM48.3178 277.756L48.3261 278.756L49.3261 278.748L49.3178 277.748L48.3178 277.756ZM3.51935 278.128L2.51938 278.136L2.52768 279.136L3.52764 279.128L3.51935 278.128ZM30.1818 267.218L29.1818 267.226L29.1901 268.226L30.1901 268.218L30.1818 267.218ZM39.2694 267.143L39.2777 268.143L40.2777 268.134L40.2694 267.134L39.2694 267.143ZM38.0972 253.136L38.9322 252.586L38.9296 252.582L38.0972 253.136ZM31.1214 253.194L31.9655 253.73L31.9702 253.723L31.1214 253.194ZM12.4224 267.365L11.4224 267.374L11.4307 268.374L12.4307 268.365L12.4224 267.365ZM21.2541 267.292L21.2624 268.292L22.2623 268.284L22.254 267.284L21.2541 267.292ZM4.35949 258.856C4.31325 253.282 5.34239 249.235 7.29244 246.563L5.67695 245.384C3.36595 248.551 2.31165 253.098 2.35956 258.873L4.35949 258.856ZM7.29523 246.56C9.18741 243.941 11.9984 242.576 15.8966 242.544L15.88 240.544C11.4584 240.58 8.00036 242.169 5.67416 245.388L7.29523 246.56ZM15.8966 242.544C17.8657 242.527 19.5804 243.026 21.075 244.024L22.1853 242.36C20.3332 241.124 18.22 240.524 15.88 240.544L15.8966 242.544ZM21.07 244.021C22.569 245.034 23.712 246.376 24.5061 248.066L26.3163 247.216C25.3729 245.208 23.9952 243.584 22.1903 242.364L21.07 244.021ZM26.3535 247.976C27.0164 246.11 28.1523 244.561 29.7834 243.317L28.5702 241.727C26.6398 243.2 25.2653 245.064 24.4689 247.306L26.3535 247.976ZM29.788 243.313C31.3732 242.089 33.1608 241.472 35.1842 241.456L35.1676 239.456C32.7112 239.476 30.4993 240.237 28.5656 241.73L29.788 243.313ZM35.1842 241.456C39.0876 241.423 41.9608 242.724 43.9594 245.28L45.5349 244.048C43.0916 240.924 39.5839 239.419 35.1676 239.456L35.1842 241.456ZM43.9594 245.28C45.9871 247.874 47.1029 251.853 47.1487 257.381L49.1487 257.364C49.1011 251.628 47.9491 247.136 45.5349 244.048L43.9594 245.28ZM47.1487 257.381L47.3178 277.764L49.3178 277.748L49.1487 257.364L47.1487 257.381ZM48.3095 276.756L3.51105 277.128L3.52764 279.128L48.3261 278.756L48.3095 276.756ZM4.51931 278.119L4.35949 258.856L2.35956 258.873L2.51938 278.136L4.51931 278.119ZM30.1901 268.218L39.2777 268.143L39.2611 266.143L30.1735 266.218L30.1901 268.218ZM40.2694 267.134L40.1935 257.983L38.1936 257.999L38.2695 267.151L40.2694 267.134ZM40.1935 257.983C40.175 255.75 39.8004 253.903 38.9322 252.586L37.2622 253.686C37.82 254.533 38.1763 255.923 38.1936 257.999L40.1935 257.983ZM38.9296 252.582C37.9648 251.132 36.4277 250.486 34.5552 250.501L34.5718 252.501C35.9419 252.49 36.7606 252.933 37.2648 253.69L38.9296 252.582ZM34.5552 250.501C32.699 250.517 31.1897 251.193 30.2727 252.665L31.9702 253.723C32.4427 252.964 33.2282 252.512 34.5718 252.501L34.5552 250.501ZM30.2774 252.658C29.4312 253.989 29.0873 255.842 29.1059 258.075L31.1058 258.058C31.0886 255.982 31.4218 254.586 31.9655 253.73L30.2774 252.658ZM29.1059 258.075L29.1818 267.226L31.1817 267.21L31.1058 258.058L29.1059 258.075ZM12.4307 268.365L21.2624 268.292L21.2458 266.292L12.4141 266.365L12.4307 268.365ZM22.254 267.284L22.185 258.964L20.1851 258.981L20.2541 267.3L22.254 267.284ZM22.185 258.964C22.1668 256.766 21.7713 254.942 20.8473 253.648C19.8774 252.291 18.4287 251.659 16.6763 251.674L16.6929 253.673C17.9058 253.663 18.6897 254.069 19.22 254.811C19.7961 255.618 20.1683 256.955 20.1851 258.981L22.185 258.964ZM16.6763 251.674C14.9394 251.688 13.5169 252.348 12.5828 253.723C11.6943 255.03 11.3352 256.858 11.3534 259.054L13.3533 259.037C13.3365 257.01 13.6817 255.664 14.2369 254.847C14.7466 254.097 15.5073 253.683 16.6929 253.673L16.6763 251.674ZM11.3534 259.054L11.4224 267.374L13.4223 267.357L13.3533 259.037L11.3534 259.054ZM3.98346 222.21L3.05762 222.588L3.05857 222.591L3.98346 222.21ZM3.8255 203.171L4.75657 203.536L4.75748 203.534L3.8255 203.171ZM8.59521 195.643L9.3082 196.344L9.31542 196.337L8.59521 195.643ZM15.9146 190.718L15.5296 189.795L15.9146 190.718ZM34.474 190.564L34.8436 189.635L34.474 190.564ZM41.9061 195.367L42.611 194.658L42.611 194.658L41.9061 195.367ZM46.768 202.815L45.8422 203.193L45.8431 203.195L46.768 202.815ZM46.926 221.854L47.8571 222.219L47.858 222.217L46.926 221.854ZM42.1883 229.382L42.9013 230.083L42.9085 230.075L42.1883 229.382ZM34.8366 234.275L34.4516 233.352L34.8366 234.275ZM16.2773 234.429L15.9076 235.358L16.2773 234.429ZM8.87742 229.658L9.58235 228.949L9.58232 228.949L8.87742 229.658ZM15.9256 203.615L16.6258 204.329L16.629 204.325L15.9256 203.615ZM16.0745 221.566L15.383 222.288L15.3863 222.291L16.0745 221.566ZM34.8259 221.41L35.5261 222.124L35.5293 222.121L34.8259 221.41ZM34.6769 203.459L33.9854 204.181L33.9887 204.185L34.6769 203.459ZM4.90929 221.832C3.76308 219.024 3.17172 215.977 3.14437 212.681L1.14444 212.698C1.17373 216.228 1.8084 219.528 3.05762 222.588L4.90929 221.832ZM3.14437 212.681C3.11702 209.385 3.65786 206.34 4.75657 203.536L2.89443 202.806C1.69504 205.867 1.11515 209.167 1.14444 212.698L3.14437 212.681ZM4.75748 203.534C5.86177 200.694 7.38112 198.304 9.30816 196.344L7.88226 194.942C5.74742 197.113 4.08696 199.74 2.89352 202.808L4.75748 203.534ZM9.31542 196.337C11.2231 194.356 13.5462 192.79 16.2996 191.641L15.5296 189.795C12.5426 191.041 9.98616 192.758 7.875 194.949L9.31542 196.337ZM16.2996 191.641C19.0429 190.497 22.0025 189.908 25.188 189.881L25.1714 187.881C21.7438 187.91 18.5266 188.545 15.5296 189.795L16.2996 191.641ZM25.188 189.881C28.3735 189.855 31.3424 190.395 34.1044 191.493L34.8436 189.635C31.8263 188.435 28.599 187.853 25.1714 187.881L25.188 189.881ZM34.1044 191.493C36.8772 192.596 39.2382 194.125 41.2012 196.076L42.611 194.658C40.4437 192.504 37.85 190.831 34.8436 189.635L34.1044 191.493ZM41.2011 196.076C43.1405 198.004 44.6901 200.37 45.8422 203.193L47.6939 202.437C46.4506 199.391 44.7588 196.792 42.611 194.658L41.2011 196.076ZM45.8431 203.195C46.9882 205.98 47.5795 209.016 47.6068 212.312L49.6068 212.296C49.5775 208.765 48.9429 205.475 47.6929 202.434L45.8431 203.195ZM47.6068 212.312C47.6342 215.608 47.0935 218.665 45.994 221.492L47.858 222.217C49.0562 219.136 49.6361 215.826 49.6068 212.296L47.6068 212.312ZM45.9949 221.489C44.8896 224.31 43.3786 226.705 41.4681 228.688L42.9085 230.075C45.0168 227.887 46.6643 225.263 47.857 222.219L45.9949 221.489ZM41.4753 228.68C39.5446 230.643 37.208 232.202 34.4516 233.352L35.2216 235.198C38.2056 233.953 40.7701 232.25 42.9012 230.083L41.4753 228.68ZM34.4516 233.352C31.7083 234.496 28.7487 235.085 25.5632 235.112L25.5798 237.112C29.0075 237.083 32.2246 236.448 35.2216 235.198L34.4516 233.352ZM25.5632 235.112C22.3778 235.138 19.4088 234.598 16.6469 233.5L15.9076 235.358C18.925 236.558 22.1522 237.14 25.5798 237.112L25.5632 235.112ZM16.6469 233.5C13.8726 232.396 11.5228 230.877 9.58235 228.949L8.17248 230.367C10.3192 232.501 12.9026 234.163 15.9076 235.358L16.6469 233.5ZM9.58232 228.949C7.61924 226.998 6.05939 224.63 4.90834 221.83L3.05857 222.591C4.3026 225.617 6.0054 228.214 8.17252 230.367L9.58232 228.949ZM15.2254 202.901C12.6219 205.454 11.3518 208.72 11.3841 212.613L13.384 212.596C13.3558 209.193 14.4467 206.466 16.6258 204.329L15.2254 202.901ZM11.3841 212.613C11.4164 216.505 12.7405 219.758 15.383 222.288L16.7661 220.844C14.5485 218.721 13.4123 215.999 13.384 212.596L11.3841 212.613ZM15.3863 222.291C18.0318 224.801 21.4295 226.01 25.4874 225.976L25.4708 223.976C21.849 224.006 18.977 222.941 16.7628 220.841L15.3863 222.291ZM25.4874 225.976C29.5453 225.942 32.9226 224.678 35.5261 222.124L34.1257 220.696C31.9466 222.834 29.0927 223.946 25.4708 223.976L25.4874 225.976ZM35.5293 222.121C38.1295 219.548 39.3994 216.273 39.3671 212.38L37.3672 212.397C37.3954 215.8 36.3045 218.54 34.1224 220.7L35.5293 222.121ZM39.3671 212.38C39.3348 208.488 38.0107 205.243 35.3652 202.734L33.9887 204.185C36.203 206.285 37.339 208.994 37.3672 212.397L39.3671 212.38ZM35.3685 202.737C32.7233 200.204 29.3243 198.983 25.2638 199.017L25.2804 201.017C28.8996 200.987 31.7705 202.061 33.9854 204.181L35.3685 202.737ZM25.2638 199.017C21.2032 199.051 17.825 200.328 15.2221 202.904L16.629 204.325C18.8084 202.168 21.6612 201.047 25.2804 201.017L25.2638 199.017ZM43.1845 148.882L43.9058 148.189L43.9035 148.187L43.1845 148.882ZM43.4239 177.745L44.1545 178.427L44.1566 178.425L43.4239 177.745ZM2.73206 183.234L1.73209 183.243L1.74039 184.243L2.74036 184.234L2.73206 183.234ZM2.64312 172.515L2.63483 171.515L1.63486 171.523L1.64316 172.523L2.64312 172.515ZM35.7103 169.872L36.4328 170.564L36.4376 170.559L35.7103 169.872ZM35.6023 156.849L36.3181 156.15L36.3132 156.146L35.6023 156.849ZM2.49578 154.755L1.49582 154.764L1.50411 155.764L2.50408 155.755L2.49578 154.755ZM2.40685 144.036L2.39855 143.036L1.39858 143.044L1.40688 144.044L2.40685 144.036ZM29.1342 144.814C34.9972 144.765 39.3904 146.395 42.4654 149.577L43.9035 148.187C40.3507 144.511 35.3716 142.762 29.1176 142.814L29.1342 144.814ZM42.4632 149.574C45.5312 152.769 47.1504 157.293 47.2001 163.281L49.2 163.264C49.1474 156.922 47.4229 151.852 43.9057 148.189L42.4632 149.574ZM47.2001 163.281C47.2497 169.269 45.7058 173.819 42.6912 177.064L44.1566 178.425C47.6125 174.705 49.2526 169.606 49.2 163.264L47.2001 163.281ZM42.6933 177.062C39.6945 180.27 35.3305 181.964 29.4428 182.013L29.4594 184.013C35.7314 183.961 40.6826 182.142 44.1545 178.427L42.6933 177.062ZM29.4428 182.013L2.72376 182.234L2.74036 184.234L29.4594 184.013L29.4428 182.013ZM3.73203 183.226L3.64309 172.506L1.64316 172.523L1.73209 183.243L3.73203 183.226ZM2.65142 173.515L28.9545 173.297L28.9379 171.297L2.63483 171.515L2.65142 173.515ZM28.9545 173.297C32.1119 173.27 34.6644 172.412 36.4328 170.564L34.9879 169.181C33.7106 170.516 31.7536 171.273 28.9379 171.297L28.9545 173.297ZM36.4376 170.559C38.1589 168.735 38.9527 166.29 38.9283 163.349L36.9284 163.366C36.9497 165.93 36.2648 167.828 34.983 169.186L36.4376 170.559ZM38.9283 163.349C38.9038 160.39 38.0708 157.947 36.3181 156.15L34.8865 157.547C36.1892 158.883 36.9069 160.779 36.9284 163.366L38.9283 163.349ZM36.3132 156.146C34.5144 154.327 31.948 153.511 28.7906 153.537L28.8072 155.537C31.6229 155.514 33.5921 156.239 34.8914 157.552L36.3132 156.146ZM28.7906 153.537L2.48749 153.755L2.50408 155.755L28.8072 155.537L28.7906 153.537ZM3.49575 154.747L3.40681 144.027L1.40688 144.044L1.49582 154.764L3.49575 154.747ZM2.41514 145.036L29.1342 144.814L29.1176 142.814L2.39855 143.036L2.41514 145.036ZM11.9808 102.287L12.9808 102.279L12.9725 101.279L11.9725 101.287L11.9808 102.287ZM12.0907 115.534L11.0908 115.543L11.0991 116.543L12.099 116.534L12.0907 115.534ZM46.9695 115.245L47.9695 115.237L47.9612 114.237L46.9612 114.245L46.9695 115.245ZM47.0582 125.933L47.0665 126.933L48.0665 126.924L48.0582 125.924L47.0582 125.933ZM12.1794 126.222L12.1711 125.222L11.1711 125.23L11.1794 126.23L12.1794 126.222ZM12.2896 139.502L12.2979 140.502L13.2978 140.493L13.2895 139.493L12.2896 139.502ZM2.36991 139.584L1.36995 139.592L1.37824 140.592L2.37821 140.584L2.36991 139.584ZM2.06116 102.369L2.05286 101.369L1.0529 101.377L1.06119 102.377L2.06116 102.369ZM10.9809 102.295L11.0908 115.543L13.0907 115.526L12.9808 102.279L10.9809 102.295ZM12.099 116.534L46.9778 116.245L46.9612 114.245L12.0824 114.534L12.099 116.534ZM45.9696 115.253L46.0582 125.941L48.0582 125.924L47.9695 115.237L45.9696 115.253ZM47.0499 124.933L12.1711 125.222L12.1877 127.222L47.0665 126.933L47.0499 124.933ZM11.1794 126.23L11.2896 139.51L13.2895 139.493L13.1794 126.214L11.1794 126.23ZM12.2813 138.502L2.36161 138.584L2.37821 140.584L12.2979 140.502L12.2813 138.502ZM3.36988 139.576L3.06112 102.361L1.06119 102.377L1.36995 139.592L3.36988 139.576ZM2.06945 103.369L11.9891 103.287L11.9725 101.287L2.05286 101.369L2.06945 103.369ZM42.3636 49.9475L43.0849 49.2549L43.0827 49.2525L42.3636 49.9475ZM42.6031 78.8105L43.3337 79.4933L43.3358 79.4911L42.6031 78.8105ZM1.91125 84.3003L0.911283 84.3086L0.919579 85.3086L1.91954 85.3003L1.91125 84.3003ZM1.82231 73.5807L1.81402 72.5807L0.814051 72.589L0.822347 73.5889L1.82231 73.5807ZM34.8895 70.9382L35.612 71.6296L35.6168 71.6246L34.8895 70.9382ZM34.7815 57.9147L35.4973 57.2164L35.4924 57.2114L34.7815 57.9147ZM1.67497 55.8213L0.675006 55.8296L0.683302 56.8295L1.68327 56.8212L1.67497 55.8213ZM1.58604 45.1017L1.57774 44.1017L0.577773 44.11L0.58607 45.1099L1.58604 45.1017ZM28.3134 45.8799C34.1764 45.8313 38.5696 47.461 41.6446 50.6425L43.0827 49.2525C39.5299 45.5768 34.5508 43.8281 28.2968 43.88L28.3134 45.8799ZM41.6424 50.6401C44.7103 53.8351 46.3296 58.3585 46.3792 64.3467L48.3792 64.3301C48.3266 57.9881 46.6021 52.9175 43.0849 49.2549L41.6424 50.6401ZM46.3792 64.3467C46.4289 70.3349 44.885 74.8845 41.8704 78.13L43.3358 79.4911C46.7917 75.7706 48.4318 70.6721 48.3792 64.3301L46.3792 64.3467ZM41.8725 78.1277C38.8737 81.3362 34.5097 83.0298 28.622 83.0787L28.6386 85.0786C34.9106 85.0266 39.8618 83.2081 43.3337 79.4933L41.8725 78.1277ZM28.622 83.0787L1.90295 83.3003L1.91954 85.3003L28.6386 85.0786L28.622 83.0787ZM2.91121 84.292L2.82228 73.5724L0.822347 73.5889L0.911283 84.3086L2.91121 84.292ZM1.83061 74.5806L28.1337 74.3624L28.1171 72.3625L1.81402 72.5807L1.83061 74.5806ZM28.1337 74.3624C31.2911 74.3362 33.8436 73.4776 35.612 71.6296L34.167 70.2469C32.8897 71.5816 30.9328 72.3391 28.1171 72.3625L28.1337 74.3624ZM35.6168 71.6246C37.3381 69.8005 38.1319 67.3556 38.1075 64.4153L36.1076 64.4319C36.1289 66.9955 35.444 68.8937 34.1622 70.2519L35.6168 71.6246ZM38.1075 64.4153C38.083 61.4562 37.25 59.013 35.4973 57.2164L34.0657 58.613C35.3684 59.9484 36.0861 61.8446 36.1076 64.4319L38.1075 64.4153ZM35.4924 57.2114C33.6936 55.393 31.1272 54.5769 27.9698 54.6031L27.9864 56.603C30.8021 56.5797 32.7713 57.3046 34.0706 58.618L35.4924 57.2114ZM27.9698 54.6031L1.66667 54.8213L1.68327 56.8212L27.9864 56.603L27.9698 54.6031ZM2.67494 55.813L2.586 45.0934L0.58607 45.1099L0.675006 55.8296L2.67494 55.813ZM1.59433 46.1016L28.3134 45.8799L28.2968 43.88L1.57774 44.1017L1.59433 46.1016ZM13.9644 5.79359L14.832 6.29081L15.3447 5.3962L14.4348 4.91115L13.9644 5.79359ZM11.3934 23.7675L10.5178 24.2506L10.5212 24.2567L11.3934 23.7675ZM15.5988 25.3647L16.074 26.2446L15.5988 25.3647ZM16.5822 24.3325L17.4407 24.8454L17.4536 24.8237L17.4655 24.8015L16.5822 24.3325ZM17.2751 22.9827L18.1732 23.4225L18.1875 23.3933L18.1999 23.3631L17.2751 22.9827ZM17.8346 20.994L18.8104 21.2124L18.8134 21.1994L18.8159 21.1863L17.8346 20.994ZM18.6606 16.411L19.646 16.5817L19.6474 16.5727L18.6606 16.411ZM18.9652 14.5524L17.9787 14.3887L17.9784 14.3907L18.9652 14.5524ZM23.2622 4.05239L24.0223 4.7023L24.025 4.69904L23.2622 4.05239ZM37.4157 1.27887L37.0421 2.20647L37.048 2.2088L37.4157 1.27887ZM41.6947 4.02746L40.9869 4.73395L41.6947 4.02746ZM44.6413 8.19518L43.7459 8.64034L43.7482 8.64502L44.6413 8.19518ZM46.4118 13.3007L45.4328 13.5049L45.4333 13.5071L46.4118 13.3007ZM45.621 29.8518L46.5852 30.1169L46.5857 30.1154L45.621 29.8518ZM41.4702 38.6865L40.9541 39.543L41.729 40.01L42.2709 39.2855L41.4702 38.6865ZM32.7222 33.4149L31.8896 32.861L31.3103 33.7316L32.206 34.2714L32.7222 33.4149ZM36.2076 13.8014L37.0864 13.3241L37.0803 13.3133L36.2076 13.8014ZM31.6824 12.2388L32.2234 13.0799L32.2234 13.0799L31.6824 12.2388ZM30.667 13.2713L31.5099 13.8093L30.667 13.2713ZM29.9144 15.1336L30.8753 15.4106L30.8772 15.4037L29.9144 15.1336ZM29.3583 17.5383L30.3385 17.7362L30.3411 17.7238L30.3432 17.7113L29.3583 17.5383ZM28.8089 20.7429L27.8204 20.5919L27.8198 20.5959L28.8089 20.7429ZM28.4755 22.9858L29.4644 23.134L29.4646 23.1328L28.4755 22.9858ZM24.1478 33.6461L24.8832 34.3237L24.8864 34.3202L24.1478 33.6461ZM14.9285 37.1467L14.9418 36.1468L14.94 36.1467L14.9285 37.1467ZM4.55038 32.1126L5.33544 31.4932L5.33544 31.4932L4.55038 32.1126ZM1.52036 10.185L2.49332 10.4159L2.49373 10.4142L1.52036 10.185ZM5.1571 1.09849L5.62752 0.216051L4.75106 -0.251181L4.27787 0.622098L5.1571 1.09849ZM13.0967 5.29638C10.5427 9.75299 9.25804 14.2134 9.29498 18.6648L11.2949 18.6482C11.2614 14.6092 12.423 10.4943 14.832 6.29081L13.0967 5.29638ZM9.29498 18.6648C9.31332 20.8762 9.69579 22.7608 10.5178 24.2506L12.2689 23.2845C11.6614 22.1834 11.3116 20.6606 11.2949 18.6482L9.29498 18.6648ZM10.5212 24.2567C11.3837 25.7945 12.6905 26.6769 14.3935 26.6628L14.3769 24.6628C13.52 24.6699 12.8323 24.2888 12.2656 23.2784L10.5212 24.2567ZM14.3935 26.6628C14.9893 26.6578 15.5565 26.524 16.074 26.2446L15.1236 24.4848C14.9189 24.5954 14.6771 24.6603 14.3769 24.6628L14.3935 26.6628ZM16.074 26.2446C16.6446 25.9364 17.089 25.4342 17.4407 24.8454L15.7238 23.8197C15.4864 24.2171 15.2751 24.403 15.1236 24.4848L16.074 26.2446ZM17.4655 24.8015C17.742 24.2807 17.9782 23.8206 18.1732 23.4225L16.377 22.543C16.1943 22.916 15.9687 23.3558 15.699 23.8635L17.4655 24.8015ZM18.1999 23.3631C18.4017 22.8726 18.603 22.1391 18.8104 21.2124L16.8587 20.7756C16.6547 21.6871 16.4831 22.2794 16.3503 22.6023L18.1999 23.3631ZM18.8159 21.1863C19.0004 20.2445 19.135 19.5306 19.2184 19.0494L17.2477 18.7079C17.1682 19.1667 17.0372 19.8631 16.8533 20.8018L18.8159 21.1863ZM19.2184 19.0494C19.2998 18.5793 19.4423 17.7568 19.6459 16.5817L17.6753 16.2403C17.4717 17.4153 17.3292 18.2379 17.2477 18.7079L19.2184 19.0494ZM19.6474 16.5727L19.952 14.7141L17.9784 14.3907L17.6738 16.2493L19.6474 16.5727ZM19.9517 14.7162C20.6853 10.2963 22.0668 6.98914 24.0223 4.7023L22.5022 3.40249C20.2319 6.05755 18.7486 9.75035 17.9787 14.3887L19.9517 14.7162ZM24.025 4.69904C25.9325 2.44889 28.4736 1.29706 31.7514 1.26986L31.7348 -0.730067C27.9303 -0.698502 24.8174 0.671334 22.4994 3.40575L24.025 4.69904ZM31.7514 1.26986C33.7057 1.25365 35.4648 1.5711 37.0421 2.20644L37.7894 0.351302C35.9417 -0.392978 33.9191 -0.748189 31.7348 -0.730067L31.7514 1.26986ZM37.048 2.2088C38.625 2.83243 39.9319 3.67703 40.9869 4.73395L42.4024 3.32098C41.1341 2.05045 39.5883 1.06266 37.7834 0.34894L37.048 2.2088ZM40.9869 4.73395C42.0654 5.81428 42.9866 7.11298 43.7459 8.64034L45.5368 7.75002C44.6906 6.04791 43.6474 4.56814 42.4024 3.32098L40.9869 4.73395ZM43.7482 8.64502C44.5102 10.1579 45.0723 11.7768 45.4328 13.5049L47.3907 13.0964C46.9958 11.204 46.3776 9.41931 45.5344 7.74534L43.7482 8.64502ZM45.4333 13.5071C45.7961 15.2263 45.9867 17.0354 46.0025 18.9362L48.0024 18.9196C47.9856 16.8953 47.7824 14.9529 47.3902 13.0942L45.4333 13.5071ZM46.0025 18.9362C46.0333 22.6463 45.5834 26.1958 44.6564 29.5882L46.5857 30.1154C47.5635 26.537 48.0347 22.804 48.0024 18.9196L46.0025 18.9362ZM44.6568 29.5866C43.7313 32.9521 42.3967 35.7786 40.6694 38.0875L42.2709 39.2855C44.1729 36.7429 45.6055 33.6795 46.5852 30.1169L44.6568 29.5866ZM41.9863 37.83L33.2383 32.5584L32.206 34.2714L40.9541 39.543L41.9863 37.83ZM33.5547 33.9689C36.7497 29.1672 38.3494 24.1399 38.306 18.9041L36.306 18.9207C36.3458 23.7112 34.8896 28.3523 31.8896 32.861L33.5547 33.9689ZM38.306 18.9041C38.2878 16.7109 37.9043 14.8306 37.0864 13.3242L35.3287 14.2785C35.9407 15.4057 36.2895 16.9327 36.306 18.9207L38.306 18.9041ZM37.0803 13.3133C36.1924 11.7254 34.8393 10.8286 33.0789 10.8432L33.0955 12.8431C34.023 12.8354 34.7501 13.244 35.3348 14.2894L37.0803 13.3133ZM33.0789 10.8432C32.3785 10.849 31.7211 11.0249 31.1414 11.3978L32.2234 13.0799C32.4501 12.934 32.7292 12.8462 33.0955 12.8431L33.0789 10.8432ZM31.1414 11.3978C30.6095 11.7399 30.1706 12.1903 29.824 12.7333L31.5099 13.8093C31.7109 13.4943 31.9489 13.2564 32.2234 13.0799L31.1414 11.3978ZM29.824 12.7333C29.474 13.2817 29.191 14.0098 28.9516 14.8635L30.8772 15.4037C31.0936 14.6323 31.3124 14.1188 31.5099 13.8093L29.824 12.7333ZM28.9535 14.8566C28.7155 15.6821 28.5222 16.5184 28.3734 17.3653L30.3432 17.7113C30.4797 16.9345 30.657 16.1676 30.8753 15.4106L28.9535 14.8566ZM28.3781 17.3404C28.2097 18.1745 28.0238 19.2601 27.8204 20.5919L29.7974 20.894C29.9986 19.577 30.1791 18.5262 30.3385 17.7362L28.3781 17.3404ZM27.8198 20.5959L27.4864 22.8388L29.4646 23.1328L29.798 20.89L27.8198 20.5959ZM27.4865 22.8376C26.7951 27.4506 25.4032 30.7869 23.4091 32.972L24.8864 34.3202C27.2475 31.7329 28.7408 27.9624 29.4644 23.134L27.4865 22.8376ZM23.4124 32.9684C21.4469 35.1014 18.6717 36.1964 14.9418 36.1468L14.9152 38.1466C19.0797 38.2021 22.4508 36.9634 24.8832 34.3237L23.4124 32.9684ZM14.94 36.1467C10.924 36.1005 7.75214 34.5561 5.33544 31.4932L3.76532 32.732C6.56633 36.282 10.3132 38.0936 14.917 38.1466L14.94 36.1467ZM5.33544 31.4932C2.89603 28.4015 1.61375 24.3353 1.57122 19.2089L-0.428709 19.2255C-0.383455 24.68 0.987021 29.2108 3.76532 32.732L5.33544 31.4932ZM1.57122 19.2089C1.5449 16.0362 1.8546 13.1067 2.49332 10.4159L0.547395 9.95403C-0.133155 12.821 -0.456191 15.913 -0.428709 19.2255L1.57122 19.2089ZM2.49373 10.4142C3.12804 7.72078 4.30204 4.77557 6.03632 1.57492L4.27787 0.622098C2.48208 3.93627 1.23159 7.04872 0.546985 9.95574L2.49373 10.4142ZM4.68667 1.98094L13.4939 6.67604L14.4348 4.91115L5.62752 0.216051L4.68667 1.98094Z" fill="#05C2DF" fill-opacity="0.5"/>
</svg>
