<svg width="50" height="331" viewBox="0 0 50 331" fill="none" xmlns="http://www.w3.org/2000/svg">
  <path d="M1.39358 48.4849L0.393617 48.4932L0.405685 49.9477L1.75945 49.4155L1.39358 48.4849ZM1.29907 37.0933L0.952105 36.1554L0.293277 36.3991L0.299105 37.1016L1.29907 37.0933ZM10.6786 33.6233L11.0256 34.5612L11.6844 34.3175L11.6786 33.615L10.6786 33.6233ZM10.531 15.8319L11.531 15.8236L11.5251 15.1212L10.8624 14.8884L10.531 15.8319ZM1.09518 12.5181L0.0952139 12.5264L0.101042 13.2288L0.763823 13.4616L1.09518 12.5181ZM1.00253 1.35049L1.3529 0.41388L-0.00950759 -0.0957744L0.00256036 1.35879L1.00253 1.35049ZM45.9436 18.1622L46.9435 18.1539L46.9378 17.4665L46.2939 17.2256L45.9436 18.1622ZM46.0495 30.9298L46.4153 31.8605L47.0551 31.6089L47.0494 30.9215L46.0495 30.9298ZM20.2233 19.2076L20.5544 18.264L19.2116 17.7929L19.2234 19.2159L20.2233 19.2076ZM20.3136 30.0873L19.3136 30.0956L19.3254 31.5186L20.6603 31.0253L20.3136 30.0873ZM35.372 24.5222L35.7186 25.4601L38.3229 24.4977L35.703 23.5785L35.372 24.5222ZM2.39355 48.4766L2.29904 37.085L0.299105 37.1016L0.393617 48.4932L2.39355 48.4766ZM1.64604 38.0311L11.0256 34.5612L10.3316 32.6854L0.952105 36.1554L1.64604 38.0311ZM11.6786 33.615L11.531 15.8236L9.53103 15.8402L9.67864 33.6316L11.6786 33.615ZM10.8624 14.8884L1.42654 11.5746L0.763823 13.4616L10.1996 16.7754L10.8624 14.8884ZM2.09515 12.5098L2.00249 1.34219L0.00256036 1.35879L0.0952139 12.5264L2.09515 12.5098ZM0.652153 2.2871L45.5932 19.0988L46.2939 17.2256L1.3529 0.41388L0.652153 2.2871ZM44.9436 18.1705L45.0495 30.9381L47.0494 30.9215L46.9435 18.1539L44.9436 18.1705ZM45.6836 29.9991L1.02772 47.5542L1.75945 49.4155L46.4153 31.8605L45.6836 29.9991ZM19.2234 19.2159L19.3136 30.0956L21.3136 30.079L21.2233 19.1993L19.2234 19.2159ZM20.6603 31.0253L35.7186 25.4601L35.0253 23.5842L19.9669 29.1493L20.6603 31.0253ZM35.703 23.5785L20.5544 18.264L19.8923 20.1513L35.0409 25.4658L35.703 23.5785ZM43.2634 84.6858L42.4556 84.0962L42.4528 84.1001L43.2634 84.6858ZM28.1179 87.4675L27.5578 88.2959L27.5628 88.2993L28.1179 87.4675ZM24.3369 83.0187L25.242 82.5935L24.2082 80.3934L23.3946 82.684L24.3369 83.0187ZM20.5712 88.1381L19.9646 87.3431L19.96 87.3466L20.5712 88.1381ZM5.00091 85.9952L4.21314 86.6112L5.00091 85.9952ZM1.43024 52.9037L1.42195 51.9038L0.421982 51.912L0.430278 52.912L1.43024 52.9037ZM46.2287 52.532L47.2287 52.5237L47.2204 51.5238L46.2204 51.5321L46.2287 52.532ZM19.5663 63.4416L20.5663 63.4333L20.558 62.4334L19.558 62.4417L19.5663 63.4416ZM10.4786 63.517L10.4703 62.517L9.47034 62.5253L9.47864 63.5253L10.4786 63.517ZM11.6509 77.5238L10.8158 78.074L10.8185 78.078L11.6509 77.5238ZM18.6266 77.4659L17.7825 76.9296L17.7779 76.9371L18.6266 77.4659ZM37.3257 63.2943L38.3257 63.286L38.3174 62.286L37.3174 62.2943L37.3257 63.2943ZM28.494 63.3675L28.4857 62.3676L27.4857 62.3759L27.494 63.3758L28.494 63.3675ZM45.3886 71.8037C45.4348 77.3775 44.4057 81.4244 42.4556 84.0962L44.0711 85.2753C46.3821 82.1089 47.4364 77.5622 47.3885 71.7871L45.3886 71.8037ZM42.4528 84.1001C40.5606 86.7187 37.7496 88.0836 33.8515 88.116L33.8681 90.1159C38.2897 90.0792 41.7477 88.4907 44.0739 85.2714L42.4528 84.1001ZM33.8515 88.116C31.8824 88.1323 30.1676 87.6333 28.6731 86.6357L27.5628 88.2993C29.4148 89.5354 31.528 90.1353 33.8681 90.1159L33.8515 88.116ZM28.678 86.6391C27.179 85.6255 26.036 84.2835 25.242 82.5935L23.4318 83.444C24.3751 85.4517 25.7528 87.0755 27.5578 88.2959L28.678 86.6391ZM23.3946 82.684C22.7317 84.5501 21.5957 86.0985 19.9646 87.3431L21.1778 88.9331C23.1083 87.4601 24.4828 85.5956 25.2792 83.3534L23.3946 82.684ZM19.96 87.3466C18.3748 88.5707 16.5873 89.1872 14.5639 89.204L14.5804 91.2039C17.0369 91.1836 19.2487 90.4228 21.1824 88.9296L19.96 87.3466ZM14.5639 89.204C10.6605 89.2364 7.78729 87.9352 5.78867 85.3793L4.21314 86.6112C6.65647 89.7359 10.1641 91.2406 14.5804 91.2039L14.5639 89.204ZM5.78867 85.3793C3.76091 82.786 2.64518 78.8063 2.59932 73.2787L0.599391 73.2953C0.646981 79.0314 1.79895 83.5238 4.21314 86.6112L5.78867 85.3793ZM2.59932 73.2787L2.43021 52.8954L0.430278 52.912L0.599391 73.2953L2.59932 73.2787ZM1.43854 53.9037L46.237 53.532L46.2204 51.5321L1.42195 51.9038L1.43854 53.9037ZM45.2287 52.5403L45.3886 71.8037L47.3885 71.7871L47.2287 52.5237L45.2287 52.5403ZM19.558 62.4417L10.4703 62.517L10.4869 64.517L19.5746 64.4416L19.558 62.4417ZM9.47864 63.5253L9.55457 72.677L11.5545 72.6604L11.4786 63.5087L9.47864 63.5253ZM9.55457 72.677C9.57309 74.9098 9.94766 76.7564 10.8158 78.074L12.4859 76.9736C11.928 76.1269 11.5717 74.7368 11.5545 72.6604L9.55457 72.677ZM10.8185 78.078C11.7833 79.5272 13.3204 80.174 15.1928 80.1585L15.1762 78.1585C13.8061 78.1699 12.9874 77.7269 12.4833 76.9696L10.8185 78.078ZM15.1928 80.1585C17.0491 80.1431 18.5583 79.4666 19.4754 77.9947L17.7779 76.9371C17.3054 77.6955 16.5199 78.1474 15.1762 78.1585L15.1928 80.1585ZM19.4707 78.0022C20.3168 76.6703 20.6607 74.8178 20.6422 72.585L18.6423 72.6016C18.6595 74.678 18.3263 76.0739 17.7826 76.9296L19.4707 78.0022ZM20.6422 72.585L20.5663 63.4333L18.5663 63.4499L18.6423 72.6016L20.6422 72.585ZM37.3174 62.2943L28.4857 62.3676L28.5023 64.3675L37.334 64.2942L37.3174 62.2943ZM27.494 63.3758L27.563 71.6956L29.563 71.679L29.494 63.3593L27.494 63.3758ZM27.563 71.6956C27.5813 73.8939 27.9767 75.718 28.9007 77.0112C29.8706 78.3687 31.3193 79.0007 33.0717 78.9861L33.0551 76.9862C31.8423 76.9962 31.0583 76.5907 30.5281 75.8485C29.9519 75.0422 29.5798 73.7045 29.563 71.679L27.563 71.6956ZM33.0717 78.9861C34.8087 78.9717 36.2311 78.3113 37.1652 76.9371C38.0537 75.6299 38.4129 73.802 38.3947 71.6057L36.3947 71.6223C36.4116 73.6498 36.0664 74.9959 35.5111 75.8128C35.0015 76.5626 34.2407 76.9763 33.0551 76.9862L33.0717 78.9861ZM38.3947 71.6057L38.3257 63.286L36.3257 63.3026L36.3947 71.6223L38.3947 71.6057ZM45.7646 108.449L46.6904 108.071L46.6895 108.069L45.7646 108.449ZM45.9226 127.489L44.9915 127.124L44.9906 127.126L45.9226 127.489ZM41.1528 135.017L40.4399 134.315L40.4326 134.323L41.1528 135.017ZM33.8335 139.941L34.2184 140.864L33.8335 139.941ZM15.2741 140.095L14.9045 141.025L15.2741 140.095ZM7.84199 135.293L7.13705 136.002L7.13709 136.002L7.84199 135.293ZM2.98004 127.845L3.90587 127.467L3.90492 127.465L2.98004 127.845ZM2.82207 108.806L1.891 108.441L1.8901 108.443L2.82207 108.806ZM7.55979 101.278L6.8468 100.577L6.83957 100.584L7.55979 101.278ZM14.9114 96.3849L15.2964 97.3078L14.9114 96.3849ZM33.4708 96.2309L33.8404 95.3017L33.4708 96.2309ZM40.8706 101.002L40.1657 101.711L40.1657 101.711L40.8706 101.002ZM33.8225 127.045L33.1223 126.331L33.119 126.334L33.8225 127.045ZM33.6735 109.094L34.3651 108.371L34.3618 108.368L33.6735 109.094ZM14.9222 109.249L14.222 108.535L14.2187 108.538L14.9222 109.249ZM15.0711 127.201L15.7627 126.478L15.7594 126.475L15.0711 127.201ZM44.8388 108.827C45.985 111.635 46.5763 114.682 46.6037 117.979L48.6036 117.962C48.5743 114.432 47.9397 111.132 46.6904 108.071L44.8388 108.827ZM46.6037 117.979C46.631 121.275 46.0902 124.32 44.9915 127.124L46.8536 127.854C48.053 124.793 48.6329 121.492 48.6036 117.962L46.6037 117.979ZM44.9906 127.126C43.8863 129.965 42.3669 132.356 40.4399 134.315L41.8658 135.718C44.0006 133.547 45.6611 130.919 46.8545 127.851L44.9906 127.126ZM40.4326 134.323C38.5249 136.303 36.2018 137.87 33.4485 139.018L34.2184 140.864C37.2054 139.618 39.7619 137.902 41.8731 135.71L40.4326 134.323ZM33.4485 139.018C30.7051 140.163 27.7456 140.752 24.5601 140.778L24.5767 142.778C28.0043 142.75 31.2214 142.114 34.2184 140.864L33.4485 139.018ZM24.5601 140.778C21.3746 140.805 18.4057 140.265 15.6437 139.166L14.9045 141.025C17.9218 142.225 21.149 142.807 24.5767 142.778L24.5601 140.778ZM15.6437 139.166C12.8709 138.063 10.5098 136.534 8.5469 134.584L7.13709 136.002C9.30437 138.156 11.8981 139.829 14.9045 141.025L15.6437 139.166ZM8.54693 134.584C6.60756 132.656 5.05801 130.29 3.90587 127.467L2.0542 128.223C3.2975 131.269 4.98926 133.867 7.13705 136.002L8.54693 134.584ZM3.90492 127.465C2.75985 124.679 2.16856 121.644 2.14121 118.348L0.141281 118.364C0.170569 121.894 0.805144 125.185 2.05515 128.225L3.90492 127.465ZM2.14121 118.348C2.11386 115.051 2.65459 111.995 3.75405 109.168L1.8901 108.443C0.691819 111.524 0.111993 114.834 0.141281 118.364L2.14121 118.348ZM3.75314 109.17C4.85843 106.35 6.36949 103.955 8.28 101.972L6.83957 100.584C4.73122 102.773 3.0838 105.397 1.89101 108.441L3.75314 109.17ZM8.27274 101.979C10.2035 100.016 12.5401 98.4575 15.2964 97.3078L14.5265 95.4619C11.5425 96.7066 8.97796 98.41 6.84684 100.577L8.27274 101.979ZM15.2964 97.3078C18.0398 96.1635 20.9993 95.5743 24.1848 95.5479L24.1682 93.548C20.7406 93.5764 17.5235 94.2119 14.5265 95.4619L15.2964 97.3078ZM24.1848 95.5479C27.3703 95.5215 30.3392 96.0615 33.1012 97.1601L33.8404 95.3017C30.8231 94.1015 27.5958 93.5195 24.1682 93.548L24.1848 95.5479ZM33.1012 97.1601C35.8754 98.2636 38.2253 99.7824 40.1657 101.711L41.5756 100.292C39.4288 98.1587 36.8455 96.497 33.8404 95.3017L33.1012 97.1601ZM40.1657 101.711C42.1288 103.662 43.6887 106.03 44.8397 108.83L46.6895 108.069C45.4455 105.043 43.7427 102.446 41.5755 100.292L40.1657 101.711ZM34.5227 127.759C37.1261 125.206 38.3963 121.94 38.364 118.047L36.364 118.064C36.3923 121.467 35.3014 124.194 33.1223 126.331L34.5227 127.759ZM38.364 118.047C38.3317 114.155 37.0076 110.901 34.3651 108.371L32.982 109.816C35.1996 111.939 36.3358 114.66 36.364 118.064L38.364 118.047ZM34.3618 108.368C31.7163 105.858 28.3185 104.65 24.2606 104.684L24.2772 106.684C27.8991 106.653 30.771 107.718 32.9853 109.819L34.3618 108.368ZM24.2606 104.684C20.2027 104.717 16.8255 105.982 14.222 108.535L15.6224 109.963C17.8015 107.826 20.6554 106.714 24.2772 106.684L24.2606 104.684ZM14.2187 108.538C11.6186 111.112 10.3486 114.387 10.3809 118.279L12.3809 118.263C12.3526 114.859 13.4435 112.12 15.6256 109.96L14.2187 108.538ZM10.3809 118.279C10.4132 122.172 11.7374 125.416 14.3828 127.926L15.7594 126.475C13.5451 124.374 12.4091 121.666 12.3809 118.263L10.3809 118.279ZM14.3795 127.923C17.0248 130.456 20.4237 131.676 24.4843 131.643L24.4677 129.643C20.8485 129.673 17.9775 128.599 15.7627 126.478L14.3795 127.923ZM24.4843 131.643C28.5448 131.609 31.9231 130.332 34.5259 127.756L33.119 126.334C30.9396 128.491 28.0869 129.613 24.4677 129.643L24.4843 131.643ZM6.56361 181.778L5.84231 182.471L5.84457 182.473L6.56361 181.778ZM6.32414 152.915L5.59356 152.232L5.59146 152.234L6.32414 152.915ZM47.016 147.425L48.016 147.417L48.0077 146.417L47.0077 146.425L47.016 147.425ZM47.1049 158.145L47.1132 159.145L48.1132 159.137L48.1049 158.137L47.1049 158.145ZM14.0377 160.787L13.3152 160.096L13.3104 160.101L14.0377 160.787ZM14.1458 173.811L13.4299 174.509L13.4349 174.514L14.1458 173.811ZM47.2523 175.904L48.2522 175.896L48.2439 174.896L47.244 174.904L47.2523 175.904ZM47.3412 186.624L47.3495 187.624L48.3495 187.616L48.3412 186.616L47.3412 186.624ZM20.6138 185.846C14.7509 185.894 10.3577 184.265 7.28264 181.083L5.84457 182.473C9.39732 186.149 14.3765 187.897 20.6304 187.846L20.6138 185.846ZM7.2849 181.085C4.21691 177.89 2.59769 173.367 2.54801 167.379L0.548076 167.395C0.600693 173.738 2.32519 178.808 5.84231 182.471L7.2849 181.085ZM2.54801 167.379C2.49833 161.391 4.04227 156.841 7.05682 153.596L5.59146 152.234C2.13558 155.955 0.495458 161.053 0.548076 167.395L2.54801 167.379ZM7.05472 153.598C10.0536 150.389 14.4176 148.696 20.3052 148.647L20.2886 146.647C14.0167 146.699 9.0655 148.518 5.59356 152.232L7.05472 153.598ZM20.3052 148.647L47.0243 148.425L47.0077 146.425L20.2886 146.647L20.3052 148.647ZM46.016 147.434L46.105 158.153L48.1049 158.137L48.016 147.417L46.016 147.434ZM47.0966 157.145L20.7935 157.363L20.8101 159.363L47.1132 159.145L47.0966 157.145ZM20.7935 157.363C17.6361 157.389 15.0836 158.248 13.3152 160.096L14.7602 161.479C16.0375 160.144 17.9944 159.386 20.8101 159.363L20.7935 157.363ZM13.3104 160.101C11.5891 161.925 10.7953 164.37 10.8197 167.31L12.8197 167.294C12.7984 164.73 13.4833 162.832 14.765 161.474L13.3104 160.101ZM10.8197 167.31C10.8443 170.269 11.6773 172.713 13.43 174.509L14.8616 173.113C13.5588 171.777 12.8411 169.881 12.8197 167.294L10.8197 167.31ZM13.4349 174.514C15.2337 176.333 17.8001 177.149 20.9575 177.122L20.9409 175.123C18.1252 175.146 16.156 174.421 14.8567 173.108L13.4349 174.514ZM20.9575 177.122L47.2606 176.904L47.244 174.904L20.9409 175.123L20.9575 177.122ZM46.2523 175.913L46.3413 186.632L48.3412 186.616L48.2522 175.896L46.2523 175.913ZM47.3329 185.624L20.6138 185.846L20.6304 187.846L47.3495 187.624L47.3329 185.624ZM37.7672 228.373L36.7673 228.381L36.7756 229.381L37.7755 229.373L37.7672 228.373ZM37.6573 215.125L38.6573 215.117L38.649 214.117L37.649 214.125L37.6573 215.125ZM2.77854 215.415L1.77857 215.423L1.78687 216.423L2.78683 216.415L2.77854 215.415ZM2.68987 204.727L2.68157 203.727L1.6816 203.735L1.6899 204.735L2.68987 204.727ZM37.5687 204.438L37.577 205.438L38.5769 205.429L38.5686 204.429L37.5687 204.438ZM37.4585 191.158L37.4502 190.158L36.4502 190.166L36.4585 191.166L37.4585 191.158ZM47.3782 191.076L48.3781 191.067L48.3698 190.068L47.3699 190.076L47.3782 191.076ZM47.6869 228.291L47.6952 229.29L48.6952 229.282L48.6869 228.282L47.6869 228.291ZM38.7672 228.365L38.6573 215.117L36.6574 215.134L36.7673 228.381L38.7672 228.365ZM37.649 214.125L2.77024 214.415L2.78683 216.415L37.6656 216.125L37.649 214.125ZM3.7785 215.406L3.68983 204.719L1.6899 204.735L1.77857 215.423L3.7785 215.406ZM2.69816 205.727L37.577 205.438L37.5604 203.438L2.68157 203.727L2.69816 205.727ZM38.5686 204.429L38.4585 191.15L36.4585 191.166L36.5687 204.446L38.5686 204.429ZM37.4668 192.158L47.3864 192.076L47.3699 190.076L37.4502 190.158L37.4668 192.158ZM46.3782 191.084L46.6869 228.299L48.6869 228.282L48.3781 191.067L46.3782 191.084ZM47.6786 227.291L37.759 227.373L37.7755 229.373L47.6952 229.29L47.6786 227.291ZM7.38443 280.712L6.66313 281.405L6.66539 281.407L7.38443 280.712ZM7.14496 251.849L6.41438 251.166L6.41228 251.169L7.14496 251.849ZM47.8368 246.359L48.8368 246.351L48.8285 245.351L47.8285 245.359L47.8368 246.359ZM47.9258 257.079L47.9341 258.079L48.934 258.071L48.9257 257.071L47.9258 257.079ZM14.8585 259.721L14.136 259.03L14.1312 259.035L14.8585 259.721ZM14.9666 272.745L14.2508 273.443L14.2557 273.448L14.9666 272.745ZM48.0731 274.838L49.0731 274.83L49.0648 273.83L48.0648 273.838L48.0731 274.838ZM48.162 285.558L48.1703 286.558L49.1703 286.55L49.162 285.55L48.162 285.558ZM21.4347 284.78C15.5717 284.828 11.1785 283.199 8.10346 280.017L6.66539 281.407C10.2181 285.083 15.1973 286.832 21.4513 286.78L21.4347 284.78ZM8.10572 280.02C5.03773 276.825 3.41851 272.301 3.36883 266.313L1.3689 266.33C1.42151 272.672 3.146 277.742 6.66313 281.405L8.10572 280.02ZM3.36883 266.313C3.31914 260.325 4.86309 255.775 7.87764 252.53L6.41228 251.169C2.9564 254.889 1.31628 259.988 1.3689 266.33L3.36883 266.313ZM7.87554 252.532C10.8744 249.323 15.2384 247.63 21.126 247.581L21.1094 245.581C14.8375 245.633 9.88632 247.452 6.41438 251.166L7.87554 252.532ZM21.126 247.581L47.8451 247.359L47.8285 245.359L21.1094 245.581L21.126 247.581ZM46.8369 246.368L46.9258 257.087L48.9257 257.071L48.8368 246.351L46.8369 246.368ZM47.9175 256.079L21.6144 256.297L21.631 258.297L47.9341 258.079L47.9175 256.079ZM21.6144 256.297C18.4569 256.323 15.9045 257.182 14.1361 259.03L15.581 260.413C16.8583 259.078 18.8152 258.321 21.631 258.297L21.6144 256.297ZM14.1312 259.035C12.4099 260.859 11.6162 263.304 11.6405 266.244L13.6405 266.228C13.6192 263.664 14.3041 261.766 15.5858 260.408L14.1312 259.035ZM11.6405 266.244C11.6651 269.203 12.4981 271.647 14.2508 273.443L15.6824 272.047C14.3797 270.711 13.6619 268.815 13.6405 266.228L11.6405 266.244ZM14.2557 273.448C16.0545 275.267 18.6209 276.083 21.7783 276.057L21.7617 274.057C18.946 274.08 16.9768 273.355 15.6775 272.042L14.2557 273.448ZM21.7783 276.057L48.0814 275.838L48.0648 273.838L21.7617 274.057L21.7783 276.057ZM47.0731 274.847L47.1621 285.566L49.162 285.55L49.0731 274.83L47.0731 274.847ZM48.1537 284.558L21.4347 284.78L21.4513 286.78L48.1703 286.558L48.1537 284.558ZM35.7837 324.866L34.9161 324.369L34.4034 325.263L35.3133 325.749L35.7837 324.866ZM38.3547 306.892L39.2303 306.409L39.2269 306.403L38.3547 306.892ZM34.1493 305.295L33.6741 304.415L34.1493 305.295ZM33.1658 306.327L32.3073 305.814L32.2944 305.836L32.2826 305.858L33.1658 306.327ZM32.473 307.677L31.5749 307.237L31.5606 307.266L31.5482 307.297L32.473 307.677ZM31.9135 309.666L30.9376 309.447L30.9347 309.46L30.9321 309.473L31.9135 309.666ZM31.0875 314.249L30.1021 314.078L30.1006 314.087L31.0875 314.249ZM30.7829 316.107L31.7694 316.271L31.7697 316.269L30.7829 316.107ZM26.4858 326.607L25.7258 325.957L25.723 325.961L26.4858 326.607ZM12.3324 329.381L12.706 328.453L12.7001 328.451L12.3324 329.381ZM8.05342 326.632L8.76114 325.926L8.05342 326.632ZM5.10674 322.464L6.0022 322.019L5.99985 322.015L5.10674 322.464ZM3.33632 317.359L4.31524 317.155L4.31477 317.153L3.33632 317.359ZM4.12703 300.808L3.16283 300.543L3.1624 300.544L4.12703 300.808ZM8.27788 291.973L8.79402 291.117L8.01908 290.65L7.47713 291.374L8.27788 291.973ZM17.0259 297.245L17.8585 297.799L18.4378 296.928L17.5421 296.388L17.0259 297.245ZM13.5405 316.858L12.6616 317.336L12.6677 317.346L13.5405 316.858ZM18.0656 318.421L17.5247 317.58L17.5246 317.58L18.0656 318.421ZM19.0811 317.388L18.2382 316.85L19.0811 317.388ZM19.8337 315.526L18.8728 315.249L18.8708 315.256L19.8337 315.526ZM20.3898 313.121L19.4095 312.924L19.407 312.936L19.4048 312.948L20.3898 313.121ZM20.9392 309.917L21.9277 310.068L21.9283 310.064L20.9392 309.917ZM21.2726 307.674L20.2836 307.526L20.2835 307.527L21.2726 307.674ZM25.6003 297.014L24.8649 296.336L24.8617 296.339L25.6003 297.014ZM34.8196 293.513L34.8063 294.513L34.8081 294.513L34.8196 293.513ZM45.1977 298.547L44.4126 299.166L44.4126 299.166L45.1977 298.547ZM48.2277 320.475L47.2548 320.244L47.2543 320.245L48.2277 320.475ZM44.591 329.561L44.1206 330.444L44.997 330.911L45.4702 330.038L44.591 329.561ZM36.6513 325.363C39.2054 320.907 40.49 316.446 40.4531 311.995L38.4532 312.011C38.4867 316.05 37.3251 320.165 34.9161 324.369L36.6513 325.363ZM40.4531 311.995C40.4348 309.783 40.0523 307.899 39.2303 306.409L37.4791 307.375C38.0866 308.476 38.4365 309.999 38.4532 312.011L40.4531 311.995ZM39.2269 306.403C38.3644 304.865 37.0576 303.983 35.3546 303.997L35.3712 305.997C36.2281 305.99 36.9158 306.371 37.4825 307.381L39.2269 306.403ZM35.3546 303.997C34.7588 304.002 34.1915 304.136 33.6741 304.415L34.6245 306.175C34.8292 306.064 35.071 305.999 35.3712 305.997L35.3546 303.997ZM33.6741 304.415C33.1035 304.723 32.6591 305.225 32.3073 305.814L34.0243 306.84C34.2617 306.443 34.473 306.257 34.6245 306.175L33.6741 304.415ZM32.2826 305.858C32.0061 306.379 31.7699 306.839 31.5749 307.237L33.3711 308.117C33.5538 307.744 33.7794 307.304 34.049 306.796L32.2826 305.858ZM31.5482 307.297C31.3464 307.787 31.145 308.521 30.9376 309.447L32.8893 309.884C33.0934 308.973 33.265 308.38 33.3978 308.057L31.5482 307.297ZM30.9321 309.473C30.7476 310.415 30.6131 311.129 30.5297 311.61L32.5003 311.952C32.5798 311.493 32.7109 310.797 32.8948 309.858L30.9321 309.473ZM30.5297 311.61C30.4483 312.08 30.3057 312.903 30.1022 314.078L32.0728 314.419C32.2764 313.244 32.4189 312.422 32.5003 311.952L30.5297 311.61ZM30.1006 314.087L29.796 315.946L31.7697 316.269L32.0743 314.41L30.1006 314.087ZM29.7964 315.944C29.0627 320.363 27.6813 323.671 25.7258 325.957L27.2459 327.257C29.5162 324.602 30.9995 320.909 31.7694 316.271L29.7964 315.944ZM25.723 325.961C23.8156 328.211 21.2745 329.363 17.9966 329.39L18.0132 331.39C21.8178 331.358 24.9307 329.988 27.2486 327.254L25.723 325.961ZM17.9966 329.39C16.0424 329.406 14.2833 329.089 12.706 328.453L11.9587 330.308C13.8064 331.053 15.8289 331.408 18.0132 331.39L17.9966 329.39ZM12.7001 328.451C11.1231 327.827 9.81623 326.983 8.76114 325.926L7.34569 327.339C8.614 328.609 10.1598 329.597 11.9646 330.311L12.7001 328.451ZM8.76114 325.926C7.68272 324.845 6.76151 323.547 6.00219 322.019L4.2113 322.91C5.05748 324.612 6.10072 326.092 7.34569 327.339L8.76114 325.926ZM5.99985 322.015C5.23785 320.502 4.67581 318.883 4.31524 317.155L2.3574 317.563C2.75224 319.456 3.37047 321.24 4.21364 322.914L5.99985 322.015ZM4.31477 317.153C3.95197 315.433 3.76135 313.624 3.74558 311.723L1.74565 311.74C1.76244 313.764 1.96563 315.707 2.35787 317.566L4.31477 317.153ZM3.74558 311.723C3.7148 308.013 4.16463 304.464 5.09166 301.071L3.1624 300.544C2.18454 304.123 1.71342 307.856 1.74565 311.74L3.74558 311.723ZM5.09124 301.073C6.01676 297.708 7.35142 294.881 9.07863 292.572L7.47713 291.374C5.57514 293.917 4.14257 296.98 3.16283 300.543L5.09124 301.073ZM7.76175 292.83L16.5098 298.101L17.5421 296.388L8.79402 291.117L7.76175 292.83ZM16.1934 296.691C12.9984 301.492 11.3987 306.52 11.4421 311.756L13.442 311.739C13.4023 306.948 14.8585 302.307 17.8585 297.799L16.1934 296.691ZM11.4421 311.756C11.4603 313.949 11.8438 315.829 12.6617 317.336L14.4193 316.381C13.8073 315.254 13.4585 313.727 13.442 311.739L11.4421 311.756ZM12.6677 317.346C13.5557 318.934 14.9087 319.831 16.6692 319.816L16.6526 317.817C15.7251 317.824 14.9979 317.416 14.4133 316.37L12.6677 317.346ZM16.6692 319.816C17.3695 319.811 18.027 319.635 18.6066 319.262L17.5246 317.58C17.2979 317.726 17.0188 317.814 16.6526 317.817L16.6692 319.816ZM18.6066 319.262C19.1385 318.92 19.5775 318.469 19.924 317.926L18.2382 316.85C18.0371 317.165 17.7991 317.403 17.5247 317.58L18.6066 319.262ZM19.924 317.926C20.2741 317.378 20.557 316.65 20.7965 315.796L18.8708 315.256C18.6545 316.027 18.4357 316.541 18.2382 316.85L19.924 317.926ZM20.7946 315.803C21.0325 314.978 21.2259 314.141 21.3747 313.294L19.4048 312.948C19.2684 313.725 19.0911 314.492 18.8728 315.249L20.7946 315.803ZM21.37 313.319C21.5384 312.485 21.7242 311.4 21.9277 310.068L19.9507 309.766C19.7494 311.083 19.569 312.133 19.4095 312.924L21.37 313.319ZM21.9283 310.064L22.2617 307.821L20.2835 307.527L19.9501 309.77L21.9283 310.064ZM22.2615 307.822C22.9529 303.209 24.3448 299.873 26.3389 297.688L24.8617 296.339C22.5005 298.927 21.0073 302.697 20.2836 307.526L22.2615 307.822ZM26.3357 297.691C28.3012 295.558 31.0763 294.463 34.8063 294.513L34.8329 292.513C30.6683 292.458 27.2973 293.696 24.8649 296.336L26.3357 297.691ZM34.8081 294.513C38.8241 294.559 41.9959 296.104 44.4126 299.166L45.9828 297.928C43.1817 294.378 39.4349 292.566 34.8311 292.513L34.8081 294.513ZM44.4126 299.166C46.852 302.258 48.1343 306.324 48.1769 311.451L50.1768 311.434C50.1315 305.98 48.7611 301.449 45.9828 297.928L44.4126 299.166ZM48.1769 311.451C48.2032 314.623 47.8935 317.553 47.2548 320.244L49.2007 320.706C49.8812 317.839 50.2043 314.747 50.1768 311.434L48.1769 311.451ZM47.2543 320.245C46.62 322.939 45.446 325.884 43.7118 329.085L45.4702 330.038C47.266 326.723 48.5165 323.611 49.2011 320.704L47.2543 320.245ZM45.0614 328.679L36.2541 323.984L35.3133 325.749L44.1206 330.444L45.0614 328.679Z" fill="#05C2DF"/>
</svg>
