<svg width="50" height="330" viewBox="0 0 50 330" fill="none" xmlns="http://www.w3.org/2000/svg">
  <path d="M1.38675 47.7759L0.386781 47.7842L0.398849 49.2387L1.75261 48.7066L1.38675 47.7759ZM1.29223 36.3843L0.945269 35.4464L0.286441 35.6901L0.292269 36.3926L1.29223 36.3843ZM10.6718 32.9143L11.0187 33.8522L11.6776 33.6085L11.6717 32.906L10.6718 32.9143ZM10.5242 15.123L11.5241 15.1147L11.5183 14.4122L10.8555 14.1794L10.5242 15.123ZM1.08834 11.8091L0.088378 11.8174L0.0942059 12.5199L0.756987 12.7526L1.08834 11.8091ZM0.99569 0.641506L1.34606 -0.295104L-0.0163435 -0.804759L-0.00427557 0.649803L0.99569 0.641506ZM45.9367 17.4532L46.9367 17.4449L46.931 16.7575L46.2871 16.5166L45.9367 17.4532ZM46.0426 30.2208L46.4085 31.1515L47.0483 30.9L47.0426 30.2125L46.0426 30.2208ZM20.2165 18.4987L20.5475 17.555L19.2047 17.084L19.2165 18.507L20.2165 18.4987ZM20.3068 29.3783L19.3068 29.3866L19.3186 30.8096L20.6534 30.3163L20.3068 29.3783ZM35.3651 23.8132L35.7118 24.7512L38.3161 23.7887L35.6962 22.8696L35.3651 23.8132ZM2.38671 47.7676L2.2922 36.376L0.292269 36.3926L0.386781 47.7842L2.38671 47.7676ZM1.6392 37.3222L11.0187 33.8522L10.3248 31.9765L0.945269 35.4464L1.6392 37.3222ZM11.6717 32.906L11.5241 15.1147L9.5242 15.1313L9.67181 32.9226L11.6717 32.906ZM10.8555 14.1794L1.4197 10.8656L0.756987 12.7526L10.1928 16.0665L10.8555 14.1794ZM2.08831 11.8008L1.99566 0.63321L-0.00427557 0.649803L0.088378 11.8174L2.08831 11.8008ZM0.645317 1.57812L45.5863 18.3899L46.2871 16.5166L1.34606 -0.295104L0.645317 1.57812ZM44.9368 17.4615L45.0427 30.2291L47.0426 30.2125L46.9367 17.4449L44.9368 17.4615ZM45.6768 29.2901L1.02088 46.8452L1.75261 48.7066L46.4085 31.1515L45.6768 29.2901ZM19.2165 18.507L19.3068 29.3866L21.3067 29.37L21.2165 18.4904L19.2165 18.507ZM20.6534 30.3163L35.7118 24.7512L35.0185 22.8752L19.9601 28.4403L20.6534 30.3163ZM35.6962 22.8696L20.5475 17.555L19.8855 19.4423L35.0341 24.7568L35.6962 22.8696ZM43.2565 83.9768L42.4488 83.3872L42.446 83.3911L43.2565 83.9768ZM28.1111 86.7585L27.5509 87.5869L27.5559 87.5903L28.1111 86.7585ZM24.33 82.3097L25.2351 81.8845L24.2014 79.6844L23.3877 81.975L24.33 82.3097ZM20.5644 87.4291L19.9578 86.6341L19.9532 86.6377L20.5644 87.4291ZM4.99407 85.2863L4.20631 85.9022L4.99407 85.2863ZM1.42341 52.1947L1.41511 51.1948L0.415146 51.2031L0.423442 52.203L1.42341 52.1947ZM46.2219 51.8231L47.2218 51.8148L47.2135 50.8148L46.2136 50.8231L46.2219 51.8231ZM19.5595 62.7326L20.5594 62.7243L20.5511 61.7244L19.5512 61.7327L19.5595 62.7326ZM10.4718 62.808L10.4635 61.8081L9.46351 61.8164L9.4718 62.8163L10.4718 62.808ZM11.644 76.8148L10.809 77.365L10.8116 77.369L11.644 76.8148ZM18.6198 76.7569L17.7757 76.2206L17.771 76.2281L18.6198 76.7569ZM37.3189 62.5853L38.3188 62.577L38.3105 61.577L37.3106 61.5853L37.3189 62.5853ZM28.4872 62.6586L28.4789 61.6586L27.4789 61.6669L27.4872 62.6669L28.4872 62.6586ZM45.3817 71.0947C45.428 76.6686 44.3988 80.7154 42.4488 83.3872L44.0643 84.5663C46.3753 81.3999 47.4296 76.8532 47.3817 71.0781L45.3817 71.0947ZM42.446 83.3911C40.5538 86.0097 37.7428 87.3746 33.8447 87.407L33.8613 89.4069C38.2828 89.3702 41.7409 87.7817 44.0671 84.5625L42.446 83.3911ZM33.8447 87.407C31.8755 87.4233 30.1608 86.9243 28.6662 85.9268L27.5559 87.5903C29.408 88.8264 31.5212 89.4263 33.8613 89.4069L33.8447 87.407ZM28.6712 85.9301C27.1722 84.9165 26.0292 83.5745 25.2351 81.8845L23.425 82.735C24.3683 84.7427 25.746 86.3665 27.551 87.5869L28.6712 85.9301ZM23.3877 81.975C22.7249 83.8411 21.5889 85.3895 19.9578 86.6342L21.171 88.2241C23.1014 86.7511 24.4759 84.8866 25.2724 82.6444L23.3877 81.975ZM19.9532 86.6377C18.368 87.8618 16.5804 88.4782 14.557 88.495L14.5736 90.495C17.0301 90.4746 19.2419 89.7138 21.1756 88.2206L19.9532 86.6377ZM14.557 88.495C10.6536 88.5274 7.78045 87.2262 5.78183 84.6703L4.20631 85.9022C6.64964 89.0269 10.1573 90.5316 14.5736 90.495L14.557 88.495ZM5.78183 84.6703C3.75407 82.077 2.63835 78.0973 2.59249 72.5697L0.592555 72.5863C0.640145 78.3224 1.79212 82.8148 4.20631 85.9022L5.78183 84.6703ZM2.59249 72.5697L2.42337 52.1864L0.423442 52.203L0.592555 72.5863L2.59249 72.5697ZM1.4317 53.1947L46.2302 52.823L46.2136 50.8231L1.41511 51.1948L1.4317 53.1947ZM45.2219 51.8314L45.3817 71.0947L47.3817 71.0781L47.2218 51.8148L45.2219 51.8314ZM19.5512 61.7327L10.4635 61.8081L10.4801 63.808L19.5678 63.7326L19.5512 61.7327ZM9.4718 62.8163L9.54773 71.968L11.5477 71.9514L11.4717 62.7997L9.4718 62.8163ZM9.54773 71.968C9.56626 74.2008 9.94082 76.0474 10.809 77.365L12.4791 76.2646C11.9212 75.418 11.5649 74.0278 11.5477 71.9514L9.54773 71.968ZM10.8116 77.369C11.7765 78.8182 13.3136 79.465 15.186 79.4495L15.1694 77.4496C13.7993 77.4609 12.9806 77.0179 12.4764 76.2606L10.8116 77.369ZM15.186 79.4495C17.0422 79.4341 18.5515 78.7576 19.4685 77.2857L17.771 76.2281C17.2985 76.9865 16.5131 77.4384 15.1694 77.4496L15.186 79.4495ZM19.4638 77.2932C20.31 75.9614 20.6539 74.1088 20.6354 71.876L18.6354 71.8926C18.6526 73.969 18.3194 75.3649 17.7757 76.2206L19.4638 77.2932ZM20.6354 71.876L20.5594 62.7243L18.5595 62.7409L18.6354 71.8926L20.6354 71.876ZM37.3106 61.5853L28.4789 61.6586L28.4954 63.6585L37.3271 63.5853L37.3106 61.5853ZM27.4872 62.6669L27.5562 70.9866L29.5561 70.97L29.4871 62.6503L27.4872 62.6669ZM27.5562 70.9866C27.5745 73.1849 27.9699 75.009 28.8939 76.3022C29.8638 77.6597 31.3125 78.2917 33.0649 78.2771L33.0483 76.2772C31.8355 76.2873 31.0515 75.8817 30.5212 75.1395C29.9451 74.3332 29.5729 72.9955 29.5561 70.97L27.5562 70.9866ZM33.0649 78.2771C34.8019 78.2627 36.2243 77.6023 37.1584 76.2281C38.0469 74.9209 38.4061 73.093 38.3878 70.8967L36.3879 70.9133C36.4047 72.9408 36.0596 74.2869 35.5043 75.1038C34.9946 75.8536 34.2339 76.2674 33.0483 76.2772L33.0649 78.2771ZM38.3878 70.8967L38.3188 62.577L36.3189 62.5936L36.3879 70.9133L38.3878 70.8967ZM45.7578 107.74L46.6836 107.362L46.6826 107.36L45.7578 107.74ZM45.9157 126.78L44.9847 126.415L44.9837 126.417L45.9157 126.78ZM41.146 134.308L40.433 133.606L40.4258 133.614L41.146 134.308ZM33.8266 139.232L34.2116 140.155L33.8266 139.232ZM15.2673 139.386L14.8977 140.316L15.2673 139.386ZM7.83516 134.584L7.13022 135.293L7.13026 135.293L7.83516 134.584ZM2.9732 127.136L3.89904 126.758L3.89809 126.756L2.9732 127.136ZM2.81524 108.097L1.88416 107.732L1.88326 107.734L2.81524 108.097ZM7.55295 100.569L6.83996 99.8678L6.83273 99.8753L7.55295 100.569ZM14.9046 95.6759L15.2896 96.5988L14.9046 95.6759ZM33.464 95.5219L33.8336 94.5927L33.464 95.5219ZM40.8638 100.293L40.1589 101.002L40.1589 101.002L40.8638 100.293ZM33.8156 126.336L33.1154 125.622L33.1122 125.625L33.8156 126.336ZM33.6667 108.385L34.3583 107.662L34.3549 107.659L33.6667 108.385ZM14.9153 108.54L14.2151 107.826L14.2119 107.829L14.9153 108.54ZM15.0643 126.492L15.7558 125.769L15.7525 125.766L15.0643 126.492ZM44.8319 108.118C45.9781 110.926 46.5695 113.973 46.5969 117.27L48.5968 117.253C48.5675 113.723 47.9328 110.423 46.6836 107.362L44.8319 108.118ZM46.5969 117.27C46.6242 120.566 46.0834 123.611 44.9847 126.415L46.8468 127.145C48.0462 124.084 48.6261 120.783 48.5968 117.253L46.5969 117.27ZM44.9837 126.417C43.8794 129.256 42.3601 131.647 40.4331 133.606L41.859 135.009C43.9938 132.838 45.6543 130.21 46.8477 127.142L44.9837 126.417ZM40.4258 133.614C38.5181 135.594 36.195 137.161 33.4417 138.309L34.2116 140.155C37.1986 138.909 39.7551 137.193 41.8662 135.001L40.4258 133.614ZM33.4417 138.309C30.6983 139.454 27.7387 140.043 24.5532 140.069L24.5698 142.069C27.9975 142.041 31.2146 141.405 34.2116 140.155L33.4417 138.309ZM24.5532 140.069C21.3678 140.096 18.3988 139.556 15.6369 138.457L14.8977 140.316C17.915 141.516 21.1422 142.098 24.5698 142.069L24.5532 140.069ZM15.6369 138.457C12.864 137.354 10.503 135.825 8.54006 133.875L7.13026 135.293C9.29753 137.447 11.8912 139.12 14.8977 140.316L15.6369 138.457ZM8.5401 133.875C6.60072 131.947 5.05117 129.581 3.89904 126.758L2.04736 127.514C3.29066 130.56 4.98242 133.158 7.13022 135.293L8.5401 133.875ZM3.89809 126.756C2.75302 123.971 2.16173 120.935 2.13438 117.639L0.134445 117.655C0.163733 121.185 0.798308 124.476 2.04831 127.516L3.89809 126.756ZM2.13438 117.639C2.10703 114.342 2.64775 111.286 3.74722 108.459L1.88326 107.734C0.684983 110.815 0.105157 114.125 0.134445 117.655L2.13438 117.639ZM3.74631 108.461C4.85159 105.641 6.36266 103.246 8.27316 101.263L6.83273 99.8753C4.72439 102.064 3.07697 104.688 1.88417 107.732L3.74631 108.461ZM8.2659 101.27C10.1967 99.3072 12.5332 97.7485 15.2896 96.5988L14.5196 94.753C11.5356 95.9976 8.97113 97.701 6.84 99.8678L8.2659 101.27ZM15.2896 96.5988C18.0329 95.4545 20.9925 94.8654 24.178 94.8389L24.1614 92.839C20.7338 92.8674 17.5166 93.5029 14.5196 94.753L15.2896 96.5988ZM24.178 94.8389C27.3635 94.8125 30.3324 95.3525 33.0944 96.4511L33.8336 94.5927C30.8163 93.3925 27.589 92.8106 24.1614 92.839L24.178 94.8389ZM33.0944 96.4511C35.8686 97.5546 38.2185 99.0734 40.1589 101.002L41.5687 99.5834C39.422 97.4497 36.8386 95.788 33.8336 94.5927L33.0944 96.4511ZM40.1589 101.002C42.122 102.953 43.6818 105.321 44.8329 108.121L46.6826 107.36C45.4386 104.334 43.7358 101.737 41.5687 99.5834L40.1589 101.002ZM34.5158 127.05C37.1193 124.497 38.3894 121.231 38.3571 117.338L36.3572 117.355C36.3854 120.758 35.2946 123.485 33.1154 125.622L34.5158 127.05ZM38.3571 117.338C38.3248 113.446 37.0007 110.192 34.3583 107.662L32.9751 109.107C35.1927 111.23 36.329 113.951 36.3572 117.355L38.3571 117.338ZM34.3549 107.659C31.7094 105.149 28.3117 103.941 24.2538 103.975L24.2704 105.975C27.8922 105.944 30.7642 107.009 32.9784 109.11L34.3549 107.659ZM24.2538 103.975C20.1959 104.008 16.8186 105.273 14.2151 107.826L15.6155 109.254C17.7946 107.117 20.6485 106.005 24.2704 105.975L24.2538 103.975ZM14.2119 107.829C11.6117 110.403 10.3418 113.678 10.3741 117.57L12.374 117.554C12.3458 114.15 13.4367 111.411 15.6188 109.251L14.2119 107.829ZM10.3741 117.57C10.4064 121.463 11.7306 124.707 14.376 127.217L15.7525 125.766C13.5382 123.665 12.4023 120.957 12.374 117.554L10.3741 117.57ZM14.3727 127.214C17.0179 129.747 20.4169 130.967 24.4774 130.934L24.4609 128.934C20.8417 128.964 17.9707 127.89 15.7558 125.769L14.3727 127.214ZM24.4774 130.934C28.538 130.9 31.9162 129.623 34.5191 127.047L33.1122 125.625C30.9328 127.782 28.0801 128.904 24.4609 128.934L24.4774 130.934ZM6.55677 181.069L5.83548 181.762L5.83774 181.764L6.55677 181.069ZM6.3173 152.206L5.58673 151.523L5.58462 151.526L6.3173 152.206ZM47.0092 146.716L48.0091 146.708L48.0008 145.708L47.0009 145.716L47.0092 146.716ZM47.0981 157.436L47.1064 158.436L48.1064 158.428L48.0981 157.428L47.0981 157.436ZM14.0309 160.078L13.3084 159.387L13.3036 159.392L14.0309 160.078ZM14.1389 173.102L13.4231 173.8L13.428 173.805L14.1389 173.102ZM47.2454 175.195L48.2454 175.187L48.2371 174.187L47.2371 174.195L47.2454 175.195ZM47.3344 185.915L47.3427 186.915L48.3426 186.907L48.3343 185.907L47.3344 185.915ZM20.607 185.137C14.744 185.185 10.3508 183.556 7.27581 180.374L5.83774 181.764C9.39048 185.44 14.3697 187.188 20.6236 187.137L20.607 185.137ZM7.27806 180.376C4.21007 177.182 2.59085 172.658 2.54117 166.67L0.54124 166.686C0.593857 173.029 2.31835 178.099 5.83548 181.762L7.27806 180.376ZM2.54117 166.67C2.49149 160.682 4.03543 156.132 7.04999 152.887L5.58462 151.526C2.12875 155.246 0.488622 160.344 0.54124 166.686L2.54117 166.67ZM7.04788 152.889C10.0467 149.68 14.4107 147.987 20.2984 147.938L20.2818 145.938C14.0099 145.99 9.05866 147.809 5.58673 151.523L7.04788 152.889ZM20.2984 147.938L47.0175 147.716L47.0009 145.716L20.2818 145.938L20.2984 147.938ZM46.0092 146.725L46.0981 157.444L48.0981 157.428L48.0091 146.708L46.0092 146.725ZM47.0898 156.436L20.7867 156.654L20.8033 158.654L47.1064 158.436L47.0898 156.436ZM20.7867 156.654C17.6293 156.68 15.0768 157.539 13.3084 159.387L14.7534 160.77C16.0307 159.435 17.9876 158.677 20.8033 158.654L20.7867 156.654ZM13.3036 159.392C11.5823 161.216 10.7885 163.661 10.8129 166.601L12.8128 166.585C12.7916 164.021 13.4764 162.123 14.7582 160.765L13.3036 159.392ZM10.8129 166.601C10.8374 169.56 11.6704 172.004 13.4231 173.8L14.8547 172.404C13.552 171.068 12.8343 169.172 12.8128 166.585L10.8129 166.601ZM13.428 173.805C15.2268 175.624 17.7932 176.44 20.9506 176.414L20.9341 174.414C18.1183 174.437 16.1491 173.712 14.8498 172.399L13.428 173.805ZM20.9506 176.414L47.2537 176.195L47.2371 174.195L20.9341 174.414L20.9506 176.414ZM46.2455 175.204L46.3344 185.923L48.3343 185.907L48.2454 175.187L46.2455 175.204ZM47.3261 184.915L20.607 185.137L20.6236 187.137L47.3427 186.915L47.3261 184.915ZM37.7604 227.664L36.7604 227.672L36.7687 228.672L37.7687 228.664L37.7604 227.664ZM37.6505 214.416L38.6505 214.408L38.6422 213.408L37.6422 213.416L37.6505 214.416ZM2.7717 214.706L1.77174 214.714L1.78003 215.714L2.78 215.706L2.7717 214.706ZM2.68303 204.018L2.67473 203.018L1.67477 203.026L1.68306 204.026L2.68303 204.018ZM37.5618 203.729L37.5701 204.729L38.5701 204.72L38.5618 203.72L37.5618 203.729ZM37.4517 190.449L37.4434 189.449L36.4434 189.457L36.4517 190.457L37.4517 190.449ZM47.3713 190.367L48.3713 190.358L48.363 189.359L47.363 189.367L47.3713 190.367ZM47.6801 227.582L47.6884 228.581L48.6883 228.573L48.68 227.573L47.6801 227.582ZM38.7604 227.656L38.6505 214.408L36.6505 214.425L36.7604 227.672L38.7604 227.656ZM37.6422 213.416L2.7634 213.706L2.78 215.706L37.6588 215.416L37.6422 213.416ZM3.77167 214.697L3.683 204.01L1.68306 204.026L1.77174 214.714L3.77167 214.697ZM2.69133 205.018L37.5701 204.729L37.5535 202.729L2.67473 203.018L2.69133 205.018ZM38.5618 203.72L38.4516 190.441L36.4517 190.457L36.5619 203.737L38.5618 203.72ZM37.46 191.449L47.3796 191.367L47.363 189.367L37.4434 189.449L37.46 191.449ZM46.3714 190.375L46.6801 227.59L48.68 227.573L48.3713 190.358L46.3714 190.375ZM47.6718 226.582L37.7521 226.664L37.7687 228.664L47.6884 228.581L47.6718 226.582ZM7.37759 280.003L6.65629 280.696L6.65856 280.698L7.37759 280.003ZM7.13812 251.14L6.40755 250.457L6.40544 250.46L7.13812 251.14ZM47.83 245.65L48.8299 245.642L48.8217 244.642L47.8217 244.65L47.83 245.65ZM47.9189 256.37L47.9272 257.37L48.9272 257.362L48.9189 256.362L47.9189 256.37ZM14.8517 259.012L14.1292 258.321L14.1244 258.326L14.8517 259.012ZM14.9598 272.036L14.2439 272.734L14.2488 272.739L14.9598 272.036ZM48.0663 274.129L49.0662 274.121L49.0579 273.121L48.058 273.129L48.0663 274.129ZM48.1552 284.849L48.1635 285.849L49.1635 285.841L49.1552 284.841L48.1552 284.849ZM21.4278 284.071C15.5648 284.119 11.1717 282.49 8.09663 279.308L6.65856 280.698C10.2113 284.374 15.1905 286.123 21.4444 286.071L21.4278 284.071ZM8.09888 279.311C5.03089 276.116 3.41167 271.592 3.36199 265.604L1.36206 265.621C1.41468 271.963 3.13917 277.033 6.6563 280.696L8.09888 279.311ZM3.36199 265.604C3.31231 259.616 4.85625 255.066 7.87081 251.821L6.40544 250.46C2.94957 254.18 1.30944 259.279 1.36206 265.621L3.36199 265.604ZM7.8687 251.823C10.8676 248.614 15.2315 246.921 21.1192 246.872L21.1026 244.872C14.8307 244.924 9.87948 246.743 6.40755 250.457L7.8687 251.823ZM21.1192 246.872L47.8383 246.65L47.8217 244.65L21.1026 244.872L21.1192 246.872ZM46.83 245.659L46.919 256.378L48.9189 256.362L48.8299 245.642L46.83 245.659ZM47.9106 255.37L21.6075 255.588L21.6241 257.588L47.9272 257.37L47.9106 255.37ZM21.6075 255.588C18.4501 255.614 15.8976 256.473 14.1292 258.321L15.5742 259.704C16.8515 258.369 18.8084 257.612 21.6241 257.588L21.6075 255.588ZM14.1244 258.326C12.4031 260.15 11.6093 262.595 11.6337 265.535L13.6336 265.519C13.6124 262.955 14.2973 261.057 15.579 259.699L14.1244 258.326ZM11.6337 265.535C11.6583 268.494 12.4913 270.938 14.2439 272.734L15.6756 271.338C14.3728 270.002 13.6551 268.106 13.6336 265.519L11.6337 265.535ZM14.2488 272.739C16.0477 274.558 18.614 275.374 21.7715 275.348L21.7549 273.348C18.9392 273.371 16.9699 272.646 15.6707 271.333L14.2488 272.739ZM21.7715 275.348L48.0746 275.129L48.058 273.129L21.7549 273.348L21.7715 275.348ZM47.0663 274.138L47.1552 284.857L49.1552 284.841L49.0662 274.121L47.0663 274.138ZM48.1469 283.849L21.4278 284.071L21.4444 286.071L48.1635 285.849L48.1469 283.849ZM35.7769 324.157L34.9093 323.66L34.3966 324.554L35.3065 325.04L35.7769 324.157ZM38.3479 306.183L39.2234 305.7L39.22 305.694L38.3479 306.183ZM34.1425 304.586L33.6673 303.706L34.1425 304.586ZM33.159 305.618L32.3005 305.105L32.2876 305.127L32.2758 305.149L33.159 305.618ZM32.4662 306.968L31.5681 306.528L31.5537 306.557L31.5413 306.588L32.4662 306.968ZM31.9066 308.957L30.9308 308.738L30.9279 308.751L30.9253 308.764L31.9066 308.957ZM31.0806 313.54L30.0953 313.369L30.0938 313.378L31.0806 313.54ZM30.776 315.398L31.7626 315.562L31.7629 315.56L30.776 315.398ZM26.479 325.898L25.719 325.248L25.7162 325.252L26.479 325.898ZM12.3255 328.672L12.6992 327.744L12.6933 327.742L12.3255 328.672ZM8.04658 325.923L8.75431 325.217L8.04658 325.923ZM5.09991 321.756L5.99536 321.31L5.99301 321.306L5.09991 321.756ZM3.32948 316.65L4.30841 316.446L4.30794 316.444L3.32948 316.65ZM4.1202 300.099L3.15599 299.834L3.15557 299.835L4.1202 300.099ZM8.27104 291.264L8.78718 290.408L8.01225 289.941L7.47029 290.665L8.27104 291.264ZM17.0191 296.536L17.8516 297.09L18.431 296.219L17.5352 295.679L17.0191 296.536ZM13.5337 316.149L12.6548 316.627L12.6609 316.637L13.5337 316.149ZM18.0588 317.712L17.5178 316.871L17.5178 316.871L18.0588 317.712ZM19.0743 316.679L18.2313 316.141L19.0743 316.679ZM19.8268 314.817L18.866 314.54L18.864 314.547L19.8268 314.817ZM20.3829 312.412L19.4027 312.215L19.4002 312.227L19.398 312.239L20.3829 312.412ZM20.9323 309.208L21.9209 309.359L21.9215 309.355L20.9323 309.208ZM21.2658 306.965L20.2768 306.817L20.2766 306.818L21.2658 306.965ZM25.5935 296.305L24.8581 295.627L24.8548 295.631L25.5935 296.305ZM34.8127 292.804L34.7994 293.804L34.8012 293.804L34.8127 292.804ZM45.1909 297.838L44.4058 298.458L44.4058 298.458L45.1909 297.838ZM48.2209 319.766L47.2479 319.535L47.2475 319.536L48.2209 319.766ZM44.5841 328.852L44.1137 329.735L44.9902 330.202L45.4634 329.329L44.5841 328.852ZM36.6445 324.654C39.1985 320.198 40.4832 315.737 40.4463 311.286L38.4463 311.303C38.4798 315.341 37.3182 319.456 34.9093 323.66L36.6445 324.654ZM40.4463 311.286C40.4279 309.074 40.0454 307.19 39.2234 305.7L37.4723 306.666C38.0798 307.767 38.4296 309.29 38.4463 311.303L40.4463 311.286ZM39.22 305.694C38.3576 304.156 37.0508 303.274 35.3477 303.288L35.3643 305.288C36.2212 305.281 36.909 305.662 37.4757 306.672L39.22 305.694ZM35.3477 303.288C34.7519 303.293 34.1847 303.427 33.6673 303.706L34.6177 305.466C34.8223 305.355 35.0641 305.29 35.3643 305.288L35.3477 303.288ZM33.6673 303.706C33.0966 304.014 32.6523 304.516 32.3005 305.105L34.0175 306.131C34.2549 305.734 34.4662 305.548 34.6177 305.466L33.6673 303.706ZM32.2758 305.149C31.9992 305.67 31.763 306.13 31.5681 306.528L33.3643 307.408C33.5469 307.035 33.7726 306.595 34.0422 306.087L32.2758 305.149ZM31.5413 306.588C31.3396 307.078 31.1382 307.812 30.9308 308.738L32.8825 309.175C33.0865 308.264 33.2582 307.671 33.391 307.348L31.5413 306.588ZM30.9253 308.764C30.7408 309.706 30.6062 310.42 30.5229 310.901L32.4935 311.243C32.573 310.784 32.7041 310.088 32.888 309.149L30.9253 308.764ZM30.5229 310.901C30.4414 311.371 30.2989 312.194 30.0953 313.369L32.066 313.71C32.2695 312.535 32.4121 311.713 32.4935 311.243L30.5229 310.901ZM30.0938 313.378L29.7892 315.237L31.7629 315.56L32.0675 313.701L30.0938 313.378ZM29.7895 315.235C29.0559 319.654 27.6745 322.962 25.719 325.248L27.239 326.548C29.5094 323.893 30.9926 320.2 31.7625 315.562L29.7895 315.235ZM25.7162 325.252C23.8087 327.502 21.2677 328.654 17.9898 328.681L18.0064 330.681C21.8109 330.649 24.9238 329.279 27.2418 326.545L25.7162 325.252ZM17.9898 328.681C16.0356 328.697 14.2764 328.38 12.6992 327.744L11.9519 329.599C13.7995 330.344 15.8221 330.699 18.0064 330.681L17.9898 328.681ZM12.6933 327.742C11.1162 327.118 9.80939 326.274 8.75431 325.217L7.33885 326.63C8.60717 327.9 10.153 328.888 11.9578 329.602L12.6933 327.742ZM8.75431 325.217C7.67589 324.136 6.75467 322.838 5.99535 321.31L4.20446 322.201C5.05065 323.903 6.09389 325.383 7.33885 326.63L8.75431 325.217ZM5.99301 321.306C5.23101 319.793 4.66897 318.174 4.30841 316.446L2.35057 316.854C2.7454 318.747 3.36363 320.531 4.2068 322.205L5.99301 321.306ZM4.30794 316.444C3.94514 314.724 3.75451 312.915 3.73874 311.014L1.73881 311.031C1.75561 313.055 1.9588 314.998 2.35104 316.857L4.30794 316.444ZM3.73874 311.014C3.70796 307.304 4.15779 303.755 5.08483 300.363L3.15557 299.835C2.17771 303.414 1.70659 307.147 1.73881 311.031L3.73874 311.014ZM5.08441 300.364C6.00992 296.999 7.34458 294.172 9.0718 291.863L7.47029 290.665C5.5683 293.208 4.13573 296.271 3.156 299.834L5.08441 300.364ZM7.75491 292.121L16.5029 297.392L17.5352 295.679L8.78718 290.408L7.75491 292.121ZM16.1865 295.982C12.9916 300.783 11.3918 305.811 11.4353 311.047L13.4352 311.03C13.3955 306.239 14.8516 301.598 17.8516 297.09L16.1865 295.982ZM11.4353 311.047C11.4535 313.24 11.837 315.12 12.6549 316.627L14.4125 315.672C13.8005 314.545 13.4517 313.018 13.4352 311.03L11.4353 311.047ZM12.6609 316.637C13.5488 318.225 14.9019 319.122 16.6623 319.107L16.6457 317.108C15.7183 317.115 14.9911 316.707 14.4065 315.661L12.6609 316.637ZM16.6623 319.107C17.3627 319.102 18.0201 318.926 18.5998 318.553L17.5178 316.871C17.2911 317.017 17.012 317.105 16.6457 317.108L16.6623 319.107ZM18.5998 318.553C19.1317 318.211 19.5707 317.76 19.9172 317.217L18.2313 316.141C18.0303 316.456 17.7923 316.694 17.5178 316.871L18.5998 318.553ZM19.9172 317.217C20.2673 316.669 20.5502 315.941 20.7897 315.087L18.864 314.547C18.6476 315.318 18.4289 315.832 18.2313 316.141L19.9172 317.217ZM20.7877 315.094C21.0257 314.269 21.2191 313.432 21.3678 312.585L19.398 312.239C19.2615 313.016 19.0842 313.783 18.866 314.54L20.7877 315.094ZM21.3631 312.61C21.5315 311.776 21.7174 310.691 21.9209 309.359L19.9438 309.057C19.7426 310.374 19.5622 311.424 19.4027 312.215L21.3631 312.61ZM21.9215 309.355L22.2549 307.112L20.2766 306.818L19.9432 309.061L21.9215 309.355ZM22.2547 307.113C22.9461 302.5 24.338 299.164 26.3321 296.979L24.8548 295.631C22.4937 298.218 21.0005 301.988 20.2768 306.817L22.2547 307.113ZM26.3289 296.982C28.2943 294.849 31.0695 293.754 34.7994 293.804L34.8261 291.804C30.6615 291.749 27.2905 292.987 24.8581 295.627L26.3289 296.982ZM34.8012 293.804C38.8172 293.85 41.9891 295.395 44.4058 298.458L45.9759 297.219C43.1749 293.669 39.428 291.857 34.8242 291.804L34.8012 293.804ZM44.4058 298.458C46.8452 301.549 48.1275 305.615 48.17 310.742L50.1699 310.725C50.1247 305.271 48.7542 300.74 45.9759 297.219L44.4058 298.458ZM48.17 310.742C48.1963 313.914 47.8866 316.844 47.2479 319.535L49.1938 319.997C49.8744 317.13 50.1974 314.038 50.1699 310.725L48.17 310.742ZM47.2475 319.536C46.6132 322.23 45.4392 325.175 43.7049 328.376L45.4634 329.329C47.2592 326.014 48.5096 322.902 49.1943 319.995L47.2475 319.536ZM45.0546 327.97L36.2473 323.275L35.3065 325.04L44.1137 329.735L45.0546 327.97Z" fill="#05C2DF" fill-opacity="0.2"/>
</svg>
