<svg width="50" height="331" viewBox="0 0 50 331" fill="none" xmlns="http://www.w3.org/2000/svg">
  <path d="M1.37991 48.0669L0.379945 48.0752L0.392013 49.5298L1.74578 48.9976L1.37991 48.0669ZM1.2854 36.6753L0.938433 35.7374L0.279605 35.9812L0.285433 36.6836L1.2854 36.6753ZM10.6649 33.2054L11.0119 34.1432L11.6707 33.8995L11.6649 33.1971L10.6649 33.2054ZM10.5173 15.414L11.5173 15.4057L11.5115 14.7032L10.8487 14.4705L10.5173 15.414ZM1.08151 12.1001L0.0815421 12.1084L0.08737 12.8109L0.750152 13.0436L1.08151 12.1001ZM0.988854 0.932522L1.33923 -0.00408875L-0.0231795 -0.513743L-0.0111115 0.940818L0.988854 0.932522ZM45.9299 17.7443L46.9298 17.736L46.9241 17.0485L46.2803 16.8076L45.9299 17.7443ZM46.0358 30.5118L46.4017 31.4425L47.0415 31.191L47.0358 30.5035L46.0358 30.5118ZM20.2097 18.7897L20.5407 17.8461L19.1979 17.375L19.2097 18.798L20.2097 18.7897ZM20.2999 29.6693L19.3 29.6776L19.3118 31.1006L20.6466 30.6073L20.2999 29.6693ZM35.3583 24.1042L35.7049 25.0422L38.3092 24.0797L35.6893 23.1606L35.3583 24.1042ZM2.37988 48.0586L2.28536 36.667L0.285433 36.6836L0.379945 48.0752L2.37988 48.0586ZM1.63236 37.6132L11.0119 34.1432L10.318 32.2675L0.938433 35.7374L1.63236 37.6132ZM11.6649 33.1971L11.5173 15.4057L9.51736 15.4223L9.66497 33.2137L11.6649 33.1971ZM10.8487 14.4705L1.41286 11.1566L0.750152 13.0436L10.186 16.3575L10.8487 14.4705ZM2.08147 12.0918L1.98882 0.924226L-0.0111115 0.940818L0.0815421 12.1084L2.08147 12.0918ZM0.638481 1.86913L45.5795 18.6809L46.2803 16.8076L1.33923 -0.00408875L0.638481 1.86913ZM44.9299 17.7526L45.0358 30.5201L47.0358 30.5035L46.9298 17.736L44.9299 17.7526ZM45.6699 29.5811L1.01405 47.1362L1.74578 48.9976L46.4017 31.4425L45.6699 29.5811ZM19.2097 18.798L19.3 29.6776L21.2999 29.661L21.2096 18.7814L19.2097 18.798ZM20.6466 30.6073L35.7049 25.0422L35.0116 23.1662L19.9533 28.7313L20.6466 30.6073ZM35.6893 23.1606L20.5407 17.8461L19.8786 19.7333L35.0272 25.0478L35.6893 23.1606ZM43.2497 84.2678L42.4419 83.6782L42.4392 83.6821L43.2497 84.2678ZM28.1042 87.0495L27.5441 87.878L27.5491 87.8813L28.1042 87.0495ZM24.3232 82.6007L25.2283 82.1755L24.1945 79.9754L23.3809 82.266L24.3232 82.6007ZM20.5575 87.7202L19.9509 86.9252L19.9464 86.9287L20.5575 87.7202ZM4.98724 85.5773L4.19947 86.1932L4.98724 85.5773ZM1.41657 52.4857L1.40828 51.4858L0.40831 51.4941L0.416607 52.494L1.41657 52.4857ZM46.215 52.1141L47.215 52.1058L47.2067 51.1058L46.2067 51.1141L46.215 52.1141ZM19.5526 63.0236L20.5526 63.0154L20.5443 62.0154L19.5443 62.0237L19.5526 63.0236ZM10.4649 63.099L10.4566 62.0991L9.45667 62.1074L9.46497 63.1073L10.4649 63.099ZM11.6372 77.1058L10.8021 77.656L10.8048 77.66L11.6372 77.1058ZM18.6129 77.0479L17.7689 76.5116L17.7642 76.5191L18.6129 77.0479ZM37.312 62.8763L38.312 62.868L38.3037 61.868L37.3037 61.8763L37.312 62.8763ZM28.4803 62.9496L28.472 61.9496L27.4721 61.9579L27.4804 62.9579L28.4803 62.9496ZM45.3749 71.3857C45.4211 76.9596 44.392 81.0064 42.4419 83.6782L44.0574 84.8573C46.3684 81.6909 47.4227 77.1442 47.3748 71.3691L45.3749 71.3857ZM42.4392 83.6821C40.547 86.3007 37.7359 87.6656 33.8378 87.698L33.8544 89.6979C38.276 89.6612 41.734 88.0727 44.0602 84.8535L42.4392 83.6821ZM33.8378 87.698C31.8687 87.7143 30.154 87.2153 28.6594 86.2178L27.5491 87.8813C29.4012 89.1174 31.5144 89.7173 33.8544 89.6979L33.8378 87.698ZM28.6644 86.2211C27.1653 85.2075 26.0224 83.8655 25.2283 82.1755L23.4181 83.026C24.3615 85.0337 25.7392 86.6575 27.5441 87.8779L28.6644 86.2211ZM23.3809 82.266C22.718 84.1322 21.5821 85.6805 19.9509 86.9252L21.1642 88.5152C23.0946 87.0421 24.4691 85.1776 25.2655 82.9355L23.3809 82.266ZM19.9464 86.9287C18.3612 88.1528 16.5736 88.7693 14.5502 88.786L14.5668 90.786C17.0232 90.7656 19.235 90.0048 21.1687 88.5117L19.9464 86.9287ZM14.5502 88.786C10.6468 88.8184 7.77361 87.5173 5.77499 84.9613L4.19947 86.1932C6.6428 89.3179 10.1504 90.8226 14.5668 90.786L14.5502 88.786ZM5.77499 84.9613C3.74723 82.368 2.63151 78.3883 2.58565 72.8607L0.585719 72.8773C0.633309 78.6134 1.78528 83.1058 4.19947 86.1932L5.77499 84.9613ZM2.58565 72.8607L2.41654 52.4775L0.416607 52.494L0.585719 72.8773L2.58565 72.8607ZM1.42487 53.4857L46.2233 53.114L46.2067 51.1141L1.40828 51.4858L1.42487 53.4857ZM45.2151 52.1224L45.3749 71.3857L47.3748 71.3691L47.215 52.1058L45.2151 52.1224ZM19.5443 62.0237L10.4566 62.0991L10.4732 64.099L19.5609 64.0236L19.5443 62.0237ZM9.46497 63.1073L9.5409 72.259L11.5408 72.2424L11.4649 63.0907L9.46497 63.1073ZM9.5409 72.259C9.55942 74.4918 9.93399 76.3384 10.8021 77.656L12.4722 76.5556C11.9144 75.709 11.5581 74.3188 11.5408 72.2424L9.5409 72.259ZM10.8048 77.66C11.7696 79.1092 13.3067 79.756 15.1792 79.7405L15.1626 77.7406C13.7924 77.7519 12.9738 77.3089 12.4696 76.5516L10.8048 77.66ZM15.1792 79.7405C17.0354 79.7251 18.5446 79.0486 19.4617 77.5767L17.7642 76.5191C17.2917 77.2775 16.5062 77.7294 15.1626 77.7406L15.1792 79.7405ZM19.457 77.5842C20.3032 76.2524 20.647 74.3998 20.6285 72.167L18.6286 72.1836C18.6458 74.26 18.3126 75.6559 17.7689 76.5117L19.457 77.5842ZM20.6285 72.167L20.5526 63.0154L18.5527 63.0319L18.6286 72.1836L20.6285 72.167ZM37.3037 61.8763L28.472 61.9496L28.4886 63.9495L37.3203 63.8763L37.3037 61.8763ZM27.4804 62.9579L27.5494 71.2776L29.5493 71.261L29.4803 62.9413L27.4804 62.9579ZM27.5494 71.2776C27.5676 73.4759 27.9631 75.3 28.8871 76.5932C29.857 77.9507 31.3057 78.5827 33.0581 78.5681L33.0415 76.5682C31.8286 76.5783 31.0446 76.1727 30.5144 75.4306C29.9383 74.6242 29.5661 73.2865 29.5493 71.261L27.5494 71.2776ZM33.0581 78.5681C34.795 78.5537 36.2174 77.8933 37.1515 76.5191C38.04 75.2119 38.3992 73.3841 38.381 71.1877L36.3811 71.2043C36.3979 73.2318 36.0527 74.5779 35.4975 75.3948C34.9878 76.1446 34.2271 76.5584 33.0415 76.5682L33.0581 78.5681ZM38.381 71.1877L38.312 62.868L36.312 62.8846L36.3811 71.2043L38.381 71.1877ZM45.7509 108.031L46.6768 107.653L46.6758 107.651L45.7509 108.031ZM45.9089 127.071L44.9778 126.706L44.9769 126.708L45.9089 127.071ZM41.1392 134.599L40.4262 133.897L40.419 133.905L41.1392 134.599ZM33.8198 139.523L34.2048 140.446L33.8198 139.523ZM15.2604 139.677L14.8908 140.607L15.2604 139.677ZM7.82832 134.875L7.12338 135.584L7.12342 135.584L7.82832 134.875ZM2.96637 127.427L3.8922 127.049L3.89125 127.047L2.96637 127.427ZM2.8084 108.388L1.87733 108.023L1.87642 108.025L2.8084 108.388ZM7.54611 100.86L6.83313 100.159L6.8259 100.166L7.54611 100.86ZM14.8978 95.9669L15.2827 96.8898L14.8978 95.9669ZM33.4571 95.8129L33.8267 94.8837L33.4571 95.8129ZM40.857 100.584L40.152 101.293L40.1521 101.293L40.857 100.584ZM33.8088 126.627L33.1086 125.913L33.1053 125.916L33.8088 126.627ZM33.6599 108.676L34.3514 107.953L34.3481 107.95L33.6599 108.676ZM14.9085 108.831L14.2083 108.117L14.205 108.121L14.9085 108.831ZM15.0574 126.783L15.749 126.06L15.7457 126.057L15.0574 126.783ZM44.8251 108.409C45.9713 111.217 46.5627 114.264 46.59 117.561L48.5899 117.544C48.5607 114.014 47.926 110.714 46.6768 107.653L44.8251 108.409ZM46.59 117.561C46.6174 120.857 46.0765 123.902 44.9778 126.706L46.84 127.436C48.0393 124.375 48.6192 121.074 48.5899 117.544L46.59 117.561ZM44.9769 126.708C43.8726 129.547 42.3533 131.938 40.4262 133.897L41.8521 135.3C43.987 133.129 45.6474 130.501 46.8409 127.433L44.9769 126.708ZM40.419 133.905C38.5113 135.885 36.1882 137.452 33.4348 138.6L34.2048 140.446C37.1917 139.2 39.7482 137.484 41.8594 135.292L40.419 133.905ZM33.4348 138.6C30.6915 139.745 27.7319 140.334 24.5464 140.36L24.563 142.36C27.9906 142.332 31.2078 141.696 34.2048 140.446L33.4348 138.6ZM24.5464 140.36C21.3609 140.387 18.392 139.847 15.63 138.748L14.8908 140.607C17.9081 141.807 21.1354 142.389 24.563 142.36L24.5464 140.36ZM15.63 138.748C12.8572 137.645 10.4961 136.116 8.53322 134.166L7.12342 135.584C9.29069 137.738 11.8844 139.411 14.8908 140.607L15.63 138.748ZM8.53326 134.166C6.59388 132.238 5.04433 129.872 3.8922 127.049L2.04053 127.805C3.28383 130.851 4.97559 133.449 7.12338 135.584L8.53326 134.166ZM3.89125 127.047C2.74618 124.262 2.15489 121.226 2.12754 117.93L0.127609 117.946C0.156897 121.476 0.791472 124.767 2.04148 127.807L3.89125 127.047ZM2.12754 117.93C2.10019 114.633 2.64092 111.577 3.74038 108.75L1.87642 108.025C0.678147 111.106 0.0983209 114.416 0.127609 117.946L2.12754 117.93ZM3.73947 108.752C4.84476 105.932 6.35582 103.537 8.26633 101.554L6.8259 100.166C4.71755 102.355 3.07013 104.979 1.87733 108.023L3.73947 108.752ZM8.25906 101.561C10.1898 99.5982 12.5264 98.0395 15.2827 96.8898L14.5128 95.044C11.5288 96.2886 8.96429 97.9921 6.83316 100.159L8.25906 101.561ZM15.2827 96.8898C18.0261 95.7455 20.9857 95.1564 24.1711 95.1299L24.1546 93.13C20.7269 93.1584 17.5098 93.7939 14.5128 95.044L15.2827 96.8898ZM24.1711 95.1299C27.3566 95.1035 30.3256 95.6435 33.0875 96.7421L33.8267 94.8837C30.8094 93.6835 27.5822 93.1016 24.1546 93.13L24.1711 95.1299ZM33.0875 96.7421C35.8617 97.8456 38.2116 99.3644 40.152 101.293L41.5619 99.8744C39.4151 97.7408 36.8318 96.079 33.8267 94.8837L33.0875 96.7421ZM40.1521 101.293C42.1151 103.244 43.675 105.612 44.826 108.412L46.6758 107.651C45.4318 104.625 43.729 102.028 41.5619 99.8744L40.1521 101.293ZM34.509 127.341C37.1124 124.788 38.3826 121.522 38.3503 117.629L36.3504 117.646C36.3786 121.049 35.2877 123.776 33.1086 125.913L34.509 127.341ZM38.3503 117.629C38.318 113.737 36.9939 110.483 34.3514 107.953L32.9683 109.398C35.1859 111.521 36.3221 114.242 36.3504 117.646L38.3503 117.629ZM34.3481 107.95C31.7026 105.44 28.3048 104.232 24.2469 104.266L24.2635 106.266C27.8854 106.236 30.7573 107.3 32.9716 109.401L34.3481 107.95ZM24.2469 104.266C20.1891 104.299 16.8118 105.564 14.2083 108.117L15.6087 109.545C17.7878 107.408 20.6417 106.296 24.2635 106.266L24.2469 104.266ZM14.205 108.121C11.6049 110.694 10.335 113.969 10.3673 117.861L12.3672 117.845C12.339 114.441 13.4299 111.702 15.612 109.542L14.205 108.121ZM10.3673 117.861C10.3996 121.754 11.7237 124.998 14.3692 127.508L15.7457 126.057C13.5314 123.956 12.3954 121.248 12.3672 117.845L10.3673 117.861ZM14.3659 127.505C17.0111 130.038 20.4101 131.258 24.4706 131.225L24.454 129.225C20.8348 129.255 17.9639 128.181 15.749 126.06L14.3659 127.505ZM24.4706 131.225C28.5311 131.191 31.9094 129.914 34.5122 127.338L33.1053 125.916C30.9259 128.073 28.0732 129.195 24.454 129.225L24.4706 131.225ZM6.54993 181.36L5.82864 182.053L5.8309 182.055L6.54993 181.36ZM6.31047 152.497L5.57989 151.814L5.57778 151.817L6.31047 152.497ZM47.0023 147.007L48.0023 146.999L47.994 145.999L46.994 146.007L47.0023 147.007ZM47.0913 157.727L47.0996 158.727L48.0995 158.719L48.0912 157.719L47.0913 157.727ZM14.024 160.369L13.3015 159.678L13.2967 159.683L14.024 160.369ZM14.1321 173.393L13.4163 174.091L13.4212 174.096L14.1321 173.393ZM47.2386 175.486L48.2386 175.478L48.2303 174.478L47.2303 174.486L47.2386 175.486ZM47.3275 186.206L47.3358 187.206L48.3358 187.198L48.3275 186.198L47.3275 186.206ZM20.6002 185.428C14.7372 185.476 10.344 183.847 7.26897 180.665L5.8309 182.055C9.38365 185.731 14.3628 187.479 20.6168 187.428L20.6002 185.428ZM7.27123 180.667C4.20324 177.473 2.58402 172.949 2.53434 166.961L0.534404 166.978C0.587022 173.32 2.31151 178.39 5.82864 182.053L7.27123 180.667ZM2.53434 166.961C2.48465 160.973 4.0286 156.423 7.04315 153.178L5.57778 151.817C2.12191 155.537 0.481786 160.635 0.534404 166.978L2.53434 166.961ZM7.04105 153.18C10.0399 149.971 14.4039 148.278 20.2915 148.229L20.2749 146.229C14.003 146.281 9.05182 148.1 5.57989 151.814L7.04105 153.18ZM20.2915 148.229L47.0106 148.007L46.994 146.007L20.2749 146.229L20.2915 148.229ZM46.0024 147.016L46.0913 157.735L48.0912 157.719L48.0023 146.999L46.0024 147.016ZM47.083 156.727L20.7799 156.945L20.7965 158.945L47.0996 158.727L47.083 156.727ZM20.7799 156.945C17.6225 156.971 15.07 157.83 13.3016 159.678L14.7465 161.061C16.0238 159.726 17.9808 158.968 20.7965 158.945L20.7799 156.945ZM13.2967 159.683C11.5754 161.507 10.7817 163.952 10.8061 166.892L12.806 166.876C12.7847 164.312 13.4696 162.414 14.7513 161.056L13.2967 159.683ZM10.8061 166.892C10.8306 169.851 11.6636 172.295 13.4163 174.091L14.8479 172.695C13.5452 171.359 12.8275 169.463 12.806 166.876L10.8061 166.892ZM13.4212 174.096C15.22 175.915 17.7864 176.731 20.9438 176.705L20.9272 174.705C18.1115 174.728 16.1423 174.003 14.843 172.69L13.4212 174.096ZM20.9438 176.705L47.2469 176.486L47.2303 174.486L20.9272 174.705L20.9438 176.705ZM46.2386 175.495L46.3276 186.214L48.3275 186.198L48.2386 175.478L46.2386 175.495ZM47.3192 185.206L20.6002 185.428L20.6168 187.428L47.3358 187.206L47.3192 185.206ZM37.7536 227.955L36.7536 227.963L36.7619 228.963L37.7619 228.955L37.7536 227.955ZM37.6437 214.707L38.6436 214.699L38.6353 213.699L37.6354 213.707L37.6437 214.707ZM2.76487 214.997L1.7649 215.005L1.7732 216.005L2.77316 215.997L2.76487 214.997ZM2.67619 204.309L2.6679 203.309L1.66793 203.317L1.67623 204.317L2.67619 204.309ZM37.555 204.02L37.5633 205.02L38.5633 205.011L38.555 204.011L37.555 204.02ZM37.4448 190.74L37.4365 189.74L36.4366 189.748L36.4449 190.748L37.4448 190.74ZM47.3645 190.658L48.3644 190.65L48.3561 189.65L47.3562 189.658L47.3645 190.658ZM47.6732 227.873L47.6815 228.872L48.6815 228.864L48.6732 227.864L47.6732 227.873ZM38.7535 227.947L38.6436 214.699L36.6437 214.716L36.7536 227.963L38.7535 227.947ZM37.6354 213.707L2.75657 213.997L2.77316 215.997L37.652 215.707L37.6354 213.707ZM3.76483 214.988L3.67616 204.301L1.67623 204.317L1.7649 215.005L3.76483 214.988ZM2.68449 205.309L37.5633 205.02L37.5467 203.02L2.6679 203.309L2.68449 205.309ZM38.555 204.011L38.4448 190.732L36.4449 190.748L36.555 204.028L38.555 204.011ZM37.4531 191.74L47.3728 191.658L47.3562 189.658L37.4365 189.74L37.4531 191.74ZM46.3645 190.666L46.6733 227.881L48.6732 227.864L48.3644 190.65L46.3645 190.666ZM47.6649 226.873L37.7453 226.955L37.7619 228.955L47.6815 228.872L47.6649 226.873ZM7.37075 280.294L6.64946 280.987L6.65172 280.989L7.37075 280.294ZM7.13129 251.431L6.40071 250.748L6.3986 250.751L7.13129 251.431ZM47.8231 245.941L48.8231 245.933L48.8148 244.933L47.8149 244.941L47.8231 245.941ZM47.9121 256.661L47.9204 257.661L48.9203 257.653L48.9121 256.653L47.9121 256.661ZM14.8449 259.303L14.1224 258.612L14.1176 258.617L14.8449 259.303ZM14.9529 272.327L14.2371 273.025L14.242 273.03L14.9529 272.327ZM48.0594 274.42L49.0594 274.412L49.0511 273.412L48.0511 273.42L48.0594 274.42ZM48.1484 285.14L48.1567 286.14L49.1566 286.132L49.1483 285.132L48.1484 285.14ZM21.421 284.362C15.558 284.41 11.1648 282.781 8.08979 279.599L6.65172 280.989C10.2045 284.665 15.1836 286.414 21.4376 286.362L21.421 284.362ZM8.09204 279.602C5.02405 276.407 3.40484 271.883 3.35515 265.895L1.35522 265.912C1.40784 272.254 3.13233 277.324 6.64946 280.987L8.09204 279.602ZM3.35515 265.895C3.30547 259.907 4.84942 255.357 7.86397 252.112L6.3986 250.751C2.94273 254.471 1.30261 259.57 1.35522 265.912L3.35515 265.895ZM7.86187 252.114C10.8607 248.905 15.2247 247.212 21.1124 247.163L21.0958 245.163C14.8238 245.215 9.87264 247.034 6.40071 250.748L7.86187 252.114ZM21.1124 247.163L47.8314 246.941L47.8149 244.941L21.0958 245.163L21.1124 247.163ZM46.8232 245.95L46.9121 256.669L48.9121 256.653L48.8231 245.933L46.8232 245.95ZM47.9038 255.661L21.6007 255.879L21.6173 257.879L47.9204 257.661L47.9038 255.661ZM21.6007 255.879C18.4433 255.905 15.8908 256.764 14.1224 258.612L15.5674 259.995C16.8446 258.66 18.8016 257.903 21.6173 257.879L21.6007 255.879ZM14.1176 258.617C12.3963 260.441 11.6025 262.886 11.6269 265.826L13.6268 265.81C13.6055 263.246 14.2904 261.348 15.5722 259.99L14.1176 258.617ZM11.6269 265.826C11.6514 268.786 12.4844 271.229 14.2371 273.025L15.6687 271.629C14.366 270.293 13.6483 268.397 13.6268 265.81L11.6269 265.826ZM14.242 273.03C16.0408 274.849 18.6072 275.665 21.7646 275.639L21.748 273.639C18.9323 273.662 16.9631 272.937 15.6638 271.624L14.242 273.03ZM21.7646 275.639L48.0677 275.42L48.0511 273.42L21.748 273.639L21.7646 275.639ZM47.0595 274.429L47.1484 285.148L49.1483 285.132L49.0594 274.412L47.0595 274.429ZM48.1401 284.14L21.421 284.362L21.4376 286.362L48.1567 286.14L48.1401 284.14ZM35.77 324.448L34.9024 323.951L34.3897 324.845L35.2996 325.331L35.77 324.448ZM38.341 306.474L39.2166 305.991L39.2132 305.985L38.341 306.474ZM34.1356 304.877L33.6604 303.997L34.1356 304.877ZM33.1522 305.909L32.2937 305.396L32.2808 305.418L32.2689 305.44L33.1522 305.909ZM32.4593 307.259L31.5612 306.819L31.5469 306.848L31.5345 306.879L32.4593 307.259ZM31.8998 309.248L30.924 309.029L30.921 309.042L30.9185 309.055L31.8998 309.248ZM31.0738 313.831L30.0884 313.66L30.087 313.669L31.0738 313.831ZM30.7692 315.689L31.7557 315.853L31.756 315.851L30.7692 315.689ZM26.4722 326.189L25.7121 325.539L25.7094 325.543L26.4722 326.189ZM12.3187 328.963L12.6924 328.035L12.6864 328.033L12.3187 328.963ZM8.03975 326.214L8.74747 325.508L8.03975 326.214ZM5.09307 322.047L5.98853 321.601L5.98617 321.597L5.09307 322.047ZM3.32265 316.941L4.30157 316.737L4.3011 316.735L3.32265 316.941ZM4.11336 300.39L3.14915 300.125L3.14873 300.126L4.11336 300.39ZM8.26421 291.555L8.78034 290.699L8.00541 290.232L7.46346 290.956L8.26421 291.555ZM17.0122 296.827L17.8448 297.381L18.4241 296.51L17.5284 295.97L17.0122 296.827ZM13.5268 316.44L12.648 316.918L12.6541 316.928L13.5268 316.44ZM18.052 318.003L17.511 317.162L17.511 317.162L18.052 318.003ZM19.0674 316.97L18.2245 316.432L19.0674 316.97ZM19.82 315.108L18.8591 314.831L18.8572 314.838L19.82 315.108ZM20.3761 312.703L19.3959 312.506L19.3934 312.518L19.3912 312.53L20.3761 312.703ZM20.9255 309.499L21.914 309.65L21.9146 309.646L20.9255 309.499ZM21.2589 307.256L20.27 307.108L20.2698 307.109L21.2589 307.256ZM25.5866 296.596L24.8512 295.918L24.848 295.922L25.5866 296.596ZM34.8059 293.095L34.7926 294.095L34.7944 294.095L34.8059 293.095ZM45.184 298.129L44.399 298.749L44.399 298.749L45.184 298.129ZM48.214 320.057L47.2411 319.826L47.2407 319.827L48.214 320.057ZM44.5773 329.143L44.1069 330.026L44.9833 330.493L45.4565 329.62L44.5773 329.143ZM36.6377 324.945C39.1917 320.489 40.4764 316.028 40.4394 311.577L38.4395 311.594C38.473 315.633 37.3114 319.747 34.9024 323.951L36.6377 324.945ZM40.4394 311.577C40.4211 309.365 40.0386 307.481 39.2166 305.991L37.4655 306.957C38.073 308.058 38.4228 309.581 38.4395 311.594L40.4394 311.577ZM39.2132 305.985C38.3507 304.447 37.0439 303.565 35.3409 303.579L35.3575 305.579C36.2144 305.572 36.9021 305.953 37.4688 306.963L39.2132 305.985ZM35.3409 303.579C34.7451 303.584 34.1779 303.718 33.6604 303.997L34.6108 305.757C34.8155 305.646 35.0573 305.581 35.3575 305.579L35.3409 303.579ZM33.6604 303.997C33.0898 304.305 32.6454 304.807 32.2937 305.396L34.0106 306.422C34.248 306.025 34.4593 305.839 34.6108 305.757L33.6604 303.997ZM32.2689 305.44C31.9924 305.961 31.7562 306.421 31.5612 306.819L33.3574 307.699C33.5401 307.326 33.7658 306.886 34.0354 306.378L32.2689 305.44ZM31.5345 306.879C31.3327 307.369 31.1314 308.103 30.924 309.029L32.8757 309.466C33.0797 308.555 33.2513 307.962 33.3842 307.639L31.5345 306.879ZM30.9185 309.055C30.734 309.997 30.5994 310.711 30.516 311.192L32.4867 311.534C32.5662 311.075 32.6973 310.379 32.8812 309.44L30.9185 309.055ZM30.516 311.192C30.4346 311.662 30.2921 312.485 30.0885 313.66L32.0591 314.001C32.2627 312.826 32.4052 312.004 32.4867 311.534L30.516 311.192ZM30.087 313.669L29.7824 315.528L31.756 315.851L32.0606 313.992L30.087 313.669ZM29.7827 315.526C29.0491 319.945 27.6676 323.253 25.7122 325.539L27.2322 326.839C29.5025 324.184 30.9858 320.491 31.7557 315.853L29.7827 315.526ZM25.7094 325.543C23.8019 327.793 21.2608 328.945 17.983 328.972L17.9996 330.972C21.8041 330.94 24.917 329.57 27.235 326.836L25.7094 325.543ZM17.983 328.972C16.0287 328.988 14.2696 328.671 12.6923 328.035L11.945 329.89C13.7927 330.635 15.8153 330.99 17.9996 330.972L17.983 328.972ZM12.6864 328.033C11.1094 327.409 9.80255 326.565 8.74747 325.508L7.33202 326.921C8.60033 328.191 10.1461 329.179 11.951 329.893L12.6864 328.033ZM8.74747 325.508C7.66905 324.427 6.74784 323.129 5.98852 321.601L4.19762 322.492C5.04381 324.194 6.08705 325.674 7.33202 326.921L8.74747 325.508ZM5.98617 321.597C5.22418 320.084 4.66213 318.465 4.30157 316.737L2.34373 317.145C2.73857 319.038 3.3568 320.822 4.19997 322.496L5.98617 321.597ZM4.3011 316.735C3.9383 315.015 3.74768 313.206 3.73191 311.305L1.73198 311.322C1.74877 313.346 1.95196 315.289 2.3442 317.148L4.3011 316.735ZM3.73191 311.305C3.70113 307.595 4.15096 304.046 5.07799 300.654L3.14873 300.126C2.17087 303.705 1.69975 307.438 1.73198 311.322L3.73191 311.305ZM5.07757 300.655C6.00309 297.29 7.33774 294.463 9.06496 292.154L7.46346 290.956C5.56147 293.499 4.12889 296.562 3.14916 300.125L5.07757 300.655ZM7.74808 292.412L16.4961 297.683L17.5284 295.97L8.78034 290.699L7.74808 292.412ZM16.1797 296.273C12.9847 301.075 11.385 306.102 11.4284 311.338L13.4284 311.321C13.3886 306.53 14.8448 301.889 17.8448 297.381L16.1797 296.273ZM11.4284 311.338C11.4466 313.531 11.8301 315.411 12.648 316.918L14.4057 315.963C13.7937 314.836 13.4449 313.309 13.4284 311.321L11.4284 311.338ZM12.6541 316.928C13.542 318.516 14.8951 319.413 16.6555 319.399L16.6389 317.399C15.7114 317.406 14.9843 316.998 14.3996 315.952L12.6541 316.928ZM16.6555 319.399C17.3559 319.393 18.0133 319.217 18.593 318.844L17.511 317.162C17.2843 317.308 17.0052 317.396 16.6389 317.399L16.6555 319.399ZM18.593 318.844C19.1249 318.502 19.5638 318.051 19.9104 317.508L18.2245 316.432C18.0235 316.747 17.7855 316.985 17.511 317.162L18.593 318.844ZM19.9104 317.508C20.2604 316.96 20.5434 316.232 20.7829 315.378L18.8572 314.838C18.6408 315.609 18.422 316.123 18.2245 316.432L19.9104 317.508ZM20.7809 315.385C21.0189 314.56 21.2122 313.723 21.361 312.876L19.3912 312.53C19.2547 313.307 19.0774 314.074 18.8591 314.831L20.7809 315.385ZM21.3563 312.901C21.5247 312.067 21.7106 310.982 21.914 309.65L19.937 309.348C19.7358 310.665 19.5553 311.715 19.3959 312.506L21.3563 312.901ZM21.9146 309.646L22.248 307.403L20.2698 307.109L19.9364 309.352L21.9146 309.646ZM22.2479 307.404C22.9393 302.791 24.3312 299.455 26.3253 297.27L24.848 295.922C22.4869 298.509 20.9936 302.279 20.27 307.108L22.2479 307.404ZM26.322 297.273C28.2875 295.14 31.0627 294.045 34.7926 294.095L34.8192 292.095C30.6547 292.04 27.2836 293.278 24.8512 295.918L26.322 297.273ZM34.7944 294.095C38.8104 294.141 41.9823 295.686 44.399 298.749L45.9691 297.51C43.1681 293.96 39.4212 292.148 34.8174 292.095L34.7944 294.095ZM44.399 298.749C46.8384 301.84 48.1206 305.906 48.1632 311.033L50.1631 311.016C50.1179 305.562 48.7474 301.031 45.9691 297.51L44.399 298.749ZM48.1632 311.033C48.1895 314.205 47.8798 317.135 47.2411 319.826L49.187 320.288C49.8676 317.421 50.1906 314.329 50.1631 311.016L48.1632 311.033ZM47.2407 319.827C46.6064 322.521 45.4324 325.466 43.6981 328.667L45.4565 329.62C47.2523 326.305 48.5028 323.193 49.1874 320.286L47.2407 319.827ZM45.0477 328.261L36.2405 323.566L35.2996 325.331L44.1069 330.026L45.0477 328.261Z" fill="#05C2DF" fill-opacity="0.05"/>
</svg>
