<svg width="50" height="330" viewBox="0 0 50 330" fill="none" xmlns="http://www.w3.org/2000/svg">
  <path d="M48.3476 282.466L49.3476 282.458L49.3355 281.003L47.9818 281.536L48.3476 282.466ZM48.4421 293.858L48.7891 294.796L49.4479 294.552L49.4421 293.85L48.4421 293.858ZM39.0626 297.328L38.7156 296.39L38.0568 296.634L38.0626 297.336L39.0626 297.328ZM39.2102 315.119L38.2102 315.128L38.2161 315.83L38.8789 316.063L39.2102 315.119ZM48.646 318.433L49.646 318.425L49.6402 317.722L48.9774 317.49L48.646 318.433ZM48.7387 329.601L48.3883 330.537L49.7507 331.047L49.7387 329.592L48.7387 329.601ZM3.79766 312.789L2.79769 312.797L2.8034 313.485L3.44729 313.726L3.79766 312.789ZM3.69173 300.021L3.32587 299.091L2.68606 299.342L2.69177 300.03L3.69173 300.021ZM29.5179 311.744L29.1868 312.687L30.5296 313.158L30.5178 311.735L29.5179 311.744ZM29.4276 300.864L30.4276 300.856L30.4158 299.433L29.081 299.926L29.4276 300.864ZM14.3693 306.429L14.0226 305.491L11.4183 306.454L14.0382 307.373L14.3693 306.429ZM47.3477 282.475L47.4422 293.866L49.4421 293.85L49.3476 282.458L47.3477 282.475ZM48.0952 292.92L38.7156 296.39L39.4096 298.266L48.7891 294.796L48.0952 292.92ZM38.0626 297.336L38.2102 315.128L40.2102 315.111L40.0626 297.32L38.0626 297.336ZM38.8789 316.063L48.3147 319.377L48.9774 317.49L39.5416 314.176L38.8789 316.063ZM47.6461 318.441L47.7387 329.609L49.7387 329.592L49.646 318.425L47.6461 318.441ZM49.0891 328.664L4.14803 311.852L3.44729 313.726L48.3883 330.537L49.0891 328.664ZM4.79763 312.781L4.6917 300.013L2.69177 300.03L2.79769 312.797L4.79763 312.781ZM4.0576 300.952L48.7135 283.397L47.9818 281.536L3.32587 299.091L4.0576 300.952ZM30.5178 311.735L30.4276 300.856L28.4276 300.872L28.5179 311.752L30.5178 311.735ZM29.081 299.926L14.0226 305.491L14.7159 307.367L29.7743 301.802L29.081 299.926ZM14.0382 307.373L29.1868 312.687L29.8489 310.8L14.7003 305.485L14.0382 307.373ZM6.47786 246.265L7.28561 246.855L7.2884 246.851L6.47786 246.265ZM21.6233 243.484L22.1834 242.655L22.1784 242.652L21.6233 243.484ZM25.4043 247.932L24.4993 248.358L25.533 250.558L26.3467 248.267L25.4043 247.932ZM29.17 242.813L29.7766 243.608L29.7812 243.605L29.17 242.813ZM44.7403 244.956L45.5281 244.34L44.7403 244.956ZM48.311 278.047L48.3193 279.047L49.3192 279.039L49.3109 278.039L48.311 278.047ZM3.51251 278.419L2.51254 278.427L2.52084 279.427L3.52081 279.419L3.51251 278.419ZM30.1749 267.51L29.175 267.518L29.1833 268.518L30.1832 268.51L30.1749 267.51ZM39.2626 267.434L39.2709 268.434L40.2709 268.426L40.2626 267.426L39.2626 267.434ZM38.0904 253.427L38.9254 252.877L38.9228 252.873L38.0904 253.427ZM31.1146 253.485L31.9587 254.022L31.9634 254.014L31.1146 253.485ZM12.4155 267.657L11.4156 267.665L11.4239 268.665L12.4238 268.657L12.4155 267.657ZM21.2472 267.584L21.2555 268.584L22.2555 268.575L22.2472 267.575L21.2472 267.584ZM4.35266 259.147C4.30641 253.574 5.33555 249.527 7.2856 246.855L5.67012 245.676C3.35911 248.842 2.30481 253.389 2.35272 259.164L4.35266 259.147ZM7.2884 246.851C9.18057 244.233 11.9916 242.868 15.8897 242.835L15.8731 240.835C11.4515 240.872 7.99353 242.46 5.66732 245.68L7.2884 246.851ZM15.8897 242.835C17.8589 242.819 19.5736 243.318 21.0682 244.315L22.1784 242.652C20.3264 241.416 18.2132 240.816 15.8731 240.835L15.8897 242.835ZM21.0632 244.312C22.5622 245.326 23.7052 246.668 24.4993 248.358L26.3094 247.507C25.3661 245.5 23.9884 243.876 22.1834 242.655L21.0632 244.312ZM26.3467 248.267C27.0095 246.401 28.1455 244.853 29.7766 243.608L28.5634 242.018C26.6329 243.491 25.2585 245.356 24.462 247.598L26.3467 248.267ZM29.7812 243.605C31.3664 242.38 33.154 241.764 35.1774 241.747L35.1608 239.747C32.7043 239.768 30.4925 240.528 28.5588 242.022L29.7812 243.605ZM35.1774 241.747C39.0807 241.715 41.9539 243.016 43.9526 245.572L45.5281 244.34C43.0847 241.215 39.5771 239.711 35.1608 239.747L35.1774 241.747ZM43.9526 245.572C45.9803 248.165 47.096 252.145 47.1419 257.672L49.1418 257.656C49.0942 251.92 47.9423 247.427 45.5281 244.34L43.9526 245.572ZM47.1419 257.672L47.311 278.056L49.3109 278.039L49.1418 257.656L47.1419 257.672ZM48.3027 277.047L3.50421 277.419L3.52081 279.419L48.3193 279.047L48.3027 277.047ZM4.51247 278.411L4.35266 259.147L2.35272 259.164L2.51254 278.427L4.51247 278.411ZM30.1832 268.51L39.2709 268.434L39.2543 266.434L30.1666 266.51L30.1832 268.51ZM40.2626 267.426L40.1866 258.274L38.1867 258.291L38.2626 267.442L40.2626 267.426ZM40.1866 258.274C40.1681 256.041 39.7936 254.195 38.9254 252.877L37.2553 253.978C37.8132 254.824 38.1695 256.214 38.1867 258.291L40.1866 258.274ZM38.9228 252.873C37.9579 251.424 36.4208 250.777 34.5484 250.793L34.565 252.793C35.9351 252.781 36.7538 253.224 37.258 253.982L38.9228 252.873ZM34.5484 250.793C32.6921 250.808 31.1829 251.485 30.2659 252.956L31.9634 254.014C32.4358 253.256 33.2213 252.804 34.565 252.793L34.5484 250.793ZM30.2706 252.949C29.4244 254.281 29.0805 256.133 29.099 258.366L31.099 258.35C31.0817 256.273 31.4149 254.877 31.9587 254.022L30.2706 252.949ZM29.099 258.366L29.175 267.518L31.1749 267.501L31.099 258.35L29.099 258.366ZM12.4238 268.657L21.2555 268.584L21.2389 266.584L12.4072 266.657L12.4238 268.657ZM22.2472 267.575L22.1782 259.256L20.1782 259.272L20.2473 267.592L22.2472 267.575ZM22.1782 259.256C22.1599 257.057 21.7645 255.233 20.8405 253.94C19.8706 252.582 18.4219 251.951 16.6695 251.965L16.6861 253.965C17.8989 253.955 18.6829 254.36 19.2132 255.103C19.7893 255.909 20.1614 257.247 20.1782 259.272L22.1782 259.256ZM16.6695 251.965C14.9325 251.979 13.5101 252.64 12.576 254.014C11.6875 255.321 11.3283 257.149 11.3465 259.345L13.3465 259.329C13.3296 257.301 13.6748 255.955 14.2301 255.138C14.7398 254.389 15.5005 253.975 16.6861 253.965L16.6695 251.965ZM11.3465 259.345L11.4156 267.665L13.4155 267.649L13.3465 259.329L11.3465 259.345ZM3.97662 222.502L3.05078 222.88L3.05174 222.882L3.97662 222.502ZM3.81866 203.463L4.74973 203.827L4.75064 203.825L3.81866 203.463ZM8.58837 195.935L9.30136 196.636L9.30859 196.628L8.58837 195.935ZM15.9078 191.01L15.5228 190.087L15.9078 191.01ZM34.4671 190.856L34.8367 189.927L34.4671 190.856ZM41.8992 195.658L42.6042 194.949L42.6041 194.949L41.8992 195.658ZM46.7612 203.106L45.8353 203.484L45.8363 203.486L46.7612 203.106ZM46.9191 222.146L47.8502 222.51L47.8511 222.508L46.9191 222.146ZM42.1814 229.673L42.8944 230.374L42.9016 230.367L42.1814 229.673ZM34.8298 234.566L34.4448 233.643L34.8298 234.566ZM16.2704 234.72L15.9008 235.649L16.2704 234.72ZM8.87058 229.95L9.57552 229.24L9.57548 229.24L8.87058 229.95ZM15.9188 203.906L16.619 204.62L16.6222 204.617L15.9188 203.906ZM16.0677 221.858L15.3761 222.58L15.3794 222.583L16.0677 221.858ZM34.819 221.702L35.5193 222.416L35.5225 222.413L34.819 221.702ZM34.6701 203.751L33.9785 204.473L33.9819 204.476L34.6701 203.751ZM4.90246 222.124C3.75625 219.316 3.16488 216.269 3.13753 212.972L1.1376 212.989C1.16689 216.519 1.80156 219.819 3.05079 222.88L4.90246 222.124ZM3.13753 212.972C3.11019 209.676 3.65103 206.631 4.74973 203.827L2.88759 203.098C1.6882 206.158 1.10831 209.459 1.1376 212.989L3.13753 212.972ZM4.75064 203.825C5.85494 200.986 7.37428 198.595 9.30132 196.636L7.87543 195.233C5.74058 197.404 4.08012 200.032 2.88668 203.1L4.75064 203.825ZM9.30859 196.628C11.2163 194.648 13.5394 193.081 16.2927 191.933L15.5228 190.087C12.5358 191.333 9.97932 193.049 7.86816 195.241L9.30859 196.628ZM16.2927 191.933C19.0361 190.788 21.9957 190.199 25.1811 190.173L25.1646 188.173C21.7369 188.201 18.5198 188.837 15.5228 190.087L16.2927 191.933ZM25.1811 190.173C28.3666 190.146 31.3356 190.686 34.0975 191.785L34.8367 189.927C31.8194 188.726 28.5922 188.144 25.1646 188.173L25.1811 190.173ZM34.0975 191.785C36.8704 192.888 39.2314 194.417 41.1943 196.368L42.6041 194.949C40.4369 192.795 37.8432 191.122 34.8367 189.927L34.0975 191.785ZM41.1943 196.368C43.1337 198.295 44.6832 200.662 45.8353 203.484L47.687 202.728C46.4437 199.682 44.752 197.084 42.6042 194.949L41.1943 196.368ZM45.8363 203.486C46.9814 206.272 47.5727 209.307 47.6 212.604L49.5999 212.587C49.5707 209.057 48.9361 205.766 47.6861 202.726L45.8363 203.486ZM47.6 212.604C47.6274 215.9 47.0866 218.956 45.9872 221.783L47.8511 222.508C49.0494 219.427 49.6292 216.117 49.5999 212.587L47.6 212.604ZM45.9881 221.781C44.8828 224.601 43.3717 226.996 41.4612 228.979L42.9016 230.367C45.01 228.178 46.6574 225.554 47.8502 222.51L45.9881 221.781ZM41.4685 228.972C39.5377 230.935 37.2011 232.494 34.4448 233.643L35.2147 235.489C38.1987 234.245 40.7633 232.541 42.8944 230.374L41.4685 228.972ZM34.4448 233.643C31.7015 234.788 28.7419 235.377 25.5564 235.403L25.573 237.403C29.0006 237.375 32.2178 236.739 35.2147 235.489L34.4448 233.643ZM25.5564 235.403C22.3709 235.43 19.402 234.89 16.64 233.791L15.9008 235.649C18.9181 236.85 22.1454 237.432 25.573 237.403L25.5564 235.403ZM16.64 233.791C13.8658 232.688 11.5159 231.169 9.57552 229.24L8.16564 230.659C10.3124 232.792 12.8958 234.454 15.9008 235.649L16.64 233.791ZM9.57548 229.24C7.6124 227.289 6.05256 224.921 4.90151 222.122L3.05174 222.882C4.29577 225.908 5.99856 228.505 8.16568 230.659L9.57548 229.24ZM15.2186 203.192C12.6151 205.746 11.345 209.012 11.3773 212.904L13.3772 212.888C13.3489 209.484 14.4398 206.757 16.619 204.62L15.2186 203.192ZM11.3773 212.904C11.4095 216.797 12.7336 220.05 15.3761 222.58L16.7593 221.135C14.5416 219.012 13.4054 216.291 13.3772 212.888L11.3773 212.904ZM15.3794 222.583C18.0249 225.093 21.4227 226.301 25.4806 226.268L25.464 224.268C21.8422 224.298 18.9702 223.233 16.756 221.132L15.3794 222.583ZM25.4806 226.268C29.5385 226.234 32.9158 224.969 35.5193 222.416L34.1188 220.988C31.9398 223.125 29.0859 224.238 25.464 224.268L25.4806 226.268ZM35.5225 222.413C38.1226 219.839 39.3926 216.564 39.3603 212.672L37.3604 212.689C37.3886 216.092 36.2977 218.832 34.1156 220.991L35.5225 222.413ZM39.3603 212.672C39.328 208.779 38.0038 205.535 35.3584 203.025L33.9819 204.476C36.1962 206.577 37.3321 209.285 37.3604 212.689L39.3603 212.672ZM35.3617 203.028C32.7165 200.496 29.3175 199.275 25.2569 199.309L25.2735 201.308C28.8927 201.278 31.7637 202.352 33.9786 204.473L35.3617 203.028ZM25.2569 199.309C21.1964 199.342 17.8181 200.619 15.2153 203.195L16.6222 204.617C18.8016 202.46 21.6543 201.338 25.2735 201.308L25.2569 199.309ZM43.1776 149.173L43.8989 148.48L43.8967 148.478L43.1776 149.173ZM43.4171 178.036L44.1477 178.719L44.1498 178.717L43.4171 178.036ZM2.72522 183.526L1.72526 183.534L1.73355 184.534L2.73352 184.526L2.72522 183.526ZM2.63629 172.806L2.62799 171.806L1.62803 171.815L1.63632 172.815L2.63629 172.806ZM35.7035 170.164L36.426 170.855L36.4308 170.85L35.7035 170.164ZM35.5955 157.14L36.3113 156.442L36.3064 156.437L35.5955 157.14ZM2.48895 155.047L1.48898 155.055L1.49728 156.055L2.49724 156.047L2.48895 155.047ZM2.40001 144.327L2.39171 143.327L1.39175 143.336L1.40004 144.336L2.40001 144.327ZM29.1274 145.106C34.9904 145.057 39.3835 146.687 42.4586 149.868L43.8967 148.478C40.3439 144.802 35.3647 143.054 29.1108 143.106L29.1274 145.106ZM42.4563 149.866C45.5243 153.061 47.1435 157.584 47.1932 163.572L49.1931 163.556C49.1405 157.214 47.416 152.143 43.8989 148.48L42.4563 149.866ZM47.1932 163.572C47.2429 169.56 45.699 174.11 42.6844 177.356L44.1498 178.717C47.6056 174.996 49.2458 169.898 49.1931 163.556L47.1932 163.572ZM42.6865 177.353C39.6877 180.562 35.3237 182.255 29.436 182.304L29.4526 184.304C35.7245 184.252 40.6757 182.434 44.1477 178.719L42.6865 177.353ZM29.436 182.304L2.71693 182.526L2.73352 184.526L29.4526 184.304L29.436 182.304ZM3.72519 183.518L3.63625 172.798L1.63632 172.815L1.72526 183.534L3.72519 183.518ZM2.64458 173.806L28.9477 173.588L28.9311 171.588L2.62799 171.806L2.64458 173.806ZM28.9477 173.588C32.1051 173.562 34.6576 172.703 36.426 170.855L34.981 169.472C33.7037 170.807 31.7468 171.565 28.9311 171.588L28.9477 173.588ZM36.4308 170.85C38.1521 169.026 38.9459 166.581 38.9215 163.641L36.9216 163.658C36.9428 166.221 36.2579 168.119 34.9762 169.478L36.4308 170.85ZM38.9215 163.641C38.8969 160.682 38.0639 158.239 36.3113 156.442L34.8796 157.839C36.1824 159.174 36.9001 161.07 36.9216 163.658L38.9215 163.641ZM36.3064 156.437C34.5075 154.619 31.9412 153.802 28.7837 153.829L28.8003 155.829C31.616 155.805 33.5853 156.53 34.8845 157.844L36.3064 156.437ZM28.7837 153.829L2.48065 154.047L2.49724 156.047L28.8003 155.829L28.7837 153.829ZM3.48891 155.039L3.39998 144.319L1.40004 144.336L1.48898 155.055L3.48891 155.039ZM2.40831 145.327L29.1274 145.106L29.1108 143.106L2.39171 143.327L2.40831 145.327ZM11.974 102.578L12.9739 102.57L12.9657 101.57L11.9657 101.578L11.974 102.578ZM12.0839 115.826L11.0839 115.834L11.0922 116.834L12.0922 116.826L12.0839 115.826ZM46.9627 115.537L47.9627 115.528L47.9544 114.528L46.9544 114.537L46.9627 115.537ZM47.0514 126.224L47.0597 127.224L48.0596 127.216L48.0513 126.216L47.0514 126.224ZM12.1726 126.514L12.1643 125.514L11.1643 125.522L11.1726 126.522L12.1726 126.514ZM12.2827 139.793L12.291 140.793L13.291 140.785L13.2827 139.785L12.2827 139.793ZM2.36308 139.875L1.36311 139.884L1.37141 140.884L2.37137 140.875L2.36308 139.875ZM2.05432 102.661L2.04603 101.661L1.04606 101.669L1.05436 102.669L2.05432 102.661ZM10.974 102.587L11.0839 115.834L13.0839 115.818L12.9739 102.57L10.974 102.587ZM12.0922 116.826L46.971 116.537L46.9544 114.537L12.0756 114.826L12.0922 116.826ZM45.9627 115.545L46.0514 126.232L48.0513 126.216L47.9627 115.528L45.9627 115.545ZM47.0431 125.224L12.1643 125.514L12.1809 127.514L47.0597 127.224L47.0431 125.224ZM11.1726 126.522L11.2828 139.801L13.2827 139.785L13.1725 126.505L11.1726 126.522ZM12.2744 138.793L2.35478 138.875L2.37137 140.875L12.291 140.793L12.2744 138.793ZM3.36304 139.867L3.05429 102.652L1.05436 102.669L1.36311 139.884L3.36304 139.867ZM2.06262 103.661L11.9823 103.578L11.9657 101.578L2.04603 101.661L2.06262 103.661ZM42.3568 50.239L43.0781 49.5464L43.0758 49.544L42.3568 50.239ZM42.5963 79.102L43.3269 79.7849L43.329 79.7826L42.5963 79.102ZM1.90441 84.5918L0.904447 84.6001L0.912743 85.6001L1.91271 85.5918L1.90441 84.5918ZM1.81548 73.8722L1.80718 72.8722L0.807215 72.8805L0.815511 73.8805L1.81548 73.8722ZM34.8827 71.2297L35.6052 71.9211L35.61 71.9161L34.8827 71.2297ZM34.7746 58.2062L35.4905 57.5079L35.4856 57.5029L34.7746 58.2062ZM1.66814 56.1128L0.66817 56.1211L0.676466 57.121L1.67643 57.1128L1.66814 56.1128ZM1.5792 45.3932L1.5709 44.3932L0.570937 44.4015L0.579234 45.4015L1.5792 45.3932ZM28.3066 46.1714C34.1696 46.1228 38.5627 47.7525 41.6378 50.934L43.0758 49.544C39.5231 45.8683 34.5439 44.1196 28.29 44.1715L28.3066 46.1714ZM41.6355 50.9316C44.7035 54.1266 46.3227 58.65 46.3724 64.6382L48.3723 64.6216C48.3197 58.2796 46.5952 53.209 43.0781 49.5464L41.6355 50.9316ZM46.3724 64.6382C46.4221 70.6264 44.8781 75.176 41.8636 78.4215L43.329 79.7826C46.7848 76.0621 48.425 70.9636 48.3723 64.6216L46.3724 64.6382ZM41.8657 78.4192C38.8668 81.6277 34.5029 83.3213 28.6152 83.3702L28.6318 85.3701C34.9037 85.3181 39.8549 83.4996 43.3269 79.7849L41.8657 78.4192ZM28.6152 83.3702L1.89612 83.5918L1.91271 85.5918L28.6318 85.3701L28.6152 83.3702ZM2.90438 84.5835L2.81544 73.8639L0.815511 73.8805L0.904447 84.6001L2.90438 84.5835ZM1.82377 74.8721L28.1269 74.6539L28.1103 72.654L1.80718 72.8722L1.82377 74.8721ZM28.1269 74.6539C31.2843 74.6277 33.8368 73.7691 35.6052 71.9211L34.1602 70.5384C32.8829 71.8731 30.926 72.6306 28.1103 72.654L28.1269 74.6539ZM35.61 71.9161C37.3313 70.092 38.1251 67.6471 38.1007 64.7068L36.1008 64.7234C36.122 67.287 35.4371 69.1852 34.1554 70.5434L35.61 71.9161ZM38.1007 64.7068C38.0761 61.7477 37.2431 59.3045 35.4905 57.5079L34.0588 58.9045C35.3616 60.2399 36.0793 62.1361 36.1008 64.7234L38.1007 64.7068ZM35.4856 57.5029C33.6867 55.6845 31.1204 54.8684 27.9629 54.8946L27.9795 56.8945C30.7952 56.8712 32.7645 57.5961 34.0637 58.9095L35.4856 57.5029ZM27.9629 54.8946L1.65984 55.1128L1.67643 57.1128L27.9795 56.8945L27.9629 54.8946ZM2.6681 56.1045L2.57916 45.3849L0.579234 45.4015L0.66817 56.1211L2.6681 56.1045ZM1.5875 46.3931L28.3066 46.1714L28.29 44.1715L1.5709 44.3932L1.5875 46.3931ZM13.9575 6.0851L14.8251 6.58231L15.3378 5.68771L14.4279 5.20265L13.9575 6.0851ZM11.3865 24.059L10.511 24.5422L10.5144 24.5482L11.3865 24.059ZM15.5919 25.6562L16.0671 26.5361L15.5919 25.6562ZM16.5754 24.624L17.4339 25.1369L17.4468 25.1152L17.4586 25.093L16.5754 24.624ZM17.2682 23.2742L18.1663 23.714L18.1807 23.6848L18.1931 23.6546L17.2682 23.2742ZM17.8278 21.2855L18.8036 21.504L18.8065 21.4909L18.8091 21.4778L17.8278 21.2855ZM18.6538 16.7025L19.6391 16.8732L19.6406 16.8642L18.6538 16.7025ZM18.9584 14.8439L17.9718 14.6802L17.9715 14.6822L18.9584 14.8439ZM23.2554 4.3439L24.0154 4.9938L24.0182 4.99055L23.2554 4.3439ZM37.4089 1.57038L37.0352 2.49798L37.0411 2.50031L37.4089 1.57038ZM41.6878 4.31897L40.9801 5.02546L41.6878 4.31897ZM44.6345 8.48668L43.739 8.93184L43.7414 8.93652L44.6345 8.48668ZM46.4049 13.5922L45.426 13.7964L45.4265 13.7987L46.4049 13.5922ZM45.6142 30.1433L46.5784 30.4084L46.5788 30.4069L45.6142 30.1433ZM41.4634 38.978L40.9472 39.8345L41.7222 40.3015L42.2641 39.577L41.4634 38.978ZM32.7153 33.7064L31.8828 33.1525L31.3034 34.0231L32.1992 34.5629L32.7153 33.7064ZM36.2007 14.0929L37.0796 13.6156L37.0735 13.6048L36.2007 14.0929ZM31.6756 12.5303L32.2166 13.3714L32.2166 13.3714L31.6756 12.5303ZM30.6601 13.5628L31.5031 14.1008L30.6601 13.5628ZM29.9076 15.4251L30.8684 15.7021L30.8704 15.6952L29.9076 15.4251ZM29.3515 17.8298L30.3317 18.0277L30.3342 18.0153L30.3364 18.0028L29.3515 17.8298ZM28.8021 21.0344L27.8135 20.8834L27.8129 20.8874L28.8021 21.0344ZM28.4686 23.2773L29.4576 23.4255L29.4578 23.4243L28.4686 23.2773ZM24.1409 33.9376L24.8763 34.6152L24.8796 34.6117L24.1409 33.9376ZM14.9217 37.4382L14.935 36.4383L14.9332 36.4382L14.9217 37.4382ZM4.54354 32.4041L5.3286 31.7847L5.3286 31.7847L4.54354 32.4041ZM1.51352 10.4765L2.48649 10.7074L2.4869 10.7057L1.51352 10.4765ZM5.15026 1.39L5.62068 0.507555L4.74422 0.0403229L4.27104 0.913602L5.15026 1.39ZM13.0899 5.58788C10.5359 10.0445 9.25121 14.5049 9.28814 18.9563L11.2881 18.9397C11.2546 14.9007 12.4162 10.7858 14.8251 6.58231L13.0899 5.58788ZM9.28814 18.9563C9.30649 21.1677 9.68895 23.0523 10.511 24.5422L12.2621 23.576C11.6546 22.4749 11.3048 20.9521 11.2881 18.9397L9.28814 18.9563ZM10.5144 24.5482C11.3768 26.086 12.6836 26.9684 14.3867 26.9543L14.3701 24.9543C13.5132 24.9614 12.8254 24.5803 12.2587 23.5699L10.5144 24.5482ZM14.3867 26.9543C14.9825 26.9493 15.5497 26.8156 16.0671 26.5361L15.1167 24.7763C14.9121 24.8869 14.6703 24.9518 14.3701 24.9543L14.3867 26.9543ZM16.0671 26.5361C16.6378 26.2279 17.0821 25.7257 17.4339 25.1369L15.7169 24.1112C15.4795 24.5086 15.2682 24.6945 15.1167 24.7763L16.0671 26.5361ZM17.4586 25.093C17.7352 24.5722 17.9714 24.1121 18.1663 23.714L16.3701 22.8345C16.1875 23.2075 15.9618 23.6473 15.6922 24.155L17.4586 25.093ZM18.1931 23.6546C18.3948 23.1641 18.5962 22.4306 18.8036 21.504L16.8519 21.0671C16.6479 21.9786 16.4762 22.5709 16.3434 22.8938L18.1931 23.6546ZM18.8091 21.4778C18.9936 20.536 19.1282 19.8221 19.2115 19.3409L17.2409 18.9994C17.1614 19.4582 17.0303 20.1546 16.8464 21.0933L18.8091 21.4778ZM19.2115 19.3409C19.293 18.8708 19.4355 18.0483 19.6391 16.8732L17.6684 16.5318C17.4649 17.7069 17.3223 18.5294 17.2409 18.9994L19.2115 19.3409ZM19.6406 16.8642L19.9452 15.0056L17.9715 14.6822L17.6669 16.5408L19.6406 16.8642ZM19.9449 15.0077C20.6785 10.5878 22.0599 7.28064 24.0154 4.9938L22.4954 3.69399C20.225 6.34906 18.7418 10.0418 17.9719 14.6802L19.9449 15.0077ZM24.0182 4.99055C25.9257 2.74039 28.4667 1.58856 31.7446 1.56137L31.728 -0.438563C27.9235 -0.406998 24.8106 0.962838 22.4926 3.69725L24.0182 4.99055ZM31.7446 1.56137C33.6988 1.54515 35.458 1.8626 37.0352 2.49795L37.7825 0.642806C35.9349 -0.101474 33.9123 -0.456685 31.728 -0.438563L31.7446 1.56137ZM37.0411 2.50031C38.6182 3.12393 39.925 3.96853 40.9801 5.02546L42.3955 3.61248C41.1272 2.34195 39.5814 1.35416 37.7766 0.640444L37.0411 2.50031ZM40.9801 5.02546C42.0585 6.10578 42.9797 7.40449 43.7391 8.93184L45.5299 8.04152C44.6838 6.33941 43.6405 4.85964 42.3955 3.61248L40.9801 5.02546ZM43.7414 8.93652C44.5034 10.4494 45.0654 12.0683 45.426 13.7964L47.3838 13.3879C46.989 11.4955 46.3708 9.71081 45.5276 8.03684L43.7414 8.93652ZM45.4265 13.7987C45.7893 15.5178 45.9799 17.3269 45.9957 19.2277L47.9956 19.2112C47.9788 17.1868 47.7756 15.2444 47.3834 13.3857L45.4265 13.7987ZM45.9957 19.2277C46.0264 22.9378 45.5766 26.4873 44.6496 29.8797L46.5788 30.4069C47.5567 26.8285 48.0278 23.0955 47.9956 19.2112L45.9957 19.2277ZM44.65 29.8781C43.7245 33.2436 42.3898 36.0701 40.6626 38.379L42.2641 39.577C44.1661 37.0344 45.5987 33.971 46.5784 30.4084L44.65 29.8781ZM41.9795 38.1215L33.2315 32.8499L32.1992 34.5629L40.9472 39.8345L41.9795 38.1215ZM33.5479 34.2604C36.7428 29.4587 38.3426 24.4314 38.2991 19.1956L36.2992 19.2122C36.3389 24.0027 34.8828 28.6438 31.8828 33.1525L33.5479 34.2604ZM38.2991 19.1956C38.2809 17.0024 37.8974 15.1221 37.0795 13.6157L35.3219 14.57C35.9339 15.6972 36.2827 17.2242 36.2992 19.2122L38.2991 19.1956ZM37.0735 13.6048C36.1856 12.017 34.8325 11.1201 33.0721 11.1347L33.0887 13.1346C34.0161 13.1269 34.7433 13.5355 35.3279 14.5809L37.0735 13.6048ZM33.0721 11.1347C32.3717 11.1405 31.7143 11.3164 31.1346 11.6893L32.2166 13.3714C32.4433 13.2255 32.7224 13.1377 33.0887 13.1346L33.0721 11.1347ZM31.1346 11.6893C30.6027 12.0314 30.1637 12.4818 29.8172 13.0248L31.5031 14.1008C31.7041 13.7858 31.9421 13.5479 32.2166 13.3714L31.1346 11.6893ZM29.8172 13.0248C29.4671 13.5732 29.1842 14.3013 28.9447 15.155L30.8704 15.6952C31.0868 14.9238 31.3055 14.4103 31.5031 14.1008L29.8172 13.0248ZM28.9467 15.1481C28.7087 15.9736 28.5153 16.8099 28.3666 17.6568L30.3364 18.0028C30.4729 17.226 30.6502 16.4591 30.8684 15.7021L28.9467 15.1481ZM28.3713 17.6319C28.2029 18.466 28.017 19.5516 27.8135 20.8834L29.7906 21.1855C29.9918 19.8685 30.1722 18.8177 30.3317 18.0277L28.3713 17.6319ZM27.8129 20.8874L27.4795 23.1303L29.4578 23.4243L29.7912 21.1815L27.8129 20.8874ZM27.4797 23.1291C26.7883 27.7421 25.3964 31.0784 23.4023 33.2635L24.8796 34.6117C27.2407 32.0244 28.7339 28.254 29.4576 23.4255L27.4797 23.1291ZM23.4055 33.2599C21.4401 35.3929 18.6649 36.4879 14.935 36.4383L14.9083 38.4381C19.0729 38.4936 22.4439 37.2549 24.8763 34.6152L23.4055 33.2599ZM14.9332 36.4382C10.9172 36.392 7.7453 34.8476 5.3286 31.7847L3.75848 33.0235C6.55949 36.5735 10.3064 38.3851 14.9102 38.4381L14.9332 36.4382ZM5.3286 31.7847C2.88919 28.693 1.60692 24.6268 1.56439 19.5004L-0.435545 19.517C-0.390291 24.9715 0.980185 29.5023 3.75849 33.0235L5.3286 31.7847ZM1.56439 19.5004C1.53806 16.3277 1.84776 13.3982 2.48649 10.7074L0.540559 10.2455C-0.139991 13.1125 -0.463027 16.2045 -0.435545 19.517L1.56439 19.5004ZM2.4869 10.7057C3.1212 8.01228 4.29521 5.06708 6.02949 1.86642L4.27104 0.913602C2.47525 4.22778 1.22476 7.34022 0.540149 10.2472L2.4869 10.7057ZM4.67984 2.27244L13.4871 6.96754L14.4279 5.20265L5.62068 0.507555L4.67984 2.27244Z" fill="#05C2DF" fill-opacity="0.1"/>
</svg>
