<svg xmlns="http://www.w3.org/2000/svg" width="248" height="69" fill="none" xmlns:v="https://vecta.io/nano"><path d="M107.278 40V28.364h4.148c.905 0 1.655.165 2.25.494s1.04.78 1.335 1.352.444 1.208.444 1.92-.15 1.36-.449 1.932-.743 1.019-1.341 1.352-1.343.494-2.245.494h-2.852v-1.489h2.693c.572 0 1.036-.098 1.392-.295a1.86 1.86 0 0 0 .785-.818c.166-.345.25-.737.25-1.176s-.084-.83-.25-1.17-.43-.608-.79-.801-.826-.29-1.409-.29h-2.205V40h-1.756zm11.797-11.636V40h-1.699V28.364h1.699zm4.826 11.83c-.553 0-1.053-.102-1.5-.307s-.802-.51-1.063-.903-.386-.877-.386-1.449c0-.492.094-.898.284-1.216s.445-.57.767-.756.682-.326 1.079-.42a10.75 10.75 0 0 1 1.216-.216l1.273-.148c.326-.042.563-.108.71-.199s.222-.239.222-.443v-.04c0-.496-.14-.881-.421-1.153-.276-.273-.689-.409-1.238-.409-.572 0-1.023.127-1.353.381s-.551.528-.676.835l-1.596-.364c.189-.53.466-.958.829-1.284a3.37 3.37 0 0 1 1.267-.716 4.95 4.95 0 0 1 1.506-.227 5.31 5.31 0 0 1 1.108.125 3.24 3.24 0 0 1 1.102.443c.345.216.627.525.847.926s.329.915.329 1.551V40h-1.659v-1.193h-.068c-.11.22-.275.436-.494.648s-.502.388-.847.528-.757.21-1.238.21zm.369-1.364c.47 0 .871-.093 1.204-.278s.593-.428.767-.727a1.88 1.88 0 0 0 .268-.972v-1.125c-.061.061-.179.117-.353.17s-.365.093-.585.131l-.642.097-.523.068c-.329.042-.63.112-.903.21s-.485.241-.648.426-.239.424-.239.727c0 .42.156.739.466.955s.707.318 1.188.318zm6.962 4.443c-.254 0-.485-.021-.694-.062a2.2 2.2 0 0 1-.466-.125l.41-1.392c.31.083.587.119.829.108a.99.99 0 0 0 .642-.273c.19-.17.356-.449.5-.835l.21-.58-3.193-8.841h1.818l2.211 6.773h.09l2.211-6.773h1.824l-3.597 9.892c-.167.455-.379.839-.636 1.153s-.565.557-.921.716-.769.239-1.238.239zm13.376-14.909l3.239 9.477h.13l3.239-9.477h1.898L148.926 40h-2.028l-4.188-11.636h1.898zM154.658 40v-8.727h1.699V40h-1.699zm.858-10.074a1.08 1.08 0 0 1-.762-.295.96.96 0 0 1-.312-.716.95.95 0 0 1 .312-.716 1.07 1.07 0 0 1 .762-.301c.295 0 .547.1.755.301a.94.94 0 0 1 .318.716c0 .276-.106.515-.318.716s-.46.295-.755.295zm6.393 10.244c-.704 0-1.333-.18-1.886-.54s-.981-.881-1.296-1.551-.466-1.483-.466-2.426.158-1.75.472-2.42.754-1.184 1.307-1.54 1.18-.534 1.88-.534c.542 0 .978.091 1.307.273s.591.386.773.625.33.449.432.631h.102v-4.324h1.699V40h-1.659v-1.358h-.142c-.102.186-.25.398-.443.636s-.451.447-.784.625-.766.267-1.296.267zm.375-1.449c.489 0 .902-.129 1.239-.386s.598-.623.772-1.085.267-1 .267-1.614c0-.606-.087-1.136-.261-1.591s-.43-.809-.767-1.062-.754-.381-1.25-.381c-.511 0-.937.133-1.278.398s-.599.627-.773 1.085-.256.975-.256 1.551a4.45 4.45 0 0 0 .262 1.574c.174.466.431.835.772 1.108s.769.403 1.273.403zm10.135 1.454c-.86 0-1.6-.184-2.222-.551s-1.094-.892-1.431-1.562-.5-1.464-.5-2.369c0-.894.166-1.682.5-2.364s.806-1.214 1.409-1.597 1.314-.574 2.125-.574a4.28 4.28 0 0 1 1.432.244c.462.163.876.419 1.244.767s.657.801.869 1.358.318 1.225.318 2.017v.602h-6.937v-1.273h5.273c0-.447-.091-.843-.273-1.187s-.438-.623-.767-.824-.709-.301-1.148-.301c-.477 0-.894.117-1.25.352s-.625.534-.818.909a2.63 2.63 0 0 0-.284 1.21v.994c0 .583.102 1.08.307 1.489s.498.722.869.938.805.318 1.301.318c.322 0 .616-.045.881-.136a1.9 1.9 0 0 0 .687-.421c.193-.186.341-.415.443-.687l1.608.29c-.128.474-.359.888-.693 1.244s-.744.627-1.244.824-1.063.29-1.699.29zm9.305 0c-.818 0-1.532-.187-2.142-.562s-1.083-.9-1.42-1.574-.506-1.462-.506-2.364.169-1.697.506-2.375.811-1.204 1.42-1.579 1.324-.562 2.142-.562 1.533.188 2.142.563 1.084.902 1.421 1.579.506 1.47.506 2.375-.169 1.689-.506 2.364-.811 1.199-1.421 1.574-1.323.563-2.142.563zm.006-1.426c.53 0 .97-.14 1.318-.42s.606-.653.773-1.119.256-.979.256-1.54-.086-1.068-.256-1.534-.424-.847-.773-1.131-.788-.426-1.318-.426-.977.142-1.329.426a2.54 2.54 0 0 0-.779 1.131c-.167.466-.25.977-.25 1.534s.083 1.074.25 1.54.43.839.779 1.119.795.42 1.329.42z" fill="#fff"/><g stroke="#05c2df"><path opacity=".45" d="M51 7c-4.881-3.411-10.086-4.648-16-5s-11.44 1.003-16.679 3.812-9.623 7.021-12.676 12.18S.986 29.06 1 35.08s1.649 11.922 4.727 17.066a32.69 32.69 0 0 0 12.734 12.117c5.253 2.783 11.155 4.052 17.066 3.671S47.136 65.435 52 62" stroke-width="2" stroke-miterlimit="1.51696"/><path d="M34.031 61.156c14.587 0 26.412-11.791 26.412-26.335S48.618 8.485 34.031 8.485 7.618 20.276 7.618 34.82s11.825 26.335 26.412 26.335z" stroke-miterlimit="10"/></g><g fill="#05c2df"><path opacity=".45" d="M86 12H56v2h30v-2zm0 44H56v2h30v-2z"/><path d="M45 35L27.75 45.392V24.608L45 35z"/><path opacity=".45" d="M91 12h-2v2h2v-2zm-3 0h-2v2h2v-2zm6 0h-2v2h2v-2zm3 0h-2v2h2v-2zm3 0h-2v2h2v-2zm4 0h-2v2h2v-2zm4 0h-2v2h2v-2zm4 0h-2v2h2v-2zm5 0h-2v2h2v-2zm5 0h-2v2h2v-2zm5 0h-2v2h2v-2zm5 0h-2v2h2v-2zm5 0h-2v2h2v-2zm5 0h-2v2h2v-2zm11.6.23H152v1.6h1.6v-1.6zm6 0H158v1.6h1.6v-1.6zm6 0H164v1.6h1.6v-1.6zm5.7.2H170v1.3h1.3v-1.3zm7 0H177v1.3h1.3v-1.3zm7 0H184v1.3h1.3v-1.3zm7 0H191v1.3h1.3v-1.3zm8 0H199v1.3h1.3v-1.3zm9 0H208v1.3h1.3v-1.3zm-61.7-.2H146v1.6h1.6v-1.6zm100.4.27h-1v1h1v-1zm-14 0h-1v1h1v-1zm-13 0h-1v1h1v-1zM91 56h-2v2h2v-2zm-3 0h-2v2h2v-2zm6 0h-2v2h2v-2zm3 0h-2v2h2v-2zm3 0h-2v2h2v-2zm4 0h-2v2h2v-2zm4 0h-2v2h2v-2zm4 0h-2v2h2v-2zm5 0h-2v2h2v-2zm5 0h-2v2h2v-2zm5 0h-2v2h2v-2zm5 0h-2v2h2v-2zm5 0h-2v2h2v-2zm5 0h-2v2h2v-2zm11.6.23H152v1.6h1.6v-1.6zm6 0H158v1.6h1.6v-1.6zm6 0H164v1.6h1.6v-1.6zm5.7.2H170v1.3h1.3v-1.3zm7 0H177v1.3h1.3v-1.3zm7 0H184v1.3h1.3v-1.3zm7 0H191v1.3h1.3v-1.3zm8 0H199v1.3h1.3v-1.3zm9 0H208v1.3h1.3v-1.3zm-61.7-.2H146v1.6h1.6v-1.6zm100.4.27h-1v1h1v-1zm-14 0h-1v1h1v-1zm-13 0h-1v1h1v-1z"/></g></svg>