<svg width="70" height="82" viewBox="0 0 70 82" fill="none" xmlns="http://www.w3.org/2000/svg">
<path d="M69.2249 7.07864V80.6686H66.8933H56.5113H53.6799H30.0844H27.2529H20.6461H17.8147H17.3708V78.8091C17.3708 77.7507 16.513 76.8934 15.4551 76.8934C14.3973 76.8934 13.5394 77.7507 13.5394 78.8091V80.6686H13.0956H10.2642H3.6574L1.96661 80.6685L1.32617 80.6685V27.8426C1.32617 27.3366 1.73605 26.9269 2.24187 26.9269H14.0396H14.5396V26.4269V14.6291C14.5396 14.1232 14.9495 13.7134 15.4553 13.7134H19.7025H20.2025V13.2134V7.07864C20.2025 6.57273 20.6124 6.16294 21.1182 6.16294H27.253H27.753V5.66294V1.4157C27.753 0.909827 28.163 0.5 28.6687 0.5C29.1744 0.5 29.5844 0.909828 29.5844 1.4157V5.66294V6.16294H30.0844H36.2194C36.7251 6.16294 37.1351 6.57277 37.1351 7.07864V13.2134V13.7134H37.6351H40.4665H40.9665V13.2134V7.07864C40.9665 6.57273 41.3763 6.16294 41.8822 6.16294H68.3092C68.8149 6.16294 69.2249 6.57277 69.2249 7.07864Z" stroke="#05C2DF" stroke-linecap="round"/>
</svg>
