<svg width="98" height="81" viewBox="0 0 98 81" fill="none" xmlns="http://www.w3.org/2000/svg">
<g clip-path="url(#clip0_3495_3050)">
<path d="M62.2377 5.25343L49.2015 0.107666L0.275879 19.0259L49.0005 41.5001L97.7249 19.018L64.8877 6.43234" stroke="#05C2DF" stroke-miterlimit="10"/>
<path d="M47.9548 15.9353L74.4969 28.0987V71.9294" stroke="#05C2DF" stroke-miterlimit="10"/>
<path d="M16.0005 26L16.0005 40" stroke="#05C2DF" stroke-miterlimit="10"/>
<path d="M16.0808 43.1498V56.7948C16.0808 56.7948 47.582 83.9774 81.7392 56.7948V26.3096" stroke="#05C2DF" stroke-miterlimit="10"/>
<path d="M74.4967 80.9006C76.9477 80.9006 78.9346 78.9044 78.9346 76.4419C78.9346 73.9794 76.9477 71.9832 74.4967 71.9832C72.0457 71.9832 70.0588 73.9794 70.0588 76.4419C70.0588 78.9044 72.0457 80.9006 74.4967 80.9006Z" stroke="#05C2DF" stroke-miterlimit="10"/>
</g>
<defs>
<clipPath id="clip0_3495_3050">
<rect width="98" height="81" fill="white"/>
</clipPath>
</defs>
</svg>
