<svg width="112" height="82" viewBox="0 0 112 82" fill="none" xmlns="http://www.w3.org/2000/svg">
<path d="M48.1925 56.0307C52.5397 53.0439 56.0688 48.9496 58.3676 44.1565M91.8196 52.5927C90.1687 51.0853 88.3111 49.8285 86.2978 48.8569L85.9617 48.6947M83.2741 36.3498C82.8965 37.657 82.7051 39.0025 82.7051 40.3494V47.1233L80.9847 46.293C74.3589 43.0957 67.0416 41.2658 59.6857 40.9423C60.7413 37.8728 61.3157 34.5817 61.3157 31.1585C61.3157 14.5293 47.7869 1.00049 31.158 1.00049C14.529 1.00049 1 14.5293 1 31.1585C1 47.7876 14.5288 61.3164 31.158 61.3164C36.2488 61.3164 41.048 60.0466 45.2587 57.8099C46.8264 59.169 72.7266 81.4365 86.2735 81.4365C86.4391 81.4365 86.6041 81.4331 86.7661 81.4263C100.322 80.8605 110.57 69.7445 111 69.2716" stroke="#05C2DF" stroke-width="1.00668"/>
</svg>
