<svg width="166" height="203" viewBox="0 0 166 203" fill="none" xmlns="http://www.w3.org/2000/svg">
<path d="M3 129.5H41V22.5H130" stroke="#05C2DF"/>
<path d="M6.04102 129.5C6.04102 131.157 4.69787 132.5 3.04102 132.5C1.38416 132.5 0.0410156 131.157 0.0410156 129.5C0.0410156 127.843 1.38416 126.5 3.04102 126.5C4.69787 126.5 6.04102 127.843 6.04102 129.5Z" fill="#05C2DF"/>
<path d="M133.958 22.5C133.958 24.1569 132.615 25.5 130.958 25.5C129.301 25.5 127.958 24.1569 127.958 22.5C127.958 20.8431 129.301 19.5 130.958 19.5C132.615 19.5 133.958 20.8431 133.958 22.5Z" fill="#05C2DF"/>
<path d="M165.083 1.10275C139.582 26.1061 123.03 60.4075 121.055 98.9178C119.052 137.976 132.409 174.262 155.827 201.892" stroke="#05C2DF"/>
</svg>
