<svg width="453" height="95" viewBox="0 0 453 95" fill="none" xmlns="http://www.w3.org/2000/svg">
<path d="M0.241477 7.86364V0.545454H29.3182V7.86364H19.2557V34H10.304V7.86364H0.241477ZM32.7363 34V0.545454H41.8187V13.6136H53.8414V0.545454H62.9238V34H53.8414V20.9318H41.8187V34H32.7363ZM67.2363 34V0.545454H91.3471V7.86364H76.3187V13.6136H90.1056V20.9318H76.3187V26.6818H91.2818V34H67.2363ZM133.962 0.545454V34H126.382L114.294 16.4233H114.098V34H105.016V0.545454H112.726L124.618 18.0568H124.879V0.545454H133.962ZM138.258 34V0.545454H162.369V7.86364H147.34V13.6136H161.127V20.9318H147.34V26.6818H162.303V34H138.258ZM175.367 34L165.501 0.545454H175.629L180.203 21.1278H180.464L185.887 0.545454H193.859L199.282 21.1932H199.544L204.117 0.545454H214.245L204.379 34H195.688L190.004 15.3125H189.742L184.058 34H175.367ZM244.384 11C244.297 9.91098 243.888 9.06155 243.159 8.4517C242.44 7.84185 241.345 7.53693 239.875 7.53693C238.939 7.53693 238.171 7.65128 237.572 7.87997C236.984 8.09777 236.548 8.39725 236.265 8.77841C235.982 9.15956 235.835 9.59517 235.824 10.0852C235.802 10.4882 235.873 10.853 236.036 11.1797C236.211 11.4955 236.483 11.7841 236.853 12.0455C237.223 12.2959 237.697 12.5246 238.274 12.7315C238.852 12.9384 239.538 13.1236 240.333 13.2869L243.077 13.875C244.928 14.267 246.513 14.7843 247.83 15.4268C249.148 16.0694 250.226 16.8262 251.065 17.6974C251.903 18.5578 252.519 19.527 252.911 20.6051C253.314 21.6832 253.521 22.8594 253.531 24.1335C253.521 26.3333 252.971 28.1955 251.882 29.7202C250.793 31.2448 249.235 32.4046 247.21 33.1996C245.195 33.9946 242.772 34.392 239.941 34.392C237.033 34.392 234.495 33.9619 232.328 33.1016C230.172 32.2412 228.495 30.9181 227.297 29.1321C226.11 27.3352 225.511 25.0374 225.5 22.2386H234.125C234.18 23.2623 234.436 24.1226 234.893 24.8196C235.35 25.5166 235.993 26.0447 236.82 26.4041C237.659 26.7635 238.655 26.9432 239.81 26.9432C240.779 26.9432 241.59 26.8234 242.244 26.5838C242.897 26.3442 243.393 26.0121 243.73 25.5874C244.068 25.1626 244.242 24.678 244.253 24.1335C244.242 23.6217 244.073 23.1752 243.747 22.794C243.431 22.402 242.908 22.0535 242.178 21.7486C241.449 21.4328 240.463 21.1387 239.222 20.8665L235.889 20.1477C232.927 19.5052 230.591 18.4325 228.882 16.9297C227.183 15.416 226.339 13.3523 226.35 10.7386C226.339 8.61506 226.905 6.75829 228.048 5.16832C229.203 3.56747 230.798 2.32055 232.835 1.42756C234.882 0.534563 237.229 0.0880669 239.875 0.0880669C242.576 0.0880669 244.912 0.540008 246.883 1.44389C248.854 2.34777 250.373 3.62192 251.441 5.26634C252.519 6.89986 253.063 8.81108 253.074 11H244.384ZM256.072 7.86364V0.545454H285.148V7.86364H275.086V34H266.134V7.86364H256.072ZM293.034 34H283.233L294.276 0.545454H306.69L317.733 34H307.932L300.614 9.75852H300.352L293.034 34ZM291.205 20.8011H309.631V27.5966H291.205V20.8011ZM320.955 34V0.545454H335.395C337.878 0.545454 340.051 0.997395 341.913 1.90128C343.775 2.80516 345.224 4.10653 346.258 5.8054C347.293 7.50426 347.81 9.54072 347.81 11.9148C347.81 14.3106 347.277 16.3307 346.209 17.9751C345.153 19.6196 343.666 20.861 341.75 21.6996C339.844 22.5381 337.617 22.9574 335.069 22.9574H326.444V15.9006H333.239C334.306 15.9006 335.216 15.7699 335.967 15.5085C336.729 15.2363 337.312 14.8061 337.715 14.218C338.129 13.63 338.336 12.8622 338.336 11.9148C338.336 10.9564 338.129 10.1778 337.715 9.57884C337.312 8.96899 336.729 8.52249 335.967 8.23934C335.216 7.94531 334.306 7.79829 333.239 7.79829H330.037V34H320.955ZM340.557 18.6449L348.921 34H339.055L330.887 18.6449H340.557ZM350.767 7.86364V0.545454H379.844V7.86364H369.781V34H360.829V7.86364H350.767ZM424.835 17.2727C424.835 20.9972 424.111 24.139 422.662 26.6982C421.214 29.2464 419.259 31.1795 416.798 32.4972C414.337 33.804 411.592 34.4574 408.565 34.4574C405.516 34.4574 402.761 33.7985 400.299 32.4808C397.849 31.1522 395.9 29.2138 394.451 26.6655C393.014 24.1063 392.295 20.9754 392.295 17.2727C392.295 13.5483 393.014 10.4119 394.451 7.86364C395.9 5.30445 397.849 3.37145 400.299 2.06463C402.761 0.746921 405.516 0.0880669 408.565 0.0880669C411.592 0.0880669 414.337 0.746921 416.798 2.06463C419.259 3.37145 421.214 5.30445 422.662 7.86364C424.111 10.4119 424.835 13.5483 424.835 17.2727ZM415.491 17.2727C415.491 15.2689 415.224 13.581 414.691 12.2088C414.168 10.8258 413.389 9.7803 412.355 9.07244C411.331 8.35369 410.068 7.99432 408.565 7.99432C407.062 7.99432 405.793 8.35369 404.759 9.07244C403.735 9.7803 402.957 10.8258 402.423 12.2088C401.9 13.581 401.639 15.2689 401.639 17.2727C401.639 19.2765 401.9 20.9699 402.423 22.353C402.957 23.7251 403.735 24.7706 404.759 25.4893C405.793 26.1972 407.062 26.5511 408.565 26.5511C410.068 26.5511 411.331 26.1972 412.355 25.4893C413.389 24.7706 414.168 23.7251 414.691 22.353C415.224 20.9699 415.491 19.2765 415.491 17.2727ZM429.037 34V0.545454H452.56V7.86364H438.119V13.6136H451.122V20.9318H438.119V34H429.037Z" fill="white"/>
<path d="M4.4233 60.5455L14.3551 88.7074H14.7472L24.679 60.5455H28.9261L16.642 94H12.4602L0.176136 60.5455H4.4233ZM34.1371 94V60.5455H45.4411C48.0547 60.5455 50.2 60.9919 51.8771 61.8849C53.5542 62.767 54.7957 63.9813 55.6016 65.5277C56.4074 67.0741 56.8104 68.8329 56.8104 70.804C56.8104 72.7751 56.4074 74.523 55.6016 76.0476C54.7957 77.5722 53.5597 78.7701 51.8935 79.6413C50.2273 80.5017 48.0982 80.9318 45.5064 80.9318H36.3587V77.2727H45.3757C47.1617 77.2727 48.5992 77.0114 49.6882 76.4886C50.7881 75.9659 51.5831 75.2254 52.0732 74.267C52.5741 73.2978 52.8246 72.1435 52.8246 70.804C52.8246 69.4645 52.5741 68.2938 52.0732 67.2919C51.5722 66.29 50.7718 65.5168 49.6719 64.9723C48.572 64.4169 47.1181 64.1392 45.3104 64.1392H38.1882V94H34.1371ZM49.8842 78.9716L58.1172 94H53.4126L45.3104 78.9716H49.8842ZM76.4984 94V60.5455H80.5495V90.4062H96.1007V94H76.4984ZM129.298 77.2727C129.298 80.8011 128.661 83.8504 127.387 86.4205C126.113 88.9905 124.365 90.9725 122.143 92.3665C119.922 93.7604 117.384 94.4574 114.531 94.4574C111.678 94.4574 109.14 93.7604 106.919 92.3665C104.697 90.9725 102.949 88.9905 101.675 86.4205C100.401 83.8504 99.7638 80.8011 99.7638 77.2727C99.7638 73.7443 100.401 70.6951 101.675 68.125C102.949 65.5549 104.697 63.5729 106.919 62.179C109.14 60.785 111.678 60.0881 114.531 60.0881C117.384 60.0881 119.922 60.785 122.143 62.179C124.365 63.5729 126.113 65.5549 127.387 68.125C128.661 70.6951 129.298 73.7443 129.298 77.2727ZM125.377 77.2727C125.377 74.3759 124.893 71.9311 123.924 69.9382C122.965 67.9453 121.664 66.437 120.02 65.4134C118.386 64.3897 116.556 63.8778 114.531 63.8778C112.505 63.8778 110.67 64.3897 109.026 65.4134C107.392 66.437 106.091 67.9453 105.122 69.9382C104.163 71.9311 103.684 74.3759 103.684 77.2727C103.684 80.1695 104.163 82.6143 105.122 84.6072C106.091 86.6001 107.392 88.1084 109.026 89.1321C110.67 90.1558 112.505 90.6676 114.531 90.6676C116.556 90.6676 118.386 90.1558 120.02 89.1321C121.664 88.1084 122.965 86.6001 123.924 84.6072C124.893 82.6143 125.377 80.1695 125.377 77.2727ZM163.03 71H158.979C158.739 69.8348 158.32 68.8111 157.721 67.929C157.133 67.0469 156.414 66.3063 155.565 65.7074C154.726 65.0975 153.795 64.6402 152.772 64.3352C151.748 64.0303 150.681 63.8778 149.57 63.8778C147.544 63.8778 145.709 64.3897 144.065 65.4134C142.431 66.437 141.13 67.9453 140.161 69.9382C139.203 71.9311 138.723 74.3759 138.723 77.2727C138.723 80.1695 139.203 82.6143 140.161 84.6072C141.13 86.6001 142.431 88.1084 144.065 89.1321C145.709 90.1558 147.544 90.6676 149.57 90.6676C150.681 90.6676 151.748 90.5152 152.772 90.2102C153.795 89.9053 154.726 89.4534 155.565 88.8544C156.414 88.2446 157.133 87.4986 157.721 86.6165C158.32 85.7235 158.739 84.6998 158.979 83.5455H163.03C162.725 85.2552 162.17 86.7853 161.364 88.1357C160.558 89.486 159.556 90.6349 158.358 91.5824C157.16 92.5189 155.815 93.2322 154.324 93.7223C152.842 94.2124 151.258 94.4574 149.57 94.4574C146.717 94.4574 144.179 93.7604 141.958 92.3665C139.736 90.9725 137.988 88.9905 136.714 86.4205C135.44 83.8504 134.803 80.8011 134.803 77.2727C134.803 73.7443 135.44 70.6951 136.714 68.125C137.988 65.5549 139.736 63.5729 141.958 62.179C144.179 60.785 146.717 60.0881 149.57 60.0881C151.258 60.0881 152.842 60.3331 154.324 60.8232C155.815 61.3132 157.16 62.032 158.358 62.9794C159.556 63.916 160.558 65.0594 161.364 66.4098C162.17 67.7493 162.725 69.2794 163.03 71ZM197.804 77.2727C197.804 80.8011 197.167 83.8504 195.893 86.4205C194.618 88.9905 192.871 90.9725 190.649 92.3665C188.427 93.7604 185.89 94.4574 183.037 94.4574C180.184 94.4574 177.646 93.7604 175.425 92.3665C173.203 90.9725 171.455 88.9905 170.181 86.4205C168.907 83.8504 168.27 80.8011 168.27 77.2727C168.27 73.7443 168.907 70.6951 170.181 68.125C171.455 65.5549 173.203 63.5729 175.425 62.179C177.646 60.785 180.184 60.0881 183.037 60.0881C185.89 60.0881 188.427 60.785 190.649 62.179C192.871 63.5729 194.618 65.5549 195.893 68.125C197.167 70.6951 197.804 73.7443 197.804 77.2727ZM193.883 77.2727C193.883 74.3759 193.399 71.9311 192.43 69.9382C191.471 67.9453 190.17 66.437 188.525 65.4134C186.892 64.3897 185.062 63.8778 183.037 63.8778C181.011 63.8778 179.176 64.3897 177.532 65.4134C175.898 66.437 174.597 67.9453 173.628 69.9382C172.669 71.9311 172.19 74.3759 172.19 77.2727C172.19 80.1695 172.669 82.6143 173.628 84.6072C174.597 86.6001 175.898 88.1084 177.532 89.1321C179.176 90.1558 181.011 90.6676 183.037 90.6676C185.062 90.6676 186.892 90.1558 188.525 89.1321C190.17 88.1084 191.471 86.6001 192.43 84.6072C193.399 82.6143 193.883 80.1695 193.883 77.2727ZM204.616 60.5455H209.451L220.82 88.3153H221.212L232.581 60.5455H237.417V94H233.627V68.5824H233.3L222.846 94H219.187L208.732 68.5824H208.405V94H204.616V60.5455ZM273.767 77.2727C273.767 80.8011 273.13 83.8504 271.855 86.4205C270.581 88.9905 268.833 90.9725 266.612 92.3665C264.39 93.7604 261.853 94.4574 259 94.4574C256.146 94.4574 253.609 93.7604 251.387 92.3665C249.166 90.9725 247.418 88.9905 246.144 86.4205C244.87 83.8504 244.233 80.8011 244.233 77.2727C244.233 73.7443 244.87 70.6951 246.144 68.125C247.418 65.5549 249.166 63.5729 251.387 62.179C253.609 60.785 256.146 60.0881 259 60.0881C261.853 60.0881 264.39 60.785 266.612 62.179C268.833 63.5729 270.581 65.5549 271.855 68.125C273.13 70.6951 273.767 73.7443 273.767 77.2727ZM269.846 77.2727C269.846 74.3759 269.362 71.9311 268.392 69.9382C267.434 67.9453 266.133 66.437 264.488 65.4134C262.855 64.3897 261.025 63.8778 259 63.8778C256.974 63.8778 255.139 64.3897 253.495 65.4134C251.861 66.437 250.56 67.9453 249.591 69.9382C248.632 71.9311 248.153 74.3759 248.153 77.2727C248.153 80.1695 248.632 82.6143 249.591 84.6072C250.56 86.6001 251.861 88.1084 253.495 89.1321C255.139 90.1558 256.974 90.6676 259 90.6676C261.025 90.6676 262.855 90.1558 264.488 89.1321C266.133 88.1084 267.434 86.6001 268.392 84.6072C269.362 82.6143 269.846 80.1695 269.846 77.2727ZM277.356 64.1392V60.5455H302.447V64.1392H291.927V94H287.876V64.1392H277.356ZM312.751 60.5455V94H308.7V60.5455H312.751ZM349.101 77.2727C349.101 80.8011 348.464 83.8504 347.189 86.4205C345.915 88.9905 344.167 90.9725 341.946 92.3665C339.724 93.7604 337.187 94.4574 334.334 94.4574C331.48 94.4574 328.943 93.7604 326.721 92.3665C324.5 90.9725 322.752 88.9905 321.478 86.4205C320.204 83.8504 319.567 80.8011 319.567 77.2727C319.567 73.7443 320.204 70.6951 321.478 68.125C322.752 65.5549 324.5 63.5729 326.721 62.179C328.943 60.785 331.48 60.0881 334.334 60.0881C337.187 60.0881 339.724 60.785 341.946 62.179C344.167 63.5729 345.915 65.5549 347.189 68.125C348.464 70.6951 349.101 73.7443 349.101 77.2727ZM345.18 77.2727C345.18 74.3759 344.696 71.9311 343.726 69.9382C342.768 67.9453 341.467 66.437 339.822 65.4134C338.189 64.3897 336.359 63.8778 334.334 63.8778C332.308 63.8778 330.473 64.3897 328.829 65.4134C327.195 66.437 325.894 67.9453 324.925 69.9382C323.966 71.9311 323.487 74.3759 323.487 77.2727C323.487 80.1695 323.966 82.6143 324.925 84.6072C325.894 86.6001 327.195 88.1084 328.829 89.1321C330.473 90.1558 332.308 90.6676 334.334 90.6676C336.359 90.6676 338.189 90.1558 339.822 89.1321C341.467 88.1084 342.768 86.6001 343.726 84.6072C344.696 82.6143 345.18 80.1695 345.18 77.2727ZM382.441 60.5455V94H378.52L360.29 67.733H359.964V94H355.912V60.5455H359.833L378.128 86.8778H378.455V60.5455H382.441Z" fill="#05C2DF"/>
</svg>
