<svg width="51" height="332" viewBox="0 0 51 332" fill="none" xmlns="http://www.w3.org/2000/svg">
<path d="M49.3545 283.175L50.3544 283.167L50.3424 281.712L48.9886 282.244L49.3545 283.175ZM49.449 294.566L49.7959 295.504L50.4548 295.261L50.4489 294.558L49.449 294.566ZM40.0694 298.036L39.7225 297.099L39.0636 297.342L39.0695 298.045L40.0694 298.036ZM40.2171 315.828L39.2171 315.836L39.2229 316.539L39.8857 316.771L40.2171 315.828ZM49.6529 319.142L50.6528 319.133L50.647 318.431L49.9842 318.198L49.6529 319.142ZM49.7455 330.309L49.3951 331.246L50.7576 331.756L50.7455 330.301L49.7455 330.309ZM4.8045 313.498L3.80453 313.506L3.81023 314.193L4.45412 314.434L4.8045 313.498ZM4.69857 300.73L4.33271 299.799L3.6929 300.051L3.6986 300.738L4.69857 300.73ZM30.5247 312.452L30.1937 313.396L31.5365 313.867L31.5247 312.444L30.5247 312.452ZM30.4344 301.572L31.4344 301.564L31.4226 300.141L30.0878 300.634L30.4344 301.572ZM15.3761 307.138L15.0294 306.2L12.4251 307.162L15.0451 308.081L15.3761 307.138ZM48.3545 283.183L48.449 294.575L50.4489 294.558L50.3544 283.167L48.3545 283.183ZM49.102 293.629L39.7225 297.099L40.4164 298.974L49.7959 295.504L49.102 293.629ZM39.0695 298.045L39.2171 315.836L41.217 315.819L41.0694 298.028L39.0695 298.045ZM39.8857 316.771L49.3215 320.085L49.9842 318.198L40.5484 314.884L39.8857 316.771ZM48.6529 319.15L48.7456 330.318L50.7455 330.301L50.6528 319.133L48.6529 319.15ZM50.0959 329.373L5.15487 312.561L4.45412 314.434L49.3951 331.246L50.0959 329.373ZM5.80446 313.489L5.69853 300.722L3.6986 300.738L3.80453 313.506L5.80446 313.489ZM5.06443 301.661L49.7203 284.106L48.9886 282.244L4.33271 299.799L5.06443 301.661ZM31.5247 312.444L31.4344 301.564L29.4345 301.581L29.5247 312.46L31.5247 312.444ZM30.0878 300.634L15.0294 306.2L15.7228 308.076L30.7811 302.51L30.0878 300.634ZM15.0451 308.081L30.1937 313.396L30.8558 311.508L15.7071 306.194L15.0451 308.081ZM7.48469 246.974L8.29245 247.564L8.29523 247.56L7.48469 246.974ZM22.6301 244.192L23.1903 243.364L23.1853 243.36L22.6301 244.192ZM26.4112 248.641L25.5061 249.066L26.5398 251.266L27.3535 248.976L26.4112 248.641ZM30.1768 243.522L30.7835 244.317L30.788 244.313L30.1768 243.522ZM45.7471 245.664L46.5349 245.049L45.7471 245.664ZM49.3178 278.756L49.3261 279.756L50.3261 279.748L50.3178 278.748L49.3178 278.756ZM4.51935 279.128L3.51938 279.136L3.52768 280.136L4.52764 280.128L4.51935 279.128ZM31.1818 268.218L30.1818 268.226L30.1901 269.226L31.1901 269.218L31.1818 268.218ZM40.2694 268.143L40.2777 269.143L41.2777 269.134L41.2694 268.134L40.2694 268.143ZM39.0972 254.136L39.9322 253.586L39.9296 253.582L39.0972 254.136ZM32.1214 254.194L32.9655 254.73L32.9702 254.723L32.1214 254.194ZM13.4224 268.365L12.4224 268.374L12.4307 269.374L13.4307 269.365L13.4224 268.365ZM22.2541 268.292L22.2624 269.292L23.2623 269.284L23.254 268.284L22.2541 268.292ZM5.35949 259.856C5.31325 254.282 6.34239 250.235 8.29244 247.564L6.67695 246.384C4.36595 249.551 3.31165 254.098 3.35956 259.873L5.35949 259.856ZM8.29523 247.56C10.1874 244.941 12.9984 243.576 16.8966 243.544L16.88 241.544C12.4584 241.581 9.00036 243.169 6.67416 246.388L8.29523 247.56ZM16.8966 243.544C18.8657 243.527 20.5804 244.026 22.075 245.024L23.1853 243.36C21.3332 242.124 19.22 241.524 16.88 241.544L16.8966 243.544ZM22.07 245.021C23.569 246.034 24.712 247.376 25.5061 249.066L27.3163 248.216C26.3729 246.208 24.9952 244.584 23.1903 243.364L22.07 245.021ZM27.3535 248.976C28.0164 247.11 29.1523 245.561 30.7834 244.317L29.5702 242.727C27.6398 244.2 26.2653 246.064 25.4689 248.306L27.3535 248.976ZM30.788 244.313C32.3732 243.089 34.1608 242.473 36.1842 242.456L36.1676 240.456C33.7112 240.476 31.4993 241.237 29.5656 242.73L30.788 244.313ZM36.1842 242.456C40.0876 242.423 42.9608 243.725 44.9594 246.28L46.5349 245.049C44.0916 241.924 40.5839 240.419 36.1676 240.456L36.1842 242.456ZM44.9594 246.28C46.9871 248.874 48.1029 252.853 48.1487 258.381L50.1487 258.364C50.1011 252.628 48.9491 248.136 46.5349 245.049L44.9594 246.28ZM48.1487 258.381L48.3178 278.764L50.3178 278.748L50.1487 258.364L48.1487 258.381ZM49.3095 277.756L4.51105 278.128L4.52764 280.128L49.3261 279.756L49.3095 277.756ZM5.51931 279.119L5.35949 259.856L3.35956 259.873L3.51938 279.136L5.51931 279.119ZM31.1901 269.218L40.2777 269.143L40.2611 267.143L31.1735 267.218L31.1901 269.218ZM41.2694 268.134L41.1935 258.983L39.1936 258.999L39.2695 268.151L41.2694 268.134ZM41.1935 258.983C41.175 256.75 40.8004 254.903 39.9322 253.586L38.2622 254.686C38.82 255.533 39.1763 256.923 39.1936 258.999L41.1935 258.983ZM39.9296 253.582C38.9648 252.133 37.4277 251.486 35.5552 251.501L35.5718 253.501C36.9419 253.49 37.7606 253.933 38.2648 254.69L39.9296 253.582ZM35.5552 251.501C33.699 251.517 32.1897 252.193 31.2727 253.665L32.9702 254.723C33.4427 253.964 34.2282 253.512 35.5718 253.501L35.5552 251.501ZM31.2774 253.658C30.4312 254.989 30.0873 256.842 30.1059 259.075L32.1058 259.058C32.0886 256.982 32.4218 255.586 32.9655 254.73L31.2774 253.658ZM30.1059 259.075L30.1818 268.226L32.1817 268.21L32.1058 259.058L30.1059 259.075ZM13.4307 269.365L22.2624 269.292L22.2458 267.292L13.4141 267.365L13.4307 269.365ZM23.254 268.284L23.185 259.964L21.1851 259.981L21.2541 268.3L23.254 268.284ZM23.185 259.964C23.1668 257.766 22.7713 255.942 21.8473 254.649C20.8774 253.291 19.4287 252.659 17.6763 252.674L17.6929 254.674C18.9058 254.663 19.6897 255.069 20.22 255.811C20.7961 256.618 21.1683 257.955 21.1851 259.981L23.185 259.964ZM17.6763 252.674C15.9394 252.688 14.5169 253.348 13.5828 254.723C12.6943 256.03 12.3352 257.858 12.3534 260.054L14.3533 260.037C14.3365 258.01 14.6817 256.664 15.2369 255.847C15.7466 255.097 16.5073 254.683 17.6929 254.674L17.6763 252.674ZM12.3534 260.054L12.4224 268.374L14.4223 268.357L14.3533 260.037L12.3534 260.054ZM4.98346 223.21L4.05762 223.588L4.05857 223.591L4.98346 223.21ZM4.8255 204.171L5.75657 204.536L5.75748 204.534L4.8255 204.171ZM9.59521 196.643L10.3082 197.344L10.3154 197.337L9.59521 196.643ZM16.9146 191.718L16.5296 190.795L16.9146 191.718ZM35.474 191.564L35.8436 190.635L35.474 191.564ZM42.9061 196.367L43.611 195.658L43.611 195.658L42.9061 196.367ZM47.768 203.815L46.8422 204.193L46.8431 204.195L47.768 203.815ZM47.926 222.854L48.8571 223.219L48.858 223.217L47.926 222.854ZM43.1883 230.382L43.9013 231.083L43.9085 231.075L43.1883 230.382ZM35.8366 235.275L35.4516 234.352L35.8366 235.275ZM17.2773 235.429L16.9076 236.358L17.2773 235.429ZM9.87742 230.658L10.5824 229.949L10.5823 229.949L9.87742 230.658ZM16.9256 204.615L17.6258 205.329L17.629 205.325L16.9256 204.615ZM17.0745 222.566L16.383 223.288L16.3863 223.292L17.0745 222.566ZM35.8259 222.411L36.5261 223.124L36.5293 223.121L35.8259 222.411ZM35.6769 204.459L34.9854 205.181L34.9887 205.185L35.6769 204.459ZM5.90929 222.832C4.76308 220.025 4.17172 216.977 4.14437 213.681L2.14444 213.698C2.17373 217.228 2.8084 220.528 4.05762 223.588L5.90929 222.832ZM4.14437 213.681C4.11702 210.385 4.65786 207.34 5.75657 204.536L3.89443 203.806C2.69504 206.867 2.11515 210.168 2.14444 213.698L4.14437 213.681ZM5.75748 204.534C6.86177 201.695 8.38112 199.304 10.3082 197.344L8.88226 195.942C6.74742 198.113 5.08696 200.74 3.89352 203.809L5.75748 204.534ZM10.3154 197.337C12.2231 195.357 14.5462 193.79 17.2996 192.641L16.5296 190.795C13.5426 192.041 10.9862 193.758 8.875 195.949L10.3154 197.337ZM17.2996 192.641C20.0429 191.497 23.0025 190.908 26.188 190.881L26.1714 188.881C22.7438 188.91 19.5266 189.545 16.5296 190.795L17.2996 192.641ZM26.188 190.881C29.3735 190.855 32.3424 191.395 35.1044 192.494L35.8436 190.635C32.8263 189.435 29.599 188.853 26.1714 188.881L26.188 190.881ZM35.1044 192.494C37.8772 193.596 40.2382 195.125 42.2012 197.076L43.611 195.658C41.4437 193.504 38.85 191.831 35.8436 190.635L35.1044 192.494ZM42.2011 197.076C44.1405 199.004 45.6901 201.37 46.8422 204.193L48.6939 203.437C47.4506 200.391 45.7588 197.792 43.611 195.658L42.2011 197.076ZM46.8431 204.195C47.9882 206.98 48.5795 210.016 48.6068 213.312L50.6068 213.296C50.5775 209.765 49.9429 206.475 48.6929 203.435L46.8431 204.195ZM48.6068 213.312C48.6342 216.608 48.0935 219.665 46.994 222.492L48.858 223.217C50.0562 220.136 50.6361 216.826 50.6068 213.296L48.6068 213.312ZM46.9949 222.489C45.8896 225.31 44.3786 227.705 42.4681 229.688L43.9085 231.075C46.0168 228.887 47.6643 226.263 48.857 223.219L46.9949 222.489ZM42.4753 229.68C40.5446 231.644 38.208 233.202 35.4516 234.352L36.2216 236.198C39.2056 234.953 41.7701 233.25 43.9012 231.083L42.4753 229.68ZM35.4516 234.352C32.7083 235.496 29.7487 236.085 26.5632 236.112L26.5798 238.112C30.0075 238.083 33.2246 237.448 36.2216 236.198L35.4516 234.352ZM26.5632 236.112C23.3778 236.138 20.4088 235.598 17.6469 234.5L16.9076 236.358C19.925 237.558 23.1522 238.14 26.5798 238.112L26.5632 236.112ZM17.6469 234.5C14.8726 233.396 12.5228 231.877 10.5824 229.949L9.17248 231.367C11.3192 233.501 13.9026 235.163 16.9076 236.358L17.6469 234.5ZM10.5823 229.949C8.61924 227.998 7.05939 225.63 5.90834 222.83L4.05857 223.591C5.3026 226.617 7.0054 229.214 9.17252 231.367L10.5823 229.949ZM16.2254 203.901C13.6219 206.454 12.3518 209.72 12.3841 213.613L14.384 213.596C14.3558 210.193 15.4467 207.466 17.6258 205.329L16.2254 203.901ZM12.3841 213.613C12.4164 217.505 13.7405 220.758 16.383 223.288L17.7661 221.844C15.5485 219.721 14.4123 216.999 14.384 213.596L12.3841 213.613ZM16.3863 223.292C19.0318 225.801 22.4295 227.01 26.4874 226.976L26.4708 224.976C22.849 225.006 19.977 223.941 17.7628 221.841L16.3863 223.292ZM26.4874 226.976C30.5453 226.942 33.9226 225.678 36.5261 223.124L35.1257 221.697C32.9466 223.834 30.0927 224.946 26.4708 224.976L26.4874 226.976ZM36.5293 223.121C39.1295 220.548 40.3994 217.273 40.3671 213.381L38.3672 213.397C38.3954 216.8 37.3045 219.54 35.1224 221.7L36.5293 223.121ZM40.3671 213.381C40.3348 209.488 39.0107 206.243 36.3652 203.734L34.9887 205.185C37.203 207.285 38.339 209.994 38.3672 213.397L40.3671 213.381ZM36.3685 203.737C33.7233 201.204 30.3243 199.983 26.2638 200.017L26.2804 202.017C29.8996 201.987 32.7705 203.061 34.9854 205.181L36.3685 203.737ZM26.2638 200.017C22.2032 200.051 18.825 201.328 16.2221 203.904L17.629 205.325C19.8084 203.168 22.6612 202.047 26.2804 202.017L26.2638 200.017ZM44.1845 149.882L44.9058 149.189L44.9035 149.187L44.1845 149.882ZM44.4239 178.745L45.1545 179.428L45.1566 179.425L44.4239 178.745ZM3.73206 184.234L2.73209 184.243L2.74039 185.243L3.74036 185.234L3.73206 184.234ZM3.64312 173.515L3.63483 172.515L2.63486 172.523L2.64316 173.523L3.64312 173.515ZM36.7103 170.872L37.4328 171.564L37.4376 171.559L36.7103 170.872ZM36.6023 157.849L37.3181 157.151L37.3132 157.146L36.6023 157.849ZM3.49578 155.755L2.49582 155.764L2.50411 156.764L3.50408 156.755L3.49578 155.755ZM3.40685 145.036L3.39855 144.036L2.39858 144.044L2.40688 145.044L3.40685 145.036ZM30.1342 145.814C35.9972 145.765 40.3904 147.395 43.4654 150.577L44.9035 149.187C41.3507 145.511 36.3716 143.762 30.1176 143.814L30.1342 145.814ZM43.4632 150.574C46.5312 153.769 48.1504 158.293 48.2001 164.281L50.2 164.264C50.1474 157.922 48.4229 152.852 44.9057 149.189L43.4632 150.574ZM48.2001 164.281C48.2497 170.269 46.7058 174.819 43.6912 178.064L45.1566 179.425C48.6125 175.705 50.2526 170.606 50.2 164.264L48.2001 164.281ZM43.6933 178.062C40.6945 181.27 36.3305 182.964 30.4428 183.013L30.4594 185.013C36.7314 184.961 41.6826 183.142 45.1545 179.428L43.6933 178.062ZM30.4428 183.013L3.72376 183.234L3.74036 185.234L30.4594 185.013L30.4428 183.013ZM4.73203 184.226L4.64309 173.507L2.64316 173.523L2.73209 184.243L4.73203 184.226ZM3.65142 174.515L29.9545 174.297L29.9379 172.297L3.63483 172.515L3.65142 174.515ZM29.9545 174.297C33.1119 174.27 35.6644 173.412 37.4328 171.564L35.9879 170.181C34.7106 171.516 32.7536 172.273 29.9379 172.297L29.9545 174.297ZM37.4376 171.559C39.1589 169.735 39.9527 167.29 39.9283 164.349L37.9284 164.366C37.9497 166.93 37.2648 168.828 35.983 170.186L37.4376 171.559ZM39.9283 164.349C39.9038 161.39 39.0708 158.947 37.3181 157.151L35.8865 158.547C37.1892 159.883 37.9069 161.779 37.9284 164.366L39.9283 164.349ZM37.3132 157.146C35.5144 155.327 32.948 154.511 29.7906 154.537L29.8072 156.537C32.6229 156.514 34.5921 157.239 35.8914 158.552L37.3132 157.146ZM29.7906 154.537L3.48749 154.755L3.50408 156.755L29.8072 156.537L29.7906 154.537ZM4.49575 155.747L4.40681 145.027L2.40688 145.044L2.49582 155.764L4.49575 155.747ZM3.41514 146.036L30.1342 145.814L30.1176 143.814L3.39855 144.036L3.41514 146.036ZM12.9808 103.287L13.9808 103.279L13.9725 102.279L12.9725 102.287L12.9808 103.287ZM13.0907 116.534L12.0908 116.543L12.0991 117.543L13.099 117.534L13.0907 116.534ZM47.9695 116.245L48.9695 116.237L48.9612 115.237L47.9612 115.245L47.9695 116.245ZM48.0582 126.933L48.0665 127.933L49.0665 127.924L49.0582 126.924L48.0582 126.933ZM13.1794 127.222L13.1711 126.222L12.1711 126.23L12.1794 127.23L13.1794 127.222ZM13.2896 140.502L13.2979 141.502L14.2978 141.493L14.2895 140.493L13.2896 140.502ZM3.36991 140.584L2.36995 140.592L2.37824 141.592L3.37821 141.584L3.36991 140.584ZM3.06116 103.369L3.05286 102.369L2.0529 102.378L2.06119 103.378L3.06116 103.369ZM11.9809 103.295L12.0908 116.543L14.0907 116.526L13.9808 103.279L11.9809 103.295ZM13.099 117.534L47.9778 117.245L47.9612 115.245L13.0824 115.535L13.099 117.534ZM46.9696 116.253L47.0582 126.941L49.0582 126.924L48.9695 116.237L46.9696 116.253ZM48.0499 125.933L13.1711 126.222L13.1877 128.222L48.0665 127.933L48.0499 125.933ZM12.1794 127.23L12.2896 140.51L14.2895 140.493L14.1794 127.214L12.1794 127.23ZM13.2813 139.502L3.36161 139.584L3.37821 141.584L13.2979 141.502L13.2813 139.502ZM4.36988 140.576L4.06112 103.361L2.06119 103.378L2.36995 140.592L4.36988 140.576ZM3.06945 104.369L12.9891 104.287L12.9725 102.287L3.05286 102.369L3.06945 104.369ZM43.3636 50.9476L44.0849 50.2549L44.0827 50.2526L43.3636 50.9476ZM43.6031 79.8106L44.3337 80.4934L44.3358 80.4911L43.6031 79.8106ZM2.91125 85.3004L1.91128 85.3087L1.91958 86.3086L2.91954 86.3003L2.91125 85.3004ZM2.82231 74.5807L2.81402 73.5807L1.81405 73.589L1.82235 74.589L2.82231 74.5807ZM35.8895 71.9383L36.612 72.6297L36.6168 72.6246L35.8895 71.9383ZM35.7815 58.9147L36.4973 58.2164L36.4924 58.2115L35.7815 58.9147ZM2.67497 56.8213L1.67501 56.8296L1.6833 57.8296L2.68327 57.8213L2.67497 56.8213ZM2.58604 46.1017L2.57774 45.1017L1.57777 45.11L1.58607 46.11L2.58604 46.1017ZM29.3134 46.88C35.1764 46.8314 39.5696 48.461 42.6446 51.6426L44.0827 50.2526C40.5299 46.5769 35.5508 44.8282 29.2968 44.8801L29.3134 46.88ZM42.6424 51.6402C45.7103 54.8351 47.3296 59.3585 47.3792 65.3468L49.3792 65.3302C49.3266 58.9881 47.6021 53.9176 44.0849 50.2549L42.6424 51.6402ZM47.3792 65.3468C47.4289 71.335 45.885 75.8846 42.8704 79.13L44.3358 80.4911C47.7917 76.7706 49.4318 71.6722 49.3792 65.3302L47.3792 65.3468ZM42.8725 79.1278C39.8737 82.3363 35.5097 84.0299 29.622 84.0787L29.6386 86.0787C35.9106 86.0266 40.8618 84.2081 44.3337 80.4934L42.8725 79.1278ZM29.622 84.0787L2.90295 84.3004L2.91954 86.3003L29.6386 86.0787L29.622 84.0787ZM3.91121 85.2921L3.82228 74.5724L1.82235 74.589L1.91128 85.3087L3.91121 85.2921ZM2.83061 75.5807L29.1337 75.3625L29.1171 73.3625L2.81402 73.5807L2.83061 75.5807ZM29.1337 75.3625C32.2911 75.3363 34.8436 74.4777 36.612 72.6297L35.167 71.2469C33.8897 72.5817 31.9328 73.3392 29.1171 73.3625L29.1337 75.3625ZM36.6168 72.6246C38.3381 70.8005 39.1319 68.3556 39.1075 65.4154L37.1076 65.432C37.1289 67.9955 36.444 69.8937 35.1622 71.252L36.6168 72.6246ZM39.1075 65.4154C39.083 62.4563 38.25 60.0131 36.4973 58.2165L35.0657 59.613C36.3684 60.9485 37.0861 62.8446 37.1076 65.432L39.1075 65.4154ZM36.4924 58.2115C34.6936 56.3931 32.1272 55.577 28.9698 55.6032L28.9864 57.6031C31.8021 57.5797 33.7713 58.3047 35.0706 59.618L36.4924 58.2115ZM28.9698 55.6032L2.66667 55.8214L2.68327 57.8213L28.9864 57.6031L28.9698 55.6032ZM3.67494 56.813L3.586 46.0934L1.58607 46.11L1.67501 56.8296L3.67494 56.813ZM2.59433 47.1017L29.3134 46.88L29.2968 44.8801L2.57774 45.1017L2.59433 47.1017ZM14.9644 6.79365L15.832 7.29087L16.3447 6.39626L15.4348 5.91121L14.9644 6.79365ZM12.3934 24.7676L11.5178 25.2507L11.5212 25.2568L12.3934 24.7676ZM16.5988 26.3648L17.074 27.2447L16.5988 26.3648ZM17.5822 25.3326L18.4407 25.8454L18.4536 25.8238L18.4655 25.8015L17.5822 25.3326ZM18.2751 23.9828L19.1732 24.4226L19.1875 24.3933L19.1999 24.3632L18.2751 23.9828ZM18.8346 21.9941L19.8104 22.2125L19.8134 22.1995L19.8159 22.1863L18.8346 21.9941ZM19.6606 17.4111L20.646 17.5818L20.6474 17.5728L19.6606 17.4111ZM19.9652 15.5525L18.9787 15.3887L18.9784 15.3907L19.9652 15.5525ZM24.2622 5.05246L25.0223 5.70236L25.025 5.6991L24.2622 5.05246ZM38.4157 2.27893L38.0421 3.20653L38.048 3.20887L38.4157 2.27893ZM42.6947 5.02753L41.9869 5.73401L42.6947 5.02753ZM45.6413 9.19524L44.7459 9.6404L44.7482 9.64508L45.6413 9.19524ZM47.4118 14.3007L46.4328 14.505L46.4333 14.5072L47.4118 14.3007ZM46.621 30.8519L47.5852 31.117L47.5857 31.1155L46.621 30.8519ZM42.4702 39.6866L41.9541 40.5431L42.729 41.0101L43.2709 40.2856L42.4702 39.6866ZM33.7222 34.415L32.8896 33.861L32.3103 34.7317L33.206 35.2715L33.7222 34.415ZM37.2076 14.8014L38.0864 14.3242L38.0803 14.3133L37.2076 14.8014ZM32.6824 13.2389L33.2234 14.0799L33.2234 14.0799L32.6824 13.2389ZM31.667 14.2713L32.5099 14.8093L31.667 14.2713ZM30.9144 16.1336L31.8753 16.4107L31.8772 16.4037L30.9144 16.1336ZM30.3583 18.5384L31.3385 18.7362L31.3411 18.7238L31.3432 18.7113L30.3583 18.5384ZM29.8089 21.743L28.8204 21.592L28.8198 21.596L29.8089 21.743ZM29.4755 23.9859L30.4644 24.1341L30.4646 24.1329L29.4755 23.9859ZM25.1478 34.6461L25.8832 35.3238L25.8864 35.3202L25.1478 34.6461ZM15.9285 38.1468L15.9418 37.1468L15.94 37.1468L15.9285 38.1468ZM5.55038 33.1127L6.33544 32.4932L6.33544 32.4932L5.55038 33.1127ZM2.52036 11.185L3.49332 11.416L3.49373 11.4143L2.52036 11.185ZM6.1571 2.09855L6.62752 1.21611L5.75106 0.74888L5.27787 1.62216L6.1571 2.09855ZM14.0967 6.29644C11.5427 10.7531 10.258 15.2135 10.295 19.6648L12.2949 19.6482C12.2614 15.6093 13.423 11.4944 15.832 7.29087L14.0967 6.29644ZM10.295 19.6648C10.3133 21.8763 10.6958 23.7609 11.5178 25.2507L13.2689 24.2845C12.6614 23.1834 12.3116 21.6607 12.2949 19.6482L10.295 19.6648ZM11.5212 25.2568C12.3837 26.7946 13.6905 27.677 15.3935 27.6628L15.3769 25.6629C14.52 25.67 13.8323 25.2889 13.2656 24.2784L11.5212 25.2568ZM15.3935 27.6628C15.9893 27.6579 16.5565 27.5241 17.074 27.2447L16.1236 25.4849C15.9189 25.5954 15.6771 25.6604 15.3769 25.6629L15.3935 27.6628ZM17.074 27.2447C17.6446 26.9364 18.089 26.4343 18.4407 25.8454L16.7238 24.8197C16.4864 25.2171 16.2751 25.4031 16.1236 25.4849L17.074 27.2447ZM18.4655 25.8015C18.742 25.2807 18.9782 24.8207 19.1732 24.4226L17.377 23.543C17.1943 23.916 16.9687 24.3558 16.699 24.8636L18.4655 25.8015ZM19.1999 24.3632C19.4017 23.8727 19.603 23.1392 19.8104 22.2125L17.8587 21.7757C17.6547 22.6871 17.4831 23.2794 17.3503 23.6024L19.1999 24.3632ZM19.8159 22.1863C20.0004 21.2446 20.135 20.5306 20.2184 20.0494L18.2477 19.708C18.1682 20.1668 18.0372 20.8631 17.8533 21.8018L19.8159 22.1863ZM20.2184 20.0494C20.2998 19.5794 20.4423 18.7568 20.6459 17.5818L18.6753 17.2403C18.4717 18.4154 18.3292 19.2379 18.2477 19.708L20.2184 20.0494ZM20.6474 17.5728L20.952 15.7142L18.9784 15.3907L18.6738 17.2493L20.6474 17.5728ZM20.9517 15.7162C21.6853 11.2964 23.0668 7.9892 25.0223 5.70236L23.5022 4.40255C21.2319 7.05762 19.7486 10.7504 18.9787 15.3887L20.9517 15.7162ZM25.025 5.6991C26.9325 3.44895 29.4736 2.29712 32.7514 2.26993L32.7348 0.269994C28.9303 0.301559 25.8174 1.67139 23.4994 4.40581L25.025 5.6991ZM32.7514 2.26993C34.7057 2.25371 36.4648 2.57116 38.0421 3.2065L38.7894 1.35136C36.9417 0.607083 34.9191 0.251872 32.7348 0.269994L32.7514 2.26993ZM38.048 3.20887C39.625 3.83249 40.9319 4.67709 41.9869 5.73401L43.4024 4.32104C42.1341 3.05051 40.5883 2.06272 38.7834 1.349L38.048 3.20887ZM41.9869 5.73401C43.0654 6.81434 43.9866 8.11304 44.7459 9.6404L46.5368 8.75008C45.6906 7.04797 44.6474 5.5682 43.4024 4.32104L41.9869 5.73401ZM44.7482 9.64508C45.5102 11.1579 46.0723 12.7768 46.4328 14.505L48.3907 14.0965C47.9958 12.2041 47.3776 10.4194 46.5344 8.7454L44.7482 9.64508ZM46.4333 14.5072C46.7961 16.2264 46.9867 18.0355 47.0025 19.9363L49.0024 19.9197C48.9856 17.8953 48.7824 15.9529 48.3902 14.0942L46.4333 14.5072ZM47.0025 19.9363C47.0333 23.6464 46.5834 27.1959 45.6564 30.5882L47.5857 31.1155C48.5635 27.5371 49.0347 23.8041 49.0024 19.9197L47.0025 19.9363ZM45.6568 30.5867C44.7313 33.9521 43.3967 36.7786 41.6694 39.0876L43.2709 40.2856C45.1729 37.743 46.6055 34.6796 47.5852 31.117L45.6568 30.5867ZM42.9863 38.8301L34.2383 33.5585L33.206 35.2715L41.9541 40.5431L42.9863 38.8301ZM34.5547 34.969C37.7497 30.1673 39.3494 25.14 39.306 19.9042L37.306 19.9208C37.3458 24.7113 35.8896 29.3523 32.8896 33.861L34.5547 34.969ZM39.306 19.9042C39.2878 17.7109 38.9043 15.8306 38.0864 14.3242L36.3287 15.2786C36.9407 16.4057 37.2895 17.9328 37.306 19.9208L39.306 19.9042ZM38.0803 14.3133C37.1924 12.7255 35.8393 11.8287 34.0789 11.8433L34.0955 13.8432C35.023 13.8355 35.7501 14.2441 36.3348 15.2895L38.0803 14.3133ZM34.0789 11.8433C33.3785 11.8491 32.7211 12.025 32.1414 12.3979L33.2234 14.0799C33.4501 13.9341 33.7292 13.8462 34.0955 13.8432L34.0789 11.8433ZM32.1414 12.3979C31.6095 12.74 31.1706 13.1904 30.824 13.7333L32.5099 14.8093C32.7109 14.4944 32.9489 14.2565 33.2234 14.0799L32.1414 12.3979ZM30.824 13.7333C30.474 14.2818 30.191 15.0098 29.9516 15.8636L31.8772 16.4037C32.0936 15.6323 32.3124 15.1188 32.5099 14.8093L30.824 13.7333ZM29.9535 15.8567C29.7155 16.6821 29.5222 17.5184 29.3734 18.3653L31.3432 18.7113C31.4797 17.9345 31.657 17.1677 31.8753 16.4106L29.9535 15.8567ZM29.3781 18.3405C29.2097 19.1745 29.0238 20.2602 28.8204 21.592L30.7974 21.8941C30.9986 20.5771 31.1791 19.5263 31.3385 18.7362L29.3781 18.3405ZM28.8198 21.596L28.4864 23.8388L30.4646 24.1329L30.798 21.89L28.8198 21.596ZM28.4865 23.8376C27.7951 28.4506 26.4032 31.787 24.4091 33.972L25.8864 35.3202C28.2475 32.733 29.7408 28.9625 30.4644 24.1341L28.4865 23.8376ZM24.4124 33.9685C22.4469 36.1015 19.6717 37.1965 15.9418 37.1468L15.9152 39.1467C20.0797 39.2021 23.4508 37.9635 25.8832 35.3238L24.4124 33.9685ZM15.94 37.1468C11.924 37.1006 8.75214 35.5562 6.33544 32.4932L4.76532 33.7321C7.56633 37.2821 11.3132 39.0937 15.917 39.1467L15.94 37.1468ZM6.33544 32.4932C3.89603 29.4015 2.61375 25.3354 2.57122 20.2089L0.571291 20.2255C0.616545 25.6801 1.98702 30.2109 4.76532 33.7321L6.33544 32.4932ZM2.57122 20.2089C2.5449 17.0363 2.8546 14.1068 3.49332 11.416L1.54739 10.9541C0.866845 13.8211 0.543809 16.9131 0.571291 20.2255L2.57122 20.2089ZM3.49373 11.4143C4.12804 8.72084 5.30204 5.77564 7.03632 2.57498L5.27787 1.62216C3.48208 4.93634 2.23159 8.04878 1.54699 10.9558L3.49373 11.4143ZM5.68667 2.981L14.4939 7.6761L15.4348 5.91121L6.62752 1.21611L5.68667 2.981Z" fill="#05C2DF" fill-opacity="0.5"/>
</svg>
