<svg width="222" height="260" viewBox="0 0 222 260" fill="none" xmlns="http://www.w3.org/2000/svg">
<path d="M0.996918 17.1272L-0.00304807 17.1354L0.00311352 17.8781L0.715865 18.0868L0.996918 17.1272ZM0.912069 6.90023L1.21762 5.94805L-0.0993721 5.52543L-0.0878971 6.90853L0.912069 6.90023ZM35.9156 18.1329L36.9155 18.1246L36.9095 17.4017L36.2211 17.1808L35.9156 18.1329ZM36.023 31.087L36.3443 32.034L37.029 31.8017L37.023 31.0787L36.023 31.087ZM1.21074 42.899L0.210771 42.9073L0.222246 44.2904L1.53205 43.846L1.21074 42.899ZM1.12589 32.6721L0.828951 31.7172L0.119761 31.9377L0.125922 32.6804L1.12589 32.6721ZM26.3571 24.8261L26.6541 25.781L27.3632 25.5605L27.3571 24.8178L26.3571 24.8261ZM26.3549 24.5534L27.3548 24.5451L27.3487 23.8024L26.6359 23.5937L26.3549 24.5534ZM14.7533 15.1039L15.7533 15.0956L15.745 14.0956L14.745 14.1039L14.7533 15.1039ZM14.9128 34.3305L14.9211 35.3304L15.9211 35.3221L15.9128 34.3222L14.9128 34.3305ZM7.82218 34.3893L6.82222 34.3976L6.83051 35.3976L7.83048 35.3893L7.82218 34.3893ZM7.66267 15.1627L7.65437 14.1627L6.65441 14.171L6.6627 15.171L7.66267 15.1627ZM1.99688 17.1189L1.91203 6.89193L-0.0878971 6.90853L-0.00304807 17.1354L1.99688 17.1189ZM0.606513 7.8524L35.61 19.0851L36.2211 17.1808L1.21762 5.94805L0.606513 7.8524ZM34.9156 18.1412L35.0231 31.0953L37.023 31.0787L36.9155 18.1246L34.9156 18.1412ZM35.7017 30.1401L0.889425 41.952L1.53205 43.846L36.3443 32.034L35.7017 30.1401ZM2.2107 42.8907L2.12585 32.6638L0.125922 32.6804L0.210771 42.9073L2.2107 42.8907ZM1.42283 33.627L26.6541 25.781L26.0602 23.8712L0.828951 31.7172L1.42283 33.627ZM27.3571 24.8178L27.3548 24.5451L25.3549 24.5617L25.3572 24.8344L27.3571 24.8178ZM26.6359 23.5937L1.27797 16.1675L0.715865 18.0868L26.0738 25.5131L26.6359 23.5937ZM13.7534 15.1122L13.9129 34.3388L15.9128 34.3222L15.7533 15.0956L13.7534 15.1122ZM14.9046 33.3305L7.81389 33.3893L7.83048 35.3893L14.9211 35.3304L14.9046 33.3305ZM8.82215 34.381L8.66263 15.1544L6.6627 15.171L6.82222 34.3976L8.82215 34.381ZM7.67096 16.1627L14.7616 16.1038L14.745 14.1039L7.65437 14.1627L7.67096 16.1627ZM1.23863 46.2611L1.23033 45.2611L0.230369 45.2694L0.238665 46.2694L1.23863 46.2611ZM36.1465 45.9715L37.1465 45.9632L37.1382 44.9632L36.1382 44.9715L36.1465 45.9715ZM35.2538 67.8149L34.3211 67.4542L34.3204 67.4562L35.2538 67.8149ZM32.2539 71.9478L31.6713 71.1351L31.6666 71.1385L32.2539 71.9478ZM24.1281 72.5607L24.5943 71.676L24.5868 71.6722L24.1281 72.5607ZM21.4496 70.2306L20.6338 70.809L20.6382 70.8151L21.4496 70.2306ZM19.9543 66.6974L20.9329 66.4916L20.7644 65.6907L19.946 65.6975L19.9543 66.6974ZM19.6134 66.7003L19.6051 65.7003L18.6423 65.7083L18.6138 66.6707L19.6134 66.7003ZM18.5053 70.8005L17.6339 70.3098L17.6305 70.316L18.5053 70.8005ZM15.6491 73.7561L15.1321 72.9001L15.1286 72.9022L15.6491 73.7561ZM6.25394 73.425L6.80466 72.5903L6.80024 72.5874L6.25394 73.425ZM2.70762 69.227L3.61056 68.7972L3.61056 68.7972L2.70762 69.227ZM8.88518 55.6752L8.87688 54.6753L7.87692 54.6836L7.88521 55.6835L8.88518 55.6752ZM9.83798 63.679L9.04018 64.282L9.04575 64.2892L9.83798 63.679ZM15.8638 62.6574L14.943 62.2674L14.9407 62.2729L15.8638 62.6574ZM16.2486 55.6142L17.2485 55.6059L17.2402 54.6059L16.2403 54.6142L16.2486 55.6142ZM22.112 55.5655L22.1037 54.5655L21.1037 54.5738L21.112 55.5738L22.112 55.5655ZM22.5545 61.6473L21.6327 62.0349L21.6327 62.0349L22.5545 61.6473ZM23.6918 63.1208L24.2732 62.3073L24.2698 62.3048L23.6918 63.1208ZM27.982 62.4716L27.177 61.8782L27.1715 61.8859L27.982 62.4716ZM28.7936 55.5101L29.7936 55.5018L29.7853 54.5018L28.7853 54.5101L28.7936 55.5101ZM1.24693 47.2611L36.1548 46.9714L36.1382 44.9715L1.23033 45.2611L1.24693 47.2611ZM35.1466 45.9798L35.2721 61.1156L37.2721 61.099L37.1465 45.9632L35.1466 45.9798ZM35.2721 61.1156C35.2935 63.6919 34.9632 65.7938 34.3211 67.4542L36.1866 68.1755C36.9463 66.2105 37.2948 63.8407 37.2721 61.099L35.2721 61.1156ZM34.3204 67.4562C33.6739 69.1388 32.7795 70.3408 31.6713 71.1351L32.8366 72.7606C34.3267 71.6924 35.4322 70.1391 36.1873 68.1735L34.3204 67.4562ZM31.6666 71.1385C30.5536 71.9461 29.2254 72.3707 27.6381 72.3839L27.6547 74.3838C29.6127 74.3676 31.3562 73.8348 32.8412 72.7572L31.6666 71.1385ZM27.6381 72.3839C26.5074 72.3933 25.4994 72.153 24.5943 71.6761L23.6619 73.4454C24.8798 74.0872 26.2173 74.3957 27.6547 74.3838L27.6381 72.3839ZM24.5868 71.6722C23.6706 71.1991 22.8968 70.5287 22.2609 69.6461L20.6382 70.8151C21.4509 71.9433 22.4628 72.8263 23.6693 73.4493L24.5868 71.6722ZM22.2653 69.6522C21.6406 68.7711 21.192 67.7235 20.9329 66.4916L18.9757 66.9033C19.2845 68.3713 19.8327 69.6792 20.6338 70.809L22.2653 69.6522ZM19.946 65.6975L19.6051 65.7003L19.6217 67.7002L19.9626 67.6974L19.946 65.6975ZM18.6138 66.6707C18.5739 68.0194 18.244 69.2264 17.634 70.3098L19.3767 71.2912C20.1553 69.9085 20.5641 68.3819 20.6129 66.7298L18.6138 66.6707ZM17.6305 70.316C17.0334 71.394 16.2055 72.2519 15.1321 72.9001L16.166 74.6122C17.535 73.7855 18.6113 72.673 19.3801 71.2851L17.6305 70.316ZM15.1286 72.9022C14.0968 73.531 12.8513 73.8702 11.3545 73.8827L11.3711 75.8826C13.1697 75.8677 14.7816 75.4559 16.1695 74.61L15.1286 72.9022ZM11.3545 73.8827C9.63061 73.897 8.12484 73.4613 6.80465 72.5903L5.70322 74.2597C7.3768 75.3639 9.27694 75.9 11.3711 75.8826L11.3545 73.8827ZM6.80024 72.5874C5.47683 71.7242 4.40938 70.4755 3.61056 68.7972L1.80469 69.6567C2.74071 71.6233 4.03747 73.1732 5.70764 74.2626L6.80024 72.5874ZM3.61056 68.7972C2.81973 67.1357 2.39503 65.1084 2.37492 62.684L0.374989 62.7006C0.396923 65.3443 0.860674 67.6734 1.80469 69.6567L3.61056 68.7972ZM2.37492 62.684L2.2386 46.2528L0.238665 46.2694L0.374989 62.7006L2.37492 62.684ZM7.88521 55.6835L7.92198 60.1152L9.92191 60.0986L9.88514 55.667L7.88521 55.6835ZM7.92198 60.1152C7.93597 61.8007 8.25583 63.2442 9.04021 64.2819L10.6357 63.076C10.2251 62.5328 9.93433 61.5948 9.92191 60.0986L7.92198 60.1152ZM9.04575 64.2892C9.88023 65.3726 11.0929 65.8618 12.5152 65.85L12.4986 63.8501C11.58 63.8577 11.0134 63.5663 10.6302 63.0688L9.04575 64.2892ZM12.5152 65.85C13.4891 65.842 14.3815 65.6097 15.1394 65.1003L14.0239 63.4403C13.6518 63.6904 13.1609 63.8446 12.4986 63.8501L12.5152 65.85ZM15.1394 65.1003C15.8845 64.5996 16.4302 63.8985 16.7869 63.0418L14.9407 62.2729C14.718 62.8075 14.4089 63.1816 14.0239 63.4403L15.1394 65.1003ZM16.7846 63.0473C17.1412 62.2055 17.2953 61.2373 17.2864 60.1739L15.2865 60.1905C15.2937 61.0588 15.166 61.7408 14.943 62.2674L16.7846 63.0473ZM17.2864 60.1739L17.2485 55.6059L15.2486 55.6225L15.2865 60.1905L17.2864 60.1739ZM16.2403 54.6142L8.87688 54.6753L8.89348 56.6752L16.2569 56.6141L16.2403 54.6142ZM21.112 55.5738L21.1443 59.46L23.1442 59.4434L23.112 55.5572L21.112 55.5738ZM21.1443 59.46C21.152 60.3937 21.3063 61.2586 21.6327 62.0349L23.4764 61.2597C23.2695 60.7676 23.1502 60.1688 23.1442 59.4434L21.1443 59.46ZM21.6327 62.0349C21.9612 62.8161 22.4491 63.466 23.1137 63.9368L24.2698 62.3048C23.9513 62.0792 23.6811 61.7468 23.4764 61.2597L21.6327 62.0349ZM23.1103 63.9344C23.8114 64.4355 24.6358 64.6585 25.5284 64.6511L25.5118 62.6512C24.9727 62.6557 24.5781 62.5252 24.2732 62.3073L23.1103 63.9344ZM25.5284 64.6511C26.88 64.6399 28.0191 64.1276 28.7925 63.0573L27.1715 61.8859C26.8214 62.3704 26.3192 62.6445 25.5118 62.6512L25.5284 64.6511ZM28.7869 63.0649C29.515 62.0773 29.8381 60.8731 29.8269 59.5244L27.827 59.541C27.8354 60.5558 27.5953 61.3109 27.177 61.8783L28.7869 63.0649ZM29.8269 59.5244L29.7936 55.5018L27.7936 55.5184L27.827 59.541L29.8269 59.5244ZM28.7853 54.5101L22.1037 54.5655L22.1203 56.5655L28.8019 56.51L28.7853 54.5101ZM9.38545 109.809L8.89854 110.683L8.90014 110.684L9.38545 109.809ZM3.28375 103.74L2.40445 104.217L2.4061 104.22L3.28375 103.74ZM3.15797 86.525L2.27494 86.0556L2.27249 86.0603L3.15797 86.525ZM9.17531 80.3726L8.67836 79.5048L8.67398 79.5073L9.17531 80.3726ZM28.794 80.2098L29.2793 79.3354L29.278 79.3348L28.794 80.2098ZM34.8955 86.2616L34.0171 86.7395L34.0179 86.741L34.8955 86.2616ZM35.0383 103.477L34.1529 103.012L34.1513 103.015L35.0383 103.477ZM29.0382 109.646L28.5384 108.78L28.5368 108.781L29.0382 109.646ZM24.4352 101.366L24.0739 100.434L24.0651 100.437L24.4352 101.366ZM27.6876 98.9014L26.8644 98.3336L26.8577 98.3436L27.6876 98.9014ZM27.6219 90.9756L26.8041 91.5511L26.8054 91.5529L27.6219 90.9756ZM24.329 88.5653L24.6812 87.6294L24.6773 87.6279L24.329 88.5653ZM13.7442 88.6531L13.3829 87.7206L13.374 87.7242L13.7442 88.6531ZM10.4918 91.1177L9.66856 90.5498L9.66181 90.5599L10.4918 91.1177ZM10.5575 99.0436L9.73977 99.6191L9.74104 99.6209L10.5575 99.0436ZM13.8504 101.454L14.2026 100.518L14.1986 100.516L13.8504 101.454ZM19.2308 110.995C15.4721 111.026 12.3676 110.321 9.87076 108.935L8.90014 110.684C11.7691 112.276 15.2338 113.028 19.2474 112.995L19.2308 110.995ZM9.87236 108.936C7.35701 107.534 5.46259 105.644 4.1614 103.261L2.4061 104.22C3.89743 106.95 6.07081 109.106 8.89854 110.683L9.87236 108.936ZM4.16305 103.264C2.86264 100.863 2.19203 98.1684 2.16706 95.1585L0.167129 95.1751C0.194574 98.4831 0.935069 101.504 2.40446 104.217L4.16305 103.264ZM2.16706 95.1585C2.1419 92.1259 2.77324 89.4102 4.04345 86.9896L2.27249 86.0603C0.835407 88.7988 0.139494 91.8442 0.167129 95.1751L2.16706 95.1585ZM4.04098 86.9943C5.31373 84.5998 7.18317 82.6825 9.67665 81.2378L8.67398 79.5073C5.87454 81.1293 3.73241 83.3136 2.27496 86.0556L4.04098 86.9943ZM9.67226 81.2403C12.1473 79.823 15.2297 79.0723 18.9657 79.0413L18.9492 77.0414C14.9582 77.0745 11.5192 77.8779 8.67837 79.5048L9.67226 81.2403ZM18.9657 79.0413C22.7259 79.0101 25.8248 79.71 28.3099 81.0848L29.278 79.3348C26.4202 77.7538 22.9615 77.0081 18.9492 77.0414L18.9657 79.0413ZM28.3086 81.0841C30.8358 82.4868 32.7285 84.3709 34.0171 86.7395L35.7739 85.7838C34.2929 83.0615 32.1179 80.9111 29.2793 79.3354L28.3086 81.0841ZM34.0179 86.741C35.3281 89.1401 36.0044 91.845 36.0295 94.8775L38.0295 94.8609C38.0018 91.5301 37.2555 88.4966 35.7732 85.7823L34.0179 86.741ZM36.0295 94.8775C36.0545 97.8861 35.4236 100.591 34.1529 103.012L35.9238 103.942C37.3604 101.204 38.0569 98.1704 38.0295 94.8609L36.0295 94.8775ZM34.1513 103.015C32.9019 105.416 31.0408 107.336 28.5384 108.78L29.5379 110.512C32.3512 108.889 34.4902 106.697 35.9254 103.939L34.1513 103.015ZM28.5368 108.781C26.0756 110.207 22.9899 110.964 19.2308 110.995L19.2474 112.995C23.2609 112.961 26.7078 112.152 29.5395 110.512L28.5368 108.781ZM19.1666 103.245C21.3395 103.227 23.2297 102.923 24.8054 102.295L24.0651 100.437C22.7865 100.947 21.1587 101.228 19.15 101.245L19.1666 103.245ZM24.7965 102.298C26.3909 101.681 27.6544 100.744 28.5176 99.4592L26.8577 98.3436C26.2616 99.2305 25.3568 99.9365 24.0739 100.434L24.7965 102.298ZM28.5108 99.4693C29.3906 98.1938 29.7941 96.6609 29.7797 94.9294L27.7798 94.946C27.7915 96.3507 27.4669 97.4603 26.8645 98.3336L28.5108 99.4693ZM29.7797 94.9294C29.7654 93.1975 29.3363 91.6681 28.4384 90.3982L26.8054 91.5529C27.4253 92.4296 27.7682 93.5416 27.7798 94.946L29.7797 94.9294ZM28.4396 90.4C27.556 89.1446 26.2802 88.2311 24.6812 87.6294L23.9768 89.5012C25.2733 89.9891 26.1928 90.6825 26.8041 91.5511L28.4396 90.4ZM24.6773 87.6279C23.0937 87.0396 21.2011 86.773 19.03 86.791L19.0466 88.791C21.0572 88.7743 22.6918 89.0239 23.9808 89.5027L24.6773 87.6279ZM19.03 86.791C16.8586 86.809 14.9663 87.1072 13.3829 87.7207L14.1055 89.5856C15.3993 89.0843 17.0364 88.8076 19.0466 88.791L19.03 86.791ZM13.374 87.7242C11.7967 88.3527 10.5405 89.286 9.66863 90.5499L11.3149 91.6855C11.9253 90.8006 12.8374 90.0909 14.1143 89.5821L13.374 87.7242ZM9.66181 90.5599C8.79895 91.8437 8.4025 93.3778 8.41685 95.1066L10.4168 95.09C10.4051 93.6826 10.7253 92.5629 11.3217 91.6755L9.66181 90.5599ZM8.41685 95.1066C8.43119 96.8351 8.85287 98.359 9.73977 99.6191L11.3753 98.468C10.7673 97.6041 10.4285 96.4978 10.4168 95.09L8.41685 95.1066ZM9.74104 99.6209C10.6346 100.885 11.9092 101.799 13.5021 102.391L14.1986 100.516C12.919 100.041 11.9984 99.3492 11.374 98.4662L9.74104 99.6209ZM13.4982 102.39C15.0938 102.99 16.9932 103.263 19.1666 103.245L19.15 101.245C17.1416 101.262 15.5024 101.007 14.2026 100.518L13.4982 102.39ZM36.9009 136.893L37.9008 136.885L37.8925 135.885L36.8926 135.893L36.9009 136.893ZM36.9795 146.37L36.9878 147.37L37.9878 147.362L37.9795 146.362L36.9795 146.37ZM7.69761 144.704L8.23856 143.863L8.23737 143.862L7.69761 144.704ZM3.17097 139.457L2.26679 139.884L2.26857 139.888L3.17097 139.457ZM3.04002 123.674L2.13058 123.258L2.12888 123.261L3.04002 123.674ZM7.47899 118.352L6.93101 117.516L6.92534 117.52L7.47899 118.352ZM36.7295 116.235L37.7294 116.226L37.7211 115.226L36.7212 115.235L36.7295 116.235ZM36.8081 125.712L36.8164 126.712L37.8164 126.703L37.8081 125.703L36.8081 125.712ZM12.3717 126.63L11.8759 125.762L11.8709 125.765L12.3717 126.63ZM10.4109 128.624L9.53713 128.138L9.53436 128.143L10.4109 128.624ZM10.459 134.419L9.59341 134.92L9.59341 134.92L10.459 134.419ZM12.4526 136.38L11.9662 137.254L11.9712 137.256L12.4526 136.38ZM35.9009 136.901L35.9795 146.378L37.9795 146.362L37.9008 136.885L35.9009 136.901ZM36.9712 145.37L14.6083 145.556L14.6249 147.556L36.9878 147.37L36.9712 145.37ZM14.6083 145.556C12.115 145.576 10.0058 144.999 8.23856 143.863L7.15666 145.545C9.29681 146.921 11.8002 147.579 14.6249 147.556L14.6083 145.556ZM8.23737 143.862C6.46477 142.725 5.0755 141.125 4.07338 139.026L2.26857 139.888C3.41754 142.294 5.04602 144.192 7.15786 145.546L8.23737 143.862ZM4.07515 139.03C3.08399 136.932 2.56131 134.459 2.53748 131.587L0.537547 131.604C0.563308 134.709 1.1296 137.477 2.26679 139.884L4.07515 139.03ZM2.53748 131.587C2.51345 128.691 2.99537 126.199 3.95117 124.086L2.12888 123.261C1.03137 125.688 0.511608 128.477 0.537547 131.604L2.53748 131.587ZM3.94946 124.089C4.91661 121.974 6.27914 120.351 8.03263 119.185L6.92534 117.52C4.83626 118.909 3.23948 120.833 2.13059 123.258L3.94946 124.089ZM8.02695 119.189C9.77609 118.043 11.8781 117.441 14.3749 117.42L14.3583 115.42C11.5371 115.444 9.04737 116.13 6.93102 117.516L8.02695 119.189ZM14.3749 117.42L36.7378 117.235L36.7212 115.235L14.3583 115.42L14.3749 117.42ZM35.7295 116.243L35.8081 125.72L37.8081 125.703L37.7294 116.226L35.7295 116.243ZM36.7998 124.712L15.2551 124.89L15.2717 126.89L36.8164 126.712L36.7998 124.712ZM15.2551 124.89C14.0229 124.901 12.8879 125.184 11.8759 125.762L12.8675 127.499C13.552 127.108 14.3448 126.898 15.2717 126.89L15.2551 124.89ZM11.8709 125.765C10.8777 126.339 10.0952 127.135 9.53714 128.138L11.2846 129.11C11.6671 128.423 12.1918 127.89 12.8725 127.496L11.8709 125.765ZM9.53436 128.143C8.97339 129.164 8.70886 130.304 8.71908 131.536L10.719 131.519C10.7113 130.592 10.908 129.796 11.2874 129.105L9.53436 128.143ZM8.71908 131.536C8.72938 132.777 9.01187 133.915 9.59341 134.92L11.3245 133.918C10.9376 133.25 10.7268 132.46 10.719 131.519L8.71908 131.536ZM9.59341 134.92C10.1681 135.913 10.9636 136.696 11.9662 137.254L12.939 135.506C12.2519 135.124 11.7184 134.599 11.3245 133.918L9.59341 134.92ZM11.9712 137.256C12.9928 137.817 14.1323 138.082 15.3644 138.072L15.3479 136.072C14.421 136.08 13.6248 135.883 12.9339 135.503L11.9712 137.256ZM15.3644 138.072L36.9092 137.893L36.8926 135.893L15.3479 136.072L15.3644 138.072ZM29.3728 149.983L29.3645 148.983L28.3646 148.991L28.3729 149.991L29.3728 149.983ZM37.0089 149.92L38.0089 149.911L38.0006 148.911L37.0006 148.92L37.0089 149.92ZM37.2607 180.259L37.269 181.259L38.2689 181.251L38.2606 180.251L37.2607 180.259ZM29.6246 180.323L28.6246 180.331L28.6329 181.331L29.6329 181.323L29.6246 180.323ZM29.5374 169.823L30.5374 169.815L30.5291 168.815L29.5291 168.823L29.5374 169.823ZM2.26566 170.049L1.26569 170.058L1.27399 171.058L2.27395 171.049L2.26566 170.049ZM2.18816 160.709L2.17987 159.709L1.1799 159.717L1.1882 160.717L2.18816 160.709ZM29.46 160.483L29.4682 161.483L30.4682 161.474L30.4599 160.474L29.46 160.483ZM29.3811 150.983L37.0172 150.92L37.0006 148.92L29.3645 148.983L29.3811 150.983ZM36.009 149.928L36.2607 180.268L38.2606 180.251L38.0089 149.911L36.009 149.928ZM37.2524 179.26L29.6163 179.323L29.6329 181.323L37.269 181.259L37.2524 179.26ZM30.6245 180.315L30.5374 169.815L28.5375 169.831L28.6246 180.331L30.6245 180.315ZM29.5291 168.823L2.25736 169.049L2.27395 171.049L29.5457 170.823L29.5291 168.823ZM3.26562 170.041L3.18813 160.701L1.1882 160.717L1.26569 170.058L3.26562 170.041ZM2.19646 161.709L29.4682 161.483L29.4517 159.483L2.17987 159.709L2.19646 161.709ZM30.4599 160.474L30.3728 149.975L28.3729 149.991L28.46 160.491L30.4599 160.474ZM37.541 214.047L38.5409 214.038L38.5326 213.038L37.5327 213.047L37.541 214.047ZM37.6196 223.524L37.6279 224.524L38.6279 224.515L38.6196 223.515L37.6196 223.524ZM8.33773 221.857L8.87868 221.016L8.87748 221.016L8.33773 221.857ZM3.81109 216.611L2.9069 217.038L2.90868 217.042L3.81109 216.611ZM3.68014 200.827L2.7707 200.411L2.769 200.415L3.68014 200.827ZM8.1191 195.506L7.57112 194.67L7.56545 194.673L8.1191 195.506ZM37.3696 193.388L38.3696 193.38L38.3613 192.38L37.3613 192.388L37.3696 193.388ZM37.4482 202.865L37.4565 203.865L38.4565 203.857L38.4482 202.857L37.4482 202.865ZM13.0118 203.784L12.516 202.915L12.511 202.918L13.0118 203.784ZM11.051 205.778L10.1772 205.291L10.1745 205.296L11.051 205.778ZM11.0991 211.573L10.2335 212.074L10.2335 212.074L11.0991 211.573ZM13.0927 213.534L12.6063 214.407L12.6114 214.41L13.0927 213.534ZM36.541 214.055L36.6196 223.532L38.6196 223.515L38.5409 214.038L36.541 214.055ZM37.6113 222.524L15.2484 222.709L15.265 224.709L37.6279 224.524L37.6113 222.524ZM15.2484 222.709C12.7551 222.73 10.6459 222.153 8.87868 221.016L7.79678 222.698C9.93693 224.075 12.4403 224.733 15.265 224.709L15.2484 222.709ZM8.87748 221.016C7.10489 219.879 5.71561 218.279 4.7135 216.18L2.90868 217.042C4.05765 219.448 5.68614 221.345 7.79798 222.699L8.87748 221.016ZM4.71527 216.184C3.7241 214.085 3.20142 211.613 3.17759 208.741L1.17766 208.757C1.20342 211.862 1.76972 214.631 2.90691 217.038L4.71527 216.184ZM3.17759 208.741C3.15357 205.845 3.63548 203.353 4.59128 201.239L2.769 200.415C1.67148 202.842 1.15172 205.631 1.17766 208.757L3.17759 208.741ZM4.58957 201.243C5.55673 199.128 6.91925 197.505 8.67275 196.339L7.56545 194.673C5.47637 196.062 3.87959 197.986 2.77071 200.411L4.58957 201.243ZM8.66707 196.343C10.4162 195.197 12.5182 194.594 15.015 194.574L14.9984 192.574C12.1772 192.597 9.68748 193.283 7.57114 194.67L8.66707 196.343ZM15.015 194.574L37.3779 194.388L37.3613 192.388L14.9984 192.574L15.015 194.574ZM36.3696 193.397L36.4482 202.874L38.4482 202.857L38.3696 193.38L36.3696 193.397ZM37.4399 201.865L15.8952 202.044L15.9118 204.044L37.4565 203.865L37.4399 201.865ZM15.8952 202.044C14.663 202.054 13.5281 202.338 12.516 202.915L13.5076 204.652C14.1921 204.262 14.985 204.052 15.9118 204.044L15.8952 202.044ZM12.511 202.918C11.5178 203.493 10.7353 204.289 10.1773 205.291L11.9248 206.264C12.3072 205.577 12.832 205.043 13.5126 204.649L12.511 202.918ZM10.1745 205.296C9.61351 206.318 9.34898 207.457 9.3592 208.689L11.3591 208.673C11.3514 207.746 11.5481 206.95 11.9275 206.259L10.1745 205.296ZM9.3592 208.689C9.3695 209.931 9.65198 211.068 10.2335 212.074L11.9647 211.072C11.5777 210.403 11.3669 209.613 11.3591 208.673L9.3592 208.689ZM10.2335 212.074C10.8082 213.067 11.6037 213.849 12.6063 214.407L13.5791 212.66C12.892 212.277 12.3585 211.753 11.9647 211.072L10.2335 212.074ZM12.6114 214.41C13.6329 214.971 14.7724 215.236 16.0046 215.225L15.988 213.225C15.0611 213.233 14.2649 213.036 13.574 212.657L12.6114 214.41ZM16.0046 215.225L37.5493 215.047L37.5327 213.047L15.988 213.225L16.0046 215.225ZM26.9044 246.936L26.8164 245.94L25.8968 246.021L25.9044 246.944L26.9044 246.936ZM29.5528 245.635L28.7849 244.995L28.7802 245L29.5528 245.635ZM30.101 239.801L29.1661 240.156L29.1698 240.165L30.101 239.801ZM29.1522 238.445L29.7418 237.638L29.7418 237.638L29.1522 238.445ZM27.7848 237.996L27.7391 238.995L27.755 238.996L27.7709 238.996L27.7848 237.996ZM26.6446 238.227L26.19 237.337L26.172 237.346L26.1543 237.356L26.6446 238.227ZM25.7483 239.087L24.9266 238.517L24.9209 238.525L24.9154 238.534L25.7483 239.087ZM24.483 242.728L25.4626 242.93L25.4642 242.922L24.483 242.728ZM23.8932 245.597L22.9137 245.396L22.9132 245.398L23.8932 245.597ZM19.9738 253.965L19.2744 253.25L19.2699 253.255L19.9738 253.965ZM16.9558 255.916L16.6063 254.979L16.598 254.983L16.9558 255.916ZM13.2795 256.595L13.2828 257.595L13.2963 257.594L13.2795 256.595ZM7.43587 254.921L6.8614 255.74L6.8614 255.74L7.43587 254.921ZM3.76487 250.077L4.69268 249.704L4.69199 249.702L3.76487 250.077ZM3.73831 234.548L2.80647 234.185L2.80584 234.187L3.73831 234.548ZM7.83666 229.264L7.27855 228.434L7.27275 228.438L7.83666 229.264ZM15.014 227.329L16.014 227.321L16.0057 226.317L15.0018 226.329L15.014 227.329ZM15.0887 236.329L15.1501 237.327L16.0965 237.269L16.0887 236.321L15.0887 236.329ZM12.4023 237.152L11.8467 236.321L11.8467 236.321L12.4023 237.152ZM10.7656 239.177L9.84505 238.787L9.84321 238.791L10.7656 239.177ZM10.6251 244.838L9.68906 245.19L9.68906 245.19L10.6251 244.838ZM11.6777 246.38L11.0619 247.168L11.0619 247.168L11.6777 246.38ZM13.1992 246.913L13.1875 247.913L13.2081 247.913L13.2287 247.913L13.1992 246.913ZM14.5925 246.373L13.9587 245.6L13.9469 245.609L13.9354 245.619L14.5925 246.373ZM15.6698 244.728L14.7487 244.338L14.7439 244.35L15.6698 244.728ZM16.5646 241.635L17.5431 241.841L17.5438 241.838L16.5646 241.635ZM17.2857 238.152L16.3067 237.948L16.3065 237.949L17.2857 238.152ZM20.5829 230.812L19.8308 230.152L19.8263 230.158L20.5829 230.812ZM27.021 228.116L27.0251 229.116L27.0344 229.116L27.021 228.116ZM32.848 229.84L33.4261 229.024L33.4251 229.024L32.848 229.84ZM36.7927 234.802L37.706 234.395L37.7052 234.393L36.7927 234.802ZM36.8973 249.461L35.9849 249.052L35.9849 249.052L36.8973 249.461ZM32.9482 254.249L32.3969 253.415L32.3905 253.419L32.9482 254.249ZM26.9796 256.004L25.9796 256.012L25.988 257.017L26.9929 257.004L26.9796 256.004ZM26.9924 247.932C28.3521 247.812 29.4991 247.276 30.3254 246.27L28.7802 245C28.3464 245.528 27.7278 245.859 26.8164 245.94L26.9924 247.932ZM30.3206 246.276C31.1674 245.261 31.4925 243.838 31.4788 242.193L29.4789 242.21C29.4907 243.633 29.1984 244.499 28.7849 244.995L30.3206 246.276ZM31.4788 242.193C31.4701 241.145 31.3359 240.213 31.0322 239.437L29.1698 240.165C29.3537 240.635 29.4714 241.303 29.4789 242.21L31.4788 242.193ZM31.0358 239.446C30.7563 238.71 30.3414 238.075 29.7418 237.638L28.5626 239.253C28.7634 239.399 28.9809 239.669 29.1661 240.156L31.0358 239.446ZM29.7418 237.638C29.1686 237.219 28.5102 237.006 27.7987 236.996L27.7709 238.996C28.0823 239.001 28.3354 239.087 28.5626 239.253L29.7418 237.638ZM27.8305 236.997C27.2551 236.971 26.6998 237.076 26.19 237.337L27.0992 239.118C27.2684 239.032 27.4732 238.983 27.7391 238.995L27.8305 236.997ZM26.1543 237.356C25.665 237.631 25.2608 238.035 24.9266 238.517L26.57 239.657C26.7749 239.362 26.9682 239.193 27.1349 239.099L26.1543 237.356ZM24.9154 238.534C24.5975 239.012 24.3297 239.59 24.1006 240.246L25.9888 240.906C26.1816 240.354 26.3829 239.939 26.5812 239.641L24.9154 238.534ZM24.1006 240.246C23.8701 240.907 23.6718 241.672 23.5019 242.535L25.4642 242.922C25.6214 242.123 25.7975 241.453 25.9888 240.906L24.1006 240.246ZM23.5035 242.527L22.9137 245.396L24.8727 245.798L25.4625 242.93L23.5035 242.527ZM22.9132 245.398C22.532 247.275 22.0279 248.851 21.4126 250.14L23.2175 251.001C23.9202 249.529 24.4683 247.789 24.8732 245.796L22.9132 245.398ZM21.4126 250.14C20.7937 251.436 20.0767 252.465 19.2744 253.25L20.6732 254.68C21.6745 253.7 22.5184 252.466 23.2175 251.001L21.4126 250.14ZM19.2699 253.255C18.4753 254.042 17.5887 254.613 16.6063 254.979L17.3053 256.853C18.566 256.383 19.6914 255.653 20.6777 254.675L19.2699 253.255ZM16.598 254.983C15.5965 255.366 14.4878 255.574 13.2627 255.595L13.2963 257.594C14.73 257.57 16.0722 257.326 17.3137 256.85L16.598 254.983ZM13.2762 255.595C11.1504 255.602 9.41344 255.088 8.01034 254.103L6.8614 255.74C8.65887 257.001 10.8177 257.603 13.2828 257.595L13.2762 255.595ZM8.01034 254.103C6.59272 253.108 5.47945 251.66 4.69268 249.704L2.83706 250.45C3.74439 252.706 5.07846 254.489 6.8614 255.74L8.01034 254.103ZM4.69199 249.702C3.90414 247.753 3.4814 245.359 3.45763 242.494L1.4577 242.51C1.48295 245.554 1.93168 248.21 2.83775 250.451L4.69199 249.702ZM3.45763 242.494C3.43326 239.556 3.84723 237.035 4.67078 234.909L2.80584 234.187C1.87152 236.598 1.43173 239.38 1.4577 242.51L3.45763 242.494ZM4.67015 234.911C5.48213 232.826 6.72726 231.232 8.40056 230.09L7.27275 228.438C5.23965 229.826 3.75255 231.756 2.80647 234.185L4.67015 234.911ZM8.39475 230.094C10.056 228.976 12.2431 228.363 15.0262 228.329L15.0018 226.329C11.9445 226.367 9.34668 227.043 7.27856 228.434L8.39475 230.094ZM14.0141 227.337L14.0887 236.337L16.0887 236.321L16.014 227.321L14.0141 227.337ZM15.0273 235.331C13.8234 235.405 12.7474 235.719 11.8467 236.321L12.9578 237.984C13.5037 237.619 14.2187 237.384 15.1501 237.327L15.0273 235.331ZM11.8467 236.321C10.948 236.921 10.2824 237.756 9.84506 238.787L11.6861 239.568C11.9844 238.865 12.4099 238.35 12.9578 237.984L11.8467 236.321ZM9.84321 238.791C9.41128 239.822 9.2182 241.004 9.22903 242.31L11.229 242.293C11.2198 241.189 11.3845 240.288 11.688 239.564L9.84321 238.791ZM9.22903 242.31C9.23804 243.396 9.37932 244.366 9.68906 245.19L11.561 244.486C11.3595 243.95 11.2367 243.229 11.229 242.293L9.22903 242.31ZM9.68906 245.19C9.99139 245.994 10.4355 246.679 11.0619 247.168L12.2934 245.592C12.0277 245.385 11.77 245.041 11.561 244.486L9.68906 245.19ZM11.0619 247.168C11.6814 247.652 12.401 247.904 13.1875 247.913L13.2109 245.913C12.8608 245.909 12.5661 245.805 12.2934 245.592L11.0619 247.168ZM13.2287 247.913C13.989 247.89 14.6765 247.626 15.2495 247.127L13.9354 245.619C13.7187 245.808 13.4773 245.904 13.1696 245.914L13.2287 247.913ZM15.2262 247.147C15.8145 246.665 16.2533 245.944 16.5956 245.106L14.7439 244.35C14.4625 245.039 14.1831 245.416 13.9587 245.6L15.2262 247.147ZM16.5908 245.117C16.9493 244.27 17.2634 243.169 17.5431 241.841L15.5861 241.429C15.3191 242.696 15.0367 243.658 14.7488 244.338L16.5908 245.117ZM17.5438 241.838L18.265 238.354L16.3065 237.949L15.5854 241.432L17.5438 241.838ZM18.2647 238.355C18.8859 235.372 19.9282 233.098 21.3394 231.465L19.8263 230.158C18.131 232.119 16.9751 234.738 16.3067 237.948L18.2647 238.355ZM21.335 231.471C22.6818 229.933 24.5373 229.126 27.0251 229.116L27.0168 227.116C24.0501 227.128 21.6135 228.118 19.8308 230.152L21.335 231.471ZM27.0344 229.116C29.0577 229.089 30.7892 229.61 32.2709 230.657L33.4251 229.024C31.5689 227.712 29.4157 227.084 27.0076 227.116L27.0344 229.116ZM32.2698 230.656C33.7867 231.731 34.9945 233.236 35.8802 235.211L37.7052 234.393C36.6921 232.134 35.2701 230.331 33.4261 229.024L32.2698 230.656ZM35.8794 235.21C36.7635 237.191 37.2294 239.496 37.2514 242.145L39.2513 242.129C39.2274 239.255 38.7209 236.67 37.706 234.395L35.8794 235.21ZM37.2514 242.145C37.2738 244.854 36.8395 247.146 35.9849 249.052L37.8097 249.87C38.8072 247.646 39.2756 245.056 39.2513 242.129L37.2514 242.145ZM35.9849 249.052C35.1279 250.962 33.9287 252.403 32.3969 253.415L33.4996 255.084C35.3809 253.84 36.8145 252.089 37.8097 249.87L35.9849 249.052ZM32.3905 253.419C30.8751 254.438 29.0799 254.976 26.9663 255.004L26.9929 257.004C29.4472 256.971 31.631 256.339 33.506 255.08L32.3905 253.419ZM27.9796 255.995L27.9043 246.927L25.9044 246.944L25.9796 256.012L27.9796 255.995Z" fill="#05C2DF"/>
<path d="M171.19 16.1272L170.19 16.1354L170.196 16.8781L170.909 17.0868L171.19 16.1272ZM171.105 5.90023L171.411 4.94805L170.094 4.52543L170.105 5.90853L171.105 5.90023ZM206.109 17.1329L207.109 17.1246L207.103 16.4017L206.414 16.1808L206.109 17.1329ZM206.216 30.087L206.538 31.034L207.222 30.8017L207.216 30.0787L206.216 30.087ZM171.404 41.899L170.404 41.9073L170.416 43.2904L171.725 42.846L171.404 41.899ZM171.319 31.6721L171.022 30.7172L170.313 30.9377L170.319 31.6804L171.319 31.6721ZM196.55 23.8261L196.847 24.781L197.557 24.5605L197.55 23.8178L196.55 23.8261ZM196.548 23.5534L197.548 23.5451L197.542 22.8024L196.829 22.5937L196.548 23.5534ZM184.947 14.1039L185.947 14.0956L185.938 13.0956L184.938 13.1039L184.947 14.1039ZM185.106 33.3305L185.115 34.3304L186.114 34.3221L186.106 33.3222L185.106 33.3305ZM178.016 33.3893L177.016 33.3976L177.024 34.3976L178.024 34.3893L178.016 33.3893ZM177.856 14.1627L177.848 13.1627L176.848 13.171L176.856 14.171L177.856 14.1627ZM172.19 16.1189L172.105 5.89193L170.105 5.90853L170.19 16.1354L172.19 16.1189ZM170.8 6.8524L205.803 18.0851L206.414 16.1808L171.411 4.94805L170.8 6.8524ZM205.109 17.1412L205.216 30.0953L207.216 30.0787L207.109 17.1246L205.109 17.1412ZM205.895 29.1401L171.083 40.952L171.725 42.846L206.538 31.034L205.895 29.1401ZM172.404 41.8907L172.319 31.6638L170.319 31.6804L170.404 41.9073L172.404 41.8907ZM171.616 32.627L196.847 24.781L196.254 22.8712L171.022 30.7172L171.616 32.627ZM197.55 23.8178L197.548 23.5451L195.548 23.5617L195.551 23.8344L197.55 23.8178ZM196.829 22.5937L171.471 15.1675L170.909 17.0868L196.267 24.5131L196.829 22.5937ZM183.947 14.1122L184.106 33.3388L186.106 33.3222L185.947 14.0956L183.947 14.1122ZM185.098 32.3305L178.007 32.3893L178.024 34.3893L185.115 34.3304L185.098 32.3305ZM179.016 33.381L178.856 14.1544L176.856 14.171L177.016 33.3976L179.016 33.381ZM177.864 15.1627L184.955 15.1038L184.938 13.1039L177.848 13.1627L177.864 15.1627ZM171.432 45.2611L171.424 44.2611L170.424 44.2694L170.432 45.2694L171.432 45.2611ZM206.34 44.9715L207.34 44.9632L207.332 43.9632L206.332 43.9715L206.34 44.9715ZM205.447 66.8149L204.514 66.4542L204.514 66.4562L205.447 66.8149ZM202.447 70.9478L201.865 70.1351L201.86 70.1385L202.447 70.9478ZM194.321 71.5607L194.788 70.676L194.78 70.6722L194.321 71.5607ZM191.643 69.2306L190.827 69.809L190.832 69.8151L191.643 69.2306ZM190.148 65.6974L191.126 65.4916L190.958 64.6907L190.139 64.6975L190.148 65.6974ZM189.807 65.7003L189.798 64.7003L188.836 64.7083L188.807 65.6707L189.807 65.7003ZM188.699 69.8005L187.827 69.3098L187.824 69.316L188.699 69.8005ZM185.842 72.7561L185.325 71.9001L185.322 71.9022L185.842 72.7561ZM176.447 72.425L176.998 71.5903L176.994 71.5874L176.447 72.425ZM172.901 68.227L173.804 67.7972L173.804 67.7972L172.901 68.227ZM179.079 54.6752L179.07 53.6753L178.07 53.6836L178.079 54.6835L179.079 54.6752ZM180.031 62.679L179.234 63.282L179.239 63.2892L180.031 62.679ZM186.057 61.6574L185.136 61.2674L185.134 61.2729L186.057 61.6574ZM186.442 54.6142L187.442 54.6059L187.434 53.6059L186.434 53.6142L186.442 54.6142ZM192.305 54.5655L192.297 53.5655L191.297 53.5738L191.305 54.5738L192.305 54.5655ZM192.748 60.6473L191.826 61.0349L191.826 61.0349L192.748 60.6473ZM193.885 62.1208L194.467 61.3073L194.463 61.3048L193.885 62.1208ZM198.175 61.4716L197.37 60.8782L197.365 60.8859L198.175 61.4716ZM198.987 54.5101L199.987 54.5018L199.979 53.5018L198.979 53.5101L198.987 54.5101ZM171.44 46.2611L206.348 45.9714L206.332 43.9715L171.424 44.2611L171.44 46.2611ZM205.34 44.9798L205.465 60.1156L207.465 60.099L207.34 44.9632L205.34 44.9798ZM205.465 60.1156C205.487 62.6919 205.157 64.7938 204.515 66.4542L206.38 67.1755C207.14 65.2105 207.488 62.8407 207.465 60.099L205.465 60.1156ZM204.514 66.4562C203.867 68.1388 202.973 69.3408 201.865 70.1351L203.03 71.7606C204.52 70.6924 205.626 69.1391 206.381 67.1735L204.514 66.4562ZM201.86 70.1385C200.747 70.9461 199.419 71.3707 197.831 71.3839L197.848 73.3838C199.806 73.3676 201.55 72.8348 203.035 71.7572L201.86 70.1385ZM197.831 71.3839C196.701 71.3933 195.693 71.153 194.788 70.6761L193.855 72.4454C195.073 73.0872 196.411 73.3957 197.848 73.3838L197.831 71.3839ZM194.78 70.6722C193.864 70.1991 193.09 69.5287 192.454 68.6461L190.832 69.8151C191.644 70.9433 192.656 71.8263 193.863 72.4493L194.78 70.6722ZM192.459 68.6522C191.834 67.7711 191.385 66.7235 191.126 65.4916L189.169 65.9033C189.478 67.3713 190.026 68.6792 190.827 69.809L192.459 68.6522ZM190.139 64.6975L189.798 64.7003L189.815 66.7002L190.156 66.6974L190.139 64.6975ZM188.807 65.6707C188.767 67.0194 188.437 68.2264 187.827 69.3098L189.57 70.2912C190.349 68.9085 190.757 67.3819 190.806 65.7298L188.807 65.6707ZM187.824 69.316C187.227 70.394 186.399 71.2519 185.325 71.9001L186.359 73.6122C187.728 72.7855 188.805 71.673 189.573 70.2851L187.824 69.316ZM185.322 71.9022C184.29 72.531 183.045 72.8702 181.548 72.8827L181.564 74.8826C183.363 74.8677 184.975 74.4559 186.363 73.61L185.322 71.9022ZM181.548 72.8827C179.824 72.897 178.318 72.4613 176.998 71.5903L175.897 73.2597C177.57 74.3639 179.47 74.9 181.564 74.8826L181.548 72.8827ZM176.994 71.5874C175.67 70.7242 174.603 69.4755 173.804 67.7972L171.998 68.6567C172.934 70.6233 174.231 72.1732 175.901 73.2626L176.994 71.5874ZM173.804 67.7972C173.013 66.1357 172.588 64.1084 172.568 61.684L170.568 61.7006C170.59 64.3443 171.054 66.6734 171.998 68.6567L173.804 67.7972ZM172.568 61.684L172.432 45.2528L170.432 45.2694L170.568 61.7006L172.568 61.684ZM178.079 54.6835L178.115 59.1152L180.115 59.0986L180.079 54.667L178.079 54.6835ZM178.115 59.1152C178.129 60.8007 178.449 62.2442 179.234 63.2819L180.829 62.076C180.419 61.5328 180.128 60.5948 180.115 59.0986L178.115 59.1152ZM179.239 63.2892C180.074 64.3726 181.286 64.8618 182.709 64.85L182.692 62.8501C181.773 62.8577 181.207 62.5663 180.824 62.0688L179.239 63.2892ZM182.709 64.85C183.682 64.842 184.575 64.6097 185.333 64.1003L184.217 62.4403C183.845 62.6904 183.354 62.8446 182.692 62.8501L182.709 64.85ZM185.333 64.1003C186.078 63.5996 186.624 62.8985 186.98 62.0418L185.134 61.2729C184.911 61.8075 184.602 62.1816 184.217 62.4403L185.333 64.1003ZM186.978 62.0473C187.335 61.2055 187.489 60.2373 187.48 59.1739L185.48 59.1905C185.487 60.0588 185.359 60.7408 185.136 61.2674L186.978 62.0473ZM187.48 59.1739L187.442 54.6059L185.442 54.6225L185.48 59.1905L187.48 59.1739ZM186.434 53.6142L179.07 53.6753L179.087 55.6752L186.45 55.6141L186.434 53.6142ZM191.305 54.5738L191.338 58.46L193.338 58.4434L193.305 54.5572L191.305 54.5738ZM191.338 58.46C191.345 59.3937 191.5 60.2586 191.826 61.0349L193.67 60.2597C193.463 59.7676 193.344 59.1688 193.338 58.4434L191.338 58.46ZM191.826 61.0349C192.155 61.8161 192.642 62.466 193.307 62.9368L194.463 61.3048C194.145 61.0792 193.875 60.7468 193.67 60.2597L191.826 61.0349ZM193.304 62.9344C194.005 63.4355 194.829 63.6585 195.722 63.6511L195.705 61.6512C195.166 61.6557 194.771 61.5252 194.467 61.3073L193.304 62.9344ZM195.722 63.6511C197.073 63.6399 198.212 63.1276 198.986 62.0573L197.365 60.8859C197.015 61.3704 196.513 61.6445 195.705 61.6512L195.722 63.6511ZM198.98 62.0649C199.708 61.0773 200.031 59.8731 200.02 58.5244L198.02 58.541C198.029 59.5558 197.789 60.3109 197.37 60.8783L198.98 62.0649ZM200.02 58.5244L199.987 54.5018L197.987 54.5184L198.02 58.541L200.02 58.5244ZM198.979 53.5101L192.297 53.5655L192.314 55.5655L198.995 55.51L198.979 53.5101ZM179.579 108.809L179.092 109.683L179.093 109.684L179.579 108.809ZM173.477 102.74L172.598 103.217L172.599 103.22L173.477 102.74ZM173.351 85.525L172.468 85.0556L172.466 85.0603L173.351 85.525ZM179.369 79.3726L178.872 78.5048L178.867 78.5073L179.369 79.3726ZM198.987 79.2098L199.473 78.3354L199.471 78.3348L198.987 79.2098ZM205.089 85.2616L204.21 85.7395L204.211 85.741L205.089 85.2616ZM205.232 102.477L204.346 102.012L204.345 102.015L205.232 102.477ZM199.232 108.646L198.732 107.78L198.73 107.781L199.232 108.646ZM194.629 100.366L194.267 99.4335L194.258 99.437L194.629 100.366ZM197.881 97.9014L197.058 97.3336L197.051 97.3436L197.881 97.9014ZM197.815 89.9756L196.997 90.5511L196.999 90.5529L197.815 89.9756ZM194.522 87.5653L194.875 86.6294L194.871 86.6279L194.522 87.5653ZM183.938 87.6531L183.576 86.7206L183.567 86.7242L183.938 87.6531ZM180.685 90.1177L179.862 89.5498L179.855 89.5599L180.685 90.1177ZM180.751 98.0436L179.933 98.6191L179.934 98.6209L180.751 98.0436ZM184.044 100.454L184.396 99.5179L184.392 99.5164L184.044 100.454ZM189.424 109.995C185.665 110.026 182.561 109.321 180.064 107.935L179.093 109.684C181.962 111.276 185.427 112.028 189.441 111.995L189.424 109.995ZM180.066 107.936C177.55 106.534 175.656 104.644 174.355 102.261L172.599 103.22C174.091 105.95 176.264 108.106 179.092 109.683L180.066 107.936ZM174.356 102.264C173.056 99.8634 172.385 97.1684 172.36 94.1585L170.36 94.1751C170.388 97.4831 171.128 100.504 172.598 103.217L174.356 102.264ZM172.36 94.1585C172.335 91.1259 172.967 88.4102 174.237 85.9896L172.466 85.0603C171.029 87.7988 170.333 90.8442 170.36 94.1751L172.36 94.1585ZM174.234 85.9943C175.507 83.5998 177.377 81.6825 179.87 80.2378L178.867 78.5073C176.068 80.1293 173.926 82.3136 172.468 85.0556L174.234 85.9943ZM179.866 80.2403C182.341 78.823 185.423 78.0723 189.159 78.0413L189.143 76.0414C185.152 76.0745 181.713 76.8779 178.872 78.5048L179.866 80.2403ZM189.159 78.0413C192.919 78.0101 196.018 78.71 198.503 80.0848L199.471 78.3348C196.614 76.7538 193.155 76.0081 189.143 76.0414L189.159 78.0413ZM198.502 80.0841C201.029 81.4868 202.922 83.3709 204.21 85.7395L205.967 84.7838C204.486 82.0615 202.311 79.9111 199.473 78.3354L198.502 80.0841ZM204.211 85.741C205.521 88.1401 206.198 90.845 206.223 93.8775L208.223 93.8609C208.195 90.5301 207.449 87.4966 205.967 84.7823L204.211 85.741ZM206.223 93.8775C206.248 96.8861 205.617 99.5907 204.346 102.012L206.117 102.942C207.554 100.204 208.25 97.1704 208.223 93.8609L206.223 93.8775ZM204.345 102.015C203.095 104.416 201.234 106.336 198.732 107.78L199.731 109.512C202.545 107.889 204.684 105.697 206.119 102.939L204.345 102.015ZM198.73 107.781C196.269 109.207 193.183 109.964 189.424 109.995L189.441 111.995C193.454 111.961 196.901 111.152 199.733 109.512L198.73 107.781ZM189.36 102.245C191.533 102.227 193.423 101.923 194.999 101.295L194.258 99.437C192.98 99.9465 191.352 100.228 189.343 100.245L189.36 102.245ZM194.99 101.298C196.584 100.681 197.848 99.7436 198.711 98.4592L197.051 97.3436C196.455 98.2305 195.55 98.9365 194.267 99.4335L194.99 101.298ZM198.704 98.4693C199.584 97.1938 199.987 95.6609 199.973 93.9294L197.973 93.946C197.985 95.3507 197.66 96.4603 197.058 97.3336L198.704 98.4693ZM199.973 93.9294C199.959 92.1975 199.53 90.6681 198.632 89.3982L196.999 90.5529C197.619 91.4296 197.962 92.5416 197.973 93.946L199.973 93.9294ZM198.633 89.4C197.749 88.1446 196.474 87.2311 194.875 86.6294L194.17 88.5012C195.467 88.9891 196.386 89.6825 196.997 90.5511L198.633 89.4ZM194.871 86.6279C193.287 86.0396 191.394 85.773 189.223 85.791L189.24 87.791C191.251 87.7743 192.885 88.0239 194.174 88.5027L194.871 86.6279ZM189.223 85.791C187.052 85.809 185.16 86.1072 183.576 86.7207L184.299 88.5856C185.593 88.0843 187.23 87.8076 189.24 87.791L189.223 85.791ZM183.567 86.7242C181.99 87.3527 180.734 88.286 179.862 89.5499L181.508 90.6855C182.119 89.8006 183.031 89.0909 184.308 88.5821L183.567 86.7242ZM179.855 89.5599C178.992 90.8437 178.596 92.3778 178.61 94.1066L180.61 94.09C180.598 92.6826 180.919 91.5629 181.515 90.6755L179.855 89.5599ZM178.61 94.1066C178.625 95.8351 179.046 97.359 179.933 98.6191L181.569 97.468C180.961 96.6041 180.622 95.4978 180.61 94.09L178.61 94.1066ZM179.934 98.6209C180.828 99.8845 182.103 100.799 183.696 101.391L184.392 99.5164C183.112 99.0411 182.192 98.3492 181.567 97.4662L179.934 98.6209ZM183.692 101.39C185.287 101.99 187.187 102.263 189.36 102.245L189.343 100.245C187.335 100.262 185.696 100.007 184.396 99.5179L183.692 101.39ZM207.094 135.893L208.094 135.885L208.086 134.885L207.086 134.893L207.094 135.893ZM207.173 145.37L207.181 146.37L208.181 146.362L208.173 145.362L207.173 145.37ZM177.891 143.704L178.432 142.863L178.431 142.862L177.891 143.704ZM173.364 138.457L172.46 138.884L172.462 138.888L173.364 138.457ZM173.233 122.674L172.324 122.258L172.322 122.261L173.233 122.674ZM177.672 117.352L177.124 116.516L177.119 116.52L177.672 117.352ZM206.923 115.235L207.923 115.226L207.914 114.226L206.915 114.235L206.923 115.235ZM207.001 124.712L207.01 125.712L208.01 125.703L208.001 124.703L207.001 124.712ZM182.565 125.63L182.069 124.762L182.064 124.765L182.565 125.63ZM180.604 127.624L179.73 127.138L179.728 127.143L180.604 127.624ZM180.652 133.419L179.787 133.92L179.787 133.92L180.652 133.419ZM182.646 135.38L182.16 136.254L182.165 136.256L182.646 135.38ZM206.094 135.901L206.173 145.378L208.173 145.362L208.094 135.885L206.094 135.901ZM207.165 144.37L184.802 144.556L184.818 146.556L207.181 146.37L207.165 144.37ZM184.802 144.556C182.308 144.576 180.199 143.999 178.432 142.863L177.35 144.545C179.49 145.921 181.994 146.579 184.818 146.556L184.802 144.556ZM178.431 142.862C176.658 141.725 175.269 140.125 174.267 138.026L172.462 138.888C173.611 141.294 175.239 143.192 177.351 144.546L178.431 142.862ZM174.269 138.03C173.277 135.932 172.755 133.459 172.731 130.587L170.731 130.604C170.757 133.709 171.323 136.477 172.46 138.884L174.269 138.03ZM172.731 130.587C172.707 127.691 173.189 125.199 174.145 123.086L172.322 122.261C171.225 124.688 170.705 127.477 170.731 130.604L172.731 130.587ZM174.143 123.089C175.11 120.974 176.472 119.351 178.226 118.185L177.119 116.52C175.03 117.909 173.433 119.833 172.324 122.258L174.143 123.089ZM178.22 118.189C179.969 117.043 182.071 116.441 184.568 116.42L184.552 114.42C181.73 114.444 179.241 115.13 177.124 116.516L178.22 118.189ZM184.568 116.42L206.931 116.235L206.915 114.235L184.552 114.42L184.568 116.42ZM205.923 115.243L206.001 124.72L208.001 124.703L207.923 115.226L205.923 115.243ZM206.993 123.712L185.448 123.89L185.465 125.89L207.01 125.712L206.993 123.712ZM185.448 123.89C184.216 123.901 183.081 124.184 182.069 124.762L183.061 126.499C183.745 126.108 184.538 125.898 185.465 125.89L185.448 123.89ZM182.064 124.765C181.071 125.339 180.289 126.135 179.731 127.138L181.478 128.11C181.86 127.423 182.385 126.89 183.066 126.496L182.064 124.765ZM179.728 127.143C179.167 128.164 178.902 129.304 178.912 130.536L180.912 130.519C180.905 129.592 181.101 128.796 181.481 128.105L179.728 127.143ZM178.912 130.536C178.923 131.777 179.205 132.915 179.787 133.92L181.518 132.918C181.131 132.25 180.92 131.46 180.912 130.519L178.912 130.536ZM179.787 133.92C180.361 134.913 181.157 135.696 182.16 136.254L183.132 134.506C182.445 134.124 181.912 133.599 181.518 132.918L179.787 133.92ZM182.165 136.256C183.186 136.817 184.326 137.082 185.558 137.072L185.541 135.072C184.614 135.08 183.818 134.883 183.127 134.503L182.165 136.256ZM185.558 137.072L207.103 136.893L207.086 134.893L185.541 135.072L185.558 137.072ZM199.566 148.983L199.558 147.983L198.558 147.991L198.566 148.991L199.566 148.983ZM207.202 148.92L208.202 148.911L208.194 147.911L207.194 147.92L207.202 148.92ZM207.454 179.259L207.462 180.259L208.462 180.251L208.454 179.251L207.454 179.259ZM199.818 179.323L198.818 179.331L198.826 180.331L199.826 180.323L199.818 179.323ZM199.731 168.823L200.731 168.815L200.722 167.815L199.723 167.823L199.731 168.823ZM172.459 169.049L171.459 169.058L171.467 170.058L172.467 170.049L172.459 169.049ZM172.382 159.709L172.373 158.709L171.373 158.717L171.382 159.717L172.382 159.709ZM199.653 159.483L199.662 160.483L200.662 160.474L200.653 159.474L199.653 159.483ZM199.574 149.983L207.211 149.92L207.194 147.92L199.558 147.983L199.574 149.983ZM206.202 148.928L206.454 179.268L208.454 179.251L208.202 148.911L206.202 148.928ZM207.446 178.26L199.81 178.323L199.826 180.323L207.462 180.259L207.446 178.26ZM200.818 179.315L200.731 168.815L198.731 168.831L198.818 179.331L200.818 179.315ZM199.723 167.823L172.451 168.049L172.467 170.049L199.739 169.823L199.723 167.823ZM173.459 169.041L173.381 159.701L171.382 159.717L171.459 169.058L173.459 169.041ZM172.39 160.709L199.662 160.483L199.645 158.483L172.373 158.709L172.39 160.709ZM200.653 159.474L200.566 148.975L198.566 148.991L198.653 159.491L200.653 159.474ZM207.734 213.047L208.734 213.038L208.726 212.038L207.726 212.047L207.734 213.047ZM207.813 222.524L207.821 223.524L208.821 223.515L208.813 222.515L207.813 222.524ZM178.531 220.857L179.072 220.016L179.071 220.016L178.531 220.857ZM174.004 215.611L173.1 216.038L173.102 216.042L174.004 215.611ZM173.873 199.827L172.964 199.411L172.962 199.415L173.873 199.827ZM178.312 194.506L177.764 193.67L177.759 193.673L178.312 194.506ZM207.563 192.388L208.563 192.38L208.555 191.38L207.555 191.388L207.563 192.388ZM207.642 201.865L207.65 202.865L208.65 202.857L208.642 201.857L207.642 201.865ZM183.205 202.784L182.709 201.915L182.704 201.918L183.205 202.784ZM181.244 204.778L180.371 204.291L180.368 204.296L181.244 204.778ZM181.292 210.573L180.427 211.074L180.427 211.074L181.292 210.573ZM183.286 212.534L182.8 213.407L182.805 213.41L183.286 212.534ZM206.734 213.055L206.813 222.532L208.813 222.515L208.734 213.038L206.734 213.055ZM207.805 221.524L185.442 221.709L185.458 223.709L207.821 223.524L207.805 221.524ZM185.442 221.709C182.948 221.73 180.839 221.153 179.072 220.016L177.99 221.698C180.13 223.075 182.634 223.733 185.458 223.709L185.442 221.709ZM179.071 220.016C177.298 218.879 175.909 217.279 174.907 215.18L173.102 216.042C174.251 218.448 175.879 220.345 177.991 221.699L179.071 220.016ZM174.909 215.184C173.917 213.085 173.395 210.613 173.371 207.741L171.371 207.757C171.397 210.862 171.963 213.631 173.1 216.038L174.909 215.184ZM173.371 207.741C173.347 204.845 173.829 202.353 174.785 200.239L172.962 199.415C171.865 201.842 171.345 204.631 171.371 207.757L173.371 207.741ZM174.783 200.243C175.75 198.128 177.113 196.505 178.866 195.339L177.759 193.673C175.67 195.062 174.073 196.986 172.964 199.411L174.783 200.243ZM178.86 195.343C180.61 194.197 182.712 193.594 185.208 193.574L185.192 191.574C182.371 191.597 179.881 192.283 177.764 193.67L178.86 195.343ZM185.208 193.574L207.571 193.388L207.555 191.388L185.192 191.574L185.208 193.574ZM206.563 192.397L206.642 201.874L208.642 201.857L208.563 192.38L206.563 192.397ZM207.633 200.865L186.089 201.044L186.105 203.044L207.65 202.865L207.633 200.865ZM186.089 201.044C184.856 201.054 183.721 201.338 182.709 201.915L183.701 203.652C184.385 203.262 185.178 203.052 186.105 203.044L186.089 201.044ZM182.704 201.918C181.711 202.493 180.929 203.289 180.371 204.291L182.118 205.264C182.501 204.577 183.025 204.043 183.706 203.649L182.704 201.918ZM180.368 204.296C179.807 205.318 179.542 206.457 179.553 207.689L181.552 207.673C181.545 206.746 181.741 205.95 182.121 205.259L180.368 204.296ZM179.553 207.689C179.563 208.931 179.845 210.068 180.427 211.074L182.158 210.072C181.771 209.403 181.56 208.613 181.552 207.673L179.553 207.689ZM180.427 211.074C181.002 212.067 181.797 212.849 182.8 213.407L183.772 211.66C183.085 211.277 182.552 210.753 182.158 210.072L180.427 211.074ZM182.805 213.41C183.826 213.971 184.966 214.236 186.198 214.225L186.181 212.225C185.254 212.233 184.458 212.036 183.767 211.657L182.805 213.41ZM186.198 214.225L207.743 214.047L207.726 212.047L186.181 212.225L186.198 214.225ZM197.098 245.936L197.01 244.94L196.09 245.021L196.098 245.944L197.098 245.936ZM199.746 244.635L198.978 243.995L198.974 244L199.746 244.635ZM200.294 238.801L199.359 239.156L199.363 239.165L200.294 238.801ZM199.346 237.445L199.935 236.638L199.935 236.638L199.346 237.445ZM197.978 236.996L197.932 237.995L197.948 237.996L197.964 237.996L197.978 236.996ZM196.838 237.227L196.383 236.337L196.365 236.346L196.348 236.356L196.838 237.227ZM195.942 238.087L195.12 237.517L195.114 237.525L195.109 237.534L195.942 238.087ZM194.676 241.728L195.656 241.93L195.658 241.922L194.676 241.728ZM194.087 244.597L193.107 244.396L193.107 244.398L194.087 244.597ZM190.167 252.965L189.468 252.25L189.463 252.255L190.167 252.965ZM187.149 254.916L186.8 253.979L186.791 253.983L187.149 254.916ZM183.473 255.595L183.476 256.595L183.49 256.594L183.473 255.595ZM177.629 253.921L177.055 254.74L177.055 254.74L177.629 253.921ZM173.958 249.077L174.886 248.704L174.885 248.702L173.958 249.077ZM173.932 233.548L173 233.185L172.999 233.187L173.932 233.548ZM178.03 228.264L177.472 227.434L177.466 227.438L178.03 228.264ZM185.207 226.329L186.207 226.321L186.199 225.317L185.195 225.329L185.207 226.329ZM185.282 235.329L185.343 236.327L186.29 236.269L186.282 235.321L185.282 235.329ZM182.596 236.152L182.04 235.321L182.04 235.321L182.596 236.152ZM180.959 238.177L180.038 237.787L180.037 237.791L180.959 238.177ZM180.818 243.838L179.882 244.19L179.882 244.19L180.818 243.838ZM181.871 245.38L181.255 246.168L181.255 246.168L181.871 245.38ZM183.393 245.913L183.381 246.913L183.401 246.913L183.422 246.913L183.393 245.913ZM184.786 245.373L184.152 244.6L184.14 244.609L184.129 244.619L184.786 245.373ZM185.863 243.728L184.942 243.338L184.937 243.35L185.863 243.728ZM186.758 240.635L187.736 240.841L187.737 240.838L186.758 240.635ZM187.479 237.152L186.5 236.948L186.5 236.949L187.479 237.152ZM190.776 229.812L190.024 229.152L190.02 229.158L190.776 229.812ZM197.214 227.116L197.218 228.116L197.228 228.116L197.214 227.116ZM203.041 228.84L203.619 228.024L203.618 228.024L203.041 228.84ZM206.986 233.802L207.899 233.395L207.899 233.393L206.986 233.802ZM207.091 248.461L206.178 248.052L206.178 248.052L207.091 248.461ZM203.142 253.249L202.59 252.415L202.584 252.419L203.142 253.249ZM197.173 255.004L196.173 255.012L196.181 256.017L197.186 256.004L197.173 255.004ZM197.186 246.932C198.545 246.812 199.692 246.276 200.519 245.27L198.974 244C198.54 244.528 197.921 244.859 197.01 244.94L197.186 246.932ZM200.514 245.276C201.361 244.261 201.686 242.838 201.672 241.193L199.672 241.21C199.684 242.633 199.392 243.499 198.978 243.995L200.514 245.276ZM201.672 241.193C201.663 240.145 201.529 239.213 201.226 238.437L199.363 239.165C199.547 239.635 199.665 240.303 199.672 241.21L201.672 241.193ZM201.229 238.446C200.95 237.71 200.535 237.075 199.935 236.638L198.756 238.253C198.957 238.399 199.174 238.669 199.36 239.156L201.229 238.446ZM199.935 236.638C199.362 236.219 198.704 236.006 197.992 235.996L197.964 237.996C198.276 238.001 198.529 238.087 198.756 238.253L199.935 236.638ZM198.024 235.997C197.448 235.971 196.893 236.076 196.383 236.337L197.293 238.118C197.462 238.032 197.667 237.983 197.932 237.995L198.024 235.997ZM196.348 236.356C195.858 236.631 195.454 237.035 195.12 237.517L196.763 238.657C196.968 238.362 197.162 238.193 197.328 238.099L196.348 236.356ZM195.109 237.534C194.791 238.012 194.523 238.59 194.294 239.246L196.182 239.906C196.375 239.354 196.576 238.939 196.775 238.641L195.109 237.534ZM194.294 239.246C194.063 239.907 193.865 240.672 193.695 241.535L195.658 241.922C195.815 241.123 195.991 240.453 196.182 239.906L194.294 239.246ZM193.697 241.527L193.107 244.396L195.066 244.798L195.656 241.93L193.697 241.527ZM193.107 244.398C192.725 246.275 192.221 247.851 191.606 249.14L193.411 250.001C194.114 248.529 194.662 246.789 195.067 244.796L193.107 244.398ZM191.606 249.14C190.987 250.436 190.27 251.465 189.468 252.25L190.867 253.68C191.868 252.7 192.712 251.466 193.411 250.001L191.606 249.14ZM189.463 252.255C188.669 253.042 187.782 253.613 186.8 253.979L187.499 255.853C188.759 255.383 189.885 254.653 190.871 253.675L189.463 252.255ZM186.791 253.983C185.79 254.366 184.681 254.574 183.456 254.595L183.49 256.594C184.923 256.57 186.266 256.326 187.507 255.85L186.791 253.983ZM183.47 254.595C181.344 254.602 179.607 254.088 178.204 253.103L177.055 254.74C178.852 256.001 181.011 256.603 183.476 256.595L183.47 254.595ZM178.204 253.103C176.786 252.108 175.673 250.66 174.886 248.704L173.03 249.45C173.938 251.706 175.272 253.489 177.055 254.74L178.204 253.103ZM174.885 248.702C174.098 246.753 173.675 244.359 173.651 241.494L171.651 241.51C171.676 244.554 172.125 247.21 173.031 249.451L174.885 248.702ZM173.651 241.494C173.627 238.556 174.041 236.035 174.864 233.909L172.999 233.187C172.065 235.598 171.625 238.38 171.651 241.51L173.651 241.494ZM174.864 233.911C175.675 231.826 176.921 230.232 178.594 229.09L177.466 227.438C175.433 228.826 173.946 230.756 173 233.185L174.864 233.911ZM178.588 229.094C180.249 227.976 182.436 227.363 185.22 227.329L185.195 225.329C182.138 225.367 179.54 226.043 177.472 227.434L178.588 229.094ZM184.207 226.337L184.282 235.337L186.282 235.321L186.207 226.321L184.207 226.337ZM185.221 234.331C184.017 234.405 182.941 234.719 182.04 235.321L183.151 236.984C183.697 236.619 184.412 236.384 185.343 236.327L185.221 234.331ZM182.04 235.321C181.141 235.921 180.476 236.756 180.038 237.787L181.879 238.568C182.178 237.865 182.603 237.35 183.151 236.984L182.04 235.321ZM180.037 237.791C179.605 238.822 179.412 240.004 179.422 241.31L181.422 241.293C181.413 240.189 181.578 239.288 181.881 238.564L180.037 237.791ZM179.422 241.31C179.431 242.396 179.573 243.366 179.882 244.19L181.754 243.486C181.553 242.95 181.43 242.229 181.422 241.293L179.422 241.31ZM179.882 244.19C180.185 244.994 180.629 245.679 181.255 246.168L182.487 244.592C182.221 244.385 181.963 244.041 181.754 243.486L179.882 244.19ZM181.255 246.168C181.875 246.652 182.594 246.904 183.381 246.913L183.404 244.913C183.054 244.909 182.759 244.805 182.487 244.592L181.255 246.168ZM183.422 246.913C184.182 246.89 184.87 246.626 185.443 246.127L184.129 244.619C183.912 244.808 183.671 244.904 183.363 244.914L183.422 246.913ZM185.42 246.147C186.008 245.665 186.447 244.944 186.789 244.106L184.937 243.35C184.656 244.039 184.376 244.416 184.152 244.6L185.42 246.147ZM186.784 244.117C187.143 243.27 187.457 242.169 187.736 240.841L185.779 240.429C185.512 241.696 185.23 242.658 184.942 243.338L186.784 244.117ZM187.737 240.838L188.458 237.354L186.5 236.949L185.779 240.432L187.737 240.838ZM188.458 237.355C189.079 234.372 190.122 232.098 191.533 230.465L190.02 229.158C188.324 231.119 187.168 233.738 186.5 236.948L188.458 237.355ZM191.528 230.471C192.875 228.933 194.731 228.126 197.218 228.116L197.21 226.116C194.243 226.128 191.807 227.118 190.024 229.152L191.528 230.471ZM197.228 228.116C199.251 228.089 200.983 228.61 202.464 229.657L203.618 228.024C201.762 226.712 199.609 226.084 197.201 226.116L197.228 228.116ZM202.463 229.656C203.98 230.731 205.188 232.236 206.074 234.211L207.899 233.393C206.885 231.134 205.463 229.331 203.619 228.024L202.463 229.656ZM206.073 234.21C206.957 236.191 207.423 238.496 207.445 241.145L209.445 241.129C209.421 238.255 208.914 235.67 207.899 233.395L206.073 234.21ZM207.445 241.145C207.467 243.854 207.033 246.146 206.178 248.052L208.003 248.87C209.001 246.646 209.469 244.056 209.445 241.129L207.445 241.145ZM206.178 248.052C205.321 249.962 204.122 251.403 202.59 252.415L203.693 254.084C205.574 252.84 207.008 251.089 208.003 248.87L206.178 248.052ZM202.584 252.419C201.068 253.438 199.273 253.976 197.16 254.004L197.186 256.004C199.641 255.971 201.824 255.339 203.699 254.08L202.584 252.419ZM198.173 254.995L198.098 245.927L196.098 245.944L196.173 255.012L198.173 254.995Z" fill="#05C2DF" fill-opacity="0.2"/>
<path d="M122.003 243.201L123.003 243.193L122.997 242.45L122.284 242.241L122.003 243.201ZM122.088 253.428L121.782 254.38L123.099 254.803L123.088 253.42L122.088 253.428ZM87.0844 242.195L86.0845 242.203L86.0905 242.926L86.7789 243.147L87.0844 242.195ZM86.977 229.241L86.6557 228.294L85.971 228.526L85.977 229.249L86.977 229.241ZM121.789 217.429L122.789 217.421L122.778 216.038L121.468 216.482L121.789 217.429ZM121.874 227.656L122.171 228.611L122.88 228.39L122.874 227.648L121.874 227.656ZM96.6429 235.502L96.3459 234.547L95.6368 234.768L95.6429 235.51L96.6429 235.502ZM96.6451 235.775L95.6452 235.783L95.6513 236.526L96.3641 236.734L96.6451 235.775ZM108.247 245.224L107.247 245.233L107.255 246.233L108.255 246.224L108.247 245.224ZM108.087 225.998L108.079 224.998L107.079 225.006L107.087 226.006L108.087 225.998ZM115.178 225.939L116.178 225.931L116.169 224.931L115.17 224.939L115.178 225.939ZM115.337 245.165L115.346 246.165L116.346 246.157L116.337 245.157L115.337 245.165ZM121.003 243.209L121.088 253.436L123.088 253.42L123.003 243.193L121.003 243.209ZM122.393 252.476L87.39 241.243L86.7789 243.147L121.782 254.38L122.393 252.476ZM88.0844 242.187L87.9769 229.233L85.977 229.249L86.0845 242.203L88.0844 242.187ZM87.2983 230.188L122.111 218.376L121.468 216.482L86.6557 228.294L87.2983 230.188ZM120.789 217.437L120.874 227.664L122.874 227.648L122.789 217.421L120.789 217.437ZM121.577 226.701L96.3459 234.547L96.9398 236.457L122.171 228.611L121.577 226.701ZM95.6429 235.51L95.6452 235.783L97.6451 235.766L97.6428 235.494L95.6429 235.51ZM96.3641 236.734L121.722 244.161L122.284 242.241L96.9262 234.815L96.3641 236.734ZM109.247 245.216L109.087 225.989L107.087 226.006L107.247 245.233L109.247 245.216ZM108.095 226.998L115.186 226.939L115.17 224.939L108.079 224.998L108.095 226.998ZM114.178 225.947L114.337 245.174L116.337 245.157L116.178 225.931L114.178 225.947ZM115.329 244.165L108.238 244.224L108.255 246.224L115.346 246.165L115.329 244.165ZM121.761 214.067L121.77 215.067L122.77 215.059L122.761 214.059L121.761 214.067ZM86.8535 214.357L85.8535 214.365L85.8618 215.365L86.8618 215.357L86.8535 214.357ZM87.7462 192.513L88.6789 192.874L88.6796 192.872L87.7462 192.513ZM90.7461 188.38L91.3287 189.193L91.3334 189.19L90.7461 188.38ZM98.8719 187.767L98.4057 188.652L98.4132 188.656L98.8719 187.767ZM101.55 190.098L102.366 189.519L102.362 189.513L101.55 190.098ZM103.046 193.631L102.067 193.837L102.236 194.637L103.054 194.631L103.046 193.631ZM103.387 193.628L103.395 194.628L104.358 194.62L104.386 193.657L103.387 193.628ZM104.495 189.528L105.366 190.018L105.369 190.012L104.495 189.528ZM107.351 186.572L107.868 187.428L107.871 187.426L107.351 186.572ZM116.746 186.903L116.195 187.738L116.2 187.741L116.746 186.903ZM120.292 191.101L119.389 191.531L119.389 191.531L120.292 191.101ZM114.115 204.653L114.123 205.653L115.123 205.645L115.115 204.645L114.115 204.653ZM113.162 196.649L113.96 196.046L113.954 196.039L113.162 196.649ZM107.136 197.671L108.057 198.061L108.059 198.055L107.136 197.671ZM106.751 204.714L105.751 204.722L105.76 205.722L106.76 205.714L106.751 204.714ZM100.888 204.763L100.896 205.763L101.896 205.754L101.888 204.754L100.888 204.763ZM100.445 198.681L101.367 198.293L101.367 198.293L100.445 198.681ZM99.3082 197.207L98.7268 198.021L98.7302 198.023L99.3082 197.207ZM95.018 197.857L95.823 198.45L95.8285 198.442L95.018 197.857ZM94.2064 204.818L93.2065 204.826L93.2147 205.826L94.2147 205.818L94.2064 204.818ZM121.753 213.067L86.8452 213.357L86.8618 215.357L121.77 215.067L121.753 213.067ZM87.8534 214.348L87.7279 199.213L85.7279 199.229L85.8535 214.365L87.8534 214.348ZM87.7279 199.213C87.7065 196.636 88.0368 194.534 88.6789 192.874L86.8135 192.153C86.0537 194.118 85.7052 196.487 85.7279 199.229L87.7279 199.213ZM88.6796 192.872C89.3261 191.189 90.2206 189.987 91.3287 189.193L90.1635 187.568C88.6733 188.636 87.5679 190.189 86.8127 192.155L88.6796 192.872ZM91.3334 189.19C92.4464 188.382 93.7746 187.957 95.3619 187.944L95.3453 185.944C93.3873 185.961 91.6438 186.493 90.1588 187.571L91.3334 189.19ZM95.3619 187.944C96.4926 187.935 97.5007 188.175 98.4057 188.652L99.3382 186.883C98.1202 186.241 96.7827 185.932 95.3453 185.944L95.3619 187.944ZM98.4132 188.656C99.3294 189.129 100.103 189.799 100.739 190.682L102.362 189.513C101.549 188.385 100.537 187.502 99.3307 186.879L98.4132 188.656ZM100.735 190.676C101.359 191.557 101.808 192.605 102.067 193.837L104.024 193.425C103.716 191.957 103.167 190.649 102.366 189.519L100.735 190.676ZM103.054 194.631L103.395 194.628L103.378 192.628L103.037 192.631L103.054 194.631ZM104.386 193.657C104.426 192.309 104.756 191.102 105.366 190.018L103.623 189.037C102.845 190.42 102.436 191.946 102.387 193.598L104.386 193.657ZM105.369 190.012C105.967 188.934 106.794 188.076 107.868 187.428L106.834 185.716C105.465 186.543 104.389 187.655 103.62 189.043L105.369 190.012ZM107.871 187.426C108.903 186.797 110.149 186.458 111.646 186.445L111.629 184.446C109.83 184.46 108.218 184.872 106.831 185.718L107.871 187.426ZM111.646 186.445C113.369 186.431 114.875 186.867 116.195 187.738L117.297 186.068C115.623 184.964 113.723 184.428 111.629 184.446L111.646 186.445ZM116.2 187.741C117.523 188.604 118.591 189.853 119.389 191.531L121.195 190.671C120.259 188.705 118.963 187.155 117.292 186.066L116.2 187.741ZM119.389 191.531C120.18 193.192 120.605 195.22 120.625 197.644L122.625 197.627C122.603 194.984 122.139 192.655 121.195 190.671L119.389 191.531ZM120.625 197.644L120.761 214.075L122.761 214.059L122.625 197.627L120.625 197.644ZM115.115 204.645L115.078 200.213L113.078 200.23L113.115 204.661L115.115 204.645ZM115.078 200.213C115.064 198.527 114.744 197.084 113.96 196.046L112.364 197.252C112.775 197.795 113.066 198.733 113.078 200.23L115.078 200.213ZM113.954 196.039C113.12 194.956 111.907 194.466 110.485 194.478L110.501 196.478C111.42 196.47 111.987 196.762 112.37 197.259L113.954 196.039ZM110.485 194.478C109.511 194.486 108.619 194.718 107.861 195.228L108.976 196.888C109.348 196.638 109.839 196.484 110.501 196.478L110.485 194.478ZM107.861 195.228C107.115 195.728 106.57 196.43 106.213 197.286L108.059 198.055C108.282 197.521 108.591 197.147 108.976 196.888L107.861 195.228ZM106.215 197.281C105.859 198.123 105.705 199.091 105.714 200.154L107.714 200.138C107.706 199.269 107.834 198.587 108.057 198.061L106.215 197.281ZM105.714 200.154L105.751 204.722L107.751 204.706L107.714 200.138L105.714 200.154ZM106.76 205.714L114.123 205.653L114.107 203.653L106.743 203.714L106.76 205.714ZM101.888 204.754L101.856 200.868L99.8558 200.885L99.888 204.771L101.888 204.754ZM101.856 200.868C101.848 199.934 101.694 199.07 101.367 198.293L99.5237 199.068C99.7305 199.56 99.8498 200.159 99.8558 200.885L101.856 200.868ZM101.367 198.293C101.039 197.512 100.551 196.862 99.8863 196.391L98.7302 198.023C99.0487 198.249 99.3189 198.581 99.5237 199.068L101.367 198.293ZM99.8897 196.394C99.1886 195.893 98.3642 195.67 97.4716 195.677L97.4882 197.677C98.0273 197.672 98.4219 197.803 98.7268 198.021L99.8897 196.394ZM97.4716 195.677C96.12 195.688 94.9809 196.2 94.2075 197.271L95.8285 198.442C96.1786 197.958 96.6808 197.684 97.4882 197.677L97.4716 195.677ZM94.2131 197.263C93.485 198.251 93.1619 199.455 93.1731 200.804L95.173 200.787C95.1646 199.772 95.4048 199.017 95.823 198.45L94.2131 197.263ZM93.1731 200.804L93.2065 204.826L95.2064 204.81L95.173 200.787L93.1731 200.804ZM94.2147 205.818L100.896 205.763L100.88 203.763L94.1981 203.818L94.2147 205.818ZM113.615 150.519L114.101 149.645L114.1 149.644L113.615 150.519ZM119.716 156.588L120.596 156.111L120.594 156.108L119.716 156.588ZM119.842 173.803L120.725 174.273L120.728 174.268L119.842 173.803ZM113.825 179.956L114.322 180.823L114.326 180.821L113.825 179.956ZM94.206 180.118L93.7207 180.993L93.722 180.993L94.206 180.118ZM88.1045 174.066L88.9829 173.589L88.9821 173.587L88.1045 174.066ZM87.9617 156.851L88.8472 157.316L88.8487 157.313L87.9617 156.851ZM93.9618 150.682L94.4616 151.548L94.4632 151.547L93.9618 150.682ZM98.5648 158.962L98.9261 159.895L98.9349 159.891L98.5648 158.962ZM95.3124 161.427L96.1356 161.995L96.1423 161.985L95.3124 161.427ZM95.3781 169.353L96.1959 168.777L96.1946 168.775L95.3781 169.353ZM98.671 171.763L98.3188 172.699L98.3227 172.7L98.671 171.763ZM109.256 171.675L109.617 172.608L109.626 172.604L109.256 171.675ZM112.508 169.21L113.331 169.778L113.338 169.768L112.508 169.21ZM112.442 161.285L113.26 160.709L113.259 160.707L112.442 161.285ZM109.15 158.874L108.797 159.81L108.801 159.812L109.15 158.874ZM103.769 149.333C107.528 149.302 110.632 150.007 113.129 151.393L114.1 149.644C111.231 148.052 107.766 147.3 103.753 147.333L103.769 149.333ZM113.128 151.392C115.643 152.794 117.537 154.684 118.839 157.067L120.594 156.108C119.103 153.378 116.929 151.222 114.101 149.645L113.128 151.392ZM118.837 157.064C120.137 159.465 120.808 162.16 120.833 165.17L122.833 165.153C122.805 161.845 122.065 158.824 120.596 156.111L118.837 157.064ZM120.833 165.17C120.858 168.202 120.227 170.918 118.957 173.338L120.728 174.268C122.165 171.529 122.861 168.484 122.833 165.153L120.833 165.17ZM118.959 173.334C117.686 175.728 115.817 177.646 113.323 179.09L114.326 180.821C117.125 179.199 119.268 177.014 120.725 174.273L118.959 173.334ZM113.328 179.088C110.853 180.505 107.77 181.256 104.034 181.287L104.051 183.287C108.042 183.254 111.481 182.45 114.322 180.823L113.328 179.088ZM104.034 181.287C100.274 181.318 97.1752 180.618 94.6901 179.243L93.722 180.993C96.5798 182.574 100.039 183.32 104.051 183.287L104.034 181.287ZM94.6914 179.244C92.1642 177.841 90.2715 175.957 88.9829 173.589L87.2261 174.544C88.7071 177.267 90.8821 179.417 93.7207 180.993L94.6914 179.244ZM88.9821 173.587C87.6719 171.188 86.9956 168.483 86.9705 165.451L84.9705 165.467C84.9982 168.798 85.7445 171.832 87.2268 174.546L88.9821 173.587ZM86.9705 165.451C86.9455 162.442 87.5764 159.737 88.8471 157.316L87.0762 156.386C85.6397 159.124 84.9431 162.158 84.9705 165.467L86.9705 165.451ZM88.8487 157.313C90.0981 154.912 91.9592 152.992 94.4616 151.548L93.4621 149.816C90.6488 151.439 88.5098 153.632 87.0746 156.39L88.8487 157.313ZM94.4632 151.547C96.9244 150.121 100.01 149.365 103.769 149.333L103.753 147.333C99.7391 147.367 96.2922 148.176 93.4605 149.817L94.4632 151.547ZM103.833 157.083C101.661 157.101 99.7703 157.405 98.1946 158.033L98.9349 159.891C100.214 159.382 101.841 159.1 103.85 159.083L103.833 157.083ZM98.2035 158.03C96.6091 158.647 95.3456 159.585 94.4824 160.869L96.1423 161.985C96.7384 161.098 97.6432 160.392 98.9261 159.895L98.2035 158.03ZM94.4892 160.859C93.6094 162.134 93.2059 163.667 93.2203 165.399L95.2202 165.382C95.2085 163.977 95.5331 162.868 96.1355 161.995L94.4892 160.859ZM93.2203 165.399C93.2346 167.131 93.6637 168.66 94.5616 169.93L96.1946 168.775C95.5747 167.899 95.2318 166.787 95.2202 165.382L93.2203 165.399ZM94.5604 169.928C95.444 171.184 96.7198 172.097 98.3188 172.699L99.0232 170.827C97.7267 170.339 96.8072 169.646 96.1959 168.777L94.5604 169.928ZM98.3227 172.7C99.9064 173.289 101.799 173.555 103.97 173.537L103.953 171.537C101.943 171.554 100.308 171.304 99.0192 170.825L98.3227 172.7ZM103.97 173.537C106.141 173.519 108.034 173.221 109.617 172.607L108.895 170.743C107.601 171.244 105.964 171.52 103.953 171.537L103.97 173.537ZM109.626 172.604C111.203 171.975 112.46 171.042 113.331 169.778L111.685 168.643C111.075 169.527 110.163 170.237 108.886 170.746L109.626 172.604ZM113.338 169.768C114.201 168.484 114.598 166.95 114.583 165.221L112.583 165.238C112.595 166.645 112.275 167.765 111.678 168.653L113.338 169.768ZM114.583 165.221C114.569 163.493 114.147 161.969 113.26 160.709L111.625 161.86C112.233 162.724 112.572 163.83 112.583 165.238L114.583 165.221ZM113.259 160.707C112.365 159.444 111.091 158.529 109.498 157.937L108.801 159.812C110.081 160.287 111.002 160.979 111.626 161.862L113.259 160.707ZM109.502 157.938C107.906 157.338 106.007 157.065 103.833 157.083L103.85 159.083C105.858 159.066 107.498 159.321 108.797 159.81L109.502 157.938ZM86.0991 123.435L85.0992 123.443L85.1075 124.443L86.1074 124.435L86.0991 123.435ZM86.0205 113.958L86.0122 112.958L85.0123 112.966L85.0206 113.966L86.0205 113.958ZM115.302 115.624L114.761 116.465L114.763 116.466L115.302 115.624ZM119.829 120.871L120.733 120.444L120.731 120.44L119.829 120.871ZM119.96 136.655L120.869 137.07L120.871 137.067L119.96 136.655ZM115.521 141.976L116.069 142.812L116.075 142.808L115.521 141.976ZM86.2705 144.093L85.2706 144.102L85.2789 145.102L86.2788 145.093L86.2705 144.093ZM86.1919 134.616L86.1836 133.617L85.1837 133.625L85.1919 134.625L86.1919 134.616ZM110.628 133.698L111.124 134.566L111.129 134.563L110.628 133.698ZM112.589 131.704L113.463 132.191L113.466 132.186L112.589 131.704ZM112.541 125.909L113.407 125.408L113.407 125.408L112.541 125.909ZM110.547 123.948L111.034 123.074L111.029 123.072L110.547 123.948ZM87.0991 123.427L87.0205 113.95L85.0206 113.966L85.0992 123.443L87.0991 123.427ZM86.0288 114.958L108.392 114.773L108.375 112.773L86.0122 112.958L86.0288 114.958ZM108.392 114.773C110.885 114.752 112.994 115.329 114.761 116.465L115.843 114.783C113.703 113.407 111.2 112.749 108.375 112.773L108.392 114.773ZM114.763 116.466C116.535 117.603 117.925 119.203 118.927 121.302L120.731 120.44C119.582 118.034 117.954 116.137 115.842 114.783L114.763 116.466ZM118.925 121.298C119.916 123.396 120.439 125.869 120.463 128.741L122.462 128.724C122.437 125.62 121.87 122.851 120.733 120.444L118.925 121.298ZM120.463 128.741C120.487 131.637 120.005 134.129 119.049 136.243L120.871 137.067C121.969 134.64 122.488 131.851 122.462 128.724L120.463 128.741ZM119.051 136.239C118.083 138.354 116.721 139.977 114.967 141.143L116.075 142.808C118.164 141.42 119.761 139.495 120.869 137.07L119.051 136.239ZM114.973 141.139C113.224 142.285 111.122 142.887 108.625 142.908L108.642 144.908C111.463 144.884 113.953 144.199 116.069 142.812L114.973 141.139ZM108.625 142.908L86.2622 143.093L86.2788 145.093L108.642 144.908L108.625 142.908ZM87.2705 144.085L87.1919 134.608L85.1919 134.625L85.2706 144.102L87.2705 144.085ZM86.2002 135.616L107.745 135.438L107.728 133.438L86.1836 133.617L86.2002 135.616ZM107.745 135.438C108.977 135.427 110.112 135.144 111.124 134.566L110.132 132.829C109.448 133.22 108.655 133.43 107.728 133.438L107.745 135.438ZM111.129 134.563C112.122 133.989 112.905 133.193 113.463 132.191L111.715 131.218C111.333 131.905 110.808 132.438 110.128 132.832L111.129 134.563ZM113.466 132.186C114.027 131.164 114.291 130.025 114.281 128.792L112.281 128.809C112.289 129.736 112.092 130.532 111.713 131.223L113.466 132.186ZM114.281 128.792C114.271 127.551 113.988 126.413 113.407 125.408L111.675 126.41C112.062 127.078 112.273 127.869 112.281 128.809L114.281 128.792ZM113.407 125.408C112.832 124.415 112.036 123.632 111.034 123.074L110.061 124.822C110.748 125.204 111.282 125.729 111.675 126.41L113.407 125.408ZM111.029 123.072C110.007 122.511 108.868 122.246 107.636 122.256L107.652 124.256C108.579 124.249 109.375 124.445 110.066 124.825L111.029 123.072ZM107.636 122.256L86.0909 122.435L86.1074 124.435L107.652 124.256L107.636 122.256ZM93.6272 110.345L93.6355 111.345L94.6354 111.337L94.6271 110.337L93.6272 110.345ZM85.9911 110.409L84.9911 110.417L84.9994 111.417L85.9994 111.408L85.9911 110.409ZM85.7394 80.0687L85.7311 79.0687L84.7311 79.077L84.7394 80.077L85.7394 80.0687ZM93.3755 80.0053L94.3754 79.997L94.3671 78.997L93.3672 79.0053L93.3755 80.0053ZM93.4626 90.5049L92.4626 90.5132L92.4709 91.5132L93.4709 91.5049L93.4626 90.5049ZM120.734 90.2787L121.734 90.2704L121.726 89.2704L120.726 89.2787L120.734 90.2787ZM120.812 99.6193L120.82 100.619L121.82 100.611L121.812 99.611L120.812 99.6193ZM93.5401 99.8455L93.5318 98.8456L92.5318 98.8539L92.5401 99.8538L93.5401 99.8455ZM93.6189 109.345L85.9828 109.409L85.9994 111.408L93.6355 111.345L93.6189 109.345ZM86.991 110.4L86.7393 80.0604L84.7394 80.077L84.9911 110.417L86.991 110.4ZM85.7477 81.0686L93.3838 81.0053L93.3672 79.0053L85.7311 79.0687L85.7477 81.0686ZM92.3755 80.0136L92.4626 90.5132L94.4625 90.4966L94.3754 79.997L92.3755 80.0136ZM93.4709 91.5049L120.743 91.2786L120.726 89.2787L93.4543 89.505L93.4709 91.5049ZM119.734 90.287L119.812 99.6276L121.812 99.611L121.734 90.2704L119.734 90.287ZM120.804 98.6193L93.5318 98.8456L93.5484 100.845L120.82 100.619L120.804 98.6193ZM92.5401 99.8538L92.6272 110.353L94.6271 110.337L94.54 99.8372L92.5401 99.8538ZM85.459 46.2815L84.4591 46.2898L84.4674 47.2897L85.4673 47.2814L85.459 46.2815ZM85.3804 36.8045L85.3721 35.8046L84.3722 35.8129L84.3804 36.8128L85.3804 36.8045ZM114.662 38.4707L114.121 39.3118L114.123 39.3126L114.662 38.4707ZM119.189 43.7175L120.093 43.2903L120.091 43.2866L119.189 43.7175ZM119.32 59.501L120.229 59.9169L120.231 59.9131L119.32 59.501ZM114.881 64.8221L115.429 65.6586L115.435 65.6549L114.881 64.8221ZM85.6304 66.9398L84.6305 66.9481L84.6388 67.9481L85.6387 67.9398L85.6304 66.9398ZM85.5518 57.4629L85.5435 56.4629L84.5435 56.4712L84.5518 57.4712L85.5518 57.4629ZM109.988 56.5442L110.484 57.4127L110.489 57.4098L109.988 56.5442ZM111.949 54.5506L112.823 55.037L112.826 55.032L111.949 54.5506ZM111.901 48.7554L112.766 48.2546L112.766 48.2546L111.901 48.7554ZM109.907 46.7946L110.394 45.9208L110.389 45.918L109.907 46.7946ZM86.459 46.2732L86.3804 36.7962L84.3804 36.8128L84.4591 46.2898L86.459 46.2732ZM85.3887 37.8045L107.752 37.619L107.735 35.619L85.3721 35.8046L85.3887 37.8045ZM107.752 37.619C110.245 37.5983 112.354 38.1752 114.121 39.3118L115.203 37.6297C113.063 36.2532 110.56 35.5956 107.735 35.619L107.752 37.619ZM114.123 39.3126C115.895 40.4491 117.284 42.0496 118.287 44.1483L120.091 43.2866C118.942 40.8803 117.314 38.983 115.202 37.6289L114.123 39.3126ZM118.285 44.1446C119.276 46.2427 119.799 48.7154 119.822 51.5875L121.822 51.5709C121.797 48.4659 121.23 45.6975 120.093 43.2903L118.285 44.1446ZM119.822 51.5875C119.846 54.4835 119.365 56.9756 118.409 59.0889L120.231 59.9131C121.329 57.4865 121.848 54.6973 121.822 51.5709L119.822 51.5875ZM118.41 59.0852C117.443 61.2002 116.081 62.8236 114.327 63.9894L115.435 65.6549C117.524 64.266 119.12 62.3419 120.229 59.9169L118.41 59.0852ZM114.333 63.9856C112.584 65.1314 110.482 65.7336 107.985 65.7543L108.002 67.7543C110.823 67.7309 113.313 67.045 115.429 65.6586L114.333 63.9856ZM107.985 65.7543L85.6221 65.9399L85.6387 67.9398L108.002 67.7543L107.985 65.7543ZM86.6304 66.9316L86.5518 57.4546L84.5518 57.4712L84.6305 66.9481L86.6304 66.9316ZM85.5601 58.4629L107.105 58.2841L107.088 56.2842L85.5435 56.4629L85.5601 58.4629ZM107.105 58.2841C108.337 58.2739 109.472 57.9905 110.484 57.4127L109.492 55.6758C108.808 56.0666 108.015 56.2765 107.088 56.2842L107.105 58.2841ZM110.489 57.4098C111.482 56.8351 112.265 56.0396 112.823 55.037L111.075 54.0642C110.693 54.7513 110.168 55.2848 109.487 55.6787L110.489 57.4098ZM112.826 55.032C113.387 54.0104 113.651 52.8709 113.641 51.6388L111.641 51.6553C111.649 52.5822 111.452 53.3784 111.072 54.0693L112.826 55.032ZM113.641 51.6388C113.631 50.3974 113.348 49.2597 112.766 48.2546L111.035 49.2562C111.422 49.9249 111.633 50.7149 111.641 51.6553L113.641 51.6388ZM112.766 48.2546C112.192 47.2614 111.396 46.4789 110.394 45.9208L109.421 47.6683C110.108 48.0508 110.642 48.5755 111.035 49.2562L112.766 48.2546ZM110.389 45.918C109.367 45.3571 108.228 45.0925 106.995 45.1028L107.012 47.1027C107.939 47.095 108.735 47.2917 109.426 47.6711L110.389 45.918ZM106.995 45.1028L85.4507 45.2815L85.4673 47.2814L107.012 47.1027L106.995 45.1028ZM96.0956 13.3924L96.1837 14.3885L97.1033 14.3072L97.0956 13.3841L96.0956 13.3924ZM93.4472 14.6928L94.2151 15.3334L94.2198 15.3277L93.4472 14.6928ZM92.899 20.5271L93.8339 20.172L93.8303 20.1627L92.899 20.5271ZM93.8478 21.8829L93.2582 22.6906L93.2582 22.6906L93.8478 21.8829ZM95.2152 22.3318L95.2609 21.3328L95.245 21.3321L95.2292 21.3319L95.2152 22.3318ZM96.3554 22.1007L96.81 22.9914L96.8281 22.9822L96.8457 22.9723L96.3554 22.1007ZM97.2517 21.241L98.0734 21.8109L98.0791 21.8027L98.0846 21.7944L97.2517 21.241ZM98.517 17.5997L97.5375 17.3983L97.5358 17.4066L98.517 17.5997ZM99.1069 14.7311L100.086 14.9325L100.087 14.9301L99.1069 14.7311ZM103.026 6.36304L103.726 7.07777L103.73 7.07334L103.026 6.36304ZM106.044 4.4118L106.394 5.34876L106.402 5.34558L106.044 4.4118ZM109.721 3.73355L109.717 2.73347L109.704 2.73369L109.721 3.73355ZM115.564 5.40672L116.139 4.58819L116.139 4.58819L115.564 5.40672ZM119.235 10.2514L118.307 10.6245L118.308 10.6262L119.235 10.2514ZM119.262 25.7802L120.194 26.143L120.194 26.1414L119.262 25.7802ZM115.163 31.0643L115.721 31.8941L115.727 31.8902L115.163 31.0643ZM107.986 32.999L106.986 33.0072L106.994 34.0111L107.998 33.9989L107.986 32.999ZM107.911 23.9993L107.85 23.0011L106.903 23.0594L106.911 24.0076L107.911 23.9993ZM110.598 23.1758L111.153 24.0073L111.153 24.0073L110.598 23.1758ZM112.234 21.1508L113.155 21.5415L113.157 21.5371L112.234 21.1508ZM112.375 15.4903L113.311 15.1383L113.311 15.1383L112.375 15.4903ZM111.322 13.9479L111.938 13.1599L111.938 13.1599L111.322 13.9479ZM109.801 13.415L109.813 12.4151L109.792 12.4149L109.771 12.4155L109.801 13.415ZM108.408 13.955L109.041 14.7285L109.053 14.7189L109.065 14.7089L108.408 13.955ZM107.33 15.6004L108.251 15.99L108.256 15.9783L107.33 15.6004ZM106.435 18.6931L105.457 18.487L105.456 18.4904L106.435 18.6931ZM105.714 22.1765L106.693 22.3804L106.694 22.3792L105.714 22.1765ZM102.417 29.5166L103.169 30.1757L103.174 30.1706L102.417 29.5166ZM95.979 32.2122L95.9749 31.2121L95.9656 31.2123L95.979 32.2122ZM90.152 30.4877L89.5739 31.3037L89.5749 31.3044L90.152 30.4877ZM86.2073 25.526L85.2941 25.9334L85.2949 25.9351L86.2073 25.526ZM86.1028 10.8672L87.0152 11.2765L87.0152 11.2765L86.1028 10.8672ZM90.0518 6.07863L90.6032 6.91293L90.6095 6.90864L90.0518 6.07863ZM96.0204 4.3245L97.0204 4.31621L97.012 3.31125L96.0071 3.32459L96.0204 4.3245ZM96.0076 12.3963C94.6479 12.5164 93.5009 13.0525 92.6747 14.0579L94.2198 15.3277C94.6536 14.7999 95.2722 14.469 96.1837 14.3885L96.0076 12.3963ZM92.6794 14.0522C91.8326 15.0671 91.5075 16.49 91.5212 18.135L93.5211 18.1184C93.5093 16.6954 93.8016 15.829 94.2151 15.3334L92.6794 14.0522ZM91.5212 18.135C91.5299 19.183 91.6641 20.1155 91.9678 20.8915L93.8303 20.1627C93.6463 19.6927 93.5286 19.0249 93.5211 18.1184L91.5212 18.135ZM91.9642 20.8822C92.2437 21.618 92.6587 22.2529 93.2582 22.6906L94.4375 21.0752C94.2366 20.9286 94.0191 20.6596 93.8339 20.172L91.9642 20.8822ZM93.2582 22.6906C93.8314 23.109 94.4898 23.3218 95.2013 23.3317L95.2292 21.3319C94.9177 21.3276 94.6646 21.2411 94.4375 21.0752L93.2582 22.6906ZM95.1695 23.3308C95.7449 23.3571 96.3002 23.2517 96.81 22.9914L95.9008 21.2101C95.7316 21.2964 95.5268 21.345 95.2609 21.3328L95.1695 23.3308ZM96.8457 22.9723C97.335 22.697 97.7392 22.2928 98.0734 21.8109L96.43 20.6711C96.2252 20.9665 96.0318 21.1354 95.8651 21.2292L96.8457 22.9723ZM98.0846 21.7944C98.4026 21.3159 98.6703 20.7378 98.8994 20.0818L97.0112 19.4225C96.8184 19.9746 96.6171 20.3891 96.4188 20.6876L98.0846 21.7944ZM98.8994 20.0818C99.1299 19.4216 99.3282 18.6562 99.4982 17.7928L97.5358 17.4066C97.3786 18.205 97.2025 18.8746 97.0112 19.4225L98.8994 20.0818ZM99.4965 17.8011L100.086 14.9325L98.1273 14.5297L97.5375 17.3983L99.4965 17.8011ZM100.087 14.9301C100.468 13.0532 100.972 11.4774 101.587 10.1884L99.7825 9.32678C99.0798 10.7988 98.5317 12.5386 98.1269 14.532L100.087 14.9301ZM101.587 10.1884C102.206 8.89189 102.923 7.86293 103.726 7.07775L102.327 5.64834C101.326 6.62819 100.482 7.86225 99.7825 9.32678L101.587 10.1884ZM103.73 7.07334C104.525 6.28592 105.411 5.71524 106.394 5.34873L105.695 3.47488C104.434 3.94519 103.309 4.67534 102.322 5.65275L103.73 7.07334ZM106.402 5.34558C107.404 4.96179 108.512 4.75405 109.737 4.73341L109.704 2.73369C108.27 2.75784 106.928 3.00227 105.686 3.47802L106.402 5.34558ZM109.724 4.73355C111.85 4.72643 113.587 5.24051 114.99 6.22525L116.139 4.58819C114.341 3.32668 112.182 2.72531 109.717 2.73356L109.724 4.73355ZM114.99 6.22525C116.407 7.22018 117.521 8.66773 118.307 10.6245L120.163 9.87838C119.256 7.62177 117.922 5.83952 116.139 4.58819L114.99 6.22525ZM118.308 10.6262C119.096 12.5753 119.519 14.9689 119.542 17.8344L121.542 17.8178C121.517 14.7743 121.068 12.1182 120.162 9.87667L118.308 10.6262ZM119.542 17.8344C119.567 20.7721 119.153 23.2931 118.329 25.4189L120.194 26.1414C121.128 23.7297 121.568 20.948 121.542 17.8178L119.542 17.8344ZM118.33 25.4173C117.518 27.5025 116.273 29.0959 114.599 30.2385L115.727 31.8902C117.76 30.5019 119.247 28.5726 120.194 26.143L118.33 25.4173ZM114.605 30.2346C112.944 31.3519 110.757 31.9651 107.974 31.999L107.998 33.9989C111.056 33.9616 113.653 33.2851 115.721 31.8941L114.605 30.2346ZM108.986 32.9907L108.911 23.991L106.911 24.0076L106.986 33.0072L108.986 32.9907ZM107.973 24.9974C109.177 24.9233 110.253 24.6091 111.153 24.0073L110.042 22.3443C109.496 22.7091 108.781 22.9438 107.85 23.0011L107.973 24.9974ZM111.153 24.0073C112.052 23.4068 112.718 22.5721 113.155 21.5415L111.314 20.7601C111.016 21.4629 110.59 21.9782 110.042 22.3443L111.153 24.0073ZM113.157 21.5371C113.589 20.5057 113.782 19.3239 113.771 18.0186L111.771 18.0352C111.78 19.1389 111.616 20.0398 111.312 20.7645L113.157 21.5371ZM113.771 18.0186C113.762 16.9325 113.621 15.9619 113.311 15.1383L111.439 15.8424C111.641 16.3783 111.763 17.0987 111.771 18.0352L113.771 18.0186ZM113.311 15.1383C113.009 14.3345 112.565 13.6495 111.938 13.1599L110.707 14.7358C110.972 14.9435 111.23 15.2868 111.439 15.8424L113.311 15.1383ZM111.938 13.1599C111.319 12.6759 110.599 12.4243 109.813 12.4151L109.789 14.415C110.139 14.4191 110.434 14.5228 110.707 14.7358L111.938 13.1599ZM109.771 12.4155C109.011 12.438 108.324 12.7017 107.75 13.2012L109.065 14.7089C109.281 14.52 109.523 14.4237 109.83 14.4146L109.771 12.4155ZM107.774 13.1815C107.185 13.6635 106.747 14.3839 106.404 15.2225L108.256 15.9783C108.538 15.2889 108.817 14.9124 109.041 14.7285L107.774 13.1815ZM106.409 15.2108C106.051 16.0583 105.737 17.1589 105.457 18.487L107.414 18.8992C107.681 17.6318 107.963 16.6706 108.251 15.99L106.409 15.2108ZM105.456 18.4904L104.735 21.9738L106.694 22.3792L107.415 18.8959L105.456 18.4904ZM104.735 21.9726C104.114 24.9557 103.072 27.23 101.661 28.8627L103.174 30.1706C104.869 28.2092 106.025 25.59 106.693 22.3804L104.735 21.9726ZM101.665 28.8576C100.318 30.3946 98.4627 31.2019 95.9749 31.2122L95.9832 33.2122C98.9499 33.1999 101.387 32.2101 103.169 30.1757L101.665 28.8576ZM95.9656 31.2123C93.9423 31.2394 92.2108 30.7181 90.7291 29.6711L89.5749 31.3044C91.4312 32.6161 93.5843 33.2444 95.9925 33.2121L95.9656 31.2123ZM90.7302 29.6718C89.2133 28.597 88.0056 27.0921 87.1198 25.1168L85.2949 25.9351C86.3079 28.1942 87.73 29.9971 89.5739 31.3037L90.7302 29.6718ZM87.1206 25.1186C86.2365 23.1367 85.7706 20.8317 85.7487 18.1829L83.7487 18.1995C83.7726 21.0733 84.2791 23.6581 85.2941 25.9334L87.1206 25.1186ZM85.7487 18.1829C85.7262 15.4744 86.1606 13.1817 87.0152 11.2765L85.1903 10.458C84.1928 12.6819 83.7244 15.2719 83.7487 18.1995L85.7487 18.1829ZM87.0152 11.2765C87.8722 9.36597 89.0713 7.92526 90.6031 6.91291L89.5005 5.24435C87.6191 6.48766 86.1855 8.23935 85.1903 10.458L87.0152 11.2765ZM90.6095 6.90864C92.1249 5.89036 93.9201 5.35247 96.0337 5.32442L96.0071 3.32459C93.5529 3.35717 91.369 3.98869 89.4941 5.24862L90.6095 6.90864ZM95.0204 4.3328L95.0957 13.4007L97.0956 13.3841L97.0204 4.31621L95.0204 4.3328Z" fill="#05C2DF" fill-opacity="0.5"/>
</svg>
