<svg width="52" height="334" viewBox="0 0 52 334" fill="none" xmlns="http://www.w3.org/2000/svg">
<path d="M50.8563 319.913L51.8563 319.905L51.85 319.163L51.1372 318.954L50.8563 319.913ZM50.9719 333.549L50.6665 334.501L51.9835 334.924L51.9718 333.541L50.9719 333.549ZM4.29775 318.564L3.29778 318.572L3.30391 319.295L3.99236 319.516L4.29775 318.564ZM4.15139 301.292L3.82991 300.345L3.14529 300.577L3.15142 301.3L4.15139 301.292ZM50.5651 285.551L51.5651 285.543L51.5534 284.16L50.2436 284.604L50.5651 285.551ZM50.6807 299.187L50.9778 300.142L51.6869 299.921L51.6806 299.179L50.6807 299.187ZM17.0408 309.642L16.7437 308.687L16.0345 308.908L16.0408 309.65L17.0408 309.642ZM17.0439 310.006L16.0439 310.014L16.0502 310.757L16.763 310.966L17.0439 310.006ZM32.5148 322.608L31.5149 322.616L31.5234 323.616L32.5233 323.608L32.5148 322.608ZM32.2976 296.972L32.2891 295.973L31.2892 295.981L31.2976 296.981L32.2976 296.972ZM41.7518 296.896L42.7518 296.888L42.7433 295.888L41.7434 295.896L41.7518 296.896ZM41.9691 322.531L41.9776 323.531L42.9775 323.523L42.969 322.523L41.9691 322.531ZM49.8563 319.922L49.9719 333.557L51.9718 333.541L51.8563 319.905L49.8563 319.922ZM51.2772 332.597L4.60314 317.612L3.99236 319.516L50.6665 334.501L51.2772 332.597ZM5.29772 318.556L5.15135 301.284L3.15142 301.3L3.29778 318.572L5.29772 318.556ZM4.47287 302.239L50.8866 286.498L50.2436 284.604L3.82991 300.345L4.47287 302.239ZM49.5652 285.559L49.6807 299.195L51.6806 299.179L51.5651 285.543L49.5652 285.559ZM50.3836 298.232L16.7437 308.687L17.3379 310.597L50.9778 300.142L50.3836 298.232ZM16.0408 309.65L16.0439 310.014L18.0438 309.998L18.0408 309.634L16.0408 309.65ZM16.763 310.966L50.5754 320.873L51.1372 318.954L17.3248 309.046L16.763 310.966ZM33.5148 322.6L33.2976 296.964L31.2976 296.981L31.5149 322.616L33.5148 322.6ZM32.3061 297.972L41.7603 297.896L41.7434 295.896L32.2891 295.973L32.3061 297.972ZM40.7519 296.904L40.9691 322.539L42.969 322.523L42.7518 296.888L40.7519 296.904ZM41.9606 321.531L32.5064 321.608L32.5233 323.608L41.9776 323.531L41.9606 321.531ZM50.5271 281.068L50.5356 282.068L51.5356 282.06L51.5271 281.06L50.5271 281.068ZM3.98321 281.446L2.98325 281.454L2.99172 282.454L3.99169 282.446L3.98321 281.446ZM5.16828 252.322L6.10106 252.683L6.10183 252.681L5.16828 252.322ZM9.16719 246.812L9.74996 247.625L9.75464 247.622L9.16719 246.812ZM20.0016 245.997L19.5355 246.881L19.543 246.885L20.0016 245.997ZM23.5735 249.104L24.3892 248.526L24.3848 248.52L23.5735 249.104ZM25.568 253.815L24.5895 254.021L24.7581 254.822L25.5765 254.815L25.568 253.815ZM26.0226 253.812L26.031 254.812L26.9938 254.804L27.0221 253.842L26.0226 253.812ZM27.499 248.345L28.3705 248.836L28.3739 248.83L27.499 248.345ZM31.3067 244.405L31.8238 245.261L31.8272 245.259L31.3067 244.405ZM43.8336 244.849L43.283 245.683L43.2875 245.686L43.8336 244.849ZM48.563 250.447L47.6602 250.876L47.6602 250.876L48.563 250.447ZM40.3295 268.514L40.338 269.514L41.3379 269.506L41.3294 268.506L40.3295 268.514ZM39.0572 257.842L39.8549 257.24L39.8493 257.232L39.0572 257.842ZM31.023 259.203L31.9439 259.593L31.9462 259.588L31.023 259.203ZM30.5116 268.594L29.5117 268.602L29.5201 269.602L30.5201 269.594L30.5116 268.594ZM22.6937 268.658L22.7022 269.657L23.7021 269.649L23.6937 268.649L22.6937 268.658ZM22.1022 260.548L23.024 260.161L23.024 260.161L22.1022 260.548ZM20.5855 258.583L20.0042 259.397L20.0076 259.399L20.5855 258.583ZM14.8654 259.448L15.6705 260.042L15.676 260.034L14.8654 259.448ZM13.7849 268.73L12.7849 268.738L12.7934 269.738L13.7934 269.73L13.7849 268.73ZM50.5187 280.068L3.97474 280.446L3.99169 282.446L50.5356 282.068L50.5187 280.068ZM4.98318 281.438L4.81216 261.257L2.81223 261.273L2.98325 281.454L4.98318 281.438ZM4.81216 261.257C4.78282 257.794 5.22581 254.947 6.10106 252.683L4.23551 251.961C3.24256 254.53 2.78149 257.645 2.81223 261.273L4.81216 261.257ZM6.10183 252.681C6.98145 250.39 8.20897 248.729 9.74995 247.625L8.58444 245.999C6.66148 247.378 5.22306 249.39 4.23474 251.963L6.10183 252.681ZM9.75464 247.622C11.3005 246.5 13.1405 245.916 15.3188 245.898L15.3018 243.899C12.7529 243.919 10.4976 244.611 8.57974 246.003L9.75464 247.622ZM15.3188 245.898C16.8775 245.886 18.2765 246.218 19.5355 246.881L20.4676 245.112C18.8957 244.284 17.1672 243.883 15.3018 243.899L15.3188 245.898ZM19.543 246.885C20.8132 247.541 21.8847 248.471 22.7622 249.689L24.3848 248.52C23.3304 247.056 22.0207 245.914 20.4602 245.108L19.543 246.885ZM22.7578 249.683C23.6204 250.899 24.2354 252.339 24.5895 254.021L26.5466 253.61C26.1428 251.692 25.4281 249.991 24.3892 248.526L22.7578 249.683ZM25.5765 254.815L26.031 254.812L26.0141 252.812L25.5596 252.816L25.5765 254.815ZM27.0221 253.842C27.0765 251.993 27.5292 250.33 28.3705 248.836L26.6276 247.854C25.6179 249.648 25.0863 251.63 25.023 253.782L27.0221 253.842ZM28.3739 248.83C29.1984 247.341 30.3435 246.155 31.8238 245.261L30.7896 243.549C29.0137 244.621 27.6203 246.062 26.6242 247.86L28.3739 248.83ZM31.8272 245.259C33.2622 244.385 34.9839 243.921 37.0299 243.904L37.013 241.904C34.6652 241.923 32.5771 242.46 30.7861 243.551L31.8272 245.259ZM37.0299 243.904C39.3902 243.885 41.4637 244.483 43.283 245.683L44.3842 244.014C42.2114 242.58 39.7435 241.882 37.013 241.904L37.0299 243.904ZM43.2875 245.686C45.11 246.875 46.5718 248.59 47.6602 250.876L49.4659 250.017C48.2403 247.443 46.5491 245.426 44.3798 244.011L43.2875 245.686ZM47.6602 250.876C48.7406 253.146 49.3138 255.899 49.3415 259.168L51.3415 259.152C51.3119 255.663 50.6995 252.608 49.4659 250.017L47.6602 250.876ZM49.3415 259.168L49.5272 281.076L51.5271 281.06L51.3415 259.152L49.3415 259.168ZM41.3294 268.506L41.2794 262.597L39.2794 262.614L39.3295 268.522L41.3294 268.506ZM41.2794 262.597C41.2606 260.381 40.8386 258.541 39.8549 257.24L38.2595 258.445C38.8694 259.252 39.2623 260.587 39.2794 262.614L41.2794 262.597ZM39.8493 257.232C38.8116 255.885 37.3023 255.266 35.4899 255.28L35.5068 257.28C36.8155 257.27 37.6788 257.691 38.2651 258.453L39.8493 257.232ZM35.4899 255.28C34.2432 255.291 33.1204 255.587 32.1742 256.223L33.29 257.883C33.8504 257.506 34.5718 257.288 35.5068 257.28L35.4899 255.28ZM32.1742 256.223C31.2408 256.85 30.5529 257.73 30.0998 258.819L31.9462 259.588C32.2652 258.821 32.7167 258.268 33.29 257.883L32.1742 256.223ZM30.1021 258.813C29.6491 259.883 29.4483 261.126 29.46 262.511L31.46 262.495C31.4499 261.305 31.6244 260.348 31.9439 259.593L30.1021 258.813ZM29.46 262.511L29.5117 268.602L31.5116 268.586L31.46 262.495L29.46 262.511ZM30.5201 269.594L40.338 269.514L40.321 267.514L30.5031 267.594L30.5201 269.594ZM23.6937 268.649L23.6498 263.468L21.6498 263.484L21.6937 268.666L23.6937 268.649ZM23.6498 263.468C23.6395 262.258 23.4394 261.149 23.024 260.161L21.1805 260.936C21.4763 261.639 21.6413 262.482 21.6498 263.484L23.6498 263.468ZM23.024 260.161C22.6065 259.168 21.992 258.355 21.1634 257.767L20.0076 259.399C20.49 259.741 20.8867 260.237 21.1805 260.936L23.024 260.161ZM21.1668 257.77C20.298 257.149 19.2704 256.867 18.1392 256.876L18.1561 258.876C18.9339 258.87 19.5316 259.059 20.0042 259.397L21.1668 257.77ZM18.1392 256.876C16.4277 256.89 15.0152 257.533 14.0547 258.862L15.676 260.034C16.2132 259.29 16.9889 258.885 18.1561 258.876L18.1392 256.876ZM14.0603 258.855C13.1415 260.101 12.7247 261.632 12.7395 263.375L14.7394 263.358C14.7275 261.95 15.0613 260.868 15.6704 260.042L14.0603 258.855ZM12.7395 263.375L12.7849 268.738L14.7849 268.722L14.7394 263.358L12.7395 263.375ZM13.7934 269.73L22.7022 269.657L22.6852 267.658L13.7764 267.73L13.7934 269.73ZM39.6497 196.336L40.1364 195.462L40.1348 195.461L39.6497 196.336ZM47.7867 204.429L48.6659 203.953L48.6643 203.95L47.7867 204.429ZM47.9585 227.383L48.8416 227.852L48.8441 227.848L47.9585 227.383ZM39.9368 235.585L40.4339 236.452L40.4383 236.45L39.9368 235.585ZM13.7786 235.797L13.2934 236.671L13.2946 236.672L13.7786 235.797ZM5.6417 227.726L6.52004 227.249L6.51927 227.247L5.6417 227.726ZM5.44719 204.773L6.33276 205.238L6.33435 205.235L5.44719 204.773ZM13.446 196.548L13.9459 197.415L13.9475 197.414L13.446 196.548ZM19.5852 207.59L19.9467 208.522L19.9555 208.519L19.5852 207.59ZM15.2493 210.875L16.0726 211.443L16.0793 211.433L15.2493 210.875ZM15.3388 221.443L16.1565 220.868L16.1552 220.866L15.3388 221.443ZM19.7298 224.657L19.3778 225.593L19.3818 225.595L19.7298 224.657ZM33.843 224.543L34.2045 225.475L34.2133 225.472L33.843 224.543ZM38.179 221.257L39.0023 221.825L39.009 221.815L38.179 221.257ZM38.0894 210.69L38.9071 210.114L38.9058 210.112L38.0894 210.69ZM33.6984 207.475L33.3463 208.411L33.3503 208.413L33.6984 207.475ZM26.5193 194.419C31.5735 194.378 35.773 195.327 39.1645 197.21L40.1348 195.461C36.3712 193.372 31.8114 192.376 26.5024 192.42L26.5193 194.419ZM39.1629 197.209C42.5691 199.108 45.142 201.673 46.9091 204.908L48.6643 203.95C46.7069 200.366 43.855 197.536 40.1364 195.462L39.1629 197.209ZM46.9075 204.905C48.6701 208.158 49.5766 211.806 49.611 215.869L51.6109 215.853C51.574 211.492 50.5976 207.518 48.6659 203.953L46.9075 204.905ZM49.611 215.869C49.6457 219.962 48.7938 223.638 47.0729 226.918L48.8441 227.848C50.7317 224.25 51.6481 220.244 51.6109 215.853L49.611 215.869ZM47.0754 226.913C45.3482 230.164 42.8106 232.764 39.4353 234.719L40.4383 236.45C44.1195 234.317 46.9297 231.45 48.8416 227.852L47.0754 226.913ZM39.4397 234.717C36.079 236.641 31.9099 237.65 26.886 237.691L26.9029 239.691C32.1817 239.648 36.7075 238.586 40.4339 236.452L39.4397 234.717ZM26.886 237.691C21.8304 237.732 17.6384 236.79 14.2625 234.922L13.2946 236.672C17.0433 238.746 21.5952 239.734 26.9029 239.691L26.886 237.691ZM14.2637 234.923C10.8419 233.023 8.27083 230.466 6.52004 227.249L4.76337 228.204C6.70659 231.775 9.56006 234.599 13.2934 236.671L14.2637 234.923ZM6.51927 227.247C4.74307 223.996 3.829 220.334 3.79431 216.241L1.79438 216.257C1.83159 220.649 2.81576 224.639 4.76414 228.206L6.51927 227.247ZM3.79431 216.241C3.75989 212.18 4.61136 208.519 6.33276 205.238L4.56163 204.308C2.67451 207.905 1.75741 211.895 1.79438 216.257L3.79431 216.241ZM6.33435 205.235C8.03059 201.974 10.5579 199.369 13.9459 197.415L12.9461 195.682C9.24723 197.816 6.44201 200.694 4.56003 204.311L6.33435 205.235ZM13.9475 197.414C17.2905 195.477 21.4649 194.461 26.5193 194.419L26.5024 192.42C21.1935 192.463 16.658 193.532 12.9445 195.683L13.9475 197.414ZM26.6125 205.419C23.7426 205.442 21.2662 205.844 19.2149 206.661L19.9555 208.519C21.7097 207.82 23.9238 207.441 26.6295 207.419L26.6125 205.419ZM19.2238 206.657C17.15 207.461 15.5253 208.671 14.4192 210.317L16.0793 211.433C16.9184 210.184 18.1844 209.205 19.9467 208.522L19.2238 206.657ZM14.426 210.307C13.2995 211.941 12.7749 213.914 12.794 216.168L14.7939 216.152C14.7776 214.224 15.2233 212.674 16.0725 211.443L14.426 210.307ZM12.794 216.168C12.8131 218.423 13.3712 220.392 14.5224 222.02L16.1552 220.866C15.2821 219.631 14.8103 218.079 14.7939 216.152L12.794 216.168ZM14.5211 222.018C15.6542 223.628 17.2961 224.81 19.3778 225.593L20.0819 223.722C18.3027 223.052 17.0172 222.09 16.1565 220.868L14.5211 222.018ZM19.3818 225.595C21.4443 226.361 23.9248 226.714 26.7928 226.691L26.7758 224.691C24.0683 224.713 21.8458 224.377 20.0779 223.72L19.3818 225.595ZM26.7928 226.691C29.6612 226.668 32.1417 226.274 34.2045 225.475L33.4816 223.61C31.7083 224.297 29.483 224.669 26.7758 224.691L26.7928 226.691ZM34.2133 225.472C36.2663 224.654 37.8836 223.447 39.0022 221.825L37.3557 220.689C36.4985 221.932 35.2252 222.916 33.4727 223.614L34.2133 225.472ZM39.009 221.815C40.1148 220.17 40.6304 218.194 40.6113 215.942L38.6113 215.958C38.6277 217.888 38.1883 219.45 37.3489 220.699L39.009 221.815ZM40.6113 215.942C40.5922 213.691 40.0434 211.729 38.9071 210.114L37.2718 211.265C38.1292 212.483 38.595 214.028 38.6113 215.958L40.6113 215.942ZM38.9058 210.112C37.759 208.491 36.1183 207.308 34.0464 206.538L33.3503 208.413C35.1088 209.066 36.3955 210.026 37.273 211.267L38.9058 210.112ZM34.0504 206.539C31.972 205.757 29.4828 205.396 26.6125 205.419L26.6295 207.419C29.3347 207.397 31.5638 207.74 33.3463 208.411L34.0504 206.539ZM2.95592 160.218L1.95595 160.226L1.96443 161.226L2.96439 161.218L2.95592 160.218ZM2.84884 147.582L2.84037 146.582L1.8404 146.59L1.84888 147.59L2.84884 147.582ZM41.8919 149.81L41.3511 150.651L41.3522 150.652L41.8919 149.81ZM47.9286 156.807L48.8327 156.38L48.831 156.376L47.9286 156.807ZM48.107 177.852L49.0165 178.268L49.0182 178.264L48.107 177.852ZM42.1896 184.945L42.7377 185.782L42.7434 185.778L42.1896 184.945ZM3.18933 187.762L2.18936 187.77L2.19784 188.77L3.19781 188.762L3.18933 187.762ZM3.08225 175.126L3.07378 174.126L2.07381 174.134L2.08229 175.134L3.08225 175.126ZM35.664 173.907L36.16 174.776L36.165 174.773L35.664 173.907ZM38.2779 171.249L39.1518 171.736L39.1546 171.731L38.2779 171.249ZM38.2125 163.522L39.0779 163.022L39.0779 163.022L38.2125 163.522ZM35.5538 160.907L36.0401 160.034L36.035 160.031L35.5538 160.907ZM3.95589 160.21L3.84881 147.574L1.84888 147.59L1.95595 160.226L3.95589 160.21ZM2.85732 148.582L32.6745 148.34L32.6576 146.34L2.84037 146.582L2.85732 148.582ZM32.6745 148.34C36.0542 148.312 38.9323 149.095 41.3511 150.651L42.4327 148.969C39.641 147.173 36.3686 146.309 32.6576 146.34L32.6745 148.34ZM41.3522 150.652C43.7725 152.204 45.6652 154.388 47.0263 157.238L48.831 156.376C47.3229 153.219 45.191 150.738 42.4315 148.968L41.3522 150.652ZM47.0245 157.234C48.3709 160.083 49.0757 163.429 49.1085 167.298L51.1084 167.281C51.0737 163.18 50.3252 159.538 48.8327 156.38L47.0245 157.234ZM49.1085 167.298C49.1415 171.197 48.4933 174.57 47.1957 177.439L49.0182 178.264C50.4574 175.081 51.1434 171.412 51.1084 167.281L49.1085 167.298ZM47.1975 177.436C45.8848 180.307 44.0294 182.521 41.6358 184.112L42.7434 185.778C45.4726 183.964 47.5621 181.449 49.0165 178.268L47.1975 177.436ZM41.6415 184.109C39.2484 185.676 36.3812 186.492 32.9981 186.52L33.015 188.52C36.7225 188.49 39.9774 187.59 42.7377 185.782L41.6415 184.109ZM32.9981 186.52L3.18086 186.762L3.19781 188.762L33.015 188.52L32.9981 186.52ZM4.1893 187.754L4.08222 175.118L2.08229 175.134L2.18936 187.77L4.1893 187.754ZM3.09073 176.126L31.8171 175.893L31.8001 173.893L3.07378 174.126L3.09073 176.126ZM31.8171 175.893C33.4091 175.88 34.8653 175.515 36.16 174.776L35.168 173.038C34.2009 173.591 33.0868 173.882 31.8001 173.893L31.8171 175.893ZM36.165 174.773C37.437 174.037 38.4372 173.02 39.1518 171.736L37.4041 170.763C36.865 171.731 36.1226 172.486 35.163 173.041L36.165 174.773ZM39.1546 171.731C39.872 170.424 40.2132 168.962 40.1997 167.37L38.1997 167.386C38.2106 168.673 37.9373 169.792 37.4013 170.768L39.1546 171.731ZM40.1997 167.37C40.1861 165.765 39.8211 164.306 39.0779 163.022L37.347 164.023C37.8955 164.971 38.1887 166.082 38.1997 167.386L40.1997 167.37ZM39.0779 163.022C38.3416 161.749 37.3244 160.749 36.0401 160.034L35.0676 161.781C36.0364 162.321 36.7916 163.063 37.347 164.023L39.0779 163.022ZM36.035 160.031C34.728 159.313 33.2658 158.971 31.6738 158.984L31.6907 160.984C32.9774 160.974 34.0963 161.248 35.0726 161.784L36.035 160.031ZM31.6738 158.984L2.94745 159.218L2.96439 161.218L31.6907 160.984L31.6738 158.984ZM12.9902 142.766L12.9987 143.766L13.9987 143.758L13.9902 142.758L12.9902 142.766ZM2.80874 142.849L1.80877 142.857L1.81724 143.857L2.81721 143.849L2.80874 142.849ZM2.46594 102.396L2.45746 101.396L1.4575 101.404L1.46597 102.404L2.46594 102.396ZM12.6474 102.313L13.6474 102.305L13.6389 101.305L12.6389 101.313L12.6474 102.313ZM12.7661 116.313L11.7661 116.321L11.7746 117.321L12.7745 117.313L12.7661 116.313ZM49.1285 116.017L50.1285 116.009L50.12 115.009L49.12 115.017L49.1285 116.017ZM49.234 128.471L49.2425 129.471L50.2425 129.463L50.234 128.463L49.234 128.471ZM12.8716 128.767L12.8631 127.767L11.8631 127.775L11.8716 128.775L12.8716 128.767ZM12.9817 141.766L2.80026 141.849L2.81721 143.849L12.9987 143.766L12.9817 141.766ZM3.8087 142.841L3.4659 102.388L1.46597 102.404L1.80877 142.857L3.8087 142.841ZM2.47441 103.396L12.6559 103.313L12.6389 101.313L2.45746 101.396L2.47441 103.396ZM11.6475 102.321L11.7661 116.321L13.766 116.305L13.6474 102.305L11.6475 102.321ZM12.7745 117.313L49.137 117.017L49.12 115.017L12.7576 115.313L12.7745 117.313ZM48.1285 116.025L48.2341 128.48L50.234 128.463L50.1285 116.009L48.1285 116.025ZM49.2256 127.471L12.8631 127.767L12.8801 129.767L49.2425 129.471L49.2256 127.471ZM11.8716 128.775L11.9903 142.774L13.9902 142.758L13.8716 128.759L11.8716 128.775ZM2.08419 57.3464L1.08422 57.3545L1.09269 58.3544L2.09266 58.3463L2.08419 57.3464ZM1.97711 44.7105L1.96864 43.7105L0.968668 43.7186L0.977142 44.7186L1.97711 44.7105ZM41.0201 46.9389L40.4793 47.7798L40.4805 47.7806L41.0201 46.9389ZM47.0569 53.9355L47.961 53.5085L47.9592 53.5048L47.0569 53.9355ZM47.2352 74.9802L48.1447 75.3962L48.1464 75.3925L47.2352 74.9802ZM41.3179 82.074L41.866 82.9106L41.8717 82.9068L41.3179 82.074ZM2.3176 84.8908L1.31763 84.899L1.32611 85.8989L2.32607 85.8908L2.3176 84.8908ZM2.21052 72.2549L2.20205 71.255L1.20208 71.2631L1.21055 72.263L2.21052 72.2549ZM34.7923 71.0357L35.2883 71.9042L35.2932 71.9013L34.7923 71.0357ZM37.4062 68.378L38.2801 68.8645L38.2828 68.8595L37.4062 68.378ZM37.3407 60.651L38.2062 60.1504L38.2062 60.1504L37.3407 60.651ZM34.6821 58.0362L35.1683 57.1625L35.1633 57.1597L34.6821 58.0362ZM3.08415 57.3382L2.97708 44.7023L0.977142 44.7186L1.08422 57.3545L3.08415 57.3382ZM1.98558 45.7104L31.8028 45.4682L31.7858 43.4683L1.96864 43.7105L1.98558 45.7104ZM31.8028 45.4682C35.1824 45.4408 38.0606 46.2239 40.4793 47.7798L41.5609 46.0979C38.7692 44.3021 35.4969 43.4381 31.7858 43.4683L31.8028 45.4682ZM40.4805 47.7806C42.9008 49.3326 44.7934 51.5164 46.1546 54.3662L47.9592 53.5048C46.4512 50.3474 44.3193 47.8667 41.5597 46.0971L40.4805 47.7806ZM46.1528 54.3625C47.4992 57.2117 48.204 60.558 48.2367 64.4263L50.2367 64.41C50.2019 60.3089 49.4535 56.6668 47.961 53.5085L46.1528 54.3625ZM48.2367 64.4263C48.2698 68.3261 47.6215 71.6982 46.324 74.568L48.1464 75.3925C49.5856 72.2094 50.2717 68.5402 50.2367 64.41L48.2367 64.4263ZM46.3257 74.5642C45.0131 77.4357 43.1577 79.65 40.7641 81.2411L41.8717 82.9068C44.6008 81.0926 46.6904 78.5777 48.1447 75.3962L46.3257 74.5642ZM40.7697 81.2374C38.3766 82.8048 35.5095 83.6212 32.1263 83.6487L32.1433 85.6486C35.8508 85.6185 39.1057 84.7184 41.866 82.9106L40.7697 81.2374ZM32.1263 83.6487L2.30912 83.8909L2.32607 85.8908L32.1433 85.6486L32.1263 83.6487ZM3.31757 84.8827L3.21049 72.2468L1.21055 72.263L1.31763 84.899L3.31757 84.8827ZM2.219 73.2549L30.9453 73.0215L30.9284 71.0216L2.20205 71.255L2.219 73.2549ZM30.9453 73.0215C32.5373 73.0086 33.9935 72.6433 35.2882 71.9042L34.2963 70.1672C33.3291 70.7193 32.215 71.0112 30.9284 71.0216L30.9453 73.0215ZM35.2932 71.9013C36.5653 71.1655 37.5654 70.1486 38.28 68.8645L36.5324 67.8915C35.9933 68.8601 35.2508 69.615 34.2913 70.17L35.2932 71.9013ZM38.2828 68.8595C39.0003 67.5527 39.3414 66.0906 39.3279 64.4986L37.328 64.5149C37.3389 65.8015 37.0655 66.9203 36.5296 67.8965L38.2828 68.8595ZM39.3279 64.4986C39.3143 62.8937 38.9494 61.4346 38.2062 60.1504L36.4753 61.1517C37.0238 62.0995 37.317 63.2108 37.328 64.5149L39.3279 64.4986ZM38.2062 60.1504C37.4699 58.8781 36.4527 57.8776 35.1683 57.1625L34.1959 58.9098C35.1647 59.4492 35.9199 60.1919 36.4753 61.1517L38.2062 60.1504ZM35.1633 57.1597C33.8563 56.4418 32.3941 56.1001 30.802 56.1131L30.819 58.113C32.1057 58.1025 33.2245 58.3763 34.2009 58.9126L35.1633 57.1597ZM30.802 56.1131L2.07571 56.3464L2.09266 58.3463L30.819 58.113L30.802 56.1131ZM16.2586 13.4968L16.3468 14.493L17.2664 14.4119L17.2585 13.4887L16.2586 13.4968ZM12.7277 15.2301L13.4957 15.8709L13.5004 15.8652L12.7277 15.2301ZM11.9981 23.009L12.9329 22.6541L12.9293 22.6447L11.9981 23.009ZM13.2635 24.817L12.674 25.6245L12.674 25.6245L13.2635 24.817ZM15.0868 25.4158L15.1323 24.4169L15.1164 24.4162L15.1006 24.4159L15.0868 25.4158ZM16.607 25.108L17.0618 25.9988L17.0798 25.9896L17.0975 25.9796L16.607 25.108ZM17.8019 23.9619L18.6237 24.5319L18.6294 24.5238L18.6349 24.5155L17.8019 23.9619ZM19.4881 19.1071L18.5085 18.9056L18.5068 18.9138L19.4881 19.1071ZM20.2739 15.2825L21.2534 15.484L21.2539 15.4817L20.2739 15.2825ZM22.3768 8.65152L23.2794 9.08248L22.3768 8.65152ZM25.4977 4.12602L26.1973 4.84087L26.2017 4.83644L25.4977 4.12602ZM29.5212 1.52507L29.871 2.46209L29.8793 2.45891L29.5212 1.52507ZM34.4229 0.621594L34.4193 -0.37849L34.4058 -0.378265L34.4229 0.621594ZM42.2148 2.85383L42.7891 2.03541L42.7891 2.03541L42.2148 2.85383ZM47.1106 9.31428L46.1829 9.68717L46.1836 9.68887L47.1106 9.31428ZM47.1497 30.0192L48.0816 30.3822L48.0822 30.3806L47.1497 30.0192ZM41.6865 37.0638L42.2447 37.8937L42.2505 37.8897L41.6865 37.0638ZM32.1171 39.6416L31.1171 39.6497L31.1256 40.6536L32.1294 40.6415L32.1171 39.6416ZM32.0154 27.642L31.9538 26.6439L31.0074 26.702L31.0154 27.6502L32.0154 27.642ZM35.5971 26.5447L36.1528 27.3763L36.1528 27.3763L35.5971 26.5447ZM37.7789 23.8451L38.6995 24.2359L38.7013 24.2315L37.7789 23.8451ZM37.9649 16.2979L38.9008 15.946L38.9008 15.946L37.9649 16.2979ZM36.5611 14.241L37.1767 13.4532L37.1767 13.4532L36.5611 14.241ZM34.5322 13.5302L34.5438 12.5303L34.5231 12.5301L34.5025 12.5307L34.5322 13.5302ZM32.6746 14.2499L33.3085 15.0235L33.3203 15.0138L33.3318 15.0038L32.6746 14.2499ZM31.2386 16.4434L32.1598 16.8332L32.1645 16.8215L31.2386 16.4434ZM30.0463 20.5669L29.0677 20.3606L29.067 20.364L30.0463 20.5669ZM29.0856 25.2112L30.0646 25.4152L30.0649 25.4141L29.0856 25.2112ZM24.6911 34.9972L25.4433 35.6564L25.4477 35.6513L24.6911 34.9972ZM16.1076 38.5898L16.1033 37.5898L16.094 37.5899L16.1076 38.5898ZM8.3378 36.2892L7.7598 37.105L7.76083 37.1058L8.3378 36.2892ZM3.07699 29.6726L2.16381 30.0798L2.16461 30.0816L3.07699 29.6726ZM2.9341 10.1277L3.84659 10.5371L3.84659 10.5371L2.9341 10.1277ZM8.19838 3.7438L8.74988 4.57819L8.75627 4.5739L8.19838 3.7438ZM16.1561 1.40636L17.1561 1.39823L17.1476 0.393281L16.1427 0.406444L16.1561 1.40636ZM16.1704 12.5007C14.4322 12.654 12.991 13.3343 11.955 14.5951L13.5004 15.8652C14.1441 15.0819 15.0568 14.6067 16.3468 14.493L16.1704 12.5007ZM11.9597 14.5894C10.9031 15.8559 10.4755 17.6603 10.4937 19.8166L12.4937 19.8003C12.4773 17.8659 12.8723 16.6181 13.4957 15.8709L11.9597 14.5894ZM10.4937 19.8166C10.5054 21.1903 10.6818 22.3895 11.067 23.3733L12.9293 22.6447C12.664 21.9671 12.5041 21.0326 12.4937 19.8003L10.4937 19.8166ZM11.0633 23.3639C11.4205 24.3038 11.941 25.0894 12.674 25.6245L13.853 24.0094C13.5187 23.7654 13.1957 23.3457 12.9329 22.6541L11.0633 23.3639ZM12.674 25.6245C13.3807 26.1405 14.1911 26.4033 15.0731 26.4157L15.1006 24.4159C14.6187 24.4091 14.2136 24.2727 13.853 24.0094L12.674 25.6245ZM15.0413 26.4148C15.7569 26.4476 16.4388 26.3167 17.0618 25.9988L16.1522 24.2173C15.8699 24.3613 15.5384 24.4355 15.1323 24.4169L15.0413 26.4148ZM17.0975 25.9796C17.696 25.643 18.1997 25.1433 18.6237 24.5319L16.98 23.3919C16.6855 23.8167 16.3926 24.0811 16.1165 24.2364L17.0975 25.9796ZM18.6349 24.5155C19.0388 23.9075 19.3846 23.1641 19.6838 22.3068L17.7955 21.6472C17.5325 22.4005 17.2532 22.9804 16.9689 23.4084L18.6349 24.5155ZM19.6838 22.3068C19.9845 21.4453 20.245 20.4408 20.4693 19.3005L18.5068 18.9138C18.2953 19.9892 18.0569 20.898 17.7955 21.6472L19.6838 22.3068ZM20.4676 19.3087L21.2534 15.484L19.2943 15.0809L18.5085 18.9056L20.4676 19.3087ZM21.2539 15.4817C21.7657 12.9598 22.4447 10.8315 23.2794 9.08248L21.4743 8.22056C20.5523 10.1526 19.8293 12.4449 19.2938 15.0832L21.2539 15.4817ZM23.2794 9.08248C24.1176 7.32597 25.0945 5.92 26.1972 4.84085L24.7981 3.4112C23.4965 4.68499 22.3928 6.29602 21.4743 8.22056L23.2794 9.08248ZM26.2017 4.83644C27.2929 3.75507 28.5147 2.9678 29.8709 2.46206L29.1716 0.588089C27.5371 1.19759 26.0765 2.14428 24.7937 3.41561L26.2017 4.83644ZM29.8793 2.45891C31.2545 1.9321 32.7716 1.64926 34.4399 1.62145L34.4058 -0.378265C32.5291 -0.346977 30.7784 -0.027496 29.1632 0.591232L29.8793 2.45891ZM34.4264 1.62159C37.3173 1.61242 39.7037 2.31281 41.6405 3.67226L42.7891 2.03541C40.4579 0.399119 37.6497 -0.388645 34.4193 -0.378398L34.4264 1.62159ZM41.6405 3.67226C43.5918 5.0419 45.1133 7.02801 46.1829 9.68717L48.0384 8.94139C46.8481 5.98236 45.1058 3.66151 42.7891 2.03541L41.6405 3.67226ZM46.1836 9.68887C47.2542 12.3366 47.8228 15.5719 47.8554 19.4222L49.8553 19.406C49.8212 15.3777 49.2266 11.8799 48.0377 8.93969L46.1836 9.68887ZM47.8554 19.4222C47.8888 23.3713 47.3332 26.776 46.2172 29.6578L48.0822 30.3806C49.309 27.2129 49.8904 23.5475 49.8553 19.406L47.8554 19.4222ZM46.2178 29.6562C45.1133 32.4936 43.4132 34.6739 41.1224 36.2379L42.2505 37.8897C44.901 36.0801 46.8431 33.564 48.0816 30.3822L46.2178 29.6562ZM41.1282 36.2339C38.8457 37.7689 35.8613 38.5966 32.1047 38.6417L32.1294 40.6415C36.1602 40.5931 39.5554 39.7022 42.2447 37.8937L41.1282 36.2339ZM33.117 39.6335L33.0153 27.6339L31.0154 27.6502L31.1171 39.6497L33.117 39.6335ZM32.077 28.6402C33.6368 28.5445 35.0112 28.139 36.1528 27.3763L35.0414 25.7132C34.2545 26.2389 33.2411 26.565 31.9538 26.6439L32.077 28.6402ZM36.1528 27.3763C37.2925 26.6149 38.1397 25.5554 38.6995 24.2359L36.8583 23.4543C36.4376 24.4459 35.8303 25.1861 35.0414 25.7132L36.1528 27.3763ZM38.7013 24.2315C39.2556 22.9075 39.508 21.3787 39.4936 19.6719L37.4936 19.6882C37.5064 21.1934 37.2823 22.4413 36.8564 23.4587L38.7013 24.2315ZM39.4936 19.6719C39.4815 18.2487 39.296 16.9962 38.9008 15.946L37.029 16.6498C37.3159 17.4123 37.4828 18.4145 37.4936 19.6882L39.4936 19.6719ZM38.9008 15.946C38.5131 14.9156 37.9519 14.059 37.1767 13.4532L35.9455 15.0289C36.36 15.3528 36.7347 15.8675 37.029 16.6498L38.9008 15.946ZM37.1767 13.4532C36.4084 12.8528 35.5197 12.5419 34.5438 12.5303L34.5207 14.5301C35.0602 14.5366 35.524 14.6995 35.9455 15.0289L37.1767 13.4532ZM34.5025 12.5307C33.5642 12.5582 32.722 12.8818 32.0174 13.4959L33.3318 15.0038C33.6801 14.7003 34.0763 14.5441 34.562 14.5298L34.5025 12.5307ZM32.0407 13.4762C31.3171 14.0691 30.7588 14.9722 30.3127 16.0653L32.1645 16.8215C32.5497 15.8775 32.9488 15.3183 33.3085 15.0235L32.0407 13.4762ZM30.3176 16.0537C29.8515 17.1558 29.4382 18.6 29.0677 20.3606L31.0248 20.7732C31.3826 19.0732 31.7642 17.7684 32.1597 16.8332L30.3176 16.0537ZM29.067 20.364L28.1063 25.0083L30.0649 25.4141L31.0255 20.7698L29.067 20.364ZM28.1065 25.0072C27.2711 29.0222 25.8631 32.1118 23.9344 34.3432L25.4477 35.6513C27.6604 33.0913 29.1821 29.6568 30.0646 25.4152L28.1065 25.0072ZM23.9388 34.3381C22.0708 36.47 19.5001 37.5764 16.1033 37.5898L16.1119 39.5898C19.9877 39.5745 23.1394 38.2857 25.4433 35.6564L23.9388 34.3381ZM16.094 37.5899C13.3321 37.6265 10.953 36.9131 8.91476 35.4726L7.76083 37.1058C10.1737 38.811 12.9744 39.6314 16.1212 39.5897L16.094 37.5899ZM8.91579 35.4734C6.83856 34.0014 5.19211 31.9448 3.98938 29.2636L2.16461 30.0816C3.49466 33.0467 5.35542 35.4012 7.7598 37.105L8.91579 35.4734ZM3.99018 29.2654C2.78911 26.5738 2.16063 23.4537 2.13038 19.8845L0.130449 19.9008C0.162601 23.695 0.831839 27.0949 2.16381 30.0798L3.99018 29.2654ZM2.13038 19.8845C2.09947 16.2366 2.68375 13.1303 3.84659 10.5371L2.02161 9.71825C0.715861 12.6301 0.09768 16.0338 0.130449 19.9008L2.13038 19.8845ZM3.84659 10.5371C5.01181 7.93859 6.64937 5.9661 8.74987 4.57817L7.64688 2.90942C5.19694 4.52825 3.32498 6.81168 2.02161 9.71825L3.84659 10.5371ZM8.75627 4.5739C10.8364 3.17629 13.2947 2.44392 16.1696 2.40627L16.1427 0.406444C12.9271 0.448564 10.0802 1.27449 7.64048 2.91369L8.75627 4.5739ZM15.1562 1.41448L15.2586 13.505L17.2585 13.4887L17.1561 1.39823L15.1562 1.41448Z" fill="#05C2DF" fill-opacity="0.1"/>
</svg>
