<svg width="52" height="332" viewBox="0 0 52 332" fill="none" xmlns="http://www.w3.org/2000/svg">
<path d="M2.37991 49.0665L1.37994 49.0748L1.39201 50.5293L2.74578 49.9971L2.37991 49.0665ZM2.2854 37.6749L1.93843 36.737L1.27961 36.9807L1.28543 37.6832L2.2854 37.6749ZM11.6649 34.2049L12.0119 35.1428L12.6707 34.8991L12.6649 34.1966L11.6649 34.2049ZM11.5173 16.4135L12.5173 16.4052L12.5115 15.7028L11.8487 15.47L11.5173 16.4135ZM2.08151 13.0997L1.08154 13.108L1.08737 13.8105L1.75015 14.0432L2.08151 13.0997ZM1.98885 1.93209L2.33923 0.995484L0.976821 0.48583L0.988888 1.94039L1.98885 1.93209ZM46.9299 18.7438L47.9298 18.7355L47.9241 18.0481L47.2803 17.8072L46.9299 18.7438ZM47.0358 31.5114L47.4017 32.4421L48.0415 32.1905L48.0358 31.5031L47.0358 31.5114ZM21.2097 19.7892L21.5407 18.8456L20.1979 18.3745L20.2097 19.7975L21.2097 19.7892ZM21.2999 30.6689L20.3 30.6772L20.3118 32.1002L21.6466 31.6069L21.2999 30.6689ZM36.3583 25.1038L36.7049 26.0417L39.3092 25.0793L36.6893 24.1601L36.3583 25.1038ZM3.37988 49.0582L3.28536 37.6666L1.28543 37.6832L1.37994 49.0748L3.37988 49.0582ZM2.63236 38.6127L12.0119 35.1428L11.318 33.2671L1.93843 36.737L2.63236 38.6127ZM12.6649 34.1966L12.5173 16.4052L10.5174 16.4218L10.665 34.2132L12.6649 34.1966ZM11.8487 15.47L2.41286 12.1562L1.75015 14.0432L11.186 17.357L11.8487 15.47ZM3.08147 13.0914L2.98882 1.9238L0.988888 1.94039L1.08154 13.108L3.08147 13.0914ZM1.63848 2.86871L46.5795 19.6804L47.2803 17.8072L2.33923 0.995484L1.63848 2.86871ZM45.9299 18.7521L46.0358 31.5197L48.0358 31.5031L47.9298 18.7355L45.9299 18.7521ZM46.6699 30.5807L2.01405 48.1358L2.74578 49.9971L47.4017 32.4421L46.6699 30.5807ZM20.2097 19.7975L20.3 30.6772L22.2999 30.6606L22.2096 19.781L20.2097 19.7975ZM21.6466 31.6069L36.7049 26.0417L36.0116 24.1658L20.9533 29.7309L21.6466 31.6069ZM36.6893 24.1601L21.5407 18.8456L20.8786 20.7329L36.0272 26.0474L36.6893 24.1601ZM44.2497 85.2674L43.4419 84.6778L43.4392 84.6817L44.2497 85.2674ZM29.1042 88.0491L28.5441 88.8775L28.5491 88.8809L29.1042 88.0491ZM25.3232 83.6003L26.2283 83.1751L25.1945 80.975L24.3809 83.2656L25.3232 83.6003ZM21.5575 88.7197L20.9509 87.9247L20.9464 87.9282L21.5575 88.7197ZM5.98724 86.5768L5.19947 87.1928L5.98724 86.5768ZM2.41657 53.4853L2.40828 52.4854L1.40831 52.4937L1.41661 53.4936L2.41657 53.4853ZM47.215 53.1136L48.215 53.1053L48.2067 52.1054L47.2067 52.1137L47.215 53.1136ZM20.5526 64.0232L21.5526 64.0149L21.5443 63.015L20.5443 63.0233L20.5526 64.0232ZM11.4649 64.0986L11.4566 63.0987L10.4567 63.1069L10.465 64.1069L11.4649 64.0986ZM12.6372 78.1054L11.8021 78.6556L11.8048 78.6596L12.6372 78.1054ZM19.6129 78.0475L18.7689 77.5112L18.7642 77.5187L19.6129 78.0475ZM38.312 63.8759L39.312 63.8676L39.3037 62.8676L38.3037 62.8759L38.312 63.8759ZM29.4803 63.9492L29.472 62.9492L28.4721 62.9575L28.4804 63.9574L29.4803 63.9492ZM46.3749 72.3853C46.4211 77.9591 45.392 82.006 43.4419 84.6778L45.0574 85.8569C47.3684 82.6905 48.4227 78.1438 48.3748 72.3687L46.3749 72.3853ZM43.4392 84.6817C41.547 87.3003 38.7359 88.6652 34.8378 88.6976L34.8544 90.6975C39.276 90.6608 42.734 89.0723 45.0602 85.853L43.4392 84.6817ZM34.8378 88.6976C32.8687 88.7139 31.154 88.2149 29.6594 87.2173L28.5491 88.8809C30.4012 90.117 32.5144 90.7169 34.8544 90.6975L34.8378 88.6976ZM29.6644 87.2207C28.1653 86.2071 27.0224 84.8651 26.2283 83.1751L24.4181 84.0256C25.3615 86.0333 26.7392 87.6571 28.5441 88.8775L29.6644 87.2207ZM24.3809 83.2656C23.718 85.1317 22.5821 86.6801 20.9509 87.9247L22.1642 89.5147C24.0946 88.0417 25.4691 86.1772 26.2655 83.935L24.3809 83.2656ZM20.9464 87.9282C19.3612 89.1523 17.5736 89.7688 15.5502 89.7856L15.5668 91.7855C18.0232 91.7652 20.235 91.0044 22.1687 89.5112L20.9464 87.9282ZM15.5502 89.7856C11.6468 89.818 8.77361 88.5168 6.77499 85.9609L5.19947 87.1928C7.6428 90.3175 11.1504 91.8222 15.5668 91.7855L15.5502 89.7856ZM6.77499 85.9609C4.74723 83.3676 3.63151 79.3879 3.58565 73.8603L1.58572 73.8769C1.63331 79.613 2.78528 84.1054 5.19947 87.1928L6.77499 85.9609ZM3.58565 73.8603L3.41654 53.477L1.41661 53.4936L1.58572 73.8769L3.58565 73.8603ZM2.42487 54.4853L47.2233 54.1136L47.2067 52.1137L2.40828 52.4854L2.42487 54.4853ZM46.2151 53.1219L46.3749 72.3853L48.3748 72.3687L48.215 53.1053L46.2151 53.1219ZM20.5443 63.0233L11.4566 63.0987L11.4732 65.0986L20.5609 65.0232L20.5443 63.0233ZM10.465 64.1069L10.5409 73.2586L12.5408 73.242L12.4649 64.0903L10.465 64.1069ZM10.5409 73.2586C10.5594 75.4914 10.934 77.338 11.8021 78.6556L13.4722 77.5552C12.9144 76.7085 12.5581 75.3184 12.5408 73.242L10.5409 73.2586ZM11.8048 78.6596C12.7696 80.1088 14.3067 80.7556 16.1792 80.7401L16.1626 78.7401C14.7924 78.7515 13.9738 78.3085 13.4696 77.5512L11.8048 78.6596ZM16.1792 80.7401C18.0354 80.7247 19.5446 80.0482 20.4617 78.5763L18.7642 77.5187C18.2917 78.2771 17.5062 78.729 16.1626 78.7401L16.1792 80.7401ZM20.457 78.5838C21.3032 77.2519 21.647 75.3994 21.6285 73.1666L19.6286 73.1832C19.6458 75.2596 19.3126 76.6555 18.7689 77.5112L20.457 78.5838ZM21.6285 73.1666L21.5526 64.0149L19.5527 64.0315L19.6286 73.1832L21.6285 73.1666ZM38.3037 62.8759L29.472 62.9492L29.4886 64.9491L38.3203 64.8758L38.3037 62.8759ZM28.4804 63.9574L28.5494 72.2772L30.5493 72.2606L30.4803 63.9409L28.4804 63.9574ZM28.5494 72.2772C28.5676 74.4755 28.9631 76.2996 29.8871 77.5928C30.857 78.9503 32.3057 79.5823 34.0581 79.5677L34.0415 77.5678C32.8286 77.5778 32.0446 77.1723 31.5144 76.4301C30.9383 75.6238 30.5661 74.2861 30.5493 72.2606L28.5494 72.2772ZM34.0581 79.5677C35.795 79.5533 37.2174 78.8929 38.1515 77.5187C39.04 76.2115 39.3992 74.3836 39.381 72.1873L37.3811 72.2039C37.3979 74.2314 37.0527 75.5775 36.4975 76.3944C35.9878 77.1442 35.2271 77.5579 34.0415 77.5678L34.0581 79.5677ZM39.381 72.1873L39.312 63.8676L37.312 63.8842L37.3811 72.2039L39.381 72.1873ZM46.7509 109.031L47.6768 108.653L47.6758 108.651L46.7509 109.031ZM46.9089 128.07L45.9778 127.705L45.9769 127.708L46.9089 128.07ZM42.1392 135.598L41.4262 134.897L41.419 134.904L42.1392 135.598ZM34.8198 140.523L35.2048 141.446L34.8198 140.523ZM16.2604 140.677L15.8908 141.606L16.2604 140.677ZM8.82832 135.874L8.12338 136.584L8.12342 136.584L8.82832 135.874ZM3.96637 128.427L4.8922 128.049L4.89125 128.046L3.96637 128.427ZM3.8084 109.387L2.87733 109.022L2.87642 109.025L3.8084 109.387ZM8.54611 101.86L7.83313 101.158L7.8259 101.166L8.54611 101.86ZM15.8978 96.9665L16.2827 97.8894L15.8978 96.9665ZM34.4571 96.8125L34.8267 95.8833L34.4571 96.8125ZM41.857 101.583L41.152 102.293L41.1521 102.293L41.857 101.583ZM34.8088 127.627L34.1086 126.913L34.1053 126.916L34.8088 127.627ZM34.6599 109.675L35.3514 108.953L35.3481 108.95L34.6599 109.675ZM15.9085 109.831L15.2083 109.117L15.205 109.12L15.9085 109.831ZM16.0574 127.782L16.749 127.06L16.7457 127.057L16.0574 127.782ZM45.8251 109.409C46.9713 112.217 47.5627 115.264 47.59 118.56L49.5899 118.544C49.5607 115.014 48.926 111.713 47.6768 108.653L45.8251 109.409ZM47.59 118.56C47.6174 121.857 47.0765 124.902 45.9778 127.705L47.84 128.435C49.0393 125.374 49.6192 122.074 49.5899 118.544L47.59 118.56ZM45.9769 127.708C44.8726 130.547 43.3533 132.938 41.4262 134.897L42.8521 136.299C44.987 134.129 46.6474 131.501 47.8409 128.433L45.9769 127.708ZM41.419 134.904C39.5113 136.885 37.1882 138.452 34.4348 139.6L35.2048 141.446C38.1917 140.2 40.7482 138.484 42.8594 136.292L41.419 134.904ZM34.4348 139.6C31.6915 140.744 28.7319 141.334 25.5464 141.36L25.563 143.36C28.9906 143.331 32.2078 142.696 35.2048 141.446L34.4348 139.6ZM25.5464 141.36C22.3609 141.386 19.392 140.846 16.63 139.748L15.8908 141.606C18.9081 142.806 22.1354 143.388 25.563 143.36L25.5464 141.36ZM16.63 139.748C13.8572 138.645 11.4961 137.116 9.53322 135.165L8.12342 136.584C10.2907 138.738 12.8844 140.41 15.8908 141.606L16.63 139.748ZM9.53326 135.165C7.59388 133.238 6.04433 130.871 4.8922 128.049L3.04053 128.804C4.28383 131.85 5.97559 134.449 8.12338 136.584L9.53326 135.165ZM4.89125 128.046C3.74618 125.261 3.15489 122.226 3.12754 118.929L1.12761 118.946C1.1569 122.476 1.79147 125.766 3.04148 128.807L4.89125 128.046ZM3.12754 118.929C3.10019 115.633 3.64092 112.576 4.74038 109.75L2.87642 109.025C1.67815 112.105 1.09832 115.416 1.12761 118.946L3.12754 118.929ZM4.73947 109.752C5.84476 106.931 7.35582 104.537 9.26633 102.553L7.8259 101.166C5.71755 103.355 4.07013 105.978 2.87733 109.022L4.73947 109.752ZM9.25906 102.561C11.1898 100.598 13.5264 99.0391 16.2827 97.8894L15.5128 96.0435C12.5288 97.2882 9.96429 98.9916 7.83316 101.158L9.25906 102.561ZM16.2827 97.8894C19.0261 96.7451 21.9857 96.1559 25.1711 96.1295L25.1546 94.1296C21.7269 94.158 18.5098 94.7935 15.5128 96.0435L16.2827 97.8894ZM25.1711 96.1295C28.3566 96.1031 31.3256 96.6431 34.0875 97.7417L34.8267 95.8833C31.8094 94.6831 28.5822 94.1011 25.1546 94.1296L25.1711 96.1295ZM34.0875 97.7417C36.8617 98.8452 39.2116 100.364 41.152 102.293L42.5619 100.874C40.4151 98.7403 37.8318 97.0786 34.8267 95.8833L34.0875 97.7417ZM41.1521 102.293C43.1151 104.243 44.675 106.611 45.826 109.411L47.6758 108.651C46.4318 105.625 44.729 103.028 42.5619 100.874L41.1521 102.293ZM35.509 128.341C38.1124 125.787 39.3826 122.521 39.3503 118.629L37.3504 118.645C37.3786 122.048 36.2877 124.776 34.1086 126.913L35.509 128.341ZM39.3503 118.629C39.318 114.736 37.9939 111.483 35.3514 108.953L33.9683 110.398C36.1859 112.521 37.3221 115.242 37.3504 118.645L39.3503 118.629ZM35.3481 108.95C32.7026 106.44 29.3048 105.232 25.2469 105.265L25.2635 107.265C28.8854 107.235 31.7573 108.3 33.9716 110.401L35.3481 108.95ZM25.2469 105.265C21.1891 105.299 17.8118 106.564 15.2083 109.117L16.6087 110.545C18.7878 108.408 21.6417 107.295 25.2635 107.265L25.2469 105.265ZM15.205 109.12C12.6049 111.694 11.335 114.968 11.3673 118.861L13.3672 118.844C13.339 115.441 14.4299 112.701 16.612 110.542L15.205 109.12ZM11.3673 118.861C11.3996 122.753 12.7237 125.998 15.3692 128.508L16.7457 127.057C14.5314 124.956 13.3954 122.247 13.3672 118.844L11.3673 118.861ZM15.3659 128.505C18.0111 131.037 21.4101 132.258 25.4706 132.224L25.454 130.224C21.8348 130.254 18.9639 129.18 16.749 127.06L15.3659 128.505ZM25.4706 132.224C29.5311 132.191 32.9094 130.914 35.5122 128.337L34.1053 126.916C31.9259 129.073 29.0732 130.194 25.454 130.224L25.4706 132.224ZM7.54993 182.36L6.82864 183.052L6.8309 183.055L7.54993 182.36ZM7.31047 153.497L6.57989 152.814L6.57778 152.816L7.31047 153.497ZM48.0023 148.007L49.0023 147.999L48.994 146.999L47.994 147.007L48.0023 148.007ZM48.0913 158.727L48.0996 159.726L49.0995 159.718L49.0912 158.718L48.0913 158.727ZM15.024 161.369L14.3015 160.678L14.2967 160.683L15.024 161.369ZM15.1321 174.393L14.4163 175.091L14.4212 175.096L15.1321 174.393ZM48.2386 176.486L49.2386 176.478L49.2303 175.478L48.2303 175.486L48.2386 176.486ZM48.3275 187.206L48.3358 188.206L49.3358 188.197L49.3275 187.197L48.3275 187.206ZM21.6002 186.427C15.7372 186.476 11.344 184.846 8.26897 181.665L6.8309 183.055C10.3836 186.73 15.3628 188.479 21.6168 188.427L21.6002 186.427ZM8.27123 181.667C5.20324 178.472 3.58402 173.949 3.53434 167.96L1.5344 167.977C1.58702 174.319 3.31151 179.39 6.82864 183.052L8.27123 181.667ZM3.53434 167.96C3.48465 161.972 5.0286 157.423 8.04315 154.177L6.57778 152.816C3.12191 156.537 1.48179 161.635 1.5344 167.977L3.53434 167.96ZM8.04105 154.179C11.0399 150.971 15.4039 149.277 21.2915 149.229L21.2749 147.229C15.003 147.281 10.0518 149.099 6.57989 152.814L8.04105 154.179ZM21.2915 149.229L48.0106 149.007L47.994 147.007L21.2749 147.229L21.2915 149.229ZM47.0024 148.015L47.0913 158.735L49.0912 158.718L49.0023 147.999L47.0024 148.015ZM48.083 157.727L21.7799 157.945L21.7965 159.945L48.0996 159.726L48.083 157.727ZM21.7799 157.945C18.6225 157.971 16.07 158.83 14.3016 160.678L15.7465 162.06C17.0238 160.726 18.9808 159.968 21.7965 159.945L21.7799 157.945ZM14.2967 160.683C12.5754 162.507 11.7817 164.952 11.8061 167.892L13.806 167.875C13.7847 165.312 14.4696 163.414 15.7513 162.055L14.2967 160.683ZM11.8061 167.892C11.8306 170.851 12.6636 173.294 14.4163 175.091L15.8479 173.694C14.5452 172.359 13.8275 170.463 13.806 167.875L11.8061 167.892ZM14.4212 175.096C16.22 176.914 18.7864 177.73 21.9438 177.704L21.9272 175.704C19.1115 175.728 17.1423 175.003 15.843 173.689L14.4212 175.096ZM21.9438 177.704L48.2469 177.486L48.2303 175.486L21.9272 175.704L21.9438 177.704ZM47.2386 176.494L47.3276 187.214L49.3275 187.197L49.2386 176.478L47.2386 176.494ZM48.3192 186.206L21.6002 186.427L21.6168 188.427L48.3358 188.206L48.3192 186.206ZM38.7536 228.954L37.7536 228.963L37.7619 229.963L38.7619 229.954L38.7536 228.954ZM38.6437 215.707L39.6436 215.699L39.6353 214.699L38.6354 214.707L38.6437 215.707ZM3.76487 215.996L2.7649 216.005L2.7732 217.004L3.77316 216.996L3.76487 215.996ZM3.67619 205.309L3.6679 204.309L2.66793 204.317L2.67623 205.317L3.67619 205.309ZM38.555 205.019L38.5633 206.019L39.5633 206.011L39.555 205.011L38.555 205.019ZM38.4448 191.74L38.4365 190.74L37.4366 190.748L37.4449 191.748L38.4448 191.74ZM48.3645 191.657L49.3644 191.649L49.3561 190.649L48.3562 190.657L48.3645 191.657ZM48.6732 228.872L48.6815 229.872L49.6815 229.864L49.6732 228.864L48.6732 228.872ZM39.7535 228.946L39.6436 215.699L37.6437 215.715L37.7536 228.963L39.7535 228.946ZM38.6354 214.707L3.75657 214.996L3.77316 216.996L38.652 216.707L38.6354 214.707ZM4.76483 215.988L4.67616 205.3L2.67623 205.317L2.7649 216.005L4.76483 215.988ZM3.68449 206.309L38.5633 206.019L38.5467 204.019L3.6679 204.309L3.68449 206.309ZM39.555 205.011L39.4448 191.731L37.4449 191.748L37.555 205.028L39.555 205.011ZM38.4531 192.74L48.3728 192.657L48.3562 190.657L38.4365 190.74L38.4531 192.74ZM47.3645 191.666L47.6733 228.88L49.6732 228.864L49.3644 191.649L47.3645 191.666ZM48.6649 227.872L38.7453 227.954L38.7619 229.954L48.6815 229.872L48.6649 227.872ZM8.37075 281.294L7.64946 281.986L7.65172 281.989L8.37075 281.294ZM8.13129 252.431L7.40071 251.748L7.3986 251.75L8.13129 252.431ZM48.8231 246.941L49.8231 246.933L49.8148 245.933L48.8149 245.941L48.8231 246.941ZM48.9121 257.661L48.9204 258.661L49.9203 258.652L49.9121 257.652L48.9121 257.661ZM15.8449 260.303L15.1224 259.612L15.1176 259.617L15.8449 260.303ZM15.9529 273.327L15.2371 274.025L15.242 274.03L15.9529 273.327ZM49.0594 275.42L50.0594 275.412L50.0511 274.412L49.0511 274.42L49.0594 275.42ZM49.1484 286.14L49.1567 287.14L50.1566 287.131L50.1483 286.131L49.1484 286.14ZM22.421 285.361C16.558 285.41 12.1648 283.78 9.08979 280.599L7.65172 281.989C11.2045 285.664 16.1836 287.413 22.4376 287.361L22.421 285.361ZM9.09204 280.601C6.02405 277.406 4.40484 272.883 4.35515 266.895L2.35522 266.911C2.40784 273.253 4.13233 278.324 7.64946 281.986L9.09204 280.601ZM4.35515 266.895C4.30547 260.906 5.84942 256.357 8.86397 253.111L7.3986 251.75C3.94273 255.471 2.30261 260.569 2.35522 266.911L4.35515 266.895ZM8.86187 253.114C11.8607 249.905 16.2247 248.211 22.1124 248.163L22.0958 246.163C15.8238 246.215 10.8726 248.033 7.40071 251.748L8.86187 253.114ZM22.1124 248.163L48.8314 247.941L48.8149 245.941L22.0958 246.163L22.1124 248.163ZM47.8232 246.949L47.9121 257.669L49.9121 257.652L49.8231 246.933L47.8232 246.949ZM48.9038 256.661L22.6007 256.879L22.6173 258.879L48.9204 258.661L48.9038 256.661ZM22.6007 256.879C19.4433 256.905 16.8908 257.764 15.1224 259.612L16.5674 260.994C17.8446 259.66 19.8016 258.902 22.6173 258.879L22.6007 256.879ZM15.1176 259.617C13.3963 261.441 12.6025 263.886 12.6269 266.826L14.6268 266.809C14.6055 264.246 15.2904 262.348 16.5722 260.989L15.1176 259.617ZM12.6269 266.826C12.6514 269.785 13.4844 272.228 15.2371 274.025L16.6687 272.628C15.366 271.293 14.6483 269.397 14.6268 266.809L12.6269 266.826ZM15.242 274.03C17.0408 275.848 19.6072 276.664 22.7646 276.638L22.748 274.638C19.9323 274.662 17.9631 273.937 16.6638 272.623L15.242 274.03ZM22.7646 276.638L49.0677 276.42L49.0511 274.42L22.748 274.638L22.7646 276.638ZM48.0595 275.428L48.1484 286.148L50.1483 286.131L50.0594 275.412L48.0595 275.428ZM49.1401 285.14L22.421 285.361L22.4376 287.361L49.1567 287.14L49.1401 285.14ZM36.77 325.448L35.9024 324.95L35.3897 325.845L36.2996 326.33L36.77 325.448ZM39.341 307.474L40.2166 306.991L40.2132 306.985L39.341 307.474ZM35.1356 305.877L34.6604 304.997L35.1356 305.877ZM34.1522 306.909L33.2937 306.396L33.2808 306.418L33.2689 306.44L34.1522 306.909ZM33.4593 308.259L32.5612 307.819L32.5469 307.848L32.5345 307.878L33.4593 308.259ZM32.8998 310.247L31.924 310.029L31.921 310.042L31.9185 310.055L32.8998 310.247ZM32.0738 314.83L31.0884 314.66L31.087 314.669L32.0738 314.83ZM31.7692 316.689L32.7557 316.853L32.756 316.851L31.7692 316.689ZM27.4722 327.189L26.7121 326.539L26.7094 326.542L27.4722 327.189ZM13.3187 329.962L13.6924 329.035L13.6864 329.032L13.3187 329.962ZM9.03975 327.214L9.74747 326.507L9.03975 327.214ZM6.09307 323.046L6.98853 322.601L6.98617 322.596L6.09307 323.046ZM4.32265 317.941L5.30157 317.736L5.3011 317.734L4.32265 317.941ZM5.11336 301.389L4.14915 301.124L4.14873 301.126L5.11336 301.389ZM9.26421 292.555L9.78034 291.698L9.00541 291.231L8.46346 291.956L9.26421 292.555ZM18.0122 297.826L18.8448 298.38L19.4241 297.51L18.5284 296.97L18.0122 297.826ZM14.5268 317.44L13.648 317.917L13.6541 317.928L14.5268 317.44ZM19.052 319.002L18.511 318.161L18.511 318.161L19.052 319.002ZM20.0674 317.97L19.2245 317.432L20.0674 317.97ZM20.82 316.108L19.8591 315.831L19.8572 315.838L20.82 316.108ZM21.3761 313.703L20.3959 313.505L20.3934 313.518L20.3912 313.53L21.3761 313.703ZM21.9255 310.498L22.914 310.649L22.9146 310.645L21.9255 310.498ZM22.2589 308.255L21.27 308.107L21.2698 308.108L22.2589 308.255ZM26.5866 297.595L25.8512 296.918L25.848 296.921L26.5866 297.595ZM35.8059 294.095L35.7926 295.095L35.7944 295.095L35.8059 294.095ZM46.184 299.129L45.399 299.748L45.399 299.748L46.184 299.129ZM49.214 321.056L48.2411 320.825L48.2407 320.827L49.214 321.056ZM45.5773 330.143L45.1069 331.025L45.9833 331.492L46.4565 330.619L45.5773 330.143ZM37.6377 325.945C40.1917 321.488 41.4764 317.028 41.4394 312.576L39.4395 312.593C39.473 316.632 38.3114 320.747 35.9024 324.95L37.6377 325.945ZM41.4394 312.576C41.4211 310.365 41.0386 308.48 40.2166 306.991L38.4655 307.957C39.073 309.058 39.4228 310.581 39.4395 312.593L41.4394 312.576ZM40.2132 306.985C39.3507 305.447 38.0439 304.564 36.3409 304.579L36.3575 306.578C37.2144 306.571 37.9021 306.952 38.4688 307.963L40.2132 306.985ZM36.3409 304.579C35.7451 304.583 35.1779 304.717 34.6604 304.997L35.6108 306.756C35.8155 306.646 36.0573 306.581 36.3575 306.578L36.3409 304.579ZM34.6604 304.997C34.0898 305.305 33.6454 305.807 33.2937 306.396L35.0106 307.422C35.248 307.024 35.4593 306.838 35.6108 306.756L34.6604 304.997ZM33.2689 306.44C32.9924 306.961 32.7562 307.421 32.5612 307.819L34.3574 308.698C34.5401 308.325 34.7658 307.886 35.0354 307.378L33.2689 306.44ZM32.5345 307.878C32.3327 308.369 32.1314 309.102 31.924 310.029L33.8757 310.466C34.0797 309.554 34.2513 308.962 34.3842 308.639L32.5345 307.878ZM31.9185 310.055C31.734 310.997 31.5994 311.711 31.516 312.192L33.4867 312.533C33.5662 312.075 33.6973 311.378 33.8812 310.44L31.9185 310.055ZM31.516 312.192C31.4346 312.662 31.2921 313.485 31.0885 314.66L33.0591 315.001C33.2627 313.826 33.4052 313.003 33.4867 312.533L31.516 312.192ZM31.087 314.669L30.7824 316.527L32.756 316.851L33.0606 314.992L31.087 314.669ZM30.7827 316.525C30.0491 320.945 28.6676 324.252 26.7122 326.539L28.2322 327.839C30.5025 325.184 31.9858 321.491 32.7557 316.853L30.7827 316.525ZM26.7094 326.542C24.8019 328.792 22.2608 329.944 18.983 329.971L18.9996 331.971C22.8041 331.94 25.917 330.57 28.235 327.836L26.7094 326.542ZM18.983 329.971C17.0287 329.988 15.2696 329.67 13.6923 329.035L12.945 330.89C14.7927 331.634 16.8153 331.989 18.9996 331.971L18.983 329.971ZM13.6864 329.032C12.1094 328.409 10.8026 327.564 9.74747 326.507L8.33202 327.92C9.60033 329.191 11.1461 330.179 12.951 330.892L13.6864 329.032ZM9.74747 326.507C8.66905 325.427 7.74784 324.128 6.98852 322.601L5.19762 323.491C6.04381 325.193 7.08705 326.673 8.33202 327.92L9.74747 326.507ZM6.98617 322.596C6.22418 321.083 5.66213 319.464 5.30157 317.736L3.34373 318.145C3.73857 320.037 4.3568 321.822 5.19997 323.496L6.98617 322.596ZM5.3011 317.734C4.9383 316.015 4.74768 314.206 4.73191 312.305L2.73198 312.322C2.74877 314.346 2.95196 316.288 3.3442 318.147L5.3011 317.734ZM4.73191 312.305C4.70113 308.595 5.15096 305.045 6.07799 301.653L4.14873 301.126C3.17087 304.704 2.69975 308.437 2.73198 312.322L4.73191 312.305ZM6.07757 301.655C7.00309 298.289 8.33774 295.463 10.065 293.154L8.46346 291.956C6.56147 294.498 5.12889 297.562 4.14916 301.124L6.07757 301.655ZM8.74808 293.411L17.4961 298.683L18.5284 296.97L9.78034 291.698L8.74808 293.411ZM17.1797 297.272C13.9847 302.074 12.385 307.101 12.4284 312.337L14.4284 312.321C14.3886 307.53 15.8448 302.889 18.8448 298.38L17.1797 297.272ZM12.4284 312.337C12.4466 314.53 12.8301 316.411 13.648 317.917L15.4057 316.963C14.7937 315.836 14.4449 314.309 14.4284 312.321L12.4284 312.337ZM13.6541 317.928C14.542 319.516 15.8951 320.413 17.6555 320.398L17.6389 318.398C16.7114 318.406 15.9843 317.997 15.3996 316.952L13.6541 317.928ZM17.6555 320.398C18.3559 320.392 19.0133 320.216 19.593 319.843L18.511 318.161C18.2843 318.307 18.0052 318.395 17.6389 318.398L17.6555 320.398ZM19.593 319.843C20.1249 319.501 20.5638 319.051 20.9104 318.508L19.2245 317.432C19.0235 317.747 18.7855 317.985 18.511 318.161L19.593 319.843ZM20.9104 318.508C21.2604 317.96 21.5434 317.232 21.7829 316.378L19.8572 315.838C19.6408 316.609 19.422 317.123 19.2245 317.432L20.9104 318.508ZM21.7809 316.385C22.0189 315.559 22.2122 314.723 22.361 313.876L20.3912 313.53C20.2547 314.307 20.0774 315.074 19.8591 315.831L21.7809 316.385ZM22.3563 313.901C22.5247 313.067 22.7106 311.981 22.914 310.649L20.937 310.347C20.7358 311.664 20.5553 312.715 20.3959 313.505L22.3563 313.901ZM22.9146 310.645L23.248 308.403L21.2698 308.108L20.9364 310.351L22.9146 310.645ZM23.2479 308.404C23.9393 303.791 25.3312 300.454 27.3253 298.269L25.848 296.921C23.4869 299.508 21.9936 303.279 21.27 308.107L23.2479 308.404ZM27.322 298.273C29.2875 296.14 32.0627 295.045 35.7926 295.095L35.8192 293.095C31.6547 293.039 28.2836 294.278 25.8512 296.918L27.322 298.273ZM35.7944 295.095C39.8104 295.141 42.9823 296.685 45.399 299.748L46.9691 298.509C44.1681 294.959 40.4212 293.148 35.8174 293.095L35.7944 295.095ZM45.399 299.748C47.8384 302.84 49.1206 306.906 49.1632 312.032L51.1631 312.016C51.1179 306.561 49.7474 302.03 46.9691 298.509L45.399 299.748ZM49.1632 312.032C49.1895 315.205 48.8798 318.135 48.2411 320.825L50.187 321.287C50.8676 318.42 51.1906 315.328 51.1631 312.016L49.1632 312.032ZM48.2407 320.827C47.6064 323.52 46.4324 326.466 44.6981 329.666L46.4565 330.619C48.2523 327.305 49.5028 324.193 50.1874 321.286L48.2407 320.827ZM46.0477 329.26L37.2405 324.565L36.2996 326.33L45.1069 331.025L46.0477 329.26Z" fill="#05C2DF" fill-opacity="0.05"/>
</svg>
