<svg width="52" height="333" viewBox="0 0 52 333" fill="none" xmlns="http://www.w3.org/2000/svg">
<path d="M2.39358 49.4846L1.39362 49.4929L1.40568 50.9474L2.75945 50.4152L2.39358 49.4846ZM2.29907 38.093L1.95211 37.1551L1.29328 37.3988L1.2991 38.1013L2.29907 38.093ZM11.6786 34.623L12.0256 35.5609L12.6844 35.3172L12.6786 34.6147L11.6786 34.623ZM11.531 16.8316L12.531 16.8233L12.5251 16.1209L11.8624 15.8881L11.531 16.8316ZM2.09518 13.5178L1.09521 13.5261L1.10104 14.2285L1.76382 14.4613L2.09518 13.5178ZM2.00253 2.35019L2.3529 1.41357L0.990492 0.90392L1.00256 2.35848L2.00253 2.35019ZM46.9436 19.1619L47.9435 19.1536L47.9378 18.4662L47.2939 18.2253L46.9436 19.1619ZM47.0495 31.9295L47.4153 32.8602L48.0551 32.6086L48.0494 31.9212L47.0495 31.9295ZM21.2233 20.2073L21.5544 19.2637L20.2116 18.7926L20.2234 20.2156L21.2233 20.2073ZM21.3136 31.087L20.3136 31.0953L20.3254 32.5183L21.6603 32.025L21.3136 31.087ZM36.372 25.5218L36.7186 26.4598L39.3229 25.4974L36.703 24.5782L36.372 25.5218ZM3.39355 49.4763L3.29904 38.0847L1.2991 38.1013L1.39362 49.4929L3.39355 49.4763ZM2.64604 39.0308L12.0256 35.5609L11.3316 33.6851L1.95211 37.1551L2.64604 39.0308ZM12.6786 34.6147L12.531 16.8233L10.531 16.8399L10.6786 34.6313L12.6786 34.6147ZM11.8624 15.8881L2.42654 12.5743L1.76382 14.4613L11.1996 17.7751L11.8624 15.8881ZM3.09515 13.5095L3.00249 2.34189L1.00256 2.35848L1.09521 13.5261L3.09515 13.5095ZM1.65215 3.2868L46.5932 20.0985L47.2939 18.2253L2.3529 1.41357L1.65215 3.2868ZM45.9436 19.1702L46.0495 31.9378L48.0494 31.9212L47.9435 19.1536L45.9436 19.1702ZM46.6836 30.9988L2.02772 48.5539L2.75945 50.4152L47.4153 32.8602L46.6836 30.9988ZM20.2234 20.2156L20.3136 31.0953L22.3136 31.0787L22.2233 20.199L20.2234 20.2156ZM21.6603 32.025L36.7186 26.4598L36.0253 24.5839L20.9669 30.149L21.6603 32.025ZM36.703 24.5782L21.5544 19.2637L20.8923 21.151L36.0409 26.4655L36.703 24.5782ZM44.2634 85.6854L43.4556 85.0959L43.4528 85.0998L44.2634 85.6854ZM29.1179 88.4672L28.5578 89.2956L28.5628 89.299L29.1179 88.4672ZM25.3369 84.0184L26.242 83.5931L25.2082 81.3931L24.3946 83.6837L25.3369 84.0184ZM21.5712 89.1378L20.9646 88.3428L20.96 88.3463L21.5712 89.1378ZM6.00091 86.9949L5.21314 87.6109L6.00091 86.9949ZM2.43024 53.9034L2.42195 52.9034L1.42198 52.9117L1.43028 53.9117L2.43024 53.9034ZM47.2287 53.5317L48.2287 53.5234L48.2204 52.5235L47.2204 52.5318L47.2287 53.5317ZM20.5663 64.4413L21.5663 64.433L21.558 63.433L20.558 63.4413L20.5663 64.4413ZM11.4786 64.5167L11.4703 63.5167L10.4703 63.525L10.4786 64.525L11.4786 64.5167ZM12.6509 78.5235L11.8158 79.0737L11.8185 79.0776L12.6509 78.5235ZM19.6266 78.4656L18.7825 77.9293L18.7779 77.9368L19.6266 78.4656ZM38.3257 64.294L39.3257 64.2857L39.3174 63.2857L38.3174 63.294L38.3257 64.294ZM29.494 64.3672L29.4857 63.3673L28.4857 63.3756L28.494 64.3755L29.494 64.3672ZM46.3886 72.8034C46.4348 78.3772 45.4057 82.4241 43.4556 85.0959L45.0711 86.275C47.3821 83.1086 48.4364 78.5619 48.3885 72.7868L46.3886 72.8034ZM43.4528 85.0998C41.5606 87.7184 38.7496 89.0833 34.8515 89.1157L34.8681 91.1156C39.2897 91.0789 42.7477 89.4904 45.0739 86.2711L43.4528 85.0998ZM34.8515 89.1157C32.8824 89.132 31.1676 88.633 29.6731 87.6354L28.5628 89.299C30.4148 90.5351 32.528 91.135 34.8681 91.1156L34.8515 89.1157ZM29.678 87.6388C28.179 86.6252 27.036 85.2832 26.242 83.5931L24.4318 84.4437C25.3751 86.4513 26.7528 88.0752 28.5578 89.2956L29.678 87.6388ZM24.3946 83.6837C23.7317 85.5498 22.5957 87.0982 20.9646 88.3428L22.1778 89.9328C24.1083 88.4598 25.4828 86.5952 26.2792 84.3531L24.3946 83.6837ZM20.96 88.3463C19.3748 89.5704 17.5873 90.1869 15.5639 90.2037L15.5804 92.2036C18.0369 92.1833 20.2487 91.4225 22.1824 89.9293L20.96 88.3463ZM15.5639 90.2037C11.6605 90.2361 8.78729 88.9349 6.78867 86.3789L5.21314 87.6109C7.65647 90.7356 11.1641 92.2403 15.5804 92.2036L15.5639 90.2037ZM6.78867 86.3789C4.76091 83.7857 3.64518 79.806 3.59932 74.2784L1.59939 74.295C1.64698 80.031 2.79895 84.5235 5.21314 87.6109L6.78867 86.3789ZM3.59932 74.2784L3.43021 53.8951L1.43028 53.9117L1.59939 74.295L3.59932 74.2784ZM2.43854 54.9034L47.237 54.5317L47.2204 52.5318L2.42195 52.9034L2.43854 54.9034ZM46.2287 53.54L46.3886 72.8034L48.3885 72.7868L48.2287 53.5234L46.2287 53.54ZM20.558 63.4413L11.4703 63.5167L11.4869 65.5167L20.5746 65.4413L20.558 63.4413ZM10.4786 64.525L10.5546 73.6767L12.5545 73.6601L12.4786 64.5084L10.4786 64.525ZM10.5546 73.6767C10.5731 75.9095 10.9477 77.7561 11.8158 79.0737L13.4859 77.9733C12.928 77.1266 12.5717 75.7365 12.5545 73.6601L10.5546 73.6767ZM11.8185 79.0776C12.7833 80.5269 14.3204 81.1737 16.1928 81.1582L16.1762 79.1582C14.8061 79.1696 13.9874 78.7266 13.4833 77.9693L11.8185 79.0776ZM16.1928 81.1582C18.0491 81.1428 19.5583 80.4663 20.4754 78.9944L18.7779 77.9368C18.3054 78.6952 17.5199 79.1471 16.1762 79.1582L16.1928 81.1582ZM20.4707 79.0019C21.3168 77.67 21.6607 75.8175 21.6422 73.5847L19.6423 73.6013C19.6595 75.6777 19.3263 77.0735 18.7826 77.9293L20.4707 79.0019ZM21.6422 73.5847L21.5663 64.433L19.5663 64.4496L19.6423 73.6013L21.6422 73.5847ZM38.3174 63.294L29.4857 63.3673L29.5023 65.3672L38.334 65.2939L38.3174 63.294ZM28.494 64.3755L28.563 72.6953L30.563 72.6787L30.494 64.3589L28.494 64.3755ZM28.563 72.6953C28.5813 74.8936 28.9767 76.7176 29.9007 78.0109C30.8706 79.3684 32.3193 80.0003 34.0717 79.9858L34.0551 77.9859C32.8423 77.9959 32.0583 77.5904 31.5281 76.8482C30.9519 76.0419 30.5798 74.7042 30.563 72.6787L28.563 72.6953ZM34.0717 79.9858C35.8087 79.9714 37.2311 79.311 38.1652 77.9368C39.0537 76.6296 39.4129 74.8017 39.3947 72.6054L37.3947 72.622C37.4116 74.6495 37.0664 75.9956 36.5111 76.8125C36.0015 77.5623 35.2407 77.976 34.0551 77.9859L34.0717 79.9858ZM39.3947 72.6054L39.3257 64.2857L37.3257 64.3023L37.3947 72.622L39.3947 72.6054ZM46.7646 109.449L47.6904 109.071L47.6895 109.069L46.7646 109.449ZM46.9226 128.488L45.9915 128.124L45.9906 128.126L46.9226 128.488ZM42.1528 136.016L41.4399 135.315L41.4326 135.322L42.1528 136.016ZM34.8335 140.941L35.2184 141.864L34.8335 140.941ZM16.2741 141.095L15.9045 142.024L16.2741 141.095ZM8.84199 136.293L8.13705 137.002L8.13709 137.002L8.84199 136.293ZM3.98004 128.845L4.90587 128.467L4.90492 128.464L3.98004 128.845ZM3.82207 109.805L2.891 109.44L2.8901 109.443L3.82207 109.805ZM8.55979 102.278L7.8468 101.576L7.83957 101.584L8.55979 102.278ZM15.9114 97.3846L16.2964 98.3075L15.9114 97.3846ZM34.4708 97.2306L34.8404 96.3014L34.4708 97.2306ZM41.8706 102.001L41.1657 102.711L41.1657 102.711L41.8706 102.001ZM34.8225 128.045L34.1223 127.331L34.119 127.334L34.8225 128.045ZM34.6735 110.093L35.3651 109.371L35.3618 109.368L34.6735 110.093ZM15.9222 110.249L15.222 109.535L15.2187 109.538L15.9222 110.249ZM16.0711 128.2L16.7627 127.478L16.7594 127.475L16.0711 128.2ZM45.8388 109.827C46.985 112.635 47.5763 115.682 47.6037 118.978L49.6036 118.962C49.5743 115.432 48.9397 112.131 47.6904 109.071L45.8388 109.827ZM47.6037 118.978C47.631 122.275 47.0902 125.32 45.9915 128.124L47.8536 128.853C49.053 125.792 49.6329 122.492 49.6036 118.962L47.6037 118.978ZM45.9906 128.126C44.8863 130.965 43.3669 133.356 41.4399 135.315L42.8658 136.717C45.0006 134.547 46.6611 131.919 47.8545 128.851L45.9906 128.126ZM41.4326 135.322C39.5249 137.303 37.2018 138.87 34.4485 140.018L35.2184 141.864C38.2054 140.618 40.7619 138.902 42.8731 136.71L41.4326 135.322ZM34.4485 140.018C31.7051 141.162 28.7456 141.752 25.5601 141.778L25.5767 143.778C29.0043 143.75 32.2214 143.114 35.2184 141.864L34.4485 140.018ZM25.5601 141.778C22.3746 141.804 19.4057 141.264 16.6437 140.166L15.9045 142.024C18.9218 143.224 22.149 143.806 25.5767 143.778L25.5601 141.778ZM16.6437 140.166C13.8709 139.063 11.5098 137.534 9.5469 135.583L8.13709 137.002C10.3044 139.156 12.8981 140.828 15.9045 142.024L16.6437 140.166ZM9.54693 135.583C7.60756 133.656 6.05801 131.289 4.90587 128.467L3.0542 129.223C4.2975 132.268 5.98926 134.867 8.13705 137.002L9.54693 135.583ZM4.90492 128.464C3.75985 125.679 3.16856 122.644 3.14121 119.347L1.14128 119.364C1.17057 122.894 1.80514 126.184 3.05515 129.225L4.90492 128.464ZM3.14121 119.347C3.11386 116.051 3.65459 112.994 4.75405 110.168L2.8901 109.443C1.69182 112.523 1.11199 115.834 1.14128 119.364L3.14121 119.347ZM4.75314 110.17C5.85843 107.35 7.36949 104.955 9.28 102.971L7.83957 101.584C5.73122 103.773 4.0838 106.396 2.89101 109.44L4.75314 110.17ZM9.27274 102.979C11.2035 101.016 13.5401 99.4572 16.2964 98.3075L15.5265 96.4616C12.5425 97.7063 9.97796 99.4097 7.84684 101.577L9.27274 102.979ZM16.2964 98.3075C19.0398 97.1632 21.9993 96.574 25.1848 96.5476L25.1682 94.5477C21.7406 94.5761 18.5235 95.2116 15.5265 96.4616L16.2964 98.3075ZM25.1848 96.5476C28.3703 96.5212 31.3392 97.0612 34.1012 98.1598L34.8404 96.3014C31.8231 95.1012 28.5958 94.5192 25.1682 94.5477L25.1848 96.5476ZM34.1012 98.1598C36.8754 99.2633 39.2253 100.782 41.1657 102.711L42.5756 101.292C40.4288 99.1584 37.8455 97.4967 34.8404 96.3014L34.1012 98.1598ZM41.1657 102.711C43.1288 104.662 44.6887 107.03 45.8397 109.829L47.6895 109.069C46.4455 106.043 44.7427 103.446 42.5755 101.292L41.1657 102.711ZM35.5227 128.759C38.1261 126.205 39.3963 122.939 39.364 119.047L37.364 119.063C37.3923 122.467 36.3014 125.194 34.1223 127.331L35.5227 128.759ZM39.364 119.047C39.3317 115.154 38.0076 111.901 35.3651 109.371L33.982 110.816C36.1996 112.939 37.3358 115.66 37.364 119.063L39.364 119.047ZM35.3618 109.368C32.7163 106.858 29.3185 105.65 25.2606 105.683L25.2772 107.683C28.8991 107.653 31.771 108.718 33.9853 110.819L35.3618 109.368ZM25.2606 105.683C21.2027 105.717 17.8255 106.982 15.222 109.535L16.6224 110.963C18.8015 108.826 21.6554 107.713 25.2772 107.683L25.2606 105.683ZM15.2187 109.538C12.6186 112.112 11.3486 115.386 11.3809 119.279L13.3809 119.262C13.3526 115.859 14.4435 113.119 16.6256 110.96L15.2187 109.538ZM11.3809 119.279C11.4132 123.171 12.7374 126.416 15.3828 128.926L16.7594 127.475C14.5451 125.374 13.4091 122.666 13.3809 119.262L11.3809 119.279ZM15.3795 128.923C18.0248 131.455 21.4237 132.676 25.4843 132.642L25.4677 130.642C21.8485 130.672 18.9775 129.599 16.7627 127.478L15.3795 128.923ZM25.4843 132.642C29.5448 132.609 32.9231 131.332 35.5259 128.755L34.119 127.334C31.9396 129.491 29.0869 130.612 25.4677 130.642L25.4843 132.642ZM7.56361 182.778L6.84231 183.47L6.84457 183.473L7.56361 182.778ZM7.32414 153.915L6.59356 153.232L6.59146 153.234L7.32414 153.915ZM48.016 148.425L49.016 148.417L49.0077 147.417L48.0077 147.425L48.016 148.425ZM48.1049 159.145L48.1132 160.145L49.1132 160.136L49.1049 159.136L48.1049 159.145ZM15.0377 161.787L14.3152 161.096L14.3104 161.101L15.0377 161.787ZM15.1458 174.811L14.4299 175.509L14.4349 175.514L15.1458 174.811ZM48.2523 176.904L49.2522 176.896L49.2439 175.896L48.244 175.904L48.2523 176.904ZM48.3412 187.624L48.3495 188.624L49.3495 188.615L49.3412 187.615L48.3412 187.624ZM21.6138 186.845C15.7509 186.894 11.3577 185.264 8.28264 182.083L6.84457 183.473C10.3973 187.148 15.3765 188.897 21.6304 188.845L21.6138 186.845ZM8.2849 182.085C5.21691 178.89 3.59769 174.367 3.54801 168.379L1.54808 168.395C1.60069 174.737 3.32519 179.808 6.84231 183.47L8.2849 182.085ZM3.54801 168.379C3.49833 162.39 5.04227 157.841 8.05682 154.595L6.59146 153.234C3.13558 156.955 1.49546 162.053 1.54808 168.395L3.54801 168.379ZM8.05472 154.598C11.0536 151.389 15.4176 149.695 21.3052 149.647L21.2886 147.647C15.0167 147.699 10.0655 149.517 6.59356 153.232L8.05472 154.598ZM21.3052 149.647L48.0243 149.425L48.0077 147.425L21.2886 147.647L21.3052 149.647ZM47.016 148.433L47.105 159.153L49.1049 159.136L49.016 148.417L47.016 148.433ZM48.0966 158.145L21.7935 158.363L21.8101 160.363L48.1132 160.145L48.0966 158.145ZM21.7935 158.363C18.6361 158.389 16.0836 159.248 14.3152 161.096L15.7602 162.478C17.0375 161.144 18.9944 160.386 21.8101 160.363L21.7935 158.363ZM14.3104 161.101C12.5891 162.925 11.7953 165.37 11.8197 168.31L13.8197 168.293C13.7984 165.73 14.4833 163.832 15.765 162.473L14.3104 161.101ZM11.8197 168.31C11.8443 171.269 12.6773 173.712 14.43 175.509L15.8616 174.112C14.5588 172.777 13.8411 170.881 13.8197 168.293L11.8197 168.31ZM14.4349 175.514C16.2337 177.332 18.8001 178.148 21.9575 178.122L21.9409 176.122C19.1252 176.146 17.156 175.421 15.8567 174.107L14.4349 175.514ZM21.9575 178.122L48.2606 177.904L48.244 175.904L21.9409 176.122L21.9575 178.122ZM47.2523 176.912L47.3413 187.632L49.3412 187.615L49.2522 176.896L47.2523 176.912ZM48.3329 186.624L21.6138 186.845L21.6304 188.845L48.3495 188.624L48.3329 186.624ZM38.7672 229.372L37.7673 229.381L37.7756 230.381L38.7755 230.372L38.7672 229.372ZM38.6573 216.125L39.6573 216.117L39.649 215.117L38.649 215.125L38.6573 216.125ZM3.77854 216.414L2.77857 216.423L2.78687 217.423L3.78683 217.414L3.77854 216.414ZM3.68987 205.727L3.68157 204.727L2.6816 204.735L2.6899 205.735L3.68987 205.727ZM38.5687 205.437L38.577 206.437L39.5769 206.429L39.5686 205.429L38.5687 205.437ZM38.4585 192.158L38.4502 191.158L37.4502 191.166L37.4585 192.166L38.4585 192.158ZM48.3782 192.075L49.3781 192.067L49.3698 191.067L48.3699 191.076L48.3782 192.075ZM48.6869 229.29L48.6952 230.29L49.6952 230.282L49.6869 229.282L48.6869 229.29ZM39.7672 229.364L39.6573 216.117L37.6574 216.133L37.7673 229.381L39.7672 229.364ZM38.649 215.125L3.77024 215.414L3.78683 217.414L38.6656 217.125L38.649 215.125ZM4.7785 216.406L4.68983 205.718L2.6899 205.735L2.77857 216.423L4.7785 216.406ZM3.69816 206.727L38.577 206.437L38.5604 204.437L3.68157 204.727L3.69816 206.727ZM39.5686 205.429L39.4585 192.149L37.4585 192.166L37.5687 205.446L39.5686 205.429ZM38.4668 193.158L48.3864 193.075L48.3699 191.076L38.4502 191.158L38.4668 193.158ZM47.3782 192.084L47.6869 229.298L49.6869 229.282L49.3781 192.067L47.3782 192.084ZM48.6786 228.29L38.759 228.373L38.7755 230.372L48.6952 230.29L48.6786 228.29ZM8.38443 281.712L7.66313 282.404L7.66539 282.407L8.38443 281.712ZM8.14496 252.849L7.41438 252.166L7.41228 252.168L8.14496 252.849ZM48.8368 247.359L49.8368 247.351L49.8285 246.351L48.8285 246.359L48.8368 247.359ZM48.9258 258.079L48.9341 259.079L49.934 259.07L49.9257 258.07L48.9258 258.079ZM15.8585 260.721L15.136 260.03L15.1312 260.035L15.8585 260.721ZM15.9666 273.745L15.2508 274.443L15.2557 274.448L15.9666 273.745ZM49.0731 275.838L50.0731 275.83L50.0648 274.83L49.0648 274.838L49.0731 275.838ZM49.162 286.558L49.1703 287.558L50.1703 287.549L50.162 286.549L49.162 286.558ZM22.4347 285.779C16.5717 285.828 12.1785 284.198 9.10346 281.017L7.66539 282.407C11.2181 286.083 16.1973 287.831 22.4513 287.779L22.4347 285.779ZM9.10572 281.019C6.03773 277.824 4.41851 273.301 4.36883 267.313L2.3689 267.329C2.42151 273.671 4.146 278.742 7.66313 282.404L9.10572 281.019ZM4.36883 267.313C4.31914 261.324 5.86309 256.775 8.87764 253.529L7.41228 252.168C3.9564 255.889 2.31628 260.987 2.3689 267.329L4.36883 267.313ZM8.87554 253.532C11.8744 250.323 16.2384 248.63 22.126 248.581L22.1094 246.581C15.8375 246.633 10.8863 248.451 7.41438 252.166L8.87554 253.532ZM22.126 248.581L48.8451 248.359L48.8285 246.359L22.1094 246.581L22.126 248.581ZM47.8369 247.367L47.9258 258.087L49.9257 258.07L49.8368 247.351L47.8369 247.367ZM48.9175 257.079L22.6144 257.297L22.631 259.297L48.9341 259.079L48.9175 257.079ZM22.6144 257.297C19.4569 257.323 16.9045 258.182 15.1361 260.03L16.581 261.413C17.8583 260.078 19.8152 259.32 22.631 259.297L22.6144 257.297ZM15.1312 260.035C13.4099 261.859 12.6162 264.304 12.6405 267.244L14.6405 267.227C14.6192 264.664 15.3041 262.766 16.5858 261.407L15.1312 260.035ZM12.6405 267.244C12.6651 270.203 13.4981 272.646 15.2508 274.443L16.6824 273.046C15.3797 271.711 14.6619 269.815 14.6405 267.227L12.6405 267.244ZM15.2557 274.448C17.0545 276.266 19.6209 277.082 22.7783 277.056L22.7617 275.056C19.946 275.08 17.9768 274.355 16.6775 273.041L15.2557 274.448ZM22.7783 277.056L49.0814 276.838L49.0648 274.838L22.7617 275.056L22.7783 277.056ZM48.0731 275.846L48.1621 286.566L50.162 286.549L50.0731 275.83L48.0731 275.846ZM49.1537 285.558L22.4347 285.779L22.4513 287.779L49.1703 287.558L49.1537 285.558ZM36.7837 325.866L35.9161 325.369L35.4034 326.263L36.3133 326.748L36.7837 325.866ZM39.3547 307.892L40.2303 307.409L40.2269 307.403L39.3547 307.892ZM35.1493 306.295L34.6741 305.415L35.1493 306.295ZM34.1658 307.327L33.3073 306.814L33.2944 306.836L33.2826 306.858L34.1658 307.327ZM33.473 308.677L32.5749 308.237L32.5606 308.266L32.5482 308.296L33.473 308.677ZM32.9135 310.665L31.9376 310.447L31.9347 310.46L31.9321 310.473L32.9135 310.665ZM32.0875 315.248L31.1021 315.078L31.1006 315.087L32.0875 315.248ZM31.7829 317.107L32.7694 317.271L32.7697 317.269L31.7829 317.107ZM27.4858 327.607L26.7258 326.957L26.723 326.96L27.4858 327.607ZM13.3324 330.38L13.706 329.453L13.7001 329.451L13.3324 330.38ZM9.05342 327.632L9.76114 326.925L9.05342 327.632ZM6.10674 323.464L7.0022 323.019L6.99985 323.014L6.10674 323.464ZM4.33632 318.359L5.31524 318.154L5.31477 318.152L4.33632 318.359ZM5.12703 301.808L4.16283 301.542L4.1624 301.544L5.12703 301.808ZM9.27788 292.973L9.79402 292.116L9.01908 291.649L8.47713 292.374L9.27788 292.973ZM18.0259 298.244L18.8585 298.798L19.4378 297.928L18.5421 297.388L18.0259 298.244ZM14.5405 317.858L13.6616 318.335L13.6677 318.346L14.5405 317.858ZM19.0656 319.421L18.5247 318.58L18.5246 318.58L19.0656 319.421ZM20.0811 318.388L19.2382 317.85L20.0811 318.388ZM20.8337 316.526L19.8728 316.249L19.8708 316.256L20.8337 316.526ZM21.3898 314.121L20.4095 313.923L20.407 313.936L20.4048 313.948L21.3898 314.121ZM21.9392 310.916L22.9277 311.067L22.9283 311.063L21.9392 310.916ZM22.2726 308.674L21.2836 308.525L21.2835 308.527L22.2726 308.674ZM26.6003 298.013L25.8649 297.336L25.8617 297.339L26.6003 298.013ZM35.8196 294.513L35.8063 295.513L35.8081 295.513L35.8196 294.513ZM46.1977 299.547L45.4126 300.166L45.4126 300.166L46.1977 299.547ZM49.2277 321.474L48.2548 321.243L48.2543 321.245L49.2277 321.474ZM45.591 330.561L45.1206 331.443L45.997 331.911L46.4702 331.037L45.591 330.561ZM37.6513 326.363C40.2054 321.906 41.49 317.446 41.4531 312.995L39.4532 313.011C39.4867 317.05 38.3251 321.165 35.9161 325.369L37.6513 326.363ZM41.4531 312.995C41.4348 310.783 41.0523 308.899 40.2303 307.409L38.4791 308.375C39.0866 309.476 39.4365 310.999 39.4532 313.011L41.4531 312.995ZM40.2269 307.403C39.3644 305.865 38.0576 304.982 36.3546 304.997L36.3712 306.997C37.2281 306.989 37.9158 307.371 38.4825 308.381L40.2269 307.403ZM36.3546 304.997C35.7588 305.002 35.1915 305.135 34.6741 305.415L35.6245 307.175C35.8292 307.064 36.071 306.999 36.3712 306.997L36.3546 304.997ZM34.6741 305.415C34.1035 305.723 33.6591 306.225 33.3073 306.814L35.0243 307.84C35.2617 307.442 35.473 307.256 35.6245 307.175L34.6741 305.415ZM33.2826 306.858C33.0061 307.379 32.7699 307.839 32.5749 308.237L34.3711 309.116C34.5538 308.743 34.7794 308.304 35.049 307.796L33.2826 306.858ZM32.5482 308.296C32.3464 308.787 32.145 309.52 31.9376 310.447L33.8893 310.884C34.0934 309.972 34.265 309.38 34.3978 309.057L32.5482 308.296ZM31.9321 310.473C31.7476 311.415 31.6131 312.129 31.5297 312.61L33.5003 312.951C33.5798 312.493 33.7109 311.796 33.8948 310.858L31.9321 310.473ZM31.5297 312.61C31.4483 313.08 31.3057 313.903 31.1022 315.078L33.0728 315.419C33.2764 314.244 33.4189 313.421 33.5003 312.951L31.5297 312.61ZM31.1006 315.087L30.796 316.945L32.7697 317.269L33.0743 315.41L31.1006 315.087ZM30.7964 316.943C30.0627 321.363 28.6813 324.67 26.7258 326.957L28.2459 328.257C30.5162 325.602 31.9995 321.909 32.7694 317.271L30.7964 316.943ZM26.723 326.96C24.8156 329.21 22.2745 330.362 18.9966 330.39L19.0132 332.389C22.8178 332.358 25.9307 330.988 28.2486 328.254L26.723 326.96ZM18.9966 330.39C17.0424 330.406 15.2833 330.088 13.706 329.453L12.9587 331.308C14.8064 332.052 16.8289 332.408 19.0132 332.389L18.9966 330.39ZM13.7001 329.451C12.1231 328.827 10.8162 327.982 9.76114 326.925L8.34569 328.338C9.614 329.609 11.1598 330.597 12.9646 331.31L13.7001 329.451ZM9.76114 326.925C8.68272 325.845 7.76151 324.546 7.00219 323.019L5.2113 323.909C6.05748 325.611 7.10072 327.091 8.34569 328.338L9.76114 326.925ZM6.99985 323.014C6.23785 321.502 5.67581 319.883 5.31524 318.154L3.3574 318.563C3.75224 320.455 4.37047 322.24 5.21364 323.914L6.99985 323.014ZM5.31477 318.152C4.95197 316.433 4.76135 314.624 4.74558 312.723L2.74565 312.74C2.76244 314.764 2.96563 316.707 3.35787 318.565L5.31477 318.152ZM4.74558 312.723C4.7148 309.013 5.16463 305.464 6.09166 302.071L4.1624 301.544C3.18454 305.122 2.71342 308.855 2.74565 312.74L4.74558 312.723ZM6.09124 302.073C7.01676 298.707 8.35142 295.881 10.0786 293.572L8.47713 292.374C6.57514 294.916 5.14257 297.98 4.16283 301.542L6.09124 302.073ZM8.76175 293.829L17.5098 299.101L18.5421 297.388L9.79402 292.116L8.76175 293.829ZM17.1934 297.69C13.9984 302.492 12.3987 307.519 12.4421 312.755L14.442 312.739C14.4023 307.948 15.8585 303.307 18.8585 298.798L17.1934 297.69ZM12.4421 312.755C12.4603 314.949 12.8438 316.829 13.6617 318.335L15.4193 317.381C14.8073 316.254 14.4585 314.727 14.442 312.739L12.4421 312.755ZM13.6677 318.346C14.5557 319.934 15.9087 320.831 17.6692 320.816L17.6526 318.816C16.7251 318.824 15.9979 318.415 15.4133 317.37L13.6677 318.346ZM17.6692 320.816C18.3695 320.81 19.027 320.634 19.6066 320.262L18.5246 318.58C18.2979 318.725 18.0188 318.813 17.6526 318.816L17.6692 320.816ZM19.6066 320.262C20.1385 319.919 20.5775 319.469 20.924 318.926L19.2382 317.85C19.0371 318.165 18.7991 318.403 18.5247 318.58L19.6066 320.262ZM20.924 318.926C21.2741 318.378 21.557 317.65 21.7965 316.796L19.8708 316.256C19.6545 317.027 19.4357 317.541 19.2382 317.85L20.924 318.926ZM21.7946 316.803C22.0325 315.977 22.2259 315.141 22.3747 314.294L20.4048 313.948C20.2684 314.725 20.0911 315.492 19.8728 316.249L21.7946 316.803ZM22.37 314.319C22.5384 313.485 22.7242 312.399 22.9277 311.067L20.9507 310.765C20.7494 312.082 20.569 313.133 20.4095 313.923L22.37 314.319ZM22.9283 311.063L23.2617 308.821L21.2835 308.527L20.9501 310.769L22.9283 311.063ZM23.2615 308.822C23.9529 304.209 25.3448 300.872 27.3389 298.687L25.8617 297.339C23.5005 299.926 22.0073 303.697 21.2836 308.525L23.2615 308.822ZM27.3357 298.691C29.3012 296.558 32.0763 295.463 35.8063 295.513L35.8329 293.513C31.6683 293.457 28.2973 294.696 25.8649 297.336L27.3357 298.691ZM35.8081 295.513C39.8241 295.559 42.9959 297.103 45.4126 300.166L46.9828 298.927C44.1817 295.377 40.4349 293.566 35.8311 293.513L35.8081 295.513ZM45.4126 300.166C47.852 303.258 49.1343 307.324 49.1769 312.45L51.1768 312.434C51.1315 306.979 49.7611 302.449 46.9828 298.927L45.4126 300.166ZM49.1769 312.45C49.2032 315.623 48.8935 318.553 48.2548 321.243L50.2007 321.705C50.8812 318.838 51.2043 315.746 51.1768 312.434L49.1769 312.45ZM48.2543 321.245C47.62 323.939 46.446 326.884 44.7118 330.084L46.4702 331.037C48.266 327.723 49.5165 324.611 50.2011 321.704L48.2543 321.245ZM46.0614 329.678L37.2541 324.983L36.3133 326.748L45.1206 331.443L46.0614 329.678Z" fill="#05C2DF"/>
</svg>
