<svg width="52" height="332" viewBox="0 0 52 332" fill="none" xmlns="http://www.w3.org/2000/svg">
<path d="M2.38675 48.7755L1.38678 48.7838L1.39885 50.2384L2.75261 49.7062L2.38675 48.7755ZM2.29223 37.3839L1.94527 36.446L1.28644 36.6898L1.29227 37.3922L2.29223 37.3839ZM11.6718 33.914L12.0187 34.8519L12.6776 34.6081L12.6717 33.9057L11.6718 33.914ZM11.5242 16.1226L12.5241 16.1143L12.5183 15.4118L11.8555 15.1791L11.5242 16.1226ZM2.08834 12.8088L1.08838 12.8171L1.09421 13.5195L1.75699 13.7523L2.08834 12.8088ZM1.99569 1.64114L2.34606 0.704529L0.983656 0.194875L0.995724 1.64944L1.99569 1.64114ZM46.9367 18.4529L47.9367 18.4446L47.931 17.7571L47.2871 17.5163L46.9367 18.4529ZM47.0426 31.2204L47.4085 32.1511L48.0483 31.8996L48.0426 31.2121L47.0426 31.2204ZM21.2165 19.4983L21.5475 18.5547L20.2047 18.0836L20.2165 19.5066L21.2165 19.4983ZM21.3068 30.3779L20.3068 30.3862L20.3186 31.8092L21.6534 31.3159L21.3068 30.3779ZM36.3651 24.8128L36.7118 25.7508L39.3161 24.7883L36.6962 23.8692L36.3651 24.8128ZM3.38671 48.7672L3.2922 37.3756L1.29227 37.3922L1.38678 48.7838L3.38671 48.7672ZM2.6392 38.3218L12.0187 34.8519L11.3248 32.9761L1.94527 36.446L2.6392 38.3218ZM12.6717 33.9057L12.5241 16.1143L10.5242 16.1309L10.6718 33.9223L12.6717 33.9057ZM11.8555 15.1791L2.4197 11.8653L1.75699 13.7523L11.1928 17.0661L11.8555 15.1791ZM3.08831 12.8005L2.99566 1.63284L0.995724 1.64944L1.08838 12.8171L3.08831 12.8005ZM1.64532 2.57775L46.5863 19.3895L47.2871 17.5163L2.34606 0.704529L1.64532 2.57775ZM45.9368 18.4612L46.0427 31.2287L48.0426 31.2121L47.9367 18.4446L45.9368 18.4612ZM46.6768 30.2898L2.02088 47.8449L2.75261 49.7062L47.4085 32.1511L46.6768 30.2898ZM20.2165 19.5066L20.3068 30.3862L22.3067 30.3696L22.2165 19.49L20.2165 19.5066ZM21.6534 31.3159L36.7118 25.7508L36.0185 23.8748L20.9601 29.4399L21.6534 31.3159ZM36.6962 23.8692L21.5475 18.5547L20.8855 20.4419L36.0341 25.7564L36.6962 23.8692ZM44.2565 84.9764L43.4488 84.3869L43.446 84.3907L44.2565 84.9764ZM29.1111 87.7582L28.5509 88.5866L28.5559 88.5899L29.1111 87.7582ZM25.33 83.3094L26.2351 82.8841L25.2014 80.684L24.3877 82.9746L25.33 83.3094ZM21.5644 88.4288L20.9578 87.6338L20.9532 87.6373L21.5644 88.4288ZM5.99407 86.2859L5.20631 86.9019L5.99407 86.2859ZM2.42341 53.1944L2.41511 52.1944L1.41515 52.2027L1.42344 53.2027L2.42341 53.1944ZM47.2219 52.8227L48.2218 52.8144L48.2135 51.8144L47.2136 51.8227L47.2219 52.8227ZM20.5595 63.7323L21.5594 63.724L21.5511 62.724L20.5512 62.7323L20.5595 63.7323ZM11.4718 63.8077L11.4635 62.8077L10.4635 62.816L10.4718 63.816L11.4718 63.8077ZM12.644 77.8144L11.809 78.3646L11.8116 78.3686L12.644 77.8144ZM19.6198 77.7566L18.7757 77.2203L18.771 77.2277L19.6198 77.7566ZM38.3189 63.5849L39.3188 63.5766L39.3105 62.5767L38.3106 62.585L38.3189 63.5849ZM29.4872 63.6582L29.4789 62.6582L28.4789 62.6665L28.4872 63.6665L29.4872 63.6582ZM46.3817 72.0943C46.428 77.6682 45.3988 81.715 43.4488 84.3869L45.0643 85.5659C47.3753 82.3996 48.4296 77.8528 48.3817 72.0777L46.3817 72.0943ZM43.446 84.3907C41.5538 87.0093 38.7428 88.3743 34.8447 88.4066L34.8613 90.4065C39.2828 90.3699 42.7409 88.7814 45.0671 85.5621L43.446 84.3907ZM34.8447 88.4066C32.8755 88.4229 31.1608 87.9239 29.6662 86.9264L28.5559 88.5899C30.408 89.826 32.5212 90.426 34.8613 90.4065L34.8447 88.4066ZM29.6712 86.9297C28.1722 85.9162 27.0292 84.5741 26.2351 82.8841L24.425 83.7346C25.3683 85.7423 26.746 87.3661 28.551 88.5866L29.6712 86.9297ZM24.3877 82.9746C23.7249 84.8408 22.5889 86.3892 20.9578 87.6338L22.171 89.2238C24.1014 87.7508 25.4759 85.8862 26.2724 83.6441L24.3877 82.9746ZM20.9532 87.6373C19.368 88.8614 17.5804 89.4779 15.557 89.4947L15.5736 91.4946C18.0301 91.4742 20.2419 90.7135 22.1756 89.2203L20.9532 87.6373ZM15.557 89.4947C11.6536 89.527 8.78045 88.2259 6.78183 85.6699L5.20631 86.9019C7.64964 90.0266 11.1573 91.5312 15.5736 91.4946L15.557 89.4947ZM6.78183 85.6699C4.75407 83.0767 3.63835 79.0969 3.59249 73.5694L1.59256 73.586C1.64014 79.322 2.79212 83.8144 5.20631 86.9019L6.78183 85.6699ZM3.59249 73.5694L3.42337 53.1861L1.42344 53.2027L1.59256 73.586L3.59249 73.5694ZM2.4317 54.1943L47.2302 53.8227L47.2136 51.8227L2.41511 52.1944L2.4317 54.1943ZM46.2219 52.831L46.3817 72.0943L48.3817 72.0777L48.2218 52.8144L46.2219 52.831ZM20.5512 62.7323L11.4635 62.8077L11.4801 64.8076L20.5678 64.7322L20.5512 62.7323ZM10.4718 63.816L10.5477 72.9676L12.5477 72.9511L12.4717 63.7994L10.4718 63.816ZM10.5477 72.9676C10.5663 75.2004 10.9408 77.047 11.809 78.3646L13.4791 77.2642C12.9212 76.4176 12.5649 75.0275 12.5477 72.9511L10.5477 72.9676ZM11.8116 78.3686C12.7765 79.8178 14.3136 80.4647 16.186 80.4491L16.1694 78.4492C14.7993 78.4606 13.9806 78.0176 13.4764 77.2602L11.8116 78.3686ZM16.186 80.4491C18.0422 80.4337 19.5515 79.7572 20.4685 78.2853L18.771 77.2277C18.2985 77.9861 17.5131 78.438 16.1694 78.4492L16.186 80.4491ZM20.4638 78.2928C21.31 76.961 21.6539 75.1084 21.6354 72.8757L19.6354 72.8922C19.6526 74.9687 19.3194 76.3645 18.7757 77.2203L20.4638 78.2928ZM21.6354 72.8757L21.5594 63.724L19.5595 63.7406L19.6354 72.8922L21.6354 72.8757ZM38.3106 62.585L29.4789 62.6582L29.4954 64.6582L38.3271 64.5849L38.3106 62.585ZM28.4872 63.6665L28.5562 71.9862L30.5561 71.9696L30.4871 63.6499L28.4872 63.6665ZM28.5562 71.9862C28.5745 74.1845 28.9699 76.0086 29.8939 77.3019C30.8638 78.6593 32.3125 79.2913 34.0649 79.2768L34.0483 77.2768C32.8355 77.2869 32.0515 76.8813 31.5212 76.1392C30.9451 75.3328 30.5729 73.9951 30.5561 71.9696L28.5562 71.9862ZM34.0649 79.2768C35.8019 79.2624 37.2243 78.6019 38.1584 77.2277C39.0469 75.9205 39.4061 74.0927 39.3878 71.8963L37.3879 71.9129C37.4047 73.9405 37.0596 75.2865 36.5043 76.1034C35.9946 76.8532 35.2339 77.267 34.0483 77.2768L34.0649 79.2768ZM39.3878 71.8963L39.3188 63.5766L37.3189 63.5932L37.3879 71.9129L39.3878 71.8963ZM46.7578 108.74L47.6836 108.362L47.6826 108.36L46.7578 108.74ZM46.9157 127.779L45.9847 127.414L45.9837 127.417L46.9157 127.779ZM42.146 135.307L41.433 134.606L41.4258 134.613L42.146 135.307ZM34.8266 140.232L35.2116 141.155L34.8266 140.232ZM16.2673 140.386L15.8977 141.315L16.2673 140.386ZM8.83516 135.584L8.13022 136.293L8.13026 136.293L8.83516 135.584ZM3.9732 128.136L4.89904 127.758L4.89809 127.755L3.9732 128.136ZM3.81524 109.096L2.88416 108.731L2.88326 108.734L3.81524 109.096ZM8.55295 101.569L7.83996 100.867L7.83273 100.875L8.55295 101.569ZM15.9046 96.6755L16.2896 97.5984L15.9046 96.6755ZM34.464 96.5215L34.8336 95.5923L34.464 96.5215ZM41.8638 101.292L41.1589 102.002L41.1589 102.002L41.8638 101.292ZM34.8156 127.336L34.1154 126.622L34.1122 126.625L34.8156 127.336ZM34.6667 109.384L35.3583 108.662L35.3549 108.659L34.6667 109.384ZM15.9153 109.54L15.2151 108.826L15.2119 108.829L15.9153 109.54ZM16.0643 127.491L16.7558 126.769L16.7525 126.766L16.0643 127.491ZM45.8319 109.118C46.9781 111.926 47.5695 114.973 47.5969 118.269L49.5968 118.253C49.5675 114.723 48.9328 111.422 47.6836 108.362L45.8319 109.118ZM47.5969 118.269C47.6242 121.566 47.0834 124.611 45.9847 127.414L47.8468 128.144C49.0462 125.083 49.6261 121.783 49.5968 118.253L47.5969 118.269ZM45.9837 127.417C44.8794 130.256 43.3601 132.647 41.4331 134.606L42.859 136.008C44.9938 133.838 46.6543 131.21 47.8477 128.142L45.9837 127.417ZM41.4258 134.613C39.5181 136.594 37.195 138.161 34.4417 139.309L35.2116 141.155C38.1986 139.909 40.7551 138.193 42.8662 136.001L41.4258 134.613ZM34.4417 139.309C31.6983 140.453 28.7387 141.043 25.5532 141.069L25.5698 143.069C28.9975 143.04 32.2146 142.405 35.2116 141.155L34.4417 139.309ZM25.5532 141.069C22.3678 141.095 19.3988 140.555 16.6369 139.457L15.8977 141.315C18.915 142.515 22.1422 143.097 25.5698 143.069L25.5532 141.069ZM16.6369 139.457C13.864 138.354 11.503 136.825 9.54006 134.874L8.13026 136.293C10.2975 138.447 12.8912 140.119 15.8977 141.315L16.6369 139.457ZM9.5401 134.874C7.60072 132.947 6.05117 130.58 4.89904 127.758L3.04736 128.514C4.29066 131.559 5.98242 134.158 8.13022 136.293L9.5401 134.874ZM4.89809 127.755C3.75302 124.97 3.16173 121.935 3.13438 118.638L1.13445 118.655C1.16373 122.185 1.79831 125.475 3.04831 128.516L4.89809 127.755ZM3.13438 118.638C3.10703 115.342 3.64775 112.285 4.74722 109.459L2.88326 108.734C1.68498 111.814 1.10516 115.125 1.13445 118.655L3.13438 118.638ZM4.74631 109.461C5.85159 106.64 7.36266 104.246 9.27316 102.262L7.83273 100.875C5.72439 103.064 4.07697 105.687 2.88417 108.731L4.74631 109.461ZM9.2659 102.27C11.1967 100.307 13.5332 98.7482 16.2896 97.5984L15.5196 95.7526C12.5356 96.9973 9.97113 98.7007 7.84 100.867L9.2659 102.27ZM16.2896 97.5984C19.0329 96.4542 21.9925 95.865 25.178 95.8386L25.1614 93.8386C21.7338 93.8671 18.5166 94.5025 15.5196 95.7526L16.2896 97.5984ZM25.178 95.8386C28.3635 95.8121 31.3324 96.3521 34.0944 97.4507L34.8336 95.5923C31.8163 94.3922 28.589 93.8102 25.1614 93.8386L25.178 95.8386ZM34.0944 97.4507C36.8686 98.5542 39.2185 100.073 41.1589 102.002L42.5687 100.583C40.422 98.4494 37.8386 96.7877 34.8336 95.5923L34.0944 97.4507ZM41.1589 102.002C43.122 103.953 44.6818 106.32 45.8329 109.12L47.6826 108.36C46.4386 105.334 44.7358 102.737 42.5687 100.583L41.1589 102.002ZM35.5158 128.05C38.1193 125.496 39.3894 122.23 39.3571 118.338L37.3572 118.354C37.3854 121.758 36.2946 124.485 34.1154 126.622L35.5158 128.05ZM39.3571 118.338C39.3248 114.445 38.0007 111.192 35.3583 108.662L33.9751 110.107C36.1927 112.23 37.329 114.951 37.3572 118.354L39.3571 118.338ZM35.3549 108.659C32.7094 106.149 29.3117 104.941 25.2538 104.974L25.2704 106.974C28.8922 106.944 31.7642 108.009 33.9784 110.11L35.3549 108.659ZM25.2538 104.974C21.1959 105.008 17.8186 106.273 15.2151 108.826L16.6155 110.254C18.7946 108.117 21.6485 107.004 25.2704 106.974L25.2538 104.974ZM15.2119 108.829C12.6117 111.403 11.3418 114.677 11.3741 118.57L13.374 118.553C13.3458 115.15 14.4367 112.41 16.6188 110.251L15.2119 108.829ZM11.3741 118.57C11.4064 122.462 12.7306 125.707 15.376 128.217L16.7525 126.766C14.5382 124.665 13.4023 121.957 13.374 118.553L11.3741 118.57ZM15.3727 128.214C18.0179 130.746 21.4169 131.967 25.4774 131.933L25.4609 129.933C21.8417 129.963 18.9707 128.89 16.7558 126.769L15.3727 128.214ZM25.4774 131.933C29.538 131.9 32.9162 130.623 35.5191 128.046L34.1122 126.625C31.9328 128.782 29.0801 129.903 25.4609 129.933L25.4774 131.933ZM7.55677 182.069L6.83548 182.761L6.83774 182.764L7.55677 182.069ZM7.3173 153.206L6.58673 152.523L6.58462 152.525L7.3173 153.206ZM48.0092 147.716L49.0091 147.708L49.0008 146.708L48.0009 146.716L48.0092 147.716ZM48.0981 158.436L48.1064 159.436L49.1064 159.427L49.0981 158.427L48.0981 158.436ZM15.0309 161.078L14.3084 160.387L14.3036 160.392L15.0309 161.078ZM15.1389 174.102L14.4231 174.8L14.428 174.805L15.1389 174.102ZM48.2454 176.195L49.2454 176.187L49.2371 175.187L48.2371 175.195L48.2454 176.195ZM48.3344 186.915L48.3427 187.915L49.3426 187.906L49.3343 186.906L48.3344 186.915ZM21.607 186.136C15.744 186.185 11.3508 184.555 8.27581 181.374L6.83774 182.764C10.3905 186.439 15.3697 188.188 21.6236 188.136L21.607 186.136ZM8.27806 181.376C5.21007 178.181 3.59085 173.658 3.54117 167.67L1.54124 167.686C1.59386 174.028 3.31835 179.099 6.83548 182.761L8.27806 181.376ZM3.54117 167.67C3.49149 161.681 5.03543 157.132 8.04999 153.886L6.58462 152.525C3.12875 156.246 1.48862 161.344 1.54124 167.686L3.54117 167.67ZM8.04788 153.889C11.0467 150.68 15.4107 148.986 21.2984 148.938L21.2818 146.938C15.0099 146.99 10.0587 148.808 6.58673 152.523L8.04788 153.889ZM21.2984 148.938L48.0175 148.716L48.0009 146.716L21.2818 146.938L21.2984 148.938ZM47.0092 147.724L47.0981 158.444L49.0981 158.427L49.0091 147.708L47.0092 147.724ZM48.0898 157.436L21.7867 157.654L21.8033 159.654L48.1064 159.436L48.0898 157.436ZM21.7867 157.654C18.6293 157.68 16.0768 158.539 14.3084 160.387L15.7534 161.769C17.0307 160.435 18.9876 159.677 21.8033 159.654L21.7867 157.654ZM14.3036 160.392C12.5823 162.216 11.7885 164.661 11.8129 167.601L13.8128 167.584C13.7916 165.021 14.4764 163.123 15.7582 161.764L14.3036 160.392ZM11.8129 167.601C11.8374 170.56 12.6704 173.003 14.4231 174.8L15.8547 173.403C14.552 172.068 13.8343 170.172 13.8128 167.584L11.8129 167.601ZM14.428 174.805C16.2268 176.623 18.7932 177.439 21.9506 177.413L21.9341 175.413C19.1183 175.437 17.1491 174.712 15.8498 173.398L14.428 174.805ZM21.9506 177.413L48.2537 177.195L48.2371 175.195L21.9341 175.413L21.9506 177.413ZM47.2455 176.203L47.3344 186.923L49.3343 186.906L49.2454 176.187L47.2455 176.203ZM48.3261 185.915L21.607 186.136L21.6236 188.136L48.3427 187.915L48.3261 185.915ZM38.7604 228.663L37.7604 228.672L37.7687 229.672L38.7687 229.663L38.7604 228.663ZM38.6505 215.416L39.6505 215.408L39.6422 214.408L38.6422 214.416L38.6505 215.416ZM3.7717 215.705L2.77174 215.714L2.78003 216.714L3.78 216.705L3.7717 215.705ZM3.68303 205.018L3.67473 204.018L2.67477 204.026L2.68306 205.026L3.68303 205.018ZM38.5618 204.728L38.5701 205.728L39.5701 205.72L39.5618 204.72L38.5618 204.728ZM38.4517 191.449L38.4434 190.449L37.4434 190.457L37.4517 191.457L38.4517 191.449ZM48.3713 191.366L49.3713 191.358L49.363 190.358L48.363 190.366L48.3713 191.366ZM48.6801 228.581L48.6884 229.581L49.6883 229.573L49.68 228.573L48.6801 228.581ZM39.7604 228.655L39.6505 215.408L37.6505 215.424L37.7604 228.672L39.7604 228.655ZM38.6422 214.416L3.7634 214.705L3.78 216.705L38.6588 216.416L38.6422 214.416ZM4.77167 215.697L4.683 205.009L2.68306 205.026L2.77174 215.714L4.77167 215.697ZM3.69133 206.018L38.5701 205.728L38.5535 203.728L3.67473 204.018L3.69133 206.018ZM39.5618 204.72L39.4516 191.44L37.4517 191.457L37.5619 204.737L39.5618 204.72ZM38.46 192.449L48.3796 192.366L48.363 190.366L38.4434 190.449L38.46 192.449ZM47.3714 191.375L47.6801 228.589L49.68 228.573L49.3713 191.358L47.3714 191.375ZM48.6718 227.581L38.7521 227.663L38.7687 229.663L48.6884 229.581L48.6718 227.581ZM8.37759 281.003L7.65629 281.695L7.65856 281.698L8.37759 281.003ZM8.13812 252.14L7.40755 251.457L7.40544 251.459L8.13812 252.14ZM48.83 246.65L49.8299 246.642L49.8217 245.642L48.8217 245.65L48.83 246.65ZM48.9189 257.37L48.9272 258.37L49.9272 258.361L49.9189 257.361L48.9189 257.37ZM15.8517 260.012L15.1292 259.321L15.1244 259.326L15.8517 260.012ZM15.9598 273.036L15.2439 273.734L15.2488 273.739L15.9598 273.036ZM49.0663 275.129L50.0662 275.121L50.0579 274.121L49.058 274.129L49.0663 275.129ZM49.1552 285.849L49.1635 286.849L50.1635 286.84L50.1552 285.84L49.1552 285.849ZM22.4278 285.07C16.5648 285.119 12.1717 283.489 9.09663 280.308L7.65856 281.698C11.2113 285.374 16.1905 287.122 22.4444 287.07L22.4278 285.07ZM9.09888 280.31C6.03089 277.115 4.41167 272.592 4.36199 266.604L2.36206 266.62C2.41468 272.962 4.13917 278.033 7.6563 281.695L9.09888 280.31ZM4.36199 266.604C4.31231 260.615 5.85625 256.066 8.87081 252.82L7.40544 251.459C3.94957 255.18 2.30944 260.278 2.36206 266.62L4.36199 266.604ZM8.8687 252.823C11.8676 249.614 16.2315 247.921 22.1192 247.872L22.1026 245.872C15.8307 245.924 10.8795 247.742 7.40755 251.457L8.8687 252.823ZM22.1192 247.872L48.8383 247.65L48.8217 245.65L22.1026 245.872L22.1192 247.872ZM47.83 246.658L47.919 257.378L49.9189 257.361L49.8299 246.642L47.83 246.658ZM48.9106 256.37L22.6075 256.588L22.6241 258.588L48.9272 258.37L48.9106 256.37ZM22.6075 256.588C19.4501 256.614 16.8976 257.473 15.1292 259.321L16.5742 260.703C17.8515 259.369 19.8084 258.611 22.6241 258.588L22.6075 256.588ZM15.1244 259.326C13.4031 261.15 12.6093 263.595 12.6337 266.535L14.6336 266.518C14.6124 263.955 15.2973 262.057 16.579 260.698L15.1244 259.326ZM12.6337 266.535C12.6583 269.494 13.4913 271.937 15.2439 273.734L16.6756 272.337C15.3728 271.002 14.6551 269.106 14.6336 266.518L12.6337 266.535ZM15.2488 273.739C17.0477 275.557 19.614 276.373 22.7715 276.347L22.7549 274.347C19.9392 274.371 17.9699 273.646 16.6707 272.332L15.2488 273.739ZM22.7715 276.347L49.0746 276.129L49.058 274.129L22.7549 274.347L22.7715 276.347ZM48.0663 275.137L48.1552 285.857L50.1552 285.84L50.0662 275.121L48.0663 275.137ZM49.1469 284.849L22.4278 285.07L22.4444 287.07L49.1635 286.849L49.1469 284.849ZM36.7769 325.157L35.9093 324.66L35.3966 325.554L36.3065 326.039L36.7769 325.157ZM39.3479 307.183L40.2234 306.7L40.22 306.694L39.3479 307.183ZM35.1425 305.586L34.6673 304.706L35.1425 305.586ZM34.159 306.618L33.3005 306.105L33.2876 306.127L33.2758 306.149L34.159 306.618ZM33.4662 307.968L32.5681 307.528L32.5537 307.557L32.5413 307.587L33.4662 307.968ZM32.9066 309.956L31.9308 309.738L31.9279 309.751L31.9253 309.764L32.9066 309.956ZM32.0806 314.539L31.0953 314.369L31.0938 314.378L32.0806 314.539ZM31.776 316.398L32.7626 316.562L32.7629 316.56L31.776 316.398ZM27.479 326.898L26.719 326.248L26.7162 326.251L27.479 326.898ZM13.3255 329.671L13.6992 328.744L13.6933 328.742L13.3255 329.671ZM9.04658 326.923L9.75431 326.216L9.04658 326.923ZM6.09991 322.755L6.99536 322.31L6.99301 322.305L6.09991 322.755ZM4.32948 317.65L5.30841 317.445L5.30794 317.443L4.32948 317.65ZM5.1202 301.099L4.15599 300.833L4.15557 300.835L5.1202 301.099ZM9.27104 292.264L9.78718 291.407L9.01225 290.94L8.47029 291.665L9.27104 292.264ZM18.0191 297.535L18.8516 298.089L19.431 297.219L18.5352 296.679L18.0191 297.535ZM14.5337 317.149L13.6548 317.626L13.6609 317.637L14.5337 317.149ZM19.0588 318.711L18.5178 317.87L18.5178 317.87L19.0588 318.711ZM20.0743 317.679L19.2313 317.141L20.0743 317.679ZM20.8268 315.817L19.866 315.54L19.864 315.547L20.8268 315.817ZM21.3829 313.412L20.4027 313.214L20.4002 313.227L20.398 313.239L21.3829 313.412ZM21.9323 310.207L22.9209 310.358L22.9215 310.354L21.9323 310.207ZM22.2658 307.965L21.2768 307.816L21.2766 307.818L22.2658 307.965ZM26.5935 297.304L25.8581 296.627L25.8548 296.63L26.5935 297.304ZM35.8127 293.804L35.7994 294.804L35.8012 294.804L35.8127 293.804ZM46.1909 298.838L45.4058 299.457L45.4058 299.457L46.1909 298.838ZM49.2209 320.765L48.2479 320.534L48.2475 320.536L49.2209 320.765ZM45.5841 329.852L45.1137 330.734L45.9902 331.202L46.4634 330.328L45.5841 329.852ZM37.6445 325.654C40.1985 321.197 41.4832 316.737 41.4463 312.286L39.4463 312.302C39.4798 316.341 38.3182 320.456 35.9093 324.66L37.6445 325.654ZM41.4463 312.286C41.4279 310.074 41.0454 308.19 40.2234 306.7L38.4723 307.666C39.0798 308.767 39.4296 310.29 39.4463 312.302L41.4463 312.286ZM40.22 306.694C39.3576 305.156 38.0508 304.273 36.3477 304.288L36.3643 306.287C37.2212 306.28 37.909 306.662 38.4757 307.672L40.22 306.694ZM36.3477 304.288C35.7519 304.293 35.1847 304.426 34.6673 304.706L35.6177 306.465C35.8223 306.355 36.0641 306.29 36.3643 306.287L36.3477 304.288ZM34.6673 304.706C34.0966 305.014 33.6523 305.516 33.3005 306.105L35.0175 307.131C35.2549 306.733 35.4662 306.547 35.6177 306.465L34.6673 304.706ZM33.2758 306.149C32.9992 306.67 32.763 307.13 32.5681 307.528L34.3643 308.407C34.5469 308.034 34.7726 307.595 35.0422 307.087L33.2758 306.149ZM32.5413 307.587C32.3396 308.078 32.1382 308.811 31.9308 309.738L33.8825 310.175C34.0865 309.263 34.2582 308.671 34.391 308.348L32.5413 307.587ZM31.9253 309.764C31.7408 310.706 31.6062 311.42 31.5229 311.901L33.4935 312.242C33.573 311.784 33.7041 311.087 33.888 310.149L31.9253 309.764ZM31.5229 311.901C31.4414 312.371 31.2989 313.194 31.0953 314.369L33.066 314.71C33.2695 313.535 33.4121 312.712 33.4935 312.242L31.5229 311.901ZM31.0938 314.378L30.7892 316.236L32.7629 316.56L33.0675 314.701L31.0938 314.378ZM30.7895 316.234C30.0559 320.654 28.6745 323.961 26.719 326.248L28.239 327.548C30.5094 324.893 31.9926 321.2 32.7625 316.562L30.7895 316.234ZM26.7162 326.251C24.8087 328.501 22.2677 329.653 18.9898 329.68L19.0064 331.68C22.8109 331.649 25.9238 330.279 28.2418 327.545L26.7162 326.251ZM18.9898 329.68C17.0356 329.697 15.2764 329.379 13.6992 328.744L12.9519 330.599C14.7995 331.343 16.8221 331.699 19.0064 331.68L18.9898 329.68ZM13.6933 328.742C12.1162 328.118 10.8094 327.273 9.75431 326.216L8.33885 327.629C9.60717 328.9 11.153 329.888 12.9578 330.601L13.6933 328.742ZM9.75431 326.216C8.67589 325.136 7.75467 323.837 6.99535 322.31L5.20446 323.2C6.05065 324.902 7.09389 326.382 8.33885 327.629L9.75431 326.216ZM6.99301 322.305C6.23101 320.792 5.66897 319.174 5.30841 317.445L3.35057 317.854C3.7454 319.746 4.36363 321.531 5.2068 323.205L6.99301 322.305ZM5.30794 317.443C4.94514 315.724 4.75451 313.915 4.73874 312.014L2.73881 312.031C2.75561 314.055 2.9588 315.997 3.35104 317.856L5.30794 317.443ZM4.73874 312.014C4.70796 308.304 5.15779 304.754 6.08483 301.362L4.15557 300.835C3.17771 304.413 2.70659 308.146 2.73881 312.031L4.73874 312.014ZM6.08441 301.364C7.00992 297.998 8.34458 295.172 10.0718 292.863L8.47029 291.665C6.5683 294.207 5.13573 297.271 4.156 300.833L6.08441 301.364ZM8.75491 293.12L17.5029 298.392L18.5352 296.679L9.78718 291.407L8.75491 293.12ZM17.1865 296.981C13.9916 301.783 12.3918 306.81 12.4353 312.046L14.4352 312.03C14.3955 307.239 15.8516 302.598 18.8516 298.089L17.1865 296.981ZM12.4353 312.046C12.4535 314.239 12.837 316.12 13.6549 317.626L15.4125 316.672C14.8005 315.545 14.4517 314.018 14.4352 312.03L12.4353 312.046ZM13.6609 317.637C14.5488 319.225 15.9019 320.122 17.6623 320.107L17.6457 318.107C16.7183 318.115 15.9911 317.706 15.4065 316.661L13.6609 317.637ZM17.6623 320.107C18.3627 320.101 19.0201 319.925 19.5998 319.553L18.5178 317.87C18.2911 318.016 18.012 318.104 17.6457 318.107L17.6623 320.107ZM19.5998 319.553C20.1317 319.21 20.5707 318.76 20.9172 318.217L19.2313 317.141C19.0303 317.456 18.7923 317.694 18.5178 317.87L19.5998 319.553ZM20.9172 318.217C21.2673 317.669 21.5502 316.941 21.7897 316.087L19.864 315.547C19.6476 316.318 19.4289 316.832 19.2313 317.141L20.9172 318.217ZM21.7877 316.094C22.0257 315.268 22.2191 314.432 22.3678 313.585L20.398 313.239C20.2615 314.016 20.0842 314.783 19.866 315.54L21.7877 316.094ZM22.3631 313.61C22.5315 312.776 22.7174 311.69 22.9209 310.358L20.9438 310.056C20.7426 311.373 20.5622 312.424 20.4027 313.214L22.3631 313.61ZM22.9215 310.354L23.2549 308.112L21.2766 307.818L20.9432 310.06L22.9215 310.354ZM23.2547 308.113C23.9461 303.5 25.338 300.163 27.3321 297.978L25.8548 296.63C23.4937 299.217 22.0005 302.988 21.2768 307.816L23.2547 308.113ZM27.3289 297.982C29.2943 295.849 32.0695 294.754 35.7994 294.804L35.8261 292.804C31.6615 292.748 28.2905 293.987 25.8581 296.627L27.3289 297.982ZM35.8012 294.804C39.8172 294.85 42.9891 296.394 45.4058 299.457L46.9759 298.218C44.1749 294.668 40.428 292.857 35.8242 292.804L35.8012 294.804ZM45.4058 299.457C47.8452 302.549 49.1275 306.615 49.17 311.741L51.1699 311.725C51.1247 306.27 49.7542 301.74 46.9759 298.218L45.4058 299.457ZM49.17 311.741C49.1963 314.914 48.8866 317.844 48.2479 320.534L50.1938 320.996C50.8744 318.129 51.1974 315.037 51.1699 311.725L49.17 311.741ZM48.2475 320.536C47.6132 323.23 46.4392 326.175 44.7049 329.375L46.4634 330.328C48.2592 327.014 49.5096 323.902 50.1943 320.995L48.2475 320.536ZM46.0546 328.969L37.2473 324.274L36.3065 326.039L45.1137 330.734L46.0546 328.969Z" fill="#05C2DF" fill-opacity="0.2"/>
</svg>
