<svg width="313" height="28" viewBox="0 0 313 28" fill="none" xmlns="http://www.w3.org/2000/svg">
<path d="M8.48864 27H0.818182L9.46023 0.818181H19.1761L27.8182 27H20.1477L14.4205 8.02841H14.2159L8.48864 27ZM7.05682 16.6705H21.4773V21.9886H7.05682V16.6705ZM30.3398 27V0.818181H41.6921C43.6864 0.818181 45.3612 1.08665 46.7163 1.62358C48.0799 2.16051 49.1069 2.91903 49.7972 3.89915C50.4961 4.87926 50.8455 6.03409 50.8455 7.36364C50.8455 8.3267 50.6325 9.20454 50.2063 9.99716C49.7887 10.7898 49.2006 11.4545 48.4421 11.9915C47.6836 12.5199 46.7972 12.8864 45.783 13.0909V13.3466C46.908 13.3892 47.9308 13.6747 48.8512 14.2031C49.7717 14.723 50.5046 15.4432 51.0501 16.3636C51.5955 17.2756 51.8683 18.3494 51.8683 19.5852C51.8683 21.017 51.4933 22.2912 50.7433 23.4077C50.0018 24.5241 48.945 25.402 47.5728 26.0412C46.2006 26.6804 44.5643 27 42.6637 27H30.3398ZM37.4478 21.3239H40.7717C41.9648 21.3239 42.8597 21.1023 43.4563 20.6591C44.0529 20.2074 44.3512 19.5426 44.3512 18.6648C44.3512 18.0511 44.2106 17.5312 43.9293 17.1051C43.6481 16.679 43.2475 16.3551 42.7276 16.1335C42.2163 15.9119 41.5984 15.8011 40.8739 15.8011H37.4478V21.3239ZM37.4478 11.4034H40.3626C40.9847 11.4034 41.5344 11.3054 42.0117 11.1094C42.489 10.9134 42.8597 10.6321 43.1239 10.2656C43.3967 9.89062 43.533 9.43466 43.533 8.89773C43.533 8.08807 43.2433 7.47017 42.6637 7.04403C42.0842 6.60938 41.3512 6.39205 40.4648 6.39205H37.4478V11.4034ZM79.7504 13.9091C79.7504 16.8239 79.1836 19.2827 78.0501 21.2855C76.9165 23.2798 75.3867 24.7926 73.4606 25.8239C71.5344 26.8466 69.3867 27.358 67.0174 27.358C64.631 27.358 62.4748 26.8423 60.5487 25.8111C58.631 24.7713 57.1055 23.2543 55.9719 21.2599C54.8469 19.2571 54.2844 16.8068 54.2844 13.9091C54.2844 10.9943 54.8469 8.53977 55.9719 6.54545C57.1055 4.54261 58.631 3.02983 60.5487 2.0071C62.4748 0.975851 64.631 0.460226 67.0174 0.460226C69.3867 0.460226 71.5344 0.975851 73.4606 2.0071C75.3867 3.02983 76.9165 4.54261 78.0501 6.54545C79.1836 8.53977 79.7504 10.9943 79.7504 13.9091ZM72.4379 13.9091C72.4379 12.3409 72.229 11.0199 71.8114 9.94602C71.4023 8.86364 70.793 8.04545 69.9833 7.49148C69.1822 6.92898 68.1935 6.64773 67.0174 6.64773C65.8413 6.64773 64.8484 6.92898 64.0387 7.49148C63.2376 8.04545 62.6282 8.86364 62.2106 9.94602C61.8015 11.0199 61.5969 12.3409 61.5969 13.9091C61.5969 15.4773 61.8015 16.8026 62.2106 17.8849C62.6282 18.9588 63.2376 19.777 64.0387 20.3395C64.8484 20.8935 65.8413 21.1705 67.0174 21.1705C68.1935 21.1705 69.1822 20.8935 69.9833 20.3395C70.793 19.777 71.4023 18.9588 71.8114 17.8849C72.229 16.8026 72.4379 15.4773 72.4379 13.9091ZM98.5334 0.818181H105.641V17.5909C105.641 19.5852 105.164 21.3111 104.21 22.7685C103.263 24.2173 101.942 25.3381 100.246 26.1307C98.5504 26.9148 96.5817 27.3068 94.3402 27.3068C92.0817 27.3068 90.1044 26.9148 88.4084 26.1307C86.7124 25.3381 85.3913 24.2173 84.4453 22.7685C83.5078 21.3111 83.0391 19.5852 83.0391 17.5909V0.818181H90.147V16.9773C90.147 17.7869 90.326 18.5114 90.6839 19.1506C91.0419 19.7812 91.5362 20.2756 92.1669 20.6335C92.8061 20.9915 93.5305 21.1705 94.3402 21.1705C95.1584 21.1705 95.8828 20.9915 96.5135 20.6335C97.1442 20.2756 97.6385 19.7812 97.9964 19.1506C98.3544 18.5114 98.5334 17.7869 98.5334 16.9773V0.818181ZM108.304 6.54545V0.818181H131.059V6.54545H123.184V27H116.179V6.54545H108.304Z" fill="white"/>
<path d="M142.389 27V0.818181H151.236C153.29 0.818181 154.969 1.18892 156.273 1.9304C157.585 2.66335 158.557 3.65625 159.188 4.90909C159.818 6.16193 160.134 7.55966 160.134 9.10227C160.134 10.6449 159.818 12.0469 159.188 13.3082C158.565 14.5696 157.602 15.5753 156.298 16.3253C154.994 17.0668 153.324 17.4375 151.287 17.4375H144.946V14.625H151.185C152.591 14.625 153.72 14.3821 154.572 13.8963C155.425 13.4105 156.043 12.7543 156.426 11.9276C156.818 11.0923 157.014 10.1506 157.014 9.10227C157.014 8.05398 156.818 7.11648 156.426 6.28977C156.043 5.46307 155.42 4.81534 154.56 4.34659C153.699 3.86932 152.557 3.63068 151.134 3.63068H145.56V27H142.389ZM165.241 27V0.818181H174.087C176.133 0.818181 177.812 1.16761 179.124 1.86648C180.437 2.55682 181.408 3.5071 182.039 4.71733C182.67 5.92756 182.985 7.30398 182.985 8.84659C182.985 10.3892 182.67 11.7571 182.039 12.9503C181.408 14.1435 180.441 15.081 179.137 15.7628C177.833 16.4361 176.167 16.7727 174.138 16.7727H166.979V13.9091H174.036C175.434 13.9091 176.559 13.7045 177.411 13.2955C178.272 12.8864 178.894 12.3068 179.278 11.5568C179.67 10.7983 179.866 9.89489 179.866 8.84659C179.866 7.79829 179.67 6.8821 179.278 6.09801C178.886 5.31392 178.259 4.70881 177.398 4.28267C176.538 3.84801 175.4 3.63068 173.985 3.63068H168.411V27H165.241ZM177.565 15.2386L184.008 27H180.326L173.985 15.2386H177.565ZM210.359 13.9091C210.359 16.6705 209.86 19.0568 208.863 21.0682C207.866 23.0795 206.498 24.6307 204.76 25.7216C203.021 26.8125 201.035 27.358 198.802 27.358C196.569 27.358 194.583 26.8125 192.845 25.7216C191.106 24.6307 189.738 23.0795 188.741 21.0682C187.744 19.0568 187.245 16.6705 187.245 13.9091C187.245 11.1477 187.744 8.76136 188.741 6.75C189.738 4.73864 191.106 3.1875 192.845 2.09659C194.583 1.00568 196.569 0.460226 198.802 0.460226C201.035 0.460226 203.021 1.00568 204.76 2.09659C206.498 3.1875 207.866 4.73864 208.863 6.75C209.86 8.76136 210.359 11.1477 210.359 13.9091ZM207.291 13.9091C207.291 11.642 206.912 9.72869 206.153 8.16903C205.403 6.60938 204.385 5.42898 203.098 4.62784C201.819 3.8267 200.387 3.42614 198.802 3.42614C197.217 3.42614 195.781 3.8267 194.494 4.62784C193.216 5.42898 192.197 6.60938 191.439 8.16903C190.689 9.72869 190.314 11.642 190.314 13.9091C190.314 16.1761 190.689 18.0895 191.439 19.6491C192.197 21.2088 193.216 22.3892 194.494 23.1903C195.781 23.9915 197.217 24.392 198.802 24.392C200.387 24.392 201.819 23.9915 203.098 23.1903C204.385 22.3892 205.403 21.2088 206.153 19.6491C206.912 18.0895 207.291 16.1761 207.291 13.9091ZM223.77 27H215.69V0.818181H224.127C226.667 0.818181 228.841 1.34233 230.647 2.39062C232.454 3.4304 233.839 4.92614 234.802 6.87784C235.765 8.82102 236.247 11.1477 236.247 13.858C236.247 16.5852 235.761 18.9332 234.789 20.902C233.818 22.8622 232.403 24.3707 230.545 25.4276C228.687 26.4759 226.429 27 223.77 27ZM218.86 24.1875H223.565C225.73 24.1875 227.524 23.7699 228.947 22.9347C230.37 22.0994 231.431 20.9105 232.13 19.3679C232.829 17.8253 233.179 15.9886 233.179 13.858C233.179 11.7443 232.833 9.92472 232.143 8.39915C231.453 6.86506 230.422 5.68892 229.049 4.87074C227.677 4.04403 225.968 3.63068 223.923 3.63068H218.86V24.1875ZM258.747 0.818181H261.917V18.1534C261.917 19.9432 261.495 21.5412 260.652 22.9474C259.816 24.3452 258.636 25.4489 257.11 26.2585C255.585 27.0597 253.795 27.4602 251.741 27.4602C249.687 27.4602 247.897 27.0597 246.372 26.2585C244.846 25.4489 243.662 24.3452 242.818 22.9474C241.983 21.5412 241.565 19.9432 241.565 18.1534V0.818181H244.735V17.8977C244.735 19.1761 245.017 20.3139 245.579 21.3111C246.142 22.2997 246.943 23.0795 247.983 23.6506C249.031 24.2131 250.284 24.4943 251.741 24.4943C253.199 24.4943 254.451 24.2131 255.5 23.6506C256.548 23.0795 257.349 22.2997 257.903 21.3111C258.466 20.3139 258.747 19.1761 258.747 17.8977V0.818181ZM289.317 9H286.146C285.959 8.08807 285.631 7.28693 285.162 6.59659C284.702 5.90625 284.139 5.3267 283.474 4.85795C282.818 4.38068 282.089 4.02273 281.288 3.78409C280.487 3.54545 279.652 3.42614 278.783 3.42614C277.197 3.42614 275.761 3.8267 274.474 4.62784C273.196 5.42898 272.178 6.60938 271.419 8.16903C270.669 9.72869 270.294 11.642 270.294 13.9091C270.294 16.1761 270.669 18.0895 271.419 19.6491C272.178 21.2088 273.196 22.3892 274.474 23.1903C275.761 23.9915 277.197 24.392 278.783 24.392C279.652 24.392 280.487 24.2727 281.288 24.0341C282.089 23.7955 282.818 23.4418 283.474 22.973C284.139 22.4957 284.702 21.9119 285.162 21.2216C285.631 20.5227 285.959 19.7216 286.146 18.8182H289.317C289.078 20.1562 288.643 21.3537 288.013 22.4105C287.382 23.4673 286.598 24.3665 285.661 25.108C284.723 25.8409 283.67 26.3991 282.503 26.7827C281.344 27.1662 280.104 27.358 278.783 27.358C276.55 27.358 274.564 26.8125 272.825 25.7216C271.087 24.6307 269.719 23.0795 268.722 21.0682C267.724 19.0568 267.226 16.6705 267.226 13.9091C267.226 11.1477 267.724 8.76136 268.722 6.75C269.719 4.73864 271.087 3.1875 272.825 2.09659C274.564 1.00568 276.55 0.460226 278.783 0.460226C280.104 0.460226 281.344 0.651988 282.503 1.03551C283.67 1.41903 284.723 1.98153 285.661 2.72301C286.598 3.45596 287.382 4.35085 288.013 5.40767C288.643 6.45596 289.078 7.65341 289.317 9ZM293.008 3.63068V0.818181H312.645V3.63068H304.412V27H301.241V3.63068H293.008Z" fill="#05C2DF"/>
</svg>
