<svg width="212" height="69" viewBox="0 0 212 69" fill="none" xmlns="http://www.w3.org/2000/svg">
<path opacity="0.45" d="M86 12H56V14H86V12Z" fill="#05C2DF"/>
<path opacity="0.45" d="M86 56H56V58H86V56Z" fill="#05C2DF"/>
<path opacity="0.45" d="M51 7C46.1191 3.58873 40.9135 2.35207 35 2.00004C29.0865 1.648 23.5605 3.00323 18.3211 5.81203C13.0817 8.62084 8.69816 12.8327 5.64507 17.9917C2.59199 23.1507 0.985693 29.0602 1.0001 35.0803C1.0145 41.1005 2.64905 47.002 5.72678 52.1458C8.80452 57.2896 13.2082 61.4798 18.4609 64.2627C23.7137 67.0456 29.6155 68.3151 35.5272 67.9339C41.439 67.5526 47.1355 65.4354 52 62" stroke="#05C2DF" stroke-width="2" stroke-miterlimit="1.51696"/>
<path d="M34.0306 61.1554C48.6177 61.1554 60.4429 49.3647 60.4429 34.8203C60.4429 20.2758 48.6177 8.48523 34.0306 8.48523C19.4434 8.48523 7.61816 20.2758 7.61816 34.8203C7.61816 49.3647 19.4434 61.1554 34.0306 61.1554Z" stroke="#05C2DF" stroke-miterlimit="10"/>
<path d="M45 35L27.75 45.3923L27.75 24.6077L45 35Z" fill="#05C2DF"/>
</svg>
