<svg width="80" height="80" viewBox="0 0 80 80" fill="none" xmlns="http://www.w3.org/2000/svg">
<path d="M36.0135 27.0795V20.0692M52.6458 34.3647H60.7558M22.9551 44.8115H27.3537M44.9482 59.5194V52.5091" stroke="#05C2DF"/>
<rect x="27.7168" y="27.442" width="24.567" height="24.567" rx="3.5" stroke="#05C2DF"/>
<rect x="32.3896" y="32.1156" width="15.4948" height="15.4948" rx="3.5" stroke="#05C2DF"/>
<rect x="60.9814" y="0.500488" width="18.5189" height="18.5189" rx="3.5" stroke="#05C2DF"/>
<rect x="65.3799" y="4.89917" width="9.99656" height="9.99656" rx="2.5" stroke="#05C2DF"/>
<rect x="0.5" y="0.500488" width="18.5189" height="18.5189" rx="3.5" stroke="#05C2DF"/>
<rect x="4.89844" y="4.89917" width="9.99656" height="9.99656" rx="2.5" stroke="#05C2DF"/>
<rect x="1.3252" y="60.4318" width="18.5189" height="18.5189" rx="3.5" stroke="#05C2DF"/>
<rect x="5.72363" y="64.8303" width="9.99656" height="9.99656" rx="2.5" stroke="#05C2DF"/>
<rect x="60.9814" y="60.4318" width="18.5189" height="18.5189" rx="3.5" stroke="#05C2DF"/>
<rect x="65.3799" y="64.8303" width="9.99656" height="9.99656" rx="2.5" stroke="#05C2DF"/>
<path d="M45.2236 27.0795V9.89734H60.3439" stroke="#05C2DF"/>
<path d="M27.3535 37.1139L9.89648 37.1139L9.89649 19.5194" stroke="#05C2DF"/>
<path d="M52.7837 40.9626L69.9658 40.9626L69.9658 59.9317" stroke="#05C2DF"/>
<path d="M36.5635 52.509L36.5635 69.6912L20.2061 69.6912" stroke="#05C2DF"/>
<circle cx="36.0133" cy="17.595" r="1.97423" stroke="#05C2DF"/>
<circle cx="63.2301" cy="34.3647" r="1.97423" stroke="#05C2DF"/>
<circle cx="20.6188" cy="44.8115" r="1.97423" stroke="#05C2DF"/>
<circle cx="44.8111" cy="61.8562" r="1.97423" stroke="#05C2DF"/>
</svg>
