<svg width="203" height="146" viewBox="0 0 203 146" fill="none" xmlns="http://www.w3.org/2000/svg">
<circle cx="101.578" cy="73.3045" r="24.8694" stroke="#05C2DF"/>
<path d="M127.576 47.3672C135.984 52.9292 141.529 62.4696 141.529 73.3052C141.529 84.1408 135.984 93.6813 127.576 99.2432" stroke="#05C2DF"/>
<path d="M127.898 98.9912L139.315 113.579" stroke="#05C2DF"/>
<path d="M138.992 113.896C152.368 105.124 161.191 90.0772 161.191 72.9877C161.191 55.8983 152.368 40.8516 138.992 32.0796L127.576 47.6183" stroke="#05C2DF"/>
<path d="M151.682 16.8574C169.644 28.7575 181.491 49.1697 181.491 72.353C181.491 95.5363 169.644 115.948 151.682 127.849" stroke="#05C2DF"/>
<path d="M151.68 17.1749L163.097 1.00195C186.409 16.37 201.785 42.7309 201.785 72.6705C201.785 102.61 186.409 128.971 163.097 144.339L151.363 127.849" stroke="#05C2DF"/>
<path d="M75.5703 47.3672C67.1626 52.9292 61.6171 62.4696 61.6171 73.3052C61.6171 84.1408 67.1626 93.6813 75.5703 99.2432" stroke="#05C2DF"/>
<path d="M75.2578 98.9912L63.8416 113.579" stroke="#05C2DF"/>
<path d="M64.1541 113.896C50.7782 105.124 41.9559 90.0772 41.9559 72.9877C41.9559 55.8983 50.7782 40.8516 64.1541 32.0796L75.5703 47.6183" stroke="#05C2DF"/>
<path d="M51.4727 16.8574C33.5108 28.7575 21.6636 49.1697 21.6636 72.353C21.6636 95.5363 33.5108 115.948 51.4727 127.849" stroke="#05C2DF"/>
<path d="M51.4719 17.1749L40.0557 1.00195C16.7435 16.37 1.36738 42.7309 1.36738 72.6705C1.36738 102.61 16.7435 128.971 40.0557 144.339L51.7891 127.849" stroke="#05C2DF"/>
</svg>
