<svg width="107" height="80" viewBox="0 0 107 80" fill="none" xmlns="http://www.w3.org/2000/svg">
<rect x="22.0605" y="1.92017" width="84.3965" height="59.5917" rx="3.5" stroke="#05C2DF"/>
<line x1="21.5605" y1="51.571" x2="106.957" y2="51.571" stroke="#05C2DF"/>
<line x1="60.0723" y1="56.7778" x2="67.9243" y2="56.7778" stroke="#05C2DF" stroke-linecap="round"/>
<rect x="47.0547" y="62.0386" width="33.8876" height="5.15385" stroke="#05C2DF"/>
<rect x="36.6406" y="73.3994" width="54.716" height="5.15385" stroke="#05C2DF"/>
<path d="M37.9696 72.8728L46.6915 67.719H81.3057L90.0276 72.8728H37.9696Z" stroke="#05C2DF"/>
<path d="M54.248 39.064H53.576L43.768 16.6H44.392L53.912 38.424L63.448 16.6H64.072L54.248 39.064ZM76.4278 16.6C78.8171 16.6 80.6731 17.128 81.9958 18.184C83.3291 19.24 83.9958 20.7173 83.9958 22.616C83.9958 24.5147 83.3291 25.9973 81.9958 27.064C80.6624 28.12 78.8064 28.648 76.4278 28.648H74.4438L83.8678 39H83.0998L73.7238 28.648H69.0358V39H68.4438V16.6H76.4278ZM69.0358 17.16V28.104H76.4918C78.6784 28.104 80.3744 27.624 81.5798 26.664C82.7851 25.704 83.3878 24.3547 83.3878 22.616C83.3878 20.888 82.7798 19.5493 81.5638 18.6C80.3584 17.64 78.6678 17.16 76.4918 17.16H69.0358Z" fill="#05C2DF"/>
</svg>
