<svg width="89.000000" height="80.909058" viewBox="0 0 89 80.9091" fill="none" xmlns="http://www.w3.org/2000/svg" xmlns:xlink="http://www.w3.org/1999/xlink">
	<desc>
			Created with Pixso.
	</desc>
	<defs/>
	<rect id="Rectangle 8" x="2.080811" y="1.936279" rx="4.000000" width="85.366875" height="60.280258" stroke="#05C2DF" stroke-opacity="1.000000" stroke-width="1.000000"/>
	<line id="Line" x1="1.580811" y1="52.162720" x2="87.947632" y2="52.162720" stroke="#05C2DF" stroke-opacity="1.000000" stroke-width="1.000000"/>
	<path id="Line 2" d="M40.0214 57.4288L48.974 57.4288" stroke="#05C2DF" stroke-opacity="1.000000" stroke-width="1.000000" stroke-linecap="round"/>
	<rect id="Rectangle 9" x="27.355469" y="62.737915" width="34.284027" height="5.223777" stroke="#05C2DF" stroke-opacity="1.000000" stroke-width="1.000000"/>
	<rect id="Rectangle 9.2" x="16.823486" y="74.227905" width="55.349110" height="5.223777" stroke="#05C2DF" stroke-opacity="1.000000" stroke-width="1.000000"/>
	<path id="Rectangle 9.1" d="M61.8667 68.9828L27.1294 68.9828L19.9814 73.2065L69.0146 73.2065L61.8667 68.9828ZM70.9803 73.2065L72.6726 74.2065L16.3235 74.2065L26.8561 67.9828L62.14 67.9828L70.9803 73.2065Z" fill="#05C2DF" fill-opacity="1.000000" fill-rule="evenodd"/>
	<path id="VR" d="M24.3092 13.7948L25.0826 13.7948L33.0826 36.162L33.1686 36.162L41.1686 13.7948L41.942 13.7948L33.6295 37.0682L32.6295 37.0682L24.3092 13.7948ZM47.3568 37.0682L46.6224 37.0682L46.6224 13.7948L53.4427 13.7948C57.3568 13.7948 60.1224 16.4432 60.1224 20.4354C60.1224 23.6151 58.3412 25.9354 55.6224 26.7245L61.2162 37.0682L60.3959 37.0682L54.8959 26.8964C54.4349 26.9745 53.9427 27.0214 53.4427 27.0214L47.3568 27.0214L47.3568 37.0682ZM47.3568 14.5214L47.3568 26.2948L53.4427 26.2948C56.9349 26.2948 59.3959 23.9745 59.3959 20.4354C59.3959 16.8651 56.9349 14.5214 53.4427 14.5214L47.3568 14.5214Z" fill="#05C2DF" fill-opacity="1.000000" fill-rule="evenodd"/>
</svg>
