<?xml version="1.0" standalone="no"?>
<!DOCTYPE svg PUBLIC "-//W3C//DTD SVG 20010904//EN"
 "http://www.w3.org/TR/2001/REC-SVG-20010904/DTD/svg10.dtd">
<svg version="1.0" xmlns="http://www.w3.org/2000/svg"
 width="32.000000pt" height="32.000000pt" viewBox="0 0 32.000000 32.000000"
 preserveAspectRatio="xMidYMid meet">

<g transform="translate(0.000000,32.000000) scale(0.100000,-0.100000)"
fill="#000000" stroke="none">
<path d="M90 275 c0 -25 4 -45 8 -45 4 0 28 20 52 45 l44 45 -52 0 -52 0 0
-45z"/>
<path d="M246 258 c-32 -35 -101 -107 -154 -161 l-97 -97 163 0 162 0 0 160
c0 88 -4 160 -9 160 -4 0 -34 -28 -65 -62z m0 -246 c-52 -3 -56 -1 -90 35
l-35 38 27 28 26 27 63 -62 64 -63 -55 -3z"/>
</g>
</svg>
