<svg width="206" height="151" viewBox="0 0 206 151" fill="none" xmlns="http://www.w3.org/2000/svg">
<path d="M90.1205 32.9738C95.2085 39.9926 97.8983 48.2965 97.8983 56.9863C97.8983 79.5679 79.5269 97.9393 56.9453 97.9393C34.3636 97.9393 15.9922 79.5679 15.9922 56.9863C15.9922 34.4047 34.3636 16.0332 56.9453 16.0332C65.621 16.0332 73.9128 18.7145 80.9244 23.7873" stroke="#05C2DF" stroke-width="1.00668" stroke-linejoin="round"/>
<path d="M56.9503 73.7932C47.684 73.7932 40.144 66.2532 40.144 56.9864C40.144 47.7197 47.6836 40.1801 56.9503 40.1801C66.2171 40.1801 73.7566 47.7197 73.7566 56.9864C73.7566 66.2532 66.2167 73.7932 56.9503 73.7932Z" stroke="#05C2DF" stroke-width="1.00668"/>
<path d="M202.404 1.2041C185.292 1.2041 171.37 15.1265 171.37 32.239V48.4102C167.277 49.6241 163.511 51.8192 160.371 54.8752" stroke="#05C2DF" stroke-width="1.00668"/>
<path d="M88.4577 102.994C96.4985 97.4692 103.026 89.8962 107.278 81.0306M169.153 96.6347C166.099 93.8466 162.663 91.5218 158.939 89.7248L158.318 89.4248M153.346 66.591C152.648 69.0089 152.294 71.4975 152.294 73.9889V86.5182L149.112 84.9825C136.856 79.0685 123.322 75.684 109.716 75.0856C111.669 69.4081 112.731 63.3205 112.731 56.9888C112.731 26.2307 87.7075 1.20703 56.9498 1.20703C26.192 1.20703 1.16797 26.2307 1.16797 56.9888C1.16797 87.747 26.1916 112.771 56.9498 112.771C66.366 112.771 75.2429 110.422 83.0311 106.285C85.9309 108.799 133.837 149.986 158.894 149.986C159.201 149.986 159.506 149.979 159.805 149.967C184.879 148.92 203.835 128.36 204.63 127.485" stroke="#05C2DF" stroke-width="1.00668"/>
</svg>
