<svg width="112" height="82" viewBox="0 0 112 82" fill="none" xmlns="http://www.w3.org/2000/svg">
<path d="M49.0925 18.1758C51.8433 21.9705 53.2975 26.4599 53.2975 31.158C53.2975 43.3665 43.3651 53.2989 31.1566 53.2989C18.948 53.2989 9.01562 43.3665 9.01562 31.158C9.01562 18.9494 18.948 9.01703 31.1566 9.01703C35.847 9.01703 40.3299 10.4667 44.1207 13.2092" stroke="#05C2DF" stroke-width="1.00668" stroke-linejoin="round"/>
<path d="M31.1591 40.0134C26.277 40.0134 22.3041 36.0405 22.3041 31.1582C22.3041 26.2759 26.2768 22.3032 31.1591 22.3032C36.0414 22.3032 40.0141 26.2759 40.0141 31.1582C40.0141 36.0405 36.0412 40.0134 31.1591 40.0134Z" stroke="#05C2DF" stroke-width="1.00668"/>
<path d="M109.795 1C100.543 1 93.0165 8.52701 93.0165 17.7787V26.5216C90.804 27.1779 88.7679 28.3646 87.0703 30.0168" stroke="#05C2DF" stroke-width="1.00668"/>
<path d="M48.1925 56.0307C52.5397 53.0439 56.0688 48.9497 58.3676 44.1565M91.8196 52.5928C90.1687 51.0854 88.3111 49.8285 86.2978 48.857L85.9617 48.6948M83.2741 36.3499C82.8965 37.6571 82.7051 39.0025 82.7051 40.3495V47.1233L80.9847 46.2931C74.3589 43.0957 67.0416 41.2659 59.6857 40.9424C60.7413 37.8729 61.3157 34.5817 61.3157 31.1585C61.3157 14.5294 47.7869 1.00055 31.158 1.00055C14.529 1.00055 1 14.5294 1 31.1585C1 47.7877 14.5288 61.3165 31.158 61.3165C36.2488 61.3165 41.048 60.0466 45.2587 57.81C46.8264 59.1691 72.7266 81.4366 86.2735 81.4366C86.4391 81.4366 86.6041 81.4331 86.7661 81.4264C100.322 80.8606 110.57 69.7445 111 69.2717" stroke="#05C2DF" stroke-width="1.00668"/>
</svg>
