<svg width="249" height="263" viewBox="0 0 249 263" fill="none" xmlns="http://www.w3.org/2000/svg">
<path d="M116.405 18.644C119.231 22.5421 120.725 27.154 120.725 31.9801C120.725 44.5217 110.522 54.7249 97.9801 54.7249C85.4386 54.7249 75.2354 44.5217 75.2354 31.9801C75.2354 19.4386 85.4386 9.23535 97.9801 9.23535C102.799 9.23535 107.404 10.7245 111.298 13.5419" stroke="#05C2DF" stroke-width="1.00668" stroke-linejoin="round"/>
<path d="M97.9808 41.0912C92.958 41.0912 88.8705 37.0038 88.8705 31.9808C88.8705 26.9577 92.9577 22.8705 97.9808 22.8705C103.004 22.8705 107.091 26.9577 107.091 31.9808C107.091 37.0038 103.004 41.0912 97.9808 41.0912Z" stroke="#05C2DF" stroke-width="1.00668"/>
<path d="M178.762 1C169.257 1 161.525 8.73229 161.525 18.2364V27.2176C159.252 27.8918 157.161 29.1109 155.417 30.8082" stroke="#05C2DF" stroke-width="1.00668"/>
<path d="M115.48 57.532C119.945 54.4637 123.571 50.2578 125.932 45.3339M160.296 54.0003C158.601 52.4518 156.692 51.1606 154.624 50.1626L154.279 49.996M151.518 37.3144C151.13 38.6572 150.933 40.0394 150.933 41.4231V48.3817L149.166 47.5288C142.36 44.2442 134.843 42.3645 127.286 42.0322C128.371 38.8789 128.961 35.498 128.961 31.9815C128.961 14.8988 115.063 1.00098 97.9805 1.00098C80.898 1.00098 67 14.8988 67 31.9815C67 49.0641 80.8978 62.9619 97.9805 62.9619C103.21 62.9619 108.14 61.6574 112.466 59.3597C114.076 60.7559 140.683 83.6307 154.599 83.6307C154.769 83.6307 154.939 83.6272 155.105 83.6203C169.031 83.039 179.559 71.6198 180 71.134" stroke="#05C2DF" stroke-width="1.00668"/>
<path d="M47.5071 165H46.098C46.0147 164.595 45.8688 164.239 45.6605 163.932C45.456 163.625 45.206 163.367 44.9105 163.159C44.6188 162.947 44.295 162.788 43.9389 162.682C43.5829 162.576 43.2116 162.523 42.8253 162.523C42.1207 162.523 41.4825 162.701 40.9105 163.057C40.3423 163.413 39.8897 163.938 39.5526 164.631C39.2192 165.324 39.0526 166.174 39.0526 167.182C39.0526 168.189 39.2192 169.04 39.5526 169.733C39.8897 170.426 40.3423 170.951 40.9105 171.307C41.4825 171.663 42.1207 171.841 42.8253 171.841C43.2116 171.841 43.5829 171.788 43.9389 171.682C44.295 171.576 44.6188 171.419 44.9105 171.21C45.206 170.998 45.456 170.739 45.6605 170.432C45.8688 170.121 46.0147 169.765 46.098 169.364H47.5071C47.401 169.958 47.2079 170.491 46.9276 170.96C46.6473 171.43 46.2988 171.83 45.8821 172.159C45.4654 172.485 44.9976 172.733 44.4787 172.903C43.9635 173.074 43.4124 173.159 42.8253 173.159C41.8329 173.159 40.9503 172.917 40.1776 172.432C39.4048 171.947 38.7969 171.258 38.3537 170.364C37.9105 169.47 37.6889 168.409 37.6889 167.182C37.6889 165.955 37.9105 164.894 38.3537 164C38.7969 163.106 39.4048 162.417 40.1776 161.932C40.9503 161.447 41.8329 161.205 42.8253 161.205C43.4124 161.205 43.9635 161.29 44.4787 161.46C44.9976 161.631 45.4654 161.881 45.8821 162.21C46.2988 162.536 46.6473 162.934 46.9276 163.403C47.2079 163.869 47.401 164.402 47.5071 165ZM53.1477 173.182C52.3598 173.182 51.6686 172.994 51.0739 172.619C50.483 172.244 50.0208 171.72 49.6875 171.045C49.358 170.371 49.1932 169.583 49.1932 168.682C49.1932 167.773 49.358 166.979 49.6875 166.301C50.0208 165.623 50.483 165.097 51.0739 164.722C51.6686 164.347 52.3598 164.159 53.1477 164.159C53.9356 164.159 54.625 164.347 55.2159 164.722C55.8106 165.097 56.2727 165.623 56.6023 166.301C56.9356 166.979 57.1023 167.773 57.1023 168.682C57.1023 169.583 56.9356 170.371 56.6023 171.045C56.2727 171.72 55.8106 172.244 55.2159 172.619C54.625 172.994 53.9356 173.182 53.1477 173.182ZM53.1477 171.977C53.7462 171.977 54.2386 171.824 54.625 171.517C55.0114 171.21 55.2973 170.807 55.483 170.307C55.6686 169.807 55.7614 169.265 55.7614 168.682C55.7614 168.098 55.6686 167.555 55.483 167.051C55.2973 166.547 55.0114 166.14 54.625 165.83C54.2386 165.519 53.7462 165.364 53.1477 165.364C52.5492 165.364 52.0568 165.519 51.6705 165.83C51.2841 166.14 50.9981 166.547 50.8125 167.051C50.6269 167.555 50.5341 168.098 50.5341 168.682C50.5341 169.265 50.6269 169.807 50.8125 170.307C50.9981 170.807 51.2841 171.21 51.6705 171.517C52.0568 171.824 52.5492 171.977 53.1477 171.977ZM59.1491 173V164.273H60.4446V165.636H60.5582C60.7401 165.17 61.0336 164.809 61.4389 164.551C61.8442 164.29 62.331 164.159 62.8991 164.159C63.4749 164.159 63.9541 164.29 64.3366 164.551C64.723 164.809 65.0241 165.17 65.2401 165.636H65.331C65.5545 165.186 65.8897 164.828 66.3366 164.562C66.7836 164.294 67.3196 164.159 67.9446 164.159C68.7249 164.159 69.3632 164.403 69.8594 164.892C70.3556 165.377 70.6037 166.133 70.6037 167.159V173H69.2628V167.159C69.2628 166.515 69.0866 166.055 68.7344 165.778C68.3821 165.502 67.9673 165.364 67.4901 165.364C66.8764 165.364 66.401 165.549 66.0639 165.92C65.7268 166.288 65.5582 166.754 65.5582 167.318V173H64.1946V167.023C64.1946 166.527 64.0336 166.127 63.7116 165.824C63.3897 165.517 62.9749 165.364 62.4673 165.364C62.1188 165.364 61.7931 165.456 61.4901 165.642C61.1908 165.828 60.9484 166.085 60.7628 166.415C60.581 166.741 60.4901 167.117 60.4901 167.545V173H59.1491ZM73.2372 173V161.364H74.5781V165.659H74.6918C74.7902 165.508 74.9266 165.314 75.1009 165.08C75.2789 164.841 75.5327 164.629 75.8622 164.443C76.1955 164.254 76.6463 164.159 77.2145 164.159C77.9493 164.159 78.5971 164.343 79.1577 164.71C79.7183 165.078 80.1558 165.598 80.4702 166.273C80.7846 166.947 80.9418 167.742 80.9418 168.659C80.9418 169.583 80.7846 170.384 80.4702 171.062C80.1558 171.737 79.7202 172.259 79.1634 172.631C78.6065 172.998 77.9645 173.182 77.2372 173.182C76.6766 173.182 76.2277 173.089 75.8906 172.903C75.5535 172.714 75.294 172.5 75.1122 172.261C74.9304 172.019 74.7902 171.818 74.6918 171.659H74.5327V173H73.2372ZM74.5554 168.636C74.5554 169.295 74.652 169.877 74.8452 170.381C75.0384 170.881 75.3205 171.273 75.6918 171.557C76.063 171.837 76.5175 171.977 77.0554 171.977C77.616 171.977 78.0838 171.83 78.4588 171.534C78.8376 171.235 79.1217 170.833 79.3111 170.33C79.5043 169.822 79.6009 169.258 79.6009 168.636C79.6009 168.023 79.5062 167.47 79.3168 166.977C79.1312 166.481 78.849 166.089 78.4702 165.801C78.0952 165.509 77.6236 165.364 77.0554 165.364C76.5099 165.364 76.0516 165.502 75.6804 165.778C75.3092 166.051 75.0289 166.434 74.8395 166.926C74.6501 167.415 74.5554 167.985 74.5554 168.636ZM82.9929 173V164.273H84.3338V173H82.9929ZM83.6747 162.818C83.4134 162.818 83.188 162.729 82.9986 162.551C82.813 162.373 82.7202 162.159 82.7202 161.909C82.7202 161.659 82.813 161.445 82.9986 161.267C83.188 161.089 83.4134 161 83.6747 161C83.9361 161 84.1596 161.089 84.3452 161.267C84.5346 161.445 84.6293 161.659 84.6293 161.909C84.6293 162.159 84.5346 162.373 84.3452 162.551C84.1596 162.729 83.9361 162.818 83.6747 162.818ZM88.1307 167.75V173H86.7898V164.273H88.0852V165.636H88.1989C88.4034 165.193 88.714 164.837 89.1307 164.568C89.5473 164.295 90.0852 164.159 90.7443 164.159C91.3352 164.159 91.8523 164.28 92.2955 164.523C92.7386 164.761 93.0833 165.125 93.3295 165.614C93.5758 166.098 93.6989 166.712 93.6989 167.455V173H92.358V167.545C92.358 166.86 92.1799 166.326 91.8239 165.943C91.4678 165.557 90.9792 165.364 90.358 165.364C89.9299 165.364 89.5473 165.456 89.2102 165.642C88.8769 165.828 88.6136 166.098 88.4205 166.455C88.2273 166.811 88.1307 167.242 88.1307 167.75ZM99.8082 173.182C98.9673 173.182 98.242 172.996 97.6321 172.625C97.026 172.25 96.5582 171.727 96.2287 171.057C95.9029 170.383 95.7401 169.598 95.7401 168.705C95.7401 167.811 95.9029 167.023 96.2287 166.341C96.5582 165.655 97.0166 165.121 97.6037 164.739C98.1946 164.352 98.884 164.159 99.6719 164.159C100.126 164.159 100.575 164.235 101.018 164.386C101.462 164.538 101.865 164.784 102.229 165.125C102.592 165.462 102.882 165.909 103.098 166.466C103.314 167.023 103.422 167.708 103.422 168.523V169.091H96.6946V167.932H102.058C102.058 167.439 101.96 167 101.763 166.614C101.57 166.227 101.293 165.922 100.933 165.699C100.577 165.475 100.157 165.364 99.6719 165.364C99.1378 165.364 98.6757 165.496 98.2855 165.761C97.8991 166.023 97.6018 166.364 97.3935 166.784C97.1851 167.205 97.081 167.655 97.081 168.136V168.909C97.081 169.568 97.1946 170.127 97.4219 170.585C97.6529 171.04 97.973 171.386 98.3821 171.625C98.7912 171.86 99.2666 171.977 99.8082 171.977C100.161 171.977 100.479 171.928 100.763 171.83C101.051 171.727 101.299 171.576 101.507 171.375C101.715 171.17 101.876 170.917 101.99 170.614L103.286 170.977C103.149 171.417 102.92 171.803 102.598 172.136C102.276 172.466 101.878 172.723 101.405 172.909C100.931 173.091 100.399 173.182 99.8082 173.182ZM110.143 173V161.364H111.484V165.659H111.598C111.696 165.508 111.833 165.314 112.007 165.08C112.185 164.841 112.439 164.629 112.768 164.443C113.102 164.254 113.553 164.159 114.121 164.159C114.856 164.159 115.503 164.343 116.064 164.71C116.625 165.078 117.062 165.598 117.376 166.273C117.691 166.947 117.848 167.742 117.848 168.659C117.848 169.583 117.691 170.384 117.376 171.062C117.062 171.737 116.626 172.259 116.07 172.631C115.513 172.998 114.871 173.182 114.143 173.182C113.583 173.182 113.134 173.089 112.797 172.903C112.46 172.714 112.2 172.5 112.018 172.261C111.837 172.019 111.696 171.818 111.598 171.659H111.439V173H110.143ZM111.462 168.636C111.462 169.295 111.558 169.877 111.751 170.381C111.945 170.881 112.227 171.273 112.598 171.557C112.969 171.837 113.424 171.977 113.962 171.977C114.522 171.977 114.99 171.83 115.365 171.534C115.744 171.235 116.028 170.833 116.217 170.33C116.411 169.822 116.507 169.258 116.507 168.636C116.507 168.023 116.412 167.47 116.223 166.977C116.037 166.481 115.755 166.089 115.376 165.801C115.001 165.509 114.53 165.364 113.962 165.364C113.416 165.364 112.958 165.502 112.587 165.778C112.215 166.051 111.935 166.434 111.746 166.926C111.556 167.415 111.462 167.985 111.462 168.636ZM125.399 169.432V164.273H126.74V173H125.399V171.523H125.308C125.104 171.966 124.786 172.343 124.354 172.653C123.922 172.96 123.376 173.114 122.717 173.114C122.172 173.114 121.687 172.994 121.263 172.756C120.839 172.513 120.505 172.15 120.263 171.665C120.02 171.176 119.899 170.561 119.899 169.818V164.273H121.24V169.727C121.24 170.364 121.418 170.871 121.774 171.25C122.134 171.629 122.592 171.818 123.149 171.818C123.482 171.818 123.821 171.733 124.166 171.562C124.515 171.392 124.806 171.131 125.041 170.778C125.28 170.426 125.399 169.977 125.399 169.432ZM135.378 166.227L134.173 166.568C134.098 166.367 133.986 166.172 133.838 165.983C133.694 165.79 133.497 165.631 133.247 165.506C132.997 165.381 132.677 165.318 132.287 165.318C131.753 165.318 131.308 165.441 130.952 165.688C130.599 165.93 130.423 166.239 130.423 166.614C130.423 166.947 130.545 167.21 130.787 167.403C131.029 167.597 131.408 167.758 131.923 167.886L133.219 168.205C133.999 168.394 134.58 168.684 134.963 169.074C135.346 169.46 135.537 169.958 135.537 170.568C135.537 171.068 135.393 171.515 135.105 171.909C134.821 172.303 134.423 172.614 133.912 172.841C133.401 173.068 132.806 173.182 132.128 173.182C131.238 173.182 130.501 172.989 129.918 172.602C129.334 172.216 128.965 171.652 128.81 170.909L130.082 170.591C130.204 171.061 130.433 171.413 130.77 171.648C131.111 171.883 131.556 172 132.105 172C132.73 172 133.226 171.867 133.594 171.602C133.965 171.333 134.151 171.011 134.151 170.636C134.151 170.333 134.045 170.08 133.832 169.875C133.62 169.667 133.295 169.511 132.855 169.409L131.401 169.068C130.601 168.879 130.014 168.585 129.639 168.188C129.268 167.786 129.082 167.284 129.082 166.682C129.082 166.189 129.221 165.754 129.497 165.375C129.777 164.996 130.158 164.699 130.639 164.483C131.124 164.267 131.673 164.159 132.287 164.159C133.151 164.159 133.829 164.348 134.321 164.727C134.817 165.106 135.17 165.606 135.378 166.227ZM137.555 173V164.273H138.896V173H137.555ZM138.237 162.818C137.976 162.818 137.75 162.729 137.561 162.551C137.375 162.373 137.283 162.159 137.283 161.909C137.283 161.659 137.375 161.445 137.561 161.267C137.75 161.089 137.976 161 138.237 161C138.499 161 138.722 161.089 138.908 161.267C139.097 161.445 139.192 161.659 139.192 161.909C139.192 162.159 139.097 162.373 138.908 162.551C138.722 162.729 138.499 162.818 138.237 162.818ZM142.693 167.75V173H141.352V164.273H142.648V165.636H142.761C142.966 165.193 143.277 164.837 143.693 164.568C144.11 164.295 144.648 164.159 145.307 164.159C145.898 164.159 146.415 164.28 146.858 164.523C147.301 164.761 147.646 165.125 147.892 165.614C148.138 166.098 148.261 166.712 148.261 167.455V173H146.92V167.545C146.92 166.86 146.742 166.326 146.386 165.943C146.03 165.557 145.542 165.364 144.92 165.364C144.492 165.364 144.11 165.456 143.773 165.642C143.439 165.828 143.176 166.098 142.983 166.455C142.79 166.811 142.693 167.242 142.693 167.75ZM154.371 173.182C153.53 173.182 152.804 172.996 152.195 172.625C151.589 172.25 151.121 171.727 150.791 171.057C150.465 170.383 150.303 169.598 150.303 168.705C150.303 167.811 150.465 167.023 150.791 166.341C151.121 165.655 151.579 165.121 152.166 164.739C152.757 164.352 153.446 164.159 154.234 164.159C154.689 164.159 155.138 164.235 155.581 164.386C156.024 164.538 156.428 164.784 156.791 165.125C157.155 165.462 157.445 165.909 157.661 166.466C157.876 167.023 157.984 167.708 157.984 168.523V169.091H151.257V167.932H156.621C156.621 167.439 156.522 167 156.325 166.614C156.132 166.227 155.856 165.922 155.496 165.699C155.14 165.475 154.719 165.364 154.234 165.364C153.7 165.364 153.238 165.496 152.848 165.761C152.462 166.023 152.164 166.364 151.956 166.784C151.748 167.205 151.643 167.655 151.643 168.136V168.909C151.643 169.568 151.757 170.127 151.984 170.585C152.215 171.04 152.536 171.386 152.945 171.625C153.354 171.86 153.829 171.977 154.371 171.977C154.723 171.977 155.041 171.928 155.325 171.83C155.613 171.727 155.861 171.576 156.07 171.375C156.278 171.17 156.439 170.917 156.553 170.614L157.848 170.977C157.712 171.417 157.482 171.803 157.161 172.136C156.839 172.466 156.441 172.723 155.967 172.909C155.494 173.091 154.962 173.182 154.371 173.182ZM166.206 166.227L165.001 166.568C164.926 166.367 164.814 166.172 164.666 165.983C164.522 165.79 164.325 165.631 164.075 165.506C163.825 165.381 163.505 165.318 163.115 165.318C162.581 165.318 162.136 165.441 161.78 165.688C161.428 165.93 161.251 166.239 161.251 166.614C161.251 166.947 161.373 167.21 161.615 167.403C161.857 167.597 162.236 167.758 162.751 167.886L164.047 168.205C164.827 168.394 165.409 168.684 165.791 169.074C166.174 169.46 166.365 169.958 166.365 170.568C166.365 171.068 166.221 171.515 165.933 171.909C165.649 172.303 165.251 172.614 164.74 172.841C164.229 173.068 163.634 173.182 162.956 173.182C162.066 173.182 161.329 172.989 160.746 172.602C160.162 172.216 159.793 171.652 159.638 170.909L160.911 170.591C161.032 171.061 161.261 171.413 161.598 171.648C161.939 171.883 162.384 172 162.933 172C163.558 172 164.054 171.867 164.422 171.602C164.793 171.333 164.979 171.011 164.979 170.636C164.979 170.333 164.873 170.08 164.661 169.875C164.448 169.667 164.123 169.511 163.683 169.409L162.229 169.068C161.429 168.879 160.842 168.585 160.467 168.188C160.096 167.786 159.911 167.284 159.911 166.682C159.911 166.189 160.049 165.754 160.325 165.375C160.606 164.996 160.986 164.699 161.467 164.483C161.952 164.267 162.501 164.159 163.115 164.159C163.979 164.159 164.657 164.348 165.149 164.727C165.645 165.106 165.998 165.606 166.206 166.227ZM174.565 166.227L173.361 166.568C173.285 166.367 173.173 166.172 173.026 165.983C172.882 165.79 172.685 165.631 172.435 165.506C172.185 165.381 171.865 165.318 171.474 165.318C170.94 165.318 170.495 165.441 170.139 165.688C169.787 165.93 169.611 166.239 169.611 166.614C169.611 166.947 169.732 167.21 169.974 167.403C170.217 167.597 170.596 167.758 171.111 167.886L172.406 168.205C173.187 168.394 173.768 168.684 174.151 169.074C174.533 169.46 174.724 169.958 174.724 170.568C174.724 171.068 174.58 171.515 174.293 171.909C174.009 172.303 173.611 172.614 173.099 172.841C172.588 173.068 171.993 173.182 171.315 173.182C170.425 173.182 169.688 172.989 169.105 172.602C168.522 172.216 168.152 171.652 167.997 170.909L169.27 170.591C169.391 171.061 169.62 171.413 169.957 171.648C170.298 171.883 170.743 172 171.293 172C171.918 172 172.414 171.867 172.781 171.602C173.152 171.333 173.338 171.011 173.338 170.636C173.338 170.333 173.232 170.08 173.02 169.875C172.808 169.667 172.482 169.511 172.043 169.409L170.588 169.068C169.789 168.879 169.202 168.585 168.827 168.188C168.455 167.786 168.27 167.284 168.27 166.682C168.27 166.189 168.408 165.754 168.685 165.375C168.965 164.996 169.346 164.699 169.827 164.483C170.312 164.267 170.861 164.159 171.474 164.159C172.338 164.159 173.016 164.348 173.509 164.727C174.005 165.106 174.357 165.606 174.565 166.227ZM183.22 173L180.561 164.273H181.97L183.857 170.955H183.947L185.811 164.273H187.243L189.084 170.932H189.175L191.061 164.273H192.47L189.811 173H188.493L186.584 166.295H186.447L184.538 173H183.22ZM194.243 173V164.273H195.584V173H194.243ZM194.925 162.818C194.663 162.818 194.438 162.729 194.249 162.551C194.063 162.373 193.97 162.159 193.97 161.909C193.97 161.659 194.063 161.445 194.249 161.267C194.438 161.089 194.663 161 194.925 161C195.186 161 195.41 161.089 195.595 161.267C195.785 161.445 195.879 161.659 195.879 161.909C195.879 162.159 195.785 162.373 195.595 162.551C195.41 162.729 195.186 162.818 194.925 162.818ZM201.835 164.273V165.409H197.312V164.273H201.835ZM198.631 162.182H199.972V170.5C199.972 170.879 200.027 171.163 200.136 171.352C200.25 171.538 200.394 171.663 200.568 171.727C200.746 171.788 200.934 171.818 201.131 171.818C201.278 171.818 201.4 171.811 201.494 171.795C201.589 171.777 201.665 171.761 201.722 171.75L201.994 172.955C201.903 172.989 201.777 173.023 201.614 173.057C201.451 173.095 201.244 173.114 200.994 173.114C200.616 173.114 200.244 173.032 199.881 172.869C199.521 172.706 199.222 172.458 198.983 172.125C198.748 171.792 198.631 171.371 198.631 170.864V162.182ZM205.381 167.75V173H204.04V161.364H205.381V165.636H205.494C205.699 165.186 206.006 164.828 206.415 164.562C206.828 164.294 207.377 164.159 208.062 164.159C208.657 164.159 209.178 164.278 209.625 164.517C210.072 164.752 210.419 165.114 210.665 165.602C210.915 166.087 211.04 166.705 211.04 167.455V173H209.699V167.545C209.699 166.852 209.519 166.316 209.159 165.938C208.803 165.555 208.309 165.364 207.676 165.364C207.237 165.364 206.843 165.456 206.494 165.642C206.15 165.828 205.877 166.098 205.676 166.455C205.479 166.811 205.381 167.242 205.381 167.75ZM1.76634 200.273V188.273H3.06179V189.659H3.22088C3.31937 189.508 3.45573 189.314 3.62997 189.08C3.808 188.841 4.06179 188.629 4.39134 188.443C4.72467 188.254 5.17543 188.159 5.74361 188.159C6.47846 188.159 7.12618 188.343 7.68679 188.71C8.2474 189.078 8.6849 189.598 8.99929 190.273C9.31368 190.947 9.47088 191.742 9.47088 192.659C9.47088 193.583 9.31368 194.384 8.99929 195.062C8.6849 195.737 8.24929 196.259 7.69247 196.631C7.13565 196.998 6.49361 197.182 5.76634 197.182C5.20573 197.182 4.75687 197.089 4.41974 196.903C4.08262 196.714 3.82315 196.5 3.64134 196.261C3.45952 196.019 3.31937 195.818 3.22088 195.659H3.10724V200.273H1.76634ZM3.08452 192.636C3.08452 193.295 3.18111 193.877 3.37429 194.381C3.56747 194.881 3.84967 195.273 4.22088 195.557C4.59209 195.837 5.04664 195.977 5.58452 195.977C6.14512 195.977 6.61293 195.83 6.98793 195.534C7.36671 195.235 7.6508 194.833 7.8402 194.33C8.03338 193.822 8.12997 193.258 8.12997 192.636C8.12997 192.023 8.03527 191.47 7.84588 190.977C7.66027 190.481 7.37808 190.089 6.99929 189.801C6.62429 189.509 6.1527 189.364 5.58452 189.364C5.03906 189.364 4.58073 189.502 4.20952 189.778C3.83831 190.051 3.558 190.434 3.36861 190.926C3.17921 191.415 3.08452 191.985 3.08452 192.636ZM12.8572 185.364V197H11.5163V185.364H12.8572ZM18.9723 197.182C18.1314 197.182 17.406 196.996 16.7962 196.625C16.1901 196.25 15.7223 195.727 15.3928 195.057C15.067 194.383 14.9041 193.598 14.9041 192.705C14.9041 191.811 15.067 191.023 15.3928 190.341C15.7223 189.655 16.1806 189.121 16.7678 188.739C17.3587 188.352 18.0481 188.159 18.8359 188.159C19.2905 188.159 19.7393 188.235 20.1825 188.386C20.6257 188.538 21.0291 188.784 21.3928 189.125C21.7564 189.462 22.0462 189.909 22.2621 190.466C22.478 191.023 22.5859 191.708 22.5859 192.523V193.091H15.8587V191.932H21.2223C21.2223 191.439 21.1238 191 20.9268 190.614C20.7337 190.227 20.4571 189.922 20.0973 189.699C19.7412 189.475 19.3208 189.364 18.8359 189.364C18.3018 189.364 17.8397 189.496 17.4496 189.761C17.0632 190.023 16.7659 190.364 16.5575 190.784C16.3492 191.205 16.245 191.655 16.245 192.136V192.909C16.245 193.568 16.3587 194.127 16.5859 194.585C16.817 195.04 17.1371 195.386 17.5462 195.625C17.9553 195.86 18.4306 195.977 18.9723 195.977C19.3246 195.977 19.6428 195.928 19.9268 195.83C20.2147 195.727 20.4628 195.576 20.6712 195.375C20.8795 195.17 21.0405 194.917 21.1541 194.614L22.4496 194.977C22.3132 195.417 22.084 195.803 21.7621 196.136C21.4401 196.466 21.0424 196.723 20.5689 196.909C20.0954 197.091 19.5632 197.182 18.9723 197.182ZM27.1939 197.205C26.6409 197.205 26.139 197.1 25.6882 196.892C25.2375 196.68 24.8795 196.375 24.6143 195.977C24.3492 195.576 24.2166 195.091 24.2166 194.523C24.2166 194.023 24.3151 193.617 24.5121 193.307C24.709 192.992 24.9723 192.746 25.3018 192.568C25.6314 192.39 25.995 192.258 26.3928 192.17C26.7943 192.08 27.1977 192.008 27.603 191.955C28.1333 191.886 28.5632 191.835 28.8928 191.801C29.2261 191.763 29.4685 191.701 29.62 191.614C29.7753 191.527 29.853 191.375 29.853 191.159V191.114C29.853 190.553 29.6996 190.117 29.3928 189.807C29.0897 189.496 28.6295 189.341 28.0121 189.341C27.3719 189.341 26.87 189.481 26.5064 189.761C26.1428 190.042 25.8871 190.341 25.7393 190.659L24.4666 190.205C24.6939 189.674 24.9969 189.261 25.3757 188.966C25.7583 188.667 26.175 188.458 26.6257 188.341C27.0803 188.22 27.5272 188.159 27.9666 188.159C28.2469 188.159 28.5689 188.193 28.9325 188.261C29.3 188.326 29.6541 188.46 29.995 188.665C30.3397 188.869 30.6257 189.178 30.853 189.591C31.0803 190.004 31.1939 190.557 31.1939 191.25V197H29.853V195.818H29.7848C29.6939 196.008 29.5424 196.21 29.3303 196.426C29.1181 196.642 28.8359 196.826 28.4837 196.977C28.1314 197.129 27.7015 197.205 27.1939 197.205ZM27.3984 196C27.9287 196 28.3757 195.896 28.7393 195.688C29.1068 195.479 29.3833 195.21 29.5689 194.881C29.7583 194.551 29.853 194.205 29.853 193.841V192.614C29.7962 192.682 29.6712 192.744 29.478 192.801C29.2886 192.854 29.0689 192.902 28.8189 192.943C28.5727 192.981 28.3321 193.015 28.0973 193.045C27.8662 193.072 27.6787 193.095 27.5348 193.114C27.1863 193.159 26.8606 193.233 26.5575 193.335C26.2583 193.434 26.0159 193.583 25.8303 193.784C25.6484 193.981 25.5575 194.25 25.5575 194.591C25.5575 195.057 25.7299 195.409 26.0746 195.648C26.4231 195.883 26.8643 196 27.3984 196ZM39.8232 190.227L38.6186 190.568C38.5429 190.367 38.4311 190.172 38.2834 189.983C38.1394 189.79 37.9425 189.631 37.6925 189.506C37.4425 189.381 37.1224 189.318 36.7322 189.318C36.1982 189.318 35.7531 189.441 35.397 189.688C35.0447 189.93 34.8686 190.239 34.8686 190.614C34.8686 190.947 34.9898 191.21 35.2322 191.403C35.4747 191.597 35.8535 191.758 36.3686 191.886L37.6641 192.205C38.4444 192.394 39.0258 192.684 39.4084 193.074C39.791 193.46 39.9822 193.958 39.9822 194.568C39.9822 195.068 39.8383 195.515 39.5504 195.909C39.2663 196.303 38.8686 196.614 38.3572 196.841C37.8459 197.068 37.2512 197.182 36.5732 197.182C35.683 197.182 34.9463 196.989 34.3629 196.602C33.7796 196.216 33.4103 195.652 33.255 194.909L34.5277 194.591C34.6489 195.061 34.8781 195.413 35.2152 195.648C35.5561 195.883 36.0012 196 36.5504 196C37.1754 196 37.6716 195.867 38.0391 195.602C38.4103 195.333 38.5959 195.011 38.5959 194.636C38.5959 194.333 38.4898 194.08 38.2777 193.875C38.0656 193.667 37.7398 193.511 37.3004 193.409L35.8459 193.068C35.0466 192.879 34.4595 192.585 34.0845 192.188C33.7133 191.786 33.5277 191.284 33.5277 190.682C33.5277 190.189 33.666 189.754 33.9425 189.375C34.2228 188.996 34.6035 188.699 35.0845 188.483C35.5694 188.267 36.1186 188.159 36.7322 188.159C37.5959 188.159 38.2739 188.348 38.7663 188.727C39.2625 189.106 39.6148 189.606 39.8232 190.227ZM47.5007 193.432V188.273H48.8416V197H47.5007V195.523H47.4098C47.2053 195.966 46.8871 196.343 46.4553 196.653C46.0234 196.96 45.478 197.114 44.8189 197.114C44.2734 197.114 43.7886 196.994 43.3643 196.756C42.9401 196.513 42.6068 196.15 42.3643 195.665C42.1219 195.176 42.0007 194.561 42.0007 193.818V188.273H43.3416V193.727C43.3416 194.364 43.5196 194.871 43.8757 195.25C44.2356 195.629 44.6939 195.818 45.2507 195.818C45.584 195.818 45.9231 195.733 46.2678 195.562C46.6162 195.392 46.9079 195.131 47.1428 194.778C47.3814 194.426 47.5007 193.977 47.5007 193.432ZM51.2976 197V188.273H52.593V189.591H52.6839C52.843 189.159 53.1309 188.809 53.5476 188.54C53.9643 188.271 54.4339 188.136 54.9567 188.136C55.0552 188.136 55.1783 188.138 55.326 188.142C55.4737 188.146 55.5855 188.152 55.6612 188.159V189.523C55.6158 189.511 55.5116 189.494 55.3487 189.472C55.1896 189.445 55.0211 189.432 54.843 189.432C54.4188 189.432 54.04 189.521 53.7067 189.699C53.3771 189.873 53.1158 190.116 52.9226 190.426C52.7332 190.733 52.6385 191.083 52.6385 191.477V197H51.2976ZM60.6442 197.182C59.8033 197.182 59.0779 196.996 58.468 196.625C57.862 196.25 57.3942 195.727 57.0646 195.057C56.7389 194.383 56.576 193.598 56.576 192.705C56.576 191.811 56.7389 191.023 57.0646 190.341C57.3942 189.655 57.8525 189.121 58.4396 188.739C59.0305 188.352 59.7199 188.159 60.5078 188.159C60.9624 188.159 61.4112 188.235 61.8544 188.386C62.2976 188.538 62.701 188.784 63.0646 189.125C63.4283 189.462 63.718 189.909 63.9339 190.466C64.1499 191.023 64.2578 191.708 64.2578 192.523V193.091H57.5305V191.932H62.8942C62.8942 191.439 62.7957 191 62.5987 190.614C62.4055 190.227 62.129 189.922 61.7692 189.699C61.4131 189.475 60.9927 189.364 60.5078 189.364C59.9737 189.364 59.5116 189.496 59.1214 189.761C58.7351 190.023 58.4377 190.364 58.2294 190.784C58.0211 191.205 57.9169 191.655 57.9169 192.136V192.909C57.9169 193.568 58.0305 194.127 58.2578 194.585C58.4889 195.04 58.8089 195.386 59.218 195.625C59.6271 195.86 60.1025 195.977 60.6442 195.977C60.9964 195.977 61.3146 195.928 61.5987 195.83C61.8866 195.727 62.1347 195.576 62.343 195.375C62.5514 195.17 62.7124 194.917 62.826 194.614L64.1214 194.977C63.9851 195.417 63.7559 195.803 63.4339 196.136C63.112 196.466 62.7143 196.723 62.2408 196.909C61.7673 197.091 61.2351 197.182 60.6442 197.182ZM68.2976 195.409L68.2067 196.023C68.1423 196.455 68.0438 196.917 67.9112 197.409C67.7824 197.902 67.648 198.366 67.5078 198.801C67.3677 199.237 67.2521 199.583 67.1612 199.841H66.1385C66.1877 199.598 66.2521 199.278 66.3317 198.881C66.4112 198.483 66.4908 198.038 66.5703 197.545C66.6536 197.057 66.7218 196.557 66.7749 196.045L66.843 195.409H68.2976ZM77.8501 197.205C77.2971 197.205 76.7952 197.1 76.3445 196.892C75.8937 196.68 75.5357 196.375 75.2706 195.977C75.0054 195.576 74.8729 195.091 74.8729 194.523C74.8729 194.023 74.9714 193.617 75.1683 193.307C75.3653 192.992 75.6286 192.746 75.9581 192.568C76.2876 192.39 76.6513 192.258 77.049 192.17C77.4505 192.08 77.8539 192.008 78.2592 191.955C78.7895 191.886 79.2195 191.835 79.549 191.801C79.8823 191.763 80.1248 191.701 80.2763 191.614C80.4316 191.527 80.5092 191.375 80.5092 191.159V191.114C80.5092 190.553 80.3558 190.117 80.049 189.807C79.746 189.496 79.2857 189.341 78.6683 189.341C78.0282 189.341 77.5263 189.481 77.1626 189.761C76.799 190.042 76.5433 190.341 76.3956 190.659L75.1229 190.205C75.3501 189.674 75.6532 189.261 76.032 188.966C76.4145 188.667 76.8312 188.458 77.282 188.341C77.7365 188.22 78.1835 188.159 78.6229 188.159C78.9032 188.159 79.2251 188.193 79.5888 188.261C79.9562 188.326 80.3104 188.46 80.6513 188.665C80.996 188.869 81.282 189.178 81.5092 189.591C81.7365 190.004 81.8501 190.557 81.8501 191.25V197H80.5092V195.818H80.4411C80.3501 196.008 80.1986 196.21 79.9865 196.426C79.7744 196.642 79.4922 196.826 79.1399 196.977C78.7876 197.129 78.3577 197.205 77.8501 197.205ZM78.0547 196C78.585 196 79.032 195.896 79.3956 195.688C79.763 195.479 80.0395 195.21 80.2251 194.881C80.4145 194.551 80.5092 194.205 80.5092 193.841V192.614C80.4524 192.682 80.3274 192.744 80.1342 192.801C79.9448 192.854 79.7251 192.902 79.4751 192.943C79.2289 192.981 78.9884 193.015 78.7536 193.045C78.5225 193.072 78.335 193.095 78.1911 193.114C77.8426 193.159 77.5168 193.233 77.2138 193.335C76.9145 193.434 76.6721 193.583 76.4865 193.784C76.3047 193.981 76.2138 194.25 76.2138 194.591C76.2138 195.057 76.3861 195.409 76.7308 195.648C77.0793 195.883 77.5206 196 78.0547 196ZM85.6385 191.75V197H84.2976V188.273H85.593V189.636H85.7067C85.9112 189.193 86.2218 188.837 86.6385 188.568C87.0552 188.295 87.593 188.159 88.2521 188.159C88.843 188.159 89.3601 188.28 89.8033 188.523C90.2464 188.761 90.5911 189.125 90.8374 189.614C91.0836 190.098 91.2067 190.712 91.2067 191.455V197H89.8658V191.545C89.8658 190.86 89.6877 190.326 89.3317 189.943C88.9756 189.557 88.487 189.364 87.8658 189.364C87.4377 189.364 87.0552 189.456 86.718 189.642C86.3847 189.828 86.1214 190.098 85.9283 190.455C85.7351 190.811 85.6385 191.242 85.6385 191.75ZM96.9524 197.182C96.2251 197.182 95.5831 196.998 95.0263 196.631C94.4695 196.259 94.0339 195.737 93.7195 195.062C93.4051 194.384 93.2479 193.583 93.2479 192.659C93.2479 191.742 93.4051 190.947 93.7195 190.273C94.0339 189.598 94.4714 189.078 95.032 188.71C95.5926 188.343 96.2403 188.159 96.9751 188.159C97.5433 188.159 97.9922 188.254 98.3217 188.443C98.6551 188.629 98.9089 188.841 99.0831 189.08C99.2611 189.314 99.3994 189.508 99.4979 189.659H99.6115V185.364H100.952V197H99.657V195.659H99.4979C99.3994 195.818 99.2592 196.019 99.0774 196.261C98.8956 196.5 98.6361 196.714 98.299 196.903C97.9619 197.089 97.513 197.182 96.9524 197.182ZM97.1342 195.977C97.6721 195.977 98.1267 195.837 98.4979 195.557C98.8691 195.273 99.1513 194.881 99.3445 194.381C99.5376 193.877 99.6342 193.295 99.6342 192.636C99.6342 191.985 99.5395 191.415 99.3501 190.926C99.1607 190.434 98.8804 190.051 98.5092 189.778C98.138 189.502 97.6797 189.364 97.1342 189.364C96.5661 189.364 96.0926 189.509 95.7138 189.801C95.3388 190.089 95.0566 190.481 94.8672 190.977C94.6816 191.47 94.5888 192.023 94.5888 192.636C94.5888 193.258 94.6835 193.822 94.8729 194.33C95.0661 194.833 95.3501 195.235 95.7251 195.534C96.1039 195.83 96.5736 195.977 97.1342 195.977ZM111.39 197.182C110.663 197.182 110.021 196.998 109.464 196.631C108.907 196.259 108.471 195.737 108.157 195.062C107.843 194.384 107.685 193.583 107.685 192.659C107.685 191.742 107.843 190.947 108.157 190.273C108.471 189.598 108.909 189.078 109.469 188.71C110.03 188.343 110.678 188.159 111.413 188.159C111.981 188.159 112.43 188.254 112.759 188.443C113.093 188.629 113.346 188.841 113.521 189.08C113.699 189.314 113.837 189.508 113.935 189.659H114.049V185.364H115.39V197H114.094V195.659H113.935C113.837 195.818 113.697 196.019 113.515 196.261C113.333 196.5 113.074 196.714 112.737 196.903C112.399 197.089 111.951 197.182 111.39 197.182ZM111.572 195.977C112.11 195.977 112.564 195.837 112.935 195.557C113.307 195.273 113.589 194.881 113.782 194.381C113.975 193.877 114.072 193.295 114.072 192.636C114.072 191.985 113.977 191.415 113.788 190.926C113.598 190.434 113.318 190.051 112.947 189.778C112.576 189.502 112.117 189.364 111.572 189.364C111.004 189.364 110.53 189.509 110.151 189.801C109.776 190.089 109.494 190.481 109.305 190.977C109.119 191.47 109.026 192.023 109.026 192.636C109.026 193.258 109.121 193.822 109.31 194.33C109.504 194.833 109.788 195.235 110.163 195.534C110.541 195.83 111.011 195.977 111.572 195.977ZM118.032 197V188.273H119.373V197H118.032ZM118.714 186.818C118.452 186.818 118.227 186.729 118.038 186.551C117.852 186.373 117.759 186.159 117.759 185.909C117.759 185.659 117.852 185.445 118.038 185.267C118.227 185.089 118.452 185 118.714 185C118.975 185 119.199 185.089 119.384 185.267C119.574 185.445 119.668 185.659 119.668 185.909C119.668 186.159 119.574 186.373 119.384 186.551C119.199 186.729 118.975 186.818 118.714 186.818ZM128.011 190.227L126.806 190.568C126.73 190.367 126.619 190.172 126.471 189.983C126.327 189.79 126.13 189.631 125.88 189.506C125.63 189.381 125.31 189.318 124.92 189.318C124.386 189.318 123.941 189.441 123.585 189.688C123.232 189.93 123.056 190.239 123.056 190.614C123.056 190.947 123.177 191.21 123.42 191.403C123.662 191.597 124.041 191.758 124.556 191.886L125.852 192.205C126.632 192.394 127.213 192.684 127.596 193.074C127.978 193.46 128.17 193.958 128.17 194.568C128.17 195.068 128.026 195.515 127.738 195.909C127.454 196.303 127.056 196.614 126.545 196.841C126.033 197.068 125.439 197.182 124.761 197.182C123.871 197.182 123.134 196.989 122.55 196.602C121.967 196.216 121.598 195.652 121.442 194.909L122.715 194.591C122.836 195.061 123.066 195.413 123.403 195.648C123.744 195.883 124.189 196 124.738 196C125.363 196 125.859 195.867 126.227 195.602C126.598 195.333 126.783 195.011 126.783 194.636C126.783 194.333 126.677 194.08 126.465 193.875C126.253 193.667 125.927 193.511 125.488 193.409L124.033 193.068C123.234 192.879 122.647 192.585 122.272 192.188C121.901 191.786 121.715 191.284 121.715 190.682C121.715 190.189 121.853 189.754 122.13 189.375C122.41 188.996 122.791 188.699 123.272 188.483C123.757 188.267 124.306 188.159 124.92 188.159C125.783 188.159 126.461 188.348 126.954 188.727C127.45 189.106 127.802 189.606 128.011 190.227ZM133.734 197.182C132.915 197.182 132.211 196.989 131.62 196.602C131.029 196.216 130.575 195.684 130.256 195.006C129.938 194.328 129.779 193.553 129.779 192.682C129.779 191.795 129.942 191.013 130.268 190.335C130.597 189.653 131.056 189.121 131.643 188.739C132.234 188.352 132.923 188.159 133.711 188.159C134.325 188.159 134.878 188.273 135.37 188.5C135.862 188.727 136.266 189.045 136.58 189.455C136.895 189.864 137.09 190.341 137.165 190.886H135.825C135.722 190.489 135.495 190.136 135.143 189.83C134.794 189.519 134.325 189.364 133.734 189.364C133.211 189.364 132.753 189.5 132.359 189.773C131.969 190.042 131.664 190.422 131.444 190.915C131.228 191.403 131.12 191.977 131.12 192.636C131.12 193.311 131.226 193.898 131.438 194.398C131.654 194.898 131.957 195.286 132.347 195.562C132.741 195.839 133.203 195.977 133.734 195.977C134.082 195.977 134.398 195.917 134.683 195.795C134.967 195.674 135.207 195.5 135.404 195.273C135.601 195.045 135.741 194.773 135.825 194.455H137.165C137.09 194.97 136.902 195.434 136.603 195.847C136.308 196.256 135.915 196.581 135.427 196.824C134.942 197.062 134.378 197.182 133.734 197.182ZM142.671 197.182C141.883 197.182 141.192 196.994 140.597 196.619C140.006 196.244 139.544 195.72 139.211 195.045C138.881 194.371 138.717 193.583 138.717 192.682C138.717 191.773 138.881 190.979 139.211 190.301C139.544 189.623 140.006 189.097 140.597 188.722C141.192 188.347 141.883 188.159 142.671 188.159C143.459 188.159 144.148 188.347 144.739 188.722C145.334 189.097 145.796 189.623 146.126 190.301C146.459 190.979 146.626 191.773 146.626 192.682C146.626 193.583 146.459 194.371 146.126 195.045C145.796 195.72 145.334 196.244 144.739 196.619C144.148 196.994 143.459 197.182 142.671 197.182ZM142.671 195.977C143.27 195.977 143.762 195.824 144.148 195.517C144.535 195.21 144.821 194.807 145.006 194.307C145.192 193.807 145.285 193.265 145.285 192.682C145.285 192.098 145.192 191.555 145.006 191.051C144.821 190.547 144.535 190.14 144.148 189.83C143.762 189.519 143.27 189.364 142.671 189.364C142.073 189.364 141.58 189.519 141.194 189.83C140.808 190.14 140.522 190.547 140.336 191.051C140.15 191.555 140.058 192.098 140.058 192.682C140.058 193.265 140.15 193.807 140.336 194.307C140.522 194.807 140.808 195.21 141.194 195.517C141.58 195.824 142.073 195.977 142.671 195.977ZM155.496 188.273L152.269 197H150.906L147.678 188.273H149.133L151.542 195.227H151.633L154.042 188.273H155.496ZM160.613 197.182C159.772 197.182 159.047 196.996 158.437 196.625C157.831 196.25 157.363 195.727 157.033 195.057C156.708 194.383 156.545 193.598 156.545 192.705C156.545 191.811 156.708 191.023 157.033 190.341C157.363 189.655 157.821 189.121 158.408 188.739C158.999 188.352 159.689 188.159 160.477 188.159C160.931 188.159 161.38 188.235 161.823 188.386C162.266 188.538 162.67 188.784 163.033 189.125C163.397 189.462 163.687 189.909 163.903 190.466C164.119 191.023 164.227 191.708 164.227 192.523V193.091H157.499V191.932H162.863C162.863 191.439 162.764 191 162.567 190.614C162.374 190.227 162.098 189.922 161.738 189.699C161.382 189.475 160.961 189.364 160.477 189.364C159.942 189.364 159.48 189.496 159.09 189.761C158.704 190.023 158.406 190.364 158.198 190.784C157.99 191.205 157.886 191.655 157.886 192.136V192.909C157.886 193.568 157.999 194.127 158.227 194.585C158.458 195.04 158.778 195.386 159.187 195.625C159.596 195.86 160.071 195.977 160.613 195.977C160.965 195.977 161.283 195.928 161.567 195.83C161.855 195.727 162.103 195.576 162.312 195.375C162.52 195.17 162.681 194.917 162.795 194.614L164.09 194.977C163.954 195.417 163.725 195.803 163.403 196.136C163.081 196.466 162.683 196.723 162.21 196.909C161.736 197.091 161.204 197.182 160.613 197.182ZM166.266 197V188.273H167.562V189.591H167.653C167.812 189.159 168.1 188.809 168.516 188.54C168.933 188.271 169.403 188.136 169.925 188.136C170.024 188.136 170.147 188.138 170.295 188.142C170.442 188.146 170.554 188.152 170.63 188.159V189.523C170.585 189.511 170.48 189.494 170.317 189.472C170.158 189.445 169.99 189.432 169.812 189.432C169.388 189.432 169.009 189.521 168.675 189.699C168.346 189.873 168.085 190.116 167.891 190.426C167.702 190.733 167.607 191.083 167.607 191.477V197H166.266ZM180.265 197.182C179.447 197.182 178.742 196.989 178.151 196.602C177.56 196.216 177.106 195.684 176.788 195.006C176.469 194.328 176.31 193.553 176.31 192.682C176.31 191.795 176.473 191.013 176.799 190.335C177.129 189.653 177.587 189.121 178.174 188.739C178.765 188.352 179.454 188.159 180.242 188.159C180.856 188.159 181.409 188.273 181.901 188.5C182.394 188.727 182.797 189.045 183.112 189.455C183.426 189.864 183.621 190.341 183.697 190.886H182.356C182.254 190.489 182.026 190.136 181.674 189.83C181.326 189.519 180.856 189.364 180.265 189.364C179.742 189.364 179.284 189.5 178.89 189.773C178.5 190.042 178.195 190.422 177.975 190.915C177.759 191.403 177.651 191.977 177.651 192.636C177.651 193.311 177.757 193.898 177.969 194.398C178.185 194.898 178.488 195.286 178.879 195.562C179.272 195.839 179.735 195.977 180.265 195.977C180.613 195.977 180.93 195.917 181.214 195.795C181.498 195.674 181.738 195.5 181.935 195.273C182.132 195.045 182.272 194.773 182.356 194.455H183.697C183.621 194.97 183.433 195.434 183.134 195.847C182.839 196.256 182.447 196.581 181.958 196.824C181.473 197.062 180.909 197.182 180.265 197.182ZM189.202 197.182C188.415 197.182 187.723 196.994 187.129 196.619C186.538 196.244 186.076 195.72 185.742 195.045C185.413 194.371 185.248 193.583 185.248 192.682C185.248 191.773 185.413 190.979 185.742 190.301C186.076 189.623 186.538 189.097 187.129 188.722C187.723 188.347 188.415 188.159 189.202 188.159C189.99 188.159 190.68 188.347 191.271 188.722C191.865 189.097 192.327 189.623 192.657 190.301C192.99 190.979 193.157 191.773 193.157 192.682C193.157 193.583 192.99 194.371 192.657 195.045C192.327 195.72 191.865 196.244 191.271 196.619C190.68 196.994 189.99 197.182 189.202 197.182ZM189.202 195.977C189.801 195.977 190.293 195.824 190.68 195.517C191.066 195.21 191.352 194.807 191.538 194.307C191.723 193.807 191.816 193.265 191.816 192.682C191.816 192.098 191.723 191.555 191.538 191.051C191.352 190.547 191.066 190.14 190.68 189.83C190.293 189.519 189.801 189.364 189.202 189.364C188.604 189.364 188.112 189.519 187.725 189.83C187.339 190.14 187.053 190.547 186.867 191.051C186.682 191.555 186.589 192.098 186.589 192.682C186.589 193.265 186.682 193.807 186.867 194.307C187.053 194.807 187.339 195.21 187.725 195.517C188.112 195.824 188.604 195.977 189.202 195.977ZM200.704 193.432V188.273H202.045V197H200.704V195.523H200.613C200.408 195.966 200.09 196.343 199.658 196.653C199.227 196.96 198.681 197.114 198.022 197.114C197.477 197.114 196.992 196.994 196.567 196.756C196.143 196.513 195.81 196.15 195.567 195.665C195.325 195.176 195.204 194.561 195.204 193.818V188.273H196.545V193.727C196.545 194.364 196.723 194.871 197.079 195.25C197.439 195.629 197.897 195.818 198.454 195.818C198.787 195.818 199.126 195.733 199.471 195.562C199.819 195.392 200.111 195.131 200.346 194.778C200.585 194.426 200.704 193.977 200.704 193.432ZM205.842 191.75V197H204.501V188.273H205.796V189.636H205.91C206.114 189.193 206.425 188.837 206.842 188.568C207.258 188.295 207.796 188.159 208.455 188.159C209.046 188.159 209.563 188.28 210.006 188.523C210.45 188.761 210.794 189.125 211.04 189.614C211.287 190.098 211.41 190.712 211.41 191.455V197H210.069V191.545C210.069 190.86 209.891 190.326 209.535 189.943C209.179 189.557 208.69 189.364 208.069 189.364C207.641 189.364 207.258 189.456 206.921 189.642C206.588 189.828 206.325 190.098 206.131 190.455C205.938 190.811 205.842 191.242 205.842 191.75ZM217.656 188.273V189.409H213.133V188.273H217.656ZM214.451 186.182H215.792V194.5C215.792 194.879 215.847 195.163 215.957 195.352C216.07 195.538 216.214 195.663 216.388 195.727C216.567 195.788 216.754 195.818 216.951 195.818C217.099 195.818 217.22 195.811 217.315 195.795C217.409 195.777 217.485 195.761 217.542 195.75L217.815 196.955C217.724 196.989 217.597 197.023 217.434 197.057C217.271 197.095 217.065 197.114 216.815 197.114C216.436 197.114 216.065 197.032 215.701 196.869C215.341 196.706 215.042 196.458 214.803 196.125C214.568 195.792 214.451 195.371 214.451 194.864V186.182ZM221.201 185.364V197H219.86V185.364H221.201ZM227.316 197.182C226.475 197.182 225.75 196.996 225.14 196.625C224.534 196.25 224.066 195.727 223.737 195.057C223.411 194.383 223.248 193.598 223.248 192.705C223.248 191.811 223.411 191.023 223.737 190.341C224.066 189.655 224.524 189.121 225.112 188.739C225.702 188.352 226.392 188.159 227.18 188.159C227.634 188.159 228.083 188.235 228.526 188.386C228.969 188.538 229.373 188.784 229.737 189.125C230.1 189.462 230.39 189.909 230.606 190.466C230.822 191.023 230.93 191.708 230.93 192.523V193.091H224.202V191.932H229.566C229.566 191.439 229.468 191 229.271 190.614C229.077 190.227 228.801 189.922 228.441 189.699C228.085 189.475 227.665 189.364 227.18 189.364C226.646 189.364 226.183 189.496 225.793 189.761C225.407 190.023 225.11 190.364 224.901 190.784C224.693 191.205 224.589 191.655 224.589 192.136V192.909C224.589 193.568 224.702 194.127 224.93 194.585C225.161 195.04 225.481 195.386 225.89 195.625C226.299 195.86 226.774 195.977 227.316 195.977C227.668 195.977 227.987 195.928 228.271 195.83C228.558 195.727 228.807 195.576 229.015 195.375C229.223 195.17 229.384 194.917 229.498 194.614L230.793 194.977C230.657 195.417 230.428 195.803 230.106 196.136C229.784 196.466 229.386 196.723 228.913 196.909C228.439 197.091 227.907 197.182 227.316 197.182ZM239.151 190.227L237.947 190.568C237.871 190.367 237.759 190.172 237.612 189.983C237.468 189.79 237.271 189.631 237.021 189.506C236.771 189.381 236.451 189.318 236.06 189.318C235.526 189.318 235.081 189.441 234.725 189.688C234.373 189.93 234.197 190.239 234.197 190.614C234.197 190.947 234.318 191.21 234.56 191.403C234.803 191.597 235.182 191.758 235.697 191.886L236.992 192.205C237.772 192.394 238.354 192.684 238.737 193.074C239.119 193.46 239.31 193.958 239.31 194.568C239.31 195.068 239.166 195.515 238.879 195.909C238.594 196.303 238.197 196.614 237.685 196.841C237.174 197.068 236.579 197.182 235.901 197.182C235.011 197.182 234.274 196.989 233.691 196.602C233.108 196.216 232.738 195.652 232.583 194.909L233.856 194.591C233.977 195.061 234.206 195.413 234.543 195.648C234.884 195.883 235.329 196 235.879 196C236.504 196 237 195.867 237.367 195.602C237.738 195.333 237.924 195.011 237.924 194.636C237.924 194.333 237.818 194.08 237.606 193.875C237.394 193.667 237.068 193.511 236.629 193.409L235.174 193.068C234.375 192.879 233.788 192.585 233.413 192.188C233.041 191.786 232.856 191.284 232.856 190.682C232.856 190.189 232.994 189.754 233.271 189.375C233.551 188.996 233.932 188.699 234.413 188.483C234.897 188.267 235.447 188.159 236.06 188.159C236.924 188.159 237.602 188.348 238.094 188.727C238.591 189.106 238.943 189.606 239.151 190.227ZM247.511 190.227L246.306 190.568C246.23 190.367 246.119 190.172 245.971 189.983C245.827 189.79 245.63 189.631 245.38 189.506C245.13 189.381 244.81 189.318 244.42 189.318C243.886 189.318 243.441 189.441 243.085 189.688C242.732 189.93 242.556 190.239 242.556 190.614C242.556 190.947 242.677 191.21 242.92 191.403C243.162 191.597 243.541 191.758 244.056 191.886L245.352 192.205C246.132 192.394 246.713 192.684 247.096 193.074C247.478 193.46 247.67 193.958 247.67 194.568C247.67 195.068 247.526 195.515 247.238 195.909C246.954 196.303 246.556 196.614 246.045 196.841C245.533 197.068 244.939 197.182 244.261 197.182C243.371 197.182 242.634 196.989 242.05 196.602C241.467 196.216 241.098 195.652 240.942 194.909L242.215 194.591C242.336 195.061 242.566 195.413 242.903 195.648C243.244 195.883 243.689 196 244.238 196C244.863 196 245.359 195.867 245.727 195.602C246.098 195.333 246.283 195.011 246.283 194.636C246.283 194.333 246.177 194.08 245.965 193.875C245.753 193.667 245.427 193.511 244.988 193.409L243.533 193.068C242.734 192.879 242.147 192.585 241.772 192.188C241.401 191.786 241.215 191.284 241.215 190.682C241.215 190.189 241.353 189.754 241.63 189.375C241.91 188.996 242.291 188.699 242.772 188.483C243.257 188.267 243.806 188.159 244.42 188.159C245.283 188.159 245.961 188.348 246.454 188.727C246.95 189.106 247.302 189.606 247.511 190.227ZM19.0483 221L16.3892 212.273H17.7983L19.6847 218.955H19.7756L21.6392 212.273H23.071L24.9119 218.932H25.0028L26.8892 212.273H28.2983L25.6392 221H24.321L22.4119 214.295H22.2756L20.3665 221H19.0483ZM32.6392 221.205C32.0862 221.205 31.5843 221.1 31.1335 220.892C30.6828 220.68 30.3248 220.375 30.0597 219.977C29.7945 219.576 29.6619 219.091 29.6619 218.523C29.6619 218.023 29.7604 217.617 29.9574 217.307C30.1544 216.992 30.4176 216.746 30.7472 216.568C31.0767 216.39 31.4403 216.258 31.8381 216.17C32.2396 216.08 32.643 216.008 33.0483 215.955C33.5786 215.886 34.0085 215.835 34.3381 215.801C34.6714 215.763 34.9138 215.701 35.0653 215.614C35.2206 215.527 35.2983 215.375 35.2983 215.159V215.114C35.2983 214.553 35.1449 214.117 34.8381 213.807C34.535 213.496 34.0748 213.341 33.4574 213.341C32.8172 213.341 32.3153 213.481 31.9517 213.761C31.5881 214.042 31.3324 214.341 31.1847 214.659L29.9119 214.205C30.1392 213.674 30.4422 213.261 30.821 212.966C31.2036 212.667 31.6203 212.458 32.071 212.341C32.5256 212.22 32.9725 212.159 33.4119 212.159C33.6922 212.159 34.0142 212.193 34.3778 212.261C34.7453 212.326 35.0994 212.46 35.4403 212.665C35.785 212.869 36.071 213.178 36.2983 213.591C36.5256 214.004 36.6392 214.557 36.6392 215.25V221H35.2983V219.818H35.2301C35.1392 220.008 34.9877 220.21 34.7756 220.426C34.5634 220.642 34.2813 220.826 33.929 220.977C33.5767 221.129 33.1468 221.205 32.6392 221.205ZM32.8438 220C33.3741 220 33.821 219.896 34.1847 219.688C34.5521 219.479 34.8286 219.21 35.0142 218.881C35.2036 218.551 35.2983 218.205 35.2983 217.841V216.614C35.2415 216.682 35.1165 216.744 34.9233 216.801C34.7339 216.854 34.5142 216.902 34.2642 216.943C34.018 216.981 33.7775 217.015 33.5426 217.045C33.3116 217.072 33.1241 217.095 32.9801 217.114C32.6316 217.159 32.3059 217.233 32.0028 217.335C31.7036 217.434 31.4612 217.583 31.2756 217.784C31.0938 217.981 31.0028 218.25 31.0028 218.591C31.0028 219.057 31.1752 219.409 31.5199 219.648C31.8684 219.883 32.3097 220 32.8438 220ZM39.6378 224.273C39.4105 224.273 39.2079 224.254 39.0298 224.216C38.8518 224.182 38.7287 224.148 38.6605 224.114L39.0014 222.932C39.3272 223.015 39.6151 223.045 39.8651 223.023C40.1151 223 40.3366 222.888 40.5298 222.688C40.7268 222.491 40.9067 222.17 41.0696 221.727L41.3196 221.045L38.0923 212.273H39.5469L41.956 219.227H42.0469L44.456 212.273H45.9105L42.206 222.273C42.0393 222.723 41.8329 223.097 41.5866 223.392C41.3404 223.691 41.0545 223.913 40.7287 224.057C40.4067 224.201 40.0431 224.273 39.6378 224.273ZM53.8622 214.227L52.6577 214.568C52.5819 214.367 52.4702 214.172 52.3224 213.983C52.1785 213.79 51.9815 213.631 51.7315 213.506C51.4815 213.381 51.1615 213.318 50.7713 213.318C50.2372 213.318 49.7921 213.441 49.4361 213.688C49.0838 213.93 48.9077 214.239 48.9077 214.614C48.9077 214.947 49.0289 215.21 49.2713 215.403C49.5137 215.597 49.8925 215.758 50.4077 215.886L51.7031 216.205C52.4834 216.394 53.0649 216.684 53.4474 217.074C53.83 217.46 54.0213 217.958 54.0213 218.568C54.0213 219.068 53.8774 219.515 53.5895 219.909C53.3054 220.303 52.9077 220.614 52.3963 220.841C51.8849 221.068 51.2902 221.182 50.6122 221.182C49.7221 221.182 48.9853 220.989 48.402 220.602C47.8187 220.216 47.4493 219.652 47.294 218.909L48.5668 218.591C48.688 219.061 48.9171 219.413 49.2543 219.648C49.5952 219.883 50.0402 220 50.5895 220C51.2145 220 51.7107 219.867 52.0781 219.602C52.4493 219.333 52.6349 219.011 52.6349 218.636C52.6349 218.333 52.5289 218.08 52.3168 217.875C52.1046 217.667 51.7789 217.511 51.3395 217.409L49.8849 217.068C49.0857 216.879 48.4986 216.585 48.1236 216.188C47.7524 215.786 47.5668 215.284 47.5668 214.682C47.5668 214.189 47.705 213.754 47.9815 213.375C48.2618 212.996 48.6425 212.699 49.1236 212.483C49.6084 212.267 50.1577 212.159 50.7713 212.159C51.6349 212.159 52.313 212.348 52.8054 212.727C53.3016 213.106 53.6539 213.606 53.8622 214.227ZM64.3352 212.273V213.409H59.8125V212.273H64.3352ZM61.1307 210.182H62.4716V218.5C62.4716 218.879 62.5265 219.163 62.6364 219.352C62.75 219.538 62.8939 219.663 63.0682 219.727C63.2462 219.788 63.4337 219.818 63.6307 219.818C63.7784 219.818 63.8996 219.811 63.9943 219.795C64.089 219.777 64.1648 219.761 64.2216 219.75L64.4943 220.955C64.4034 220.989 64.2765 221.023 64.1136 221.057C63.9508 221.095 63.7443 221.114 63.4943 221.114C63.1155 221.114 62.7443 221.032 62.3807 220.869C62.0208 220.706 61.7216 220.458 61.483 220.125C61.2481 219.792 61.1307 219.371 61.1307 218.864V210.182ZM69.804 221.182C69.0161 221.182 68.3248 220.994 67.7301 220.619C67.1392 220.244 66.6771 219.72 66.3438 219.045C66.0142 218.371 65.8494 217.583 65.8494 216.682C65.8494 215.773 66.0142 214.979 66.3438 214.301C66.6771 213.623 67.1392 213.097 67.7301 212.722C68.3248 212.347 69.0161 212.159 69.804 212.159C70.5919 212.159 71.2813 212.347 71.8722 212.722C72.4669 213.097 72.929 213.623 73.2585 214.301C73.5919 214.979 73.7585 215.773 73.7585 216.682C73.7585 217.583 73.5919 218.371 73.2585 219.045C72.929 219.72 72.4669 220.244 71.8722 220.619C71.2813 220.994 70.5919 221.182 69.804 221.182ZM69.804 219.977C70.4025 219.977 70.8949 219.824 71.2812 219.517C71.6676 219.21 71.9536 218.807 72.1392 218.307C72.3248 217.807 72.4176 217.265 72.4176 216.682C72.4176 216.098 72.3248 215.555 72.1392 215.051C71.9536 214.547 71.6676 214.14 71.2812 213.83C70.8949 213.519 70.4025 213.364 69.804 213.364C69.2055 213.364 68.7131 213.519 68.3267 213.83C67.9403 214.14 67.6544 214.547 67.4688 215.051C67.2831 215.555 67.1903 216.098 67.1903 216.682C67.1903 217.265 67.2831 217.807 67.4688 218.307C67.6544 218.807 67.9403 219.21 68.3267 219.517C68.7131 219.824 69.2055 219.977 69.804 219.977ZM86.4872 214.227L85.2827 214.568C85.2069 214.367 85.0952 214.172 84.9474 213.983C84.8035 213.79 84.6065 213.631 84.3565 213.506C84.1065 213.381 83.7865 213.318 83.3963 213.318C82.8622 213.318 82.4171 213.441 82.0611 213.688C81.7088 213.93 81.5327 214.239 81.5327 214.614C81.5327 214.947 81.6539 215.21 81.8963 215.403C82.1387 215.597 82.5175 215.758 83.0327 215.886L84.3281 216.205C85.1084 216.394 85.6899 216.684 86.0724 217.074C86.455 217.46 86.6463 217.958 86.6463 218.568C86.6463 219.068 86.5024 219.515 86.2145 219.909C85.9304 220.303 85.5327 220.614 85.0213 220.841C84.5099 221.068 83.9152 221.182 83.2372 221.182C82.3471 221.182 81.6103 220.989 81.027 220.602C80.4437 220.216 80.0743 219.652 79.919 218.909L81.1918 218.591C81.313 219.061 81.5421 219.413 81.8793 219.648C82.2202 219.883 82.6652 220 83.2145 220C83.8395 220 84.3357 219.867 84.7031 219.602C85.0743 219.333 85.2599 219.011 85.2599 218.636C85.2599 218.333 85.1539 218.08 84.9418 217.875C84.7296 217.667 84.4039 217.511 83.9645 217.409L82.5099 217.068C81.7107 216.879 81.1236 216.585 80.7486 216.188C80.3774 215.786 80.1918 215.284 80.1918 214.682C80.1918 214.189 80.33 213.754 80.6065 213.375C80.8868 212.996 81.2675 212.699 81.7486 212.483C82.2334 212.267 82.7827 212.159 83.3963 212.159C84.2599 212.159 84.938 212.348 85.4304 212.727C85.9266 213.106 86.2789 213.606 86.4872 214.227ZM92.4602 212.273V213.409H87.9375V212.273H92.4602ZM89.2557 210.182H90.5966V218.5C90.5966 218.879 90.6515 219.163 90.7614 219.352C90.875 219.538 91.0189 219.663 91.1932 219.727C91.3712 219.788 91.5587 219.818 91.7557 219.818C91.9034 219.818 92.0246 219.811 92.1193 219.795C92.214 219.777 92.2898 219.761 92.3466 219.75L92.6193 220.955C92.5284 220.989 92.4015 221.023 92.2386 221.057C92.0758 221.095 91.8693 221.114 91.6193 221.114C91.2405 221.114 90.8693 221.032 90.5057 220.869C90.1458 220.706 89.8466 220.458 89.608 220.125C89.3731 219.792 89.2557 219.371 89.2557 218.864V210.182ZM97.0455 221.205C96.4924 221.205 95.9905 221.1 95.5398 220.892C95.089 220.68 94.7311 220.375 94.4659 219.977C94.2008 219.576 94.0682 219.091 94.0682 218.523C94.0682 218.023 94.1667 217.617 94.3636 217.307C94.5606 216.992 94.8239 216.746 95.1534 216.568C95.483 216.39 95.8466 216.258 96.2443 216.17C96.6458 216.08 97.0492 216.008 97.4545 215.955C97.9848 215.886 98.4148 215.835 98.7443 215.801C99.0777 215.763 99.3201 215.701 99.4716 215.614C99.6269 215.527 99.7045 215.375 99.7045 215.159V215.114C99.7045 214.553 99.5511 214.117 99.2443 213.807C98.9413 213.496 98.4811 213.341 97.8636 213.341C97.2235 213.341 96.7216 213.481 96.358 213.761C95.9943 214.042 95.7386 214.341 95.5909 214.659L94.3182 214.205C94.5455 213.674 94.8485 213.261 95.2273 212.966C95.6098 212.667 96.0265 212.458 96.4773 212.341C96.9318 212.22 97.3788 212.159 97.8182 212.159C98.0985 212.159 98.4205 212.193 98.7841 212.261C99.1515 212.326 99.5057 212.46 99.8466 212.665C100.191 212.869 100.477 213.178 100.705 213.591C100.932 214.004 101.045 214.557 101.045 215.25V221H99.7045V219.818H99.6364C99.5455 220.008 99.3939 220.21 99.1818 220.426C98.9697 220.642 98.6875 220.826 98.3352 220.977C97.983 221.129 97.553 221.205 97.0455 221.205ZM97.25 220C97.7803 220 98.2273 219.896 98.5909 219.688C98.9583 219.479 99.2348 219.21 99.4205 218.881C99.6098 218.551 99.7045 218.205 99.7045 217.841V216.614C99.6477 216.682 99.5227 216.744 99.3295 216.801C99.1402 216.854 98.9205 216.902 98.6705 216.943C98.4242 216.981 98.1837 217.015 97.9489 217.045C97.7178 217.072 97.5303 217.095 97.3864 217.114C97.0379 217.159 96.7121 217.233 96.4091 217.335C96.1098 217.434 95.8674 217.583 95.6818 217.784C95.5 217.981 95.4091 218.25 95.4091 218.591C95.4091 219.057 95.5814 219.409 95.9261 219.648C96.2746 219.883 96.7159 220 97.25 220ZM104.044 224.273C103.817 224.273 103.614 224.254 103.436 224.216C103.258 224.182 103.135 224.148 103.067 224.114L103.408 222.932C103.733 223.015 104.021 223.045 104.271 223.023C104.521 223 104.743 222.888 104.936 222.688C105.133 222.491 105.313 222.17 105.476 221.727L105.726 221.045L102.499 212.273H103.953L106.362 219.227H106.453L108.862 212.273H110.317L106.612 222.273C106.446 222.723 106.239 223.097 105.993 223.392C105.747 223.691 105.461 223.913 105.135 224.057C104.813 224.201 104.449 224.273 104.044 224.273ZM120.473 212.273V213.409H115.768V212.273H120.473ZM117.178 221V211.068C117.178 210.568 117.295 210.152 117.53 209.818C117.765 209.485 118.07 209.235 118.445 209.068C118.82 208.902 119.215 208.818 119.632 208.818C119.962 208.818 120.231 208.845 120.439 208.898C120.647 208.951 120.803 209 120.905 209.045L120.518 210.205C120.45 210.182 120.356 210.153 120.234 210.119C120.117 210.085 119.962 210.068 119.768 210.068C119.325 210.068 119.005 210.18 118.808 210.403C118.615 210.627 118.518 210.955 118.518 211.386V221H117.178ZM122.352 221V212.273H123.693V221H122.352ZM123.034 210.818C122.773 210.818 122.547 210.729 122.358 210.551C122.172 210.373 122.08 210.159 122.08 209.909C122.08 209.659 122.172 209.445 122.358 209.267C122.547 209.089 122.773 209 123.034 209C123.295 209 123.519 209.089 123.705 209.267C123.894 209.445 123.989 209.659 123.989 209.909C123.989 210.159 123.894 210.373 123.705 210.551C123.519 210.729 123.295 210.818 123.034 210.818ZM129.945 212.273V213.409H125.422V212.273H129.945ZM126.74 210.182H128.081V218.5C128.081 218.879 128.136 219.163 128.246 219.352C128.359 219.538 128.503 219.663 128.678 219.727C128.856 219.788 129.043 219.818 129.24 219.818C129.388 219.818 129.509 219.811 129.604 219.795C129.698 219.777 129.774 219.761 129.831 219.75L130.104 220.955C130.013 220.989 129.886 221.023 129.723 221.057C129.56 221.095 129.354 221.114 129.104 221.114C128.725 221.114 128.354 221.032 127.99 220.869C127.63 220.706 127.331 220.458 127.092 220.125C126.857 219.792 126.74 219.371 126.74 218.864V210.182ZM138.439 221L135.78 212.273H137.189L139.075 218.955H139.166L141.03 212.273H142.462L144.303 218.932H144.393L146.28 212.273H147.689L145.03 221H143.712L141.803 214.295H141.666L139.757 221H138.439ZM150.803 215.75V221H149.462V209.364H150.803V213.636H150.916C151.121 213.186 151.428 212.828 151.837 212.562C152.25 212.294 152.799 212.159 153.484 212.159C154.079 212.159 154.6 212.278 155.047 212.517C155.494 212.752 155.84 213.114 156.087 213.602C156.337 214.087 156.462 214.705 156.462 215.455V221H155.121V215.545C155.121 214.852 154.941 214.316 154.581 213.938C154.225 213.555 153.731 213.364 153.098 213.364C152.659 213.364 152.265 213.456 151.916 213.642C151.571 213.828 151.299 214.098 151.098 214.455C150.901 214.811 150.803 215.242 150.803 215.75ZM158.915 221V212.273H160.256V221H158.915ZM159.597 210.818C159.335 210.818 159.11 210.729 158.92 210.551C158.735 210.373 158.642 210.159 158.642 209.909C158.642 209.659 158.735 209.445 158.92 209.267C159.11 209.089 159.335 209 159.597 209C159.858 209 160.081 209.089 160.267 209.267C160.456 209.445 160.551 209.659 160.551 209.909C160.551 210.159 160.456 210.373 160.267 210.551C160.081 210.729 159.858 210.818 159.597 210.818ZM164.053 209.364V221H162.712V209.364H164.053ZM170.168 221.182C169.327 221.182 168.601 220.996 167.991 220.625C167.385 220.25 166.918 219.727 166.588 219.057C166.262 218.383 166.099 217.598 166.099 216.705C166.099 215.811 166.262 215.023 166.588 214.341C166.918 213.655 167.376 213.121 167.963 212.739C168.554 212.352 169.243 212.159 170.031 212.159C170.486 212.159 170.935 212.235 171.378 212.386C171.821 212.538 172.224 212.784 172.588 213.125C172.952 213.462 173.241 213.909 173.457 214.466C173.673 215.023 173.781 215.708 173.781 216.523V217.091H167.054V215.932H172.418C172.418 215.439 172.319 215 172.122 214.614C171.929 214.227 171.652 213.922 171.293 213.699C170.937 213.475 170.516 213.364 170.031 213.364C169.497 213.364 169.035 213.496 168.645 213.761C168.259 214.023 167.961 214.364 167.753 214.784C167.545 215.205 167.44 215.655 167.44 216.136V216.909C167.44 217.568 167.554 218.127 167.781 218.585C168.012 219.04 168.332 219.386 168.741 219.625C169.151 219.86 169.626 219.977 170.168 219.977C170.52 219.977 170.838 219.928 171.122 219.83C171.41 219.727 171.658 219.576 171.866 219.375C172.075 219.17 172.236 218.917 172.349 218.614L173.645 218.977C173.509 219.417 173.279 219.803 172.957 220.136C172.635 220.466 172.238 220.723 171.764 220.909C171.291 221.091 170.759 221.182 170.168 221.182ZM180.321 224.273V212.273H181.616V213.659H181.776C181.874 213.508 182.01 213.314 182.185 213.08C182.363 212.841 182.616 212.629 182.946 212.443C183.279 212.254 183.73 212.159 184.298 212.159C185.033 212.159 185.681 212.343 186.241 212.71C186.802 213.078 187.24 213.598 187.554 214.273C187.868 214.947 188.026 215.742 188.026 216.659C188.026 217.583 187.868 218.384 187.554 219.062C187.24 219.737 186.804 220.259 186.247 220.631C185.69 220.998 185.048 221.182 184.321 221.182C183.76 221.182 183.312 221.089 182.974 220.903C182.637 220.714 182.378 220.5 182.196 220.261C182.014 220.019 181.874 219.818 181.776 219.659H181.662V224.273H180.321ZM181.639 216.636C181.639 217.295 181.736 217.877 181.929 218.381C182.122 218.881 182.404 219.273 182.776 219.557C183.147 219.837 183.601 219.977 184.139 219.977C184.7 219.977 185.168 219.83 185.543 219.534C185.921 219.235 186.205 218.833 186.395 218.33C186.588 217.822 186.685 217.258 186.685 216.636C186.685 216.023 186.59 215.47 186.401 214.977C186.215 214.481 185.933 214.089 185.554 213.801C185.179 213.509 184.707 213.364 184.139 213.364C183.594 213.364 183.135 213.502 182.764 213.778C182.393 214.051 182.113 214.434 181.923 214.926C181.734 215.415 181.639 215.985 181.639 216.636ZM191.412 209.364V221H190.071V209.364H191.412ZM196.436 221.205C195.883 221.205 195.381 221.1 194.93 220.892C194.48 220.68 194.122 220.375 193.857 219.977C193.591 219.576 193.459 219.091 193.459 218.523C193.459 218.023 193.557 217.617 193.754 217.307C193.951 216.992 194.214 216.746 194.544 216.568C194.874 216.39 195.237 216.258 195.635 216.17C196.036 216.08 196.44 216.008 196.845 215.955C197.375 215.886 197.805 215.835 198.135 215.801C198.468 215.763 198.711 215.701 198.862 215.614C199.018 215.527 199.095 215.375 199.095 215.159V215.114C199.095 214.553 198.942 214.117 198.635 213.807C198.332 213.496 197.872 213.341 197.254 213.341C196.614 213.341 196.112 213.481 195.749 213.761C195.385 214.042 195.129 214.341 194.982 214.659L193.709 214.205C193.936 213.674 194.239 213.261 194.618 212.966C195 212.667 195.417 212.458 195.868 212.341C196.322 212.22 196.769 212.159 197.209 212.159C197.489 212.159 197.811 212.193 198.175 212.261C198.542 212.326 198.896 212.46 199.237 212.665C199.582 212.869 199.868 213.178 200.095 213.591C200.322 214.004 200.436 214.557 200.436 215.25V221H199.095V219.818H199.027C198.936 220.008 198.785 220.21 198.572 220.426C198.36 220.642 198.078 220.826 197.726 220.977C197.374 221.129 196.944 221.205 196.436 221.205ZM196.641 220C197.171 220 197.618 219.896 197.982 219.688C198.349 219.479 198.625 219.21 198.811 218.881C199 218.551 199.095 218.205 199.095 217.841V216.614C199.038 216.682 198.913 216.744 198.72 216.801C198.531 216.854 198.311 216.902 198.061 216.943C197.815 216.981 197.574 217.015 197.339 217.045C197.108 217.072 196.921 217.095 196.777 217.114C196.429 217.159 196.103 217.233 195.8 217.335C195.5 217.434 195.258 217.583 195.072 217.784C194.891 217.981 194.8 218.25 194.8 218.591C194.8 219.057 194.972 219.409 195.317 219.648C195.665 219.883 196.107 220 196.641 220ZM203.435 224.273C203.207 224.273 203.005 224.254 202.827 224.216C202.649 224.182 202.526 224.148 202.457 224.114L202.798 222.932C203.124 223.015 203.412 223.045 203.662 223.023C203.912 223 204.134 222.888 204.327 222.688C204.524 222.491 204.704 222.17 204.866 221.727L205.116 221.045L201.889 212.273H203.344L205.753 219.227H205.844L208.253 212.273H209.707L206.003 222.273C205.836 222.723 205.63 223.097 205.384 223.392C205.137 223.691 204.851 223.913 204.526 224.057C204.204 224.201 203.84 224.273 203.435 224.273ZM211.477 221V212.273H212.818V221H211.477ZM212.159 210.818C211.898 210.818 211.672 210.729 211.483 210.551C211.297 210.373 211.205 210.159 211.205 209.909C211.205 209.659 211.297 209.445 211.483 209.267C211.672 209.089 211.898 209 212.159 209C212.42 209 212.644 209.089 212.83 209.267C213.019 209.445 213.114 209.659 213.114 209.909C213.114 210.159 213.019 210.373 212.83 210.551C212.644 210.729 212.42 210.818 212.159 210.818ZM216.615 215.75V221H215.274V212.273H216.57V213.636H216.683C216.888 213.193 217.198 212.837 217.615 212.568C218.032 212.295 218.57 212.159 219.229 212.159C219.82 212.159 220.337 212.28 220.78 212.523C221.223 212.761 221.568 213.125 221.814 213.614C222.06 214.098 222.183 214.712 222.183 215.455V221H220.842V215.545C220.842 214.86 220.664 214.326 220.308 213.943C219.952 213.557 219.464 213.364 218.842 213.364C218.414 213.364 218.032 213.456 217.695 213.642C217.361 213.828 217.098 214.098 216.905 214.455C216.712 214.811 216.615 215.242 216.615 215.75ZM228.156 224.455C227.509 224.455 226.952 224.371 226.486 224.205C226.02 224.042 225.632 223.826 225.321 223.557C225.014 223.292 224.77 223.008 224.588 222.705L225.656 221.955C225.777 222.114 225.931 222.295 226.116 222.5C226.302 222.708 226.556 222.888 226.878 223.04C227.204 223.195 227.63 223.273 228.156 223.273C228.861 223.273 229.442 223.102 229.901 222.761C230.359 222.42 230.588 221.886 230.588 221.159V219.386H230.474C230.376 219.545 230.236 219.742 230.054 219.977C229.876 220.208 229.618 220.415 229.281 220.597C228.948 220.775 228.497 220.864 227.929 220.864C227.224 220.864 226.592 220.697 226.031 220.364C225.474 220.03 225.033 219.545 224.707 218.909C224.385 218.273 224.224 217.5 224.224 216.591C224.224 215.697 224.382 214.919 224.696 214.256C225.01 213.589 225.448 213.074 226.009 212.71C226.569 212.343 227.217 212.159 227.952 212.159C228.52 212.159 228.971 212.254 229.304 212.443C229.641 212.629 229.899 212.841 230.077 213.08C230.259 213.314 230.399 213.508 230.497 213.659H230.634V212.273H231.929V221.25C231.929 222 231.759 222.61 231.418 223.08C231.08 223.553 230.626 223.9 230.054 224.119C229.486 224.343 228.853 224.455 228.156 224.455ZM228.111 219.659C228.649 219.659 229.103 219.536 229.474 219.29C229.846 219.044 230.128 218.689 230.321 218.227C230.514 217.765 230.611 217.212 230.611 216.568C230.611 215.939 230.516 215.384 230.327 214.903C230.137 214.422 229.857 214.045 229.486 213.773C229.115 213.5 228.656 213.364 228.111 213.364C227.543 213.364 227.069 213.508 226.69 213.795C226.315 214.083 226.033 214.47 225.844 214.955C225.658 215.439 225.565 215.977 225.565 216.568C225.565 217.174 225.66 217.71 225.849 218.176C226.043 218.638 226.327 219.002 226.702 219.267C227.08 219.528 227.55 219.659 228.111 219.659ZM35.5831 248.273C35.3558 248.273 35.1532 248.254 34.9751 248.216C34.7971 248.182 34.674 248.148 34.6058 248.114L34.9467 246.932C35.2725 247.015 35.5604 247.045 35.8104 247.023C36.0604 247 36.282 246.888 36.4751 246.688C36.6721 246.491 36.852 246.17 37.0149 245.727L37.2649 245.045L34.0376 236.273H35.4922L37.9013 243.227H37.9922L40.4013 236.273H41.8558L38.1513 246.273C37.9846 246.723 37.7782 247.097 37.532 247.392C37.2857 247.691 36.9998 247.913 36.674 248.057C36.352 248.201 35.9884 248.273 35.5831 248.273ZM46.8587 245.182C46.0708 245.182 45.3795 244.994 44.7848 244.619C44.1939 244.244 43.7318 243.72 43.3984 243.045C43.0689 242.371 42.9041 241.583 42.9041 240.682C42.9041 239.773 43.0689 238.979 43.3984 238.301C43.7318 237.623 44.1939 237.097 44.7848 236.722C45.3795 236.347 46.0708 236.159 46.8587 236.159C47.6465 236.159 48.3359 236.347 48.9268 236.722C49.5215 237.097 49.9837 237.623 50.3132 238.301C50.6465 238.979 50.8132 239.773 50.8132 240.682C50.8132 241.583 50.6465 242.371 50.3132 243.045C49.9837 243.72 49.5215 244.244 48.9268 244.619C48.3359 244.994 47.6465 245.182 46.8587 245.182ZM46.8587 243.977C47.4571 243.977 47.9496 243.824 48.3359 243.517C48.7223 243.21 49.0083 242.807 49.1939 242.307C49.3795 241.807 49.4723 241.265 49.4723 240.682C49.4723 240.098 49.3795 239.555 49.1939 239.051C49.0083 238.547 48.7223 238.14 48.3359 237.83C47.9496 237.519 47.4571 237.364 46.8587 237.364C46.2602 237.364 45.7678 237.519 45.3814 237.83C44.995 238.14 44.709 238.547 44.5234 239.051C44.3378 239.555 44.245 240.098 44.245 240.682C44.245 241.265 44.3378 241.807 44.5234 242.307C44.709 242.807 44.995 243.21 45.3814 243.517C45.7678 243.824 46.2602 243.977 46.8587 243.977ZM58.3601 241.432V236.273H59.701V245H58.3601V243.523H58.2692C58.0646 243.966 57.7464 244.343 57.3146 244.653C56.8828 244.96 56.3374 245.114 55.6783 245.114C55.1328 245.114 54.648 244.994 54.2237 244.756C53.7995 244.513 53.4661 244.15 53.2237 243.665C52.9813 243.176 52.8601 242.561 52.8601 241.818V236.273H54.201V241.727C54.201 242.364 54.379 242.871 54.7351 243.25C55.0949 243.629 55.5533 243.818 56.1101 243.818C56.4434 243.818 56.7824 243.733 57.1271 243.562C57.4756 243.392 57.7673 243.131 58.0021 242.778C58.2408 242.426 58.3601 241.977 58.3601 241.432ZM62.157 245V236.273H63.4524V237.591H63.5433C63.7024 237.159 63.9903 236.809 64.407 236.54C64.8236 236.271 65.2933 236.136 65.8161 236.136C65.9145 236.136 66.0376 236.138 66.1854 236.142C66.3331 236.146 66.4448 236.152 66.5206 236.159V237.523C66.4751 237.511 66.371 237.494 66.2081 237.472C66.049 237.445 65.8804 237.432 65.7024 237.432C65.2782 237.432 64.8994 237.521 64.5661 237.699C64.2365 237.873 63.9751 238.116 63.782 238.426C63.5926 238.733 63.4979 239.083 63.4979 239.477V245H62.157ZM76.4964 236.273V237.409H71.7919V236.273H76.4964ZM73.201 245V235.068C73.201 234.568 73.3184 234.152 73.5533 233.818C73.7881 233.485 74.093 233.235 74.468 233.068C74.843 232.902 75.2389 232.818 75.6555 232.818C75.9851 232.818 76.254 232.845 76.4624 232.898C76.6707 232.951 76.826 233 76.9283 233.045L76.5419 234.205C76.4737 234.182 76.379 234.153 76.2578 234.119C76.1404 234.085 75.9851 234.068 75.7919 234.068C75.3487 234.068 75.0286 234.18 74.8317 234.403C74.6385 234.627 74.5419 234.955 74.5419 235.386V245H73.201ZM80.6939 245.205C80.1409 245.205 79.639 245.1 79.1882 244.892C78.7375 244.68 78.3795 244.375 78.1143 243.977C77.8492 243.576 77.7166 243.091 77.7166 242.523C77.7166 242.023 77.8151 241.617 78.0121 241.307C78.209 240.992 78.4723 240.746 78.8018 240.568C79.1314 240.39 79.495 240.258 79.8928 240.17C80.2943 240.08 80.6977 240.008 81.103 239.955C81.6333 239.886 82.0632 239.835 82.3928 239.801C82.7261 239.763 82.9685 239.701 83.12 239.614C83.2753 239.527 83.353 239.375 83.353 239.159V239.114C83.353 238.553 83.1996 238.117 82.8928 237.807C82.5897 237.496 82.1295 237.341 81.5121 237.341C80.8719 237.341 80.37 237.481 80.0064 237.761C79.6428 238.042 79.3871 238.341 79.2393 238.659L77.9666 238.205C78.1939 237.674 78.4969 237.261 78.8757 236.966C79.2583 236.667 79.675 236.458 80.1257 236.341C80.5803 236.22 81.0272 236.159 81.4666 236.159C81.7469 236.159 82.0689 236.193 82.4325 236.261C82.8 236.326 83.1541 236.46 83.495 236.665C83.8397 236.869 84.1257 237.178 84.353 237.591C84.5803 238.004 84.6939 238.557 84.6939 239.25V245H83.353V243.818H83.2848C83.1939 244.008 83.0424 244.21 82.8303 244.426C82.6181 244.642 82.3359 244.826 81.9837 244.977C81.6314 245.129 81.2015 245.205 80.6939 245.205ZM80.8984 244C81.4287 244 81.8757 243.896 82.2393 243.688C82.6068 243.479 82.8833 243.21 83.0689 242.881C83.2583 242.551 83.353 242.205 83.353 241.841V240.614C83.2962 240.682 83.1712 240.744 82.978 240.801C82.7886 240.854 82.5689 240.902 82.3189 240.943C82.0727 240.981 81.8321 241.015 81.5973 241.045C81.3662 241.072 81.1787 241.095 81.0348 241.114C80.6863 241.159 80.3606 241.233 80.0575 241.335C79.7583 241.434 79.5159 241.583 79.3303 241.784C79.1484 241.981 79.0575 242.25 79.0575 242.591C79.0575 243.057 79.2299 243.409 79.5746 243.648C79.9231 243.883 80.3643 244 80.8984 244ZM93.9652 236.273L90.7379 245H89.3743L86.147 236.273H87.6016L90.0107 243.227H90.1016L92.5107 236.273H93.9652ZM98.968 245.182C98.1802 245.182 97.4889 244.994 96.8942 244.619C96.3033 244.244 95.8411 243.72 95.5078 243.045C95.1783 242.371 95.0135 241.583 95.0135 240.682C95.0135 239.773 95.1783 238.979 95.5078 238.301C95.8411 237.623 96.3033 237.097 96.8942 236.722C97.4889 236.347 98.1802 236.159 98.968 236.159C99.7559 236.159 100.445 236.347 101.036 236.722C101.631 237.097 102.093 237.623 102.423 238.301C102.756 238.979 102.923 239.773 102.923 240.682C102.923 241.583 102.756 242.371 102.423 243.045C102.093 243.72 101.631 244.244 101.036 244.619C100.445 244.994 99.7559 245.182 98.968 245.182ZM98.968 243.977C99.5665 243.977 100.059 243.824 100.445 243.517C100.832 243.21 101.118 242.807 101.303 242.307C101.489 241.807 101.582 241.265 101.582 240.682C101.582 240.098 101.489 239.555 101.303 239.051C101.118 238.547 100.832 238.14 100.445 237.83C100.059 237.519 99.5665 237.364 98.968 237.364C98.3696 237.364 97.8771 237.519 97.4908 237.83C97.1044 238.14 96.8184 238.547 96.6328 239.051C96.4472 239.555 96.3544 240.098 96.3544 240.682C96.3544 241.265 96.4472 241.807 96.6328 242.307C96.8184 242.807 97.1044 243.21 97.4908 243.517C97.8771 243.824 98.3696 243.977 98.968 243.977ZM104.969 245V236.273H106.265V237.591H106.356C106.515 237.159 106.803 236.809 107.219 236.54C107.636 236.271 108.106 236.136 108.629 236.136C108.727 236.136 108.85 236.138 108.998 236.142C109.146 236.146 109.257 236.152 109.333 236.159V237.523C109.288 237.511 109.183 237.494 109.021 237.472C108.862 237.445 108.693 237.432 108.515 237.432C108.091 237.432 107.712 237.521 107.379 237.699C107.049 237.873 106.788 238.116 106.594 238.426C106.405 238.733 106.31 239.083 106.31 239.477V245H104.969ZM110.923 245V236.273H112.263V245H110.923ZM111.604 234.818C111.343 234.818 111.118 234.729 110.928 234.551C110.743 234.373 110.65 234.159 110.65 233.909C110.65 233.659 110.743 233.445 110.928 233.267C111.118 233.089 111.343 233 111.604 233C111.866 233 112.089 233.089 112.275 233.267C112.464 233.445 112.559 233.659 112.559 233.909C112.559 234.159 112.464 234.373 112.275 234.551C112.089 234.729 111.866 234.818 111.604 234.818ZM118.515 236.273V237.409H113.992V236.273H118.515ZM115.31 234.182H116.651V242.5C116.651 242.879 116.706 243.163 116.816 243.352C116.93 243.538 117.074 243.663 117.248 243.727C117.426 243.788 117.613 243.818 117.81 243.818C117.958 243.818 118.079 243.811 118.174 243.795C118.269 243.777 118.344 243.761 118.401 243.75L118.674 244.955C118.583 244.989 118.456 245.023 118.293 245.057C118.13 245.095 117.924 245.114 117.674 245.114C117.295 245.114 116.924 245.032 116.56 244.869C116.201 244.706 115.901 244.458 115.663 244.125C115.428 243.792 115.31 243.371 115.31 242.864V234.182ZM124.097 245.182C123.256 245.182 122.531 244.996 121.921 244.625C121.315 244.25 120.847 243.727 120.518 243.057C120.192 242.383 120.029 241.598 120.029 240.705C120.029 239.811 120.192 239.023 120.518 238.341C120.847 237.655 121.306 237.121 121.893 236.739C122.484 236.352 123.173 236.159 123.961 236.159C124.415 236.159 124.864 236.235 125.308 236.386C125.751 236.538 126.154 236.784 126.518 237.125C126.881 237.462 127.171 237.909 127.387 238.466C127.603 239.023 127.711 239.708 127.711 240.523V241.091H120.984V239.932H126.347C126.347 239.439 126.249 239 126.052 238.614C125.859 238.227 125.582 237.922 125.222 237.699C124.866 237.475 124.446 237.364 123.961 237.364C123.427 237.364 122.965 237.496 122.575 237.761C122.188 238.023 121.891 238.364 121.683 238.784C121.474 239.205 121.37 239.655 121.37 240.136V240.909C121.37 241.568 121.484 242.127 121.711 242.585C121.942 243.04 122.262 243.386 122.671 243.625C123.08 243.86 123.556 243.977 124.097 243.977C124.45 243.977 124.768 243.928 125.052 243.83C125.34 243.727 125.588 243.576 125.796 243.375C126.004 243.17 126.165 242.917 126.279 242.614L127.575 242.977C127.438 243.417 127.209 243.803 126.887 244.136C126.565 244.466 126.167 244.723 125.694 244.909C125.22 245.091 124.688 245.182 124.097 245.182ZM134.91 233.364L138.364 243.159H138.501L141.955 233.364H143.433L139.16 245H137.705L133.433 233.364H134.91ZM145.245 245V233.364H149.177C150.086 233.364 150.832 233.519 151.415 233.83C151.999 234.136 152.431 234.559 152.711 235.097C152.991 235.634 153.131 236.246 153.131 236.932C153.131 237.617 152.991 238.225 152.711 238.756C152.431 239.286 152.001 239.703 151.421 240.006C150.842 240.305 150.101 240.455 149.2 240.455H146.018V239.182H149.154C149.775 239.182 150.275 239.091 150.654 238.909C151.037 238.727 151.313 238.47 151.484 238.136C151.658 237.799 151.745 237.398 151.745 236.932C151.745 236.466 151.658 236.059 151.484 235.71C151.309 235.362 151.031 235.093 150.648 234.903C150.266 234.71 149.76 234.614 149.131 234.614H146.654V245H145.245ZM150.722 239.773L153.586 245H151.95L149.131 239.773H150.722ZM167.934 237C167.809 236.617 167.644 236.275 167.44 235.972C167.239 235.665 166.998 235.403 166.718 235.188C166.442 234.972 166.127 234.807 165.775 234.693C165.423 234.58 165.036 234.523 164.616 234.523C163.926 234.523 163.299 234.701 162.735 235.057C162.171 235.413 161.722 235.938 161.388 236.631C161.055 237.324 160.888 238.174 160.888 239.182C160.888 240.189 161.057 241.04 161.394 241.733C161.731 242.426 162.188 242.951 162.763 243.307C163.339 243.663 163.987 243.841 164.707 243.841C165.373 243.841 165.96 243.699 166.468 243.415C166.979 243.127 167.377 242.722 167.661 242.199C167.949 241.672 168.093 241.053 168.093 240.341L168.525 240.432H165.025V239.182H169.457V240.432C169.457 241.39 169.252 242.223 168.843 242.932C168.438 243.64 167.877 244.189 167.161 244.58C166.449 244.966 165.631 245.159 164.707 245.159C163.676 245.159 162.771 244.917 161.991 244.432C161.214 243.947 160.608 243.258 160.173 242.364C159.741 241.47 159.525 240.409 159.525 239.182C159.525 238.261 159.648 237.434 159.894 236.699C160.144 235.96 160.496 235.331 160.951 234.812C161.406 234.294 161.943 233.896 162.565 233.619C163.186 233.343 163.87 233.205 164.616 233.205C165.229 233.205 165.801 233.297 166.332 233.483C166.866 233.665 167.341 233.924 167.758 234.261C168.178 234.595 168.529 234.994 168.809 235.46C169.089 235.922 169.282 236.436 169.388 237H167.934ZM174.256 245.205C173.703 245.205 173.201 245.1 172.751 244.892C172.3 244.68 171.942 244.375 171.677 243.977C171.412 243.576 171.279 243.091 171.279 242.523C171.279 242.023 171.378 241.617 171.575 241.307C171.772 240.992 172.035 240.746 172.364 240.568C172.694 240.39 173.058 240.258 173.455 240.17C173.857 240.08 174.26 240.008 174.665 239.955C175.196 239.886 175.626 239.835 175.955 239.801C176.289 239.763 176.531 239.701 176.683 239.614C176.838 239.527 176.915 239.375 176.915 239.159V239.114C176.915 238.553 176.762 238.117 176.455 237.807C176.152 237.496 175.692 237.341 175.075 237.341C174.434 237.341 173.933 237.481 173.569 237.761C173.205 238.042 172.95 238.341 172.802 238.659L171.529 238.205C171.756 237.674 172.059 237.261 172.438 236.966C172.821 236.667 173.237 236.458 173.688 236.341C174.143 236.22 174.59 236.159 175.029 236.159C175.309 236.159 175.631 236.193 175.995 236.261C176.362 236.326 176.717 236.46 177.058 236.665C177.402 236.869 177.688 237.178 177.915 237.591C178.143 238.004 178.256 238.557 178.256 239.25V245H176.915V243.818H176.847C176.756 244.008 176.605 244.21 176.393 244.426C176.181 244.642 175.898 244.826 175.546 244.977C175.194 245.129 174.764 245.205 174.256 245.205ZM174.461 244C174.991 244 175.438 243.896 175.802 243.688C176.169 243.479 176.446 243.21 176.631 242.881C176.821 242.551 176.915 242.205 176.915 241.841V240.614C176.859 240.682 176.734 240.744 176.54 240.801C176.351 240.854 176.131 240.902 175.881 240.943C175.635 240.981 175.395 241.015 175.16 241.045C174.929 241.072 174.741 241.095 174.597 241.114C174.249 241.159 173.923 241.233 173.62 241.335C173.321 241.434 173.078 241.583 172.893 241.784C172.711 241.981 172.62 242.25 172.62 242.591C172.62 243.057 172.792 243.409 173.137 243.648C173.486 243.883 173.927 244 174.461 244ZM180.704 245V236.273H181.999V237.636H182.113C182.295 237.17 182.588 236.809 182.994 236.551C183.399 236.29 183.886 236.159 184.454 236.159C185.03 236.159 185.509 236.29 185.891 236.551C186.278 236.809 186.579 237.17 186.795 237.636H186.886C187.109 237.186 187.444 236.828 187.891 236.562C188.338 236.294 188.874 236.159 189.499 236.159C190.28 236.159 190.918 236.403 191.414 236.892C191.91 237.377 192.158 238.133 192.158 239.159V245H190.817V239.159C190.817 238.515 190.641 238.055 190.289 237.778C189.937 237.502 189.522 237.364 189.045 237.364C188.431 237.364 187.956 237.549 187.619 237.92C187.281 238.288 187.113 238.754 187.113 239.318V245H185.749V239.023C185.749 238.527 185.588 238.127 185.266 237.824C184.944 237.517 184.53 237.364 184.022 237.364C183.674 237.364 183.348 237.456 183.045 237.642C182.746 237.828 182.503 238.085 182.317 238.415C182.136 238.741 182.045 239.117 182.045 239.545V245H180.704ZM198.269 245.182C197.428 245.182 196.703 244.996 196.093 244.625C195.487 244.25 195.019 243.727 194.69 243.057C194.364 242.383 194.201 241.598 194.201 240.705C194.201 239.811 194.364 239.023 194.69 238.341C195.019 237.655 195.478 237.121 196.065 236.739C196.656 236.352 197.345 236.159 198.133 236.159C198.587 236.159 199.036 236.235 199.479 236.386C199.923 236.538 200.326 236.784 200.69 237.125C201.053 237.462 201.343 237.909 201.559 238.466C201.775 239.023 201.883 239.708 201.883 240.523V241.091H195.156V239.932H200.519C200.519 239.439 200.421 239 200.224 238.614C200.031 238.227 199.754 237.922 199.394 237.699C199.038 237.475 198.618 237.364 198.133 237.364C197.599 237.364 197.137 237.496 196.746 237.761C196.36 238.023 196.063 238.364 195.854 238.784C195.646 239.205 195.542 239.655 195.542 240.136V240.909C195.542 241.568 195.656 242.127 195.883 242.585C196.114 243.04 196.434 243.386 196.843 243.625C197.252 243.86 197.728 243.977 198.269 243.977C198.621 243.977 198.94 243.928 199.224 243.83C199.512 243.727 199.76 243.576 199.968 243.375C200.176 243.17 200.337 242.917 200.451 242.614L201.746 242.977C201.61 243.417 201.381 243.803 201.059 244.136C200.737 244.466 200.339 244.723 199.866 244.909C199.392 245.091 198.86 245.182 198.269 245.182ZM210.104 238.227L208.9 238.568C208.824 238.367 208.712 238.172 208.565 237.983C208.421 237.79 208.224 237.631 207.974 237.506C207.724 237.381 207.404 237.318 207.013 237.318C206.479 237.318 206.034 237.441 205.678 237.688C205.326 237.93 205.15 238.239 205.15 238.614C205.15 238.947 205.271 239.21 205.513 239.403C205.756 239.597 206.135 239.758 206.65 239.886L207.945 240.205C208.726 240.394 209.307 240.684 209.69 241.074C210.072 241.46 210.263 241.958 210.263 242.568C210.263 243.068 210.12 243.515 209.832 243.909C209.548 244.303 209.15 244.614 208.638 244.841C208.127 245.068 207.532 245.182 206.854 245.182C205.964 245.182 205.228 244.989 204.644 244.602C204.061 244.216 203.692 243.652 203.536 242.909L204.809 242.591C204.93 243.061 205.159 243.413 205.496 243.648C205.837 243.883 206.282 244 206.832 244C207.457 244 207.953 243.867 208.32 243.602C208.692 243.333 208.877 243.011 208.877 242.636C208.877 242.333 208.771 242.08 208.559 241.875C208.347 241.667 208.021 241.511 207.582 241.409L206.127 241.068C205.328 240.879 204.741 240.585 204.366 240.188C203.995 239.786 203.809 239.284 203.809 238.682C203.809 238.189 203.947 237.754 204.224 237.375C204.504 236.996 204.885 236.699 205.366 236.483C205.851 236.267 206.4 236.159 207.013 236.159C207.877 236.159 208.555 236.348 209.048 236.727C209.544 237.106 209.896 237.606 210.104 238.227ZM214.055 233.364L213.941 241.727H212.623L212.509 233.364H214.055ZM213.282 245.091C213.002 245.091 212.761 244.991 212.56 244.79C212.36 244.589 212.259 244.348 212.259 244.068C212.259 243.788 212.36 243.547 212.56 243.347C212.761 243.146 213.002 243.045 213.282 243.045C213.562 243.045 213.803 243.146 214.004 243.347C214.204 243.547 214.305 243.788 214.305 244.068C214.305 244.254 214.257 244.424 214.163 244.58C214.072 244.735 213.949 244.86 213.793 244.955C213.642 245.045 213.471 245.091 213.282 245.091Z" fill="#929292"/>
<path d="M85.8438 133V119.909H95.0483V122.773H89.3977V125.023H94.4858V127.886H89.3977V133H85.8438ZM99.9094 119.909V133H96.3555V119.909H99.9094ZM101.236 122.773V119.909H112.614V122.773H108.676V133H105.173V122.773H101.236ZM125.278 119.909V133H122.312L117.582 126.122H117.505V133H113.951V119.909H116.968L121.622 126.761H121.724V119.909H125.278ZM126.959 133V119.909H136.394V122.773H130.513V125.023H135.908V127.886H130.513V130.136H136.368V133H126.959ZM145.213 124C145.179 123.574 145.019 123.241 144.734 123.003C144.452 122.764 144.024 122.645 143.449 122.645C143.082 122.645 142.782 122.69 142.548 122.779C142.317 122.864 142.147 122.982 142.036 123.131C141.925 123.28 141.868 123.45 141.864 123.642C141.855 123.8 141.883 123.942 141.947 124.07C142.015 124.194 142.121 124.307 142.266 124.409C142.411 124.507 142.597 124.597 142.822 124.678C143.048 124.759 143.317 124.831 143.628 124.895L144.702 125.125C145.426 125.278 146.046 125.481 146.562 125.732C147.077 125.984 147.499 126.28 147.827 126.621C148.156 126.957 148.396 127.337 148.55 127.759C148.707 128.18 148.788 128.641 148.793 129.139C148.788 130 148.573 130.729 148.147 131.325C147.721 131.922 147.112 132.376 146.319 132.687C145.531 132.998 144.582 133.153 143.474 133.153C142.337 133.153 141.344 132.985 140.496 132.648C139.652 132.312 138.996 131.794 138.527 131.095C138.063 130.392 137.828 129.493 137.824 128.398H141.199C141.22 128.798 141.32 129.135 141.499 129.408C141.678 129.68 141.93 129.887 142.254 130.028C142.582 130.168 142.972 130.239 143.423 130.239C143.803 130.239 144.12 130.192 144.376 130.098C144.631 130.004 144.825 129.874 144.957 129.708C145.089 129.542 145.158 129.352 145.162 129.139C145.158 128.939 145.092 128.764 144.964 128.615C144.84 128.462 144.636 128.325 144.35 128.206C144.065 128.082 143.679 127.967 143.193 127.861L141.889 127.58C140.73 127.328 139.816 126.908 139.147 126.32C138.482 125.728 138.152 124.92 138.156 123.898C138.152 123.067 138.374 122.34 138.821 121.718C139.273 121.092 139.897 120.604 140.694 120.254C141.495 119.905 142.413 119.73 143.449 119.73C144.506 119.73 145.42 119.907 146.191 120.261C146.962 120.614 147.557 121.113 147.974 121.756C148.396 122.396 148.609 123.143 148.614 124H145.213ZM157.201 124C157.167 123.574 157.007 123.241 156.722 123.003C156.441 122.764 156.012 122.645 155.437 122.645C155.071 122.645 154.77 122.69 154.536 122.779C154.306 122.864 154.135 122.982 154.025 123.131C153.914 123.28 153.856 123.45 153.852 123.642C153.843 123.8 153.871 123.942 153.935 124.07C154.003 124.194 154.11 124.307 154.255 124.409C154.4 124.507 154.585 124.597 154.811 124.678C155.037 124.759 155.305 124.831 155.616 124.895L156.69 125.125C157.414 125.278 158.034 125.481 158.55 125.732C159.066 125.984 159.488 126.28 159.816 126.621C160.144 126.957 160.385 127.337 160.538 127.759C160.696 128.18 160.777 128.641 160.781 129.139C160.777 130 160.561 130.729 160.135 131.325C159.709 131.922 159.1 132.376 158.307 132.687C157.519 132.998 156.571 133.153 155.463 133.153C154.325 133.153 153.332 132.985 152.484 132.648C151.64 132.312 150.984 131.794 150.515 131.095C150.051 130.392 149.816 129.493 149.812 128.398H153.187C153.208 128.798 153.309 129.135 153.488 129.408C153.667 129.68 153.918 129.887 154.242 130.028C154.57 130.168 154.96 130.239 155.412 130.239C155.791 130.239 156.108 130.192 156.364 130.098C156.62 130.004 156.814 129.874 156.946 129.708C157.078 129.542 157.146 129.352 157.15 129.139C157.146 128.939 157.08 128.764 156.952 128.615C156.828 128.462 156.624 128.325 156.338 128.206C156.053 128.082 155.667 127.967 155.181 127.861L153.877 127.58C152.718 127.328 151.804 126.908 151.135 126.32C150.471 125.728 150.14 124.92 150.145 123.898C150.14 123.067 150.362 122.34 150.809 121.718C151.261 121.092 151.885 120.604 152.682 120.254C153.483 119.905 154.402 119.73 155.437 119.73C156.494 119.73 157.408 119.907 158.179 120.261C158.951 120.614 159.545 121.113 159.963 121.756C160.385 122.396 160.598 123.143 160.602 124H157.201Z" fill="white"/>
</svg>
