<svg width="110" height="82" viewBox="0 0 110 82" fill="none" xmlns="http://www.w3.org/2000/svg">
<path d="M47.6981 56.0307C51.9566 53.0439 55.4137 48.9496 57.6655 44.1564M90.4348 52.5927C88.8176 51.0853 86.9979 49.8285 85.0257 48.8569L84.6965 48.6947M82.0637 36.3498C81.6939 37.657 81.5063 39.0025 81.5063 40.3494V47.1233L79.821 46.293C73.3304 43.0956 66.1625 41.2658 58.9567 40.9423C59.9908 37.8728 60.5535 34.5817 60.5535 31.1585C60.5535 14.5293 47.3008 1.00049 31.0112 1.00049C14.7217 1.00049 1.46875 14.5293 1.46875 31.1585C1.46875 47.7876 14.7215 61.3164 31.0112 61.3164C35.9981 61.3164 40.6994 60.0466 44.8241 57.8099C46.3599 59.169 71.7315 81.4365 85.0019 81.4365C85.1642 81.4365 85.3258 81.4331 85.4845 81.4263C98.7638 80.8605 108.803 69.7445 109.224 69.2716" stroke="#05C2DF" stroke-width="1.00668"/>
</svg>
