<svg width="55" height="34" fill="none" xmlns="http://www.w3.org/2000/svg"><path d="M53.167 0H1.833A1.823 1.823 0 0 0 0 1.813v30.374C0 33.188.82 34 1.833 34h51.334A1.823 1.823 0 0 0 55 32.187V1.813C55 .812 54.18 0 53.167 0z" fill="#F9F9F9"/><path fill-rule="evenodd" clip-rule="evenodd" d="m34.101 26.761.509-.013.504-.034.491-.065.487-.087.478-.109.47-.13.46-.156.447-.173.438-.195.43-.217.412-.235.404-.256.386-.273.372-.29.36-.304.342-.325.329-.343.311-.355.29-.365.276-.386.258-.395.237-.412.22-.42.197-.434.175-.443.158-.455.136-.464.11-.473.083-.481.066-.49.035-.495.013-.503-.013-.503-.035-.494-.066-.486-.084-.477-.11-.473-.135-.46-.158-.455-.175-.438-.198-.434-.219-.42-.237-.404-.258-.4-.277-.38-.289-.365-.311-.356-.33-.342-.341-.321-.36-.308-.373-.287-.385-.273-.404-.256-.412-.234-.43-.213-.438-.199-.448-.174-.46-.156-.47-.13-.477-.108-.487-.087-.49-.06-.505-.035-.509-.018-.508.018-.5.034-.496.061-.486.087-.474.108-.47.13-.455.156-.448.174-.438.2-.421.212-.412.234-.404.256-.381.273-.377.287-.355.308-.342.32-.325.343-.311.356-.294.364-.272.382-.254.399-.237.403-.22.421-.197.434-.18.438-.148.455-.136.46-.11.473-.088.477-.061.486-.035.494-.013.503.013.503.035.495.061.49.088.481.11.473.136.464.149.456.18.442.197.434.219.42.237.412.254.395.272.386.294.365.311.355.325.343.342.325.355.304.377.29.381.273.404.256.412.235.42.216.44.196.447.173.456.156.469.13.474.109.486.087.496.065.5.034.508.013z" fill="#FBB231"/><path fill-rule="evenodd" clip-rule="evenodd" d="m20.899 26.761.504-.013.505-.034.495-.065.482-.087.478-.109.47-.13.456-.156.447-.173.438-.195.421-.217.413-.235.399-.256.39-.273.372-.29.356-.304.342-.325.324-.343.312-.355.293-.365.272-.386.259-.395.232-.412.22-.42.197-.434.18-.443.149-.455.136-.464.11-.473.083-.481.065-.49.035-.495.014-.503-.014-.503-.035-.494-.065-.486-.084-.477-.11-.473-.135-.46-.15-.455-.18-.438-.197-.434-.219-.42-.232-.404-.259-.4-.272-.38-.293-.365-.312-.356-.324-.342-.342-.321-.355-.308-.373-.287-.39-.273-.4-.256-.412-.234-.42-.213-.44-.199-.446-.174-.456-.156-.47-.13-.478-.108-.482-.087-.495-.06-.505-.035-.504-.018-.509.018-.504.034-.491.061-.487.087-.478.108-.469.13-.46.156-.448.174-.438.2-.43.212-.412.234-.403.256-.386.273-.373.287-.36.308-.341.32-.33.343-.306.356-.294.364-.276.382-.26.399-.236.403-.22.421-.196.434-.18.438-.154.455-.136.46-.11.473-.083.477-.065.486-.035.494-.014.503.014.503.035.495.065.49.084.481.11.473.135.464.154.456.18.442.197.434.22.42.236.412.259.395.276.386.294.365.307.355.329.343.341.325.36.304.373.29.386.273.403.256.412.235.43.216.439.196.447.173.46.156.47.13.477.109.487.087.491.065.504.034.509.013z" fill="#EC1C2E"/><path fill-rule="evenodd" clip-rule="evenodd" d="M26.345 10.987h5.244v-.534h-4.793l-.451.534zM25.56 12.162h6.03v-.53h-5.714l-.316.53zM24.973 13.337h6.616v-.53h-6.384l-.232.53zM24.57 14.517h7.02v-.53h-6.854l-.167.53zM24.806 20.212h6.796v-.53H24.64l.167.53zM25.305 21.392h6.297v-.53h-6.547l.25.53zM26.011 22.567h5.59v-.529h-5.923l.333.53zM26.984 23.746h4.618v-.533h-5.087l.47.533zM24.336 15.692h7.253v-.529h-7.152l-.1.53zM28.756 19.036h2.763v-.53h-2.662l-.1.53zM28.976 17.86h2.543v-.533h-2.443l-.1.534zM24.152 17.327h.72v.534h-.685l-.035-.534z" fill="#FBB231"/><path fill-rule="evenodd" clip-rule="evenodd" d="m22.81 16.686-.048-.005-.044-.004-.044-.004-.044-.009-.04-.004-.043-.009-.044-.009-.048-.004-.044-.009h-.053l-.061-.004-.062-.004h-.07l-.078.004-.088.005-.097.008-.066.009-.06.013-.058.017-.048.018-.048.026-.044.026-.035.034-.031.026-.018.04-.017.034-.004.04v.038l.008.044.013.043.027.043.035.044.066.06.079.052.092.04.1.038.106.03.11.04.113.039.106.043.1.057.093.069.083.082.07.1.053.126.035.147.013.178-.013.208-.027.157-.039.134-.053.126-.065.108-.08.096-.083.078-.096.074-.101.064-.11.048-.11.044-.109.03-.118.03-.114.018-.11.008-.11.009-.1.004h-.145l-.132-.004h-.118l-.11-.004-.1-.005-.088-.004-.08-.009-.078-.008-.07-.005-.062-.013-.065-.013-.057-.017-.053-.013-.057-.017-.053-.022-.057-.017.15-.73.03.01.04.008.044.013.056.013.062.013.066.013.074.018.08.013.082.013.088.013.088.008.092.009.096.004.101.005h.092l.097-.005.096-.017.08-.03.06-.035.044-.043.036-.048.026-.052.017-.052.014-.052.004-.096-.03-.082-.058-.065-.083-.056-.097-.048-.118-.052-.127-.044-.132-.052-.131-.06-.127-.07-.119-.087-.105-.1-.083-.125-.062-.148-.03-.177.004-.213.018-.126.021-.125.035-.109.04-.108.053-.096.061-.087.07-.082.083-.074.097-.06.105-.052.119-.053.136-.034.149-.03.162-.022.18-.013.197-.005h.123l.114.005.1.004h.097l.083.009.075.004.066.009.061.004.057.009.044.008.044.01.04.003.034.01h.031l.03.008.027.004-.171.742z" fill="#fff"/><path d="m22.81 16.686-.048-.005-.044-.004-.044-.004-.044-.009-.04-.004-.043-.009-.044-.009-.048-.004-.044-.009h-.053l-.061-.004-.062-.004h-.07l-.078.004-.088.005-.097.008-.066.009-.06.013-.058.017-.048.018-.048.026-.044.026-.035.034-.031.026-.018.04-.017.034-.004.04v.038l.008.044.013.043.027.043.035.044.066.06.079.052.092.04.1.038.106.03.11.04.113.039.106.043.1.057.093.069.083.082.07.1.053.126.035.147.013.178-.013.208-.027.157-.039.134-.053.126-.065.108-.08.096-.083.078-.096.074-.101.064-.11.048-.11.044-.109.03-.118.03-.114.018-.11.008-.11.009-.1.004h-.145l-.132-.004h-.118l-.11-.004-.1-.005-.088-.004-.08-.009-.078-.008-.07-.005-.062-.013-.065-.013-.057-.017-.053-.013-.057-.017-.053-.022-.057-.017.15-.73.03.01.04.008.044.013.056.013.062.013.066.013.074.018.08.013.082.013.088.013.088.008.092.009.096.004.101.005h.092l.097-.005.096-.017.08-.03.06-.035.044-.043.036-.048.026-.052.017-.052.014-.052.004-.096-.03-.082-.058-.065-.083-.056-.097-.048-.118-.052-.127-.044-.132-.052-.131-.06-.127-.07-.119-.087-.105-.1-.083-.125-.062-.148-.03-.177.004-.213.018-.126.021-.125.035-.109.04-.108.053-.096.061-.087.07-.082.083-.074.097-.06.105-.052.119-.053.136-.034.149-.03.162-.022.18-.013.197-.005h.123l.114.005.1.004h.097l.083.009.075.004.066.009.061.004.057.009.044.008.044.01.04.003.034.01h.031l.03.008.027.004-.171.742z" stroke="#fff" stroke-width=".22" stroke-miterlimit="2.61"/><path fill-rule="evenodd" clip-rule="evenodd" d="M23.6 15.129h.92l-.136.798h.557l-.122.746-.584-.017-.32 1.834-.004.065.017.057.035.043.04.035.061.026.066.017.075.013.079.009.074-.005.066-.004.061-.013.053-.013.044-.013.03-.009.018-.008h.009l-.119.611-.022.018-.026.013-.022.013-.022.013-.022.008-.03.01-.027.012-.03.009-.035.009-.031.008-.04.005-.04.008-.043.005-.053.008-.052.005-.057.008h-.255l-.131-.008-.114-.014-.11-.021-.087-.022-.08-.03-.06-.035-.058-.039-.044-.043-.035-.044-.022-.056-.017-.056-.009-.066-.004-.065v-.073l.013-.078.009-.083.635-3.591z" fill="#fff"/><path d="M23.6 15.129h.92l-.136.798h.557l-.122.746-.584-.017-.32 1.834-.004.065.017.057.035.043.04.035.061.026.066.017.075.013.079.009.074-.005.066-.004.061-.013.053-.013.044-.013.03-.009.018-.008h.009l-.119.611-.022.018-.026.013-.022.013-.022.013-.022.008-.03.01-.027.012-.03.009-.035.009-.031.008-.04.005-.04.008-.043.005-.053.008-.052.005-.057.008h-.255l-.131-.008-.114-.014-.11-.021-.087-.022-.08-.03-.06-.035-.058-.039-.044-.043-.035-.044-.022-.056-.017-.056-.009-.066-.004-.065v-.073l.013-.078.009-.083.635-3.591z" stroke="#fff" stroke-width=".22" stroke-miterlimit="2.61"/><path d="m25.678 17.913-.013.052-.004.061.008.065.014.06.021.062.031.06.035.065.04.052.048.057.048.052.053.048.061.039.057.039.07.026.066.026.066.013.088.013.083.008.083.009.088.009.088.004h.087l.088-.004.092-.009.088-.013.092-.017.092-.018.088-.03.096-.035.092-.039.097-.052.096-.056-.131.806-.057.027-.053.03-.053.017-.048.022-.052.013-.053.017-.053.013-.057.013-.061.009-.066.004-.07.009-.075.004-.087.005h-.088l-.105.004h-.11l-.162-.004-.167-.018-.166-.021-.167-.04-.162-.047-.158-.065-.15-.083-.14-.095-.131-.113-.11-.134-.096-.152-.083-.174-.053-.195-.04-.22-.008-.244.017-.269.013-.104.018-.121.026-.13.04-.14.048-.142.061-.139.075-.143.092-.139.11-.134.127-.126.149-.109.166-.1.193-.082.215-.06.241-.04.268-.013.131.005.136.013.136.021.136.035.136.048.127.06.123.079.11.09.096.114.084.134.065.147.048.178.027.195.004.226-.022.247-.052.278-.018.2h-2.425l.154-.647h1.456l.008-.082-.004-.078-.009-.074-.009-.065-.026-.065-.022-.057-.035-.047-.03-.044-.04-.043-.044-.03-.048-.03-.053-.027-.052-.022-.053-.013-.057-.008-.061-.009-.062.004-.061.01-.057.016-.057.018-.057.026-.048.03-.049.035-.043.043-.044.044-.04.047-.035.057-.03.056-.031.056-.022.066-.022.069-.013.07-.132.68z" stroke="#fff" stroke-width=".22" stroke-miterlimit="2.61"/><path fill-rule="evenodd" clip-rule="evenodd" d="m33.615 16.122-.044-.021-.044-.018-.048-.026-.048-.022-.049-.021-.057-.018-.057-.021-.061-.018-.061-.017-.066-.013-.066-.013-.07-.009-.08-.008-.074-.005h-.245l-.088.005-.092.008-.092.018-.092.026-.092.039-.097.043-.092.06-.087.075-.088.082-.084.108-.078.122-.075.143-.07.165-.066.186-.048.208-.022.118-.013.117-.009.117.004.108.01.113.025.104.027.1.04.1.047.09.062.083.07.078.079.07.092.056.1.052.115.043.127.026.04.013.052.01.062.003.065.01.07.008h.163l.083-.009.088-.009.083-.017.083-.022.084-.026.083-.039.079-.043.07-.052.066-.056-.15.876-.021.017-.018.022-.026.021-.03.018-.04.026-.044.026-.053.021-.061.022-.079.022-.083.017-.101.013-.119.013-.127.005-.149.004-.17-.005-.19-.008-.153-.017-.153-.03-.15-.053-.153-.065-.149-.078-.14-.1-.132-.113-.122-.134-.11-.148-.092-.164-.084-.182-.057-.204-.039-.221-.013-.23.004-.26.04-.274.026-.134.026-.13.035-.13.035-.122.035-.113.044-.117.044-.108.044-.1.053-.104.048-.096.057-.09.061-.087.057-.083.07-.078.066-.074.07-.07.075-.064.079-.06.079-.057.083-.057.088-.047.092-.044.092-.039.097-.034.105-.035.1-.026.106-.022.114-.021.114-.018.118-.013.123-.004.127-.005.105.005.101.004.101.013.1.013.093.013.092.018.083.017.084.021.074.018.066.022.066.017.052.022.044.017.04.013.03.013.022.004-.166.911z" fill="#fff"/><path d="m33.615 16.122-.044-.021-.044-.018-.048-.026-.048-.022-.049-.021-.057-.018-.057-.021-.061-.018-.061-.017-.066-.013-.066-.013-.07-.009-.08-.008-.074-.005h-.245l-.088.005-.092.008-.092.018-.092.026-.092.039-.097.043-.092.06-.087.075-.088.082-.084.108-.078.122-.075.143-.07.165-.066.186-.048.208-.022.118-.013.117-.009.117.004.108.01.113.025.104.027.1.04.1.047.09.062.083.07.078.079.07.092.056.1.052.115.043.127.026.04.013.052.01.062.003.065.01.07.008h.163l.083-.009.088-.009.083-.017.083-.022.084-.026.083-.039.079-.043.07-.052.066-.056-.15.876-.021.017-.018.022-.026.021-.03.018-.04.026-.044.026-.053.021-.061.022-.079.022-.083.017-.101.013-.119.013-.127.005-.149.004-.17-.005-.19-.008-.153-.017-.153-.03-.15-.053-.153-.065-.149-.078-.14-.1-.132-.113-.122-.134-.11-.148-.092-.164-.084-.182-.057-.204-.039-.221-.013-.23.004-.26.04-.274.026-.134.026-.13.035-.13.035-.122.035-.113.044-.117.044-.108.044-.1.053-.104.048-.096.057-.09.061-.087.057-.083.07-.078.066-.074.07-.07.075-.064.079-.06.079-.057.083-.057.088-.047.092-.044.092-.039.097-.034.105-.035.1-.026.106-.022.114-.021.114-.018.118-.013.123-.004.127-.005.105.005.101.004.101.013.1.013.093.013.092.018.083.017.084.021.074.018.066.022.066.017.052.022.044.017.04.013.03.013.022.004-.166.911z" stroke="#fff" stroke-width=".22" stroke-miterlimit="2.61"/><path fill-rule="evenodd" clip-rule="evenodd" d="M41.81 19.452h-.921l.066-.364v-.035l-.053.066-.061.06-.053.052-.061.048-.062.043-.057.035-.061.03-.061.03-.066.022-.062.018-.065.013-.066.013-.066.008-.061.005-.066.004h-.07l-.171-.013-.163-.035-.144-.056-.132-.074-.123-.095-.105-.113-.092-.121-.083-.14-.066-.147-.053-.156-.035-.16-.026-.17-.013-.168.004-.17.018-.169.03-.169.049-.19.061-.187.07-.17.084-.156.087-.147.097-.134.105-.118.11-.108.114-.096.122-.082.128-.074.127-.056.136-.043.131-.03.132-.022.136-.005.096.005.097.008.087.018.08.021.074.026.066.03.07.035.057.04.052.038.053.044.044.039.04.043.03.044.03.043.027.039.022.039.232-1.292h.904l-.75 4.306z" fill="#fff"/><path d="M41.81 19.452h-.921l.066-.364v-.035l-.053.066-.061.06-.053.052-.061.048-.062.043-.057.035-.061.03-.061.03-.066.022-.062.018-.065.013-.066.013-.066.008-.061.005-.066.004h-.07l-.171-.013-.163-.035-.144-.056-.132-.074-.123-.095-.105-.113-.092-.121-.083-.14-.066-.147-.053-.156-.035-.16-.026-.17-.013-.168.004-.17.018-.169.03-.169.049-.19.061-.187.07-.17.084-.156.087-.147.097-.134.105-.118.11-.108.114-.096.122-.082.128-.074.127-.056.136-.043.131-.03.132-.022.136-.005.096.005.097.008.087.018.08.021.074.026.066.03.07.035.057.04.052.038.053.044.044.039.04.043.03.044.03.043.027.039.022.039.232-1.292h.904l-.75 4.306z" stroke="#fff" stroke-width=".22" stroke-miterlimit="2.61"/><path fill-rule="evenodd" clip-rule="evenodd" d="m40.302 18.655.092-.004.088-.022.079-.022.078-.039.066-.034.07-.052.062-.057.057-.06.048-.066.048-.073.044-.074.035-.078.035-.083.027-.086.022-.087.017-.091.018-.091.008-.096v-.09l-.004-.092-.009-.087-.013-.082-.022-.078-.026-.074-.035-.065-.04-.065-.043-.052-.049-.048-.057-.039-.061-.026-.062-.017-.07-.004-.092.004-.083.013-.075.03-.079.03-.065.044-.066.052-.057.057-.057.065-.048.069-.049.078-.043.078-.035.087-.036.087-.026.09-.026.096-.018.096-.017.143.004.156.026.165.044.151.066.135.088.108.11.074.13.026z" fill="#FBB231"/><path fill-rule="evenodd" clip-rule="evenodd" d="m19.863 18.72-.136.732h-.837l.022-.134.017-.122.013-.095.014-.048-.049.052-.052.052-.062.052-.07.044-.079.048-.083.039-.088.039-.092.034-.096.03-.097.022-.096.018-.097.013-.1.008-.093.005-.096-.013-.088-.013-.118-.026-.106-.035-.092-.043-.083-.048-.075-.052-.065-.06-.053-.066-.048-.065-.04-.07-.035-.069-.026-.074-.017-.073-.014-.074-.013-.078-.004-.07v-.073l.009-.13.021-.122.031-.113.044-.112.053-.104.061-.096.07-.09.08-.088.082-.073.092-.07.097-.06.1-.057.106-.043.11-.04.114-.025.118-.022h.005l.017-.004h.026l.035-.005.04-.008h.048l.048-.009.057-.004.057-.009.057-.004.062-.005.048-.008.057-.005h.048l.049-.004h.114l.078.004H19.008l.062.005.043.004.035.004h.01l.008-.026.017-.056.018-.07.009-.065-.018-.069-.026-.07-.04-.056-.056-.052-.062-.039-.07-.03-.079-.022-.088-.004-.092-.005-.1-.004h-.102l-.11.005-.109.008-.105.009-.105.009-.105.012-.101.014-.097.017-.083.017-.083.013-.07.022-.062.022-.044.021-.04.018.238-.794.074-.026.07-.026.084-.026.078-.018.08-.012.087-.013.083-.013.093-.01.092-.003.096-.005.1-.004h.321l.114.004.118.005.092.004.101.017.106.022.105.03.1.04.102.047.1.056.093.061.083.074.074.078.066.087.048.1.035.108.018.108v.126l-.018.134-.333 1.735z" fill="#fff"/><path d="m19.863 18.72-.136.732h-.837l.022-.134.017-.122.013-.095.014-.048-.049.052-.052.052-.062.052-.07.044-.079.048-.083.039-.088.039-.092.034-.096.03-.097.022-.096.018-.097.013-.1.008-.093.005-.096-.013-.088-.013-.118-.026-.106-.035-.092-.043-.083-.048-.075-.052-.065-.06-.053-.066-.048-.065-.04-.07-.035-.069-.026-.074-.017-.073-.014-.074-.013-.078-.004-.07v-.073l.009-.13.021-.122.031-.113.044-.112.053-.104.061-.096.07-.09.08-.088.082-.073.092-.07.097-.06.1-.057.106-.043.11-.04.114-.025.118-.022h.005l.017-.004h.026l.035-.005.04-.008h.048l.048-.009.057-.004.057-.009.057-.004.062-.005.048-.008.057-.005h.048l.049-.004h.114l.078.004H19.008l.062.005.043.004.035.004h.01l.008-.026.017-.056.018-.07.009-.065-.018-.069-.026-.07-.04-.056-.056-.052-.062-.039-.07-.03-.079-.022-.088-.004-.092-.005-.1-.004h-.102l-.11.005-.109.008-.105.009-.105.009-.105.012-.101.014-.097.017-.083.017-.083.013-.07.022-.062.022-.044.021-.04.018.238-.794.074-.026.07-.026.084-.026.078-.018.08-.012.087-.013.083-.013.093-.01.092-.003.096-.005.1-.004h.321l.114.004.118.005.092.004.101.017.106.022.105.03.1.04.102.047.1.056.093.061.083.074.074.078.066.087.048.1.035.108.018.108v.126l-.018.134-.333 1.735z" stroke="#fff" stroke-width=".22" stroke-miterlimit="2.61"/><path fill-rule="evenodd" clip-rule="evenodd" d="m19.061 17.861-.004-.013-.013-.017-.022-.013-.031-.005-.04-.008H18.755l-.053.008-.056.005-.053.008-.048.009-.049.009-.039.008-.035.01-.026.008-.027.008-.035.013-.035.018-.044.017-.044.026-.048.022-.044.026-.043.035-.044.03-.04.039-.035.043-.035.04-.026.047-.018.052-.009.052-.004.113.018.091.03.065.044.048.053.034.057.018.052.013h.149l.093-.013.087-.013.075-.017.066-.026.065-.027.057-.03.049-.039.043-.03.04-.04.035-.038.026-.04.022-.038.022-.04.013-.034.013-.04.027-.095.022-.108.022-.104.017-.087z" fill="#EC1C2E"/><path fill-rule="evenodd" clip-rule="evenodd" d="M12.857 19.453h-.904l.755-4.324h1.574l.149 2.568 1.092-2.568h1.644l-.776 4.324h-.903l.574-3.231h-.04l-1.354 3.231h-1.022l-.004-.134-.027-.36-.026-.512-.035-.586-.035-.59-.027-.516-.026-.373-.004-.16h-.053l-.552 3.231z" fill="#fff"/><path d="M12.857 19.453h-.904l.755-4.324h1.574l.149 2.568 1.092-2.568h1.644l-.776 4.324h-.903l.574-3.231h-.04l-1.354 3.231h-1.022l-.004-.134-.027-.36-.026-.512-.035-.586-.035-.59-.027-.516-.026-.373-.004-.16h-.053l-.552 3.231z" stroke="#fff" stroke-width=".22" stroke-miterlimit="2.61"/><path fill-rule="evenodd" clip-rule="evenodd" d="m36.382 18.72-.136.732h-.838l.01-.134V19.11l.008-.04-.044.048-.048.053-.062.043-.065.048-.07.043-.08.039-.083.039-.083.035-.092.026-.092.026-.092.013-.097.013-.096.008-.092.005-.088-.013-.092-.013-.119-.026-.105-.035-.096-.043-.088-.048-.07-.052-.066-.06-.053-.066-.043-.065-.04-.07-.03-.069-.027-.074-.017-.073-.014-.074-.008-.078-.01-.07v-.073l.01-.13.017-.122.03-.113.045-.112.048-.104.066-.096.066-.09.078-.088.088-.073.088-.07.096-.06.106-.057.1-.043.11-.04.11-.025.114-.022h.008l.014-.004h.026l.03-.005.044-.008h.049l.048-.009.053-.004.057-.009.061-.004.057-.005.057-.008.053-.005h.048l.044-.004h.118l.079.004h.149l.066.005.053.004.026.004h.017l.005-.026.013-.056.009-.07.004-.065-.013-.069-.026-.07-.044-.056-.048-.052-.062-.039-.07-.03-.075-.022-.079-.004-.092-.005-.1-.004h-.101l-.11.005-.11.008-.105.009-.105.009-.105.012-.101.014-.092.017-.088.017-.079.013-.074.022-.062.022-.048.021-.035.018.232-.794.075-.026.079-.026.074-.026.08-.018.083-.012.083-.013.088-.013.087-.01.097-.003.096-.005.097-.004h.311l.114.004.114.005.092.004.1.017.102.022.11.03.1.04.101.047.101.056.092.061.088.074.074.078.066.087.053.1.035.108.022.108v.126l-.014.134-.35 1.735z" fill="#fff"/><path fill-rule="evenodd" clip-rule="evenodd" d="m36.246 19.474.018-.017.136-.733-.04-.004-.136.728.022-.017v.043l.013-.004.005-.013-.018.017z" fill="#fff"/><path fill-rule="evenodd" clip-rule="evenodd" d="m35.387 19.452.022.022h.837v-.043h-.837l.022.021h-.044v.022h.022l-.022-.022z" fill="#fff"/><path fill-rule="evenodd" clip-rule="evenodd" d="m35.444 19.084-.031-.026-.013.052-.005.09v.118l-.008.134h.044l.004-.134.009-.117-.005-.091v-.026l-.03-.026.035.026z" fill="#fff"/><path fill-rule="evenodd" clip-rule="evenodd" d="m34.146 19.504.096.013.088.009h.092l.097-.009.096-.013.096-.017.093-.026.092-.026.083-.035.088-.034.079-.044.07-.043.07-.048.061-.048.053-.052.044-.047-.035-.026-.044.047-.044.048-.061.048-.062.043-.07.04-.083.038-.08.044-.083.03-.087.026-.092.026-.092.017-.092.013-.097.005-.092.004-.088-.009-.087-.013-.01.04z" fill="#fff"/><path fill-rule="evenodd" clip-rule="evenodd" d="M33.343 18.507v.074l.01.069.008.082.013.074.018.074.026.074.03.078.044.069.044.07.057.06.066.06.075.057.087.052.097.044.11.03.118.03.009-.039-.119-.03-.105-.035-.092-.039-.083-.047-.07-.052-.062-.057-.053-.065-.048-.06-.035-.07-.03-.07-.027-.069-.017-.07-.014-.077-.008-.074-.005-.07v-.073h-.044zM34.536 17.245l-.114.017-.114.03-.11.035-.105.048-.105.052-.1.065-.088.07-.088.078-.08.082-.07.096-.065.095-.053.108-.044.113-.026.122-.022.121-.009.13h.044l.005-.13.022-.117.03-.113.04-.108.052-.104.057-.091.07-.096.075-.082.088-.07.087-.069.093-.06.105-.053.1-.047.11-.035.105-.03.11-.018v-.039z" fill="#fff"/><path fill-rule="evenodd" clip-rule="evenodd" d="M35.224 17.176h-.04l-.043.004-.048.005-.053.004-.057.004-.057.005-.061.004-.057.008-.053.01-.048.004-.049.004-.043.004-.031.005-.026.004-.014.004h-.008v.04h.008l.018-.005.022-.005.03-.004.044-.004.049-.005.048-.004.053-.008.057-.005.061-.009.057-.004.057-.004.053-.005.048-.004H35.225v-.043z" fill="#fff"/><path fill-rule="evenodd" clip-rule="evenodd" d="m35.671 17.21.022-.017h-.017l-.027-.004h-.052l-.066-.009h-.149l-.08-.004h-.078v.043h.158l.074.009H35.597l.052.004h.044l.018-.013-.018.013.018.005v-.018l-.04-.009z" fill="#fff"/><path fill-rule="evenodd" clip-rule="evenodd" d="M35.707 16.998h-.005l-.004.065-.009.065-.013.06-.004.023.039.008.009-.026.009-.06.008-.07.01-.065h-.04zM35.308 16.672v.005l.078.004.07.017.066.03.058.04.043.047.04.057.03.056.014.07h.04l-.014-.074-.026-.074-.049-.06-.052-.053-.062-.047-.074-.03-.08-.018-.082-.013v.044zM33.883 16.833l.03.018.035-.018.044-.021.057-.018.07-.021.084-.018.083-.017.096-.013.097-.013.105-.018.105-.008.106-.009.11-.004h.403v-.04l-.093-.004-.1-.004h-.101l-.11.004-.11.009-.105.009-.105.013-.105.013-.101.008-.096.018-.088.017-.08.017-.074.018-.061.021-.053.022-.04.026.036.017-.04-.004z" fill="#fff"/><path fill-rule="evenodd" clip-rule="evenodd" d="m34.128 16.021-.013.018-.233.794.04.004.232-.794-.013.018-.013-.04-.009.005-.004.013.013-.018z" fill="#fff"/><path fill-rule="evenodd" clip-rule="evenodd" d="m35.61 15.87-.114-.004-.114-.005h-.311l-.097.005-.096.004-.097.009-.088.004-.092.013-.083.013-.083.017-.08.018-.078.021-.075.026-.074.03.013.04.074-.03.075-.026.075-.022.078-.018.084-.017.083-.013.083-.013.088-.004.097-.009.096-.004h.408l.114.004h.114v-.039z" fill="#fff"/><path fill-rule="evenodd" clip-rule="evenodd" d="m36.75 16.985.017-.135v-.125l-.022-.113-.04-.109-.052-.104-.066-.09-.083-.083-.08-.074-.096-.06-.1-.061-.106-.044-.105-.043-.11-.026-.105-.026-.1-.013-.093-.009v.04l.092.008.097.013.1.026.106.03.1.04.102.043.1.052.088.065.084.07.074.077.066.087.048.095.035.1.026.109v.125l-.017.13.04.005z" fill="#fff"/><path fill-rule="evenodd" clip-rule="evenodd" d="m36.4 18.724.35-1.74-.04-.004-.35 1.74.04.004z" fill="#fff"/><path fill-rule="evenodd" clip-rule="evenodd" d="m35.575 17.86-.009-.017-.008-.017-.027-.009-.03-.013h-.04l-.044-.004h-.048l-.048.004-.057.005-.053.008-.052.005-.049.008-.052.009-.04.009-.044.008-.035.004-.022.005-.026.009-.035.013-.035.013-.044.017-.04.022-.047.021-.044.03-.044.031-.044.035-.035.034-.035.044-.03.047-.023.048-.022.052-.008.057-.005.112.018.091.026.066.04.047.048.035.057.017.057.013h.157l.093-.013.087-.017.075-.022.074-.026.066-.03.057-.03.053-.04.048-.039.04-.043.035-.039.03-.043.022-.04.018-.038.013-.04.013-.034.013-.096.018-.09.008-.096.01-.083z" fill="#FBB231"/><path fill-rule="evenodd" clip-rule="evenodd" d="m42.433 19.001.005-.078.026-.086.048-.078.057-.07.07-.056.08-.04.087-.025.092-.013.092.013.088.026.079.039.07.056.057.07.048.078.026.086.005.078h-.097l-.004-.06-.022-.07-.03-.07-.045-.055-.052-.044-.066-.035-.075-.021-.074-.009-.075.009-.074.021-.066.035-.053.043-.043.057-.031.07-.022.069-.004.06h-.097z" fill="#fff"/><path fill-rule="evenodd" clip-rule="evenodd" d="M42.731 19.001v-.2h.185l.04.005.034.009.026.008.027.014.013.021.013.017.009.022.004.026-.004.03-.009.022-.009.018-.004.008h-.14l.013-.004.022-.004.022-.005.013-.008.013-.01.009-.008.004-.017v-.039l-.009-.013-.008-.009-.01-.004-.017-.005-.017-.004h-.136v.13h-.084zM42.433 19.002l-.005.017.01.1.026.087.048.078.057.065.07.056.079.044.088.026.092.008.092-.008.087-.026.08-.044.07-.056.057-.065.048-.078.026-.087.009-.1-.005-.017h-.096v.017l-.004.083-.022.07-.031.064-.044.057-.052.043-.066.039-.075.022-.074.004-.075-.004-.074-.022-.066-.04-.053-.042-.044-.057-.03-.065-.022-.07-.005-.082v-.017h-.096z" fill="#fff"/><path fill-rule="evenodd" clip-rule="evenodd" d="M42.731 19.002v.2h.084v-.165h.083l.1.165h.067l-.101-.165h.022l.026-.005.018-.008.017-.013.009-.009h-.14l-.018.004h-.083v-.004h-.084z" fill="#fff"/><path d="M42.876 19.38H43.047l.066-.04.052-.043.044-.056.03-.065V18.872l-.03-.065-.044-.056-.052-.044-.066-.056h-.298l-.066.035-.053.043-.044.056-.03.065v.304l.03.065.044.056.053.044.066.039h.149m-.47-.339v-.095l.027-.087.048-.078.057-.07.07-.056.08-.039.087-.026h.184l.088.026.079.04.07.056.057.07.048.077.026.087v.191l-.026.09-.048.079-.057.065-.07.056-.08.044-.087.026h-.184l-.088-.026-.079-.044-.07-.056-.026-.065-.048-.078-.027-.091v-.096h-.03zm.417.183h-.083v-.4H43.06v.079h-.088l.101.165h-.066l-.1-.165h-.084v.165l.022.156zm.062-.352h.065-.18v.135h.084l.03-.135z" stroke="#fff" stroke-width=".22" stroke-miterlimit="2.61"/><path fill-rule="evenodd" clip-rule="evenodd" d="M36.632 19.453h.939l.333-1.874.013-.074.022-.07.017-.073.031-.074.03-.07.04-.073.044-.065.053-.06.061-.057.066-.052.079-.052.083-.04.097-.03.11-.026.113-.021.132-.005h.083l.15-.845-.093.004-.092.009-.083.017-.08.022-.074.03-.07.03-.066.035-.061.043-.061.044-.057.047-.053.053-.053.052-.052.056-.048.06-.049.061-.048.066.1-.595h-.933l-.623 3.527z" fill="#fff"/><path d="M36.632 19.453h.939l.333-1.874.013-.074.022-.07.017-.073.031-.074.03-.07.04-.073.044-.065.053-.06.061-.057.066-.052.079-.052.083-.04.097-.03.11-.026.113-.021.132-.005h.083l.15-.845-.093.004-.092.009-.083.017-.08.022-.074.03-.07.03-.066.035-.061.043-.061.044-.057.047-.053.053-.053.052-.052.056-.048.06-.049.061-.048.066.1-.595h-.933l-.623 3.527z" stroke="#fff" stroke-width=".22" stroke-miterlimit="2.61"/><path fill-rule="evenodd" clip-rule="evenodd" d="M27.818 19.453h.952l.32-1.874.013-.074.018-.07.017-.069.022-.065.026-.065.035-.06.04-.061.048-.057.053-.047.057-.052.074-.04.08-.034.096-.03.1-.027.115-.017.127-.009h.013l.013.005h.035l.013.004.013.004.014.005.004-.013.009-.04.013-.06.017-.074.027-.086.022-.092.03-.09.031-.092.026-.065.031-.06.035-.066.03-.056.032-.048.021-.039.018-.021.009-.013h-.018l-.017-.005-.022-.004h-.022l-.027-.004h-.048l-.105.004-.092.009-.088.017-.079.022-.074.026-.07.034-.066.03-.057.04-.057.043-.053.048-.052.052-.049.056-.052.057-.044.06-.048.065-.053.066.118-.595h-.951l-.623 3.527z" fill="#fff"/><path d="M27.818 19.453h.952l.32-1.874.013-.074.018-.07.017-.069.022-.065.026-.065.035-.06.04-.061.048-.057.053-.047.057-.052.074-.04.08-.034.096-.03.1-.027.115-.017.127-.009h.013l.013.005h.035l.013.004.013.004.014.005.004-.013.009-.04.013-.06.017-.074.027-.086.022-.092.03-.09.031-.092.026-.065.031-.06.035-.066.03-.056.032-.048.021-.039.018-.021.009-.013h-.018l-.017-.005-.022-.004h-.022l-.027-.004h-.048l-.105.004-.092.009-.088.017-.079.022-.074.026-.07.034-.066.03-.057.04-.057.043-.053.048-.052.052-.049.056-.052.057-.044.06-.048.065-.053.066.118-.595h-.951l-.623 3.527z" stroke="#fff" stroke-width=".22" stroke-miterlimit="2.61"/><path fill-rule="evenodd" clip-rule="evenodd" d="M42.438 22.914v-.013l.026-.082.048-.078.057-.065.07-.052.08-.04.087-.021.092-.013.092.013.088.021.079.04.07.052.057.065.048.078.026.082v.013h-.096l-.022-.065-.03-.065-.044-.056-.053-.044-.066-.039-.074-.021-.075-.01-.075.01-.074.021-.066.04-.052.043-.044.056-.031.065-.022.065h-.096z" fill="#FBB231"/><path fill-rule="evenodd" clip-rule="evenodd" d="M42.731 22.914V22.8h.225l.034.004.026.009.027.013.013.017.013.017.009.026.004.027h-.07v-.031l-.009-.013-.008-.009-.01-.004-.017-.004-.017-.005h-.136v.066h-.084zM42.428 22.988l.01-.074h.096v.004l-.005.07h-.1z" fill="#FBB231"/><path fill-rule="evenodd" clip-rule="evenodd" d="M42.731 22.988v-.074h.084v.07h.083l.03-.01.023-.004.022-.004.013-.009.013-.008.009-.009.004-.017v-.009h.07l-.004.026-.009.017-.009.018-.013.013h-.316zM43.266 22.988l-.005-.07v-.004h.097l.009.074h-.101z" fill="#FBB231"/><path fill-rule="evenodd" clip-rule="evenodd" d="M42.428 22.987v.009l.01.095.026.091.048.079.057.069.07.056.079.04.088.025.092.01.092-.01.087-.026.08-.039.07-.056.057-.07.048-.078.026-.09.009-.096v-.009h-.101v.009l-.004.082-.022.07-.031.065-.044.056-.052.044-.066.039-.075.021-.074.009-.075-.009-.074-.021-.066-.04-.053-.043-.044-.056-.03-.065-.022-.07-.005-.082v-.009h-.1z" fill="#FBB231"/><path fill-rule="evenodd" clip-rule="evenodd" d="M42.731 22.987v.191h.084v-.165h.083l.1.165h.067l-.101-.165h.022l.026-.004.018-.009.017-.013h-.316z" fill="#FBB231"/><path fill-rule="evenodd" clip-rule="evenodd" d="m27.919 16.977-.026-.196-.049-.177-.065-.152-.084-.13-.096-.113-.11-.091-.123-.07-.127-.06-.136-.048-.136-.035h-.67l-.242.04-.215.06-.192.082-.167.1-.15.109-.126.125-.11.135-.1.1-.075.147-.062.143-.048.139-.04.139-.026.13v.737l.04.221.052.196.084.173.096.152.11.134.131.113.14.096.15.082.158.065.162.048.166.039h1.474l.052-.03.053-.027.136-.806-.097.056-.092.052-.096.04-.097.034-.087.03h-1.035l-.097-.108-.07-.026-.057-.04-.061-.038-.053-.048-.035-.052-.044-.056-.04-.052-.034-.066-.048-.056v-.286h2.157v-.2l.053-.277v-.248l.004-.23zm-.903.303H25.8v-.182l.026-.065.031-.056.026-.057.04-.056.04-.048.043-.048.044-.039.048-.034.048-.03.057-.027H26.665l.048.026.053.03.044.031.039.04.03.047.036.047.022.057.026.065v.217l.053.082z" fill="#fff"/></svg>