<svg width="177" height="146" viewBox="0 0 177 146" fill="none" xmlns="http://www.w3.org/2000/svg">
<g clip-path="url(#clip0)">
<path d="M112.063 9.46197L88.591 0.196777L0.498047 34.26L88.229 74.7259L175.96 34.2456L116.835 11.5846" stroke="#05C2DF" stroke-miterlimit="10"/>
<path d="M86.3438 28.6953L134.134 50.5962V129.515" stroke="#05C2DF" stroke-miterlimit="10"/>
<path d="M28.8105 46.8169L28.8105 72.0246" stroke="#05C2DF" stroke-miterlimit="10"/>
<path d="M28.957 77.6961V102.265C28.957 102.265 85.6764 151.208 147.178 102.265V47.3745" stroke="#05C2DF" stroke-miterlimit="10"/>
<path d="M134.135 145.668C138.548 145.668 142.126 142.073 142.126 137.639C142.126 133.206 138.548 129.611 134.135 129.611C129.722 129.611 126.145 133.206 126.145 137.639C126.145 142.073 129.722 145.668 134.135 145.668Z" stroke="#05C2DF" stroke-miterlimit="10"/>
</g>
<defs>
<clipPath id="clip0">
<rect width="176.454" height="145.844" fill="white" transform="translate(0 0.00292969)"/>
</clipPath>
</defs>
</svg>
