<svg width="160" height="2" viewBox="0 0 160 2" fill="none" xmlns="http://www.w3.org/2000/svg">
<g id="Group 3.1">
<path id="Vector" opacity="0.45" d="M5.22479 0H3.26562V2H5.22479V0Z" fill="#05C2DF"/>
<path id="Vector_2" opacity="0.45" d="M2.28583 0H0.32666V2H2.28583V0Z" fill="#05C2DF"/>
<path id="Vector_3" opacity="0.45" d="M8.1633 0H6.2041V2H8.1633V0Z" fill="#05C2DF"/>
<path id="Vector_4" opacity="0.45" d="M11.1022 0H9.14307V2H11.1022V0Z" fill="#05C2DF"/>
<path id="Vector_5" opacity="0.45" d="M14.0407 0H12.0815V2H14.0407V0Z" fill="#05C2DF"/>
<path id="Vector_6" opacity="0.45" d="M17.9592 0H16V2H17.9592V0Z" fill="#05C2DF"/>
<path id="Vector_7" opacity="0.45" d="M21.8777 0H19.9185V2H21.8777V0Z" fill="#05C2DF"/>
<path id="Vector_8" opacity="0.45" d="M25.7961 0H23.8369V2H25.7961V0Z" fill="#05C2DF"/>
<path id="Vector_9" opacity="0.45" d="M30.6941 0H28.7349V2H30.6941V0Z" fill="#05C2DF"/>
<path id="Vector_10" opacity="0.45" d="M35.592 0H33.6328V2H35.592V0Z" fill="#05C2DF"/>
<path id="Vector_11" opacity="0.45" d="M40.49 0H38.5308V2H40.49V0Z" fill="#05C2DF"/>
<path id="Vector_12" opacity="0.45" d="M45.3879 0H43.4287V2H45.3879V0Z" fill="#05C2DF"/>
<path id="Vector_13" opacity="0.45" d="M50.2858 0H48.3267V2H50.2858V0Z" fill="#05C2DF"/>
<path id="Vector_14" opacity="0.45" d="M55.1838 0H53.2246V2H55.1838V0Z" fill="#05C2DF"/>
<path id="Vector_15" opacity="0.45" d="M66.5468 0.230469H64.9795V1.83044H66.5468V0.230469Z" fill="#05C2DF"/>
<path id="Vector_16" opacity="0.45" d="M72.4248 0.230469H70.8574V1.83044H72.4248V0.230469Z" fill="#05C2DF"/>
<path id="Vector_17" opacity="0.45" d="M78.3022 0.230469H76.7349V1.83044H78.3022V0.230469Z" fill="#05C2DF"/>
<path id="Vector_18" opacity="0.45" d="M83.8858 0.429688H82.6123V1.72968H83.8858V0.429688Z" fill="#05C2DF"/>
<path id="Vector_19" opacity="0.45" d="M90.7432 0.429688H89.4697V1.72968H90.7432V0.429688Z" fill="#05C2DF"/>
<path id="Vector_20" opacity="0.45" d="M97.6001 0.429688H96.3267V1.72968H97.6001V0.429688Z" fill="#05C2DF"/>
<path id="Vector_21" opacity="0.45" d="M104.457 0.429688H103.184V1.72968H104.457V0.429688Z" fill="#05C2DF"/>
<path id="Vector_22" opacity="0.45" d="M112.294 0.429688H111.021V1.72968H112.294V0.429688Z" fill="#05C2DF"/>
<path id="Vector_23" opacity="0.45" d="M121.11 0.429688H119.837V1.72968H121.11V0.429688Z" fill="#05C2DF"/>
<path id="Vector_24" opacity="0.45" d="M60.6694 0.230469H59.1021V1.83044H60.6694V0.230469Z" fill="#05C2DF"/>
<path id="Vector_25" opacity="0.45" d="M159.021 0.5H158.041V1.5H159.021V0.5Z" fill="#05C2DF"/>
<path id="Vector_26" opacity="0.45" d="M145.306 0.5H144.327V1.5H145.306V0.5Z" fill="#05C2DF"/>
<path id="Vector_27" opacity="0.45" d="M132.571 0.5H131.592V1.5H132.571V0.5Z" fill="#05C2DF"/>
</g>
</svg>
