<svg width="55" height="34" viewBox="0 0 55 34" fill="none" xmlns="http://www.w3.org/2000/svg">
<path d="M53.1671 0H1.83289C0.820615 0 0 0.811701 0 1.81299V32.187C0 33.1883 0.820615 34 1.83289 34H53.1671C54.1794 34 55 33.1883 55 32.187V1.81299C55 0.811701 54.1794 0 53.1671 0Z" fill="#F9F9F9"/>
<path fill-rule="evenodd" clip-rule="evenodd" d="M34.1005 26.7611L34.6091 26.748L35.1134 26.7133L35.6045 26.6483L36.0912 26.5615L36.5692 26.4531L37.0384 26.323L37.4988 26.1668L37.946 25.9934L38.3845 25.7982L38.8143 25.5813L39.2264 25.3471L39.6298 25.0912L40.0157 24.8179L40.3884 24.5274L40.748 24.2237L41.09 23.8984L41.4189 23.5558L41.7302 23.2001L42.0196 22.8358L42.2959 22.4498L42.5546 22.0551L42.7914 21.6431L43.0106 21.2223L43.2079 20.7886L43.3833 20.3462L43.5412 19.8908L43.6771 19.4267L43.7868 18.9539L43.8701 18.4725L43.9358 17.9824L43.9709 17.4879L43.9841 16.9848L43.9709 16.4817L43.9358 15.9872L43.8701 15.5015L43.7868 15.0244L43.6771 14.5516L43.5412 14.0918L43.3833 13.6364L43.2079 13.1984L43.0106 12.7646L42.7914 12.3439L42.5546 11.9405L42.2959 11.5415L42.0196 11.1598L41.7302 10.7955L41.4189 10.4398L41.09 10.0972L40.748 9.77624L40.3884 9.46829L40.0157 9.18203L39.6298 8.90878L39.2264 8.65288L38.8143 8.41866L38.3845 8.20614L37.946 8.00662L37.4988 7.83313L37.0384 7.67699L36.5692 7.54687L36.0912 7.43844L35.6045 7.35169L35.1134 7.29097L34.6091 7.25627L34.1005 7.23892L33.5918 7.25627L33.0919 7.29097L32.5964 7.35169L32.1097 7.43844L31.6362 7.54687L31.167 7.67699L30.7109 7.83313L30.2637 8.00662L29.8252 8.20614L29.4042 8.41866L28.992 8.65288L28.5886 8.90878L28.2071 9.18203L27.83 9.46829L27.4749 9.77624L27.1328 10.0972L26.8084 10.4398L26.497 10.7955L26.2032 11.1598L25.9314 11.5415L25.6771 11.9405L25.4403 12.3439L25.221 12.7646L25.0237 13.1984L24.8439 13.6364L24.6948 14.0918L24.5589 14.5516L24.4493 15.0244L24.3616 15.5015L24.3002 15.9872L24.2651 16.4817L24.252 16.9848L24.2651 17.4879L24.3002 17.9824L24.3616 18.4725L24.4493 18.9539L24.5589 19.4267L24.6948 19.8908L24.8439 20.3462L25.0237 20.7886L25.221 21.2223L25.4403 21.6431L25.6771 22.0551L25.9314 22.4498L26.2032 22.8358L26.497 23.2001L26.8084 23.5558L27.1328 23.8984L27.4749 24.2237L27.83 24.5274L28.2071 24.8179L28.5886 25.0912L28.992 25.3471L29.4042 25.5813L29.8252 25.7982L30.2637 25.9934L30.7109 26.1668L31.167 26.323L31.6362 26.4531L32.1097 26.5615L32.5964 26.6483L33.0919 26.7133L33.5918 26.748L34.1005 26.7611Z" fill="#FBB231"/>
<path fill-rule="evenodd" clip-rule="evenodd" d="M20.8992 26.7611L21.4035 26.748L21.9078 26.7133L22.4033 26.6483L22.8856 26.5615L23.3635 26.4531L23.8327 26.323L24.2888 26.1668L24.736 25.9934L25.1745 25.7982L25.5955 25.5813L26.0077 25.3471L26.4067 25.0912L26.7969 24.8179L27.1697 24.5274L27.5248 24.2237L27.8669 23.8984L28.1913 23.5558L28.5027 23.2001L28.7965 22.8358L29.0683 22.4498L29.327 22.0551L29.5594 21.6431L29.7787 21.2223L29.976 20.7886L30.1558 20.3462L30.3049 19.8908L30.4408 19.4267L30.5504 18.9539L30.6337 18.4725L30.6995 17.9824L30.7346 17.4879L30.7477 16.9848L30.7346 16.4817L30.6995 15.9872L30.6337 15.5015L30.5504 15.0244L30.4408 14.5516L30.3049 14.0918L30.1558 13.6364L29.976 13.1984L29.7787 12.7646L29.5594 12.3439L29.327 11.9405L29.0683 11.5415L28.7965 11.1598L28.5027 10.7955L28.1913 10.4398L27.8669 10.0972L27.5248 9.77624L27.1697 9.46829L26.7969 9.18203L26.4067 8.90878L26.0077 8.65288L25.5955 8.41866L25.1745 8.20614L24.736 8.00662L24.2888 7.83313L23.8327 7.67699L23.3635 7.54687L22.8856 7.43844L22.4033 7.35169L21.9078 7.29097L21.4035 7.25627L20.8992 7.23892L20.3906 7.25627L19.8863 7.29097L19.3952 7.35169L18.9085 7.43844L18.4305 7.54687L17.9613 7.67699L17.5009 7.83313L17.0537 8.00662L16.6152 8.20614L16.1854 8.41866L15.7733 8.65288L15.3698 8.90878L14.984 9.18203L14.6113 9.46829L14.2517 9.77624L13.9097 10.0972L13.5808 10.4398L13.2739 10.7955L12.9801 11.1598L12.7038 11.5415L12.4451 11.9405L12.2083 12.3439L11.9891 12.7646L11.7918 13.1984L11.612 13.6364L11.4585 14.0918L11.3226 14.5516L11.2129 15.0244L11.1296 15.5015L11.0639 15.9872L11.0288 16.4817L11.0156 16.9848L11.0288 17.4879L11.0639 17.9824L11.1296 18.4725L11.2129 18.9539L11.3226 19.4267L11.4585 19.8908L11.612 20.3462L11.7918 20.7886L11.9891 21.2223L12.2083 21.6431L12.4451 22.0551L12.7038 22.4498L12.9801 22.8358L13.2739 23.2001L13.5808 23.5558L13.9097 23.8984L14.2517 24.2237L14.6113 24.5274L14.984 24.8179L15.3698 25.0912L15.7733 25.3471L16.1854 25.5813L16.6152 25.7982L17.0537 25.9934L17.5009 26.1668L17.9613 26.323L18.4305 26.4531L18.9085 26.5615L19.3952 26.6483L19.8863 26.7133L20.3906 26.748L20.8992 26.7611Z" fill="#EC1C2E"/>
<path fill-rule="evenodd" clip-rule="evenodd" d="M26.3438 10.9864H31.5881V10.4529H26.7954L26.3438 10.9864Z" fill="#FBB231"/>
<path fill-rule="evenodd" clip-rule="evenodd" d="M25.5605 12.1618H31.5898V11.6326H25.8763L25.5605 12.1618Z" fill="#FBB231"/>
<path fill-rule="evenodd" clip-rule="evenodd" d="M24.9727 13.3371H31.5895V12.808H25.2051L24.9727 13.3371Z" fill="#FBB231"/>
<path fill-rule="evenodd" clip-rule="evenodd" d="M24.5684 14.5169H31.5886V13.9877H24.735L24.5684 14.5169Z" fill="#FBB231"/>
<path fill-rule="evenodd" clip-rule="evenodd" d="M24.8053 20.2118H31.6019V19.6826H24.6387L24.8053 20.2118Z" fill="#FBB231"/>
<path fill-rule="evenodd" clip-rule="evenodd" d="M25.3046 21.3915H31.6014V20.8624H25.0547L25.3046 21.3915Z" fill="#FBB231"/>
<path fill-rule="evenodd" clip-rule="evenodd" d="M26.011 22.5669H31.6018V22.0378H25.6777L26.011 22.5669Z" fill="#FBB231"/>
<path fill-rule="evenodd" clip-rule="evenodd" d="M26.9848 23.7467H31.6021V23.2132H26.5156L26.9848 23.7467Z" fill="#FBB231"/>
<path fill-rule="evenodd" clip-rule="evenodd" d="M24.3359 15.6923H31.5886V15.1631H24.4368L24.3359 15.6923Z" fill="#FBB231"/>
<path fill-rule="evenodd" clip-rule="evenodd" d="M28.7559 19.0364H31.5184V18.5072H28.8567L28.7559 19.0364Z" fill="#FBB231"/>
<path fill-rule="evenodd" clip-rule="evenodd" d="M28.9746 17.8609H31.5179V17.3275H29.0755L28.9746 17.8609Z" fill="#FBB231"/>
<path fill-rule="evenodd" clip-rule="evenodd" d="M24.1523 17.3275H24.8715V17.8609H24.1874L24.1523 17.3275Z" fill="#FBB231"/>
<path fill-rule="evenodd" clip-rule="evenodd" d="M22.8093 16.6855L22.7611 16.6812L22.7172 16.6769L22.6734 16.6725L22.6295 16.6639L22.59 16.6595L22.5462 16.6508L22.5024 16.6422L22.4541 16.6378L22.4103 16.6292H22.3576L22.2963 16.6248L22.2349 16.6205H22.1647L22.0858 16.6248L21.9981 16.6292L21.9016 16.6378L21.8358 16.6465L21.7745 16.6595L21.7175 16.6769L21.6692 16.6942L21.621 16.7202L21.5771 16.7463L21.5421 16.781L21.5114 16.807L21.4938 16.846L21.4763 16.8807L21.4719 16.9198V16.9588L21.4807 17.0022L21.4938 17.0455L21.5201 17.0889L21.5552 17.1323L21.621 17.193L21.6999 17.245L21.792 17.2841L21.8928 17.3231L21.9981 17.3535L22.1077 17.3925L22.2217 17.4316L22.327 17.4749L22.4278 17.5313L22.5199 17.6007L22.6032 17.6831L22.6734 17.7829L22.726 17.9087L22.7611 18.0561L22.7742 18.234L22.7611 18.4421L22.7348 18.5983L22.6953 18.7327L22.6427 18.8585L22.5769 18.967L22.498 19.0624L22.4147 19.1404L22.3182 19.2142L22.2173 19.2792L22.1077 19.3269L21.9981 19.3703L21.8885 19.4007L21.7701 19.431L21.6561 19.4484L21.5464 19.4571L21.4368 19.4657L21.336 19.4701H21.1913L21.0597 19.4657H20.9413L20.8317 19.4614L20.7308 19.4571L20.6431 19.4527L20.5642 19.4441L20.4853 19.4354L20.4151 19.431L20.3537 19.418L20.288 19.405L20.231 19.3877L20.1783 19.3747L20.1213 19.3573L20.0687 19.3356L20.0117 19.3183L20.1608 18.5896L20.1915 18.5983L20.231 18.607L20.2748 18.62L20.3318 18.633L20.3932 18.646L20.459 18.659L20.5335 18.6764L20.6125 18.6894L20.6958 18.7024L20.7835 18.7154L20.8712 18.7241L20.9632 18.7327L21.0597 18.7371L21.1606 18.7414H21.2527L21.3491 18.7371L21.4456 18.7197L21.5245 18.6894L21.5859 18.6547L21.6298 18.6113L21.6648 18.5636L21.6911 18.5115L21.7087 18.4595L21.7218 18.4074L21.7262 18.312L21.6955 18.2296L21.6385 18.1646L21.5552 18.1082L21.4587 18.0605L21.3403 18.0084L21.2132 17.965L21.0816 17.913L20.9501 17.8523L20.8229 17.7829L20.7045 17.6961L20.5993 17.5964L20.516 17.4706L20.4546 17.3231L20.4239 17.1453L20.4283 16.9328L20.4458 16.807L20.4678 16.6812L20.5028 16.5728L20.5423 16.4643L20.5949 16.3689L20.6563 16.2822L20.7265 16.1998L20.8098 16.126L20.9062 16.0653L21.0115 16.0133L21.1299 15.9612L21.2658 15.9265L21.4149 15.8962L21.5771 15.8745L21.7569 15.8615L21.9542 15.8571H22.077L22.191 15.8615L22.2919 15.8658H22.3883L22.4717 15.8745L22.5462 15.8788L22.612 15.8875L22.6734 15.8918L22.7304 15.9005L22.7742 15.9092L22.8181 15.9178L22.8575 15.9222L22.8926 15.9308H22.9233L22.954 15.9395L22.9803 15.9439L22.8093 16.6855Z" fill="white"/>
<path d="M22.8093 16.6855L22.7611 16.6812L22.7172 16.6769L22.6734 16.6725L22.6295 16.6639L22.59 16.6595L22.5462 16.6508L22.5024 16.6422L22.4541 16.6378L22.4103 16.6292H22.3576L22.2963 16.6248L22.2349 16.6205H22.1647L22.0858 16.6248L21.9981 16.6292L21.9016 16.6378L21.8358 16.6465L21.7745 16.6595L21.7175 16.6769L21.6692 16.6942L21.621 16.7202L21.5771 16.7463L21.5421 16.781L21.5114 16.807L21.4938 16.846L21.4763 16.8807L21.4719 16.9198V16.9588L21.4807 17.0022L21.4938 17.0455L21.5201 17.0889L21.5552 17.1323L21.621 17.193L21.6999 17.245L21.792 17.2841L21.8928 17.3231L21.9981 17.3535L22.1077 17.3925L22.2217 17.4316L22.327 17.4749L22.4278 17.5313L22.5199 17.6007L22.6032 17.6831L22.6734 17.7829L22.726 17.9087L22.7611 18.0561L22.7742 18.234L22.7611 18.4421L22.7348 18.5983L22.6953 18.7327L22.6427 18.8585L22.5769 18.967L22.498 19.0624L22.4147 19.1404L22.3182 19.2142L22.2173 19.2792L22.1077 19.3269L21.9981 19.3703L21.8885 19.4007L21.7701 19.431L21.6561 19.4484L21.5464 19.4571L21.4368 19.4657L21.336 19.4701H21.1913L21.0597 19.4657H20.9413L20.8317 19.4614L20.7308 19.4571L20.6431 19.4527L20.5642 19.4441L20.4853 19.4354L20.4151 19.431L20.3537 19.418L20.288 19.405L20.231 19.3877L20.1783 19.3747L20.1213 19.3573L20.0687 19.3356L20.0117 19.3183L20.1608 18.5896L20.1915 18.5983L20.231 18.607L20.2748 18.62L20.3318 18.633L20.3932 18.646L20.459 18.659L20.5335 18.6764L20.6125 18.6894L20.6958 18.7024L20.7835 18.7154L20.8712 18.7241L20.9632 18.7327L21.0597 18.7371L21.1606 18.7414H21.2527L21.3491 18.7371L21.4456 18.7197L21.5245 18.6894L21.5859 18.6547L21.6298 18.6113L21.6648 18.5636L21.6911 18.5115L21.7087 18.4595L21.7218 18.4074L21.7262 18.312L21.6955 18.2296L21.6385 18.1646L21.5552 18.1082L21.4587 18.0605L21.3403 18.0084L21.2132 17.965L21.0816 17.913L20.9501 17.8523L20.8229 17.7829L20.7045 17.6961L20.5993 17.5964L20.516 17.4706L20.4546 17.3231L20.4239 17.1453L20.4283 16.9328L20.4458 16.807L20.4678 16.6812L20.5028 16.5728L20.5423 16.4643L20.5949 16.3689L20.6563 16.2822L20.7265 16.1998L20.8098 16.126L20.9062 16.0653L21.0115 16.0133L21.1299 15.9612L21.2658 15.9265L21.4149 15.8962L21.5771 15.8745L21.7569 15.8615L21.9542 15.8571H22.077L22.191 15.8615L22.2919 15.8658H22.3883L22.4717 15.8745L22.5462 15.8788L22.612 15.8875L22.6734 15.8918L22.7304 15.9005L22.7742 15.9092L22.8181 15.9178L22.8575 15.9222L22.8926 15.9308H22.9233L22.954 15.9395L22.9803 15.9439L22.8093 16.6855Z" stroke="white" stroke-width="0.22" stroke-miterlimit="2.61"/>
<path fill-rule="evenodd" clip-rule="evenodd" d="M23.5991 15.1285H24.52L24.384 15.9265H24.9409L24.8182 16.6726L24.235 16.6552L23.9149 18.4899L23.9105 18.5549L23.928 18.6113L23.9631 18.6547L24.0026 18.6894L24.0639 18.7154L24.1297 18.7328L24.2043 18.7458L24.2832 18.7545L24.3577 18.7501L24.4235 18.7458L24.4849 18.7328L24.5375 18.7198L24.5814 18.7067L24.6121 18.6981L24.6296 18.6894H24.6384L24.52 19.3009L24.4981 19.3183L24.4717 19.3313L24.4498 19.3443L24.4279 19.3573L24.406 19.366L24.3753 19.3747L24.349 19.3877L24.3183 19.3964L24.2832 19.405L24.2525 19.4137L24.213 19.4181L24.1736 19.4267L24.1297 19.4311L24.0771 19.4397L24.0245 19.4441L23.9675 19.4528H23.7132L23.5816 19.4441L23.4676 19.4311L23.358 19.4094L23.2703 19.3877L23.1913 19.3573L23.13 19.3226L23.073 19.2836L23.0291 19.2402L22.994 19.1969L22.9721 19.1405L22.9546 19.0841L22.9458 19.019L22.9414 18.954V18.8802L22.9546 18.8022L22.9633 18.7198L23.5991 15.1285Z" fill="white"/>
<path d="M23.5991 15.1285H24.52L24.384 15.9265H24.9409L24.8182 16.6726L24.235 16.6552L23.9149 18.4899L23.9105 18.5549L23.928 18.6113L23.9631 18.6547L24.0026 18.6894L24.0639 18.7154L24.1297 18.7328L24.2043 18.7458L24.2832 18.7545L24.3577 18.7501L24.4235 18.7458L24.4849 18.7328L24.5375 18.7198L24.5814 18.7067L24.6121 18.6981L24.6296 18.6894H24.6384L24.52 19.3009L24.4981 19.3183L24.4717 19.3313L24.4498 19.3443L24.4279 19.3573L24.406 19.366L24.3753 19.3747L24.349 19.3877L24.3183 19.3964L24.2832 19.405L24.2525 19.4137L24.213 19.4181L24.1736 19.4267L24.1297 19.4311L24.0771 19.4397L24.0245 19.4441L23.9675 19.4528H23.7132L23.5816 19.4441L23.4676 19.4311L23.358 19.4094L23.2703 19.3877L23.1913 19.3573L23.13 19.3226L23.073 19.2836L23.0291 19.2402L22.994 19.1969L22.9721 19.1405L22.9546 19.0841L22.9458 19.019L22.9414 18.954V18.8802L22.9546 18.8022L22.9633 18.7198L23.5991 15.1285Z" stroke="white" stroke-width="0.22" stroke-miterlimit="2.61"/>
<path d="M25.6785 17.913L25.6654 17.965L25.661 18.0258L25.6698 18.0908L25.6829 18.1515L25.7048 18.2123L25.7355 18.273L25.7706 18.338L25.8101 18.3901L25.8583 18.4465L25.9065 18.4985L25.9592 18.5462L26.0206 18.5853L26.0776 18.6243L26.1477 18.6503L26.2135 18.6764L26.2793 18.6894L26.367 18.7024L26.4503 18.7111L26.5336 18.7197L26.6213 18.7284L26.709 18.7327H26.7967L26.8844 18.7284L26.9765 18.7197L27.0642 18.7067L27.1562 18.6894L27.2483 18.672L27.336 18.6417L27.4325 18.607L27.5246 18.5679L27.621 18.5159L27.7175 18.4595L27.586 19.2662L27.529 19.2922L27.4763 19.3226L27.4237 19.34L27.3755 19.3616L27.3229 19.3747L27.2703 19.392L27.2176 19.405L27.1606 19.418L27.0992 19.4267L27.0335 19.431L26.9633 19.4397L26.8888 19.4441L26.8011 19.4484H26.7134L26.6081 19.4527H26.4985L26.3363 19.4484L26.1696 19.431L26.003 19.4094L25.8364 19.3703L25.6741 19.3226L25.5163 19.2576L25.3672 19.1751L25.2269 19.0797L25.0953 18.967L24.9857 18.8325L24.8892 18.6807L24.8059 18.5072L24.7533 18.312L24.7138 18.0908L24.7051 17.8479L24.7226 17.579L24.7358 17.4749L24.7533 17.3535L24.7796 17.2234L24.8191 17.0846L24.8673 16.9414L24.9287 16.8026L25.0033 16.6595L25.0953 16.5207L25.205 16.3863L25.3321 16.2605L25.4812 16.1521L25.6478 16.0523L25.8408 15.9699L26.0556 15.9092L26.2968 15.8701L26.5643 15.8571L26.6958 15.8615L26.8318 15.8745L26.9677 15.8962L27.1036 15.9308L27.2396 15.9786L27.3667 16.0393L27.4895 16.1174L27.5991 16.2084L27.6956 16.3212L27.7789 16.4557L27.8447 16.6031L27.8929 16.781L27.9192 16.9761L27.9236 17.2017L27.9017 17.4489L27.8491 17.7265L27.8315 17.926H25.4067L25.5601 17.2797H27.0159L27.0247 17.1973L27.0203 17.1193L27.0115 17.0455L27.0028 16.9805L26.9765 16.9154L26.9545 16.859L26.9195 16.8113L26.8888 16.7679L26.8493 16.7246L26.8055 16.6942L26.7572 16.6639L26.7046 16.6378L26.652 16.6161L26.5994 16.6031L26.5424 16.5945L26.481 16.5858L26.4196 16.5901L26.3582 16.5988L26.3012 16.6161L26.2442 16.6335L26.1872 16.6595L26.1389 16.6899L26.0907 16.7246L26.0469 16.7679L26.003 16.8113L25.9635 16.859L25.9285 16.9154L25.8978 16.9718L25.8671 17.0282L25.8452 17.0932L25.8232 17.1626L25.8101 17.232L25.6785 17.913Z" stroke="white" stroke-width="0.22" stroke-miterlimit="2.61"/>
<path fill-rule="evenodd" clip-rule="evenodd" d="M33.6146 16.1217L33.5708 16.1L33.5269 16.0827L33.4787 16.0567L33.4305 16.035L33.3822 16.0133L33.3252 15.9959L33.2682 15.9743L33.2068 15.9569L33.1454 15.9396L33.0797 15.9265L33.0139 15.9135L32.9437 15.9049L32.8648 15.8962L32.7903 15.8918H32.707H32.628H32.5447L32.457 15.8962L32.3649 15.9049L32.2728 15.9222L32.1808 15.9482L32.0887 15.9873L31.9922 16.0306L31.9001 16.0914L31.8124 16.1651L31.7247 16.2475L31.6414 16.3559L31.5625 16.4774L31.4879 16.6205L31.4178 16.7853L31.352 16.9718L31.3038 17.18L31.2819 17.2971L31.2687 17.4142L31.2599 17.5313L31.2643 17.6398L31.2731 17.7525L31.2994 17.8566L31.3257 17.9564L31.3652 18.0562L31.4134 18.1472L31.4748 18.2296L31.545 18.3077L31.6239 18.3771L31.716 18.4335L31.8168 18.4855L31.9308 18.5289L32.058 18.5549L32.0974 18.568L32.1501 18.5766L32.2115 18.581L32.2772 18.5896L32.3474 18.5983H32.4263H32.5096L32.5929 18.5896L32.6806 18.581L32.764 18.5636L32.8473 18.5419L32.9306 18.5159L33.0139 18.4769L33.0928 18.4335L33.163 18.3815L33.2288 18.3251L33.0797 19.2012L33.0577 19.2185L33.0402 19.2402L33.0139 19.2619L32.9832 19.2793L32.9437 19.3053L32.8999 19.3313L32.8473 19.353L32.7859 19.3747L32.707 19.3964L32.6236 19.4137L32.5228 19.4267L32.4044 19.4397L32.2772 19.4441L32.1281 19.4484L31.9571 19.4441L31.7686 19.4354L31.6151 19.4181L31.4616 19.3877L31.3126 19.3357L31.1591 19.2706L31.01 19.1925L30.8697 19.0928L30.7381 18.98L30.6153 18.8455L30.5057 18.6981L30.4136 18.5333L30.3303 18.3511L30.2733 18.1472L30.2339 17.926L30.2207 17.6962L30.2251 17.4359L30.2646 17.1627L30.2909 17.0282L30.3172 16.8981L30.3523 16.768L30.3873 16.6465L30.4224 16.5338L30.4663 16.4167L30.5101 16.3082L30.554 16.2085L30.6066 16.1044L30.6548 16.009L30.7118 15.9179L30.7732 15.8311L30.8302 15.7487L30.9004 15.6706L30.9661 15.5969L31.0363 15.5275L31.1108 15.4625L31.1898 15.4017L31.2687 15.3454L31.352 15.289L31.4397 15.2413L31.5318 15.1979L31.6239 15.1588L31.7203 15.1241L31.8256 15.0895L31.9264 15.0634L32.0317 15.0417L32.1457 15.0201L32.2597 15.0027L32.3781 14.9897L32.5009 14.9854L32.628 14.981L32.7333 14.9854L32.8341 14.9897L32.935 15.0027L33.0358 15.0157L33.1279 15.0287L33.22 15.0461L33.3033 15.0634L33.3866 15.0851L33.4612 15.1025L33.5269 15.1241L33.5927 15.1415L33.6453 15.1632L33.6892 15.1805L33.7286 15.1935L33.7593 15.2066L33.7813 15.2109L33.6146 16.1217Z" fill="white"/>
<path d="M33.6146 16.1217L33.5708 16.1L33.5269 16.0827L33.4787 16.0567L33.4305 16.035L33.3822 16.0133L33.3252 15.9959L33.2682 15.9743L33.2068 15.9569L33.1454 15.9396L33.0797 15.9265L33.0139 15.9135L32.9437 15.9049L32.8648 15.8962L32.7903 15.8918H32.707H32.628H32.5447L32.457 15.8962L32.3649 15.9049L32.2728 15.9222L32.1808 15.9482L32.0887 15.9873L31.9922 16.0306L31.9001 16.0914L31.8124 16.1651L31.7247 16.2475L31.6414 16.3559L31.5625 16.4774L31.4879 16.6205L31.4178 16.7853L31.352 16.9718L31.3038 17.18L31.2819 17.2971L31.2687 17.4142L31.2599 17.5313L31.2643 17.6398L31.2731 17.7525L31.2994 17.8566L31.3257 17.9564L31.3652 18.0562L31.4134 18.1472L31.4748 18.2296L31.545 18.3077L31.6239 18.3771L31.716 18.4335L31.8168 18.4855L31.9308 18.5289L32.058 18.5549L32.0974 18.568L32.1501 18.5766L32.2115 18.581L32.2772 18.5896L32.3474 18.5983H32.4263H32.5096L32.5929 18.5896L32.6806 18.581L32.764 18.5636L32.8473 18.5419L32.9306 18.5159L33.0139 18.4769L33.0928 18.4335L33.163 18.3815L33.2288 18.3251L33.0797 19.2012L33.0577 19.2185L33.0402 19.2402L33.0139 19.2619L32.9832 19.2793L32.9437 19.3053L32.8999 19.3313L32.8473 19.353L32.7859 19.3747L32.707 19.3964L32.6236 19.4137L32.5228 19.4267L32.4044 19.4397L32.2772 19.4441L32.1281 19.4484L31.9571 19.4441L31.7686 19.4354L31.6151 19.4181L31.4616 19.3877L31.3126 19.3357L31.1591 19.2706L31.01 19.1925L30.8697 19.0928L30.7381 18.98L30.6153 18.8455L30.5057 18.6981L30.4136 18.5333L30.3303 18.3511L30.2733 18.1472L30.2339 17.926L30.2207 17.6962L30.2251 17.4359L30.2646 17.1627L30.2909 17.0282L30.3172 16.8981L30.3523 16.768L30.3873 16.6465L30.4224 16.5338L30.4663 16.4167L30.5101 16.3082L30.554 16.2085L30.6066 16.1044L30.6548 16.009L30.7118 15.9179L30.7732 15.8311L30.8302 15.7487L30.9004 15.6706L30.9661 15.5969L31.0363 15.5275L31.1108 15.4625L31.1898 15.4017L31.2687 15.3454L31.352 15.289L31.4397 15.2413L31.5318 15.1979L31.6239 15.1588L31.7203 15.1241L31.8256 15.0895L31.9264 15.0634L32.0317 15.0417L32.1457 15.0201L32.2597 15.0027L32.3781 14.9897L32.5009 14.9854L32.628 14.981L32.7333 14.9854L32.8341 14.9897L32.935 15.0027L33.0358 15.0157L33.1279 15.0287L33.22 15.0461L33.3033 15.0634L33.3866 15.0851L33.4612 15.1025L33.5269 15.1241L33.5927 15.1415L33.6453 15.1632L33.6892 15.1805L33.7286 15.1935L33.7593 15.2066L33.7813 15.2109L33.6146 16.1217Z" stroke="white" stroke-width="0.22" stroke-miterlimit="2.61"/>
<path fill-rule="evenodd" clip-rule="evenodd" d="M41.8097 19.4527H40.8889L40.9547 19.0884V19.0537L40.902 19.1188L40.8406 19.1795L40.788 19.2315L40.7266 19.2792L40.6653 19.3226L40.6082 19.3573L40.5469 19.3877L40.4855 19.418L40.4197 19.4397L40.3583 19.4571L40.2925 19.4701L40.2268 19.4831L40.161 19.4918L40.0996 19.4961L40.0338 19.5004H39.9637L39.7927 19.4874L39.6304 19.4527L39.4857 19.3964L39.3542 19.3226L39.2314 19.2272L39.1261 19.1144L39.0341 18.993L38.9507 18.8542L38.885 18.7067L38.8324 18.5506L38.7973 18.3901L38.771 18.2209L38.7578 18.0518L38.7622 17.8826L38.7797 17.7135L38.8104 17.5443L38.8587 17.3535L38.9201 17.167L38.9902 16.9978L39.0735 16.8417L39.1612 16.6942L39.2577 16.5598L39.3629 16.4427L39.4726 16.3342L39.5866 16.2388L39.7093 16.1564L39.8365 16.0827L39.9637 16.0263L40.0996 15.9829L40.2311 15.9525L40.3627 15.9309L40.4986 15.9265L40.5951 15.9309L40.6916 15.9395L40.7793 15.9569L40.8582 15.9786L40.9327 16.0046L40.9985 16.035L41.0687 16.0697L41.1257 16.1087L41.1783 16.1477L41.2309 16.1911L41.2748 16.2301L41.3142 16.2735L41.3449 16.3169L41.3756 16.3603L41.4019 16.3993L41.4238 16.4383L41.6562 15.1458H42.5595L41.8097 19.4527Z" fill="white"/>
<path d="M41.8097 19.4527H40.8889L40.9547 19.0884V19.0537L40.902 19.1188L40.8406 19.1795L40.788 19.2315L40.7266 19.2792L40.6653 19.3226L40.6082 19.3573L40.5469 19.3877L40.4855 19.418L40.4197 19.4397L40.3583 19.4571L40.2925 19.4701L40.2268 19.4831L40.161 19.4918L40.0996 19.4961L40.0338 19.5004H39.9637L39.7927 19.4874L39.6304 19.4527L39.4857 19.3964L39.3542 19.3226L39.2314 19.2272L39.1261 19.1144L39.0341 18.993L38.9507 18.8542L38.885 18.7067L38.8324 18.5506L38.7973 18.3901L38.771 18.2209L38.7578 18.0518L38.7622 17.8826L38.7797 17.7135L38.8104 17.5443L38.8587 17.3535L38.9201 17.167L38.9902 16.9978L39.0735 16.8417L39.1612 16.6942L39.2577 16.5598L39.3629 16.4427L39.4726 16.3342L39.5866 16.2388L39.7093 16.1564L39.8365 16.0827L39.9637 16.0263L40.0996 15.9829L40.2311 15.9525L40.3627 15.9309L40.4986 15.9265L40.5951 15.9309L40.6916 15.9395L40.7793 15.9569L40.8582 15.9786L40.9327 16.0046L40.9985 16.035L41.0687 16.0697L41.1257 16.1087L41.1783 16.1477L41.2309 16.1911L41.2748 16.2301L41.3142 16.2735L41.3449 16.3169L41.3756 16.3603L41.4019 16.3993L41.4238 16.4383L41.6562 15.1458H42.5595L41.8097 19.4527Z" stroke="white" stroke-width="0.22" stroke-miterlimit="2.61"/>
<path fill-rule="evenodd" clip-rule="evenodd" d="M40.3012 18.6547L40.3933 18.6504L40.481 18.6287L40.5599 18.607L40.6389 18.568L40.7046 18.5333L40.7748 18.4812L40.8362 18.4248L40.8932 18.3641L40.9414 18.299L40.9897 18.2253L41.0335 18.1516L41.0686 18.0735L41.1037 17.9911L41.13 17.9044L41.1519 17.8176L41.1694 17.7265L41.187 17.6354L41.1957 17.54V17.4489L41.1914 17.3579L41.1826 17.2711L41.1694 17.1887L41.1475 17.1106L41.1212 17.0369L41.0861 16.9718L41.0467 16.9068L41.0028 16.8547L40.9546 16.807L40.8976 16.768L40.8362 16.742L40.7748 16.7246L40.7046 16.7203L40.6126 16.7246L40.5292 16.7376L40.4547 16.768L40.3758 16.7983L40.31 16.8417L40.2442 16.8938L40.1872 16.9502L40.1302 17.0152L40.082 17.0846L40.0337 17.1627L39.9899 17.2408L39.9548 17.3275L39.9197 17.4142L39.8934 17.5053L39.8671 17.6007L39.8496 17.6962L39.832 17.8393L39.8364 17.9954L39.8627 18.1603L39.9066 18.3121L39.9724 18.4465L40.06 18.5549L40.1697 18.6287L40.3012 18.6547Z" fill="#FBB231"/>
<path fill-rule="evenodd" clip-rule="evenodd" d="M19.8625 18.7198L19.7266 19.4528H18.889L18.911 19.3183L18.9285 19.1969L18.9417 19.1014L18.9548 19.0537L18.9066 19.1058L18.854 19.1578L18.7926 19.2099L18.7224 19.2533L18.6435 19.301L18.5602 19.34L18.4725 19.379L18.3804 19.4137L18.2839 19.4441L18.1874 19.4658L18.091 19.4831L17.9945 19.4961L17.8937 19.5048L17.8016 19.5092L17.7051 19.4961L17.6174 19.4831L17.499 19.4571L17.3938 19.4224L17.3017 19.379L17.2184 19.3313L17.1438 19.2793L17.0781 19.2186L17.0254 19.1535L16.9772 19.0884L16.9377 19.019L16.9027 18.9496L16.8764 18.8759L16.8588 18.8022L16.8457 18.7284L16.8325 18.6504L16.8281 18.581V18.5072L16.8369 18.3771L16.8588 18.2557L16.8895 18.1429L16.9334 18.0301L16.986 17.926L17.0474 17.8306L17.1175 17.7395L17.1965 17.6528L17.2798 17.5791L17.3719 17.5097L17.4683 17.4489L17.5692 17.3926L17.6744 17.3492L17.784 17.3101L17.898 17.2841L18.0164 17.2624H18.0208L18.0384 17.2581H18.0647L18.0998 17.2538L18.1392 17.2451H18.1874L18.2357 17.2364L18.2927 17.2321L18.3497 17.2234L18.4067 17.2191L18.4681 17.2147L18.5163 17.2061L18.5733 17.2017H18.6216L18.6698 17.1974H18.7049H18.7838L18.8627 17.2017H18.9329H19.0074L19.0688 17.2061L19.1127 17.2104L19.1477 17.2147H19.1565L19.1653 17.1887L19.1828 17.1323L19.2004 17.0629L19.2091 16.9979L19.1916 16.9285L19.1653 16.8591L19.1258 16.8027L19.0688 16.7506L19.0074 16.7116L18.9373 16.6812L18.8583 16.6596L18.7706 16.6552L18.6786 16.6509L18.5777 16.6465H18.4769L18.3672 16.6509L18.2576 16.6596L18.1524 16.6682L18.0471 16.6769L17.9419 16.6899L17.841 16.7029L17.7446 16.7203L17.6613 16.7376L17.5779 16.7506L17.5078 16.7723L17.4464 16.794L17.4025 16.8157L17.3631 16.833L17.5999 16.0393L17.6744 16.0133L17.7446 15.9873L17.8279 15.9612L17.9068 15.9439L17.9857 15.9309L18.0734 15.9179L18.1568 15.9049L18.2488 15.8962L18.3409 15.8919L18.4374 15.8875L18.5382 15.8832H18.6435H18.7487H18.8583L18.9724 15.8875L19.0907 15.8919L19.1828 15.8962L19.2837 15.9135L19.3889 15.9352L19.4942 15.9656L19.595 16.0046L19.6959 16.0523L19.7967 16.1087L19.8888 16.1694L19.9721 16.2432L20.0467 16.3212L20.1124 16.408L20.1607 16.5077L20.1957 16.6162L20.2133 16.7246V16.8504L20.1957 16.9848L19.8625 18.7198Z" fill="white"/>
<path d="M19.8625 18.7198L19.7266 19.4528H18.889L18.911 19.3183L18.9285 19.1969L18.9417 19.1014L18.9548 19.0537L18.9066 19.1058L18.854 19.1578L18.7926 19.2099L18.7224 19.2533L18.6435 19.301L18.5602 19.34L18.4725 19.379L18.3804 19.4137L18.2839 19.4441L18.1874 19.4658L18.091 19.4831L17.9945 19.4961L17.8937 19.5048L17.8016 19.5092L17.7051 19.4961L17.6174 19.4831L17.499 19.4571L17.3938 19.4224L17.3017 19.379L17.2184 19.3313L17.1438 19.2793L17.0781 19.2186L17.0254 19.1535L16.9772 19.0884L16.9377 19.019L16.9027 18.9496L16.8764 18.8759L16.8588 18.8022L16.8457 18.7284L16.8325 18.6504L16.8281 18.581V18.5072L16.8369 18.3771L16.8588 18.2557L16.8895 18.1429L16.9334 18.0301L16.986 17.926L17.0474 17.8306L17.1175 17.7395L17.1965 17.6528L17.2798 17.5791L17.3719 17.5097L17.4683 17.4489L17.5692 17.3926L17.6744 17.3492L17.784 17.3101L17.898 17.2841L18.0164 17.2624H18.0208L18.0384 17.2581H18.0647L18.0998 17.2538L18.1392 17.2451H18.1874L18.2357 17.2364L18.2927 17.2321L18.3497 17.2234L18.4067 17.2191L18.4681 17.2147L18.5163 17.2061L18.5733 17.2017H18.6216L18.6698 17.1974H18.7049H18.7838L18.8627 17.2017H18.9329H19.0074L19.0688 17.2061L19.1127 17.2104L19.1477 17.2147H19.1565L19.1653 17.1887L19.1828 17.1323L19.2004 17.0629L19.2091 16.9979L19.1916 16.9285L19.1653 16.8591L19.1258 16.8027L19.0688 16.7506L19.0074 16.7116L18.9373 16.6812L18.8583 16.6596L18.7706 16.6552L18.6786 16.6509L18.5777 16.6465H18.4769L18.3672 16.6509L18.2576 16.6596L18.1524 16.6682L18.0471 16.6769L17.9419 16.6899L17.841 16.7029L17.7446 16.7203L17.6613 16.7376L17.5779 16.7506L17.5078 16.7723L17.4464 16.794L17.4025 16.8157L17.3631 16.833L17.5999 16.0393L17.6744 16.0133L17.7446 15.9873L17.8279 15.9613L17.9068 15.9439L17.9857 15.9309L18.0734 15.9179L18.1568 15.9049L18.2488 15.8962L18.3409 15.8919L18.4374 15.8875L18.5382 15.8832H18.6435H18.7487H18.8583L18.9724 15.8875L19.0907 15.8919L19.1828 15.8962L19.2837 15.9135L19.3889 15.9352L19.4942 15.9656L19.595 16.0046L19.6959 16.0523L19.7967 16.1087L19.8888 16.1694L19.9721 16.2432L20.0467 16.3212L20.1124 16.408L20.1607 16.5077L20.1957 16.6162L20.2133 16.7246V16.8504L20.1957 16.9848L19.8625 18.7198Z" stroke="white" stroke-width="0.22" stroke-miterlimit="2.61"/>
<path fill-rule="evenodd" clip-rule="evenodd" d="M19.0604 17.861L19.056 17.8479L19.0428 17.8306L19.0209 17.8176L18.9902 17.8132L18.9507 17.8046H18.9069H18.8587H18.806H18.7534L18.7008 17.8132L18.6438 17.8176L18.5912 17.8263L18.5429 17.8349L18.4947 17.8436L18.4552 17.8523L18.4202 17.861L18.3939 17.8696L18.3675 17.8783L18.3325 17.8913L18.2974 17.9087L18.2535 17.926L18.2097 17.952L18.1615 17.9737L18.1176 17.9997L18.0738 18.0344L18.0299 18.0648L17.9904 18.1038L17.9554 18.1472L17.9203 18.1862L17.894 18.234L17.8764 18.286L17.8677 18.3381L17.8633 18.4508L17.8808 18.5419L17.9115 18.607L17.9554 18.6547L18.008 18.6894L18.065 18.7067L18.1176 18.7197H18.1702H18.2667L18.3588 18.7067L18.4465 18.6937L18.521 18.6764L18.5868 18.6503L18.6526 18.6243L18.7096 18.594L18.7578 18.5549L18.8017 18.5246L18.8411 18.4855L18.8762 18.4465L18.9025 18.4074L18.9244 18.3684L18.9464 18.3294L18.9595 18.2947L18.9727 18.2556L18.999 18.1602L19.0209 18.0518L19.0428 17.9477L19.0604 17.861Z" fill="#EC1C2E"/>
<path fill-rule="evenodd" clip-rule="evenodd" d="M12.8564 19.4528H11.9531L12.7073 15.1285H14.2815L14.4306 17.6962L15.5224 15.1285H17.1668L16.3907 19.4528H15.4874L16.0618 16.2215H16.0223L14.6674 19.4528H13.6457L13.6413 19.3183L13.615 18.9583L13.5887 18.4465L13.5536 17.861L13.5185 17.2711L13.4922 16.755L13.4659 16.382L13.4615 16.2215H13.4528H13.4308H13.4089L12.8564 19.4528Z" fill="white"/>
<path d="M12.8564 19.4528H11.9531L12.7073 15.1285H14.2815L14.4306 17.6962L15.5224 15.1285H17.1668L16.3907 19.4528H15.4874L16.0618 16.2215H16.0223L14.6674 19.4528H13.6457L13.6413 19.3183L13.615 18.9583L13.5887 18.4465L13.5536 17.861L13.5185 17.2711L13.4922 16.755L13.4659 16.382L13.4615 16.2215H13.4528H13.4308H13.4089L12.8564 19.4528Z" stroke="white" stroke-width="0.22" stroke-miterlimit="2.61"/>
<path fill-rule="evenodd" clip-rule="evenodd" d="M36.3821 18.7198L36.2461 19.4528H35.4086L35.4174 19.3183V19.2012V19.1101L35.4261 19.0711L35.3823 19.1188L35.3341 19.1708L35.2727 19.2142L35.2069 19.2619L35.1367 19.3053L35.0578 19.3443L34.9745 19.3834L34.8912 19.4181L34.7991 19.4441L34.707 19.4701L34.6149 19.4831L34.5185 19.4961L34.422 19.5048L34.3299 19.5092L34.2422 19.4961L34.1501 19.4831L34.0317 19.4571L33.9265 19.4224L33.83 19.379L33.7423 19.3313L33.6722 19.2793L33.6064 19.2186L33.5538 19.1535L33.5099 19.0884L33.4705 19.019L33.4398 18.9496L33.4135 18.8759L33.3959 18.8022L33.3828 18.7284L33.374 18.6504L33.3652 18.581V18.5072L33.374 18.3771L33.3915 18.2557L33.4222 18.1429L33.4661 18.0301L33.5143 17.926L33.5801 17.8306L33.6459 17.7395L33.7248 17.6528L33.8125 17.5791L33.9002 17.5097L33.9967 17.4489L34.1019 17.3926L34.2028 17.3492L34.3124 17.3101L34.422 17.2841L34.536 17.2624H34.5448L34.5579 17.2581H34.5842L34.6149 17.2538L34.6588 17.2451H34.707L34.7553 17.2364L34.8079 17.2321L34.8649 17.2234L34.9263 17.2191L34.9833 17.2147L35.0403 17.2061L35.0929 17.2017H35.1411L35.185 17.1974H35.2244H35.3034L35.3823 17.2017H35.4568H35.5314L35.5972 17.2061L35.6498 17.2104L35.6761 17.2147H35.6936L35.698 17.1887L35.7112 17.1323L35.7199 17.0629L35.7243 16.9979L35.7112 16.9285L35.6849 16.8591L35.641 16.8027L35.5928 16.7506L35.5314 16.7116L35.4612 16.6812L35.3867 16.6596L35.3078 16.6552L35.2157 16.6509L35.1148 16.6465H35.014L34.9043 16.6509L34.7947 16.6596L34.6895 16.6682L34.5842 16.6769L34.479 16.6899L34.3782 16.7029L34.2861 16.7203L34.1984 16.7376L34.1194 16.7506L34.0449 16.7723L33.9835 16.794L33.9353 16.8157L33.9002 16.833L34.1326 16.0393L34.2071 16.0133L34.2861 15.9873L34.3606 15.9612L34.4395 15.9439L34.5229 15.9309L34.6062 15.9179L34.6939 15.9049L34.7816 15.8962L34.878 15.8919L34.9745 15.8875L35.071 15.8832H35.1718H35.2771H35.3823L35.4963 15.8875L35.6103 15.8919L35.7024 15.8962L35.8032 15.9135L35.9041 15.9352L36.0137 15.9656L36.1146 16.0046L36.2154 16.0523L36.3163 16.1087L36.4084 16.1694L36.4961 16.2432L36.5706 16.3212L36.6364 16.408L36.689 16.5077L36.7241 16.6162L36.746 16.7246V16.8504L36.7328 16.9848L36.3821 18.7198Z" fill="white"/>
<path fill-rule="evenodd" clip-rule="evenodd" d="M36.2465 19.4744L36.2641 19.4571L36.4 18.7241L36.3605 18.7197L36.2246 19.4484L36.2465 19.431V19.4744L36.2597 19.4701L36.2641 19.4571L36.2465 19.4744Z" fill="white"/>
<path fill-rule="evenodd" clip-rule="evenodd" d="M35.3867 19.4527L35.4086 19.4744H36.2462V19.431H35.4086L35.4306 19.4527H35.3867V19.4744H35.4086L35.3867 19.4527Z" fill="white"/>
<path fill-rule="evenodd" clip-rule="evenodd" d="M35.4437 19.0841L35.413 19.058L35.3999 19.1101L35.3955 19.2012V19.3183L35.3867 19.4527H35.4306L35.435 19.3183L35.4437 19.2012L35.4393 19.1101V19.0841L35.4086 19.058L35.4437 19.0841Z" fill="white"/>
<path fill-rule="evenodd" clip-rule="evenodd" d="M34.1465 19.5048L34.2429 19.5178L34.3306 19.5265H34.4227L34.5192 19.5178L34.6157 19.5048L34.7121 19.4874L34.8042 19.4614L34.8963 19.4354L34.9796 19.4007L35.0673 19.366L35.1462 19.3226L35.2164 19.2792L35.2866 19.2315L35.3479 19.1838L35.4006 19.1318L35.4444 19.0841L35.4093 19.058L35.3655 19.1058L35.3216 19.1535L35.2603 19.2012L35.1989 19.2445L35.1287 19.2836L35.0454 19.3226L34.9665 19.366L34.8831 19.3964L34.7954 19.4224L34.7034 19.4484L34.6113 19.4658L34.5192 19.4788L34.4227 19.4831L34.3306 19.4874L34.2429 19.4788L34.1553 19.4658L34.1465 19.5048Z" fill="white"/>
<path fill-rule="evenodd" clip-rule="evenodd" d="M33.3438 18.5072V18.5809L33.3525 18.6503L33.3613 18.7327L33.3744 18.8065L33.392 18.8802L33.4183 18.9539L33.449 19.032L33.4928 19.1014L33.5367 19.1708L33.5937 19.2315L33.6595 19.2923L33.734 19.3486L33.8217 19.4007L33.9182 19.4441L34.0278 19.4744L34.1462 19.5048L34.155 19.4657L34.0366 19.4354L33.9313 19.4007L33.8392 19.3617L33.7559 19.3139L33.6858 19.2619L33.6244 19.2055L33.5718 19.1404L33.5235 19.0797L33.4885 19.0103L33.4578 18.9409L33.4314 18.8715L33.4139 18.8021L33.4008 18.7241L33.392 18.6503L33.3876 18.5809V18.5072H33.3438Z" fill="white"/>
<path fill-rule="evenodd" clip-rule="evenodd" d="M34.5364 17.2451L34.4224 17.2624L34.3084 17.2928L34.1988 17.3275L34.0936 17.3752L33.9883 17.4272L33.8875 17.4923L33.7998 17.5617L33.7121 17.6397L33.6332 17.7222L33.563 17.8176L33.4972 17.913L33.4446 18.0214L33.4008 18.1342L33.3744 18.2556L33.3525 18.3771L33.3438 18.5072H33.3876L33.392 18.3771L33.4139 18.26L33.4446 18.1472L33.4841 18.0388L33.5367 17.9347L33.5937 17.8436L33.6638 17.7482L33.7384 17.6658L33.8261 17.5964L33.9138 17.527L34.0059 17.4663L34.1111 17.4142L34.212 17.3665L34.3216 17.3318L34.4268 17.3014L34.5364 17.2841V17.2451Z" fill="white"/>
<path fill-rule="evenodd" clip-rule="evenodd" d="M35.2236 17.1757H35.1841L35.1403 17.18L35.092 17.1843L35.0394 17.1887L34.9824 17.193L34.9254 17.1973L34.864 17.2017L34.807 17.2104L34.7544 17.219L34.7062 17.2234L34.6579 17.2277L34.6141 17.232L34.5834 17.2364L34.5571 17.2407L34.5439 17.2451H34.5352V17.2841H34.5439L34.5615 17.2798L34.5834 17.2754L34.6141 17.2711L34.6579 17.2667L34.7062 17.2624L34.7544 17.2581L34.807 17.2494L34.864 17.2451L34.9254 17.2364L34.9824 17.232L35.0394 17.2277L35.092 17.2234L35.1403 17.219H35.1841H35.2236V17.1757Z" fill="white"/>
<path fill-rule="evenodd" clip-rule="evenodd" d="M35.6719 17.2104L35.6938 17.193H35.6763L35.6499 17.1887H35.5973L35.5315 17.18H35.457H35.3825L35.3035 17.1757H35.2246V17.219H35.3035H35.3825L35.457 17.2277H35.5315H35.5973L35.6499 17.232H35.6763H35.6938L35.7113 17.219L35.6938 17.232L35.7113 17.2364V17.219L35.6719 17.2104Z" fill="white"/>
<path fill-rule="evenodd" clip-rule="evenodd" d="M35.707 16.9978H35.7026L35.6982 17.0629L35.6894 17.1279L35.6763 17.1886L35.6719 17.2103L35.7113 17.219L35.7201 17.193L35.7289 17.1323L35.7376 17.0629L35.7464 16.9978H35.707Z" fill="white"/>
<path fill-rule="evenodd" clip-rule="evenodd" d="M35.3066 16.6725V16.6769L35.3856 16.6812L35.4557 16.6985L35.5215 16.7289L35.5785 16.7679L35.6224 16.8157L35.6618 16.872L35.6925 16.9284L35.7057 16.9978H35.7451L35.732 16.9241L35.7057 16.8504L35.6574 16.7896L35.6048 16.7376L35.5434 16.6899L35.4689 16.6595L35.39 16.6422L35.3066 16.6292V16.6335V16.6725Z" fill="white"/>
<path fill-rule="evenodd" clip-rule="evenodd" d="M33.8828 16.833L33.9135 16.8504L33.9486 16.833L33.9924 16.8113L34.0494 16.794L34.1196 16.7723L34.2029 16.7549L34.2862 16.7376L34.3827 16.7246L34.4792 16.7116L34.5844 16.6942L34.6896 16.6855L34.7949 16.6769L34.9045 16.6725H35.0141H35.115H35.2158H35.3079V16.6335L35.2158 16.6292L35.115 16.6248H35.0141L34.9045 16.6292L34.7949 16.6378L34.6896 16.6465L34.5844 16.6595L34.4792 16.6725L34.3783 16.6812L34.2818 16.6986L34.1941 16.7159L34.1152 16.7332L34.0407 16.7506L33.9793 16.7723L33.9267 16.794L33.8872 16.82L33.9223 16.8373L33.8828 16.833Z" fill="white"/>
<path fill-rule="evenodd" clip-rule="evenodd" d="M34.1284 16.0219L34.1152 16.0393L33.8828 16.833L33.9223 16.8373L34.1547 16.0436L34.1415 16.0609L34.1284 16.0219L34.1196 16.0262L34.1152 16.0393L34.1284 16.0219Z" fill="white"/>
<path fill-rule="evenodd" clip-rule="evenodd" d="M35.6091 15.8701L35.495 15.8658L35.381 15.8615H35.2758H35.1706H35.0697L34.9732 15.8658L34.8768 15.8701L34.7803 15.8788L34.6926 15.8831L34.6005 15.8961L34.5172 15.9092L34.4339 15.9265L34.355 15.9439L34.276 15.9655L34.2015 15.9916L34.127 16.0219L34.1401 16.061L34.2146 16.0306L34.2892 16.0046L34.3637 15.9829L34.4427 15.9655L34.526 15.9482L34.6093 15.9352L34.6926 15.9222L34.7803 15.9178L34.8768 15.9092L34.9732 15.9048H35.0697H35.1706H35.2758H35.381L35.495 15.9092H35.6091V15.8701Z" fill="white"/>
<path fill-rule="evenodd" clip-rule="evenodd" d="M36.7495 16.9848L36.767 16.8503V16.7246L36.7451 16.6118L36.7056 16.5034L36.653 16.3993L36.5872 16.3082L36.5039 16.2258L36.425 16.152L36.3285 16.0913L36.2277 16.0306L36.1224 15.9872L36.0172 15.9439L35.9075 15.9178L35.8023 15.8918L35.7015 15.8788L35.6094 15.8701V15.9092L35.7015 15.9178L35.7979 15.9308L35.8988 15.9569L36.004 15.9872L36.1049 16.0263L36.2057 16.0696L36.3066 16.1217L36.3943 16.1867L36.4776 16.2561L36.5521 16.3342L36.6179 16.421L36.6661 16.5164L36.7012 16.6161L36.7275 16.7246V16.8503L36.71 16.9805L36.7495 16.9848Z" fill="white"/>
<path fill-rule="evenodd" clip-rule="evenodd" d="M36.3988 18.7241L36.7496 16.9848L36.7102 16.9805L36.3594 18.7197L36.3988 18.7241Z" fill="white"/>
<path fill-rule="evenodd" clip-rule="evenodd" d="M35.5756 17.861L35.5668 17.8436L35.558 17.8263L35.5317 17.8176L35.501 17.8046H35.4615L35.4177 17.8002H35.3695L35.3212 17.8046L35.2642 17.8089L35.2116 17.8176L35.159 17.8219L35.1107 17.8306L35.0581 17.8393L35.0187 17.8479L34.9748 17.8566L34.9397 17.861L34.9178 17.8653L34.8915 17.874L34.8564 17.887L34.8213 17.9L34.7775 17.9173L34.738 17.939L34.6898 17.9607L34.6459 17.9911L34.6021 18.0214L34.5582 18.0561L34.5232 18.0908L34.4881 18.1342L34.4574 18.1819L34.4355 18.2296L34.4135 18.2817L34.4048 18.3381L34.4004 18.4508L34.4179 18.5419L34.4442 18.607L34.4837 18.6547L34.5319 18.6894L34.5889 18.7067L34.6459 18.7197H34.703H34.8038L34.8959 18.7067L34.9836 18.6894L35.0581 18.6677L35.1327 18.6417L35.1984 18.6113L35.2555 18.5809L35.3081 18.5419L35.3563 18.5029L35.3958 18.4595L35.4309 18.4205L35.4615 18.3771L35.4835 18.3381L35.501 18.299L35.5142 18.26L35.5273 18.2253L35.5405 18.1299L35.558 18.0388L35.5668 17.9434L35.5756 17.861Z" fill="#FBB231"/>
<path fill-rule="evenodd" clip-rule="evenodd" d="M42.4336 19.0017L42.438 18.9236L42.4643 18.8369L42.5125 18.7588L42.5695 18.6894L42.6397 18.633L42.7186 18.594L42.8063 18.5679L42.8984 18.5549L42.9905 18.5679L43.0782 18.594L43.1571 18.633L43.2273 18.6894L43.2843 18.7588L43.3325 18.8369L43.3588 18.9236L43.3632 19.0017H43.2667L43.2623 18.941L43.2404 18.8716L43.2097 18.8022L43.1659 18.7458L43.1133 18.7024L43.0475 18.6677L42.9729 18.646L42.8984 18.6373L42.8239 18.646L42.7493 18.6677L42.6835 18.7024L42.6309 18.7458L42.5871 18.8022L42.5564 18.8716L42.5344 18.941L42.5301 19.0017H42.4336Z" fill="white"/>
<path fill-rule="evenodd" clip-rule="evenodd" d="M42.7324 19.0016V18.8021H42.9166L42.9561 18.8065L42.9911 18.8151L43.0174 18.8238L43.0438 18.8368L43.0569 18.8585L43.0701 18.8759L43.0788 18.8975L43.0832 18.9236L43.0788 18.9539L43.0701 18.9756L43.0613 18.993L43.0569 19.0016H42.9166L42.9297 18.9973L42.9517 18.993L42.9736 18.9886L42.9867 18.9799L42.9999 18.9713L43.0087 18.9626L43.0131 18.9453V18.9236V18.9062L43.0043 18.8932L42.9955 18.8845L42.9867 18.8802L42.9692 18.8759L42.9517 18.8715H42.9341H42.9166H42.8157V19.0016H42.7324Z" fill="white"/>
<path fill-rule="evenodd" clip-rule="evenodd" d="M42.4321 19.0016L42.4277 19.019L42.4365 19.1188L42.4628 19.2055L42.511 19.2836L42.5681 19.3486L42.6382 19.405L42.7171 19.4484L42.8048 19.4744L42.8969 19.4831L42.989 19.4744L43.0767 19.4484L43.1556 19.405L43.2258 19.3486L43.2828 19.2836L43.331 19.2055L43.3573 19.1188L43.3661 19.019L43.3617 19.0016H43.2652V19.019L43.2609 19.1014L43.2389 19.1708L43.2082 19.2359L43.1644 19.2922L43.1118 19.3356L43.046 19.3747L42.9715 19.3963L42.8969 19.4007L42.8224 19.3963L42.7478 19.3747L42.6821 19.3356L42.6294 19.2922L42.5856 19.2359L42.5549 19.1708L42.533 19.1014L42.5286 19.019V19.0016H42.4321Z" fill="white"/>
<path fill-rule="evenodd" clip-rule="evenodd" d="M42.7324 19.0016V19.2012H42.8157V19.0363H42.899L42.9999 19.2012H43.0657L42.9648 19.0363H42.9867L43.0131 19.032L43.0306 19.0233L43.0481 19.0103L43.0569 19.0016H42.9166L42.899 19.006H42.8157V19.0016H42.7324Z" fill="white"/>
<path d="M42.875 19.379H42.9715H43.046L43.1118 19.34L43.1644 19.2966L43.2083 19.2402L43.2389 19.1752V19.1058V19.0233V18.9453V18.8715L43.2083 18.8065L43.1644 18.7501L43.1118 18.7067L43.046 18.6503H42.9715H42.8969H42.8224H42.7478L42.6821 18.685L42.6294 18.7284L42.5856 18.7848L42.5549 18.8499V18.9236V19.0017V19.0841V19.1535L42.5856 19.2185L42.6294 19.2749L42.6821 19.3183L42.7478 19.3573H42.8224H42.8969M42.4277 19.019V18.9236L42.454 18.8368L42.5023 18.7588L42.5593 18.6894L42.6294 18.633L42.7084 18.594L42.7961 18.5679H42.8882H42.9802L43.0679 18.594L43.1469 18.633L43.217 18.6894L43.274 18.7588L43.3223 18.8368L43.3486 18.9236V19.019V19.1144L43.3223 19.2055L43.274 19.2836L43.217 19.3486L43.1469 19.405L43.0679 19.4484L42.9802 19.4744H42.8882H42.7961L42.7084 19.4484L42.6294 19.405L42.5593 19.3486L42.533 19.2836L42.4847 19.2055L42.4584 19.1144V19.019H42.4277ZM42.8443 19.2012H42.761V18.8021H42.9715H43.0065H43.0329H43.0592V18.8282V18.8542V18.8802H42.9715L43.0723 19.045H43.0065L42.9057 18.8802H42.8224V19.045L42.8443 19.2012ZM42.9057 18.8499H42.9364H42.9715H42.7917V18.9843H42.875L42.9057 18.8499Z" stroke="white" stroke-width="0.22" stroke-miterlimit="2.61"/>
<path fill-rule="evenodd" clip-rule="evenodd" d="M36.6328 19.4527H37.5712L37.9044 17.579L37.9176 17.5053L37.9395 17.4359L37.9571 17.3621L37.9878 17.2884L38.0184 17.219L38.0579 17.1453L38.1018 17.0802L38.1544 17.0195L38.2158 16.9631L38.2815 16.911L38.3605 16.859L38.4438 16.82L38.5403 16.7896L38.6499 16.7636L38.7639 16.7419L38.8954 16.7376H38.9437H38.9656H38.9787L39.1278 15.8918L39.0357 15.8961L38.9437 15.9048L38.8604 15.9221L38.7814 15.9438L38.7069 15.9742L38.6367 16.0046L38.5709 16.0393L38.5096 16.0826L38.4482 16.126L38.3912 16.1737L38.3385 16.2258L38.2859 16.2778L38.2333 16.3342L38.1851 16.3949L38.1368 16.4556L38.0886 16.5207L38.1895 15.9265H37.2555L36.6328 19.4527Z" fill="white"/>
<path d="M36.6328 19.4527H37.5712L37.9044 17.579L37.9176 17.5053L37.9395 17.4359L37.9571 17.3621L37.9878 17.2884L38.0184 17.219L38.0579 17.1453L38.1018 17.0802L38.1544 17.0195L38.2158 16.9631L38.2815 16.911L38.3605 16.859L38.4438 16.82L38.5403 16.7896L38.6499 16.7636L38.7639 16.7419L38.8954 16.7376H38.9437H38.9656H38.9787L39.1278 15.8918L39.0357 15.8961L38.9437 15.9048L38.8604 15.9221L38.7814 15.9438L38.7069 15.9742L38.6367 16.0046L38.5709 16.0393L38.5096 16.0826L38.4482 16.126L38.3912 16.1737L38.3385 16.2258L38.2859 16.2778L38.2333 16.3342L38.1851 16.3949L38.1368 16.4556L38.0886 16.5207L38.1895 15.9265H37.2555L36.6328 19.4527Z" stroke="white" stroke-width="0.22" stroke-miterlimit="2.61"/>
<path fill-rule="evenodd" clip-rule="evenodd" d="M27.8184 19.4527H28.7567H28.7699L29.09 17.579L29.1031 17.5053L29.1207 17.4359L29.1382 17.3665L29.1601 17.3014L29.1865 17.2363L29.2215 17.1756L29.261 17.1149L29.3092 17.0585L29.3618 17.0108L29.4189 16.9588L29.4934 16.9197L29.5723 16.885L29.6688 16.8547L29.7696 16.8286L29.8837 16.8113L30.0108 16.8026H30.024L30.0371 16.807H30.0547H30.0722L30.0854 16.8113L30.0985 16.8156L30.1117 16.82L30.1161 16.807L30.1248 16.7679L30.138 16.7072L30.1555 16.6335L30.1818 16.5467L30.2038 16.4556L30.2344 16.3645L30.2651 16.2735L30.2915 16.2084L30.3221 16.1477L30.3572 16.0826L30.3879 16.0262L30.4186 15.9785L30.4405 15.9395L30.4581 15.9178L30.4668 15.9048H30.4625H30.4493L30.4318 15.9005L30.4098 15.8961H30.3879L30.3616 15.8918H30.3353H30.3134L30.2081 15.8961L30.1161 15.9048L30.0284 15.9221L29.9494 15.9438L29.8749 15.9699L29.8047 16.0046L29.739 16.0349L29.6819 16.074L29.6249 16.1173L29.5723 16.165L29.5197 16.2171L29.4715 16.2735L29.4189 16.3299L29.375 16.3906L29.3268 16.4556L29.2742 16.5207L29.3925 15.9265H28.441L27.8184 19.4527Z" fill="white"/>
<path d="M27.8184 19.4527H28.7567H28.7699L29.09 17.579L29.1031 17.5053L29.1207 17.4359L29.1382 17.3665L29.1601 17.3014L29.1865 17.2363L29.2215 17.1756L29.261 17.1149L29.3092 17.0585L29.3618 17.0108L29.4189 16.9588L29.4934 16.9197L29.5723 16.885L29.6688 16.8547L29.7696 16.8286L29.8837 16.8113L30.0108 16.8026H30.024L30.0371 16.807H30.0547H30.0722L30.0854 16.8113L30.0985 16.8156L30.1117 16.82L30.1161 16.807L30.1248 16.7679L30.138 16.7072L30.1555 16.6335L30.1818 16.5467L30.2038 16.4556L30.2344 16.3645L30.2651 16.2735L30.2915 16.2084L30.3221 16.1477L30.3572 16.0826L30.3879 16.0262L30.4186 15.9785L30.4405 15.9395L30.4581 15.9178L30.4668 15.9048H30.4625H30.4493L30.4318 15.9005L30.4098 15.8961H30.3879L30.3616 15.8918H30.3353H30.3134L30.2081 15.8961L30.1161 15.9048L30.0284 15.9221L29.9494 15.9438L29.8749 15.9699L29.8047 16.0046L29.739 16.0349L29.6819 16.074L29.6249 16.1173L29.5723 16.165L29.5197 16.2171L29.4715 16.2735L29.4189 16.3299L29.375 16.3906L29.3268 16.4556L29.2742 16.5207L29.3925 15.9265H28.441L27.8184 19.4527Z" stroke="white" stroke-width="0.22" stroke-miterlimit="2.61"/>
<path fill-rule="evenodd" clip-rule="evenodd" d="M42.4375 22.9139V22.9009L42.4638 22.8185L42.512 22.7404L42.569 22.6753L42.6392 22.6233L42.7181 22.5843L42.8058 22.5626L42.8979 22.5496L42.99 22.5626L43.0777 22.5843L43.1566 22.6233L43.2268 22.6753L43.2838 22.7404L43.332 22.8185L43.3583 22.9009V22.9139H43.2619L43.2399 22.8488L43.2092 22.7838L43.1654 22.7274L43.1128 22.684L43.047 22.645L42.9725 22.6233L42.8979 22.6146L42.8234 22.6233L42.7488 22.645L42.6831 22.684L42.6304 22.7274L42.5866 22.7838L42.5559 22.8488L42.534 22.9139H42.4375Z" fill="#FBB231"/>
<path fill-rule="evenodd" clip-rule="evenodd" d="M42.7324 22.9139V22.8011H42.9166H42.9561L42.9911 22.8055L43.0174 22.8142L43.0438 22.8272L43.0569 22.8445L43.0701 22.8619L43.0788 22.8879L43.0832 22.9139H43.0131V22.9009V22.8836L43.0043 22.8705L42.9955 22.8619L42.9867 22.8575L42.9692 22.8532L42.9517 22.8489H42.9341H42.9166H42.8157V22.9139H42.7324Z" fill="#FBB231"/>
<path fill-rule="evenodd" clip-rule="evenodd" d="M42.4277 22.9876L42.4365 22.9139H42.533V22.9182L42.5286 22.9876H42.4277Z" fill="#FBB231"/>
<path fill-rule="evenodd" clip-rule="evenodd" d="M42.7324 22.9876V22.9139H42.8157V22.9833H42.8991L42.9297 22.9746L42.9517 22.9703L42.9736 22.9659L42.9867 22.9573L42.9999 22.9486L43.0087 22.9399L43.0131 22.9226V22.9139H43.0832L43.0788 22.9399L43.0701 22.9573L43.0613 22.9746L43.0481 22.9876H42.7324Z" fill="#FBB231"/>
<path fill-rule="evenodd" clip-rule="evenodd" d="M43.2661 22.9876L43.2617 22.9182V22.9139H43.3582L43.367 22.9876H43.2661Z" fill="#FBB231"/>
<path fill-rule="evenodd" clip-rule="evenodd" d="M42.4277 22.9876V22.9963L42.4365 23.0917L42.4628 23.1828L42.511 23.2609L42.5681 23.3303L42.6382 23.3866L42.7171 23.4257L42.8048 23.4517L42.8969 23.4604L42.989 23.4517L43.0767 23.4257L43.1556 23.3866L43.2258 23.3303L43.2828 23.2609L43.331 23.1828L43.3573 23.0917L43.3661 22.9963V22.9876H43.2652V22.9963L43.2609 23.0787L43.2389 23.1481L43.2082 23.2132L43.1644 23.2695L43.1118 23.3129L43.046 23.3519L42.9715 23.3736L42.8969 23.3823L42.8224 23.3736L42.7478 23.3519L42.6821 23.3129L42.6294 23.2695L42.5856 23.2132L42.5549 23.1481L42.533 23.0787L42.5286 22.9963V22.9876H42.4277Z" fill="#FBB231"/>
<path fill-rule="evenodd" clip-rule="evenodd" d="M42.7324 22.9876V23.1785H42.8157V23.0136H42.899L42.9999 23.1785H43.0657L42.9648 23.0136H42.9867L43.0131 23.0093L43.0306 23.0006L43.0481 22.9876H42.7324Z" fill="#FBB231"/>
<path fill-rule="evenodd" clip-rule="evenodd" d="M27.9188 16.9762L27.8925 16.781L27.8443 16.6031L27.7785 16.4513L27.6952 16.3212L27.5987 16.2085L27.4891 16.1174L27.3663 16.048L27.2392 15.9873L27.1032 15.9395L26.9673 15.9048H26.8314H26.6954H26.5639H26.2964L26.0552 15.9439L25.8404 16.0046L25.6474 16.087L25.4808 16.1868L25.3317 16.2952L25.2046 16.421L25.0949 16.5554L24.9941 16.6552L24.9195 16.8027L24.8581 16.9458L24.8099 17.0846L24.7705 17.2234L24.7441 17.3535V17.4749V17.579V17.848V18.0908L24.7836 18.312L24.8362 18.5072L24.9195 18.6807L25.016 18.8325L25.1256 18.967L25.2572 19.0797L25.3975 19.1752L25.5466 19.2576L25.7044 19.3226L25.8667 19.3703L26.0333 19.4094H26.1999H26.3666H26.9936H27.0638H27.1295H27.1909H27.2479H27.3005H27.3532H27.4058H27.454H27.5066L27.5593 19.379L27.6119 19.353L27.7478 18.5463L27.6513 18.6026L27.5593 18.6547L27.4628 18.6937L27.3663 18.7284L27.2786 18.7588H27.1865H27.0945H27.0068H26.9147H26.6516H26.5639H26.4806H26.3973H26.3096H26.2438L26.1473 18.6503L26.0772 18.6243L26.0202 18.5853L25.9588 18.5463L25.9061 18.4985L25.8711 18.4465L25.8272 18.3901L25.7878 18.3381L25.7527 18.273L25.7044 18.2166V18.1559V18.0952V17.9737V17.9304H27.8618V17.7308L27.9144 17.4533V17.206L27.9188 16.9762ZM27.0155 17.2798H25.8009V17.2364V17.167V17.0976L25.8272 17.0325L25.8579 16.9762L25.8842 16.9198L25.9237 16.8634L25.9631 16.8157L26.007 16.768L26.0508 16.7289L26.0991 16.6942L26.1473 16.6639L26.2043 16.6378H26.2613H26.3183H26.3797H26.4411H26.5025H26.5595H26.6121H26.6647L26.713 16.6639L26.7656 16.6942L26.8094 16.7246L26.8489 16.7636L26.8796 16.8113L26.9147 16.859L26.9366 16.9154L26.9629 16.9805V17.0456V17.1974L27.0155 17.2798Z" fill="white"/>
</svg>
