<svg width="110" height="82" viewBox="0 0 110 82" fill="none" xmlns="http://www.w3.org/2000/svg">
<path d="M48.5808 18.1754C51.2754 21.9701 52.7 26.4595 52.7 31.1576C52.7 43.3662 42.9703 53.2986 31.0109 53.2986C19.0515 53.2986 9.32178 43.3662 9.32178 31.1576C9.32178 18.949 19.0515 9.0166 31.0109 9.0166C35.6056 9.0166 39.997 10.4663 43.7104 13.2088" stroke="#05C2DF" stroke-width="1.00668" stroke-linejoin="round"/>
<path d="M31.0121 40.0134C26.245 40.0134 22.3481 36.0503 22.3481 31.1582C22.3481 26.266 26.2448 22.3031 31.0121 22.3031C35.7793 22.3031 39.6761 26.266 39.6761 31.1582C39.6761 36.0503 35.7791 40.0134 31.0121 40.0134Z" stroke="#05C2DF" stroke-width="1.00668"/>
<path d="M108.045 1C98.9818 1 91.6086 8.52701 91.6086 17.7787V26.5216C89.4411 27.1779 87.4466 28.3646 85.7837 30.0168" stroke="#05C2DF" stroke-width="1.00668"/>
<path d="M47.6991 56.0302C51.9575 53.0434 55.4147 48.9491 57.6665 44.156M90.4358 52.5922C88.8185 51.0848 86.9989 49.828 85.0267 48.8564L84.6975 48.6942M82.0647 36.3493C81.6948 37.6565 81.5073 39.002 81.5073 40.3489V47.1228L79.822 46.2925C73.3314 43.0952 66.1635 41.2653 58.9577 40.9419C59.9917 37.8723 60.5545 34.5812 60.5545 31.158C60.5545 14.5288 47.3018 1 31.0122 1C14.7226 1 1.46973 14.5288 1.46973 31.158C1.46973 47.7871 14.7224 61.316 31.0122 61.316C35.9991 61.316 40.7004 60.0461 44.8251 57.8094C46.3609 59.1685 71.7325 81.436 85.0029 81.436C85.1651 81.436 85.3268 81.4326 85.4854 81.4258C98.7647 80.86 108.804 69.744 109.225 69.2711" stroke="#05C2DF" stroke-width="1.00668"/>
</svg>
