<svg width="86" height="84" viewBox="0 0 86 84" fill="none" xmlns="http://www.w3.org/2000/svg">
<g clip-path="url(#clip0_1_7726)">
<path d="M77.8392 7.07864V80.6686H75.4577H64.8924H62.0111H37.9992H35.1177H28.3943H25.5129H25.0524V78.8091C25.0524 77.7425 24.1751 76.8934 23.1117 76.8934C22.0484 76.8934 21.1711 77.7425 21.1711 78.8091V80.6686H20.7105H17.8292H11.1058L9.38517 80.6685L8.72461 80.6685V27.8426C8.72461 27.3449 9.13739 26.9269 9.66529 26.9269H21.6712H22.1712V26.4269V14.6291C22.1712 14.1314 22.584 13.7134 23.1119 13.7134H27.4341H27.9341V13.2134V7.07864C27.9341 6.58094 28.3469 6.16294 28.8748 6.16294H35.1178H35.6178V5.66294V1.4157C35.6178 0.918036 36.0307 0.5 36.5585 0.5C37.0863 0.5 37.4992 0.918037 37.4992 1.4157V5.66294V6.16294H37.9992H44.2424C44.7702 6.16294 45.1831 6.58098 45.1831 7.07864V13.2134V13.7134H45.6831H48.5644H49.0644V13.2134V7.07864C49.0644 6.58094 49.4772 6.16294 50.0051 6.16294H76.8985C77.4263 6.16294 77.8392 6.58098 77.8392 7.07864Z" stroke="#05C2DF" stroke-linecap="round"/>
<path d="M44.019 77.5001V51.0733" stroke="#05C2DF" stroke-linecap="round"/>
<path d="M50.125 77.4269V51" stroke="#05C2DF" stroke-linecap="round"/>
<path d="M56.231 77.4269V51" stroke="#05C2DF" stroke-linecap="round"/>
<path d="M58.5991 16.5171C58.5991 17.157 58.0703 17.6828 57.4085 17.6828C56.7466 17.6828 56.2178 17.157 56.2178 16.5173V14.6296C56.2178 13.9897 56.7468 13.4639 57.4085 13.4639C58.0701 13.4639 58.5991 13.9897 58.5991 14.6296V16.5171Z" fill="#05C2DF" stroke="#05040B" stroke-width="0.5" stroke-linecap="round"/>
<path d="M64.3623 16.5171C64.3623 17.157 63.8334 17.6828 63.1716 17.6828C62.5098 17.6828 61.981 17.157 61.981 16.5173V14.6296C61.981 13.9897 62.51 13.4639 63.1716 13.4639C63.8333 13.4639 64.3623 13.9897 64.3623 14.6296V16.5171Z" fill="#05C2DF" stroke="#05040B" stroke-width="0.5" stroke-linecap="round"/>
<path d="M70.1255 16.5171C70.1255 17.157 69.5966 17.6828 68.9348 17.6828C68.273 17.6828 67.7441 17.157 67.7441 16.5173V14.6296C67.7441 13.9897 68.2732 13.4639 68.9348 13.4639C69.5965 13.4639 70.1255 13.9897 70.1255 14.6296V16.5171Z" fill="#05C2DF" stroke="#05040B" stroke-width="0.5" stroke-linecap="round"/>
<path d="M58.5991 25.9548C58.5991 26.5947 58.0703 27.1205 57.4085 27.1205C56.7466 27.1205 56.2178 26.5947 56.2178 25.9548V24.0671C56.2178 23.4272 56.7468 22.9014 57.4085 22.9014C58.0701 22.9014 58.5991 23.4272 58.5991 24.0671V25.9548Z" fill="#05C2DF" stroke="#05040B" stroke-width="0.5" stroke-linecap="round"/>
<path d="M64.3623 25.9548C64.3623 26.5947 63.8334 27.1205 63.1716 27.1205C62.5098 27.1205 61.981 26.5947 61.981 25.9548V24.0671C61.981 23.4272 62.51 22.9014 63.1716 22.9014C63.8333 22.9014 64.3623 23.4272 64.3623 24.0671V25.9548Z" fill="#05C2DF" stroke="#05040B" stroke-width="0.5" stroke-linecap="round"/>
<path d="M70.1255 25.9548C70.1255 26.5947 69.5966 27.1205 68.9348 27.1205C68.273 27.1205 67.7441 26.5947 67.7441 25.9548V24.0671C67.7441 23.4272 68.2732 22.9014 68.9348 22.9014C69.5965 22.9014 70.1255 23.4272 70.1255 24.0671V25.9548Z" fill="#05C2DF" stroke="#05040B" stroke-width="0.5" stroke-linecap="round"/>
<path d="M58.5991 35.3932C58.5991 36.0331 58.0703 36.5589 57.4085 36.5589C56.7467 36.5589 56.2178 36.033 56.2178 35.3932V33.5055C56.2178 32.8657 56.7468 32.3398 57.4085 32.3398C58.0701 32.3398 58.5991 32.8657 58.5991 33.5055V35.3932Z" fill="#05C2DF" stroke="#05040B" stroke-width="0.5" stroke-linecap="round"/>
<path d="M64.3623 35.3932C64.3623 36.0331 63.8334 36.5589 63.1716 36.5589C62.5098 36.5589 61.981 36.033 61.981 35.3932V33.5055C61.981 32.8657 62.51 32.3398 63.1716 32.3398C63.8333 32.3398 64.3623 32.8657 64.3623 33.5055V35.3932Z" fill="#05C2DF" stroke="#05040B" stroke-width="0.5" stroke-linecap="round"/>
<path d="M70.1255 35.3932C70.1255 36.0331 69.5966 36.5589 68.9348 36.5589C68.273 36.5589 67.7441 36.033 67.7441 35.3932V33.5055C67.7441 32.8657 68.2732 32.3398 68.9348 32.3398C69.5965 32.3398 70.1255 32.8657 70.1255 33.5055V35.3932Z" fill="#05C2DF" stroke="#05040B" stroke-width="0.5" stroke-linecap="round"/>
<path d="M18.2593 39.1686C18.2593 39.8085 17.7304 40.3343 17.0686 40.3343C16.407 40.3343 15.8779 39.8084 15.8779 39.1686V37.2809C15.8779 36.6411 16.4069 36.1152 17.0686 36.1152C17.7303 36.1152 18.2593 36.6411 18.2593 37.2809V39.1686Z" fill="#05C2DF" stroke="#05040B" stroke-width="0.5" stroke-linecap="round"/>
<path d="M24.0225 39.1686C24.0225 39.8085 23.4936 40.3343 22.8318 40.3343C22.17 40.3343 21.6411 39.8084 21.6411 39.1686V37.2809C21.6411 36.6411 22.1701 36.1152 22.8318 36.1152C23.4935 36.1152 24.0225 36.6411 24.0225 37.2809V39.1686Z" fill="#05C2DF" stroke="#05040B" stroke-width="0.5" stroke-linecap="round"/>
<path d="M29.7852 39.1686C29.7852 39.8085 29.2563 40.3343 28.5945 40.3343C27.9327 40.3343 27.4038 39.8084 27.4038 39.1686V37.2809C27.4038 36.6411 27.9328 36.1152 28.5945 36.1152C29.2561 36.1152 29.7852 36.6411 29.7852 37.2809V39.1686Z" fill="#05C2DF" stroke="#05040B" stroke-width="0.5" stroke-linecap="round"/>
<path d="M18.2593 48.6071C18.2593 49.247 17.7304 49.7728 17.0686 49.7728C16.407 49.7728 15.8779 49.2468 15.8779 48.6071V46.7194C15.8779 46.0795 16.4069 45.5537 17.0686 45.5537C17.7303 45.5537 18.2593 46.0795 18.2593 46.7194V48.6071Z" fill="#05C2DF" stroke="#05040B" stroke-width="0.5" stroke-linecap="round"/>
<path d="M24.0225 48.6071C24.0225 49.247 23.4936 49.7728 22.8318 49.7728C22.17 49.7728 21.6411 49.2469 21.6411 48.6071V46.7194C21.6411 46.0795 22.1701 45.5537 22.8318 45.5537C23.4935 45.5537 24.0225 46.0795 24.0225 46.7194V48.6071Z" fill="#05C2DF" stroke="#05040B" stroke-width="0.5" stroke-linecap="round"/>
<path d="M29.7852 48.6071C29.7852 49.247 29.2563 49.7728 28.5945 49.7728C27.9327 49.7728 27.4038 49.2469 27.4038 48.6071V46.7194C27.4038 46.0795 27.9328 45.5537 28.5945 45.5537C29.2561 45.5537 29.7852 46.0795 29.7852 46.7194V48.6071Z" fill="#05C2DF" stroke="#05040B" stroke-width="0.5" stroke-linecap="round"/>
<path d="M18.2593 58.0446C18.2593 58.6845 17.7304 59.2103 17.0686 59.2103C16.4069 59.2103 15.8779 58.6845 15.8779 58.0446V56.1569C15.8779 55.517 16.4069 54.9912 17.0686 54.9912C17.7303 54.9912 18.2593 55.517 18.2593 56.1569V58.0446Z" fill="#05C2DF" stroke="#05040B" stroke-width="0.5" stroke-linecap="round"/>
<path d="M24.0225 58.0446C24.0225 58.6845 23.4936 59.2103 22.8318 59.2103C22.17 59.2103 21.6411 58.6845 21.6411 58.0446V56.1569C21.6411 55.517 22.1701 54.9912 22.8318 54.9912C23.4935 54.9912 24.0225 55.517 24.0225 56.1569V58.0446Z" fill="#05C2DF" stroke="#05040B" stroke-width="0.5" stroke-linecap="round"/>
<path d="M29.7852 58.0446C29.7852 58.6845 29.2563 59.2103 28.5945 59.2103C27.9327 59.2103 27.4038 58.6845 27.4038 58.0446V56.1569C27.4038 55.517 27.9328 54.9912 28.5945 54.9912C29.2561 54.9912 29.7852 55.517 29.7852 56.1569V58.0446Z" fill="#05C2DF" stroke="#05040B" stroke-width="0.5" stroke-linecap="round"/>
<path d="M18.2593 67.4831C18.2593 68.123 17.7304 68.6488 17.0686 68.6488C16.4069 68.6488 15.8779 68.123 15.8779 67.4831V65.5954C15.8779 64.9555 16.4069 64.4297 17.0686 64.4297C17.7303 64.4297 18.2593 64.9555 18.2593 65.5954V67.4831Z" fill="#05C2DF" stroke="#05040B" stroke-width="0.5" stroke-linecap="round"/>
<path d="M24.0225 67.4831C24.0225 68.123 23.4936 68.6488 22.8318 68.6488C22.17 68.6488 21.6411 68.123 21.6411 67.4831V65.5954C21.6411 64.9555 22.1701 64.4297 22.8318 64.4297C23.4935 64.4297 24.0225 64.9555 24.0225 65.5954V67.4831Z" fill="#05C2DF" stroke="#05040B" stroke-width="0.5" stroke-linecap="round"/>
<path d="M29.7852 67.4831C29.7852 68.123 29.2563 68.6488 28.5945 68.6488C27.9327 68.6488 27.4038 68.123 27.4038 67.4831V65.5954C27.4038 64.9555 27.9328 64.4297 28.5945 64.4297C29.2561 64.4297 29.7852 64.9555 29.7852 65.5954V67.4831Z" fill="#05C2DF" stroke="#05040B" stroke-width="0.5" stroke-linecap="round"/>
<path d="M70.1255 44.8317C70.1255 45.4716 69.5966 45.9974 68.9348 45.9974C68.273 45.9974 67.7441 45.4715 67.7441 44.8317V42.944C67.7441 42.3041 68.2732 41.7783 68.9348 41.7783C69.5965 41.7783 70.1255 42.3041 70.1255 42.944V44.8317Z" fill="#05C2DF" stroke="#05040B" stroke-width="0.5" stroke-linecap="round"/>
<path d="M70.1255 54.2702C70.1255 54.9101 69.5966 55.4359 68.9348 55.4359C68.273 55.4359 67.7441 54.9099 67.7441 54.2702V52.3825C67.7441 51.7426 68.2732 51.2168 68.9348 51.2168C69.5965 51.2168 70.1255 51.7426 70.1255 52.3825V54.2702Z" fill="#05C2DF" stroke="#05040B" stroke-width="0.5" stroke-linecap="round"/>
<path d="M70.1255 63.7077C70.1255 64.3476 69.5966 64.8734 68.9348 64.8734C68.273 64.8734 67.7441 64.3474 67.7441 63.7077V61.82C67.7441 61.1801 68.2732 60.6543 68.9348 60.6543C69.5965 60.6543 70.1255 61.1801 70.1255 61.82V63.7077Z" fill="#05C2DF" stroke="#05040B" stroke-width="0.5" stroke-linecap="round"/>
<path d="M70.1255 73.1462C70.1255 73.7861 69.5966 74.3119 68.9348 74.3119C68.273 74.3119 67.7441 73.7859 67.7441 73.1462V71.2585C67.7441 70.6186 68.2732 70.0928 68.9348 70.0928C69.5965 70.0928 70.1255 70.6186 70.1255 71.2585V73.1462Z" fill="#05C2DF" stroke="#05040B" stroke-width="0.5" stroke-linecap="round"/>
<path d="M42.3153 20H30.7896" stroke="#05C2DF" stroke-linecap="round"/>
<path fill-rule="evenodd" clip-rule="evenodd" d="M57.231 42C56.6787 42 56.231 42.4477 56.231 43V44H58.2662V43C58.2662 42.4477 57.8185 42 57.2662 42H57.231Z" fill="#05C2DF"/>
<path fill-rule="evenodd" clip-rule="evenodd" d="M63.3369 42C62.7846 42 62.3369 42.4477 62.3369 43V44H64.3722V43C64.3722 42.4477 63.9245 42 63.3722 42H63.3369Z" fill="#05C2DF"/>
</g>
<defs>
<clipPath id="clip0_1_7726">
<rect width="85.4824" height="84" fill="white" transform="translate(0.260254)"/>
</clipPath>
</defs>
</svg>
