<svg width="83" height="83" viewBox="0 0 83 83" fill="none" xmlns="http://www.w3.org/2000/svg">
<g clip-path="url(#clip0_1_7771)">
<path d="M72.4336 22.1329C72.4336 19.3575 74.6913 17.0996 77.4669 17.0996C80.2423 17.0996 82.5001 19.3575 82.5001 22.1329C82.5001 24.9085 80.2423 27.1662 77.4669 27.1662C74.6915 27.1662 72.4336 24.9083 72.4336 22.1329Z" stroke="#05C2DF"/>
<path d="M0.5 67.7833C0.5 65.0079 2.75787 62.75 5.53328 62.75C8.30884 62.75 10.5666 65.0079 10.5666 67.7833C10.5666 70.5587 8.30884 72.8166 5.53328 72.8166C2.75787 72.8166 0.5 70.5587 0.5 67.7833Z" stroke="#05C2DF"/>
<path d="M73.9784 18.0439L63.1523 12.6309" stroke="#05C2DF"/>
<path d="M57.2163 77.4669C57.2163 74.6915 59.474 72.4336 62.2496 72.4336C65.0251 72.4336 67.2829 74.6916 67.2829 77.467C67.2829 80.2425 65.0251 82.5003 62.2496 82.5003C59.4741 82.5003 57.2163 80.2423 57.2163 77.4669Z" stroke="#05C2DF"/>
<path d="M58.4861 73.6048L48.3564 68.2041" stroke="#05C2DF"/>
<path d="M36.4663 42.8829C36.4663 40.1075 38.724 37.8496 41.4996 37.8496C44.2751 37.8496 46.5329 40.1075 46.5329 42.8829C46.5329 45.6583 44.2751 47.9162 41.4996 47.9162C38.7242 47.9162 36.4663 45.6584 36.4663 42.8829Z" stroke="#05C2DF"/>
<path d="M38.2526 38.6133L30.3135 32.4785" stroke="#05C2DF"/>
<path d="M51.6831 51.1835C51.6831 43.0697 58.286 36.4668 66.3998 36.4668C74.5137 36.4668 81.1165 43.0697 81.1165 51.1835C81.1165 59.2973 74.5137 65.9002 66.3998 65.9002C58.286 65.9002 51.6831 59.2973 51.6831 51.1835Z" stroke="#05C2DF"/>
<path d="M61.3667 47.0333C61.3667 44.2579 63.6244 42 66.4 42C69.1755 42 71.4333 44.2579 71.4333 47.0333C71.4333 49.8087 69.1755 52.0666 66.4 52.0666C63.6246 52.0666 61.3667 49.8088 61.3667 47.0333Z" stroke="#05C2DF"/>
<path d="M73.7589 63.9155L73.7598 63.915C74.0313 63.7586 74.1996 63.4664 74.1996 63.1517V59.5052C74.1996 57.4935 72.5135 55.833 70.4126 55.833H62.3866C60.2857 55.833 58.5996 57.4937 58.5996 59.5038V63.1502C58.5996 63.4657 58.7674 63.7572 59.0403 63.9155H73.7589ZM73.7589 63.9155C71.5159 65.2136 68.9712 65.8997 66.3996 65.8997C63.8282 65.8997 61.2835 65.2136 59.0406 63.9156L73.7589 63.9155Z" stroke="#05C2DF"/>
<path d="M18.4834 67.7831C18.4834 59.6693 25.0863 53.0664 33.2001 53.0664C41.3139 53.0664 47.9168 59.6691 47.9168 67.783C47.9168 75.8968 41.3139 82.4997 33.2001 82.4997C25.0863 82.4997 18.4834 75.8969 18.4834 67.7831Z" stroke="#05C2DF"/>
<path d="M28.1665 63.6329C28.1665 60.8575 30.4242 58.5996 33.1998 58.5996C35.9753 58.5996 38.2331 60.8575 38.2331 63.6329C38.2331 66.4083 35.9752 68.6662 33.1998 68.6662C30.4244 68.6662 28.1665 66.4084 28.1665 63.6329Z" stroke="#05C2DF"/>
<path d="M40.5606 80.5156L40.5597 80.5161C38.3167 81.8142 35.7719 82.5003 33.2004 82.5003C30.6289 82.5003 28.0843 81.8142 25.8413 80.5162C25.5683 80.358 25.4004 80.0664 25.4004 79.7508V76.1043C25.4004 74.0942 27.0865 72.4336 29.1874 72.4336H37.2134C39.3143 72.4336 41.0004 74.0941 41.0004 76.1058V79.7523C41.0004 80.0671 40.8321 80.3591 40.5606 80.5156Z" stroke="#05C2DF"/>
<path d="M0.5 33.2001C0.5 25.0863 7.10289 18.4834 15.2167 18.4834C23.3304 18.4834 29.9333 25.0863 29.9334 33.2001C29.9334 41.3139 23.3306 47.9168 15.2167 47.9168C7.10289 47.9168 0.5 41.3139 0.5 33.2001Z" stroke="#05C2DF"/>
<path d="M10.1836 29.0499C10.1836 26.2745 12.4413 24.0166 15.2169 24.0166C17.9923 24.0166 20.2502 26.2745 20.2502 29.0499C20.2502 31.8253 17.9924 34.0832 15.2169 34.0832C12.4415 34.0832 10.1836 31.8253 10.1836 29.0499Z" stroke="#05C2DF"/>
<path d="M22.5767 45.9316L22.5758 45.9321C20.3328 47.2302 17.7881 47.9163 15.2165 47.9163C12.645 47.9163 10.1004 47.2302 7.85744 45.9322C7.58441 45.774 7.4165 45.4824 7.4165 45.1669V41.5204C7.4165 39.5103 9.10261 37.8496 11.2035 37.8496H19.2295C21.3303 37.8496 23.0165 39.5102 23.0165 41.5218V45.1683C23.0165 45.483 22.8482 45.7752 22.5767 45.9316Z" stroke="#05C2DF"/>
<path d="M33.7002 15.2167C33.7002 7.10289 40.3031 0.5 48.4169 0.5C56.5306 0.5 63.1335 7.10289 63.1336 15.2167C63.1336 23.3306 56.5307 29.9334 48.4169 29.9334C40.3031 29.9334 33.7002 23.3306 33.7002 15.2167Z" stroke="#05C2DF"/>
<path d="M43.3833 11.0665C43.3833 8.29107 45.641 6.0332 48.4166 6.0332C51.192 6.0332 53.4499 8.29122 53.4499 11.0666C53.4499 13.842 51.192 16.0998 48.4166 16.0998C45.6412 16.0998 43.3833 13.8419 43.3833 11.0665Z" stroke="#05C2DF"/>
<path d="M55.7769 27.9492L55.776 27.9497C53.533 29.2478 50.9882 29.9339 48.4167 29.9339C45.8452 29.9339 43.3006 29.2478 41.0576 27.9498C40.7846 27.7916 40.6167 27.5 40.6167 27.1844V23.5379C40.6167 21.5278 42.3028 19.8672 44.4037 19.8672H52.4297C54.5305 19.8672 56.2167 21.5276 56.2167 23.5394V27.1859C56.2167 27.5005 56.0484 27.7927 55.7769 27.9492Z" stroke="#05C2DF"/>
<path d="M33.4038 14.4346L24.5391 21.652" stroke="#05C2DF"/>
<path d="M65.6778 36.0872L58.4604 26.3438" stroke="#05C2DF"/>
<path d="M52.1143 56.2959L46.5522 60.6263" stroke="#05C2DF"/>
<path d="M18.3444 67.4824H10.8262" stroke="#05C2DF"/>
<path d="M20.2497 5.53325V5.53328C20.2497 8.30869 17.9919 10.5666 15.2164 10.5666C12.441 10.5666 10.1831 8.30884 10.1831 5.53328C10.1831 2.75788 12.441 0.5 15.2165 0.5C17.992 0.5 20.2498 2.75787 20.2497 5.53325Z" stroke="#05C2DF"/>
<path d="M14.0737 10.8262V18.0436" stroke="#05C2DF"/>
</g>
<defs>
<clipPath id="clip0_1_7771">
<rect width="83" height="83" fill="white"/>
</clipPath>
</defs>
</svg>
