<svg width="80" height="80" viewBox="0 0 80 80" fill="none" xmlns="http://www.w3.org/2000/svg">
<path d="M36.0135 27.079V20.0687M52.6458 34.3643H60.7558M22.9551 44.811H27.3537M44.9482 59.5189V52.5086" stroke="#05C2DF"/>
<rect x="27.7168" y="27.4416" width="24.567" height="24.567" rx="3.5" stroke="#05C2DF"/>
<rect x="32.3906" y="32.1151" width="15.4948" height="15.4948" rx="3.5" stroke="#05C2DF"/>
<rect x="60.9805" y="0.5" width="18.5189" height="18.5189" rx="3.5" stroke="#05C2DF"/>
<rect x="65.3789" y="4.89862" width="9.99656" height="9.99656" rx="2.5" stroke="#05C2DF"/>
<rect x="0.5" y="0.5" width="18.5189" height="18.5189" rx="3.5" stroke="#05C2DF"/>
<rect x="4.89844" y="4.89862" width="9.99656" height="9.99656" rx="2.5" stroke="#05C2DF"/>
<rect x="1.32422" y="60.4313" width="18.5189" height="18.5189" rx="3.5" stroke="#05C2DF"/>
<rect x="5.72266" y="64.8299" width="9.99656" height="9.99656" rx="2.5" stroke="#05C2DF"/>
<rect x="60.9805" y="60.4313" width="18.5189" height="18.5189" rx="3.5" stroke="#05C2DF"/>
<rect x="65.3789" y="64.8299" width="9.99656" height="9.99656" rx="2.5" stroke="#05C2DF"/>
<path d="M45.2227 27.079V9.89691H60.3429" stroke="#05C2DF"/>
<path d="M27.3535 37.1134L9.89648 37.1134L9.89649 19.5189" stroke="#05C2DF"/>
<path d="M52.7827 40.9622L69.9648 40.9622L69.9648 59.9313" stroke="#05C2DF"/>
<path d="M36.5645 52.5086L36.5645 69.6907L20.2071 69.6907" stroke="#05C2DF"/>
<circle cx="36.0133" cy="17.5945" r="1.97423" stroke="#05C2DF"/>
<circle cx="63.2301" cy="34.3643" r="1.97423" stroke="#05C2DF"/>
<circle cx="20.6188" cy="44.811" r="1.97423" stroke="#05C2DF"/>
<circle cx="44.8102" cy="61.8557" r="1.97423" stroke="#05C2DF"/>
</svg>
