<svg width="84" height="83" viewBox="0 0 84 83" fill="none" xmlns="http://www.w3.org/2000/svg">
<g clip-path="url(#clip0_3495_5007)">
<path d="M72.8827 22.1333C72.8827 19.3578 75.1404 17.1 77.916 17.1C80.6914 17.1 82.9492 19.3579 82.9492 22.1333C82.9492 24.9088 80.6914 27.1665 77.916 27.1665C75.1406 27.1665 72.8827 24.9087 72.8827 22.1333Z" stroke="#05C2DF"/>
<path d="M0.948975 67.7833C0.948975 65.0079 3.20685 62.75 5.98225 62.75C8.75781 62.75 11.0155 65.0079 11.0155 67.7833C11.0155 70.5587 8.75781 72.8166 5.98225 72.8166C3.20685 72.8166 0.948975 70.5587 0.948975 67.7833Z" stroke="#05C2DF"/>
<path d="M74.4273 18.0435L63.6012 12.6305" stroke="#05C2DF"/>
<path d="M57.6655 77.4666C57.6655 74.6912 59.9232 72.4333 62.6988 72.4333C65.4743 72.4333 67.7321 74.6914 67.7321 77.4668C67.7321 80.2422 65.4744 82.5001 62.6988 82.5001C59.9233 82.5001 57.6655 80.2421 57.6655 77.4666Z" stroke="#05C2DF"/>
<path d="M58.9352 73.605L48.8055 68.2043" stroke="#05C2DF"/>
<path d="M36.9155 42.8833C36.9155 40.1078 39.1732 37.85 41.9488 37.85C44.7244 37.85 46.9821 40.1078 46.9821 42.8833C46.9821 45.6587 44.7244 47.9165 41.9488 47.9165C39.1734 47.9165 36.9155 45.6588 36.9155 42.8833Z" stroke="#05C2DF"/>
<path d="M38.7015 38.6131L30.7623 32.4783" stroke="#05C2DF"/>
<path d="M52.1321 51.1834C52.1321 43.0696 58.735 36.4667 66.8488 36.4667C74.9626 36.4667 81.5655 43.0696 81.5655 51.1834C81.5655 59.2972 74.9626 65.9001 66.8488 65.9001C58.735 65.9001 52.1321 59.2972 52.1321 51.1834Z" stroke="#05C2DF"/>
<path d="M61.8157 47.0333C61.8157 44.2579 64.0734 42 66.849 42C69.6245 42 71.8822 44.2579 71.8822 47.0333C71.8822 49.8087 69.6245 52.0666 66.849 52.0666C64.0735 52.0666 61.8157 49.8088 61.8157 47.0333Z" stroke="#05C2DF"/>
<path d="M74.2081 63.9157L74.209 63.9152C74.4805 63.7588 74.6488 63.4666 74.6488 63.152V59.5055C74.6488 57.4938 72.9627 55.8333 70.8618 55.8333H62.8358C60.7349 55.8333 59.0488 57.4939 59.0488 59.504V63.1505C59.0488 63.466 59.2166 63.7575 59.4895 63.9157H74.2081ZM74.2081 63.9157C71.9651 65.2138 69.4204 65.9 66.8488 65.9C64.2774 65.9 61.7327 65.2139 59.4898 63.9159L74.2081 63.9157Z" stroke="#05C2DF"/>
<path d="M18.9326 67.7834C18.9326 59.6695 25.5355 53.0667 33.6493 53.0667C41.7632 53.0667 48.366 59.6694 48.366 67.7832C48.366 75.897 41.7632 82.4999 33.6493 82.4999C25.5355 82.4999 18.9326 75.8972 18.9326 67.7834Z" stroke="#05C2DF"/>
<path d="M28.6156 63.6333C28.6156 60.8578 30.8733 58.6 33.6489 58.6C36.4244 58.6 38.6822 60.8578 38.6822 63.6333C38.6822 66.4087 36.4243 68.6665 33.6489 68.6665C30.8735 68.6665 28.6156 66.4088 28.6156 63.6333Z" stroke="#05C2DF"/>
<path d="M41.0093 80.5153L41.0084 80.5158C38.7654 81.8139 36.2207 82.5001 33.6491 82.5001C31.0777 82.5001 28.533 81.814 26.2901 80.516C26.017 80.3578 25.8491 80.0662 25.8491 79.7506V76.1041C25.8491 74.094 27.5352 72.4333 29.6361 72.4333H37.6621C39.763 72.4333 41.4491 74.0939 41.4491 76.1056V79.7521C41.4491 80.0668 41.2809 80.3589 41.0093 80.5153Z" stroke="#05C2DF"/>
<path d="M0.948975 33.2C0.948975 25.0862 7.55187 18.4833 15.6657 18.4833C23.7794 18.4833 30.3823 25.0862 30.3824 33.2C30.3824 41.3138 23.7795 47.9167 15.6657 47.9167C7.55187 47.9167 0.948975 41.3138 0.948975 33.2Z" stroke="#05C2DF"/>
<path d="M10.6327 29.05C10.6327 26.2746 12.8904 24.0167 15.666 24.0167C18.4414 24.0167 20.6992 26.2746 20.6992 29.05C20.6992 31.8254 18.4415 34.0833 15.666 34.0833C12.8906 34.0833 10.6327 31.8254 10.6327 29.05Z" stroke="#05C2DF"/>
<path d="M23.0258 45.9319L23.0249 45.9325C20.7819 47.2305 18.2371 47.9167 15.6656 47.9167C13.0941 47.9167 10.5495 47.2306 8.30654 45.9326C8.03351 45.7744 7.8656 45.4828 7.8656 45.1672V41.5207C7.8656 39.5106 9.55171 37.85 11.6526 37.85H19.6786C21.7794 37.85 23.4656 39.5105 23.4656 41.5222V45.1687C23.4656 45.4833 23.2973 45.7755 23.0258 45.9319Z" stroke="#05C2DF"/>
<path d="M34.1492 15.2167C34.1492 7.10289 40.7521 0.5 48.8659 0.5C56.9795 0.5 63.5824 7.10289 63.5826 15.2167C63.5826 23.3306 56.9797 29.9334 48.8659 29.9334C40.7521 29.9334 34.1492 23.3306 34.1492 15.2167Z" stroke="#05C2DF"/>
<path d="M43.832 11.0666C43.832 8.29119 46.0898 6.03333 48.8653 6.03333C51.6407 6.03333 53.8986 8.29134 53.8986 11.0668C53.8986 13.8422 51.6407 16.0999 48.8653 16.0999C46.0899 16.0999 43.832 13.842 43.832 11.0666Z" stroke="#05C2DF"/>
<path d="M56.2258 27.9487L56.225 27.9492C53.982 29.2473 51.4372 29.9334 48.8657 29.9334C46.2942 29.9334 43.7496 29.2473 41.5066 27.9493C41.2336 27.7911 41.0657 27.4995 41.0657 27.1839V23.5374C41.0657 21.5274 42.7518 19.8667 44.8527 19.8667H52.8787C54.9795 19.8667 56.6657 21.5271 56.6657 23.5389V27.1854C56.6657 27.5001 56.4974 27.7922 56.2258 27.9487Z" stroke="#05C2DF"/>
<path d="M33.8529 14.4348L24.9882 21.6522" stroke="#05C2DF"/>
<path d="M66.1271 36.087L58.9097 26.3435" stroke="#05C2DF"/>
<path d="M52.5633 56.2957L47.0012 60.6261" stroke="#05C2DF"/>
<path d="M18.7932 67.4827H11.275" stroke="#05C2DF"/>
<path d="M20.6986 5.53325V5.53328C20.6986 8.30869 18.4409 10.5666 15.6654 10.5666C12.8899 10.5666 10.6321 8.30884 10.6321 5.53328C10.6321 2.75788 12.8899 0.5 15.6655 0.5C18.4409 0.5 20.6988 2.75787 20.6986 5.53325Z" stroke="#05C2DF"/>
<path d="M14.5226 10.826V18.0434" stroke="#05C2DF"/>
</g>
<defs>
<clipPath id="clip0_3495_5007">
<rect width="83" height="83" fill="white" transform="translate(0.448975)"/>
</clipPath>
</defs>
</svg>
