<svg width="151" height="150" viewBox="0 0 151 150" fill="none" xmlns="http://www.w3.org/2000/svg">
<g clip-path="url(#clip0)">
<path d="M130.889 40.0528C130.889 34.8345 135.133 30.5898 140.352 30.5898C145.57 30.5898 149.815 34.8345 149.815 40.0528C149.815 45.2714 145.57 49.5157 140.352 49.5157C135.133 49.5157 130.889 45.2711 130.889 40.0528Z" stroke="#05C2DF"/>
<path d="M1.36914 122.249C1.36914 117.03 5.61376 112.786 10.8321 112.786C16.0507 112.786 20.295 117.03 20.295 122.249C20.295 127.467 16.0507 131.711 10.8321 131.711C5.61376 131.711 1.36914 127.467 1.36914 122.249Z" stroke="#05C2DF"/>
<path d="M134.071 32.6888L114.578 22.9424" stroke="#05C2DF"/>
<path d="M103.49 139.683C103.49 134.465 107.735 130.22 112.953 130.22C118.172 130.22 122.416 134.465 122.416 139.683C122.416 144.902 118.172 149.146 112.953 149.146C107.735 149.146 103.49 144.902 103.49 139.683Z" stroke="#05C2DF"/>
<path d="M106.176 132.73L87.9375 123.006" stroke="#05C2DF"/>
<path d="M66.127 77.4141C66.127 72.1958 70.3713 67.9512 75.5899 67.9512C80.8085 67.9512 85.0528 72.1958 85.0528 77.4141C85.0528 82.6324 80.8085 86.877 75.5899 86.877C70.3716 86.877 66.127 82.6327 66.127 77.4141Z" stroke="#05C2DF"/>
<path d="M69.744 69.7256L55.4492 58.6797" stroke="#05C2DF"/>
<path d="M93.5273 92.3594C93.5273 77.529 105.595 65.4609 120.426 65.4609C135.256 65.4609 147.324 77.529 147.324 92.3594C147.324 107.19 135.256 119.258 120.426 119.258C105.595 119.258 93.5273 107.19 93.5273 92.3594Z" stroke="#05C2DF"/>
<path d="M110.961 84.8863C110.961 79.6679 115.205 75.4233 120.424 75.4233C125.642 75.4233 129.887 79.6679 129.887 84.8863C129.887 90.1046 125.642 94.3492 120.424 94.3492C115.206 94.3492 110.961 90.1049 110.961 84.8863Z" stroke="#05C2DF"/>
<path d="M133.877 115.63L133.876 115.631C129.777 118.003 125.126 119.257 120.425 119.257C115.724 119.257 111.073 118.003 106.974 115.631C106.359 115.274 105.98 114.617 105.98 113.906V107.341C105.98 103.49 109.206 100.331 113.199 100.331H127.651C131.644 100.331 134.87 103.49 134.87 107.343V113.909C134.87 114.618 134.491 115.277 133.877 115.63Z" stroke="#05C2DF"/>
<path d="M33.748 122.249C33.748 107.418 45.8161 95.3501 60.6465 95.3501C75.4768 95.3501 87.5449 107.418 87.5449 122.248C87.5449 137.079 75.4768 149.147 60.6465 149.147C45.8161 149.147 33.748 137.079 33.748 122.249Z" stroke="#05C2DF"/>
<path d="M51.1855 114.776C51.1855 109.558 55.4299 105.313 60.6485 105.313C65.8671 105.313 70.1114 109.558 70.1114 114.776C70.1114 119.994 65.8668 124.239 60.6485 124.239C55.4302 124.239 51.1855 119.995 51.1855 114.776Z" stroke="#05C2DF"/>
<path d="M74.0978 145.519L74.097 145.52C69.9979 147.892 65.3469 149.146 60.6457 149.146C55.9446 149.146 51.2937 147.892 47.1947 145.52C46.5795 145.163 46.2012 144.506 46.2012 143.796V137.23C46.2012 133.379 49.4267 130.22 53.4201 130.22H67.8713C71.8649 130.22 75.0902 133.379 75.0902 137.232V143.798C75.0902 144.507 74.7116 145.166 74.0978 145.519Z" stroke="#05C2DF"/>
<path d="M1.36914 59.979C1.36914 45.1486 13.4372 33.0806 28.2676 33.0806C43.0977 33.0806 55.1657 45.1486 55.166 59.979C55.166 74.8094 43.098 86.8774 28.2676 86.8774C13.4372 86.8774 1.36914 74.8094 1.36914 59.979Z" stroke="#05C2DF"/>
<path d="M18.8066 52.5069C18.8066 47.2886 23.051 43.0439 28.2696 43.0439C33.4879 43.0439 37.7325 47.2886 37.7325 52.5069C37.7325 57.7252 33.4882 61.9698 28.2696 61.9698C23.0513 61.9698 18.8066 57.7252 18.8066 52.5069Z" stroke="#05C2DF"/>
<path d="M41.7189 83.2503L41.7181 83.2508C37.619 85.623 32.968 86.8773 28.2668 86.8773C23.5656 86.8773 18.9146 85.623 14.8156 83.2508C14.2004 82.8942 13.8223 82.2373 13.8223 81.5265V74.9608C13.8223 71.1102 17.0478 67.9512 21.0412 67.9512H35.4924C39.4857 67.9512 42.7113 71.1101 42.7113 74.9634V81.5291C42.7113 82.2379 42.3327 82.8967 41.7189 83.2503Z" stroke="#05C2DF"/>
<path d="M61.1484 27.5996C61.1484 12.7692 73.2165 0.701172 88.0468 0.701172C102.877 0.701172 114.945 12.7692 114.945 27.5996C114.945 42.43 102.877 54.498 88.0468 54.498C73.2165 54.498 61.1484 42.43 61.1484 27.5996Z" stroke="#05C2DF"/>
<path d="M78.582 20.1275C78.582 14.9092 82.8264 10.6646 88.045 10.6646C93.2633 10.6646 97.5079 14.9094 97.5079 20.1278C97.5079 25.3461 93.2633 29.5904 88.045 29.5904C82.8266 29.5904 78.582 25.3458 78.582 20.1275Z" stroke="#05C2DF"/>
<path d="M101.498 50.8708L101.497 50.8714C97.3983 53.2436 92.7473 54.4979 88.0461 54.4979C83.345 54.4979 78.6941 53.2437 74.5951 50.8715C73.9798 50.515 73.6016 49.858 73.6016 49.1471V42.5814C73.6016 38.7308 76.8271 35.5718 80.8205 35.5718H95.2717C99.265 35.5718 102.491 38.7304 102.491 42.584V49.1497C102.491 49.8585 102.112 50.5173 101.498 50.8708Z" stroke="#05C2DF"/>
<path d="M61.0141 26.1919L45.0527 39.1871" stroke="#05C2DF"/>
<path d="M119.126 65.1774L106.131 47.6338" stroke="#05C2DF"/>
<path d="M94.7022 101.564L84.6875 109.361" stroke="#05C2DF"/>
<path d="M33.8982 121.707H20.3613" stroke="#05C2DF"/>
<path d="M18.8047 10.1641C18.8047 4.9458 23.0493 0.701172 28.2679 0.701172C33.4862 0.701172 37.7308 4.94579 37.7305 10.1641C37.7305 15.3824 33.4862 19.627 28.2676 19.627C23.0493 19.627 18.8047 15.3827 18.8047 10.1641Z" stroke="#05C2DF"/>
<path d="M26.209 19.6943V32.6896" stroke="#05C2DF"/>
</g>
<defs>
<clipPath id="clip0">
<rect width="149.445" height="149.445" fill="white" transform="translate(0.869141 0.201172)"/>
</clipPath>
</defs>
</svg>
