<svg width="347" height="28" viewBox="0 0 347 28" fill="none" xmlns="http://www.w3.org/2000/svg">
<path d="M23.3409 0.818181V27H17.4091L7.94886 13.2443H7.79545V27H0.6875V0.818181H6.72159L16.0284 14.5227H16.233V0.818181H23.3409ZM33.8111 0.818181V27H26.7031V0.818181H33.8111ZM61.6229 10.6364H54.4126C54.3615 10.0398 54.2251 9.49858 54.0036 9.01278C53.7905 8.52699 53.4922 8.10937 53.1087 7.75994C52.7337 7.40199 52.2777 7.12926 51.7408 6.94176C51.2038 6.74574 50.5945 6.64773 49.9126 6.64773C48.7195 6.64773 47.7095 6.9375 46.8828 7.51705C46.0646 8.09659 45.4425 8.92756 45.0163 10.0099C44.5987 11.0923 44.3899 12.392 44.3899 13.9091C44.3899 15.5114 44.603 16.8537 45.0291 17.9361C45.4638 19.0099 46.0902 19.8196 46.9084 20.3651C47.7266 20.902 48.7109 21.1705 49.8615 21.1705C50.5178 21.1705 51.1058 21.0895 51.6257 20.9276C52.1456 20.7571 52.5973 20.5142 52.9808 20.1989C53.3643 19.8835 53.6754 19.5043 53.9141 19.0611C54.1612 18.6094 54.3274 18.1023 54.4126 17.5398L61.6229 17.5909C61.5376 18.6989 61.2266 19.8281 60.6896 20.9787C60.1527 22.1207 59.3899 23.1776 58.4013 24.1491C57.4212 25.1122 56.2067 25.8878 54.7578 26.4759C53.3089 27.0639 51.6257 27.358 49.7081 27.358C47.3047 27.358 45.1484 26.8423 43.2393 25.8111C41.3388 24.7798 39.8345 23.2628 38.7266 21.2599C37.6271 19.2571 37.0774 16.8068 37.0774 13.9091C37.0774 10.9943 37.6399 8.53977 38.7649 6.54545C39.8899 4.54261 41.407 3.02983 43.3161 2.0071C45.2251 0.975851 47.3558 0.460226 49.7081 0.460226C51.3615 0.460226 52.8828 0.686078 54.272 1.13778C55.6612 1.58949 56.88 2.25 57.9283 3.11932C58.9766 3.98011 59.8203 5.04119 60.4595 6.30256C61.0987 7.56392 61.4865 9.00852 61.6229 10.6364ZM64.8477 27V0.818181H83.717V6.54545H71.9556V11.0455H82.7454V16.7727H71.9556V21.2727H83.6658V27H64.8477ZM93.6982 6.54545V0.818181H116.454V6.54545H108.579V27H101.573V6.54545H93.6982ZM143.262 13.9091C143.262 16.8239 142.695 19.2827 141.562 21.2855C140.428 23.2798 138.898 24.7926 136.972 25.8239C135.046 26.8466 132.898 27.358 130.529 27.358C128.143 27.358 125.987 26.8423 124.06 25.8111C122.143 24.7713 120.617 23.2543 119.484 21.2599C118.359 19.2571 117.796 16.8068 117.796 13.9091C117.796 10.9943 118.359 8.53977 119.484 6.54545C120.617 4.54261 122.143 3.02983 124.06 2.0071C125.987 0.975851 128.143 0.460226 130.529 0.460226C132.898 0.460226 135.046 0.975851 136.972 2.0071C138.898 3.02983 140.428 4.54261 141.562 6.54545C142.695 8.53977 143.262 10.9943 143.262 13.9091ZM135.95 13.9091C135.95 12.3409 135.741 11.0199 135.323 9.94602C134.914 8.86364 134.305 8.04545 133.495 7.49148C132.694 6.92898 131.705 6.64773 130.529 6.64773C129.353 6.64773 128.36 6.92898 127.55 7.49148C126.749 8.04545 126.14 8.86364 125.722 9.94602C125.313 11.0199 125.109 12.3409 125.109 13.9091C125.109 15.4773 125.313 16.8026 125.722 17.8849C126.14 18.9588 126.749 19.777 127.55 20.3395C128.36 20.8935 129.353 21.1705 130.529 21.1705C131.705 21.1705 132.694 20.8935 133.495 20.3395C134.305 19.777 134.914 18.9588 135.323 17.8849C135.741 16.8026 135.95 15.4773 135.95 13.9091ZM153.723 0.818181H162.569L168.654 15.6477H168.961L175.047 0.818181H183.893V27H176.939V11.8636H176.734L170.904 26.7955H166.711L160.882 11.7614H160.677V27H153.723V0.818181ZM187.262 27V0.818181H206.131V6.54545H194.37V11.0455H205.159V16.7727H194.37V21.2727H206.08V27H187.262ZM209.656 27V0.818181H228.526V6.54545H216.764V11.0455H227.554V16.7727H216.764V21.2727H228.474V27H209.656ZM231.335 6.54545V0.818181H254.091V6.54545H246.216V27H239.21V6.54545H231.335Z" fill="white"/>
<path d="M263.17 0.818181H266.801L274.062 13.0398H274.369L281.631 0.818181H285.261L275.801 16.2102V27H272.631V16.2102L263.17 0.818181ZM310.222 13.9091C310.222 16.6705 309.724 19.0568 308.727 21.0682C307.729 23.0795 306.362 24.6307 304.623 25.7216C302.884 26.8125 300.898 27.358 298.665 27.358C296.433 27.358 294.447 26.8125 292.708 25.7216C290.969 24.6307 289.602 23.0795 288.604 21.0682C287.607 19.0568 287.109 16.6705 287.109 13.9091C287.109 11.1477 287.607 8.76136 288.604 6.75C289.602 4.73864 290.969 3.1875 292.708 2.09659C294.447 1.00568 296.433 0.460226 298.665 0.460226C300.898 0.460226 302.884 1.00568 304.623 2.09659C306.362 3.1875 307.729 4.73864 308.727 6.75C309.724 8.76136 310.222 11.1477 310.222 13.9091ZM307.154 13.9091C307.154 11.642 306.775 9.72869 306.016 8.16903C305.266 6.60938 304.248 5.42898 302.961 4.62784C301.683 3.8267 300.251 3.42614 298.665 3.42614C297.08 3.42614 295.644 3.8267 294.357 4.62784C293.079 5.42898 292.06 6.60938 291.302 8.16903C290.552 9.72869 290.177 11.642 290.177 13.9091C290.177 16.1761 290.552 18.0895 291.302 19.6491C292.06 21.2088 293.079 22.3892 294.357 23.1903C295.644 23.9915 297.08 24.392 298.665 24.392C300.251 24.392 301.683 23.9915 302.961 23.1903C304.248 22.3892 305.266 21.2088 306.016 19.6491C306.775 18.0895 307.154 16.1761 307.154 13.9091ZM332.735 0.818181H335.906V18.1534C335.906 19.9432 335.484 21.5412 334.64 22.9474C333.805 24.3452 332.624 25.4489 331.099 26.2585C329.573 27.0597 327.783 27.4602 325.729 27.4602C323.675 27.4602 321.886 27.0597 320.36 26.2585C318.835 25.4489 317.65 24.3452 316.806 22.9474C315.971 21.5412 315.553 19.9432 315.553 18.1534V0.818181H318.724V17.8977C318.724 19.1761 319.005 20.3139 319.567 21.3111C320.13 22.2997 320.931 23.0795 321.971 23.6506C323.019 24.2131 324.272 24.4943 325.729 24.4943C327.187 24.4943 328.44 24.2131 329.488 23.6506C330.536 23.0795 331.337 22.2997 331.891 21.3111C332.454 20.3139 332.735 19.1761 332.735 17.8977V0.818181ZM345.816 0.818181L345.561 19.6364H342.595L342.339 0.818181H345.816ZM344.078 27.2045C343.447 27.2045 342.906 26.9787 342.454 26.527C342.002 26.0753 341.777 25.5341 341.777 24.9034C341.777 24.2727 342.002 23.7315 342.454 23.2798C342.906 22.8281 343.447 22.6023 344.078 22.6023C344.708 22.6023 345.25 22.8281 345.701 23.2798C346.153 23.7315 346.379 24.2727 346.379 24.9034C346.379 25.321 346.272 25.7045 346.059 26.054C345.855 26.4034 345.578 26.6847 345.228 26.8977C344.887 27.1023 344.504 27.2045 344.078 27.2045Z" fill="#05C2DF"/>
</svg>
