<svg width="160" height="145" viewBox="0 0 160 145" fill="none" xmlns="http://www.w3.org/2000/svg">
<rect x="4.00195" y="3.85742" width="152.76" height="108.098" rx="3.5" stroke="#05C2DF"/>
<line x1="3.50195" y1="94.0562" x2="157.262" y2="94.0562" stroke="#05C2DF"/>
<line x1="72.4395" y1="103.433" x2="87.378" y2="103.433" stroke="#05C2DF" stroke-linecap="round"/>
<rect x="49.0039" y="112.104" width="61.8167" height="10.0803" stroke="#05C2DF"/>
<rect x="30.25" y="132.559" width="99.3192" height="10.0803" stroke="#05C2DF"/>
<path d="M31.579 132.411L48.6379 122.331H111.181L128.24 132.411H31.579Z" stroke="#05C2DF"/>
<path d="M65.872 68.096H64.864L50.152 34.4H51.088L65.368 67.136L79.672 34.4H80.608L65.872 68.096ZM99.1416 34.4C102.726 34.4 105.51 35.192 107.494 36.776C109.494 38.36 110.494 40.576 110.494 43.424C110.494 46.272 109.494 48.496 107.494 50.096C105.494 51.68 102.71 52.472 99.1416 52.472H96.1656L110.302 68H109.15L95.0856 52.472H88.0536V68H87.1656V34.4H99.1416ZM88.0536 35.24V51.656H99.2376C102.518 51.656 105.062 50.936 106.87 49.496C108.678 48.056 109.582 46.032 109.582 43.424C109.582 40.832 108.67 38.824 106.846 37.4C105.038 35.96 102.502 35.24 99.2376 35.24H88.0536Z" fill="#05C2DF"/>
</svg>
