<svg width="221" height="69" xmlns="http://www.w3.org/2000/svg" fill="none">

 <g>
  <title>Layer 1</title>
  <path id="svg_1" fill="#fff" d="m109.328,36.6l0,4.4l-1.808,0l0,-11.2l4.344,0c1.275,0 2.253,0.3013 2.936,0.904c0.688,0.6027 1.032,1.4347 1.032,2.496c0,1.0613 -0.344,1.8933 -1.032,2.496c-0.683,0.6027 -1.661,0.904 -2.936,0.904l-2.536,0zm0,-5.096l0,3.392l2.488,0c0.736,0 1.275,-0.136 1.616,-0.408c0.347,-0.2773 0.52,-0.7067 0.52,-1.288c0,-0.5813 -0.173,-1.008 -0.52,-1.28c-0.341,-0.2773 -0.88,-0.416 -1.616,-0.416l-2.488,0zm10.258,9.496l-1.68,0l0,-11.52l1.68,0l0,11.52zm9.977,0l-1.672,0l0,-0.92c-0.587,0.7467 -1.39,1.12 -2.408,1.12c-1.083,0 -1.992,-0.3813 -2.728,-1.144c-0.736,-0.7627 -1.104,-1.7253 -1.104,-2.888c0,-1.1627 0.368,-2.1253 1.104,-2.888c0.736,-0.7627 1.645,-1.144 2.728,-1.144c1.013,0 1.816,0.376 2.408,1.128l0,-0.928l1.672,0l0,7.664zm-3.88,-6.288c-0.699,0 -1.259,0.2373 -1.68,0.712c-0.422,0.4693 -0.632,1.0507 -0.632,1.744c0,0.6933 0.21,1.2773 0.632,1.752c0.421,0.4693 0.981,0.704 1.68,0.704c0.682,0 1.237,-0.232 1.664,-0.696c0.432,-0.464 0.648,-1.0507 0.648,-1.76c0,-0.7093 -0.216,-1.296 -0.648,-1.76c-0.427,-0.464 -0.982,-0.696 -1.664,-0.696zm7.832,9.536l-1.856,0l2.744,-4.824l-3.4,-6.088l1.88,0l2.464,4.4l2.376,-4.4l1.84,0l-6.048,10.912zm16.706,-3.248l-2.256,0l-4.272,-11.2l1.928,0l3.488,9.368l3.512,-9.368l1.872,0l-4.272,11.2zm7.505,0l-1.68,0l0,-7.664l1.68,0l0,7.664zm-0.848,-11.496c0.331,0 0.611,0.1147 0.84,0.344c0.23,0.2293 0.344,0.5093 0.344,0.84c0,0.336 -0.114,0.616 -0.344,0.84c-0.224,0.2187 -0.504,0.328 -0.84,0.328c-0.336,0 -0.616,-0.1093 -0.84,-0.328c-0.218,-0.224 -0.328,-0.504 -0.328,-0.84c0,-0.336 0.11,-0.616 0.328,-0.84c0.224,-0.2293 0.504,-0.344 0.84,-0.344zm6.745,3.632c1.014,0 1.816,0.376 2.408,1.128l0,-4.784l1.672,0l0,11.52l-1.672,0l0,-0.92c-0.586,0.7467 -1.389,1.12 -2.408,1.12c-1.082,0 -1.992,-0.3813 -2.728,-1.144c-0.736,-0.7627 -1.104,-1.7253 -1.104,-2.888c0,-1.1627 0.368,-2.1253 1.104,-2.888c0.736,-0.7627 1.646,-1.144 2.728,-1.144zm0.2,1.576c-0.698,0 -1.258,0.2373 -1.68,0.712c-0.421,0.4693 -0.632,1.0507 -0.632,1.744c0,0.6933 0.211,1.2773 0.632,1.752c0.422,0.4693 0.982,0.704 1.68,0.704c0.683,0 1.238,-0.232 1.664,-0.696c0.432,-0.464 0.648,-1.0507 0.648,-1.76c0,-0.7093 -0.216,-1.296 -0.648,-1.76c-0.426,-0.464 -0.981,-0.696 -1.664,-0.696zm9.769,-1.576c1.072,0 1.944,0.3733 2.616,1.12c0.672,0.7413 1.008,1.7093 1.008,2.904c0,0.2453 -0.011,0.4533 -0.032,0.624l-5.664,0c0.101,0.6507 0.36,1.1387 0.776,1.464c0.421,0.3253 0.922,0.488 1.504,0.488c0.805,0 1.544,-0.2693 2.216,-0.808l0.832,1.192c-0.843,0.72 -1.894,1.08 -3.152,1.08c-1.158,0 -2.102,-0.368 -2.832,-1.104c-0.726,-0.7413 -1.088,-1.7173 -1.088,-2.928c0,-1.2 0.352,-2.1707 1.056,-2.912c0.709,-0.7467 1.629,-1.12 2.76,-1.12zm-0.032,1.488c-0.576,0 -1.038,0.1707 -1.384,0.512c-0.347,0.336 -0.563,0.7947 -0.648,1.376l3.976,0c-0.091,-0.5973 -0.307,-1.0613 -0.648,-1.392c-0.336,-0.3307 -0.768,-0.496 -1.296,-0.496zm7.177,-0.96c0.629,-0.352 1.333,-0.528 2.112,-0.528c0.778,0 1.482,0.176 2.112,0.528c0.629,0.3467 1.122,0.8293 1.48,1.448c0.357,0.6133 0.536,1.2987 0.536,2.056c0,0.7573 -0.179,1.4453 -0.536,2.064c-0.358,0.6133 -0.851,1.096 -1.48,1.448c-0.63,0.3467 -1.334,0.52 -2.112,0.52c-0.779,0 -1.483,-0.176 -2.112,-0.528c-0.63,-0.352 -1.123,-0.8347 -1.48,-1.448c-0.352,-0.6133 -0.528,-1.2987 -0.528,-2.056c0,-0.7573 0.176,-1.4427 0.528,-2.056c0.357,-0.6133 0.85,-1.096 1.48,-1.448zm3.832,1.736c-0.459,-0.4587 -1.032,-0.688 -1.72,-0.688c-0.688,0 -1.262,0.2293 -1.72,0.688c-0.454,0.4587 -0.68,1.048 -0.68,1.768c0,0.72 0.226,1.3093 0.68,1.768c0.458,0.4587 1.032,0.688 1.72,0.688c0.688,0 1.261,-0.2293 1.72,-0.688c0.458,-0.4587 0.688,-1.048 0.688,-1.768c0,-0.72 -0.23,-1.3093 -0.688,-1.768z"/>
  <path id="svg_2" fill="#05C2DF" d="m86,12l-30,0l0,2l30,0l0,-2z" opacity="0.45"/>
  <path id="svg_3" fill="#05C2DF" d="m86,56l-30,0l0,2l30,0l0,-2z" opacity="0.45"/>
  <path id="svg_4" stroke-miterlimit="1.51696" stroke-width="2" stroke="#05C2DF" d="m51,7c-4.8809,-3.41127 -10.0865,-4.64793 -16,-4.99996c-5.9135,-0.35204 -11.4395,1.00319 -16.6789,3.81199c-5.2394,2.80881 -9.62294,7.02067 -12.67603,12.17967c-3.05308,5.159 -4.65938,11.0685 -4.64497,17.0886c0.0144,6.0202 1.64895,11.9217 4.72668,17.0655c3.07774,5.1438 7.48142,9.334 12.73412,12.1169c5.2528,2.7829 11.1546,4.0524 17.0663,3.6712c5.9118,-0.3813 11.6083,-2.4985 16.4728,-5.9339" opacity="0.45"/>
  <path id="svg_5" stroke-miterlimit="10" stroke="#05C2DF" d="m34.0306,61.1554c14.5871,0 26.4123,-11.7907 26.4123,-26.3351c0,-14.5445 -11.8252,-26.33507 -26.4123,-26.33507c-14.5872,0 -26.41244,11.79057 -26.41244,26.33507c0,14.5444 11.82524,26.3351 26.41244,26.3351z"/>
  <path id="svg_6" fill="#ffffff" d="m45,35l-17.25,10.3923l0,-20.7846l17.25,10.3923z"/>
  <path id="svg_7" fill="#05C2DF" d="m91,12l-2,0l0,2l2,0l0,-2z" opacity="0.45"/>
  <path id="svg_8" fill="#05C2DF" d="m88,12l-2,0l0,2l2,0l0,-2z" opacity="0.45"/>
  <path id="svg_9" fill="#05C2DF" d="m94,12l-2,0l0,2l2,0l0,-2z" opacity="0.45"/>
  <path id="svg_10" fill="#05C2DF" d="m97,12l-2,0l0,2l2,0l0,-2z" opacity="0.45"/>
  <path id="svg_11" fill="#05C2DF" d="m100,12l-2,0l0,2l2,0l0,-2z" opacity="0.45"/>
  <path id="svg_12" fill="#05C2DF" d="m104,12l-2,0l0,2l2,0l0,-2z" opacity="0.45"/>
  <path id="svg_13" fill="#05C2DF" d="m108,12l-2,0l0,2l2,0l0,-2z" opacity="0.45"/>
  <path id="svg_14" fill="#05C2DF" d="m112,12l-2,0l0,2l2,0l0,-2z" opacity="0.45"/>
  <path id="svg_15" fill="#05C2DF" d="m117,12l-2,0l0,2l2,0l0,-2z" opacity="0.45"/>
  <path id="svg_16" fill="#05C2DF" d="m122,12l-2,0l0,2l2,0l0,-2z" opacity="0.45"/>
  <path id="svg_17" fill="#05C2DF" d="m127,12l-2,0l0,2l2,0l0,-2z" opacity="0.45"/>
  <path id="svg_18" fill="#05C2DF" d="m132,12l-2,0l0,2l2,0l0,-2z" opacity="0.45"/>
  <path id="svg_19" fill="#05C2DF" d="m137,12l-2,0l0,2l2,0l0,-2z" opacity="0.45"/>
  <path id="svg_20" fill="#05C2DF" d="m142,12l-2,0l0,2l2,0l0,-2z" opacity="0.45"/>
  <path id="svg_21" fill="#05C2DF" d="m153.6,12.23l-1.6,0l0,1.6l1.6,0l0,-1.6z" opacity="0.45"/>
  <path id="svg_22" fill="#05C2DF" d="m159.6,12.23l-1.6,0l0,1.6l1.6,0l0,-1.6z" opacity="0.45"/>
  <path id="svg_23" fill="#05C2DF" d="m165.6,12.23l-1.6,0l0,1.6l1.6,0l0,-1.6z" opacity="0.45"/>
  <path id="svg_24" fill="#05C2DF" d="m171.3,12.4301l-1.3,0l0,1.3l1.3,0l0,-1.3z" opacity="0.45"/>
  <path id="svg_25" fill="#05C2DF" d="m178.3,12.4301l-1.3,0l0,1.3l1.3,0l0,-1.3z" opacity="0.45"/>
  <path id="svg_26" fill="#05C2DF" d="m185.3,12.4301l-1.3,0l0,1.3l1.3,0l0,-1.3z" opacity="0.45"/>
  <path id="svg_27" fill="#05C2DF" d="m192.3,12.4301l-1.3,0l0,1.3l1.3,0l0,-1.3z" opacity="0.45"/>
  <path id="svg_28" fill="#05C2DF" d="m200.3,12.4301l-1.3,0l0,1.3l1.3,0l0,-1.3z" opacity="0.45"/>
  <path id="svg_29" fill="#05C2DF" d="m209.3,12.4301l-1.3,0l0,1.3l1.3,0l0,-1.3z" opacity="0.45"/>
  <path id="svg_30" fill="#05C2DF" d="m147.6,12.23l-1.6,0l0,1.6l1.6,0l0,-1.6z" opacity="0.45"/>
  <path id="svg_31" fill="#05C2DF" d="m221,12.5l-1,0l0,1l1,0l0,-1z" opacity="0.45"/>
  <path id="svg_32" fill="#05C2DF" d="m91,56l-2,0l0,2l2,0l0,-2z" opacity="0.45"/>
  <path id="svg_33" fill="#05C2DF" d="m88,56l-2,0l0,2l2,0l0,-2z" opacity="0.45"/>
  <path id="svg_34" fill="#05C2DF" d="m94,56l-2,0l0,2l2,0l0,-2z" opacity="0.45"/>
  <path id="svg_35" fill="#05C2DF" d="m97,56l-2,0l0,2l2,0l0,-2z" opacity="0.45"/>
  <path id="svg_36" fill="#05C2DF" d="m100,56l-2,0l0,2l2,0l0,-2z" opacity="0.45"/>
  <path id="svg_37" fill="#05C2DF" d="m104,56l-2,0l0,2l2,0l0,-2z" opacity="0.45"/>
  <path id="svg_38" fill="#05C2DF" d="m108,56l-2,0l0,2l2,0l0,-2z" opacity="0.45"/>
  <path id="svg_39" fill="#05C2DF" d="m112,56l-2,0l0,2l2,0l0,-2z" opacity="0.45"/>
  <path id="svg_40" fill="#05C2DF" d="m117,56l-2,0l0,2l2,0l0,-2z" opacity="0.45"/>
  <path id="svg_41" fill="#05C2DF" d="m122,56l-2,0l0,2l2,0l0,-2z" opacity="0.45"/>
  <path id="svg_42" fill="#05C2DF" d="m127,56l-2,0l0,2l2,0l0,-2z" opacity="0.45"/>
  <path id="svg_43" fill="#05C2DF" d="m132,56l-2,0l0,2l2,0l0,-2z" opacity="0.45"/>
  <path id="svg_44" fill="#05C2DF" d="m137,56l-2,0l0,2l2,0l0,-2z" opacity="0.45"/>
  <path id="svg_45" fill="#05C2DF" d="m142,56l-2,0l0,2l2,0l0,-2z" opacity="0.45"/>
  <path id="svg_46" fill="#05C2DF" d="m153.6,56.23l-1.6,0l0,1.6l1.6,0l0,-1.6z" opacity="0.45"/>
  <path id="svg_47" fill="#05C2DF" d="m159.6,56.23l-1.6,0l0,1.6l1.6,0l0,-1.6z" opacity="0.45"/>
  <path id="svg_48" fill="#05C2DF" d="m165.6,56.23l-1.6,0l0,1.6l1.6,0l0,-1.6z" opacity="0.45"/>
  <path id="svg_49" fill="#05C2DF" d="m171.3,56.4301l-1.3,0l0,1.3l1.3,0l0,-1.3z" opacity="0.45"/>
  <path id="svg_50" fill="#05C2DF" d="m178.3,56.4301l-1.3,0l0,1.3l1.3,0l0,-1.3z" opacity="0.45"/>
  <path id="svg_51" fill="#05C2DF" d="m185.3,56.4301l-1.3,0l0,1.3l1.3,0l0,-1.3z" opacity="0.45"/>
  <path id="svg_52" fill="#05C2DF" d="m192.3,56.4301l-1.3,0l0,1.3l1.3,0l0,-1.3z" opacity="0.45"/>
  <path id="svg_53" fill="#05C2DF" d="m200.3,56.4301l-1.3,0l0,1.3l1.3,0l0,-1.3z" opacity="0.45"/>
  <path id="svg_54" fill="#05C2DF" d="m209.3,56.4301l-1.3,0l0,1.3l1.3,0l0,-1.3z" opacity="0.45"/>
  <path id="svg_55" fill="#05C2DF" d="m147.6,56.23l-1.6,0l0,1.6l1.6,0l0,-1.6z" opacity="0.45"/>
  <path id="svg_56" fill="#05C2DF" d="m221,56.5l-1,0l0,1l1,0l0,-1z" opacity="0.45"/>
 </g>
</svg>