<svg width="248" height="69" viewBox="0 0 248 69" fill="none" xmlns="http://www.w3.org/2000/svg">
<path opacity="0.45" d="M51 7C46.1191 3.58873 40.9135 2.35207 35 2.00004C29.0865 1.648 23.5605 3.00323 18.3211 5.81203C13.0817 8.62084 8.69816 12.8327 5.64507 17.9917C2.59199 23.1507 0.985693 29.0602 1.0001 35.0803C1.0145 41.1005 2.64905 47.002 5.72678 52.1458C8.80452 57.2896 13.2082 61.4798 18.4609 64.2627C23.7137 67.0456 29.6155 68.3151 35.5272 67.9339C41.439 67.5526 47.1355 65.4354 52 62" stroke="#05C2DF" stroke-width="2" stroke-miterlimit="1.51696"/>
<path d="M34.0296 61.1555C48.6167 61.1555 60.442 49.3649 60.442 34.8204C60.442 20.276 48.6167 8.48535 34.0296 8.48535C19.4424 8.48535 7.61719 20.276 7.61719 34.8204C7.61719 49.3649 19.4424 61.1555 34.0296 61.1555Z" stroke="#05C2DF" stroke-miterlimit="10"/>
<path opacity="0.45" d="M86 12H56V14H86V12Z" fill="#05C2DF"/>
<path opacity="0.45" d="M86 56H56V58H86V56Z" fill="#05C2DF"/>
<path opacity="0.45" d="M91 12H89V14H91V12Z" fill="#05C2DF"/>
<path opacity="0.45" d="M88 12H86V14H88V12Z" fill="#05C2DF"/>
<path opacity="0.45" d="M94 12H92V14H94V12Z" fill="#05C2DF"/>
<path opacity="0.45" d="M97 12H95V14H97V12Z" fill="#05C2DF"/>
<path opacity="0.45" d="M100 12H98V14H100V12Z" fill="#05C2DF"/>
<path opacity="0.45" d="M104 12H102V14H104V12Z" fill="#05C2DF"/>
<path opacity="0.45" d="M108 12H106V14H108V12Z" fill="#05C2DF"/>
<path opacity="0.45" d="M112 12H110V14H112V12Z" fill="#05C2DF"/>
<path opacity="0.45" d="M117 12H115V14H117V12Z" fill="#05C2DF"/>
<path opacity="0.45" d="M122 12H120V14H122V12Z" fill="#05C2DF"/>
<path opacity="0.45" d="M127 12H125V14H127V12Z" fill="#05C2DF"/>
<path opacity="0.45" d="M132 12H130V14H132V12Z" fill="#05C2DF"/>
<path opacity="0.45" d="M137 12H135V14H137V12Z" fill="#05C2DF"/>
<path opacity="0.45" d="M142 12H140V14H142V12Z" fill="#05C2DF"/>
<path opacity="0.45" d="M153.6 12.2305H152V13.8305H153.6V12.2305Z" fill="#05C2DF"/>
<path opacity="0.45" d="M159.6 12.2305H158V13.8305H159.6V12.2305Z" fill="#05C2DF"/>
<path opacity="0.45" d="M165.6 12.2305H164V13.8305H165.6V12.2305Z" fill="#05C2DF"/>
<path opacity="0.45" d="M171.3 12.4297H170V13.7297H171.3V12.4297Z" fill="#05C2DF"/>
<path opacity="0.45" d="M178.3 12.4297H177V13.7297H178.3V12.4297Z" fill="#05C2DF"/>
<path opacity="0.45" d="M185.3 12.4297H184V13.7297H185.3V12.4297Z" fill="#05C2DF"/>
<path opacity="0.45" d="M192.3 12.4297H191V13.7297H192.3V12.4297Z" fill="#05C2DF"/>
<path opacity="0.45" d="M200.3 12.4297H199V13.7297H200.3V12.4297Z" fill="#05C2DF"/>
<path opacity="0.45" d="M209.3 12.4297H208V13.7297H209.3V12.4297Z" fill="#05C2DF"/>
<path opacity="0.45" d="M147.6 12.2305H146V13.8305H147.6V12.2305Z" fill="#05C2DF"/>
<path opacity="0.45" d="M248 12.5H247V13.5H248V12.5Z" fill="#05C2DF"/>
<path opacity="0.45" d="M234 12.5H233V13.5H234V12.5Z" fill="#05C2DF"/>
<path opacity="0.45" d="M221 12.5H220V13.5H221V12.5Z" fill="#05C2DF"/>
<path opacity="0.45" d="M91 56H89V58H91V56Z" fill="#05C2DF"/>
<path opacity="0.45" d="M88 56H86V58H88V56Z" fill="#05C2DF"/>
<path opacity="0.45" d="M94 56H92V58H94V56Z" fill="#05C2DF"/>
<path opacity="0.45" d="M97 56H95V58H97V56Z" fill="#05C2DF"/>
<path opacity="0.45" d="M100 56H98V58H100V56Z" fill="#05C2DF"/>
<path opacity="0.45" d="M104 56H102V58H104V56Z" fill="#05C2DF"/>
<path opacity="0.45" d="M108 56H106V58H108V56Z" fill="#05C2DF"/>
<path opacity="0.45" d="M112 56H110V58H112V56Z" fill="#05C2DF"/>
<path opacity="0.45" d="M117 56H115V58H117V56Z" fill="#05C2DF"/>
<path opacity="0.45" d="M122 56H120V58H122V56Z" fill="#05C2DF"/>
<path opacity="0.45" d="M127 56H125V58H127V56Z" fill="#05C2DF"/>
<path opacity="0.45" d="M132 56H130V58H132V56Z" fill="#05C2DF"/>
<path opacity="0.45" d="M137 56H135V58H137V56Z" fill="#05C2DF"/>
<path opacity="0.45" d="M142 56H140V58H142V56Z" fill="#05C2DF"/>
<path opacity="0.45" d="M153.6 56.2305H152V57.8305H153.6V56.2305Z" fill="#05C2DF"/>
<path opacity="0.45" d="M159.6 56.2305H158V57.8305H159.6V56.2305Z" fill="#05C2DF"/>
<path opacity="0.45" d="M165.6 56.2305H164V57.8305H165.6V56.2305Z" fill="#05C2DF"/>
<path opacity="0.45" d="M171.3 56.4297H170V57.7297H171.3V56.4297Z" fill="#05C2DF"/>
<path opacity="0.45" d="M178.3 56.4297H177V57.7297H178.3V56.4297Z" fill="#05C2DF"/>
<path opacity="0.45" d="M185.3 56.4297H184V57.7297H185.3V56.4297Z" fill="#05C2DF"/>
<path opacity="0.45" d="M192.3 56.4297H191V57.7297H192.3V56.4297Z" fill="#05C2DF"/>
<path opacity="0.45" d="M200.3 56.4297H199V57.7297H200.3V56.4297Z" fill="#05C2DF"/>
<path opacity="0.45" d="M209.3 56.4297H208V57.7297H209.3V56.4297Z" fill="#05C2DF"/>
<path opacity="0.45" d="M147.6 56.2305H146V57.8305H147.6V56.2305Z" fill="#05C2DF"/>
<path opacity="0.45" d="M248 56.5H247V57.5H248V56.5Z" fill="#05C2DF"/>
<path opacity="0.45" d="M234 56.5H233V57.5H234V56.5Z" fill="#05C2DF"/>
<path opacity="0.45" d="M221 56.5H220V57.5H221V56.5Z" fill="#05C2DF"/>
</svg>

