<svg width="207" height="35" viewBox="0 0 207 35" fill="none" xmlns="http://www.w3.org/2000/svg">
<path d="M3.328 13.6V18H1.52V6.8H5.864C7.13867 6.8 8.11733 7.10133 8.8 7.704C9.488 8.30667 9.832 9.13867 9.832 10.2C9.832 11.2613 9.488 12.0933 8.8 12.696C8.11733 13.2987 7.13867 13.6 5.864 13.6H3.328ZM3.328 8.504V11.896H5.816C6.552 11.896 7.09067 11.76 7.432 11.488C7.77867 11.2107 7.952 10.7813 7.952 10.2C7.952 9.61867 7.77867 9.192 7.432 8.92C7.09067 8.64267 6.552 8.504 5.816 8.504H3.328ZM15.7858 10.136C16.2818 10.136 16.7111 10.208 17.0738 10.352L16.6738 12.008C16.3164 11.8213 15.8924 11.728 15.4018 11.728C14.8578 11.728 14.4178 11.9093 14.0818 12.272C13.7458 12.6347 13.5778 13.1387 13.5778 13.784V18H11.9058V10.336H13.5618V11.2C14.0578 10.4907 14.7991 10.136 15.7858 10.136ZM21.7323 10.136C22.8043 10.136 23.6763 10.5093 24.3483 11.256C25.0203 11.9973 25.3563 12.9653 25.3563 14.16C25.3563 14.4053 25.3456 14.6133 25.3243 14.784H19.6603C19.7616 15.4347 20.0203 15.9227 20.4363 16.248C20.8576 16.5733 21.3589 16.736 21.9403 16.736C22.7456 16.736 23.4843 16.4667 24.1563 15.928L24.9883 17.12C24.1456 17.84 23.0949 18.2 21.8363 18.2C20.6789 18.2 19.7349 17.832 19.0043 17.096C18.2789 16.3547 17.9163 15.3787 17.9163 14.168C17.9163 12.968 18.2683 11.9973 18.9723 11.256C19.6816 10.5093 20.6016 10.136 21.7323 10.136ZM21.7003 11.624C21.1243 11.624 20.6629 11.7947 20.3163 12.136C19.9696 12.472 19.7536 12.9307 19.6683 13.512H23.6443C23.5536 12.9147 23.3376 12.4507 22.9963 12.12C22.6603 11.7893 22.2283 11.624 21.7003 11.624ZM31.2793 18H29.2953L26.2153 10.336H28.0393L30.3033 16.264L32.5673 10.336H34.3433L31.2793 18ZM37.5233 18H35.8433V10.336H37.5233V18ZM36.6753 6.504C37.0059 6.504 37.2859 6.61867 37.5153 6.848C37.7446 7.07733 37.8593 7.35733 37.8593 7.688C37.8593 8.024 37.7446 8.304 37.5153 8.528C37.2913 8.74667 37.0113 8.856 36.6753 8.856C36.3393 8.856 36.0593 8.74667 35.8353 8.528C35.6166 8.304 35.5073 8.024 35.5073 7.688C35.5073 7.352 35.6166 7.072 35.8353 6.848C36.0593 6.61867 36.3393 6.504 36.6753 6.504ZM41.5961 10.664C42.2255 10.312 42.9295 10.136 43.7081 10.136C44.4868 10.136 45.1908 10.312 45.8201 10.664C46.4495 11.0107 46.9428 11.4933 47.3001 12.112C47.6575 12.7253 47.8361 13.4107 47.8361 14.168C47.8361 14.9253 47.6575 15.6133 47.3001 16.232C46.9428 16.8453 46.4495 17.328 45.8201 17.68C45.1908 18.0267 44.4868 18.2 43.7081 18.2C42.9295 18.2 42.2255 18.024 41.5961 17.672C40.9668 17.32 40.4735 16.8373 40.1161 16.224C39.7641 15.6107 39.5881 14.9253 39.5881 14.168C39.5881 13.4107 39.7641 12.7253 40.1161 12.112C40.4735 11.4987 40.9668 11.016 41.5961 10.664ZM45.4281 12.4C44.9695 11.9413 44.3961 11.712 43.7081 11.712C43.0201 11.712 42.4468 11.9413 41.9881 12.4C41.5348 12.8587 41.3081 13.448 41.3081 14.168C41.3081 14.888 41.5348 15.4773 41.9881 15.936C42.4468 16.3947 43.0201 16.624 43.7081 16.624C44.3961 16.624 44.9695 16.3947 45.4281 15.936C45.8868 15.4773 46.1161 14.888 46.1161 14.168C46.1161 13.448 45.8868 12.8587 45.4281 12.4ZM56.9298 14.752C56.9298 15.3387 56.8284 15.8587 56.6258 16.312C56.4284 16.7653 56.1591 17.128 55.8178 17.4C55.4818 17.6667 55.1058 17.8667 54.6898 18C54.2791 18.1333 53.8418 18.2 53.3778 18.2C52.9138 18.2 52.4738 18.1333 52.0578 18C51.6471 17.8667 51.2711 17.6667 50.9298 17.4C50.5884 17.128 50.3191 16.7653 50.1218 16.312C49.9244 15.8587 49.8258 15.3387 49.8258 14.752V10.336H51.5058V14.6C51.5058 15.2987 51.6738 15.8107 52.0098 16.136C52.3511 16.4613 52.8071 16.624 53.3778 16.624C53.9484 16.624 54.4018 16.4613 54.7378 16.136C55.0791 15.8107 55.2498 15.2987 55.2498 14.6V10.336H56.9298V14.752ZM64.6843 12.256C64.4069 12.0853 64.0523 11.9333 63.6203 11.8C63.1883 11.6667 62.7536 11.6 62.3163 11.6C61.8629 11.6 61.5083 11.6827 61.2523 11.848C60.9963 12.0133 60.8683 12.2347 60.8683 12.512C60.8683 12.7627 60.9749 12.9413 61.1883 13.048C61.4016 13.1547 61.7163 13.24 62.1323 13.304L62.9243 13.424C64.7003 13.6853 65.5883 14.44 65.5883 15.688C65.5883 16.44 65.2789 17.0453 64.6603 17.504C64.0416 17.9627 63.1883 18.192 62.1003 18.192C61.5829 18.192 61.0283 18.12 60.4363 17.976C59.8496 17.832 59.3083 17.576 58.8123 17.208L59.5883 15.952C60.2603 16.4747 61.1029 16.736 62.1163 16.736C62.6816 16.736 63.1136 16.6533 63.4123 16.488C63.7109 16.3227 63.8603 16.0933 63.8603 15.8C63.8603 15.3573 63.4176 15.0747 62.5323 14.952L61.7323 14.848C60.8789 14.7307 60.2309 14.4827 59.7883 14.104C59.3509 13.72 59.1323 13.2187 59.1323 12.6C59.1323 11.8427 59.4149 11.2453 59.9803 10.808C60.5509 10.3653 61.3243 10.144 62.3003 10.144C63.5269 10.144 64.5616 10.4133 65.4043 10.952L64.6843 12.256Z" fill="white"/>
<path d="M180.216 18H178.584L172.336 9.896L172.328 18H170.52V6.8H172.152L178.408 14.904V6.8H180.216V18ZM186.31 10.136C187.382 10.136 188.254 10.5093 188.926 11.256C189.598 11.9973 189.934 12.9653 189.934 14.16C189.934 14.4053 189.924 14.6133 189.902 14.784H184.238C184.34 15.4347 184.598 15.9227 185.014 16.248C185.436 16.5733 185.937 16.736 186.518 16.736C187.324 16.736 188.062 16.4667 188.734 15.928L189.566 17.12C188.724 17.84 187.673 18.2 186.414 18.2C185.257 18.2 184.313 17.832 183.582 17.096C182.857 16.3547 182.494 15.3787 182.494 14.168C182.494 12.968 182.846 11.9973 183.55 11.256C184.26 10.5093 185.18 10.136 186.31 10.136ZM186.278 11.624C185.702 11.624 185.241 11.7947 184.894 12.136C184.548 12.472 184.332 12.9307 184.246 13.512H188.222C188.132 12.9147 187.916 12.4507 187.574 12.12C187.238 11.7893 186.806 11.624 186.278 11.624ZM195.631 14.072L198.519 18H196.463L194.519 15.336L192.599 18H190.639L193.527 14.088L190.687 10.336H192.743L194.607 12.896L196.487 10.336H198.463L195.631 14.072ZM205.317 11.856H202.381V15.192C202.381 15.6773 202.493 16.0373 202.717 16.272C202.941 16.5067 203.235 16.624 203.597 16.624C204.077 16.624 204.592 16.4507 205.141 16.104L205.805 17.44C205.053 17.9467 204.269 18.2 203.453 18.2C202.568 18.2 201.888 17.9547 201.413 17.464C200.939 16.9733 200.701 16.2267 200.701 15.224V11.856H199.173V10.336H200.701V8.016H202.381V10.336H205.317V11.856Z" fill="white"/>
<path d="M0 34H207" stroke="#212121"/>
<path d="M0 34H69" stroke="#05C2DF"/>
</svg>
