<svg width="70" height="82" viewBox="0 0 70 82" fill="none" xmlns="http://www.w3.org/2000/svg">
<path d="M69.2249 7.07864V80.6686H66.8933H56.5113H53.6799H30.0844H27.2529H20.6461H17.8147H17.3708V78.8091C17.3708 77.7507 16.513 76.8934 15.4551 76.8934C14.3973 76.8934 13.5394 77.7507 13.5394 78.8091V80.6686H13.0956H10.2642H3.6574L1.96661 80.6685L1.32617 80.6685V27.8426C1.32617 27.3366 1.73605 26.9269 2.24187 26.9269H14.0396H14.5396V26.4269V14.6291C14.5396 14.1232 14.9495 13.7134 15.4553 13.7134H19.7025H20.2025V13.2134V7.07864C20.2025 6.57273 20.6124 6.16294 21.1182 6.16294H27.253H27.753V5.66294V1.4157C27.753 0.909827 28.163 0.5 28.6687 0.5C29.1744 0.5 29.5844 0.909828 29.5844 1.4157V5.66294V6.16294H30.0844H36.2194C36.7251 6.16294 37.1351 6.57277 37.1351 7.07864V13.2134V13.7134H37.6351H40.4665H40.9665V13.2134V7.07864C40.9665 6.57273 41.3763 6.16294 41.8822 6.16294H68.3092C68.8149 6.16294 69.2249 6.57277 69.2249 7.07864Z" stroke="#05C2DF" stroke-linecap="round"/>
<path d="M36 77.5V51.0731" stroke="#05C2DF" stroke-linecap="round"/>
<path d="M42 77.4269V51" stroke="#05C2DF" stroke-linecap="round"/>
<path d="M48 77.4269V51" stroke="#05C2DF" stroke-linecap="round"/>
<path d="M50.3236 16.5168C50.3236 17.1608 49.8018 17.6825 49.1579 17.6825C48.514 17.6825 47.9922 17.1608 47.9922 16.517V14.6293C47.9922 13.9853 48.5142 13.4636 49.1579 13.4636C49.8016 13.4636 50.3236 13.9853 50.3236 14.6293V16.5168Z" fill="#05C2DF" stroke="#05040B" stroke-width="0.5" stroke-linecap="round"/>
<path d="M55.9857 16.5168C55.9857 17.1608 55.4639 17.6825 54.82 17.6825C54.1761 17.6825 53.6543 17.1608 53.6543 16.517V14.6293C53.6543 13.9853 54.1763 13.4636 54.82 13.4636C55.4637 13.4636 55.9857 13.9853 55.9857 14.6293V16.5168Z" fill="#05C2DF" stroke="#05040B" stroke-width="0.5" stroke-linecap="round"/>
<path d="M61.6498 16.5168C61.6498 17.1608 61.1279 17.6825 60.4841 17.6825C59.8402 17.6825 59.3184 17.1608 59.3184 16.517V14.6293C59.3184 13.9853 59.8403 13.4636 60.4841 13.4636C61.1278 13.4636 61.6498 13.9853 61.6498 14.6293V16.5168Z" fill="#05C2DF" stroke="#05040B" stroke-width="0.5" stroke-linecap="round"/>
<path d="M50.3236 25.955C50.3236 26.599 49.8018 27.1207 49.1579 27.1207C48.514 27.1207 47.9922 26.599 47.9922 25.955V24.0673C47.9922 23.4233 48.5142 22.9016 49.1579 22.9016C49.8016 22.9016 50.3236 23.4233 50.3236 24.0673V25.955Z" fill="#05C2DF" stroke="#05040B" stroke-width="0.5" stroke-linecap="round"/>
<path d="M55.9857 25.955C55.9857 26.599 55.4639 27.1207 54.82 27.1207C54.1761 27.1207 53.6543 26.599 53.6543 25.955V24.0673C53.6543 23.4233 54.1763 22.9016 54.82 22.9016C55.4637 22.9016 55.9857 23.4233 55.9857 24.0673V25.955Z" fill="#05C2DF" stroke="#05040B" stroke-width="0.5" stroke-linecap="round"/>
<path d="M61.6498 25.955C61.6498 26.599 61.1279 27.1207 60.4841 27.1207C59.8402 27.1207 59.3184 26.599 59.3184 25.955V24.0673C59.3184 23.4233 59.8403 22.9016 60.4841 22.9016C61.1278 22.9016 61.6498 23.4233 61.6498 24.0673V25.955Z" fill="#05C2DF" stroke="#05040B" stroke-width="0.5" stroke-linecap="round"/>
<path d="M50.3236 35.3934C50.3236 36.0374 49.8018 36.5591 49.1579 36.5591C48.514 36.5591 47.9922 36.0372 47.9922 35.3934V33.5057C47.9922 32.8617 48.5142 32.34 49.1579 32.34C49.8016 32.34 50.3236 32.8617 50.3236 33.5057V35.3934Z" fill="#05C2DF" stroke="#05040B" stroke-width="0.5" stroke-linecap="round"/>
<path d="M55.9857 35.3934C55.9857 36.0374 55.4639 36.5591 54.82 36.5591C54.1761 36.5591 53.6543 36.0372 53.6543 35.3934V33.5057C53.6543 32.8617 54.1763 32.34 54.82 32.34C55.4637 32.34 55.9857 32.8617 55.9857 33.5057V35.3934Z" fill="#05C2DF" stroke="#05040B" stroke-width="0.5" stroke-linecap="round"/>
<path d="M61.6498 35.3934C61.6498 36.0374 61.1279 36.5591 60.4841 36.5591C59.8402 36.5591 59.3184 36.0372 59.3184 35.3934V33.5057C59.3184 32.8617 59.8403 32.34 60.4841 32.34C61.1278 32.34 61.6498 32.8617 61.6498 33.5057V35.3934Z" fill="#05C2DF" stroke="#05040B" stroke-width="0.5" stroke-linecap="round"/>
<path d="M10.683 39.1686C10.683 39.8126 10.1611 40.3343 9.51726 40.3343C8.87355 40.3343 8.35156 39.8124 8.35156 39.1686V37.2809C8.35156 36.6369 8.87353 36.1152 9.51726 36.1152C10.161 36.1152 10.683 36.6369 10.683 37.2809V39.1686Z" fill="#05C2DF" stroke="#05040B" stroke-width="0.5" stroke-linecap="round"/>
<path d="M16.3451 39.1686C16.3451 39.8126 15.8232 40.3343 15.1794 40.3343C14.5355 40.3343 14.0137 39.8124 14.0137 39.1686V37.2809C14.0137 36.6369 14.5356 36.1152 15.1794 36.1152C15.8231 36.1152 16.3451 36.6369 16.3451 37.2809V39.1686Z" fill="#05C2DF" stroke="#05040B" stroke-width="0.5" stroke-linecap="round"/>
<path d="M22.0091 39.1686C22.0091 39.8126 21.4873 40.3343 20.8434 40.3343C20.1996 40.3343 19.6777 39.8124 19.6777 39.1686V37.2809C19.6777 36.6369 20.1997 36.1152 20.8434 36.1152C21.4872 36.1152 22.0091 36.6369 22.0091 37.2809V39.1686Z" fill="#05C2DF" stroke="#05040B" stroke-width="0.5" stroke-linecap="round"/>
<path d="M10.683 48.6068C10.683 49.2508 10.1611 49.7725 9.51726 49.7725C8.87355 49.7725 8.35156 49.2506 8.35156 48.6068V46.7191C8.35156 46.0751 8.87353 45.5534 9.51726 45.5534C10.161 45.5534 10.683 46.0751 10.683 46.7191V48.6068Z" fill="#05C2DF" stroke="#05040B" stroke-width="0.5" stroke-linecap="round"/>
<path d="M16.3451 48.6068C16.3451 49.2508 15.8232 49.7725 15.1794 49.7725C14.5355 49.7725 14.0137 49.2507 14.0137 48.6068V46.7191C14.0137 46.0751 14.5356 45.5534 15.1794 45.5534C15.8231 45.5534 16.3451 46.0751 16.3451 46.7191V48.6068Z" fill="#05C2DF" stroke="#05040B" stroke-width="0.5" stroke-linecap="round"/>
<path d="M22.0091 48.6068C22.0091 49.2508 21.4873 49.7725 20.8434 49.7725C20.1996 49.7725 19.6777 49.2507 19.6777 48.6068V46.7191C19.6777 46.0751 20.1997 45.5534 20.8434 45.5534C21.4872 45.5534 22.0091 46.0751 22.0091 46.7191V48.6068Z" fill="#05C2DF" stroke="#05040B" stroke-width="0.5" stroke-linecap="round"/>
<path d="M10.683 58.045C10.683 58.689 10.1611 59.2107 9.51726 59.2107C8.87353 59.2107 8.35156 58.689 8.35156 58.045V56.1573C8.35156 55.5133 8.87353 54.9916 9.51726 54.9916C10.161 54.9916 10.683 55.5133 10.683 56.1573V58.045Z" fill="#05C2DF" stroke="#05040B" stroke-width="0.5" stroke-linecap="round"/>
<path d="M16.3451 58.045C16.3451 58.689 15.8232 59.2107 15.1794 59.2107C14.5355 59.2107 14.0137 58.689 14.0137 58.045V56.1573C14.0137 55.5133 14.5356 54.9916 15.1794 54.9916C15.8231 54.9916 16.3451 55.5133 16.3451 56.1573V58.045Z" fill="#05C2DF" stroke="#05040B" stroke-width="0.5" stroke-linecap="round"/>
<path d="M22.0091 58.045C22.0091 58.689 21.4873 59.2107 20.8434 59.2107C20.1996 59.2107 19.6777 58.689 19.6777 58.045V56.1573C19.6777 55.5133 20.1997 54.9916 20.8434 54.9916C21.4872 54.9916 22.0091 55.5133 22.0091 56.1573V58.045Z" fill="#05C2DF" stroke="#05040B" stroke-width="0.5" stroke-linecap="round"/>
<path d="M10.683 67.4831C10.683 68.1271 10.1611 68.6488 9.51726 68.6488C8.87353 68.6488 8.35156 68.1271 8.35156 67.4831V65.5954C8.35156 64.9514 8.87353 64.4297 9.51726 64.4297C10.161 64.4297 10.683 64.9514 10.683 65.5954V67.4831Z" fill="#05C2DF" stroke="#05040B" stroke-width="0.5" stroke-linecap="round"/>
<path d="M16.3451 67.4831C16.3451 68.1271 15.8232 68.6488 15.1794 68.6488C14.5355 68.6488 14.0137 68.1271 14.0137 67.4831V65.5954C14.0137 64.9514 14.5356 64.4297 15.1794 64.4297C15.8231 64.4297 16.3451 64.9514 16.3451 65.5954V67.4831Z" fill="#05C2DF" stroke="#05040B" stroke-width="0.5" stroke-linecap="round"/>
<path d="M22.0091 67.4831C22.0091 68.1271 21.4873 68.6488 20.8434 68.6488C20.1996 68.6488 19.6777 68.1271 19.6777 67.4831V65.5954C19.6777 64.9514 20.1997 64.4297 20.8434 64.4297C21.4872 64.4297 22.0091 64.9514 22.0091 65.5954V67.4831Z" fill="#05C2DF" stroke="#05040B" stroke-width="0.5" stroke-linecap="round"/>
<path d="M61.6498 44.8315C61.6498 45.4755 61.1279 45.9972 60.4841 45.9972C59.8402 45.9972 59.3184 45.4753 59.3184 44.8315V42.9438C59.3184 42.2998 59.8403 41.7781 60.4841 41.7781C61.1278 41.7781 61.6498 42.2998 61.6498 42.9438V44.8315Z" fill="#05C2DF" stroke="#05040B" stroke-width="0.5" stroke-linecap="round"/>
<path d="M61.6498 54.2698C61.6498 54.9138 61.1279 55.4355 60.4841 55.4355C59.8402 55.4355 59.3184 54.9136 59.3184 54.2698V52.3821C59.3184 51.7381 59.8403 51.2164 60.4841 51.2164C61.1278 51.2164 61.6498 51.7381 61.6498 52.3821V54.2698Z" fill="#05C2DF" stroke="#05040B" stroke-width="0.5" stroke-linecap="round"/>
<path d="M61.6498 63.7079C61.6498 64.3519 61.1279 64.8736 60.4841 64.8736C59.8402 64.8736 59.3184 64.3518 59.3184 63.7079V61.8202C59.3184 61.1763 59.8403 60.6545 60.4841 60.6545C61.1278 60.6545 61.6498 61.1763 61.6498 61.8202V63.7079Z" fill="#05C2DF" stroke="#05040B" stroke-width="0.5" stroke-linecap="round"/>
<path d="M61.6498 73.146C61.6498 73.79 61.1279 74.3117 60.4841 74.3117C59.8402 74.3117 59.3184 73.7899 59.3184 73.146V71.2583C59.3184 70.6144 59.8403 70.0927 60.4841 70.0927C61.1278 70.0927 61.6498 70.6144 61.6498 71.2583V73.146Z" fill="#05C2DF" stroke="#05040B" stroke-width="0.5" stroke-linecap="round"/>
<path d="M34.3259 20H23" stroke="#05C2DF" stroke-linecap="round"/>
</svg>
