<svg width="84" height="84" viewBox="0 0 84 84" fill="none" xmlns="http://www.w3.org/2000/svg">
<g clip-path="url(#clip0_3495_3073)">
<path d="M76.2249 7.07864V80.6686H73.8933H63.5113H60.6799H37.0844H34.2529H27.6461H24.8147H24.3708V78.8091C24.3708 77.7507 23.513 76.8934 22.4551 76.8934C21.3973 76.8934 20.5394 77.7507 20.5394 78.8091V80.6686H20.0956H17.2642H10.6574L8.96661 80.6685L8.32617 80.6685V27.8426C8.32617 27.3366 8.73605 26.9269 9.24187 26.9269H21.0396H21.5396V26.4269V14.6291C21.5396 14.1232 21.9495 13.7134 22.4553 13.7134H26.7025H27.2025V13.2134V7.07864C27.2025 6.57273 27.6124 6.16294 28.1182 6.16294H34.253H34.753V5.66294V1.4157C34.753 0.909827 35.163 0.5 35.6687 0.5C36.1744 0.5 36.5844 0.909828 36.5844 1.4157V5.66294V6.16294H37.0844H43.2194C43.7251 6.16294 44.1351 6.57277 44.1351 7.07864V13.2134V13.7134H44.6351H47.4665H47.9665V13.2134V7.07864C47.9665 6.57273 48.3763 6.16294 48.8822 6.16294H75.3092C75.8149 6.16294 76.2249 6.57277 76.2249 7.07864Z" stroke="#05C2DF" stroke-linecap="round"/>
<path d="M43 77.5001V51.0733" stroke="#05C2DF" stroke-linecap="round"/>
<path d="M49 77.4269V51" stroke="#05C2DF" stroke-linecap="round"/>
<path d="M55 77.4269V51" stroke="#05C2DF" stroke-linecap="round"/>
<path d="M57.3228 16.5169C57.3228 17.1609 56.801 17.6826 56.1572 17.6826C55.5133 17.6826 54.9915 17.1608 54.9915 16.517V14.6293C54.9915 13.9853 55.5134 13.4636 56.1572 13.4636C56.8009 13.4636 57.3228 13.9853 57.3228 14.6293V16.5169Z" fill="#05C2DF" stroke="#05040B" stroke-width="0.5" stroke-linecap="round"/>
<path d="M62.9862 16.5169C62.9862 17.1609 62.4643 17.6826 61.8205 17.6826C61.1766 17.6826 60.6548 17.1608 60.6548 16.517V14.6293C60.6548 13.9853 61.1768 13.4636 61.8205 13.4636C62.4642 13.4636 62.9862 13.9853 62.9862 14.6293V16.5169Z" fill="#05C2DF" stroke="#05040B" stroke-width="0.5" stroke-linecap="round"/>
<path d="M68.6493 16.5169C68.6493 17.1609 68.1274 17.6826 67.4836 17.6826C66.8397 17.6826 66.3179 17.1608 66.3179 16.517V14.6293C66.3179 13.9853 66.8398 13.4636 67.4836 13.4636C68.1273 13.4636 68.6493 13.9853 68.6493 14.6293V16.5169Z" fill="#05C2DF" stroke="#05040B" stroke-width="0.5" stroke-linecap="round"/>
<path d="M57.3228 25.955C57.3228 26.599 56.801 27.1207 56.1572 27.1207C55.5133 27.1207 54.9915 26.599 54.9915 25.955V24.0673C54.9915 23.4233 55.5134 22.9016 56.1572 22.9016C56.8009 22.9016 57.3228 23.4233 57.3228 24.0673V25.955Z" fill="#05C2DF" stroke="#05040B" stroke-width="0.5" stroke-linecap="round"/>
<path d="M62.9862 25.955C62.9862 26.599 62.4643 27.1207 61.8205 27.1207C61.1766 27.1207 60.6548 26.599 60.6548 25.955V24.0673C60.6548 23.4233 61.1768 22.9016 61.8205 22.9016C62.4642 22.9016 62.9862 23.4233 62.9862 24.0673V25.955Z" fill="#05C2DF" stroke="#05040B" stroke-width="0.5" stroke-linecap="round"/>
<path d="M68.6493 25.955C68.6493 26.599 68.1274 27.1207 67.4836 27.1207C66.8397 27.1207 66.3179 26.599 66.3179 25.955V24.0673C66.3179 23.4233 66.8398 22.9016 67.4836 22.9016C68.1273 22.9016 68.6493 23.4233 68.6493 24.0673V25.955Z" fill="#05C2DF" stroke="#05040B" stroke-width="0.5" stroke-linecap="round"/>
<path d="M57.3228 35.3932C57.3228 36.0372 56.801 36.5589 56.1572 36.5589C55.5133 36.5589 54.9915 36.0371 54.9915 35.3932V33.5055C54.9915 32.8616 55.5134 32.3398 56.1572 32.3398C56.8009 32.3398 57.3228 32.8616 57.3228 33.5055V35.3932Z" fill="#05C2DF" stroke="#05040B" stroke-width="0.5" stroke-linecap="round"/>
<path d="M62.9862 35.3932C62.9862 36.0372 62.4643 36.5589 61.8205 36.5589C61.1766 36.5589 60.6548 36.0371 60.6548 35.3932V33.5055C60.6548 32.8616 61.1768 32.3398 61.8205 32.3398C62.4642 32.3398 62.9862 32.8616 62.9862 33.5055V35.3932Z" fill="#05C2DF" stroke="#05040B" stroke-width="0.5" stroke-linecap="round"/>
<path d="M68.6493 35.3932C68.6493 36.0372 68.1274 36.5589 67.4836 36.5589C66.8397 36.5589 66.3179 36.0371 66.3179 35.3932V33.5055C66.3179 32.8616 66.8398 32.3398 67.4836 32.3398C68.1273 32.3398 68.6493 32.8616 68.6493 33.5055V35.3932Z" fill="#05C2DF" stroke="#05040B" stroke-width="0.5" stroke-linecap="round"/>
<path d="M17.6826 39.1686C17.6826 39.8126 17.1608 40.3343 16.5169 40.3343C15.8732 40.3343 15.3512 39.8125 15.3512 39.1686V37.2809C15.3512 36.637 15.8732 36.1152 16.5169 36.1152C17.1606 36.1152 17.6826 36.637 17.6826 37.2809V39.1686Z" fill="#05C2DF" stroke="#05040B" stroke-width="0.5" stroke-linecap="round"/>
<path d="M23.3457 39.1686C23.3457 39.8126 22.8238 40.3343 22.18 40.3343C21.5361 40.3343 21.0143 39.8125 21.0143 39.1686V37.2809C21.0143 36.637 21.5363 36.1152 22.18 36.1152C22.8237 36.1152 23.3457 36.637 23.3457 37.2809V39.1686Z" fill="#05C2DF" stroke="#05040B" stroke-width="0.5" stroke-linecap="round"/>
<path d="M29.0084 39.1686C29.0084 39.8126 28.4866 40.3343 27.8427 40.3343C27.1988 40.3343 26.677 39.8125 26.677 39.1686V37.2809C26.677 36.637 27.199 36.1152 27.8427 36.1152C28.4864 36.1152 29.0084 36.637 29.0084 37.2809V39.1686Z" fill="#05C2DF" stroke="#05040B" stroke-width="0.5" stroke-linecap="round"/>
<path d="M17.6826 48.6069C17.6826 49.2509 17.1608 49.7726 16.5169 49.7726C15.8732 49.7726 15.3512 49.2507 15.3512 48.6069V46.7192C15.3512 46.0752 15.8732 45.5535 16.5169 45.5535C17.1606 45.5535 17.6826 46.0752 17.6826 46.7192V48.6069Z" fill="#05C2DF" stroke="#05040B" stroke-width="0.5" stroke-linecap="round"/>
<path d="M23.3457 48.6069C23.3457 49.2509 22.8238 49.7726 22.18 49.7726C21.5361 49.7726 21.0143 49.2507 21.0143 48.6069V46.7192C21.0143 46.0752 21.5363 45.5535 22.18 45.5535C22.8237 45.5535 23.3457 46.0752 23.3457 46.7192V48.6069Z" fill="#05C2DF" stroke="#05040B" stroke-width="0.5" stroke-linecap="round"/>
<path d="M29.0084 48.6069C29.0084 49.2509 28.4866 49.7726 27.8427 49.7726C27.1988 49.7726 26.677 49.2507 26.677 48.6069V46.7192C26.677 46.0752 27.199 45.5535 27.8427 45.5535C28.4864 45.5535 29.0084 46.0752 29.0084 46.7192V48.6069Z" fill="#05C2DF" stroke="#05040B" stroke-width="0.5" stroke-linecap="round"/>
<path d="M17.6826 58.0451C17.6826 58.6891 17.1608 59.2108 16.5169 59.2108C15.8732 59.2108 15.3512 58.6891 15.3512 58.0451V56.1574C15.3512 55.5134 15.8732 54.9917 16.5169 54.9917C17.1606 54.9917 17.6826 55.5134 17.6826 56.1574V58.0451Z" fill="#05C2DF" stroke="#05040B" stroke-width="0.5" stroke-linecap="round"/>
<path d="M23.3457 58.0451C23.3457 58.6891 22.8238 59.2108 22.18 59.2108C21.5361 59.2108 21.0143 58.6891 21.0143 58.0451V56.1574C21.0143 55.5134 21.5363 54.9917 22.18 54.9917C22.8237 54.9917 23.3457 55.5134 23.3457 56.1574V58.0451Z" fill="#05C2DF" stroke="#05040B" stroke-width="0.5" stroke-linecap="round"/>
<path d="M29.0084 58.0451C29.0084 58.6891 28.4866 59.2108 27.8427 59.2108C27.1988 59.2108 26.677 58.6891 26.677 58.0451V56.1574C26.677 55.5134 27.199 54.9917 27.8427 54.9917C28.4864 54.9917 29.0084 55.5134 29.0084 56.1574V58.0451Z" fill="#05C2DF" stroke="#05040B" stroke-width="0.5" stroke-linecap="round"/>
<path d="M17.6826 67.4831C17.6826 68.1271 17.1608 68.6488 16.5169 68.6488C15.8732 68.6488 15.3512 68.1271 15.3512 67.4831V65.5954C15.3512 64.9514 15.8732 64.4297 16.5169 64.4297C17.1606 64.4297 17.6826 64.9514 17.6826 65.5954V67.4831Z" fill="#05C2DF" stroke="#05040B" stroke-width="0.5" stroke-linecap="round"/>
<path d="M23.3457 67.4831C23.3457 68.1271 22.8238 68.6488 22.18 68.6488C21.5361 68.6488 21.0143 68.1271 21.0143 67.4831V65.5954C21.0143 64.9514 21.5363 64.4297 22.18 64.4297C22.8237 64.4297 23.3457 64.9514 23.3457 65.5954V67.4831Z" fill="#05C2DF" stroke="#05040B" stroke-width="0.5" stroke-linecap="round"/>
<path d="M29.0084 67.4831C29.0084 68.1271 28.4866 68.6488 27.8427 68.6488C27.1988 68.6488 26.677 68.1271 26.677 67.4831V65.5954C26.677 64.9514 27.199 64.4297 27.8427 64.4297C28.4864 64.4297 29.0084 64.9514 29.0084 65.5954V67.4831Z" fill="#05C2DF" stroke="#05040B" stroke-width="0.5" stroke-linecap="round"/>
<path d="M68.6493 44.8315C68.6493 45.4755 68.1274 45.9972 67.4836 45.9972C66.8397 45.9972 66.3179 45.4753 66.3179 44.8315V42.9438C66.3179 42.2998 66.8398 41.7781 67.4836 41.7781C68.1273 41.7781 68.6493 42.2998 68.6493 42.9438V44.8315Z" fill="#05C2DF" stroke="#05040B" stroke-width="0.5" stroke-linecap="round"/>
<path d="M68.6493 54.2697C68.6493 54.9137 68.1274 55.4354 67.4836 55.4354C66.8397 55.4354 66.3179 54.9135 66.3179 54.2697V52.382C66.3179 51.738 66.8398 51.2163 67.4836 51.2163C68.1273 51.2163 68.6493 51.738 68.6493 52.382V54.2697Z" fill="#05C2DF" stroke="#05040B" stroke-width="0.5" stroke-linecap="round"/>
<path d="M68.6493 63.7079C68.6493 64.3519 68.1274 64.8736 67.4836 64.8736C66.8397 64.8736 66.3179 64.3518 66.3179 63.7079V61.8202C66.3179 61.1763 66.8398 60.6545 67.4836 60.6545C68.1273 60.6545 68.6493 61.1763 68.6493 61.8202V63.7079Z" fill="#05C2DF" stroke="#05040B" stroke-width="0.5" stroke-linecap="round"/>
<path d="M68.6493 73.1462C68.6493 73.7902 68.1274 74.3119 67.4836 74.3119C66.8397 74.3119 66.3179 73.79 66.3179 73.1462V71.2585C66.3179 70.6145 66.8398 70.0928 67.4836 70.0928C68.1273 70.0928 68.6493 70.6145 68.6493 71.2585V73.1462Z" fill="#05C2DF" stroke="#05040B" stroke-width="0.5" stroke-linecap="round"/>
<path d="M41.3259 20H30" stroke="#05C2DF" stroke-linecap="round"/>
<path fill-rule="evenodd" clip-rule="evenodd" d="M56 42C55.4477 42 55 42.4477 55 43V44H57V43C57 42.4477 56.5523 42 56 42Z" fill="#05C2DF"/>
<path fill-rule="evenodd" clip-rule="evenodd" d="M62 42C61.4477 42 61 42.4477 61 43V44H63V43C63 42.4477 62.5523 42 62 42Z" fill="#05C2DF"/>
</g>
<defs>
<clipPath id="clip0_3495_3073">
<rect width="84" height="84" fill="white"/>
</clipPath>
</defs>
</svg>
