<svg width="70" height="82" viewBox="0 0 70 82" fill="none" xmlns="http://www.w3.org/2000/svg">
<path d="M68.8477 7.07864V80.6686H66.5161H56.1341H53.3027H29.7072H26.8757H20.2689H17.4375H16.9936V78.8091C16.9936 77.7507 16.1358 76.8934 15.0779 76.8934C14.0201 76.8934 13.1622 77.7507 13.1622 78.8091V80.6686H12.7184H9.887H3.2802L1.58941 80.6685L0.948975 80.6685V27.8426C0.948975 27.3366 1.35885 26.9269 1.86467 26.9269H13.6624H14.1624V26.4269V14.6291C14.1624 14.1232 14.5723 13.7134 15.0781 13.7134H19.3254H19.8254V13.2134V7.07864C19.8254 6.57273 20.2352 6.16294 20.741 6.16294H26.8758H27.3758V5.66294V1.4157C27.3758 0.909827 27.7858 0.5 28.2915 0.5C28.7972 0.5 29.2072 0.909828 29.2072 1.4157V5.66294V6.16294H29.7072H35.8422C36.3479 6.16294 36.7579 6.57277 36.7579 7.07864V13.2134V13.7134H37.2579H40.0893H40.5893V13.2134V7.07864C40.5893 6.57273 40.9991 6.16294 41.505 6.16294H67.932C68.4377 6.16294 68.8477 6.57277 68.8477 7.07864Z" stroke="#05C2DF" stroke-linecap="round"/>
<path d="M35.6228 77.5V51.0731" stroke="#05C2DF" stroke-linecap="round"/>
<path d="M41.6228 77.4269V51" stroke="#05C2DF" stroke-linecap="round"/>
<path d="M47.6228 77.4269V51" stroke="#05C2DF" stroke-linecap="round"/>
<path d="M49.9457 16.5169C49.9457 17.1609 49.4238 17.6826 48.78 17.6826C48.1361 17.6826 47.6143 17.1608 47.6143 16.517V14.6293C47.6143 13.9853 48.1362 13.4636 48.78 13.4636C49.4237 13.4636 49.9457 13.9853 49.9457 14.6293V16.5169Z" fill="#05C2DF" stroke="#05040B" stroke-width="0.5" stroke-linecap="round"/>
<path d="M55.609 16.5169C55.609 17.1609 55.0871 17.6826 54.4433 17.6826C53.7994 17.6826 53.2776 17.1608 53.2776 16.517V14.6293C53.2776 13.9853 53.7996 13.4636 54.4433 13.4636C55.087 13.4636 55.609 13.9853 55.609 14.6293V16.5169Z" fill="#05C2DF" stroke="#05040B" stroke-width="0.5" stroke-linecap="round"/>
<path d="M61.2721 16.5169C61.2721 17.1609 60.7502 17.6826 60.1064 17.6826C59.4625 17.6826 58.9407 17.1608 58.9407 16.517V14.6293C58.9407 13.9853 59.4626 13.4636 60.1064 13.4636C60.7501 13.4636 61.2721 13.9853 61.2721 14.6293V16.5169Z" fill="#05C2DF" stroke="#05040B" stroke-width="0.5" stroke-linecap="round"/>
<path d="M49.9457 25.955C49.9457 26.599 49.4238 27.1207 48.78 27.1207C48.1361 27.1207 47.6143 26.599 47.6143 25.955V24.0673C47.6143 23.4233 48.1362 22.9016 48.78 22.9016C49.4237 22.9016 49.9457 23.4233 49.9457 24.0673V25.955Z" fill="#05C2DF" stroke="#05040B" stroke-width="0.5" stroke-linecap="round"/>
<path d="M55.609 25.955C55.609 26.599 55.0871 27.1207 54.4433 27.1207C53.7994 27.1207 53.2776 26.599 53.2776 25.955V24.0673C53.2776 23.4233 53.7996 22.9016 54.4433 22.9016C55.087 22.9016 55.609 23.4233 55.609 24.0673V25.955Z" fill="#05C2DF" stroke="#05040B" stroke-width="0.5" stroke-linecap="round"/>
<path d="M61.2721 25.955C61.2721 26.599 60.7502 27.1207 60.1064 27.1207C59.4625 27.1207 58.9407 26.599 58.9407 25.955V24.0673C58.9407 23.4233 59.4626 22.9016 60.1064 22.9016C60.7501 22.9016 61.2721 23.4233 61.2721 24.0673V25.955Z" fill="#05C2DF" stroke="#05040B" stroke-width="0.5" stroke-linecap="round"/>
<path d="M49.9457 35.3934C49.9457 36.0374 49.4238 36.5591 48.78 36.5591C48.1361 36.5591 47.6143 36.0372 47.6143 35.3934V33.5057C47.6143 32.8617 48.1362 32.34 48.78 32.34C49.4237 32.34 49.9457 32.8617 49.9457 33.5057V35.3934Z" fill="#05C2DF" stroke="#05040B" stroke-width="0.5" stroke-linecap="round"/>
<path d="M55.609 35.3934C55.609 36.0374 55.0871 36.5591 54.4433 36.5591C53.7994 36.5591 53.2776 36.0372 53.2776 35.3934V33.5057C53.2776 32.8617 53.7996 32.34 54.4433 32.34C55.087 32.34 55.609 32.8617 55.609 33.5057V35.3934Z" fill="#05C2DF" stroke="#05040B" stroke-width="0.5" stroke-linecap="round"/>
<path d="M61.2721 35.3934C61.2721 36.0374 60.7502 36.5591 60.1064 36.5591C59.4625 36.5591 58.9407 36.0372 58.9407 35.3934V33.5057C58.9407 32.8617 59.4626 32.34 60.1064 32.34C60.7501 32.34 61.2721 32.8617 61.2721 33.5057V35.3934Z" fill="#05C2DF" stroke="#05040B" stroke-width="0.5" stroke-linecap="round"/>
<path d="M10.3054 39.1686C10.3054 39.8126 9.78357 40.3343 9.1397 40.3343C8.49599 40.3343 7.974 39.8125 7.974 39.1686V37.2809C7.974 36.637 8.49597 36.1152 9.1397 36.1152C9.78342 36.1152 10.3054 36.637 10.3054 37.2809V39.1686Z" fill="#05C2DF" stroke="#05040B" stroke-width="0.5" stroke-linecap="round"/>
<path d="M15.9685 39.1686C15.9685 39.8126 15.4466 40.3343 14.8028 40.3343C14.1589 40.3343 13.6371 39.8125 13.6371 39.1686V37.2809C13.6371 36.637 14.1591 36.1152 14.8028 36.1152C15.4465 36.1152 15.9685 36.637 15.9685 37.2809V39.1686Z" fill="#05C2DF" stroke="#05040B" stroke-width="0.5" stroke-linecap="round"/>
<path d="M21.6312 39.1686C21.6312 39.8126 21.1094 40.3343 20.4655 40.3343C19.8216 40.3343 19.2998 39.8125 19.2998 39.1686V37.2809C19.2998 36.637 19.8218 36.1152 20.4655 36.1152C21.1092 36.1152 21.6312 36.637 21.6312 37.2809V39.1686Z" fill="#05C2DF" stroke="#05040B" stroke-width="0.5" stroke-linecap="round"/>
<path d="M10.3054 48.6067C10.3054 49.2507 9.78357 49.7724 9.1397 49.7724C8.49599 49.7724 7.974 49.2506 7.974 48.6067V46.719C7.974 46.0751 8.49597 45.5533 9.1397 45.5533C9.78342 45.5533 10.3054 46.0751 10.3054 46.719V48.6067Z" fill="#05C2DF" stroke="#05040B" stroke-width="0.5" stroke-linecap="round"/>
<path d="M15.9685 48.6067C15.9685 49.2507 15.4467 49.7724 14.8028 49.7724C14.1589 49.7724 13.6371 49.2506 13.6371 48.6067V46.719C13.6371 46.0751 14.1591 45.5533 14.8028 45.5533C15.4465 45.5533 15.9685 46.0751 15.9685 46.719V48.6067Z" fill="#05C2DF" stroke="#05040B" stroke-width="0.5" stroke-linecap="round"/>
<path d="M21.6312 48.6067C21.6312 49.2507 21.1094 49.7724 20.4655 49.7724C19.8216 49.7724 19.2998 49.2506 19.2998 48.6067V46.719C19.2998 46.0751 19.8218 45.5533 20.4655 45.5533C21.1092 45.5533 21.6312 46.0751 21.6312 46.719V48.6067Z" fill="#05C2DF" stroke="#05040B" stroke-width="0.5" stroke-linecap="round"/>
<path d="M10.3054 58.045C10.3054 58.689 9.78357 59.2107 9.1397 59.2107C8.49597 59.2107 7.974 58.689 7.974 58.045V56.1573C7.974 55.5133 8.49597 54.9916 9.1397 54.9916C9.78342 54.9916 10.3054 55.5133 10.3054 56.1573V58.045Z" fill="#05C2DF" stroke="#05040B" stroke-width="0.5" stroke-linecap="round"/>
<path d="M15.9685 58.045C15.9685 58.689 15.4466 59.2107 14.8028 59.2107C14.1589 59.2107 13.6371 58.689 13.6371 58.045V56.1573C13.6371 55.5133 14.1591 54.9916 14.8028 54.9916C15.4465 54.9916 15.9685 55.5133 15.9685 56.1573V58.045Z" fill="#05C2DF" stroke="#05040B" stroke-width="0.5" stroke-linecap="round"/>
<path d="M21.6312 58.045C21.6312 58.689 21.1094 59.2107 20.4655 59.2107C19.8216 59.2107 19.2998 58.689 19.2998 58.045V56.1573C19.2998 55.5133 19.8218 54.9916 20.4655 54.9916C21.1092 54.9916 21.6312 55.5133 21.6312 56.1573V58.045Z" fill="#05C2DF" stroke="#05040B" stroke-width="0.5" stroke-linecap="round"/>
<path d="M10.3054 67.4831C10.3054 68.1271 9.78357 68.6488 9.1397 68.6488C8.49597 68.6488 7.974 68.1271 7.974 67.4831V65.5954C7.974 64.9514 8.49597 64.4297 9.1397 64.4297C9.78342 64.4297 10.3054 64.9514 10.3054 65.5954V67.4831Z" fill="#05C2DF" stroke="#05040B" stroke-width="0.5" stroke-linecap="round"/>
<path d="M15.9685 67.4831C15.9685 68.1271 15.4466 68.6488 14.8028 68.6488C14.1589 68.6488 13.6371 68.1271 13.6371 67.4831V65.5954C13.6371 64.9514 14.1591 64.4297 14.8028 64.4297C15.4465 64.4297 15.9685 64.9514 15.9685 65.5954V67.4831Z" fill="#05C2DF" stroke="#05040B" stroke-width="0.5" stroke-linecap="round"/>
<path d="M21.6312 67.4831C21.6312 68.1271 21.1094 68.6488 20.4655 68.6488C19.8216 68.6488 19.2998 68.1271 19.2998 67.4831V65.5954C19.2998 64.9514 19.8218 64.4297 20.4655 64.4297C21.1092 64.4297 21.6312 64.9514 21.6312 65.5954V67.4831Z" fill="#05C2DF" stroke="#05040B" stroke-width="0.5" stroke-linecap="round"/>
<path d="M61.2721 44.8315C61.2721 45.4755 60.7502 45.9972 60.1064 45.9972C59.4625 45.9972 58.9407 45.4753 58.9407 44.8315V42.9438C58.9407 42.2998 59.4626 41.7781 60.1064 41.7781C60.7501 41.7781 61.2721 42.2998 61.2721 42.9438V44.8315Z" fill="#05C2DF" stroke="#05040B" stroke-width="0.5" stroke-linecap="round"/>
<path d="M61.2721 54.2697C61.2721 54.9137 60.7502 55.4354 60.1064 55.4354C59.4625 55.4354 58.9407 54.9135 58.9407 54.2697V52.382C58.9407 51.738 59.4626 51.2163 60.1064 51.2163C60.7501 51.2163 61.2721 51.738 61.2721 52.382V54.2697Z" fill="#05C2DF" stroke="#05040B" stroke-width="0.5" stroke-linecap="round"/>
<path d="M61.2721 63.7079C61.2721 64.3519 60.7502 64.8736 60.1064 64.8736C59.4625 64.8736 58.9407 64.3518 58.9407 63.7079V61.8202C58.9407 61.1763 59.4626 60.6545 60.1064 60.6545C60.7501 60.6545 61.2721 61.1763 61.2721 61.8202V63.7079Z" fill="#05C2DF" stroke="#05040B" stroke-width="0.5" stroke-linecap="round"/>
<path d="M61.2721 73.146C61.2721 73.79 60.7502 74.3117 60.1064 74.3117C59.4625 74.3117 58.9407 73.7899 58.9407 73.146V71.2583C58.9407 70.6144 59.4626 70.0927 60.1064 70.0927C60.7501 70.0927 61.2721 70.6144 61.2721 71.2583V73.146Z" fill="#05C2DF" stroke="#05040B" stroke-width="0.5" stroke-linecap="round"/>
<path d="M33.9487 20H22.6228" stroke="#05C2DF" stroke-linecap="round"/>
</svg>
