<svg width="86" height="84" viewBox="0 0 86 84" fill="none" xmlns="http://www.w3.org/2000/svg">
<g clip-path="url(#clip0)">
<path d="M77.8392 7.07867V80.6686H75.4577H64.8924H62.0111H37.9992H35.1177H28.3943H25.5129H25.0524V78.8091C25.0524 77.7426 24.1751 76.8934 23.1117 76.8934C22.0484 76.8934 21.1711 77.7426 21.1711 78.8091V80.6686H20.7105H17.8292H11.1058L9.38517 80.6685L8.72461 80.6685V27.8426C8.72461 27.3449 9.13739 26.9269 9.66529 26.9269H21.6712H22.1712V26.4269V14.6292C22.1712 14.1315 22.584 13.7135 23.1119 13.7135H27.4341H27.9341V13.2135V7.07867C27.9341 6.58097 28.3469 6.16298 28.8748 6.16298H35.1178H35.6178V5.66298V1.41573C35.6178 0.918067 36.0307 0.500031 36.5585 0.500031C37.0863 0.500031 37.4992 0.918068 37.4992 1.41573V5.66298V6.16298H37.9992H44.2424C44.7702 6.16298 45.1831 6.58101 45.1831 7.07867V13.2135V13.7135H45.6831H48.5644H49.0644V13.2135V7.07867C49.0644 6.58097 49.4772 6.16298 50.0051 6.16298H76.8985C77.4263 6.16298 77.8392 6.58101 77.8392 7.07867Z" stroke="#05C2DF" stroke-linecap="round"/>
<path d="M44.0195 77.5V51.0732" stroke="#05C2DF" stroke-linecap="round"/>
<path d="M50.125 77.4269V51" stroke="#05C2DF" stroke-linecap="round"/>
<path d="M56.2305 77.4269V51" stroke="#05C2DF" stroke-linecap="round"/>
<path d="M58.6001 16.5169C58.6001 17.1567 58.0712 17.6826 57.4094 17.6826C56.7476 17.6826 56.2188 17.1567 56.2188 16.517V14.6293C56.2188 13.9894 56.7478 13.4636 57.4094 13.4636C58.0711 13.4636 58.6001 13.9894 58.6001 14.6293V16.5169Z" fill="#05C2DF" stroke="#05040B" stroke-width="0.5" stroke-linecap="round"/>
<path d="M64.3618 16.5169C64.3618 17.1567 63.833 17.6826 63.1711 17.6826C62.5093 17.6826 61.9805 17.1567 61.9805 16.517V14.6293C61.9805 13.9894 62.5095 13.4636 63.1711 13.4636C63.8328 13.4636 64.3618 13.9894 64.3618 14.6293V16.5169Z" fill="#05C2DF" stroke="#05040B" stroke-width="0.5" stroke-linecap="round"/>
<path d="M70.1255 16.5169C70.1255 17.1567 69.5966 17.6826 68.9348 17.6826C68.273 17.6826 67.7441 17.1567 67.7441 16.517V14.6293C67.7441 13.9894 68.2732 13.4636 68.9348 13.4636C69.5965 13.4636 70.1255 13.9894 70.1255 14.6293V16.5169Z" fill="#05C2DF" stroke="#05040B" stroke-width="0.5" stroke-linecap="round"/>
<path d="M58.6001 25.955C58.6001 26.5949 58.0712 27.1207 57.4094 27.1207C56.7476 27.1207 56.2188 26.5949 56.2188 25.955V24.0673C56.2188 23.4274 56.7478 22.9016 57.4094 22.9016C58.0711 22.9016 58.6001 23.4274 58.6001 24.0673V25.955Z" fill="#05C2DF" stroke="#05040B" stroke-width="0.5" stroke-linecap="round"/>
<path d="M64.3618 25.955C64.3618 26.5949 63.833 27.1207 63.1711 27.1207C62.5093 27.1207 61.9805 26.5949 61.9805 25.955V24.0673C61.9805 23.4274 62.5095 22.9016 63.1711 22.9016C63.8328 22.9016 64.3618 23.4274 64.3618 24.0673V25.955Z" fill="#05C2DF" stroke="#05040B" stroke-width="0.5" stroke-linecap="round"/>
<path d="M70.1255 25.955C70.1255 26.5949 69.5966 27.1207 68.9348 27.1207C68.273 27.1207 67.7441 26.5949 67.7441 25.955V24.0673C67.7441 23.4274 68.2732 22.9016 68.9348 22.9016C69.5965 22.9016 70.1255 23.4274 70.1255 24.0673V25.955Z" fill="#05C2DF" stroke="#05040B" stroke-width="0.5" stroke-linecap="round"/>
<path d="M58.6001 35.3934C58.6001 36.0333 58.0712 36.5591 57.4094 36.5591C56.7476 36.5591 56.2188 36.0331 56.2188 35.3934V33.5057C56.2188 32.8658 56.7478 32.34 57.4094 32.34C58.0711 32.34 58.6001 32.8658 58.6001 33.5057V35.3934Z" fill="#05C2DF" stroke="#05040B" stroke-width="0.5" stroke-linecap="round"/>
<path d="M64.3618 35.3934C64.3618 36.0333 63.833 36.5591 63.1711 36.5591C62.5094 36.5591 61.9805 36.0331 61.9805 35.3934V33.5057C61.9805 32.8658 62.5095 32.34 63.1711 32.34C63.8328 32.34 64.3618 32.8658 64.3618 33.5057V35.3934Z" fill="#05C2DF" stroke="#05040B" stroke-width="0.5" stroke-linecap="round"/>
<path d="M70.1255 35.3934C70.1255 36.0333 69.5966 36.5591 68.9348 36.5591C68.273 36.5591 67.7441 36.0331 67.7441 35.3934V33.5057C67.7441 32.8658 68.2732 32.34 68.9348 32.34C69.5965 32.34 70.1255 32.8658 70.1255 33.5057V35.3934Z" fill="#05C2DF" stroke="#05040B" stroke-width="0.5" stroke-linecap="round"/>
<path d="M18.2603 39.1686C18.2603 39.8085 17.7314 40.3343 17.0696 40.3343C16.4079 40.3343 15.8789 39.8083 15.8789 39.1686V37.2809C15.8789 36.641 16.4079 36.1152 17.0696 36.1152C17.7312 36.1152 18.2603 36.641 18.2603 37.2809V39.1686Z" fill="#05C2DF" stroke="#05040B" stroke-width="0.5" stroke-linecap="round"/>
<path d="M24.022 39.1686C24.022 39.8085 23.4931 40.3343 22.8313 40.3343C22.1695 40.3343 21.6406 39.8084 21.6406 39.1686V37.2809C21.6406 36.641 22.1696 36.1152 22.8313 36.1152C23.493 36.1152 24.022 36.641 24.022 37.2809V39.1686Z" fill="#05C2DF" stroke="#05040B" stroke-width="0.5" stroke-linecap="round"/>
<path d="M29.7857 39.1686C29.7857 39.8085 29.2568 40.3343 28.595 40.3343C27.9332 40.3343 27.4043 39.8084 27.4043 39.1686V37.2809C27.4043 36.641 27.9333 36.1152 28.595 36.1152C29.2566 36.1152 29.7857 36.641 29.7857 37.2809V39.1686Z" fill="#05C2DF" stroke="#05040B" stroke-width="0.5" stroke-linecap="round"/>
<path d="M18.2603 48.6068C18.2603 49.2467 17.7314 49.7725 17.0696 49.7725C16.4079 49.7725 15.8789 49.2465 15.8789 48.6068V46.7191C15.8789 46.0792 16.4079 45.5534 17.0696 45.5534C17.7312 45.5534 18.2603 46.0792 18.2603 46.7191V48.6068Z" fill="#05C2DF" stroke="#05040B" stroke-width="0.5" stroke-linecap="round"/>
<path d="M24.022 48.6068C24.022 49.2467 23.4931 49.7725 22.8313 49.7725C22.1695 49.7725 21.6406 49.2465 21.6406 48.6068V46.7191C21.6406 46.0792 22.1696 45.5534 22.8313 45.5534C23.493 45.5534 24.022 46.0792 24.022 46.7191V48.6068Z" fill="#05C2DF" stroke="#05040B" stroke-width="0.5" stroke-linecap="round"/>
<path d="M29.7857 48.6068C29.7857 49.2467 29.2568 49.7725 28.595 49.7725C27.9332 49.7725 27.4043 49.2465 27.4043 48.6068V46.7191C27.4043 46.0792 27.9333 45.5534 28.595 45.5534C29.2566 45.5534 29.7857 46.0792 29.7857 46.7191V48.6068Z" fill="#05C2DF" stroke="#05040B" stroke-width="0.5" stroke-linecap="round"/>
<path d="M18.2603 58.045C18.2603 58.6849 17.7314 59.2107 17.0696 59.2107C16.4079 59.2107 15.8789 58.6849 15.8789 58.045V56.1573C15.8789 55.5174 16.4079 54.9916 17.0696 54.9916C17.7312 54.9916 18.2603 55.5174 18.2603 56.1573V58.045Z" fill="#05C2DF" stroke="#05040B" stroke-width="0.5" stroke-linecap="round"/>
<path d="M24.022 58.045C24.022 58.6849 23.4931 59.2107 22.8313 59.2107C22.1695 59.2107 21.6406 58.6849 21.6406 58.045V56.1573C21.6406 55.5174 22.1696 54.9916 22.8313 54.9916C23.493 54.9916 24.022 55.5174 24.022 56.1573V58.045Z" fill="#05C2DF" stroke="#05040B" stroke-width="0.5" stroke-linecap="round"/>
<path d="M29.7857 58.045C29.7857 58.6849 29.2568 59.2107 28.595 59.2107C27.9332 59.2107 27.4043 58.6849 27.4043 58.045V56.1573C27.4043 55.5174 27.9333 54.9916 28.595 54.9916C29.2566 54.9916 29.7857 55.5174 29.7857 56.1573V58.045Z" fill="#05C2DF" stroke="#05040B" stroke-width="0.5" stroke-linecap="round"/>
<path d="M18.2603 67.4832C18.2603 68.123 17.7314 68.6488 17.0696 68.6488C16.4079 68.6488 15.8789 68.123 15.8789 67.4832V65.5954C15.8789 64.9556 16.4079 64.4297 17.0696 64.4297C17.7312 64.4297 18.2603 64.9556 18.2603 65.5954V67.4832Z" fill="#05C2DF" stroke="#05040B" stroke-width="0.5" stroke-linecap="round"/>
<path d="M24.022 67.4832C24.022 68.123 23.4931 68.6488 22.8313 68.6488C22.1695 68.6488 21.6406 68.123 21.6406 67.4832V65.5954C21.6406 64.9556 22.1696 64.4297 22.8313 64.4297C23.493 64.4297 24.022 64.9556 24.022 65.5954V67.4832Z" fill="#05C2DF" stroke="#05040B" stroke-width="0.5" stroke-linecap="round"/>
<path d="M29.7857 67.4832C29.7857 68.123 29.2568 68.6488 28.595 68.6488C27.9332 68.6488 27.4043 68.123 27.4043 67.4832V65.5954C27.4043 64.9556 27.9333 64.4297 28.595 64.4297C29.2566 64.4297 29.7857 64.9556 29.7857 65.5954V67.4832Z" fill="#05C2DF" stroke="#05040B" stroke-width="0.5" stroke-linecap="round"/>
<path d="M70.1255 44.8315C70.1255 45.4714 69.5966 45.9972 68.9348 45.9972C68.273 45.9972 67.7441 45.4713 67.7441 44.8315V42.9438C67.7441 42.304 68.2732 41.7781 68.9348 41.7781C69.5965 41.7781 70.1255 42.304 70.1255 42.9438V44.8315Z" fill="#05C2DF" stroke="#05040B" stroke-width="0.5" stroke-linecap="round"/>
<path d="M70.1255 54.2698C70.1255 54.9097 69.5966 55.4355 68.9348 55.4355C68.273 55.4355 67.7441 54.9095 67.7441 54.2698V52.3821C67.7441 51.7422 68.2732 51.2164 68.9348 51.2164C69.5965 51.2164 70.1255 51.7422 70.1255 52.3821V54.2698Z" fill="#05C2DF" stroke="#05040B" stroke-width="0.5" stroke-linecap="round"/>
<path d="M70.1255 63.7079C70.1255 64.3478 69.5966 64.8736 68.9348 64.8736C68.273 64.8736 67.7441 64.3477 67.7441 63.7079V61.8202C67.7441 61.1804 68.2732 60.6545 68.9348 60.6545C69.5965 60.6545 70.1255 61.1804 70.1255 61.8202V63.7079Z" fill="#05C2DF" stroke="#05040B" stroke-width="0.5" stroke-linecap="round"/>
<path d="M70.1255 73.1461C70.1255 73.786 69.5966 74.3118 68.9348 74.3118C68.273 74.3118 67.7441 73.7859 67.7441 73.1461V71.2584C67.7441 70.6185 68.2732 70.0927 68.9348 70.0927C69.5965 70.0927 70.1255 70.6185 70.1255 71.2584V73.1461Z" fill="#05C2DF" stroke="#05040B" stroke-width="0.5" stroke-linecap="round"/>
<path d="M42.3148 20H30.7891" stroke="#05C2DF" stroke-linecap="round"/>
<path fill-rule="evenodd" clip-rule="evenodd" d="M57.2305 42C56.6782 42 56.2305 42.4477 56.2305 43V44H58.2658V43C58.2658 42.4477 57.818 42 57.2658 42H57.2305Z" fill="#05C2DF"/>
<path fill-rule="evenodd" clip-rule="evenodd" d="M63.3359 42C62.7837 42 62.3359 42.4477 62.3359 43V44H64.3712V43C64.3712 42.4477 63.9235 42 63.3712 42H63.3359Z" fill="#05C2DF"/>
</g>
<defs>
<clipPath id="clip0">
<rect width="85.4824" height="84" fill="white" transform="translate(0.259766)"/>
</clipPath>
</defs>
</svg>
