<svg width="84" height="84" viewBox="0 0 84 84" fill="none" xmlns="http://www.w3.org/2000/svg">
<g clip-path="url(#clip0)">
<path d="M76.2249 7.07867V80.6686H73.8933H63.5113H60.6799H37.0844H34.2529H27.6461H24.8147H24.3708V78.8091C24.3708 77.7508 23.513 76.8934 22.4551 76.8934C21.3973 76.8934 20.5394 77.7508 20.5394 78.8091V80.6686H20.0956H17.2642H10.6574L8.96661 80.6685L8.32617 80.6685V27.8426C8.32617 27.3367 8.73605 26.9269 9.24187 26.9269H21.0396H21.5396V26.4269V14.6292C21.5396 14.1232 21.9495 13.7135 22.4553 13.7135H26.7025H27.2025V13.2135V7.07867C27.2025 6.57276 27.6124 6.16298 28.1182 6.16298H34.253H34.753V5.66298V1.41573C34.753 0.909858 35.163 0.500031 35.6687 0.500031C36.1744 0.500031 36.5844 0.909859 36.5844 1.41573V5.66298V6.16298H37.0844H43.2194C43.7251 6.16298 44.1351 6.5728 44.1351 7.07867V13.2135V13.7135H44.6351H47.4665H47.9665V13.2135V7.07867C47.9665 6.57276 48.3763 6.16298 48.8822 6.16298H75.3092C75.8149 6.16298 76.2249 6.5728 76.2249 7.07867Z" stroke="#05C2DF" stroke-linecap="round"/>
<path d="M43 77.5V51.0732" stroke="#05C2DF" stroke-linecap="round"/>
<path d="M49 77.4269V51" stroke="#05C2DF" stroke-linecap="round"/>
<path d="M55 77.4269V51" stroke="#05C2DF" stroke-linecap="round"/>
<path d="M57.3236 16.5169C57.3236 17.1609 56.8018 17.6826 56.1579 17.6826C55.514 17.6826 54.9922 17.1608 54.9922 16.517V14.6293C54.9922 13.9853 55.5142 13.4636 56.1579 13.4636C56.8016 13.4636 57.3236 13.9853 57.3236 14.6293V16.5169Z" fill="#05C2DF" stroke="#05040B" stroke-width="0.5" stroke-linecap="round"/>
<path d="M62.9857 16.5169C62.9857 17.1609 62.4639 17.6826 61.82 17.6826C61.1761 17.6826 60.6543 17.1608 60.6543 16.517V14.6293C60.6543 13.9853 61.1763 13.4636 61.82 13.4636C62.4637 13.4636 62.9857 13.9853 62.9857 14.6293V16.5169Z" fill="#05C2DF" stroke="#05040B" stroke-width="0.5" stroke-linecap="round"/>
<path d="M68.6498 16.5169C68.6498 17.1609 68.1279 17.6826 67.4841 17.6826C66.8402 17.6826 66.3184 17.1608 66.3184 16.517V14.6293C66.3184 13.9853 66.8403 13.4636 67.4841 13.4636C68.1278 13.4636 68.6498 13.9853 68.6498 14.6293V16.5169Z" fill="#05C2DF" stroke="#05040B" stroke-width="0.5" stroke-linecap="round"/>
<path d="M57.3236 25.955C57.3236 26.599 56.8018 27.1207 56.1579 27.1207C55.514 27.1207 54.9922 26.599 54.9922 25.955V24.0673C54.9922 23.4233 55.5142 22.9016 56.1579 22.9016C56.8016 22.9016 57.3236 23.4233 57.3236 24.0673V25.955Z" fill="#05C2DF" stroke="#05040B" stroke-width="0.5" stroke-linecap="round"/>
<path d="M62.9857 25.955C62.9857 26.599 62.4639 27.1207 61.82 27.1207C61.1761 27.1207 60.6543 26.599 60.6543 25.955V24.0673C60.6543 23.4233 61.1763 22.9016 61.82 22.9016C62.4637 22.9016 62.9857 23.4233 62.9857 24.0673V25.955Z" fill="#05C2DF" stroke="#05040B" stroke-width="0.5" stroke-linecap="round"/>
<path d="M68.6498 25.955C68.6498 26.599 68.1279 27.1207 67.4841 27.1207C66.8402 27.1207 66.3184 26.599 66.3184 25.955V24.0673C66.3184 23.4233 66.8403 22.9016 67.4841 22.9016C68.1278 22.9016 68.6498 23.4233 68.6498 24.0673V25.955Z" fill="#05C2DF" stroke="#05040B" stroke-width="0.5" stroke-linecap="round"/>
<path d="M57.3236 35.3934C57.3236 36.0374 56.8018 36.5591 56.1579 36.5591C55.514 36.5591 54.9922 36.0372 54.9922 35.3934V33.5057C54.9922 32.8617 55.5142 32.34 56.1579 32.34C56.8016 32.34 57.3236 32.8617 57.3236 33.5057V35.3934Z" fill="#05C2DF" stroke="#05040B" stroke-width="0.5" stroke-linecap="round"/>
<path d="M62.9857 35.3934C62.9857 36.0374 62.4639 36.5591 61.82 36.5591C61.1761 36.5591 60.6543 36.0372 60.6543 35.3934V33.5057C60.6543 32.8617 61.1763 32.34 61.82 32.34C62.4637 32.34 62.9857 32.8617 62.9857 33.5057V35.3934Z" fill="#05C2DF" stroke="#05040B" stroke-width="0.5" stroke-linecap="round"/>
<path d="M68.6498 35.3934C68.6498 36.0374 68.1279 36.5591 67.4841 36.5591C66.8402 36.5591 66.3184 36.0372 66.3184 35.3934V33.5057C66.3184 32.8617 66.8403 32.34 67.4841 32.34C68.1278 32.34 68.6498 32.8617 68.6498 33.5057V35.3934Z" fill="#05C2DF" stroke="#05040B" stroke-width="0.5" stroke-linecap="round"/>
<path d="M17.683 39.1686C17.683 39.8126 17.1611 40.3343 16.5173 40.3343C15.8736 40.3343 15.3516 39.8125 15.3516 39.1686V37.2809C15.3516 36.637 15.8735 36.1152 16.5173 36.1152C17.161 36.1152 17.683 36.637 17.683 37.2809V39.1686Z" fill="#05C2DF" stroke="#05040B" stroke-width="0.5" stroke-linecap="round"/>
<path d="M23.3451 39.1686C23.3451 39.8126 22.8232 40.3343 22.1794 40.3343C21.5355 40.3343 21.0137 39.8125 21.0137 39.1686V37.2809C21.0137 36.637 21.5356 36.1152 22.1794 36.1152C22.8231 36.1152 23.3451 36.637 23.3451 37.2809V39.1686Z" fill="#05C2DF" stroke="#05040B" stroke-width="0.5" stroke-linecap="round"/>
<path d="M29.0091 39.1686C29.0091 39.8126 28.4873 40.3343 27.8434 40.3343C27.1996 40.3343 26.6777 39.8125 26.6777 39.1686V37.2809C26.6777 36.637 27.1997 36.1152 27.8434 36.1152C28.4872 36.1152 29.0091 36.637 29.0091 37.2809V39.1686Z" fill="#05C2DF" stroke="#05040B" stroke-width="0.5" stroke-linecap="round"/>
<path d="M17.683 48.6068C17.683 49.2508 17.1611 49.7725 16.5173 49.7725C15.8736 49.7725 15.3516 49.2506 15.3516 48.6068V46.7191C15.3516 46.0751 15.8735 45.5534 16.5173 45.5534C17.161 45.5534 17.683 46.0751 17.683 46.7191V48.6068Z" fill="#05C2DF" stroke="#05040B" stroke-width="0.5" stroke-linecap="round"/>
<path d="M23.3451 48.6068C23.3451 49.2508 22.8232 49.7725 22.1794 49.7725C21.5355 49.7725 21.0137 49.2507 21.0137 48.6068V46.7191C21.0137 46.0751 21.5356 45.5534 22.1794 45.5534C22.8231 45.5534 23.3451 46.0751 23.3451 46.7191V48.6068Z" fill="#05C2DF" stroke="#05040B" stroke-width="0.5" stroke-linecap="round"/>
<path d="M29.0091 48.6068C29.0091 49.2508 28.4873 49.7725 27.8434 49.7725C27.1996 49.7725 26.6777 49.2507 26.6777 48.6068V46.7191C26.6777 46.0751 27.1997 45.5534 27.8434 45.5534C28.4872 45.5534 29.0091 46.0751 29.0091 46.7191V48.6068Z" fill="#05C2DF" stroke="#05040B" stroke-width="0.5" stroke-linecap="round"/>
<path d="M17.683 58.045C17.683 58.689 17.1611 59.2107 16.5173 59.2107C15.8735 59.2107 15.3516 58.689 15.3516 58.045V56.1573C15.3516 55.5133 15.8735 54.9916 16.5173 54.9916C17.161 54.9916 17.683 55.5133 17.683 56.1573V58.045Z" fill="#05C2DF" stroke="#05040B" stroke-width="0.5" stroke-linecap="round"/>
<path d="M23.3451 58.045C23.3451 58.689 22.8232 59.2107 22.1794 59.2107C21.5355 59.2107 21.0137 58.689 21.0137 58.045V56.1573C21.0137 55.5133 21.5356 54.9916 22.1794 54.9916C22.8231 54.9916 23.3451 55.5133 23.3451 56.1573V58.045Z" fill="#05C2DF" stroke="#05040B" stroke-width="0.5" stroke-linecap="round"/>
<path d="M29.0091 58.045C29.0091 58.689 28.4873 59.2107 27.8434 59.2107C27.1996 59.2107 26.6777 58.689 26.6777 58.045V56.1573C26.6777 55.5133 27.1997 54.9916 27.8434 54.9916C28.4872 54.9916 29.0091 55.5133 29.0091 56.1573V58.045Z" fill="#05C2DF" stroke="#05040B" stroke-width="0.5" stroke-linecap="round"/>
<path d="M17.683 67.4832C17.683 68.1271 17.1611 68.6488 16.5173 68.6488C15.8735 68.6488 15.3516 68.1271 15.3516 67.4832V65.5954C15.3516 64.9515 15.8735 64.4297 16.5173 64.4297C17.161 64.4297 17.683 64.9515 17.683 65.5954V67.4832Z" fill="#05C2DF" stroke="#05040B" stroke-width="0.5" stroke-linecap="round"/>
<path d="M23.3451 67.4832C23.3451 68.1271 22.8232 68.6488 22.1794 68.6488C21.5355 68.6488 21.0137 68.1271 21.0137 67.4832V65.5954C21.0137 64.9515 21.5356 64.4297 22.1794 64.4297C22.8231 64.4297 23.3451 64.9515 23.3451 65.5954V67.4832Z" fill="#05C2DF" stroke="#05040B" stroke-width="0.5" stroke-linecap="round"/>
<path d="M29.0091 67.4832C29.0091 68.1271 28.4873 68.6488 27.8434 68.6488C27.1996 68.6488 26.6777 68.1272 26.6777 67.4832V65.5954C26.6777 64.9515 27.1997 64.4297 27.8434 64.4297C28.4872 64.4297 29.0091 64.9515 29.0091 65.5954V67.4832Z" fill="#05C2DF" stroke="#05040B" stroke-width="0.5" stroke-linecap="round"/>
<path d="M68.6498 44.8315C68.6498 45.4755 68.1279 45.9972 67.4841 45.9972C66.8402 45.9972 66.3184 45.4754 66.3184 44.8315V42.9438C66.3184 42.2999 66.8403 41.7781 67.4841 41.7781C68.1278 41.7781 68.6498 42.2999 68.6498 42.9438V44.8315Z" fill="#05C2DF" stroke="#05040B" stroke-width="0.5" stroke-linecap="round"/>
<path d="M68.6498 54.2698C68.6498 54.9138 68.1279 55.4355 67.4841 55.4355C66.8402 55.4355 66.3184 54.9136 66.3184 54.2698V52.3821C66.3184 51.7381 66.8403 51.2164 67.4841 51.2164C68.1278 51.2164 68.6498 51.7381 68.6498 52.3821V54.2698Z" fill="#05C2DF" stroke="#05040B" stroke-width="0.5" stroke-linecap="round"/>
<path d="M68.6498 63.7079C68.6498 64.3519 68.1279 64.8736 67.4841 64.8736C66.8402 64.8736 66.3184 64.3518 66.3184 63.7079V61.8202C66.3184 61.1763 66.8403 60.6545 67.4841 60.6545C68.1278 60.6545 68.6498 61.1763 68.6498 61.8202V63.7079Z" fill="#05C2DF" stroke="#05040B" stroke-width="0.5" stroke-linecap="round"/>
<path d="M68.6498 73.1461C68.6498 73.7901 68.1279 74.3118 67.4841 74.3118C66.8402 74.3118 66.3184 73.79 66.3184 73.1461V71.2584C66.3184 70.6144 66.8403 70.0927 67.4841 70.0927C68.1278 70.0927 68.6498 70.6144 68.6498 71.2584V73.1461Z" fill="#05C2DF" stroke="#05040B" stroke-width="0.5" stroke-linecap="round"/>
<path d="M41.3259 20H30" stroke="#05C2DF" stroke-linecap="round"/>
<path fill-rule="evenodd" clip-rule="evenodd" d="M56 42C55.4477 42 55 42.4477 55 43V44H57V43C57 42.4477 56.5523 42 56 42Z" fill="#05C2DF"/>
<path fill-rule="evenodd" clip-rule="evenodd" d="M62 42C61.4477 42 61 42.4477 61 43V44H63V43C63 42.4477 62.5523 42 62 42Z" fill="#05C2DF"/>
</g>
<defs>
<clipPath id="clip0">
<rect width="84" height="84" fill="white"/>
</clipPath>
</defs>
</svg>
