<svg width="152" height="152" viewBox="0 0 152 152" fill="none" xmlns="http://www.w3.org/2000/svg">
<g clip-path="url(#clip0)">
<path d="M138.337 12.7454V145.648H133.738H115.045H109.947H67.4621H62.3638H50.4679H45.3699H44.1704V141.899C44.1704 140.215 42.805 138.85 41.1214 138.85C39.4377 138.85 38.0724 140.215 38.0724 141.899V145.648H36.8729H31.7749H19.879L16.8346 145.648L15.2812 145.648V50.1318C15.2812 48.9998 16.1985 48.0828 17.3303 48.0828H38.5726H39.0726V47.5828V26.3404C39.0726 25.2084 39.9899 24.2914 41.1217 24.2914H48.769H49.269V23.7914V12.7454C49.269 11.6134 50.1863 10.6964 51.3181 10.6964H62.364H62.864V10.1964V2.54903C62.864 1.41706 63.7815 0.5 64.9131 0.5C66.0446 0.5 66.9621 1.41706 66.9621 2.54903V10.1964V10.6964H67.4621H78.5084C79.6399 10.6964 80.5574 11.6135 80.5574 12.7454V23.7914V24.2914H81.0574H86.1554H86.6554V23.7914V12.7454C86.6554 11.6134 87.5727 10.6964 88.7045 10.6964H136.288C137.419 10.6964 138.337 11.6135 138.337 12.7454Z" stroke="#05C2DF" stroke-linecap="round"/>
<path d="M78.1113 139.542V91.959" stroke="#05C2DF" stroke-linecap="round"/>
<path d="M88.918 139.411V91.8281" stroke="#05C2DF" stroke-linecap="round"/>
<path d="M99.7188 139.411V91.8281" stroke="#05C2DF" stroke-linecap="round"/>
<path d="M104.102 29.7401C104.102 31.0102 103.073 32.0391 101.803 32.0391C100.533 32.0391 99.5039 31.0102 99.5039 29.7404V26.3415C99.5039 25.0714 100.533 24.0425 101.803 24.0425C103.072 24.0425 104.102 25.0714 104.102 26.3415V29.7401Z" fill="#05C2DF" stroke="#05040B" stroke-width="0.5" stroke-linecap="round"/>
<path d="M114.301 29.7401C114.301 31.0102 113.272 32.0391 112.002 32.0391C110.732 32.0391 109.703 31.0102 109.703 29.7404V26.3415C109.703 25.0714 110.733 24.0425 112.002 24.0425C113.272 24.0425 114.301 25.0714 114.301 26.3415V29.7401Z" fill="#05C2DF" stroke="#05040B" stroke-width="0.5" stroke-linecap="round"/>
<path d="M124.495 29.7401C124.495 31.0102 123.465 32.0391 122.196 32.0391C120.926 32.0391 119.896 31.0102 119.896 29.7404V26.3415C119.896 25.0714 120.926 24.0425 122.196 24.0425C123.465 24.0425 124.495 25.0714 124.495 26.3415V29.7401Z" fill="#05C2DF" stroke="#05040B" stroke-width="0.5" stroke-linecap="round"/>
<path d="M104.102 46.7336C104.102 48.0037 103.073 49.0326 101.803 49.0326C100.533 49.0326 99.5039 48.0037 99.5039 46.7336V43.3347C99.5039 42.0646 100.533 41.0356 101.803 41.0356C103.072 41.0356 104.102 42.0646 104.102 43.3347V46.7336Z" fill="#05C2DF" stroke="#05040B" stroke-width="0.5" stroke-linecap="round"/>
<path d="M114.301 46.7336C114.301 48.0037 113.272 49.0326 112.002 49.0326C110.732 49.0326 109.703 48.0037 109.703 46.7336V43.3347C109.703 42.0646 110.733 41.0356 112.002 41.0356C113.272 41.0356 114.301 42.0646 114.301 43.3347V46.7336Z" fill="#05C2DF" stroke="#05040B" stroke-width="0.5" stroke-linecap="round"/>
<path d="M124.495 46.7336C124.495 48.0037 123.465 49.0326 122.196 49.0326C120.926 49.0326 119.896 48.0037 119.896 46.7336V43.3347C119.896 42.0646 120.926 41.0356 122.196 41.0356C123.465 41.0356 124.495 42.0646 124.495 43.3347V46.7336Z" fill="#05C2DF" stroke="#05040B" stroke-width="0.5" stroke-linecap="round"/>
<path d="M104.102 63.7277C104.102 64.9978 103.073 66.0267 101.803 66.0267C100.533 66.0267 99.5039 64.9975 99.5039 63.7277V60.3288C99.5039 59.0587 100.533 58.0298 101.803 58.0298C103.072 58.0298 104.102 59.0587 104.102 60.3288V63.7277Z" fill="#05C2DF" stroke="#05040B" stroke-width="0.5" stroke-linecap="round"/>
<path d="M114.301 63.7277C114.301 64.9978 113.272 66.0267 112.002 66.0267C110.732 66.0267 109.703 64.9975 109.703 63.7277V60.3288C109.703 59.0587 110.733 58.0298 112.002 58.0298C113.272 58.0298 114.301 59.0587 114.301 60.3288V63.7277Z" fill="#05C2DF" stroke="#05040B" stroke-width="0.5" stroke-linecap="round"/>
<path d="M124.495 63.7277C124.495 64.9978 123.465 66.0267 122.196 66.0267C120.926 66.0267 119.896 64.9975 119.896 63.7277V60.3288C119.896 59.0587 120.926 58.0298 122.196 58.0298C123.465 58.0298 124.495 59.0587 124.495 60.3288V63.7277Z" fill="#05C2DF" stroke="#05040B" stroke-width="0.5" stroke-linecap="round"/>
<path d="M32.727 70.5251C32.727 71.7952 31.6978 72.8241 30.4279 72.8241C29.1584 72.8241 28.1289 71.7949 28.1289 70.5251V67.1262C28.1289 65.8561 29.1584 64.8271 30.4279 64.8271C31.6975 64.8271 32.727 65.8561 32.727 67.1262V70.5251Z" fill="#05C2DF" stroke="#05040B" stroke-width="0.5" stroke-linecap="round"/>
<path d="M42.9242 70.5251C42.9242 71.7952 41.895 72.8241 40.6252 72.8241C39.3554 72.8241 38.3262 71.7949 38.3262 70.5251V67.1262C38.3262 65.8561 39.3556 64.8271 40.6252 64.8271C41.8948 64.8271 42.9242 65.8561 42.9242 67.1262V70.5251Z" fill="#05C2DF" stroke="#05040B" stroke-width="0.5" stroke-linecap="round"/>
<path d="M53.1215 70.5251C53.1215 71.7952 52.0923 72.8241 50.8225 72.8241C49.5526 72.8241 48.5234 71.7949 48.5234 70.5251V67.1262C48.5234 65.8561 49.5529 64.8271 50.8225 64.8271C52.092 64.8271 53.1215 65.8561 53.1215 67.1262V70.5251Z" fill="#05C2DF" stroke="#05040B" stroke-width="0.5" stroke-linecap="round"/>
<path d="M32.727 87.5187C32.727 88.7888 31.6978 89.8177 30.4279 89.8177C29.1584 89.8177 28.1289 88.7885 28.1289 87.5187V84.1198C28.1289 82.8498 29.1584 81.8208 30.4279 81.8208C31.6975 81.8208 32.727 82.8498 32.727 84.1198V87.5187Z" fill="#05C2DF" stroke="#05040B" stroke-width="0.5" stroke-linecap="round"/>
<path d="M42.9242 87.5187C42.9242 88.7888 41.895 89.8177 40.6252 89.8177C39.3554 89.8177 38.3262 88.7885 38.3262 87.5187V84.1198C38.3262 82.8498 39.3556 81.8208 40.6252 81.8208C41.8948 81.8208 42.9242 82.8498 42.9242 84.1198V87.5187Z" fill="#05C2DF" stroke="#05040B" stroke-width="0.5" stroke-linecap="round"/>
<path d="M53.1215 87.5187C53.1215 88.7888 52.0923 89.8177 50.8225 89.8177C49.5526 89.8177 48.5234 88.7885 48.5234 87.5187V84.1198C48.5234 82.8498 49.5529 81.8208 50.8225 81.8208C52.092 81.8208 53.1215 82.8498 53.1215 84.1198V87.5187Z" fill="#05C2DF" stroke="#05040B" stroke-width="0.5" stroke-linecap="round"/>
<path d="M32.727 104.512C32.727 105.782 31.6978 106.811 30.4279 106.811C29.1584 106.811 28.1289 105.782 28.1289 104.512V101.113C28.1289 99.8434 29.1584 98.8145 30.4279 98.8145C31.6975 98.8145 32.727 99.8434 32.727 101.113V104.512Z" fill="#05C2DF" stroke="#05040B" stroke-width="0.5" stroke-linecap="round"/>
<path d="M42.9242 104.512C42.9242 105.782 41.895 106.811 40.6252 106.811C39.3554 106.811 38.3262 105.782 38.3262 104.512V101.113C38.3262 99.8434 39.3556 98.8145 40.6252 98.8145C41.8948 98.8145 42.9242 99.8434 42.9242 101.113V104.512Z" fill="#05C2DF" stroke="#05040B" stroke-width="0.5" stroke-linecap="round"/>
<path d="M53.1215 104.512C53.1215 105.782 52.0923 106.811 50.8225 106.811C49.5526 106.811 48.5234 105.782 48.5234 104.512V101.113C48.5234 99.8434 49.5529 98.8145 50.8225 98.8145C52.092 98.8145 53.1215 99.8434 53.1215 101.113V104.512Z" fill="#05C2DF" stroke="#05040B" stroke-width="0.5" stroke-linecap="round"/>
<path d="M32.727 121.506C32.727 122.776 31.6978 123.805 30.4279 123.805C29.1584 123.805 28.1289 122.776 28.1289 121.506V118.107C28.1289 116.837 29.1584 115.808 30.4279 115.808C31.6975 115.808 32.727 116.837 32.727 118.107V121.506Z" fill="#05C2DF" stroke="#05040B" stroke-width="0.5" stroke-linecap="round"/>
<path d="M42.9242 121.506C42.9242 122.776 41.895 123.805 40.6252 123.805C39.3554 123.805 38.3262 122.776 38.3262 121.506V118.107C38.3262 116.837 39.3556 115.808 40.6252 115.808C41.8948 115.808 42.9242 116.837 42.9242 118.107V121.506Z" fill="#05C2DF" stroke="#05040B" stroke-width="0.5" stroke-linecap="round"/>
<path d="M53.1215 121.506C53.1215 122.776 52.0923 123.805 50.8225 123.805C49.5526 123.805 48.5234 122.776 48.5234 121.506V118.107C48.5234 116.837 49.5529 115.808 50.8225 115.808C52.092 115.808 53.1215 116.837 53.1215 118.107V121.506Z" fill="#05C2DF" stroke="#05040B" stroke-width="0.5" stroke-linecap="round"/>
<path d="M124.495 80.7209C124.495 81.991 123.465 83.0199 122.196 83.0199C120.926 83.0199 119.896 81.9907 119.896 80.7209V77.322C119.896 76.0519 120.926 75.0229 122.196 75.0229C123.465 75.0229 124.495 76.0519 124.495 77.322V80.7209Z" fill="#05C2DF" stroke="#05040B" stroke-width="0.5" stroke-linecap="round"/>
<path d="M124.495 97.715C124.495 98.9851 123.465 100.014 122.196 100.014C120.926 100.014 119.896 98.9848 119.896 97.715V94.3161C119.896 93.046 120.926 92.0171 122.196 92.0171C123.465 92.0171 124.495 93.046 124.495 94.3161V97.715Z" fill="#05C2DF" stroke="#05040B" stroke-width="0.5" stroke-linecap="round"/>
<path d="M124.495 114.71C124.495 115.98 123.465 117.009 122.196 117.009C120.926 117.009 119.896 115.979 119.896 114.71V111.311C119.896 110.041 120.926 109.012 122.196 109.012C123.465 109.012 124.495 110.041 124.495 111.311V114.71Z" fill="#05C2DF" stroke="#05040B" stroke-width="0.5" stroke-linecap="round"/>
<path d="M124.495 131.703C124.495 132.973 123.465 134.002 122.196 134.002C120.926 134.002 119.896 132.973 119.896 131.703V128.304C119.896 127.034 120.926 126.005 122.196 126.005C123.465 126.005 124.495 127.034 124.495 128.304V131.703Z" fill="#05C2DF" stroke="#05040B" stroke-width="0.5" stroke-linecap="round"/>
<path d="M75.0979 36.0107H54.7051" stroke="#05C2DF" stroke-linecap="round"/>
<path fill-rule="evenodd" clip-rule="evenodd" d="M100.719 75.6226C100.166 75.6226 99.7188 76.0703 99.7188 76.6226V79.2235H103.32V76.6226C103.32 76.0703 102.872 75.6226 102.32 75.6226H100.719ZM102.336 82.8246H100.703C100.708 82.8247 100.713 82.8248 100.719 82.8248H102.32C102.325 82.8248 102.33 82.8247 102.336 82.8246Z" fill="#05C2DF"/>
<path fill-rule="evenodd" clip-rule="evenodd" d="M111.521 75.6226C110.969 75.6226 110.521 76.0703 110.521 76.6226V79.2235H114.123V76.6226C114.123 76.0703 113.675 75.6226 113.123 75.6226H111.521ZM113.138 82.8246H111.506C111.511 82.8247 111.516 82.8248 111.521 82.8248H113.123C113.128 82.8248 113.133 82.8247 113.138 82.8246Z" fill="#05C2DF"/>
</g>
<defs>
<clipPath id="clip0">
<rect width="151.246" height="151.246" fill="white" transform="translate(0.689453)"/>
</clipPath>
</defs>
</svg>
