<svg width="71" height="82" viewBox="0 0 71 82" fill="none" xmlns="http://www.w3.org/2000/svg">
<path d="M69.8392 7.07867V80.6686H67.4577H56.8924H54.0111H29.9992H27.1177H20.3943H17.5129H17.0524V78.8091C17.0524 77.7426 16.1751 76.8934 15.1117 76.8934C14.0484 76.8934 13.1711 77.7426 13.1711 78.8091V80.6686H12.7105H9.82919H3.1058L1.38517 80.6685L0.724609 80.6685V27.8426C0.724609 27.3449 1.13739 26.9269 1.66529 26.9269H13.6712H14.1712V26.4269V14.6292C14.1712 14.1315 14.584 13.7135 15.1119 13.7135H19.4341H19.9341V13.2135V7.07867C19.9341 6.58097 20.3469 6.16298 20.8748 6.16298H27.1178H27.6178V5.66298V1.41573C27.6178 0.918067 28.0307 0.500031 28.5585 0.500031C29.0863 0.500031 29.4992 0.918068 29.4992 1.41573V5.66298V6.16298H29.9992H36.2424C36.7702 6.16298 37.1831 6.58101 37.1831 7.07867V13.2135V13.7135H37.6831H40.5644H41.0644V13.2135V7.07867C41.0644 6.58097 41.4772 6.16298 42.0051 6.16298H68.8985C69.4263 6.16298 69.8392 6.58101 69.8392 7.07867Z" stroke="#05C2DF" stroke-linecap="round"/>
<path d="M36.0195 77.5V51.0732" stroke="#05C2DF" stroke-linecap="round"/>
<path d="M42.125 77.4269V51" stroke="#05C2DF" stroke-linecap="round"/>
<path d="M48.2305 77.4269V51" stroke="#05C2DF" stroke-linecap="round"/>
<path d="M50.6001 16.5169C50.6001 17.1567 50.0712 17.6826 49.4094 17.6826C48.7476 17.6826 48.2188 17.1567 48.2188 16.517V14.6293C48.2188 13.9894 48.7478 13.4636 49.4094 13.4636C50.0711 13.4636 50.6001 13.9894 50.6001 14.6293V16.5169Z" fill="#05C2DF" stroke="#05040B" stroke-width="0.5" stroke-linecap="round"/>
<path d="M56.3618 16.5169C56.3618 17.1567 55.833 17.6826 55.1711 17.6826C54.5093 17.6826 53.9805 17.1567 53.9805 16.517V14.6293C53.9805 13.9894 54.5095 13.4636 55.1711 13.4636C55.8328 13.4636 56.3618 13.9894 56.3618 14.6293V16.5169Z" fill="#05C2DF" stroke="#05040B" stroke-width="0.5" stroke-linecap="round"/>
<path d="M62.1255 16.5169C62.1255 17.1567 61.5966 17.6826 60.9348 17.6826C60.273 17.6826 59.7441 17.1567 59.7441 16.517V14.6293C59.7441 13.9894 60.2732 13.4636 60.9348 13.4636C61.5965 13.4636 62.1255 13.9894 62.1255 14.6293V16.5169Z" fill="#05C2DF" stroke="#05040B" stroke-width="0.5" stroke-linecap="round"/>
<path d="M50.6001 25.955C50.6001 26.5949 50.0712 27.1207 49.4094 27.1207C48.7476 27.1207 48.2188 26.5949 48.2188 25.955V24.0673C48.2188 23.4274 48.7478 22.9016 49.4094 22.9016C50.0711 22.9016 50.6001 23.4274 50.6001 24.0673V25.955Z" fill="#05C2DF" stroke="#05040B" stroke-width="0.5" stroke-linecap="round"/>
<path d="M56.3618 25.955C56.3618 26.5949 55.833 27.1207 55.1711 27.1207C54.5093 27.1207 53.9805 26.5949 53.9805 25.955V24.0673C53.9805 23.4274 54.5095 22.9016 55.1711 22.9016C55.8328 22.9016 56.3618 23.4274 56.3618 24.0673V25.955Z" fill="#05C2DF" stroke="#05040B" stroke-width="0.5" stroke-linecap="round"/>
<path d="M62.1255 25.955C62.1255 26.5949 61.5966 27.1207 60.9348 27.1207C60.273 27.1207 59.7441 26.5949 59.7441 25.955V24.0673C59.7441 23.4274 60.2732 22.9016 60.9348 22.9016C61.5965 22.9016 62.1255 23.4274 62.1255 24.0673V25.955Z" fill="#05C2DF" stroke="#05040B" stroke-width="0.5" stroke-linecap="round"/>
<path d="M50.6001 35.3934C50.6001 36.0333 50.0712 36.5591 49.4094 36.5591C48.7476 36.5591 48.2188 36.0331 48.2188 35.3934V33.5057C48.2188 32.8658 48.7478 32.34 49.4094 32.34C50.0711 32.34 50.6001 32.8658 50.6001 33.5057V35.3934Z" fill="#05C2DF" stroke="#05040B" stroke-width="0.5" stroke-linecap="round"/>
<path d="M56.3618 35.3934C56.3618 36.0333 55.833 36.5591 55.1711 36.5591C54.5094 36.5591 53.9805 36.0331 53.9805 35.3934V33.5057C53.9805 32.8658 54.5095 32.34 55.1711 32.34C55.8328 32.34 56.3618 32.8658 56.3618 33.5057V35.3934Z" fill="#05C2DF" stroke="#05040B" stroke-width="0.5" stroke-linecap="round"/>
<path d="M62.1255 35.3934C62.1255 36.0333 61.5966 36.5591 60.9348 36.5591C60.273 36.5591 59.7441 36.0331 59.7441 35.3934V33.5057C59.7441 32.8658 60.2732 32.34 60.9348 32.34C61.5965 32.34 62.1255 32.8658 62.1255 33.5057V35.3934Z" fill="#05C2DF" stroke="#05040B" stroke-width="0.5" stroke-linecap="round"/>
<path d="M10.2603 39.1686C10.2603 39.8085 9.7314 40.3343 9.06959 40.3343C8.40794 40.3343 7.87891 39.8083 7.87891 39.1686V37.2809C7.87891 36.641 8.40792 36.1152 9.06959 36.1152C9.73125 36.1152 10.2603 36.641 10.2603 37.2809V39.1686Z" fill="#05C2DF" stroke="#05040B" stroke-width="0.5" stroke-linecap="round"/>
<path d="M16.022 39.1686C16.022 39.8085 15.4931 40.3343 14.8313 40.3343C14.1695 40.3343 13.6406 39.8084 13.6406 39.1686V37.2809C13.6406 36.641 14.1696 36.1152 14.8313 36.1152C15.493 36.1152 16.022 36.641 16.022 37.2809V39.1686Z" fill="#05C2DF" stroke="#05040B" stroke-width="0.5" stroke-linecap="round"/>
<path d="M21.7857 39.1686C21.7857 39.8085 21.2568 40.3343 20.595 40.3343C19.9332 40.3343 19.4043 39.8084 19.4043 39.1686V37.2809C19.4043 36.641 19.9333 36.1152 20.595 36.1152C21.2566 36.1152 21.7857 36.641 21.7857 37.2809V39.1686Z" fill="#05C2DF" stroke="#05040B" stroke-width="0.5" stroke-linecap="round"/>
<path d="M10.2603 48.6068C10.2603 49.2467 9.7314 49.7725 9.06959 49.7725C8.40794 49.7725 7.87891 49.2465 7.87891 48.6068V46.7191C7.87891 46.0792 8.40792 45.5534 9.06959 45.5534C9.73125 45.5534 10.2603 46.0792 10.2603 46.7191V48.6068Z" fill="#05C2DF" stroke="#05040B" stroke-width="0.5" stroke-linecap="round"/>
<path d="M16.022 48.6068C16.022 49.2467 15.4931 49.7725 14.8313 49.7725C14.1695 49.7725 13.6406 49.2465 13.6406 48.6068V46.7191C13.6406 46.0792 14.1696 45.5534 14.8313 45.5534C15.493 45.5534 16.022 46.0792 16.022 46.7191V48.6068Z" fill="#05C2DF" stroke="#05040B" stroke-width="0.5" stroke-linecap="round"/>
<path d="M21.7857 48.6068C21.7857 49.2467 21.2568 49.7725 20.595 49.7725C19.9332 49.7725 19.4043 49.2465 19.4043 48.6068V46.7191C19.4043 46.0792 19.9333 45.5534 20.595 45.5534C21.2566 45.5534 21.7857 46.0792 21.7857 46.7191V48.6068Z" fill="#05C2DF" stroke="#05040B" stroke-width="0.5" stroke-linecap="round"/>
<path d="M10.2603 58.045C10.2603 58.6849 9.7314 59.2107 9.06959 59.2107C8.40792 59.2107 7.87891 58.6849 7.87891 58.045V56.1573C7.87891 55.5174 8.40792 54.9916 9.06959 54.9916C9.73125 54.9916 10.2603 55.5174 10.2603 56.1573V58.045Z" fill="#05C2DF" stroke="#05040B" stroke-width="0.5" stroke-linecap="round"/>
<path d="M16.022 58.045C16.022 58.6849 15.4931 59.2107 14.8313 59.2107C14.1695 59.2107 13.6406 58.6849 13.6406 58.045V56.1573C13.6406 55.5174 14.1696 54.9916 14.8313 54.9916C15.493 54.9916 16.022 55.5174 16.022 56.1573V58.045Z" fill="#05C2DF" stroke="#05040B" stroke-width="0.5" stroke-linecap="round"/>
<path d="M21.7857 58.045C21.7857 58.6849 21.2568 59.2107 20.595 59.2107C19.9332 59.2107 19.4043 58.6849 19.4043 58.045V56.1573C19.4043 55.5174 19.9333 54.9916 20.595 54.9916C21.2566 54.9916 21.7857 55.5174 21.7857 56.1573V58.045Z" fill="#05C2DF" stroke="#05040B" stroke-width="0.5" stroke-linecap="round"/>
<path d="M10.2603 67.4832C10.2603 68.123 9.7314 68.6488 9.06959 68.6488C8.40792 68.6488 7.87891 68.123 7.87891 67.4832V65.5954C7.87891 64.9556 8.40792 64.4297 9.06959 64.4297C9.73125 64.4297 10.2603 64.9556 10.2603 65.5954V67.4832Z" fill="#05C2DF" stroke="#05040B" stroke-width="0.5" stroke-linecap="round"/>
<path d="M16.022 67.4832C16.022 68.123 15.4931 68.6488 14.8313 68.6488C14.1695 68.6488 13.6406 68.123 13.6406 67.4832V65.5954C13.6406 64.9556 14.1696 64.4297 14.8313 64.4297C15.493 64.4297 16.022 64.9556 16.022 65.5954V67.4832Z" fill="#05C2DF" stroke="#05040B" stroke-width="0.5" stroke-linecap="round"/>
<path d="M21.7857 67.4832C21.7857 68.123 21.2568 68.6488 20.595 68.6488C19.9332 68.6488 19.4043 68.123 19.4043 67.4832V65.5954C19.4043 64.9556 19.9333 64.4297 20.595 64.4297C21.2566 64.4297 21.7857 64.9556 21.7857 65.5954V67.4832Z" fill="#05C2DF" stroke="#05040B" stroke-width="0.5" stroke-linecap="round"/>
<path d="M62.1255 44.8315C62.1255 45.4714 61.5966 45.9972 60.9348 45.9972C60.273 45.9972 59.7441 45.4713 59.7441 44.8315V42.9438C59.7441 42.304 60.2732 41.7781 60.9348 41.7781C61.5965 41.7781 62.1255 42.304 62.1255 42.9438V44.8315Z" fill="#05C2DF" stroke="#05040B" stroke-width="0.5" stroke-linecap="round"/>
<path d="M62.1255 54.2698C62.1255 54.9097 61.5966 55.4355 60.9348 55.4355C60.273 55.4355 59.7441 54.9095 59.7441 54.2698V52.3821C59.7441 51.7422 60.2732 51.2164 60.9348 51.2164C61.5965 51.2164 62.1255 51.7422 62.1255 52.3821V54.2698Z" fill="#05C2DF" stroke="#05040B" stroke-width="0.5" stroke-linecap="round"/>
<path d="M62.1255 63.7079C62.1255 64.3478 61.5966 64.8736 60.9348 64.8736C60.273 64.8736 59.7441 64.3477 59.7441 63.7079V61.8202C59.7441 61.1804 60.2732 60.6545 60.9348 60.6545C61.5965 60.6545 62.1255 61.1804 62.1255 61.8202V63.7079Z" fill="#05C2DF" stroke="#05040B" stroke-width="0.5" stroke-linecap="round"/>
<path d="M62.1255 73.1461C62.1255 73.786 61.5966 74.3118 60.9348 74.3118C60.273 74.3118 59.7441 73.7859 59.7441 73.1461V71.2584C59.7441 70.6185 60.2732 70.0927 60.9348 70.0927C61.5965 70.0927 62.1255 70.6185 62.1255 71.2584V73.1461Z" fill="#05C2DF" stroke="#05040B" stroke-width="0.5" stroke-linecap="round"/>
<path d="M34.3148 20H22.7891" stroke="#05C2DF" stroke-linecap="round"/>
</svg>
