<svg width="250" height="143" viewBox="0 0 250 143" fill="none" xmlns="http://www.w3.org/2000/svg">
<rect width="250" height="143" fill="#E5E5E5"/>
<g clip-path="url(#clip0_0_1)">
<rect width="1280" height="4543" transform="translate(-113 -2655)" fill="white"/>
<rect x="-113" y="-225" width="1280" height="681" fill="#05040B"/>
<path d="M3.52273 61L0.340909 49.3636H1.77273L4.20455 58.8409H4.31818L6.79545 49.3636H8.38636L10.8636 58.8409H10.9773L13.4091 49.3636H14.8409L11.6591 61H10.2045L7.63636 51.7273H7.54545L4.97727 61H3.52273ZM19.2614 61.1818C18.4205 61.1818 17.6951 60.9962 17.0852 60.625C16.4792 60.25 16.0114 59.7273 15.6818 59.0568C15.3561 58.3826 15.1932 57.5985 15.1932 56.7045C15.1932 55.8106 15.3561 55.0227 15.6818 54.3409C16.0114 53.6553 16.4697 53.1212 17.0568 52.7386C17.6477 52.3523 18.3371 52.1591 19.125 52.1591C19.5795 52.1591 20.0284 52.2348 20.4716 52.3864C20.9148 52.5379 21.3182 52.7841 21.6818 53.125C22.0455 53.4621 22.3352 53.9091 22.5511 54.4659C22.767 55.0227 22.875 55.7083 22.875 56.5227V57.0909H16.1477V55.9318H21.5114C21.5114 55.4394 21.4129 55 21.2159 54.6136C21.0227 54.2273 20.7462 53.9223 20.3864 53.6989C20.0303 53.4754 19.6098 53.3636 19.125 53.3636C18.5909 53.3636 18.1288 53.4962 17.7386 53.7614C17.3523 54.0227 17.0549 54.3636 16.8466 54.7841C16.6383 55.2045 16.5341 55.6553 16.5341 56.1364V56.9091C16.5341 57.5682 16.6477 58.1269 16.875 58.5852C17.1061 59.0398 17.4261 59.3864 17.8352 59.625C18.2443 59.8598 18.7197 59.9773 19.2614 59.9773C19.6136 59.9773 19.9318 59.928 20.2159 59.8295C20.5038 59.7273 20.7519 59.5758 20.9602 59.375C21.1686 59.1705 21.3295 58.9167 21.4432 58.6136L22.7386 58.9773C22.6023 59.4167 22.3731 59.803 22.0511 60.1364C21.7292 60.4659 21.3314 60.7235 20.858 60.9091C20.3845 61.0909 19.8523 61.1818 19.2614 61.1818ZM24.9148 61V52.2727H26.2557V61H24.9148ZM25.5966 50.8182C25.3352 50.8182 25.1098 50.7292 24.9205 50.5511C24.7348 50.3731 24.642 50.1591 24.642 49.9091C24.642 49.6591 24.7348 49.4451 24.9205 49.267C25.1098 49.089 25.3352 49 25.5966 49C25.858 49 26.0814 49.089 26.267 49.267C26.4564 49.4451 26.5511 49.6591 26.5511 49.9091C26.5511 50.1591 26.4564 50.3731 26.267 50.5511C26.0814 50.7292 25.858 50.8182 25.5966 50.8182ZM32.2344 64.4545C31.5866 64.4545 31.0298 64.3712 30.5639 64.2045C30.098 64.0417 29.7098 63.8258 29.3991 63.5568C29.0923 63.2917 28.848 63.0076 28.6662 62.7045L29.7344 61.9545C29.8556 62.1136 30.009 62.2955 30.1946 62.5C30.3802 62.7083 30.634 62.8883 30.956 63.0398C31.2817 63.1951 31.7079 63.2727 32.2344 63.2727C32.9389 63.2727 33.5204 63.1023 33.9787 62.7614C34.437 62.4205 34.6662 61.8864 34.6662 61.1591V59.3864H34.5526C34.4541 59.5455 34.3139 59.7424 34.1321 59.9773C33.9541 60.2083 33.6965 60.4148 33.3594 60.5966C33.026 60.7746 32.5753 60.8636 32.0071 60.8636C31.3026 60.8636 30.67 60.697 30.1094 60.3636C29.5526 60.0303 29.1113 59.5455 28.7855 58.9091C28.4635 58.2727 28.3026 57.5 28.3026 56.5909C28.3026 55.697 28.4598 54.9186 28.7741 54.2557C29.0885 53.589 29.526 53.0739 30.0866 52.7102C30.6473 52.3428 31.295 52.1591 32.0298 52.1591C32.598 52.1591 33.0488 52.2538 33.3821 52.4432C33.7192 52.6288 33.9768 52.8409 34.1548 53.0795C34.3366 53.3144 34.4768 53.5076 34.5753 53.6591H34.7116V52.2727H36.0071V61.25C36.0071 62 35.8366 62.6098 35.4957 63.0795C35.1586 63.553 34.7041 63.8996 34.1321 64.1193C33.5639 64.3428 32.9313 64.4545 32.2344 64.4545ZM32.1889 59.6591C32.7268 59.6591 33.1813 59.536 33.5526 59.2898C33.9238 59.0436 34.206 58.6894 34.3991 58.2273C34.5923 57.7652 34.6889 57.2121 34.6889 56.5682C34.6889 55.9394 34.5942 55.3845 34.4048 54.9034C34.2154 54.4223 33.9351 54.0455 33.5639 53.7727C33.1927 53.5 32.7344 53.3636 32.1889 53.3636C31.6207 53.3636 31.1473 53.5076 30.7685 53.7955C30.3935 54.0833 30.1113 54.4697 29.9219 54.9545C29.7363 55.4394 29.6435 55.9773 29.6435 56.5682C29.6435 57.1742 29.7382 57.7102 29.9276 58.1761C30.1207 58.6383 30.4048 59.0019 30.7798 59.267C31.1586 59.5284 31.6283 59.6591 32.1889 59.6591ZM39.8026 55.75V61H38.4616V49.3636H39.8026V53.6364H39.9162C40.1207 53.1856 40.4276 52.8277 40.8366 52.5625C41.2495 52.2936 41.7988 52.1591 42.4844 52.1591C43.0791 52.1591 43.5999 52.2784 44.0469 52.517C44.4938 52.7519 44.8404 53.1136 45.0866 53.6023C45.3366 54.0871 45.4616 54.7045 45.4616 55.4545V61H44.1207V55.5455C44.1207 54.8523 43.9408 54.3163 43.581 53.9375C43.2249 53.5549 42.7306 53.3636 42.098 53.3636C41.6586 53.3636 41.2647 53.4564 40.9162 53.642C40.5715 53.8277 40.2988 54.0985 40.098 54.4545C39.901 54.8106 39.8026 55.2424 39.8026 55.75ZM51.7102 52.2727V53.4091H47.1875V52.2727H51.7102ZM48.5057 50.1818H49.8466V58.5C49.8466 58.8788 49.9015 59.1629 50.0114 59.3523C50.125 59.5379 50.2689 59.6629 50.4432 59.7273C50.6212 59.7879 50.8087 59.8182 51.0057 59.8182C51.1534 59.8182 51.2746 59.8106 51.3693 59.7955C51.464 59.7765 51.5398 59.7614 51.5966 59.75L51.8693 60.9545C51.7784 60.9886 51.6515 61.0227 51.4886 61.0568C51.3258 61.0947 51.1193 61.1136 50.8693 61.1136C50.4905 61.1136 50.1193 61.0322 49.7557 60.8693C49.3958 60.7064 49.0966 60.4583 48.858 60.125C48.6231 59.7917 48.5057 59.3712 48.5057 58.8636V50.1818ZM54.7045 61.0909C54.4242 61.0909 54.1837 60.9905 53.983 60.7898C53.7822 60.589 53.6818 60.3485 53.6818 60.0682C53.6818 59.7879 53.7822 59.5473 53.983 59.3466C54.1837 59.1458 54.4242 59.0455 54.7045 59.0455C54.9848 59.0455 55.2254 59.1458 55.4261 59.3466C55.6269 59.5473 55.7273 59.7879 55.7273 60.0682C55.7273 60.2538 55.6799 60.4242 55.5852 60.5795C55.4943 60.7348 55.3712 60.8598 55.2159 60.9545C55.0644 61.0455 54.8939 61.0909 54.7045 61.0909ZM54.7045 54.6136C54.4242 54.6136 54.1837 54.5133 53.983 54.3125C53.7822 54.1117 53.6818 53.8712 53.6818 53.5909C53.6818 53.3106 53.7822 53.0701 53.983 52.8693C54.1837 52.6686 54.4242 52.5682 54.7045 52.5682C54.9848 52.5682 55.2254 52.6686 55.4261 52.8693C55.6269 53.0701 55.7273 53.3106 55.7273 53.5909C55.7273 53.7765 55.6799 53.947 55.5852 54.1023C55.4943 54.2576 55.3712 54.3826 55.2159 54.4773C55.0644 54.5682 54.8939 54.6136 54.7045 54.6136ZM66.5426 61.1591C65.7926 61.1591 65.1241 61.0303 64.5369 60.7727C63.9536 60.5152 63.4896 60.1572 63.1449 59.6989C62.804 59.2367 62.6184 58.7008 62.5881 58.0909H64.0199C64.0502 58.4659 64.179 58.7898 64.4062 59.0625C64.6335 59.3314 64.9309 59.5398 65.2983 59.6875C65.6657 59.8352 66.0729 59.9091 66.5199 59.9091C67.0199 59.9091 67.4631 59.822 67.8494 59.6477C68.2358 59.4735 68.5388 59.2311 68.7585 58.9205C68.9782 58.6098 69.0881 58.25 69.0881 57.8409C69.0881 57.4129 68.982 57.036 68.7699 56.7102C68.5578 56.3807 68.2472 56.1231 67.8381 55.9375C67.429 55.7519 66.929 55.6591 66.3381 55.6591H65.4062V54.4091H66.3381C66.8002 54.4091 67.2055 54.3258 67.554 54.1591C67.9063 53.9924 68.1809 53.7576 68.3778 53.4545C68.5786 53.1515 68.679 52.7955 68.679 52.3864C68.679 51.9924 68.5919 51.6496 68.4176 51.358C68.2434 51.0663 67.9972 50.839 67.679 50.6761C67.3646 50.5133 66.9934 50.4318 66.5653 50.4318C66.1638 50.4318 65.785 50.5057 65.429 50.6534C65.0767 50.7973 64.7888 51.0076 64.5653 51.2841C64.3419 51.5568 64.2206 51.8864 64.2017 52.2727H62.8381C62.8608 51.6629 63.0445 51.1288 63.3892 50.6705C63.7339 50.2083 64.1847 49.8485 64.7415 49.5909C65.3021 49.3333 65.9176 49.2045 66.5881 49.2045C67.3078 49.2045 67.9252 49.3504 68.4403 49.642C68.9555 49.9299 69.3513 50.3106 69.6278 50.7841C69.9044 51.2576 70.0426 51.7689 70.0426 52.3182C70.0426 52.9735 69.8703 53.5322 69.5256 53.9943C69.1847 54.4564 68.7206 54.7765 68.1335 54.9545V55.0455C68.8684 55.1667 69.4422 55.4792 69.8551 55.983C70.268 56.483 70.4744 57.1023 70.4744 57.8409C70.4744 58.4735 70.3021 59.0417 69.9574 59.5455C69.6165 60.0455 69.1506 60.4394 68.5597 60.7273C67.9688 61.0152 67.2964 61.1591 66.5426 61.1591ZM76.4347 61.1591C75.768 61.1591 75.1676 61.0265 74.6335 60.7614C74.0994 60.4962 73.6714 60.1326 73.3494 59.6705C73.0275 59.2083 72.8513 58.6818 72.821 58.0909H74.1847C74.2377 58.6174 74.4763 59.053 74.9006 59.3977C75.3286 59.7386 75.84 59.9091 76.4347 59.9091C76.9119 59.9091 77.3362 59.7973 77.7074 59.5739C78.0824 59.3504 78.3759 59.0436 78.5881 58.6534C78.804 58.2595 78.9119 57.8144 78.9119 57.3182C78.9119 56.8106 78.8002 56.358 78.5767 55.9602C78.357 55.5587 78.054 55.2424 77.6676 55.0114C77.2813 54.7803 76.84 54.6629 76.3438 54.6591C75.9877 54.6553 75.6222 54.7102 75.2472 54.8239C74.8722 54.9337 74.5634 55.0758 74.321 55.25L73.0028 55.0909L73.7074 49.3636H79.7528V50.6136H74.8892L74.4801 54.0455H74.5483C74.7869 53.8561 75.0862 53.6989 75.446 53.5739C75.8059 53.4489 76.1809 53.3864 76.571 53.3864C77.2831 53.3864 77.9176 53.5568 78.4744 53.8977C79.035 54.2348 79.4744 54.697 79.7926 55.2841C80.1146 55.8712 80.2756 56.5417 80.2756 57.2955C80.2756 58.0379 80.1089 58.7008 79.7756 59.2841C79.446 59.8636 78.9915 60.322 78.4119 60.6591C77.8324 60.9924 77.1733 61.1591 76.4347 61.1591ZM86.0781 64.4545C85.4304 64.4545 84.8736 64.3712 84.4077 64.2045C83.9418 64.0417 83.5535 63.8258 83.2429 63.5568C82.9361 63.2917 82.6918 63.0076 82.5099 62.7045L83.5781 61.9545C83.6993 62.1136 83.8527 62.2955 84.0384 62.5C84.224 62.7083 84.4777 62.8883 84.7997 63.0398C85.1255 63.1951 85.5516 63.2727 86.0781 63.2727C86.7827 63.2727 87.3641 63.1023 87.8224 62.7614C88.2808 62.4205 88.5099 61.8864 88.5099 61.1591V59.3864H88.3963C88.2978 59.5455 88.1577 59.7424 87.9759 59.9773C87.7978 60.2083 87.5402 60.4148 87.2031 60.5966C86.8698 60.7746 86.419 60.8636 85.8509 60.8636C85.1463 60.8636 84.5137 60.697 83.9531 60.3636C83.3963 60.0303 82.955 59.5455 82.6293 58.9091C82.3073 58.2727 82.1463 57.5 82.1463 56.5909C82.1463 55.697 82.3035 54.9186 82.6179 54.2557C82.9323 53.589 83.3698 53.0739 83.9304 52.7102C84.491 52.3428 85.1387 52.1591 85.8736 52.1591C86.4418 52.1591 86.8925 52.2538 87.2259 52.4432C87.563 52.6288 87.8205 52.8409 87.9986 53.0795C88.1804 53.3144 88.3205 53.5076 88.419 53.6591H88.5554V52.2727H89.8509V61.25C89.8509 62 89.6804 62.6098 89.3395 63.0795C89.0024 63.553 88.5478 63.8996 87.9759 64.1193C87.4077 64.3428 86.7751 64.4545 86.0781 64.4545ZM86.0327 59.6591C86.5705 59.6591 87.0251 59.536 87.3963 59.2898C87.7675 59.0436 88.0497 58.6894 88.2429 58.2273C88.4361 57.7652 88.5327 57.2121 88.5327 56.5682C88.5327 55.9394 88.438 55.3845 88.2486 54.9034C88.0592 54.4223 87.7789 54.0455 87.4077 53.7727C87.0365 53.5 86.5781 53.3636 86.0327 53.3636C85.4645 53.3636 84.991 53.5076 84.6122 53.7955C84.2372 54.0833 83.955 54.4697 83.7656 54.9545C83.58 55.4394 83.4872 55.9773 83.4872 56.5682C83.4872 57.1742 83.5819 57.7102 83.7713 58.1761C83.9645 58.6383 84.2486 59.0019 84.6236 59.267C85.0024 59.5284 85.4721 59.6591 86.0327 59.6591ZM96.419 48.8182L92.669 62.75H91.4418L95.1918 48.8182H96.419ZM102.077 49.3636V61H100.668V50.8409H100.599L97.7585 52.7273V51.2955L100.668 49.3636H102.077ZM105.736 61.0909C105.455 61.0909 105.215 60.9905 105.014 60.7898C104.813 60.589 104.713 60.3485 104.713 60.0682C104.713 59.7879 104.813 59.5473 105.014 59.3466C105.215 59.1458 105.455 59.0455 105.736 59.0455C106.016 59.0455 106.257 59.1458 106.457 59.3466C106.658 59.5473 106.759 59.7879 106.759 60.0682C106.759 60.2538 106.711 60.4242 106.616 60.5795C106.526 60.7348 106.402 60.8598 106.247 60.9545C106.096 61.0455 105.925 61.0909 105.736 61.0909ZM109.142 61V59.9773L112.983 55.7727C113.434 55.2803 113.805 54.8523 114.097 54.4886C114.388 54.1212 114.604 53.7765 114.744 53.4545C114.888 53.1288 114.96 52.7879 114.96 52.4318C114.96 52.0227 114.862 51.6686 114.665 51.3693C114.472 51.0701 114.206 50.839 113.869 50.6761C113.532 50.5133 113.153 50.4318 112.733 50.4318C112.286 50.4318 111.896 50.5246 111.562 50.7102C111.233 50.892 110.977 51.1477 110.795 51.4773C110.617 51.8068 110.528 52.1932 110.528 52.6364H109.188C109.188 51.9545 109.345 51.3561 109.659 50.8409C109.973 50.3258 110.402 49.9242 110.943 49.6364C111.489 49.3485 112.1 49.2045 112.778 49.2045C113.46 49.2045 114.064 49.3485 114.591 49.6364C115.117 49.9242 115.53 50.3125 115.83 50.8011C116.129 51.2898 116.278 51.8333 116.278 52.4318C116.278 52.8598 116.201 53.2784 116.045 53.6875C115.894 54.0928 115.629 54.5455 115.25 55.0455C114.875 55.5417 114.354 56.1477 113.688 56.8636L111.074 59.6591V59.75H116.483V61H109.142ZM122.761 61.1591C122.011 61.1591 121.343 61.0303 120.756 60.7727C120.172 60.5152 119.708 60.1572 119.364 59.6989C119.023 59.2367 118.837 58.7008 118.807 58.0909H120.239C120.269 58.4659 120.398 58.7898 120.625 59.0625C120.852 59.3314 121.15 59.5398 121.517 59.6875C121.884 59.8352 122.292 59.9091 122.739 59.9091C123.239 59.9091 123.682 59.822 124.068 59.6477C124.455 59.4735 124.758 59.2311 124.977 58.9205C125.197 58.6098 125.307 58.25 125.307 57.8409C125.307 57.4129 125.201 57.036 124.989 56.7102C124.777 56.3807 124.466 56.1231 124.057 55.9375C123.648 55.7519 123.148 55.6591 122.557 55.6591H121.625V54.4091H122.557C123.019 54.4091 123.424 54.3258 123.773 54.1591C124.125 53.9924 124.4 53.7576 124.597 53.4545C124.797 53.1515 124.898 52.7955 124.898 52.3864C124.898 51.9924 124.811 51.6496 124.636 51.358C124.462 51.0663 124.216 50.839 123.898 50.6761C123.583 50.5133 123.212 50.4318 122.784 50.4318C122.383 50.4318 122.004 50.5057 121.648 50.6534C121.295 50.7973 121.008 51.0076 120.784 51.2841C120.561 51.5568 120.439 51.8864 120.42 52.2727H119.057C119.08 51.6629 119.263 51.1288 119.608 50.6705C119.953 50.2083 120.403 49.8485 120.96 49.5909C121.521 49.3333 122.136 49.2045 122.807 49.2045C123.527 49.2045 124.144 49.3504 124.659 49.642C125.174 49.9299 125.57 50.3106 125.847 50.7841C126.123 51.2576 126.261 51.7689 126.261 52.3182C126.261 52.9735 126.089 53.5322 125.744 53.9943C125.403 54.4564 124.939 54.7765 124.352 54.9545V55.0455C125.087 55.1667 125.661 55.4792 126.074 55.983C126.487 56.483 126.693 57.1023 126.693 57.8409C126.693 58.4735 126.521 59.0417 126.176 59.5455C125.835 60.0455 125.369 60.4394 124.778 60.7273C124.188 61.0152 123.515 61.1591 122.761 61.1591ZM132.585 61.1818C131.797 61.1818 131.106 60.9943 130.511 60.6193C129.92 60.2443 129.458 59.7197 129.125 59.0455C128.795 58.3712 128.631 57.5833 128.631 56.6818C128.631 55.7727 128.795 54.9792 129.125 54.3011C129.458 53.6231 129.92 53.0966 130.511 52.7216C131.106 52.3466 131.797 52.1591 132.585 52.1591C133.373 52.1591 134.063 52.3466 134.653 52.7216C135.248 53.0966 135.71 53.6231 136.04 54.3011C136.373 54.9792 136.54 55.7727 136.54 56.6818C136.54 57.5833 136.373 58.3712 136.04 59.0455C135.71 59.7197 135.248 60.2443 134.653 60.6193C134.063 60.9943 133.373 61.1818 132.585 61.1818ZM132.585 59.9773C133.184 59.9773 133.676 59.8239 134.062 59.517C134.449 59.2102 134.735 58.8068 134.92 58.3068C135.106 57.8068 135.199 57.2652 135.199 56.6818C135.199 56.0985 135.106 55.5549 134.92 55.0511C134.735 54.5473 134.449 54.1402 134.062 53.8295C133.676 53.5189 133.184 53.3636 132.585 53.3636C131.987 53.3636 131.494 53.5189 131.108 53.8295C130.722 54.1402 130.436 54.5473 130.25 55.0511C130.064 55.5549 129.972 56.0985 129.972 56.6818C129.972 57.2652 130.064 57.8068 130.25 58.3068C130.436 58.8068 130.722 59.2102 131.108 59.517C131.494 59.8239 131.987 59.9773 132.585 59.9773ZM138.337 61V59.9773L143.291 53.6136V53.5227H138.496V52.2727H145.018V53.3409L140.2 59.6591V59.75H145.178V61H138.337ZM155.402 61.1818C154.561 61.1818 153.836 60.9962 153.226 60.625C152.62 60.25 152.152 59.7273 151.822 59.0568C151.497 58.3826 151.334 57.5985 151.334 56.7045C151.334 55.8106 151.497 55.0227 151.822 54.3409C152.152 53.6553 152.61 53.1212 153.197 52.7386C153.788 52.3523 154.478 52.1591 155.266 52.1591C155.72 52.1591 156.169 52.2348 156.612 52.3864C157.055 52.5379 157.459 52.7841 157.822 53.125C158.186 53.4621 158.476 53.9091 158.692 54.4659C158.908 55.0227 159.016 55.7083 159.016 56.5227V57.0909H152.288V55.9318H157.652C157.652 55.4394 157.554 55 157.357 54.6136C157.163 54.2273 156.887 53.9223 156.527 53.6989C156.171 53.4754 155.75 53.3636 155.266 53.3636C154.732 53.3636 154.269 53.4962 153.879 53.7614C153.493 54.0227 153.196 54.3636 152.987 54.7841C152.779 55.2045 152.675 55.6553 152.675 56.1364V56.9091C152.675 57.5682 152.788 58.1269 153.016 58.5852C153.247 59.0398 153.567 59.3864 153.976 59.625C154.385 59.8598 154.86 59.9773 155.402 59.9773C155.754 59.9773 156.072 59.928 156.357 59.8295C156.644 59.7273 156.893 59.5758 157.101 59.375C157.309 59.1705 157.47 58.9167 157.584 58.6136L158.879 58.9773C158.743 59.4167 158.514 59.803 158.192 60.1364C157.87 60.4659 157.472 60.7235 156.999 60.9091C156.525 61.0909 155.993 61.1818 155.402 61.1818ZM163.624 61.2045C163.071 61.2045 162.569 61.1004 162.118 60.892C161.667 60.6799 161.309 60.375 161.044 59.9773C160.779 59.5758 160.646 59.0909 160.646 58.5227C160.646 58.0227 160.745 57.6174 160.942 57.3068C161.139 56.9924 161.402 56.7462 161.732 56.5682C162.061 56.3902 162.425 56.2576 162.822 56.1705C163.224 56.0795 163.627 56.0076 164.033 55.9545C164.563 55.8864 164.993 55.8352 165.322 55.8011C165.656 55.7633 165.898 55.7008 166.05 55.6136C166.205 55.5265 166.283 55.375 166.283 55.1591V55.1136C166.283 54.553 166.129 54.1174 165.822 53.8068C165.519 53.4962 165.059 53.3409 164.442 53.3409C163.802 53.3409 163.3 53.4811 162.936 53.7614C162.572 54.0417 162.317 54.3409 162.169 54.6591L160.896 54.2045C161.124 53.6742 161.427 53.2614 161.805 52.9659C162.188 52.6667 162.605 52.4583 163.055 52.3409C163.51 52.2197 163.957 52.1591 164.396 52.1591C164.677 52.1591 164.999 52.1932 165.362 52.2614C165.73 52.3258 166.084 52.4602 166.425 52.6648C166.769 52.8693 167.055 53.178 167.283 53.5909C167.51 54.0038 167.624 54.5568 167.624 55.25V61H166.283V59.8182H166.214C166.124 60.0076 165.972 60.2102 165.76 60.4261C165.548 60.642 165.266 60.8258 164.913 60.9773C164.561 61.1288 164.131 61.2045 163.624 61.2045ZM163.828 60C164.358 60 164.805 59.8958 165.169 59.6875C165.536 59.4792 165.813 59.2102 165.999 58.8807C166.188 58.5511 166.283 58.2045 166.283 57.8409V56.6136C166.226 56.6818 166.101 56.7443 165.908 56.8011C165.718 56.8542 165.499 56.9015 165.249 56.9432C165.002 56.9811 164.762 57.0152 164.527 57.0455C164.296 57.072 164.108 57.0947 163.964 57.1136C163.616 57.1591 163.29 57.233 162.987 57.3352C162.688 57.4337 162.446 57.5833 162.26 57.7841C162.078 57.9811 161.987 58.25 161.987 58.5909C161.987 59.0568 162.16 59.4091 162.504 59.6477C162.853 59.8826 163.294 60 163.828 60ZM173.616 61.1818C172.798 61.1818 172.094 60.9886 171.503 60.6023C170.912 60.2159 170.457 59.6837 170.139 59.0057C169.821 58.3277 169.662 57.553 169.662 56.6818C169.662 55.7955 169.825 55.0133 170.151 54.3352C170.48 53.6534 170.938 53.1212 171.526 52.7386C172.116 52.3523 172.806 52.1591 173.594 52.1591C174.207 52.1591 174.76 52.2727 175.253 52.5C175.745 52.7273 176.149 53.0455 176.463 53.4545C176.777 53.8636 176.973 54.3409 177.048 54.8864H175.707C175.605 54.4886 175.378 54.1364 175.026 53.8295C174.677 53.5189 174.207 53.3636 173.616 53.3636C173.094 53.3636 172.635 53.5 172.241 53.7727C171.851 54.0417 171.546 54.4223 171.327 54.9148C171.111 55.4034 171.003 55.9773 171.003 56.6364C171.003 57.3106 171.109 57.8977 171.321 58.3977C171.537 58.8977 171.84 59.286 172.23 59.5625C172.624 59.839 173.086 59.9773 173.616 59.9773C173.965 59.9773 174.281 59.9167 174.565 59.7955C174.849 59.6742 175.09 59.5 175.287 59.2727C175.484 59.0455 175.624 58.7727 175.707 58.4545H177.048C176.973 58.9697 176.785 59.4337 176.486 59.8466C176.19 60.2557 175.798 60.5814 175.31 60.8239C174.825 61.0625 174.26 61.1818 173.616 61.1818ZM180.349 55.75V61H179.009V49.3636H180.349V53.6364H180.463C180.668 53.1856 180.974 52.8277 181.384 52.5625C181.796 52.2936 182.346 52.1591 183.031 52.1591C183.626 52.1591 184.147 52.2784 184.594 52.517C185.041 52.7519 185.387 53.1136 185.634 53.6023C185.884 54.0871 186.009 54.7045 186.009 55.4545V61H184.668V55.5455C184.668 54.8523 184.488 54.3163 184.128 53.9375C183.772 53.5549 183.277 53.3636 182.645 53.3636C182.205 53.3636 181.812 53.4564 181.463 53.642C181.118 53.8277 180.846 54.0985 180.645 54.4545C180.448 54.8106 180.349 55.2424 180.349 55.75ZM5 85H1.40909V73.3636H5.15909C6.28788 73.3636 7.25379 73.5966 8.05682 74.0625C8.85985 74.5246 9.47538 75.1894 9.90341 76.0568C10.3314 76.9205 10.5455 77.9545 10.5455 79.1591C10.5455 80.3712 10.3295 81.4148 9.89773 82.2898C9.46591 83.161 8.83712 83.8314 8.01136 84.3011C7.18561 84.767 6.18182 85 5 85ZM2.81818 83.75H4.90909C5.87121 83.75 6.66856 83.5644 7.30114 83.1932C7.93371 82.822 8.4053 82.2936 8.71591 81.608C9.02652 80.9223 9.18182 80.1061 9.18182 79.1591C9.18182 78.2197 9.02841 77.411 8.72159 76.733C8.41477 76.0511 7.95644 75.5284 7.34659 75.1648C6.73674 74.7973 5.97727 74.6136 5.06818 74.6136H2.81818V83.75ZM12.7273 85V76.2727H14.0682V85H12.7273ZM13.4091 74.8182C13.1477 74.8182 12.9223 74.7292 12.733 74.5511C12.5473 74.3731 12.4545 74.1591 12.4545 73.9091C12.4545 73.6591 12.5473 73.4451 12.733 73.267C12.9223 73.089 13.1477 73 13.4091 73C13.6705 73 13.8939 73.089 14.0795 73.267C14.2689 73.4451 14.3636 73.6591 14.3636 73.9091C14.3636 74.1591 14.2689 74.3731 14.0795 74.5511C13.8939 74.7292 13.6705 74.8182 13.4091 74.8182ZM16.5241 85V76.2727H17.8196V77.6364H17.9332C18.1151 77.1705 18.4086 76.8087 18.8139 76.5511C19.2192 76.2898 19.706 76.1591 20.2741 76.1591C20.8499 76.1591 21.3291 76.2898 21.7116 76.5511C22.098 76.8087 22.3991 77.1705 22.6151 77.6364H22.706C22.9295 77.1856 23.2647 76.8277 23.7116 76.5625C24.1586 76.2936 24.6946 76.1591 25.3196 76.1591C26.0999 76.1591 26.7382 76.4034 27.2344 76.892C27.7306 77.3769 27.9787 78.1326 27.9787 79.1591V85H26.6378V79.1591C26.6378 78.5152 26.4616 78.0549 26.1094 77.7784C25.7571 77.5019 25.3423 77.3636 24.8651 77.3636C24.2514 77.3636 23.776 77.5492 23.4389 77.9205C23.1018 78.2879 22.9332 78.7538 22.9332 79.3182V85H21.5696V79.0227C21.5696 78.5265 21.4086 78.1269 21.0866 77.8239C20.7647 77.517 20.3499 77.3636 19.8423 77.3636C19.4938 77.3636 19.1681 77.4564 18.8651 77.642C18.5658 77.8277 18.3234 78.0852 18.1378 78.4148C17.956 78.7405 17.8651 79.1174 17.8651 79.5455V85H16.5241ZM34.0895 85.1818C33.2486 85.1818 32.5232 84.9962 31.9134 84.625C31.3073 84.25 30.8395 83.7273 30.5099 83.0568C30.1842 82.3826 30.0213 81.5985 30.0213 80.7045C30.0213 79.8106 30.1842 79.0227 30.5099 78.3409C30.8395 77.6553 31.2978 77.1212 31.8849 76.7386C32.4759 76.3523 33.1652 76.1591 33.9531 76.1591C34.4077 76.1591 34.8565 76.2348 35.2997 76.3864C35.7429 76.5379 36.1463 76.7841 36.5099 77.125C36.8736 77.4621 37.1634 77.9091 37.3793 78.4659C37.5952 79.0227 37.7031 79.7083 37.7031 80.5227V81.0909H30.9759V79.9318H36.3395C36.3395 79.4394 36.241 79 36.044 78.6136C35.8509 78.2273 35.5743 77.9223 35.2145 77.6989C34.8584 77.4754 34.438 77.3636 33.9531 77.3636C33.419 77.3636 32.9569 77.4962 32.5668 77.7614C32.1804 78.0227 31.883 78.3636 31.6747 78.7841C31.4664 79.2045 31.3622 79.6553 31.3622 80.1364V80.9091C31.3622 81.5682 31.4759 82.1269 31.7031 82.5852C31.9342 83.0398 32.2543 83.3864 32.6634 83.625C33.0724 83.8598 33.5478 83.9773 34.0895 83.9773C34.4418 83.9773 34.7599 83.928 35.044 83.8295C35.3319 83.7273 35.58 83.5758 35.7884 83.375C35.9967 83.1705 36.1577 82.9167 36.2713 82.6136L37.5668 82.9773C37.4304 83.4167 37.2012 83.803 36.8793 84.1364C36.5573 84.4659 36.1596 84.7235 35.6861 84.9091C35.2126 85.0909 34.6804 85.1818 34.0895 85.1818ZM41.0838 79.75V85H39.7429V76.2727H41.0384V77.6364H41.152C41.3565 77.1932 41.6671 76.8371 42.0838 76.5682C42.5005 76.2955 43.0384 76.1591 43.6974 76.1591C44.2884 76.1591 44.8054 76.2803 45.2486 76.5227C45.6918 76.7614 46.0365 77.125 46.2827 77.6136C46.5289 78.0985 46.652 78.7121 46.652 79.4545V85H45.3111V79.5455C45.3111 78.8598 45.133 78.3258 44.777 77.9432C44.4209 77.5568 43.9323 77.3636 43.3111 77.3636C42.883 77.3636 42.5005 77.4564 42.1634 77.642C41.83 77.8277 41.5668 78.0985 41.3736 78.4545C41.1804 78.8106 41.0838 79.2424 41.0838 79.75ZM55.2841 78.2273L54.0795 78.5682C54.0038 78.3674 53.892 78.1723 53.7443 77.983C53.6004 77.7898 53.4034 77.6307 53.1534 77.5057C52.9034 77.3807 52.5833 77.3182 52.1932 77.3182C51.6591 77.3182 51.214 77.4413 50.858 77.6875C50.5057 77.9299 50.3295 78.2386 50.3295 78.6136C50.3295 78.947 50.4508 79.2102 50.6932 79.4034C50.9356 79.5966 51.3144 79.7576 51.8295 79.8864L53.125 80.2045C53.9053 80.3939 54.4867 80.6837 54.8693 81.0739C55.2519 81.4602 55.4432 81.9583 55.4432 82.5682C55.4432 83.0682 55.2992 83.5152 55.0114 83.9091C54.7273 84.303 54.3295 84.6136 53.8182 84.8409C53.3068 85.0682 52.7121 85.1818 52.0341 85.1818C51.1439 85.1818 50.4072 84.9886 49.8239 84.6023C49.2405 84.2159 48.8712 83.6515 48.7159 82.9091L49.9886 82.5909C50.1098 83.0606 50.339 83.4129 50.6761 83.6477C51.017 83.8826 51.4621 84 52.0114 84C52.6364 84 53.1326 83.8674 53.5 83.6023C53.8712 83.3333 54.0568 83.0114 54.0568 82.6364C54.0568 82.3333 53.9508 82.0795 53.7386 81.875C53.5265 81.6667 53.2008 81.5114 52.7614 81.4091L51.3068 81.0682C50.5076 80.8788 49.9205 80.5852 49.5455 80.1875C49.1742 79.786 48.9886 79.2841 48.9886 78.6818C48.9886 78.1894 49.1269 77.7538 49.4034 77.375C49.6837 76.9962 50.0644 76.6989 50.5455 76.483C51.0303 76.267 51.5795 76.1591 52.1932 76.1591C53.0568 76.1591 53.7348 76.3485 54.2273 76.7273C54.7235 77.1061 55.0758 77.6061 55.2841 78.2273ZM57.4616 85V76.2727H58.8026V85H57.4616ZM58.1435 74.8182C57.8821 74.8182 57.6567 74.7292 57.4673 74.5511C57.2817 74.3731 57.1889 74.1591 57.1889 73.9091C57.1889 73.6591 57.2817 73.4451 57.4673 73.267C57.6567 73.089 57.8821 73 58.1435 73C58.4048 73 58.6283 73.089 58.8139 73.267C59.0033 73.4451 59.098 73.6591 59.098 73.9091C59.098 74.1591 59.0033 74.3731 58.8139 74.5511C58.6283 74.7292 58.4048 74.8182 58.1435 74.8182ZM64.804 85.1818C64.0161 85.1818 63.3248 84.9943 62.7301 84.6193C62.1392 84.2443 61.6771 83.7197 61.3438 83.0455C61.0142 82.3712 60.8494 81.5833 60.8494 80.6818C60.8494 79.7727 61.0142 78.9792 61.3438 78.3011C61.6771 77.6231 62.1392 77.0966 62.7301 76.7216C63.3248 76.3466 64.0161 76.1591 64.804 76.1591C65.5919 76.1591 66.2813 76.3466 66.8722 76.7216C67.4669 77.0966 67.929 77.6231 68.2585 78.3011C68.5919 78.9792 68.7585 79.7727 68.7585 80.6818C68.7585 81.5833 68.5919 82.3712 68.2585 83.0455C67.929 83.7197 67.4669 84.2443 66.8722 84.6193C66.2813 84.9943 65.5919 85.1818 64.804 85.1818ZM64.804 83.9773C65.4025 83.9773 65.8949 83.8239 66.2812 83.517C66.6676 83.2102 66.9536 82.8068 67.1392 82.3068C67.3248 81.8068 67.4176 81.2652 67.4176 80.6818C67.4176 80.0985 67.3248 79.5549 67.1392 79.0511C66.9536 78.5473 66.6676 78.1402 66.2812 77.8295C65.8949 77.5189 65.4025 77.3636 64.804 77.3636C64.2055 77.3636 63.7131 77.5189 63.3267 77.8295C62.9403 78.1402 62.6544 78.5473 62.4688 79.0511C62.2831 79.5549 62.1903 80.0985 62.1903 80.6818C62.1903 81.2652 62.2831 81.8068 62.4688 82.3068C62.6544 82.8068 62.9403 83.2102 63.3267 83.517C63.7131 83.8239 64.2055 83.9773 64.804 83.9773ZM72.1463 79.75V85H70.8054V76.2727H72.1009V77.6364H72.2145C72.419 77.1932 72.7296 76.8371 73.1463 76.5682C73.563 76.2955 74.1009 76.1591 74.7599 76.1591C75.3509 76.1591 75.8679 76.2803 76.3111 76.5227C76.7543 76.7614 77.099 77.125 77.3452 77.6136C77.5914 78.0985 77.7145 78.7121 77.7145 79.4545V85H76.3736V79.5455C76.3736 78.8598 76.1955 78.3258 75.8395 77.9432C75.4834 77.5568 74.9948 77.3636 74.3736 77.3636C73.9455 77.3636 73.563 77.4564 73.2259 77.642C72.8925 77.8277 72.6293 78.0985 72.4361 78.4545C72.2429 78.8106 72.1463 79.2424 72.1463 79.75ZM81.142 85.0909C80.8617 85.0909 80.6212 84.9905 80.4205 84.7898C80.2197 84.589 80.1193 84.3485 80.1193 84.0682C80.1193 83.7879 80.2197 83.5473 80.4205 83.3466C80.6212 83.1458 80.8617 83.0455 81.142 83.0455C81.4223 83.0455 81.6629 83.1458 81.8636 83.3466C82.0644 83.5473 82.1648 83.7879 82.1648 84.0682C82.1648 84.2538 82.1174 84.4242 82.0227 84.5795C81.9318 84.7348 81.8087 84.8598 81.6534 84.9545C81.5019 85.0455 81.3314 85.0909 81.142 85.0909ZM81.142 78.6136C80.8617 78.6136 80.6212 78.5133 80.4205 78.3125C80.2197 78.1117 80.1193 77.8712 80.1193 77.5909C80.1193 77.3106 80.2197 77.0701 80.4205 76.8693C80.6212 76.6686 80.8617 76.5682 81.142 76.5682C81.4223 76.5682 81.6629 76.6686 81.8636 76.8693C82.0644 77.0701 82.1648 77.3106 82.1648 77.5909C82.1648 77.7765 82.1174 77.947 82.0227 78.1023C81.9318 78.2576 81.8087 78.3826 81.6534 78.4773C81.5019 78.5682 81.3314 78.6136 81.142 78.6136ZM92.6847 85.1591C92.018 85.1591 91.4176 85.0265 90.8835 84.7614C90.3494 84.4962 89.9214 84.1326 89.5994 83.6705C89.2775 83.2083 89.1013 82.6818 89.071 82.0909H90.4347C90.4877 82.6174 90.7263 83.053 91.1506 83.3977C91.5786 83.7386 92.09 83.9091 92.6847 83.9091C93.1619 83.9091 93.5862 83.7973 93.9574 83.5739C94.3324 83.3504 94.6259 83.0436 94.8381 82.6534C95.054 82.2595 95.1619 81.8144 95.1619 81.3182C95.1619 80.8106 95.0502 80.358 94.8267 79.9602C94.607 79.5587 94.304 79.2424 93.9176 79.0114C93.5313 78.7803 93.09 78.6629 92.5938 78.6591C92.2377 78.6553 91.8722 78.7102 91.4972 78.8239C91.1222 78.9337 90.8134 79.0758 90.571 79.25L89.2528 79.0909L89.9574 73.3636H96.0028V74.6136H91.1392L90.7301 78.0455H90.7983C91.0369 77.8561 91.3362 77.6989 91.696 77.5739C92.0559 77.4489 92.4309 77.3864 92.821 77.3864C93.5331 77.3864 94.1676 77.5568 94.7244 77.8977C95.285 78.2348 95.7244 78.697 96.0426 79.2841C96.3646 79.8712 96.5256 80.5417 96.5256 81.2955C96.5256 82.0379 96.3589 82.7008 96.0256 83.2841C95.696 83.8636 95.2415 84.322 94.6619 84.6591C94.0824 84.9924 93.4233 85.1591 92.6847 85.1591ZM102.578 85.1591C101.722 85.1591 100.993 84.9261 100.391 84.4602C99.7884 83.9905 99.3281 83.3106 99.0099 82.4205C98.6918 81.5265 98.5327 80.447 98.5327 79.1818C98.5327 77.9242 98.6918 76.8504 99.0099 75.9602C99.3319 75.0663 99.794 74.3845 100.396 73.9148C101.002 73.4413 101.73 73.2045 102.578 73.2045C103.427 73.2045 104.152 73.4413 104.754 73.9148C105.36 74.3845 105.822 75.0663 106.141 75.9602C106.463 76.8504 106.624 77.9242 106.624 79.1818C106.624 80.447 106.464 81.5265 106.146 82.4205C105.828 83.3106 105.368 83.9905 104.766 84.4602C104.163 84.9261 103.434 85.1591 102.578 85.1591ZM102.578 83.9091C103.427 83.9091 104.086 83.5 104.555 82.6818C105.025 81.8636 105.26 80.697 105.26 79.1818C105.26 78.1742 105.152 77.3163 104.936 76.608C104.724 75.8996 104.417 75.3598 104.016 74.9886C103.618 74.6174 103.139 74.4318 102.578 74.4318C101.737 74.4318 101.08 74.8466 100.607 75.6761C100.133 76.5019 99.8963 77.6705 99.8963 79.1818C99.8963 80.1894 100.002 81.0455 100.214 81.75C100.427 82.4545 100.732 82.9905 101.129 83.358C101.531 83.7254 102.014 83.9091 102.578 83.9091ZM108.805 85V76.2727H110.101V77.6364H110.214C110.396 77.1705 110.69 76.8087 111.095 76.5511C111.5 76.2898 111.987 76.1591 112.555 76.1591C113.131 76.1591 113.61 76.2898 113.993 76.5511C114.379 76.8087 114.68 77.1705 114.896 77.6364H114.987C115.211 77.1856 115.546 76.8277 115.993 76.5625C116.44 76.2936 116.976 76.1591 117.601 76.1591C118.381 76.1591 119.019 76.4034 119.516 76.892C120.012 77.3769 120.26 78.1326 120.26 79.1591V85H118.919V79.1591C118.919 78.5152 118.743 78.0549 118.391 77.7784C118.038 77.5019 117.624 77.3636 117.146 77.3636C116.533 77.3636 116.057 77.5492 115.72 77.9205C115.383 78.2879 115.214 78.7538 115.214 79.3182V85H113.851V79.0227C113.851 78.5265 113.69 78.1269 113.368 77.8239C113.046 77.517 112.631 77.3636 112.124 77.3636C111.775 77.3636 111.449 77.4564 111.146 77.642C110.847 77.8277 110.605 78.0852 110.419 78.4148C110.237 78.7405 110.146 79.1174 110.146 79.5455V85H108.805ZM122.712 85V76.2727H124.007V77.6364H124.121C124.303 77.1705 124.596 76.8087 125.001 76.5511C125.407 76.2898 125.893 76.1591 126.462 76.1591C127.037 76.1591 127.517 76.2898 127.899 76.5511C128.286 76.8087 128.587 77.1705 128.803 77.6364H128.893C129.117 77.1856 129.452 76.8277 129.899 76.5625C130.346 76.2936 130.882 76.1591 131.507 76.1591C132.287 76.1591 132.926 76.4034 133.422 76.892C133.918 77.3769 134.166 78.1326 134.166 79.1591V85H132.825V79.1591C132.825 78.5152 132.649 78.0549 132.297 77.7784C131.945 77.5019 131.53 77.3636 131.053 77.3636C130.439 77.3636 129.964 77.5492 129.626 77.9205C129.289 78.2879 129.121 78.7538 129.121 79.3182V85H127.757V79.0227C127.757 78.5265 127.596 78.1269 127.274 77.8239C126.952 77.517 126.537 77.3636 126.03 77.3636C125.681 77.3636 125.356 77.4564 125.053 77.642C124.753 77.8277 124.511 78.0852 124.325 78.4148C124.143 78.7405 124.053 79.1174 124.053 79.5455V85H122.712ZM140.732 72.8182L136.982 86.75H135.754L139.504 72.8182H140.732ZM146.389 73.3636V85H144.98V74.8409H144.912L142.071 76.7273V75.2955L144.98 73.3636H146.389ZM150.048 85.0909C149.768 85.0909 149.527 84.9905 149.327 84.7898C149.126 84.589 149.026 84.3485 149.026 84.0682C149.026 83.7879 149.126 83.5473 149.327 83.3466C149.527 83.1458 149.768 83.0455 150.048 83.0455C150.329 83.0455 150.569 83.1458 150.77 83.3466C150.971 83.5473 151.071 83.7879 151.071 84.0682C151.071 84.2538 151.024 84.4242 150.929 84.5795C150.838 84.7348 150.715 84.8598 150.56 84.9545C150.408 85.0455 150.238 85.0909 150.048 85.0909ZM157.05 73.2045C157.527 73.2083 158.004 73.2992 158.482 73.4773C158.959 73.6553 159.394 73.9508 159.788 74.3636C160.182 74.7727 160.499 75.3314 160.737 76.0398C160.976 76.7481 161.095 77.6364 161.095 78.7045C161.095 79.7386 160.997 80.6572 160.8 81.4602C160.607 82.2595 160.326 82.9337 159.959 83.483C159.595 84.0322 159.152 84.4489 158.629 84.733C158.11 85.017 157.523 85.1591 156.868 85.1591C156.216 85.1591 155.635 85.0303 155.124 84.7727C154.616 84.5114 154.199 84.1496 153.874 83.6875C153.552 83.2216 153.345 82.6818 153.254 82.0682H154.641C154.766 82.6023 155.014 83.0436 155.385 83.392C155.76 83.7367 156.254 83.9091 156.868 83.9091C157.766 83.9091 158.474 83.517 158.993 82.733C159.516 81.9489 159.777 80.8409 159.777 79.4091H159.686C159.474 79.7273 159.222 80.0019 158.93 80.233C158.639 80.464 158.315 80.642 157.959 80.767C157.603 80.892 157.224 80.9545 156.822 80.9545C156.156 80.9545 155.544 80.7898 154.987 80.4602C154.434 80.1269 153.991 79.6705 153.658 79.0909C153.328 78.5076 153.163 77.8409 153.163 77.0909C153.163 76.3788 153.322 75.7273 153.641 75.1364C153.963 74.5417 154.413 74.0682 154.993 73.7159C155.576 73.3636 156.262 73.1932 157.05 73.2045ZM157.05 74.4545C156.572 74.4545 156.143 74.5739 155.76 74.8125C155.381 75.0473 155.08 75.3655 154.857 75.767C154.637 76.1648 154.527 76.6061 154.527 77.0909C154.527 77.5758 154.633 78.017 154.845 78.4148C155.061 78.8087 155.355 79.1231 155.726 79.358C156.101 79.589 156.527 79.7045 157.004 79.7045C157.364 79.7045 157.699 79.6345 158.01 79.4943C158.321 79.3504 158.591 79.1553 158.822 78.9091C159.057 78.6591 159.241 78.3769 159.374 78.0625C159.506 77.7443 159.572 77.4129 159.572 77.0682C159.572 76.6136 159.463 76.1875 159.243 75.7898C159.027 75.392 158.728 75.0701 158.345 74.8239C157.966 74.5777 157.535 74.4545 157.05 74.4545ZM163.381 85L168.585 74.7045V74.6136H162.585V73.3636H170.04V74.6818L164.858 85H163.381ZM172.18 85V76.2727H173.521V85H172.18ZM172.862 74.8182C172.601 74.8182 172.375 74.7292 172.186 74.5511C172 74.3731 171.908 74.1591 171.908 73.9091C171.908 73.6591 172 73.4451 172.186 73.267C172.375 73.089 172.601 73 172.862 73C173.124 73 173.347 73.089 173.533 73.267C173.722 73.4451 173.817 73.6591 173.817 73.9091C173.817 74.1591 173.722 74.3731 173.533 74.5511C173.347 74.7292 173.124 74.8182 172.862 74.8182ZM177.318 79.75V85H175.977V76.2727H177.273V77.6364H177.386C177.591 77.1932 177.902 76.8371 178.318 76.5682C178.735 76.2955 179.273 76.1591 179.932 76.1591C180.523 76.1591 181.04 76.2803 181.483 76.5227C181.926 76.7614 182.271 77.125 182.517 77.6136C182.763 78.0985 182.886 78.7121 182.886 79.4545V85H181.545V79.5455C181.545 78.8598 181.367 78.3258 181.011 77.9432C180.655 77.5568 180.167 77.3636 179.545 77.3636C179.117 77.3636 178.735 77.4564 178.398 77.642C178.064 77.8277 177.801 78.0985 177.608 78.4545C177.415 78.8106 177.318 79.2424 177.318 79.75ZM1.20455 109V107.977L5.04545 103.773C5.49621 103.28 5.86742 102.852 6.15909 102.489C6.45076 102.121 6.66667 101.777 6.80682 101.455C6.95076 101.129 7.02273 100.788 7.02273 100.432C7.02273 100.023 6.92424 99.6686 6.72727 99.3693C6.53409 99.0701 6.26894 98.839 5.93182 98.6761C5.5947 98.5133 5.21591 98.4318 4.79545 98.4318C4.34848 98.4318 3.95833 98.5246 3.625 98.7102C3.29545 98.892 3.03977 99.1477 2.85795 99.4773C2.67992 99.8068 2.59091 100.193 2.59091 100.636H1.25C1.25 99.9545 1.4072 99.3561 1.72159 98.8409C2.03598 98.3258 2.46402 97.9242 3.00568 97.6364C3.55114 97.3485 4.16288 97.2045 4.84091 97.2045C5.52273 97.2045 6.12689 97.3485 6.65341 97.6364C7.17992 97.9242 7.5928 98.3125 7.89205 98.8011C8.19129 99.2898 8.34091 99.8333 8.34091 100.432C8.34091 100.86 8.26326 101.278 8.10795 101.688C7.95644 102.093 7.69129 102.545 7.3125 103.045C6.9375 103.542 6.41667 104.148 5.75 104.864L3.13636 107.659V107.75H8.54545V109H1.20455ZM10.3693 106.614V105.455L15.483 97.3636H16.3239V99.1591H15.7557L11.892 105.273V105.364H18.7784V106.614H10.3693ZM15.8466 109V106.261V105.722V97.3636H17.1875V109H15.8466ZM20.9304 109V100.273H22.2259V101.636H22.3395C22.5213 101.17 22.8149 100.809 23.2202 100.551C23.6255 100.29 24.1122 100.159 24.6804 100.159C25.2562 100.159 25.7353 100.29 26.1179 100.551C26.5043 100.809 26.8054 101.17 27.0213 101.636H27.1122C27.3357 101.186 27.6709 100.828 28.1179 100.562C28.5649 100.294 29.1009 100.159 29.7259 100.159C30.5062 100.159 31.1444 100.403 31.6406 100.892C32.1368 101.377 32.3849 102.133 32.3849 103.159V109H31.044V103.159C31.044 102.515 30.8679 102.055 30.5156 101.778C30.1634 101.502 29.7486 101.364 29.2713 101.364C28.6577 101.364 28.1823 101.549 27.8452 101.92C27.508 102.288 27.3395 102.754 27.3395 103.318V109H25.9759V103.023C25.9759 102.527 25.8149 102.127 25.4929 101.824C25.1709 101.517 24.7562 101.364 24.2486 101.364C23.9001 101.364 23.5743 101.456 23.2713 101.642C22.9721 101.828 22.7296 102.085 22.544 102.415C22.3622 102.741 22.2713 103.117 22.2713 103.545V109H20.9304ZM34.8366 109V100.273H36.1321V101.636H36.2457C36.4276 101.17 36.7211 100.809 37.1264 100.551C37.5317 100.29 38.0185 100.159 38.5866 100.159C39.1624 100.159 39.6416 100.29 40.0241 100.551C40.4105 100.809 40.7116 101.17 40.9276 101.636H41.0185C41.242 101.186 41.5772 100.828 42.0241 100.562C42.4711 100.294 43.0071 100.159 43.6321 100.159C44.4124 100.159 45.0507 100.403 45.5469 100.892C46.0431 101.377 46.2912 102.133 46.2912 103.159V109H44.9503V103.159C44.9503 102.515 44.7741 102.055 44.4219 101.778C44.0696 101.502 43.6548 101.364 43.1776 101.364C42.5639 101.364 42.0885 101.549 41.7514 101.92C41.4143 102.288 41.2457 102.754 41.2457 103.318V109H39.8821V103.023C39.8821 102.527 39.7211 102.127 39.3991 101.824C39.0772 101.517 38.6624 101.364 38.1548 101.364C37.8063 101.364 37.4806 101.456 37.1776 101.642C36.8783 101.828 36.6359 102.085 36.4503 102.415C36.2685 102.741 36.1776 103.117 36.1776 103.545V109H34.8366ZM52.8565 96.8182L49.1065 110.75H47.8793L51.6293 96.8182H52.8565ZM58.2188 109.159C57.3627 109.159 56.6335 108.926 56.0312 108.46C55.429 107.991 54.9688 107.311 54.6506 106.42C54.3324 105.527 54.1733 104.447 54.1733 103.182C54.1733 101.924 54.3324 100.85 54.6506 99.9602C54.9725 99.0663 55.4347 98.3845 56.0369 97.9148C56.643 97.4413 57.3703 97.2045 58.2188 97.2045C59.0672 97.2045 59.7926 97.4413 60.3949 97.9148C61.0009 98.3845 61.4631 99.0663 61.7812 99.9602C62.1032 100.85 62.2642 101.924 62.2642 103.182C62.2642 104.447 62.1051 105.527 61.7869 106.42C61.4688 107.311 61.0085 107.991 60.4062 108.46C59.804 108.926 59.0748 109.159 58.2188 109.159ZM58.2188 107.909C59.0672 107.909 59.7263 107.5 60.196 106.682C60.6657 105.864 60.9006 104.697 60.9006 103.182C60.9006 102.174 60.7926 101.316 60.5767 100.608C60.3646 99.8996 60.0578 99.3598 59.6562 98.9886C59.2585 98.6174 58.7794 98.4318 58.2188 98.4318C57.3778 98.4318 56.7206 98.8466 56.2472 99.6761C55.7737 100.502 55.5369 101.67 55.5369 103.182C55.5369 104.189 55.643 105.045 55.8551 105.75C56.0672 106.455 56.3722 106.991 56.7699 107.358C57.1714 107.725 57.6544 107.909 58.2188 107.909ZM65.017 109.091C64.7367 109.091 64.4962 108.991 64.2955 108.79C64.0947 108.589 63.9943 108.348 63.9943 108.068C63.9943 107.788 64.0947 107.547 64.2955 107.347C64.4962 107.146 64.7367 107.045 65.017 107.045C65.2973 107.045 65.5379 107.146 65.7386 107.347C65.9394 107.547 66.0398 107.788 66.0398 108.068C66.0398 108.254 65.9924 108.424 65.8977 108.58C65.8068 108.735 65.6837 108.86 65.5284 108.955C65.3769 109.045 65.2064 109.091 65.017 109.091ZM72.0185 97.2045C72.4957 97.2083 72.973 97.2992 73.4503 97.4773C73.9276 97.6553 74.3632 97.9508 74.7571 98.3636C75.151 98.7727 75.4673 99.3314 75.706 100.04C75.9446 100.748 76.0639 101.636 76.0639 102.705C76.0639 103.739 75.9654 104.657 75.7685 105.46C75.5753 106.259 75.295 106.934 74.9276 107.483C74.5639 108.032 74.1207 108.449 73.598 108.733C73.0791 109.017 72.492 109.159 71.8366 109.159C71.1851 109.159 70.6037 109.03 70.0923 108.773C69.5848 108.511 69.1681 108.15 68.8423 107.688C68.5204 107.222 68.3139 106.682 68.223 106.068H69.6094C69.7344 106.602 69.9825 107.044 70.3537 107.392C70.7287 107.737 71.223 107.909 71.8366 107.909C72.7344 107.909 73.4427 107.517 73.9616 106.733C74.4844 105.949 74.7457 104.841 74.7457 103.409H74.6548C74.4427 103.727 74.1908 104.002 73.8991 104.233C73.6075 104.464 73.2836 104.642 72.9276 104.767C72.5715 104.892 72.1927 104.955 71.7912 104.955C71.1245 104.955 70.5128 104.79 69.956 104.46C69.4029 104.127 68.9598 103.67 68.6264 103.091C68.2969 102.508 68.1321 101.841 68.1321 101.091C68.1321 100.379 68.2912 99.7273 68.6094 99.1364C68.9313 98.5417 69.3821 98.0682 69.9616 97.7159C70.545 97.3636 71.2306 97.1932 72.0185 97.2045ZM72.0185 98.4545C71.5412 98.4545 71.1113 98.5739 70.7287 98.8125C70.3499 99.0473 70.0488 99.3655 69.8253 99.767C69.6056 100.165 69.4957 100.606 69.4957 101.091C69.4957 101.576 69.6018 102.017 69.8139 102.415C70.0298 102.809 70.3234 103.123 70.6946 103.358C71.0696 103.589 71.4957 103.705 71.973 103.705C72.3329 103.705 72.6681 103.634 72.9787 103.494C73.2893 103.35 73.5601 103.155 73.7912 102.909C74.026 102.659 74.2098 102.377 74.3423 102.062C74.4749 101.744 74.5412 101.413 74.5412 101.068C74.5412 100.614 74.4313 100.187 74.2116 99.7898C73.9957 99.392 73.6965 99.0701 73.3139 98.8239C72.9351 98.5777 72.5033 98.4545 72.0185 98.4545ZM78.0256 106.614V105.455L83.1392 97.3636H83.9801V99.1591H83.4119L79.5483 105.273V105.364H86.4347V106.614H78.0256ZM83.5028 109V106.261V105.722V97.3636H84.8438V109H83.5028ZM88.5866 109V100.273H89.9276V109H88.5866ZM89.2685 98.8182C89.0071 98.8182 88.7817 98.7292 88.5923 98.5511C88.4067 98.3731 88.3139 98.1591 88.3139 97.9091C88.3139 97.6591 88.4067 97.4451 88.5923 97.267C88.7817 97.089 89.0071 97 89.2685 97C89.5298 97 89.7533 97.089 89.9389 97.267C90.1283 97.4451 90.223 97.6591 90.223 97.9091C90.223 98.1591 90.1283 98.3731 89.9389 98.5511C89.7533 98.7292 89.5298 98.8182 89.2685 98.8182ZM93.7244 103.75V109H92.3835V100.273H93.679V101.636H93.7926C93.9972 101.193 94.3078 100.837 94.7244 100.568C95.1411 100.295 95.679 100.159 96.3381 100.159C96.929 100.159 97.446 100.28 97.8892 100.523C98.3324 100.761 98.6771 101.125 98.9233 101.614C99.1695 102.098 99.2926 102.712 99.2926 103.455V109H97.9517V103.545C97.9517 102.86 97.7737 102.326 97.4176 101.943C97.0616 101.557 96.5729 101.364 95.9517 101.364C95.5237 101.364 95.1411 101.456 94.804 101.642C94.4706 101.828 94.2074 102.098 94.0142 102.455C93.821 102.811 93.7244 103.242 93.7244 103.75ZM1.40909 133V121.364H2.81818V131.75H8.22727V133H1.40909ZM10.2273 133V124.273H11.5682V133H10.2273ZM10.9091 122.818C10.6477 122.818 10.4223 122.729 10.233 122.551C10.0473 122.373 9.95455 122.159 9.95455 121.909C9.95455 121.659 10.0473 121.445 10.233 121.267C10.4223 121.089 10.6477 121 10.9091 121C11.1705 121 11.3939 121.089 11.5795 121.267C11.7689 121.445 11.8636 121.659 11.8636 121.909C11.8636 122.159 11.7689 122.373 11.5795 122.551C11.3939 122.729 11.1705 122.818 10.9091 122.818ZM17.5469 136.455C16.8991 136.455 16.3423 136.371 15.8764 136.205C15.4105 136.042 15.0223 135.826 14.7116 135.557C14.4048 135.292 14.1605 135.008 13.9787 134.705L15.0469 133.955C15.1681 134.114 15.3215 134.295 15.5071 134.5C15.6927 134.708 15.9465 134.888 16.2685 135.04C16.5942 135.195 17.0204 135.273 17.5469 135.273C18.2514 135.273 18.8329 135.102 19.2912 134.761C19.7495 134.42 19.9787 133.886 19.9787 133.159V131.386H19.8651C19.7666 131.545 19.6264 131.742 19.4446 131.977C19.2666 132.208 19.009 132.415 18.6719 132.597C18.3385 132.775 17.8878 132.864 17.3196 132.864C16.6151 132.864 15.9825 132.697 15.4219 132.364C14.8651 132.03 14.4238 131.545 14.098 130.909C13.776 130.273 13.6151 129.5 13.6151 128.591C13.6151 127.697 13.7723 126.919 14.0866 126.256C14.401 125.589 14.8385 125.074 15.3991 124.71C15.9598 124.343 16.6075 124.159 17.3423 124.159C17.9105 124.159 18.3613 124.254 18.6946 124.443C19.0317 124.629 19.2893 124.841 19.4673 125.08C19.6491 125.314 19.7893 125.508 19.8878 125.659H20.0241V124.273H21.3196V133.25C21.3196 134 21.1491 134.61 20.8082 135.08C20.4711 135.553 20.0166 135.9 19.4446 136.119C18.8764 136.343 18.2438 136.455 17.5469 136.455ZM17.5014 131.659C18.0393 131.659 18.4938 131.536 18.8651 131.29C19.2363 131.044 19.5185 130.689 19.7116 130.227C19.9048 129.765 20.0014 129.212 20.0014 128.568C20.0014 127.939 19.9067 127.384 19.7173 126.903C19.5279 126.422 19.2476 126.045 18.8764 125.773C18.5052 125.5 18.0469 125.364 17.5014 125.364C16.9332 125.364 16.4598 125.508 16.081 125.795C15.706 126.083 15.4238 126.47 15.2344 126.955C15.0488 127.439 14.956 127.977 14.956 128.568C14.956 129.174 15.0507 129.71 15.2401 130.176C15.4332 130.638 15.7173 131.002 16.0923 131.267C16.4711 131.528 16.9408 131.659 17.5014 131.659ZM25.1151 127.75V133H23.7741V121.364H25.1151V125.636H25.2287C25.4332 125.186 25.7401 124.828 26.1491 124.562C26.562 124.294 27.1113 124.159 27.7969 124.159C28.3916 124.159 28.9124 124.278 29.3594 124.517C29.8063 124.752 30.1529 125.114 30.3991 125.602C30.6491 126.087 30.7741 126.705 30.7741 127.455V133H29.4332V127.545C29.4332 126.852 29.2533 126.316 28.8935 125.938C28.5374 125.555 28.0431 125.364 27.4105 125.364C26.9711 125.364 26.5772 125.456 26.2287 125.642C25.884 125.828 25.6113 126.098 25.4105 126.455C25.2135 126.811 25.1151 127.242 25.1151 127.75ZM37.0227 124.273V125.409H32.5V124.273H37.0227ZM33.8182 122.182H35.1591V130.5C35.1591 130.879 35.214 131.163 35.3239 131.352C35.4375 131.538 35.5814 131.663 35.7557 131.727C35.9337 131.788 36.1212 131.818 36.3182 131.818C36.4659 131.818 36.5871 131.811 36.6818 131.795C36.7765 131.777 36.8523 131.761 36.9091 131.75L37.1818 132.955C37.0909 132.989 36.964 133.023 36.8011 133.057C36.6383 133.095 36.4318 133.114 36.1818 133.114C35.803 133.114 35.4318 133.032 35.0682 132.869C34.7083 132.706 34.4091 132.458 34.1705 132.125C33.9356 131.792 33.8182 131.371 33.8182 130.864V122.182ZM40.017 133.091C39.7367 133.091 39.4962 132.991 39.2955 132.79C39.0947 132.589 38.9943 132.348 38.9943 132.068C38.9943 131.788 39.0947 131.547 39.2955 131.347C39.4962 131.146 39.7367 131.045 40.017 131.045C40.2973 131.045 40.5379 131.146 40.7386 131.347C40.9394 131.547 41.0398 131.788 41.0398 132.068C41.0398 132.254 40.9924 132.424 40.8977 132.58C40.8068 132.735 40.6837 132.86 40.5284 132.955C40.3769 133.045 40.2064 133.091 40.017 133.091ZM40.017 126.614C39.7367 126.614 39.4962 126.513 39.2955 126.312C39.0947 126.112 38.9943 125.871 38.9943 125.591C38.9943 125.311 39.0947 125.07 39.2955 124.869C39.4962 124.669 39.7367 124.568 40.017 124.568C40.2973 124.568 40.5379 124.669 40.7386 124.869C40.9394 125.07 41.0398 125.311 41.0398 125.591C41.0398 125.777 40.9924 125.947 40.8977 126.102C40.8068 126.258 40.6837 126.383 40.5284 126.477C40.3769 126.568 40.2064 126.614 40.017 126.614ZM48.1278 133V121.364H49.5369V131.75H54.946V133H48.1278ZM57.1278 133V121.364H64.1506V122.614H58.5369V126.545H63.7869V127.795H58.5369V131.75H64.2415V133H57.1278ZM70.2812 133H66.6903V121.364H70.4403C71.5691 121.364 72.535 121.597 73.3381 122.062C74.1411 122.525 74.7566 123.189 75.1847 124.057C75.6127 124.92 75.8267 125.955 75.8267 127.159C75.8267 128.371 75.6108 129.415 75.179 130.29C74.7472 131.161 74.1184 131.831 73.2926 132.301C72.4669 132.767 71.4631 133 70.2812 133ZM68.0994 131.75H70.1903C71.1525 131.75 71.9498 131.564 72.5824 131.193C73.215 130.822 73.6866 130.294 73.9972 129.608C74.3078 128.922 74.4631 128.106 74.4631 127.159C74.4631 126.22 74.3097 125.411 74.0028 124.733C73.696 124.051 73.2377 123.528 72.6278 123.165C72.018 122.797 71.2585 122.614 70.3494 122.614H68.0994V131.75ZM83.8494 121.364V133H82.5085V121.364H83.8494ZM86.3054 133V124.273H87.6463V133H86.3054ZM86.9872 122.818C86.7259 122.818 86.5005 122.729 86.3111 122.551C86.1255 122.373 86.0327 122.159 86.0327 121.909C86.0327 121.659 86.1255 121.445 86.3111 121.267C86.5005 121.089 86.7259 121 86.9872 121C87.2486 121 87.4721 121.089 87.6577 121.267C87.8471 121.445 87.9418 121.659 87.9418 121.909C87.9418 122.159 87.8471 122.373 87.6577 122.551C87.4721 122.729 87.2486 122.818 86.9872 122.818ZM93.625 136.455C92.9773 136.455 92.4205 136.371 91.9545 136.205C91.4886 136.042 91.1004 135.826 90.7898 135.557C90.483 135.292 90.2386 135.008 90.0568 134.705L91.125 133.955C91.2462 134.114 91.3996 134.295 91.5852 134.5C91.7708 134.708 92.0246 134.888 92.3466 135.04C92.6723 135.195 93.0985 135.273 93.625 135.273C94.3295 135.273 94.911 135.102 95.3693 134.761C95.8277 134.42 96.0568 133.886 96.0568 133.159V131.386H95.9432C95.8447 131.545 95.7045 131.742 95.5227 131.977C95.3447 132.208 95.0871 132.415 94.75 132.597C94.4167 132.775 93.9659 132.864 93.3977 132.864C92.6932 132.864 92.0606 132.697 91.5 132.364C90.9432 132.03 90.5019 131.545 90.1761 130.909C89.8542 130.273 89.6932 129.5 89.6932 128.591C89.6932 127.697 89.8504 126.919 90.1648 126.256C90.4792 125.589 90.9167 125.074 91.4773 124.71C92.0379 124.343 92.6856 124.159 93.4205 124.159C93.9886 124.159 94.4394 124.254 94.7727 124.443C95.1098 124.629 95.3674 124.841 95.5455 125.08C95.7273 125.314 95.8674 125.508 95.9659 125.659H96.1023V124.273H97.3977V133.25C97.3977 134 97.2273 134.61 96.8864 135.08C96.5492 135.553 96.0947 135.9 95.5227 136.119C94.9545 136.343 94.322 136.455 93.625 136.455ZM93.5795 131.659C94.1174 131.659 94.572 131.536 94.9432 131.29C95.3144 131.044 95.5966 130.689 95.7898 130.227C95.983 129.765 96.0795 129.212 96.0795 128.568C96.0795 127.939 95.9848 127.384 95.7955 126.903C95.6061 126.422 95.3258 126.045 94.9545 125.773C94.5833 125.5 94.125 125.364 93.5795 125.364C93.0114 125.364 92.5379 125.508 92.1591 125.795C91.7841 126.083 91.5019 126.47 91.3125 126.955C91.1269 127.439 91.0341 127.977 91.0341 128.568C91.0341 129.174 91.1288 129.71 91.3182 130.176C91.5114 130.638 91.7955 131.002 92.1705 131.267C92.5492 131.528 93.0189 131.659 93.5795 131.659ZM101.193 127.75V133H99.8523V121.364H101.193V125.636H101.307C101.511 125.186 101.818 124.828 102.227 124.562C102.64 124.294 103.189 124.159 103.875 124.159C104.47 124.159 104.991 124.278 105.438 124.517C105.884 124.752 106.231 125.114 106.477 125.602C106.727 126.087 106.852 126.705 106.852 127.455V133H105.511V127.545C105.511 126.852 105.331 126.316 104.972 125.938C104.616 125.555 104.121 125.364 103.489 125.364C103.049 125.364 102.655 125.456 102.307 125.642C101.962 125.828 101.689 126.098 101.489 126.455C101.292 126.811 101.193 127.242 101.193 127.75ZM113.101 124.273V125.409H108.578V124.273H113.101ZM109.896 122.182H111.237V130.5C111.237 130.879 111.292 131.163 111.402 131.352C111.516 131.538 111.66 131.663 111.834 131.727C112.012 131.788 112.199 131.818 112.396 131.818C112.544 131.818 112.665 131.811 112.76 131.795C112.855 131.777 112.93 131.761 112.987 131.75L113.26 132.955C113.169 132.989 113.042 133.023 112.879 133.057C112.716 133.095 112.51 133.114 112.26 133.114C111.881 133.114 111.51 133.032 111.146 132.869C110.786 132.706 110.487 132.458 110.249 132.125C110.014 131.792 109.896 131.371 109.896 130.864V122.182ZM121.143 126.227L119.939 126.568C119.863 126.367 119.751 126.172 119.604 125.983C119.46 125.79 119.263 125.631 119.013 125.506C118.763 125.381 118.443 125.318 118.053 125.318C117.518 125.318 117.073 125.441 116.717 125.688C116.365 125.93 116.189 126.239 116.189 126.614C116.189 126.947 116.31 127.21 116.553 127.403C116.795 127.597 117.174 127.758 117.689 127.886L118.984 128.205C119.765 128.394 120.346 128.684 120.729 129.074C121.111 129.46 121.303 129.958 121.303 130.568C121.303 131.068 121.159 131.515 120.871 131.909C120.587 132.303 120.189 132.614 119.678 132.841C119.166 133.068 118.571 133.182 117.893 133.182C117.003 133.182 116.267 132.989 115.683 132.602C115.1 132.216 114.731 131.652 114.575 130.909L115.848 130.591C115.969 131.061 116.198 131.413 116.536 131.648C116.876 131.883 117.321 132 117.871 132C118.496 132 118.992 131.867 119.359 131.602C119.731 131.333 119.916 131.011 119.916 130.636C119.916 130.333 119.81 130.08 119.598 129.875C119.386 129.667 119.06 129.511 118.621 129.409L117.166 129.068C116.367 128.879 115.78 128.585 115.405 128.188C115.034 127.786 114.848 127.284 114.848 126.682C114.848 126.189 114.986 125.754 115.263 125.375C115.543 124.996 115.924 124.699 116.405 124.483C116.89 124.267 117.439 124.159 118.053 124.159C118.916 124.159 119.594 124.348 120.087 124.727C120.583 125.106 120.935 125.606 121.143 126.227Z" fill="#929292"/>
<path d="M7.90057 9C7.86648 8.57386 7.70668 8.24148 7.42116 8.00284C7.13991 7.7642 6.71165 7.64489 6.13636 7.64489C5.76989 7.64489 5.46946 7.68963 5.23509 7.77912C5.00497 7.86435 4.83452 7.98153 4.72372 8.13068C4.61293 8.27983 4.5554 8.45028 4.55114 8.64205C4.54261 8.79972 4.57031 8.94247 4.63423 9.07031C4.70242 9.19389 4.80895 9.30682 4.95384 9.40909C5.09872 9.5071 5.28409 9.59659 5.50994 9.67756C5.7358 9.75852 6.00426 9.83097 6.31534 9.89489L7.3892 10.125C8.11364 10.2784 8.73366 10.4808 9.24929 10.7322C9.76491 10.9837 10.1868 11.2798 10.5149 11.6207C10.843 11.9574 11.0838 12.3366 11.2372 12.7585C11.3949 13.1804 11.4759 13.6406 11.4801 14.1392C11.4759 15 11.2607 15.7287 10.8345 16.3253C10.4084 16.9219 9.79901 17.3757 9.00639 17.6868C8.21804 17.9979 7.26989 18.1534 6.16193 18.1534C5.02415 18.1534 4.03125 17.9851 3.18324 17.6484C2.33949 17.3118 1.68324 16.794 1.21449 16.0952C0.75 15.392 0.515625 14.4929 0.511364 13.3977H3.88636C3.90767 13.7983 4.00781 14.1349 4.18679 14.4077C4.36577 14.6804 4.61719 14.8871 4.94105 15.0277C5.26918 15.1683 5.65909 15.2386 6.1108 15.2386C6.49006 15.2386 6.80753 15.1918 7.06321 15.098C7.31889 15.0043 7.51278 14.8743 7.64489 14.7081C7.77699 14.5419 7.84517 14.3523 7.84943 14.1392C7.84517 13.9389 7.77912 13.7642 7.65128 13.6151C7.5277 13.4616 7.32315 13.3253 7.03764 13.206C6.75213 13.0824 6.36648 12.9673 5.88068 12.8608L4.5767 12.5795C3.41761 12.3281 2.50355 11.9084 1.83452 11.3203C1.16974 10.728 0.839489 9.92045 0.84375 8.89773C0.839489 8.06676 1.06108 7.3402 1.50852 6.71804C1.96023 6.09162 2.58452 5.60369 3.38139 5.25426C4.18253 4.90483 5.10085 4.73011 6.13636 4.73011C7.19318 4.73011 8.10724 4.90696 8.87855 5.26065C9.64986 5.61435 10.2443 6.11293 10.6619 6.75639C11.0838 7.3956 11.2969 8.14347 11.3011 9H7.90057ZM12.832 18V4.90909H22.2667V7.77273H16.386V10.0227H21.7809V12.8864H16.386V15.1364H22.2411V18H12.832ZM35.356 4.90909V18H32.3901L27.66 11.1222H27.5833V18H24.0293V4.90909H27.0463L31.6998 11.7614H31.802V4.90909H35.356ZM44.0939 9C44.0598 8.57386 43.9 8.24148 43.6145 8.00284C43.3333 7.7642 42.905 7.64489 42.3297 7.64489C41.9632 7.64489 41.6628 7.68963 41.4284 7.77912C41.1983 7.86435 41.0279 7.98153 40.9171 8.13068C40.8063 8.27983 40.7488 8.45028 40.7445 8.64205C40.736 8.79972 40.7637 8.94247 40.8276 9.07031C40.8958 9.19389 41.0023 9.30682 41.1472 9.40909C41.2921 9.5071 41.4775 9.59659 41.7033 9.67756C41.9292 9.75852 42.1976 9.83097 42.5087 9.89489L43.5826 10.125C44.307 10.2784 44.927 10.4808 45.4426 10.7322C45.9583 10.9837 46.3801 11.2798 46.7083 11.6207C47.0364 11.9574 47.2772 12.3366 47.4306 12.7585C47.5882 13.1804 47.6692 13.6406 47.6735 14.1392C47.6692 15 47.454 15.7287 47.0279 16.3253C46.6017 16.9219 45.9924 17.3757 45.1998 17.6868C44.4114 17.9979 43.4632 18.1534 42.3553 18.1534C41.2175 18.1534 40.2246 17.9851 39.3766 17.6484C38.5328 17.3118 37.8766 16.794 37.4078 16.0952C36.9434 15.392 36.709 14.4929 36.7047 13.3977H40.0797C40.101 13.7983 40.2012 14.1349 40.3801 14.4077C40.5591 14.6804 40.8105 14.8871 41.1344 15.0277C41.4625 15.1683 41.8525 15.2386 42.3042 15.2386C42.6834 15.2386 43.0009 15.1918 43.2566 15.098C43.5123 15.0043 43.7061 14.8743 43.8382 14.7081C43.9703 14.5419 44.0385 14.3523 44.0428 14.1392C44.0385 13.9389 43.9725 13.7642 43.8446 13.6151C43.7211 13.4616 43.5165 13.3253 43.231 13.206C42.9455 13.0824 42.5598 12.9673 42.074 12.8608L40.7701 12.5795C39.611 12.3281 38.6969 11.9084 38.0279 11.3203C37.3631 10.728 37.0328 9.92045 37.0371 8.89773C37.0328 8.06676 37.2544 7.3402 37.7019 6.71804C38.1536 6.09162 38.7779 5.60369 39.5748 5.25426C40.3759 4.90483 41.2942 4.73011 42.3297 4.73011C43.3865 4.73011 44.3006 4.90696 45.0719 5.26065C45.8432 5.61435 46.4377 6.11293 46.8553 6.75639C47.2772 7.3956 47.4902 8.14347 47.4945 9H44.0939ZM61.7072 11.4545C61.7072 12.9119 61.4238 14.1413 60.8571 15.1428C60.2903 16.1399 59.5254 16.8963 58.5623 17.4119C57.5993 17.9233 56.5254 18.179 55.3407 18.179C54.1475 18.179 53.0694 17.9212 52.1064 17.4055C51.1475 16.8857 50.3848 16.1271 49.818 15.13C49.2555 14.1286 48.9743 12.9034 48.9743 11.4545C48.9743 9.99716 49.2555 8.76989 49.818 7.77273C50.3848 6.77131 51.1475 6.01491 52.1064 5.50355C53.0694 4.98793 54.1475 4.73011 55.3407 4.73011C56.5254 4.73011 57.5993 4.98793 58.5623 5.50355C59.5254 6.01491 60.2903 6.77131 60.8571 7.77273C61.4238 8.76989 61.7072 9.99716 61.7072 11.4545ZM58.051 11.4545C58.051 10.6705 57.9466 10.0099 57.7377 9.47301C57.5332 8.93182 57.2285 8.52273 56.8237 8.24574C56.4231 7.96449 55.9288 7.82386 55.3407 7.82386C54.7527 7.82386 54.2562 7.96449 53.8514 8.24574C53.4508 8.52273 53.1461 8.93182 52.9373 9.47301C52.7328 10.0099 52.6305 10.6705 52.6305 11.4545C52.6305 12.2386 52.7328 12.9013 52.9373 13.4425C53.1461 13.9794 53.4508 14.3885 53.8514 14.6697C54.2562 14.9467 54.7527 15.0852 55.3407 15.0852C55.9288 15.0852 56.4231 14.9467 56.8237 14.6697C57.2285 14.3885 57.5332 13.9794 57.7377 13.4425C57.9466 12.9013 58.051 12.2386 58.051 11.4545ZM63.3516 18V4.90909H69.0021C69.9737 4.90909 70.8239 5.08594 71.5526 5.43963C72.2813 5.79332 72.848 6.30256 73.2528 6.96733C73.6577 7.6321 73.8601 8.42898 73.8601 9.35795C73.8601 10.2955 73.6513 11.0859 73.2337 11.7294C72.8203 12.3729 72.2386 12.8587 71.4886 13.1868C70.7429 13.5149 69.8714 13.679 68.8743 13.679H65.4993V10.9176H68.1584C68.576 10.9176 68.9318 10.8665 69.2259 10.7642C69.5241 10.6577 69.7521 10.4893 69.9098 10.2592C70.0717 10.0291 70.1527 9.72869 70.1527 9.35795C70.1527 8.98295 70.0717 8.67827 69.9098 8.44389C69.7521 8.20526 69.5241 8.03054 69.2259 7.91974C68.9318 7.80469 68.576 7.74716 68.1584 7.74716H66.9055V18H63.3516ZM71.022 11.9915L74.2947 18H70.4339L67.2379 11.9915H71.022Z" fill="white"/>
<path d="M105.5 12H504V81" stroke="#05C2DF"/>
<circle cx="104" cy="12" r="3" fill="#05C2DF"/>
<path d="M229 229.5H267V122.5H356" stroke="#05C2DF"/>
</g>
<defs>
<clipPath id="clip0_0_1">
<rect width="1280" height="4543" fill="white" transform="translate(-113 -2655)"/>
</clipPath>
</defs>
</svg>
