<svg width="177" height="146" viewBox="0 0 177 146" fill="none" xmlns="http://www.w3.org/2000/svg">
<g clip-path="url(#clip0)">
<path d="M74.7117 50.41V37.6187M105.06 63.7029H119.858M50.8848 82.7645H58.9107M91.0144 109.601V96.8098" stroke="#05C2DF"/>
<rect x="59.1602" y="50.6587" width="45.6507" height="45.6507" rx="3.5" stroke="#05C2DF"/>
<rect x="67.6895" y="59.1865" width="29.0972" height="29.0972" rx="3.5" stroke="#05C2DF"/>
<rect x="119.855" y="1.5" width="34.615" height="34.615" rx="3.5" stroke="#05C2DF"/>
<rect x="127.881" y="9.52539" width="19.0648" height="19.0648" rx="2.5" stroke="#05C2DF"/>
<rect x="9.5" y="1.5" width="34.615" height="34.615" rx="3.5" stroke="#05C2DF"/>
<rect x="17.5254" y="9.52539" width="19.0648" height="19.0648" rx="2.5" stroke="#05C2DF"/>
<rect x="11.0039" y="110.853" width="34.615" height="34.615" rx="3.5" stroke="#05C2DF"/>
<rect x="19.0293" y="118.879" width="19.0648" height="19.0648" rx="2.5" stroke="#05C2DF"/>
<rect x="119.855" y="110.853" width="34.615" height="34.615" rx="3.5" stroke="#05C2DF"/>
<rect x="127.881" y="118.879" width="19.0648" height="19.0648" rx="2.5" stroke="#05C2DF"/>
<path d="M91.5156 50.4099V19.0586H119.105" stroke="#05C2DF"/>
<path d="M58.9095 68.7187L27.0566 68.7187L27.0567 36.6151" stroke="#05C2DF"/>
<path d="M105.309 75.7417L136.66 75.7417L136.66 110.353" stroke="#05C2DF"/>
<path d="M75.7168 96.8099L75.7168 128.161L45.8704 128.161" stroke="#05C2DF"/>
<circle cx="74.7118" cy="33.1035" r="4.01458" stroke="#05C2DF"/>
<circle cx="124.372" cy="63.7026" r="4.01458" stroke="#05C2DF"/>
<circle cx="46.622" cy="82.7646" r="4.01458" stroke="#05C2DF"/>
<circle cx="90.7626" cy="113.864" r="4.01458" stroke="#05C2DF"/>
</g>
<defs>
<clipPath id="clip0">
<rect width="176.454" height="145.844" fill="white"/>
</clipPath>
</defs>
</svg>
