<svg width="241" height="124" viewBox="0 0 241 124" fill="none" xmlns="http://www.w3.org/2000/svg">
<rect width="241" height="124" fill="#E5E5E5"/>
<g clip-path="url(#clip0_0_1)">
<rect width="1280" height="4543" transform="translate(-199 -2872)" fill="white"/>
<rect x="-199" y="-442" width="1280" height="681" fill="#05040B"/>
<path d="M3.52273 61L0.340909 49.3636H1.77273L4.20455 58.8409H4.31818L6.79545 49.3636H8.38636L10.8636 58.8409H10.9773L13.4091 49.3636H14.8409L11.6591 61H10.2045L7.63636 51.7273H7.54545L4.97727 61H3.52273ZM16.4148 61V52.2727H17.7557V61H16.4148ZM17.0966 50.8182C16.8352 50.8182 16.6098 50.7292 16.4205 50.5511C16.2348 50.3731 16.142 50.1591 16.142 49.9091C16.142 49.6591 16.2348 49.4451 16.4205 49.267C16.6098 49.089 16.8352 49 17.0966 49C17.358 49 17.5814 49.089 17.767 49.267C17.9564 49.4451 18.0511 49.6591 18.0511 49.9091C18.0511 50.1591 17.9564 50.3731 17.767 50.5511C17.5814 50.7292 17.358 50.8182 17.0966 50.8182ZM20.2116 61V52.2727H21.5071V53.5909H21.598C21.7571 53.1591 22.045 52.8087 22.4616 52.5398C22.8783 52.2708 23.348 52.1364 23.8707 52.1364C23.9692 52.1364 24.0923 52.1383 24.2401 52.142C24.3878 52.1458 24.4995 52.1515 24.5753 52.1591V53.5227C24.5298 53.5114 24.4257 53.4943 24.2628 53.4716C24.1037 53.4451 23.9351 53.4318 23.7571 53.4318C23.3329 53.4318 22.9541 53.5208 22.6207 53.6989C22.2912 53.8731 22.0298 54.1155 21.8366 54.4261C21.6473 54.733 21.5526 55.0833 21.5526 55.4773V61H20.2116ZM29.5582 61.1818C28.7173 61.1818 27.992 60.9962 27.3821 60.625C26.776 60.25 26.3082 59.7273 25.9787 59.0568C25.6529 58.3826 25.4901 57.5985 25.4901 56.7045C25.4901 55.8106 25.6529 55.0227 25.9787 54.3409C26.3082 53.6553 26.7666 53.1212 27.3537 52.7386C27.9446 52.3523 28.634 52.1591 29.4219 52.1591C29.8764 52.1591 30.3253 52.2348 30.7685 52.3864C31.2116 52.5379 31.6151 52.7841 31.9787 53.125C32.3423 53.4621 32.6321 53.9091 32.848 54.4659C33.0639 55.0227 33.1719 55.7083 33.1719 56.5227V57.0909H26.4446V55.9318H31.8082C31.8082 55.4394 31.7098 55 31.5128 54.6136C31.3196 54.2273 31.0431 53.9223 30.6832 53.6989C30.3272 53.4754 29.9067 53.3636 29.4219 53.3636C28.8878 53.3636 28.4257 53.4962 28.0355 53.7614C27.6491 54.0227 27.3518 54.3636 27.1435 54.7841C26.9351 55.2045 26.831 55.6553 26.831 56.1364V56.9091C26.831 57.5682 26.9446 58.1269 27.1719 58.5852C27.4029 59.0398 27.723 59.3864 28.1321 59.625C28.5412 59.8598 29.0166 59.9773 29.5582 59.9773C29.9105 59.9773 30.2287 59.928 30.5128 59.8295C30.8007 59.7273 31.0488 59.5758 31.2571 59.375C31.4654 59.1705 31.6264 58.9167 31.7401 58.6136L33.0355 58.9773C32.8991 59.4167 32.67 59.803 32.348 60.1364C32.026 60.4659 31.6283 60.7235 31.1548 60.9091C30.6813 61.0909 30.1491 61.1818 29.5582 61.1818ZM36.5526 49.3636V61H35.2116V49.3636H36.5526ZM42.6676 61.1818C41.8267 61.1818 41.1013 60.9962 40.4915 60.625C39.8854 60.25 39.4176 59.7273 39.0881 59.0568C38.7623 58.3826 38.5994 57.5985 38.5994 56.7045C38.5994 55.8106 38.7623 55.0227 39.0881 54.3409C39.4176 53.6553 39.8759 53.1212 40.4631 52.7386C41.054 52.3523 41.7434 52.1591 42.5312 52.1591C42.9858 52.1591 43.4347 52.2348 43.8778 52.3864C44.321 52.5379 44.7244 52.7841 45.0881 53.125C45.4517 53.4621 45.7415 53.9091 45.9574 54.4659C46.1733 55.0227 46.2812 55.7083 46.2812 56.5227V57.0909H39.554V55.9318H44.9176C44.9176 55.4394 44.8191 55 44.6222 54.6136C44.429 54.2273 44.1525 53.9223 43.7926 53.6989C43.4366 53.4754 43.0161 53.3636 42.5312 53.3636C41.9972 53.3636 41.535 53.4962 41.1449 53.7614C40.7585 54.0227 40.4612 54.3636 40.2528 54.7841C40.0445 55.2045 39.9403 55.6553 39.9403 56.1364V56.9091C39.9403 57.5682 40.054 58.1269 40.2812 58.5852C40.5123 59.0398 40.8324 59.3864 41.2415 59.625C41.6506 59.8598 42.1259 59.9773 42.6676 59.9773C43.0199 59.9773 43.3381 59.928 43.6222 59.8295C43.91 59.7273 44.1581 59.5758 44.3665 59.375C44.5748 59.1705 44.7358 58.9167 44.8494 58.6136L46.1449 58.9773C46.0085 59.4167 45.7794 59.803 45.4574 60.1364C45.1354 60.4659 44.7377 60.7235 44.2642 60.9091C43.7907 61.0909 43.2585 61.1818 42.6676 61.1818ZM54.5028 54.2273L53.2983 54.5682C53.2225 54.3674 53.1108 54.1723 52.9631 53.983C52.8191 53.7898 52.6222 53.6307 52.3722 53.5057C52.1222 53.3807 51.8021 53.3182 51.4119 53.3182C50.8778 53.3182 50.4328 53.4413 50.0767 53.6875C49.7244 53.9299 49.5483 54.2386 49.5483 54.6136C49.5483 54.947 49.6695 55.2102 49.9119 55.4034C50.1544 55.5966 50.5331 55.7576 51.0483 55.8864L52.3438 56.2045C53.1241 56.3939 53.7055 56.6837 54.0881 57.0739C54.4706 57.4602 54.6619 57.9583 54.6619 58.5682C54.6619 59.0682 54.518 59.5152 54.2301 59.9091C53.946 60.303 53.5483 60.6136 53.0369 60.8409C52.5256 61.0682 51.9309 61.1818 51.2528 61.1818C50.3627 61.1818 49.6259 60.9886 49.0426 60.6023C48.4593 60.2159 48.09 59.6515 47.9347 58.9091L49.2074 58.5909C49.3286 59.0606 49.5578 59.4129 49.8949 59.6477C50.2358 59.8826 50.6809 60 51.2301 60C51.8551 60 52.3513 59.8674 52.7188 59.6023C53.09 59.3333 53.2756 59.0114 53.2756 58.6364C53.2756 58.3333 53.1695 58.0795 52.9574 57.875C52.7453 57.6667 52.4195 57.5114 51.9801 57.4091L50.5256 57.0682C49.7263 56.8788 49.1392 56.5852 48.7642 56.1875C48.393 55.786 48.2074 55.2841 48.2074 54.6818C48.2074 54.1894 48.3456 53.7538 48.6222 53.375C48.9025 52.9962 49.2831 52.6989 49.7642 52.483C50.2491 52.267 50.7983 52.1591 51.4119 52.1591C52.2756 52.1591 52.9536 52.3485 53.446 52.7273C53.9422 53.1061 54.2945 53.6061 54.5028 54.2273ZM62.8622 54.2273L61.6577 54.5682C61.5819 54.3674 61.4702 54.1723 61.3224 53.983C61.1785 53.7898 60.9815 53.6307 60.7315 53.5057C60.4815 53.3807 60.1615 53.3182 59.7713 53.3182C59.2372 53.3182 58.7921 53.4413 58.4361 53.6875C58.0838 53.9299 57.9077 54.2386 57.9077 54.6136C57.9077 54.947 58.0289 55.2102 58.2713 55.4034C58.5137 55.5966 58.8925 55.7576 59.4077 55.8864L60.7031 56.2045C61.4834 56.3939 62.0649 56.6837 62.4474 57.0739C62.83 57.4602 63.0213 57.9583 63.0213 58.5682C63.0213 59.0682 62.8774 59.5152 62.5895 59.9091C62.3054 60.303 61.9077 60.6136 61.3963 60.8409C60.8849 61.0682 60.2902 61.1818 59.6122 61.1818C58.7221 61.1818 57.9853 60.9886 57.402 60.6023C56.8187 60.2159 56.4493 59.6515 56.294 58.9091L57.5668 58.5909C57.688 59.0606 57.9171 59.4129 58.2543 59.6477C58.5952 59.8826 59.0402 60 59.5895 60C60.2145 60 60.7107 59.8674 61.0781 59.6023C61.4493 59.3333 61.6349 59.0114 61.6349 58.6364C61.6349 58.3333 61.5289 58.0795 61.3168 57.875C61.1046 57.6667 60.7789 57.5114 60.3395 57.4091L58.8849 57.0682C58.0857 56.8788 57.4986 56.5852 57.1236 56.1875C56.7524 55.786 56.5668 55.2841 56.5668 54.6818C56.5668 54.1894 56.705 53.7538 56.9815 53.375C57.2618 52.9962 57.6425 52.6989 58.1236 52.483C58.6084 52.267 59.1577 52.1591 59.7713 52.1591C60.6349 52.1591 61.313 52.3485 61.8054 52.7273C62.3016 53.1061 62.6539 53.6061 62.8622 54.2273ZM66.017 61.0909C65.7367 61.0909 65.4962 60.9905 65.2955 60.7898C65.0947 60.589 64.9943 60.3485 64.9943 60.0682C64.9943 59.7879 65.0947 59.5473 65.2955 59.3466C65.4962 59.1458 65.7367 59.0455 66.017 59.0455C66.2973 59.0455 66.5379 59.1458 66.7386 59.3466C66.9394 59.5473 67.0398 59.7879 67.0398 60.0682C67.0398 60.2538 66.9924 60.4242 66.8977 60.5795C66.8068 60.7348 66.6837 60.8598 66.5284 60.9545C66.3769 61.0455 66.2064 61.0909 66.017 61.0909ZM66.017 54.6136C65.7367 54.6136 65.4962 54.5133 65.2955 54.3125C65.0947 54.1117 64.9943 53.8712 64.9943 53.5909C64.9943 53.3106 65.0947 53.0701 65.2955 52.8693C65.4962 52.6686 65.7367 52.5682 66.017 52.5682C66.2973 52.5682 66.5379 52.6686 66.7386 52.8693C66.9394 53.0701 67.0398 53.3106 67.0398 53.5909C67.0398 53.7765 66.9924 53.947 66.8977 54.1023C66.8068 54.2576 66.6837 54.3826 66.5284 54.4773C66.3769 54.5682 66.2064 54.6136 66.017 54.6136ZM74.1278 61V49.3636H78.196C79.0066 49.3636 79.6752 49.5038 80.2017 49.7841C80.7282 50.0606 81.1203 50.4337 81.3778 50.9034C81.6354 51.3693 81.7642 51.8864 81.7642 52.4545C81.7642 52.9545 81.6752 53.3674 81.4972 53.6932C81.3229 54.0189 81.0919 54.2765 80.804 54.4659C80.5199 54.6553 80.2112 54.7955 79.8778 54.8864V55C80.2339 55.0227 80.5919 55.1477 80.9517 55.375C81.3116 55.6023 81.6127 55.928 81.8551 56.3523C82.0975 56.7765 82.2188 57.2955 82.2188 57.9091C82.2188 58.4924 82.0862 59.017 81.821 59.483C81.5559 59.9489 81.1373 60.3182 80.5653 60.5909C79.9934 60.8636 79.2491 61 78.3324 61H74.1278ZM75.5369 59.75H78.3324C79.2528 59.75 79.9063 59.572 80.2926 59.2159C80.6828 58.8561 80.8778 58.4205 80.8778 57.9091C80.8778 57.5152 80.7775 57.1515 80.5767 56.8182C80.3759 56.4811 80.09 56.2121 79.7188 56.0114C79.3475 55.8068 78.9081 55.7045 78.4006 55.7045H75.5369V59.75ZM75.5369 54.4773H78.1506C78.5748 54.4773 78.9574 54.3939 79.2983 54.2273C79.643 54.0606 79.9157 53.8258 80.1165 53.5227C80.321 53.2197 80.4233 52.8636 80.4233 52.4545C80.4233 51.9432 80.2453 51.5095 79.8892 51.1534C79.5331 50.7936 78.9688 50.6136 78.196 50.6136H75.5369V54.4773ZM85.6932 49.3636V61H84.3523V49.3636H85.6932ZM93.6491 57.4318V52.2727H94.9901V61H93.6491V59.5227H93.5582C93.3537 59.9659 93.0355 60.3428 92.6037 60.6534C92.1719 60.9602 91.6264 61.1136 90.9673 61.1136C90.4219 61.1136 89.937 60.9943 89.5128 60.7557C89.0885 60.5133 88.7552 60.1496 88.5128 59.6648C88.2704 59.1761 88.1491 58.5606 88.1491 57.8182V52.2727H89.4901V57.7273C89.4901 58.3636 89.6681 58.8712 90.0241 59.25C90.384 59.6288 90.8423 59.8182 91.3991 59.8182C91.7325 59.8182 92.0715 59.733 92.4162 59.5625C92.7647 59.392 93.0563 59.1307 93.2912 58.7784C93.5298 58.4261 93.6491 57.9773 93.6491 57.4318ZM101.105 61.1818C100.264 61.1818 99.5388 60.9962 98.929 60.625C98.3229 60.25 97.8551 59.7273 97.5256 59.0568C97.1998 58.3826 97.0369 57.5985 97.0369 56.7045C97.0369 55.8106 97.1998 55.0227 97.5256 54.3409C97.8551 53.6553 98.3134 53.1212 98.9006 52.7386C99.4915 52.3523 100.181 52.1591 100.969 52.1591C101.423 52.1591 101.872 52.2348 102.315 52.3864C102.759 52.5379 103.162 52.7841 103.526 53.125C103.889 53.4621 104.179 53.9091 104.395 54.4659C104.611 55.0227 104.719 55.7083 104.719 56.5227V57.0909H97.9915V55.9318H103.355C103.355 55.4394 103.257 55 103.06 54.6136C102.866 54.2273 102.59 53.9223 102.23 53.6989C101.874 53.4754 101.454 53.3636 100.969 53.3636C100.435 53.3636 99.9725 53.4962 99.5824 53.7614C99.196 54.0227 98.8987 54.3636 98.6903 54.7841C98.482 55.2045 98.3778 55.6553 98.3778 56.1364V56.9091C98.3778 57.5682 98.4915 58.1269 98.7188 58.5852C98.9498 59.0398 99.2699 59.3864 99.679 59.625C100.088 59.8598 100.563 59.9773 101.105 59.9773C101.457 59.9773 101.776 59.928 102.06 59.8295C102.348 59.7273 102.596 59.5758 102.804 59.375C103.012 59.1705 103.173 58.9167 103.287 58.6136L104.582 58.9773C104.446 59.4167 104.217 59.803 103.895 60.1364C103.573 60.4659 103.175 60.7235 102.702 60.9091C102.228 61.0909 101.696 61.1818 101.105 61.1818ZM110.554 52.2727V53.4091H106.031V52.2727H110.554ZM107.349 50.1818H108.69V58.5C108.69 58.8788 108.745 59.1629 108.855 59.3523C108.969 59.5379 109.113 59.6629 109.287 59.7273C109.465 59.7879 109.652 59.8182 109.849 59.8182C109.997 59.8182 110.118 59.8106 110.213 59.7955C110.308 59.7765 110.384 59.7614 110.44 59.75L110.713 60.9545C110.622 60.9886 110.495 61.0227 110.332 61.0568C110.17 61.0947 109.963 61.1136 109.713 61.1136C109.334 61.1136 108.963 61.0322 108.599 60.8693C108.24 60.7064 107.94 60.4583 107.702 60.125C107.467 59.7917 107.349 59.3712 107.349 58.8636V50.1818ZM116.023 61.1818C115.235 61.1818 114.544 60.9943 113.949 60.6193C113.358 60.2443 112.896 59.7197 112.562 59.0455C112.233 58.3712 112.068 57.5833 112.068 56.6818C112.068 55.7727 112.233 54.9792 112.562 54.3011C112.896 53.6231 113.358 53.0966 113.949 52.7216C114.544 52.3466 115.235 52.1591 116.023 52.1591C116.811 52.1591 117.5 52.3466 118.091 52.7216C118.686 53.0966 119.148 53.6231 119.477 54.3011C119.811 54.9792 119.977 55.7727 119.977 56.6818C119.977 57.5833 119.811 58.3712 119.477 59.0455C119.148 59.7197 118.686 60.2443 118.091 60.6193C117.5 60.9943 116.811 61.1818 116.023 61.1818ZM116.023 59.9773C116.621 59.9773 117.114 59.8239 117.5 59.517C117.886 59.2102 118.172 58.8068 118.358 58.3068C118.544 57.8068 118.636 57.2652 118.636 56.6818C118.636 56.0985 118.544 55.5549 118.358 55.0511C118.172 54.5473 117.886 54.1402 117.5 53.8295C117.114 53.5189 116.621 53.3636 116.023 53.3636C115.424 53.3636 114.932 53.5189 114.545 53.8295C114.159 54.1402 113.873 54.5473 113.688 55.0511C113.502 55.5549 113.409 56.0985 113.409 56.6818C113.409 57.2652 113.502 57.8068 113.688 58.3068C113.873 58.8068 114.159 59.2102 114.545 59.517C114.932 59.8239 115.424 59.9773 116.023 59.9773ZM125.57 61.1818C124.782 61.1818 124.09 60.9943 123.496 60.6193C122.905 60.2443 122.443 59.7197 122.109 59.0455C121.78 58.3712 121.615 57.5833 121.615 56.6818C121.615 55.7727 121.78 54.9792 122.109 54.3011C122.443 53.6231 122.905 53.0966 123.496 52.7216C124.09 52.3466 124.782 52.1591 125.57 52.1591C126.357 52.1591 127.047 52.3466 127.638 52.7216C128.232 53.0966 128.695 53.6231 129.024 54.3011C129.357 54.9792 129.524 55.7727 129.524 56.6818C129.524 57.5833 129.357 58.3712 129.024 59.0455C128.695 59.7197 128.232 60.2443 127.638 60.6193C127.047 60.9943 126.357 61.1818 125.57 61.1818ZM125.57 59.9773C126.168 59.9773 126.661 59.8239 127.047 59.517C127.433 59.2102 127.719 58.8068 127.905 58.3068C128.09 57.8068 128.183 57.2652 128.183 56.6818C128.183 56.0985 128.09 55.5549 127.905 55.0511C127.719 54.5473 127.433 54.1402 127.047 53.8295C126.661 53.5189 126.168 53.3636 125.57 53.3636C124.971 53.3636 124.479 53.5189 124.092 53.8295C123.706 54.1402 123.42 54.5473 123.234 55.0511C123.049 55.5549 122.956 56.0985 122.956 56.6818C122.956 57.2652 123.049 57.8068 123.234 58.3068C123.42 58.8068 123.706 59.2102 124.092 59.517C124.479 59.8239 124.971 59.9773 125.57 59.9773ZM135.366 52.2727V53.4091H130.844V52.2727H135.366ZM132.162 50.1818H133.503V58.5C133.503 58.8788 133.558 59.1629 133.668 59.3523C133.781 59.5379 133.925 59.6629 134.099 59.7273C134.277 59.7879 134.465 59.8182 134.662 59.8182C134.81 59.8182 134.931 59.8106 135.026 59.7955C135.12 59.7765 135.196 59.7614 135.253 59.75L135.526 60.9545C135.435 60.9886 135.308 61.0227 135.145 61.0568C134.982 61.0947 134.776 61.1136 134.526 61.1136C134.147 61.1136 133.776 61.0322 133.412 60.8693C133.052 60.7064 132.753 60.4583 132.514 60.125C132.279 59.7917 132.162 59.3712 132.162 58.8636V50.1818ZM138.912 55.75V61H137.571V49.3636H138.912V53.6364H139.026C139.23 53.1856 139.537 52.8277 139.946 52.5625C140.359 52.2936 140.908 52.1591 141.594 52.1591C142.188 52.1591 142.709 52.2784 143.156 52.517C143.603 52.7519 143.95 53.1136 144.196 53.6023C144.446 54.0871 144.571 54.7045 144.571 55.4545V61H143.23V55.5455C143.23 54.8523 143.05 54.3163 142.69 53.9375C142.334 53.5549 141.84 53.3636 141.207 53.3636C140.768 53.3636 140.374 53.4564 140.026 53.642C139.681 53.8277 139.408 54.0985 139.207 54.4545C139.01 54.8106 138.912 55.2424 138.912 55.75ZM151.229 58.6136V57.4545L156.342 49.3636H157.183V51.1591H156.615L152.751 57.2727V57.3636H159.638V58.6136H151.229ZM156.706 61V58.2614V57.7216V49.3636H158.047V61H156.706ZM162.22 61.0909C161.94 61.0909 161.699 60.9905 161.499 60.7898C161.298 60.589 161.197 60.3485 161.197 60.0682C161.197 59.7879 161.298 59.5473 161.499 59.3466C161.699 59.1458 161.94 59.0455 162.22 59.0455C162.5 59.0455 162.741 59.1458 162.942 59.3466C163.143 59.5473 163.243 59.7879 163.243 60.0682C163.243 60.2538 163.196 60.4242 163.101 60.5795C163.01 60.7348 162.887 60.8598 162.732 60.9545C162.58 61.0455 162.41 61.0909 162.22 61.0909ZM165.626 61V59.9773L169.467 55.7727C169.918 55.2803 170.289 54.8523 170.581 54.4886C170.873 54.1212 171.089 53.7765 171.229 53.4545C171.373 53.1288 171.445 52.7879 171.445 52.4318C171.445 52.0227 171.346 51.6686 171.149 51.3693C170.956 51.0701 170.691 50.839 170.354 50.6761C170.017 50.5133 169.638 50.4318 169.217 50.4318C168.77 50.4318 168.38 50.5246 168.047 50.7102C167.717 50.892 167.462 51.1477 167.28 51.4773C167.102 51.8068 167.013 52.1932 167.013 52.6364H165.672C165.672 51.9545 165.829 51.3561 166.143 50.8409C166.458 50.3258 166.886 49.9242 167.428 49.6364C167.973 49.3485 168.585 49.2045 169.263 49.2045C169.945 49.2045 170.549 49.3485 171.075 49.6364C171.602 49.9242 172.015 50.3125 172.314 50.8011C172.613 51.2898 172.763 51.8333 172.763 52.4318C172.763 52.8598 172.685 53.2784 172.53 53.6875C172.378 54.0928 172.113 54.5455 171.734 55.0455C171.359 55.5417 170.839 56.1477 170.172 56.8636L167.558 59.6591V59.75H172.967V61H165.626ZM7.77273 76.2727C7.70455 75.697 7.42803 75.25 6.94318 74.9318C6.45833 74.6136 5.86364 74.4545 5.15909 74.4545C4.64394 74.4545 4.19318 74.5379 3.80682 74.7045C3.42424 74.8712 3.125 75.1004 2.90909 75.392C2.69697 75.6837 2.59091 76.0152 2.59091 76.3864C2.59091 76.697 2.66477 76.964 2.8125 77.1875C2.96402 77.4072 3.1572 77.5909 3.39205 77.7386C3.62689 77.8826 3.87311 78.0019 4.13068 78.0966C4.38826 78.1875 4.625 78.2614 4.84091 78.3182L6.02273 78.6364C6.32576 78.7159 6.66288 78.8258 7.03409 78.9659C7.40909 79.1061 7.76705 79.2973 8.10795 79.5398C8.45265 79.7784 8.73674 80.0852 8.96023 80.4602C9.18371 80.8352 9.29545 81.2955 9.29545 81.8409C9.29545 82.4697 9.13068 83.0379 8.80114 83.5455C8.47538 84.053 7.99811 84.4564 7.36932 84.7557C6.74432 85.0549 5.98485 85.2045 5.09091 85.2045C4.25758 85.2045 3.53598 85.0701 2.92614 84.8011C2.32008 84.5322 1.8428 84.1572 1.49432 83.6761C1.14962 83.1951 0.954545 82.6364 0.909091 82H2.36364C2.40152 82.4394 2.54924 82.803 2.80682 83.0909C3.06818 83.375 3.39773 83.5871 3.79545 83.7273C4.19697 83.8636 4.62879 83.9318 5.09091 83.9318C5.62879 83.9318 6.11174 83.8447 6.53977 83.6705C6.9678 83.4924 7.30682 83.2462 7.55682 82.9318C7.80682 82.6136 7.93182 82.2424 7.93182 81.8182C7.93182 81.4318 7.82386 81.1174 7.60795 80.875C7.39205 80.6326 7.10795 80.4356 6.75568 80.2841C6.40341 80.1326 6.02273 80 5.61364 79.8864L4.18182 79.4773C3.27273 79.2159 2.55303 78.8428 2.02273 78.358C1.49242 77.8731 1.22727 77.2386 1.22727 76.4545C1.22727 75.803 1.40341 75.2348 1.75568 74.75C2.11174 74.2614 2.58902 73.8826 3.1875 73.6136C3.78977 73.3409 4.46212 73.2045 5.20455 73.2045C5.95455 73.2045 6.62121 73.339 7.20455 73.608C7.78788 73.8731 8.25 74.2367 8.59091 74.6989C8.93561 75.161 9.11742 75.6856 9.13636 76.2727H7.77273ZM11.4304 85V76.2727H12.7713V85H11.4304ZM12.1122 74.8182C11.8509 74.8182 11.6255 74.7292 11.4361 74.5511C11.2505 74.3731 11.1577 74.1591 11.1577 73.9091C11.1577 73.6591 11.2505 73.4451 11.4361 73.267C11.6255 73.089 11.8509 73 12.1122 73C12.3736 73 12.5971 73.089 12.7827 73.267C12.9721 73.4451 13.0668 73.6591 13.0668 73.9091C13.0668 74.1591 12.9721 74.3731 12.7827 74.5511C12.5971 74.7292 12.3736 74.8182 12.1122 74.8182ZM18.75 88.4545C18.1023 88.4545 17.5455 88.3712 17.0795 88.2045C16.6136 88.0417 16.2254 87.8258 15.9148 87.5568C15.608 87.2917 15.3636 87.0076 15.1818 86.7045L16.25 85.9545C16.3712 86.1136 16.5246 86.2955 16.7102 86.5C16.8958 86.7083 17.1496 86.8883 17.4716 87.0398C17.7973 87.1951 18.2235 87.2727 18.75 87.2727C19.4545 87.2727 20.036 87.1023 20.4943 86.7614C20.9527 86.4205 21.1818 85.8864 21.1818 85.1591V83.3864H21.0682C20.9697 83.5455 20.8295 83.7424 20.6477 83.9773C20.4697 84.2083 20.2121 84.4148 19.875 84.5966C19.5417 84.7746 19.0909 84.8636 18.5227 84.8636C17.8182 84.8636 17.1856 84.697 16.625 84.3636C16.0682 84.0303 15.6269 83.5455 15.3011 82.9091C14.9792 82.2727 14.8182 81.5 14.8182 80.5909C14.8182 79.697 14.9754 78.9186 15.2898 78.2557C15.6042 77.589 16.0417 77.0739 16.6023 76.7102C17.1629 76.3428 17.8106 76.1591 18.5455 76.1591C19.1136 76.1591 19.5644 76.2538 19.8977 76.4432C20.2348 76.6288 20.4924 76.8409 20.6705 77.0795C20.8523 77.3144 20.9924 77.5076 21.0909 77.6591H21.2273V76.2727H22.5227V85.25C22.5227 86 22.3523 86.6098 22.0114 87.0795C21.6742 87.553 21.2197 87.8996 20.6477 88.1193C20.0795 88.3428 19.447 88.4545 18.75 88.4545ZM18.7045 83.6591C19.2424 83.6591 19.697 83.536 20.0682 83.2898C20.4394 83.0436 20.7216 82.6894 20.9148 82.2273C21.108 81.7652 21.2045 81.2121 21.2045 80.5682C21.2045 79.9394 21.1098 79.3845 20.9205 78.9034C20.7311 78.4223 20.4508 78.0455 20.0795 77.7727C19.7083 77.5 19.25 77.3636 18.7045 77.3636C18.1364 77.3636 17.6629 77.5076 17.2841 77.7955C16.9091 78.0833 16.6269 78.4697 16.4375 78.9545C16.2519 79.4394 16.1591 79.9773 16.1591 80.5682C16.1591 81.1742 16.2538 81.7102 16.4432 82.1761C16.6364 82.6383 16.9205 83.0019 17.2955 83.267C17.6742 83.5284 18.1439 83.6591 18.7045 83.6591ZM26.3182 79.75V85H24.9773V76.2727H26.2727V77.6364H26.3864C26.5909 77.1932 26.9015 76.8371 27.3182 76.5682C27.7348 76.2955 28.2727 76.1591 28.9318 76.1591C29.5227 76.1591 30.0398 76.2803 30.483 76.5227C30.9261 76.7614 31.2708 77.125 31.517 77.6136C31.7633 78.0985 31.8864 78.7121 31.8864 79.4545V85H30.5455V79.5455C30.5455 78.8598 30.3674 78.3258 30.0114 77.9432C29.6553 77.5568 29.1667 77.3636 28.5455 77.3636C28.1174 77.3636 27.7348 77.4564 27.3977 77.642C27.0644 77.8277 26.8011 78.0985 26.608 78.4545C26.4148 78.8106 26.3182 79.2424 26.3182 79.75ZM36.9048 85.2045C36.3518 85.2045 35.8499 85.1004 35.3991 84.892C34.9484 84.6799 34.5904 84.375 34.3253 83.9773C34.0601 83.5758 33.9276 83.0909 33.9276 82.5227C33.9276 82.0227 34.026 81.6174 34.223 81.3068C34.42 80.9924 34.6832 80.7462 35.0128 80.5682C35.3423 80.3902 35.706 80.2576 36.1037 80.1705C36.5052 80.0795 36.9086 80.0076 37.3139 79.9545C37.8442 79.8864 38.2741 79.8352 38.6037 79.8011C38.937 79.7633 39.1795 79.7008 39.331 79.6136C39.4863 79.5265 39.5639 79.375 39.5639 79.1591V79.1136C39.5639 78.553 39.4105 78.1174 39.1037 77.8068C38.8007 77.4962 38.3404 77.3409 37.723 77.3409C37.0829 77.3409 36.581 77.4811 36.2173 77.7614C35.8537 78.0417 35.598 78.3409 35.4503 78.6591L34.1776 78.2045C34.4048 77.6742 34.7079 77.2614 35.0866 76.9659C35.4692 76.6667 35.8859 76.4583 36.3366 76.3409C36.7912 76.2197 37.2382 76.1591 37.6776 76.1591C37.9579 76.1591 38.2798 76.1932 38.6435 76.2614C39.0109 76.3258 39.3651 76.4602 39.706 76.6648C40.0507 76.8693 40.3366 77.178 40.5639 77.5909C40.7912 78.0038 40.9048 78.5568 40.9048 79.25V85H39.5639V83.8182H39.4957C39.4048 84.0076 39.2533 84.2102 39.0412 84.4261C38.8291 84.642 38.5469 84.8258 38.1946 84.9773C37.8423 85.1288 37.4124 85.2045 36.9048 85.2045ZM37.1094 84C37.6397 84 38.0866 83.8958 38.4503 83.6875C38.8177 83.4792 39.0942 83.2102 39.2798 82.8807C39.4692 82.5511 39.5639 82.2045 39.5639 81.8409V80.6136C39.5071 80.6818 39.3821 80.7443 39.1889 80.8011C38.9995 80.8542 38.7798 80.9015 38.5298 80.9432C38.2836 80.9811 38.0431 81.0152 37.8082 81.0455C37.5772 81.072 37.3897 81.0947 37.2457 81.1136C36.8973 81.1591 36.5715 81.233 36.2685 81.3352C35.9692 81.4337 35.7268 81.5833 35.5412 81.7841C35.3594 81.9811 35.2685 82.25 35.2685 82.5909C35.2685 83.0568 35.4408 83.4091 35.7855 83.6477C36.134 83.8826 36.5753 84 37.1094 84ZM44.6932 73.3636V85H43.3523V73.3636H44.6932ZM51.6491 85V76.2727H52.9446V77.5909H53.0355C53.1946 77.1591 53.4825 76.8087 53.8991 76.5398C54.3158 76.2708 54.7855 76.1364 55.3082 76.1364C55.4067 76.1364 55.5298 76.1383 55.6776 76.142C55.8253 76.1458 55.937 76.1515 56.0128 76.1591V77.5227C55.9673 77.5114 55.8632 77.4943 55.7003 77.4716C55.5412 77.4451 55.3726 77.4318 55.1946 77.4318C54.7704 77.4318 54.3916 77.5208 54.0582 77.6989C53.7287 77.8731 53.4673 78.1155 53.2741 78.4261C53.0848 78.733 52.9901 79.0833 52.9901 79.4773V85H51.6491ZM60.1705 85.2045C59.6174 85.2045 59.1155 85.1004 58.6648 84.892C58.214 84.6799 57.8561 84.375 57.5909 83.9773C57.3258 83.5758 57.1932 83.0909 57.1932 82.5227C57.1932 82.0227 57.2917 81.6174 57.4886 81.3068C57.6856 80.9924 57.9489 80.7462 58.2784 80.5682C58.608 80.3902 58.9716 80.2576 59.3693 80.1705C59.7708 80.0795 60.1742 80.0076 60.5795 79.9545C61.1098 79.8864 61.5398 79.8352 61.8693 79.8011C62.2027 79.7633 62.4451 79.7008 62.5966 79.6136C62.7519 79.5265 62.8295 79.375 62.8295 79.1591V79.1136C62.8295 78.553 62.6761 78.1174 62.3693 77.8068C62.0663 77.4962 61.6061 77.3409 60.9886 77.3409C60.3485 77.3409 59.8466 77.4811 59.483 77.7614C59.1193 78.0417 58.8636 78.3409 58.7159 78.6591L57.4432 78.2045C57.6705 77.6742 57.9735 77.2614 58.3523 76.9659C58.7348 76.6667 59.1515 76.4583 59.6023 76.3409C60.0568 76.2197 60.5038 76.1591 60.9432 76.1591C61.2235 76.1591 61.5455 76.1932 61.9091 76.2614C62.2765 76.3258 62.6307 76.4602 62.9716 76.6648C63.3163 76.8693 63.6023 77.178 63.8295 77.5909C64.0568 78.0038 64.1705 78.5568 64.1705 79.25V85H62.8295V83.8182H62.7614C62.6705 84.0076 62.5189 84.2102 62.3068 84.4261C62.0947 84.642 61.8125 84.8258 61.4602 84.9773C61.108 85.1288 60.678 85.2045 60.1705 85.2045ZM60.375 84C60.9053 84 61.3523 83.8958 61.7159 83.6875C62.0833 83.4792 62.3598 83.2102 62.5455 82.8807C62.7348 82.5511 62.8295 82.2045 62.8295 81.8409V80.6136C62.7727 80.6818 62.6477 80.7443 62.4545 80.8011C62.2652 80.8542 62.0455 80.9015 61.7955 80.9432C61.5492 80.9811 61.3087 81.0152 61.0739 81.0455C60.8428 81.072 60.6553 81.0947 60.5114 81.1136C60.1629 81.1591 59.8371 81.233 59.5341 81.3352C59.2348 81.4337 58.9924 81.5833 58.8068 81.7841C58.625 81.9811 58.5341 82.25 58.5341 82.5909C58.5341 83.0568 58.7064 83.4091 59.0511 83.6477C59.3996 83.8826 59.8409 84 60.375 84ZM67.9588 79.75V85H66.6179V76.2727H67.9134V77.6364H68.027C68.2315 77.1932 68.5421 76.8371 68.9588 76.5682C69.3755 76.2955 69.9134 76.1591 70.5724 76.1591C71.1634 76.1591 71.6804 76.2803 72.1236 76.5227C72.5668 76.7614 72.9115 77.125 73.1577 77.6136C73.4039 78.0985 73.527 78.7121 73.527 79.4545V85H72.1861V79.5455C72.1861 78.8598 72.008 78.3258 71.652 77.9432C71.2959 77.5568 70.8073 77.3636 70.1861 77.3636C69.758 77.3636 69.3755 77.4564 69.0384 77.642C68.705 77.8277 68.4418 78.0985 68.2486 78.4545C68.0554 78.8106 67.9588 79.2424 67.9588 79.75ZM79.5 88.4545C78.8523 88.4545 78.2955 88.3712 77.8295 88.2045C77.3636 88.0417 76.9754 87.8258 76.6648 87.5568C76.358 87.2917 76.1136 87.0076 75.9318 86.7045L77 85.9545C77.1212 86.1136 77.2746 86.2955 77.4602 86.5C77.6458 86.7083 77.8996 86.8883 78.2216 87.0398C78.5473 87.1951 78.9735 87.2727 79.5 87.2727C80.2045 87.2727 80.786 87.1023 81.2443 86.7614C81.7027 86.4205 81.9318 85.8864 81.9318 85.1591V83.3864H81.8182C81.7197 83.5455 81.5795 83.7424 81.3977 83.9773C81.2197 84.2083 80.9621 84.4148 80.625 84.5966C80.2917 84.7746 79.8409 84.8636 79.2727 84.8636C78.5682 84.8636 77.9356 84.697 77.375 84.3636C76.8182 84.0303 76.3769 83.5455 76.0511 82.9091C75.7292 82.2727 75.5682 81.5 75.5682 80.5909C75.5682 79.697 75.7254 78.9186 76.0398 78.2557C76.3542 77.589 76.7917 77.0739 77.3523 76.7102C77.9129 76.3428 78.5606 76.1591 79.2955 76.1591C79.8636 76.1591 80.3144 76.2538 80.6477 76.4432C80.9848 76.6288 81.2424 76.8409 81.4205 77.0795C81.6023 77.3144 81.7424 77.5076 81.8409 77.6591H81.9773V76.2727H83.2727V85.25C83.2727 86 83.1023 86.6098 82.7614 87.0795C82.4242 87.553 81.9697 87.8996 81.3977 88.1193C80.8295 88.3428 80.197 88.4545 79.5 88.4545ZM79.4545 83.6591C79.9924 83.6591 80.447 83.536 80.8182 83.2898C81.1894 83.0436 81.4716 82.6894 81.6648 82.2273C81.858 81.7652 81.9545 81.2121 81.9545 80.5682C81.9545 79.9394 81.8598 79.3845 81.6705 78.9034C81.4811 78.4223 81.2008 78.0455 80.8295 77.7727C80.4583 77.5 80 77.3636 79.4545 77.3636C78.8864 77.3636 78.4129 77.5076 78.0341 77.7955C77.6591 78.0833 77.3769 78.4697 77.1875 78.9545C77.0019 79.4394 76.9091 79.9773 76.9091 80.5682C76.9091 81.1742 77.0038 81.7102 77.1932 82.1761C77.3864 82.6383 77.6705 83.0019 78.0455 83.267C78.4242 83.5284 78.8939 83.6591 79.4545 83.6591ZM89.3864 85.1818C88.5455 85.1818 87.8201 84.9962 87.2102 84.625C86.6042 84.25 86.1364 83.7273 85.8068 83.0568C85.4811 82.3826 85.3182 81.5985 85.3182 80.7045C85.3182 79.8106 85.4811 79.0227 85.8068 78.3409C86.1364 77.6553 86.5947 77.1212 87.1818 76.7386C87.7727 76.3523 88.4621 76.1591 89.25 76.1591C89.7045 76.1591 90.1534 76.2348 90.5966 76.3864C91.0398 76.5379 91.4432 76.7841 91.8068 77.125C92.1705 77.4621 92.4602 77.9091 92.6761 78.4659C92.892 79.0227 93 79.7083 93 80.5227V81.0909H86.2727V79.9318H91.6364C91.6364 79.4394 91.5379 79 91.3409 78.6136C91.1477 78.2273 90.8712 77.9223 90.5114 77.6989C90.1553 77.4754 89.7348 77.3636 89.25 77.3636C88.7159 77.3636 88.2538 77.4962 87.8636 77.7614C87.4773 78.0227 87.1799 78.3636 86.9716 78.7841C86.7633 79.2045 86.6591 79.6553 86.6591 80.1364V80.9091C86.6591 81.5682 86.7727 82.1269 87 82.5852C87.2311 83.0398 87.5511 83.3864 87.9602 83.625C88.3693 83.8598 88.8447 83.9773 89.3864 83.9773C89.7386 83.9773 90.0568 83.928 90.3409 83.8295C90.6288 83.7273 90.8769 83.5758 91.0852 83.375C91.2936 83.1705 91.4545 82.9167 91.5682 82.6136L92.8636 82.9773C92.7273 83.4167 92.4981 83.803 92.1761 84.1364C91.8542 84.4659 91.4564 84.7235 90.983 84.9091C90.5095 85.0909 89.9773 85.1818 89.3864 85.1818ZM96.017 85.0909C95.7367 85.0909 95.4962 84.9905 95.2955 84.7898C95.0947 84.589 94.9943 84.3485 94.9943 84.0682C94.9943 83.7879 95.0947 83.5473 95.2955 83.3466C95.4962 83.1458 95.7367 83.0455 96.017 83.0455C96.2973 83.0455 96.5379 83.1458 96.7386 83.3466C96.9394 83.5473 97.0398 83.7879 97.0398 84.0682C97.0398 84.2538 96.9924 84.4242 96.8977 84.5795C96.8068 84.7348 96.6837 84.8598 96.5284 84.9545C96.3769 85.0455 96.2064 85.0909 96.017 85.0909ZM96.017 78.6136C95.7367 78.6136 95.4962 78.5133 95.2955 78.3125C95.0947 78.1117 94.9943 77.8712 94.9943 77.5909C94.9943 77.3106 95.0947 77.0701 95.2955 76.8693C95.4962 76.6686 95.7367 76.5682 96.017 76.5682C96.2973 76.5682 96.5379 76.6686 96.7386 76.8693C96.9394 77.0701 97.0398 77.3106 97.0398 77.5909C97.0398 77.7765 96.9924 77.947 96.8977 78.1023C96.8068 78.2576 96.6837 78.3826 96.5284 78.4773C96.3769 78.5682 96.2064 78.6136 96.017 78.6136ZM107.56 85.1591C106.893 85.1591 106.293 85.0265 105.759 84.7614C105.224 84.4962 104.796 84.1326 104.474 83.6705C104.152 83.2083 103.976 82.6818 103.946 82.0909H105.31C105.363 82.6174 105.601 83.053 106.026 83.3977C106.454 83.7386 106.965 83.9091 107.56 83.9091C108.037 83.9091 108.461 83.7973 108.832 83.5739C109.207 83.3504 109.501 83.0436 109.713 82.6534C109.929 82.2595 110.037 81.8144 110.037 81.3182C110.037 80.8106 109.925 80.358 109.702 79.9602C109.482 79.5587 109.179 79.2424 108.793 79.0114C108.406 78.7803 107.965 78.6629 107.469 78.6591C107.113 78.6553 106.747 78.7102 106.372 78.8239C105.997 78.9337 105.688 79.0758 105.446 79.25L104.128 79.0909L104.832 73.3636H110.878V74.6136H106.014L105.605 78.0455H105.673C105.912 77.8561 106.211 77.6989 106.571 77.5739C106.931 77.4489 107.306 77.3864 107.696 77.3864C108.408 77.3864 109.043 77.5568 109.599 77.8977C110.16 78.2348 110.599 78.697 110.918 79.2841C111.24 79.8712 111.401 80.5417 111.401 81.2955C111.401 82.0379 111.234 82.7008 110.901 83.2841C110.571 83.8636 110.116 84.322 109.537 84.6591C108.957 84.9924 108.298 85.1591 107.56 85.1591ZM113.68 85V76.2727H114.976V77.6364H115.089C115.271 77.1705 115.565 76.8087 115.97 76.5511C116.375 76.2898 116.862 76.1591 117.43 76.1591C118.006 76.1591 118.485 76.2898 118.868 76.5511C119.254 76.8087 119.555 77.1705 119.771 77.6364H119.862C120.086 77.1856 120.421 76.8277 120.868 76.5625C121.315 76.2936 121.851 76.1591 122.476 76.1591C123.256 76.1591 123.894 76.4034 124.391 76.892C124.887 77.3769 125.135 78.1326 125.135 79.1591V85H123.794V79.1591C123.794 78.5152 123.618 78.0549 123.266 77.7784C122.913 77.5019 122.499 77.3636 122.021 77.3636C121.408 77.3636 120.932 77.5492 120.595 77.9205C120.258 78.2879 120.089 78.7538 120.089 79.3182V85H118.726V79.0227C118.726 78.5265 118.565 78.1269 118.243 77.8239C117.921 77.517 117.506 77.3636 116.999 77.3636C116.65 77.3636 116.324 77.4564 116.021 77.642C115.722 77.8277 115.48 78.0852 115.294 78.4148C115.112 78.7405 115.021 79.1174 115.021 79.5455V85H113.68ZM1.40909 109V97.3636H5.34091C6.25 97.3636 6.99621 97.5189 7.57955 97.8295C8.16288 98.1364 8.5947 98.5587 8.875 99.0966C9.1553 99.6345 9.29545 100.246 9.29545 100.932C9.29545 101.617 9.1553 102.225 8.875 102.756C8.5947 103.286 8.16477 103.703 7.58523 104.006C7.00568 104.305 6.26515 104.455 5.36364 104.455H2.18182V103.182H5.31818C5.93939 103.182 6.43939 103.091 6.81818 102.909C7.20076 102.727 7.47727 102.47 7.64773 102.136C7.82197 101.799 7.90909 101.398 7.90909 100.932C7.90909 100.466 7.82197 100.059 7.64773 99.7102C7.47349 99.3617 7.19508 99.0928 6.8125 98.9034C6.42992 98.7102 5.92424 98.6136 5.29545 98.6136H2.81818V109H1.40909ZM6.88636 103.773L9.75 109H8.11364L5.29545 103.773H6.88636ZM15.027 109.182C14.1861 109.182 13.4607 108.996 12.8509 108.625C12.2448 108.25 11.777 107.727 11.4474 107.057C11.1217 106.383 10.9588 105.598 10.9588 104.705C10.9588 103.811 11.1217 103.023 11.4474 102.341C11.777 101.655 12.2353 101.121 12.8224 100.739C13.4134 100.352 14.1027 100.159 14.8906 100.159C15.3452 100.159 15.794 100.235 16.2372 100.386C16.6804 100.538 17.0838 100.784 17.4474 101.125C17.8111 101.462 18.1009 101.909 18.3168 102.466C18.5327 103.023 18.6406 103.708 18.6406 104.523V105.091H11.9134V103.932H17.277C17.277 103.439 17.1785 103 16.9815 102.614C16.7884 102.227 16.5118 101.922 16.152 101.699C15.7959 101.475 15.3755 101.364 14.8906 101.364C14.3565 101.364 13.8944 101.496 13.5043 101.761C13.1179 102.023 12.8205 102.364 12.6122 102.784C12.4039 103.205 12.2997 103.655 12.2997 104.136V104.909C12.2997 105.568 12.4134 106.127 12.6406 106.585C12.8717 107.04 13.1918 107.386 13.6009 107.625C14.0099 107.86 14.4853 107.977 15.027 107.977C15.3793 107.977 15.6974 107.928 15.9815 107.83C16.2694 107.727 16.5175 107.576 16.7259 107.375C16.9342 107.17 17.0952 106.917 17.2088 106.614L18.5043 106.977C18.3679 107.417 18.1387 107.803 17.8168 108.136C17.4948 108.466 17.0971 108.723 16.6236 108.909C16.1501 109.091 15.6179 109.182 15.027 109.182ZM24.2259 109.182C23.4077 109.182 22.7031 108.989 22.1122 108.602C21.5213 108.216 21.0668 107.684 20.7486 107.006C20.4304 106.328 20.2713 105.553 20.2713 104.682C20.2713 103.795 20.4342 103.013 20.7599 102.335C21.0895 101.653 21.5478 101.121 22.1349 100.739C22.7259 100.352 23.4152 100.159 24.2031 100.159C24.8168 100.159 25.3698 100.273 25.8622 100.5C26.3546 100.727 26.758 101.045 27.0724 101.455C27.3868 101.864 27.5819 102.341 27.6577 102.886H26.3168C26.2145 102.489 25.9872 102.136 25.6349 101.83C25.2865 101.519 24.8168 101.364 24.2259 101.364C23.7031 101.364 23.2448 101.5 22.8509 101.773C22.4607 102.042 22.1558 102.422 21.9361 102.915C21.7202 103.403 21.6122 103.977 21.6122 104.636C21.6122 105.311 21.7183 105.898 21.9304 106.398C22.1463 106.898 22.4493 107.286 22.8395 107.562C23.2334 107.839 23.6955 107.977 24.2259 107.977C24.5743 107.977 24.8906 107.917 25.1747 107.795C25.4588 107.674 25.6993 107.5 25.8963 107.273C26.0933 107.045 26.2334 106.773 26.3168 106.455H27.6577C27.5819 106.97 27.3944 107.434 27.0952 107.847C26.7997 108.256 26.4077 108.581 25.919 108.824C25.4342 109.062 24.8698 109.182 24.2259 109.182ZM33.277 109.182C32.4361 109.182 31.7107 108.996 31.1009 108.625C30.4948 108.25 30.027 107.727 29.6974 107.057C29.3717 106.383 29.2088 105.598 29.2088 104.705C29.2088 103.811 29.3717 103.023 29.6974 102.341C30.027 101.655 30.4853 101.121 31.0724 100.739C31.6634 100.352 32.3527 100.159 33.1406 100.159C33.5952 100.159 34.044 100.235 34.4872 100.386C34.9304 100.538 35.3338 100.784 35.6974 101.125C36.0611 101.462 36.3509 101.909 36.5668 102.466C36.7827 103.023 36.8906 103.708 36.8906 104.523V105.091H30.1634V103.932H35.527C35.527 103.439 35.4285 103 35.2315 102.614C35.0384 102.227 34.7618 101.922 34.402 101.699C34.0459 101.475 33.6255 101.364 33.1406 101.364C32.6065 101.364 32.1444 101.496 31.7543 101.761C31.3679 102.023 31.0705 102.364 30.8622 102.784C30.6539 103.205 30.5497 103.655 30.5497 104.136V104.909C30.5497 105.568 30.6634 106.127 30.8906 106.585C31.1217 107.04 31.4418 107.386 31.8509 107.625C32.2599 107.86 32.7353 107.977 33.277 107.977C33.6293 107.977 33.9474 107.928 34.2315 107.83C34.5194 107.727 34.7675 107.576 34.9759 107.375C35.1842 107.17 35.3452 106.917 35.4588 106.614L36.7543 106.977C36.6179 107.417 36.3887 107.803 36.0668 108.136C35.7448 108.466 35.3471 108.723 34.8736 108.909C34.4001 109.091 33.8679 109.182 33.277 109.182ZM38.9304 109V100.273H40.2713V109H38.9304ZM39.6122 98.8182C39.3509 98.8182 39.1255 98.7292 38.9361 98.5511C38.7505 98.3731 38.6577 98.1591 38.6577 97.9091C38.6577 97.6591 38.7505 97.4451 38.9361 97.267C39.1255 97.089 39.3509 97 39.6122 97C39.8736 97 40.0971 97.089 40.2827 97.267C40.4721 97.4451 40.5668 97.6591 40.5668 97.9091C40.5668 98.1591 40.4721 98.3731 40.2827 98.5511C40.0971 98.7292 39.8736 98.8182 39.6122 98.8182ZM49.8636 100.273L46.6364 109H45.2727L42.0455 100.273H43.5L45.9091 107.227H46L48.4091 100.273H49.8636ZM54.9801 109.182C54.1392 109.182 53.4138 108.996 52.804 108.625C52.1979 108.25 51.7301 107.727 51.4006 107.057C51.0748 106.383 50.9119 105.598 50.9119 104.705C50.9119 103.811 51.0748 103.023 51.4006 102.341C51.7301 101.655 52.1884 101.121 52.7756 100.739C53.3665 100.352 54.0559 100.159 54.8438 100.159C55.2983 100.159 55.7472 100.235 56.1903 100.386C56.6335 100.538 57.0369 100.784 57.4006 101.125C57.7642 101.462 58.054 101.909 58.2699 102.466C58.4858 103.023 58.5938 103.708 58.5938 104.523V105.091H51.8665V103.932H57.2301C57.2301 103.439 57.1316 103 56.9347 102.614C56.7415 102.227 56.465 101.922 56.1051 101.699C55.7491 101.475 55.3286 101.364 54.8438 101.364C54.3097 101.364 53.8475 101.496 53.4574 101.761C53.071 102.023 52.7737 102.364 52.5653 102.784C52.357 103.205 52.2528 103.655 52.2528 104.136V104.909C52.2528 105.568 52.3665 106.127 52.5938 106.585C52.8248 107.04 53.1449 107.386 53.554 107.625C53.9631 107.86 54.4384 107.977 54.9801 107.977C55.3324 107.977 55.6506 107.928 55.9347 107.83C56.2225 107.727 56.4706 107.576 56.679 107.375C56.8873 107.17 57.0483 106.917 57.1619 106.614L58.4574 106.977C58.321 107.417 58.0919 107.803 57.7699 108.136C57.4479 108.466 57.0502 108.723 56.5767 108.909C56.1032 109.091 55.571 109.182 54.9801 109.182ZM60.6335 109V100.273H61.929V101.591H62.0199C62.179 101.159 62.4669 100.809 62.8835 100.54C63.3002 100.271 63.7699 100.136 64.2926 100.136C64.3911 100.136 64.5142 100.138 64.6619 100.142C64.8097 100.146 64.9214 100.152 64.9972 100.159V101.523C64.9517 101.511 64.8475 101.494 64.6847 101.472C64.5256 101.445 64.357 101.432 64.179 101.432C63.7547 101.432 63.3759 101.521 63.0426 101.699C62.7131 101.873 62.4517 102.116 62.2585 102.426C62.0691 102.733 61.9744 103.083 61.9744 103.477V109H60.6335ZM67.5639 109.091C67.2836 109.091 67.0431 108.991 66.8423 108.79C66.6416 108.589 66.5412 108.348 66.5412 108.068C66.5412 107.788 66.6416 107.547 66.8423 107.347C67.0431 107.146 67.2836 107.045 67.5639 107.045C67.8442 107.045 68.0848 107.146 68.2855 107.347C68.4863 107.547 68.5866 107.788 68.5866 108.068C68.5866 108.254 68.5393 108.424 68.4446 108.58C68.3537 108.735 68.2306 108.86 68.0753 108.955C67.9238 109.045 67.7533 109.091 67.5639 109.091ZM67.5639 102.614C67.2836 102.614 67.0431 102.513 66.8423 102.312C66.6416 102.112 66.5412 101.871 66.5412 101.591C66.5412 101.311 66.6416 101.07 66.8423 100.869C67.0431 100.669 67.2836 100.568 67.5639 100.568C67.8442 100.568 68.0848 100.669 68.2855 100.869C68.4863 101.07 68.5866 101.311 68.5866 101.591C68.5866 101.777 68.5393 101.947 68.4446 102.102C68.3537 102.258 68.2306 102.383 68.0753 102.477C67.9238 102.568 67.7533 102.614 67.5639 102.614ZM83.3111 97.3636H84.7202V105.068C84.7202 105.864 84.5327 106.574 84.1577 107.199C83.7865 107.82 83.2618 108.311 82.5838 108.67C81.9058 109.027 81.1103 109.205 80.1974 109.205C79.2846 109.205 78.4891 109.027 77.8111 108.67C77.133 108.311 76.6065 107.82 76.2315 107.199C75.8603 106.574 75.6747 105.864 75.6747 105.068V97.3636H77.0838V104.955C77.0838 105.523 77.2088 106.028 77.4588 106.472C77.7088 106.911 78.0649 107.258 78.527 107.511C78.9929 107.761 79.5497 107.886 80.1974 107.886C80.8452 107.886 81.402 107.761 81.8679 107.511C82.3338 107.258 82.6899 106.911 82.9361 106.472C83.1861 106.028 83.3111 105.523 83.3111 104.955V97.3636ZM93.8977 100.273C93.8295 99.697 93.553 99.25 93.0682 98.9318C92.5833 98.6136 91.9886 98.4545 91.2841 98.4545C90.7689 98.4545 90.3182 98.5379 89.9318 98.7045C89.5492 98.8712 89.25 99.1004 89.0341 99.392C88.822 99.6837 88.7159 100.015 88.7159 100.386C88.7159 100.697 88.7898 100.964 88.9375 101.188C89.089 101.407 89.2822 101.591 89.517 101.739C89.7519 101.883 89.9981 102.002 90.2557 102.097C90.5133 102.187 90.75 102.261 90.9659 102.318L92.1477 102.636C92.4508 102.716 92.7879 102.826 93.1591 102.966C93.5341 103.106 93.892 103.297 94.233 103.54C94.5777 103.778 94.8617 104.085 95.0852 104.46C95.3087 104.835 95.4205 105.295 95.4205 105.841C95.4205 106.47 95.2557 107.038 94.9261 107.545C94.6004 108.053 94.1231 108.456 93.4943 108.756C92.8693 109.055 92.1098 109.205 91.2159 109.205C90.3826 109.205 89.661 109.07 89.0511 108.801C88.4451 108.532 87.9678 108.157 87.6193 107.676C87.2746 107.195 87.0795 106.636 87.0341 106H88.4886C88.5265 106.439 88.6742 106.803 88.9318 107.091C89.1932 107.375 89.5227 107.587 89.9205 107.727C90.322 107.864 90.7538 107.932 91.2159 107.932C91.7538 107.932 92.2367 107.845 92.6648 107.67C93.0928 107.492 93.4318 107.246 93.6818 106.932C93.9318 106.614 94.0568 106.242 94.0568 105.818C94.0568 105.432 93.9489 105.117 93.733 104.875C93.517 104.633 93.233 104.436 92.8807 104.284C92.5284 104.133 92.1477 104 91.7386 103.886L90.3068 103.477C89.3977 103.216 88.678 102.843 88.1477 102.358C87.6174 101.873 87.3523 101.239 87.3523 100.455C87.3523 99.803 87.5284 99.2348 87.8807 98.75C88.2367 98.2614 88.714 97.8826 89.3125 97.6136C89.9148 97.3409 90.5871 97.2045 91.3295 97.2045C92.0795 97.2045 92.7462 97.339 93.3295 97.608C93.9129 97.8731 94.375 98.2367 94.7159 98.6989C95.0606 99.161 95.2424 99.6856 95.2614 100.273H93.8977ZM97.7372 109V97.3636H101.805C102.616 97.3636 103.285 97.5038 103.811 97.7841C104.338 98.0606 104.73 98.4337 104.987 98.9034C105.245 99.3693 105.374 99.8864 105.374 100.455C105.374 100.955 105.285 101.367 105.107 101.693C104.932 102.019 104.701 102.277 104.413 102.466C104.129 102.655 103.821 102.795 103.487 102.886V103C103.843 103.023 104.201 103.148 104.561 103.375C104.921 103.602 105.222 103.928 105.464 104.352C105.707 104.777 105.828 105.295 105.828 105.909C105.828 106.492 105.696 107.017 105.43 107.483C105.165 107.949 104.747 108.318 104.175 108.591C103.603 108.864 102.858 109 101.942 109H97.7372ZM99.1463 107.75H101.942C102.862 107.75 103.516 107.572 103.902 107.216C104.292 106.856 104.487 106.42 104.487 105.909C104.487 105.515 104.387 105.152 104.186 104.818C103.985 104.481 103.699 104.212 103.328 104.011C102.957 103.807 102.518 103.705 102.01 103.705H99.1463V107.75ZM99.1463 102.477H101.76C102.184 102.477 102.567 102.394 102.908 102.227C103.252 102.061 103.525 101.826 103.726 101.523C103.93 101.22 104.033 100.864 104.033 100.455C104.033 99.9432 103.855 99.5095 103.499 99.1534C103.143 98.7936 102.578 98.6136 101.805 98.6136H99.1463V102.477ZM112.439 109V107.977L116.28 103.773C116.731 103.28 117.102 102.852 117.393 102.489C117.685 102.121 117.901 101.777 118.041 101.455C118.185 101.129 118.257 100.788 118.257 100.432C118.257 100.023 118.159 99.6686 117.962 99.3693C117.768 99.0701 117.503 98.839 117.166 98.6761C116.829 98.5133 116.45 98.4318 116.03 98.4318C115.583 98.4318 115.193 98.5246 114.859 98.7102C114.53 98.892 114.274 99.1477 114.092 99.4773C113.914 99.8068 113.825 100.193 113.825 100.636H112.484C112.484 99.9545 112.642 99.3561 112.956 98.8409C113.27 98.3258 113.698 97.9242 114.24 97.6364C114.786 97.3485 115.397 97.2045 116.075 97.2045C116.757 97.2045 117.361 97.3485 117.888 97.6364C118.414 97.9242 118.827 98.3125 119.126 98.8011C119.426 99.2898 119.575 99.8333 119.575 100.432C119.575 100.86 119.498 101.278 119.342 101.688C119.191 102.093 118.926 102.545 118.547 103.045C118.172 103.542 117.651 104.148 116.984 104.864L114.371 107.659V107.75H119.78V109H112.439ZM123.126 109.091C122.846 109.091 122.606 108.991 122.405 108.79C122.204 108.589 122.104 108.348 122.104 108.068C122.104 107.788 122.204 107.547 122.405 107.347C122.606 107.146 122.846 107.045 123.126 107.045C123.407 107.045 123.647 107.146 123.848 107.347C124.049 107.547 124.149 107.788 124.149 108.068C124.149 108.254 124.102 108.424 124.007 108.58C123.916 108.735 123.793 108.86 123.638 108.955C123.486 109.045 123.316 109.091 123.126 109.091ZM129.922 109.159C129.066 109.159 128.337 108.926 127.734 108.46C127.132 107.991 126.672 107.311 126.354 106.42C126.036 105.527 125.876 104.447 125.876 103.182C125.876 101.924 126.036 100.85 126.354 99.9602C126.676 99.0663 127.138 98.3845 127.74 97.9148C128.346 97.4413 129.073 97.2045 129.922 97.2045C130.77 97.2045 131.496 97.4413 132.098 97.9148C132.704 98.3845 133.166 99.0663 133.484 99.9602C133.806 100.85 133.967 101.924 133.967 103.182C133.967 104.447 133.808 105.527 133.49 106.42C133.172 107.311 132.712 107.991 132.109 108.46C131.507 108.926 130.778 109.159 129.922 109.159ZM129.922 107.909C130.77 107.909 131.429 107.5 131.899 106.682C132.369 105.864 132.604 104.697 132.604 103.182C132.604 102.174 132.496 101.316 132.28 100.608C132.068 99.8996 131.761 99.3598 131.359 98.9886C130.962 98.6174 130.482 98.4318 129.922 98.4318C129.081 98.4318 128.424 98.8466 127.95 99.6761C127.477 100.502 127.24 101.67 127.24 103.182C127.24 104.189 127.346 105.045 127.558 105.75C127.77 106.455 128.075 106.991 128.473 107.358C128.875 107.725 129.357 107.909 129.922 107.909ZM143.217 109.205C142.664 109.205 142.162 109.1 141.712 108.892C141.261 108.68 140.903 108.375 140.638 107.977C140.373 107.576 140.24 107.091 140.24 106.523C140.24 106.023 140.339 105.617 140.536 105.307C140.732 104.992 140.996 104.746 141.325 104.568C141.655 104.39 142.018 104.258 142.416 104.17C142.818 104.08 143.221 104.008 143.626 103.955C144.157 103.886 144.587 103.835 144.916 103.801C145.25 103.763 145.492 103.701 145.643 103.614C145.799 103.527 145.876 103.375 145.876 103.159V103.114C145.876 102.553 145.723 102.117 145.416 101.807C145.113 101.496 144.653 101.341 144.036 101.341C143.395 101.341 142.893 101.481 142.53 101.761C142.166 102.042 141.911 102.341 141.763 102.659L140.49 102.205C140.717 101.674 141.02 101.261 141.399 100.966C141.782 100.667 142.198 100.458 142.649 100.341C143.104 100.22 143.551 100.159 143.99 100.159C144.27 100.159 144.592 100.193 144.956 100.261C145.323 100.326 145.678 100.46 146.018 100.665C146.363 100.869 146.649 101.178 146.876 101.591C147.104 102.004 147.217 102.557 147.217 103.25V109H145.876V107.818H145.808C145.717 108.008 145.566 108.21 145.354 108.426C145.142 108.642 144.859 108.826 144.507 108.977C144.155 109.129 143.725 109.205 143.217 109.205ZM143.422 108C143.952 108 144.399 107.896 144.763 107.688C145.13 107.479 145.407 107.21 145.592 106.881C145.782 106.551 145.876 106.205 145.876 105.841V104.614C145.82 104.682 145.695 104.744 145.501 104.801C145.312 104.854 145.092 104.902 144.842 104.943C144.596 104.981 144.356 105.015 144.121 105.045C143.89 105.072 143.702 105.095 143.558 105.114C143.21 105.159 142.884 105.233 142.581 105.335C142.282 105.434 142.039 105.583 141.854 105.784C141.672 105.981 141.581 106.25 141.581 106.591C141.581 107.057 141.753 107.409 142.098 107.648C142.446 107.883 142.888 108 143.422 108ZM151.006 103.75V109H149.665V100.273H150.96V101.636H151.074C151.278 101.193 151.589 100.837 152.006 100.568C152.422 100.295 152.96 100.159 153.619 100.159C154.21 100.159 154.727 100.28 155.17 100.523C155.614 100.761 155.958 101.125 156.205 101.614C156.451 102.098 156.574 102.712 156.574 103.455V109H155.233V103.545C155.233 102.86 155.055 102.326 154.699 101.943C154.343 101.557 153.854 101.364 153.233 101.364C152.805 101.364 152.422 101.456 152.085 101.642C151.752 101.828 151.489 102.098 151.295 102.455C151.102 102.811 151.006 103.242 151.006 103.75ZM162.32 109.182C161.592 109.182 160.95 108.998 160.393 108.631C159.837 108.259 159.401 107.737 159.087 107.062C158.772 106.384 158.615 105.583 158.615 104.659C158.615 103.742 158.772 102.947 159.087 102.273C159.401 101.598 159.839 101.078 160.399 100.71C160.96 100.343 161.607 100.159 162.342 100.159C162.911 100.159 163.359 100.254 163.689 100.443C164.022 100.629 164.276 100.841 164.45 101.08C164.628 101.314 164.767 101.508 164.865 101.659H164.979V97.3636H166.32V109H165.024V107.659H164.865C164.767 107.818 164.626 108.019 164.445 108.261C164.263 108.5 164.003 108.714 163.666 108.903C163.329 109.089 162.88 109.182 162.32 109.182ZM162.501 107.977C163.039 107.977 163.494 107.837 163.865 107.557C164.236 107.273 164.518 106.881 164.712 106.381C164.905 105.877 165.001 105.295 165.001 104.636C165.001 103.985 164.907 103.415 164.717 102.926C164.528 102.434 164.248 102.051 163.876 101.778C163.505 101.502 163.047 101.364 162.501 101.364C161.933 101.364 161.46 101.509 161.081 101.801C160.706 102.089 160.424 102.481 160.234 102.977C160.049 103.47 159.956 104.023 159.956 104.636C159.956 105.258 160.051 105.822 160.24 106.33C160.433 106.833 160.717 107.235 161.092 107.534C161.471 107.83 161.941 107.977 162.501 107.977ZM176.03 109.205C175.477 109.205 174.975 109.1 174.524 108.892C174.073 108.68 173.715 108.375 173.45 107.977C173.185 107.576 173.053 107.091 173.053 106.523C173.053 106.023 173.151 105.617 173.348 105.307C173.545 104.992 173.808 104.746 174.138 104.568C174.467 104.39 174.831 104.258 175.229 104.17C175.63 104.08 176.034 104.008 176.439 103.955C176.969 103.886 177.399 103.835 177.729 103.801C178.062 103.763 178.304 103.701 178.456 103.614C178.611 103.527 178.689 103.375 178.689 103.159V103.114C178.689 102.553 178.536 102.117 178.229 101.807C177.926 101.496 177.465 101.341 176.848 101.341C176.208 101.341 175.706 101.481 175.342 101.761C174.979 102.042 174.723 102.341 174.575 102.659L173.303 102.205C173.53 101.674 173.833 101.261 174.212 100.966C174.594 100.667 175.011 100.458 175.462 100.341C175.916 100.22 176.363 100.159 176.803 100.159C177.083 100.159 177.405 100.193 177.768 100.261C178.136 100.326 178.49 100.46 178.831 100.665C179.176 100.869 179.462 101.178 179.689 101.591C179.916 102.004 180.03 102.557 180.03 103.25V109H178.689V107.818H178.621C178.53 108.008 178.378 108.21 178.166 108.426C177.954 108.642 177.672 108.826 177.32 108.977C176.967 109.129 176.537 109.205 176.03 109.205ZM176.234 108C176.765 108 177.212 107.896 177.575 107.688C177.943 107.479 178.219 107.21 178.405 106.881C178.594 106.551 178.689 106.205 178.689 105.841V104.614C178.632 104.682 178.507 104.744 178.314 104.801C178.125 104.854 177.905 104.902 177.655 104.943C177.409 104.981 177.168 105.015 176.933 105.045C176.702 105.072 176.515 105.095 176.371 105.114C176.022 105.159 175.696 105.233 175.393 105.335C175.094 105.434 174.852 105.583 174.666 105.784C174.484 105.981 174.393 106.25 174.393 106.591C174.393 107.057 174.566 107.409 174.911 107.648C175.259 107.883 175.7 108 176.234 108ZM182.659 109V97.3636H184V101.659H184.114C184.212 101.508 184.348 101.314 184.523 101.08C184.701 100.841 184.955 100.629 185.284 100.443C185.617 100.254 186.068 100.159 186.636 100.159C187.371 100.159 188.019 100.343 188.58 100.71C189.14 101.078 189.578 101.598 189.892 102.273C190.206 102.947 190.364 103.742 190.364 104.659C190.364 105.583 190.206 106.384 189.892 107.062C189.578 107.737 189.142 108.259 188.585 108.631C188.028 108.998 187.386 109.182 186.659 109.182C186.098 109.182 185.65 109.089 185.312 108.903C184.975 108.714 184.716 108.5 184.534 108.261C184.352 108.019 184.212 107.818 184.114 107.659H183.955V109H182.659ZM183.977 104.636C183.977 105.295 184.074 105.877 184.267 106.381C184.46 106.881 184.742 107.273 185.114 107.557C185.485 107.837 185.939 107.977 186.477 107.977C187.038 107.977 187.506 107.83 187.881 107.534C188.259 107.235 188.544 106.833 188.733 106.33C188.926 105.822 189.023 105.258 189.023 104.636C189.023 104.023 188.928 103.47 188.739 102.977C188.553 102.481 188.271 102.089 187.892 101.801C187.517 101.509 187.045 101.364 186.477 101.364C185.932 101.364 185.473 101.502 185.102 101.778C184.731 102.051 184.451 102.434 184.261 102.926C184.072 103.415 183.977 103.985 183.977 104.636ZM195.96 109.182C195.172 109.182 194.481 108.994 193.886 108.619C193.295 108.244 192.833 107.72 192.5 107.045C192.17 106.371 192.006 105.583 192.006 104.682C192.006 103.773 192.17 102.979 192.5 102.301C192.833 101.623 193.295 101.097 193.886 100.722C194.481 100.347 195.172 100.159 195.96 100.159C196.748 100.159 197.438 100.347 198.028 100.722C198.623 101.097 199.085 101.623 199.415 102.301C199.748 102.979 199.915 103.773 199.915 104.682C199.915 105.583 199.748 106.371 199.415 107.045C199.085 107.72 198.623 108.244 198.028 108.619C197.438 108.994 196.748 109.182 195.96 109.182ZM195.96 107.977C196.559 107.977 197.051 107.824 197.438 107.517C197.824 107.21 198.11 106.807 198.295 106.307C198.481 105.807 198.574 105.265 198.574 104.682C198.574 104.098 198.481 103.555 198.295 103.051C198.11 102.547 197.824 102.14 197.438 101.83C197.051 101.519 196.559 101.364 195.96 101.364C195.362 101.364 194.869 101.519 194.483 101.83C194.097 102.14 193.811 102.547 193.625 103.051C193.439 103.555 193.347 104.098 193.347 104.682C193.347 105.265 193.439 105.807 193.625 106.307C193.811 106.807 194.097 107.21 194.483 107.517C194.869 107.824 195.362 107.977 195.96 107.977ZM208.786 100.273L205.558 109H204.195L200.967 100.273H202.422L204.831 107.227H204.922L207.331 100.273H208.786ZM213.902 109.182C213.061 109.182 212.336 108.996 211.726 108.625C211.12 108.25 210.652 107.727 210.322 107.057C209.997 106.383 209.834 105.598 209.834 104.705C209.834 103.811 209.997 103.023 210.322 102.341C210.652 101.655 211.11 101.121 211.697 100.739C212.288 100.352 212.978 100.159 213.766 100.159C214.22 100.159 214.669 100.235 215.112 100.386C215.555 100.538 215.959 100.784 216.322 101.125C216.686 101.462 216.976 101.909 217.192 102.466C217.408 103.023 217.516 103.708 217.516 104.523V105.091H210.788V103.932H216.152C216.152 103.439 216.054 103 215.857 102.614C215.663 102.227 215.387 101.922 215.027 101.699C214.671 101.475 214.25 101.364 213.766 101.364C213.232 101.364 212.769 101.496 212.379 101.761C211.993 102.023 211.696 102.364 211.487 102.784C211.279 103.205 211.175 103.655 211.175 104.136V104.909C211.175 105.568 211.288 106.127 211.516 106.585C211.747 107.04 212.067 107.386 212.476 107.625C212.885 107.86 213.36 107.977 213.902 107.977C214.254 107.977 214.572 107.928 214.857 107.83C215.144 107.727 215.393 107.576 215.601 107.375C215.809 107.17 215.97 106.917 216.084 106.614L217.379 106.977C217.243 107.417 217.014 107.803 216.692 108.136C216.37 108.466 215.972 108.723 215.499 108.909C215.025 109.091 214.493 109.182 213.902 109.182Z" fill="#929292"/>
<path d="M13.0653 9.81818H9.46023C9.43466 9.51989 9.36648 9.24929 9.25568 9.00639C9.14915 8.76349 9 8.55469 8.80824 8.37997C8.62074 8.20099 8.39276 8.06463 8.12429 7.97088C7.85582 7.87287 7.55114 7.82386 7.21023 7.82386C6.61364 7.82386 6.10866 7.96875 5.69531 8.25852C5.28622 8.54829 4.97514 8.96378 4.76207 9.50497C4.55327 10.0462 4.44886 10.696 4.44886 11.4545C4.44886 12.2557 4.5554 12.9268 4.76847 13.468C4.9858 14.005 5.29901 14.4098 5.7081 14.6825C6.11719 14.951 6.60938 15.0852 7.18466 15.0852C7.51278 15.0852 7.80682 15.0447 8.06676 14.9638C8.3267 14.8786 8.55256 14.7571 8.74432 14.5994C8.93608 14.4418 9.09162 14.2521 9.21094 14.0305C9.33452 13.8047 9.41761 13.5511 9.46023 13.2699L13.0653 13.2955C13.0227 13.8494 12.8672 14.4141 12.5987 14.9893C12.3303 15.5604 11.9489 16.0888 11.4545 16.5746C10.9645 17.0561 10.3572 17.4439 9.63281 17.7379C8.90838 18.032 8.06676 18.179 7.10795 18.179C5.90625 18.179 4.82812 17.9212 3.87358 17.4055C2.9233 16.8899 2.17116 16.1314 1.61719 15.13C1.06747 14.1286 0.792614 12.9034 0.792614 11.4545C0.792614 9.99716 1.07386 8.76989 1.63636 7.77273C2.19886 6.77131 2.95739 6.01491 3.91193 5.50355C4.86648 4.98793 5.93182 4.73011 7.10795 4.73011C7.93466 4.73011 8.69531 4.84304 9.38991 5.06889C10.0845 5.29474 10.6939 5.625 11.218 6.05966C11.7422 6.49006 12.1641 7.0206 12.4837 7.65128C12.8033 8.28196 12.9972 9.00426 13.0653 9.81818ZM27.3596 11.4545C27.3596 12.9119 27.0762 14.1413 26.5094 15.1428C25.9426 16.1399 25.1777 16.8963 24.2147 17.4119C23.2516 17.9233 22.1777 18.179 20.9931 18.179C19.7999 18.179 18.7218 17.9212 17.7587 17.4055C16.7999 16.8857 16.0371 16.1271 15.4703 15.13C14.9078 14.1286 14.6266 12.9034 14.6266 11.4545C14.6266 9.99716 14.9078 8.76989 15.4703 7.77273C16.0371 6.77131 16.7999 6.01491 17.7587 5.50355C18.7218 4.98793 19.7999 4.73011 20.9931 4.73011C22.1777 4.73011 23.2516 4.98793 24.2147 5.50355C25.1777 6.01491 25.9426 6.77131 26.5094 7.77273C27.0762 8.76989 27.3596 9.99716 27.3596 11.4545ZM23.7033 11.4545C23.7033 10.6705 23.5989 10.0099 23.3901 9.47301C23.1855 8.93182 22.8809 8.52273 22.476 8.24574C22.0755 7.96449 21.5811 7.82386 20.9931 7.82386C20.405 7.82386 19.9086 7.96449 19.5037 8.24574C19.1032 8.52273 18.7985 8.93182 18.5897 9.47301C18.3851 10.0099 18.2828 10.6705 18.2828 11.4545C18.2828 12.2386 18.3851 12.9013 18.5897 13.4425C18.7985 13.9794 19.1032 14.3885 19.5037 14.6697C19.9086 14.9467 20.405 15.0852 20.9931 15.0852C21.5811 15.0852 22.0755 14.9467 22.476 14.6697C22.8809 14.3885 23.1855 13.9794 23.3901 13.4425C23.5989 12.9013 23.7033 12.2386 23.7033 11.4545ZM40.3306 4.90909V18H37.3647L32.6346 11.1222H32.5579V18H29.0039V4.90909H32.021L36.6744 11.7614H36.7766V4.90909H40.3306ZM53.3384 4.90909V18H50.3725L45.6424 11.1222H45.5657V18H42.0117V4.90909H45.0288L49.6822 11.7614H49.7844V4.90909H53.3384ZM55.0195 18V4.90909H64.4542V7.77273H58.5735V10.0227H63.9684V12.8864H58.5735V15.1364H64.4286V18H55.0195ZM78.4384 9.81818H74.8333C74.8077 9.51989 74.7395 9.24929 74.6287 9.00639C74.5222 8.76349 74.373 8.55469 74.1813 8.37997C73.9938 8.20099 73.7658 8.06463 73.4973 7.97088C73.2289 7.87287 72.9242 7.82386 72.5833 7.82386C71.9867 7.82386 71.4817 7.96875 71.0684 8.25852C70.6593 8.54829 70.3482 8.96378 70.1351 9.50497C69.9263 10.0462 69.8219 10.696 69.8219 11.4545C69.8219 12.2557 69.9284 12.9268 70.1415 13.468C70.3588 14.005 70.6721 14.4098 71.0811 14.6825C71.4902 14.951 71.9824 15.0852 72.5577 15.0852C72.8858 15.0852 73.1799 15.0447 73.4398 14.9638C73.6998 14.8786 73.9256 14.7571 74.1174 14.5994C74.3091 14.4418 74.4647 14.2521 74.584 14.0305C74.7076 13.8047 74.7907 13.5511 74.8333 13.2699L78.4384 13.2955C78.3958 13.8494 78.2402 14.4141 77.9718 14.9893C77.7033 15.5604 77.3219 16.0888 76.8276 16.5746C76.3375 17.0561 75.7303 17.4439 75.0059 17.7379C74.2814 18.032 73.4398 18.179 72.481 18.179C71.2793 18.179 70.2012 17.9212 69.2466 17.4055C68.2963 16.8899 67.5442 16.1314 66.9902 15.13C66.4405 14.1286 66.1657 12.9034 66.1657 11.4545C66.1657 9.99716 66.4469 8.76989 67.0094 7.77273C67.5719 6.77131 68.3304 6.01491 69.285 5.50355C70.2395 4.98793 71.3049 4.73011 72.481 4.73011C73.3077 4.73011 74.0684 4.84304 74.763 5.06889C75.4576 5.29474 76.0669 5.625 76.5911 6.05966C77.1152 6.49006 77.5371 7.0206 77.8567 7.65128C78.1763 8.28196 78.3702 9.00426 78.4384 9.81818ZM79.6928 7.77273V4.90909H91.0707V7.77273H87.1332V18H83.6303V7.77273H79.6928ZM95.9622 4.90909V18H92.4082V4.90909H95.9622ZM110.328 11.4545C110.328 12.9119 110.045 14.1413 109.478 15.1428C108.911 16.1399 108.146 16.8963 107.183 17.4119C106.22 17.9233 105.146 18.179 103.962 18.179C102.769 18.179 101.691 17.9212 100.727 17.4055C99.7686 16.8857 99.0059 16.1271 98.4391 15.13C97.8766 14.1286 97.5953 12.9034 97.5953 11.4545C97.5953 9.99716 97.8766 8.76989 98.4391 7.77273C99.0059 6.77131 99.7686 6.01491 100.727 5.50355C101.691 4.98793 102.769 4.73011 103.962 4.73011C105.146 4.73011 106.22 4.98793 107.183 5.50355C108.146 6.01491 108.911 6.77131 109.478 7.77273C110.045 8.76989 110.328 9.99716 110.328 11.4545ZM106.672 11.4545C106.672 10.6705 106.568 10.0099 106.359 9.47301C106.154 8.93182 105.85 8.52273 105.445 8.24574C105.044 7.96449 104.55 7.82386 103.962 7.82386C103.374 7.82386 102.877 7.96449 102.472 8.24574C102.072 8.52273 101.767 8.93182 101.558 9.47301C101.354 10.0099 101.252 10.6705 101.252 11.4545C101.252 12.2386 101.354 12.9013 101.558 13.4425C101.767 13.9794 102.072 14.3885 102.472 14.6697C102.877 14.9467 103.374 15.0852 103.962 15.0852C104.55 15.0852 105.044 14.9467 105.445 14.6697C105.85 14.3885 106.154 13.9794 106.359 13.4425C106.568 12.9013 106.672 12.2386 106.672 11.4545ZM123.299 4.90909V18H120.333L115.603 11.1222H115.527V18H111.973V4.90909H114.99L119.643 11.7614H119.745V4.90909H123.299Z" fill="white"/>
<path d="M143 12.5H181V-94.5H270" stroke="#05C2DF"/>
<path d="M146.041 12.5C146.041 14.1569 144.698 15.5 143.041 15.5C141.384 15.5 140.041 14.1569 140.041 12.5C140.041 10.8431 141.384 9.5 143.041 9.5C144.698 9.5 146.041 10.8431 146.041 12.5Z" fill="#05C2DF"/>
</g>
<defs>
<clipPath id="clip0_0_1">
<rect width="1280" height="4543" fill="white" transform="translate(-199 -2872)"/>
</clipPath>
</defs>
</svg>
