<svg width="600" height="295" viewBox="0 0 600 295" fill="none" xmlns="http://www.w3.org/2000/svg">
<path d="M4.5 4H403V73" stroke="#05C2DF"/>
<circle cx="3" cy="4" r="3" fill="#05C2DF"/>
<path d="M128 221.5H166V114.5H255" stroke="#05C2DF"/>
<path d="M131.041 221.5C131.041 223.157 129.698 224.5 128.041 224.5C126.384 224.5 125.041 223.157 125.041 221.5C125.041 219.843 126.384 218.5 128.041 218.5C129.698 218.5 131.041 219.843 131.041 221.5Z" fill="#05C2DF"/>
<path d="M258.958 114.5C258.958 116.157 257.615 117.5 255.958 117.5C254.301 117.5 252.958 116.157 252.958 114.5C252.958 112.843 254.301 111.5 255.958 111.5C257.615 111.5 258.958 112.843 258.958 114.5Z" fill="#05C2DF"/>
<path d="M596.5 1.5V242H411.5" stroke="#05C2DF"/>
<path d="M599.5 3.04148C599.5 4.69833 598.157 6.04148 596.5 6.04148C594.843 6.04148 593.5 4.69833 593.5 3.04148C593.5 1.38462 594.843 0.0414792 596.5 0.0414792C598.157 0.0414792 599.5 1.38462 599.5 3.04148Z" fill="#05C2DF"/>
<circle cx="411" cy="242" r="3" fill="#05C2DF"/>
<path d="M290.083 93.103C264.582 118.106 248.03 152.408 246.055 190.918C244.052 229.977 257.409 266.262 280.827 293.892" stroke="#05C2DF"/>
</svg>
