<svg width="16" height="11" viewBox="0 0 16 11" fill="none" xmlns="http://www.w3.org/2000/svg">
<path d="M6.21665 11C5.58124 11 4.92723 10.9529 4.26929 10.8586C3.11047 10.6923 1.93741 10.1378 1.60547 9.97183L0.734863 9.53644L1.67744 9.25292C2.70779 8.94304 3.33456 8.75078 4.11044 8.44972C3.33355 8.10559 2.7348 7.48656 2.44658 6.68633L2.22731 6.07745L2.40712 6.10257C2.23661 5.94538 2.10198 5.78582 1.99761 5.64073C1.62643 5.12505 1.42991 4.49494 1.47172 3.95497L1.51298 3.4235L1.86084 3.54675C1.71409 3.29327 1.60804 3.02257 1.54571 2.73884C1.39381 2.0469 1.52094 1.31178 1.90377 0.668958L2.20679 0.160153L2.61205 0.605383C3.89374 2.01367 5.51712 2.84907 7.44386 3.09363C7.36516 2.59743 7.42413 2.11857 7.6193 1.68934C7.84654 1.18956 8.25078 0.765756 8.78799 0.463672C9.38461 0.128263 10.1081 -0.0342637 10.8253 0.00603471C11.5861 0.048794 12.2769 0.309554 12.8255 0.760629C13.0935 0.696952 13.2909 0.628967 13.5577 0.537091C13.7182 0.481822 13.9003 0.419067 14.1281 0.347289L14.9675 0.0827349L14.4201 1.51276C14.4562 1.50999 14.4934 1.50764 14.5323 1.5061L15.4287 1.46898L14.8989 2.13129C14.8685 2.16923 14.8608 2.17999 14.85 2.19486C14.8073 2.25372 14.7542 2.32693 14.027 3.21514C13.8449 3.43755 13.754 3.72722 13.7709 4.03095C13.8354 5.18514 13.6806 6.22941 13.3105 7.13464C12.9605 7.99106 12.4181 8.72586 11.6987 9.31865C10.8083 10.052 9.67305 10.5542 8.32421 10.8109C7.66257 10.9368 6.95206 11 6.21665 11Z" fill="white"/>
</svg>
