<svg width="20" height="15" viewBox="0 0 20 15" fill="none" xmlns="http://www.w3.org/2000/svg">
<path d="M7.35491 14.6699C6.53623 14.6699 5.69357 14.6105 4.84586 14.4914C3.3528 14.2815 1.84139 13.5817 1.4137 13.3722L0.291992 12.8227L1.50643 12.4648C2.83397 12.0737 3.64153 11.831 4.64119 11.4511C3.64023 11.0167 2.86878 10.2354 2.49743 9.22544L2.21491 8.45694L2.44659 8.48865C2.2269 8.29025 2.05342 8.08887 1.91895 7.90574C1.44071 7.25489 1.18751 6.45961 1.24139 5.77808L1.29454 5.1073L1.74274 5.26286C1.55367 4.94293 1.41703 4.60127 1.33672 4.24316C1.141 3.36984 1.3048 2.44203 1.79806 1.63069L2.18847 0.988512L2.71062 1.55045C4.36199 3.3279 6.45361 4.38229 8.93608 4.69095C8.83469 4.06469 8.91066 3.4603 9.16213 2.91855C9.45491 2.28776 9.97575 1.75287 10.6679 1.37159C11.4366 0.948262 12.3688 0.743132 13.2928 0.793994C14.2731 0.847962 15.1631 1.17708 15.87 1.74639C16.2152 1.66602 16.4696 1.58022 16.8133 1.46426C17.0202 1.3945 17.2548 1.3153 17.5483 1.2247L18.6298 0.8908L17.9245 2.69569C17.971 2.69219 18.019 2.68922 18.0691 2.68728L19.224 2.64043L18.5414 3.47635C18.5023 3.52423 18.4923 3.53782 18.4784 3.55659C18.4234 3.63088 18.3549 3.72328 17.418 4.84432C17.1834 5.12503 17.0663 5.49064 17.0881 5.87398C17.1711 7.33073 16.9717 8.64874 16.4949 9.79126C16.0439 10.8722 15.3451 11.7996 14.4181 12.5478C13.271 13.4734 11.8082 14.1072 10.0704 14.4312C9.21788 14.5901 8.30243 14.6699 7.35491 14.6699Z" fill="white"/>
</svg>
