<svg width="80" height="80" viewBox="0 0 80 80" fill="none" xmlns="http://www.w3.org/2000/svg">
<path d="M36.0135 27.0801V20.0698M52.6458 34.3654H60.7558M22.9551 44.8121H27.3537M44.9482 59.52V52.5097" stroke="#05C2DF"/>
<rect x="27.7168" y="27.4426" width="24.567" height="24.567" rx="3.5" stroke="#05C2DF"/>
<rect x="32.3906" y="32.1162" width="15.4948" height="15.4948" rx="3.5" stroke="#05C2DF"/>
<rect x="60.9805" y="0.500977" width="18.5189" height="18.5189" rx="3.5" stroke="#05C2DF"/>
<rect x="65.3789" y="4.89966" width="9.99656" height="9.99656" rx="2.5" stroke="#05C2DF"/>
<rect x="0.5" y="0.500977" width="18.5189" height="18.5189" rx="3.5" stroke="#05C2DF"/>
<rect x="4.89844" y="4.89966" width="9.99656" height="9.99656" rx="2.5" stroke="#05C2DF"/>
<rect x="1.32422" y="60.4321" width="18.5189" height="18.5189" rx="3.5" stroke="#05C2DF"/>
<rect x="5.72266" y="64.8308" width="9.99656" height="9.99656" rx="2.5" stroke="#05C2DF"/>
<rect x="60.9805" y="60.4321" width="18.5189" height="18.5189" rx="3.5" stroke="#05C2DF"/>
<rect x="65.3789" y="64.8308" width="9.99656" height="9.99656" rx="2.5" stroke="#05C2DF"/>
<path d="M45.2227 27.0801V9.89795H60.3429" stroke="#05C2DF"/>
<path d="M27.3535 37.1143L9.89648 37.1143L9.89649 19.5198" stroke="#05C2DF"/>
<path d="M52.7827 40.9631L69.9648 40.9631L69.9648 59.9322" stroke="#05C2DF"/>
<path d="M36.5645 52.5095L36.5645 69.6917L20.2071 69.6916" stroke="#05C2DF"/>
<circle cx="36.0133" cy="17.5956" r="1.97423" stroke="#05C2DF"/>
<circle cx="63.2301" cy="34.3653" r="1.97423" stroke="#05C2DF"/>
<circle cx="20.6188" cy="44.8119" r="1.97423" stroke="#05C2DF"/>
<circle cx="44.8102" cy="61.8566" r="1.97423" stroke="#05C2DF"/>
</svg>
