<svg width="98" height="81" viewBox="0 0 98 81" fill="none" xmlns="http://www.w3.org/2000/svg">
<path d="M45.0135 28.0801V21.0698M61.6458 35.3654H69.7558M31.9551 45.8121H36.3537M53.9482 60.52V53.5097" stroke="#05C2DF"/>
<rect x="36.7168" y="28.4426" width="24.567" height="24.567" rx="3.5" stroke="#05C2DF"/>
<rect x="41.3906" y="33.1162" width="15.4948" height="15.4948" rx="3.5" stroke="#05C2DF"/>
<rect x="69.9805" y="1.50098" width="18.5189" height="18.5189" rx="3.5" stroke="#05C2DF"/>
<rect x="74.3789" y="5.89966" width="9.99656" height="9.99656" rx="2.5" stroke="#05C2DF"/>
<rect x="9.5" y="1.50098" width="18.5189" height="18.5189" rx="3.5" stroke="#05C2DF"/>
<rect x="13.8984" y="5.89966" width="9.99656" height="9.99656" rx="2.5" stroke="#05C2DF"/>
<rect x="10.3242" y="61.4321" width="18.5189" height="18.5189" rx="3.5" stroke="#05C2DF"/>
<rect x="14.7227" y="65.8308" width="9.99656" height="9.99656" rx="2.5" stroke="#05C2DF"/>
<rect x="69.9805" y="61.4321" width="18.5189" height="18.5189" rx="3.5" stroke="#05C2DF"/>
<rect x="74.3789" y="65.8308" width="9.99656" height="9.99656" rx="2.5" stroke="#05C2DF"/>
<path d="M54.2227 28.0801V10.8979H69.3429" stroke="#05C2DF"/>
<path d="M36.3535 38.1143L18.8965 38.1143L18.8965 20.5198" stroke="#05C2DF"/>
<path d="M61.7827 41.9631L78.9648 41.9631L78.9648 60.9322" stroke="#05C2DF"/>
<path d="M45.5645 53.5095L45.5645 70.6917L29.2071 70.6916" stroke="#05C2DF"/>
<circle cx="45.0133" cy="18.5956" r="1.97423" stroke="#05C2DF"/>
<circle cx="72.2301" cy="35.3653" r="1.97423" stroke="#05C2DF"/>
<circle cx="29.6188" cy="45.8119" r="1.97423" stroke="#05C2DF"/>
<circle cx="53.8102" cy="62.8566" r="1.97423" stroke="#05C2DF"/>
</svg>
