<svg width="98" height="81" viewBox="0 0 98 81" fill="none" xmlns="http://www.w3.org/2000/svg">
<g id="&#208;&#160;&#208;&#181;&#209;&#129;&#209;&#131;&#209;&#128;&#209;&#129; 1" clip-path="url(#clip0_1_7703)">
<g id="&#208;&#161;&#208;&#187;&#208;&#190;&#208;&#185; 2">
<g id="&#208;&#161;&#208;&#187;&#208;&#190;&#208;&#185; 2_2">
<path id="Vector" d="M62.2377 5.25319L49.2015 0.107422L0.275879 19.0257L49.0005 41.4999L97.7249 19.0177L64.8877 6.43209" stroke="#05C2DF" stroke-miterlimit="10"/>
<path id="Vector_2" d="M47.9551 15.9346L74.4971 28.098V71.9286" stroke="#05C2DF" stroke-miterlimit="10"/>
<path id="Vector_3" d="M16.0005 26L16.0005 40" stroke="#05C2DF" stroke-miterlimit="10"/>
<path id="Vector_4" d="M16.0811 43.1498V56.7948C16.0811 56.7948 47.5823 83.9774 81.7394 56.7948V26.3096" stroke="#05C2DF" stroke-miterlimit="10"/>
<path id="Vector_5" d="M74.4965 80.8999C76.9474 80.8999 78.9343 78.9036 78.9343 76.4412C78.9343 73.9787 76.9474 71.9824 74.4965 71.9824C72.0455 71.9824 70.0586 73.9787 70.0586 76.4412C70.0586 78.9036 72.0455 80.8999 74.4965 80.8999Z" stroke="#05C2DF" stroke-miterlimit="10"/>
</g>
</g>
</g>
<defs>
<clipPath id="clip0_1_7703">
<rect width="98" height="81" fill="white"/>
</clipPath>
</defs>
</svg>
