<svg width="247.99999999999997" height="69" xmlns="http://www.w3.org/2000/svg" fill="none">

 <g>
  <title>Layer 1</title>
  <path id="svg_2" stroke-miterlimit="1.51696" stroke-width="2" stroke="#05C2DF" d="m51,7c-4.8809,-3.41127 -10.0865,-4.64793 -16,-4.99996c-5.9135,-0.35204 -11.4395,1.00319 -16.6789,3.81199c-5.2394,2.80881 -9.62294,7.02067 -12.67603,12.17967c-3.05308,5.159 -4.65938,11.0685 -4.64497,17.0886c0.0144,6.0202 1.64895,11.9217 4.72668,17.0655c3.07774,5.1438 7.48142,9.334 12.73412,12.1169c5.2528,2.7829 11.1546,4.0524 17.0663,3.6712c5.9118,-0.3813 11.6083,-2.4985 16.4728,-5.9339" opacity="0.45"/>
  <path id="svg_3" stroke-miterlimit="10" stroke="#05C2DF" d="m34.0296,61.1555c14.5871,0 26.4124,-11.7906 26.4124,-26.3351c0,-14.5444 -11.8253,-26.33505 -26.4124,-26.33505c-14.5872,0 -26.41241,11.79065 -26.41241,26.33505c0,14.5445 11.82521,26.3351 26.41241,26.3351z"/>
  <path id="svg_4" fill="#05C2DF" d="m86,12.0001l-30,0l0,2l30,0l0,-2z" opacity="0.45"/>
  <path id="svg_5" fill="#05C2DF" d="m86,56.0001l-30,0l0,2l30,0l0,-2z" opacity="0.45"/>
  <path id="svg_6" fill="#05C2DF" d="m45,35l-17.25,10.3923l0,-20.7846l17.25,10.3923z"/>
  <path id="svg_7" fill="#05C2DF" d="m91,12l-2,0l0,2l2,0l0,-2z" opacity="0.45"/>
  <path id="svg_8" fill="#05C2DF" d="m88,12l-2,0l0,2l2,0l0,-2z" opacity="0.45"/>
  <path id="svg_9" fill="#05C2DF" d="m94,12l-2,0l0,2l2,0l0,-2z" opacity="0.45"/>
  <path id="svg_10" fill="#05C2DF" d="m97,12l-2,0l0,2l2,0l0,-2z" opacity="0.45"/>
  <path id="svg_11" fill="#05C2DF" d="m100,12l-2,0l0,2l2,0l0,-2z" opacity="0.45"/>
  <path id="svg_12" fill="#05C2DF" d="m104,12l-2,0l0,2l2,0l0,-2z" opacity="0.45"/>
  <path id="svg_13" fill="#05C2DF" d="m108,12l-2,0l0,2l2,0l0,-2z" opacity="0.45"/>
  <path id="svg_14" fill="#05C2DF" d="m112,12l-2,0l0,2l2,0l0,-2z" opacity="0.45"/>
  <path id="svg_15" fill="#05C2DF" d="m117,12l-2,0l0,2l2,0l0,-2z" opacity="0.45"/>
  <path id="svg_16" fill="#05C2DF" d="m122,12l-2,0l0,2l2,0l0,-2z" opacity="0.45"/>
  <path id="svg_17" fill="#05C2DF" d="m127,12l-2,0l0,2l2,0l0,-2z" opacity="0.45"/>
  <path id="svg_18" fill="#05C2DF" d="m132,12l-2,0l0,2l2,0l0,-2z" opacity="0.45"/>
  <path id="svg_19" fill="#05C2DF" d="m137,12l-2,0l0,2l2,0l0,-2z" opacity="0.45"/>
  <path id="svg_20" fill="#05C2DF" d="m142,12l-2,0l0,2l2,0l0,-2z" opacity="0.45"/>
  <path id="svg_21" fill="#05C2DF" d="m153.6,12.23l-1.6,0l0,1.6l1.6,0l0,-1.6z" opacity="0.45"/>
  <path id="svg_22" fill="#05C2DF" d="m159.6,12.23l-1.6,0l0,1.6l1.6,0l0,-1.6z" opacity="0.45"/>
  <path id="svg_23" fill="#05C2DF" d="m165.6,12.23l-1.6,0l0,1.6l1.6,0l0,-1.6z" opacity="0.45"/>
  <path id="svg_24" fill="#05C2DF" d="m171.3,12.4301l-1.3,0l0,1.3l1.3,0l0,-1.3z" opacity="0.45"/>
  <path id="svg_25" fill="#05C2DF" d="m178.3,12.4301l-1.3,0l0,1.3l1.3,0l0,-1.3z" opacity="0.45"/>
  <path id="svg_26" fill="#05C2DF" d="m185.3,12.4301l-1.3,0l0,1.3l1.3,0l0,-1.3z" opacity="0.45"/>
  <path id="svg_27" fill="#05C2DF" d="m192.3,12.4301l-1.3,0l0,1.3l1.3,0l0,-1.3z" opacity="0.45"/>
  <path id="svg_28" fill="#05C2DF" d="m200.3,12.4301l-1.3,0l0,1.3l1.3,0l0,-1.3z" opacity="0.45"/>
  <path id="svg_29" fill="#05C2DF" d="m209.3,12.4301l-1.3,0l0,1.3l1.3,0l0,-1.3z" opacity="0.45"/>
  <path id="svg_30" fill="#05C2DF" d="m147.6,12.23l-1.6,0l0,1.6l1.6,0l0,-1.6z" opacity="0.45"/>
  <path id="svg_31" fill="#05C2DF" d="m248,12.5l-1,0l0,1l1,0l0,-1z" opacity="0.45"/>
  <path id="svg_32" fill="#05C2DF" d="m234,12.5l-1,0l0,1l1,0l0,-1z" opacity="0.45"/>
  <path id="svg_33" fill="#05C2DF" d="m221,12.5l-1,0l0,1l1,0l0,-1z" opacity="0.45"/>
  <path id="svg_34" fill="#05C2DF" d="m91,56l-2,0l0,2l2,0l0,-2z" opacity="0.45"/>
  <path id="svg_35" fill="#05C2DF" d="m88,56l-2,0l0,2l2,0l0,-2z" opacity="0.45"/>
  <path id="svg_36" fill="#05C2DF" d="m94,56l-2,0l0,2l2,0l0,-2z" opacity="0.45"/>
  <path id="svg_37" fill="#05C2DF" d="m97,56l-2,0l0,2l2,0l0,-2z" opacity="0.45"/>
  <path id="svg_38" fill="#05C2DF" d="m100,56l-2,0l0,2l2,0l0,-2z" opacity="0.45"/>
  <path id="svg_39" fill="#05C2DF" d="m104,56l-2,0l0,2l2,0l0,-2z" opacity="0.45"/>
  <path id="svg_40" fill="#05C2DF" d="m108,56l-2,0l0,2l2,0l0,-2z" opacity="0.45"/>
  <path id="svg_41" fill="#05C2DF" d="m112,56l-2,0l0,2l2,0l0,-2z" opacity="0.45"/>
  <path id="svg_42" fill="#05C2DF" d="m117,56l-2,0l0,2l2,0l0,-2z" opacity="0.45"/>
  <path id="svg_43" fill="#05C2DF" d="m122,56l-2,0l0,2l2,0l0,-2z" opacity="0.45"/>
  <path id="svg_44" fill="#05C2DF" d="m127,56l-2,0l0,2l2,0l0,-2z" opacity="0.45"/>
  <path id="svg_45" fill="#05C2DF" d="m132,56l-2,0l0,2l2,0l0,-2z" opacity="0.45"/>
  <path id="svg_46" fill="#05C2DF" d="m137,56l-2,0l0,2l2,0l0,-2z" opacity="0.45"/>
  <path id="svg_47" fill="#05C2DF" d="m142,56l-2,0l0,2l2,0l0,-2z" opacity="0.45"/>
  <path id="svg_48" fill="#05C2DF" d="m153.6,56.23l-1.6,0l0,1.6l1.6,0l0,-1.6z" opacity="0.45"/>
  <path id="svg_49" fill="#05C2DF" d="m159.6,56.23l-1.6,0l0,1.6l1.6,0l0,-1.6z" opacity="0.45"/>
  <path id="svg_50" fill="#05C2DF" d="m165.6,56.23l-1.6,0l0,1.6l1.6,0l0,-1.6z" opacity="0.45"/>
  <path id="svg_51" fill="#05C2DF" d="m171.3,56.4301l-1.3,0l0,1.3l1.3,0l0,-1.3z" opacity="0.45"/>
  <path id="svg_52" fill="#05C2DF" d="m178.3,56.4301l-1.3,0l0,1.3l1.3,0l0,-1.3z" opacity="0.45"/>
  <path id="svg_53" fill="#05C2DF" d="m185.3,56.4301l-1.3,0l0,1.3l1.3,0l0,-1.3z" opacity="0.45"/>
  <path id="svg_54" fill="#05C2DF" d="m192.3,56.4301l-1.3,0l0,1.3l1.3,0l0,-1.3z" opacity="0.45"/>
  <path id="svg_55" fill="#05C2DF" d="m200.3,56.4301l-1.3,0l0,1.3l1.3,0l0,-1.3z" opacity="0.45"/>
  <path id="svg_56" fill="#05C2DF" d="m209.3,56.4301l-1.3,0l0,1.3l1.3,0l0,-1.3z" opacity="0.45"/>
  <path id="svg_57" fill="#05C2DF" d="m147.6,56.23l-1.6,0l0,1.6l1.6,0l0,-1.6z" opacity="0.45"/>
  <path id="svg_58" fill="#05C2DF" d="m248,56.5l-1,0l0,1l1,0l0,-1z" opacity="0.45"/>
  <path id="svg_59" fill="#05C2DF" d="m234,56.5l-1,0l0,1l1,0l0,-1z" opacity="0.45"/>
  <path id="svg_60" fill="#05C2DF" d="m221,56.5l-1,0l0,1l1,0l0,-1z" opacity="0.45"/>
 </g>
</svg>