<svg version="1.2" xmlns="http://www.w3.org/2000/svg" viewBox="0 0 63 64" width="63" height="64">
	<title>Icons-svg</title>
	<defs>
		<clipPath clipPathUnits="userSpaceOnUse" id="cp1">
			<path d="m-268-173h98v81h-98z"/>
		</clipPath>
		<clipPath clipPathUnits="userSpaceOnUse" id="cp2">
			<path d="m-106-178h84v84h-84z"/>
		</clipPath>
		<clipPath clipPathUnits="userSpaceOnUse" id="cp3">
			<path d="m219-174h83v83h-83z"/>
		</clipPath>
	</defs>
	<style>
		.s0 { fill: none;stroke: #05c2df } 
		.s1 { fill: none;stroke: #05c2df;stroke-linejoin: round;stroke-width: 1 } 
		.s2 { fill: none;stroke: #05c2df;stroke-width: 1 } 
		.s3 { fill: none;stroke: #05c2df;stroke-linecap: round } 
		.s4 { fill: #05c2df;stroke: #05040b;stroke-linecap: round;stroke-width: .5 } 
		.s5 { fill: #05c2df } 
		.s6 { fill: #ffffff } 
		.s7 { fill: none;stroke: #ffffff } 
		.s8 { fill: none;stroke: #191536;stroke-width: 3 } 
		.s9 { fill: none;stroke: #191536;stroke-width: 1.5 } 
		.s10 { fill: #f9f9f9 } 
		.s11 { fill: #0066b2 } 
		.s12 { fill: #f9a533 } 
	</style>
	<g id="Clip-Path" clip-path="url(#cp1)">
		<g id="Layer">
			<path id="Layer" class="s0" d="m-203.1-166.6l32.8 12.6-48.7 22.5-48.7-22.5 48.9-18.9 13 5.2"/>
			<path id="Layer" class="s0" d="m-220-157.1l26.5 12.2v43.8"/>
			<path id="Layer" class="s0" d="m-252-147v14"/>
			<path id="Layer" class="s0" d="m-186.3-146.7v30.5c-34.1 27.2-65.6 0-65.6 0v-13.7"/>
			<ellipse id="Layer" class="s0" cx="-193.5" cy="-96.6" rx="4.4" ry="4.5"/>
		</g>
	</g>
	<path id="Layer" class="s1" d="m91.4-151.4c2.8 3.9 4.3 8.6 4.3 13.4 0 12.5-10.2 22.7-22.7 22.7-12.6 0-22.8-10.2-22.8-22.7 0-12.6 10.2-22.8 22.8-22.8 4.8 0 9.4 1.5 13.3 4.3"/>
	<circle id="Layer" class="s2" cx="73" cy="-138" r="9.1"/>
	<path id="Layer" class="s2" d="m130.4-139.2c1.8-1.7 3.9-2.9 6.1-3.6v-9c0-9.5 7.8-17.2 17.3-17.2"/>
	<path id="Layer" class="s2" d="m155-98.9c-0.4 0.5-11 11.9-24.9 12.5q-0.2 0-0.5 0c-13.9 0-40.5-22.8-42.1-24.2-4.4 2.3-9.3 3.6-14.5 3.6-17.1 0-31-13.9-31-31 0-17.1 13.9-31 31-31 17.1 0 31 13.9 31 31 0 3.5-0.6 6.9-1.7 10 7.5 0.4 15.1 2.2 21.9 5.5l1.7 0.9v-7q0-2.1 0.6-4.1m2.8 12.7l0.3 0.2c2.1 1 4 2.3 5.7 3.8m-44.8 3.5c4.4-3 8.1-7.2 10.4-12.2"/>
	<g id="Clip-Path" clip-path="url(#cp2)">
		<g id="Layer">
			<path id="Layer" class="s3" d="m-29.8-170.9v73.6h-2.3-10.4-2.8-23.6-2.8-6.7-2.8-0.4v-1.9c0-1-0.9-1.9-1.9-1.9-1.1 0-2 0.9-2 1.9v1.9h-0.4-2.8-6.6-1.7-0.7v-52.9c0-0.5 0.4-0.9 0.9-0.9h11.8 0.5v-0.5-11.8c0-0.5 0.4-0.9 1-0.9h4.2 0.5v-0.5-6.1c0-0.5 0.4-0.9 0.9-0.9h6.2 0.5v-0.5-4.3c0-0.5 0.4-0.9 0.9-0.9 0.5 0 0.9 0.4 0.9 0.9v4.3 0.5h0.5 6.1c0.5 0 0.9 0.4 0.9 0.9v6.1 0.5h0.5 2.9 0.5v-0.5-6.1c0-0.5 0.4-0.9 0.9-0.9h26.4c0.5 0 0.9 0.4 0.9 0.9z"/>
			<path id="Layer" class="s3" d="m-63-100.5v-26.4"/>
			<path id="Layer" class="s3" d="m-57-100.6v-26.4"/>
			<path id="Layer" class="s3" d="m-51-100.6v-26.4"/>
			<path id="Layer" class="s4" d="m-48.7-161.5c0 0.7-0.5 1.2-1.1 1.2-0.7 0-1.2-0.5-1.2-1.2v-1.9c0-0.6 0.5-1.1 1.2-1.1 0.6 0 1.1 0.5 1.1 1.1z"/>
			<path id="Layer" class="s4" d="m-43-161.5c0 0.7-0.5 1.2-1.2 1.2-0.6 0-1.1-0.5-1.1-1.2v-1.9c0-0.6 0.5-1.1 1.1-1.1 0.7 0 1.2 0.5 1.2 1.1z"/>
			<path id="Layer" class="s4" d="m-37.4-161.5c0 0.7-0.5 1.2-1.1 1.2-0.7 0-1.2-0.5-1.2-1.2v-1.9c0-0.6 0.5-1.1 1.2-1.1 0.6 0 1.1 0.5 1.1 1.1z"/>
			<path id="Layer" class="s4" d="m-48.7-152c0 0.6-0.5 1.1-1.1 1.1-0.7 0-1.2-0.5-1.2-1.1v-1.9c0-0.7 0.5-1.2 1.2-1.2 0.6 0 1.1 0.5 1.1 1.2z"/>
			<path id="Layer" class="s4" d="m-43-152c0 0.6-0.5 1.1-1.2 1.1-0.6 0-1.1-0.5-1.1-1.1v-1.9c0-0.7 0.5-1.2 1.1-1.2 0.7 0 1.2 0.5 1.2 1.2z"/>
			<path id="Layer" class="s4" d="m-37.4-152c0 0.6-0.5 1.1-1.1 1.1-0.7 0-1.2-0.5-1.2-1.1v-1.9c0-0.7 0.5-1.2 1.2-1.2 0.6 0 1.1 0.5 1.1 1.2z"/>
			<path id="Layer" class="s4" d="m-48.7-142.6c0 0.6-0.5 1.2-1.1 1.2-0.7 0-1.2-0.6-1.2-1.2v-1.9c0-0.6 0.5-1.2 1.2-1.2 0.6 0 1.1 0.6 1.1 1.2z"/>
			<path id="Layer" class="s4" d="m-43-142.6c0 0.6-0.5 1.2-1.2 1.2-0.6 0-1.1-0.6-1.1-1.2v-1.9c0-0.6 0.5-1.2 1.1-1.2 0.7 0 1.2 0.6 1.2 1.2z"/>
			<path id="Layer" class="s4" d="m-37.4-142.6c0 0.6-0.5 1.2-1.1 1.2-0.7 0-1.2-0.6-1.2-1.2v-1.9c0-0.6 0.5-1.2 1.2-1.2 0.6 0 1.1 0.6 1.1 1.2z"/>
			<path id="Layer" class="s4" d="m-88.3-138.8c0 0.6-0.5 1.1-1.2 1.1-0.6 0-1.1-0.5-1.1-1.1v-1.9c0-0.7 0.5-1.2 1.1-1.2 0.7 0 1.2 0.5 1.2 1.2z"/>
			<path id="Layer" class="s4" d="m-82.7-138.8c0 0.6-0.5 1.1-1.1 1.1-0.7 0-1.2-0.5-1.2-1.1v-1.9c0-0.7 0.5-1.2 1.2-1.2 0.6 0 1.1 0.5 1.1 1.2z"/>
			<path id="Layer" class="s4" d="m-77-138.8c0 0.6-0.5 1.1-1.2 1.1-0.6 0-1.1-0.5-1.1-1.1v-1.9c0-0.7 0.5-1.2 1.1-1.2 0.7 0 1.2 0.5 1.2 1.2z"/>
			<path id="Layer" class="s4" d="m-88.3-129.4c0 0.7-0.5 1.2-1.2 1.2-0.6 0-1.1-0.5-1.1-1.2v-1.9c0-0.6 0.5-1.1 1.1-1.1 0.7 0 1.2 0.5 1.2 1.1z"/>
			<path id="Layer" class="s4" d="m-82.7-129.4c0 0.7-0.5 1.2-1.1 1.2-0.7 0-1.2-0.5-1.2-1.2v-1.9c0-0.6 0.5-1.1 1.2-1.1 0.6 0 1.1 0.5 1.1 1.1z"/>
			<path id="Layer" class="s4" d="m-77-129.4c0 0.7-0.5 1.2-1.2 1.2-0.6 0-1.1-0.5-1.1-1.2v-1.9c0-0.6 0.5-1.1 1.1-1.1 0.7 0 1.2 0.5 1.2 1.1z"/>
			<path id="Layer" class="s4" d="m-88.3-120c0 0.7-0.5 1.2-1.2 1.2-0.6 0-1.1-0.5-1.1-1.2v-1.8c0-0.7 0.5-1.2 1.1-1.2 0.7 0 1.2 0.5 1.2 1.2z"/>
			<path id="Layer" class="s4" d="m-82.7-120c0 0.7-0.5 1.2-1.1 1.2-0.7 0-1.2-0.5-1.2-1.2v-1.8c0-0.7 0.5-1.2 1.2-1.2 0.6 0 1.1 0.5 1.1 1.2z"/>
			<path id="Layer" class="s4" d="m-77-120c0 0.7-0.5 1.2-1.2 1.2-0.6 0-1.1-0.5-1.1-1.2v-1.8c0-0.7 0.5-1.2 1.1-1.2 0.7 0 1.2 0.5 1.2 1.2z"/>
			<path id="Layer" class="s4" d="m-88.3-110.5c0 0.6-0.5 1.1-1.2 1.1-0.6 0-1.1-0.5-1.1-1.1v-1.9c0-0.6 0.5-1.2 1.1-1.2 0.7 0 1.2 0.6 1.2 1.2z"/>
			<path id="Layer" class="s4" d="m-82.7-110.5c0 0.6-0.5 1.1-1.1 1.1-0.7 0-1.2-0.5-1.2-1.1v-1.9c0-0.6 0.5-1.2 1.2-1.2 0.6 0 1.1 0.6 1.1 1.2z"/>
			<path id="Layer" class="s4" d="m-77-110.5c0 0.6-0.5 1.1-1.2 1.1-0.6 0-1.1-0.5-1.1-1.1v-1.9c0-0.6 0.5-1.2 1.1-1.2 0.7 0 1.2 0.6 1.2 1.2z"/>
			<path id="Layer" class="s4" d="m-37.4-133.2c0 0.7-0.5 1.2-1.1 1.2-0.7 0-1.2-0.5-1.2-1.2v-1.9c0-0.6 0.5-1.1 1.2-1.1 0.6 0 1.1 0.5 1.1 1.1z"/>
			<path id="Layer" class="s4" d="m-37.4-123.7c0 0.6-0.5 1.1-1.1 1.1-0.7 0-1.2-0.5-1.2-1.1v-1.9c0-0.7 0.5-1.2 1.2-1.2 0.6 0 1.1 0.5 1.1 1.2z"/>
			<path id="Layer" class="s4" d="m-37.4-114.3c0 0.7-0.5 1.2-1.1 1.2-0.7 0-1.2-0.5-1.2-1.2v-1.9c0-0.6 0.5-1.1 1.2-1.1 0.6 0 1.1 0.5 1.1 1.1z"/>
			<path id="Layer" class="s4" d="m-37.4-104.9c0 0.7-0.5 1.2-1.1 1.2-0.7 0-1.2-0.5-1.2-1.2v-1.8c0-0.7 0.5-1.2 1.2-1.2 0.6 0 1.1 0.5 1.1 1.2z"/>
			<path id="Layer" class="s3" d="m-64.7-158h-11.3"/>
			<path id="Layer" fill-rule="evenodd" class="s5" d="m-49-135v1h-2v-1c0-0.6 0.4-1 1-1 0.6 0 1 0.4 1 1z"/>
			<path id="Layer" fill-rule="evenodd" class="s5" d="m-43-135v1h-2v-1c0-0.6 0.4-1 1-1 0.6 0 1 0.4 1 1z"/>
		</g>
	</g>
	<g id="Clip-Path" clip-path="url(#cp3)">
		<g id="Layer">
			<circle id="Layer" class="s0" cx="296.5" cy="-151.9" r="5"/>
			<circle id="Layer" class="s0" cx="224.5" cy="-106.2" r="5"/>
			<path id="Layer" class="s0" d="m293-156l-10.8-5.4"/>
			<circle id="Layer" class="s0" cx="281.2" cy="-96.5" r="5"/>
			<path id="Layer" class="s0" d="m277.5-100.4l-10.1-5.4"/>
			<circle id="Layer" class="s0" cx="260.5" cy="-131.1" r="5"/>
			<path id="Layer" class="s0" d="m257.3-135.4l-8-6.1"/>
			<circle id="Layer" class="s0" cx="285.4" cy="-122.8" r="14.7"/>
			<circle id="Layer" class="s0" cx="285.4" cy="-127" r="5"/>
			<path id="Layer" class="s0" d="m278-110.1c-0.2-0.1-0.4-0.4-0.4-0.8v-3.6c0-2 1.7-3.7 3.8-3.7h8c2.1 0 3.8 1.7 3.8 3.7v3.7c0 0.3-0.2 0.6-0.4 0.7zm14.7 0c-2.3 1.3-4.8 2-7.4 2-2.6 0-5.1-0.7-7.3-2z"/>
			<circle id="Layer" class="s0" cx="252.2" cy="-106.2" r="14.7"/>
			<circle id="Layer" class="s0" cx="252.2" cy="-110.4" r="5"/>
			<path id="Layer" class="s0" d="m259.6-93.5c-2.3 1.3-4.8 2-7.4 2-2.6 0-5.1-0.7-7.4-2-0.2-0.1-0.4-0.4-0.4-0.7v-3.7c0-2 1.7-3.7 3.8-3.7h8c2.1 0 3.8 1.7 3.8 3.7v3.7c0 0.3-0.2 0.6-0.4 0.7z"/>
			<circle id="Layer" class="s0" cx="234.2" cy="-140.8" r="14.7"/>
			<circle id="Layer" class="s0" cx="234.2" cy="-144.9" r="5"/>
			<path id="Layer" class="s0" d="m241.6-128.1c-2.3 1.3-4.8 2-7.4 2-2.6 0-5.1-0.7-7.3-2-0.3-0.1-0.5-0.4-0.5-0.7v-3.7c0-2 1.7-3.7 3.8-3.7h8c2.1 0 3.8 1.7 3.8 3.7v3.7c0 0.3-0.2 0.6-0.4 0.7z"/>
			<circle id="Layer" class="s0" cx="267.4" cy="-158.8" r="14.7"/>
			<circle id="Layer" class="s0" cx="267.4" cy="-162.9" r="5"/>
			<path id="Layer" class="s0" d="m274.8-146.1c-2.3 1.3-4.8 2-7.4 2-2.6 0-5.1-0.7-7.3-2-0.3-0.1-0.5-0.4-0.5-0.7v-3.7c0-2 1.7-3.6 3.8-3.6h8c2.1 0 3.8 1.6 3.8 3.6v3.7c0 0.3-0.2 0.6-0.4 0.7z"/>
			<path id="Layer" class="s0" d="m252.4-159.6l-8.9 7.3"/>
			<path id="Layer" class="s0" d="m284.7-137.9l-7.2-9.8"/>
			<path id="Layer" class="s0" d="m271.1-117.7l-5.5 4.3"/>
			<path id="Layer" class="s0" d="m237.3-106.5h-7.5"/>
			<circle id="Layer" class="s0" cx="234.2" cy="-168.5" r="5"/>
			<path id="Layer" class="s0" d="m233.1-163.2v7.2"/>
		</g>
	</g>
	<path id="Layer" class="s0" d="m411-144.9v-7m16.6 14.3h8.2m-37.8 10.4h4.4m17.5 14.7v-7"/>
	<rect id="Layer" class="s0" x="402.7" y="-144.6" width="24.6" height="24.6" rx="4"></rect>
	<rect id="Layer" class="s0" x="407.4" y="-139.9" width="15.5" height="15.5" rx="4"></rect>
	<rect id="Layer" class="s0" x="436" y="-171.5" width="18.5" height="18.5" rx="4"></rect>
	<rect id="Layer" class="s0" x="440.4" y="-167.1" width="10" height="10" rx="3"></rect>
	<rect id="Layer" class="s0" x="375.5" y="-171.5" width="18.5" height="18.5" rx="4"></rect>
	<rect id="Layer" class="s0" x="379.9" y="-167.1" width="10" height="10" rx="3"></rect>
	<rect id="Layer" class="s0" x="376.3" y="-111.6" width="18.5" height="18.5" rx="4"></rect>
	<rect id="Layer" class="s0" x="380.7" y="-107.2" width="10" height="10" rx="3"></rect>
	<rect id="Layer" class="s0" x="436" y="-111.6" width="18.5" height="18.5" rx="4"></rect>
	<rect id="Layer" class="s0" x="440.4" y="-107.2" width="10" height="10" rx="3"></rect>
	<path id="Layer" class="s0" d="m420.2-144.9v-17.2h15.1"/>
	<path id="Layer" class="s0" d="m402.4-134.9h-17.5v-17.6"/>
	<path id="Layer" class="s0" d="m427.8-131h17.2v18.9"/>
	<path id="Layer" class="s0" d="m411.6-119.5v17.2h-16.4"/>
	<circle id="Layer" class="s0" cx="411" cy="-154.4" r="2"/>
	<circle id="Layer" class="s0" cx="438.2" cy="-137.6" r="2"/>
	<circle id="Layer" class="s0" cx="395.6" cy="-127.2" r="2"/>
	<circle id="Layer" class="s0" cx="419.8" cy="-110.1" r="2"/>
	<circle id="Layer" class="s0" cx="735.7" cy="-127.8" r="13.6"/>
	<path id="Layer" class="s0" d="m750.1-142.3c4.7 3.1 7.7 8.4 7.7 14.5 0 6-3 11.3-7.7 14.4"/>
	<path id="Layer" class="s0" d="m750.3-113.6l6.3 8.1"/>
	<path id="Layer" class="s0" d="m750.1-142.1l6.3-8.6c7.5 4.8 12.4 13.2 12.4 22.7 0 9.5-4.9 17.8-12.4 22.7"/>
	<path id="Layer" class="s0" d="m763.5-159.2c10 6.6 16.5 18 16.5 30.8 0 12.9-6.5 24.2-16.5 30.8"/>
	<path id="Layer" class="s0" d="m763.5-159l6.3-9c13 8.5 21.5 23.2 21.5 39.8 0 16.6-8.5 31.3-21.5 39.8l-6.5-9.2"/>
	<path id="Layer" class="s0" d="m721.2-113.4c-4.7-3.1-7.7-8.4-7.7-14.4 0-6.1 3-11.4 7.7-14.4"/>
	<path id="Layer" class="s0" d="m721-113.6l-6.3 8.1"/>
	<path id="Layer" class="s0" d="m714.9-105.3c-7.5-4.9-12.4-13.2-12.4-22.7 0-9.5 4.9-17.9 12.4-22.7l6.3 8.6"/>
	<path id="Layer" class="s0" d="m707.8-97.6c-9.9-6.6-16.5-17.9-16.5-30.8 0-12.8 6.6-24.2 16.5-30.8"/>
	<path id="Layer" class="s0" d="m708-97.6l-6.5 9.2c-13-8.5-21.5-23.2-21.5-39.8 0-16.6 8.5-31.3 21.5-39.8l6.3 9"/>
	<rect id="Layer" class="s0" x="530.1" y="-170.1" width="84.4" height="59.6" rx="4"></rect>
	<path id="Layer" class="s0" d="m529.6-120.4h85.4"/>
	<path id="Layer" class="s3" d="m568.1-115.2h7.8"/>
	<path id="Layer" class="s0" d="m555.1-110h33.8v5.2h-33.8z"/>
	<path id="Layer" class="s0" d="m544.6-98.6h54.8v5.2h-54.8z"/>
	<path id="Layer" class="s0" d="m546-99.1l8.7-5.2h34.6l8.7 5.2z"/>
	<path id="Layer" class="s5" d="m552.8-158.3l8 22.4h0.1l8-22.4h0.8l-8.3 23.3h-1l-8.4-23.3zm21.6 23.3v-23.3h6.8q2 0 3.5 0.9 1.5 0.8 2.3 2.3 0.9 1.5 0.9 3.5 0 1.9-0.9 3.4-0.8 1.5-2.3 2.3-1.5 0.9-3.5 0.9h-6.5v-0.8h6.5q1.8 0 3.1-0.7 1.3-0.7 2.1-2 0.8-1.4 0.8-3.1 0-1.8-0.8-3.1-0.8-1.4-2.1-2.1-1.3-0.7-3.1-0.7h-6.1v22.5zm8.9-10.6l5.7 10.6h-0.8l-5.7-10.6z"/>
	<path id="Layer" fill-rule="evenodd" class="s6" d="m-268.8-293.6h3.4v25.6h-3.4zm16.9 23.3q1.7 0 3-1.1 1.3-1 1.5-2.6h3.1q-0.1 1.6-1.2 3.1-1 1.5-2.7 2.4-1.8 0.8-3.7 0.8-3.9 0-6.2-2.5-2.3-2.6-2.3-7.1v-0.6q0-2.8 1-4.9 1.1-2.2 3-3.4 1.9-1.2 4.5-1.2 3.2 0 5.3 1.9 2.1 2 2.3 5h-3.1q-0.2-1.8-1.4-3-1.3-1.2-3.1-1.2-2.5 0-3.9 1.8-1.3 1.8-1.3 5.1v0.7q0 3.2 1.3 5 1.4 1.8 3.9 1.8zm10.6-7.4q0-2.8 1-5 1.1-2.3 3.1-3.5 2-1.2 4.5-1.2 3.9 0 6.3 2.7 2.4 2.7 2.4 7.2v0.2q0 2.8-1.1 5-1.1 2.2-3 3.4-2 1.2-4.6 1.2-3.8 0-6.3-2.6-2.3-2.7-2.3-7.2zm3.2 0.4q0 3.2 1.5 5.1 1.5 1.9 3.9 1.9 2.5 0 4-1.9 1.4-2 1.4-5.5 0-3.1-1.5-5-1.5-2-3.9-2-2.4 0-3.9 1.9-1.5 2-1.5 5.5zm21.4-9.7l0.1 2.4q2.2-2.7 5.7-2.7 6.1 0 6.1 6.8v12.5h-3.2v-12.6q-0.1-2-1-3-0.9-1-2.9-1-1.5 0-2.7 0.9-1.2 0.8-1.9 2.2v13.5h-3.3v-19zm28.1 14q0-1.3-1-2.1-1-0.7-3.5-1.2-2.4-0.6-3.9-1.3-1.4-0.7-2.1-1.8-0.7-1-0.7-2.4 0-2.3 2-3.9 1.9-1.6 5-1.6 3.3 0 5.3 1.6 2 1.7 2 4.3h-3.3q0-1.3-1.1-2.3-1.2-1-2.9-1-1.8 0-2.8 0.8-1 0.8-1 2 0 1.2 1 1.8 0.9 0.6 3.3 1.1 2.5 0.6 4 1.3 1.5 0.8 2.2 1.9 0.8 1 0.8 2.5 0 2.6-2.1 4.1-2 1.6-5.3 1.6-2.3 0-4-0.8-1.8-0.8-2.8-2.3-1-1.4-1-3.1h3.3q0.1 1.6 1.3 2.6 1.2 0.9 3.2 0.9 1.9 0 3-0.7 1.1-0.8 1.1-2z"/>
	<path id="Layer" class="s5" d="m-200-249v1h-70v-1z"/>
	<path id="Layer" fill-rule="evenodd" class="s6" d="m-211 3c0-1.1 0.9-2 2-2h10.2c1.1 0 2 0.9 2 2v6.8c0 1.1-0.9 2-2 2h-10.2c-1.1 0-2-0.9-2-2zm10 3.4l-5-2.8v5.7z"/>
	<path id="Layer" class="s6" d="m-202.7 6.4l-2.5 1.4v-2.8z"/>
	<path id="Layer" class="s6" d="m-268 6.9v-2.6h1.5v-1.7c0-1.5 1-2.6 2.2-2.6h2.3v2.6h-2.3v1.7h2.3l-0.4 2.6h-1.9v5.1h-2.2v-5.1z"/>
	<path id="Layer" class="s6" d="m-238.4 12q-1 0-2-0.1c-1.2-0.2-2.4-0.8-2.7-0.9l-0.9-0.5 1-0.2c1-0.4 1.7-0.5 2.4-0.9-0.7-0.3-1.4-0.9-1.7-1.7l-0.2-0.6h0.2q-0.3-0.2-0.4-0.5c-0.4-0.5-0.6-1.1-0.5-1.6v-0.6l0.3 0.1q-0.2-0.3-0.3-0.8c-0.1-0.7 0-1.4 0.4-2l0.3-0.5 0.4 0.4q2 2.1 4.9 2.5-0.1-0.8 0.2-1.4c0.3-0.5 0.7-0.9 1.2-1.2 0.6-0.4 1.4-0.5 2.1-0.5 0.8 0 1.5 0.3 2 0.8 0.3-0.1 0.5-0.2 0.8-0.3q0.2 0 0.6-0.2l0.8-0.2-0.5 1.4q0 0 0.1 0h0.9l-0.5 0.6q-0.1 0.1-0.1 0.1c0 0.1-0.1 0.1-0.8 1q-0.3 0.4-0.3 0.8 0.1 1.8-0.5 3.1-0.5 1.3-1.6 2.2-1.4 1.1-3.5 1.5-1 0.2-2.1 0.2z"/>
	<path id="Layer" fill-rule="evenodd" class="s6" d="m-179 5c0-1 0.7-1.8 1.6-1.8 0.5 0.1 0.8 0.2 1.1 0.5 1-0.7 2.4-1.2 3.8-1.3l1.1-4.4 2.5 0.9c0.3-0.5 0.8-0.9 1.4-0.9 0.9 0 1.7 0.8 1.7 1.8 0 0.9-0.8 1.7-1.7 1.7-0.8 0-1.6-0.8-1.6-1.7l-1.8-0.7-0.8 3.3c1.6 0 2.9 0.5 4 1.3 0.3-0.3 0.6-0.4 1.1-0.4 0.9 0 1.6 0.7 1.6 1.7 0 0.7-0.3 1.3-0.9 1.5q0.1 0.4 0.1 0.7c0 2.6-2.8 4.8-6.2 4.8-3.4 0-6.2-2.2-6.2-4.8q0-0.3 0.1-0.7c-0.6-0.2-0.9-0.8-0.9-1.5zm10.7 1.3c0-0.7-0.5-1.3-1.2-1.3-0.7 0-1.2 0.6-1.2 1.3 0 0.7 0.5 1.3 1.2 1.3 0.7 0 1.2-0.6 1.2-1.3zm-6 2.6l-0.4 0.8c0.8 0.3 1.8 0.6 2.7 0.6 1 0 1.9-0.3 2.7-0.6l-0.4-0.8c-1.3 0.6-3.3 0.6-4.6 0zm1-2.6c0-0.7-0.5-1.3-1.2-1.3-0.7 0-1.2 0.6-1.2 1.3 0 0.7 0.5 1.3 1.2 1.3 0.7 0 1.2-0.6 1.2-1.3z"/>
	<path id="Layer" fill-rule="evenodd" class="s6" d="m-262.2-38.7q-0.1-0.9-0.9-1.4-0.7-0.4-1.7-0.4-0.8 0-1.4 0.2-0.6 0.3-0.9 0.7-0.3 0.4-0.3 1 0 0.5 0.2 0.8 0.2 0.3 0.6 0.5 0.3 0.3 0.7 0.4 0.4 0.1 0.7 0.2l1.2 0.3q0.5 0.2 1 0.4 0.6 0.2 1.1 0.5 0.5 0.4 0.9 1 0.3 0.5 0.3 1.3 0 1-0.5 1.7-0.5 0.8-1.4 1.3-1 0.4-2.3 0.4-1.3 0-2.2-0.4-0.9-0.4-1.4-1.1-0.5-0.7-0.6-1.7h1.5q0 0.7 0.4 1.1 0.4 0.4 1 0.6 0.6 0.2 1.3 0.2 0.8 0 1.4-0.2 0.7-0.3 1.1-0.8 0.3-0.4 0.3-1.1 0-0.6-0.3-0.9-0.3-0.4-0.8-0.6-0.6-0.2-1.2-0.4l-1.4-0.4q-1.4-0.4-2.2-1.1-0.8-0.8-0.8-1.9 0-1 0.6-1.7 0.5-0.8 1.4-1.2 0.9-0.4 2-0.4 1.1 0 2 0.4 0.9 0.4 1.4 1.1 0.5 0.7 0.5 1.6zm13.7 2.9q0 1.8-0.7 3.2-0.6 1.3-1.8 2-1.2 0.8-2.6 0.8-1.5 0-2.7-0.8-1.1-0.7-1.8-2-0.7-1.4-0.7-3.2 0-1.9 0.7-3.2 0.7-1.3 1.8-2.1 1.2-0.7 2.7-0.7 1.4 0 2.6 0.7 1.2 0.8 1.8 2.1 0.7 1.3 0.7 3.2zm-1.4 0q0-1.5-0.5-2.6-0.5-1-1.3-1.5-0.9-0.6-1.9-0.6-1.1 0-2 0.6-0.8 0.5-1.3 1.5-0.5 1.1-0.5 2.6 0 1.5 0.5 2.5 0.5 1.1 1.3 1.6 0.9 0.5 2 0.5 1 0 1.9-0.5 0.8-0.5 1.3-1.6 0.5-1 0.5-2.5zm13.1-2.2h-1.4q-0.1-0.6-0.4-1.1-0.3-0.4-0.8-0.7-0.4-0.4-0.9-0.5-0.6-0.2-1.2-0.2-1 0-1.9 0.6-0.8 0.5-1.3 1.5-0.5 1.1-0.5 2.6 0 1.5 0.5 2.5 0.5 1.1 1.3 1.6 0.9 0.5 1.9 0.5 0.6 0 1.2-0.1 0.5-0.2 0.9-0.5 0.5-0.3 0.8-0.8 0.3-0.4 0.4-1h1.4q-0.1 0.9-0.6 1.6-0.4 0.7-1 1.2-0.6 0.4-1.4 0.7-0.8 0.3-1.7 0.3-1.4 0-2.6-0.8-1.2-0.7-1.8-2-0.7-1.4-0.7-3.2 0-1.9 0.7-3.2 0.6-1.3 1.8-2.1 1.2-0.7 2.6-0.7 0.9 0 1.7 0.3 0.8 0.2 1.4 0.7 0.6 0.5 1 1.2 0.5 0.7 0.6 1.6zm2.3-3.6h1.4v11.6h-1.4zm4.7 11.6h-1.5l4.3-11.6h1.5l4.2 11.6h-1.4l-1.2-3.3h0.6v-1.2h-1.1l-1.8-5.3h-0.1l-1.9 5.3h-1v1.2h0.6zm1.2-3.3l0.4-1.2h3.8l0.5 1.2zm9.1 3.3v-11.6h1.4v10.4h5.4v1.2z"/>
	<path id="Layer" class="s6" d="m-237 92v-5h16.5v5h-6v6.5l-5 4.5v-11z"/>
	<path id="Layer" class="s6" d="m-265 92l5-5h6.5l-16.5 16v-16h5z"/>
	<path id="Layer" class="s6" d="m-253.5 103h-6l-4-4 3-3z"/>
	<path id="Layer" class="s6" d="m-252 103v-16h7l9.5 10v6l-10.5-11h-1.5v3h2.5l3.5 3.5h-6z"/>
	<path id="Layer" class="s0" d="m-205.5 87l-5.5 15-6-15"/>
	<path id="Layer" class="s0" d="m-203 103v-7.5m0 0v-8h5.5c5 0 6.5 8-1 8m0 0h-4.5m4.5 0l6 7.5"/>
	<path id="Layer" fill-rule="evenodd" class="s6" d="m-266.6 57v-11.6h1.4v10.3h5.4v1.3zm18.4-5.8q0 1.8-0.7 3.2-0.6 1.3-1.8 2-1.2 0.8-2.6 0.8-1.5 0-2.7-0.8-1.2-0.7-1.8-2-0.7-1.4-0.7-3.2 0-1.9 0.7-3.2 0.6-1.3 1.8-2.1 1.2-0.7 2.7-0.7 1.4 0 2.6 0.7 1.2 0.8 1.8 2.1 0.7 1.3 0.7 3.2zm-1.4 0q0-1.5-0.5-2.6-0.5-1-1.3-1.5-0.9-0.6-1.9-0.6-1.1 0-2 0.6-0.8 0.5-1.3 1.5-0.5 1.1-0.5 2.6 0 1.5 0.5 2.5 0.5 1.1 1.3 1.6 0.9 0.5 2 0.5 1 0 1.9-0.5 0.8-0.5 1.3-1.6 0.5-1 0.5-2.5zm11.7-2.2q-0.2-0.6-0.5-1-0.3-0.5-0.7-0.8-0.4-0.3-0.9-0.5-0.6-0.2-1.2-0.2-1 0-1.9 0.6-0.8 0.5-1.3 1.5-0.5 1.1-0.5 2.6 0 1.5 0.5 2.5 0.5 1.1 1.3 1.6 0.9 0.5 2 0.5 1 0 1.8-0.4 0.7-0.4 1.1-1.2 0.5-0.8 0.5-1.8h-3.1v-1.2h4.4v1.2q0 1.5-0.6 2.5-0.6 1.1-1.7 1.7-1 0.6-2.4 0.6-1.6 0-2.7-0.8-1.2-0.7-1.8-2-0.7-1.4-0.7-3.2 0-1.4 0.4-2.5 0.4-1.1 1-1.9 0.7-0.8 1.6-1.2 1-0.4 2.1-0.4 0.9 0 1.7 0.3 0.8 0.3 1.4 0.8 0.7 0.5 1.1 1.2 0.4 0.7 0.6 1.5zm0.1 3.4h0.5l-0.5-0.1q0 0.1 0 0.1zm13.6-1.2q0 1.8-0.6 3.2-0.7 1.3-1.9 2-1.1 0.8-2.6 0.8-1.5 0-2.7-0.8-1.1-0.7-1.8-2-0.6-1.4-0.6-3.2 0-1.9 0.6-3.2 0.7-1.3 1.8-2.1 1.2-0.7 2.7-0.7 1.5 0 2.6 0.7 1.2 0.8 1.9 2.1 0.6 1.3 0.6 3.2zm-1.3 0q0-1.5-0.5-2.6-0.5-1-1.4-1.5-0.9-0.6-1.9-0.6-1.1 0-1.9 0.6-0.9 0.5-1.4 1.5-0.5 1.1-0.5 2.6 0 1.5 0.5 2.5 0.5 1.1 1.4 1.6 0.8 0.5 1.9 0.5 1 0 1.9-0.5 0.9-0.5 1.4-1.6 0.5-1 0.5-2.5z"/>
	<path id="Layer" fill-rule="evenodd" class="s6" d="m1.4-30v-11.6h7v1.2h-5.6v3.9h5.1v1.3h-5.1v5.2zm8.4 0h-1.4l4.2-11.6h1.5l4.3 11.6h-1.5l-1.2-3.3h0.6v-1.2h-1l-1.9-5.3h-0.1l-1.9 5.3h-1v1.2h0.6zm1.2-3.3l0.4-1.2h3.8l0.5 1.2zm8.5-8.3l3.5 9.8h0.1l3.5-9.8h1.4l-4.2 11.6h-1.5l-4.3-11.6zm10.4 0h1.4v11.6h-1.4zm13.6 3.6h-1.4q-0.2-0.6-0.5-1-0.3-0.5-0.7-0.8-0.5-0.3-1-0.5-0.5-0.1-1.1-0.1-1.1 0-1.9 0.5-0.9 0.5-1.4 1.6-0.5 1-0.5 2.5 0 1.5 0.5 2.6 0.5 1 1.4 1.5 0.8 0.6 1.9 0.6 0.6 0 1.1-0.2 0.5-0.1 1-0.4 0.4-0.4 0.7-0.8 0.3-0.5 0.5-1.1h1.4q-0.2 0.9-0.6 1.6-0.4 0.7-1 1.2-0.7 0.5-1.4 0.7-0.8 0.3-1.7 0.3-1.5 0-2.6-0.7-1.2-0.8-1.9-2.1-0.6-1.3-0.6-3.2 0-1.8 0.6-3.2 0.7-1.3 1.9-2 1.1-0.8 2.6-0.8 0.9 0 1.7 0.3 0.7 0.3 1.4 0.8 0.6 0.4 1 1.1 0.4 0.7 0.6 1.6zm12.1 2.2q0 1.9-0.7 3.2-0.7 1.3-1.8 2.1-1.2 0.7-2.7 0.7-1.4 0-2.6-0.7-1.2-0.8-1.8-2.1-0.7-1.3-0.7-3.2 0-1.8 0.7-3.2 0.6-1.3 1.8-2 1.2-0.8 2.6-0.8 1.5 0 2.7 0.8 1.1 0.7 1.8 2 0.7 1.4 0.7 3.2zm-1.4 0q0-1.5-0.5-2.5-0.5-1.1-1.3-1.6-0.9-0.5-2-0.5-1 0-1.9 0.5-0.8 0.5-1.3 1.6-0.5 1-0.5 2.5 0 1.5 0.5 2.6 0.5 1 1.3 1.5 0.9 0.6 1.9 0.6 1.1 0 2-0.6 0.8-0.5 1.3-1.5 0.5-1.1 0.5-2.6zm13-5.8v11.6h-1.4l-6.3-9.1h-0.1v9.1h-1.5v-11.6h1.4l6.4 9.2h0.1v-9.2z"/>
	<path id="Layer" class="s6" d="m-88.6-41.6h1.7l3.9 9.6h0.2l3.9-9.6h1.7v11.6h-1.3v-8.8h-0.1l-3.7 8.8h-1.2l-3.7-8.8h-0.1v8.8h-1.3zm14.2 11.6v-11.6h7.1v1.3h-5.6v3.9h5.2v1.2h-5.2v4h5.7v1.2zm18.7-11.6v11.6h-1.3l-6.4-9.1h-0.1v9.1h-1.4v-11.6h1.4l6.3 9.2h0.2v-9.2zm10.4 0h1.4v7.7q0 1.2-0.5 2.1-0.6 1-1.6 1.5-1 0.5-2.4 0.5-1.4 0-2.4-0.5-1-0.5-1.6-1.5-0.5-0.9-0.5-2.1v-7.7h1.4v7.6q0 0.8 0.4 1.5 0.3 0.7 1 1 0.7 0.4 1.7 0.4 1 0 1.7-0.4 0.7-0.3 1-1 0.4-0.7 0.4-1.5z"/>
	<path id="Layer" class="s7" d="m-86.3-0.5h16.3"/>
	<path id="Layer" class="s7" d="m-86.3 8.4h16.3"/>
	<path id="Layer" class="s7" d="m-90 3.9h11.9"/>
	<path id="Layer" class="s5" d="m0 0h64v64h-64z"/>
	<path id="Layer" class="s8" d="m30 16l-11 30-12-30"/>
	<path id="Layer" class="s8" d="m35 48v-15m0 0v-16h11c10 0 13 16-2 16m0 0h-9m9 0l12 15"/>
	<path id="Layer" class="s5" d="m90 0h32v32h-32z"/>
	<path id="Layer" class="s9" d="m105.5 8l-5.5 15-6-15"/>
	<path id="Layer" class="s9" d="m108 24v-7.5m0 0v-8h5.5c5 0 6.5 8-1 8m0 0h-4.5m4.5 0l6 7.5"/>
	<path id="Layer" fill-rule="evenodd" class="s6" d="m190.8-34h-1.4q-0.2-0.6-0.5-1.1-0.3-0.4-0.7-0.7-0.5-0.4-1-0.5-0.5-0.2-1.1-0.2-1.1 0-1.9 0.6-0.9 0.5-1.4 1.5-0.5 1.1-0.5 2.6 0 1.5 0.5 2.5 0.5 1.1 1.4 1.6 0.8 0.5 1.9 0.5 0.6 0 1.1-0.1 0.5-0.2 1-0.5 0.4-0.3 0.7-0.8 0.3-0.4 0.5-1h1.4q-0.2 0.9-0.6 1.6-0.4 0.7-1.1 1.2-0.6 0.4-1.4 0.7-0.7 0.3-1.6 0.3-1.5 0-2.7-0.8-1.1-0.7-1.8-2-0.6-1.4-0.6-3.2 0-1.9 0.6-3.2 0.7-1.3 1.8-2.1 1.2-0.7 2.7-0.7 0.9 0 1.6 0.3 0.8 0.2 1.4 0.7 0.7 0.5 1.1 1.2 0.4 0.7 0.6 1.6zm2.7 8h-1.5l4.3-11.6h1.5l4.3 11.6h-1.5l-1.2-3.3h0.6v-1.2h-1l-1.9-5.3h-0.1l-1.9 5.3h-1v1.2h0.6zm1.2-3.3l0.4-1.2h3.8l0.5 1.2zm9.1 3.3v-11.6h4q1.3 0 2.2 0.4 0.9 0.5 1.3 1.3 0.4 0.8 0.4 1.8 0 1.1-0.4 1.9-0.4 0.8-1.3 1.2-0.2 0.1-0.5 0.2l2.7 4.8h-1.7l-2.4-4.5q-0.2 0-0.3 0h-2.6v4.5zm1.5-4.5v-1.3h-0.7v1.3zm2.5-1.3q1 0 1.5-0.3 0.6-0.3 0.8-0.8 0.3-0.5 0.3-1.2 0-0.7-0.3-1.2-0.2-0.5-0.8-0.8-0.6-0.3-1.5-0.3h-2.5v4.6zm9.9 5.8h-3.6v-11.6h3.8q1.7 0 2.9 0.7 1.2 0.7 1.8 2 0.7 1.3 0.7 3.1 0 1.8-0.7 3.1-0.6 1.3-1.9 2-1.2 0.7-3 0.7zm-2.1-1.2h2q1.5 0 2.4-0.6 1-0.6 1.5-1.6 0.4-1 0.4-2.4 0-1.4-0.4-2.5-0.5-1-1.4-1.5-0.9-0.6-2.3-0.6h-2.2z"/>
	<rect id="Layer" class="s10" x="180" width="53.9" height="33.7" rx="2"></rect>
	<path id="Layer" class="s11" d="m204.8 21.9h-2.6l1.6-10.1h2.7z"/>
	<path id="Layer" class="s11" d="m202.8 11.8l-4.2 10.1h-2.7l-2.3-8.8q-1.3-0.8-2.8-1.1l0.1-0.2h4.1q0.5-0.1 0.8 0.2 0.4 0.3 0.5 0.7l0.9 4.6 0.3 1.5 2.5-7z"/>
	<path id="Layer" fill-rule="evenodd" class="s11" d="m220.4 20.4h-3.4l-0.5 1.5h-2.8l4-9.3q0.1-0.4 0.4-0.6 0.4-0.2 0.8-0.2h2.1l2.1 10.1h-2.4zm-0.4-2.1l-0.8-3.7-1.4 3.7z"/>
	<path id="Layer" class="s11" d="m210.2 14.6c0 1.1 3.7 1.4 3.7 4 0 2.6-2.7 3.5-4.5 3.5-1 0-2-0.2-3-0.6l0.4-2.3c1.1 0.9 4.4 1.2 4.4-0.2 0-1.4-3.7-1.4-3.7-4 0-2.8 3.1-3.4 4.4-3.4q1.3 0 2.4 0.4l-0.4 2.2c-1.1-0.6-3.7-0.7-3.7 0.4z"/>
	<path id="Layer" class="s12" d="m194.7 13.9c-1.1-0.9-2.4-1.6-3.9-1.9l0.1-0.2h4.1q0.5-0.1 0.8 0.2 0.4 0.3 0.5 0.7l0.9 4.6c-0.5-1.3-1.4-2.5-2.5-3.4z"/>
</svg>