<svg width="111" height="82" viewBox="0 0 111 82" fill="none" xmlns="http://www.w3.org/2000/svg">
<path d="M68.8209 41.1562C68.8209 48.6715 62.8556 54.7461 55.5186 54.7461C48.1816 54.7461 42.2163 48.6715 42.2163 41.1562C42.2163 33.641 48.1816 27.5664 55.5186 27.5664C62.8556 27.5664 68.8209 33.641 68.8209 41.1562Z" stroke="#05C2DF"/>
<path d="M69.666 26.7505C74.2402 29.8395 77.2572 35.1381 77.2572 41.156C77.2572 47.1739 74.2402 52.4725 69.666 55.5615" stroke="#05C2DF"/>
<path d="M69.8389 55.4219L76.0499 63.5234" stroke="#05C2DF"/>
<path d="M75.877 63.6997C83.1541 58.8279 87.9539 50.4712 87.9539 40.98C87.9539 31.4888 83.1541 23.1321 75.877 18.2603L69.666 26.8902" stroke="#05C2DF"/>
<path d="M82.7783 9.80615C92.5506 16.4153 98.9961 27.752 98.9961 40.6277C98.9961 53.5034 92.5506 64.8401 82.7783 71.4492" stroke="#05C2DF"/>
<path d="M82.778 9.98225L88.989 1C101.672 9.53522 110.037 24.1757 110.037 40.8037C110.037 57.4318 101.672 72.0722 88.989 80.6074L82.6055 71.449" stroke="#05C2DF"/>
<path d="M41.3711 26.7505C36.7968 29.8395 33.7797 35.1381 33.7797 41.156C33.7797 47.1739 36.7968 52.4725 41.3711 55.5615" stroke="#05C2DF"/>
<path d="M41.1992 55.4219L34.9882 63.5234" stroke="#05C2DF"/>
<path d="M35.16 63.6997C27.8827 58.8279 23.0829 50.4712 23.0829 40.98C23.0829 31.4888 27.8827 23.1321 35.16 18.2603L41.3711 26.8902" stroke="#05C2DF"/>
<path d="M28.2593 9.80615C18.4871 16.4153 12.0416 27.752 12.0416 40.6277C12.0416 53.5034 18.4871 64.8401 28.2593 71.4492" stroke="#05C2DF"/>
<path d="M28.2596 9.98225L22.0486 1C9.36551 9.53522 1.00012 24.1757 1.00012 40.8037C1.00012 57.4318 9.36551 72.0722 22.0486 80.6074L28.4321 71.449" stroke="#05C2DF"/>
</svg>
