<svg width="88" height="80" viewBox="0 0 88 80" fill="none" xmlns="http://www.w3.org/2000/svg">
<rect x="2.06152" y="1.91992" width="84.3965" height="59.5917" rx="3.5" stroke="#05C2DF"/>
<line x1="1.56152" y1="51.5708" x2="86.958" y2="51.5708" stroke="#05C2DF"/>
<line x1="40.0723" y1="56.7778" x2="47.9243" y2="56.7778" stroke="#05C2DF" stroke-linecap="round"/>
<rect x="27.0557" y="62.0386" width="33.8876" height="5.15385" stroke="#05C2DF"/>
<rect x="16.6416" y="73.3994" width="54.716" height="5.15385" stroke="#05C2DF"/>
<path d="M17.9706 72.8726L26.6925 67.7188H61.3067L70.0286 72.8726H17.9706Z" stroke="#05C2DF"/>
<path d="M34.248 39.064H33.576L23.768 16.6H24.392L33.912 38.424L43.448 16.6H44.072L34.248 39.064ZM56.4278 16.6C58.8171 16.6 60.6731 17.128 61.9958 18.184C63.3291 19.24 63.9958 20.7173 63.9958 22.616C63.9958 24.5147 63.3291 25.9973 61.9958 27.064C60.6624 28.12 58.8064 28.648 56.4278 28.648H54.4438L63.8678 39H63.0998L53.7238 28.648H49.0358V39H48.4438V16.6H56.4278ZM49.0358 17.16V28.104H56.4918C58.6784 28.104 60.3744 27.624 61.5798 26.664C62.7851 25.704 63.3878 24.3547 63.3878 22.616C63.3878 20.888 62.7798 19.5493 61.5638 18.6C60.3584 17.64 58.6678 17.16 56.4918 17.16H49.0358Z" fill="#05C2DF"/>
</svg>
