<svg xmlns="http://www.w3.org/2000/svg" width="394" height="46" fill="none" xmlns:v="https://vecta.io/nano"><path d="M31.081 37h-6.012V19.756l-5.04 14.868h-6.39L8.599 19.81V37H2.587V11.8h8.514l5.742 16.002L22.549 11.8h8.532V37zm11.464-24.678c1.656-.66 3.444-.99 5.364-.99s3.702.33 5.346.99c1.656.66 3.06 1.566 4.212 2.718 1.164 1.14 2.076 2.52 2.736 4.14s.99 3.36.99 5.22-.33 3.6-.99 5.22-1.572 3.006-2.736 4.158c-1.152 1.14-2.556 2.04-4.212 2.7-1.644.66-3.426.99-5.346.99s-3.708-.33-5.364-.99c-1.644-.66-3.048-1.56-4.212-2.7-1.152-1.152-2.058-2.538-2.718-4.158s-.99-3.36-.99-5.22.33-3.6.99-5.22 1.566-3 2.718-4.14c1.164-1.152 2.568-2.058 4.212-2.718zm10.404 6.804c-1.308-1.356-2.988-2.034-5.04-2.034s-3.738.678-5.058 2.034c-1.308 1.356-1.962 3.114-1.962 5.274s.654 3.918 1.962 5.274c1.32 1.356 3.006 2.034 5.058 2.034s3.732-.678 5.04-2.034c1.32-1.356 1.98-3.114 1.98-5.274s-.66-3.918-1.98-5.274zM75.67 11.8c3.084 0 5.442.714 7.074 2.142 1.644 1.428 2.466 3.402 2.466 5.922 0 2.004-.612 3.672-1.836 5.004-1.224 1.32-2.958 2.16-5.202 2.52L85.408 37h-7.164l-6.642-9.432h-.882V37h-6.012V11.8H75.67zm-4.95 5.454v5.256h4.878c1.116 0 1.974-.222 2.574-.666.612-.444.918-1.104.918-1.98s-.306-1.53-.918-1.962-1.47-.648-2.574-.648H70.72zM108.262 37H88.966V11.8h19.224v5.418H94.978v4.356h12.438v5.4H94.978v4.608h13.284V37zm30.88-19.62h-7.452V37h-6.012V17.38h-7.47V11.8h20.934v5.58zm8.746 4.122h10.602V11.8h6.012V37h-6.012v-9.936h-10.602V37h-6.012V11.8h6.012v9.702zM193.531 37h-6.408l-1.908-5.292h-10.008L173.299 37h-6.282l9.666-25.2h7.182l9.666 25.2zm-16.38-10.728h6.12l-3.06-8.496-3.06 8.496zM219.29 37h-5.778l-11.484-15.372V37h-6.012V11.8h5.76l11.484 15.372V11.8h6.03V37z" fill="#fff"/><g fill="#05c2df"><path d="M238.804 20.944c.18-.252.396-.504.612-.72 1.188-1.188 2.736-1.836 4.392-1.836s3.204.648 4.392 1.836a6.45 6.45 0 0 1 1.368 2.016l.144.288h6.336l-.144-.612a12.26 12.26 0 0 0-5.076-7.488c-2.052-1.44-4.464-2.196-6.984-2.196-3.636 0-7.092 1.584-9.432 4.356l-.288.36 4.392 4.392.288-.396zm6.372 5.688l2.232 3.096a6.24 6.24 0 0 1-3.564 1.116c-1.656 0-3.204-.648-4.392-1.836s-1.836-2.736-1.836-4.392c0-.324.036-.648.072-.972l.036-.252-4.752-4.752-.288.648c-.792 1.656-1.188 3.456-1.188 5.328a12.28 12.28 0 0 0 3.636 8.748A12.28 12.28 0 0 0 243.88 37c2.196 0 4.356-.576 6.228-1.692v1.656h6.12v-10.26l-11.052-.072zM259.796 37h7.164l6.984-11.484-3.564-5.904L259.796 37zm15.3-25.164l-3.564 5.868 10.188 16.884 1.476 2.448h7.164l-15.264-25.2zM293.968 37h6.12v-8.1l-6.12-6.12V37zm23.76-24.732L306.316 23.68l-11.412-11.412h-.972v7.704l6.12 6.12 6.228 6.264 6.228-6.264V37h6.12V12.268h-.9zm4.576 0v3.06l6.12 6.12v-9.18h-6.12zm0 24.732h6.12V24.256l-6.12-6.12V37zm9.703 0h6.12v-8.1l-6.12-6.12V37zm16.812-19.44l-.144.144V28l-15.552-15.552-.144-.144h-.972v7.704l6.12 6.12 3.924 3.924 6.732 6.732.252.252h5.76V11.584l-5.976 5.976zm16.934 3.384c.18-.252.396-.504.612-.72 1.188-1.188 2.736-1.836 4.392-1.836s3.204.648 4.392 1.836a6.45 6.45 0 0 1 1.368 2.016l.144.288h6.336l-.144-.612a12.26 12.26 0 0 0-5.076-7.488c-2.052-1.44-4.464-2.196-6.984-2.196-3.636 0-7.092 1.584-9.432 4.356l-.288.36 4.392 4.392.288-.396zm6.372 5.688l2.232 3.096a6.24 6.24 0 0 1-3.564 1.116c-1.656 0-3.204-.648-4.392-1.836s-1.836-2.736-1.836-4.392c0-.324.036-.648.072-.972l.036-.252-4.752-4.752-.288.648c-.792 1.656-1.188 3.456-1.188 5.328a12.28 12.28 0 0 0 3.636 8.748A12.28 12.28 0 0 0 370.829 37c2.196 0 4.356-.576 6.228-1.692v1.656h6.12v-10.26l-11.052-.072zm14.62-14.616v15.12l5.148 5.148V12.016h-5.148zm0 24.984h5.148v-.504l-5.148-5.148V37z"/><path d="M277 30h5v4h-8l3-4z"/></g></svg>