<svg xmlns="http://www.w3.org/2000/svg" width="346" height="46" fill="none" xmlns:v="https://vecta.io/nano"><path d="M31.518 37h-7.164l-4.752-16.254L14.85 37H7.686L.342 11.8h6.21l4.806 18.054 5.04-18.054h6.498l5.04 18.09 4.806-18.09h6.12L31.518 37zm15.979-15.498h10.602V11.8h6.012V37h-6.012v-9.936H47.497V37h-6.012V11.8h6.012v9.702zm34.591 5.796V37h-6.03v-9.666L66.482 11.8h6.966L79.1 21.862 84.734 11.8h6.768l-9.414 15.498z" fill="#fff"/><g fill="#05c2df"><path d="M117.71 37h6.12v-7.92l-6.12-6.12V37zm14.508-11.016l10.008-6.624.216-.144v-7.344l-14.652 9.684-9.792-9.324h-.288v7.884l16.848 16.848h8.676l-11.016-10.98zM144.288 37h7.164l6.984-11.484-3.564-5.904L144.288 37zm15.3-25.164l-3.564 5.868 10.188 16.884 1.476 2.448h7.164l-15.264-25.2zM183.811 37h6.12v-6.696l-6.12-6.12V37zm-9.288-24.732v6.12h9.288v2.988l6.12 6.12v-9.108h9.324v-6.12h-24.732zm52.478 18.612h-.936V12.268h-6.12V37h13.176l-5.976-5.976-.144-.144zm2.808 0l6.12 6.12h1.224v-6.12h-7.344zm32.08-15.012a12.28 12.28 0 0 0-8.748-3.636c-2.772 0-5.4.9-7.596 2.592l-.432.36 4.356 4.356.324-.216c.972-.612 2.124-.936 3.312-.936 1.656 0 3.204.648 4.392 1.836s1.836 2.736 1.836 4.392c0 1.188-.324 2.34-.936 3.312l-.216.324 4.356 4.356.36-.432c1.692-2.196 2.592-4.824 2.592-7.596a12.28 12.28 0 0 0-3.636-8.748l.036.036zm-5.472 13.968c-.972.612-2.124.936-3.312.936-1.656 0-3.204-.648-4.392-1.836s-1.836-2.736-1.836-4.392c0-1.188.324-2.34.936-3.312l.216-.324-4.356-4.356-.36.432c-1.692 2.196-2.592 4.824-2.592 7.596a12.28 12.28 0 0 0 3.636 8.748 12.28 12.28 0 0 0 8.748 3.636c2.772 0 5.4-.9 7.596-2.592l.432-.36-4.356-4.356-.36.18zm19.66-8.424a6.99 6.99 0 0 1 1.224-1.692c1.224-1.224 2.844-1.908 4.572-1.908s3.348.684 4.572 1.908a6.28 6.28 0 0 1 1.404 2.088l.144.288h6.48l-.144-.612c-.612-2.772-2.16-5.292-4.392-7.092-2.268-1.836-5.112-2.844-8.028-2.844-4.176 0-8.1 2.052-10.476 5.472l-.252.324 4.644 4.644.252-.576zm11.736 5.292a6.28 6.28 0 0 1-1.404 2.088 6.99 6.99 0 0 1-1.692 1.224c-.18.108-.36.18-.576.252a6.93 6.93 0 0 1-1.908.396c-.288 0-.612 0-.9-.036a6.35 6.35 0 0 1-5.868-5.868v-.18l-5.328-5.328-.252.756c-.468 1.368-.72 2.808-.72 4.248 0 3.384 1.332 6.588 3.744 9s5.616 3.744 9 3.744c1.728 0 3.384-.324 4.968-.972.288-.108.576-.252.864-.396 1.62-.828 3.096-2.052 4.212-3.492 1.152-1.476 1.98-3.204 2.376-5.004l.144-.612h-6.48l-.18.18zm31.275-10.836a12.28 12.28 0 0 0-8.748-3.636c-2.772 0-5.4.9-7.596 2.592l-.432.36 4.356 4.356.324-.216c.972-.612 2.124-.936 3.312-.936 1.656 0 3.204.648 4.392 1.836s1.836 2.736 1.836 4.392c0 1.188-.324 2.34-.936 3.312l-.216.324 4.356 4.356.36-.432c1.692-2.196 2.592-4.824 2.592-7.596a12.28 12.28 0 0 0-3.636-8.748l.036.036zm-5.472 13.968c-.972.612-2.124.936-3.312.936-1.656 0-3.204-.648-4.392-1.836s-1.836-2.736-1.836-4.392c0-1.188.324-2.34.936-3.312l.216-.324-4.356-4.356-.36.432c-1.692 2.196-2.592 4.824-2.592 7.596a12.28 12.28 0 0 0 3.636 8.748 12.28 12.28 0 0 0 8.748 3.636c2.772 0 5.4-.9 7.596-2.592l.432-.36-4.356-4.356-.36.18zm19.66 1.008V37h5.328v-.828l-3.888-3.888-1.44-1.44zm10.008-14.508c-1.296-3.24-4.464-5.544-8.172-5.544-4.752 0-8.64 3.744-8.856 8.424h5.364c.216-1.728 1.692-3.06 3.492-3.06a3.48 3.48 0 0 1 1.98.612c.576.396 1.008.936 1.26 1.584.18.396.252.828.252 1.296 0 .648-.18 1.188-.396 1.62l-4.932 4.932v.252l2.016 2.016 1.62 1.62 1.692 1.692v-3.384l1.44-1.44a7.03 7.03 0 0 0 .828-.612c.324-.288.612-.576.9-.9 1.332-1.548 2.16-3.564 2.16-5.76 0-1.152-.216-2.268-.612-3.276l-.036-.072z"/><path d="M161 30h5v4h-8l3-4z"/></g></svg>