<svg width="51" height="334" viewBox="0 0 51 344" fill="none" xmlns="http://www.w3.org/2000/svg">
<mask id="path-1-outside-1_1_10674" maskUnits="userSpaceOnUse" x="-1.0005" y="-1.4488" width="53.7858" height="336.412" fill="black">
<rect fill="white" x="-1.0005" y="-1.4488" width="53.7858" height="336.412"/>
<path d="M1.12463 14.0481L1.0115 0.412215L47.6828 15.3892L47.8261 32.6613L1.40972 48.4106L1.29659 34.7747L34.9382 24.3134L34.9352 23.9498L1.12463 14.0481ZM19.4665 11.3504L19.6792 36.9859L10.225 37.0643L10.0123 11.4288L19.4665 11.3504ZM1.44691 52.8934L47.9908 52.5072L48.1582 72.6883C48.1876 76.2337 47.7351 79.2148 46.8005 81.6317C45.8661 84.0638 44.5328 85.9007 42.8007 87.1424C41.0686 88.3992 39.0208 89.0374 36.6572 89.057C34.9452 89.0712 33.3815 88.7054 31.9662 87.9596C30.551 87.2288 29.3605 86.1932 28.3948 84.8527C27.4443 83.5121 26.7797 81.9418 26.4011 80.1418L25.9466 80.1456C25.8874 82.1462 25.3949 83.9685 24.4692 85.6126C23.5585 87.2566 22.2891 88.5702 20.6608 89.5534C19.0477 90.5365 17.1427 91.0372 14.9458 91.0554C12.4004 91.0765 10.1298 90.4287 8.13399 89.1119C6.13827 87.8102 4.56213 85.9444 3.40557 83.5145C2.24901 81.0847 1.65671 78.1804 1.62868 74.8017L1.44691 52.8934ZM11.6423 65.4456L11.6913 71.3545C11.7089 73.4756 12.1161 75.0632 12.9127 76.1172C13.7245 77.1711 14.9107 77.6916 16.4712 77.6787C17.5621 77.6696 18.4842 77.412 19.2376 76.9057C19.9911 76.3994 20.5609 75.6825 20.9471 74.7551C21.3335 73.8427 21.5214 72.7427 21.5107 71.4548L21.4602 65.3641L11.6423 65.4456ZM29.2781 65.2993L29.3211 70.4809C29.3302 71.5869 29.5126 72.5627 29.8681 73.4083C30.2236 74.2538 30.7291 74.9088 31.3844 75.373C32.0551 75.8523 32.8677 76.088 33.8222 76.0801C35.2616 76.0682 36.3557 75.5439 37.1047 74.5074C37.8689 73.4707 38.2444 72.1645 38.2314 70.5888L38.1869 65.2253L29.2781 65.2993ZM25.4476 140.538C20.266 140.581 15.8865 139.61 12.3093 137.624C8.74728 135.639 6.03542 132.941 4.17374 129.532C2.32721 126.123 1.38647 122.313 1.35153 118.101C1.31633 113.859 2.20117 110.018 4.00603 106.579C5.82617 103.154 8.50054 100.42 12.0292 98.3753C15.573 96.3458 19.9207 95.3097 25.072 95.267C30.2536 95.224 34.6254 96.1878 38.1873 98.1583C41.7646 100.144 44.4764 102.834 46.3228 106.227C48.1844 109.636 49.1329 113.462 49.1681 117.704C49.203 121.916 48.3181 125.742 46.5132 129.181C44.7235 132.62 42.0567 135.362 38.513 137.407C34.9844 139.451 30.6292 140.495 25.4476 140.538ZM25.3397 127.539C28.1275 127.515 30.4729 127.125 32.3757 126.367C34.2939 125.623 35.7394 124.528 36.7122 123.08C37.7004 121.648 38.1858 119.886 38.1684 117.795C38.1511 115.705 37.6365 113.944 36.6246 112.513C35.6279 111.097 34.1645 110.025 32.2341 109.299C30.3191 108.588 27.9676 108.243 25.1799 108.267C22.3921 108.29 20.0391 108.673 18.121 109.416C16.2181 110.174 14.7726 111.27 13.7844 112.702C12.8116 114.15 12.3338 115.919 12.3512 118.01C12.3685 120.101 12.8755 121.854 13.8721 123.27C14.884 124.701 16.3475 125.772 18.2626 126.484C20.1929 127.21 22.552 127.562 25.3397 127.539ZM48.9966 173.736L49.1014 186.372L19.2842 186.619C15.7389 186.649 12.6638 185.826 10.0589 184.15C7.46927 182.49 5.45743 180.158 4.02337 177.155C2.60446 174.151 1.87848 170.657 1.84542 166.672C1.81211 162.657 2.47989 159.137 3.84877 156.11C5.2328 153.083 7.20567 150.718 9.76739 149.015C12.3444 147.327 15.4055 146.468 18.9509 146.439L48.768 146.191L48.8729 158.827L20.1466 159.066C18.7072 159.078 17.422 159.407 16.291 160.052C15.1751 160.698 14.3036 161.584 13.6766 162.71C13.0497 163.852 12.7422 165.143 12.7541 166.582C12.7662 168.036 13.0951 169.322 13.7407 170.437C14.3863 171.553 15.2724 172.425 16.3988 173.052C17.5405 173.679 18.8309 173.986 20.2703 173.974L48.9966 173.736ZM38.9592 191.189L49.1407 191.105L49.4763 231.558L39.2948 231.642L39.1787 217.643L2.81628 217.945L2.71295 205.49L39.0753 205.189L38.9592 191.189ZM49.85 276.607L49.9549 289.243L20.1377 289.491C16.5924 289.52 13.5173 288.697 10.9124 287.022C8.32275 285.361 6.31091 283.029 4.87686 280.026C3.45795 277.023 2.73197 273.529 2.69891 269.544C2.6656 265.529 3.33338 262.008 4.70226 258.981C6.08628 255.955 8.05916 253.59 10.6209 251.887C13.1979 250.199 16.259 249.34 19.8044 249.31L49.6215 249.063L49.7264 261.699L21.0001 261.937C19.5607 261.949 18.2755 262.278 17.1445 262.924C16.0286 263.569 15.1571 264.455 14.5301 265.582C13.9032 266.724 13.5957 268.014 13.6076 269.453C13.6197 270.908 13.9485 272.193 14.5942 273.309C15.2398 274.425 16.1259 275.296 17.2523 275.923C18.3939 276.55 19.6844 276.858 21.1238 276.846L49.85 276.607ZM35.6679 320.46C37.182 320.326 38.3591 319.748 39.1991 318.726C40.0393 317.719 40.4509 316.192 40.4339 314.147C40.4231 312.844 40.2551 311.777 39.93 310.947C39.6202 310.131 39.1986 309.528 38.665 309.139C38.1315 308.749 37.5237 308.55 36.8418 308.54C36.281 308.515 35.7742 308.617 35.3216 308.848C34.8842 309.094 34.4858 309.477 34.1265 309.995C33.7823 310.513 33.4696 311.174 33.1884 311.98C32.9072 312.785 32.6575 313.742 32.4394 314.85L31.653 318.675C31.1289 321.255 30.4275 323.465 29.5488 325.306C28.6701 327.147 27.6296 328.655 26.4272 329.832C25.2399 331.009 23.8986 331.876 22.4032 332.434C20.9079 333.007 19.2739 333.308 17.5014 333.338C14.4408 333.348 11.8436 332.605 9.7099 331.107C7.57619 329.61 5.94463 327.456 4.81523 324.648C3.68595 321.854 3.10497 318.487 3.07229 314.548C3.03873 310.503 3.6079 306.968 4.77982 303.943C5.95186 300.933 7.77334 298.584 10.2443 296.897C12.7305 295.225 15.9204 294.365 19.8141 294.317L19.9137 306.317C18.4901 306.405 17.2961 306.771 16.3318 307.415C15.3674 308.059 14.64 308.959 14.1495 310.115C13.6592 311.286 13.4207 312.674 13.4341 314.28C13.4452 315.629 13.6213 316.756 13.9621 317.662C14.303 318.569 14.7708 319.254 15.3656 319.719C15.9604 320.184 16.6366 320.42 17.3943 320.429C18.1063 320.408 18.7255 320.168 19.252 319.709C19.7938 319.265 20.2726 318.534 20.6884 317.516C21.1194 316.497 21.5171 315.122 21.8815 313.392L22.843 308.747C23.7027 304.619 25.1682 301.357 27.2393 298.961C29.3256 296.58 32.187 295.382 35.8234 295.367C38.7777 295.327 41.3675 296.093 43.5927 297.666C45.8332 299.253 47.5864 301.459 48.8523 304.281C50.1183 307.12 50.7666 310.379 50.7972 314.061C50.8283 317.819 50.2265 321.074 48.9918 323.826C47.757 326.579 46.0018 328.707 43.7264 330.211C41.4662 331.73 38.8134 332.51 35.7682 332.55L35.6679 320.46Z"/>
</mask>
<path d="M1.12463 14.0481L0.124662 14.0564L0.130823 14.7991L0.843578 15.0078L1.12463 14.0481ZM1.0115 0.412215L1.31705 -0.53996L5.46033e-05 -0.962587L0.0115297 0.420511L1.0115 0.412215ZM47.6828 15.3892L48.6828 15.3809L48.6768 14.6579L47.9884 14.437L47.6828 15.3892ZM47.8261 32.6613L48.1474 33.6083L48.8321 33.376L48.8261 32.653L47.8261 32.6613ZM1.40972 48.4106L0.409754 48.4189L0.421229 49.802L1.73103 49.3575L1.40972 48.4106ZM1.29659 34.7747L0.999654 33.8198L0.290461 34.0403L0.296622 34.783L1.29659 34.7747ZM34.9382 24.3134L35.2352 25.2683L35.9444 25.0478L35.9382 24.3051L34.9382 24.3134ZM34.9352 23.9498L35.9352 23.9415L35.929 23.1988L35.2163 22.9901L34.9352 23.9498ZM19.4665 11.3504L20.4665 11.3421L20.4582 10.3421L19.4582 10.3504L19.4665 11.3504ZM19.6792 36.9859L19.6875 37.9858L20.6875 37.9775L20.6792 36.9776L19.6792 36.9859ZM10.225 37.0643L9.22502 37.0726L9.23331 38.0726L10.2333 38.0643L10.225 37.0643ZM10.0123 11.4288L10.004 10.4289L9.00403 10.4372L9.01233 11.4371L10.0123 11.4288ZM2.12459 14.0398L2.01146 0.403919L0.0115297 0.420511L0.124662 14.0564L2.12459 14.0398ZM0.705938 1.36439L47.3773 16.3413L47.9884 14.437L1.31705 -0.53996L0.705938 1.36439ZM46.6828 15.3975L46.8261 32.6696L48.8261 32.653L48.6828 15.3809L46.6828 15.3975ZM47.5048 31.7143L1.08841 47.4636L1.73103 49.3575L48.1474 33.6083L47.5048 31.7143ZM2.40969 48.4023L2.29655 34.7664L0.296622 34.783L0.409754 48.4189L2.40969 48.4023ZM1.59352 35.7296L35.2352 25.2683L34.6413 23.3585L0.999654 33.8198L1.59352 35.7296ZM35.9382 24.3051L35.9352 23.9415L33.9352 23.9581L33.9383 24.3217L35.9382 24.3051ZM35.2163 22.9901L1.40568 13.0884L0.843578 15.0078L34.6542 24.9095L35.2163 22.9901ZM18.4665 11.3587L18.6792 36.9942L20.6792 36.9776L20.4665 11.3421L18.4665 11.3587ZM19.6709 35.9859L10.2167 36.0643L10.2333 38.0643L19.6875 37.9858L19.6709 35.9859ZM11.2249 37.056L11.0123 11.4205L9.01233 11.4371L9.22502 37.0726L11.2249 37.056ZM10.0206 12.4288L19.4748 12.3504L19.4582 10.3504L10.004 10.4289L10.0206 12.4288ZM1.44691 52.8934L1.43862 51.8934L0.43865 51.9017L0.446946 52.9017L1.44691 52.8934ZM47.9908 52.5072L48.9907 52.4989L48.9824 51.4989L47.9825 51.5072L47.9908 52.5072ZM46.8005 81.6317L45.8678 81.2711L45.8671 81.2731L46.8005 81.6317ZM42.8007 87.1424L42.218 86.3296L42.2134 86.333L42.8007 87.1424ZM31.9662 87.9596L32.4324 87.0749L32.4249 87.071L31.9662 87.9596ZM28.3948 84.8527L27.579 85.4311L27.5834 85.4372L28.3948 84.8527ZM26.4011 80.1418L27.3797 79.936L27.2112 79.1351L26.3928 79.1419L26.4011 80.1418ZM25.9466 80.1456L25.9383 79.1456L24.9755 79.1536L24.947 80.116L25.9466 80.1456ZM24.4692 85.6126L23.5978 85.1219L23.5944 85.128L24.4692 85.6126ZM20.6608 89.5534L20.1439 88.6974L20.1404 88.6995L20.6608 89.5534ZM8.13399 89.1119L8.68471 88.2772L8.68029 88.2743L8.13399 89.1119ZM3.40557 83.5145L4.3085 83.0848L3.40557 83.5145ZM11.6423 65.4456L11.634 64.4456L10.634 64.4539L10.6423 65.4539L11.6423 65.4456ZM12.9127 76.1172L12.1149 76.7202L12.1205 76.7275L12.9127 76.1172ZM20.9471 74.7551L20.0263 74.3651L20.024 74.3706L20.9471 74.7551ZM21.4602 65.3641L22.4601 65.3558L22.4518 64.3559L21.4519 64.3642L21.4602 65.3641ZM29.2781 65.2993L29.2698 64.2993L28.2698 64.3076L28.2781 65.3076L29.2781 65.2993ZM29.8681 73.4083L28.9463 73.7959L29.8681 73.4083ZM31.3844 75.373L31.9659 74.5594L31.9625 74.557L31.3844 75.373ZM37.1047 74.5074L36.2997 73.914L36.2942 73.9217L37.1047 74.5074ZM38.1869 65.2253L39.1868 65.2171L39.1785 64.2171L38.1786 64.2254L38.1869 65.2253ZM1.45521 53.8933L47.9991 53.5072L47.9825 51.5072L1.43862 51.8934L1.45521 53.8933ZM46.9908 52.5155L47.1582 72.6966L49.1582 72.68L48.9907 52.4989L46.9908 52.5155ZM47.1582 72.6966C47.187 76.1592 46.7435 79.0064 45.8678 81.2711L47.7332 81.9924C48.7266 79.4232 49.1883 76.3081 49.1582 72.68L47.1582 72.6966ZM45.8671 81.2731C44.987 83.5636 43.7592 85.2249 42.2181 86.3296L43.3833 87.9551C45.3065 86.5765 46.7452 84.5639 47.734 81.9904L45.8671 81.2731ZM42.2134 86.333C40.6673 87.4549 38.8272 88.039 36.6489 88.0571L36.6655 90.057C39.2144 90.0359 41.4699 89.3436 43.388 87.9517L42.2134 86.333ZM36.6489 88.0571C35.0902 88.07 33.6913 87.7383 32.4324 87.0749L31.4999 88.8442C33.0717 89.6725 34.8001 90.0725 36.6655 90.057L36.6489 88.0571ZM32.4249 87.071C31.1548 86.4152 30.0835 85.486 29.2062 84.2682L27.5834 85.4372C28.6376 86.9005 29.9471 88.0425 31.5074 88.8481L32.4249 87.071ZM29.2106 84.2743C28.3482 83.058 27.7335 81.6179 27.3797 79.936L25.4225 80.3476C25.8259 82.2656 26.5403 83.9661 27.579 85.4311L29.2106 84.2743ZM26.3928 79.1419L25.9383 79.1456L25.9549 81.1456L26.4094 81.1418L26.3928 79.1419ZM24.947 80.116C24.8923 81.9649 24.4393 83.6274 23.5978 85.1219L25.3405 86.1032C26.3505 84.3095 26.8825 82.3274 26.9461 80.1752L24.947 80.116ZM23.5944 85.128C22.7696 86.6171 21.6243 87.8034 20.1439 88.6974L21.1777 90.4094C22.9538 89.3369 24.3475 87.896 25.3439 86.0971L23.5944 85.128ZM20.1404 88.6995C18.7053 89.5741 16.9835 90.0385 14.9375 90.0554L14.9541 92.0554C17.3019 92.0359 19.3901 91.4989 21.1812 90.4073L20.1404 88.6995ZM14.9375 90.0554C12.5773 90.075 10.5038 89.4774 8.6847 88.2772L7.58327 89.9466C9.75581 91.38 12.2236 92.078 14.9541 92.0554L14.9375 90.0554ZM8.68029 88.2743C6.85795 87.0857 5.39647 85.3705 4.3085 83.0848L2.50263 83.9443C3.72779 86.5183 5.4186 88.5347 7.58769 89.9495L8.68029 88.2743ZM4.3085 83.0848C3.22854 80.8158 2.65576 78.0624 2.62864 74.7934L0.628712 74.81C0.657653 78.2984 1.26948 81.3535 2.50263 83.9443L4.3085 83.0848ZM2.62864 74.7934L2.44688 52.8851L0.446946 52.9017L0.628712 74.81L2.62864 74.7934ZM10.6423 65.4539L10.6914 71.3628L12.6913 71.3462L12.6423 65.4373L10.6423 65.4539ZM10.6914 71.3628C10.7098 73.5786 11.1314 75.4189 12.1149 76.7202L13.7105 75.5143C13.1007 74.7075 12.7081 73.3726 12.6913 71.3462L10.6914 71.3628ZM12.1205 76.7275C13.1579 78.0743 14.6671 78.6937 16.4795 78.6786L16.4629 76.6787C15.1543 76.6896 14.2911 76.268 13.7049 75.507L12.1205 76.7275ZM16.4795 78.6786C17.7262 78.6683 18.8491 78.3716 19.7954 77.7357L18.6799 76.0757C18.1194 76.4523 17.398 76.6709 16.4629 76.6787L16.4795 78.6786ZM19.7954 77.7357C20.7289 77.1084 21.417 76.228 21.8703 75.1395L20.024 74.3706C19.7048 75.137 19.2532 75.6904 18.6799 76.0757L19.7954 77.7357ZM21.868 75.145C22.3211 74.0751 22.5221 72.8319 22.5107 71.4465L20.5107 71.4631C20.5206 72.6534 20.3459 73.6104 20.0263 74.3651L21.868 75.145ZM22.5107 71.4465L22.4601 65.3558L20.4602 65.3724L20.5107 71.4631L22.5107 71.4465ZM21.4519 64.3642L11.634 64.4456L11.6506 66.4455L21.4685 66.3641L21.4519 64.3642ZM28.2781 65.3076L28.3211 70.4892L30.321 70.4726L30.278 65.291L28.2781 65.3076ZM28.3211 70.4892C28.3311 71.6993 28.531 72.8082 28.9463 73.7959L30.7899 73.0207C30.4942 72.3173 30.3293 71.4745 30.321 70.4726L28.3211 70.4892ZM28.9463 73.7959C29.3636 74.7885 29.9779 75.6022 30.8064 76.189L31.9625 74.557C31.4802 74.2154 31.0836 73.7192 30.7899 73.0207L28.9463 73.7959ZM30.803 76.1866C31.6718 76.8075 32.6992 77.0895 33.8305 77.0801L33.8139 75.0801C33.0362 75.0866 32.4385 74.8972 31.9659 74.5595L30.803 76.1866ZM33.8305 77.0801C35.542 77.0659 36.9546 76.4225 37.9153 75.0931L36.2942 73.9217C35.7569 74.6653 34.9811 75.0705 33.8139 75.0801L33.8305 77.0801ZM37.9097 75.1007C38.8287 73.8539 39.2458 72.3231 39.2313 70.5805L37.2314 70.5971C37.2431 72.0059 36.909 73.0875 36.2998 73.914L37.9097 75.1007ZM39.2313 70.5805L39.1868 65.2171L37.1869 65.2336L37.2314 70.5971L39.2313 70.5805ZM38.1786 64.2254L29.2698 64.2993L29.2864 66.2992L38.1951 66.2253L38.1786 64.2254ZM12.3093 137.624L11.8224 138.498L11.824 138.499L12.3093 137.624ZM4.17374 129.532L3.29444 130.009L3.29609 130.012L4.17374 129.532ZM4.00603 106.579L3.123 106.109L3.12055 106.114L4.00603 106.579ZM12.0292 98.3753L11.5322 97.5075L11.5278 97.5101L12.0292 98.3753ZM38.1873 98.1583L38.6727 97.2839L38.6714 97.2833L38.1873 98.1583ZM46.3228 106.227L45.4443 106.705L45.4451 106.707L46.3228 106.227ZM46.5132 129.181L45.6277 128.717L45.6261 128.72L46.5132 129.181ZM38.513 137.407L38.0132 136.541L38.0116 136.542L38.513 137.407ZM32.3757 126.367L32.0144 125.434L32.0056 125.438L32.3757 126.367ZM36.7122 123.08L35.889 122.513L35.8823 122.523L36.7122 123.08ZM36.6246 112.513L35.8068 113.088L35.8081 113.09L36.6246 112.513ZM32.2341 109.299L32.5863 108.363L32.5823 108.362L32.2341 109.299ZM18.121 109.416L17.7597 108.484L17.7508 108.487L18.121 109.416ZM13.7844 112.702L12.9612 112.134L12.9545 112.144L13.7844 112.702ZM13.8721 123.27L13.0544 123.846L13.0556 123.847L13.8721 123.27ZM18.2626 126.484L18.6148 125.548L18.6108 125.546L18.2626 126.484ZM25.4393 139.538C20.3851 139.58 16.1858 138.632 12.7946 136.75L11.824 138.499C15.5873 140.588 20.1468 141.582 25.4559 141.538L25.4393 139.538ZM12.7962 136.751C9.39039 134.852 6.81799 132.288 5.05139 129.053L3.29609 130.012C5.25284 133.595 8.10418 136.425 11.8224 138.498L12.7962 136.751ZM5.05303 129.056C3.291 125.803 2.38521 122.156 2.3515 118.093L0.351567 118.109C0.387749 122.47 1.36343 126.444 3.29444 130.009L5.05303 129.056ZM2.3515 118.093C2.31754 114 3.17008 110.324 4.89151 107.043L3.12055 106.114C1.23225 109.712 0.315133 113.718 0.351567 118.109L2.3515 118.093ZM4.88904 107.048C6.61683 103.797 9.15486 101.196 12.5305 99.2406L11.5278 97.5101C7.84622 99.6432 5.0355 102.511 3.12302 106.109L4.88904 107.048ZM12.5261 99.2431C15.8871 97.3184 20.0564 96.3087 25.0803 96.267L25.0637 94.267C19.7849 94.3108 15.259 95.3733 11.5322 97.5075L12.5261 99.2431ZM25.0803 96.267C30.1359 96.225 34.3277 97.1659 37.7033 99.0333L38.6714 97.2833C34.9231 95.2096 30.3714 94.223 25.0637 94.267L25.0803 96.267ZM37.702 99.0326C41.1235 100.932 43.6941 103.488 45.4443 106.705L47.2012 105.75C45.2586 102.179 42.4056 99.356 38.6727 97.284L37.702 99.0326ZM45.4451 106.707C47.2207 109.958 48.1341 113.619 48.1681 117.713L50.168 117.696C50.1316 113.305 49.1481 109.315 47.2004 105.748L45.4451 106.707ZM48.1681 117.713C48.2018 121.774 47.3497 125.435 45.6277 128.717L47.3987 129.646C49.2864 126.049 50.2042 122.058 50.168 117.696L48.1681 117.713ZM45.6261 128.72C43.9293 131.98 41.4016 134.586 38.0132 136.541L39.0127 138.273C42.7119 136.139 45.5177 133.261 47.4003 129.643L45.6261 128.72ZM38.0116 136.542C34.6683 138.479 30.4937 139.496 25.4393 139.538L25.4559 141.538C30.7648 141.494 35.3005 140.424 39.0143 138.272L38.0116 136.542ZM25.348 128.539C28.2179 128.515 30.6945 128.113 32.7459 127.296L32.0056 125.438C30.2512 126.137 28.0371 126.516 25.3314 126.539L25.348 128.539ZM32.737 127.299C34.8109 126.495 36.4358 125.285 37.5422 123.638L35.8823 122.523C35.043 123.771 33.7768 124.751 32.0144 125.434L32.737 127.299ZM37.5354 123.648C38.6622 122.015 39.1871 120.041 39.1684 117.787L37.1685 117.804C37.1845 119.731 36.7386 121.281 35.8891 122.513L37.5354 123.648ZM39.1684 117.787C39.1497 115.533 38.592 113.563 37.4411 111.935L35.8081 113.09C36.681 114.324 37.1525 115.877 37.1685 117.804L39.1684 117.787ZM37.4423 111.937C36.3096 110.328 34.6679 109.146 32.5863 108.363L31.8819 110.235C33.661 110.904 34.9463 111.866 35.8068 113.088L37.4423 111.937ZM32.5823 108.362C30.52 107.595 28.0396 107.243 25.1716 107.267L25.1881 109.267C27.8957 109.244 30.1181 109.58 31.8859 110.236L32.5823 108.362ZM25.1716 107.267C22.3031 107.29 19.8226 107.684 17.7597 108.484L18.4823 110.349C20.2556 109.661 22.481 109.289 25.1881 109.267L25.1716 107.267ZM17.7508 108.487C15.6977 109.305 14.0802 110.512 12.9613 112.134L14.6076 113.27C15.465 112.027 16.7384 111.043 18.4911 110.345L17.7508 108.487ZM12.9545 112.144C11.8484 113.79 11.3325 115.766 11.3512 118.018L13.3511 118.001C13.3351 116.071 13.7747 114.509 14.6144 113.26L12.9545 112.144ZM11.3512 118.018C11.3699 120.269 11.9183 122.231 13.0544 123.846L14.6899 122.694C13.8327 121.476 13.3671 119.932 13.3511 118.001L11.3512 118.018ZM13.0556 123.847C14.2021 125.469 15.8426 126.651 17.9143 127.421L18.6108 125.546C16.8524 124.893 15.5659 123.933 14.6886 122.693L13.0556 123.847ZM17.9104 127.42C19.9886 128.202 22.4777 128.562 25.348 128.539L25.3314 126.539C22.6262 126.561 20.3972 126.219 18.6148 125.548L17.9104 127.42ZM48.9966 173.736L49.9965 173.728L49.9882 172.728L48.9883 172.736L48.9966 173.736ZM49.1014 186.372L49.1097 187.372L50.1097 187.364L50.1014 186.364L49.1014 186.372ZM10.0589 184.15L10.5998 183.309L10.5986 183.308L10.0589 184.15ZM4.02337 177.155L3.11918 177.582L3.12096 177.586L4.02337 177.155ZM3.84877 156.11L2.93933 155.694L2.93763 155.698L3.84877 156.11ZM9.76739 149.015L9.21941 148.179L9.21374 148.182L9.76739 149.015ZM48.768 146.191L49.768 146.183L49.7597 145.183L48.7597 145.192L48.768 146.191ZM48.8729 158.827L48.8812 159.827L49.8811 159.819L49.8728 158.819L48.8729 158.827ZM16.291 160.052L15.7952 159.184L15.7902 159.187L16.291 160.052ZM13.6766 162.71L12.8028 162.224L12.8001 162.229L13.6766 162.71ZM13.7407 170.437L12.8751 170.938L13.7407 170.437ZM16.3988 173.052L15.9125 173.926L15.9175 173.928L16.3988 173.052ZM47.9966 173.744L48.1014 186.38L50.1014 186.364L49.9965 173.728L47.9966 173.744ZM49.0931 185.372L19.2759 185.619L19.2925 187.619L49.1097 187.372L49.0931 185.372ZM19.2759 185.619C15.8963 185.647 13.0183 184.865 10.5998 183.309L9.51794 184.991C12.3093 186.787 15.5815 187.65 19.2925 187.619L19.2759 185.619ZM10.5986 183.308C8.17864 181.757 6.2864 179.573 4.92578 176.724L3.12096 177.586C4.62845 180.743 6.75989 183.223 9.51914 184.992L10.5986 183.308ZM4.92755 176.728C3.58166 173.879 2.87748 170.532 2.84539 166.664L0.845454 166.681C0.87948 170.782 1.62727 174.424 3.11919 177.582L4.92755 176.728ZM2.84539 166.664C2.81303 162.764 3.46189 159.392 4.75991 156.522L2.93763 155.698C1.49789 158.881 0.811187 162.55 0.845454 166.681L2.84539 166.664ZM4.7582 156.526C6.07136 153.654 7.92711 151.439 10.321 149.848L9.21374 148.182C6.48423 149.997 4.39423 152.512 2.93934 155.694L4.7582 156.526ZM10.3153 149.852C12.7087 148.284 15.576 147.467 18.9592 147.439L18.9426 145.439C15.235 145.47 11.98 146.37 9.21942 148.179L10.3153 149.852ZM18.9592 147.439L48.7763 147.191L48.7597 145.192L18.9426 145.439L18.9592 147.439ZM47.7681 146.2L47.8729 158.836L49.8728 158.819L49.768 146.183L47.7681 146.2ZM48.8646 157.827L20.1383 158.066L20.1549 160.066L48.8812 159.827L48.8646 157.827ZM20.1383 158.066C18.5463 158.079 17.09 158.445 15.7952 159.184L16.7868 160.921C17.7541 160.368 18.8682 160.076 20.1549 160.066L20.1383 158.066ZM15.7902 159.187C14.518 159.923 13.5177 160.94 12.8028 162.224L14.5503 163.197C15.0896 162.228 15.8322 161.473 16.7918 160.918L15.7902 159.187ZM12.8001 162.229C12.0824 163.536 11.741 164.998 11.7542 166.59L13.7541 166.574C13.7434 165.287 14.017 164.168 14.5531 163.192L12.8001 162.229ZM11.7542 166.59C11.7675 168.195 12.1322 169.654 12.8751 170.938L14.6063 169.937C14.0579 168.989 13.7649 167.878 13.7541 166.574L11.7542 166.59ZM12.8751 170.938C13.6112 172.21 14.6283 173.211 15.9125 173.926L16.8852 172.178C15.9165 171.639 15.1615 170.896 14.6063 169.937L12.8751 170.938ZM15.9175 173.928C17.2244 174.646 18.6865 174.987 20.2786 174.974L20.262 172.974C18.9753 172.985 17.8565 172.711 16.8802 172.175L15.9175 173.928ZM20.2786 174.974L49.0049 174.736L48.9883 172.736L20.262 172.974L20.2786 174.974ZM38.9592 191.189L38.9509 190.189L37.9509 190.198L37.9592 191.197L38.9592 191.189ZM49.1407 191.105L50.1406 191.096L50.1323 190.096L49.1324 190.105L49.1407 191.105ZM49.4763 231.558L49.4846 232.558L50.4845 232.55L50.4762 231.55L49.4763 231.558ZM39.2948 231.642L38.2948 231.651L38.3031 232.651L39.3031 232.642L39.2948 231.642ZM39.1787 217.643L40.1786 217.635L40.1703 216.635L39.1704 216.643L39.1787 217.643ZM2.81628 217.945L1.81631 217.953L1.82461 218.953L2.82458 218.944L2.81628 217.945ZM2.71295 205.49L2.70466 204.49L1.70469 204.499L1.71299 205.499L2.71295 205.49ZM39.0753 205.189L39.0836 206.189L40.0836 206.18L40.0753 205.18L39.0753 205.189ZM38.9675 192.189L49.149 192.105L49.1324 190.105L38.9509 190.189L38.9675 192.189ZM48.1407 191.113L48.4763 231.566L50.4762 231.55L50.1406 191.096L48.1407 191.113ZM49.468 230.558L39.2865 230.642L39.3031 232.642L49.4846 232.558L49.468 230.558ZM40.2948 231.634L40.1786 217.635L38.1787 217.651L38.2948 231.651L40.2948 231.634ZM39.1704 216.643L2.80798 216.945L2.82458 218.944L39.187 218.643L39.1704 216.643ZM3.81625 217.936L3.71292 205.482L1.71299 205.499L1.81631 217.953L3.81625 217.936ZM2.72125 206.49L39.0836 206.189L39.067 204.189L2.70466 204.49L2.72125 206.49ZM40.0753 205.18L39.9592 191.181L37.9592 191.197L38.0754 205.197L40.0753 205.18ZM49.85 276.607L50.85 276.599L50.8417 275.599L49.8417 275.608L49.85 276.607ZM49.9549 289.243L49.9632 290.243L50.9631 290.235L50.9548 289.235L49.9549 289.243ZM10.9124 287.022L11.4533 286.181L11.4521 286.18L10.9124 287.022ZM4.87686 280.026L3.97267 280.453L3.97445 280.457L4.87686 280.026ZM4.70226 258.981L3.79282 258.566L3.79112 258.569L4.70226 258.981ZM10.6209 251.887L10.0729 251.05L10.0672 251.054L10.6209 251.887ZM49.6215 249.063L50.6215 249.055L50.6132 248.055L49.6132 248.063L49.6215 249.063ZM49.7264 261.699L49.7346 262.699L50.7346 262.691L50.7263 261.691L49.7264 261.699ZM17.1445 262.924L16.6486 262.055L16.6437 262.058L17.1445 262.924ZM14.5301 265.582L13.6563 265.096L13.6536 265.101L14.5301 265.582ZM14.5942 273.309L13.7286 273.81L14.5942 273.309ZM17.2523 275.923L16.766 276.797L16.771 276.8L17.2523 275.923ZM48.8501 276.616L48.9549 289.252L50.9548 289.235L50.85 276.599L48.8501 276.616ZM49.9466 288.243L20.1294 288.491L20.146 290.491L49.9632 290.243L49.9466 288.243ZM20.1294 288.491C16.7498 288.519 13.8717 287.736 11.4533 286.181L10.3714 287.863C13.1628 289.658 16.435 290.522 20.146 290.491L20.1294 288.491ZM11.4521 286.18C9.03213 284.628 7.13989 282.445 5.77926 279.595L3.97445 280.457C5.48193 283.614 7.61338 286.094 10.3726 287.864L11.4521 286.18ZM5.78104 279.599C4.43514 276.75 3.73097 273.404 3.69887 269.536L1.69894 269.552C1.73297 273.653 2.48076 277.295 3.97268 280.453L5.78104 279.599ZM3.69887 269.536C3.66652 265.636 4.31538 262.263 5.6134 259.393L3.79112 258.569C2.35138 261.753 1.66467 265.422 1.69894 269.552L3.69887 269.536ZM5.61169 259.397C6.92485 256.525 8.7806 254.311 11.1745 252.719L10.0672 251.054C7.33771 252.869 5.24772 255.384 3.79282 258.566L5.61169 259.397ZM11.1688 252.723C13.5622 251.155 16.4295 250.338 19.8127 250.31L19.7961 248.31C16.0885 248.341 12.8335 249.242 10.0729 251.05L11.1688 252.723ZM19.8127 250.31L49.6298 250.063L49.6132 248.063L19.7961 248.31L19.8127 250.31ZM48.6216 249.071L48.7264 261.707L50.7263 261.691L50.6215 249.055L48.6216 249.071ZM49.7181 260.699L20.9918 260.937L21.0084 262.937L49.7346 262.699L49.7181 260.699ZM20.9918 260.937C19.3997 260.95 17.9435 261.316 16.6487 262.055L17.6403 263.792C18.6076 263.24 19.7217 262.948 21.0084 262.937L20.9918 260.937ZM16.6437 262.058C15.3715 262.794 14.3712 263.811 13.6563 265.096L15.4038 266.068C15.9431 265.1 16.6857 264.345 17.6453 263.789L16.6437 262.058ZM13.6536 265.101C12.9359 266.407 12.5944 267.87 12.6077 269.462L14.6076 269.445C14.5969 268.158 14.8705 267.04 15.4066 266.063L13.6536 265.101ZM12.6077 269.462C12.621 271.067 12.9857 272.526 13.7286 273.81L15.4597 272.808C14.9114 271.86 14.6184 270.749 14.6076 269.445L12.6077 269.462ZM13.7286 273.81C14.4647 275.082 15.4818 276.082 16.766 276.797L17.7387 275.05C16.77 274.51 16.015 273.768 15.4597 272.808L13.7286 273.81ZM16.771 276.8C18.0779 277.518 19.54 277.859 21.1321 277.846L21.1155 275.846C19.8288 275.857 18.71 275.583 17.7337 275.047L16.771 276.8ZM21.1321 277.846L49.8583 277.607L49.8417 275.608L21.1155 275.846L21.1321 277.846ZM35.6679 320.46L35.5799 319.463L34.6603 319.545L34.6679 320.468L35.6679 320.46ZM39.1991 318.726L38.4312 318.085L38.4265 318.091L39.1991 318.726ZM39.93 310.947L38.9952 311.302L38.9988 311.311L39.93 310.947ZM38.665 309.139L39.2547 308.331L39.2546 308.331L38.665 309.139ZM36.8418 308.54L36.7961 309.539L36.812 309.54L36.8279 309.54L36.8418 308.54ZM35.3216 308.848L34.867 307.958L34.8489 307.967L34.8312 307.977L35.3216 308.848ZM34.1265 309.995L33.3048 309.425L33.2991 309.433L33.2936 309.441L34.1265 309.995ZM32.4394 314.85L33.419 315.051L33.4206 315.043L32.4394 314.85ZM31.653 318.675L30.6735 318.473L30.673 318.476L31.653 318.675ZM29.5488 325.306L28.6464 324.875L29.5488 325.306ZM26.4272 329.832L25.7277 329.117L25.7233 329.122L26.4272 329.832ZM22.4032 332.434L22.0536 331.497L22.0453 331.5L22.4032 332.434ZM17.5014 333.338L17.5047 334.338L17.5182 334.338L17.5014 333.338ZM9.7099 331.107L9.13543 331.926L9.7099 331.107ZM4.81523 324.648L5.74304 324.274L5.74236 324.273L4.81523 324.648ZM4.77982 303.943L3.84797 303.58L3.84734 303.581L4.77982 303.943ZM10.2443 296.897L9.68617 296.067L9.68037 296.071L10.2443 296.897ZM19.8141 294.317L20.8141 294.309L20.8058 293.305L19.8019 293.318L19.8141 294.317ZM19.9137 306.317L19.9751 307.315L20.9215 307.257L20.9136 306.309L19.9137 306.317ZM16.3318 307.415L15.7762 306.584L16.3318 307.415ZM14.1495 310.115L13.229 309.724L13.2271 309.729L14.1495 310.115ZM13.9621 317.662L13.0262 318.014L13.9621 317.662ZM15.3656 319.719L14.7499 320.507L15.3656 319.719ZM17.3943 320.429L17.3826 321.429L17.4032 321.43L17.4239 321.429L17.3943 320.429ZM19.252 319.709L18.6183 318.936L18.6065 318.946L18.595 318.956L19.252 319.709ZM20.6884 317.516L19.7674 317.126L19.7626 317.138L20.6884 317.516ZM21.8815 313.392L22.8601 313.598L22.8608 313.595L21.8815 313.392ZM22.843 308.747L21.864 308.544L21.8638 308.545L22.843 308.747ZM27.2393 298.961L26.4871 298.302L26.4827 298.307L27.2393 298.961ZM35.8234 295.367L35.8275 296.367L35.8368 296.366L35.8234 295.367ZM43.5927 297.666L44.1709 296.85L44.1698 296.849L43.5927 297.666ZM48.8523 304.281L49.7656 303.874L49.7648 303.872L48.8523 304.281ZM48.9918 323.826L48.0793 323.417L48.9918 323.826ZM43.7264 330.211L43.175 329.377L43.1686 329.381L43.7264 330.211ZM35.7682 332.55L34.7683 332.558L34.7766 333.563L35.7815 333.55L35.7682 332.55ZM35.7559 321.456C37.4941 321.302 38.9354 320.622 39.9717 319.361L38.4265 318.091C37.7827 318.874 36.8699 319.349 35.5799 319.463L35.7559 321.456ZM39.967 319.366C41.0238 318.1 41.4517 316.295 41.4339 314.139L39.4339 314.155C39.45 316.09 39.0547 317.338 38.4313 318.085L39.967 319.366ZM41.4339 314.139C41.4225 312.765 41.2462 311.566 40.8613 310.582L38.9988 311.311C39.264 311.989 39.4237 312.923 39.4339 314.155L41.4339 314.139ZM40.8649 310.592C40.5079 309.652 39.9875 308.866 39.2547 308.331L38.0754 309.947C38.4096 310.191 38.7326 310.61 38.9952 311.302L40.8649 310.592ZM39.2546 308.331C38.5481 307.815 37.7377 307.553 36.8557 307.54L36.8279 309.54C37.3098 309.547 37.7148 309.683 38.0754 309.947L39.2546 308.331ZM36.8875 307.541C36.1719 307.509 35.4899 307.64 34.867 307.958L35.7762 309.739C36.0585 309.595 36.39 309.521 36.7961 309.539L36.8875 307.541ZM34.8312 307.977C34.2326 308.314 33.7288 308.813 33.3048 309.425L34.9482 310.565C35.2429 310.14 35.5358 309.875 35.8119 309.72L34.8312 307.977ZM33.2936 309.441C32.8896 310.049 32.5436 310.793 32.2443 311.65L34.1325 312.31C34.3956 311.556 34.675 310.976 34.9594 310.548L33.2936 309.441ZM32.2443 311.65C31.9435 312.512 31.6827 313.516 31.4583 314.657L33.4206 315.043C33.6323 313.968 33.8709 313.059 34.1325 312.31L32.2443 311.65ZM31.4599 314.648L30.6735 318.473L32.6325 318.876L33.419 315.051L31.4599 314.648ZM30.673 318.476C30.1607 320.998 29.4814 323.126 28.6464 324.875L30.4513 325.737C31.3737 323.805 32.0971 321.512 32.633 318.874L30.673 318.476ZM28.6464 324.875C27.8078 326.632 26.8307 328.038 25.7277 329.117L27.1266 330.547C28.4285 329.273 29.5325 327.661 30.4513 325.737L28.6464 324.875ZM25.7233 329.122C24.6319 330.203 23.4099 330.991 22.0536 331.497L22.7527 333.371C24.3872 332.761 25.848 331.814 27.1311 330.542L25.7233 329.122ZM22.0453 331.5C20.67 332.027 19.1529 332.31 17.4846 332.338L17.5182 334.338C19.395 334.306 21.1457 333.986 22.761 333.367L22.0453 331.5ZM17.4981 332.338C14.6071 332.348 12.2209 331.648 10.2844 330.289L9.13543 331.926C11.4663 333.562 14.2744 334.349 17.5047 334.338L17.4981 332.338ZM10.2844 330.289C8.33332 328.919 6.81216 326.933 5.74304 324.274L3.88742 325.021C5.0771 327.979 6.81906 330.3 9.13543 331.926L10.2844 330.289ZM5.74236 324.273C4.67218 321.625 4.1042 318.39 4.07225 314.54L2.07232 314.556C2.10574 318.585 2.69972 322.082 3.8881 325.022L5.74236 324.273ZM4.07225 314.54C4.03949 310.591 4.59575 307.186 5.71229 304.304L3.84734 303.581C2.62005 306.749 2.03796 310.415 2.07232 314.556L4.07225 314.54ZM5.71166 304.305C6.81664 301.468 8.51715 299.287 10.8082 297.723L9.68037 296.071C7.02954 297.881 5.08707 300.398 3.84797 303.58L5.71166 304.305ZM10.8024 297.727C13.0851 296.191 16.0697 295.363 19.8263 295.317L19.8019 293.318C15.7712 293.367 12.3759 294.258 9.68618 296.067L10.8024 297.727ZM18.8142 294.326L18.9137 306.325L20.9136 306.309L20.8141 294.309L18.8142 294.326ZM19.8523 305.319C18.2925 305.415 16.9179 305.821 15.7762 306.584L16.8873 308.246C17.6743 307.721 18.6878 307.394 19.9751 307.315L19.8523 305.319ZM15.7762 306.584C14.6364 307.345 13.789 308.405 13.229 309.724L15.0701 310.506C15.4909 309.514 16.0983 308.774 16.8873 308.246L15.7762 306.584ZM13.2271 309.729C12.6726 311.053 12.4199 312.582 12.4341 314.288L14.434 314.272C14.4215 312.767 14.6458 311.519 15.0719 310.501L13.2271 309.729ZM12.4341 314.288C12.4459 315.712 12.6312 316.964 13.0262 318.014L14.8981 317.31C14.6114 316.548 14.4446 315.546 14.434 314.272L12.4341 314.288ZM13.0262 318.014C13.4137 319.045 13.9747 319.901 14.7499 320.507L15.9813 318.931C15.5669 318.607 15.1923 318.092 14.8981 317.31L13.0262 318.014ZM14.7499 320.507C15.5181 321.107 16.4067 321.418 17.3826 321.429L17.406 319.429C16.8666 319.423 16.4027 319.26 15.9813 318.931L14.7499 320.507ZM17.4239 321.429C18.3622 321.401 19.2044 321.077 19.9091 320.463L18.595 318.956C18.2466 319.259 17.8504 319.415 17.3647 319.43L17.4239 321.429ZM19.8858 320.483C20.6096 319.89 21.168 318.987 21.6143 317.894L19.7626 317.138C19.3772 318.082 18.9781 318.641 18.6183 318.936L19.8858 320.483ZM21.6094 317.905C22.0757 316.803 22.4892 315.359 22.8601 313.598L20.903 313.186C20.5449 314.886 20.1631 316.191 19.7674 317.126L21.6094 317.905ZM22.8608 313.595L23.8223 308.95L21.8638 308.545L20.9023 313.189L22.8608 313.595ZM23.822 308.951C24.6582 304.936 26.0668 301.846 27.9958 299.615L26.4827 298.307C24.2696 300.867 22.7473 304.302 21.864 308.544L23.822 308.951ZM27.9914 299.62C29.8598 297.487 32.4306 296.381 35.8275 296.367L35.8192 294.367C31.9434 294.383 28.7915 295.672 26.4871 298.302L27.9914 299.62ZM35.8368 296.366C38.5987 296.329 40.9777 297.042 43.0156 298.482L44.1698 296.849C41.7573 295.144 38.9567 294.324 35.8099 294.367L35.8368 296.366ZM43.0146 298.482C45.0915 299.953 46.7376 302.01 47.9399 304.691L49.7648 303.872C48.4353 300.907 46.5749 298.553 44.1709 296.85L43.0146 298.482ZM47.9391 304.689C49.1397 307.38 49.7676 310.5 49.7972 314.069L51.7971 314.053C51.7657 310.259 51.097 306.859 49.7656 303.874L47.9391 304.689ZM49.7972 314.069C49.8275 317.717 49.2426 320.824 48.0793 323.417L49.9042 324.236C51.2104 321.324 51.8292 317.92 51.7971 314.053L49.7972 314.069ZM48.0793 323.417C46.9137 326.016 45.2758 327.989 43.175 329.377L44.2777 331.046C46.7279 329.426 48.6003 327.142 49.9042 324.236L48.0793 323.417ZM43.1686 329.381C41.0882 330.779 38.6298 331.512 35.755 331.55L35.7815 333.55C38.9971 333.507 41.8441 332.681 44.2841 331.041L43.1686 329.381ZM36.7682 332.542L36.6679 320.451L34.6679 320.468L34.7683 332.558L36.7682 332.542Z" fill="#05C2DF" mask="url(#path-1-outside-1_1_10674)"/>
</svg>
