<svg width="52" height="334" viewBox="0 0 52 334" fill="none" xmlns="http://www.w3.org/2000/svg">
<mask id="path-1-outside-1_3495_4399" maskUnits="userSpaceOnUse" x="-1.04395" y="-1.0115" width="53.7858" height="336.412" fill="black">
<rect fill="white" x="-1.04395" y="-1.0115" width="53.7858" height="336.412"/>
<path d="M50.6167 319.903L50.7298 333.539L4.05852 318.562L3.91522 301.29L50.3316 285.541L50.4447 299.177L16.8031 309.638L16.8061 310.001L50.6167 319.903ZM32.2748 322.601L32.0621 296.965L41.5164 296.887L41.729 322.522L32.2748 322.601ZM50.2944 281.058L3.75057 281.444L3.58314 261.263C3.55372 257.718 4.00628 254.736 4.94081 252.32C5.87521 249.887 7.2085 248.051 8.94068 246.809C10.6727 245.552 12.7205 244.914 15.0841 244.894C16.7962 244.88 18.3599 245.246 19.7752 245.992C21.1904 246.722 22.3808 247.758 23.3465 249.099C24.2971 250.439 24.9617 252.009 25.3402 253.809L25.7948 253.806C25.8539 251.805 26.3464 249.983 27.2722 248.339C28.1828 246.695 29.4523 245.381 31.0805 244.398C32.6936 243.415 34.5986 242.914 36.7955 242.896C39.3409 242.875 41.6115 243.523 43.6074 244.839C45.6031 246.141 47.1792 248.007 48.3358 250.437C49.4923 252.867 50.0846 255.771 50.1127 259.15L50.2944 281.058ZM40.099 268.506L40.05 262.597C40.0324 260.476 39.6253 258.888 38.8286 257.834C38.0168 256.78 36.8307 256.26 35.2701 256.273C34.1792 256.282 33.2571 256.539 32.5037 257.046C31.7503 257.552 31.1805 258.269 30.7942 259.196C30.4078 260.109 30.22 261.209 30.2307 262.496L30.2812 268.587L40.099 268.506ZM22.4633 268.652L22.4203 263.47C22.4111 262.364 22.2288 261.389 21.8733 260.543C21.5177 259.697 21.0123 259.042 20.3569 258.578C19.6862 258.099 18.8736 257.863 17.9191 257.871C16.4798 257.883 15.3856 258.407 14.6366 259.444C13.8725 260.481 13.4969 261.787 13.51 263.362L13.5545 268.726L22.4633 268.652ZM26.2937 193.413C31.4754 193.37 35.8548 194.341 39.432 196.327C42.9941 198.313 45.7059 201.01 47.5676 204.419C49.4141 207.828 50.3549 211.638 50.3898 215.85C50.425 220.093 49.5402 223.933 47.7353 227.373C45.9152 230.797 43.2408 233.531 39.7122 235.576C36.1683 237.605 31.8207 238.642 26.6693 238.684C21.4877 238.727 17.1159 237.763 13.554 235.793C9.97679 233.807 7.26499 231.118 5.41859 227.724C3.55691 224.315 2.60847 220.489 2.57327 216.247C2.53833 212.035 3.42329 208.209 5.22815 204.77C7.01786 201.331 9.6846 198.589 13.2284 196.544C16.757 194.5 21.1121 193.456 26.2937 193.413ZM26.4016 206.413C23.6138 206.436 21.2685 206.826 19.3656 207.585C17.4475 208.328 16.002 209.423 15.0291 210.871C14.041 212.303 13.5555 214.065 13.5729 216.156C13.5902 218.247 14.1049 220.008 15.1168 221.439C16.1134 222.855 17.5769 223.926 19.5072 224.652C21.4223 225.364 23.7737 225.708 26.5615 225.685C29.3493 225.662 31.7022 225.278 33.6204 224.535C35.5232 223.777 36.9688 222.682 37.9569 221.249C38.9298 219.802 39.4075 218.032 39.3902 215.942C39.3728 213.851 38.8659 212.097 37.8692 210.681C36.8573 209.25 35.3938 208.179 33.4788 207.468C31.5484 206.741 29.1894 206.389 26.4016 206.413ZM2.74479 160.215L2.63996 147.579L32.4571 147.332C36.0024 147.303 39.0776 148.126 41.6825 149.801C44.2721 151.461 46.2839 153.793 47.718 156.797C49.1369 159.8 49.8629 163.294 49.8959 167.279C49.9292 171.294 49.2615 174.815 47.8926 177.841C46.5085 180.868 44.5357 183.233 41.974 184.936C39.397 186.624 36.3358 187.483 32.7905 187.512L2.97332 187.76L2.86848 175.124L31.5948 174.886C33.0341 174.874 34.3193 174.545 35.4504 173.899C36.5662 173.253 37.4377 172.367 38.0648 171.241C38.6917 170.099 38.9992 168.809 38.9872 167.369C38.9751 165.915 38.6463 164.63 38.0006 163.514C37.355 162.398 36.469 161.526 35.3425 160.899C34.2009 160.272 32.9104 159.965 31.4711 159.977L2.74479 160.215ZM12.7822 142.762L2.60069 142.847L2.26507 102.393L12.4465 102.309L12.5627 116.308L48.9251 116.007L49.0284 128.461L12.666 128.763L12.7822 142.762ZM1.89131 57.3438L1.78648 44.7079L31.6036 44.4605C35.149 44.4311 38.2241 45.2541 40.829 46.9295C43.4186 48.5899 45.4304 50.9218 46.8645 53.9251C48.2834 56.9286 49.0094 60.4227 49.0424 64.4074C49.0758 68.4224 48.408 71.9432 47.0391 74.9698C45.6551 77.9966 43.6822 80.3615 41.1205 82.0646C38.5435 83.7528 35.4823 84.6115 31.937 84.6409L2.11984 84.8883L2.015 72.2524L30.7413 72.014C32.1806 72.0021 33.4658 71.6732 34.5969 71.0275C35.7128 70.3818 36.5842 69.4958 37.2113 68.3693C37.8382 67.2277 38.1457 65.9373 38.1337 64.4979C38.1217 63.0434 37.7928 61.7582 37.1472 60.6423C36.5015 59.5264 35.6155 58.655 34.489 58.0279C33.3474 57.401 32.0569 57.0935 30.6176 57.1055L1.89131 57.3438ZM16.0734 13.4917C14.5594 13.6254 13.3823 14.2034 12.5423 15.2256C11.7021 16.2326 11.2905 17.7588 11.3075 19.8042C11.3183 21.1071 11.4862 22.174 11.8113 23.0046C12.1211 23.8203 12.5428 24.4229 13.0764 24.8124C13.6099 25.2019 14.2176 25.4014 14.8996 25.4109C15.4604 25.4366 15.9671 25.3339 16.4198 25.1028C16.8572 24.8568 17.2555 24.4747 17.6149 23.9565C17.9591 23.4385 18.2718 22.7768 18.553 21.9714C18.8342 21.166 19.0838 20.2094 19.3019 19.1014L20.0884 15.2766C20.6125 12.6964 21.3138 10.486 22.1925 8.64528C23.0712 6.8046 24.1118 5.29591 25.3142 4.11923C26.5014 2.94267 27.8428 2.07545 29.3382 1.51757C30.8335 0.944543 32.4674 0.643098 34.24 0.61324C37.3006 0.603 39.8978 1.34663 42.0315 2.84413C44.1652 4.34163 45.7967 6.49484 46.9261 9.30375C48.0554 12.0975 48.6364 15.464 48.6691 19.4033C48.7026 23.4486 48.1335 26.9837 46.9615 30.0087C45.7895 33.0185 43.968 35.3671 41.4971 37.0543C39.0109 38.7265 35.8209 39.5863 31.9272 39.6338L31.8277 27.6342C33.2513 27.5466 34.4452 27.1806 35.4096 26.5362C36.374 25.8919 37.1014 24.9919 37.5918 23.8362C38.0821 22.6655 38.3206 21.2771 38.3073 19.6711C38.2961 18.3226 38.1201 17.1953 37.7792 16.289C37.4384 15.3827 36.9705 14.6971 36.3757 14.2324C35.781 13.7676 35.1047 13.5308 34.3471 13.5219C33.6351 13.5429 33.0158 13.7829 32.4893 14.2419C31.9475 14.6858 31.4687 15.417 31.0529 16.4357C30.622 17.4544 30.2243 18.829 29.8598 20.5594L28.8983 25.2039C28.0386 29.3323 26.5732 32.5946 24.5021 34.9907C22.4157 37.3717 19.5543 38.5697 15.918 38.5847C12.9637 38.6244 10.3739 37.858 8.14864 36.2855C5.90812 34.6979 4.15492 32.4927 2.88903 29.6698C1.62302 26.8317 0.974737 23.5718 0.944192 19.8901C0.913018 16.1327 1.51482 12.8776 2.7496 10.1248C3.98438 7.37206 5.73951 5.24379 8.015 3.74001C10.2752 2.2212 12.9279 1.44159 15.9731 1.40118L16.0734 13.4917Z"/>
</mask>
<path d="M50.6167 319.903L51.6167 319.895L51.6105 319.152L50.8978 318.943L50.6167 319.903ZM50.7298 333.539L50.4243 334.491L51.7413 334.914L51.7298 333.531L50.7298 333.539ZM4.05852 318.562L3.05856 318.57L3.06455 319.293L3.75297 319.514L4.05852 318.562ZM3.91522 301.29L3.59391 300.343L2.90926 300.575L2.91526 301.298L3.91522 301.29ZM50.3316 285.541L51.3316 285.532L51.3201 284.149L50.0103 284.594L50.3316 285.541ZM50.4447 299.177L50.7417 300.131L51.4509 299.911L51.4447 299.168L50.4447 299.177ZM16.8031 309.638L16.5062 308.683L15.797 308.903L15.8031 309.646L16.8031 309.638ZM16.8061 310.001L15.8062 310.01L15.8123 310.752L16.5251 310.961L16.8061 310.001ZM32.2748 322.601L31.2749 322.609L31.2832 323.609L32.2831 323.601L32.2748 322.601ZM32.0621 296.965L32.0538 295.965L31.0539 295.974L31.0622 296.974L32.0621 296.965ZM41.5164 296.887L42.5163 296.879L42.508 295.879L41.5081 295.887L41.5164 296.887ZM41.729 322.522L41.7373 323.522L42.7373 323.514L42.729 322.514L41.729 322.522ZM49.6167 319.911L49.7299 333.547L51.7298 333.531L51.6167 319.895L49.6167 319.911ZM51.0354 332.587L4.36408 317.61L3.75297 319.514L50.4243 334.491L51.0354 332.587ZM5.05849 318.554L4.91519 301.282L2.91526 301.298L3.05856 318.57L5.05849 318.554ZM4.23653 302.237L50.6529 286.488L50.0103 284.594L3.59391 300.343L4.23653 302.237ZM49.3317 285.549L49.4448 299.185L51.4447 299.168L51.3316 285.532L49.3317 285.549ZM50.1478 298.222L16.5062 308.683L17.1 310.593L50.7417 300.131L50.1478 298.222ZM15.8031 309.646L15.8062 310.01L17.8061 309.993L17.8031 309.63L15.8031 309.646ZM16.5251 310.961L50.3357 320.863L50.8978 318.943L17.0872 309.042L16.5251 310.961ZM33.2748 322.593L33.0621 296.957L31.0622 296.974L31.2749 322.609L33.2748 322.593ZM32.0704 297.965L41.5246 297.887L41.5081 295.887L32.0538 295.965L32.0704 297.965ZM40.5164 296.895L40.7291 322.531L42.729 322.514L42.5163 296.879L40.5164 296.895ZM41.7207 321.522L32.2665 321.601L32.2831 323.601L41.7373 323.522L41.7207 321.522ZM50.2944 281.058L50.3027 282.058L51.3027 282.05L51.2944 281.05L50.2944 281.058ZM3.75057 281.444L2.75061 281.452L2.7589 282.452L3.75887 282.444L3.75057 281.444ZM4.94081 252.32L5.87351 252.68L5.87428 252.678L4.94081 252.32ZM8.94068 246.809L9.5233 247.622L9.52798 247.618L8.94068 246.809ZM19.7752 245.992L19.309 246.876L19.3164 246.88L19.7752 245.992ZM23.3465 249.099L24.1623 248.52L24.1579 248.514L23.3465 249.099ZM25.3402 253.809L24.3616 254.015L24.5301 254.816L25.3485 254.809L25.3402 253.809ZM25.7948 253.806L25.8031 254.806L26.7659 254.798L26.7943 253.835L25.7948 253.806ZM27.2722 248.339L28.1436 248.829L28.1469 248.823L27.2722 248.339ZM31.0805 244.398L31.5975 245.254L31.601 245.252L31.0805 244.398ZM43.6074 244.839L43.0566 245.674L43.0611 245.677L43.6074 244.839ZM48.3358 250.437L47.4328 250.866L48.3358 250.437ZM40.099 268.506L40.1073 269.506L41.1073 269.497L41.099 268.497L40.099 268.506ZM38.8286 257.834L39.6264 257.231L39.6209 257.224L38.8286 257.834ZM30.7942 259.196L31.715 259.586L31.7173 259.581L30.7942 259.196ZM30.2812 268.587L29.2812 268.595L29.2895 269.595L30.2895 269.587L30.2812 268.587ZM22.4633 268.652L22.4716 269.652L23.4715 269.644L23.4632 268.644L22.4633 268.652ZM21.8733 260.543L22.7951 260.155L21.8733 260.543ZM20.3569 258.578L19.7755 259.392L19.7788 259.394L20.3569 258.578ZM14.6366 259.444L15.4416 260.037L15.4471 260.03L14.6366 259.444ZM13.5545 268.726L12.5545 268.734L12.5628 269.734L13.5628 269.726L13.5545 268.726ZM50.2861 280.058L3.74227 280.444L3.75887 282.444L50.3027 282.058L50.2861 280.058ZM4.75054 281.436L4.5831 261.255L2.58317 261.271L2.75061 281.452L4.75054 281.436ZM4.5831 261.255C4.55438 257.792 4.99787 254.945 5.87351 252.68L4.0081 251.959C3.0147 254.528 2.55307 257.643 2.58317 261.271L4.5831 261.255ZM5.87428 252.678C6.75431 250.388 7.98212 248.726 9.52329 247.622L8.35807 245.996C6.43487 247.375 4.9961 249.387 4.00733 251.961L5.87428 252.678ZM9.52798 247.618C11.074 246.496 12.9142 245.912 15.0924 245.894L15.0758 243.894C12.5269 243.915 10.2715 244.608 8.35338 246L9.52798 247.618ZM15.0924 245.894C16.6511 245.881 18.0501 246.213 19.309 246.876L20.2414 245.107C18.6696 244.279 16.9412 243.879 15.0758 243.894L15.0924 245.894ZM19.3164 246.88C20.5865 247.536 21.6579 248.465 22.5352 249.683L24.1579 248.514C23.1038 247.051 21.7943 245.909 20.234 245.103L19.3164 246.88ZM22.5308 249.677C23.3932 250.893 24.0079 252.333 24.3616 254.015L26.3188 253.604C25.9154 251.686 25.201 249.985 24.1623 248.52L22.5308 249.677ZM25.3485 254.809L25.8031 254.806L25.7865 252.806L25.3319 252.809L25.3485 254.809ZM26.7943 253.835C26.849 251.986 27.302 250.324 28.1435 248.829L26.4008 247.848C25.3908 249.642 24.8588 251.624 24.7952 253.776L26.7943 253.835ZM28.1469 248.823C28.9718 247.334 30.117 246.148 31.5975 245.254L30.5636 243.542C28.7875 244.614 27.3939 246.055 26.3974 247.854L28.1469 248.823ZM31.601 245.252C33.036 244.377 34.7578 243.913 36.8038 243.896L36.7872 241.896C34.4394 241.915 32.3512 242.452 30.5601 243.544L31.601 245.252ZM36.8038 243.896C39.1641 243.876 41.2375 244.474 43.0566 245.674L44.1581 244.005C41.9855 242.571 39.5177 241.873 36.7872 241.896L36.8038 243.896ZM43.0611 245.677C44.8834 246.866 46.3449 248.581 47.4328 250.866L49.2387 250.007C48.0135 247.433 46.3227 245.417 44.1537 244.002L43.0611 245.677ZM47.4328 250.866C48.5128 253.135 49.0856 255.889 49.1127 259.158L51.1126 259.141C51.0837 255.653 50.4719 252.598 49.2387 250.007L47.4328 250.866ZM49.1127 259.158L49.2945 281.066L51.2944 281.05L51.1126 259.141L49.1127 259.158ZM41.099 268.497L41.05 262.588L39.05 262.605L39.0991 268.514L41.099 268.497ZM41.05 262.588C41.0316 260.373 40.6099 258.532 39.6264 257.231L38.0309 258.437C38.6406 259.244 39.0332 260.579 39.05 262.605L41.05 262.588ZM39.6209 257.224C38.5834 255.877 37.0742 255.258 35.2618 255.273L35.2784 257.273C36.5871 257.262 37.4502 257.683 38.0364 258.444L39.6209 257.224ZM35.2618 255.273C34.0151 255.283 32.8922 255.58 31.9459 256.216L33.0614 257.876C33.6219 257.499 34.3433 257.28 35.2784 257.273L35.2618 255.273ZM31.9459 256.216C31.0125 256.843 30.3244 257.723 29.8711 258.812L31.7173 259.581C32.0365 258.814 32.4881 258.261 33.0614 257.876L31.9459 256.216ZM29.8734 258.806C29.4202 259.876 29.2192 261.119 29.2307 262.505L31.2306 262.488C31.2207 261.298 31.3954 260.341 31.715 259.586L29.8734 258.806ZM29.2307 262.505L29.2812 268.595L31.2811 268.579L31.2306 262.488L29.2307 262.505ZM30.2895 269.587L40.1073 269.506L40.0907 267.506L30.2729 267.587L30.2895 269.587ZM23.4632 268.644L23.4202 263.462L21.4203 263.479L21.4633 268.66L23.4632 268.644ZM23.4202 263.462C23.4102 262.252 23.2104 261.143 22.7951 260.155L20.9514 260.931C21.2472 261.634 21.412 262.477 21.4203 263.479L23.4202 263.462ZM22.7951 260.155C22.3777 259.163 21.7634 258.349 20.9349 257.762L19.7788 259.394C20.2612 259.736 20.6577 260.232 20.9514 260.931L22.7951 260.155ZM20.9383 257.765C20.0696 257.144 19.0421 256.862 17.9108 256.871L17.9274 258.871C18.7052 258.865 19.3029 259.054 19.7755 259.392L20.9383 257.765ZM17.9108 256.871C16.1994 256.885 14.7867 257.529 13.8261 258.858L15.4471 260.03C15.9845 259.286 16.7602 258.881 17.9274 258.871L17.9108 256.871ZM13.8317 258.851C12.9126 260.097 12.4956 261.628 12.51 263.371L14.51 263.354C14.4983 261.945 14.8323 260.864 15.4416 260.037L13.8317 258.851ZM12.51 263.371L12.5545 268.734L14.5545 268.718L14.51 263.354L12.51 263.371ZM13.5628 269.726L22.4716 269.652L22.455 267.652L13.5462 267.726L13.5628 269.726ZM39.432 196.327L39.9189 195.453L39.9173 195.453L39.432 196.327ZM47.5676 204.419L48.4469 203.942L48.4453 203.939L47.5676 204.419ZM47.7353 227.373L48.6183 227.842L48.6208 227.837L47.7353 227.373ZM39.7122 235.576L40.2091 236.444L40.2135 236.441L39.7122 235.576ZM13.554 235.793L13.0687 236.667L13.0699 236.668L13.554 235.793ZM5.41859 227.724L6.29701 227.246L6.29624 227.245L5.41859 227.724ZM5.22815 204.77L6.11364 205.235L6.11523 205.232L5.22815 204.77ZM13.2284 196.544L13.7281 197.41L13.7297 197.41L13.2284 196.544ZM19.3656 207.585L19.7269 208.517L19.7358 208.514L19.3656 207.585ZM15.0291 210.871L15.8523 211.439L15.8591 211.429L15.0291 210.871ZM15.1168 221.439L15.9345 220.863L15.9333 220.861L15.1168 221.439ZM19.5072 224.652L19.155 225.588L19.159 225.59L19.5072 224.652ZM33.6204 224.535L33.9817 225.468L33.9905 225.464L33.6204 224.535ZM37.9569 221.249L38.7801 221.817L38.7869 221.807L37.9569 221.249ZM37.8692 210.681L38.687 210.106L38.6857 210.104L37.8692 210.681ZM33.4788 207.468L33.1266 208.404L33.1305 208.405L33.4788 207.468ZM26.302 194.413C31.3563 194.371 35.5556 195.319 38.9467 197.201L39.9173 195.453C36.1541 193.364 31.5945 192.369 26.2855 192.413L26.302 194.413ZM38.9451 197.2C42.351 199.099 44.9234 201.663 46.69 204.898L48.4453 203.939C46.4885 200.356 43.6372 197.526 39.9189 195.453L38.9451 197.2ZM46.6883 204.895C48.4503 208.148 49.3561 211.796 49.3898 215.859L51.3898 215.842C51.3536 211.481 50.3779 207.508 48.4469 203.943L46.6883 204.895ZM49.3898 215.859C49.4238 219.952 48.5713 223.628 46.8498 226.908L48.6208 227.837C50.5091 224.239 51.4262 220.233 51.3898 215.842L49.3898 215.859ZM46.8523 226.903C45.1245 230.154 42.5865 232.755 39.2109 234.711L40.2135 236.441C43.8951 234.308 46.7058 231.44 48.6183 227.842L46.8523 226.903ZM39.2152 234.708C35.8543 236.633 31.6849 237.643 26.661 237.684L26.6776 239.684C31.9564 239.64 36.4823 238.578 40.2091 236.444L39.2152 234.708ZM26.661 237.684C21.6055 237.726 17.4136 236.785 14.0381 234.918L13.0699 236.668C16.8182 238.742 21.3699 239.728 26.6776 239.684L26.661 237.684ZM14.0393 234.919C10.6179 233.02 8.04722 230.463 6.29701 227.246L4.54017 228.202C6.48275 231.772 9.33571 234.595 13.0687 236.667L14.0393 234.919ZM6.29624 227.245C4.52062 223.993 3.6072 220.332 3.57324 216.239L1.57331 216.255C1.60974 220.647 2.5932 224.637 4.54094 228.203L6.29624 227.245ZM3.57324 216.239C3.53954 212.177 4.39165 208.516 6.11363 205.235L4.34267 204.305C2.45492 207.903 1.53712 211.893 1.57331 216.255L3.57324 216.239ZM6.11523 205.232C7.81204 201.971 10.3398 199.365 13.7281 197.41L12.7286 195.678C9.02941 197.812 6.22369 200.691 4.34107 204.308L6.11523 205.232ZM13.7297 197.41C17.0731 195.472 21.2476 194.455 26.302 194.413L26.2855 192.413C20.9766 192.457 16.4409 193.527 12.727 195.679L13.7297 197.41ZM26.3933 205.413C23.5234 205.436 21.0469 205.838 18.9955 206.656L19.7358 208.514C21.4901 207.815 23.7042 207.435 26.4099 207.413L26.3933 205.413ZM19.0043 206.652C16.9304 207.456 15.3056 208.667 14.1991 210.313L15.8591 211.429C16.6984 210.18 17.9645 209.2 19.7269 208.517L19.0043 206.652ZM14.2059 210.303C13.0791 211.936 12.5542 213.91 12.5729 216.164L14.5729 216.147C14.5569 214.22 15.0028 212.67 15.8523 211.439L14.2059 210.303ZM12.5729 216.164C12.5916 218.419 13.1494 220.388 14.3003 222.016L15.9333 220.861C15.0604 219.627 14.5889 218.075 14.5729 216.147L12.5729 216.164ZM14.299 222.014C15.4318 223.624 17.0734 224.805 19.155 225.588L19.8594 223.716C18.0803 223.047 16.795 222.086 15.9345 220.863L14.299 222.014ZM19.159 225.59C21.2214 226.356 23.7018 226.708 26.5698 226.685L26.5532 224.685C23.8456 224.707 21.6232 224.372 19.8555 223.715L19.159 225.59ZM26.5698 226.685C29.4382 226.661 31.9187 226.267 33.9817 225.468L33.2591 223.603C31.4857 224.29 29.2603 224.662 26.5532 224.685L26.5698 226.685ZM33.9905 225.464C36.0436 224.646 37.6612 223.439 38.7801 221.817L37.1338 220.681C36.2763 221.924 35.0029 222.908 33.2502 223.606L33.9905 225.464ZM38.7869 221.807C39.8929 220.161 40.4088 218.185 40.3902 215.933L38.3902 215.95C38.4062 217.88 37.9666 219.442 37.1269 220.691L38.7869 221.807ZM40.3902 215.933C40.3715 213.682 39.823 211.72 38.687 210.106L37.0515 211.257C37.9087 212.475 38.3742 214.019 38.3902 215.95L40.3902 215.933ZM38.6857 210.104C37.5392 208.483 35.8987 207.3 33.827 206.53L33.1305 208.405C34.8889 209.058 36.1754 210.018 37.0527 211.259L38.6857 210.104ZM33.831 206.532C31.7528 205.75 29.2636 205.389 26.3933 205.413L26.4099 207.413C29.1152 207.39 31.3441 207.733 33.1266 208.404L33.831 206.532ZM2.74479 160.215L1.74483 160.224L1.75312 161.224L2.75309 161.215L2.74479 160.215ZM2.63996 147.579L2.63166 146.579L1.63169 146.588L1.63999 147.588L2.63996 147.579ZM41.6825 149.801L41.1415 150.642L41.1427 150.643L41.6825 149.801ZM47.718 156.797L48.6222 156.369L48.6204 156.366L47.718 156.797ZM47.8926 177.841L48.802 178.257L48.8037 178.253L47.8926 177.841ZM41.974 184.936L42.5219 185.773L42.5276 185.769L41.974 184.936ZM2.97332 187.76L1.97335 187.768L1.98165 188.768L2.98161 188.76L2.97332 187.76ZM2.86848 175.124L2.86018 174.124L1.86022 174.132L1.86851 175.132L2.86848 175.124ZM35.4504 173.899L35.9462 174.767L35.9512 174.765L35.4504 173.899ZM38.0647 171.241L38.9385 171.727L38.9413 171.722L38.0647 171.241ZM38.0006 163.514L38.8662 163.013L38.0006 163.514ZM35.3425 160.899L35.8289 160.026L35.8238 160.023L35.3425 160.899ZM3.74476 160.207L3.63992 147.571L1.63999 147.588L1.74483 160.224L3.74476 160.207ZM2.64825 148.579L32.4654 148.332L32.4488 146.332L2.63166 146.579L2.64825 148.579ZM32.4654 148.332C35.845 148.304 38.7231 149.087 41.1415 150.642L42.2234 148.96C39.432 147.165 36.1598 146.301 32.4488 146.332L32.4654 148.332ZM41.1427 150.643C43.5627 152.194 45.4549 154.378 46.8156 157.227L48.6204 156.366C47.1129 153.209 44.9815 150.728 42.2222 148.959L41.1427 150.643ZM46.8138 157.224C48.1597 160.073 48.8639 163.419 48.896 167.287L50.8959 167.271C50.8619 163.169 50.1141 159.527 48.6222 156.369L46.8138 157.224ZM48.896 167.287C48.9283 171.187 48.2795 174.559 46.9814 177.429L48.8037 178.253C50.2435 175.07 50.9302 171.401 50.8959 167.271L48.896 167.287ZM46.9831 177.425C45.67 180.297 43.8142 182.512 41.4203 184.103L42.5276 185.769C45.2571 183.954 47.3471 181.439 48.802 178.257L46.9831 177.425ZM41.426 184.1C39.0326 185.667 36.1653 186.484 32.7822 186.512L32.7988 188.512C36.5063 188.482 39.7613 187.581 42.5219 185.773L41.426 184.1ZM32.7822 186.512L2.96502 186.76L2.98161 188.76L32.7988 188.512L32.7822 186.512ZM3.97328 187.751L3.86845 175.116L1.86851 175.132L1.97335 187.768L3.97328 187.751ZM2.87678 176.124L31.6031 175.885L31.5865 173.886L2.86018 174.124L2.87678 176.124ZM31.6031 175.885C33.1951 175.872 34.6513 175.507 35.9462 174.767L34.9545 173.031C33.9873 173.583 32.8731 173.875 31.5865 173.886L31.6031 175.885ZM35.9512 174.765C37.2233 174.028 38.2237 173.011 38.9385 171.727L37.191 170.754C36.6518 171.723 35.9092 172.478 34.9495 173.033L35.9512 174.765ZM38.9413 171.722C39.659 170.415 40.0004 168.953 39.9872 167.361L37.9872 167.378C37.9979 168.664 37.7244 169.783 37.1882 170.759L38.9413 171.722ZM39.9872 167.361C39.9739 165.756 39.6092 164.297 38.8662 163.013L37.1351 164.015C37.6834 164.962 37.9764 166.074 37.9872 167.378L39.9872 167.361ZM38.8662 163.013C38.1301 161.741 37.1131 160.74 35.8289 160.026L34.8561 161.773C35.8248 162.312 36.5799 163.055 37.1351 164.015L38.8662 163.013ZM35.8238 160.023C34.5169 159.305 33.0548 158.964 31.4628 158.977L31.4794 160.977C32.766 160.966 33.8849 161.24 34.8612 161.776L35.8238 160.023ZM31.4628 158.977L2.73649 159.215L2.75309 161.215L31.4794 160.977L31.4628 158.977ZM12.7822 142.762L12.7905 143.762L13.7904 143.754L13.7821 142.754L12.7822 142.762ZM2.60069 142.847L1.60072 142.855L1.60902 143.855L2.60899 143.846L2.60069 142.847ZM2.26507 102.393L2.25677 101.393L1.25681 101.402L1.2651 102.402L2.26507 102.393ZM12.4465 102.309L13.4465 102.301L13.4382 101.301L12.4382 101.309L12.4465 102.309ZM12.5627 116.308L11.5627 116.317L11.571 117.317L12.571 117.308L12.5627 116.308ZM48.9251 116.007L49.925 115.998L49.9167 114.998L48.9168 115.007L48.9251 116.007ZM49.0284 128.461L49.0367 129.461L50.0367 129.453L50.0284 128.453L49.0284 128.461ZM12.666 128.763L12.6577 127.763L11.6578 127.771L11.666 128.771L12.666 128.763ZM12.7739 141.762L2.59239 141.847L2.60899 143.846L12.7905 143.762L12.7739 141.762ZM3.60066 142.838L3.26503 102.385L1.2651 102.402L1.60072 142.855L3.60066 142.838ZM2.27337 103.393L12.4548 103.309L12.4382 101.309L2.25677 101.393L2.27337 103.393ZM11.4466 102.317L11.5627 116.317L13.5627 116.3L13.4465 102.301L11.4466 102.317ZM12.571 117.308L48.9334 117.007L48.9168 115.007L12.5544 115.308L12.571 117.308ZM47.9251 116.015L48.0284 128.469L50.0284 128.453L49.925 115.998L47.9251 116.015ZM49.0201 127.461L12.6577 127.763L12.6743 129.763L49.0367 129.461L49.0201 127.461ZM11.666 128.771L11.7822 142.77L13.7821 142.754L13.666 128.754L11.666 128.771ZM1.89131 57.3438L0.891348 57.3521L0.899644 58.352L1.89961 58.3437L1.89131 57.3438ZM1.78648 44.7079L1.77818 43.7079L0.778217 43.7162L0.786513 44.7162L1.78648 44.7079ZM40.829 46.9295L40.288 47.7705L40.2892 47.7713L40.829 46.9295ZM46.8645 53.9251L47.7687 53.4979L47.7669 53.4942L46.8645 53.9251ZM47.0391 74.9699L47.9485 75.3857L47.9502 75.3819L47.0391 74.9699ZM41.1205 82.0646L41.6685 82.9012L41.6741 82.8974L41.1205 82.0646ZM2.11984 84.8883L1.11987 84.8966L1.12817 85.8966L2.12813 85.8883L2.11984 84.8883ZM2.015 72.2524L2.00671 71.2524L1.00674 71.2607L1.01504 72.2607L2.015 72.2524ZM34.5969 71.0275L35.0927 71.8959L35.0977 71.893L34.5969 71.0275ZM37.2113 68.3693L38.085 68.8557L38.0878 68.8507L37.2113 68.3693ZM37.1472 60.6423L38.0127 60.1415L37.1472 60.6423ZM34.489 58.0279L34.9754 57.1542L34.9704 57.1514L34.489 58.0279ZM2.89128 57.3355L2.78644 44.6996L0.786513 44.7162L0.891348 57.3521L2.89128 57.3355ZM1.79478 45.7078L31.6119 45.4604L31.5953 43.4605L1.77818 43.7079L1.79478 45.7078ZM31.6119 45.4604C34.9916 45.4324 37.8696 46.2151 40.288 47.7705L41.3699 46.0884C38.5786 44.2931 35.3064 43.4297 31.5953 43.4605L31.6119 45.4604ZM40.2892 47.7713C42.7092 49.323 44.6015 51.5064 45.9621 54.356L47.7669 53.4942C46.2594 50.3371 44.128 47.8568 41.3687 46.0877L40.2892 47.7713ZM45.9603 54.3523C47.3062 57.2012 48.0104 60.5474 48.0425 64.4157L50.0424 64.3991C50.0084 60.298 49.2606 56.656 47.7687 53.4979L45.9603 54.3523ZM48.0425 64.4157C48.0748 68.3155 47.426 71.6878 46.128 74.5578L47.9502 75.3819C49.39 72.1986 50.0767 68.5293 50.0424 64.3991L48.0425 64.4157ZM46.1297 74.554C44.8165 77.4258 42.9608 79.6403 40.5668 81.2319L41.6741 82.8974C44.4036 81.0827 46.4936 78.5674 47.9485 75.3857L46.1297 74.554ZM40.5725 81.2281C38.1791 82.796 35.3118 83.6129 31.9287 83.641L31.9453 85.6409C35.6528 85.6101 38.9079 84.7095 41.6684 82.9011L40.5725 81.2281ZM31.9287 83.641L2.11154 83.8883L2.12813 85.8883L31.9453 85.6409L31.9287 83.641ZM3.1198 84.88L3.01497 72.2441L1.01504 72.2607L1.11987 84.8966L3.1198 84.88ZM2.0233 73.2524L30.7496 73.014L30.733 71.0141L2.00671 71.2524L2.0233 73.2524ZM30.7496 73.014C32.3416 73.0008 33.7979 72.6352 35.0927 71.8959L34.101 70.1591C33.1338 70.7113 32.0197 71.0034 30.733 71.0141L30.7496 73.014ZM35.0977 71.893C36.3698 71.157 37.3702 70.1399 38.085 68.8557L36.3375 67.883C35.7983 68.8517 35.0557 69.6067 34.0961 70.1619L35.0977 71.893ZM38.0878 68.8507C38.8055 67.5438 39.1469 66.0816 39.1337 64.4896L37.1338 64.5062C37.1444 65.7929 36.8709 66.9117 36.3347 67.888L38.0878 68.8507ZM39.1337 64.4896C39.1204 62.8847 38.7557 61.4256 38.0127 60.1415L36.2816 61.1431C36.8299 62.0908 37.1229 63.2021 37.1338 64.5062L39.1337 64.4896ZM38.0127 60.1415C37.2767 58.8694 36.2596 57.869 34.9754 57.1542L34.0026 58.9017C34.9714 59.4409 35.7264 60.1835 36.2816 61.1431L38.0127 60.1415ZM34.9704 57.1514C33.6634 56.4337 32.2013 56.0923 30.6093 56.1055L30.6259 58.1054C31.9126 58.0947 33.0314 58.3683 34.0077 58.9044L34.9704 57.1514ZM30.6093 56.1055L1.88302 56.3438L1.89961 58.3437L30.6259 58.1054L30.6093 56.1055ZM16.0734 13.4917L16.1615 14.4878L17.0811 14.4065L17.0734 13.4834L16.0734 13.4917ZM12.5423 15.2256L13.3101 15.8662L13.3148 15.8605L12.5423 15.2256ZM11.8113 23.0046L12.7462 22.6495L12.7425 22.6402L11.8113 23.0046ZM13.0764 24.8124L12.4867 25.62L12.4867 25.62L13.0764 24.8124ZM14.8996 25.4109L14.9453 24.412L14.9294 24.4112L14.9135 24.411L14.8996 25.4109ZM16.4198 25.1028L16.8744 25.9935L16.8925 25.9843L16.9101 25.9744L16.4198 25.1028ZM17.6149 23.9565L18.4366 24.5264L18.4423 24.5182L18.4478 24.5099L17.6149 23.9565ZM19.3019 19.1014L18.3224 18.9L18.3207 18.9083L19.3019 19.1014ZM20.0884 15.2766L21.0679 15.478L21.0684 15.4757L20.0884 15.2766ZM22.1925 8.6453L23.095 9.07609L22.1925 8.6453ZM25.3142 4.11924L26.0136 4.83395L26.0181 4.82952L25.3142 4.11924ZM29.3382 1.51756L29.6877 2.45454L29.696 2.45136L29.3382 1.51756ZM34.24 0.613247L34.2366 -0.386851L34.2231 -0.386617L34.24 0.613247ZM42.0315 2.84412L42.6059 2.02561L42.0315 2.84412ZM46.9261 9.30374L45.9983 9.67681L45.999 9.67851L46.9261 9.30374ZM46.9615 30.0087L47.8934 30.3716L47.894 30.37L46.9615 30.0087ZM41.4971 37.0543L42.0552 37.8841L42.061 37.8801L41.4971 37.0543ZM31.9272 39.6338L30.9273 39.6421L30.9356 40.6459L31.9394 40.6337L31.9272 39.6338ZM31.8277 27.6342L31.7663 26.6361L30.8199 26.6943L30.8277 27.6425L31.8277 27.6342ZM35.4096 26.5363L35.9652 27.3677L35.4096 26.5363ZM37.5918 23.8362L38.5124 24.2269L38.5142 24.2225L37.5918 23.8362ZM37.7792 16.289L38.7152 15.9369L37.7792 16.289ZM36.3757 14.2323L36.9915 13.4444L36.3757 14.2323ZM34.3471 13.5219L34.3588 12.5219L34.3381 12.5217L34.3175 12.5223L34.3471 13.5219ZM32.4893 14.2419L33.1231 15.0154L33.1349 15.0057L33.1464 14.9957L32.4893 14.2419ZM31.0529 16.4357L31.974 16.8253L31.9788 16.8136L31.0529 16.4357ZM29.8598 20.5594L28.8813 20.3533L28.8806 20.3566L29.8598 20.5594ZM28.8983 25.2039L29.8773 25.4077L29.8776 25.4066L28.8983 25.2039ZM24.5021 34.9907L25.2542 35.6497L25.2586 35.6446L24.5021 34.9907ZM15.918 38.5847L15.9139 37.5847L15.9046 37.5848L15.918 38.5847ZM8.14864 36.2855L7.57051 37.1014L7.57153 37.1021L8.14864 36.2855ZM2.88903 29.6698L1.97577 30.0772L1.97657 30.079L2.88903 29.6698ZM2.7496 10.1248L3.66201 10.5341L2.7496 10.1248ZM8.015 3.74001L8.56636 4.5743L8.57274 4.57001L8.015 3.74001ZM15.9731 1.40117L16.9731 1.39288L16.9648 0.387937L15.9599 0.40128L15.9731 1.40117ZM15.9854 12.4955C14.2472 12.6491 12.8059 13.3297 11.7697 14.5906L13.3148 15.8605C13.9587 15.0771 14.8715 14.6018 16.1615 14.4878L15.9854 12.4955ZM11.7744 14.5849C10.7176 15.8516 10.2896 17.6561 10.3075 19.8125L12.3074 19.7959C12.2914 17.8614 12.6866 16.6135 13.3101 15.8662L11.7744 14.5849ZM10.3075 19.8125C10.3189 21.1862 10.4951 22.3854 10.8801 23.3691L12.7425 22.6402C12.4773 21.9626 12.3177 21.0281 12.3074 19.7959L10.3075 19.8125ZM10.8765 23.3597C11.2334 24.2995 11.7538 25.085 12.4867 25.62L13.666 24.0047C13.3318 23.7607 13.0088 23.3411 12.7461 22.6496L10.8765 23.3597ZM12.4867 25.62C13.1933 26.1359 14.0037 26.3985 14.8856 26.4108L14.9135 24.411C14.4316 24.4043 14.0265 24.2679 13.666 24.0047L12.4867 25.62ZM14.8539 26.4099C15.5694 26.4426 16.2514 26.3115 16.8744 25.9935L15.9652 24.2121C15.6829 24.3562 15.3514 24.4305 14.9453 24.412L14.8539 26.4099ZM16.9101 25.9744C17.5087 25.6376 18.0125 25.1378 18.4366 24.5264L16.7931 23.3866C16.4985 23.8115 16.2056 24.076 15.9295 24.2313L16.9101 25.9744ZM18.4478 24.5099C18.8518 23.9019 19.1977 23.1584 19.4971 22.301L17.6089 21.6417C17.3458 22.3952 17.0664 22.9751 16.782 23.4031L18.4478 24.5099ZM19.4971 22.301C19.7979 21.4395 20.0586 20.435 20.2831 19.2946L18.3207 18.9083C18.109 19.9837 17.8705 20.8925 17.6089 21.6417L19.4971 22.301ZM20.2814 19.3028L21.0679 15.478L19.1089 15.0752L18.3224 18.9L20.2814 19.3028ZM21.0684 15.4757C21.5806 12.9537 22.26 10.8252 23.095 9.07609L21.2901 8.21447C20.3677 10.1467 19.6443 12.4391 19.1084 15.0776L21.0684 15.4757ZM23.095 9.07609C23.9336 7.31944 24.9107 5.91327 26.0136 4.83395L24.6148 3.40453C23.3129 4.67856 22.2089 6.28976 21.2901 8.21447L23.095 9.07609ZM26.0181 4.82952C27.1095 3.74795 28.3314 2.96047 29.6877 2.45451L28.9887 0.58064C27.3541 1.19044 25.8934 2.13738 24.6103 3.40893L26.0181 4.82952ZM29.696 2.45136C31.0714 1.92431 32.5885 1.64121 34.2568 1.61311L34.2231 -0.386617C32.3464 -0.354993 30.5956 -0.0352211 28.9804 0.583792L29.696 2.45136ZM34.2433 1.61322C37.1342 1.60355 39.5205 2.30354 41.457 3.66267L42.6059 2.02561C40.275 0.389709 37.467 -0.397568 34.2366 -0.386759L34.2433 1.61322ZM41.457 3.66267C43.408 5.03197 44.9292 7.01783 45.9983 9.67681L47.8539 8.9307C46.6643 5.97187 44.9223 3.65132 42.6059 2.02561L41.457 3.66267ZM45.999 9.67851C47.0692 12.326 47.6372 15.5613 47.6691 19.4116L49.669 19.395C49.6356 15.3667 49.0416 11.869 47.8533 8.929L45.999 9.67851ZM47.6691 19.4116C47.7019 23.3607 47.1456 26.7654 46.0291 29.6475L47.894 30.37C49.1213 27.202 49.7034 23.5365 49.669 19.395L47.6691 19.4116ZM46.0297 29.6459C44.9247 32.4835 43.2242 34.6641 40.9332 36.2284L42.061 37.8801C44.7118 36.0701 46.6543 33.5536 47.8934 30.3716L46.0297 29.6459ZM40.939 36.2245C38.6562 37.7599 35.6716 38.5881 31.9151 38.6338L31.9394 40.6337C35.9702 40.5846 39.3655 39.6931 42.0552 37.8841L40.939 36.2245ZM32.9272 39.6255L32.8277 27.6259L30.8277 27.6425L30.9273 39.6421L32.9272 39.6255ZM31.8891 28.6323C33.4489 28.5364 34.8234 28.1306 35.9652 27.3677L34.854 25.7048C34.067 26.2306 33.0536 26.5569 31.7663 26.6361L31.8891 28.6323ZM35.9652 27.3677C37.105 26.6061 37.9524 25.5464 38.5124 24.2269L36.6713 23.4456C36.2504 24.4373 35.643 25.1776 34.854 25.7048L35.9652 27.3677ZM38.5142 24.2225C39.0687 22.8984 39.3214 21.3696 39.3073 19.6628L37.3073 19.6794C37.3198 21.1846 37.0955 22.4325 36.6694 23.45L38.5142 24.2225ZM39.3073 19.6628C39.2955 18.2395 39.1102 16.987 38.7152 15.9369L36.8432 16.641C37.13 17.4035 37.2968 18.4057 37.3073 19.6794L39.3073 19.6628ZM38.7152 15.9369C38.3277 14.9065 37.7666 14.0501 36.9915 13.4444L35.76 15.0203C36.1744 15.3441 36.549 15.8588 36.8432 16.641L38.7152 15.9369ZM36.9915 13.4444C36.2233 12.8441 35.3347 12.5334 34.3588 12.5219L34.3354 14.5218C34.8748 14.5281 35.3386 14.691 35.76 15.0203L36.9915 13.4444ZM34.3175 12.5223C33.3792 12.5501 32.5369 12.8738 31.8323 13.488L33.1464 14.9957C33.4947 14.6921 33.891 14.5358 34.3766 14.5214L34.3175 12.5223ZM31.8556 13.4683C31.1318 14.0613 30.5733 14.9646 30.1271 16.0578L31.9788 16.8136C32.3641 15.8695 32.7633 15.3102 33.1231 15.0154L31.8556 13.4683ZM30.1319 16.0461C29.6657 17.1483 29.2521 18.5926 28.8813 20.3533L30.8384 20.7655C31.1964 19.0655 31.5783 17.7606 31.9739 16.8253L30.1319 16.0461ZM28.8806 20.3566L27.9191 25.0012L29.8776 25.4066L30.8391 20.7621L28.8806 20.3566ZM27.9193 25C27.0832 29.0152 25.6746 32.105 23.7456 34.3367L25.2586 35.6446C27.4718 33.0842 28.994 29.6495 29.8773 25.4077L27.9193 25ZM23.75 34.3316C21.8816 36.4639 19.3107 37.5707 15.9139 37.5847L15.9221 39.5847C19.798 39.5687 22.9499 38.2794 25.2542 35.6497L23.75 34.3316ZM15.9046 37.5848C13.1427 37.6219 10.7637 36.909 8.72575 35.4688L7.57153 37.1021C9.98408 38.807 12.7846 39.6269 15.9314 39.5847L15.9046 37.5848ZM8.72678 35.4695C6.64981 33.9979 5.00373 31.9416 3.80149 29.2606L1.97657 30.079C3.3061 33.0438 5.16643 35.398 7.57051 37.1014L8.72678 35.4695ZM3.80229 29.2624C2.6017 26.571 1.97377 23.451 1.94416 19.8818L-0.0557738 19.8984C-0.024295 23.6926 0.644337 27.0924 1.97577 30.0772L3.80229 29.2624ZM1.94416 19.8818C1.91389 16.2339 2.49872 13.1275 3.66201 10.5341L1.83719 9.71554C0.530926 12.6277 -0.0878563 16.0315 -0.0557738 19.8984L1.94416 19.8818ZM3.66201 10.5341C4.8277 7.93536 6.4656 5.96257 8.56634 4.57427L7.46365 2.90572C5.01343 4.52498 3.14107 6.80875 1.83719 9.71554L3.66201 10.5341ZM8.57274 4.57001C10.6531 3.17205 13.1115 2.43923 15.9864 2.4011L15.9599 0.40128C12.7443 0.44395 9.89726 1.27036 7.45725 2.90999L8.57274 4.57001ZM14.9732 1.40947L15.0735 13.5L17.0734 13.4834L16.9731 1.39288L14.9732 1.40947Z" fill="#05C2DF" fill-opacity="0.1" mask="url(#path-1-outside-1_3495_4399)"/>
</svg>
