<svg width="51" height="334" viewBox="0 0 51 334" fill="none" xmlns="http://www.w3.org/2000/svg">
<mask id="path-1-outside-1_3495_4395" maskUnits="userSpaceOnUse" x="-1.00746" y="-1.15684" width="53.7858" height="336.412" fill="black">
<rect fill="white" x="-1.00746" y="-1.15684" width="53.7858" height="336.412"/>
<path d="M1.11767 14.3401L1.00454 0.704177L47.6759 15.6811L47.8192 32.9533L1.40276 48.7025L1.28963 35.0666L34.9313 24.6054L34.9283 24.2417L1.11767 14.3401ZM19.4596 11.6424L19.6722 37.2778L10.218 37.3563L10.0053 11.7208L19.4596 11.6424ZM1.43995 53.1853L47.9838 52.7992L48.1512 72.9803C48.1807 76.5256 47.7281 79.5068 46.7936 81.9237C45.8592 84.3558 44.5259 86.1926 42.7937 87.4343C41.0616 88.6912 39.0138 89.3294 36.6503 89.349C34.9382 89.3632 33.3745 88.9974 31.9592 88.2515C30.544 87.5208 29.3535 86.4852 28.3878 85.1447C27.4373 83.804 26.7727 82.2337 26.3941 80.4338L25.9396 80.4376C25.8805 82.4381 25.388 84.2604 24.4622 85.9045C23.5516 87.5485 22.2821 88.8621 20.6539 89.8454C19.0407 90.8285 17.1357 91.3292 14.9388 91.3474C12.3935 91.3685 10.1229 90.7206 8.12703 89.4038C6.13131 88.1022 4.55517 86.2364 3.39861 83.8065C2.24205 81.3766 1.64975 78.4723 1.62172 75.0937L1.43995 53.1853ZM11.6354 65.7375L11.6844 71.6464C11.702 73.7676 12.1091 75.3552 12.9057 76.4092C13.7176 77.4631 14.9037 77.9836 16.4643 77.9706C17.5552 77.9616 18.4773 77.7039 19.2307 77.1976C19.9841 76.6914 20.5539 75.9745 20.9402 75.047C21.3266 74.1347 21.5144 73.0346 21.5037 71.7468L21.4532 65.6561L11.6354 65.7375ZM29.2711 65.5912L29.3141 70.7729C29.3233 71.8789 29.5056 72.8547 29.8611 73.7002C30.2166 74.5458 30.7221 75.2007 31.3775 75.665C32.0482 76.1443 32.8607 76.38 33.8153 76.3721C35.2546 76.3601 36.3488 75.8359 37.0978 74.7993C37.8619 73.7627 38.2375 72.4565 38.2244 70.8808L38.1799 65.5173L29.2711 65.5912ZM25.4406 140.83C20.259 140.873 15.8796 139.902 12.3024 137.916C8.74033 135.931 6.02846 133.233 4.16678 129.824C2.32025 126.415 1.37952 122.605 1.34457 118.393C1.30937 114.151 2.19421 110.31 3.99907 106.87C5.81921 103.446 8.49358 100.712 12.0222 98.6673C15.5661 96.6378 19.9137 95.6017 25.065 95.559C30.2467 95.516 34.6185 96.4797 38.1804 98.4503C41.7576 100.436 44.4694 103.126 46.3158 106.519C48.1775 109.928 49.1259 113.754 49.1611 117.996C49.1961 122.208 48.3111 126.034 46.5062 129.473C44.7165 132.912 42.0498 135.654 38.506 137.699C34.9774 139.743 30.6223 140.787 25.4406 140.83ZM25.3328 127.831C28.1206 127.807 30.4659 127.417 32.3688 126.659C34.2869 125.915 35.7324 124.82 36.7053 123.372C37.6934 121.94 38.1788 120.178 38.1615 118.087C38.1441 115.997 37.6295 114.236 36.6176 112.805C35.621 111.389 34.1575 110.317 32.2272 109.591C30.3121 108.88 27.9607 108.535 25.1729 108.559C22.3851 108.582 20.0321 108.965 18.114 109.708C16.2111 110.466 14.7656 111.562 13.7775 112.994C12.8046 114.442 12.3268 116.211 12.3442 118.302C12.3615 120.392 12.8685 122.146 13.8652 123.562C14.8771 124.993 16.3406 126.064 18.2556 126.776C20.1859 127.502 22.545 127.854 25.3328 127.831ZM48.9896 174.028L49.0944 186.664L19.2773 186.911C15.7319 186.941 12.6568 186.118 10.0519 184.442C7.46231 182.782 5.45047 180.45 4.01641 177.447C2.59751 174.443 1.87152 170.949 1.83846 166.964C1.80515 162.949 2.47293 159.429 3.84181 156.402C5.22584 153.375 7.19871 151.01 9.76043 149.307C12.3374 147.619 15.3986 146.76 18.9439 146.731L48.7611 146.483L48.8659 159.119L20.1396 159.358C18.7003 159.37 17.4151 159.699 16.284 160.344C15.1681 160.99 14.2967 161.876 13.6696 163.002C13.0427 164.144 12.7352 165.434 12.7472 166.874C12.7592 168.328 13.0881 169.614 13.7337 170.729C14.3794 171.845 15.2654 172.717 16.3919 173.344C17.5335 173.971 18.824 174.278 20.2633 174.266L48.9896 174.028ZM38.9522 191.481L49.1337 191.397L49.4693 231.85L39.2879 231.934L39.1717 217.935L2.80932 218.236L2.70599 205.782L39.0684 205.481L38.9522 191.481ZM49.8431 276.899L49.9479 289.535L20.1308 289.783C16.5854 289.812 13.5103 288.989 10.9054 287.314C8.3158 285.653 6.30396 283.321 4.8699 280.318C3.45099 277.315 2.72501 273.821 2.69195 269.836C2.65864 265.821 3.32642 262.3 4.6953 259.273C6.07933 256.247 8.0522 253.882 10.6139 252.179C13.1909 250.49 16.2521 249.632 19.7974 249.602L49.6146 249.355L49.7194 261.991L20.9931 262.229C19.5538 262.241 18.2686 262.57 17.1375 263.216C16.0216 263.861 15.1502 264.747 14.5231 265.874C13.8962 267.015 13.5887 268.306 13.6007 269.745C13.6127 271.2 13.9416 272.485 14.5872 273.601C15.2329 274.717 16.1189 275.588 17.2454 276.215C18.387 276.842 19.6775 277.15 21.1168 277.138L49.8431 276.899ZM35.661 320.752C37.175 320.618 38.3521 320.04 39.1921 319.018C40.0323 318.011 40.4439 316.484 40.4269 314.439C40.4161 313.136 40.2482 312.069 39.9231 311.239C39.6133 310.423 39.1916 309.82 38.658 309.431C38.1245 309.041 37.5168 308.842 36.8348 308.832C36.274 308.807 35.7673 308.909 35.3146 309.14C34.8772 309.386 34.4789 309.769 34.1195 310.287C33.7753 310.805 33.4626 311.466 33.1814 312.272C32.9002 313.077 32.6506 314.034 32.4325 315.142L31.646 318.967C31.1219 321.547 30.4206 323.757 29.5419 325.598C28.6632 327.439 27.6226 328.947 26.4202 330.124C25.233 331.301 23.8916 332.168 22.3962 332.726C20.9009 333.299 19.267 333.6 17.4944 333.63C14.4338 333.64 11.8367 332.897 9.70294 331.399C7.56923 329.902 5.93768 327.748 4.80827 324.939C3.67899 322.146 3.09801 318.779 3.06533 314.84C3.03177 310.795 3.60095 307.259 4.77286 304.235C5.9449 301.225 7.76639 298.876 10.2373 297.189C12.7235 295.517 15.9135 294.657 19.8072 294.609L19.9067 306.609C18.4832 306.697 17.2892 307.063 16.3248 307.707C15.3604 308.351 14.633 309.251 14.1426 310.407C13.6523 311.578 13.4138 312.966 13.4271 314.572C13.4383 315.921 13.6143 317.048 13.9552 317.954C14.296 318.861 14.7639 319.546 15.3587 320.011C15.9534 320.476 16.6297 320.712 17.3873 320.721C18.0993 320.7 18.7186 320.46 19.2451 320.001C19.7869 319.557 20.2657 318.826 20.6815 317.808C21.1124 316.789 21.5101 315.414 21.8746 313.684L22.8361 309.039C23.6958 304.911 25.1612 301.649 27.2323 299.253C29.3187 296.872 32.1801 295.673 35.8164 295.658C38.7707 295.619 41.3605 296.385 43.5858 297.958C45.8263 299.545 47.5795 301.75 48.8454 304.573C50.1114 307.411 50.7597 310.671 50.7902 314.353C50.8214 318.111 50.2196 321.366 48.9848 324.118C47.75 326.871 45.9949 328.999 43.7194 330.503C41.4592 332.022 38.8065 332.802 35.7613 332.842L35.661 320.752Z"/>
</mask>
<path d="M1.11767 14.3401L0.117704 14.3484L0.123865 15.091L0.83662 15.2998L1.11767 14.3401ZM1.00454 0.704177L1.31009 -0.247998L-0.0069034 -0.670625L0.00457165 0.712473L1.00454 0.704177ZM47.6759 15.6811L48.6758 15.6728L48.6698 14.9499L47.9814 14.729L47.6759 15.6811ZM47.8192 32.9533L48.1405 33.9002L48.8251 33.6679L48.8191 32.945L47.8192 32.9533ZM1.40276 48.7025L0.402796 48.7108L0.414271 50.0939L1.72408 49.6495L1.40276 48.7025ZM1.28963 35.0666L0.992696 34.1117L0.283503 34.3323L0.289664 35.0749L1.28963 35.0666ZM34.9313 24.6054L35.2282 25.5602L35.9374 25.3397L35.9312 24.5971L34.9313 24.6054ZM34.9283 24.2417L35.9282 24.2334L35.9221 23.4908L35.2093 23.282L34.9283 24.2417ZM19.4596 11.6424L20.4595 11.6341L20.4512 10.6341L19.4513 10.6424L19.4596 11.6424ZM19.6722 37.2778L19.6805 38.2778L20.6805 38.2695L20.6722 37.2695L19.6722 37.2778ZM10.218 37.3563L9.21806 37.3646L9.22636 38.3645L10.2263 38.3562L10.218 37.3563ZM10.0053 11.7208L9.99704 10.7208L8.99707 10.7291L9.00537 11.7291L10.0053 11.7208ZM2.11763 14.3318L2.0045 0.69588L0.00457165 0.712473L0.117704 14.3484L2.11763 14.3318ZM0.69898 1.65635L47.3703 16.6333L47.9814 14.729L1.31009 -0.247998L0.69898 1.65635ZM46.6759 15.6894L46.8192 32.9616L48.8191 32.945L48.6758 15.6728L46.6759 15.6894ZM47.4978 32.0063L1.08145 47.7556L1.72408 49.6495L48.1405 33.9002L47.4978 32.0063ZM2.40273 48.6942L2.2896 35.0583L0.289664 35.0749L0.402796 48.7108L2.40273 48.6942ZM1.58656 36.0215L35.2282 25.5602L34.6343 23.6505L0.992696 34.1117L1.58656 36.0215ZM35.9312 24.5971L35.9282 24.2334L33.9283 24.25L33.9313 24.6136L35.9312 24.5971ZM35.2093 23.282L1.39872 13.3804L0.83662 15.2998L34.6472 25.2014L35.2093 23.282ZM18.4596 11.6506L18.6723 37.2861L20.6722 37.2695L20.4595 11.6341L18.4596 11.6506ZM19.6639 36.2779L10.2097 36.3563L10.2263 38.3562L19.6805 38.2778L19.6639 36.2779ZM11.218 37.348L11.0053 11.7125L9.00537 11.7291L9.21806 37.3646L11.218 37.348ZM10.0136 12.7208L19.4679 12.6423L19.4513 10.6424L9.99704 10.7208L10.0136 12.7208ZM1.43995 53.1853L1.43166 52.1854L0.431692 52.1937L0.439988 53.1936L1.43995 53.1853ZM47.9838 52.7992L48.9838 52.7909L48.9755 51.7909L47.9755 51.7992L47.9838 52.7992ZM46.7936 81.9237L45.8609 81.563L45.8601 81.565L46.7936 81.9237ZM42.7937 87.4343L42.2111 86.6216L42.2064 86.625L42.7937 87.4343ZM31.9592 88.2515L32.4254 87.3668L32.418 87.363L31.9592 88.2515ZM28.3878 85.1447L27.5721 85.7231L27.5765 85.7292L28.3878 85.1447ZM26.3941 80.4338L27.3727 80.228L27.2043 79.427L26.3859 79.4338L26.3941 80.4338ZM25.9396 80.4376L25.9313 79.4376L24.9685 79.4456L24.9401 80.408L25.9396 80.4376ZM24.4622 85.9045L23.5908 85.4139L23.5874 85.42L24.4622 85.9045ZM20.6539 89.8454L20.1369 88.9893L20.1334 88.9915L20.6539 89.8454ZM8.12703 89.4038L8.67775 88.5691L8.67333 88.5662L8.12703 89.4038ZM3.39861 83.8065L4.30155 83.3767L3.39861 83.8065ZM11.6354 65.7375L11.6271 64.7376L10.6271 64.7459L10.6354 65.7458L11.6354 65.7375ZM12.9057 76.4092L12.1079 77.0122L12.1135 77.0194L12.9057 76.4092ZM20.9402 75.047L20.0193 74.657L20.017 74.6626L20.9402 75.047ZM21.4532 65.6561L22.4532 65.6478L22.4449 64.6478L21.4449 64.6561L21.4532 65.6561ZM29.2711 65.5912L29.2628 64.5913L28.2628 64.5996L28.2711 65.5995L29.2711 65.5912ZM29.8611 73.7002L28.9393 74.0878L29.8611 73.7002ZM31.3775 75.665L31.9589 74.8514L31.9555 74.849L31.3775 75.665ZM37.0978 74.7993L36.2928 74.206L36.2872 74.2136L37.0978 74.7993ZM38.1799 65.5173L39.1799 65.509L39.1716 64.509L38.1716 64.5173L38.1799 65.5173ZM1.44825 54.1853L47.9921 53.7991L47.9755 51.7992L1.43166 52.1854L1.44825 54.1853ZM46.9838 52.8075L47.1513 72.9886L49.1512 72.972L48.9838 52.7909L46.9838 52.8075ZM47.1513 72.9886C47.18 76.4512 46.7365 79.2984 45.8609 81.563L47.7263 82.2843C48.7197 79.7151 49.1813 76.6001 49.1512 72.972L47.1513 72.9886ZM45.8601 81.565C44.9801 83.8556 43.7523 85.5168 42.2111 86.6216L43.3763 88.2471C45.2995 86.8685 46.7383 84.8559 47.7271 82.2823L45.8601 81.565ZM42.2064 86.625C40.6604 87.7468 38.8202 88.331 36.642 88.349L36.6586 90.349C39.2075 90.3278 41.4629 89.6355 43.381 88.2437L42.2064 86.625ZM36.642 88.349C35.0833 88.362 33.6843 88.0303 32.4254 87.3668L31.493 89.1362C33.0647 89.9645 34.7932 90.3644 36.6586 90.349L36.642 88.349ZM32.418 87.363C31.1479 86.7072 30.0765 85.7779 29.1992 84.5602L27.5765 85.7292C28.6306 87.1925 29.9401 88.3344 31.5004 89.1401L32.418 87.363ZM29.2036 84.5663C28.3412 83.35 27.7265 81.9099 27.3727 80.228L25.4156 80.6396C25.819 82.5576 26.5334 84.2581 27.5721 85.7231L29.2036 84.5663ZM26.3859 79.4338L25.9313 79.4376L25.9479 81.4375L26.4024 81.4337L26.3859 79.4338ZM24.9401 80.408C24.8854 82.2569 24.4324 83.9194 23.5908 85.4139L25.3335 86.3952C26.3436 84.6015 26.8755 82.6194 26.9392 80.4671L24.9401 80.408ZM23.5874 85.42C22.7626 86.909 21.6174 88.0953 20.1369 88.9893L21.1708 90.7014C22.9468 89.6289 24.3405 88.188 25.337 86.3891L23.5874 85.42ZM20.1334 88.9915C18.6983 89.8661 16.9765 90.3304 14.9305 90.3474L14.9471 92.3473C17.2949 92.3279 19.3831 91.7909 21.1743 90.6993L20.1334 88.9915ZM14.9305 90.3474C12.5703 90.367 10.4969 89.7694 8.67774 88.5691L7.57631 90.2385C9.74885 91.6719 12.2166 92.37 14.9471 92.3473L14.9305 90.3474ZM8.67333 88.5662C6.85099 87.3777 5.38951 85.6625 4.30155 83.3767L2.49567 84.2363C3.72084 86.8103 5.41164 88.8267 7.58073 90.2414L8.67333 88.5662ZM4.30155 83.3767C3.22158 81.1078 2.64881 78.3543 2.62168 75.0854L0.621754 75.102C0.650695 78.5903 1.26252 81.6455 2.49567 84.2363L4.30155 83.3767ZM2.62168 75.0854L2.43992 53.177L0.439988 53.1936L0.621754 75.102L2.62168 75.0854ZM10.6354 65.7458L10.6844 71.6547L12.6843 71.6381L12.6353 65.7292L10.6354 65.7458ZM10.6844 71.6547C10.7028 73.8705 11.1244 75.7108 12.108 77.0121L13.7035 75.8062C13.0938 74.9995 12.7012 73.6646 12.6843 71.6381L10.6844 71.6547ZM12.1135 77.0194C13.1509 78.3662 14.6601 78.9856 16.4726 78.9706L16.456 76.9707C15.1473 76.9815 14.2842 76.5599 13.698 75.799L12.1135 77.0194ZM16.4726 78.9706C17.7192 78.9602 18.8421 78.6635 19.7884 78.0277L18.6729 76.3676C18.1124 76.7443 17.3911 76.9629 16.456 76.9707L16.4726 78.9706ZM19.7884 78.0277C20.7219 77.4004 21.41 76.52 21.8633 75.4315L20.017 74.6626C19.6978 75.429 19.2463 75.9824 18.6729 76.3676L19.7884 78.0277ZM21.861 75.437C22.3141 74.3671 22.5152 73.1239 22.5037 71.7385L20.5038 71.7551C20.5136 72.9453 20.339 73.9023 20.0194 74.657L21.861 75.437ZM22.5037 71.7385L22.4532 65.6478L20.4532 65.6644L20.5038 71.7551L22.5037 71.7385ZM21.4449 64.6561L11.6271 64.7376L11.6436 66.7375L21.4615 66.6561L21.4449 64.6561ZM28.2711 65.5995L28.3141 70.7812L30.3141 70.7646L30.2711 65.5829L28.2711 65.5995ZM28.3141 70.7812C28.3242 71.9913 28.524 73.1001 28.9393 74.0878L30.783 73.3127C30.4872 72.6092 30.3224 71.7665 30.3141 70.7646L28.3141 70.7812ZM28.9393 74.0878C29.3567 75.0805 29.971 75.8941 30.7994 76.481L31.9555 74.849C31.4732 74.5073 31.0766 74.0111 30.783 73.3127L28.9393 74.0878ZM30.796 76.4786C31.6648 77.0995 32.6923 77.3814 33.8236 77.372L33.807 75.3721C33.0292 75.3786 32.4315 75.1891 31.9589 74.8514L30.796 76.4786ZM33.8236 77.372C35.535 77.3578 36.9476 76.7145 37.9083 75.385L36.2872 74.2136C35.7499 74.9573 34.9742 75.3624 33.807 75.3721L33.8236 77.372ZM37.9027 75.3927C38.8218 74.1458 39.2388 72.6151 39.2244 70.8725L37.2244 70.8891C37.2361 72.2978 36.9021 73.3795 36.2928 74.206L37.9027 75.3927ZM39.2244 70.8725L39.1799 65.509L37.1799 65.5256L37.2244 70.8891L39.2244 70.8725ZM38.1716 64.5173L29.2628 64.5913L29.2794 66.5912L38.1882 66.5173L38.1716 64.5173ZM12.3024 137.916L11.8155 138.79L11.8171 138.791L12.3024 137.916ZM4.16678 129.824L3.28748 130.301L3.28913 130.304L4.16678 129.824ZM3.99907 106.87L3.11604 106.401L3.11359 106.406L3.99907 106.87ZM12.0222 98.6673L11.5252 97.7995L11.5209 97.802L12.0222 98.6673ZM38.1804 98.4503L38.6657 97.5759L38.6645 97.5752L38.1804 98.4503ZM46.3158 106.519L45.4374 106.997L45.4381 106.999L46.3158 106.519ZM46.5062 129.473L45.6207 129.008L45.6192 129.012L46.5062 129.473ZM38.506 137.699L38.0063 136.833L38.0047 136.834L38.506 137.699ZM32.3688 126.659L32.0075 125.726L31.9986 125.73L32.3688 126.659ZM36.7053 123.372L35.8821 122.805L35.8753 122.815L36.7053 123.372ZM36.6176 112.805L35.7998 113.38L35.8011 113.382L36.6176 112.805ZM32.2272 109.591L32.5794 108.655L32.5754 108.654L32.2272 109.591ZM18.114 109.708L17.7527 108.776L17.7438 108.779L18.114 109.708ZM13.7775 112.994L12.9543 112.426L12.9475 112.436L13.7775 112.994ZM13.8652 123.562L13.0474 124.137L13.0487 124.139L13.8652 123.562ZM18.2556 126.776L18.6078 125.84L18.6038 125.838L18.2556 126.776ZM25.4323 139.83C20.3781 139.872 16.1788 138.924 12.7877 137.042L11.8171 138.791C15.5803 140.879 20.1399 141.874 25.4489 141.83L25.4323 139.83ZM12.7893 137.043C9.38343 135.144 6.81104 132.58 5.04443 129.345L3.28913 130.304C5.24588 133.887 8.09722 136.717 11.8155 138.79L12.7893 137.043ZM5.04608 129.348C3.28404 126.095 2.37825 122.448 2.34454 118.385L0.344609 118.401C0.380791 122.762 1.35647 126.736 3.28748 130.301L5.04608 129.348ZM2.34454 118.385C2.31058 114.291 3.16312 110.616 4.88455 107.335L3.11359 106.406C1.22529 110.004 0.308175 114.01 0.344609 118.401L2.34454 118.385ZM4.88208 107.34C6.60987 104.089 9.1479 101.488 12.5235 99.5325L11.5209 97.802C7.83927 99.9352 5.02855 102.803 3.11606 106.401L4.88208 107.34ZM12.5191 99.5351C15.8801 97.6103 20.0495 96.6006 25.0733 96.5589L25.0567 94.559C19.778 94.6028 15.2521 95.6653 11.5252 97.7995L12.5191 99.5351ZM25.0733 96.5589C30.1289 96.517 34.3208 97.4579 37.6963 99.3253L38.6645 97.5752C34.9162 95.5016 30.3645 94.515 25.0567 94.559L25.0733 96.5589ZM37.6951 99.3246C41.1165 101.224 43.6872 103.78 45.4374 106.997L47.1942 106.042C45.2516 102.471 42.3987 99.6479 38.6657 97.5759L37.6951 99.3246ZM45.4381 106.999C47.2138 110.25 48.1272 113.911 48.1611 118.004L50.1611 117.988C50.1246 113.596 49.1412 109.607 47.1934 106.04L45.4381 106.999ZM48.1611 118.004C48.1948 122.066 47.3427 125.727 45.6208 129.008L47.3917 129.938C49.2795 126.341 50.1973 122.35 50.1611 117.988L48.1611 118.004ZM45.6192 129.012C43.9224 132.272 41.3946 134.878 38.0063 136.833L39.0058 138.565C42.705 136.431 45.5107 133.553 47.3933 129.935L45.6192 129.012ZM38.0047 136.834C34.6613 138.771 30.4868 139.788 25.4323 139.83L25.4489 141.83C30.7578 141.786 35.2935 140.716 39.0074 138.564L38.0047 136.834ZM25.3411 128.831C28.211 128.807 30.6875 128.405 32.7389 127.587L31.9986 125.73C30.2443 126.429 28.0302 126.808 25.3245 126.831L25.3411 128.831ZM32.7301 127.591C34.804 126.787 36.4288 125.576 37.5352 123.93L35.8753 122.815C35.036 124.063 33.7699 125.043 32.0075 125.726L32.7301 127.591ZM37.5284 123.94C38.6553 122.307 39.1802 120.333 39.1615 118.079L37.1615 118.096C37.1775 120.023 36.7316 121.573 35.8821 122.805L37.5284 123.94ZM39.1615 118.079C39.1427 115.825 38.585 113.855 37.4341 112.227L35.8011 113.382C36.674 114.616 37.1455 116.169 37.1615 118.096L39.1615 118.079ZM37.4354 112.229C36.3026 110.62 34.6609 109.438 32.5794 108.655L31.8749 110.527C33.654 111.196 34.9393 112.158 35.7998 113.38L37.4354 112.229ZM32.5754 108.654C30.513 107.887 28.0326 107.535 25.1646 107.559L25.1812 109.558C27.8887 109.536 30.1112 109.872 31.8789 110.528L32.5754 108.654ZM25.1646 107.559C22.2962 107.582 19.8157 107.976 17.7527 108.776L18.4753 110.64C20.2486 109.953 22.474 109.581 25.1812 109.558L25.1646 107.559ZM17.7438 108.779C15.6908 109.597 14.0732 110.804 12.9543 112.426L14.6006 113.562C15.4581 112.319 16.7315 111.335 18.4842 110.637L17.7438 108.779ZM12.9475 112.436C11.8414 114.082 11.3255 116.058 11.3442 118.31L13.3442 118.293C13.3281 116.363 13.7678 114.801 14.6074 113.552L12.9475 112.436ZM11.3442 118.31C11.3629 120.561 11.9113 122.523 13.0474 124.137L14.6829 122.986C13.8257 121.768 13.3602 120.224 13.3442 118.293L11.3442 118.31ZM13.0487 124.139C14.1952 125.761 15.8356 126.943 17.9074 127.713L18.6038 125.838C16.8455 125.185 15.559 124.225 14.6817 122.985L13.0487 124.139ZM17.9034 127.712C19.9816 128.494 22.4708 128.854 25.3411 128.831L25.3245 126.831C22.6192 126.853 20.3903 126.51 18.6078 125.84L17.9034 127.712ZM48.9896 174.028L49.9896 174.02L49.9813 173.02L48.9813 173.028L48.9896 174.028ZM49.0944 186.664L49.1027 187.664L50.1027 187.656L50.0944 186.656L49.0944 186.664ZM10.0519 184.442L10.5929 183.601L10.5917 183.6L10.0519 184.442ZM4.01641 177.447L3.11223 177.874L3.114 177.878L4.01641 177.447ZM3.84181 156.402L2.93237 155.986L2.93067 155.99L3.84181 156.402ZM9.76043 149.307L9.21245 148.471L9.20678 148.474L9.76043 149.307ZM48.7611 146.483L49.761 146.475L49.7527 145.475L48.7528 145.483L48.7611 146.483ZM48.8659 159.119L48.8742 160.119L49.8742 160.111L49.8659 159.111L48.8659 159.119ZM16.284 160.344L15.7882 159.476L15.7832 159.479L16.284 160.344ZM13.6696 163.002L12.7959 162.516L12.7931 162.521L13.6696 163.002ZM13.7337 170.729L12.8682 171.23L13.7337 170.729ZM16.3919 173.344L15.9055 174.218L15.9105 174.22L16.3919 173.344ZM47.9896 174.036L48.0945 186.672L50.0944 186.656L49.9896 174.02L47.9896 174.036ZM49.0861 185.664L19.269 185.911L19.2856 187.911L49.1027 187.664L49.0861 185.664ZM19.269 185.911C15.8893 185.939 13.0113 185.157 10.5929 183.601L9.51098 185.283C12.3024 187.079 15.5745 187.942 19.2856 187.911L19.269 185.911ZM10.5917 183.6C8.17168 182.049 6.27945 179.865 4.91882 177.016L3.114 177.878C4.62149 181.035 6.75293 183.515 9.51218 185.284L10.5917 183.6ZM4.92059 177.019C3.5747 174.171 2.87052 170.824 2.83843 166.956L0.838496 166.973C0.872522 171.074 1.62031 174.716 3.11223 177.874L4.92059 177.019ZM2.83843 166.956C2.80607 163.056 3.45494 159.684 4.75296 156.814L2.93067 155.99C1.49094 159.173 0.804229 162.842 0.838496 166.973L2.83843 166.956ZM4.75124 156.818C6.0644 153.946 7.92015 151.731 10.3141 150.14L9.20678 148.474C6.47727 150.289 4.38727 152.804 2.93238 155.986L4.75124 156.818ZM10.3084 150.144C12.7018 148.576 15.5691 147.759 18.9522 147.731L18.9356 145.731C15.2281 145.762 11.9731 146.662 9.21246 148.471L10.3084 150.144ZM18.9522 147.731L48.7694 147.483L48.7528 145.483L18.9356 145.731L18.9522 147.731ZM47.7611 146.492L47.8659 159.128L49.8659 159.111L49.761 146.475L47.7611 146.492ZM48.8576 158.119L20.1313 158.358L20.1479 160.358L48.8742 160.119L48.8576 158.119ZM20.1313 158.358C18.5393 158.371 17.083 158.737 15.7882 159.476L16.7799 161.213C17.7471 160.66 18.8613 160.368 20.1479 160.358L20.1313 158.358ZM15.7832 159.479C14.5111 160.215 13.5107 161.232 12.7959 162.516L14.5434 163.489C15.0826 162.52 15.8252 161.765 16.7848 161.21L15.7832 159.479ZM12.7931 162.521C12.0754 163.828 11.734 165.29 11.7472 166.882L13.7471 166.866C13.7365 165.579 14.01 164.46 14.5462 163.484L12.7931 162.521ZM11.7472 166.882C11.7605 168.487 12.1252 169.946 12.8682 171.23L14.5993 170.229C14.051 169.281 13.758 168.17 13.7471 166.866L11.7472 166.882ZM12.8682 171.23C13.6042 172.502 14.6213 173.503 15.9055 174.218L16.8783 172.47C15.9096 171.931 15.1545 171.188 14.5993 170.229L12.8682 171.23ZM15.9105 174.22C17.2175 174.938 18.6796 175.279 20.2716 175.266L20.255 173.266C18.9684 173.277 17.8495 173.003 16.8732 172.467L15.9105 174.22ZM20.2716 175.266L48.9979 175.028L48.9813 173.028L20.255 173.266L20.2716 175.266ZM38.9522 191.481L38.9439 190.481L37.944 190.489L37.9523 191.489L38.9522 191.481ZM49.1337 191.397L50.1337 191.388L50.1254 190.388L49.1254 190.397L49.1337 191.397ZM49.4693 231.85L49.4776 232.85L50.4776 232.842L50.4693 231.842L49.4693 231.85ZM39.2879 231.934L38.2879 231.943L38.2962 232.943L39.2962 232.934L39.2879 231.934ZM39.1717 217.935L40.1717 217.926L40.1634 216.927L39.1634 216.935L39.1717 217.935ZM2.80932 218.236L1.80936 218.245L1.81765 219.245L2.81762 219.236L2.80932 218.236ZM2.70599 205.782L2.6977 204.782L1.69773 204.791L1.70603 205.791L2.70599 205.782ZM39.0684 205.481L39.0767 206.481L40.0766 206.472L40.0683 205.472L39.0684 205.481ZM38.9605 192.481L49.142 192.397L49.1254 190.397L38.9439 190.481L38.9605 192.481ZM48.1337 191.405L48.4694 231.858L50.4693 231.842L50.1337 191.388L48.1337 191.405ZM49.461 230.85L39.2796 230.934L39.2962 232.934L49.4776 232.85L49.461 230.85ZM40.2878 231.926L40.1717 217.926L38.1717 217.943L38.2879 231.943L40.2878 231.926ZM39.1634 216.935L2.80103 217.237L2.81762 219.236L39.18 218.935L39.1634 216.935ZM3.80929 218.228L3.70596 205.774L1.70603 205.791L1.80936 218.245L3.80929 218.228ZM2.71429 206.782L39.0767 206.481L39.0601 204.481L2.6977 204.782L2.71429 206.782ZM40.0683 205.472L39.9522 191.473L37.9523 191.489L38.0684 205.489L40.0683 205.472ZM49.8431 276.899L50.8431 276.891L50.8348 275.891L49.8348 275.899L49.8431 276.899ZM49.9479 289.535L49.9562 290.535L50.9562 290.527L50.9479 289.527L49.9479 289.535ZM10.9054 287.314L11.4464 286.473L11.4452 286.472L10.9054 287.314ZM4.8699 280.318L3.96571 280.745L3.96749 280.749L4.8699 280.318ZM4.6953 259.273L3.78586 258.858L3.78416 258.861L4.6953 259.273ZM10.6139 252.179L10.0659 251.342L10.0603 251.346L10.6139 252.179ZM49.6146 249.355L50.6145 249.347L50.6062 248.347L49.6063 248.355L49.6146 249.355ZM49.7194 261.991L49.7277 262.991L50.7277 262.982L50.7194 261.983L49.7194 261.991ZM17.1375 263.216L16.6417 262.347L16.6367 262.35L17.1375 263.216ZM14.5231 265.874L13.6494 265.388L13.6466 265.393L14.5231 265.874ZM14.5872 273.601L13.7217 274.102L14.5872 273.601ZM17.2454 276.215L16.759 277.089L16.764 277.092L17.2454 276.215ZM48.8431 276.908L48.948 289.544L50.9479 289.527L50.8431 276.891L48.8431 276.908ZM49.9396 288.535L20.1225 288.783L20.1391 290.783L49.9562 290.535L49.9396 288.535ZM20.1225 288.783C16.7428 288.811 13.8648 288.028 11.4464 286.473L10.3645 288.155C13.1558 289.95 16.428 290.813 20.1391 290.783L20.1225 288.783ZM11.4452 286.472C9.02517 284.92 7.13293 282.737 5.7723 279.887L3.96749 280.749C5.47497 283.906 7.60642 286.386 10.3657 288.156L11.4452 286.472ZM5.77408 279.891C4.42818 277.042 3.72401 273.696 3.69191 269.828L1.69198 269.844C1.72601 273.945 2.4738 277.587 3.96572 280.745L5.77408 279.891ZM3.69191 269.828C3.65956 265.928 4.30842 262.555 5.60644 259.685L3.78416 258.861C2.34442 262.045 1.65772 265.714 1.69198 269.844L3.69191 269.828ZM5.60473 259.689C6.91789 256.817 8.77364 254.603 11.1676 253.011L10.0603 251.346C7.33076 253.161 5.24076 255.676 3.78587 258.858L5.60473 259.689ZM11.1619 253.015C13.5553 251.447 16.4226 250.63 19.8057 250.602L19.7891 248.602C16.0816 248.633 12.8265 249.534 10.0659 251.342L11.1619 253.015ZM19.8057 250.602L49.6229 250.355L49.6063 248.355L19.7891 248.602L19.8057 250.602ZM48.6146 249.363L48.7194 261.999L50.7194 261.983L50.6145 249.347L48.6146 249.363ZM49.7111 260.991L20.9848 261.229L21.0014 263.229L49.7277 262.991L49.7111 260.991ZM20.9848 261.229C19.3928 261.242 17.9365 261.608 16.6417 262.347L17.6334 264.084C18.6006 263.532 19.7147 263.24 21.0014 263.229L20.9848 261.229ZM16.6367 262.35C15.3646 263.086 14.3642 264.103 13.6494 265.388L15.3969 266.36C15.9361 265.392 16.6787 264.637 17.6383 264.081L16.6367 262.35ZM13.6466 265.393C12.9289 266.699 12.5875 268.162 12.6007 269.754L14.6006 269.737C14.59 268.45 14.8635 267.332 15.3997 266.355L13.6466 265.393ZM12.6007 269.754C12.614 271.359 12.9787 272.818 13.7217 274.102L15.4528 273.1C14.9045 272.152 14.6114 271.041 14.6006 269.737L12.6007 269.754ZM13.7217 274.102C14.4577 275.374 15.4748 276.374 16.759 277.089L17.7317 275.342C16.763 274.802 16.008 274.06 15.4528 273.1L13.7217 274.102ZM16.764 277.092C18.071 277.81 19.5331 278.151 21.1251 278.138L21.1085 276.138C19.8218 276.148 18.703 275.875 17.7267 275.339L16.764 277.092ZM21.1251 278.138L49.8514 277.899L49.8348 275.899L21.1085 276.138L21.1251 278.138ZM35.661 320.752L35.5729 319.755L34.6533 319.837L34.661 320.76L35.661 320.752ZM39.1921 319.018L38.4243 318.377L38.4196 318.383L39.1921 319.018ZM39.9231 311.239L38.9882 311.594L38.9919 311.603L39.9231 311.239ZM38.658 309.431L39.2477 308.623L39.2477 308.623L38.658 309.431ZM36.8348 308.832L36.7891 309.831L36.805 309.832L36.8209 309.832L36.8348 308.832ZM35.3146 309.14L34.86 308.25L34.8419 308.259L34.8243 308.269L35.3146 309.14ZM34.1195 310.287L33.2978 309.717L33.2921 309.725L33.2866 309.733L34.1195 310.287ZM32.4325 315.142L33.412 315.343L33.4137 315.335L32.4325 315.142ZM31.646 318.967L30.6665 318.765L30.666 318.768L31.646 318.967ZM29.5419 325.598L28.6394 325.167L29.5419 325.598ZM26.4202 330.124L25.7208 329.409L25.7163 329.414L26.4202 330.124ZM22.3962 332.726L22.0467 331.789L22.0384 331.792L22.3962 332.726ZM17.4944 333.63L17.4978 334.63L17.5113 334.63L17.4944 333.63ZM9.70294 331.399L9.12847 332.218L9.70294 331.399ZM4.80827 324.939L5.73608 324.566L5.7354 324.565L4.80827 324.939ZM4.77286 304.234L3.84101 303.872L3.84039 303.873L4.77286 304.234ZM10.2373 297.189L9.67921 296.359L9.67341 296.363L10.2373 297.189ZM19.8072 294.609L20.8071 294.601L20.7988 293.597L19.795 293.61L19.8072 294.609ZM19.9067 306.609L19.9681 307.607L20.9145 307.549L20.9067 306.601L19.9067 306.609ZM16.3248 307.707L15.7692 306.876L16.3248 307.707ZM14.1426 310.407L13.222 310.016L13.2202 310.021L14.1426 310.407ZM13.9552 317.954L13.0192 318.306L13.9552 317.954ZM15.3587 320.011L14.7429 320.799L15.3587 320.011ZM17.3873 320.721L17.3756 321.721L17.3963 321.721L17.4169 321.721L17.3873 320.721ZM19.2451 320.001L18.6113 319.228L18.5995 319.237L18.588 319.248L19.2451 320.001ZM20.6815 317.808L19.7604 317.418L19.7556 317.43L20.6815 317.808ZM21.8746 313.684L22.8531 313.89L22.8538 313.887L21.8746 313.684ZM22.8361 309.039L21.8571 308.836L21.8568 308.837L22.8361 309.039ZM27.2323 299.253L26.4802 298.593L26.4758 298.599L27.2323 299.253ZM35.8164 295.658L35.8205 296.659L35.8298 296.658L35.8164 295.658ZM43.5858 297.958L44.1639 297.142L44.1629 297.141L43.5858 297.958ZM48.8454 304.573L49.7586 304.166L49.7578 304.164L48.8454 304.573ZM48.9848 324.118L48.0724 323.709L48.9848 324.118ZM43.7194 330.503L43.168 329.669L43.1617 329.673L43.7194 330.503ZM35.7613 332.842L34.7613 332.85L34.7696 333.855L35.7745 333.842L35.7613 332.842ZM35.749 321.748C37.4872 321.594 38.9285 320.913 39.9647 319.653L38.4196 318.383C37.7757 319.166 36.8629 319.641 35.5729 319.755L35.749 321.748ZM39.96 319.658C41.0168 318.392 41.4448 316.587 41.4269 314.431L39.427 314.447C39.443 316.382 39.0478 317.63 38.4243 318.377L39.96 319.658ZM41.4269 314.431C41.4155 313.057 41.2393 311.858 40.8543 310.874L38.9919 311.603C39.2571 312.281 39.4167 313.215 39.427 314.447L41.4269 314.431ZM40.8579 310.884C40.501 309.944 39.9806 309.158 39.2477 308.623L38.0684 310.239C38.4026 310.482 38.7256 310.902 38.9883 311.594L40.8579 310.884ZM39.2477 308.623C38.5411 308.107 37.7307 307.845 36.8488 307.832L36.8209 309.832C37.3028 309.839 37.7079 309.975 38.0684 310.239L39.2477 308.623ZM36.8805 307.833C36.165 307.801 35.483 307.932 34.86 308.25L35.7692 310.031C36.0515 309.887 36.383 309.813 36.7891 309.831L36.8805 307.833ZM34.8243 308.269C34.2257 308.606 33.7219 309.105 33.2978 309.717L34.9413 310.857C35.2359 310.432 35.5288 310.167 35.8049 310.012L34.8243 308.269ZM33.2866 309.733C32.8826 310.341 32.5367 311.085 32.2373 311.942L34.1255 312.601C34.3886 311.848 34.668 311.268 34.9524 310.84L33.2866 309.733ZM32.2373 311.942C31.9365 312.804 31.6758 313.808 31.4513 314.949L33.4137 315.335C33.6254 314.259 33.8639 313.351 34.1255 312.601L32.2373 311.942ZM31.453 314.94L30.6665 318.765L32.6255 319.168L33.412 315.343L31.453 314.94ZM30.666 318.768C30.1538 321.289 29.4744 323.418 28.6394 325.167L30.4443 326.029C31.3667 324.097 32.0901 321.804 32.626 319.166L30.666 318.768ZM28.6394 325.167C27.8008 326.924 26.8237 328.33 25.7208 329.409L27.1196 330.839C28.4215 329.565 29.5255 327.953 30.4443 326.029L28.6394 325.167ZM25.7163 329.414C24.6249 330.495 23.403 331.283 22.0467 331.789L22.7457 333.663C24.3803 333.053 25.841 332.106 27.1241 330.834L25.7163 329.414ZM22.0384 331.792C20.663 332.319 19.1459 332.602 17.4776 332.63L17.5113 334.63C19.388 334.598 21.1388 334.278 22.754 333.659L22.0384 331.792ZM17.4911 332.63C14.6002 332.64 12.2139 331.94 10.2774 330.581L9.12847 332.218C11.4594 333.854 14.2674 334.641 17.4978 334.63L17.4911 332.63ZM10.2774 330.581C8.32636 329.211 6.8052 327.225 5.73608 324.566L3.88046 325.313C5.07015 328.271 6.8121 330.592 9.12847 332.218L10.2774 330.581ZM5.7354 324.565C4.66522 321.917 4.09724 318.682 4.0653 314.832L2.06537 314.848C2.09879 318.876 2.69277 322.374 3.88115 325.314L5.7354 324.565ZM4.0653 314.832C4.03253 310.883 4.5888 307.478 5.70533 304.596L3.84039 303.873C2.61309 307.041 2.031 310.707 2.06537 314.848L4.0653 314.832ZM5.7047 304.597C6.80969 301.76 8.51019 299.579 10.8012 298.015L9.67341 296.363C7.02258 298.173 5.08011 300.69 3.84101 303.872L5.7047 304.597ZM10.7954 298.019C13.0782 296.483 16.0628 295.655 19.8193 295.609L19.795 293.61C15.7642 293.659 12.3689 294.55 9.67923 296.359L10.7954 298.019ZM18.8072 294.618L18.9068 306.617L20.9067 306.601L20.8071 294.601L18.8072 294.618ZM19.8453 305.611C18.2855 305.707 16.911 306.113 15.7692 306.876L16.8804 308.538C17.6674 308.013 18.6808 307.686 19.9681 307.607L19.8453 305.611ZM15.7692 306.876C14.6294 307.637 13.782 308.697 13.222 310.016L15.0631 310.798C15.484 309.806 16.0914 309.066 16.8804 308.538L15.7692 306.876ZM13.2202 310.021C12.6657 311.345 12.413 312.874 12.4271 314.58L14.4271 314.564C14.4146 313.059 14.6389 311.811 15.065 310.793L13.2202 310.021ZM12.4271 314.58C12.4389 316.004 12.6242 317.256 13.0192 318.306L14.8912 317.602C14.6044 316.84 14.4376 315.838 14.4271 314.564L12.4271 314.58ZM13.0192 318.306C13.4067 319.337 13.9678 320.193 14.7429 320.799L15.9744 319.223C15.56 318.899 15.1854 318.384 14.8912 317.602L13.0192 318.306ZM14.7429 320.799C15.5111 321.399 16.3997 321.71 17.3756 321.721L17.399 319.721C16.8596 319.715 16.3958 319.552 15.9744 319.223L14.7429 320.799ZM17.4169 321.721C18.3552 321.693 19.1975 321.369 19.9021 320.755L18.588 319.248C18.2397 319.551 17.8434 319.707 17.3578 319.722L17.4169 321.721ZM19.8788 320.775C20.6026 320.182 21.1611 319.279 21.6073 318.185L19.7556 317.43C19.3703 318.374 18.9711 318.933 18.6113 319.228L19.8788 320.775ZM21.6025 318.197C22.0687 317.095 22.4823 315.651 22.8531 313.89L20.896 313.478C20.538 315.178 20.1561 316.483 19.7605 317.418L21.6025 318.197ZM22.8538 313.887L23.8153 309.242L21.8568 308.837L20.8953 313.481L22.8538 313.887ZM23.8151 309.243C24.6512 305.228 26.0598 302.138 27.9888 299.906L26.4758 298.599C24.2626 301.159 22.7404 304.594 21.8571 308.836L23.8151 309.243ZM27.9844 299.912C29.8528 297.779 32.4237 296.672 35.8205 296.658L35.8123 294.658C31.9364 294.674 28.7845 295.964 26.4802 298.594L27.9844 299.912ZM35.8298 296.658C38.5917 296.621 40.9707 297.334 43.0086 298.774L44.1629 297.141C41.7503 295.436 38.9498 294.616 35.803 294.659L35.8298 296.658ZM43.0076 298.774C45.0846 300.245 46.7307 302.302 47.9329 304.983L49.7578 304.164C48.4283 301.199 46.568 298.845 44.1639 297.142L43.0076 298.774ZM47.9321 304.981C49.1327 307.672 49.7606 310.792 49.7902 314.361L51.7902 314.345C51.7587 310.551 51.0901 307.151 49.7586 304.166L47.9321 304.981ZM49.7902 314.361C49.8205 318.009 49.2357 321.116 48.0724 323.709L49.8972 324.528C51.2035 321.616 51.8223 318.212 51.7902 314.345L49.7902 314.361ZM48.0724 323.709C46.9067 326.308 45.2688 328.281 43.1681 329.669L44.2708 331.337C46.721 329.718 48.5933 327.434 49.8972 324.528L48.0724 323.709ZM43.1617 329.673C41.0813 331.071 38.6229 331.804 35.748 331.842L35.7745 333.842C38.9901 333.799 41.8371 332.973 44.2772 331.333L43.1617 329.673ZM36.7612 332.834L36.6609 320.743L34.661 320.76L34.7613 332.85L36.7612 332.834Z" fill="#05C2DF" fill-opacity="0.2" mask="url(#path-1-outside-1_3495_4395)"/>
</svg>
