<svg width="52" height="334" viewBox="0 0 52 334" fill="none" xmlns="http://www.w3.org/2000/svg">
<mask id="path-1-outside-1_3495_4398" maskUnits="userSpaceOnUse" x="-1.03712" y="-1.30285" width="53.7858" height="336.412" fill="black">
<rect fill="white" x="-1.03712" y="-1.30285" width="53.7858" height="336.412"/>
<path d="M50.6235 319.612L50.7367 333.248L4.06536 318.271L3.92206 300.999L50.3385 285.249L50.4516 298.885L16.8099 309.347L16.813 309.71L50.6235 319.612ZM32.2817 322.31L32.069 296.674L41.5232 296.596L41.7359 322.231L32.2817 322.31ZM50.3013 280.767L3.75741 281.153L3.58997 260.972C3.56056 257.426 4.01312 254.445 4.94764 252.028C5.88204 249.596 7.21533 247.759 8.94752 246.518C10.6796 245.261 12.7274 244.622 15.0909 244.603C16.803 244.589 18.3667 244.954 19.782 245.7C21.1972 246.431 22.3877 247.467 23.3534 248.807C24.3039 250.148 24.9685 251.718 25.3471 253.518L25.8016 253.514C25.8608 251.514 26.3532 249.691 27.279 248.047C28.1897 246.403 29.4591 245.09 31.0874 244.106C32.7005 243.123 34.6055 242.623 36.8024 242.604C39.3477 242.583 41.6183 243.231 43.6142 244.548C45.6099 245.85 47.186 247.715 48.3426 250.145C49.4992 252.575 50.0915 255.48 50.1195 258.858L50.3013 280.767ZM40.1059 268.214L40.0568 262.305C40.0392 260.184 39.6321 258.597 38.8355 257.543C38.0237 256.489 36.8375 255.968 35.2769 255.981C34.1861 255.99 33.2639 256.248 32.5105 256.754C31.7571 257.26 31.1873 257.977 30.801 258.905C30.4147 259.817 30.2268 260.917 30.2375 262.205L30.288 268.296L40.1059 268.214ZM22.4701 268.361L22.4271 263.179C22.4179 262.073 22.2356 261.097 21.8801 260.252C21.5246 259.406 21.0191 258.751 20.3637 258.287C19.6931 257.808 18.8805 257.572 17.926 257.58C16.4866 257.592 15.3924 258.116 14.6434 259.153C13.8793 260.189 13.5038 261.495 13.5168 263.071L13.5613 268.435L22.4701 268.361ZM26.3006 193.122C31.4822 193.079 35.8616 194.05 39.4388 196.036C43.0009 198.021 45.7128 200.719 47.5744 204.127C49.421 207.536 50.3617 211.347 50.3966 215.559C50.4318 219.801 49.547 223.642 47.7422 227.081C45.922 230.506 43.2476 233.24 39.719 235.285C36.1751 237.314 31.8275 238.35 26.6762 238.393C21.4945 238.436 17.1228 237.472 13.5608 235.502C9.98363 233.516 7.27182 230.826 5.42542 227.432C3.56374 224.024 2.61531 220.198 2.58011 215.956C2.54517 211.744 3.43012 207.918 5.23499 204.479C7.0247 201.039 9.69144 198.298 13.2352 196.253C16.7638 194.208 21.1189 193.165 26.3006 193.122ZM26.4084 206.121C23.6207 206.144 21.2753 206.535 19.3725 207.293C17.4543 208.037 16.0088 209.132 15.0359 210.579C14.0478 212.012 13.5624 213.774 13.5797 215.864C13.5971 217.955 14.1117 219.716 15.1236 221.147C16.1202 222.563 17.5837 223.634 19.5141 224.361C21.4291 225.072 23.7805 225.416 26.5683 225.393C29.3561 225.37 31.7091 224.987 33.6272 224.244C35.5301 223.486 36.9756 222.39 37.9637 220.958C38.9366 219.51 39.4144 217.741 39.397 215.65C39.3797 213.559 38.8727 211.806 37.8761 210.39C36.8642 208.959 35.4007 207.888 33.4856 207.176C31.5553 206.45 29.1962 206.098 26.4084 206.121ZM2.75163 159.924L2.64679 147.288L32.4639 147.041C36.0093 147.011 39.0844 147.834 41.6893 149.51C44.2789 151.17 46.2908 153.502 47.7248 156.505C49.1437 159.509 49.8697 163.003 49.9028 166.988C49.9361 171.003 49.2683 174.523 47.8994 177.55C46.5154 180.577 44.5425 182.942 41.9808 184.645C39.4038 186.333 36.3426 187.192 32.7973 187.221L2.98015 187.468L2.87532 174.832L31.6016 174.594C33.0409 174.582 34.3261 174.253 35.4572 173.608C36.5731 172.962 37.4445 172.076 38.0716 170.949C38.6985 169.808 39.006 168.517 38.994 167.078C38.982 165.624 38.6531 164.338 38.0075 163.222C37.3618 162.107 36.4758 161.235 35.3493 160.608C34.2077 159.981 32.9173 159.674 31.4779 159.686L2.75163 159.924ZM12.789 142.471L2.60753 142.555L2.27191 102.102L12.4534 102.018L12.5695 116.017L48.9319 115.715L49.0352 128.17L12.6728 128.471L12.789 142.471ZM1.89815 57.0524L1.79331 44.4165L31.6105 44.1691C35.1558 44.1397 38.2309 44.9627 40.8358 46.6381C43.4254 48.2985 45.4373 50.6304 46.8713 53.6338C48.2902 56.6372 49.0162 60.1313 49.0493 64.1161C49.0826 68.1311 48.4148 71.6519 47.0459 74.6785C45.6619 77.7052 43.689 80.0702 41.1273 81.7733C38.5503 83.4614 35.4892 84.3202 31.9438 84.3496L2.12667 84.597L2.02184 71.961L30.7481 71.7227C32.1875 71.7108 33.4727 71.3819 34.6037 70.7361C35.7196 70.0905 36.5911 69.2044 37.2181 68.078C37.845 66.9364 38.1525 65.6459 38.1406 64.2066C38.1285 62.7521 37.7996 61.4669 37.154 60.351C36.5084 59.2351 35.6223 58.3636 34.4959 57.7366C33.3543 57.1097 32.0638 56.8022 30.6244 56.8141L1.89815 57.0524ZM16.0803 13.2003C14.5662 13.3341 13.3891 13.9121 12.5491 14.9342C11.7089 15.9412 11.2973 17.4674 11.3143 19.5128C11.3251 20.8158 11.4931 21.8826 11.8181 22.7133C12.128 23.5289 12.5496 24.1315 13.0832 24.521C13.6167 24.9106 14.2245 25.1101 14.9064 25.1196C15.4672 25.1452 15.974 25.0425 16.4266 24.8115C16.864 24.5654 17.2624 24.1833 17.6217 23.6652C17.9659 23.1471 18.2786 22.4854 18.5598 21.68C18.841 20.8746 19.0907 19.918 19.3088 18.8101L20.0952 14.9853C20.6193 12.4051 21.3207 10.1946 22.1994 8.35393C23.0781 6.51325 24.1186 5.00456 25.321 3.82788C26.5083 2.65132 27.8496 1.7841 29.345 1.22622C30.8403 0.653191 32.4743 0.351747 34.2468 0.321888C37.3074 0.311648 39.9046 1.05528 42.0383 2.55278C44.172 4.05028 45.8036 6.20349 46.933 9.0124C48.0622 11.8062 48.6432 15.1727 48.6759 19.1119C48.7095 23.1572 48.1403 26.6924 46.9684 29.7174C45.7963 32.7272 43.9749 35.0757 41.5039 36.7629C39.0177 38.4351 35.8278 39.295 31.9341 39.3424L31.8345 27.3428C33.2581 27.2553 34.4521 26.8893 35.4164 26.2449C36.3808 25.6005 37.1082 24.7005 37.5987 23.5449C38.089 22.3741 38.3275 20.9857 38.3141 19.3797C38.3029 18.0313 38.1269 16.9039 37.7861 15.9976C37.4452 15.0913 36.9774 14.4058 36.3826 13.941C35.7878 13.4762 35.1116 13.2394 34.3539 13.2305C33.6419 13.2516 33.0227 13.4916 32.4962 13.9505C31.9544 14.3944 31.4756 15.1257 31.0598 16.1443C30.6288 17.1631 30.2311 18.5377 29.8667 20.268L28.9052 24.9125C28.0454 29.041 26.58 32.3033 24.5089 34.6993C22.4226 37.0803 19.5612 38.2784 15.9248 38.2934C12.9705 38.333 10.3807 37.5666 8.15548 35.9941C5.91496 34.4066 4.16175 32.2014 2.89587 29.3784C1.62985 26.5404 0.981573 23.2805 0.951028 19.5988C0.919854 15.8413 1.52166 12.5862 2.75644 9.83347C3.99122 7.08071 5.74635 4.95243 8.02183 3.44866C10.282 1.92985 12.9348 1.15024 15.98 1.10983L16.0803 13.2003Z"/>
</mask>
<path d="M50.6235 319.612L51.6235 319.603L51.6173 318.861L50.9046 318.652L50.6235 319.612ZM50.7367 333.248L50.4311 334.2L51.7481 334.622L51.7366 333.239L50.7367 333.248ZM4.06536 318.271L3.06539 318.279L3.07139 319.002L3.7598 319.223L4.06536 318.271ZM3.92206 300.999L3.60075 300.052L2.9161 300.284L2.92209 301.007L3.92206 300.999ZM50.3385 285.249L51.3384 285.241L51.3269 283.858L50.0171 284.302L50.3385 285.249ZM50.4516 298.885L50.7485 299.84L51.4577 299.62L51.4515 298.877L50.4516 298.885ZM16.8099 309.347L16.513 308.392L15.8038 308.612L15.81 309.355L16.8099 309.347ZM16.813 309.71L15.813 309.718L15.8192 310.461L16.5319 310.67L16.813 309.71ZM32.2817 322.31L31.2817 322.318L31.29 323.318L32.29 323.309L32.2817 322.31ZM32.069 296.674L32.0607 295.674L31.0607 295.682L31.069 296.682L32.069 296.674ZM41.5232 296.596L42.5232 296.587L42.5149 295.587L41.5149 295.596L41.5232 296.596ZM41.7359 322.231L41.7442 323.231L42.7441 323.223L42.7358 322.223L41.7359 322.231ZM49.6236 319.62L49.7367 333.256L51.7366 333.239L51.6235 319.603L49.6236 319.62ZM51.0422 332.296L4.37091 317.319L3.7598 319.223L50.4311 334.2L51.0422 332.296ZM5.06532 318.262L4.92202 300.99L2.92209 301.007L3.06539 318.279L5.06532 318.262ZM4.24337 301.946L50.6598 286.196L50.0171 284.302L3.60075 300.052L4.24337 301.946ZM49.3385 285.258L49.4516 298.894L51.4515 298.877L51.3384 285.241L49.3385 285.258ZM50.1547 297.93L16.513 308.392L17.1069 310.301L50.7485 299.84L50.1547 297.93ZM15.81 309.355L15.813 309.718L17.8129 309.702L17.8099 309.338L15.81 309.355ZM16.5319 310.67L50.3425 320.571L50.9046 318.652L17.094 308.75L16.5319 310.67ZM33.2816 322.301L33.0689 296.666L31.069 296.682L31.2817 322.318L33.2816 322.301ZM32.0773 297.674L41.5315 297.596L41.5149 295.596L32.0607 295.674L32.0773 297.674ZM40.5232 296.604L40.7359 322.239L42.7358 322.223L42.5232 296.587L40.5232 296.604ZM41.7276 321.231L32.2734 321.31L32.29 323.309L41.7442 323.231L41.7276 321.231ZM50.3013 280.767L50.3096 281.767L51.3095 281.758L51.3012 280.758L50.3013 280.767ZM3.75741 281.153L2.75744 281.161L2.76574 282.161L3.7657 282.153L3.75741 281.153ZM4.94764 252.028L5.88035 252.389L5.88112 252.387L4.94764 252.028ZM8.94752 246.518L9.53013 247.33L9.53482 247.327L8.94752 246.518ZM19.782 245.7L19.3158 246.585L19.3232 246.589L19.782 245.7ZM23.3534 248.807L24.1692 248.229L24.1648 248.223L23.3534 248.807ZM25.3471 253.518L24.3685 253.724L24.5369 254.525L25.3554 254.518L25.3471 253.518ZM25.8016 253.514L25.8099 254.514L26.7727 254.506L26.8012 253.544L25.8016 253.514ZM27.279 248.047L28.1504 248.538L28.1538 248.532L27.279 248.047ZM31.0874 244.106L31.6043 244.963L31.6078 244.96L31.0874 244.106ZM43.6142 244.548L43.0635 245.383L43.0679 245.386L43.6142 244.548ZM48.3426 250.145L47.4397 250.575L48.3426 250.145ZM40.1059 268.214L40.1142 269.214L41.1141 269.206L41.1058 268.206L40.1059 268.214ZM38.8355 257.543L39.6333 256.94L39.6277 256.932L38.8355 257.543ZM30.801 258.905L31.7219 259.295L31.7242 259.289L30.801 258.905ZM30.288 268.296L29.2881 268.304L29.2964 269.304L30.2963 269.296L30.288 268.296ZM22.4701 268.361L22.4784 269.361L23.4784 269.352L23.4701 268.352L22.4701 268.361ZM21.8801 260.252L22.8019 259.864L21.8801 260.252ZM20.3637 258.287L19.7823 259.1L19.7857 259.103L20.3637 258.287ZM14.6434 259.153L15.4484 259.746L15.454 259.738L14.6434 259.153ZM13.5613 268.435L12.5614 268.443L12.5697 269.443L13.5696 269.435L13.5613 268.435ZM50.293 279.767L3.74911 280.153L3.7657 282.153L50.3096 281.767L50.293 279.767ZM4.75737 281.144L4.58994 260.963L2.59001 260.98L2.75744 281.161L4.75737 281.144ZM4.58994 260.963C4.56121 257.501 5.0047 254.653 5.88035 252.389L4.01494 251.668C3.02153 254.237 2.55991 257.352 2.59001 260.98L4.58994 260.963ZM5.88112 252.387C6.76115 250.096 7.98896 248.435 9.53012 247.33L8.36491 245.705C6.44171 247.083 5.00294 249.096 4.01417 251.67L5.88112 252.387ZM9.53482 247.327C11.0809 246.205 12.921 245.621 15.0992 245.603L15.0826 243.603C12.5337 243.624 10.2783 244.316 8.36021 245.708L9.53482 247.327ZM15.0992 245.603C16.658 245.59 18.0569 245.922 19.3158 246.585L20.2482 244.816C18.6765 243.987 16.948 243.587 15.0826 243.603L15.0992 245.603ZM19.3232 246.589C20.5933 247.245 21.6647 248.174 22.542 249.392L24.1648 248.223C23.1106 246.759 21.8011 245.617 20.2408 244.812L19.3232 246.589ZM22.5376 249.386C23.4 250.602 24.0147 252.042 24.3685 253.724L26.3257 253.312C25.9223 251.394 25.2078 249.694 24.1691 248.229L22.5376 249.386ZM25.3554 254.518L25.8099 254.514L25.7933 252.514L25.3388 252.518L25.3554 254.518ZM26.8012 253.544C26.8558 251.695 27.3088 250.032 28.1504 248.538L26.4077 247.557C25.3976 249.35 24.8657 251.332 24.802 253.485L26.8012 253.544ZM28.1538 248.532C28.9786 247.043 30.1238 245.857 31.6043 244.963L30.5704 243.25C28.7944 244.323 27.4007 245.764 26.4043 247.563L28.1538 248.532ZM31.6078 244.96C33.0429 244.086 34.7647 243.621 36.8107 243.604L36.7941 241.605C34.4463 241.624 32.3581 242.161 30.5669 243.253L31.6078 244.96ZM36.8107 243.604C39.1709 243.585 41.2443 244.182 43.0635 245.383L44.1649 243.713C41.9924 242.28 39.5246 241.582 36.7941 241.605L36.8107 243.604ZM43.0679 245.386C44.8902 246.574 46.3517 248.289 47.4397 250.575L49.2455 249.716C48.0204 247.142 46.3296 245.125 44.1605 243.71L43.0679 245.386ZM47.4397 250.575C48.5196 252.844 49.0924 255.598 49.1195 258.866L51.1195 258.85C51.0905 255.362 50.4787 252.306 49.2455 249.716L47.4397 250.575ZM49.1195 258.866L49.3013 280.775L51.3012 280.758L51.1195 258.85L49.1195 258.866ZM41.1058 268.206L41.0568 262.297L39.0569 262.314L39.1059 268.223L41.1058 268.206ZM41.0568 262.297C41.0384 260.081 40.6168 258.241 39.6332 256.94L38.0377 258.146C38.6475 258.952 39.0401 260.287 39.0569 262.314L41.0568 262.297ZM39.6277 256.932C38.5903 255.586 37.0811 254.966 35.2686 254.981L35.2852 256.981C36.5939 256.97 37.4571 257.392 38.0432 258.153L39.6277 256.932ZM35.2686 254.981C34.022 254.992 32.8991 255.288 31.9528 255.924L33.0683 257.584C33.6288 257.208 34.3501 256.989 35.2852 256.981L35.2686 254.981ZM31.9528 255.924C31.0193 256.551 30.3312 257.432 29.8779 258.52L31.7242 259.289C32.0434 258.523 32.4949 257.969 33.0683 257.584L31.9528 255.924ZM29.8802 258.515C29.4271 259.585 29.226 260.828 29.2375 262.213L31.2375 262.197C31.2276 261.007 31.4022 260.05 31.7219 259.295L29.8802 258.515ZM29.2375 262.213L29.2881 268.304L31.288 268.287L31.2375 262.197L29.2375 262.213ZM30.2963 269.296L40.1142 269.214L40.0976 267.214L30.2797 267.296L30.2963 269.296ZM23.4701 268.352L23.4271 263.171L21.4272 263.187L21.4701 268.369L23.4701 268.352ZM23.4271 263.171C23.417 261.961 23.2172 260.852 22.8019 259.864L20.9583 260.639C21.254 261.343 21.4188 262.185 21.4272 263.187L23.4271 263.171ZM22.8019 259.864C22.3846 258.871 21.7702 258.058 20.9418 257.471L19.7857 259.103C20.268 259.445 20.6646 259.941 20.9583 260.639L22.8019 259.864ZM20.9452 257.473C20.0764 256.852 19.0489 256.57 17.9177 256.58L17.9343 258.58C18.712 258.573 19.3097 258.763 19.7823 259.1L20.9452 257.473ZM17.9177 256.58C16.2062 256.594 14.7936 257.237 13.8329 258.567L15.454 259.738C15.9913 258.995 16.7671 258.589 17.9343 258.58L17.9177 256.58ZM13.8385 258.559C12.9194 259.806 12.5024 261.337 12.5169 263.079L14.5168 263.063C14.5051 261.654 14.8391 260.572 15.4484 259.746L13.8385 258.559ZM12.5169 263.079L12.5614 268.443L14.5613 268.426L14.5168 263.063L12.5169 263.079ZM13.5696 269.435L22.4784 269.361L22.4618 267.361L13.553 267.435L13.5696 269.435ZM39.4388 196.036L39.9258 195.162L39.9242 195.161L39.4388 196.036ZM47.5744 204.127L48.4537 203.651L48.4521 203.648L47.5744 204.127ZM47.7422 227.081L48.6252 227.551L48.6276 227.546L47.7422 227.081ZM39.719 235.285L40.216 236.152L40.2204 236.15L39.719 235.285ZM13.5608 235.502L13.0755 236.376L13.0768 236.377L13.5608 235.502ZM5.42542 227.432L6.30384 226.955L6.30307 226.953L5.42542 227.432ZM5.23499 204.479L6.12047 204.943L6.12206 204.94L5.23499 204.479ZM13.2352 196.253L13.735 197.119L13.7365 197.118L13.2352 196.253ZM19.3725 207.293L19.7338 208.226L19.7426 208.222L19.3725 207.293ZM15.0359 210.579L15.8592 211.147L15.8659 211.137L15.0359 210.579ZM15.1236 221.147L15.9414 220.572L15.9401 220.57L15.1236 221.147ZM19.5141 224.361L19.1618 225.297L19.1658 225.298L19.5141 224.361ZM33.6272 224.244L33.9885 225.176L33.9974 225.173L33.6272 224.244ZM37.9637 220.958L38.7869 221.526L38.7937 221.516L37.9637 220.958ZM37.8761 210.39L38.6938 209.814L38.6926 209.813L37.8761 210.39ZM33.4856 207.176L33.1334 208.112L33.1374 208.114L33.4856 207.176ZM26.3089 194.122C31.3631 194.08 35.5624 195.028 38.9535 196.91L39.9242 195.161C36.1609 193.072 31.6014 192.078 26.2923 192.122L26.3089 194.122ZM38.9519 196.909C42.3578 198.808 44.9302 201.372 46.6968 204.607L48.4521 203.648C46.4953 200.065 43.644 197.235 39.9258 195.162L38.9519 196.909ZM46.6951 204.604C48.4572 207.857 49.363 211.504 49.3967 215.567L51.3966 215.551C51.3604 211.19 50.3848 207.216 48.4537 203.651L46.6951 204.604ZM49.3967 215.567C49.4306 219.66 48.5781 223.336 46.8567 226.617L48.6276 227.546C50.5159 223.948 51.433 219.942 51.3966 215.551L49.3967 215.567ZM46.8591 226.612C45.1314 229.863 42.5933 232.463 39.2177 234.419L40.2204 236.15C43.902 234.017 46.7127 231.149 48.6252 227.551L46.8591 226.612ZM39.2221 234.417C35.8611 236.342 31.6918 237.351 26.6679 237.393L26.6845 239.393C31.9633 239.349 36.4892 238.287 40.216 236.152L39.2221 234.417ZM26.6679 237.393C21.6123 237.435 17.4205 236.494 14.0449 234.627L13.0768 236.377C16.8251 238.45 21.3767 239.437 26.6845 239.393L26.6679 237.393ZM14.0461 234.627C10.6247 232.728 8.05406 230.172 6.30384 226.955L4.547 227.91C6.48959 231.481 9.34255 234.304 13.0755 236.376L14.0461 234.627ZM6.30307 226.953C4.52745 223.702 3.61404 220.041 3.58008 215.947L1.58015 215.964C1.61658 220.355 2.60003 224.345 4.54777 227.912L6.30307 226.953ZM3.58008 215.947C3.54638 211.886 4.39849 208.225 6.12047 204.943L4.34951 204.014C2.46176 207.611 1.54395 211.602 1.58015 215.964L3.58008 215.947ZM6.12206 204.94C7.81887 201.68 10.3466 199.074 13.735 197.119L12.7355 195.387C9.03624 197.521 6.23052 200.399 4.34791 204.017L6.12206 204.94ZM13.7365 197.118C17.0799 195.181 21.2545 194.164 26.3089 194.122L26.2923 192.122C20.9834 192.166 16.4477 193.236 12.7339 195.388L13.7365 197.118ZM26.4001 205.121C23.5302 205.145 21.0537 205.547 19.0023 206.364L19.7426 208.222C21.4969 207.523 23.7111 207.144 26.4167 207.121L26.4001 205.121ZM19.0112 206.361C16.9373 207.164 15.3124 208.375 14.206 210.022L15.8659 211.137C16.7052 209.888 17.9714 208.909 19.7338 208.226L19.0112 206.361ZM14.2128 210.012C13.086 211.645 12.5611 213.618 12.5798 215.873L14.5797 215.856C14.5637 213.929 15.0096 212.379 15.8591 211.147L14.2128 210.012ZM12.5798 215.873C12.5985 218.127 13.1562 220.097 14.3071 221.725L15.9401 220.57C15.0672 219.335 14.5957 217.783 14.5797 215.856L12.5798 215.873ZM14.3059 221.723C15.4386 223.332 17.0803 224.513 19.1619 225.297L19.8663 223.425C18.0872 222.755 16.8019 221.794 15.9414 220.572L14.3059 221.723ZM19.1658 225.298C21.2282 226.064 23.7086 226.417 26.5766 226.393L26.56 224.393C23.8525 224.416 21.63 224.08 19.8623 223.424L19.1658 225.298ZM26.5766 226.393C29.445 226.37 31.9256 225.976 33.9885 225.176L33.2659 223.311C31.4926 223.998 29.2672 224.371 26.56 224.393L26.5766 226.393ZM33.9974 225.173C36.0504 224.355 37.668 223.148 38.7869 221.526L37.1406 220.39C36.2832 221.633 35.0097 222.616 33.257 223.315L33.9974 225.173ZM38.7937 221.516C39.8998 219.87 40.4157 217.893 40.397 215.642L38.3971 215.659C38.4131 217.589 37.9734 219.151 37.1338 220.4L38.7937 221.516ZM40.397 215.642C40.3783 213.391 39.8299 211.428 38.6938 209.814L37.0583 210.965C37.9155 212.183 38.381 213.728 38.3971 215.659L40.397 215.642ZM38.6926 209.813C37.5461 208.191 35.9056 207.008 33.8338 206.239L33.1374 208.114C34.8958 208.767 36.1822 209.727 37.0596 210.967L38.6926 209.813ZM33.8378 206.24C31.7596 205.458 29.2704 205.097 26.4001 205.121L26.4167 207.121C29.122 207.099 31.351 207.441 33.1334 208.112L33.8378 206.24ZM2.75163 159.924L1.75166 159.932L1.75996 160.932L2.75992 160.924L2.75163 159.924ZM2.64679 147.288L2.6385 146.288L1.63853 146.296L1.64683 147.296L2.64679 147.288ZM41.6893 149.51L41.1483 150.351L41.1495 150.351L41.6893 149.51ZM47.7248 156.505L48.629 156.078L48.6272 156.074L47.7248 156.505ZM47.8994 177.55L48.8089 177.966L48.8106 177.962L47.8994 177.55ZM41.9808 184.645L42.5288 185.481L42.5344 185.478L41.9808 184.645ZM2.98015 187.468L1.98019 187.477L1.98848 188.477L2.98845 188.468L2.98015 187.468ZM2.87532 174.832L2.86702 173.833L1.86705 173.841L1.87535 174.841L2.87532 174.832ZM35.4572 173.608L35.953 174.476L35.958 174.473L35.4572 173.608ZM38.0716 170.949L38.9454 171.436L38.9481 171.431L38.0716 170.949ZM38.0075 163.222L38.873 162.722L38.0075 163.222ZM35.3493 160.608L35.8357 159.734L35.8307 159.732L35.3493 160.608ZM3.75159 159.916L3.64676 147.28L1.64683 147.296L1.75166 159.932L3.75159 159.916ZM2.65509 148.288L32.4722 148.041L32.4557 146.041L2.6385 146.288L2.65509 148.288ZM32.4722 148.041C35.8519 148.013 38.7299 148.795 41.1483 150.351L42.2302 148.669C39.4389 146.873 36.1667 146.01 32.4557 146.041L32.4722 148.041ZM41.1495 150.351C43.5695 151.903 45.4618 154.087 46.8224 156.936L48.6272 156.074C47.1197 152.917 44.9883 150.437 42.229 148.668L41.1495 150.351ZM46.8206 156.932C48.1665 159.781 48.8707 163.128 48.9028 166.996L50.9027 166.979C50.8687 162.878 50.1209 159.236 48.629 156.078L46.8206 156.932ZM48.9028 166.996C48.9352 170.896 48.2863 174.268 46.9883 177.138L48.8106 177.962C50.2503 174.779 50.937 171.109 50.9027 166.979L48.9028 166.996ZM46.99 177.134C45.6768 180.006 43.8211 182.22 41.4271 183.812L42.5344 185.478C45.264 183.663 47.354 181.148 48.8088 177.966L46.99 177.134ZM41.4328 183.808C39.0394 185.376 36.1721 186.193 32.789 186.221L32.8056 188.221C36.5131 188.19 39.7682 187.29 42.5288 185.481L41.4328 183.808ZM32.789 186.221L2.97185 186.468L2.98845 188.468L32.8056 188.221L32.789 186.221ZM3.98012 187.46L3.87528 174.824L1.87535 174.841L1.98019 187.477L3.98012 187.46ZM2.88361 175.832L31.6099 175.594L31.5933 173.594L2.86702 173.833L2.88361 175.832ZM31.6099 175.594C33.2019 175.581 34.6582 175.215 35.953 174.476L34.9614 172.739C33.9941 173.291 32.88 173.584 31.5933 173.594L31.6099 175.594ZM35.958 174.473C37.2301 173.737 38.2305 172.72 38.9453 171.436L37.1978 170.463C36.6586 171.432 35.916 172.187 34.9564 172.742L35.958 174.473ZM38.9481 171.431C39.6658 170.124 40.0072 168.662 39.994 167.07L37.9941 167.086C38.0048 168.373 37.7312 169.492 37.1951 170.468L38.9481 171.431ZM39.994 167.07C39.9807 165.465 39.616 164.006 38.873 162.722L37.1419 163.723C37.6902 164.671 37.9833 165.782 37.9941 167.086L39.994 167.07ZM38.873 162.722C38.137 161.449 37.1199 160.449 35.8357 159.734L34.863 161.482C35.8317 162.021 36.5867 162.764 37.1419 163.723L38.873 162.722ZM35.8307 159.732C34.5238 159.014 33.0616 158.672 31.4696 158.686L31.4862 160.686C32.7729 160.675 33.8917 160.948 34.868 161.485L35.8307 159.732ZM31.4696 158.686L2.74333 158.924L2.75992 160.924L31.4862 160.686L31.4696 158.686ZM12.789 142.471L12.7973 143.471L13.7973 143.462L13.789 142.462L12.789 142.471ZM2.60753 142.555L1.60756 142.563L1.61586 143.563L2.61582 143.555L2.60753 142.555ZM2.27191 102.102L2.26361 101.102L1.26364 101.11L1.27194 102.11L2.27191 102.102ZM12.4534 102.018L13.4533 102.009L13.445 101.009L12.4451 101.018L12.4534 102.018ZM12.5695 116.017L11.5696 116.025L11.5779 117.025L12.5778 117.017L12.5695 116.017ZM48.9319 115.715L49.9319 115.707L49.9236 114.707L48.9236 114.715L48.9319 115.715ZM49.0352 128.17L49.0435 129.169L50.0435 129.161L50.0352 128.161L49.0352 128.17ZM12.6728 128.471L12.6646 127.471L11.6646 127.48L11.6729 128.479L12.6728 128.471ZM12.7807 141.471L2.59923 141.555L2.61582 143.555L12.7973 143.471L12.7807 141.471ZM3.60749 142.547L3.27187 102.094L1.27194 102.11L1.60756 142.563L3.60749 142.547ZM2.2802 103.102L12.4617 103.018L12.4451 101.018L2.26361 101.102L2.2802 103.102ZM11.4534 102.026L11.5696 116.025L13.5695 116.009L13.4533 102.009L11.4534 102.026ZM12.5778 117.017L48.9402 116.715L48.9236 114.715L12.5612 115.017L12.5778 117.017ZM47.9319 115.724L48.0353 128.178L50.0352 128.161L49.9319 115.707L47.9319 115.724ZM49.0269 127.17L12.6646 127.471L12.6811 129.471L49.0435 129.169L49.0269 127.17ZM11.6729 128.479L11.789 142.479L13.789 142.462L13.6728 128.463L11.6729 128.479ZM1.89815 57.0524L0.898184 57.0607L0.90648 58.0607L1.90645 58.0524L1.89815 57.0524ZM1.79331 44.4165L1.78502 43.4165L0.785053 43.4248L0.793349 44.4248L1.79331 44.4165ZM40.8358 46.6382L40.2949 47.4792L40.2961 47.48L40.8358 46.6382ZM46.8713 53.6338L47.7755 53.2066L47.7737 53.2029L46.8713 53.6338ZM47.0459 74.6785L47.9554 75.0943L47.9571 75.0906L47.0459 74.6785ZM41.1273 81.7733L41.6753 82.6098L41.681 82.606L41.1273 81.7733ZM2.12667 84.597L1.12671 84.6052L1.135 85.6052L2.13497 85.5969L2.12667 84.597ZM2.02184 71.961L2.01354 70.9611L1.01358 70.9694L1.02187 71.9693L2.02184 71.961ZM34.6037 70.7361L35.0995 71.6046L35.1045 71.6017L34.6037 70.7361ZM37.2181 68.078L38.0919 68.5643L38.0946 68.5593L37.2181 68.078ZM37.154 60.351L38.0196 59.8502L37.154 60.351ZM34.4959 57.7366L34.9822 56.8628L34.9772 56.8601L34.4959 57.7366ZM2.89811 57.0441L2.79328 44.4082L0.793349 44.4248L0.898184 57.0607L2.89811 57.0441ZM1.80161 45.4165L31.6188 45.1691L31.6022 43.1692L1.78502 43.4165L1.80161 45.4165ZM31.6188 45.1691C34.9984 45.1411 37.8764 45.9237 40.2949 47.4792L41.3768 45.7971C38.5854 44.0017 35.3132 43.1384 31.6022 43.1692L31.6188 45.1691ZM40.2961 47.48C42.7161 49.0316 44.6083 51.2151 45.9689 54.0646L47.7737 53.2029C46.2663 50.0457 44.1348 47.5655 41.3756 45.7963L40.2961 47.48ZM45.9672 54.0609C47.3131 56.9098 48.0172 60.2561 48.0493 64.1243L50.0493 64.1078C50.0152 60.0066 49.2674 56.3646 47.7755 53.2066L45.9672 54.0609ZM48.0493 64.1243C48.0817 68.0242 47.4328 71.3965 46.1348 74.2664L47.9571 75.0906C49.3968 71.9073 50.0835 68.238 50.0493 64.1078L48.0493 64.1243ZM46.1365 74.2626C44.8233 77.1344 42.9676 79.349 40.5737 80.9405L41.681 82.606C44.4105 80.7914 46.5005 78.2761 47.9554 75.0943L46.1365 74.2626ZM40.5794 80.9368C38.186 82.5046 35.3187 83.3215 31.9355 83.3496L31.9521 85.3495C35.6597 85.3188 38.9147 84.4182 41.6753 82.6098L40.5794 80.9368ZM31.9355 83.3496L2.11838 83.597L2.13497 85.5969L31.9521 85.3495L31.9355 83.3496ZM3.12664 84.5887L3.0218 71.9527L1.02187 71.9693L1.12671 84.6052L3.12664 84.5887ZM2.03014 72.961L30.7564 72.7227L30.7398 70.7227L2.01354 70.9611L2.03014 72.961ZM30.7564 72.7227C32.3484 72.7095 33.8047 72.3438 35.0995 71.6045L34.1079 69.8677C33.1406 70.4199 32.0265 70.7121 30.7398 70.7227L30.7564 72.7227ZM35.1045 71.6017C36.3767 70.8656 37.377 69.8486 38.0919 68.5643L36.3444 67.5916C35.8051 68.5603 35.0625 69.3153 34.1029 69.8706L35.1045 71.6017ZM38.0946 68.5593C38.8123 67.2524 39.1537 65.7903 39.1405 64.1983L37.1406 64.2149C37.1513 65.5015 36.8777 66.6203 36.3416 67.5966L38.0946 68.5593ZM39.1405 64.1983C39.1272 62.5933 38.7625 61.1342 38.0196 59.8502L36.2884 60.8518C36.8368 61.7995 37.1298 62.9108 37.1406 64.2149L39.1405 64.1983ZM38.0196 59.8502C37.2835 58.578 36.2664 57.5777 34.9822 56.8628L34.0095 58.6103C34.9782 59.1495 35.7332 59.8922 36.2884 60.8518L38.0196 59.8502ZM34.9772 56.8601C33.6703 56.1424 32.2082 55.8009 30.6161 55.8141L30.6327 57.8141C31.9194 57.8034 33.0382 58.077 34.0145 58.6131L34.9772 56.8601ZM30.6161 55.8141L1.88985 56.0525L1.90645 58.0524L30.6327 57.8141L30.6161 55.8141ZM16.0803 13.2003L16.1683 14.1964L17.0879 14.1152L17.0803 13.192L16.0803 13.2003ZM12.5491 14.9342L13.317 15.5749L13.3217 15.5691L12.5491 14.9342ZM11.8181 22.7133L12.753 22.3582L12.7494 22.3488L11.8181 22.7133ZM13.0832 24.521L12.4935 25.3287L12.4935 25.3287L13.0832 24.521ZM14.9064 25.1196L14.9521 24.1206L14.9362 24.1199L14.9203 24.1196L14.9064 25.1196ZM16.4266 24.8115L16.8812 25.7022L16.8993 25.6929L16.917 25.683L16.4266 24.8115ZM17.6217 23.6652L18.4434 24.235L18.4491 24.2269L18.4546 24.2186L17.6217 23.6652ZM19.3088 18.8101L18.3292 18.6087L18.3276 18.6169L19.3088 18.8101ZM20.0952 14.9852L21.0747 15.1867L21.0752 15.1843L20.0952 14.9852ZM22.1994 8.35394L23.1018 8.78474L22.1994 8.35394ZM25.321 3.82789L26.0205 4.5426L26.0249 4.53817L25.321 3.82789ZM29.345 1.22621L29.6946 2.16319L29.7029 2.16001L29.345 1.22621ZM34.2468 0.321896L34.2435 -0.678202L34.23 -0.677968L34.2468 0.321896ZM42.0383 2.55277L42.6128 1.73426L42.0383 2.55277ZM46.933 9.01239L46.0052 9.38545L46.0058 9.38716L46.933 9.01239ZM46.9684 29.7174L47.9002 30.0802L47.9009 30.0786L46.9684 29.7174ZM41.5039 36.7629L42.062 37.5927L42.0678 37.5888L41.5039 36.7629ZM31.9341 39.3424L30.9341 39.3507L30.9424 40.3546L31.9463 40.3424L31.9341 39.3424ZM31.8345 27.3428L31.7731 26.3447L30.8267 26.4029L30.8346 27.3511L31.8345 27.3428ZM35.4164 26.2449L35.972 27.0764L35.4164 26.2449ZM37.5987 23.5449L38.5192 23.9355L38.521 23.9312L37.5987 23.5449ZM37.7861 15.9976L38.722 15.6456L37.7861 15.9976ZM36.3826 13.941L36.9983 13.1531L36.3826 13.941ZM34.3539 13.2305L34.3656 12.2306L34.345 12.2304L34.3243 12.231L34.3539 13.2305ZM32.4962 13.9505L33.1299 14.7241L33.1417 14.7144L33.1532 14.7044L32.4962 13.9505ZM31.0598 16.1443L31.9808 16.5339L31.9856 16.5222L31.0598 16.1443ZM29.8667 20.268L28.8881 20.0619L28.8874 20.0653L29.8667 20.268ZM28.9052 24.9125L29.8842 25.1164L29.8844 25.1152L28.9052 24.9125ZM24.5089 34.6993L25.2611 35.3584L25.2655 35.3533L24.5089 34.6993ZM15.9248 38.2934L15.9207 37.2934L15.9114 37.2935L15.9248 38.2934ZM8.15548 35.9941L7.57734 36.8101L7.57837 36.8108L8.15548 35.9941ZM2.89587 29.3784L1.98261 29.7858L1.98341 29.7876L2.89587 29.3784ZM2.75644 9.83348L3.66885 10.2427L2.75644 9.83348ZM8.02183 3.44866L8.57319 4.28295L8.57958 4.27866L8.02183 3.44866ZM15.98 1.10982L16.9799 1.10153L16.9716 0.0965859L15.9667 0.109928L15.98 1.10982ZM15.9923 12.2042C14.2541 12.3578 12.8128 13.0384 11.7765 14.2993L13.3217 15.5691C13.9655 14.7857 14.8783 14.3104 16.1683 14.1964L15.9923 12.2042ZM11.7812 14.2936C10.7244 15.5603 10.2965 17.3648 10.3143 19.5211L12.3143 19.5045C12.2982 17.5701 12.6935 16.3222 13.3169 15.5749L11.7812 14.2936ZM10.3143 19.5211C10.3257 20.8948 10.5019 22.094 10.8869 23.0777L12.7494 22.3488C12.4842 21.6712 12.3245 20.7367 12.3143 19.5045L10.3143 19.5211ZM10.8833 23.0684C11.2403 24.0081 11.7606 24.7936 12.4935 25.3287L13.6728 23.7134C13.3386 23.4694 13.0156 23.0497 12.753 22.3582L10.8833 23.0684ZM12.4935 25.3287C13.2001 25.8446 14.0105 26.1072 14.8925 26.1195L14.9203 24.1196C14.4384 24.1129 14.0333 23.9766 13.6728 23.7134L12.4935 25.3287ZM14.8607 26.1185C15.5763 26.1512 16.2583 26.0201 16.8812 25.7022L15.972 23.9208C15.6897 24.0649 15.3582 24.1392 14.9521 24.1206L14.8607 26.1185ZM16.917 25.683C17.5156 25.3462 18.0194 24.8465 18.4434 24.235L16.8 23.0953C16.5053 23.5201 16.2124 23.7846 15.9363 23.94L16.917 25.683ZM18.4546 24.2186C18.8586 23.6105 19.2046 22.867 19.5039 22.0097L17.6157 21.3504C17.3526 22.1038 17.0732 22.6837 16.7888 23.1117L18.4546 24.2186ZM19.5039 22.0097C19.8047 21.1481 20.0654 20.1436 20.2899 19.0032L18.3276 18.6169C18.1159 19.6924 17.8773 20.6012 17.6157 21.3504L19.5039 22.0097ZM20.2883 19.0115L21.0747 15.1867L19.1157 14.7838L18.3292 18.6087L20.2883 19.0115ZM21.0752 15.1843C21.5875 12.6624 22.2668 10.5339 23.1018 8.78474L21.2969 7.92312C20.3745 9.85534 19.6511 12.1478 19.1152 14.7862L21.0752 15.1843ZM23.1018 8.78474C23.9404 7.02808 24.9175 5.62192 26.0205 4.5426L24.6216 3.11318C23.3197 4.38721 22.2157 5.99841 21.2969 7.92312L23.1018 8.78474ZM26.0249 4.53817C27.1163 3.4566 28.3383 2.66912 29.6946 2.16316L28.9955 0.289289C27.361 0.899093 25.9002 1.84603 24.6171 3.11758L26.0249 4.53817ZM29.7029 2.16001C31.0782 1.63296 32.5953 1.34985 34.2636 1.32176L34.23 -0.677968C32.3532 -0.646345 30.6025 -0.326572 28.9872 0.292441L29.7029 2.16001ZM34.2501 1.32187C37.141 1.3122 39.5273 2.01219 41.4638 3.37132L42.6128 1.73426C40.2819 0.0983579 37.4738 -0.688919 34.2435 -0.678111L34.2501 1.32187ZM41.4638 3.37132C43.4149 4.74062 44.936 6.72648 46.0052 9.38545L47.8608 8.63935C46.6711 5.68052 44.9291 3.35996 42.6128 1.73426L41.4638 3.37132ZM46.0058 9.38716C47.076 12.0347 47.644 15.2699 47.6759 19.1202L49.6759 19.1036C49.6425 15.0754 49.0485 11.5776 47.8601 8.63765L46.0058 9.38716ZM47.6759 19.1202C47.7087 23.0693 47.1524 26.4741 46.0359 29.3561L47.9009 30.0786C49.1281 26.9107 49.7102 23.2452 49.6759 19.1036L47.6759 19.1202ZM46.0365 29.3545C44.9316 32.1921 43.231 34.3727 40.94 35.9371L42.0678 37.5888C44.7187 35.7787 46.6611 33.2622 47.9002 30.0802L46.0365 29.3545ZM40.9458 35.9332C38.6631 37.4685 35.6785 38.2967 31.9219 38.3425L31.9463 40.3424C35.977 40.2932 39.3723 39.4018 42.062 37.5927L40.9458 35.9332ZM32.934 39.3341L32.8345 27.3345L30.8346 27.3511L30.9341 39.3507L32.934 39.3341ZM31.8959 28.341C33.4557 28.245 34.8303 27.8393 35.972 27.0764L34.8609 25.4134C34.0739 25.9393 33.0604 26.2655 31.7731 26.3447L31.8959 28.341ZM35.972 27.0764C37.1118 26.3148 37.9592 25.2551 38.5192 23.9355L36.6781 23.1542C36.2573 24.1459 35.6499 24.8862 34.8609 25.4134L35.972 27.0764ZM38.521 23.9312C39.0756 22.6071 39.3283 21.0782 39.3141 19.3714L37.3142 19.388C37.3267 20.8932 37.1024 22.1412 36.6763 23.1586L38.521 23.9312ZM39.3141 19.3714C39.3023 17.9482 39.117 16.6957 38.722 15.6456L36.8501 16.3496C37.1368 17.1121 37.3036 18.1143 37.3142 19.388L39.3141 19.3714ZM38.722 15.6456C38.3345 14.6152 37.7735 13.7588 36.9983 13.1531L35.7669 14.729C36.1813 15.0528 36.5559 15.5675 36.8501 16.3496L38.722 15.6456ZM36.9983 13.1531C36.2301 12.5528 35.3415 12.242 34.3656 12.2306L34.3422 14.2305C34.8816 14.2368 35.3455 14.3997 35.7669 14.729L36.9983 13.1531ZM34.3243 12.231C33.386 12.2587 32.5438 12.5824 31.8391 13.1967L33.1532 14.7044C33.5016 14.4007 33.8978 14.2445 34.3835 14.2301L34.3243 12.231ZM31.8624 13.177C31.1386 13.77 30.5802 14.6732 30.1339 15.7664L31.9856 16.5222C32.371 15.5782 32.7701 15.0189 33.1299 14.7241L31.8624 13.177ZM30.1388 15.7547C29.6725 16.857 29.259 18.3012 28.8881 20.0619L30.8452 20.4741C31.2033 18.7741 31.5851 17.4692 31.9808 16.5339L30.1388 15.7547ZM28.8874 20.0653L27.9259 24.7098L29.8844 25.1152L30.8459 20.4707L28.8874 20.0653ZM27.9262 24.7086C27.09 28.7239 25.6814 31.8137 23.7524 34.0454L25.2655 35.3533C27.4786 32.7929 29.0009 29.3581 29.8842 25.1164L27.9262 24.7086ZM23.7568 34.0403C21.8884 36.1726 19.3176 37.2794 15.9207 37.2934L15.929 39.2934C19.8048 39.2774 22.9567 37.9881 25.261 35.3583L23.7568 34.0403ZM15.9114 37.2935C13.1495 37.3306 10.7705 36.6176 8.73259 35.1775L7.57837 36.8108C9.99091 38.5157 12.7915 39.3355 15.9382 39.2933L15.9114 37.2935ZM8.73362 35.1782C6.65665 33.7065 5.01057 31.6503 3.80832 28.9693L1.98341 29.7876C3.31293 32.7525 5.17326 35.1067 7.57734 36.8101L8.73362 35.1782ZM3.80912 28.9711C2.60853 26.2796 1.9806 23.1596 1.95099 19.5905L-0.0489379 19.6071C-0.0174591 23.4013 0.651173 26.8011 1.98261 29.7858L3.80912 28.9711ZM1.95099 19.5905C1.92073 15.9426 2.50555 12.8361 3.66885 10.2427L1.84403 9.42419C0.537761 12.3363 -0.0810203 15.7401 -0.0489379 19.6071L1.95099 19.5905ZM3.66885 10.2427C4.83454 7.64401 6.47244 5.67122 8.57318 4.28292L7.47049 2.61437C5.02026 4.23363 3.1479 6.5174 1.84403 9.42419L3.66885 10.2427ZM8.57958 4.27866C10.66 2.8807 13.1184 2.14788 15.9932 2.10975L15.9667 0.109928C12.7511 0.152598 9.9041 0.979011 7.46409 2.61863L8.57958 4.27866ZM14.98 1.11812L15.0803 13.2086L17.0803 13.192L16.9799 1.10153L14.98 1.11812Z" fill="#05C2DF" fill-opacity="0.5" mask="url(#path-1-outside-1_3495_4398)"/>
</svg>
