<svg width="51" height="335" viewBox="0 0 51 335" fill="none" xmlns="http://www.w3.org/2000/svg">
<mask id="path-1-outside-1_3495_4397" maskUnits="userSpaceOnUse" x="-0.997696" y="-0.867289" width="53.7858" height="336.412" fill="black">
<rect fill="white" x="-0.997696" y="-0.867289" width="53.7858" height="336.412"/>
<path d="M1.12743 14.6296L1.0143 0.993727L47.6856 15.9707L47.8289 33.2428L1.41253 48.9921L1.2994 35.3562L34.941 24.8949L34.938 24.5313L1.12743 14.6296ZM19.4693 11.9319L19.682 37.5674L10.2278 37.6458L10.0151 12.0103L19.4693 11.9319ZM1.44972 53.4749L47.9936 53.0887L48.161 73.2698C48.1904 76.8152 47.7379 79.7963 46.8033 82.2132C45.8689 84.6453 44.5357 86.4822 42.8035 87.7239C41.0714 88.9807 39.0236 89.6189 36.6601 89.6386C34.948 89.6528 33.3843 89.2869 31.969 88.5411C30.5538 87.8104 29.3633 86.7747 28.3976 85.4342C27.4471 84.0936 26.7825 82.5233 26.4039 80.7233L25.9494 80.7271C25.8902 82.7277 25.3977 84.55 24.472 86.1941C23.5613 87.8381 22.2919 89.1517 20.6636 90.1349C19.0505 91.118 17.1455 91.6187 14.9486 91.6369C12.4032 91.658 10.1326 91.0102 8.13679 89.6934C6.14108 88.3917 4.56494 86.5259 3.40838 84.096C2.25181 81.6662 1.65952 78.7619 1.63148 75.3832L1.44972 53.4749ZM11.6451 66.0271L11.6941 71.936C11.7117 74.0571 12.1189 75.6447 12.9155 76.6987C13.7273 77.7526 14.9135 78.2731 16.474 78.2602C17.5649 78.2511 18.4871 77.9935 19.2405 77.4872C19.9939 76.9809 20.5637 76.2641 20.9499 75.3366C21.3363 74.4242 21.5242 73.3242 21.5135 72.0363L21.463 65.9456L11.6451 66.0271ZM29.2809 65.8808L29.3239 71.0624C29.333 72.1684 29.5154 73.1442 29.8709 73.9898C30.2264 74.8354 30.7319 75.4903 31.3872 75.9546C32.0579 76.4339 32.8705 76.6695 33.825 76.6616C35.2644 76.6497 36.3585 76.1254 37.1075 75.0889C37.8717 74.0522 38.2472 72.746 38.2342 71.1703L38.1897 65.8069L29.2809 65.8808ZM25.4504 141.12C20.2688 141.163 15.8893 140.191 12.3121 138.206C8.75009 136.22 6.03823 133.523 4.17655 130.114C2.33002 126.705 1.38928 122.894 1.35434 118.682C1.31914 114.44 2.20397 110.599 4.00883 107.16C5.82897 103.736 8.50335 101.001 12.032 98.9568C15.5759 96.9274 19.9235 95.8913 25.0748 95.8485C30.2564 95.8055 34.6282 96.7693 38.1902 98.7398C41.7674 100.725 44.4792 103.415 46.3256 106.809C48.1872 110.218 49.1357 114.043 49.1709 118.286C49.2058 122.498 48.3209 126.323 46.516 129.763C44.7263 133.202 42.0596 135.944 38.5158 137.988C34.9872 140.033 30.632 141.077 25.4504 141.12ZM25.3426 128.12C28.1303 128.097 30.4757 127.706 32.3785 126.948C34.2967 126.205 35.7422 125.11 36.7151 123.662C37.7032 122.23 38.1886 120.468 38.1713 118.377C38.1539 116.286 37.6393 114.525 36.6274 113.094C35.6307 111.678 34.1673 110.607 32.2369 109.88C30.3219 109.169 27.9704 108.825 25.1827 108.848C22.3949 108.871 20.0419 109.254 18.1238 109.998C16.2209 110.756 14.7754 111.851 13.7872 113.284C12.8144 114.731 12.3366 116.5 12.354 118.591C12.3713 120.682 12.8783 122.435 13.8749 123.851C14.8868 125.283 16.3503 126.354 18.2654 127.065C20.1957 127.792 22.5548 128.143 25.3426 128.12ZM48.9994 174.318L49.1042 186.953L19.287 187.201C15.7417 187.23 12.6666 186.407 10.0617 184.732C7.47207 183.071 5.46023 180.74 4.02618 177.736C2.60727 174.733 1.88129 171.239 1.84823 167.254C1.81492 163.239 2.4827 159.718 3.85158 156.691C5.2356 153.665 7.20848 151.3 9.77019 149.597C12.3472 147.909 15.4083 147.05 18.9537 147.02L48.7708 146.773L48.8757 159.409L20.1494 159.647C18.71 159.659 17.4248 159.988 16.2938 160.634C15.1779 161.279 14.3064 162.166 13.6794 163.292C13.0525 164.434 12.745 165.724 12.7569 167.163C12.769 168.618 13.0979 169.903 13.7435 171.019C14.3892 172.135 15.2752 173.006 16.4017 173.633C17.5433 174.26 18.8337 174.568 20.2731 174.556L48.9994 174.318ZM38.962 191.771L49.1435 191.686L49.4791 232.139L39.2976 232.224L39.1815 218.224L2.81909 218.526L2.71576 206.072L39.0781 205.77L38.962 191.771ZM49.8529 277.189L49.9577 289.825L20.1405 290.072C16.5952 290.102 13.5201 289.279 10.9152 287.603C8.32556 285.943 6.31372 283.611 4.87966 280.608C3.46076 277.604 2.73477 274.11 2.70172 270.125C2.6684 266.11 3.33619 262.59 4.70506 259.563C6.08909 256.536 8.06196 254.171 10.6237 252.468C13.2007 250.78 16.2618 249.921 19.8072 249.892L49.6243 249.644L49.7292 262.28L21.0029 262.519C19.5635 262.531 18.2783 262.86 17.1473 263.505C16.0314 264.151 15.1599 265.037 14.5329 266.163C13.906 267.305 13.5985 268.596 13.6104 270.035C13.6225 271.489 13.9514 272.775 14.597 273.89C15.2426 275.006 16.1287 275.878 17.2551 276.505C18.3967 277.132 19.6872 277.439 21.1266 277.427L49.8529 277.189ZM35.6707 321.041C37.1848 320.907 38.3619 320.329 39.2019 319.307C40.0421 318.3 40.4537 316.774 40.4367 314.729C40.4259 313.426 40.2579 312.359 39.9329 311.528C39.623 310.712 39.2014 310.11 38.6678 309.72C38.1343 309.331 37.5265 309.131 36.8446 309.122C36.2838 309.096 35.777 309.199 35.3244 309.43C34.887 309.676 34.4887 310.058 34.1293 310.576C33.7851 311.094 33.4724 311.756 33.1912 312.561C32.91 313.367 32.6603 314.323 32.4422 315.431L31.6558 319.256C31.1317 321.836 30.4303 324.047 29.5516 325.887C28.6729 327.728 27.6324 329.237 26.43 330.414C25.2427 331.59 23.9014 332.457 22.406 333.015C20.9107 333.588 19.2768 333.89 17.5042 333.92C14.4436 333.93 11.8464 333.186 9.71271 331.689C7.579 330.191 5.94744 328.038 4.81804 325.229C3.68876 322.435 3.10778 319.069 3.0751 315.129C3.04154 311.084 3.61071 307.549 4.78262 304.524C5.95466 301.514 7.77615 299.166 10.2471 297.478C12.7333 295.806 15.9232 294.946 19.8169 294.899L19.9165 306.899C18.4929 306.986 17.2989 307.352 16.3346 307.997C15.3702 308.641 14.6428 309.541 14.1523 310.697C13.662 311.867 13.4235 313.256 13.4369 314.862C13.4481 316.21 13.6241 317.338 13.9649 318.244C14.3058 319.15 14.7736 319.836 15.3684 320.3C15.9632 320.765 16.6394 321.002 17.3971 321.011C18.1091 320.99 18.7283 320.75 19.2548 320.291C19.7966 319.847 20.2754 319.116 20.6912 318.097C21.1222 317.078 21.5199 315.704 21.8843 313.973L22.8458 309.329C23.7056 305.2 25.171 301.938 27.2421 299.542C29.3284 297.161 32.1898 295.963 35.8262 295.948C38.7805 295.908 41.3703 296.675 43.5955 298.247C45.836 299.835 47.5893 302.04 48.8551 304.863C50.1212 307.701 50.7694 310.961 50.8 314.643C50.8312 318.4 50.2293 321.655 48.9946 324.408C47.7598 327.161 46.0047 329.289 43.7292 330.793C41.469 332.312 38.8163 333.091 35.771 333.132L35.6707 321.041Z"/>
</mask>
<path d="M1.12743 14.6296L0.127469 14.6379L0.133631 15.3806L0.846386 15.5893L1.12743 14.6296ZM1.0143 0.993727L1.31986 0.0415529L0.00286222 -0.381075L0.0143373 1.00202L1.0143 0.993727ZM47.6856 15.9707L48.6856 15.9624L48.6796 15.2394L47.9912 15.0185L47.6856 15.9707ZM47.8289 33.2428L48.1502 34.1898L48.8349 33.9575L48.8289 33.2345L47.8289 33.2428ZM1.41253 48.9921L0.412562 49.0004L0.424037 50.3835L1.73384 49.9391L1.41253 48.9921ZM1.2994 35.3562L1.00246 34.4013L0.293268 34.6218L0.29943 35.3645L1.2994 35.3562ZM34.941 24.8949L35.238 25.8498L35.9472 25.6293L35.941 24.8866L34.941 24.8949ZM34.938 24.5313L35.938 24.523L35.9318 23.7803L35.2191 23.5716L34.938 24.5313ZM19.4693 11.9319L20.4693 11.9236L20.461 10.9236L19.461 10.9319L19.4693 11.9319ZM19.682 37.5674L19.6903 38.5674L20.6903 38.5591L20.682 37.5591L19.682 37.5674ZM10.2278 37.6458L9.22782 37.6541L9.23612 38.6541L10.2361 38.6458L10.2278 37.6458ZM10.0151 12.0103L10.0068 11.0104L9.00684 11.0187L9.01514 12.0186L10.0151 12.0103ZM2.1274 14.6213L2.01427 0.985431L0.0143373 1.00202L0.127469 14.6379L2.1274 14.6213ZM0.708746 1.9459L47.3801 16.9229L47.9912 15.0185L1.31986 0.0415529L0.708746 1.9459ZM46.6857 15.979L46.829 33.2511L48.8289 33.2345L48.6856 15.9624L46.6857 15.979ZM47.5076 32.2958L1.09121 48.0451L1.73384 49.9391L48.1502 34.1898L47.5076 32.2958ZM2.41249 48.9838L2.29936 35.3479L0.29943 35.3645L0.412562 49.0004L2.41249 48.9838ZM1.59633 36.3111L35.238 25.8498L34.6441 23.94L1.00246 34.4013L1.59633 36.3111ZM35.941 24.8866L35.938 24.523L33.9381 24.5396L33.9411 24.9032L35.941 24.8866ZM35.2191 23.5716L1.40848 13.6699L0.846386 15.5893L34.657 25.491L35.2191 23.5716ZM18.4694 11.9402L18.682 37.5757L20.682 37.5591L20.4693 11.9236L18.4694 11.9402ZM19.6737 36.5674L10.2195 36.6459L10.2361 38.6458L19.6903 38.5674L19.6737 36.5674ZM11.2278 37.6375L11.0151 12.002L9.01514 12.0186L9.22782 37.6541L11.2278 37.6375ZM10.0234 13.0103L19.4776 12.9319L19.461 10.9319L10.0068 11.0104L10.0234 13.0103ZM1.44972 53.4749L1.44142 52.4749L0.441458 52.4832L0.449754 53.4832L1.44972 53.4749ZM47.9936 53.0887L48.9935 53.0804L48.9852 52.0805L47.9853 52.0888L47.9936 53.0887ZM46.8033 82.2132L45.8706 81.8526L45.8699 81.8546L46.8033 82.2132ZM42.8035 87.7239L42.2209 86.9111L42.2162 86.9145L42.8035 87.7239ZM31.969 88.5411L32.4352 87.6564L32.4277 87.6525L31.969 88.5411ZM28.3976 85.4342L27.5818 86.0126L27.5862 86.0187L28.3976 85.4342ZM26.4039 80.7233L27.3825 80.5175L27.214 79.7166L26.3956 79.7234L26.4039 80.7233ZM25.9494 80.7271L25.9411 79.7271L24.9783 79.7351L24.9498 80.6975L25.9494 80.7271ZM24.472 86.1941L23.6006 85.7034L23.5972 85.7095L24.472 86.1941ZM20.6636 90.1349L20.1467 89.2789L20.1432 89.281L20.6636 90.1349ZM8.13679 89.6934L8.68752 88.8587L8.6831 88.8558L8.13679 89.6934ZM3.40837 84.096L4.31131 83.6663L3.40837 84.096ZM11.6451 66.0271L11.6368 65.0271L10.6369 65.0354L10.6452 66.0354L11.6451 66.0271ZM12.9155 76.6987L12.1177 77.3017L12.1233 77.309L12.9155 76.6987ZM20.9499 75.3366L20.0291 74.9466L20.0268 74.9521L20.9499 75.3366ZM21.463 65.9456L22.4629 65.9373L22.4546 64.9374L21.4547 64.9457L21.463 65.9456ZM29.2809 65.8808L29.2726 64.8808L28.2726 64.8891L28.2809 65.8891L29.2809 65.8808ZM29.8709 73.9898L28.9491 74.3774L29.8709 73.9898ZM31.3872 75.9546L31.9687 75.141L31.9653 75.1386L31.3872 75.9546ZM37.1075 75.0889L36.3026 74.4955L36.297 74.5032L37.1075 75.0889ZM38.1897 65.8069L39.1896 65.7986L39.1813 64.7986L38.1814 64.8069L38.1897 65.8069ZM1.45802 54.4748L48.0019 54.0887L47.9853 52.0888L1.44142 52.4749L1.45802 54.4748ZM46.9936 53.097L47.161 73.2781L49.161 73.2615L48.9935 53.0804L46.9936 53.097ZM47.161 73.2781C47.1898 76.7407 46.7463 79.5879 45.8706 81.8526L47.736 82.5739C48.7295 80.0047 49.1911 76.8896 49.161 73.2615L47.161 73.2781ZM45.8699 81.8546C44.9898 84.1452 43.762 85.8064 42.2209 86.9111L43.3861 88.5366C45.3093 87.158 46.748 85.1455 47.7368 82.5719L45.8699 81.8546ZM42.2162 86.9145C40.6701 88.0364 38.83 88.6205 36.6518 88.6386L36.6683 90.6385C39.2172 90.6174 41.4727 89.9251 43.3908 88.5332L42.2162 86.9145ZM36.6518 88.6386C35.093 88.6515 33.6941 88.3198 32.4352 87.6564L31.5028 89.4257C33.0745 90.254 34.803 90.654 36.6683 90.6385L36.6518 88.6386ZM32.4277 87.6525C31.1577 86.9967 30.0863 86.0675 29.209 84.8497L27.5862 86.0187C28.6404 87.482 29.9499 88.624 31.5102 89.4296L32.4277 87.6525ZM29.2134 84.8558C28.351 83.6395 27.7363 82.1994 27.3825 80.5175L25.4253 80.9292C25.8287 82.8471 26.5431 84.5476 27.5819 86.0126L29.2134 84.8558ZM26.3956 79.7234L25.9411 79.7271L25.9577 81.7271L26.4122 81.7233L26.3956 79.7234ZM24.9498 80.6975C24.8951 82.5464 24.4421 84.209 23.6006 85.7034L25.3433 86.6848C26.3534 84.891 26.8853 82.9089 26.9489 80.7567L24.9498 80.6975ZM23.5972 85.7095C22.7724 87.1986 21.6271 88.3849 20.1467 89.2789L21.1805 90.9909C22.9566 89.9185 24.3503 88.4775 25.3467 86.6786L23.5972 85.7095ZM20.1432 89.281C18.7081 90.1556 16.9863 90.62 14.9403 90.637L14.9569 92.6369C17.3047 92.6174 19.3929 92.0804 21.184 90.9888L20.1432 89.281ZM14.9403 90.637C12.5801 90.6565 10.5067 90.0589 8.68751 88.8587L7.58608 90.5281C9.75862 91.9615 12.2264 92.6595 14.9569 92.6369L14.9403 90.637ZM8.6831 88.8558C6.86076 87.6672 5.39927 85.952 4.31131 83.6663L2.50544 84.5258C3.7306 87.0998 5.4214 89.1162 7.59049 90.531L8.6831 88.8558ZM4.31131 83.6663C3.23134 81.3973 2.65857 78.6439 2.63145 75.3749L0.631519 75.3915C0.660461 78.8799 1.27228 81.935 2.50544 84.5258L4.31131 83.6663ZM2.63145 75.3749L2.44969 53.4666L0.449754 53.4832L0.631519 75.3915L2.63145 75.3749ZM10.6452 66.0354L10.6942 71.9443L12.6941 71.9277L12.6451 66.0188L10.6452 66.0354ZM10.6942 71.9443C10.7126 74.1601 11.1342 76.0004 12.1177 77.3017L13.7133 76.0958C13.1035 75.289 12.7109 73.9542 12.6941 71.9277L10.6942 71.9443ZM12.1233 77.309C13.1607 78.6558 14.6699 79.2752 16.4823 79.2601L16.4658 77.2602C15.1571 77.2711 14.2939 76.8495 13.7077 76.0885L12.1233 77.309ZM16.4823 79.2601C17.729 79.2498 18.8519 78.9531 19.7982 78.3172L18.6827 76.6572C18.1222 77.0338 17.4008 77.2524 16.4658 77.2602L16.4823 79.2601ZM19.7982 78.3172C20.7317 77.6899 21.4198 76.8096 21.8731 75.721L20.0268 74.9521C19.7076 75.7186 19.256 76.2719 18.6827 76.6572L19.7982 78.3172ZM21.8708 75.7266C22.3239 74.6566 22.525 73.4134 22.5135 72.028L20.5135 72.0446C20.5234 73.2349 20.3487 74.1919 20.0291 74.9466L21.8708 75.7266ZM22.5135 72.028L22.4629 65.9373L20.463 65.9539L20.5135 72.0446L22.5135 72.028ZM21.4547 64.9457L11.6368 65.0271L11.6534 67.0271L21.4713 66.9456L21.4547 64.9457ZM28.2809 65.8891L28.3239 71.0707L30.3238 71.0541L30.2808 65.8725L28.2809 65.8891ZM28.3239 71.0707C28.3339 72.2808 28.5338 73.3897 28.9491 74.3774L30.7927 73.6022C30.497 72.8988 30.3321 72.056 30.3238 71.0541L28.3239 71.0707ZM28.9491 74.3774C29.3664 75.37 29.9808 76.1837 30.8092 76.7706L31.9653 75.1386C31.483 74.7969 31.0864 74.3007 30.7927 73.6022L28.9491 74.3774ZM30.8058 76.7681C31.6746 77.389 32.7021 77.671 33.8333 77.6616L33.8167 75.6617C33.039 75.6681 32.4413 75.4787 31.9687 75.141L30.8058 76.7681ZM33.8333 77.6616C35.5448 77.6474 36.9574 77.0041 37.9181 75.6746L36.297 74.5032C35.7597 75.2468 34.9839 75.652 33.8167 75.6617L33.8333 77.6616ZM37.9125 75.6822C38.8315 74.4354 39.2486 72.9046 39.2341 71.162L37.2342 71.1786C37.2459 72.5874 36.9118 73.669 36.3026 74.4955L37.9125 75.6822ZM39.2341 71.162L39.1896 65.7986L37.1897 65.8152L37.2342 71.1786L39.2341 71.162ZM38.1814 64.8069L29.2726 64.8808L29.2892 66.8807L38.198 66.8068L38.1814 64.8069ZM12.3121 138.206L11.8252 139.079L11.8268 139.08L12.3121 138.206ZM4.17655 130.114L3.29725 130.59L3.2989 130.593L4.17655 130.114ZM4.00883 107.16L3.12581 106.691L3.12335 106.695L4.00883 107.16ZM12.032 98.9568L11.535 98.089L11.5306 98.0916L12.032 98.9568ZM38.1902 98.7398L38.6755 97.8655L38.6742 97.8648L38.1902 98.7398ZM46.3256 106.809L45.4471 107.287L45.4479 107.288L46.3256 106.809ZM46.516 129.763L45.6305 129.298L45.6289 129.301L46.516 129.763ZM38.5158 137.988L38.016 137.122L38.0145 137.123L38.5158 137.988ZM32.3785 126.948L32.0172 126.016L32.0084 126.019L32.3785 126.948ZM36.7151 123.662L35.8918 123.094L35.8851 123.104L36.7151 123.662ZM36.6274 113.094L35.8096 113.67L35.8109 113.672L36.6274 113.094ZM32.2369 109.88L32.5891 108.945L32.5852 108.943L32.2369 109.88ZM18.1238 109.998L17.7625 109.065L17.7536 109.069L18.1238 109.998ZM13.7872 113.284L12.964 112.716L12.9573 112.726L13.7872 113.284ZM13.8749 123.851L13.0572 124.427L13.0584 124.429L13.8749 123.851ZM18.2654 127.065L18.6176 126.129L18.6136 126.128L18.2654 127.065ZM25.4421 140.12C20.3879 140.162 16.1886 139.214 12.7975 137.332L11.8268 139.08C15.5901 141.169 20.1496 142.164 25.4587 142.12L25.4421 140.12ZM12.7991 137.332C9.39319 135.434 6.8208 132.87 5.0542 129.635L3.2989 130.593C5.25565 134.176 8.10699 137.007 11.8252 139.079L12.7991 137.332ZM5.05584 129.638C3.29381 126.385 2.38801 122.737 2.35431 118.674L0.354375 118.691C0.390557 123.052 1.36624 127.025 3.29725 130.59L5.05584 129.638ZM2.35431 118.674C2.32035 114.581 3.17289 110.905 4.89432 107.625L3.12335 106.695C1.23506 110.294 0.317941 114.299 0.354375 118.691L2.35431 118.674ZM4.89185 107.629C6.61964 104.379 9.15767 101.778 12.5333 99.8221L11.5306 98.0916C7.84903 100.225 5.03831 103.093 3.12582 106.691L4.89185 107.629ZM12.5289 99.8246C15.8899 97.8999 20.0592 96.8902 25.0831 96.8485L25.0665 94.8486C19.7877 94.8923 15.2618 95.9548 11.535 98.0891L12.5289 99.8246ZM25.0831 96.8485C30.1387 96.8065 34.3305 97.7474 37.7061 99.6148L38.6742 97.8648C34.9259 95.7912 30.3742 94.8045 25.0665 94.8486L25.0831 96.8485ZM37.7048 99.6141C41.1263 101.513 43.6969 104.07 45.4471 107.287L47.204 106.331C45.2614 102.76 42.4084 99.9375 38.6755 97.8655L37.7048 99.6141ZM45.4479 107.288C47.2235 110.54 48.137 114.201 48.1709 118.294L50.1708 118.277C50.1344 113.886 49.151 109.896 47.2032 106.33L45.4479 107.288ZM48.1709 118.294C48.2046 122.356 47.3525 126.017 45.6305 129.298L47.4015 130.227C49.2892 126.63 50.207 122.64 50.1708 118.277L48.1709 118.294ZM45.6289 129.301C43.9321 132.562 41.4044 135.167 38.016 137.122L39.0155 138.855C42.7147 136.72 45.5205 133.842 47.4031 130.224L45.6289 129.301ZM38.0145 137.123C34.6711 139.06 30.4965 140.078 25.4421 140.12L25.4587 142.12C30.7676 142.076 35.3033 141.006 39.0171 138.854L38.0145 137.123ZM25.3508 129.12C28.2207 129.096 30.6973 128.694 32.7487 127.877L32.0084 126.019C30.254 126.718 28.0399 127.098 25.3343 127.12L25.3508 129.12ZM32.7398 127.881C34.8137 127.077 36.4386 125.866 37.545 124.22L35.8851 123.104C35.0458 124.353 33.7796 125.333 32.0172 126.016L32.7398 127.881ZM37.5382 124.23C38.665 122.596 39.1899 120.623 39.1712 118.369L37.1713 118.385C37.1873 120.313 36.7414 121.863 35.8919 123.094L37.5382 124.23ZM39.1712 118.369C39.1525 116.114 38.5948 114.144 37.4439 112.517L35.8109 113.672C36.6838 114.906 37.1553 116.458 37.1713 118.385L39.1712 118.369ZM37.4451 112.519C36.3124 110.909 34.6707 109.728 32.5891 108.945L31.8847 110.816C33.6638 111.486 34.9491 112.447 35.8096 113.67L37.4451 112.519ZM32.5852 108.943C30.5228 108.177 28.0424 107.824 25.1744 107.848L25.191 109.848C27.8985 109.826 30.121 110.161 31.8887 110.818L32.5852 108.943ZM25.1744 107.848C22.3059 107.872 19.8254 108.266 17.7625 109.065L18.4851 110.93C20.2584 110.243 22.4838 109.87 25.191 109.848L25.1744 107.848ZM17.7536 109.069C15.7006 109.887 14.083 111.094 12.9641 112.716L14.6104 113.851C15.4678 112.609 16.7413 111.625 18.4939 110.927L17.7536 109.069ZM12.9573 112.726C11.8512 114.372 11.3353 116.348 11.354 118.599L13.3539 118.583C13.3379 116.653 13.7775 115.091 14.6172 113.841L12.9573 112.726ZM11.354 118.599C11.3727 120.851 11.9211 122.813 13.0572 124.427L14.6927 123.276C13.8355 122.058 13.3699 120.513 13.3539 118.583L11.354 118.599ZM13.0584 124.429C14.2049 126.05 15.8454 127.233 17.9171 128.003L18.6136 126.128C16.8552 125.475 15.5687 124.515 14.6914 123.274L13.0584 124.429ZM17.9132 128.001C19.9914 128.783 22.4806 129.144 25.3508 129.12L25.3343 127.12C22.629 127.143 20.4 126.8 18.6176 126.129L17.9132 128.001ZM48.9994 174.318L49.9993 174.309L49.991 173.309L48.9911 173.318L48.9994 174.318ZM49.1042 186.953L49.1125 187.953L50.1125 187.945L50.1042 186.945L49.1042 186.953ZM10.0617 184.732L10.6026 183.891L10.6014 183.89L10.0617 184.732ZM4.02618 177.736L3.12199 178.163L3.12377 178.167L4.02618 177.736ZM3.85158 156.691L2.94214 156.276L2.94044 156.279L3.85158 156.691ZM9.77019 149.597L9.22222 148.76L9.21655 148.764L9.77019 149.597ZM48.7708 146.773L49.7708 146.765L49.7625 145.765L48.7625 145.773L48.7708 146.773ZM48.8757 159.409L48.884 160.409L49.8839 160.401L49.8756 159.401L48.8757 159.409ZM16.2938 160.634L15.798 159.765L15.793 159.768L16.2938 160.634ZM13.6794 163.292L12.8056 162.806L12.8029 162.811L13.6794 163.292ZM13.7435 171.019L12.878 171.52L13.7435 171.019ZM16.4017 173.633L15.9153 174.507L15.9203 174.51L16.4017 173.633ZM47.9994 174.326L48.1042 186.962L50.1042 186.945L49.9993 174.309L47.9994 174.326ZM49.0959 185.953L19.2787 186.201L19.2953 188.201L49.1125 187.953L49.0959 185.953ZM19.2787 186.201C15.8991 186.229 13.0211 185.446 10.6026 183.891L9.52075 185.573C12.3121 187.368 15.5843 188.232 19.2953 188.201L19.2787 186.201ZM10.6014 183.89C8.18145 182.338 6.28921 180.155 4.92858 177.305L3.12377 178.167C4.63125 181.324 6.7627 183.804 9.52194 185.574L10.6014 183.89ZM4.93036 177.309C3.58446 174.46 2.88029 171.114 2.84819 167.246L0.848262 167.262C0.882287 171.363 1.63008 175.005 3.122 178.163L4.93036 177.309ZM2.84819 167.246C2.81584 163.346 3.4647 159.974 4.76272 157.104L2.94044 156.279C1.5007 159.463 0.813995 163.132 0.848262 167.262L2.84819 167.246ZM4.76101 157.107C6.07417 154.236 7.92992 152.021 10.3238 150.429L9.21655 148.764C6.48704 150.579 4.39704 153.094 2.94214 156.276L4.76101 157.107ZM10.3182 150.433C12.7116 148.865 15.5788 148.048 18.962 148.02L18.9454 146.02C15.2379 146.051 11.9828 146.952 9.22223 148.76L10.3182 150.433ZM18.962 148.02L48.7791 147.773L48.7625 145.773L18.9454 146.02L18.962 148.02ZM47.7709 146.781L47.8757 159.417L49.8756 159.401L49.7708 146.765L47.7709 146.781ZM48.8674 158.409L20.1411 158.647L20.1577 160.647L48.884 160.409L48.8674 158.409ZM20.1411 158.647C18.5491 158.661 17.0928 159.026 15.798 159.765L16.7896 161.502C17.7569 160.95 18.871 160.658 20.1577 160.647L20.1411 158.647ZM15.793 159.768C14.5208 160.504 13.5205 161.521 12.8057 162.806L14.5532 163.778C15.0924 162.81 15.835 162.055 16.7946 161.499L15.793 159.768ZM12.8029 162.811C12.0852 164.118 11.7438 165.58 11.757 167.172L13.7569 167.155C13.7462 165.868 14.0198 164.75 14.5559 163.773L12.8029 162.811ZM11.757 167.172C11.7703 168.777 12.135 170.236 12.878 171.52L14.6091 170.518C14.0607 169.57 13.7677 168.459 13.7569 167.155L11.757 167.172ZM12.878 171.52C13.614 172.792 14.6311 173.792 15.9153 174.507L16.888 172.76C15.9193 172.22 15.1643 171.478 14.6091 170.518L12.878 171.52ZM15.9203 174.51C17.2272 175.228 18.6894 175.569 20.2814 175.556L20.2648 173.556C18.9781 173.567 17.8593 173.293 16.883 172.757L15.9203 174.51ZM20.2814 175.556L49.0077 175.317L48.9911 173.318L20.2648 173.556L20.2814 175.556ZM38.962 191.771L38.9537 190.771L37.9537 190.779L37.962 191.779L38.962 191.771ZM49.1435 191.686L50.1434 191.678L50.1351 190.678L49.1352 190.686L49.1435 191.686ZM49.4791 232.139L49.4874 233.139L50.4874 233.131L50.4791 232.131L49.4791 232.139ZM39.2976 232.224L38.2977 232.232L38.306 233.232L39.3059 233.224L39.2976 232.224ZM39.1815 218.224L40.1814 218.216L40.1731 217.216L39.1732 217.224L39.1815 218.224ZM2.81909 218.526L1.81912 218.534L1.82742 219.534L2.82738 219.526L2.81909 218.526ZM2.71576 206.072L2.70746 205.072L1.7075 205.08L1.7158 206.08L2.71576 206.072ZM39.0781 205.77L39.0864 206.77L40.0864 206.762L40.0781 205.762L39.0781 205.77ZM38.9703 192.771L49.1518 192.686L49.1352 190.686L38.9537 190.771L38.9703 192.771ZM48.1435 191.695L48.4791 232.148L50.4791 232.131L50.1434 191.678L48.1435 191.695ZM49.4708 231.139L39.2893 231.224L39.3059 233.224L49.4874 233.139L49.4708 231.139ZM40.2976 232.216L40.1814 218.216L38.1815 218.233L38.2977 232.232L40.2976 232.216ZM39.1732 217.224L2.81079 217.526L2.82738 219.526L39.1898 219.224L39.1732 217.224ZM3.81905 218.518L3.71573 206.064L1.7158 206.08L1.81912 218.534L3.81905 218.518ZM2.72406 207.072L39.0864 206.77L39.0698 204.77L2.70746 205.072L2.72406 207.072ZM40.0781 205.762L39.962 191.762L37.962 191.779L38.0782 205.779L40.0781 205.762ZM49.8529 277.189L50.8528 277.181L50.8445 276.181L49.8446 276.189L49.8529 277.189ZM49.9577 289.825L49.966 290.825L50.9659 290.817L50.9577 289.817L49.9577 289.825ZM10.9152 287.603L11.4561 286.762L11.4549 286.761L10.9152 287.603ZM4.87967 280.608L3.97548 281.035L3.97726 281.039L4.87967 280.608ZM4.70506 259.563L3.79562 259.147L3.79392 259.151L4.70506 259.563ZM10.6237 252.468L10.0757 251.632L10.07 251.635L10.6237 252.468ZM49.6243 249.644L50.6243 249.636L50.616 248.636L49.616 248.644L49.6243 249.644ZM49.7292 262.28L49.7375 263.28L50.7374 263.272L50.7291 262.272L49.7292 262.28ZM17.1473 263.505L16.6515 262.637L16.6465 262.64L17.1473 263.505ZM14.5329 266.163L13.6591 265.677L13.6564 265.682L14.5329 266.163ZM14.597 273.89L13.7314 274.391L14.597 273.89ZM17.2551 276.505L16.7688 277.379L16.7738 277.381L17.2551 276.505ZM48.8529 277.197L48.9577 289.833L50.9577 289.817L50.8528 277.181L48.8529 277.197ZM49.9494 288.825L20.1322 289.072L20.1488 291.072L49.966 290.825L49.9494 288.825ZM20.1322 289.072C16.7526 289.1 13.8746 288.318 11.4561 286.762L10.3742 288.444C13.1656 290.24 16.4378 291.103 20.1488 291.072L20.1322 289.072ZM11.4549 286.761C9.03493 285.21 7.1427 283.026 5.78207 280.177L3.97726 281.039C5.48474 284.196 7.61619 286.676 10.3754 288.445L11.4549 286.761ZM5.78384 280.18C4.43795 277.332 3.73377 273.985 3.70168 270.117L1.70175 270.134C1.73577 274.235 2.48357 277.877 3.97549 281.035L5.78384 280.18ZM3.70168 270.117C3.66932 266.217 4.31819 262.845 5.61621 259.975L3.79392 259.151C2.35419 262.334 1.66748 266.003 1.70175 270.134L3.70168 270.117ZM5.61449 259.979C6.92766 257.107 8.7834 254.892 11.1773 253.301L10.07 251.635C7.34052 253.45 5.25052 255.965 3.79563 259.147L5.61449 259.979ZM11.1716 253.305C13.565 251.737 16.4323 250.92 19.8155 250.892L19.7989 248.892C16.0913 248.923 12.8363 249.823 10.0757 251.632L11.1716 253.305ZM19.8155 250.892L49.6326 250.644L49.616 248.644L19.7989 248.892L19.8155 250.892ZM48.6244 249.653L48.7292 262.289L50.7291 262.272L50.6243 249.636L48.6244 249.653ZM49.7209 261.28L20.9946 261.519L21.0112 263.519L49.7375 263.28L49.7209 261.28ZM20.9946 261.519C19.4026 261.532 17.9463 261.898 16.6515 262.637L17.6431 264.374C18.6104 263.821 19.7245 263.529 21.0112 263.519L20.9946 261.519ZM16.6465 262.64C15.3743 263.376 14.374 264.393 13.6591 265.677L15.4066 266.65C15.9459 265.681 16.6885 264.926 17.6481 264.371L16.6465 262.64ZM13.6564 265.682C12.9387 266.989 12.5973 268.451 12.6105 270.043L14.6104 270.027C14.5997 268.74 14.8733 267.621 15.4094 266.645L13.6564 265.682ZM12.6105 270.043C12.6238 271.648 12.9885 273.107 13.7314 274.391L15.4626 273.39C14.9142 272.442 14.6212 271.331 14.6104 270.027L12.6105 270.043ZM13.7314 274.391C14.4675 275.663 15.4846 276.664 16.7688 277.379L17.7415 275.631C16.7728 275.092 16.0178 274.349 15.4626 273.39L13.7314 274.391ZM16.7738 277.381C18.0807 278.099 19.5428 278.44 21.1349 278.427L21.1183 276.427C19.8316 276.438 18.7128 276.164 17.7365 275.628L16.7738 277.381ZM21.1349 278.427L49.8611 278.189L49.8446 276.189L21.1183 276.427L21.1349 278.427ZM35.6707 321.041L35.5827 320.045L34.6631 320.126L34.6708 321.049L35.6707 321.041ZM39.2019 319.307L38.434 318.667L38.4293 318.672L39.2019 319.307ZM39.9329 311.528L38.998 311.883L39.0016 311.893L39.9329 311.528ZM38.6678 309.72L39.2575 308.913L39.2575 308.913L38.6678 309.72ZM36.8446 309.122L36.7989 310.121L36.8148 310.122L36.8307 310.122L36.8446 309.122ZM35.3244 309.43L34.8698 308.539L34.8517 308.548L34.8341 308.558L35.3244 309.43ZM34.1293 310.576L33.3076 310.006L33.3019 310.015L33.2964 310.023L34.1293 310.576ZM32.4423 315.431L33.4218 315.633L33.4234 315.624L32.4423 315.431ZM31.6558 319.256L30.6763 319.055L30.6758 319.057L31.6558 319.256ZM29.5516 325.887L28.6492 325.457L29.5516 325.887ZM26.43 330.414L25.7305 329.699L25.7261 329.703L26.43 330.414ZM22.406 333.015L22.0564 332.078L22.0481 332.081L22.406 333.015ZM17.5042 333.92L17.5076 334.92L17.5211 334.919L17.5042 333.92ZM9.71271 331.689L9.13824 332.507L9.71271 331.689ZM4.81804 325.229L5.74585 324.856L5.74516 324.854L4.81804 325.229ZM4.78262 304.524L3.85078 304.161L3.85015 304.163L4.78262 304.524ZM10.2471 297.478L9.68898 296.649L9.68318 296.653L10.2471 297.478ZM19.8169 294.899L20.8169 294.891L20.8086 293.887L19.8047 293.899L19.8169 294.899ZM19.9165 306.899L19.9779 307.897L20.9243 307.838L20.9164 306.89L19.9165 306.899ZM16.3346 307.997L15.779 307.165L16.3346 307.997ZM14.1523 310.697L13.2318 310.306L13.23 310.31L14.1523 310.697ZM13.9649 318.244L13.029 318.596L13.9649 318.244ZM15.3684 320.3L14.7527 321.088L15.3684 320.3ZM17.3971 321.011L17.3854 322.011L17.4061 322.011L17.4267 322.01L17.3971 321.011ZM19.2548 320.291L18.6211 319.517L18.6093 319.527L18.5978 319.537L19.2548 320.291ZM20.6912 318.097L19.7702 317.707L19.7654 317.719L20.6912 318.097ZM21.8843 313.973L22.8629 314.179L22.8636 314.176L21.8843 313.973ZM22.8458 309.329L21.8668 309.125L21.8666 309.126L22.8458 309.329ZM27.2421 299.542L26.4899 298.883L26.4855 298.888L27.2421 299.542ZM35.8262 295.948L35.8303 296.948L35.8396 296.948L35.8262 295.948ZM43.5955 298.247L44.1737 297.431L44.1726 297.431L43.5955 298.247ZM48.8551 304.863L49.7684 304.456L49.7676 304.454L48.8551 304.863ZM48.9946 324.408L48.0822 323.999L48.9946 324.408ZM43.7292 330.793L43.1778 329.958L43.1714 329.963L43.7292 330.793ZM35.771 333.132L34.7711 333.14L34.7794 334.145L35.7843 334.131L35.771 333.132ZM35.7587 322.037C37.4969 321.884 38.9382 321.203 39.9745 319.942L38.4293 318.672C37.7855 319.456 36.8727 319.931 35.5827 320.045L35.7587 322.037ZM39.9698 319.948C41.0266 318.681 41.4546 316.877 41.4367 314.72L39.4367 314.737C39.4528 316.671 39.0575 317.919 38.4341 318.667L39.9698 319.948ZM41.4367 314.72C41.4253 313.347 41.2491 312.147 40.8641 311.164L39.0016 311.893C39.2668 312.57 39.4265 313.505 39.4367 314.737L41.4367 314.72ZM40.8677 311.173C40.5107 310.233 39.9904 309.448 39.2575 308.913L38.0782 310.528C38.4124 310.772 38.7354 311.192 38.998 311.883L40.8677 311.173ZM39.2575 308.913C38.5509 308.397 37.7405 308.134 36.8585 308.122L36.8307 310.122C37.3126 310.128 37.7177 310.265 38.0782 310.528L39.2575 308.913ZM36.8903 308.123C36.1747 308.09 35.4927 308.221 34.8698 308.539L35.779 310.321C36.0613 310.177 36.3928 310.102 36.7989 310.121L36.8903 308.123ZM34.8341 308.558C34.2354 308.895 33.7316 309.395 33.3076 310.006L34.951 311.146C35.2457 310.721 35.5386 310.457 35.8147 310.301L34.8341 308.558ZM33.2964 310.023C32.8924 310.631 32.5464 311.374 32.2471 312.232L34.1353 312.891C34.3984 312.138 34.6778 311.558 34.9622 311.13L33.2964 310.023ZM32.2471 312.232C31.9463 313.093 31.6856 314.098 31.4611 315.238L33.4234 315.624C33.6351 314.549 33.8737 313.64 34.1353 312.891L32.2471 312.232ZM31.4627 315.23L30.6763 319.055L32.6353 319.458L33.4218 315.633L31.4627 315.23ZM30.6758 319.057C30.1635 321.579 29.4842 323.708 28.6492 325.457L30.4541 326.318C31.3765 324.386 32.0999 322.094 32.6358 319.455L30.6758 319.057ZM28.6492 325.457C27.8106 327.213 26.8335 328.619 25.7306 329.699L27.1294 331.128C28.4313 329.854 29.5353 328.243 30.4541 326.318L28.6492 325.457ZM25.7261 329.703C24.6347 330.785 23.4127 331.572 22.0564 332.078L22.7555 333.952C24.39 333.342 25.8508 332.395 27.1339 331.124L25.7261 329.703ZM22.0481 332.081C20.6728 332.608 19.1557 332.892 17.4874 332.92L17.5211 334.919C19.3978 334.888 21.1485 334.568 22.7638 333.949L22.0481 332.081ZM17.5009 332.92C14.61 332.929 12.2237 332.229 10.2872 330.87L9.13824 332.507C11.4691 334.143 14.2772 334.93 17.5076 334.92L17.5009 332.92ZM10.2872 330.87C8.33613 329.501 6.81497 327.515 5.74585 324.856L3.89023 325.602C5.07991 328.561 6.82187 330.881 9.13824 332.507L10.2872 330.87ZM5.74516 324.854C4.67499 322.207 4.10701 318.971 4.07506 315.121L2.07513 315.138C2.10855 319.166 2.70253 322.664 3.89091 325.604L5.74516 324.854ZM4.07506 315.121C4.0423 311.172 4.59856 307.767 5.71509 304.885L3.85015 304.163C2.62286 307.331 2.04077 310.996 2.07513 315.138L4.07506 315.121ZM5.71447 304.887C6.81945 302.049 8.51996 299.869 10.811 298.304L9.68318 296.653C7.03235 298.463 5.08988 300.979 3.85078 304.161L5.71447 304.887ZM10.8052 298.308C13.0879 296.773 16.0725 295.945 19.8291 295.899L19.8047 293.899C15.774 293.948 12.3787 294.84 9.68899 296.649L10.8052 298.308ZM18.817 294.907L18.9165 306.907L20.9164 306.89L20.8169 294.891L18.817 294.907ZM19.8551 305.9C18.2953 305.996 16.9207 306.402 15.779 307.165L16.8901 308.828C17.6771 308.302 18.6906 307.976 19.9779 307.897L19.8551 305.9ZM15.779 307.165C14.6392 307.927 13.7918 308.986 13.2318 310.306L15.0729 311.087C15.4937 310.096 16.1011 309.355 16.8901 308.828L15.779 307.165ZM13.23 310.31C12.6754 311.634 12.4227 313.163 12.4369 314.87L14.4368 314.853C14.4243 313.348 14.6486 312.1 15.0747 311.083L13.23 310.31ZM12.4369 314.87C12.4487 316.293 12.634 317.546 13.029 318.596L14.9009 317.892C14.6142 317.129 14.4474 316.127 14.4368 314.853L12.4369 314.87ZM13.029 318.596C13.4165 319.626 13.9775 320.483 14.7527 321.088L15.9841 319.512C15.5697 319.189 15.1951 318.674 14.9009 317.892L13.029 318.596ZM14.7527 321.088C15.5209 321.689 16.4095 321.999 17.3854 322.011L17.4088 320.011C16.8694 320.005 16.4055 319.842 15.9841 319.512L14.7527 321.088ZM17.4267 322.01C18.365 321.983 19.2072 321.659 19.9119 321.045L18.5978 319.537C18.2494 319.841 17.8532 319.997 17.3675 320.011L17.4267 322.01ZM19.8886 321.064C20.6124 320.471 21.1708 319.568 21.6171 318.475L19.7654 317.719C19.38 318.663 18.9809 319.223 18.6211 319.517L19.8886 321.064ZM21.6122 318.487C22.0785 317.384 22.492 315.94 22.8629 314.179L20.9058 313.767C20.5478 315.467 20.1659 316.772 19.7703 317.708L21.6122 318.487ZM22.8636 314.176L23.8251 309.532L21.8666 309.126L20.9051 313.771L22.8636 314.176ZM23.8248 309.533C24.661 305.518 26.0696 302.428 27.9986 300.196L26.4855 298.888C24.2724 301.449 22.7501 304.883 21.8668 309.125L23.8248 309.533ZM27.9942 300.201C29.8626 298.069 32.4334 296.962 35.8303 296.948L35.822 294.948C31.9462 294.964 28.7943 296.253 26.49 298.883L27.9942 300.201ZM35.8396 296.948C38.6015 296.911 40.9805 297.624 43.0184 299.064L44.1726 297.431C41.7601 295.726 38.9595 294.906 35.8128 294.948L35.8396 296.948ZM43.0174 299.063C45.0944 300.535 46.7404 302.591 47.9427 305.272L49.7676 304.454C48.4381 301.489 46.5777 299.135 44.1737 297.431L43.0174 299.063ZM47.9419 305.27C49.1425 307.962 49.7704 311.082 49.8 314.651L51.7999 314.634C51.7685 310.84 51.0998 307.44 49.7684 304.456L47.9419 305.27ZM49.8 314.651C49.8303 318.299 49.2455 321.405 48.0822 323.999L49.907 324.817C51.2132 321.905 51.832 318.501 51.7999 314.634L49.8 314.651ZM48.0822 323.999C46.9165 326.597 45.2786 328.57 43.1778 329.958L44.2805 331.627C46.7307 330.008 48.6031 327.724 49.907 324.817L48.0822 323.999ZM43.1714 329.963C41.091 331.361 38.6326 332.094 35.7578 332.132L35.7843 334.131C38.9999 334.089 41.8469 333.262 44.2869 331.623L43.1714 329.963ZM36.771 333.123L36.6707 321.033L34.6708 321.049L34.7711 333.14L36.771 333.123Z" fill="#05C2DF" fill-opacity="0.02" mask="url(#path-1-outside-1_3495_4397)"/>
</svg>
