<svg width="52" height="335" viewBox="0 0 52 335" fill="none" xmlns="http://www.w3.org/2000/svg">
<mask id="path-1-outside-1_3495_4400" maskUnits="userSpaceOnUse" x="-1.03028" y="-0.867505" width="53.7858" height="336.412" fill="black">
<rect fill="white" x="-1.03028" y="-0.867505" width="53.7858" height="336.412"/>
<path d="M50.6304 320.047L50.7435 333.683L4.07219 318.706L3.92889 301.434L50.3453 285.685L50.4584 299.321L16.8168 309.782L16.8198 310.145L50.6304 320.047ZM32.2885 322.745L32.0758 297.109L41.53 297.031L41.7427 322.666L32.2885 322.745ZM50.3081 281.202L3.76424 281.588L3.59681 261.407C3.56739 257.862 4.01995 254.88 4.95448 252.464C5.88888 250.031 7.22217 248.195 8.95435 246.953C10.6864 245.696 12.7342 245.058 15.0978 245.038C16.8098 245.024 18.3735 245.39 19.7889 246.136C21.2041 246.866 22.3945 247.902 23.3602 249.243C24.3108 250.583 24.9753 252.153 25.3539 253.953L25.8084 253.95C25.8676 251.949 26.3601 250.127 27.2859 248.483C28.1965 246.839 29.4659 245.525 31.0942 244.542C32.7073 243.559 34.6123 243.058 36.8092 243.04C39.3546 243.019 41.6252 243.667 43.621 244.983C45.6167 246.285 47.1929 248.151 48.3494 250.581C49.506 253.011 50.0983 255.915 50.1263 259.294L50.3081 281.202ZM40.1127 268.65L40.0637 262.741C40.0461 260.62 39.639 259.032 38.8423 257.978C38.0305 256.924 36.8443 256.404 35.2838 256.417C34.1929 256.426 33.2708 256.683 32.5174 257.19C31.764 257.696 31.1941 258.413 30.8079 259.34C30.4215 260.253 30.2336 261.353 30.2443 262.64L30.2949 268.731L40.1127 268.65ZM22.4769 268.796L22.434 263.614C22.4248 262.508 22.2424 261.533 21.8869 260.687C21.5314 259.841 21.026 259.186 20.3706 258.722C19.6999 258.243 18.8873 258.007 17.9328 258.015C16.4935 258.027 15.3993 258.551 14.6503 259.588C13.8861 260.625 13.5106 261.931 13.5237 263.506L13.5682 268.87L22.4769 268.796ZM26.3074 193.557C31.4891 193.514 35.8685 194.485 39.4457 196.471C43.0077 198.457 45.7196 201.154 47.5813 204.563C49.4278 207.972 50.3685 211.782 50.4035 215.994C50.4387 220.237 49.5538 224.077 47.749 227.517C45.9288 230.941 43.2545 233.675 39.7259 235.72C36.182 237.749 31.8344 238.786 26.683 238.828C21.5014 238.871 17.1296 237.907 13.5677 235.937C9.99046 233.951 7.27866 231.262 5.43226 227.868C3.57058 224.459 2.62214 220.633 2.58695 216.391C2.552 212.179 3.43696 208.353 5.24182 204.914C7.03153 201.475 9.69827 198.733 13.242 196.688C16.7707 194.644 21.1258 193.6 26.3074 193.557ZM26.4153 206.557C23.6275 206.58 21.2822 206.97 19.3793 207.729C17.4612 208.472 16.0156 209.567 15.0428 211.015C14.0546 212.447 13.5692 214.209 13.5866 216.3C13.6039 218.391 14.1185 220.152 15.1304 221.583C16.1271 222.999 17.5906 224.07 19.5209 224.796C21.436 225.508 23.7874 225.852 26.5752 225.829C29.3629 225.806 31.7159 225.422 33.6341 224.679C35.5369 223.921 36.9824 222.826 37.9706 221.393C38.9434 219.946 39.4212 218.176 39.4039 216.086C39.3865 213.995 38.8795 212.241 37.8829 210.825C36.871 209.394 35.4075 208.323 33.4924 207.612C31.5621 206.885 29.2031 206.533 26.4153 206.557ZM2.75846 160.359L2.65363 147.723L32.4708 147.476C36.0161 147.447 39.0912 148.27 41.6961 149.945C44.2858 151.605 46.2976 153.937 47.7317 156.941C49.1506 159.944 49.8765 163.438 49.9096 167.423C49.9429 171.438 49.2751 174.959 47.9062 177.985C46.5222 181.012 44.5493 183.377 41.9876 185.08C39.4106 186.768 36.3495 187.627 32.8041 187.656L2.98699 187.904L2.88215 175.268L31.6084 175.03C33.0478 175.018 34.333 174.689 35.464 174.043C36.5799 173.397 37.4514 172.511 38.0784 171.385C38.7053 170.243 39.0128 168.953 39.0009 167.513C38.9888 166.059 38.66 164.774 38.0143 163.658C37.3687 162.542 36.4826 161.67 35.3562 161.043C34.2146 160.416 32.9241 160.109 31.4847 160.121L2.75846 160.359ZM12.7958 142.906L2.61436 142.991L2.27874 102.537L12.4602 102.453L12.5764 116.452L48.9387 116.151L49.0421 128.605L12.6797 128.907L12.7958 142.906ZM1.90499 57.4878L1.80015 44.8519L31.6173 44.6045C35.1626 44.5751 38.2378 45.3981 40.8427 47.0735C43.4323 48.7339 45.4441 51.0658 46.8782 54.0691C48.2971 57.0726 49.0231 60.5667 49.0561 64.5514C49.0894 68.5664 48.4216 72.0872 47.0528 75.1138C45.6687 78.1406 43.6959 80.5055 41.1342 82.2086C38.5572 83.8967 35.496 84.7555 31.9507 84.7849L2.13351 85.0323L2.02868 72.3964L30.755 72.158C32.1943 72.1461 33.4795 71.8172 34.6105 71.1715C35.7264 70.5258 36.5979 69.6398 37.2249 68.5133C37.8519 67.3717 38.1593 66.0813 38.1474 64.6419C38.1353 63.1874 37.8065 61.9022 37.1608 60.7863C36.5152 59.6704 35.6291 58.799 34.5027 58.1719C33.3611 57.545 32.0706 57.2375 30.6313 57.2495L1.90499 57.4878ZM16.0871 13.6357C14.573 13.7694 13.396 14.3474 12.5559 15.3696C11.7158 16.3766 11.3042 17.9028 11.3211 19.9482C11.332 21.2511 11.4999 22.318 11.825 23.1486C12.1348 23.9643 12.5565 24.5669 13.09 24.9564C13.6236 25.3459 14.2313 25.5454 14.9132 25.5549C15.4741 25.5806 15.9808 25.4779 16.4335 25.2468C16.8708 25.0008 17.2692 24.6187 17.6285 24.1005C17.9727 23.5825 18.2854 22.9208 18.5666 22.1154C18.8479 21.31 19.0975 20.3533 19.3156 19.2454L20.1021 15.4206C20.6261 12.8404 21.3275 10.63 22.2062 8.78928C23.0849 6.9486 24.1255 5.43991 25.3279 4.26323C26.5151 3.08667 27.8565 2.21945 29.3519 1.66157C30.8472 1.08854 32.4811 0.787095 34.2536 0.757237C37.3143 0.746997 39.9114 1.49063 42.0451 2.98813C44.1788 4.48563 45.8104 6.63884 46.9398 9.44774C48.0691 12.2415 48.6501 15.608 48.6827 19.5473C48.7163 23.5926 48.1471 27.1277 46.9752 30.1527C45.8032 33.1625 43.9817 35.5111 41.5108 37.1983C39.0245 38.8705 35.8346 39.7303 31.9409 39.7778L31.8414 27.7782C33.2649 27.6906 34.4589 27.3246 35.4233 26.6802C36.3877 26.0359 37.1151 25.1359 37.6055 23.9802C38.0958 22.8095 38.3343 21.4211 38.321 19.8151C38.3098 18.4666 38.1338 17.3393 37.7929 16.433C37.452 15.5267 36.9842 14.8411 36.3894 14.3764C35.7946 13.9116 35.1184 13.6748 34.3607 13.6659C33.6488 13.6869 33.0295 13.9269 32.503 14.3859C31.9612 14.8298 31.4824 15.561 31.0666 16.5797C30.6356 17.5984 30.2379 18.973 29.8735 20.7034L28.912 25.3479C28.0523 29.4763 26.5869 32.7386 24.5158 35.1347C22.4294 37.5157 19.568 38.7137 15.9317 38.7287C12.9773 38.7684 10.3876 38.002 8.16232 36.4295C5.92179 34.8419 4.16859 32.6367 2.9027 29.8138C1.63669 26.9757 0.988409 23.7158 0.957864 20.0341C0.92669 16.2767 1.52849 13.0216 2.76327 10.2688C3.99806 7.51605 5.75319 5.38778 8.02867 3.88401C10.2889 2.3652 12.9416 1.58559 15.9868 1.54517L16.0871 13.6357Z"/>
</mask>
<path d="M50.6304 320.047L51.6303 320.039L51.6242 319.296L50.9114 319.087L50.6304 320.047ZM50.7435 333.683L50.438 334.635L51.755 335.058L51.7435 333.675L50.7435 333.683ZM4.07219 318.706L3.07223 318.714L3.07823 319.437L3.76664 319.658L4.07219 318.706ZM3.92889 301.434L3.60758 300.487L2.92293 300.719L2.92893 301.442L3.92889 301.434ZM50.3453 285.685L51.3453 285.676L51.3338 284.293L50.024 284.738L50.3453 285.685ZM50.4584 299.321L50.7554 300.275L51.4645 300.055L51.4584 299.312L50.4584 299.321ZM16.8168 309.782L16.5198 308.827L15.8107 309.047L15.8168 309.79L16.8168 309.782ZM16.8198 310.145L15.8198 310.154L15.826 310.896L16.5387 311.105L16.8198 310.145ZM32.2885 322.745L31.2885 322.753L31.2968 323.753L32.2968 323.745L32.2885 322.745ZM32.0758 297.109L32.0675 296.109L31.0675 296.118L31.0758 297.118L32.0758 297.109ZM41.53 297.031L42.53 297.023L42.5217 296.023L41.5217 296.031L41.53 297.031ZM41.7427 322.666L41.751 323.666L42.751 323.658L42.7427 322.658L41.7427 322.666ZM49.6304 320.055L49.7435 333.691L51.7435 333.675L51.6303 320.039L49.6304 320.055ZM51.0491 332.731L4.37775 317.754L3.76664 319.658L50.438 334.635L51.0491 332.731ZM5.07216 318.698L4.92886 301.426L2.92893 301.442L3.07223 318.714L5.07216 318.698ZM4.25021 302.381L50.6666 286.632L50.024 284.738L3.60758 300.487L4.25021 302.381ZM49.3453 285.693L49.4585 299.329L51.4584 299.312L51.3453 285.676L49.3453 285.693ZM50.1615 298.366L16.5198 308.827L17.1137 310.737L50.7554 300.275L50.1615 298.366ZM15.8168 309.79L15.8198 310.154L17.8198 310.137L17.8167 309.774L15.8168 309.79ZM16.5387 311.105L50.3493 321.007L50.9114 319.087L17.1008 309.186L16.5387 311.105ZM33.2885 322.737L33.0758 297.101L31.0758 297.118L31.2885 322.753L33.2885 322.737ZM32.0841 298.109L41.5383 298.031L41.5217 296.031L32.0675 296.109L32.0841 298.109ZM40.5301 297.039L40.7427 322.675L42.7427 322.658L42.53 297.023L40.5301 297.039ZM41.7344 321.666L32.2802 321.745L32.2968 323.745L41.751 323.666L41.7344 321.666ZM50.3081 281.202L50.3164 282.202L51.3164 282.194L51.3081 281.194L50.3081 281.202ZM3.76424 281.588L2.76428 281.596L2.77257 282.596L3.77254 282.588L3.76424 281.588ZM4.95448 252.464L5.88719 252.824L5.88796 252.822L4.95448 252.464ZM8.95435 246.953L9.53697 247.766L9.54165 247.762L8.95435 246.953ZM19.7889 246.136L19.3226 247.02L19.3301 247.024L19.7889 246.136ZM23.3602 249.243L24.176 248.664L24.1716 248.658L23.3602 249.243ZM25.3539 253.953L24.3753 254.159L24.5438 254.96L25.3622 254.953L25.3539 253.953ZM25.8084 253.95L25.8167 254.95L26.7795 254.942L26.808 253.979L25.8084 253.95ZM27.2859 248.483L28.1572 248.973L28.1606 248.967L27.2859 248.483ZM31.0942 244.542L31.6111 245.398L31.6146 245.396L31.0942 244.542ZM43.621 244.983L43.0703 245.818L43.0747 245.821L43.621 244.983ZM48.3494 250.581L47.4465 251.01L48.3494 250.581ZM40.1127 268.65L40.121 269.65L41.121 269.641L41.1127 268.641L40.1127 268.65ZM38.8423 257.978L39.6401 257.375L39.6345 257.368L38.8423 257.978ZM30.8079 259.34L31.7287 259.73L31.731 259.725L30.8079 259.34ZM30.2949 268.731L29.2949 268.739L29.3032 269.739L30.3032 269.731L30.2949 268.731ZM22.4769 268.796L22.4852 269.796L23.4852 269.788L23.4769 268.788L22.4769 268.796ZM21.8869 260.687L22.8088 260.299L21.8869 260.687ZM20.3706 258.722L19.7891 259.536L19.7925 259.538L20.3706 258.722ZM14.6503 259.588L15.4553 260.181L15.4608 260.174L14.6503 259.588ZM13.5682 268.87L12.5682 268.878L12.5765 269.878L13.5765 269.87L13.5682 268.87ZM50.2998 280.202L3.75595 280.588L3.77254 282.588L50.3164 282.202L50.2998 280.202ZM4.76421 281.58L4.59677 261.399L2.59684 261.415L2.76428 281.596L4.76421 281.58ZM4.59677 261.399C4.56805 257.936 5.01154 255.089 5.88718 252.824L4.02177 252.103C3.02837 254.672 2.56674 257.787 2.59684 261.415L4.59677 261.399ZM5.88796 252.822C6.76799 250.532 7.99579 248.87 9.53696 247.766L8.37174 246.14C6.44854 247.519 5.00977 249.531 4.021 252.105L5.88796 252.822ZM9.54165 247.762C11.0877 246.64 12.9279 246.056 15.1061 246.038L15.0895 244.038C12.5406 244.059 10.2851 244.752 8.36705 246.144L9.54165 247.762ZM15.1061 246.038C16.6648 246.025 18.0637 246.357 19.3226 247.02L20.2551 245.251C18.6833 244.423 16.9549 244.023 15.0895 244.038L15.1061 246.038ZM19.3301 247.024C20.6002 247.68 21.6716 248.609 22.5488 249.827L24.1716 248.658C23.1175 247.195 21.8079 246.053 20.2476 245.247L19.3301 247.024ZM22.5444 249.821C23.4068 251.037 24.0216 252.477 24.3753 254.159L26.3325 253.748C25.9291 251.83 25.2147 250.129 24.176 248.664L22.5444 249.821ZM25.3622 254.953L25.8167 254.95L25.8001 252.95L25.3456 252.953L25.3622 254.953ZM26.808 253.979C26.8627 252.13 27.3157 250.468 28.1572 248.973L26.4145 247.992C25.4045 249.786 24.8725 251.768 24.8089 253.92L26.808 253.979ZM28.1606 248.967C28.9854 247.478 30.1307 246.292 31.6111 245.398L30.5773 243.686C28.8012 244.758 27.4075 246.199 26.4111 247.998L28.1606 248.967ZM31.6146 245.396C33.0497 244.521 34.7715 244.057 36.8175 244.04L36.8009 242.04C34.4531 242.059 32.3649 242.596 30.5738 243.688L31.6146 245.396ZM36.8175 244.04C39.1777 244.02 41.2512 244.618 43.0703 245.818L44.1717 244.149C41.9992 242.715 39.5314 242.017 36.8009 242.04L36.8175 244.04ZM43.0747 245.821C44.8971 247.01 46.3585 248.725 47.4465 251.01L49.2524 250.151C48.0272 247.577 46.3364 245.561 44.1673 244.146L43.0747 245.821ZM47.4465 251.01C48.5265 253.279 49.0992 256.033 49.1264 259.302L51.1263 259.285C51.0974 255.797 50.4855 252.742 49.2524 250.151L47.4465 251.01ZM49.1264 259.302L49.3081 281.21L51.3081 281.194L51.1263 259.285L49.1264 259.302ZM41.1127 268.641L41.0636 262.732L39.0637 262.749L39.1127 268.658L41.1127 268.641ZM41.0636 262.732C41.0453 260.517 40.6236 258.676 39.6401 257.375L38.0445 258.581C38.6543 259.388 39.0469 260.723 39.0637 262.749L41.0636 262.732ZM39.6345 257.368C38.5971 256.021 37.0879 255.402 35.2755 255.417L35.2921 257.417C36.6007 257.406 37.4639 257.827 38.0501 258.588L39.6345 257.368ZM35.2755 255.417C34.0288 255.427 32.9059 255.724 31.9596 256.36L33.0751 258.02C33.6356 257.643 34.357 257.424 35.2921 257.417L35.2755 255.417ZM31.9596 256.36C31.0261 256.987 30.3381 257.867 29.8847 258.956L31.731 259.725C32.0502 258.958 32.5018 258.405 33.0751 258.02L31.9596 256.36ZM29.8871 258.95C29.4339 260.02 29.2329 261.263 29.2444 262.649L31.2443 262.632C31.2344 261.442 31.4091 260.485 31.7287 259.73L29.8871 258.95ZM29.2444 262.649L29.2949 268.739L31.2948 268.723L31.2443 262.632L29.2444 262.649ZM30.3032 269.731L40.121 269.65L40.1044 267.65L30.2866 267.731L30.3032 269.731ZM23.4769 268.788L23.4339 263.606L21.434 263.623L21.477 268.804L23.4769 268.788ZM23.4339 263.606C23.4239 262.396 23.224 261.287 22.8088 260.299L20.9651 261.075C21.2608 261.778 21.4257 262.621 21.434 263.623L23.4339 263.606ZM22.8088 260.299C22.3914 259.307 21.7771 258.493 20.9486 257.906L19.7925 259.538C20.2749 259.88 20.6714 260.376 20.9651 261.075L22.8088 260.299ZM20.952 257.909C20.0832 257.288 19.0558 257.006 17.9245 257.015L17.9411 259.015C18.7189 259.009 19.3166 259.198 19.7891 259.536L20.952 257.909ZM17.9245 257.015C16.213 257.029 14.8004 257.673 13.8397 259.002L15.4608 260.174C15.9981 259.43 16.7739 259.025 17.9411 259.015L17.9245 257.015ZM13.8453 258.995C12.9263 260.241 12.5092 261.772 12.5237 263.515L14.5236 263.498C14.5119 262.089 14.846 261.008 15.4552 260.181L13.8453 258.995ZM12.5237 263.515L12.5682 268.878L14.5681 268.862L14.5236 263.498L12.5237 263.515ZM13.5765 269.87L22.4852 269.796L22.4686 267.796L13.5599 267.87L13.5765 269.87ZM39.4457 196.471L39.9326 195.597L39.931 195.597L39.4457 196.471ZM47.5813 204.563L48.4606 204.086L48.4589 204.083L47.5813 204.563ZM47.749 227.517L48.632 227.986L48.6345 227.981L47.749 227.517ZM39.7259 235.72L40.2228 236.588L40.2272 236.585L39.7259 235.72ZM13.5677 235.937L13.0824 236.811L13.0836 236.812L13.5677 235.937ZM5.43226 227.868L6.31068 227.39L6.30991 227.389L5.43226 227.868ZM5.24182 204.914L6.12731 205.379L6.1289 205.376L5.24182 204.914ZM13.242 196.688L13.7418 197.554L13.7434 197.554L13.242 196.688ZM19.3793 207.729L19.7406 208.661L19.7495 208.658L19.3793 207.729ZM15.0428 211.015L15.866 211.583L15.8727 211.573L15.0428 211.015ZM15.1304 221.583L15.9482 221.007L15.9469 221.005L15.1304 221.583ZM19.5209 224.796L19.1687 225.732L19.1727 225.734L19.5209 224.796ZM33.6341 224.679L33.9954 225.612L34.0042 225.608L33.6341 224.679ZM37.9706 221.393L38.7938 221.961L38.8005 221.951L37.9706 221.393ZM37.8829 210.825L38.7007 210.25L38.6994 210.248L37.8829 210.825ZM33.4925 207.612L33.1402 208.548L33.1442 208.549L33.4925 207.612ZM26.3157 194.557C31.3699 194.515 35.5692 195.463 38.9604 197.345L39.931 195.597C36.1677 193.508 31.6082 192.513 26.2991 192.557L26.3157 194.557ZM38.9588 197.344C42.3646 199.243 44.937 201.807 46.7036 205.042L48.4589 204.083C46.5022 200.5 43.6508 197.67 39.9326 195.597L38.9588 197.344ZM46.702 205.039C48.464 208.292 49.3698 211.94 49.4035 216.003L51.4034 215.986C51.3673 211.625 50.3916 207.652 48.4606 204.087L46.702 205.039ZM49.4035 216.003C49.4375 220.096 48.5849 223.772 46.8635 227.052L48.6345 227.981C50.5228 224.383 51.4399 220.377 51.4034 215.986L49.4035 216.003ZM46.866 227.047C45.1382 230.298 42.6002 232.899 39.2245 234.855L40.2272 236.585C43.9088 234.452 46.7195 231.584 48.632 227.986L46.866 227.047ZM39.2289 234.852C35.8679 236.777 31.6986 237.787 26.6747 237.828L26.6913 239.828C31.9701 239.784 36.496 238.722 40.2228 236.588L39.2289 234.852ZM26.6747 237.828C21.6192 237.87 17.4273 236.929 14.0517 235.062L13.0836 236.812C16.8319 238.886 21.3836 239.872 26.6913 239.828L26.6747 237.828ZM14.053 235.063C10.6315 233.164 8.0609 230.607 6.31068 227.39L4.55384 228.346C6.49642 231.916 9.34938 234.739 13.0824 236.811L14.053 235.063ZM6.30991 227.389C4.53429 224.137 3.62087 220.476 3.58691 216.383L1.58698 216.399C1.62341 220.791 2.60687 224.781 4.55461 228.347L6.30991 227.389ZM3.58691 216.383C3.55322 212.321 4.40533 208.66 6.1273 205.379L4.35634 204.449C2.4686 208.047 1.55079 212.037 1.58698 216.399L3.58691 216.383ZM6.1289 205.376C7.82571 202.115 10.3535 199.509 13.7418 197.554L12.7423 195.822C9.04308 197.956 6.23736 200.835 4.35475 204.452L6.1289 205.376ZM13.7434 197.554C17.0867 195.616 21.2613 194.599 26.3157 194.557L26.2991 192.557C20.9903 192.601 16.4546 193.671 12.7407 195.823L13.7434 197.554ZM26.407 205.557C23.5371 205.58 21.0605 205.982 19.0091 206.8L19.7495 208.658C21.5038 207.959 23.7179 207.579 26.4236 207.557L26.407 205.557ZM19.018 206.796C16.9441 207.6 15.3192 208.811 14.2128 210.457L15.8727 211.573C16.7121 210.324 17.9782 209.344 19.7406 208.661L19.018 206.796ZM14.2196 210.447C13.0928 212.08 12.5679 214.054 12.5866 216.308L14.5865 216.291C14.5705 214.364 15.0165 212.814 15.8659 211.583L14.2196 210.447ZM12.5866 216.308C12.6053 218.563 13.163 220.532 14.314 222.16L15.9469 221.005C15.074 219.771 14.6025 218.219 14.5865 216.291L12.5866 216.308ZM14.3127 222.158C15.4454 223.768 17.0871 224.949 19.1687 225.732L19.8731 223.86C18.094 223.191 16.8087 222.23 15.9482 221.007L14.3127 222.158ZM19.1727 225.734C21.235 226.5 23.7154 226.852 26.5835 226.829L26.5669 224.829C23.8593 224.851 21.6369 224.516 19.8691 223.859L19.1727 225.734ZM26.5835 226.829C29.4519 226.805 31.9324 226.411 33.9953 225.612L33.2728 223.747C31.4994 224.434 29.274 224.806 26.5669 224.829L26.5835 226.829ZM34.0042 225.608C36.0573 224.79 37.6749 223.583 38.7937 221.961L37.1474 220.825C36.29 222.068 35.0166 223.052 33.2639 223.75L34.0042 225.608ZM38.8005 221.951C39.9066 220.305 40.4225 218.329 40.4038 216.077L38.4039 216.094C38.4199 218.024 37.9803 219.586 37.1406 220.835L38.8005 221.951ZM40.4038 216.077C40.3852 213.826 39.8367 211.864 38.7007 210.25L37.0651 211.401C37.9223 212.619 38.3879 214.163 38.4039 216.094L40.4038 216.077ZM38.6994 210.248C37.5529 208.627 35.9124 207.444 33.8407 206.674L33.1442 208.549C34.9026 209.202 36.1891 210.162 37.0664 211.403L38.6994 210.248ZM33.8447 206.676C31.7664 205.894 29.2773 205.533 26.407 205.557L26.4236 207.557C29.1288 207.534 31.3578 207.877 33.1402 208.548L33.8447 206.676ZM2.75846 160.359L1.7585 160.368L1.76679 161.368L2.76676 161.359L2.75846 160.359ZM2.65363 147.723L2.64533 146.723L1.64537 146.732L1.65366 147.732L2.65363 147.723ZM41.6961 149.945L41.1552 150.786L41.1564 150.787L41.6961 149.945ZM47.7316 156.941L48.6358 156.513L48.6341 156.51L47.7316 156.941ZM47.9062 177.985L48.8157 178.401L48.8174 178.397L47.9062 177.985ZM41.9876 185.08L42.5356 185.917L42.5413 185.913L41.9876 185.08ZM2.98699 187.904L1.98702 187.912L1.99532 188.912L2.99528 188.904L2.98699 187.904ZM2.88215 175.268L2.87386 174.268L1.87389 174.276L1.88219 175.276L2.88215 175.268ZM35.464 174.043L35.9599 174.911L35.9648 174.908L35.464 174.043ZM38.0784 171.385L38.9522 171.871L38.955 171.866L38.0784 171.385ZM38.0143 163.658L38.8799 163.157L38.0143 163.658ZM35.3562 161.043L35.8426 160.17L35.8375 160.167L35.3562 161.043ZM3.75843 160.351L3.65359 147.715L1.65366 147.732L1.7585 160.368L3.75843 160.351ZM2.66192 148.723L32.4791 148.476L32.4625 146.476L2.64533 146.723L2.66192 148.723ZM32.4791 148.476C35.8587 148.448 38.7368 149.231 41.1552 150.786L42.2371 149.104C39.4457 147.309 36.1735 146.445 32.4625 146.476L32.4791 148.476ZM41.1564 150.787C43.5764 152.338 45.4686 154.522 46.8292 157.371L48.6341 156.51C47.1266 153.353 44.9951 150.872 42.2359 149.103L41.1564 150.787ZM46.8275 157.368C48.1734 160.217 48.8775 163.563 48.9096 167.431L50.9096 167.415C50.8755 163.313 50.1277 159.671 48.6358 156.513L46.8275 157.368ZM48.9096 167.431C48.942 171.331 48.2931 174.703 46.9951 177.573L48.8174 178.397C50.2571 175.214 50.9438 171.545 50.9096 167.415L48.9096 167.431ZM46.9968 177.569C45.6837 180.441 43.8279 182.656 41.434 184.247L42.5413 185.913C45.2708 184.098 47.3608 181.583 48.8157 178.401L46.9968 177.569ZM41.4397 184.244C39.0463 185.811 36.179 186.628 32.7958 186.656L32.8124 188.656C36.52 188.626 39.775 187.725 42.5356 185.917L41.4397 184.244ZM32.7958 186.656L2.97869 186.904L2.99528 188.904L32.8124 188.656L32.7958 186.656ZM3.98695 187.895L3.88212 175.26L1.88219 175.276L1.98702 187.912L3.98695 187.895ZM2.89045 176.268L31.6167 176.029L31.6001 174.03L2.87386 174.268L2.89045 176.268ZM31.6167 176.029C33.2088 176.016 34.665 175.651 35.9598 174.911L34.9682 173.175C34.0009 173.727 32.8868 174.019 31.6001 174.03L31.6167 176.029ZM35.9648 174.908C37.237 174.172 38.2373 173.155 38.9522 171.871L37.2047 170.898C36.6654 171.867 35.9228 172.622 34.9632 173.177L35.9648 174.908ZM38.955 171.866C39.6727 170.559 40.0141 169.097 40.0008 167.505L38.0009 167.522C38.0116 168.808 37.738 169.927 37.2019 170.903L38.955 171.866ZM40.0008 167.505C39.9875 165.9 39.6228 164.441 38.8799 163.157L37.1488 164.159C37.6971 165.106 37.9901 166.218 38.0009 167.522L40.0008 167.505ZM38.8799 163.157C38.1438 161.885 37.1267 160.884 35.8425 160.17L34.8698 161.917C35.8385 162.456 36.5935 163.199 37.1488 164.159L38.8799 163.157ZM35.8375 160.167C34.5306 159.449 33.0685 159.108 31.4765 159.121L31.493 161.121C32.7797 161.11 33.8985 161.384 34.8748 161.92L35.8375 160.167ZM31.4765 159.121L2.75017 159.359L2.76676 161.359L31.493 161.121L31.4765 159.121ZM12.7958 142.906L12.8041 143.906L13.8041 143.898L13.7958 142.898L12.7958 142.906ZM2.61436 142.991L1.6144 142.999L1.62269 143.999L2.62266 143.99L2.61436 142.991ZM2.27874 102.537L2.27044 101.537L1.27048 101.546L1.27878 102.546L2.27874 102.537ZM12.4602 102.453L13.4602 102.445L13.4519 101.445L12.4519 101.453L12.4602 102.453ZM12.5764 116.452L11.5764 116.461L11.5847 117.461L12.5847 117.452L12.5764 116.452ZM48.9387 116.151L49.9387 116.142L49.9304 115.142L48.9304 115.151L48.9387 116.151ZM49.0421 128.605L49.0504 129.605L50.0503 129.597L50.042 128.597L49.0421 128.605ZM12.6797 128.907L12.6714 127.907L11.6714 127.915L11.6797 128.915L12.6797 128.907ZM12.7875 141.906L2.60607 141.991L2.62266 143.99L12.8041 143.906L12.7875 141.906ZM3.61433 142.982L3.27871 102.529L1.27878 102.546L1.6144 142.999L3.61433 142.982ZM2.28704 103.537L12.4685 103.453L12.4519 101.453L2.27044 101.537L2.28704 103.537ZM11.4602 102.461L11.5764 116.461L13.5763 116.444L13.4602 102.445L11.4602 102.461ZM12.5847 117.452L48.947 117.151L48.9304 115.151L12.5681 115.452L12.5847 117.452ZM47.9388 116.159L48.0421 128.613L50.042 128.597L49.9387 116.142L47.9388 116.159ZM49.0338 127.605L12.6714 127.907L12.688 129.907L49.0504 129.605L49.0338 127.605ZM11.6797 128.915L11.7959 142.914L13.7958 142.898L13.6797 128.898L11.6797 128.915ZM1.90499 57.4878L0.90502 57.4961L0.913316 58.496L1.91328 58.4877L1.90499 57.4878ZM1.80015 44.8519L1.79185 43.8519L0.791889 43.8602L0.800185 44.8602L1.80015 44.8519ZM40.8427 47.0735L40.3017 47.9145L40.3029 47.9153L40.8427 47.0735ZM46.8782 54.0691L47.7824 53.6419L47.7806 53.6382L46.8782 54.0691ZM47.0528 75.1139L47.9622 75.5297L47.9639 75.5259L47.0528 75.1139ZM41.1342 82.2086L41.6821 83.0452L41.6878 83.0414L41.1342 82.2086ZM2.13351 85.0323L1.13354 85.0406L1.14184 86.0406L2.14181 86.0323L2.13351 85.0323ZM2.02868 72.3964L2.02038 71.3964L1.02041 71.4047L1.02871 72.4047L2.02868 72.3964ZM34.6105 71.1715L35.1064 72.0399L35.1113 72.037L34.6105 71.1715ZM37.2249 68.5133L38.0987 68.9997L38.1015 68.9947L37.2249 68.5133ZM37.1608 60.7863L38.0264 60.2855L37.1608 60.7863ZM34.5027 58.1719L34.9891 57.2982L34.984 57.2954L34.5027 58.1719ZM2.90495 57.4795L2.80012 44.8436L0.800185 44.8602L0.90502 57.4961L2.90495 57.4795ZM1.80845 45.8518L31.6256 45.6044L31.609 43.6045L1.79185 43.8519L1.80845 45.8518ZM31.6256 45.6044C35.0052 45.5764 37.8833 46.3591 40.3017 47.9145L41.3836 46.2324C38.5922 44.4371 35.32 43.5737 31.609 43.6045L31.6256 45.6044ZM40.3029 47.9153C42.7229 49.4669 44.6151 51.6504 45.9758 54.5L47.7806 53.6382C46.2731 50.4811 44.1417 48.0008 41.3824 46.2317L40.3029 47.9153ZM45.974 54.4963C47.3199 57.3452 48.0241 60.6914 48.0562 64.5597L50.0561 64.5431C50.0221 60.442 49.2743 56.8 47.7824 53.6419L45.974 54.4963ZM48.0562 64.5597C48.0885 68.4595 47.4396 71.8318 46.1416 74.7018L47.9639 75.5259C49.4036 72.3426 50.0904 68.6733 50.0561 64.5431L48.0562 64.5597ZM46.1433 74.698C44.8302 77.5698 42.9744 79.7843 40.5805 81.3759L41.6878 83.0414C44.4173 81.2267 46.5073 78.7114 47.9622 75.5297L46.1433 74.698ZM40.5862 81.3721C38.1928 82.94 35.3255 83.7569 31.9424 83.785L31.959 85.7849C35.6665 85.7541 38.9215 84.8535 41.6821 83.0451L40.5862 81.3721ZM31.9424 83.785L2.12521 84.0323L2.14181 86.0323L31.959 85.7849L31.9424 83.785ZM3.13348 85.024L3.02864 72.3881L1.02871 72.4047L1.13354 85.0406L3.13348 85.024ZM2.03697 73.3963L30.7633 73.158L30.7467 71.1581L2.02038 71.3964L2.03697 73.3963ZM30.7633 73.158C32.3553 73.1448 33.8115 72.7792 35.1064 72.0399L34.1147 70.3031C33.1475 70.8553 32.0333 71.1474 30.7467 71.1581L30.7633 73.158ZM35.1113 72.037C36.3835 71.301 37.3838 70.2839 38.0987 68.9997L36.3512 68.0269C35.812 68.9957 35.0694 69.7507 34.1097 70.3059L35.1113 72.037ZM38.1015 68.9947C38.8192 67.6878 39.1606 66.2256 39.1474 64.6336L37.1474 64.6502C37.1581 65.9369 36.8845 67.0557 36.3484 68.032L38.1015 68.9947ZM39.1474 64.6336C39.1341 63.0287 38.7694 61.5696 38.0264 60.2855L36.2953 61.2871C36.8436 62.2348 37.1366 63.3461 37.1474 64.6502L39.1474 64.6336ZM38.0264 60.2855C37.2903 59.0134 36.2733 58.013 34.9891 57.2982L34.0163 59.0457C34.985 59.5849 35.74 60.3275 36.2953 61.2871L38.0264 60.2855ZM34.984 57.2954C33.6771 56.5777 32.215 56.2363 30.623 56.2495L30.6396 58.2494C31.9262 58.2387 33.0451 58.5123 34.0213 59.0484L34.984 57.2954ZM30.623 56.2495L1.89669 56.4878L1.91328 58.4877L30.6396 58.2494L30.623 56.2495ZM16.0871 13.6357L16.1751 14.6318L17.0947 14.5505L17.0871 13.6274L16.0871 13.6357ZM12.5559 15.3696L13.3238 16.0102L13.3285 16.0045L12.5559 15.3696ZM11.825 23.1486L12.7599 22.7935L12.7562 22.7842L11.825 23.1486ZM13.09 24.9564L12.5004 25.764L12.5004 25.764L13.09 24.9564ZM14.9132 25.5549L14.9589 24.556L14.9431 24.5552L14.9272 24.555L14.9132 25.5549ZM16.4335 25.2468L16.8881 26.1375L16.9061 26.1283L16.9238 26.1184L16.4335 25.2468ZM17.6285 24.1005L18.4503 24.6704L18.4559 24.6622L18.4614 24.6539L17.6285 24.1005ZM19.3156 19.2454L18.336 19.044L18.3344 19.0523L19.3156 19.2454ZM20.1021 15.4206L21.0816 15.622L21.0821 15.6197L20.1021 15.4206ZM22.2062 8.78929L23.1087 9.22008L22.2062 8.78929ZM25.3279 4.26324L26.0273 4.97795L26.0318 4.97352L25.3279 4.26324ZM29.3519 1.66156L29.7014 2.59854L29.7097 2.59536L29.3519 1.66156ZM34.2536 0.757245L34.2503 -0.242854L34.2368 -0.24262L34.2536 0.757245ZM42.0451 2.98812L42.6196 2.16961L42.0451 2.98812ZM46.9398 9.44774L46.012 9.8208L46.0127 9.82251L46.9398 9.44774ZM46.9752 30.1527L47.9071 30.5156L47.9077 30.5139L46.9752 30.1527ZM41.5108 37.1983L42.0689 38.0281L42.0747 38.0241L41.5108 37.1983ZM31.9409 39.7778L30.9409 39.7861L30.9493 40.7899L31.9531 40.7777L31.9409 39.7778ZM31.8414 27.7782L31.78 26.7801L30.8335 26.8383L30.8414 27.7865L31.8414 27.7782ZM35.4233 26.6803L35.9789 27.5117L35.4233 26.6803ZM37.6055 23.9802L38.526 24.3709L38.5279 24.3665L37.6055 23.9802ZM37.7929 16.433L38.7289 16.0809L37.7929 16.433ZM36.3894 14.3763L37.0051 13.5884L36.3894 14.3763ZM34.3607 13.6659L34.3724 12.6659L34.3518 12.6657L34.3312 12.6663L34.3607 13.6659ZM32.503 14.3859L33.1368 15.1594L33.1486 15.1497L33.1601 15.1397L32.503 14.3859ZM31.0666 16.5797L31.9877 16.9693L31.9924 16.9576L31.0666 16.5797ZM29.8735 20.7034L28.895 20.4973L28.8943 20.5006L29.8735 20.7034ZM28.912 25.3478L29.891 25.5517L29.8912 25.5506L28.912 25.3478ZM24.5158 35.1347L25.2679 35.7937L25.2723 35.7886L24.5158 35.1347ZM15.9317 38.7287L15.9275 37.7287L15.9182 37.7288L15.9317 38.7287ZM8.16232 36.4295L7.58418 37.2454L7.5852 37.2461L8.16232 36.4295ZM2.9027 29.8138L1.98944 30.2212L1.99025 30.223L2.9027 29.8138ZM2.76327 10.2688L3.67569 10.6781L2.76327 10.2688ZM8.02867 3.88401L8.58003 4.7183L8.58642 4.71401L8.02867 3.88401ZM15.9868 1.54517L16.9868 1.53687L16.9784 0.531934L15.9735 0.545277L15.9868 1.54517ZM15.9991 12.6395C14.2609 12.7931 12.8196 13.4737 11.7834 14.7346L13.3285 16.0045C13.9723 15.2211 14.8851 14.7458 16.1751 14.6318L15.9991 12.6395ZM11.7881 14.7289C10.7312 15.9956 10.3033 17.8001 10.3212 19.9565L12.3211 19.9399C12.3051 18.0054 12.7003 16.7575 13.3238 16.0102L11.7881 14.7289ZM10.3212 19.9565C10.3326 21.3302 10.5088 22.5294 10.8938 23.5131L12.7562 22.7842C12.491 22.1066 12.3313 21.1721 12.3211 19.9399L10.3212 19.9565ZM10.8902 23.5037C11.2471 24.4435 11.7675 25.229 12.5004 25.764L13.6797 24.1487C13.3455 23.9047 13.0225 23.4851 12.7598 22.7936L10.8902 23.5037ZM12.5004 25.764C13.207 26.2799 14.0174 26.5425 14.8993 26.5548L14.9272 24.555C14.4453 24.5483 14.0402 24.4119 13.6797 24.1487L12.5004 25.764ZM14.8675 26.5539C15.5831 26.5866 16.2651 26.4555 16.8881 26.1375L15.9788 24.3561C15.6965 24.5002 15.365 24.5745 14.9589 24.556L14.8675 26.5539ZM16.9238 26.1184C17.5224 25.7816 18.0262 25.2818 18.4503 24.6704L16.8068 23.5306C16.5122 23.9555 16.2193 24.22 15.9431 24.3753L16.9238 26.1184ZM18.4614 24.6539C18.8654 24.0459 19.2114 23.3024 19.5108 22.445L17.6225 21.7857C17.3595 22.5392 17.08 23.1191 16.7956 23.5471L18.4614 24.6539ZM19.5108 22.445C19.8116 21.5835 20.0723 20.5789 20.2968 19.4386L18.3344 19.0523C18.1227 20.1277 17.8841 21.0365 17.6225 21.7857L19.5108 22.445ZM20.2951 19.4468L21.0816 15.622L19.1226 15.2192L18.3361 19.044L20.2951 19.4468ZM21.0821 15.6197C21.5943 13.0977 22.2737 10.9692 23.1087 9.22008L21.3038 8.35847C20.3814 10.2907 19.658 12.5831 19.1221 15.2216L21.0821 15.6197ZM23.1087 9.22008C23.9472 7.46343 24.9244 6.05727 26.0273 4.97795L24.6284 3.54853C23.3266 4.82256 22.2226 6.43376 21.3038 8.35847L23.1087 9.22008ZM26.0318 4.97352C27.1232 3.89195 28.3451 3.10447 29.7014 2.59851L29.0023 0.724638C27.3678 1.33444 25.9071 2.28138 24.624 3.55293L26.0318 4.97352ZM29.7097 2.59536C31.085 2.06831 32.6021 1.7852 34.2705 1.75711L34.2368 -0.24262C32.36 -0.210996 30.6093 0.108776 28.994 0.727789L29.7097 2.59536ZM34.257 1.75722C37.1479 1.74755 39.5341 2.44753 41.4707 3.80667L42.6196 2.16961C40.2887 0.533706 37.4806 -0.253571 34.2503 -0.242762L34.257 1.75722ZM41.4707 3.80667C43.4217 5.17596 44.9429 7.16183 46.012 9.8208L47.8676 9.0747C46.6779 6.11587 44.936 3.79531 42.6196 2.16961L41.4707 3.80667ZM46.0127 9.82251C47.0829 12.47 47.6508 15.7053 47.6828 19.5556L49.6827 19.539C49.6493 15.5107 49.0553 12.013 47.8669 9.073L46.0127 9.82251ZM47.6828 19.5556C47.7155 23.5047 47.1593 26.9094 46.0427 29.7915L47.9077 30.5139C49.135 27.346 49.7171 23.6805 49.6827 19.539L47.6828 19.5556ZM46.0434 29.7899C44.9384 32.6275 43.2379 34.8081 40.9468 36.3724L42.0747 38.0241C44.7255 36.2141 46.668 33.6976 47.9071 30.5156L46.0434 29.7899ZM40.9527 36.3685C38.6699 37.9039 35.6853 38.7321 31.9287 38.7778L31.9531 40.7777C35.9839 40.7286 39.3792 39.8371 42.0688 38.0281L40.9527 36.3685ZM32.9409 39.7695L32.8413 27.7699L30.8414 27.7865L30.9409 39.7861L32.9409 39.7695ZM31.9028 28.7763C33.4626 28.6804 34.8371 28.2746 35.9789 27.5117L34.8677 25.8488C34.0807 26.3746 33.0673 26.7009 31.78 26.7801L31.9028 28.7763ZM35.9789 27.5117C37.1186 26.7501 37.966 25.6904 38.526 24.3709L36.685 23.5896C36.2641 24.5813 35.6567 25.3216 34.8677 25.8488L35.9789 27.5117ZM38.5279 24.3665C39.0824 23.0424 39.3351 21.5136 39.3209 19.8068L37.321 19.8234C37.3335 21.3286 37.1092 22.5765 36.6831 23.594L38.5279 24.3665ZM39.3209 19.8068C39.3091 18.3835 39.1238 17.131 38.7289 16.0809L36.8569 16.785C37.1437 17.5475 37.3104 18.5497 37.321 19.8234L39.3209 19.8068ZM38.7289 16.0809C38.3413 15.0505 37.7803 14.1941 37.0051 13.5884L35.7737 15.1643C36.1881 15.4881 36.5627 16.0028 36.8569 16.785L38.7289 16.0809ZM37.0051 13.5884C36.237 12.9881 35.3483 12.6774 34.3724 12.6659L34.349 14.6658C34.8885 14.6721 35.3523 14.835 35.7737 15.1643L37.0051 13.5884ZM34.3312 12.6663C33.3929 12.6941 32.5506 13.0178 31.8459 13.632L33.1601 15.1397C33.5084 14.8361 33.9046 14.6798 34.3903 14.6654L34.3312 12.6663ZM31.8692 13.6123C31.1455 14.2053 30.587 15.1086 30.1408 16.2017L31.9924 16.9576C32.3778 16.0135 32.7769 15.4542 33.1368 15.1594L31.8692 13.6123ZM30.1456 16.1901C29.6794 17.2923 29.2658 18.7366 28.895 20.4973L30.852 20.9095C31.2101 19.2095 31.5919 17.9046 31.9876 16.9693L30.1456 16.1901ZM28.8943 20.5006L27.9328 25.1451L29.8912 25.5506L30.8527 20.9061L28.8943 20.5006ZM27.933 25.144C27.0969 29.1592 25.6883 32.249 23.7592 34.4807L25.2723 35.7886C27.4855 33.2282 29.0077 29.7935 29.891 25.5517L27.933 25.144ZM23.7637 34.4756C21.8952 36.6079 19.3244 37.7147 15.9275 37.7287L15.9358 39.7287C19.8116 39.7127 22.9636 38.4234 25.2679 35.7937L23.7637 34.4756ZM15.9182 37.7288C13.1564 37.7659 10.7774 37.053 8.73943 35.6128L7.5852 37.2461C9.99775 38.951 12.7983 39.7709 15.9451 39.7287L15.9182 37.7288ZM8.74045 35.6135C6.66349 34.1419 5.01741 32.0856 3.81516 29.4046L1.99025 30.223C3.31977 33.1878 5.1801 35.542 7.58418 37.2454L8.74045 35.6135ZM3.81596 29.4064C2.61537 26.715 1.98744 23.595 1.95783 20.0258L-0.042102 20.0424C-0.0106231 23.8366 0.658009 27.2364 1.98944 30.2212L3.81596 29.4064ZM1.95783 20.0258C1.92756 16.3779 2.51239 13.2715 3.67569 10.6781L1.85086 9.85954C0.544597 12.7717 -0.0741844 16.1755 -0.042102 20.0424L1.95783 20.0258ZM3.67569 10.6781C4.84137 8.07936 6.47928 6.10657 8.58001 4.71827L7.47733 3.04972C5.0271 4.66898 3.15474 6.95275 1.85086 9.85954L3.67569 10.6781ZM8.58642 4.71401C10.6668 3.31605 13.1252 2.58323 16.0001 2.54509L15.9735 0.545277C12.758 0.587947 9.91094 1.41436 7.47092 3.05398L8.58642 4.71401ZM14.9868 1.55347L15.0872 13.644L17.0871 13.6274L16.9868 1.53687L14.9868 1.55347Z" fill="#05C2DF" fill-opacity="0.03" mask="url(#path-1-outside-1_3495_4400)"/>
</svg>
