<svg width="51" height="334" viewBox="0 0 51 334" fill="none" xmlns="http://www.w3.org/2000/svg">
<mask id="path-1-outside-1_3495_4394" maskUnits="userSpaceOnUse" x="-0.999649" y="-1.44779" width="53.7858" height="336.412" fill="black">
<rect fill="white" x="-0.999649" y="-1.44779" width="53.7858" height="336.412"/>
<path d="M1.12548 14.0491L1.01235 0.413222L47.6837 15.3902L47.827 32.6623L1.41057 48.4116L1.29744 34.7757L34.9391 24.3144L34.9361 23.9508L1.12548 14.0491ZM19.4674 11.3514L19.6801 36.9869L10.2258 37.0653L10.0131 11.4298L19.4674 11.3514ZM1.44777 52.8944L47.9916 52.5082L48.1591 72.6893C48.1885 76.2347 47.7359 79.2158 46.8014 81.6327C45.867 84.0648 44.5337 85.9017 42.8015 87.1434C41.0695 88.4002 39.0217 89.0384 36.6581 89.058C34.946 89.0723 33.3823 88.7064 31.967 87.9606C30.5518 87.2299 29.3614 86.1942 28.3957 84.8537C27.4451 83.5131 26.7805 81.9428 26.402 80.1428L25.9474 80.1466C25.8883 82.1472 25.3958 83.9695 24.47 85.6136C23.5594 87.2576 22.2899 88.5712 20.6617 89.5544C19.0486 90.5375 17.1436 91.0382 14.9467 91.0564C12.4013 91.0775 10.1307 90.4297 8.13484 89.1129C6.13913 87.8112 4.56299 85.9454 3.40642 83.5155C2.24986 81.0857 1.65756 78.1814 1.62953 74.8027L1.44777 52.8944ZM11.6432 65.4466L11.6922 71.3555C11.7098 73.4766 12.1169 75.0642 12.9136 76.1182C13.7254 77.1721 14.9115 77.6926 16.4721 77.6797C17.563 77.6706 18.4851 77.413 19.2385 76.9067C19.9919 76.4004 20.5617 75.6836 20.948 74.7561C21.3344 73.8437 21.5222 72.7437 21.5115 71.4558L21.461 65.3651L11.6432 65.4466ZM29.2789 65.3003L29.3219 70.4819C29.3311 71.5879 29.5134 72.5637 29.8689 73.4093C30.2245 74.2549 30.7299 74.9098 31.3853 75.374C32.056 75.8533 32.8686 76.089 33.8231 76.0811C35.2624 76.0692 36.3566 75.5449 37.1056 74.5084C37.8697 73.4717 38.2453 72.1655 38.2322 70.5898L38.1877 65.2264L29.2789 65.3003ZM25.4485 140.539C20.2668 140.582 15.8874 139.611 12.3102 137.625C8.74814 135.64 6.03627 132.942 4.17459 129.533C2.32807 126.124 1.38733 122.314 1.35238 118.102C1.31719 113.86 2.20202 110.019 4.00688 106.58C5.82702 103.155 8.5014 100.421 12.03 98.3763C15.5739 96.3469 19.9215 95.3107 25.0729 95.268C30.2545 95.225 34.6263 96.1888 38.1882 98.1593C41.7654 100.145 44.4772 102.835 46.3236 106.228C48.1853 109.637 49.1337 113.463 49.1689 117.705C49.2039 121.917 48.3189 125.743 46.514 129.182C44.7243 132.621 42.0576 135.363 38.5138 137.408C34.9852 139.452 30.6301 140.496 25.4485 140.539ZM25.3406 127.54C28.1284 127.517 30.4737 127.126 32.3766 126.368C34.2947 125.624 35.7402 124.529 36.7131 123.081C37.7012 121.649 38.1866 119.887 38.1693 117.796C38.152 115.706 37.6373 113.945 36.6254 112.514C35.6288 111.098 34.1653 110.026 32.235 109.3C30.3199 108.589 27.9685 108.244 25.1807 108.268C22.3929 108.291 20.04 108.674 18.1218 109.417C16.219 110.175 14.7734 111.271 13.7853 112.703C12.8124 114.151 12.3347 115.92 12.352 118.011C12.3694 120.102 12.8763 121.855 13.873 123.271C14.8849 124.702 16.3484 125.773 18.2634 126.485C20.1938 127.211 22.5528 127.563 25.3406 127.54ZM48.9974 173.737L49.1022 186.373L19.2851 186.62C15.7398 186.65 12.6646 185.827 10.0597 184.151C7.47012 182.491 5.45828 180.159 4.02422 177.156C2.60532 174.152 1.87934 170.658 1.84628 166.673C1.81296 162.658 2.48075 159.138 3.84962 156.111C5.23365 153.084 7.20652 150.719 9.76824 149.016C12.3452 147.328 15.4064 146.469 18.9517 146.44L48.7689 146.192L48.8737 158.828L20.1474 159.067C18.7081 159.079 17.4229 159.408 16.2919 160.053C15.176 160.699 14.3045 161.585 13.6774 162.711C13.0505 163.853 12.7431 165.144 12.755 166.583C12.7671 168.037 13.0959 169.323 13.7416 170.438C14.3872 171.554 15.2733 172.426 16.3997 173.053C17.5413 173.68 18.8318 173.987 20.2711 173.975L48.9974 173.737ZM38.96 191.19L49.1415 191.106L49.4771 231.559L39.2957 231.643L39.1795 217.644L2.81713 217.946L2.71381 205.491L39.0762 205.19L38.96 191.19ZM49.8509 276.608L49.9557 289.244L20.1386 289.492C16.5932 289.521 13.5181 288.698 10.9132 287.023C8.32361 285.362 6.31177 283.031 4.87771 280.027C3.4588 277.024 2.73282 273.53 2.69976 269.545C2.66645 265.53 3.33423 262.009 4.70311 258.982C6.08714 255.956 8.06001 253.591 10.6217 251.888C13.1987 250.2 16.2599 249.341 19.8052 249.311L49.6224 249.064L49.7272 261.7L21.0009 261.938C19.5616 261.95 18.2764 262.279 17.1453 262.925C16.0294 263.57 15.158 264.456 14.5309 265.583C13.904 266.725 13.5965 268.015 13.6085 269.454C13.6205 270.909 13.9494 272.194 14.595 273.31C15.2407 274.426 16.1267 275.297 17.2532 275.924C18.3948 276.551 19.6853 276.859 21.1246 276.847L49.8509 276.608ZM35.6688 320.461C37.1829 320.327 38.3599 319.749 39.2 318.727C40.0401 317.72 40.4517 316.193 40.4347 314.148C40.4239 312.845 40.256 311.778 39.9309 310.948C39.6211 310.132 39.1994 309.529 38.6659 309.14C38.1323 308.75 37.5246 308.551 36.8426 308.541C36.2818 308.516 35.7751 308.618 35.3224 308.849C34.8851 309.095 34.4867 309.478 34.1273 309.996C33.7831 310.514 33.4704 311.175 33.1892 311.981C32.908 312.786 32.6584 313.743 32.4403 314.851L31.6538 318.676C31.1298 321.256 30.4284 323.466 29.5497 325.307C28.671 327.148 27.6304 328.656 26.428 329.833C25.2408 331.01 23.8994 331.877 22.404 332.435C20.9087 333.008 19.2748 333.309 17.5023 333.339C14.4416 333.349 11.8445 332.606 9.71075 331.108C7.57704 329.611 5.94549 327.457 4.81608 324.649C3.68681 321.855 3.10583 318.488 3.07314 314.549C3.03958 310.504 3.60876 306.969 4.78067 303.944C5.95271 300.934 7.7742 298.585 10.2451 296.898C12.7313 295.226 15.9213 294.366 19.815 294.318L19.9145 306.318C18.491 306.406 17.297 306.772 16.3326 307.416C15.3682 308.06 14.6408 308.96 14.1504 310.116C13.6601 311.287 13.4216 312.675 13.4349 314.281C13.4461 315.63 13.6221 316.757 13.963 317.663C14.3039 318.57 14.7717 319.255 15.3665 319.72C15.9613 320.185 16.6375 320.422 17.3952 320.43C18.1071 320.409 18.7264 320.169 19.2529 319.71C19.7947 319.266 20.2735 318.535 20.6893 317.517C21.1202 316.498 21.5179 315.123 21.8824 313.393L22.8439 308.748C23.7036 304.62 25.169 301.358 27.2401 298.962C29.3265 296.581 32.1879 295.383 35.8242 295.368C38.7785 295.328 41.3683 296.094 43.5936 297.667C45.8341 299.254 47.5873 301.46 48.8532 304.282C50.1192 307.121 50.7675 310.38 50.798 314.062C50.8292 317.82 50.2274 321.075 48.9926 323.827C47.7578 326.58 46.0027 328.708 43.7272 330.212C41.467 331.731 38.8143 332.511 35.7691 332.551L35.6688 320.461Z"/>
</mask>
<path d="M1.12548 14.0491L0.125516 14.0574L0.131678 14.8001L0.844433 15.0088L1.12548 14.0491ZM1.01235 0.413222L1.31791 -0.538952L0.000909095 -0.96158L0.0123841 0.421518L1.01235 0.413222ZM47.6837 15.3902L48.6836 15.3819L48.6776 14.6589L47.9892 14.438L47.6837 15.3902ZM47.827 32.6623L48.1483 33.6093L48.8329 33.377L48.8269 32.654L47.827 32.6623ZM1.41057 48.4116L0.410609 48.4199L0.422084 49.803L1.73189 49.3585L1.41057 48.4116ZM1.29744 34.7757L1.00051 33.8208L0.291315 34.0413L0.297477 34.784L1.29744 34.7757ZM34.9391 24.3144L35.236 25.2693L35.9452 25.0488L35.939 24.3061L34.9391 24.3144ZM34.9361 23.9508L35.936 23.9425L35.9299 23.1998L35.2171 22.9911L34.9361 23.9508ZM19.4674 11.3514L20.4673 11.3431L20.459 10.3431L19.4591 10.3514L19.4674 11.3514ZM19.6801 36.9869L19.6884 37.9868L20.6883 37.9786L20.68 36.9786L19.6801 36.9869ZM10.2258 37.0653L9.22587 37.0736L9.23417 38.0736L10.2341 38.0653L10.2258 37.0653ZM10.0131 11.4298L10.0049 10.4299L9.00489 10.4382L9.01318 11.4381L10.0131 11.4298ZM2.12545 14.0408L2.01232 0.404926L0.0123841 0.421518L0.125516 14.0574L2.12545 14.0408ZM0.706793 1.3654L47.3781 16.3423L47.9892 14.438L1.31791 -0.538952L0.706793 1.3654ZM46.6837 15.3985L46.827 32.6706L48.8269 32.654L48.6836 15.3819L46.6837 15.3985ZM47.5057 31.7153L1.08926 47.4646L1.73189 49.3585L48.1483 33.6093L47.5057 31.7153ZM2.41054 48.4033L2.29741 34.7674L0.297477 34.784L0.410609 48.4199L2.41054 48.4033ZM1.59438 35.7306L35.236 25.2693L34.6421 23.3595L1.00051 33.8208L1.59438 35.7306ZM35.939 24.3061L35.936 23.9425L33.9361 23.9591L33.9391 24.3227L35.939 24.3061ZM35.2171 22.9911L1.40653 13.0894L0.844433 15.0088L34.655 24.9105L35.2171 22.9911ZM18.4674 11.3597L18.6801 36.9952L20.68 36.9786L20.4673 11.3431L18.4674 11.3597ZM19.6718 35.9869L10.2175 36.0654L10.2341 38.0653L19.6884 37.9868L19.6718 35.9869ZM11.2258 37.057L11.0131 11.4215L9.01318 11.4381L9.22587 37.0736L11.2258 37.057ZM10.0214 12.4298L19.4757 12.3514L19.4591 10.3514L10.0049 10.4299L10.0214 12.4298ZM1.44777 52.8944L1.43947 51.8944L0.439504 51.9027L0.447801 52.9027L1.44777 52.8944ZM47.9916 52.5082L48.9916 52.4999L48.9833 51.5L47.9833 51.5082L47.9916 52.5082ZM46.8014 81.6327L45.8687 81.2721L45.8679 81.2741L46.8014 81.6327ZM42.8015 87.1434L42.2189 86.3306L42.2142 86.334L42.8015 87.1434ZM31.967 87.9606L32.4332 87.0759L32.4258 87.072L31.967 87.9606ZM28.3957 84.8537L27.5799 85.4321L27.5843 85.4382L28.3957 84.8537ZM26.402 80.1428L27.3805 79.937L27.2121 79.1361L26.3937 79.1429L26.402 80.1428ZM25.9474 80.1466L25.9391 79.1466L24.9763 79.1546L24.9479 80.117L25.9474 80.1466ZM24.47 85.6136L23.5986 85.1229L23.5952 85.129L24.47 85.6136ZM20.6617 89.5544L20.1447 88.6984L20.1412 88.7005L20.6617 89.5544ZM8.13484 89.1129L8.68556 88.2782L8.68114 88.2753L8.13484 89.1129ZM3.40642 83.5155L4.30936 83.0858L3.40642 83.5155ZM11.6432 65.4466L11.6349 64.4466L10.6349 64.4549L10.6432 65.4549L11.6432 65.4466ZM12.9136 76.1182L12.1158 76.7212L12.1213 76.7285L12.9136 76.1182ZM20.948 74.7561L20.0272 74.3661L20.0248 74.3716L20.948 74.7561ZM21.461 65.3651L22.461 65.3568L22.4527 64.3569L21.4527 64.3652L21.461 65.3651ZM29.2789 65.3003L29.2706 64.3003L28.2707 64.3086L28.279 65.3086L29.2789 65.3003ZM29.8689 73.4093L28.9471 73.7969L29.8689 73.4093ZM31.3853 75.374L31.9667 74.5605L31.9633 74.558L31.3853 75.374ZM37.1056 74.5084L36.3006 73.915L36.295 73.9227L37.1056 74.5084ZM38.1877 65.2264L39.1877 65.2181L39.1794 64.2181L38.1794 64.2264L38.1877 65.2264ZM1.45606 53.8943L47.9999 53.5082L47.9833 51.5082L1.43947 51.8944L1.45606 53.8943ZM46.9917 52.5165L47.1591 72.6976L49.159 72.681L48.9916 52.4999L46.9917 52.5165ZM47.1591 72.6976C47.1878 76.1602 46.7443 79.0074 45.8687 81.2721L47.7341 81.9934C48.7275 79.4242 49.1891 76.3091 49.159 72.681L47.1591 72.6976ZM45.8679 81.2741C44.9879 83.5647 43.7601 85.2259 42.2189 86.3306L43.3841 87.9561C45.3073 86.5775 46.7461 84.565 47.7349 81.9914L45.8679 81.2741ZM42.2142 86.334C40.6682 87.4559 38.828 88.04 36.6498 88.0581L36.6664 90.058C39.2153 90.0369 41.4707 89.3446 43.3888 87.9527L42.2142 86.334ZM36.6498 88.0581C35.0911 88.071 33.6921 87.7393 32.4332 87.0759L31.5008 88.8452C33.0725 89.6735 34.801 90.0735 36.6664 90.058L36.6498 88.0581ZM32.4258 87.072C31.1557 86.4162 30.0843 85.487 29.207 84.2692L27.5843 85.4382C28.6384 86.9015 29.9479 88.0435 31.5082 88.8491L32.4258 87.072ZM29.2114 84.2753C28.349 83.059 27.7343 81.6189 27.3805 79.937L25.4234 80.3487C25.8268 82.2666 26.5412 83.9671 27.5799 85.4321L29.2114 84.2753ZM26.3937 79.1429L25.9391 79.1466L25.9557 81.1466L26.4103 81.1428L26.3937 79.1429ZM24.9479 80.117C24.8932 81.9659 24.4402 83.6285 23.5987 85.1229L25.3414 86.1042C26.3514 84.3105 26.8833 82.3284 26.947 80.1762L24.9479 80.117ZM23.5952 85.129C22.7704 86.6181 21.6252 87.8044 20.1447 88.6984L21.1786 90.4104C22.9547 89.3379 24.3483 87.897 25.3448 86.0981L23.5952 85.129ZM20.1412 88.7005C18.7062 89.5751 16.9844 90.0395 14.9384 90.0565L14.955 92.0564C17.3027 92.0369 19.3909 91.4999 21.1821 90.4083L20.1412 88.7005ZM14.9384 90.0565C12.5781 90.076 10.5047 89.4784 8.68556 88.2782L7.58413 89.9476C9.75667 91.381 12.2245 92.079 14.955 92.0564L14.9384 90.0565ZM8.68114 88.2753C6.8588 87.0867 5.39732 85.3715 4.30936 83.0858L2.50348 83.9453C3.72865 86.5193 5.41945 88.5357 7.58854 89.9505L8.68114 88.2753ZM4.30936 83.0858C3.22939 80.8168 2.65662 78.0634 2.6295 74.7944L0.629566 74.811C0.658508 78.2994 1.27033 81.3545 2.50348 83.9453L4.30936 83.0858ZM2.6295 74.7944L2.44773 52.8861L0.447801 52.9027L0.629566 74.811L2.6295 74.7944ZM10.6432 65.4549L10.6922 71.3638L12.6922 71.3472L12.6431 65.4383L10.6432 65.4549ZM10.6922 71.3638C10.7106 73.5796 11.1323 75.4199 12.1158 76.7212L13.7113 75.5153C13.1016 74.7085 12.709 73.3736 12.6922 71.3472L10.6922 71.3638ZM12.1213 76.7285C13.1588 78.0753 14.668 78.6947 16.4804 78.6796L16.4638 76.6797C15.1551 76.6906 14.292 76.269 13.7058 75.508L12.1213 76.7285ZM16.4804 78.6796C17.727 78.6693 18.85 78.3726 19.7962 77.7367L18.6808 76.0767C18.1202 76.4533 17.3989 76.6719 16.4638 76.6797L16.4804 78.6796ZM19.7962 77.7367C20.7297 77.1094 21.4178 76.229 21.8711 75.1405L20.0248 74.3716C19.7057 75.1381 19.2541 75.6914 18.6808 76.0767L19.7962 77.7367ZM21.8688 75.1461C22.322 74.0761 22.523 72.8329 22.5115 71.4475L20.5116 71.4641C20.5215 72.6544 20.3468 73.6114 20.0272 74.3661L21.8688 75.1461ZM22.5115 71.4475L22.461 65.3568L20.461 65.3734L20.5116 71.4641L22.5115 71.4475ZM21.4527 64.3652L11.6349 64.4466L11.6515 66.4466L21.4693 66.3651L21.4527 64.3652ZM28.279 65.3086L28.3219 70.4902L30.3219 70.4736L30.2789 65.292L28.279 65.3086ZM28.3219 70.4902C28.332 71.7003 28.5318 72.8092 28.9471 73.7969L30.7908 73.0217C30.495 72.3183 30.3302 71.4755 30.3219 70.4736L28.3219 70.4902ZM28.9471 73.7969C29.3645 74.7895 29.9788 75.6032 30.8072 76.19L31.9633 74.558C31.481 74.2164 31.0845 73.7202 30.7908 73.0217L28.9471 73.7969ZM30.8039 76.1876C31.6726 76.8085 32.7001 77.0905 33.8314 77.0811L33.8148 75.0812C33.037 75.0876 32.4393 74.8982 31.9667 74.5605L30.8039 76.1876ZM33.8314 77.0811C35.5428 77.0669 36.9554 76.4236 37.9161 75.0941L36.295 73.9227C35.7577 74.6663 34.982 75.0715 33.8148 75.0812L33.8314 77.0811ZM37.9105 75.1017C38.8296 73.8549 39.2466 72.3241 39.2322 70.5815L37.2322 70.5981C37.2439 72.0069 36.9099 73.0885 36.3006 73.915L37.9105 75.1017ZM39.2322 70.5815L39.1877 65.2181L37.1877 65.2347L37.2322 70.5981L39.2322 70.5815ZM38.1794 64.2264L29.2706 64.3003L29.2872 66.3002L38.196 66.2263L38.1794 64.2264ZM12.3102 137.625L11.8233 138.499L11.8249 138.5L12.3102 137.625ZM4.17459 129.533L3.29529 130.01L3.29694 130.013L4.17459 129.533ZM4.00688 106.58L3.12386 106.11L3.1214 106.115L4.00688 106.58ZM12.03 98.3763L11.5331 97.5085L11.5287 97.5111L12.03 98.3763ZM38.1882 98.1593L38.6735 97.285L38.6723 97.2843L38.1882 98.1593ZM46.3236 106.228L45.4452 106.706L45.446 106.708L46.3236 106.228ZM46.514 129.182L45.6286 128.718L45.627 128.721L46.514 129.182ZM38.5138 137.408L38.0141 136.542L38.0125 136.543L38.5138 137.408ZM32.3766 126.368L32.0153 125.435L32.0064 125.439L32.3766 126.368ZM36.7131 123.081L35.8899 122.514L35.8831 122.524L36.7131 123.081ZM36.6254 112.514L35.8077 113.089L35.8089 113.091L36.6254 112.514ZM32.235 109.3L32.5872 108.364L32.5832 108.363L32.235 109.3ZM18.1218 109.417L17.7605 108.485L17.7517 108.488L18.1218 109.417ZM13.7853 112.703L12.9621 112.135L12.9553 112.145L13.7853 112.703ZM13.873 123.271L13.0552 123.847L13.0565 123.848L13.873 123.271ZM18.2634 126.485L18.6156 125.549L18.6117 125.547L18.2634 126.485ZM25.4402 139.539C20.3859 139.581 16.1866 138.633 12.7955 136.751L11.8249 138.5C15.5881 140.589 20.1477 141.583 25.4567 141.539L25.4402 139.539ZM12.7971 136.752C9.39124 134.853 6.81885 132.289 5.05224 129.054L3.29694 130.013C5.2537 133.596 8.10503 136.426 11.8233 138.499L12.7971 136.752ZM5.05389 129.057C3.29185 125.804 2.38606 122.157 2.35235 118.094L0.352422 118.11C0.388604 122.471 1.36428 126.445 3.2953 130.01L5.05389 129.057ZM2.35235 118.094C2.31839 114.001 3.17093 110.325 4.89236 107.044L3.1214 106.115C1.2331 109.713 0.315988 113.719 0.352422 118.11L2.35235 118.094ZM4.88989 107.049C6.61768 103.798 9.15571 101.197 12.5313 99.2416L11.5287 97.5111C7.84708 99.6442 5.03636 102.512 3.12387 106.11L4.88989 107.049ZM12.527 99.2441C15.8879 97.3194 20.0573 96.3097 25.0812 96.268L25.0646 94.268C19.7858 94.3118 15.2599 95.3743 11.5331 97.5085L12.527 99.2441ZM25.0812 96.268C30.1367 96.226 34.3286 97.1669 37.7041 99.0343L38.6723 97.2843C34.924 95.2107 30.3723 94.224 25.0646 94.268L25.0812 96.268ZM37.7029 99.0336C41.1243 100.933 43.695 103.489 45.4452 106.706L47.202 105.751C45.2594 102.18 42.4065 99.357 38.6735 97.285L37.7029 99.0336ZM45.446 106.708C47.2216 109.959 48.135 113.62 48.169 117.714L50.1689 117.697C50.1325 113.306 49.149 109.316 47.2013 105.749L45.446 106.708ZM48.169 117.714C48.2027 121.775 47.3505 125.436 45.6286 128.718L47.3995 129.647C49.2873 126.05 50.2051 122.059 50.1689 117.697L48.169 117.714ZM45.627 128.721C43.9302 131.981 41.4024 134.587 38.0141 136.542L39.0136 138.274C42.7128 136.14 45.5185 133.262 47.4011 129.644L45.627 128.721ZM38.0125 136.543C34.6691 138.48 30.4946 139.497 25.4402 139.539L25.4567 141.539C30.7656 141.495 35.3013 140.425 39.0152 138.273L38.0125 136.543ZM25.3489 128.54C28.2188 128.516 30.6953 128.114 32.7467 127.297L32.0064 125.439C30.2521 126.138 28.038 126.517 25.3323 126.54L25.3489 128.54ZM32.7379 127.3C34.8118 126.496 36.4366 125.286 37.5431 123.639L35.8831 122.524C35.0438 123.772 33.7777 124.752 32.0153 125.435L32.7379 127.3ZM37.5362 123.649C38.6631 122.016 39.188 120.042 39.1693 117.788L37.1693 117.805C37.1853 119.732 36.7394 121.282 35.8899 122.514L37.5362 123.649ZM39.1693 117.788C39.1506 115.534 38.5928 113.564 37.4419 111.936L35.8089 113.091C36.6818 114.325 37.1533 115.878 37.1693 117.805L39.1693 117.788ZM37.4432 111.938C36.3104 110.329 34.6688 109.147 32.5872 108.364L31.8828 110.236C33.6619 110.905 34.9472 111.867 35.8077 113.089L37.4432 111.938ZM32.5832 108.363C30.5208 107.596 28.0404 107.244 25.1724 107.268L25.189 109.268C27.8965 109.245 30.119 109.581 31.8867 110.237L32.5832 108.363ZM25.1724 107.268C22.304 107.291 19.8235 107.685 17.7605 108.485L18.4831 110.35C20.2564 109.662 22.4819 109.29 25.189 109.268L25.1724 107.268ZM17.7517 108.488C15.6986 109.306 14.081 110.513 12.9621 112.135L14.6084 113.271C15.4659 112.028 16.7393 111.044 18.492 110.346L17.7517 108.488ZM12.9553 112.145C11.8493 113.791 11.3334 115.767 11.352 118.019L13.352 118.002C13.336 116.072 13.7756 114.51 14.6153 113.261L12.9553 112.145ZM11.352 118.019C11.3707 120.27 11.9192 122.232 13.0552 123.847L14.6907 122.695C13.8335 121.478 13.368 119.933 13.352 118.002L11.352 118.019ZM13.0565 123.848C14.203 125.47 15.8434 126.652 17.9152 127.422L18.6117 125.547C16.8533 124.894 15.5668 123.934 14.6895 122.694L13.0565 123.848ZM17.9112 127.421C19.9894 128.203 22.4786 128.563 25.3489 128.54L25.3323 126.54C22.627 126.562 20.3981 126.22 18.6156 125.549L17.9112 127.421ZM48.9974 173.737L49.9974 173.729L49.9891 172.729L48.9891 172.737L48.9974 173.737ZM49.1022 186.373L49.1105 187.373L50.1105 187.365L50.1022 186.365L49.1022 186.373ZM10.0597 184.151L10.6007 183.31L10.5995 183.309L10.0597 184.151ZM4.02423 177.156L3.12004 177.583L3.12182 177.587L4.02423 177.156ZM3.84963 156.111L2.94018 155.695L2.93848 155.699L3.84963 156.111ZM9.76824 149.016L9.22026 148.18L9.21459 148.183L9.76824 149.016ZM48.7689 146.192L49.7689 146.184L49.7606 145.184L48.7606 145.193L48.7689 146.192ZM48.8737 158.828L48.882 159.828L49.882 159.82L49.8737 158.82L48.8737 158.828ZM16.2918 160.053L15.796 159.185L15.791 159.188L16.2918 160.053ZM13.6775 162.711L12.8037 162.225L12.8009 162.23L13.6775 162.711ZM13.7416 170.438L12.876 170.939L13.7416 170.438ZM16.3997 173.053L15.9133 173.927L15.9184 173.929L16.3997 173.053ZM47.9974 173.745L48.1023 186.381L50.1022 186.365L49.9974 173.729L47.9974 173.745ZM49.094 185.373L19.2768 185.62L19.2934 187.62L49.1105 187.373L49.094 185.373ZM19.2768 185.62C15.8972 185.648 13.0191 184.866 10.6007 183.31L9.51879 184.992C12.3102 186.788 15.5824 187.651 19.2934 187.62L19.2768 185.62ZM10.5995 183.309C8.17949 181.758 6.28726 179.574 4.92663 176.725L3.12182 177.587C4.6293 180.744 6.76075 183.224 9.51999 184.993L10.5995 183.309ZM4.92841 176.729C3.58251 173.88 2.87833 170.533 2.84624 166.665L0.846309 166.682C0.880334 170.783 1.62813 174.425 3.12005 177.583L4.92841 176.729ZM2.84624 166.665C2.81388 162.765 3.46275 159.393 4.76077 156.523L2.93848 155.699C1.49875 158.882 0.812042 162.551 0.846309 166.682L2.84624 166.665ZM4.75906 156.527C6.07222 153.655 7.92797 151.44 10.3219 149.849L9.21459 148.183C6.48508 149.998 4.39508 152.513 2.94019 155.695L4.75906 156.527ZM10.3162 149.853C12.7096 148.285 15.5769 147.468 18.96 147.44L18.9434 145.44C15.2359 145.471 11.9809 146.371 9.22027 148.18L10.3162 149.853ZM18.96 147.44L48.7772 147.192L48.7606 145.193L18.9434 145.44L18.96 147.44ZM47.7689 146.201L47.8738 158.837L49.8737 158.82L49.7689 146.184L47.7689 146.201ZM48.8654 157.828L20.1391 158.067L20.1557 160.067L48.882 159.828L48.8654 157.828ZM20.1391 158.067C18.5471 158.08 17.0909 158.446 15.796 159.185L16.7877 160.922C17.7549 160.369 18.8691 160.077 20.1557 160.067L20.1391 158.067ZM15.791 159.188C14.5189 159.924 13.5185 160.941 12.8037 162.225L14.5512 163.198C15.0904 162.229 15.833 161.474 16.7927 160.919L15.791 159.188ZM12.8009 162.23C12.0832 163.537 11.7418 164.999 11.755 166.591L13.755 166.575C13.7443 165.288 14.0178 164.169 14.554 163.193L12.8009 162.23ZM11.755 166.591C11.7683 168.196 12.133 169.655 12.876 170.939L14.6071 169.938C14.0588 168.99 13.7658 167.879 13.755 166.575L11.755 166.591ZM12.876 170.939C13.6121 172.211 14.6291 173.212 15.9133 173.927L16.8861 172.179C15.9174 171.64 15.1624 170.897 14.6071 169.938L12.876 170.939ZM15.9184 173.929C17.2253 174.647 18.6874 174.989 20.2794 174.975L20.2628 172.975C18.9762 172.986 17.8573 172.712 16.8811 172.176L15.9184 173.929ZM20.2794 174.975L49.0057 174.737L48.9891 172.737L20.2628 172.975L20.2794 174.975ZM38.96 191.19L38.9517 190.19L37.9518 190.199L37.9601 191.198L38.96 191.19ZM49.1415 191.106L50.1415 191.097L50.1332 190.097L49.1332 190.106L49.1415 191.106ZM49.4771 231.559L49.4854 232.559L50.4854 232.551L50.4771 231.551L49.4771 231.559ZM39.2957 231.643L38.2957 231.652L38.304 232.652L39.304 232.643L39.2957 231.643ZM39.1795 217.644L40.1795 217.636L40.1712 216.636L39.1712 216.644L39.1795 217.644ZM2.81713 217.946L1.81717 217.954L1.82547 218.954L2.82543 218.945L2.81713 217.946ZM2.71381 205.491L2.70551 204.491L1.70555 204.5L1.71384 205.5L2.71381 205.491ZM39.0762 205.19L39.0845 206.19L40.0845 206.181L40.0762 205.181L39.0762 205.19ZM38.9683 192.19L49.1498 192.106L49.1332 190.106L38.9517 190.19L38.9683 192.19ZM48.1415 191.114L48.4772 231.567L50.4771 231.551L50.1415 191.097L48.1415 191.114ZM49.4688 230.559L39.2874 230.643L39.304 232.643L49.4854 232.559L49.4688 230.559ZM40.2956 231.635L40.1795 217.636L38.1796 217.652L38.2957 231.652L40.2956 231.635ZM39.1712 216.644L2.80884 216.946L2.82543 218.945L39.1878 218.644L39.1712 216.644ZM3.8171 217.937L3.71377 205.483L1.71384 205.5L1.81717 217.954L3.8171 217.937ZM2.7221 206.491L39.0845 206.19L39.0679 204.19L2.70551 204.491L2.7221 206.491ZM40.0762 205.181L39.96 191.182L37.9601 191.198L38.0762 205.198L40.0762 205.181ZM49.8509 276.608L50.8509 276.6L50.8426 275.6L49.8426 275.609L49.8509 276.608ZM49.9557 289.244L49.964 290.244L50.964 290.236L50.9557 289.236L49.9557 289.244ZM10.9132 287.023L11.4542 286.182L11.453 286.181L10.9132 287.023ZM4.87771 280.027L3.97353 280.454L3.9753 280.458L4.87771 280.027ZM4.70311 258.982L3.79367 258.567L3.79197 258.57L4.70311 258.982ZM10.6217 251.888L10.0737 251.051L10.0681 251.055L10.6217 251.888ZM49.6224 249.064L50.6223 249.056L50.614 248.056L49.6141 248.064L49.6224 249.064ZM49.7272 261.7L49.7355 262.7L50.7355 262.692L50.7272 261.692L49.7272 261.7ZM17.1453 262.925L16.6495 262.056L16.6445 262.059L17.1453 262.925ZM14.5309 265.583L13.6572 265.097L13.6544 265.102L14.5309 265.583ZM14.595 273.31L13.7295 273.811L14.595 273.31ZM17.2532 275.924L16.7668 276.798L16.7718 276.801L17.2532 275.924ZM48.8509 276.617L48.9558 289.253L50.9557 289.236L50.8509 276.6L48.8509 276.617ZM49.9474 288.244L20.1303 288.492L20.1469 290.492L49.964 290.244L49.9474 288.244ZM20.1303 288.492C16.7506 288.52 13.8726 287.737 11.4542 286.182L10.3723 287.864C13.1637 289.659 16.4358 290.523 20.1469 290.492L20.1303 288.492ZM11.453 286.181C9.03298 284.629 7.14075 282.446 5.78012 279.596L3.9753 280.458C5.48279 283.615 7.61423 286.095 10.3735 287.865L11.453 286.181ZM5.78189 279.6C4.436 276.751 3.73182 273.405 3.69973 269.537L1.69979 269.553C1.73382 273.654 2.48161 277.296 3.97353 280.454L5.78189 279.6ZM3.69973 269.537C3.66737 265.637 4.31623 262.264 5.61425 259.395L3.79197 258.57C2.35223 261.754 1.66553 265.423 1.69979 269.553L3.69973 269.537ZM5.61254 259.398C6.9257 256.527 8.78145 254.312 11.1754 252.72L10.0681 251.055C7.33857 252.87 5.24857 255.385 3.79368 258.567L5.61254 259.398ZM11.1697 252.724C13.5631 251.156 16.4304 250.339 19.8135 250.311L19.7969 248.311C16.0894 248.342 12.8344 249.243 10.0738 251.051L11.1697 252.724ZM19.8135 250.311L49.6307 250.064L49.6141 248.064L19.7969 248.311L19.8135 250.311ZM48.6224 249.072L48.7272 261.708L50.7272 261.692L50.6223 249.056L48.6224 249.072ZM49.7189 260.7L20.9926 260.938L21.0092 262.938L49.7355 262.7L49.7189 260.7ZM20.9926 260.938C19.4006 260.951 17.9443 261.317 16.6495 262.056L17.6412 263.793C18.6084 263.241 19.7226 262.949 21.0092 262.938L20.9926 260.938ZM16.6445 262.059C15.3724 262.795 14.372 263.812 13.6572 265.097L15.4047 266.069C15.9439 265.101 16.6865 264.346 17.6461 263.79L16.6445 262.059ZM13.6544 265.102C12.9367 266.408 12.5953 267.871 12.6085 269.463L14.6084 269.446C14.5978 268.159 14.8713 267.041 15.4075 266.064L13.6544 265.102ZM12.6085 269.463C12.6218 271.068 12.9865 272.527 13.7295 273.811L15.4606 272.809C14.9123 271.861 14.6193 270.75 14.6084 269.446L12.6085 269.463ZM13.7295 273.811C14.4655 275.083 15.4826 276.083 16.7668 276.798L17.7396 275.051C16.7709 274.511 16.0158 273.769 15.4606 272.809L13.7295 273.811ZM16.7718 276.801C18.0788 277.519 19.5409 277.86 21.1329 277.847L21.1163 275.847C19.8296 275.858 18.7108 275.584 17.7345 275.048L16.7718 276.801ZM21.1329 277.847L49.8592 277.608L49.8426 275.609L21.1163 275.847L21.1329 277.847ZM35.6688 320.461L35.5808 319.464L34.6611 319.546L34.6688 320.469L35.6688 320.461ZM39.2 318.727L38.4321 318.086L38.4274 318.092L39.2 318.727ZM39.9309 310.948L38.996 311.303L38.9997 311.312L39.9309 310.948ZM38.6659 309.14L39.2555 308.332L39.2555 308.332L38.6659 309.14ZM36.8426 308.541L36.797 309.54L36.8128 309.541L36.8287 309.541L36.8426 308.541ZM35.3224 308.849L34.8678 307.959L34.8498 307.968L34.8321 307.978L35.3224 308.849ZM34.1273 309.996L33.3056 309.426L33.3 309.434L33.2944 309.442L34.1273 309.996ZM32.4403 314.851L33.4198 315.052L33.4215 315.044L32.4403 314.851ZM31.6538 318.676L30.6743 318.474L30.6738 318.477L31.6538 318.676ZM29.5497 325.307L28.6472 324.876L29.5497 325.307ZM26.428 329.833L25.7286 329.118L25.7241 329.123L26.428 329.833ZM22.404 332.435L22.0545 331.498L22.0462 331.501L22.404 332.435ZM17.5023 333.339L17.5056 334.339L17.5191 334.339L17.5023 333.339ZM9.71075 331.108L9.13629 331.927L9.71075 331.108ZM4.81608 324.649L5.7439 324.275L5.74321 324.274L4.81608 324.649ZM4.78067 303.944L3.84883 303.581L3.8482 303.582L4.78067 303.944ZM10.2451 296.898L9.68702 296.068L9.68123 296.072L10.2451 296.898ZM19.815 294.318L20.8149 294.31L20.8066 293.306L19.8028 293.319L19.815 294.318ZM19.9145 306.318L19.9759 307.316L20.9224 307.258L20.9145 306.31L19.9145 306.318ZM16.3326 307.416L15.777 306.585L16.3326 307.416ZM14.1504 310.116L13.2298 309.725L13.228 309.73L14.1504 310.116ZM13.963 317.663L13.027 318.015L13.963 317.663ZM15.3665 319.72L14.7507 320.508L15.3665 319.72ZM17.3952 320.43L17.3835 321.43L17.4041 321.431L17.4247 321.43L17.3952 320.43ZM19.2529 319.71L18.6191 318.937L18.6073 318.947L18.5958 318.957L19.2529 319.71ZM20.6893 317.517L19.7682 317.127L19.7634 317.139L20.6893 317.517ZM21.8824 313.393L22.8609 313.599L22.8616 313.596L21.8824 313.393ZM22.8439 308.748L21.8649 308.545L21.8646 308.546L22.8439 308.748ZM27.2401 298.962L26.488 298.303L26.4836 298.308L27.2401 298.962ZM35.8242 295.368L35.8284 296.368L35.8377 296.367L35.8242 295.368ZM43.5936 297.667L44.1717 296.851L44.1707 296.85L43.5936 297.667ZM48.8532 304.282L49.7664 303.875L49.7656 303.873L48.8532 304.282ZM48.9926 323.827L48.0802 323.418L48.9926 323.827ZM43.7272 330.212L43.1759 329.378L43.1695 329.382L43.7272 330.212ZM35.7691 332.551L34.7691 332.559L34.7774 333.564L35.7823 333.551L35.7691 332.551ZM35.7568 321.457C37.495 321.303 38.9363 320.623 39.9725 319.362L38.4274 318.092C37.7836 318.875 36.8707 319.35 35.5808 319.464L35.7568 321.457ZM39.9678 319.367C41.0246 318.101 41.4526 316.296 41.4347 314.14L39.4348 314.156C39.4508 316.091 39.0556 317.339 38.4321 318.086L39.9678 319.367ZM41.4347 314.14C41.4233 312.766 41.2471 311.567 40.8621 310.583L38.9997 311.312C39.2649 311.99 39.4246 312.924 39.4348 314.156L41.4347 314.14ZM40.8657 310.593C40.5088 309.653 39.9884 308.867 39.2555 308.332L38.0762 309.948C38.4104 310.192 38.7334 310.611 38.9961 311.303L40.8657 310.593ZM39.2555 308.332C38.5489 307.816 37.7385 307.554 36.8566 307.541L36.8287 309.541C37.3106 309.548 37.7157 309.684 38.0762 309.948L39.2555 308.332ZM36.8883 307.542C36.1728 307.51 35.4908 307.641 34.8678 307.959L35.777 309.74C36.0594 309.596 36.3909 309.522 36.797 309.54L36.8883 307.542ZM34.8321 307.978C34.2335 308.315 33.7297 308.814 33.3056 309.426L34.9491 310.566C35.2437 310.141 35.5366 309.876 35.8127 309.721L34.8321 307.978ZM33.2944 309.442C32.8904 310.05 32.5445 310.794 32.2451 311.651L34.1333 312.311C34.3964 311.557 34.6759 310.977 34.9603 310.549L33.2944 309.442ZM32.2451 311.651C31.9443 312.513 31.6836 313.517 31.4591 314.658L33.4215 315.044C33.6332 313.969 33.8718 313.06 34.1333 312.311L32.2451 311.651ZM31.4608 314.649L30.6743 318.474L32.6333 318.877L33.4198 315.052L31.4608 314.649ZM30.6738 318.477C30.1616 320.999 29.4822 323.127 28.6472 324.876L30.4521 325.738C31.3745 323.806 32.0979 321.513 32.6338 318.875L30.6738 318.477ZM28.6472 324.876C27.8086 326.633 26.8315 328.039 25.7286 329.118L27.1274 330.548C28.4293 329.274 29.5333 327.662 30.4521 325.738L28.6472 324.876ZM25.7241 329.123C24.6327 330.204 23.4108 330.992 22.0545 331.498L22.7535 333.372C24.3881 332.762 25.8488 331.815 27.1319 330.543L25.7241 329.123ZM22.0462 331.501C20.6709 332.028 19.1537 332.311 17.4854 332.339L17.5191 334.339C19.3959 334.307 21.1466 333.987 22.7619 333.368L22.0462 331.501ZM17.4989 332.339C14.608 332.349 12.2218 331.649 10.2852 330.29L9.13629 331.927C11.4672 333.563 14.2753 334.35 17.5056 334.339L17.4989 332.339ZM10.2852 330.29C8.33417 328.92 6.81302 326.934 5.7439 324.275L3.88827 325.022C5.07796 327.98 6.81992 330.301 9.13629 331.927L10.2852 330.29ZM5.74321 324.274C4.67304 321.626 4.10505 318.391 4.07311 314.541L2.07318 314.557C2.1066 318.586 2.70058 322.083 3.88896 325.023L5.74321 324.274ZM4.07311 314.541C4.04034 310.592 4.59661 307.187 5.71314 304.305L3.8482 303.582C2.62091 306.75 2.03882 310.416 2.07318 314.557L4.07311 314.541ZM5.71251 304.306C6.8175 301.469 8.518 299.288 10.809 297.724L9.68123 296.072C7.03039 297.882 5.08792 300.399 3.84883 303.581L5.71251 304.306ZM10.8032 297.728C13.086 296.192 16.0706 295.364 19.8272 295.318L19.8028 293.319C15.772 293.368 12.3767 294.259 9.68704 296.068L10.8032 297.728ZM18.815 294.327L18.9146 306.326L20.9145 306.31L20.8149 294.31L18.815 294.327ZM19.8531 305.32C18.2933 305.416 16.9188 305.822 15.777 306.585L16.8882 308.247C17.6752 307.722 18.6886 307.395 19.9759 307.316L19.8531 305.32ZM15.777 306.585C14.6373 307.346 13.7898 308.406 13.2299 309.725L15.0709 310.507C15.4918 309.515 16.0992 308.775 16.8882 308.247L15.777 306.585ZM13.228 309.73C12.6735 311.054 12.4208 312.583 12.435 314.289L14.4349 314.273C14.4224 312.768 14.6467 311.52 15.0728 310.502L13.228 309.73ZM12.435 314.289C12.4468 315.713 12.6321 316.965 13.027 318.015L14.899 317.311C14.6122 316.549 14.4455 315.547 14.4349 314.273L12.435 314.289ZM13.027 318.015C13.4145 319.046 13.9756 319.902 14.7507 320.508L15.9822 318.932C15.5678 318.608 15.1932 318.093 14.899 317.311L13.027 318.015ZM14.7507 320.508C15.5189 321.108 16.4076 321.419 17.3835 321.43L17.4069 319.43C16.8674 319.424 16.4036 319.261 15.9822 318.932L14.7507 320.508ZM17.4247 321.43C18.363 321.402 19.2053 321.078 19.91 320.464L18.5958 318.957C18.2475 319.26 17.8513 319.416 17.3656 319.431L17.4247 321.43ZM19.8867 320.484C20.6104 319.891 21.1689 318.988 21.6151 317.895L19.7634 317.139C19.3781 318.083 18.9789 318.642 18.6191 318.937L19.8867 320.484ZM21.6103 317.906C22.0765 316.804 22.4901 315.36 22.8609 313.599L20.9039 313.187C20.5458 314.887 20.1639 316.192 19.7683 317.127L21.6103 317.906ZM22.8616 313.596L23.8231 308.951L21.8646 308.546L20.9031 313.19L22.8616 313.596ZM23.8229 308.952C24.659 304.937 26.0676 301.847 27.9967 299.616L26.4836 298.308C24.2704 300.868 22.7482 304.303 21.8649 308.545L23.8229 308.952ZM27.9922 299.621C29.8607 297.488 32.4315 296.382 35.8284 296.368L35.8201 294.368C31.9442 294.384 28.7923 295.673 26.488 298.303L27.9922 299.621ZM35.8377 296.367C38.5995 296.33 40.9785 297.043 43.0165 298.483L44.1707 296.85C41.7581 295.145 38.9576 294.325 35.8108 294.368L35.8377 296.367ZM43.0154 298.483C45.0924 299.954 46.7385 302.011 47.9407 304.692L49.7656 303.873C48.4361 300.908 46.5758 298.554 44.1717 296.851L43.0154 298.483ZM47.9399 304.69C49.1405 307.381 49.7684 310.501 49.7981 314.07L51.798 314.054C51.7665 310.26 51.0979 306.86 49.7664 303.875L47.9399 304.69ZM49.7981 314.07C49.8283 317.718 49.2435 320.825 48.0802 323.418L49.905 324.237C51.2113 321.325 51.8301 317.921 51.798 314.054L49.7981 314.07ZM48.0802 323.418C46.9145 326.017 45.2766 327.99 43.1759 329.378L44.2786 331.047C46.7288 329.427 48.6012 327.144 49.905 324.237L48.0802 323.418ZM43.1695 329.382C41.0891 330.78 38.6307 331.513 35.7558 331.551L35.7823 333.551C38.9979 333.508 41.845 332.682 44.285 331.042L43.1695 329.382ZM36.769 332.543L36.6687 320.452L34.6688 320.469L34.7691 332.559L36.769 332.543Z" fill="#05C2DF" mask="url(#path-1-outside-1_3495_4394)"/>
</svg>
