<svg width="51" height="335" viewBox="0 0 51 335" fill="none" xmlns="http://www.w3.org/2000/svg">
<mask id="path-1-outside-1_3495_4396" maskUnits="userSpaceOnUse" x="-1.0143" y="-0.865885" width="53.7858" height="336.412" fill="black">
<rect fill="white" x="-1.0143" y="-0.865885" width="53.7858" height="336.412"/>
<path d="M1.11083 14.631L0.997701 0.995131L47.669 15.9721L47.8123 33.2442L1.39593 48.9935L1.28279 35.3576L34.9244 24.8963L34.9214 24.5327L1.11083 14.631ZM19.4527 11.9333L19.6654 37.5688L10.2112 37.6472L9.9985 12.0117L19.4527 11.9333ZM1.43312 53.4763L47.977 53.0901L48.1444 73.2712C48.1738 76.8166 47.7213 79.7977 46.7867 82.2146C45.8523 84.6467 44.519 86.4836 42.7869 87.7253C41.0548 88.9821 39.007 89.6203 36.6434 89.64C34.9314 89.6542 33.3677 89.2883 31.9524 88.5425C30.5372 87.8118 29.3467 86.7762 28.381 85.4356C27.4305 84.095 26.7659 82.5247 26.3873 80.7247L25.9328 80.7285C25.8736 82.7291 25.3811 84.5514 24.4554 86.1955C23.5447 87.8395 22.2753 89.1531 20.647 90.1363C19.0339 91.1194 17.1289 91.6201 14.932 91.6383C12.3866 91.6594 10.116 91.0116 8.12019 89.6948C6.12448 88.3931 4.54834 86.5273 3.39177 84.0974C2.23521 81.6676 1.64291 78.7633 1.61488 75.3846L1.43312 53.4763ZM11.6285 66.0285L11.6775 71.9374C11.6951 74.0585 12.1023 75.6461 12.8989 76.7001C13.7107 77.754 14.8969 78.2745 16.4574 78.2616C17.5483 78.2525 18.4705 77.9949 19.2239 77.4886C19.9773 76.9823 20.5471 76.2655 20.9333 75.338C21.3197 74.4257 21.5076 73.3256 21.4969 72.0377L21.4464 65.947L11.6285 66.0285ZM29.2643 65.8822L29.3073 71.0638C29.3164 72.1698 29.4988 73.1456 29.8543 73.9912C30.2098 74.8368 30.7153 75.4917 31.3706 75.956C32.0413 76.4353 32.8539 76.6709 33.8084 76.663C35.2478 76.6511 36.3419 76.1268 37.0909 75.0903C37.8551 74.0536 38.2306 72.7474 38.2176 71.1717L38.1731 65.8083L29.2643 65.8822ZM25.4338 141.121C20.2522 141.164 15.8727 140.193 12.2955 138.207C8.73349 136.222 6.02162 133.524 4.15995 130.115C2.31342 126.706 1.37268 122.896 1.33774 118.684C1.30254 114.442 2.18737 110.601 3.99223 107.161C5.81237 103.737 8.48675 101.003 12.0154 98.9582C15.5593 96.9288 19.9069 95.8927 25.0582 95.8499C30.2398 95.8069 34.6116 96.7707 38.1736 98.7412C41.7508 100.727 44.4626 103.416 46.309 106.81C48.1706 110.219 49.1191 114.045 49.1543 118.287C49.1892 122.499 48.3043 126.325 46.4994 129.764C44.7097 133.203 42.043 135.945 38.4992 137.99C34.9706 140.034 30.6154 141.078 25.4338 141.121ZM25.326 128.122C28.1137 128.098 30.4591 127.708 32.3619 126.949C34.2801 126.206 35.7256 125.111 36.6984 123.663C37.6866 122.231 38.172 120.469 38.1547 118.378C38.1373 116.288 37.6227 114.527 36.6108 113.096C35.6141 111.68 34.1507 110.608 32.2203 109.882C30.3053 109.17 27.9538 108.826 25.1661 108.849C22.3783 108.873 20.0253 109.256 18.1072 109.999C16.2043 110.757 14.7588 111.853 13.7706 113.285C12.7978 114.733 12.32 116.502 12.3374 118.593C12.3547 120.683 12.8617 122.437 13.8583 123.853C14.8702 125.284 16.3337 126.355 18.2488 127.067C20.1791 127.793 22.5382 128.145 25.326 128.122ZM48.9828 174.319L49.0876 186.955L19.2704 187.202C15.7251 187.232 12.65 186.409 10.0451 184.733C7.45547 183.073 5.44363 180.741 4.00958 177.738C2.59067 174.734 1.86469 171.24 1.83163 167.255C1.79832 163.24 2.4661 159.719 3.83498 156.693C5.219 153.666 7.19188 151.301 9.75359 149.598C12.3306 147.91 15.3917 147.051 18.9371 147.022L48.7542 146.774L48.8591 159.41L20.1328 159.649C18.6934 159.661 17.4082 159.989 16.2772 160.635C15.1613 161.281 14.2898 162.167 13.6628 163.293C13.0359 164.435 12.7284 165.725 12.7403 167.165C12.7524 168.619 13.0813 169.904 13.7269 171.02C14.3726 172.136 15.2586 173.008 16.3851 173.635C17.5267 174.262 18.8171 174.569 20.2565 174.557L48.9828 174.319ZM38.9454 191.772L49.1269 191.688L49.4625 232.141L39.281 232.225L39.1649 218.226L2.80249 218.527L2.69916 206.073L39.0615 205.772L38.9454 191.772ZM49.8362 277.19L49.9411 289.826L20.1239 290.074C16.5786 290.103 13.5035 289.28 10.8986 287.605C8.30896 285.944 6.29712 283.612 4.86306 280.609C3.44416 277.606 2.71817 274.111 2.68511 270.127C2.6518 266.112 3.31959 262.591 4.68846 259.564C6.07249 256.538 8.04536 254.173 10.6071 252.47C13.1841 250.781 16.2452 249.923 19.7906 249.893L49.6077 249.646L49.7126 262.282L20.9863 262.52C19.5469 262.532 18.2617 262.861 17.1307 263.507C16.0148 264.152 15.1433 265.038 14.5163 266.165C13.8894 267.306 13.5819 268.597 13.5938 270.036C13.6059 271.491 13.9348 272.776 14.5804 273.892C15.226 275.008 16.1121 275.879 17.2385 276.506C18.3801 277.133 19.6706 277.441 21.11 277.429L49.8362 277.19ZM35.6541 321.042C37.1682 320.909 38.3453 320.331 39.1853 319.309C40.0255 318.302 40.4371 316.775 40.4201 314.73C40.4093 313.427 40.2413 312.36 39.9163 311.53C39.6064 310.714 39.1848 310.111 38.6512 309.722C38.1177 309.332 37.5099 309.133 36.828 309.123C36.2672 309.098 35.7604 309.2 35.3078 309.431C34.8704 309.677 34.4721 310.06 34.1127 310.578C33.7685 311.096 33.4558 311.757 33.1746 312.563C32.8934 313.368 32.6437 314.325 32.4256 315.433L31.6392 319.258C31.1151 321.838 30.4137 324.048 29.535 325.889C28.6563 327.73 27.6158 329.238 26.4134 330.415C25.2261 331.591 23.8848 332.459 22.3894 333.017C20.8941 333.59 19.2601 333.891 17.4876 333.921C14.427 333.931 11.8298 333.188 9.69611 331.69C7.5624 330.193 5.93084 328.039 4.80144 325.23C3.67216 322.437 3.09118 319.07 3.0585 315.131C3.02493 311.086 3.59411 307.55 4.76602 304.525C5.93806 301.516 7.75955 299.167 10.2305 297.48C12.7167 295.808 15.9066 294.948 19.8003 294.9L19.8999 306.9C18.4763 306.988 17.2823 307.354 16.318 307.998C15.3536 308.642 14.6262 309.542 14.1357 310.698C13.6454 311.869 13.4069 313.257 13.4203 314.863C13.4315 316.212 13.6075 317.339 13.9483 318.245C14.2892 319.152 14.757 319.837 15.3518 320.302C15.9466 320.767 16.6228 321.003 17.3805 321.012C18.0925 320.991 18.7117 320.751 19.2382 320.292C19.78 319.848 20.2588 319.117 20.6746 318.098C21.1056 317.08 21.5033 315.705 21.8677 313.975L22.8292 309.33C23.689 305.202 25.1544 301.94 27.2255 299.544C29.3118 297.162 32.1732 295.964 35.8096 295.949C38.7639 295.91 41.3537 296.676 43.5789 298.249C45.8194 299.836 47.5726 302.041 48.8385 304.864C50.1045 307.702 50.7528 310.962 50.7834 314.644C50.8145 318.401 50.2127 321.657 48.978 324.409C47.7432 327.162 45.9881 329.29 43.7126 330.794C41.4524 332.313 38.7997 333.093 35.7544 333.133L35.6541 321.042Z"/>
</mask>
<path d="M1.11083 14.631L0.110868 14.6393L0.117029 15.382L0.829784 15.5907L1.11083 14.631ZM0.997701 0.995131L1.30326 0.0429568L-0.0137393 -0.379671L-0.00226429 1.00343L0.997701 0.995131ZM47.669 15.9721L48.669 15.9638L48.663 15.2408L47.9746 15.0199L47.669 15.9721ZM47.8123 33.2442L48.1336 34.1912L48.8183 33.9589L48.8123 33.2359L47.8123 33.2442ZM1.39593 48.9935L0.39596 49.0018L0.407435 50.3849L1.71724 49.9405L1.39593 48.9935ZM1.28279 35.3576L0.98586 34.4027L0.276667 34.6232L0.282828 35.3659L1.28279 35.3576ZM34.9244 24.8963L35.2214 25.8512L35.9306 25.6307L35.9244 24.888L34.9244 24.8963ZM34.9214 24.5327L35.9214 24.5244L35.9152 23.7817L35.2025 23.573L34.9214 24.5327ZM19.4527 11.9333L20.4527 11.925L20.4444 10.925L19.4444 10.9333L19.4527 11.9333ZM19.6654 37.5688L19.6737 38.5688L20.6737 38.5605L20.6654 37.5605L19.6654 37.5688ZM10.2112 37.6472L9.21122 37.6555L9.21952 38.6555L10.2195 38.6472L10.2112 37.6472ZM9.9985 12.0117L9.9902 11.0118L8.99024 11.0201L8.99854 12.02L9.9985 12.0117ZM2.1108 14.6227L1.99767 0.986835L-0.00226429 1.00343L0.110868 14.6393L2.1108 14.6227ZM0.692144 1.94731L47.3635 16.9243L47.9746 15.0199L1.30326 0.0429568L0.692144 1.94731ZM46.6691 15.9804L46.8124 33.2525L48.8123 33.2359L48.669 15.9638L46.6691 15.9804ZM47.491 32.2972L1.07461 48.0465L1.71724 49.9405L48.1336 34.1912L47.491 32.2972ZM2.39589 48.9852L2.28276 35.3493L0.282828 35.3659L0.39596 49.0018L2.39589 48.9852ZM1.57973 36.3125L35.2214 25.8512L34.6275 23.9414L0.98586 34.4027L1.57973 36.3125ZM35.9244 24.888L35.9214 24.5244L33.9215 24.541L33.9245 24.9046L35.9244 24.888ZM35.2025 23.573L1.39188 13.6713L0.829784 15.5907L34.6404 25.4924L35.2025 23.573ZM18.4528 11.9416L18.6654 37.5771L20.6654 37.5605L20.4527 11.925L18.4528 11.9416ZM19.6571 36.5688L10.2029 36.6473L10.2195 38.6472L19.6737 38.5688L19.6571 36.5688ZM11.2112 37.6389L10.9985 12.0034L8.99854 12.02L9.21122 37.6555L11.2112 37.6389ZM10.0068 13.0117L19.461 12.9333L19.4444 10.9333L9.9902 11.0118L10.0068 13.0117ZM1.43312 53.4763L1.42482 52.4763L0.424856 52.4846L0.433152 53.4846L1.43312 53.4763ZM47.977 53.0901L48.9769 53.0818L48.9686 52.0819L47.9687 52.0902L47.977 53.0901ZM46.7867 82.2146L45.854 81.854L45.8533 81.856L46.7867 82.2146ZM42.7869 87.7253L42.2042 86.9125L42.1996 86.9159L42.7869 87.7253ZM31.9524 88.5425L32.4186 87.6578L32.4111 87.6539L31.9524 88.5425ZM28.381 85.4356L27.5652 86.014L27.5696 86.0201L28.381 85.4356ZM26.3873 80.7247L27.3659 80.5189L27.1974 79.718L26.379 79.7248L26.3873 80.7247ZM25.9328 80.7285L25.9245 79.7285L24.9617 79.7365L24.9332 80.6989L25.9328 80.7285ZM24.4554 86.1955L23.584 85.7048L23.5806 85.7109L24.4554 86.1955ZM20.647 90.1363L20.1301 89.2803L20.1266 89.2824L20.647 90.1363ZM8.12019 89.6948L8.67092 88.8601L8.66649 88.8572L8.12019 89.6948ZM3.39177 84.0975L4.29471 83.6677L3.39177 84.0975ZM11.6285 66.0285L11.6202 65.0285L10.6203 65.0368L10.6285 66.0368L11.6285 66.0285ZM12.8989 76.7001L12.1011 77.3031L12.1067 77.3104L12.8989 76.7001ZM20.9333 75.338L20.0125 74.948L20.0102 74.9535L20.9333 75.338ZM21.4464 65.947L22.4463 65.9387L22.438 64.9388L21.4381 64.9471L21.4464 65.947ZM29.2643 65.8822L29.256 64.8822L28.256 64.8905L28.2643 65.8905L29.2643 65.8822ZM29.8543 73.9912L28.9325 74.3788L29.8543 73.9912ZM31.3706 75.956L31.9521 75.1424L31.9487 75.14L31.3706 75.956ZM37.0909 75.0903L36.2859 74.4969L36.2804 74.5046L37.0909 75.0903ZM38.1731 65.8083L39.173 65.8L39.1647 64.8L38.1648 64.8083L38.1731 65.8083ZM1.44141 54.4762L47.9853 54.0901L47.9687 52.0902L1.42482 52.4763L1.44141 54.4762ZM46.977 53.0984L47.1444 73.2795L49.1444 73.2629L48.9769 53.0818L46.977 53.0984ZM47.1444 73.2795C47.1732 76.7422 46.7297 79.5894 45.854 81.854L47.7194 82.5753C48.7129 80.0061 49.1745 76.891 49.1444 73.2629L47.1444 73.2795ZM45.8533 81.856C44.9732 84.1466 43.7454 85.8078 42.2043 86.9125L43.3695 88.538C45.2927 87.1594 46.7314 85.1469 47.7202 82.5733L45.8533 81.856ZM42.1996 86.9159C40.6535 88.0378 38.8134 88.6219 36.6352 88.64L36.6517 90.6399C39.2006 90.6188 41.4561 89.9265 43.3742 88.5347L42.1996 86.9159ZM36.6352 88.64C35.0764 88.6529 33.6775 88.3212 32.4186 87.6578L31.4862 89.4271C33.0579 90.2554 34.7864 90.6554 36.6517 90.6399L36.6352 88.64ZM32.4111 87.6539C31.1411 86.9981 30.0697 86.0689 29.1924 84.8511L27.5696 86.0201C28.6238 87.4834 29.9333 88.6254 31.4936 89.431L32.4111 87.6539ZM29.1968 84.8572C28.3344 83.6409 27.7197 82.2008 27.3659 80.5189L25.4087 80.9306C25.8121 82.8485 26.5265 84.549 27.5653 86.014L29.1968 84.8572ZM26.379 79.7248L25.9245 79.7285L25.9411 81.7285L26.3956 81.7247L26.379 79.7248ZM24.9332 80.6989C24.8785 82.5478 24.4255 84.2104 23.584 85.7048L25.3267 86.6862C26.3368 84.8924 26.8687 82.9103 26.9323 80.7581L24.9332 80.6989ZM23.5806 85.7109C22.7558 87.2 21.6105 88.3863 20.1301 89.2803L21.1639 90.9924C22.94 89.9199 24.3337 88.4789 25.3301 86.6801L23.5806 85.7109ZM20.1266 89.2824C18.6915 90.157 16.9697 90.6214 14.9237 90.6384L14.9403 92.6383C17.2881 92.6188 19.3763 92.0818 21.1674 90.9902L20.1266 89.2824ZM14.9237 90.6384C12.5635 90.6579 10.4901 90.0603 8.67091 88.8601L7.56948 90.5295C9.74202 91.9629 12.2098 92.661 14.9403 92.6383L14.9237 90.6384ZM8.66649 88.8572C6.84415 87.6686 5.38267 85.9534 4.29471 83.6677L2.48884 84.5272C3.714 87.1012 5.4048 89.1176 7.57389 90.5324L8.66649 88.8572ZM4.29471 83.6677C3.21474 81.3987 2.64197 78.6453 2.61485 75.3763L0.614918 75.3929C0.643859 78.8813 1.25568 81.9364 2.48884 84.5272L4.29471 83.6677ZM2.61485 75.3763L2.43308 53.468L0.433152 53.4846L0.614918 75.3929L2.61485 75.3763ZM10.6285 66.0368L10.6776 71.9457L12.6775 71.9291L12.6285 66.0202L10.6285 66.0368ZM10.6776 71.9457C10.696 74.1615 11.1176 76.0018 12.1011 77.3031L13.6967 76.0972C13.0869 75.2904 12.6943 73.9556 12.6775 71.9291L10.6776 71.9457ZM12.1067 77.3104C13.1441 78.6572 14.6533 79.2766 16.4657 79.2615L16.4492 77.2616C15.1405 77.2725 14.2773 76.8509 13.6911 76.0899L12.1067 77.3104ZM16.4657 79.2615C17.7124 79.2512 18.8353 78.9545 19.7816 78.3186L18.6661 76.6586C18.1056 77.0352 17.3842 77.2539 16.4492 77.2616L16.4657 79.2615ZM19.7816 78.3186C20.7151 77.6913 21.4032 76.811 21.8565 75.7224L20.0102 74.9535C19.691 75.72 19.2394 76.2733 18.6661 76.6586L19.7816 78.3186ZM21.8542 75.728C22.3073 74.658 22.5084 73.4149 22.4969 72.0294L20.4969 72.046C20.5068 73.2363 20.3321 74.1933 20.0125 74.948L21.8542 75.728ZM22.4969 72.0294L22.4463 65.9387L20.4464 65.9553L20.4969 72.046L22.4969 72.0294ZM21.4381 64.9471L11.6202 65.0285L11.6368 67.0285L21.4547 66.947L21.4381 64.9471ZM28.2643 65.8905L28.3073 71.0721L30.3072 71.0555L30.2642 65.8739L28.2643 65.8905ZM28.3073 71.0721C28.3173 72.2823 28.5172 73.3911 28.9325 74.3788L30.7761 73.6036C30.4804 72.9002 30.3155 72.0574 30.3072 71.0555L28.3073 71.0721ZM28.9325 74.3788C29.3498 75.3714 29.9641 76.1851 30.7926 76.772L31.9487 75.14C31.4664 74.7983 31.0698 74.3021 30.7761 73.6036L28.9325 74.3788ZM30.7892 76.7695C31.658 77.3904 32.6855 77.6724 33.8167 77.663L33.8001 75.6631C33.0224 75.6695 32.4247 75.4801 31.9521 75.1424L30.7892 76.7695ZM33.8167 77.663C35.5282 77.6488 36.9408 77.0055 37.9015 75.676L36.2804 74.5046C35.7431 75.2482 34.9673 75.6534 33.8001 75.6631L33.8167 77.663ZM37.8959 75.6836C38.8149 74.4368 39.232 72.906 39.2175 71.1634L37.2176 71.18C37.2293 72.5888 36.8952 73.6704 36.286 74.4969L37.8959 75.6836ZM39.2175 71.1634L39.173 65.8L37.1731 65.8166L37.2176 71.18L39.2175 71.1634ZM38.1648 64.8083L29.256 64.8822L29.2726 66.8821L38.1814 66.8082L38.1648 64.8083ZM12.2955 138.207L11.8086 139.081L11.8102 139.082L12.2955 138.207ZM4.15994 130.115L3.28064 130.592L3.2823 130.595L4.15994 130.115ZM3.99223 107.161L3.10921 106.692L3.10675 106.697L3.99223 107.161ZM12.0154 98.9582L11.5184 98.0904L11.514 98.093L12.0154 98.9582ZM38.1736 98.7412L38.6589 97.8669L38.6576 97.8662L38.1736 98.7412ZM46.309 106.81L45.4305 107.288L45.4313 107.29L46.309 106.81ZM46.4994 129.764L45.6139 129.299L45.6123 129.302L46.4994 129.764ZM38.4992 137.99L37.9994 137.124L37.9979 137.125L38.4992 137.99ZM32.3619 126.949L32.0006 126.017L31.9918 126.021L32.3619 126.949ZM36.6984 123.663L35.8752 123.096L35.8685 123.106L36.6984 123.663ZM36.6108 113.096L35.793 113.671L35.7943 113.673L36.6108 113.096ZM32.2203 109.882L32.5725 108.946L32.5686 108.944L32.2203 109.882ZM18.1072 109.999L17.7459 109.066L17.737 109.07L18.1072 109.999ZM13.7706 113.285L12.9474 112.717L12.9407 112.727L13.7706 113.285ZM13.8583 123.853L13.0406 124.428L13.0418 124.43L13.8583 123.853ZM18.2488 127.067L18.601 126.131L18.597 126.129L18.2488 127.067ZM25.4255 140.121C20.3713 140.163 16.172 139.215 12.7809 137.333L11.8102 139.082C15.5735 141.17 20.133 142.165 25.4421 142.121L25.4255 140.121ZM12.7824 137.334C9.37659 135.435 6.8042 132.871 5.03759 129.636L3.2823 130.595C5.23905 134.178 8.09039 137.008 11.8086 139.081L12.7824 137.334ZM5.03924 129.639C3.27721 126.386 2.37141 122.738 2.3377 118.676L0.337773 118.692C0.373955 123.053 1.34963 127.027 3.28065 130.592L5.03924 129.639ZM2.3377 118.676C2.30375 114.582 3.15628 110.906 4.87771 107.626L3.10675 106.697C1.21846 110.295 0.301339 114.301 0.337773 118.692L2.3377 118.676ZM4.87525 107.631C6.60303 104.38 9.14106 101.779 12.5167 99.8235L11.514 98.093C7.83243 100.226 5.02171 103.094 3.10922 106.692L4.87525 107.631ZM12.5123 99.826C15.8733 97.9013 20.0426 96.8916 25.0665 96.8499L25.0499 94.85C19.7711 94.8938 15.2452 95.9562 11.5184 98.0905L12.5123 99.826ZM25.0665 96.8499C30.1221 96.8079 34.3139 97.7488 37.6895 99.6162L38.6576 97.8662C34.9093 95.7926 30.3576 94.8059 25.0499 94.85L25.0665 96.8499ZM37.6882 99.6156C41.1097 101.515 43.6803 104.071 45.4305 107.288L47.1874 106.332C45.2448 102.762 42.3918 99.9389 38.6589 97.8669L37.6882 99.6156ZM45.4313 107.29C47.2069 110.541 48.1203 114.202 48.1543 118.295L50.1542 118.279C50.1178 113.887 49.1343 109.898 47.1866 106.331L45.4313 107.29ZM48.1543 118.295C48.188 122.357 47.3359 126.018 45.6139 129.299L47.3849 130.229C49.2726 126.632 50.1904 122.641 50.1542 118.279L48.1543 118.295ZM45.6123 129.302C43.9155 132.563 41.3878 135.169 37.9994 137.124L38.9989 138.856C42.6981 136.722 45.5039 133.843 47.3865 130.226L45.6123 129.302ZM37.9979 137.125C34.6545 139.062 30.4799 140.079 25.4255 140.121L25.4421 142.121C30.751 142.077 35.2867 141.007 39.0005 138.855L37.9979 137.125ZM25.3342 129.122C28.2041 129.098 30.6807 128.696 32.7321 127.878L31.9918 126.021C30.2374 126.72 28.0233 127.099 25.3177 127.122L25.3342 129.122ZM32.7232 127.882C34.7971 127.078 36.422 125.867 37.5284 124.221L35.8685 123.106C35.0292 124.354 33.763 125.334 32.0006 126.017L32.7232 127.882ZM37.5216 124.231C38.6484 122.598 39.1733 120.624 39.1546 118.37L37.1547 118.387C37.1707 120.314 36.7248 121.864 35.8753 123.096L37.5216 124.231ZM39.1546 118.37C39.1359 116.116 38.5782 114.146 37.4273 112.518L35.7943 113.673C36.6672 114.907 37.1387 116.46 37.1547 118.387L39.1546 118.37ZM37.4285 112.52C36.2958 110.911 34.6541 109.729 32.5725 108.946L31.8681 110.818C33.6472 111.487 34.9325 112.449 35.793 113.671L37.4285 112.52ZM32.5686 108.944C30.5062 108.178 28.0258 107.826 25.1578 107.85L25.1744 109.849C27.8819 109.827 30.1043 110.163 31.8721 110.819L32.5686 108.944ZM25.1578 107.85C22.2893 107.873 19.8088 108.267 17.7459 109.067L18.4685 110.931C20.2418 110.244 22.4672 109.872 25.1744 109.849L25.1578 107.85ZM17.737 109.07C15.684 109.888 14.0664 111.095 12.9475 112.717L14.5938 113.853C15.4512 112.61 16.7247 111.626 18.4773 110.928L17.737 109.07ZM12.9407 112.727C11.8346 114.373 11.3187 116.349 11.3374 118.601L13.3373 118.584C13.3213 116.654 13.7609 115.092 14.6006 113.843L12.9407 112.727ZM11.3374 118.601C11.3561 120.852 11.9045 122.814 13.0406 124.428L14.6761 123.277C13.8189 122.059 13.3533 120.515 13.3373 118.584L11.3374 118.601ZM13.0418 124.43C14.1883 126.052 15.8288 127.234 17.9005 128.004L18.597 126.129C16.8386 125.476 15.5521 124.516 14.6748 123.276L13.0418 124.43ZM17.8966 128.002C19.9748 128.785 22.464 129.145 25.3342 129.122L25.3177 127.122C22.6124 127.144 20.3834 126.801 18.601 126.131L17.8966 128.002ZM48.9828 174.319L49.9827 174.311L49.9744 173.311L48.9745 173.319L48.9828 174.319ZM49.0876 186.955L49.0959 187.955L50.0959 187.947L50.0876 186.947L49.0876 186.955ZM10.0451 184.733L10.586 183.892L10.5848 183.891L10.0451 184.733ZM4.00958 177.738L3.10539 178.165L3.10717 178.168L4.00958 177.738ZM3.83498 156.693L2.92554 156.277L2.92383 156.281L3.83498 156.693ZM9.75359 149.598L9.20561 148.762L9.19995 148.765L9.75359 149.598ZM48.7542 146.774L49.7542 146.766L49.7459 145.766L48.7459 145.774L48.7542 146.774ZM48.8591 159.41L48.8674 160.41L49.8673 160.402L49.859 159.402L48.8591 159.41ZM16.2772 160.635L15.7814 159.767L15.7764 159.77L16.2772 160.635ZM13.6628 163.293L12.789 162.807L12.7863 162.812L13.6628 163.293ZM13.7269 171.02L12.8614 171.521L13.7269 171.02ZM16.3851 173.635L15.8987 174.509L15.9037 174.511L16.3851 173.635ZM47.9828 174.327L48.0876 186.963L50.0876 186.947L49.9827 174.311L47.9828 174.327ZM49.0793 185.955L19.2621 186.202L19.2787 188.202L49.0959 187.955L49.0793 185.955ZM19.2621 186.202C15.8825 186.23 13.0045 185.448 10.586 183.892L9.50415 185.574C12.2955 187.37 15.5677 188.233 19.2787 188.202L19.2621 186.202ZM10.5848 183.891C8.16484 182.34 6.27261 180.156 4.91198 177.307L3.10717 178.168C4.61465 181.326 6.7461 183.806 9.50534 185.575L10.5848 183.891ZM4.91376 177.31C3.56786 174.462 2.86368 171.115 2.83159 167.247L0.83166 167.264C0.865686 171.365 1.61348 175.007 3.1054 178.165L4.91376 177.31ZM2.83159 167.247C2.79924 163.347 3.4481 159.975 4.74612 157.105L2.92383 156.281C1.4841 159.464 0.797393 163.133 0.83166 167.264L2.83159 167.247ZM4.74441 157.109C6.05757 154.237 7.91332 152.022 10.3072 150.431L9.19995 148.765C6.47043 150.58 4.38044 153.095 2.92554 156.277L4.74441 157.109ZM10.3016 150.435C12.6949 148.867 15.5622 148.05 18.9454 148.022L18.9288 146.022C15.2212 146.053 11.9662 146.953 9.20563 148.762L10.3016 150.435ZM18.9454 148.022L48.7625 147.774L48.7459 145.774L18.9288 146.022L18.9454 148.022ZM47.7543 146.783L47.8591 159.419L49.859 159.402L49.7542 146.766L47.7543 146.783ZM48.8508 158.41L20.1245 158.649L20.1411 160.649L48.8674 160.41L48.8508 158.41ZM20.1245 158.649C18.5325 158.662 17.0762 159.028 15.7814 159.767L16.773 161.504C17.7403 160.951 18.8544 160.659 20.1411 160.649L20.1245 158.649ZM15.7764 159.77C14.5042 160.506 13.5039 161.523 12.7891 162.807L14.5366 163.78C15.0758 162.811 15.8184 162.056 16.778 161.501L15.7764 159.77ZM12.7863 162.812C12.0686 164.119 11.7272 165.581 11.7404 167.173L13.7403 167.157C13.7296 165.87 14.0032 164.751 14.5393 163.775L12.7863 162.812ZM11.7404 167.173C11.7537 168.778 12.1184 170.237 12.8614 171.521L14.5925 170.52C14.0441 169.572 13.7511 168.461 13.7403 167.157L11.7404 167.173ZM12.8614 171.521C13.5974 172.793 14.6145 173.794 15.8987 174.509L16.8714 172.761C15.9027 172.222 15.1477 171.479 14.5925 170.52L12.8614 171.521ZM15.9037 174.511C17.2106 175.229 18.6728 175.57 20.2648 175.557L20.2482 173.557C18.9615 173.568 17.8427 173.294 16.8664 172.758L15.9037 174.511ZM20.2648 175.557L48.9911 175.319L48.9745 173.319L20.2482 173.557L20.2648 175.557ZM38.9454 191.772L38.9371 190.772L37.9371 190.78L37.9454 191.78L38.9454 191.772ZM49.1269 191.688L50.1268 191.679L50.1185 190.679L49.1186 190.688L49.1269 191.688ZM49.4625 232.141L49.4708 233.141L50.4708 233.132L50.4625 232.132L49.4625 232.141ZM39.281 232.225L38.2811 232.234L38.2894 233.234L39.2893 233.225L39.281 232.225ZM39.1649 218.226L40.1648 218.217L40.1565 217.217L39.1566 217.226L39.1649 218.226ZM2.80249 218.527L1.80252 218.536L1.81082 219.536L2.81078 219.527L2.80249 218.527ZM2.69916 206.073L2.69086 205.073L1.6909 205.082L1.69919 206.082L2.69916 206.073ZM39.0615 205.772L39.0698 206.772L40.0698 206.763L40.0615 205.763L39.0615 205.772ZM38.9537 192.772L49.1352 192.688L49.1186 190.688L38.9371 190.772L38.9537 192.772ZM48.1269 191.696L48.4625 232.149L50.4625 232.132L50.1268 191.679L48.1269 191.696ZM49.4542 231.141L39.2727 231.225L39.2893 233.225L49.4708 233.141L49.4542 231.141ZM40.281 232.217L40.1648 218.217L38.1649 218.234L38.2811 232.234L40.281 232.217ZM39.1566 217.226L2.79419 217.527L2.81078 219.527L39.1732 219.226L39.1566 217.226ZM3.80245 218.519L3.69912 206.065L1.69919 206.082L1.80252 218.536L3.80245 218.519ZM2.70746 207.073L39.0698 206.772L39.0532 204.772L2.69086 205.073L2.70746 207.073ZM40.0615 205.763L39.9454 191.764L37.9454 191.78L38.0616 205.78L40.0615 205.763ZM49.8363 277.19L50.8362 277.182L50.8279 276.182L49.828 276.19L49.8363 277.19ZM49.9411 289.826L49.9494 290.826L50.9493 290.818L50.9411 289.818L49.9411 289.826ZM10.8986 287.605L11.4395 286.764L11.4383 286.763L10.8986 287.605ZM4.86306 280.609L3.95888 281.036L3.96065 281.04L4.86306 280.609ZM4.68846 259.564L3.77902 259.148L3.77732 259.152L4.68846 259.564ZM10.6071 252.47L10.0591 251.633L10.0534 251.637L10.6071 252.47ZM49.6077 249.646L50.6077 249.638L50.5994 248.638L49.5994 248.646L49.6077 249.646ZM49.7126 262.282L49.7209 263.282L50.7208 263.273L50.7125 262.273L49.7126 262.282ZM17.1307 263.507L16.6349 262.638L16.6299 262.641L17.1307 263.507ZM14.5163 266.165L13.6425 265.678L13.6398 265.683L14.5163 266.165ZM14.5804 273.892L13.7148 274.393L14.5804 273.892ZM17.2385 276.506L16.7522 277.38L16.7572 277.383L17.2385 276.506ZM48.8363 277.199L48.9411 289.835L50.9411 289.818L50.8362 277.182L48.8363 277.199ZM49.9328 288.826L20.1156 289.074L20.1322 291.074L49.9494 290.826L49.9328 288.826ZM20.1156 289.074C16.736 289.102 13.858 288.319 11.4395 286.764L10.3576 288.446C13.149 290.241 16.4212 291.104 20.1322 291.074L20.1156 289.074ZM11.4383 286.763C9.01833 285.211 7.1261 283.028 5.76547 280.178L3.96065 281.04C5.46814 284.197 7.59958 286.677 10.3588 288.447L11.4383 286.763ZM5.76724 280.182C4.42135 277.333 3.71717 273.987 3.68508 270.118L1.68515 270.135C1.71917 274.236 2.46697 277.878 3.95888 281.036L5.76724 280.182ZM3.68508 270.118C3.65272 266.219 4.30159 262.846 5.59961 259.976L3.77732 259.152C2.33759 262.336 1.65088 266.005 1.68515 270.135L3.68508 270.118ZM5.59789 259.98C6.91105 257.108 8.7668 254.894 11.1607 253.302L10.0534 251.637C7.32392 253.451 5.23392 255.967 3.77903 259.148L5.59789 259.98ZM11.155 253.306C13.5484 251.738 16.4157 250.921 19.7989 250.893L19.7823 248.893C16.0747 248.924 12.8197 249.825 10.0591 251.633L11.155 253.306ZM19.7989 250.893L49.616 250.646L49.5994 248.646L19.7823 248.893L19.7989 250.893ZM48.6078 249.654L48.7126 262.29L50.7125 262.273L50.6077 249.638L48.6078 249.654ZM49.7043 261.282L20.978 261.52L20.9946 263.52L49.7209 263.282L49.7043 261.282ZM20.978 261.52C19.386 261.533 17.9297 261.899 16.6349 262.638L17.6265 264.375C18.5938 263.823 19.7079 263.531 20.9946 263.52L20.978 261.52ZM16.6299 262.641C15.3577 263.377 14.3574 264.394 13.6425 265.678L15.39 266.651C15.9293 265.683 16.6719 264.927 17.6315 264.372L16.6299 262.641ZM13.6398 265.683C12.9221 266.99 12.5807 268.453 12.5939 270.045L14.5938 270.028C14.5831 268.741 14.8567 267.622 15.3928 266.646L13.6398 265.683ZM12.5939 270.045C12.6072 271.649 12.9719 273.109 13.7148 274.393L15.446 273.391C14.8976 272.443 14.6046 271.332 14.5938 270.028L12.5939 270.045ZM13.7148 274.393C14.4509 275.665 15.468 276.665 16.7522 277.38L17.7249 275.632C16.7562 275.093 16.0012 274.351 15.446 273.391L13.7148 274.393ZM16.7572 277.383C18.0641 278.1 19.5262 278.442 21.1183 278.429L21.1017 276.429C19.815 276.439 18.6962 276.166 17.7199 275.63L16.7572 277.383ZM21.1183 278.429L49.8445 278.19L49.828 276.19L21.1017 276.429L21.1183 278.429ZM35.6541 321.042L35.5661 320.046L34.6465 320.128L34.6542 321.051L35.6541 321.042ZM39.1853 319.309L38.4174 318.668L38.4127 318.674L39.1853 319.309ZM39.9163 311.53L38.9814 311.885L38.985 311.894L39.9163 311.53ZM38.6512 309.722L39.2409 308.914L39.2409 308.914L38.6512 309.722ZM36.828 309.123L36.7823 310.122L36.7982 310.123L36.8141 310.123L36.828 309.123ZM35.3078 309.431L34.8532 308.541L34.8351 308.55L34.8175 308.56L35.3078 309.431ZM34.1127 310.578L33.291 310.008L33.2853 310.016L33.2798 310.024L34.1127 310.578ZM32.4257 315.433L33.4052 315.634L33.4068 315.626L32.4257 315.433ZM31.6392 319.258L30.6597 319.056L30.6592 319.059L31.6392 319.258ZM29.535 325.889L28.6326 325.458L29.535 325.889ZM26.4134 330.415L25.7139 329.7L25.7095 329.705L26.4134 330.415ZM22.3894 333.017L22.0398 332.08L22.0315 332.083L22.3894 333.017ZM17.4876 333.921L17.491 334.921L17.5045 334.921L17.4876 333.921ZM9.6961 331.69L9.12164 332.509L9.6961 331.69ZM4.80144 325.23L5.72925 324.857L5.72856 324.856L4.80144 325.23ZM4.76602 304.525L3.83418 304.163L3.83355 304.164L4.76602 304.525ZM10.2305 297.48L9.67237 296.65L9.66658 296.654L10.2305 297.48ZM19.8003 294.9L20.8003 294.892L20.792 293.888L19.7881 293.9L19.8003 294.9ZM19.8999 306.9L19.9613 307.898L20.9077 307.84L20.8998 306.892L19.8999 306.9ZM16.318 307.998L15.7624 307.166L16.318 307.998ZM14.1357 310.698L13.2152 310.307L13.2134 310.312L14.1357 310.698ZM13.9483 318.245L13.0124 318.597L13.9483 318.245ZM15.3518 320.302L14.7361 321.09L15.3518 320.302ZM17.3805 321.012L17.3688 322.012L17.3894 322.012L17.4101 322.012L17.3805 321.012ZM19.2382 320.292L18.6045 319.519L18.5927 319.528L18.5812 319.538L19.2382 320.292ZM20.6746 318.098L19.7536 317.709L19.7488 317.721L20.6746 318.098ZM21.8677 313.975L22.8463 314.181L22.847 314.178L21.8677 313.975ZM22.8292 309.33L21.8502 309.126L21.85 309.128L22.8292 309.33ZM27.2255 299.544L26.4733 298.884L26.4689 298.89L27.2255 299.544ZM35.8096 295.949L35.8137 296.949L35.823 296.949L35.8096 295.949ZM43.5789 298.249L44.1571 297.433L44.156 297.432L43.5789 298.249ZM48.8385 304.864L49.7518 304.457L49.751 304.455L48.8385 304.864ZM48.978 324.409L48.0656 324L48.978 324.409ZM43.7126 330.794L43.1612 329.96L43.1548 329.964L43.7126 330.794ZM35.7544 333.133L34.7545 333.141L34.7628 334.146L35.7677 334.133L35.7544 333.133ZM35.7421 322.039C37.4803 321.885 38.9216 321.204 39.9579 319.944L38.4127 318.674C37.7689 319.457 36.8561 319.932 35.5661 320.046L35.7421 322.039ZM39.9532 319.949C41.01 318.683 41.438 316.878 41.4201 314.722L39.4201 314.738C39.4362 316.673 39.0409 317.921 38.4175 318.668L39.9532 319.949ZM41.4201 314.722C41.4087 313.348 41.2325 312.149 40.8475 311.165L38.985 311.894C39.2502 312.572 39.4099 313.506 39.4201 314.738L41.4201 314.722ZM40.8511 311.174C40.4941 310.235 39.9738 309.449 39.2409 308.914L38.0616 310.529C38.3958 310.773 38.7188 311.193 38.9814 311.885L40.8511 311.174ZM39.2409 308.914C38.5343 308.398 37.7239 308.136 36.8419 308.123L36.8141 310.123C37.296 310.13 37.7011 310.266 38.0616 310.529L39.2409 308.914ZM36.8737 308.124C36.1581 308.092 35.4761 308.223 34.8532 308.541L35.7624 310.322C36.0447 310.178 36.3762 310.104 36.7823 310.122L36.8737 308.124ZM34.8175 308.56C34.2188 308.897 33.715 309.396 33.291 310.008L34.9344 311.148C35.2291 310.723 35.522 310.458 35.7981 310.303L34.8175 308.56ZM33.2798 310.024C32.8758 310.632 32.5298 311.376 32.2305 312.233L34.1187 312.892C34.3818 312.139 34.6612 311.559 34.9456 311.131L33.2798 310.024ZM32.2305 312.233C31.9297 313.095 31.669 314.099 31.4445 315.24L33.4068 315.626C33.6185 314.55 33.8571 313.642 34.1187 312.892L32.2305 312.233ZM31.4461 315.231L30.6597 319.056L32.6187 319.459L33.4052 315.634L31.4461 315.231ZM30.6592 319.059C30.1469 321.58 29.4676 323.709 28.6326 325.458L30.4375 326.32C31.3599 324.387 32.0833 322.095 32.6192 319.457L30.6592 319.059ZM28.6326 325.458C27.794 327.215 26.8169 328.621 25.714 329.7L27.1128 331.13C28.4147 329.856 29.5187 328.244 30.4375 326.32L28.6326 325.458ZM25.7095 329.705C24.6181 330.786 23.3961 331.574 22.0398 332.08L22.7389 333.954C24.3734 333.344 25.8342 332.397 27.1173 331.125L25.7095 329.705ZM22.0315 332.083C20.6562 332.61 19.1391 332.893 17.4708 332.921L17.5045 334.921C19.3812 334.889 21.1319 334.569 22.7472 333.95L22.0315 332.083ZM17.4843 332.921C14.5934 332.931 12.2071 332.231 10.2706 330.871L9.12164 332.509C11.4525 334.144 14.2606 334.932 17.491 334.921L17.4843 332.921ZM10.2706 330.871C8.31953 329.502 6.79837 327.516 5.72925 324.857L3.87362 325.603C5.06331 328.562 6.80527 330.883 9.12164 332.509L10.2706 330.871ZM5.72856 324.856C4.65839 322.208 4.0904 318.973 4.05846 315.123L2.05853 315.139C2.09195 319.167 2.68593 322.665 3.87431 325.605L5.72856 324.856ZM4.05846 315.123C4.0257 311.174 4.58196 307.769 5.69849 304.887L3.83355 304.164C2.60626 307.332 2.02417 310.998 2.05853 315.139L4.05846 315.123ZM5.69786 304.888C6.80285 302.051 8.50335 299.87 10.7944 298.306L9.66658 296.654C7.01574 298.464 5.07327 300.981 3.83418 304.163L5.69786 304.888ZM10.7886 298.31C13.0713 296.774 16.0559 295.946 19.8125 295.9L19.7881 293.9C15.7574 293.95 12.3621 294.841 9.67239 296.65L10.7886 298.31ZM18.8004 294.909L18.8999 306.908L20.8998 306.892L20.8003 294.892L18.8004 294.909ZM19.8385 305.902C18.2787 305.998 16.9041 306.404 15.7624 307.166L16.8735 308.829C17.6605 308.304 18.674 307.977 19.9613 307.898L19.8385 305.902ZM15.7624 307.166C14.6226 307.928 13.7752 308.988 13.2152 310.307L15.0563 311.089C15.4771 310.097 16.0845 309.357 16.8735 308.829L15.7624 307.166ZM13.2134 310.312C12.6588 311.636 12.4061 313.165 12.4203 314.871L14.4202 314.855C14.4077 313.35 14.632 312.102 15.0581 311.084L13.2134 310.312ZM12.4203 314.871C12.4321 316.295 12.6174 317.547 13.0124 318.597L14.8843 317.893C14.5976 317.131 14.4308 316.128 14.4202 314.855L12.4203 314.871ZM13.0124 318.597C13.3999 319.628 13.9609 320.484 14.7361 321.09L15.9675 319.514C15.5531 319.19 15.1785 318.675 14.8843 317.893L13.0124 318.597ZM14.7361 321.09C15.5043 321.69 16.3929 322.001 17.3688 322.012L17.3922 320.012C16.8528 320.006 16.3889 319.843 15.9675 319.514L14.7361 321.09ZM17.4101 322.012C18.3484 321.984 19.1906 321.66 19.8953 321.046L18.5812 319.538C18.2328 319.842 17.8366 319.998 17.3509 320.013L17.4101 322.012ZM19.872 321.066C20.5958 320.473 21.1542 319.57 21.6005 318.476L19.7488 317.721C19.3634 318.665 18.9643 319.224 18.6045 319.519L19.872 321.066ZM21.5956 318.488C22.0619 317.386 22.4754 315.942 22.8463 314.181L20.8892 313.769C20.5312 315.469 20.1493 316.774 19.7536 317.709L21.5956 318.488ZM22.847 314.178L23.8085 309.533L21.85 309.128L20.8885 313.772L22.847 314.178ZM23.8082 309.534C24.6444 305.519 26.053 302.429 27.982 300.197L26.4689 298.89C24.2558 301.45 22.7335 304.885 21.8502 309.126L23.8082 309.534ZM27.9776 300.203C29.846 298.07 32.4168 296.963 35.8137 296.949L35.8054 294.949C31.9296 294.965 28.7777 296.255 26.4734 298.884L27.9776 300.203ZM35.823 296.949C38.5849 296.912 40.9639 297.625 43.0018 299.065L44.156 297.432C41.7435 295.727 38.9429 294.907 35.7962 294.95L35.823 296.949ZM43.0008 299.065C45.0778 300.536 46.7238 302.593 47.9261 305.274L49.751 304.455C48.4215 301.49 46.5611 299.136 44.1571 297.433L43.0008 299.065ZM47.9253 305.272C49.1259 307.963 49.7538 311.083 49.7834 314.652L51.7833 314.636C51.7519 310.842 51.0832 307.442 49.7518 304.457L47.9253 305.272ZM49.7834 314.652C49.8137 318.3 49.2288 321.407 48.0656 324L49.8904 324.819C51.1966 321.907 51.8154 318.503 51.7833 314.636L49.7834 314.652ZM48.0656 324C46.8999 326.599 45.262 328.572 43.1612 329.96L44.2639 331.628C46.7141 330.009 48.5865 327.725 49.8904 324.819L48.0656 324ZM43.1548 329.964C41.0744 331.362 38.616 332.095 35.7412 332.133L35.7677 334.133C38.9833 334.09 41.8303 333.264 44.2703 331.624L43.1548 329.964ZM36.7544 333.125L36.6541 321.034L34.6542 321.051L34.7545 333.141L36.7544 333.125Z" fill="#05C2DF" fill-opacity="0.05" mask="url(#path-1-outside-1_3495_4396)"/>
</svg>
