<svg width="98" height="81" viewBox="0 0 98 81" fill="none" xmlns="http://www.w3.org/2000/svg">
<path d="M45.0137 28.0787V21.0684M61.646 35.3639H69.756M31.9553 45.8106H36.3539M53.9484 60.5185V53.5082" stroke="#05C2DF"/>
<rect x="36.7165" y="28.4414" width="24.567" height="24.567" rx="3.5" stroke="#05C2DF"/>
<rect x="41.39" y="33.1152" width="15.4948" height="15.4948" rx="3.5" stroke="#05C2DF"/>
<rect x="69.9811" y="1.5" width="18.5189" height="18.5189" rx="3.5" stroke="#05C2DF"/>
<rect x="74.3797" y="5.89844" width="9.99656" height="9.99656" rx="2.5" stroke="#05C2DF"/>
<rect x="9.5" y="1.5" width="18.5189" height="18.5189" rx="3.5" stroke="#05C2DF"/>
<rect x="13.8986" y="5.89844" width="9.99656" height="9.99656" rx="2.5" stroke="#05C2DF"/>
<rect x="10.3248" y="61.4316" width="18.5189" height="18.5189" rx="3.5" stroke="#05C2DF"/>
<rect x="14.7234" y="65.8301" width="9.99656" height="9.99656" rx="2.5" stroke="#05C2DF"/>
<rect x="69.9811" y="61.4316" width="18.5189" height="18.5189" rx="3.5" stroke="#05C2DF"/>
<rect x="74.3797" y="65.8301" width="9.99656" height="9.99656" rx="2.5" stroke="#05C2DF"/>
<path d="M54.2234 28.0786V10.8965H69.3436" stroke="#05C2DF"/>
<path d="M36.354 38.1133L18.8969 38.1133L18.8969 20.5188" stroke="#05C2DF"/>
<path d="M61.7835 41.9619L78.9656 41.9619L78.9656 60.931" stroke="#05C2DF"/>
<path d="M45.5636 53.5083L45.5636 70.6904L29.2062 70.6904" stroke="#05C2DF"/>
<circle cx="45.0137" cy="18.5943" r="1.97423" stroke="#05C2DF"/>
<circle cx="72.2302" cy="35.3639" r="1.97423" stroke="#05C2DF"/>
<circle cx="29.6186" cy="45.8111" r="1.97423" stroke="#05C2DF"/>
<circle cx="53.811" cy="62.8561" r="1.97423" stroke="#05C2DF"/>
</svg>
