<svg width="72" height="82" viewBox="0 0 72 82" fill="none" xmlns="http://www.w3.org/2000/svg">
<path d="M70.5931 7.07864V80.6686H68.2116H57.6463H54.765H30.7531H27.8716H21.1482H18.2668H17.8063V78.8091C17.8063 77.7425 16.929 76.8934 15.8656 76.8934C14.8023 76.8934 13.925 77.7425 13.925 78.8091V80.6686H13.4645H10.5831H3.85971L2.13908 80.6685L1.47852 80.6685V27.8426C1.47852 27.3449 1.8913 26.9269 2.41919 26.9269H14.4251H14.9251V26.4269V14.6291C14.9251 14.1314 15.3379 13.7134 15.8658 13.7134H20.188H20.688V13.2134V7.07864C20.688 6.58094 21.1008 6.16294 21.6287 6.16294H27.8717H28.3717V5.66294V1.4157C28.3717 0.918036 28.7846 0.5 29.3124 0.5C29.8402 0.5 30.2531 0.918037 30.2531 1.4157V5.66294V6.16294H30.7531H36.9963C37.5241 6.16294 37.937 6.58098 37.937 7.07864V13.2134V13.7134H38.437H41.3184H41.8184V13.2134V7.07864C41.8184 6.58094 42.2311 6.16294 42.759 6.16294H69.6524C70.1802 6.16294 70.5931 6.58098 70.5931 7.07864Z" stroke="#05C2DF" stroke-linecap="round"/>
<path d="M36.7734 77.5001V51.0733" stroke="#05C2DF" stroke-linecap="round"/>
<path d="M42.8789 77.4269V51" stroke="#05C2DF" stroke-linecap="round"/>
<path d="M48.9844 77.4269V51" stroke="#05C2DF" stroke-linecap="round"/>
<path d="M51.353 16.5166C51.353 17.1565 50.8242 17.6823 50.1624 17.6823C49.5005 17.6823 48.9717 17.1565 48.9717 16.5168V14.6291C48.9717 13.9892 49.5007 13.4634 50.1624 13.4634C50.824 13.4634 51.353 13.9892 51.353 14.6291V16.5166Z" fill="#05C2DF" stroke="#05040B" stroke-width="0.5" stroke-linecap="round"/>
<path d="M57.1167 16.5166C57.1167 17.1565 56.5878 17.6823 55.926 17.6823C55.2642 17.6823 54.7354 17.1565 54.7354 16.5168V14.6291C54.7354 13.9892 55.2644 13.4634 55.926 13.4634C56.5877 13.4634 57.1167 13.9892 57.1167 14.6291V16.5166Z" fill="#05C2DF" stroke="#05040B" stroke-width="0.5" stroke-linecap="round"/>
<path d="M62.8794 16.5166C62.8794 17.1565 62.3505 17.6823 61.6887 17.6823C61.0269 17.6823 60.498 17.1565 60.498 16.5168V14.6291C60.498 13.9892 61.0271 13.4634 61.6887 13.4634C62.3504 13.4634 62.8794 13.9892 62.8794 14.6291V16.5166Z" fill="#05C2DF" stroke="#05040B" stroke-width="0.5" stroke-linecap="round"/>
<path d="M51.353 25.9548C51.353 26.5947 50.8242 27.1205 50.1624 27.1205C49.5005 27.1205 48.9717 26.5947 48.9717 25.9548V24.0671C48.9717 23.4272 49.5007 22.9014 50.1624 22.9014C50.824 22.9014 51.353 23.4272 51.353 24.0671V25.9548Z" fill="#05C2DF" stroke="#05040B" stroke-width="0.5" stroke-linecap="round"/>
<path d="M57.1167 25.9548C57.1167 26.5947 56.5878 27.1205 55.926 27.1205C55.2642 27.1205 54.7354 26.5947 54.7354 25.9548V24.0671C54.7354 23.4272 55.2644 22.9014 55.926 22.9014C56.5877 22.9014 57.1167 23.4272 57.1167 24.0671V25.9548Z" fill="#05C2DF" stroke="#05040B" stroke-width="0.5" stroke-linecap="round"/>
<path d="M62.8794 25.9548C62.8794 26.5947 62.3505 27.1205 61.6887 27.1205C61.0269 27.1205 60.498 26.5947 60.498 25.9548V24.0671C60.498 23.4272 61.0271 22.9014 61.6887 22.9014C62.3504 22.9014 62.8794 23.4272 62.8794 24.0671V25.9548Z" fill="#05C2DF" stroke="#05040B" stroke-width="0.5" stroke-linecap="round"/>
<path d="M51.353 35.3932C51.353 36.0331 50.8242 36.5589 50.1624 36.5589C49.5006 36.5589 48.9717 36.033 48.9717 35.3932V33.5055C48.9717 32.8657 49.5007 32.3398 50.1624 32.3398C50.824 32.3398 51.353 32.8657 51.353 33.5055V35.3932Z" fill="#05C2DF" stroke="#05040B" stroke-width="0.5" stroke-linecap="round"/>
<path d="M57.1167 35.3932C57.1167 36.0331 56.5878 36.5589 55.926 36.5589C55.2642 36.5589 54.7354 36.033 54.7354 35.3932V33.5055C54.7354 32.8657 55.2644 32.3398 55.926 32.3398C56.5877 32.3398 57.1167 32.8657 57.1167 33.5055V35.3932Z" fill="#05C2DF" stroke="#05040B" stroke-width="0.5" stroke-linecap="round"/>
<path d="M62.8794 35.3932C62.8794 36.0331 62.3505 36.5589 61.6887 36.5589C61.0269 36.5589 60.498 36.033 60.498 35.3932V33.5055C60.498 32.8657 61.0271 32.3398 61.6887 32.3398C62.3504 32.3398 62.8794 32.8657 62.8794 33.5055V35.3932Z" fill="#05C2DF" stroke="#05040B" stroke-width="0.5" stroke-linecap="round"/>
<path d="M11.0132 39.1686C11.0132 39.8085 10.4843 40.3343 9.82252 40.3343C9.16087 40.3343 8.63184 39.8084 8.63184 39.1686V37.2809C8.63184 36.6411 9.16085 36.1152 9.82252 36.1152C10.4842 36.1152 11.0132 36.6411 11.0132 37.2809V39.1686Z" fill="#05C2DF" stroke="#05040B" stroke-width="0.5" stroke-linecap="round"/>
<path d="M16.7759 39.1686C16.7759 39.8085 16.247 40.3343 15.5852 40.3343C14.9234 40.3343 14.3945 39.8084 14.3945 39.1686V37.2809C14.3945 36.6411 14.9235 36.1152 15.5852 36.1152C16.2469 36.1152 16.7759 36.6411 16.7759 37.2809V39.1686Z" fill="#05C2DF" stroke="#05040B" stroke-width="0.5" stroke-linecap="round"/>
<path d="M22.5386 39.1686C22.5386 39.8085 22.0097 40.3343 21.3479 40.3343C20.6861 40.3343 20.1572 39.8084 20.1572 39.1686V37.2809C20.1572 36.6411 20.6862 36.1152 21.3479 36.1152C22.0096 36.1152 22.5386 36.6411 22.5386 37.2809V39.1686Z" fill="#05C2DF" stroke="#05040B" stroke-width="0.5" stroke-linecap="round"/>
<path d="M11.0132 48.6066C11.0132 49.2465 10.4843 49.7723 9.82252 49.7723C9.16087 49.7723 8.63184 49.2463 8.63184 48.6066V46.7189C8.63184 46.079 9.16085 45.5532 9.82252 45.5532C10.4842 45.5532 11.0132 46.079 11.0132 46.7189V48.6066Z" fill="#05C2DF" stroke="#05040B" stroke-width="0.5" stroke-linecap="round"/>
<path d="M16.7759 48.6066C16.7759 49.2465 16.247 49.7723 15.5852 49.7723C14.9234 49.7723 14.3945 49.2464 14.3945 48.6066V46.7189C14.3945 46.079 14.9235 45.5532 15.5852 45.5532C16.2469 45.5532 16.7759 46.079 16.7759 46.7189V48.6066Z" fill="#05C2DF" stroke="#05040B" stroke-width="0.5" stroke-linecap="round"/>
<path d="M22.5386 48.6066C22.5386 49.2465 22.0097 49.7723 21.3479 49.7723C20.6861 49.7723 20.1572 49.2464 20.1572 48.6066V46.7189C20.1572 46.079 20.6862 45.5532 21.3479 45.5532C22.0096 45.5532 22.5386 46.079 22.5386 46.7189V48.6066Z" fill="#05C2DF" stroke="#05040B" stroke-width="0.5" stroke-linecap="round"/>
<path d="M11.0132 58.0451C11.0132 58.685 10.4843 59.2108 9.82252 59.2108C9.16085 59.2108 8.63184 58.685 8.63184 58.0451V56.1574C8.63184 55.5175 9.16085 54.9917 9.82252 54.9917C10.4842 54.9917 11.0132 55.5175 11.0132 56.1574V58.0451Z" fill="#05C2DF" stroke="#05040B" stroke-width="0.5" stroke-linecap="round"/>
<path d="M16.7759 58.0451C16.7759 58.685 16.247 59.2108 15.5852 59.2108C14.9234 59.2108 14.3945 58.685 14.3945 58.0451V56.1574C14.3945 55.5175 14.9235 54.9917 15.5852 54.9917C16.2469 54.9917 16.7759 55.5175 16.7759 56.1574V58.0451Z" fill="#05C2DF" stroke="#05040B" stroke-width="0.5" stroke-linecap="round"/>
<path d="M22.5386 58.0451C22.5386 58.685 22.0097 59.2108 21.3479 59.2108C20.6861 59.2108 20.1572 58.685 20.1572 58.0451V56.1574C20.1572 55.5175 20.6862 54.9917 21.3479 54.9917C22.0096 54.9917 22.5386 55.5175 22.5386 56.1574V58.0451Z" fill="#05C2DF" stroke="#05040B" stroke-width="0.5" stroke-linecap="round"/>
<path d="M11.0132 67.4831C11.0132 68.123 10.4843 68.6488 9.82252 68.6488C9.16085 68.6488 8.63184 68.123 8.63184 67.4831V65.5954C8.63184 64.9555 9.16085 64.4297 9.82252 64.4297C10.4842 64.4297 11.0132 64.9555 11.0132 65.5954V67.4831Z" fill="#05C2DF" stroke="#05040B" stroke-width="0.5" stroke-linecap="round"/>
<path d="M16.7759 67.4831C16.7759 68.123 16.247 68.6488 15.5852 68.6488C14.9234 68.6488 14.3945 68.123 14.3945 67.4831V65.5954C14.3945 64.9555 14.9235 64.4297 15.5852 64.4297C16.2469 64.4297 16.7759 64.9555 16.7759 65.5954V67.4831Z" fill="#05C2DF" stroke="#05040B" stroke-width="0.5" stroke-linecap="round"/>
<path d="M22.5386 67.4831C22.5386 68.123 22.0097 68.6488 21.3479 68.6488C20.6861 68.6488 20.1572 68.123 20.1572 67.4831V65.5954C20.1572 64.9555 20.6862 64.4297 21.3479 64.4297C22.0096 64.4297 22.5386 64.9555 22.5386 65.5954V67.4831Z" fill="#05C2DF" stroke="#05040B" stroke-width="0.5" stroke-linecap="round"/>
<path d="M62.8794 44.8317C62.8794 45.4716 62.3505 45.9974 61.6887 45.9974C61.0269 45.9974 60.498 45.4715 60.498 44.8317V42.944C60.498 42.3041 61.0271 41.7783 61.6887 41.7783C62.3504 41.7783 62.8794 42.3041 62.8794 42.944V44.8317Z" fill="#05C2DF" stroke="#05040B" stroke-width="0.5" stroke-linecap="round"/>
<path d="M62.8794 54.2697C62.8794 54.9096 62.3505 55.4354 61.6887 55.4354C61.0269 55.4354 60.498 54.9094 60.498 54.2697V52.382C60.498 51.7421 61.0271 51.2163 61.6887 51.2163C62.3504 51.2163 62.8794 51.7421 62.8794 52.382V54.2697Z" fill="#05C2DF" stroke="#05040B" stroke-width="0.5" stroke-linecap="round"/>
<path d="M62.8794 63.7077C62.8794 64.3476 62.3505 64.8734 61.6887 64.8734C61.0269 64.8734 60.498 64.3474 60.498 63.7077V61.82C60.498 61.1801 61.0271 60.6543 61.6887 60.6543C62.3504 60.6543 62.8794 61.1801 62.8794 61.82V63.7077Z" fill="#05C2DF" stroke="#05040B" stroke-width="0.5" stroke-linecap="round"/>
<path d="M62.8794 73.1462C62.8794 73.7861 62.3505 74.3119 61.6887 74.3119C61.0269 74.3119 60.498 73.7859 60.498 73.1462V71.2585C60.498 70.6186 61.0271 70.0928 61.6887 70.0928C62.3504 70.0928 62.8794 70.6186 62.8794 71.2585V73.1462Z" fill="#05C2DF" stroke="#05040B" stroke-width="0.5" stroke-linecap="round"/>
<path d="M35.0697 20H23.5439" stroke="#05C2DF" stroke-linecap="round"/>
</svg>
