<svg width="98" height="81" viewBox="0 0 98 81" fill="none" xmlns="http://www.w3.org/2000/svg">
<g clip-path="url(#clip0)">
<path d="M62.2372 5.25319L49.2011 0.107422L0.275391 19.0257L49 41.4999L97.7244 19.0177L64.8872 6.43209" stroke="#05C2DF" stroke-miterlimit="10"/>
<path d="M47.9541 15.9351L74.4961 28.0985V71.9291" stroke="#05C2DF" stroke-miterlimit="10"/>
<path d="M16 26L16 40" stroke="#05C2DF" stroke-miterlimit="10"/>
<path d="M16.0801 43.1493V56.7943C16.0801 56.7943 47.5813 83.9769 81.7385 56.7943V26.3091" stroke="#05C2DF" stroke-miterlimit="10"/>
<path d="M74.4965 80.9004C76.9474 80.9004 78.9343 78.9041 78.9343 76.4416C78.9343 73.9791 76.9474 71.9829 74.4965 71.9829C72.0455 71.9829 70.0586 73.9791 70.0586 76.4416C70.0586 78.9041 72.0455 80.9004 74.4965 80.9004Z" stroke="#05C2DF" stroke-miterlimit="10"/>
</g>
<defs>
<clipPath id="clip0">
<rect width="98" height="81" fill="white"/>
</clipPath>
</defs>
</svg>
