<svg width="84" height="84" viewBox="0 0 84 84" fill="none" xmlns="http://www.w3.org/2000/svg">
<g clip-path="url(#clip0)">
<path d="M23.8708 25.927C23.5947 25.927 23.3708 26.1509 23.3708 26.427C23.3708 26.7032 23.5947 26.927 23.8708 26.927H35.6686C36.1744 26.927 36.5844 27.3369 36.5844 27.8429C36.5844 28.119 36.8083 28.3429 37.0844 28.3429C37.3606 28.3429 37.5844 28.119 37.5844 27.8429C37.5844 26.7844 36.7266 25.927 35.6686 25.927H23.8708ZM47.4663 43.9157H47.6381L47.7736 43.8102L48.3072 43.3945L48.5 43.2443V43V13.5C48.5 13.2239 48.2761 13 48 13C47.9887 13 47.9775 13.0004 47.9665 13.0011V7.07864C47.9665 6.57273 48.3763 6.16294 48.8822 6.16294H75.3092C75.8149 6.16294 76.2249 6.57277 76.2249 7.07864V80.6686H73.8933H63.5113H61.1799V46.2472V45.7472H60.6799H37.0844H36.5844V46.2472V47.2669V80.6686H34.2529H28.1461V75.0338C28.1461 73.9755 27.2882 73.1181 26.2304 73.1181H18.6799C17.6219 73.1181 16.7642 73.9755 16.7642 75.0338V80.6686H10.6574L8.96661 80.6685L8.32617 80.6685V27.8426C8.32617 27.3366 8.73605 26.9269 9.24187 26.9269H21.0396H21.5396V26.4269V14.6291C21.5396 14.1232 21.9495 13.7134 22.4553 13.7134H26.7025H27.2025V13.2134V7.07864C27.2025 6.57273 27.6124 6.16294 28.1182 6.16294H34.253H34.753V5.66294V1.4157C34.753 0.909827 35.163 0.5 35.6687 0.5C36.1744 0.5 36.5844 0.909828 36.5844 1.4157V5.66294V6.16294H37.0844H43.2194C43.7251 6.16294 44.1351 6.57277 44.1351 7.07864V13.2134V13.7134H44.6351H47.4665H47.5V42.7557L47.2946 42.9157H37.5844V39.1966H41.3317C41.6078 39.1966 41.8317 38.9727 41.8317 38.6966C41.8317 38.4205 41.6078 38.1966 41.3317 38.1966H37.0844H36.5844V38.6966V43.4157V43.9157H37.0844H47.4663ZM60.1799 46.7472V80.6686H37.5844V47.2669V46.7472H60.1799ZM27.1461 75.0338V80.6686H24.8147H24.3708V78.8091C24.3708 77.7507 23.513 76.8934 22.4551 76.8934C21.3973 76.8934 20.5394 77.7507 20.5394 78.8091V80.6686H20.0956H17.7642V75.0338C17.7642 74.5279 18.1741 74.1181 18.6799 74.1181H26.2304C26.7361 74.1181 27.1461 74.528 27.1461 75.0338ZM36.5844 35.8652C36.5844 36.1414 36.8083 36.3652 37.0844 36.3652C37.3606 36.3652 37.5844 36.1414 37.5844 35.8652V31.6461H41.3317C41.6078 31.6461 41.8317 31.4223 41.8317 31.1461C41.8317 30.87 41.6078 30.6461 41.3317 30.6461H37.0844H36.5844V31.1461V35.8652Z" stroke="#05C2DF" stroke-linecap="round"/>
<path d="M43 77.5001V51.0733" stroke="#05C2DF" stroke-linecap="round"/>
<path d="M49 77.4269V51" stroke="#05C2DF" stroke-linecap="round"/>
<path d="M55 77.4269V51" stroke="#05C2DF" stroke-linecap="round"/>
<path d="M57.3226 16.5166C57.3226 17.1606 56.8008 17.6823 56.1569 17.6823C55.513 17.6823 54.9912 17.1606 54.9912 16.5168V14.6291C54.9912 13.9851 55.5132 13.4634 56.1569 13.4634C56.8006 13.4634 57.3226 13.9851 57.3226 14.6291V16.5166Z" fill="#05C2DF" stroke="#05040B" stroke-width="0.5" stroke-linecap="round"/>
<path d="M62.9857 16.5166C62.9857 17.1606 62.4639 17.6823 61.82 17.6823C61.1761 17.6823 60.6543 17.1606 60.6543 16.5168V14.6291C60.6543 13.9851 61.1763 13.4634 61.82 13.4634C62.4637 13.4634 62.9857 13.9851 62.9857 14.6291V16.5166Z" fill="#05C2DF" stroke="#05040B" stroke-width="0.5" stroke-linecap="round"/>
<path d="M68.6498 16.5166C68.6498 17.1606 68.1279 17.6823 67.4841 17.6823C66.8402 17.6823 66.3184 17.1606 66.3184 16.5168V14.6291C66.3184 13.9851 66.8403 13.4634 67.4841 13.4634C68.1278 13.4634 68.6498 13.9851 68.6498 14.6291V16.5166Z" fill="#05C2DF" stroke="#05040B" stroke-width="0.5" stroke-linecap="round"/>
<path d="M57.3226 25.9548C57.3226 26.5988 56.8008 27.1205 56.1569 27.1205C55.513 27.1205 54.9912 26.5988 54.9912 25.9548V24.0671C54.9912 23.4231 55.5132 22.9014 56.1569 22.9014C56.8006 22.9014 57.3226 23.4231 57.3226 24.0671V25.9548Z" fill="#05C2DF" stroke="#05040B" stroke-width="0.5" stroke-linecap="round"/>
<path d="M62.9857 25.9548C62.9857 26.5988 62.4639 27.1205 61.82 27.1205C61.1761 27.1205 60.6543 26.5988 60.6543 25.9548V24.0671C60.6543 23.4231 61.1763 22.9014 61.82 22.9014C62.4637 22.9014 62.9857 23.4231 62.9857 24.0671V25.9548Z" fill="#05C2DF" stroke="#05040B" stroke-width="0.5" stroke-linecap="round"/>
<path d="M68.6498 25.9548C68.6498 26.5988 68.1279 27.1205 67.4841 27.1205C66.8402 27.1205 66.3184 26.5988 66.3184 25.9548V24.0671C66.3184 23.4231 66.8403 22.9014 67.4841 22.9014C68.1278 22.9014 68.6498 23.4231 68.6498 24.0671V25.9548Z" fill="#05C2DF" stroke="#05040B" stroke-width="0.5" stroke-linecap="round"/>
<path d="M57.3226 35.3932C57.3226 36.0372 56.8008 36.5589 56.1569 36.5589C55.5131 36.5589 54.9912 36.0371 54.9912 35.3932V33.5055C54.9912 32.8616 55.5132 32.3398 56.1569 32.3398C56.8006 32.3398 57.3226 32.8616 57.3226 33.5055V35.3932Z" fill="#05C2DF" stroke="#05040B" stroke-width="0.5" stroke-linecap="round"/>
<path d="M62.9857 35.3932C62.9857 36.0372 62.4639 36.5589 61.82 36.5589C61.1761 36.5589 60.6543 36.0371 60.6543 35.3932V33.5055C60.6543 32.8616 61.1763 32.3398 61.82 32.3398C62.4637 32.3398 62.9857 32.8616 62.9857 33.5055V35.3932Z" fill="#05C2DF" stroke="#05040B" stroke-width="0.5" stroke-linecap="round"/>
<path d="M68.6498 35.3932C68.6498 36.0372 68.1279 36.5589 67.4841 36.5589C66.8402 36.5589 66.3184 36.0371 66.3184 35.3932V33.5055C66.3184 32.8616 66.8403 32.3398 67.4841 32.3398C68.1278 32.3398 68.6498 32.8616 68.6498 33.5055V35.3932Z" fill="#05C2DF" stroke="#05040B" stroke-width="0.5" stroke-linecap="round"/>
<path d="M17.683 39.1686C17.683 39.8126 17.1611 40.3343 16.5173 40.3343C15.8736 40.3343 15.3516 39.8125 15.3516 39.1686V37.2809C15.3516 36.637 15.8735 36.1152 16.5173 36.1152C17.161 36.1152 17.683 36.637 17.683 37.2809V39.1686Z" fill="#05C2DF" stroke="#05040B" stroke-width="0.5" stroke-linecap="round"/>
<path d="M23.346 39.1686C23.346 39.8126 22.8242 40.3343 22.1803 40.3343C21.5365 40.3343 21.0146 39.8125 21.0146 39.1686V37.2809C21.0146 36.637 21.5366 36.1152 22.1803 36.1152C22.8241 36.1152 23.346 36.637 23.346 37.2809V39.1686Z" fill="#05C2DF" stroke="#05040B" stroke-width="0.5" stroke-linecap="round"/>
<path d="M29.0081 39.1686C29.0081 39.8126 28.4863 40.3343 27.8425 40.3343C27.1986 40.3343 26.6768 39.8125 26.6768 39.1686V37.2809C26.6768 36.637 27.1987 36.1152 27.8425 36.1152C28.4862 36.1152 29.0081 36.637 29.0081 37.2809V39.1686Z" fill="#05C2DF" stroke="#05040B" stroke-width="0.5" stroke-linecap="round"/>
<path d="M17.683 48.6066C17.683 49.2506 17.1611 49.7723 16.5173 49.7723C15.8736 49.7723 15.3516 49.2504 15.3516 48.6066V46.7189C15.3516 46.0749 15.8735 45.5532 16.5173 45.5532C17.161 45.5532 17.683 46.0749 17.683 46.7189V48.6066Z" fill="#05C2DF" stroke="#05040B" stroke-width="0.5" stroke-linecap="round"/>
<path d="M23.346 48.6066C23.346 49.2506 22.8242 49.7723 22.1803 49.7723C21.5365 49.7723 21.0146 49.2505 21.0146 48.6066V46.7189C21.0146 46.0749 21.5366 45.5532 22.1803 45.5532C22.8241 45.5532 23.346 46.0749 23.346 46.7189V48.6066Z" fill="#05C2DF" stroke="#05040B" stroke-width="0.5" stroke-linecap="round"/>
<path d="M29.0081 48.6066C29.0081 49.2506 28.4863 49.7723 27.8425 49.7723C27.1986 49.7723 26.6768 49.2505 26.6768 48.6066V46.7189C26.6768 46.0749 27.1987 45.5532 27.8425 45.5532C28.4862 45.5532 29.0081 46.0749 29.0081 46.7189V48.6066Z" fill="#05C2DF" stroke="#05040B" stroke-width="0.5" stroke-linecap="round"/>
<path d="M17.683 58.0451C17.683 58.6891 17.1611 59.2108 16.5173 59.2108C15.8735 59.2108 15.3516 58.6891 15.3516 58.0451V56.1574C15.3516 55.5134 15.8735 54.9917 16.5173 54.9917C17.161 54.9917 17.683 55.5134 17.683 56.1574V58.0451Z" fill="#05C2DF" stroke="#05040B" stroke-width="0.5" stroke-linecap="round"/>
<path d="M23.346 58.0451C23.346 58.6891 22.8242 59.2108 22.1803 59.2108C21.5365 59.2108 21.0146 58.6891 21.0146 58.0451V56.1574C21.0146 55.5134 21.5366 54.9917 22.1803 54.9917C22.8241 54.9917 23.346 55.5134 23.346 56.1574V58.0451Z" fill="#05C2DF" stroke="#05040B" stroke-width="0.5" stroke-linecap="round"/>
<path d="M29.0081 58.0451C29.0081 58.6891 28.4863 59.2108 27.8425 59.2108C27.1986 59.2108 26.6768 58.6891 26.6768 58.0451V56.1574C26.6768 55.5134 27.1987 54.9917 27.8425 54.9917C28.4862 54.9917 29.0081 55.5134 29.0081 56.1574V58.0451Z" fill="#05C2DF" stroke="#05040B" stroke-width="0.5" stroke-linecap="round"/>
<path d="M17.683 67.4831C17.683 68.1271 17.1611 68.6488 16.5173 68.6488C15.8735 68.6488 15.3516 68.1271 15.3516 67.4831V65.5954C15.3516 64.9514 15.8735 64.4297 16.5173 64.4297C17.161 64.4297 17.683 64.9514 17.683 65.5954V67.4831Z" fill="#05C2DF" stroke="#05040B" stroke-width="0.5" stroke-linecap="round"/>
<path d="M23.346 67.4831C23.346 68.1271 22.8242 68.6488 22.1803 68.6488C21.5365 68.6488 21.0146 68.1271 21.0146 67.4831V65.5954C21.0146 64.9514 21.5366 64.4297 22.1803 64.4297C22.8241 64.4297 23.346 64.9514 23.346 65.5954V67.4831Z" fill="#05C2DF" stroke="#05040B" stroke-width="0.5" stroke-linecap="round"/>
<path d="M29.0081 67.4831C29.0081 68.1271 28.4863 68.6488 27.8425 68.6488C27.1986 68.6488 26.6768 68.1271 26.6768 67.4831V65.5954C26.6768 64.9514 27.1987 64.4297 27.8425 64.4297C28.4862 64.4297 29.0081 64.9514 29.0081 65.5954V67.4831Z" fill="#05C2DF" stroke="#05040B" stroke-width="0.5" stroke-linecap="round"/>
<path d="M68.6498 44.8317C68.6498 45.4757 68.1279 45.9974 67.4841 45.9974C66.8402 45.9974 66.3184 45.4756 66.3184 44.8317V42.944C66.3184 42.3 66.8403 41.7783 67.4841 41.7783C68.1278 41.7783 68.6498 42.3 68.6498 42.944V44.8317Z" fill="#05C2DF" stroke="#05040B" stroke-width="0.5" stroke-linecap="round"/>
<path d="M68.6498 54.2697C68.6498 54.9137 68.1279 55.4354 67.4841 55.4354C66.8402 55.4354 66.3184 54.9135 66.3184 54.2697V52.382C66.3184 51.738 66.8403 51.2163 67.4841 51.2163C68.1278 51.2163 68.6498 51.738 68.6498 52.382V54.2697Z" fill="#05C2DF" stroke="#05040B" stroke-width="0.5" stroke-linecap="round"/>
<path d="M68.6498 63.7077C68.6498 64.3517 68.1279 64.8734 67.4841 64.8734C66.8402 64.8734 66.3184 64.3515 66.3184 63.7077V61.82C66.3184 61.176 66.8403 60.6543 67.4841 60.6543C68.1278 60.6543 68.6498 61.176 68.6498 61.82V63.7077Z" fill="#05C2DF" stroke="#05040B" stroke-width="0.5" stroke-linecap="round"/>
<path d="M68.6498 73.1462C68.6498 73.7902 68.1279 74.3119 67.4841 74.3119C66.8402 74.3119 66.3184 73.79 66.3184 73.1462V71.2585C66.3184 70.6145 66.8403 70.0928 67.4841 70.0928C68.1278 70.0928 68.6498 70.6145 68.6498 71.2585V73.1462Z" fill="#05C2DF" stroke="#05040B" stroke-width="0.5" stroke-linecap="round"/>
<path d="M41.3259 20H30" stroke="#05C2DF" stroke-linecap="round"/>
<path fill-rule="evenodd" clip-rule="evenodd" d="M56 42C55.4477 42 55 42.4477 55 43V44H57V43C57 42.4477 56.5523 42 56 42Z" fill="#05C2DF"/>
<path fill-rule="evenodd" clip-rule="evenodd" d="M62 42C61.4477 42 61 42.4477 61 43V44H63V43C63 42.4477 62.5523 42 62 42Z" fill="#05C2DF"/>
</g>
<defs>
<clipPath id="clip0">
<rect width="84" height="84" fill="white"/>
</clipPath>
</defs>
</svg>
