<svg width="83" height="83" viewBox="0 0 83 83" fill="none" xmlns="http://www.w3.org/2000/svg">
<g clip-path="url(#clip0_1_10295)">
<path d="M72.4337 22.1329C72.4337 19.3575 74.6914 17.0996 77.467 17.0996C80.2424 17.0996 82.5003 19.3575 82.5003 22.1329C82.5003 24.9085 80.2424 27.1662 77.467 27.1662C74.6916 27.1662 72.4337 24.9083 72.4337 22.1329Z" stroke="#05C2DF"/>
<path d="M0.5 67.7833C0.5 65.0079 2.75787 62.75 5.53328 62.75C8.30884 62.75 10.5666 65.0079 10.5666 67.7833C10.5666 70.5587 8.30884 72.8166 5.53328 72.8166C2.75787 72.8166 0.5 70.5587 0.5 67.7833Z" stroke="#05C2DF"/>
<path d="M73.9783 18.0439L63.1522 12.6309" stroke="#05C2DF"/>
<path d="M57.2165 77.4669C57.2165 74.6915 59.4742 72.4336 62.2498 72.4336C65.0253 72.4336 67.2831 74.6916 67.2831 77.467C67.2831 80.2425 65.0253 82.5003 62.2498 82.5003C59.4742 82.5003 57.2165 80.2423 57.2165 77.4669Z" stroke="#05C2DF"/>
<path d="M58.4862 73.6048L48.3566 68.2041" stroke="#05C2DF"/>
<path d="M36.4665 42.8829C36.4665 40.1075 38.7242 37.8496 41.4998 37.8496C44.2753 37.8496 46.5331 40.1075 46.5331 42.8829C46.5331 45.6583 44.2753 47.9162 41.4998 47.9162C38.7244 47.9162 36.4665 45.6584 36.4665 42.8829Z" stroke="#05C2DF"/>
<path d="M38.2524 38.6133L30.3133 32.4785" stroke="#05C2DF"/>
<path d="M51.6832 51.1835C51.6832 43.0697 58.2861 36.4668 66.3999 36.4668C74.5137 36.4668 81.1166 43.0697 81.1166 51.1835C81.1166 59.2973 74.5137 65.9002 66.3999 65.9002C58.2861 65.9002 51.6832 59.2973 51.6832 51.1835Z" stroke="#05C2DF"/>
<path d="M61.3667 47.0333C61.3667 44.2579 63.6244 42 66.4 42C69.1755 42 71.4333 44.2579 71.4333 47.0333C71.4333 49.8087 69.1755 52.0666 66.4 52.0666C63.6246 52.0666 61.3667 49.8088 61.3667 47.0333Z" stroke="#05C2DF"/>
<path d="M73.7591 63.9155L73.76 63.915C74.0315 63.7586 74.1998 63.4664 74.1998 63.1517V59.5052C74.1998 57.4935 72.5137 55.833 70.4128 55.833H62.3868C60.2859 55.833 58.5998 57.4937 58.5998 59.5038V63.1502C58.5998 63.4657 58.7676 63.7572 59.0405 63.9155H73.7591ZM73.7591 63.9155C71.5161 65.2136 68.9713 65.8997 66.3998 65.8997C63.8283 65.8997 61.2837 65.2136 59.0407 63.9156L73.7591 63.9155Z" stroke="#05C2DF"/>
<path d="M18.4836 67.7831C18.4836 59.6693 25.0865 53.0664 33.2003 53.0664C41.3141 53.0664 47.917 59.6691 47.917 67.783C47.917 75.8968 41.3141 82.4997 33.2003 82.4997C25.0865 82.4997 18.4836 75.8969 18.4836 67.7831Z" stroke="#05C2DF"/>
<path d="M28.1666 63.6329C28.1666 60.8575 30.4243 58.5996 33.1998 58.5996C35.9754 58.5996 38.2331 60.8575 38.2331 63.6329C38.2331 66.4083 35.9752 68.6662 33.1998 68.6662C30.4244 68.6662 28.1666 66.4084 28.1666 63.6329Z" stroke="#05C2DF"/>
<path d="M40.5604 80.5156L40.5595 80.5161C38.3165 81.8142 35.7718 82.5003 33.2002 82.5003C30.6287 82.5003 28.0841 81.8142 25.8411 80.5162C25.5681 80.358 25.4002 80.0664 25.4002 79.7508V76.1043C25.4002 74.0942 27.0863 72.4336 29.1872 72.4336H37.2132C39.3141 72.4336 41.0002 74.0941 41.0002 76.1058V79.7523C41.0002 80.0671 40.832 80.3591 40.5604 80.5156Z" stroke="#05C2DF"/>
<path d="M0.5 33.2001C0.5 25.0863 7.10289 18.4834 15.2167 18.4834C23.3304 18.4834 29.9333 25.0863 29.9334 33.2001C29.9334 41.3139 23.3306 47.9168 15.2167 47.9168C7.10289 47.9168 0.5 41.3139 0.5 33.2001Z" stroke="#05C2DF"/>
<path d="M10.1837 29.0499C10.1837 26.2745 12.4414 24.0166 15.217 24.0166C17.9924 24.0166 20.2503 26.2745 20.2503 29.0499C20.2503 31.8253 17.9926 34.0832 15.217 34.0832C12.4416 34.0832 10.1837 31.8253 10.1837 29.0499Z" stroke="#05C2DF"/>
<path d="M22.5767 45.9316L22.5759 45.9321C20.3329 47.2302 17.7881 47.9163 15.2166 47.9163C12.6451 47.9163 10.1005 47.2302 7.85751 45.9322C7.58448 45.774 7.41656 45.4824 7.41656 45.1669V41.5204C7.41656 39.5103 9.10268 37.8496 11.2035 37.8496H19.2296C21.3303 37.8496 23.0166 39.5102 23.0166 41.5218V45.1683C23.0166 45.483 22.8483 45.7752 22.5767 45.9316Z" stroke="#05C2DF"/>
<path d="M33.7002 15.2167C33.7002 7.10289 40.3031 0.5 48.4169 0.5C56.5306 0.5 63.1335 7.10289 63.1336 15.2167C63.1336 23.3306 56.5307 29.9334 48.4169 29.9334C40.3031 29.9334 33.7002 23.3306 33.7002 15.2167Z" stroke="#05C2DF"/>
<path d="M43.3831 11.0665C43.3831 8.29107 45.6408 6.0332 48.4163 6.0332C51.1917 6.0332 53.4496 8.29122 53.4496 11.0666C53.4496 13.842 51.1918 16.0998 48.4163 16.0998C45.6409 16.0998 43.3831 13.8419 43.3831 11.0665Z" stroke="#05C2DF"/>
<path d="M55.7768 27.9492L55.7759 27.9497C53.5329 29.2478 50.9882 29.9339 48.4166 29.9339C45.8452 29.9339 43.3005 29.2478 41.0576 27.9498C40.7846 27.7916 40.6166 27.5 40.6166 27.1844V23.5379C40.6166 21.5278 42.3027 19.8672 44.4036 19.8672H52.4297C54.5304 19.8672 56.2166 21.5276 56.2166 23.5394V27.1859C56.2166 27.5005 56.0484 27.7927 55.7768 27.9492Z" stroke="#05C2DF"/>
<path d="M33.4039 14.4346L24.5391 21.652" stroke="#05C2DF"/>
<path d="M65.6781 36.0872L58.4607 26.3438" stroke="#05C2DF"/>
<path d="M52.1143 56.2959L46.5522 60.6263" stroke="#05C2DF"/>
<path d="M18.3443 67.4824H10.826" stroke="#05C2DF"/>
<path d="M20.2497 5.53325V5.53328C20.2497 8.30869 17.992 10.5666 15.2164 10.5666C12.441 10.5666 10.1832 8.30884 10.1832 5.53328C10.1832 2.75788 12.441 0.5 15.2166 0.5C17.992 0.5 20.2499 2.75787 20.2497 5.53325Z" stroke="#05C2DF"/>
<path d="M14.0736 10.8262V18.0436" stroke="#05C2DF"/>
</g>
<defs>
<clipPath id="clip0_1_10295">
<rect width="83" height="83" fill="white"/>
</clipPath>
</defs>
</svg>
