<svg width="83" height="83" viewBox="0 0 83 83" fill="none" xmlns="http://www.w3.org/2000/svg">
<g clip-path="url(#clip0)">
<path d="M72.4336 22.1334C72.4336 19.358 74.6913 17.1001 77.4669 17.1001C80.2423 17.1001 82.5001 19.358 82.5001 22.1334C82.5001 24.9089 80.2423 27.1667 77.4669 27.1667C74.6915 27.1667 72.4336 24.9088 72.4336 22.1334Z" stroke="#05C2DF"/>
<path d="M0.5 67.7833C0.5 65.0079 2.75787 62.75 5.53328 62.75C8.30884 62.75 10.5666 65.0079 10.5666 67.7833C10.5666 70.5587 8.30884 72.8166 5.53328 72.8166C2.75787 72.8166 0.5 70.5587 0.5 67.7833Z" stroke="#05C2DF"/>
<path d="M73.9784 18.0434L63.1523 12.6304" stroke="#05C2DF"/>
<path d="M57.2168 77.4664C57.2168 74.691 59.4745 72.4331 62.2501 72.4331C65.0256 72.4331 67.2834 74.6911 67.2834 77.4666C67.2834 80.242 65.0256 82.4998 62.2501 82.4998C59.4745 82.4998 57.2168 80.2418 57.2168 77.4664Z" stroke="#05C2DF"/>
<path d="M58.4861 73.6048L48.3564 68.2041" stroke="#05C2DF"/>
<path d="M36.4668 42.8834C36.4668 40.108 38.7245 37.8501 41.5001 37.8501C44.2756 37.8501 46.5334 40.108 46.5334 42.8834C46.5334 45.6588 44.2756 47.9167 41.5001 47.9167C38.7247 47.9167 36.4668 45.6589 36.4668 42.8834Z" stroke="#05C2DF"/>
<path d="M38.2526 38.6133L30.3135 32.4785" stroke="#05C2DF"/>
<path d="M51.6836 51.1835C51.6836 43.0697 58.2865 36.4668 66.4003 36.4668C74.5141 36.4668 81.117 43.0697 81.117 51.1835C81.117 59.2973 74.5141 65.9002 66.4003 65.9002C58.2865 65.9002 51.6836 59.2973 51.6836 51.1835Z" stroke="#05C2DF"/>
<path d="M61.3662 47.0333C61.3662 44.2579 63.6239 42 66.3995 42C69.175 42 71.4328 44.2579 71.4328 47.0333C71.4328 49.8087 69.175 52.0666 66.3995 52.0666C63.6241 52.0666 61.3662 49.8088 61.3662 47.0333Z" stroke="#05C2DF"/>
<path d="M73.7598 63.9155L73.7589 63.916C71.5159 65.2141 68.9712 65.9002 66.3996 65.9002C63.8281 65.9002 61.2833 65.2141 59.0403 63.916C58.7674 63.7577 58.5996 63.4662 58.5996 63.1507V59.5042C58.5996 57.4942 60.2857 55.8335 62.3866 55.8335H70.4126C72.5135 55.8335 74.1996 57.494 74.1996 59.5057V63.1522C74.1996 63.4669 74.0313 63.759 73.7598 63.9155Z" stroke="#05C2DF"/>
<path d="M18.4834 67.7836C18.4834 59.6698 25.0863 53.0669 33.2001 53.0669C41.3139 53.0669 47.9168 59.6696 47.9168 67.7834C47.9168 75.8973 41.3139 82.5002 33.2001 82.5002C25.0863 82.5002 18.4834 75.8974 18.4834 67.7836Z" stroke="#05C2DF"/>
<path d="M28.167 63.6334C28.167 60.858 30.4247 58.6001 33.2003 58.6001C35.9758 58.6001 38.2335 60.858 38.2335 63.6334C38.2335 66.4088 35.9757 68.6667 33.2003 68.6667C30.4249 68.6667 28.167 66.4089 28.167 63.6334Z" stroke="#05C2DF"/>
<path d="M40.5606 80.5151L40.5597 80.5156C38.3167 81.8137 35.7719 82.4998 33.2004 82.4998C30.6289 82.4998 28.0843 81.8137 25.8413 80.5157C25.5683 80.3575 25.4004 80.0659 25.4004 79.7504V76.1039C25.4004 74.0938 27.0865 72.4331 29.1874 72.4331H37.2134C39.3143 72.4331 41.0004 74.0936 41.0004 76.1053V79.7518C41.0004 80.0666 40.8321 80.3586 40.5606 80.5151Z" stroke="#05C2DF"/>
<path d="M0.5 33.2001C0.5 25.0863 7.10289 18.4834 15.2167 18.4834C23.3304 18.4834 29.9333 25.0863 29.9334 33.2001C29.9334 41.3139 23.3306 47.9168 15.2167 47.9168C7.10289 47.9168 0.5 41.3139 0.5 33.2001Z" stroke="#05C2DF"/>
<path d="M10.1836 29.0499C10.1836 26.2745 12.4413 24.0166 15.2169 24.0166C17.9923 24.0166 20.2502 26.2745 20.2502 29.0499C20.2502 31.8253 17.9924 34.0832 15.2169 34.0832C12.4415 34.0832 10.1836 31.8253 10.1836 29.0499Z" stroke="#05C2DF"/>
<path d="M22.5772 45.9321L22.5763 45.9326C20.3333 47.2307 17.7885 47.9168 15.217 47.9168C12.6454 47.9168 10.1007 47.2307 7.8577 45.9326C7.58481 45.7743 7.41699 45.4828 7.41699 45.1673V41.5208C7.41699 39.5108 9.1031 37.8501 11.204 37.8501H19.23C21.3308 37.8501 23.017 39.5106 23.017 41.5223V45.1688C23.017 45.4835 22.8487 45.7756 22.5772 45.9321Z" stroke="#05C2DF"/>
<path d="M33.7002 15.2167C33.7002 7.10289 40.3031 0.5 48.4169 0.5C56.5306 0.5 63.1335 7.10289 63.1336 15.2167C63.1336 23.3306 56.5307 29.9334 48.4169 29.9334C40.3031 29.9334 33.7002 23.3306 33.7002 15.2167Z" stroke="#05C2DF"/>
<path d="M43.3828 11.0665C43.3828 8.29107 45.6405 6.0332 48.4161 6.0332C51.1915 6.0332 53.4494 8.29122 53.4494 11.0666C53.4494 13.842 51.1915 16.0998 48.4161 16.0998C45.6407 16.0998 43.3828 13.8419 43.3828 11.0665Z" stroke="#05C2DF"/>
<path d="M55.7764 27.9487L55.7755 27.9492C53.5325 29.2473 50.9878 29.9334 48.4162 29.9334C45.8448 29.9334 43.3001 29.2473 41.0572 27.9493C40.7841 27.7911 40.6162 27.4995 40.6162 27.1839V23.5374C40.6162 21.5274 42.3023 19.8667 44.4032 19.8667H52.4292C54.53 19.8667 56.2162 21.5271 56.2162 23.5389V27.1854C56.2162 27.5001 56.0479 27.7922 55.7764 27.9487Z" stroke="#05C2DF"/>
<path d="M33.4038 14.4346L24.5391 21.652" stroke="#05C2DF"/>
<path d="M65.6783 36.0867L58.4609 26.3433" stroke="#05C2DF"/>
<path d="M52.1138 56.2954L46.5518 60.6258" stroke="#05C2DF"/>
<path d="M18.3444 67.4824H10.8262" stroke="#05C2DF"/>
<path d="M20.2502 5.53325V5.53328C20.2502 8.30869 17.9924 10.5666 15.2169 10.5666C12.4415 10.5666 10.1836 8.30884 10.1836 5.53328C10.1836 2.75788 12.4415 0.5 15.217 0.5C17.9924 0.5 20.2503 2.75787 20.2502 5.53325Z" stroke="#05C2DF"/>
<path d="M14.0732 10.8262V18.0436" stroke="#05C2DF"/>
</g>
<defs>
<clipPath id="clip0">
<rect width="83" height="83" fill="white"/>
</clipPath>
</defs>
</svg>
