<svg width="98" height="81" viewBox="0 0 98 81" fill="none" xmlns="http://www.w3.org/2000/svg">
<path d="M45.0135 28.0792V21.0688M61.6458 35.3644H69.7558M31.9551 45.8111H36.3537M53.9482 60.519V53.5087" stroke="#05C2DF"/>
<rect x="36.7168" y="28.4414" width="24.567" height="24.567" rx="3.5" stroke="#05C2DF"/>
<rect x="41.3896" y="33.1152" width="15.4948" height="15.4948" rx="3.5" stroke="#05C2DF"/>
<rect x="69.9814" y="1.5" width="18.5189" height="18.5189" rx="3.5" stroke="#05C2DF"/>
<rect x="74.3799" y="5.89844" width="9.99656" height="9.99656" rx="2.5" stroke="#05C2DF"/>
<rect x="9.5" y="1.5" width="18.5189" height="18.5189" rx="3.5" stroke="#05C2DF"/>
<rect x="13.8984" y="5.89844" width="9.99656" height="9.99656" rx="2.5" stroke="#05C2DF"/>
<rect x="10.3252" y="61.4312" width="18.5189" height="18.5189" rx="3.5" stroke="#05C2DF"/>
<rect x="14.7236" y="65.8301" width="9.99656" height="9.99656" rx="2.5" stroke="#05C2DF"/>
<rect x="69.9814" y="61.4312" width="18.5189" height="18.5189" rx="3.5" stroke="#05C2DF"/>
<rect x="74.3799" y="65.8301" width="9.99656" height="9.99656" rx="2.5" stroke="#05C2DF"/>
<path d="M54.2236 28.0791V10.897H69.3439" stroke="#05C2DF"/>
<path d="M36.3535 38.1133L18.8965 38.1133L18.8965 20.5188" stroke="#05C2DF"/>
<path d="M61.7837 41.9624L78.9658 41.9624L78.9658 60.9315" stroke="#05C2DF"/>
<path d="M45.5635 53.5088L45.5635 70.6909L29.2061 70.6909" stroke="#05C2DF"/>
<circle cx="45.0133" cy="18.5943" r="1.97423" stroke="#05C2DF"/>
<circle cx="72.2301" cy="35.3644" r="1.97423" stroke="#05C2DF"/>
<circle cx="29.6188" cy="45.8111" r="1.97423" stroke="#05C2DF"/>
<circle cx="53.8111" cy="62.8556" r="1.97423" stroke="#05C2DF"/>
</svg>
