<svg width="81" height="80" viewBox="0 0 81 80" fill="none" xmlns="http://www.w3.org/2000/svg">
<path d="M36.0457 27.079V20.0687M52.678 34.3643H60.788M22.9873 44.811H27.3859M44.9804 59.5189V52.5086" stroke="#05C2DF"/>
<rect x="27.7485" y="27.4415" width="24.567" height="24.567" rx="3.5" stroke="#05C2DF"/>
<rect x="32.422" y="32.1151" width="15.4948" height="15.4948" rx="3.5" stroke="#05C2DF"/>
<rect x="61.0131" y="0.5" width="18.5189" height="18.5189" rx="3.5" stroke="#05C2DF"/>
<rect x="65.4117" y="4.89868" width="9.99656" height="9.99656" rx="2.5" stroke="#05C2DF"/>
<rect x="0.531982" y="0.5" width="18.5189" height="18.5189" rx="3.5" stroke="#05C2DF"/>
<rect x="4.93066" y="4.89868" width="9.99656" height="9.99656" rx="2.5" stroke="#05C2DF"/>
<rect x="1.35669" y="60.4313" width="18.5189" height="18.5189" rx="3.5" stroke="#05C2DF"/>
<rect x="5.75537" y="64.8298" width="9.99656" height="9.99656" rx="2.5" stroke="#05C2DF"/>
<rect x="61.0131" y="60.4313" width="18.5189" height="18.5189" rx="3.5" stroke="#05C2DF"/>
<rect x="65.4117" y="64.8298" width="9.99656" height="9.99656" rx="2.5" stroke="#05C2DF"/>
<path d="M45.2554 27.079V9.89685H60.3756" stroke="#05C2DF"/>
<path d="M27.3859 37.1134L9.92883 37.1134L9.92884 19.5189" stroke="#05C2DF"/>
<path d="M52.8154 40.9622L69.9975 40.9622L69.9976 59.9312" stroke="#05C2DF"/>
<path d="M36.5956 52.5085L36.5956 69.6907L20.2382 69.6907" stroke="#05C2DF"/>
<circle cx="36.0458" cy="17.5945" r="1.97423" stroke="#05C2DF"/>
<circle cx="63.2622" cy="34.3642" r="1.97423" stroke="#05C2DF"/>
<circle cx="20.6505" cy="44.811" r="1.97423" stroke="#05C2DF"/>
<circle cx="44.843" cy="61.8557" r="1.97423" stroke="#05C2DF"/>
</svg>
