<svg width="279" height="27" viewBox="0 0 279 27" fill="none" xmlns="http://www.w3.org/2000/svg">
<path d="M17.955 21H14.448V10.941L11.508 19.614H7.7805L4.8405 10.9725V21H1.3335V6.3H6.3L9.6495 15.6345L12.978 6.3H17.955V21ZM24.6424 6.6045C25.6084 6.2195 26.6514 6.027 27.7714 6.027C28.8914 6.027 29.9309 6.2195 30.8899 6.6045C31.8559 6.9895 32.6749 7.518 33.3469 8.19C34.0259 8.855 34.5579 9.66 34.9429 10.605C35.3279 11.55 35.5204 12.565 35.5204 13.65C35.5204 14.735 35.3279 15.75 34.9429 16.695C34.5579 17.64 34.0259 18.4485 33.3469 19.1205C32.6749 19.7855 31.8559 20.3105 30.8899 20.6955C29.9309 21.0805 28.8914 21.273 27.7714 21.273C26.6514 21.273 25.6084 21.0805 24.6424 20.6955C23.6834 20.3105 22.8644 19.7855 22.1854 19.1205C21.5134 18.4485 20.9849 17.64 20.5999 16.695C20.2149 15.75 20.0224 14.735 20.0224 13.65C20.0224 12.565 20.2149 11.55 20.5999 10.605C20.9849 9.66 21.5134 8.855 22.1854 8.19C22.8644 7.518 23.6834 6.9895 24.6424 6.6045ZM30.7114 10.5735C29.9484 9.7825 28.9684 9.387 27.7714 9.387C26.5744 9.387 25.5909 9.7825 24.8209 10.5735C24.0579 11.3645 23.6764 12.39 23.6764 13.65C23.6764 14.91 24.0579 15.9355 24.8209 16.7265C25.5909 17.5175 26.5744 17.913 27.7714 17.913C28.9684 17.913 29.9484 17.5175 30.7114 16.7265C31.4814 15.9355 31.8664 14.91 31.8664 13.65C31.8664 12.39 31.4814 11.3645 30.7114 10.5735ZM43.9653 6.3C45.7643 6.3 47.1398 6.7165 48.0918 7.5495C49.0508 8.3825 49.5303 9.534 49.5303 11.004C49.5303 12.173 49.1733 13.146 48.4593 13.923C47.7453 14.693 46.7338 15.183 45.4248 15.393L49.6458 21H45.4668L41.5923 15.498H41.0778V21H37.5708V6.3H43.9653ZM41.0778 9.4815V12.5475H43.9233C44.5743 12.5475 45.0748 12.418 45.4248 12.159C45.7818 11.9 45.9603 11.515 45.9603 11.004C45.9603 10.493 45.7818 10.1115 45.4248 9.8595C45.0678 9.6075 44.5673 9.4815 43.9233 9.4815H41.0778ZM62.9772 21H51.7212V6.3H62.9352V9.4605H55.2282V12.0015H62.4837V15.1515H55.2282V17.8395H62.9772V21ZM80.9906 9.555H76.6436V21H73.1366V9.555H68.7791V6.3H80.9906V9.555ZM86.0925 11.9595H92.277V6.3H95.784V21H92.277V15.204H86.0925V21H82.5855V6.3H86.0925V11.9595ZM112.718 21H108.98L107.867 17.913H102.029L100.916 21H97.251L102.89 6.3H107.079L112.718 21ZM103.163 14.742H106.733L104.948 9.786L103.163 14.742ZM127.744 21H124.373L117.674 12.033V21H114.167V6.3H117.527L124.226 15.267V6.3H127.744V21Z" fill="white"/>
<path d="M139.127 11.634C139.232 11.487 139.358 11.34 139.484 11.214C140.177 10.521 141.08 10.143 142.046 10.143C143.012 10.143 143.915 10.521 144.608 11.214C144.944 11.55 145.217 11.949 145.406 12.39L145.49 12.558H149.186L149.102 12.201C148.703 10.416 147.653 8.862 146.141 7.833C144.944 6.993 143.537 6.552 142.067 6.552C139.946 6.552 137.93 7.476 136.565 9.093L136.397 9.303L138.959 11.865L139.127 11.634ZM142.844 14.952L144.146 16.758C143.537 17.178 142.823 17.409 142.067 17.409C141.101 17.409 140.198 17.031 139.505 16.338C138.812 15.645 138.434 14.742 138.434 13.776C138.434 13.587 138.455 13.398 138.476 13.209L138.497 13.062L135.725 10.29L135.557 10.668C135.095 11.634 134.864 12.684 134.864 13.776C134.864 15.708 135.62 17.514 136.985 18.879C138.35 20.244 140.156 21 142.088 21C143.369 21 144.629 20.664 145.721 20.013V20.979H149.291V14.994L142.844 14.952ZM151.372 21H155.551L159.625 14.301L157.546 10.857L151.372 21ZM160.297 6.321L158.218 9.744L164.161 19.593L165.022 21.021H169.201L160.297 6.321ZM171.306 21H174.876V16.275L171.306 12.705V21ZM185.166 6.573L178.509 13.23L171.852 6.573H171.285V11.067L174.855 14.637L178.488 18.291L182.121 14.637V21H185.691V6.573H185.166ZM187.835 6.573V8.358L191.405 11.928V6.573H187.835ZM187.835 21H191.405V13.566L187.835 9.996V21ZM193.495 21H197.065V16.275L193.495 12.705V21ZM203.302 9.66L203.218 9.744V15.75L194.146 6.678L194.062 6.594H193.495V11.088L197.065 14.658L199.354 16.947L203.281 20.874L203.428 21.021H206.788V6.174L203.302 9.66ZM213.181 11.634C213.286 11.487 213.412 11.34 213.538 11.214C214.231 10.521 215.134 10.143 216.1 10.143C217.066 10.143 217.969 10.521 218.662 11.214C218.998 11.55 219.271 11.949 219.46 12.39L219.544 12.558H223.24L223.156 12.201C222.757 10.416 221.707 8.862 220.195 7.833C218.998 6.993 217.591 6.552 216.121 6.552C214 6.552 211.984 7.476 210.619 9.093L210.451 9.303L213.013 11.865L213.181 11.634ZM216.898 14.952L218.2 16.758C217.591 17.178 216.877 17.409 216.121 17.409C215.155 17.409 214.252 17.031 213.559 16.338C212.866 15.645 212.488 14.742 212.488 13.776C212.488 13.587 212.509 13.398 212.53 13.209L212.551 13.062L209.779 10.29L209.611 10.668C209.149 11.634 208.918 12.684 208.918 13.776C208.918 15.708 209.674 17.514 211.039 18.879C212.404 20.244 214.21 21 216.142 21C217.423 21 218.683 20.664 219.775 20.013V20.979H223.345V14.994L216.898 14.952ZM225.426 6.426V15.246L228.429 18.249V6.426H225.426ZM225.426 21H228.429V20.706L225.426 17.703V21Z" fill="#05C2DF"/>
<path d="M161.148 17H164.939V19H158.874L161.148 17Z" fill="#05C2DF"/>
</svg>
