<svg width="202" height="27" viewBox="0 0 202 27" fill="none" xmlns="http://www.w3.org/2000/svg">
<path d="M18.3855 21H14.2065L11.4345 11.5185L8.6625 21H4.4835L0.1995 6.3H3.822L6.6255 16.8315L9.5655 6.3H13.356L16.296 16.8525L19.0995 6.3H22.6695L18.3855 21ZM27.7067 11.9595H33.8912V6.3H37.3982V21H33.8912V15.204H27.7067V21H24.1997V6.3H27.7067V11.9595ZM47.8848 15.3405V21H44.3673V15.3615L38.7813 6.3H42.8448L46.1418 12.1695L49.4283 6.3H53.3763L47.8848 15.3405Z" fill="white"/>
<path d="M68.6643 21H72.2343V16.38L68.6643 12.81V21ZM77.1273 14.574L82.9653 10.71L83.0913 10.626V6.342L74.5443 11.991L68.8323 6.552H68.6643V11.151L78.4923 20.979H83.5533L77.1273 14.574ZM84.1682 21H88.3472L92.4212 14.301L90.3422 10.857L84.1682 21ZM93.0932 6.321L91.0142 9.744L96.9572 19.593L97.8182 21.021H101.997L93.0932 6.321ZM107.223 21H110.793V17.094L107.223 13.524V21ZM101.805 6.573V10.143H107.223V11.886L110.793 15.456V10.143H116.232V6.573H101.805ZM132.417 17.43H131.871V6.573H128.301V21H135.987L132.501 17.514L132.417 17.43ZM134.055 17.43L137.625 21H138.339V17.43H134.055ZM152.769 8.673C151.404 7.308 149.598 6.552 147.666 6.552C146.049 6.552 144.516 7.077 143.235 8.064L142.983 8.274L145.524 10.815L145.713 10.689C146.28 10.332 146.952 10.143 147.645 10.143C148.611 10.143 149.514 10.521 150.207 11.214C150.9 11.907 151.278 12.81 151.278 13.776C151.278 14.469 151.089 15.141 150.732 15.708L150.606 15.897L153.147 18.438L153.357 18.186C154.344 16.905 154.869 15.372 154.869 13.755C154.869 11.823 154.113 10.017 152.748 8.652L152.769 8.673ZM149.577 16.821C149.01 17.178 148.338 17.367 147.645 17.367C146.679 17.367 145.776 16.989 145.083 16.296C144.39 15.603 144.012 14.7 144.012 13.734C144.012 13.041 144.201 12.369 144.558 11.802L144.684 11.613L142.143 9.072L141.933 9.324C140.946 10.605 140.421 12.138 140.421 13.755C140.421 15.687 141.177 17.493 142.542 18.858C143.907 20.223 145.713 20.979 147.645 20.979C149.262 20.979 150.795 20.454 152.076 19.467L152.328 19.257L149.787 16.716L149.577 16.821ZM161.045 11.907C161.234 11.55 161.465 11.214 161.759 10.92C162.473 10.206 163.418 9.807 164.426 9.807C165.434 9.807 166.379 10.206 167.093 10.92C167.45 11.277 167.723 11.676 167.912 12.138L167.996 12.306H171.776L171.692 11.949C171.335 10.332 170.432 8.862 169.13 7.812C167.807 6.741 166.148 6.153 164.447 6.153C162.011 6.153 159.722 7.35 158.336 9.345L158.189 9.534L160.898 12.243L161.045 11.907ZM167.891 14.994C167.702 15.456 167.429 15.855 167.072 16.212C166.778 16.506 166.442 16.737 166.085 16.926C165.98 16.989 165.875 17.031 165.749 17.073C165.392 17.199 165.014 17.283 164.636 17.304C164.468 17.304 164.279 17.304 164.111 17.283C163.229 17.22 162.389 16.842 161.759 16.212C161.129 15.582 160.751 14.742 160.688 13.86V13.755L157.58 10.647L157.433 11.088C157.16 11.886 157.013 12.726 157.013 13.566C157.013 15.54 157.79 17.409 159.197 18.816C160.604 20.223 162.473 21 164.447 21C165.455 21 166.421 20.811 167.345 20.433C167.513 20.37 167.681 20.286 167.849 20.202C168.794 19.719 169.655 19.005 170.306 18.165C170.978 17.304 171.461 16.296 171.692 15.246L171.776 14.889H167.996L167.891 14.994ZM186.135 8.673C184.77 7.308 182.964 6.552 181.032 6.552C179.415 6.552 177.882 7.077 176.601 8.064L176.349 8.274L178.89 10.815L179.079 10.689C179.646 10.332 180.318 10.143 181.011 10.143C181.977 10.143 182.88 10.521 183.573 11.214C184.266 11.907 184.644 12.81 184.644 13.776C184.644 14.469 184.455 15.141 184.098 15.708L183.972 15.897L186.513 18.438L186.723 18.186C187.71 16.905 188.235 15.372 188.235 13.755C188.235 11.823 187.479 10.017 186.114 8.652L186.135 8.673ZM182.943 16.821C182.376 17.178 181.704 17.367 181.011 17.367C180.045 17.367 179.142 16.989 178.449 16.296C177.756 15.603 177.378 14.7 177.378 13.734C177.378 13.041 177.567 12.369 177.924 11.802L178.05 11.613L175.509 9.072L175.299 9.324C174.312 10.605 173.787 12.138 173.787 13.755C173.787 15.687 174.543 17.493 175.908 18.858C177.273 20.223 179.079 20.979 181.011 20.979C182.628 20.979 184.161 20.454 185.442 19.467L185.694 19.257L183.153 16.716L182.943 16.821ZM194.411 17.409V21H197.519V20.517L195.251 18.249L194.411 17.409ZM200.249 8.946C199.493 7.056 197.645 5.712 195.482 5.712C192.71 5.712 190.442 7.896 190.316 10.626H193.445C193.571 9.618 194.432 8.841 195.482 8.841C195.902 8.841 196.301 8.967 196.637 9.198C196.973 9.429 197.225 9.744 197.372 10.122C197.477 10.353 197.519 10.605 197.519 10.878C197.519 11.256 197.414 11.571 197.288 11.823L194.411 14.7V14.847L195.587 16.023L196.532 16.968L197.519 17.955V15.981L198.359 15.141C198.527 15.036 198.695 14.91 198.842 14.784C199.031 14.616 199.199 14.448 199.367 14.259C200.144 13.356 200.627 12.18 200.627 10.899C200.627 10.227 200.501 9.576 200.27 8.988L200.249 8.946Z" fill="#05C2DF"/>
<path d="M93.875 17H97V19H92L93.875 17Z" fill="#05C2DF"/>
</svg>
