<svg width="18" height="18" viewBox="0 0 18 18" fill="none" xmlns="http://www.w3.org/2000/svg">
<path d="M1.44281 10.7859C1.39724 11.0516 1.36542 11.3206 1.36542 11.5959C1.36542 14.9451 4.91769 17.6699 9.19954 17.6699C13.4814 17.6699 16.9646 14.9451 16.9646 11.5959C16.9646 11.3206 16.9328 11.0516 16.8873 10.7859C17.5586 10.4126 18 9.67531 18 8.83495C18 7.61684 17.0713 6.62621 15.9293 6.62621C15.4074 6.62621 14.9171 6.83486 14.5411 7.19867C13.24 6.23106 11.5136 5.6156 9.60478 5.53795L10.5954 1.43927L12.8293 2.27302C12.8621 3.46093 13.7726 4.41748 14.8939 4.41748C16.0359 4.41748 16.9646 3.42685 16.9646 2.20874C16.9646 0.990625 16.0359 0 14.8939 0C14.0978 0 13.4132 0.4869 13.0669 1.19137L9.8744 0.000575192L8.53277 5.5483C6.72738 5.66909 5.03066 6.2752 3.78892 7.19867C3.41293 6.83486 2.92262 6.62621 2.40077 6.62621C1.25879 6.62621 0.330078 7.61684 0.330078 8.83495C0.330078 9.67531 0.771448 10.4126 1.44281 10.7859ZM12.3056 8.83495C13.1619 8.83495 13.8586 9.5781 13.8586 10.4915C13.8586 11.4049 13.1619 12.1481 12.3056 12.1481C11.4493 12.1481 10.7526 11.4049 10.7526 10.4915C10.7526 9.5781 11.4493 8.83495 12.3056 8.83495ZM12.0842 13.713L12.5269 14.7105C11.5554 15.2018 10.4047 15.4612 9.19954 15.4612C7.99433 15.4612 6.7747 15.2018 5.80312 14.7105L6.24584 13.7129C7.91426 14.5552 10.4158 14.5552 12.0842 13.713ZM6.02448 8.83495C6.8808 8.83495 7.5775 9.5781 7.5775 10.4915C7.5775 11.4049 6.8808 12.1481 6.02448 12.1481C5.16816 12.1481 4.47146 11.4049 4.47146 10.4915C4.47146 9.5781 5.16816 8.83495 6.02448 8.83495Z" fill="white"/>
</svg>
