<svg width="98" height="81" viewBox="0 0 98 81" fill="none" xmlns="http://www.w3.org/2000/svg">
<g clip-path="url(#clip0)">
<path d="M62.2372 5.25331L49.2011 0.107544L0.275391 19.0258L49 41.5L97.7244 19.0178L64.8872 6.43221" stroke="#05C2DF" stroke-miterlimit="10"/>
<path d="M47.9551 15.9352L74.4971 28.0986V71.9292" stroke="#05C2DF" stroke-miterlimit="10"/>
<path d="M16 26L16 40" stroke="#05C2DF" stroke-miterlimit="10"/>
<path d="M16.0801 43.1496V56.7946C16.0801 56.7946 47.5813 83.9771 81.7385 56.7946V26.3093" stroke="#05C2DF" stroke-miterlimit="10"/>
<path d="M74.4965 80.9004C76.9474 80.9004 78.9343 78.9042 78.9343 76.4417C78.9343 73.9792 76.9474 71.983 74.4965 71.983C72.0455 71.983 70.0586 73.9792 70.0586 76.4417C70.0586 78.9042 72.0455 80.9004 74.4965 80.9004Z" stroke="#05C2DF" stroke-miterlimit="10"/>
</g>
<defs>
<clipPath id="clip0">
<rect width="98" height="81" fill="white"/>
</clipPath>
</defs>
</svg>
