<svg width="115" height="84" viewBox="0 0 115 84" fill="none" xmlns="http://www.w3.org/2000/svg">
<path d="M49.5626 18.1415L49.5626 18.1415C52.3582 21.9981 53.8358 26.5591 53.8358 31.3346C53.8358 43.7414 43.7414 53.8358 31.3346 53.8358C18.9278 53.8358 8.83342 43.7414 8.83342 31.3346C8.83342 18.9278 18.9278 8.83342 31.3346 8.83342C36.1023 8.83342 40.6568 10.3063 44.5093 13.0936L44.5094 13.0936C45.0415 13.4785 45.1606 14.2214 44.7759 14.7529L44.7757 14.7531C44.3911 15.2851 43.6479 15.4043 43.1164 15.0197L43.1163 15.0197C39.672 12.5279 35.5967 11.2106 31.3346 11.2106C20.2379 11.2106 11.2104 20.2381 11.2104 31.3348C11.2104 42.4316 20.2379 51.459 31.3346 51.459C42.4313 51.459 51.4588 42.4318 51.4588 31.3348C51.4588 27.0655 50.1374 22.9844 47.638 19.5369C47.2528 19.0054 47.3711 18.2624 47.9025 17.877C48.4342 17.4917 49.1775 17.6102 49.5626 18.1415Z" stroke="#05C2DF" stroke-width="1.00668"/>
<path d="M38.1777 31.3347C38.1777 35.1085 35.1085 38.1777 31.3347 38.1777C27.5609 38.1777 24.4917 35.1085 24.4917 31.3347C24.4917 27.5609 27.5609 24.4917 31.3346 24.4917L38.1777 31.3347ZM38.1777 31.3347C38.1777 27.5607 35.1082 24.4914 31.3347 24.4917L38.1777 31.3347ZM31.3347 40.5549C26.2513 40.5549 22.1147 36.4183 22.1147 31.3347C22.1147 26.2511 26.2511 22.1147 31.3347 22.1147C36.4182 22.1147 40.5547 26.2511 40.5547 31.3347C40.5547 36.4183 36.418 40.5549 31.3347 40.5549Z" stroke="#05C2DF" stroke-width="1.00668"/>
<path d="M98.4862 25.9285V26.462L99.0188 26.431C99.3072 26.4142 99.5924 26.4032 99.877 26.4032H100.241C100.897 26.4032 101.429 26.9351 101.429 27.5917C101.429 28.2483 100.897 28.7802 100.241 28.7802H99.877C96.7091 28.7802 93.7105 30 91.4372 32.2126C91.2059 32.4377 90.9077 32.5496 90.6084 32.5496C90.2979 32.5496 89.9896 32.4296 89.7562 32.1898C89.2984 31.7194 89.3085 30.9671 89.7788 30.5093C91.4844 28.8493 93.5286 27.6582 95.749 26.9996L96.1092 26.8927V26.517V17.4332C96.1092 8.09857 103.704 0.503341 113.039 0.503341C113.695 0.503341 114.227 1.03526 114.227 1.69184C114.227 2.34843 113.695 2.88034 113.039 2.88034C105.014 2.88034 98.4862 9.40814 98.4862 17.4332V25.9285Z" stroke="#05C2DF" stroke-width="1.00668"/>
<path d="M87.7722 49.8714V49.5554V40.8846C87.7722 39.7551 87.9333 38.626 88.2501 37.5287C88.4322 36.8981 88.0685 36.239 87.4384 36.057C86.8073 35.8748 86.1487 36.2385 85.9666 36.8687C85.5873 38.182 85.3952 39.5329 85.3952 40.8846V47.9227V48.7245L84.6731 48.376L82.8856 47.5134C76.0634 44.2213 68.5277 42.3367 60.9525 42.0036L60.2796 41.974L60.4986 41.337C61.5776 38.1995 62.1649 34.8353 62.1649 31.3352C62.1649 14.3355 48.3338 0.504317 31.3342 0.504317C14.3347 0.504317 0.503341 14.3355 0.503341 31.3352C0.503341 48.335 14.3345 62.1661 31.3342 62.1661C36.5389 62.1661 41.4445 60.868 45.7488 58.5816L46.0537 58.4196L46.3146 58.6458C47.1234 59.3469 54.2417 65.4698 62.9095 71.4147C67.2438 74.3874 71.955 77.3083 76.4513 79.4841C80.9607 81.6664 85.1975 83.071 88.5994 83.071C88.7646 83.071 88.929 83.0675 89.0904 83.0608M87.7722 49.8714L89.0904 83.0608M87.7722 49.8714L88.0568 50.0088M87.7722 49.8714L88.0568 50.0088M89.0904 83.0608C96.004 82.7722 102.096 79.7903 106.534 76.7959C110.967 73.8039 113.71 70.8248 113.918 70.5964C114.359 70.1108 114.323 69.359 113.837 68.9175M89.0904 83.0608L113.837 68.9175M113.837 68.9175C113.351 68.4764 112.6 68.5121 112.158 68.9978C112.158 68.9979 112.158 68.998 112.158 68.998L111.786 68.6595L113.837 68.9175ZM88.0568 50.0088L88.4059 50.1773C90.4538 51.1655 92.3432 52.4439 94.0224 53.9772M88.0568 50.0088L94.0224 53.9772M94.0224 53.9772C94.5069 54.4197 94.5411 55.1713 94.0984 55.6563L94.0224 53.9772ZM88.991 80.6859L88.9911 80.6858L94.0984 55.6564C93.8641 55.9129 93.5438 56.0432 93.2204 56.0432C92.9337 56.0432 92.6474 55.9406 92.4193 55.7323L92.0799 56.104L92.4193 55.7323C90.9107 54.3549 89.2127 53.2061 87.3727 52.3182L81.8523 49.6541C74.9476 46.3219 67.2828 44.4947 59.6155 44.3369L59.2914 44.3303L59.1513 44.6225C56.8013 49.5225 53.193 53.7087 48.7481 56.7627L48.204 57.1365L48.7086 57.5622C50.8649 59.3813 56.7744 64.2604 63.6703 69.0446C69.2859 72.9408 74.2741 75.8996 78.5169 77.8592C82.7465 79.8128 86.2875 80.7983 88.991 80.6859ZM31.3342 2.88109C15.6443 2.88109 2.88034 15.645 2.88034 31.3352C2.88034 47.0252 15.6443 59.7891 31.3342 59.7889C47.024 59.7889 59.7879 47.025 59.7879 31.335C59.7879 15.645 47.024 2.88109 31.3342 2.88109Z" stroke="#05C2DF" stroke-width="1.00668"/>
</svg>
