<svg width="115" height="85" viewBox="0 0 115 85" fill="none" xmlns="http://www.w3.org/2000/svg">
<path d="M50.4053 18.6443C53.2311 22.5424 54.7249 27.1543 54.7249 31.9805C54.7249 44.522 44.5217 54.7252 31.9801 54.7252C19.4386 54.7252 9.23535 44.522 9.23535 31.9805C9.23535 19.4389 19.4386 9.23566 31.9801 9.23566C36.7985 9.23566 41.4037 10.7248 45.2978 13.5422" stroke="#05C2DF" stroke-width="1.00668" stroke-linejoin="round"/>
<path d="M31.9808 41.0911C26.958 41.0911 22.8705 37.0037 22.8705 31.9807C22.8705 26.9577 26.9577 22.8705 31.9808 22.8705C37.0038 22.8705 41.091 26.9577 41.091 31.9807C41.091 37.0037 37.0036 41.0911 31.9808 41.0911Z" stroke="#05C2DF" stroke-width="1.00668"/>
<path d="M112.762 1C103.257 1 95.5254 8.73229 95.5254 18.2364V27.2176C93.2525 27.8918 91.1609 29.1109 89.417 30.8082" stroke="#05C2DF" stroke-width="1.00668"/>
<path d="M49.4796 57.5316C53.9453 54.4633 57.5707 50.2574 59.9322 45.3335M94.2965 53.9998C92.6005 52.4513 90.6923 51.1602 88.6241 50.1621L88.2789 49.9955M85.5179 37.3139C85.1301 38.6568 84.9334 40.0389 84.9334 41.4226V48.3812L83.1661 47.5284C76.3596 44.2438 68.8427 42.364 61.2862 42.0317C62.3706 38.8785 62.9607 35.4976 62.9607 31.981C62.9607 14.8983 49.0629 1.00055 31.9805 1.00055C14.898 1.00055 1 14.8983 1 31.981C1 49.0637 14.8978 62.9615 31.9805 62.9615C37.2101 62.9615 42.1402 61.657 46.4657 59.3593C48.0762 60.7555 74.6828 83.6303 88.5991 83.6303C88.7693 83.6303 88.9388 83.6267 89.1052 83.6198C103.031 83.0386 113.559 71.6194 114 71.1336" stroke="#05C2DF" stroke-width="1.00668"/>
</svg>
