<svg width="115" height="85" viewBox="0 0 115 85" fill="none" xmlns="http://www.w3.org/2000/svg">
<path d="M50.405 18.644C53.2308 22.5421 54.7246 27.154 54.7246 31.9801C54.7246 44.5217 44.5214 54.7249 31.9798 54.7249C19.4383 54.7249 9.23505 44.5217 9.23505 31.9801C9.23505 19.4386 19.4383 9.23535 31.9798 9.23535C36.7982 9.23535 41.4034 10.7245 45.2975 13.5419" stroke="#05C2DF" stroke-width="1.00668" stroke-linejoin="round"/>
<path d="M31.9809 41.0912C26.9581 41.0912 22.8707 37.0038 22.8707 31.9808C22.8707 26.9577 26.9578 22.8705 31.9809 22.8705C37.0039 22.8705 41.0911 26.9577 41.0911 31.9808C41.0911 37.0038 37.0037 41.0912 31.9809 41.0912Z" stroke="#05C2DF" stroke-width="1.00668"/>
<path d="M112.762 1C103.258 1 95.5255 8.73229 95.5255 18.2364V27.2176C93.2526 27.8918 91.161 29.1109 89.4171 30.8082" stroke="#05C2DF" stroke-width="1.00668"/>
<path d="M49.4796 57.532C53.9453 54.4637 57.5707 50.2578 59.9322 45.3339M94.2965 54.0003C92.6005 52.4518 90.6923 51.1606 88.6241 50.1626L88.2789 49.996M85.5179 37.3144C85.1301 38.6572 84.9334 40.0394 84.9334 41.4231V48.3817L83.1661 47.5288C76.3596 44.2442 68.8427 42.3645 61.2862 42.0322C62.3706 38.8789 62.9607 35.498 62.9607 31.9815C62.9607 14.8988 49.0629 1.00098 31.9805 1.00098C14.898 1.00098 1 14.8988 1 31.9815C1 49.0641 14.8978 62.9619 31.9805 62.9619C37.2101 62.9619 42.1402 61.6574 46.4657 59.3597C48.0762 60.7559 74.6828 83.6307 88.5991 83.6307C88.7693 83.6307 88.9388 83.6272 89.1052 83.6203C103.031 83.039 113.559 71.6198 114 71.134" stroke="#05C2DF" stroke-width="1.00668"/>
</svg>
