<svg width="112" height="82" viewBox="0 0 112 82" fill="none" xmlns="http://www.w3.org/2000/svg">
<path d="M49.0927 18.1758C51.8434 21.9704 53.2976 26.4599 53.2976 31.1579C53.2976 43.3665 43.3653 53.2989 31.1567 53.2989C18.9481 53.2989 9.01575 43.3665 9.01575 31.1579C9.01575 18.9494 18.9481 9.01697 31.1567 9.01697C35.8472 9.01697 40.3301 10.4666 44.1208 13.2092" stroke="#05C2DF" stroke-width="1.00668" stroke-linejoin="round"/>
<path d="M31.1583 40.0134C26.2762 40.0134 22.3033 36.0405 22.3033 31.1581C22.3033 26.2758 26.276 22.3031 31.1583 22.3031C36.0406 22.3031 40.0133 26.2758 40.0133 31.1581C40.0133 36.0405 36.0403 40.0134 31.1583 40.0134Z" stroke="#05C2DF" stroke-width="1.00668"/>
<path d="M109.795 1C100.544 1 93.0168 8.52701 93.0168 17.7787V26.5216C90.8042 27.1779 88.7681 28.3646 87.0706 30.0168" stroke="#05C2DF" stroke-width="1.00668"/>
<path d="M48.1925 56.0307C52.5397 53.0439 56.0688 48.9496 58.3676 44.1565M91.8196 52.5927C90.1687 51.0853 88.3111 49.8285 86.2978 48.8569L85.9617 48.6947M83.2741 36.3498C82.8965 37.657 82.7051 39.0025 82.7051 40.3494V47.1233L80.9847 46.293C74.3589 43.0957 67.0416 41.2658 59.6857 40.9423C60.7413 37.8728 61.3157 34.5817 61.3157 31.1585C61.3157 14.5293 47.7869 1.00049 31.158 1.00049C14.529 1.00049 1 14.5293 1 31.1585C1 47.7876 14.5288 61.3164 31.158 61.3164C36.2488 61.3164 41.048 60.0466 45.2587 57.8099C46.8264 59.169 72.7266 81.4365 86.2735 81.4365C86.4391 81.4365 86.6041 81.4331 86.7661 81.4263C100.322 80.8605 110.57 69.7445 111 69.2716" stroke="#05C2DF" stroke-width="1.00668"/>
</svg>
