<svg width="83" height="83" viewBox="0 0 83 83" fill="none" xmlns="http://www.w3.org/2000/svg">
<g clip-path="url(#clip0_3495_3118)">
<path d="M72.4337 22.1334C72.4337 19.358 74.6914 17.1001 77.467 17.1001C80.2424 17.1001 82.5003 19.358 82.5003 22.1334C82.5003 24.9089 80.2424 27.1667 77.467 27.1667C74.6916 27.1667 72.4337 24.9088 72.4337 22.1334Z" stroke="#05C2DF"/>
<path d="M0.5 67.7833C0.5 65.0079 2.75787 62.75 5.53328 62.75C8.30884 62.75 10.5666 65.0079 10.5666 67.7833C10.5666 70.5587 8.30884 72.8166 5.53328 72.8166C2.75787 72.8166 0.5 70.5587 0.5 67.7833Z" stroke="#05C2DF"/>
<path d="M73.9783 18.0434L63.1522 12.6304" stroke="#05C2DF"/>
<path d="M57.2166 77.4666C57.2166 74.6912 59.4743 72.4333 62.2498 72.4333C65.0254 72.4333 67.2831 74.6914 67.2831 77.4668C67.2831 80.2422 65.0254 82.5001 62.2498 82.5001C59.4743 82.5001 57.2166 80.2421 57.2166 77.4666Z" stroke="#05C2DF"/>
<path d="M58.4862 73.605L48.3566 68.2043" stroke="#05C2DF"/>
<path d="M36.4666 42.8834C36.4666 40.108 38.7243 37.8501 41.4998 37.8501C44.2754 37.8501 46.5331 40.108 46.5331 42.8834C46.5331 45.6588 44.2754 47.9167 41.4998 47.9167C38.7244 47.9167 36.4666 45.6589 36.4666 42.8834Z" stroke="#05C2DF"/>
<path d="M38.2525 38.6131L30.3134 32.4783" stroke="#05C2DF"/>
<path d="M51.6831 51.1835C51.6831 43.0697 58.286 36.4668 66.3998 36.4668C74.5137 36.4668 81.1165 43.0697 81.1165 51.1835C81.1165 59.2973 74.5137 65.9002 66.3998 65.9002C58.286 65.9002 51.6831 59.2973 51.6831 51.1835Z" stroke="#05C2DF"/>
<path d="M61.3667 47.0333C61.3667 44.2579 63.6244 42 66.4 42C69.1755 42 71.4333 44.2579 71.4333 47.0333C71.4333 49.8087 69.1755 52.0666 66.4 52.0666C63.6246 52.0666 61.3667 49.8088 61.3667 47.0333Z" stroke="#05C2DF"/>
<path d="M73.7591 63.9157L73.76 63.9152C74.0316 63.7588 74.1998 63.4666 74.1998 63.152V59.5055C74.1998 57.4938 72.5138 55.8333 70.4129 55.8333H62.3868C60.286 55.8333 58.5999 57.4939 58.5999 59.504V63.1505C58.5999 63.466 58.7677 63.7575 59.0406 63.9157H73.7591ZM73.7591 63.9157C71.5161 65.2138 68.9714 65.9 66.3999 65.9C63.8284 65.9 61.2837 65.2139 59.0408 63.9159L73.7591 63.9157Z" stroke="#05C2DF"/>
<path d="M18.4836 67.7834C18.4836 59.6695 25.0865 53.0667 33.2004 53.0667C41.3142 53.0667 47.9171 59.6694 47.9171 67.7832C47.9171 75.897 41.3142 82.4999 33.2004 82.4999C25.0865 82.4999 18.4836 75.8972 18.4836 67.7834Z" stroke="#05C2DF"/>
<path d="M28.1666 63.6334C28.1666 60.858 30.4243 58.6001 33.1999 58.6001C35.9755 58.6001 38.2332 60.858 38.2332 63.6334C38.2332 66.4088 35.9753 68.6667 33.1999 68.6667C30.4245 68.6667 28.1666 66.4089 28.1666 63.6334Z" stroke="#05C2DF"/>
<path d="M40.5603 80.5153L40.5594 80.5158C38.3164 81.8139 35.7717 82.5001 33.2001 82.5001C30.6287 82.5001 28.084 81.814 25.8411 80.516C25.5681 80.3578 25.4001 80.0662 25.4001 79.7506V76.1041C25.4001 74.094 27.0863 72.4333 29.1871 72.4333H37.2132C39.3141 72.4333 41.0001 74.0939 41.0001 76.1056V79.7521C41.0001 80.0668 40.8319 80.3589 40.5603 80.5153Z" stroke="#05C2DF"/>
<path d="M0.5 33.2001C0.5 25.0863 7.10289 18.4834 15.2167 18.4834C23.3304 18.4834 29.9333 25.0863 29.9334 33.2001C29.9334 41.3139 23.3306 47.9168 15.2167 47.9168C7.10289 47.9168 0.5 41.3139 0.5 33.2001Z" stroke="#05C2DF"/>
<path d="M10.1837 29.0499C10.1837 26.2745 12.4414 24.0166 15.217 24.0166C17.9924 24.0166 20.2503 26.2745 20.2503 29.0499C20.2503 31.8253 17.9926 34.0832 15.217 34.0832C12.4416 34.0832 10.1837 31.8253 10.1837 29.0499Z" stroke="#05C2DF"/>
<path d="M22.5768 45.9321L22.5759 45.9326C20.3329 47.2307 17.7882 47.9168 15.2166 47.9168C12.6452 47.9168 10.1005 47.2307 7.85757 45.9327C7.58454 45.7745 7.41663 45.4829 7.41663 45.1673V41.5208C7.41663 39.5108 9.10274 37.8501 11.2036 37.8501H19.2296C21.3304 37.8501 23.0166 39.5106 23.0166 41.5223V45.1688C23.0166 45.4835 22.8483 45.7756 22.5768 45.9321Z" stroke="#05C2DF"/>
<path d="M33.7002 15.2167C33.7002 7.10289 40.3031 0.5 48.4169 0.5C56.5306 0.5 63.1335 7.10289 63.1336 15.2167C63.1336 23.3306 56.5307 29.9334 48.4169 29.9334C40.3031 29.9334 33.7002 23.3306 33.7002 15.2167Z" stroke="#05C2DF"/>
<path d="M43.3831 11.0665C43.3831 8.29107 45.6408 6.0332 48.4163 6.0332C51.1917 6.0332 53.4496 8.29122 53.4496 11.0666C53.4496 13.842 51.1918 16.0998 48.4163 16.0998C45.6409 16.0998 43.3831 13.8419 43.3831 11.0665Z" stroke="#05C2DF"/>
<path d="M55.7769 27.9487L55.776 27.9492C53.533 29.2473 50.9882 29.9334 48.4167 29.9334C45.8452 29.9334 43.3006 29.2473 41.0576 27.9493C40.7846 27.7911 40.6167 27.4995 40.6167 27.1839V23.5374C40.6167 21.5274 42.3028 19.8667 44.4037 19.8667H52.4297C54.5305 19.8667 56.2167 21.5271 56.2167 23.5389V27.1854C56.2167 27.5001 56.0484 27.7922 55.7769 27.9487Z" stroke="#05C2DF"/>
<path d="M33.4039 14.4348L24.5392 21.6522" stroke="#05C2DF"/>
<path d="M65.6781 36.087L58.4607 26.3435" stroke="#05C2DF"/>
<path d="M52.1143 56.2957L46.5522 60.6261" stroke="#05C2DF"/>
<path d="M18.3443 67.4827H10.826" stroke="#05C2DF"/>
<path d="M20.2497 5.53325V5.53328C20.2497 8.30869 17.9919 10.5666 15.2164 10.5666C12.441 10.5666 10.1831 8.30884 10.1831 5.53328C10.1831 2.75788 12.441 0.5 15.2165 0.5C17.992 0.5 20.2498 2.75787 20.2497 5.53325Z" stroke="#05C2DF"/>
<path d="M14.0736 10.8262V18.0436" stroke="#05C2DF"/>
</g>
<defs>
<clipPath id="clip0_3495_3118">
<rect width="83" height="83" fill="white"/>
</clipPath>
</defs>
</svg>
