<svg width="346" height="46" viewBox="0 0 346 46" fill="none" xmlns="http://www.w3.org/2000/svg">
<path d="M31.518 36.9998H24.354L19.602 20.7458L14.85 36.9998H7.68604L0.342041 11.7998H6.55204L11.358 29.8538L16.398 11.7998H22.896L27.936 29.8898L32.742 11.7998H38.862L31.518 36.9998ZM47.4972 21.5018H58.0992V11.7998H64.1112V36.9998H58.0992V27.0638H47.4972V36.9998H41.4852V11.7998H47.4972V21.5018ZM82.0882 27.2978V36.9998H76.0582V27.3338L66.4822 11.7998H73.4482L79.1002 21.8618L84.7342 11.7998H91.5022L82.0882 27.2978Z" fill="white"/>
<path d="M117.71 37H123.83V29.08L117.71 22.96V37ZM132.218 25.984L142.226 19.36L142.442 19.216V11.872L127.79 21.556L117.998 12.232H117.71V20.116L134.558 36.964H143.234L132.218 25.984ZM144.288 37H151.452L158.436 25.516L154.872 19.612L144.288 37ZM159.588 11.836L156.024 17.704L166.212 34.588L167.688 37.036H174.852L159.588 11.836ZM183.811 37H189.931V30.304L183.811 24.184V37ZM174.523 12.268V18.388H183.811V21.376L189.931 27.496V18.388H199.255V12.268H174.523ZM227.001 30.88H226.065V12.268H219.945V37H233.121L227.145 31.024L227.001 30.88ZM229.809 30.88L235.929 37H237.153V30.88H229.809ZM261.889 15.868C259.549 13.528 256.453 12.232 253.141 12.232C250.369 12.232 247.741 13.132 245.545 14.824L245.113 15.184L249.469 19.54L249.793 19.324C250.765 18.712 251.917 18.388 253.105 18.388C254.761 18.388 256.309 19.036 257.497 20.224C258.685 21.412 259.333 22.96 259.333 24.616C259.333 25.804 259.009 26.956 258.397 27.928L258.181 28.252L262.537 32.608L262.897 32.176C264.589 29.98 265.489 27.352 265.489 24.58C265.489 21.268 264.193 18.172 261.853 15.832L261.889 15.868ZM256.417 29.836C255.445 30.448 254.293 30.772 253.105 30.772C251.449 30.772 249.901 30.124 248.713 28.936C247.525 27.748 246.877 26.2 246.877 24.544C246.877 23.356 247.201 22.204 247.813 21.232L248.029 20.908L243.673 16.552L243.313 16.984C241.621 19.18 240.721 21.808 240.721 24.58C240.721 27.892 242.017 30.988 244.357 33.328C246.697 35.668 249.793 36.964 253.105 36.964C255.877 36.964 258.505 36.064 260.701 34.372L261.133 34.012L256.777 29.656L256.417 29.836ZM276.077 21.412C276.401 20.8 276.797 20.224 277.301 19.72C278.525 18.496 280.145 17.812 281.873 17.812C283.601 17.812 285.221 18.496 286.445 19.72C287.057 20.332 287.525 21.016 287.849 21.808L287.993 22.096H294.473L294.329 21.484C293.717 18.712 292.169 16.192 289.937 14.392C287.669 12.556 284.825 11.548 281.909 11.548C277.733 11.548 273.809 13.6 271.433 17.02L271.181 17.344L275.825 21.988L276.077 21.412ZM287.813 26.704C287.489 27.496 287.021 28.18 286.409 28.792C285.905 29.296 285.329 29.692 284.717 30.016C284.537 30.124 284.357 30.196 284.141 30.268C283.529 30.484 282.881 30.628 282.233 30.664C281.945 30.664 281.621 30.664 281.333 30.628C279.821 30.52 278.381 29.872 277.301 28.792C276.221 27.712 275.573 26.272 275.465 24.76V24.58L270.137 19.252L269.885 20.008C269.417 21.376 269.165 22.816 269.165 24.256C269.165 27.64 270.497 30.844 272.909 33.256C275.321 35.668 278.525 37 281.909 37C283.637 37 285.293 36.676 286.877 36.028C287.165 35.92 287.453 35.776 287.741 35.632C289.361 34.804 290.837 33.58 291.953 32.14C293.105 30.664 293.933 28.936 294.329 27.136L294.473 26.524H287.993L287.813 26.704ZM319.088 15.868C316.748 13.528 313.652 12.232 310.34 12.232C307.568 12.232 304.94 13.132 302.744 14.824L302.312 15.184L306.668 19.54L306.992 19.324C307.964 18.712 309.116 18.388 310.304 18.388C311.96 18.388 313.508 19.036 314.696 20.224C315.884 21.412 316.532 22.96 316.532 24.616C316.532 25.804 316.208 26.956 315.596 27.928L315.38 28.252L319.736 32.608L320.096 32.176C321.788 29.98 322.688 27.352 322.688 24.58C322.688 21.268 321.392 18.172 319.052 15.832L319.088 15.868ZM313.616 29.836C312.644 30.448 311.492 30.772 310.304 30.772C308.648 30.772 307.1 30.124 305.912 28.936C304.724 27.748 304.076 26.2 304.076 24.544C304.076 23.356 304.4 22.204 305.012 21.232L305.228 20.908L300.872 16.552L300.512 16.984C298.82 19.18 297.92 21.808 297.92 24.58C297.92 27.892 299.216 30.988 301.556 33.328C303.896 35.668 306.992 36.964 310.304 36.964C313.076 36.964 315.704 36.064 317.9 34.372L318.332 34.012L313.976 29.656L313.616 29.836ZM333.276 30.844V37H338.604V36.172L334.716 32.284L333.276 30.844ZM343.284 16.336C341.988 13.096 338.82 10.792 335.112 10.792C330.36 10.792 326.472 14.536 326.256 19.216H331.62C331.836 17.488 333.312 16.156 335.112 16.156C335.832 16.156 336.516 16.372 337.092 16.768C337.668 17.164 338.1 17.704 338.352 18.352C338.532 18.748 338.604 19.18 338.604 19.648C338.604 20.296 338.424 20.836 338.208 21.268L333.276 26.2V26.452L335.292 28.468L336.912 30.088L338.604 31.78V28.396L340.044 26.956C340.332 26.776 340.62 26.56 340.872 26.344C341.196 26.056 341.484 25.768 341.772 25.444C343.104 23.896 343.932 21.88 343.932 19.684C343.932 18.532 343.716 17.416 343.32 16.408L343.284 16.336Z" fill="#05C2DF"/>
<path d="M161 30H166V34H158L161 30Z" fill="#05C2DF"/>
</svg>
