<svg width="55" height="34" viewBox="0 0 55 34" fill="none" xmlns="http://www.w3.org/2000/svg">
<path d="M53.1671 0H1.83289C0.820615 0 0 0.811701 0 1.81299V32.187C0 33.1883 0.820615 34 1.83289 34H53.1671C54.1794 34 55 33.1883 55 32.187V1.81299C55 0.811701 54.1794 0 53.1671 0Z" fill="#F9F9F9"/>
<path fill-rule="evenodd" clip-rule="evenodd" d="M34.1014 26.7609L34.6101 26.7479L35.1144 26.7132L35.6055 26.6481L36.0922 26.5614L36.5702 26.453L37.0393 26.3228L37.4998 26.1667L37.947 25.9932L38.3855 25.798L38.8152 25.5812L39.2274 25.3469L39.6308 25.091L40.0167 24.8178L40.3894 24.5272L40.749 24.2236L41.091 23.8983L41.4199 23.5556L41.7312 23.2L42.0206 22.8357L42.2969 22.4496L42.5556 22.0549L42.7923 21.6429L43.0116 21.2222L43.2089 20.7885L43.3843 20.3461L43.5422 19.8906L43.6781 19.4265L43.7877 18.9538L43.871 18.4723L43.9368 17.9822L43.9719 17.4878L43.985 16.9847L43.9719 16.4815L43.9368 15.9871L43.871 15.5013L43.7877 15.0242L43.6781 14.5514L43.5422 14.0917L43.3843 13.6363L43.2089 13.1982L43.0116 12.7645L42.7923 12.3438L42.5556 11.9404L42.2969 11.5414L42.0206 11.1597L41.7312 10.7953L41.4199 10.4397L41.091 10.097L40.749 9.77608L40.3894 9.46814L40.0167 9.18187L39.6308 8.90863L39.2274 8.65273L38.8152 8.41851L38.3855 8.20598L37.947 8.00647L37.4998 7.83298L37.0393 7.67684L36.5702 7.54672L36.0922 7.43828L35.6055 7.35154L35.1144 7.29082L34.6101 7.25612L34.1014 7.23877L33.5928 7.25612L33.0929 7.29082L32.5974 7.35154L32.1107 7.43828L31.6371 7.54672L31.1679 7.67684L30.7119 7.83298L30.2646 8.00647L29.8262 8.20598L29.4052 8.41851L28.993 8.65273L28.5896 8.90863L28.2081 9.18187L27.831 9.46814L27.4758 9.77608L27.1338 10.097L26.8093 10.4397L26.498 10.7953L26.2042 11.1597L25.9324 11.5414L25.678 11.9404L25.4412 12.3438L25.222 12.7645L25.0247 13.1982L24.8449 13.6363L24.6958 14.0917L24.5599 14.5514L24.4502 15.0242L24.3626 15.5013L24.3012 15.9871L24.2661 16.4815L24.2529 16.9847L24.2661 17.4878L24.3012 17.9822L24.3626 18.4723L24.4502 18.9538L24.5599 19.4265L24.6958 19.8906L24.8449 20.3461L25.0247 20.7885L25.222 21.2222L25.4412 21.6429L25.678 22.0549L25.9324 22.4496L26.2042 22.8357L26.498 23.2L26.8093 23.5556L27.1338 23.8983L27.4758 24.2236L27.831 24.5272L28.2081 24.8178L28.5896 25.091L28.993 25.3469L29.4052 25.5812L29.8262 25.798L30.2646 25.9932L30.7119 26.1667L31.1679 26.3228L31.6371 26.453L32.1107 26.5614L32.5974 26.6481L33.0929 26.7132L33.5928 26.7479L34.1014 26.7609Z" fill="#FBB231"/>
<path fill-rule="evenodd" clip-rule="evenodd" d="M20.8992 26.7609L21.4035 26.7479L21.9078 26.7132L22.4033 26.6481L22.8856 26.5614L23.3635 26.453L23.8327 26.3228L24.2888 26.1667L24.736 25.9932L25.1745 25.798L25.5955 25.5812L26.0077 25.3469L26.4067 25.091L26.7969 24.8178L27.1697 24.5272L27.5248 24.2236L27.8669 23.8983L28.1913 23.5556L28.5027 23.2L28.7965 22.8357L29.0683 22.4496L29.327 22.0549L29.5594 21.6429L29.7787 21.2222L29.976 20.7885L30.1558 20.3461L30.3049 19.8906L30.4408 19.4265L30.5504 18.9538L30.6337 18.4723L30.6995 17.9822L30.7346 17.4878L30.7477 16.9847L30.7346 16.4815L30.6995 15.9871L30.6337 15.5013L30.5504 15.0242L30.4408 14.5514L30.3049 14.0917L30.1558 13.6363L29.976 13.1982L29.7787 12.7645L29.5594 12.3438L29.327 11.9404L29.0683 11.5414L28.7965 11.1597L28.5027 10.7953L28.1913 10.4397L27.8669 10.097L27.5248 9.77608L27.1697 9.46814L26.7969 9.18187L26.4067 8.90863L26.0077 8.65273L25.5955 8.41851L25.1745 8.20598L24.736 8.00647L24.2888 7.83298L23.8327 7.67684L23.3635 7.54672L22.8856 7.43828L22.4033 7.35154L21.9078 7.29082L21.4035 7.25612L20.8992 7.23877L20.3906 7.25612L19.8863 7.29082L19.3952 7.35154L18.9085 7.43828L18.4305 7.54672L17.9613 7.67684L17.5009 7.83298L17.0537 8.00647L16.6152 8.20598L16.1854 8.41851L15.7733 8.65273L15.3698 8.90863L14.984 9.18187L14.6113 9.46814L14.2517 9.77608L13.9097 10.097L13.5808 10.4397L13.2739 10.7953L12.9801 11.1597L12.7038 11.5414L12.4451 11.9404L12.2083 12.3438L11.9891 12.7645L11.7918 13.1982L11.612 13.6363L11.4585 14.0917L11.3226 14.5514L11.2129 15.0242L11.1296 15.5013L11.0639 15.9871L11.0288 16.4815L11.0156 16.9847L11.0288 17.4878L11.0639 17.9822L11.1296 18.4723L11.2129 18.9538L11.3226 19.4265L11.4585 19.8906L11.612 20.3461L11.7918 20.7885L11.9891 21.2222L12.2083 21.6429L12.4451 22.0549L12.7038 22.4496L12.9801 22.8357L13.2739 23.2L13.5808 23.5556L13.9097 23.8983L14.2517 24.2236L14.6113 24.5272L14.984 24.8178L15.3698 25.091L15.7733 25.3469L16.1854 25.5812L16.6152 25.798L17.0537 25.9932L17.5009 26.1667L17.9613 26.3228L18.4305 26.453L18.9085 26.5614L19.3952 26.6481L19.8863 26.7132L20.3906 26.7479L20.8992 26.7609Z" fill="#EC1C2E"/>
<path fill-rule="evenodd" clip-rule="evenodd" d="M26.3447 10.9861H31.5891V10.4526H26.7964L26.3447 10.9861Z" fill="#FBB231"/>
<path fill-rule="evenodd" clip-rule="evenodd" d="M25.5605 12.162H31.5898V11.6328H25.8763L25.5605 12.162Z" fill="#FBB231"/>
<path fill-rule="evenodd" clip-rule="evenodd" d="M24.9727 13.3373H31.5895V12.8081H25.2051L24.9727 13.3373Z" fill="#FBB231"/>
<path fill-rule="evenodd" clip-rule="evenodd" d="M24.5693 14.5169H31.5896V13.9878H24.736L24.5693 14.5169Z" fill="#FBB231"/>
<path fill-rule="evenodd" clip-rule="evenodd" d="M24.8063 20.2118H31.6029V19.6826H24.6396L24.8063 20.2118Z" fill="#FBB231"/>
<path fill-rule="evenodd" clip-rule="evenodd" d="M25.3046 21.3915H31.6014V20.8623H25.0547L25.3046 21.3915Z" fill="#FBB231"/>
<path fill-rule="evenodd" clip-rule="evenodd" d="M26.011 22.5667H31.6018V22.0376H25.6777L26.011 22.5667Z" fill="#FBB231"/>
<path fill-rule="evenodd" clip-rule="evenodd" d="M26.9848 23.7469H31.6021V23.2134H26.5156L26.9848 23.7469Z" fill="#FBB231"/>
<path fill-rule="evenodd" clip-rule="evenodd" d="M24.3359 15.6922H31.5886V15.1631H24.4368L24.3359 15.6922Z" fill="#FBB231"/>
<path fill-rule="evenodd" clip-rule="evenodd" d="M28.7559 19.0365H31.5184V18.5073H28.8567L28.7559 19.0365Z" fill="#FBB231"/>
<path fill-rule="evenodd" clip-rule="evenodd" d="M28.9756 17.8611H31.5188V17.3276H29.0764L28.9756 17.8611Z" fill="#FBB231"/>
<path fill-rule="evenodd" clip-rule="evenodd" d="M24.1523 17.3276H24.8715V17.8611H24.1874L24.1523 17.3276Z" fill="#FBB231"/>
<path fill-rule="evenodd" clip-rule="evenodd" d="M22.8103 16.6854L22.762 16.681L22.7182 16.6767L22.6743 16.6723L22.6305 16.6637L22.591 16.6593L22.5472 16.6507L22.5033 16.642L22.4551 16.6376L22.4112 16.629H22.3586L22.2972 16.6246L22.2358 16.6203H22.1657L22.0868 16.6246L21.9991 16.629L21.9026 16.6376L21.8368 16.6463L21.7754 16.6593L21.7184 16.6767L21.6702 16.694L21.622 16.7201L21.5781 16.7461L21.543 16.7808L21.5123 16.8068L21.4948 16.8458L21.4773 16.8805L21.4729 16.9196V16.9586L21.4816 17.002L21.4948 17.0453L21.5211 17.0887L21.5562 17.1321L21.622 17.1928L21.7009 17.2449L21.793 17.2839L21.8938 17.3229L21.9991 17.3533L22.1087 17.3923L22.2227 17.4314L22.3279 17.4747L22.4288 17.5311L22.5209 17.6005L22.6042 17.6829L22.6743 17.7827L22.727 17.9085L22.762 18.0559L22.7752 18.2338L22.762 18.442L22.7357 18.5981L22.6963 18.7326L22.6436 18.8583L22.5779 18.9668L22.4989 19.0622L22.4156 19.1403L22.3192 19.214L22.2183 19.2791L22.1087 19.3268L21.9991 19.3701L21.8894 19.4005L21.771 19.4309L21.657 19.4482L21.5474 19.4569L21.4378 19.4656L21.3369 19.4699H21.1922L21.0607 19.4656H20.9423L20.8327 19.4612L20.7318 19.4569L20.6441 19.4525L20.5652 19.4439L20.4863 19.4352L20.4161 19.4309L20.3547 19.4178L20.2889 19.4048L20.2319 19.3875L20.1793 19.3745L20.1223 19.3571L20.0697 19.3354L20.0127 19.3181L20.1618 18.5894L20.1925 18.5981L20.2319 18.6068L20.2758 18.6198L20.3328 18.6328L20.3942 18.6458L20.46 18.6588L20.5345 18.6762L20.6134 18.6892L20.6967 18.7022L20.7844 18.7152L20.8721 18.7239L20.9642 18.7326L21.0607 18.7369L21.1615 18.7412H21.2536L21.3501 18.7369L21.4466 18.7195L21.5255 18.6892L21.5869 18.6545L21.6307 18.6111L21.6658 18.5634L21.6921 18.5114L21.7097 18.4593L21.7228 18.4073L21.7272 18.3118L21.6965 18.2294L21.6395 18.1644L21.5562 18.108L21.4597 18.0603L21.3413 18.0082L21.2142 17.9649L21.0826 17.9128L20.9511 17.8521L20.8239 17.7827L20.7055 17.6959L20.6003 17.5962L20.517 17.4704L20.4556 17.3229L20.4249 17.1451L20.4293 16.9326L20.4468 16.8068L20.4687 16.681L20.5038 16.5726L20.5433 16.4642L20.5959 16.3687L20.6573 16.282L20.7274 16.1996L20.8107 16.1258L20.9072 16.0651L21.0125 16.0131L21.1308 15.961L21.2668 15.9263L21.4159 15.896L21.5781 15.8743L21.7579 15.8613L21.9552 15.8569H22.078L22.192 15.8613L22.2929 15.8656H22.3893L22.4726 15.8743L22.5472 15.8786L22.613 15.8873L22.6743 15.8916L22.7313 15.9003L22.7752 15.909L22.819 15.9177L22.8585 15.922L22.8936 15.9307H22.9243L22.955 15.9393L22.9813 15.9437L22.8103 16.6854Z" fill="white"/>
<path d="M22.8103 16.6854L22.762 16.681L22.7182 16.6767L22.6743 16.6723L22.6305 16.6637L22.591 16.6593L22.5472 16.6507L22.5033 16.642L22.4551 16.6376L22.4112 16.629H22.3586L22.2972 16.6246L22.2358 16.6203H22.1657L22.0868 16.6246L21.9991 16.629L21.9026 16.6376L21.8368 16.6463L21.7754 16.6593L21.7184 16.6767L21.6702 16.694L21.622 16.7201L21.5781 16.7461L21.543 16.7808L21.5123 16.8068L21.4948 16.8458L21.4773 16.8805L21.4729 16.9196V16.9586L21.4816 17.002L21.4948 17.0453L21.5211 17.0887L21.5562 17.1321L21.622 17.1928L21.7009 17.2449L21.793 17.2839L21.8938 17.3229L21.9991 17.3533L22.1087 17.3923L22.2227 17.4314L22.3279 17.4747L22.4288 17.5311L22.5209 17.6005L22.6042 17.6829L22.6743 17.7827L22.727 17.9085L22.762 18.0559L22.7752 18.2338L22.762 18.442L22.7357 18.5981L22.6963 18.7326L22.6436 18.8583L22.5779 18.9668L22.4989 19.0622L22.4156 19.1403L22.3192 19.214L22.2183 19.2791L22.1087 19.3268L21.9991 19.3701L21.8894 19.4005L21.771 19.4309L21.657 19.4482L21.5474 19.4569L21.4378 19.4656L21.3369 19.4699H21.1922L21.0607 19.4656H20.9423L20.8327 19.4612L20.7318 19.4569L20.6441 19.4525L20.5652 19.4439L20.4863 19.4352L20.4161 19.4309L20.3547 19.4178L20.2889 19.4048L20.2319 19.3875L20.1793 19.3745L20.1223 19.3571L20.0697 19.3354L20.0127 19.3181L20.1618 18.5894L20.1925 18.5981L20.2319 18.6068L20.2758 18.6198L20.3328 18.6328L20.3942 18.6458L20.46 18.6588L20.5345 18.6762L20.6134 18.6892L20.6967 18.7022L20.7844 18.7152L20.8721 18.7239L20.9642 18.7326L21.0607 18.7369L21.1615 18.7412H21.2536L21.3501 18.7369L21.4466 18.7195L21.5255 18.6892L21.5869 18.6545L21.6307 18.6111L21.6658 18.5634L21.6921 18.5114L21.7097 18.4593L21.7228 18.4073L21.7272 18.3118L21.6965 18.2294L21.6395 18.1644L21.5562 18.108L21.4597 18.0603L21.3413 18.0082L21.2142 17.9649L21.0826 17.9128L20.9511 17.8521L20.8239 17.7827L20.7055 17.6959L20.6003 17.5962L20.517 17.4704L20.4556 17.3229L20.4249 17.1451L20.4293 16.9326L20.4468 16.8068L20.4687 16.681L20.5038 16.5726L20.5433 16.4642L20.5959 16.3687L20.6573 16.282L20.7274 16.1996L20.8107 16.1258L20.9072 16.0651L21.0125 16.0131L21.1308 15.961L21.2668 15.9263L21.4159 15.896L21.5781 15.8743L21.7579 15.8613L21.9552 15.8569H22.078L22.192 15.8613L22.2929 15.8656H22.3893L22.4726 15.8743L22.5472 15.8786L22.613 15.8873L22.6743 15.8916L22.7313 15.9003L22.7752 15.909L22.819 15.9177L22.8585 15.922L22.8936 15.9307H22.9243L22.955 15.9393L22.9813 15.9437L22.8103 16.6854Z" stroke="white" stroke-width="0.22" stroke-miterlimit="2.61"/>
<path fill-rule="evenodd" clip-rule="evenodd" d="M23.5991 15.1284H24.52L24.384 15.9265H24.9409L24.8182 16.6725L24.235 16.6551L23.9149 18.4898L23.9105 18.5549L23.928 18.6113L23.9631 18.6546L24.0026 18.6893L24.0639 18.7154L24.1297 18.7327L24.2043 18.7457L24.2832 18.7544L24.3577 18.7501L24.4235 18.7457L24.4849 18.7327L24.5375 18.7197L24.5814 18.7067L24.6121 18.698L24.6296 18.6893H24.6384L24.52 19.3009L24.4981 19.3182L24.4717 19.3312L24.4498 19.3443L24.4279 19.3573L24.406 19.3659L24.3753 19.3746L24.349 19.3876L24.3183 19.3963L24.2832 19.405L24.2525 19.4137L24.213 19.418L24.1736 19.4267L24.1297 19.431L24.0771 19.4397L24.0245 19.444L23.9675 19.4527H23.7132L23.5816 19.444L23.4676 19.431L23.358 19.4093L23.2703 19.3876L23.1913 19.3573L23.13 19.3226L23.073 19.2835L23.0291 19.2402L22.994 19.1968L22.9721 19.1404L22.9546 19.084L22.9458 19.019L22.9414 18.9539V18.8802L22.9546 18.8021L22.9633 18.7197L23.5991 15.1284Z" fill="white"/>
<path d="M23.5991 15.1284H24.52L24.384 15.9265H24.9409L24.8182 16.6725L24.235 16.6551L23.9149 18.4898L23.9105 18.5549L23.928 18.6113L23.9631 18.6546L24.0026 18.6893L24.0639 18.7154L24.1297 18.7327L24.2043 18.7457L24.2832 18.7544L24.3577 18.7501L24.4235 18.7457L24.4849 18.7327L24.5375 18.7197L24.5814 18.7067L24.6121 18.698L24.6296 18.6893H24.6384L24.52 19.3009L24.4981 19.3182L24.4717 19.3312L24.4498 19.3443L24.4279 19.3573L24.406 19.3659L24.3753 19.3746L24.349 19.3876L24.3183 19.3963L24.2832 19.405L24.2525 19.4137L24.213 19.418L24.1736 19.4267L24.1297 19.431L24.0771 19.4397L24.0245 19.444L23.9675 19.4527H23.7132L23.5816 19.444L23.4676 19.431L23.358 19.4093L23.2703 19.3876L23.1913 19.3573L23.13 19.3226L23.073 19.2835L23.0291 19.2402L22.994 19.1968L22.9721 19.1404L22.9546 19.084L22.9458 19.019L22.9414 18.9539V18.8802L22.9546 18.8021L22.9633 18.7197L23.5991 15.1284Z" stroke="white" stroke-width="0.22" stroke-miterlimit="2.61"/>
<path d="M25.6785 17.9128L25.6654 17.9649L25.661 18.0256L25.6698 18.0906L25.6829 18.1514L25.7048 18.2121L25.7355 18.2728L25.7706 18.3379L25.8101 18.3899L25.8583 18.4463L25.9065 18.4983L25.9592 18.5461L26.0206 18.5851L26.0776 18.6241L26.1477 18.6501L26.2135 18.6762L26.2793 18.6892L26.367 18.7022L26.4503 18.7109L26.5336 18.7195L26.6213 18.7282L26.709 18.7326H26.7967L26.8844 18.7282L26.9765 18.7195L27.0642 18.7065L27.1562 18.6892L27.2483 18.6718L27.336 18.6415L27.4325 18.6068L27.5246 18.5677L27.621 18.5157L27.7175 18.4593L27.586 19.266L27.529 19.2921L27.4763 19.3224L27.4237 19.3398L27.3755 19.3615L27.3229 19.3745L27.2703 19.3918L27.2176 19.4048L27.1606 19.4178L27.0992 19.4265L27.0335 19.4309L26.9633 19.4395L26.8888 19.4439L26.8011 19.4482H26.7134L26.6081 19.4525H26.4985L26.3363 19.4482L26.1696 19.4309L26.003 19.4092L25.8364 19.3701L25.6741 19.3224L25.5163 19.2574L25.3672 19.175L25.2269 19.0795L25.0953 18.9668L24.9857 18.8323L24.8892 18.6805L24.8059 18.507L24.7533 18.3118L24.7138 18.0906L24.7051 17.8477L24.7226 17.5788L24.7358 17.4747L24.7533 17.3533L24.7796 17.2232L24.8191 17.0844L24.8673 16.9413L24.9287 16.8025L25.0033 16.6593L25.0953 16.5205L25.205 16.3861L25.3321 16.2603L25.4812 16.1519L25.6478 16.0521L25.8408 15.9697L26.0556 15.909L26.2968 15.8699L26.5643 15.8569L26.6958 15.8613L26.8318 15.8743L26.9677 15.896L27.1036 15.9307L27.2396 15.9784L27.3667 16.0391L27.4895 16.1172L27.5991 16.2083L27.6956 16.321L27.7789 16.4555L27.8447 16.6029L27.8929 16.7808L27.9192 16.976L27.9236 17.2015L27.9017 17.4487L27.8491 17.7263L27.8315 17.9258H25.4067L25.5601 17.2796H27.0159L27.0247 17.1972L27.0203 17.1191L27.0115 17.0453L27.0028 16.9803L26.9765 16.9152L26.9545 16.8588L26.9195 16.8111L26.8888 16.7678L26.8493 16.7244L26.8055 16.694L26.7572 16.6637L26.7046 16.6376L26.652 16.616L26.5994 16.6029L26.5424 16.5943L26.481 16.5856L26.4196 16.5899L26.3582 16.5986L26.3012 16.616L26.2442 16.6333L26.1872 16.6593L26.1389 16.6897L26.0907 16.7244L26.0469 16.7678L26.003 16.8111L25.9635 16.8588L25.9285 16.9152L25.8978 16.9716L25.8671 17.028L25.8452 17.0931L25.8232 17.1625L25.8101 17.2319L25.6785 17.9128Z" stroke="white" stroke-width="0.22" stroke-miterlimit="2.61"/>
<path fill-rule="evenodd" clip-rule="evenodd" d="M33.6146 16.1217L33.5708 16.1L33.5269 16.0826L33.4787 16.0566L33.4305 16.0349L33.3822 16.0132L33.3252 15.9959L33.2682 15.9742L33.2068 15.9568L33.1454 15.9395L33.0797 15.9265L33.0139 15.9135L32.9437 15.9048L32.8648 15.8961L32.7903 15.8918H32.707H32.628H32.5447L32.457 15.8961L32.3649 15.9048L32.2728 15.9221L32.1808 15.9482L32.0887 15.9872L31.9922 16.0306L31.9001 16.0913L31.8124 16.165L31.7247 16.2474L31.6414 16.3559L31.5625 16.4773L31.4879 16.6205L31.4178 16.7853L31.352 16.9718L31.3038 17.18L31.2819 17.2971L31.2687 17.4142L31.2599 17.5313L31.2643 17.6397L31.2731 17.7525L31.2994 17.8566L31.3257 17.9563L31.3652 18.0561L31.4134 18.1472L31.4748 18.2296L31.545 18.3077L31.6239 18.3771L31.716 18.4334L31.8168 18.4855L31.9308 18.5289L32.058 18.5549L32.0974 18.5679L32.1501 18.5766L32.2115 18.5809L32.2772 18.5896L32.3474 18.5983H32.4263H32.5096L32.5929 18.5896L32.6806 18.5809L32.764 18.5636L32.8473 18.5419L32.9306 18.5158L33.0139 18.4768L33.0928 18.4334L33.163 18.3814L33.2288 18.325L33.0797 19.2011L33.0577 19.2185L33.0402 19.2402L33.0139 19.2619L32.9832 19.2792L32.9437 19.3052L32.8999 19.3313L32.8473 19.3529L32.7859 19.3746L32.707 19.3963L32.6236 19.4137L32.5228 19.4267L32.4044 19.4397L32.2772 19.444L32.1281 19.4484L31.9571 19.444L31.7686 19.4354L31.6151 19.418L31.4616 19.3876L31.3126 19.3356L31.1591 19.2705L31.01 19.1925L30.8697 19.0927L30.7381 18.9799L30.6153 18.8455L30.5057 18.698L30.4136 18.5332L30.3303 18.351L30.2733 18.1472L30.2339 17.926L30.2207 17.6961L30.2251 17.4359L30.2646 17.1626L30.2909 17.0282L30.3172 16.898L30.3523 16.7679L30.3873 16.6465L30.4224 16.5337L30.4663 16.4166L30.5101 16.3082L30.554 16.2084L30.6066 16.1043L30.6548 16.0089L30.7118 15.9178L30.7732 15.8311L30.8302 15.7487L30.9004 15.6706L30.9661 15.5969L31.0363 15.5275L31.1108 15.4624L31.1898 15.4017L31.2687 15.3453L31.352 15.2889L31.4397 15.2412L31.5318 15.1978L31.6239 15.1588L31.7203 15.1241L31.8256 15.0894L31.9264 15.0634L32.0317 15.0417L32.1457 15.02L32.2597 15.0026L32.3781 14.9896L32.5009 14.9853L32.628 14.981L32.7333 14.9853L32.8341 14.9896L32.935 15.0026L33.0358 15.0157L33.1279 15.0287L33.22 15.046L33.3033 15.0634L33.3866 15.0851L33.4612 15.1024L33.5269 15.1241L33.5927 15.1414L33.6453 15.1631L33.6892 15.1805L33.7286 15.1935L33.7593 15.2065L33.7813 15.2108L33.6146 16.1217Z" fill="white"/>
<path d="M33.6146 16.1217L33.5708 16.1L33.5269 16.0826L33.4787 16.0566L33.4305 16.0349L33.3822 16.0132L33.3252 15.9959L33.2682 15.9742L33.2068 15.9568L33.1454 15.9395L33.0797 15.9265L33.0139 15.9135L32.9437 15.9048L32.8648 15.8961L32.7903 15.8918H32.707H32.628H32.5447L32.457 15.8961L32.3649 15.9048L32.2728 15.9221L32.1808 15.9482L32.0887 15.9872L31.9922 16.0306L31.9001 16.0913L31.8124 16.165L31.7247 16.2474L31.6414 16.3559L31.5625 16.4773L31.4879 16.6205L31.4178 16.7853L31.352 16.9718L31.3038 17.18L31.2819 17.2971L31.2687 17.4142L31.2599 17.5313L31.2643 17.6397L31.2731 17.7525L31.2994 17.8566L31.3257 17.9563L31.3652 18.0561L31.4134 18.1472L31.4748 18.2296L31.545 18.3077L31.6239 18.3771L31.716 18.4334L31.8168 18.4855L31.9308 18.5289L32.058 18.5549L32.0974 18.5679L32.1501 18.5766L32.2115 18.5809L32.2772 18.5896L32.3474 18.5983H32.4263H32.5096L32.5929 18.5896L32.6806 18.5809L32.764 18.5636L32.8473 18.5419L32.9306 18.5158L33.0139 18.4768L33.0928 18.4334L33.163 18.3814L33.2288 18.325L33.0797 19.2011L33.0577 19.2185L33.0402 19.2402L33.0139 19.2619L32.9832 19.2792L32.9437 19.3052L32.8999 19.3313L32.8473 19.3529L32.7859 19.3746L32.707 19.3963L32.6236 19.4137L32.5228 19.4267L32.4044 19.4397L32.2772 19.444L32.1281 19.4484L31.9571 19.444L31.7686 19.4354L31.6151 19.418L31.4616 19.3876L31.3126 19.3356L31.1591 19.2705L31.01 19.1925L30.8697 19.0927L30.7381 18.9799L30.6153 18.8455L30.5057 18.698L30.4136 18.5332L30.3303 18.351L30.2733 18.1472L30.2339 17.926L30.2207 17.6961L30.2251 17.4359L30.2646 17.1626L30.2909 17.0282L30.3172 16.898L30.3523 16.7679L30.3873 16.6465L30.4224 16.5337L30.4663 16.4166L30.5101 16.3082L30.554 16.2084L30.6066 16.1043L30.6548 16.0089L30.7118 15.9178L30.7732 15.8311L30.8302 15.7487L30.9004 15.6706L30.9661 15.5969L31.0363 15.5275L31.1108 15.4624L31.1898 15.4017L31.2687 15.3453L31.352 15.2889L31.4397 15.2412L31.5318 15.1978L31.6239 15.1588L31.7203 15.1241L31.8256 15.0894L31.9264 15.0634L32.0317 15.0417L32.1457 15.02L32.2597 15.0026L32.3781 14.9896L32.5009 14.9853L32.628 14.981L32.7333 14.9853L32.8341 14.9896L32.935 15.0026L33.0358 15.0157L33.1279 15.0287L33.22 15.046L33.3033 15.0634L33.3866 15.0851L33.4612 15.1024L33.5269 15.1241L33.5927 15.1414L33.6453 15.1631L33.6892 15.1805L33.7286 15.1935L33.7593 15.2065L33.7813 15.2108L33.6146 16.1217Z" stroke="white" stroke-width="0.22" stroke-miterlimit="2.61"/>
<path fill-rule="evenodd" clip-rule="evenodd" d="M41.8097 19.4529H40.8889L40.9547 19.0886V19.0539L40.902 19.119L40.8406 19.1797L40.788 19.2317L40.7266 19.2794L40.6653 19.3228L40.6082 19.3575L40.5469 19.3879L40.4855 19.4182L40.4197 19.4399L40.3583 19.4573L40.2925 19.4703L40.2268 19.4833L40.161 19.492L40.0996 19.4963L40.0338 19.5006H39.9637L39.7927 19.4876L39.6304 19.4529L39.4857 19.3965L39.3542 19.3228L39.2314 19.2274L39.1261 19.1146L39.0341 18.9932L38.9507 18.8544L38.885 18.7069L38.8324 18.5508L38.7973 18.3903L38.771 18.2211L38.7578 18.052L38.7622 17.8828L38.7797 17.7137L38.8104 17.5445L38.8587 17.3537L38.9201 17.1672L38.9902 16.998L39.0735 16.8419L39.1612 16.6944L39.2577 16.56L39.3629 16.4428L39.4726 16.3344L39.5866 16.239L39.7093 16.1566L39.8365 16.0829L39.9637 16.0265L40.0996 15.9831L40.2311 15.9527L40.3627 15.931L40.4986 15.9267L40.5951 15.931L40.6916 15.9397L40.7793 15.9571L40.8582 15.9788L40.9327 16.0048L40.9985 16.0351L41.0687 16.0698L41.1257 16.1089L41.1783 16.1479L41.2309 16.1913L41.2748 16.2303L41.3142 16.2737L41.3449 16.3171L41.3756 16.3604L41.4019 16.3995L41.4238 16.4385L41.6562 15.146H42.5595L41.8097 19.4529Z" fill="white"/>
<path d="M41.8097 19.4529H40.8889L40.9547 19.0886V19.0539L40.902 19.119L40.8406 19.1797L40.788 19.2317L40.7266 19.2794L40.6653 19.3228L40.6082 19.3575L40.5469 19.3879L40.4855 19.4182L40.4197 19.4399L40.3583 19.4573L40.2925 19.4703L40.2268 19.4833L40.161 19.492L40.0996 19.4963L40.0338 19.5006H39.9637L39.7927 19.4876L39.6304 19.4529L39.4857 19.3965L39.3542 19.3228L39.2314 19.2274L39.1261 19.1146L39.0341 18.9932L38.9507 18.8544L38.885 18.7069L38.8324 18.5508L38.7973 18.3903L38.771 18.2211L38.7578 18.052L38.7622 17.8828L38.7797 17.7137L38.8104 17.5445L38.8587 17.3537L38.9201 17.1672L38.9902 16.998L39.0735 16.8419L39.1612 16.6944L39.2577 16.56L39.3629 16.4428L39.4726 16.3344L39.5866 16.239L39.7093 16.1566L39.8365 16.0829L39.9637 16.0265L40.0996 15.9831L40.2311 15.9527L40.3627 15.931L40.4986 15.9267L40.5951 15.931L40.6916 15.9397L40.7793 15.9571L40.8582 15.9788L40.9327 16.0048L40.9985 16.0351L41.0687 16.0698L41.1257 16.1089L41.1783 16.1479L41.2309 16.1913L41.2748 16.2303L41.3142 16.2737L41.3449 16.3171L41.3756 16.3604L41.4019 16.3995L41.4238 16.4385L41.6562 15.146H42.5595L41.8097 19.4529Z" stroke="white" stroke-width="0.22" stroke-miterlimit="2.61"/>
<path fill-rule="evenodd" clip-rule="evenodd" d="M40.3022 18.6546L40.3943 18.6503L40.482 18.6286L40.5609 18.6069L40.6398 18.5679L40.7056 18.5332L40.7758 18.4812L40.8372 18.4248L40.8942 18.364L40.9424 18.299L40.9906 18.2253L41.0345 18.1515L41.0696 18.0734L41.1046 17.991L41.1309 17.9043L41.1529 17.8175L41.1704 17.7265L41.188 17.6354L41.1967 17.54V17.4489L41.1923 17.3578L41.1836 17.2711L41.1704 17.1886L41.1485 17.1106L41.1222 17.0368L41.0871 16.9718L41.0476 16.9067L41.0038 16.8547L40.9556 16.807L40.8985 16.7679L40.8372 16.7419L40.7758 16.7246L40.7056 16.7202L40.6135 16.7246L40.5302 16.7376L40.4557 16.7679L40.3767 16.7983L40.311 16.8417L40.2452 16.8937L40.1882 16.9501L40.1312 17.0152L40.083 17.0845L40.0347 17.1626L39.9909 17.2407L39.9558 17.3274L39.9207 17.4142L39.8944 17.5053L39.8681 17.6007L39.8505 17.6961L39.833 17.8392L39.8374 17.9954L39.8637 18.1602L39.9076 18.312L39.9733 18.4465L40.061 18.5549L40.1706 18.6286L40.3022 18.6546Z" fill="#FBB231"/>
<path fill-rule="evenodd" clip-rule="evenodd" d="M19.8635 18.7199L19.7275 19.4529H18.89L18.9119 19.3184L18.9295 19.197L18.9426 19.1016L18.9558 19.0539L18.9076 19.1059L18.8549 19.158L18.7935 19.21L18.7234 19.2534L18.6445 19.3011L18.5611 19.3401L18.4734 19.3792L18.3814 19.4139L18.2849 19.4442L18.1884 19.4659L18.092 19.4832L17.9955 19.4963L17.8946 19.5049L17.8026 19.5093L17.7061 19.4963L17.6184 19.4832L17.5 19.4572L17.3948 19.4225L17.3027 19.3792L17.2194 19.3314L17.1448 19.2794L17.079 19.2187L17.0264 19.1536L16.9782 19.0886L16.9387 19.0192L16.9036 18.9498L16.8773 18.876L16.8598 18.8023L16.8466 18.7286L16.8335 18.6505L16.8291 18.5811V18.5074L16.8379 18.3772L16.8598 18.2558L16.8905 18.143L16.9343 18.0303L16.987 17.9262L17.0483 17.8307L17.1185 17.7397L17.1974 17.6529L17.2807 17.5792L17.3728 17.5098L17.4693 17.4491L17.5702 17.3927L17.6754 17.3493L17.785 17.3103L17.899 17.2842L18.0174 17.2626H18.0218L18.0393 17.2582H18.0656L18.1007 17.2539L18.1402 17.2452H18.1884L18.2367 17.2365L18.2937 17.2322L18.3507 17.2235L18.4077 17.2192L18.4691 17.2148L18.5173 17.2062L18.5743 17.2018H18.6225L18.6708 17.1975H18.7058H18.7848L18.8637 17.2018H18.9339H19.0084L19.0698 17.2062L19.1136 17.2105L19.1487 17.2148H19.1575L19.1663 17.1888L19.1838 17.1324L19.2013 17.063L19.2101 16.998L19.1926 16.9286L19.1663 16.8592L19.1268 16.8028L19.0698 16.7508L19.0084 16.7117L18.9382 16.6814L18.8593 16.6597L18.7716 16.6553L18.6795 16.651L18.5787 16.6467H18.4778L18.3682 16.651L18.2586 16.6597L18.1533 16.6684L18.0481 16.677L17.9429 16.69L17.842 16.703L17.7455 16.7204L17.6622 16.7377L17.5789 16.7508L17.5088 16.7724L17.4474 16.7941L17.4035 16.8158L17.3641 16.8332L17.6008 16.0394L17.6754 16.0134L17.7455 15.9874L17.8289 15.9614L17.9078 15.944L17.9867 15.931L18.0744 15.918L18.1577 15.905L18.2498 15.8963L18.3419 15.892L18.4384 15.8876L18.5392 15.8833H18.6445H18.7497H18.8593L18.9733 15.8876L19.0917 15.892L19.1838 15.8963L19.2847 15.9137L19.3899 15.9353L19.4951 15.9657L19.596 16.0047L19.6968 16.0525L19.7977 16.1088L19.8898 16.1696L19.9731 16.2433L20.0476 16.3214L20.1134 16.4081L20.1616 16.5079L20.1967 16.6163L20.2143 16.7247V16.8505L20.1967 16.985L19.8635 18.7199Z" fill="white"/>
<path d="M19.8635 18.7199L19.7275 19.4529H18.89L18.9119 19.3184L18.9295 19.197L18.9426 19.1016L18.9558 19.0539L18.9076 19.1059L18.8549 19.158L18.7935 19.21L18.7234 19.2534L18.6445 19.3011L18.5611 19.3401L18.4734 19.3792L18.3814 19.4139L18.2849 19.4442L18.1884 19.4659L18.092 19.4832L17.9955 19.4963L17.8946 19.5049L17.8026 19.5093L17.7061 19.4963L17.6184 19.4832L17.5 19.4572L17.3948 19.4225L17.3027 19.3792L17.2194 19.3314L17.1448 19.2794L17.079 19.2187L17.0264 19.1536L16.9782 19.0886L16.9387 19.0192L16.9036 18.9498L16.8773 18.876L16.8598 18.8023L16.8466 18.7286L16.8335 18.6505L16.8291 18.5811V18.5074L16.8379 18.3772L16.8598 18.2558L16.8905 18.143L16.9343 18.0303L16.987 17.9262L17.0483 17.8307L17.1185 17.7397L17.1974 17.6529L17.2807 17.5792L17.3728 17.5098L17.4693 17.4491L17.5702 17.3927L17.6754 17.3493L17.785 17.3103L17.899 17.2842L18.0174 17.2626H18.0218L18.0393 17.2582H18.0656L18.1007 17.2539L18.1402 17.2452H18.1884L18.2367 17.2365L18.2937 17.2322L18.3507 17.2235L18.4077 17.2192L18.4691 17.2148L18.5173 17.2062L18.5743 17.2018H18.6225L18.6708 17.1975H18.7058H18.7848L18.8637 17.2018H18.9339H19.0084L19.0698 17.2062L19.1136 17.2105L19.1487 17.2148H19.1575L19.1663 17.1888L19.1838 17.1324L19.2013 17.063L19.2101 16.998L19.1926 16.9286L19.1663 16.8592L19.1268 16.8028L19.0698 16.7508L19.0084 16.7117L18.9382 16.6814L18.8593 16.6597L18.7716 16.6553L18.6795 16.651L18.5787 16.6467H18.4778L18.3682 16.651L18.2586 16.6597L18.1533 16.6684L18.0481 16.677L17.9429 16.69L17.842 16.703L17.7455 16.7204L17.6622 16.7377L17.5789 16.7508L17.5088 16.7724L17.4474 16.7941L17.4035 16.8158L17.3641 16.8332L17.6008 16.0394L17.6754 16.0134L17.7455 15.9874L17.8289 15.9614L17.9078 15.944L17.9867 15.931L18.0744 15.918L18.1577 15.905L18.2498 15.8963L18.3419 15.892L18.4384 15.8876L18.5392 15.8833H18.6445H18.7497H18.8593L18.9733 15.8876L19.0917 15.892L19.1838 15.8963L19.2847 15.9137L19.3899 15.9353L19.4951 15.9657L19.596 16.0047L19.6968 16.0525L19.7977 16.1088L19.8898 16.1696L19.9731 16.2433L20.0476 16.3214L20.1134 16.4081L20.1616 16.5079L20.1967 16.6163L20.2143 16.7247V16.8505L20.1967 16.985L19.8635 18.7199Z" stroke="white" stroke-width="0.22" stroke-miterlimit="2.61"/>
<path fill-rule="evenodd" clip-rule="evenodd" d="M19.0613 17.8611L19.057 17.8481L19.0438 17.8307L19.0219 17.8177L18.9912 17.8134L18.9517 17.8047H18.9079H18.8596H18.807H18.7544L18.7018 17.8134L18.6448 17.8177L18.5922 17.8264L18.5439 17.835L18.4957 17.8437L18.4562 17.8524L18.4211 17.8611L18.3948 17.8697L18.3685 17.8784L18.3334 17.8914L18.2984 17.9088L18.2545 17.9261L18.2107 17.9522L18.1624 17.9738L18.1186 17.9999L18.0747 18.0346L18.0309 18.0649L17.9914 18.104L17.9563 18.1473L17.9213 18.1864L17.895 18.2341L17.8774 18.2861L17.8686 18.3382L17.8643 18.4509L17.8818 18.542L17.9125 18.6071L17.9563 18.6548L18.009 18.6895L18.066 18.7068L18.1186 18.7199H18.1712H18.2677L18.3598 18.7068L18.4475 18.6938L18.522 18.6765L18.5878 18.6505L18.6535 18.6244L18.7105 18.5941L18.7588 18.555L18.8026 18.5247L18.8421 18.4856L18.8772 18.4466L18.9035 18.4076L18.9254 18.3685L18.9473 18.3295L18.9605 18.2948L18.9736 18.2558L19 18.1603L19.0219 18.0519L19.0438 17.9478L19.0613 17.8611Z" fill="#EC1C2E"/>
<path fill-rule="evenodd" clip-rule="evenodd" d="M12.8564 19.4527H11.9531L12.7073 15.1284H14.2815L14.4306 17.6961L15.5224 15.1284H17.1668L16.3907 19.4527H15.4874L16.0618 16.2214H16.0223L14.6674 19.4527H13.6457L13.6413 19.3182L13.615 18.9582L13.5887 18.4464L13.5536 17.8609L13.5185 17.271L13.4922 16.7549L13.4659 16.3819L13.4615 16.2214H13.4528H13.4308H13.4089L12.8564 19.4527Z" fill="white"/>
<path d="M12.8564 19.4527H11.9531L12.7073 15.1284H14.2815L14.4306 17.6961L15.5224 15.1284H17.1668L16.3907 19.4527H15.4874L16.0618 16.2214H16.0223L14.6674 19.4527H13.6457L13.6413 19.3182L13.615 18.9582L13.5887 18.4464L13.5536 17.8609L13.5185 17.271L13.4922 16.7549L13.4659 16.3819L13.4615 16.2214H13.4528H13.4308H13.4089L12.8564 19.4527Z" stroke="white" stroke-width="0.22" stroke-miterlimit="2.61"/>
<path fill-rule="evenodd" clip-rule="evenodd" d="M36.3821 18.7199L36.2461 19.4529H35.4086L35.4174 19.3184V19.2013V19.1102L35.4261 19.0712L35.3823 19.1189L35.3341 19.171L35.2727 19.2143L35.2069 19.262L35.1367 19.3054L35.0578 19.3445L34.9745 19.3835L34.8912 19.4182L34.7991 19.4442L34.707 19.4702L34.6149 19.4832L34.5185 19.4963L34.422 19.5049L34.3299 19.5093L34.2422 19.4963L34.1501 19.4832L34.0317 19.4572L33.9265 19.4225L33.83 19.3792L33.7423 19.3314L33.6722 19.2794L33.6064 19.2187L33.5538 19.1536L33.5099 19.0886L33.4705 19.0192L33.4398 18.9498L33.4135 18.876L33.3959 18.8023L33.3828 18.7286L33.374 18.6505L33.3652 18.5811V18.5074L33.374 18.3772L33.3915 18.2558L33.4222 18.143L33.4661 18.0303L33.5143 17.9262L33.5801 17.8307L33.6459 17.7397L33.7248 17.6529L33.8125 17.5792L33.9002 17.5098L33.9967 17.4491L34.1019 17.3927L34.2028 17.3493L34.3124 17.3103L34.422 17.2842L34.536 17.2626H34.5448L34.5579 17.2582H34.5842L34.6149 17.2539L34.6588 17.2452H34.707L34.7553 17.2365L34.8079 17.2322L34.8649 17.2235L34.9263 17.2192L34.9833 17.2148L35.0403 17.2062L35.0929 17.2018H35.1411L35.185 17.1975H35.2244H35.3034L35.3823 17.2018H35.4568H35.5314L35.5972 17.2062L35.6498 17.2105L35.6761 17.2148H35.6936L35.698 17.1888L35.7112 17.1324L35.7199 17.063L35.7243 16.998L35.7112 16.9286L35.6849 16.8592L35.641 16.8028L35.5928 16.7508L35.5314 16.7117L35.4612 16.6814L35.3867 16.6597L35.3078 16.6553L35.2157 16.651L35.1148 16.6467H35.014L34.9043 16.651L34.7947 16.6597L34.6895 16.6684L34.5842 16.677L34.479 16.69L34.3782 16.703L34.2861 16.7204L34.1984 16.7377L34.1194 16.7508L34.0449 16.7724L33.9835 16.7941L33.9353 16.8158L33.9002 16.8332L34.1326 16.0394L34.2071 16.0134L34.2861 15.9874L34.3606 15.9614L34.4395 15.944L34.5229 15.931L34.6062 15.918L34.6939 15.905L34.7816 15.8963L34.878 15.892L34.9745 15.8876L35.071 15.8833H35.1718H35.2771H35.3823L35.4963 15.8876L35.6103 15.892L35.7024 15.8963L35.8032 15.9137L35.9041 15.9353L36.0137 15.9657L36.1146 16.0047L36.2154 16.0525L36.3163 16.1088L36.4084 16.1696L36.4961 16.2433L36.5706 16.3214L36.6364 16.4081L36.689 16.5079L36.7241 16.6163L36.746 16.7247V16.8505L36.7328 16.985L36.3821 18.7199Z" fill="white"/>
<path fill-rule="evenodd" clip-rule="evenodd" d="M36.2465 19.4744L36.2641 19.4571L36.4 18.7241L36.3605 18.7197L36.2246 19.4484L36.2465 19.431V19.4744L36.2597 19.4701L36.2641 19.4571L36.2465 19.4744Z" fill="white"/>
<path fill-rule="evenodd" clip-rule="evenodd" d="M35.3867 19.4528L35.4086 19.4745H36.2462V19.4312H35.4086L35.4306 19.4528H35.3867V19.4745H35.4086L35.3867 19.4528Z" fill="white"/>
<path fill-rule="evenodd" clip-rule="evenodd" d="M35.4437 19.0841L35.413 19.0581L35.3999 19.1102L35.3955 19.2012V19.3183L35.3867 19.4528H35.4306L35.435 19.3183L35.4437 19.2012L35.4393 19.1102V19.0841L35.4086 19.0581L35.4437 19.0841Z" fill="white"/>
<path fill-rule="evenodd" clip-rule="evenodd" d="M34.1455 19.5048L34.242 19.5179L34.3297 19.5265H34.4218L34.5182 19.5179L34.6147 19.5048L34.7112 19.4875L34.8032 19.4615L34.8953 19.4355L34.9786 19.4008L35.0663 19.3661L35.1453 19.3227L35.2154 19.2793L35.2856 19.2316L35.347 19.1839L35.3996 19.1318L35.4434 19.0841L35.4084 19.0581L35.3645 19.1058L35.3207 19.1535L35.2593 19.2012L35.1979 19.2446L35.1277 19.2836L35.0444 19.3227L34.9655 19.3661L34.8822 19.3964L34.7945 19.4224L34.7024 19.4485L34.6103 19.4658L34.5182 19.4788L34.4218 19.4832L34.3297 19.4875L34.242 19.4788L34.1543 19.4658L34.1455 19.5048Z" fill="white"/>
<path fill-rule="evenodd" clip-rule="evenodd" d="M33.3438 18.5073V18.5811L33.3525 18.6505L33.3613 18.7329L33.3744 18.8066L33.392 18.8803L33.4183 18.9541L33.449 19.0321L33.4928 19.1015L33.5367 19.1709L33.5937 19.2317L33.6595 19.2924L33.734 19.3488L33.8217 19.4008L33.9182 19.4442L34.0278 19.4745L34.1462 19.5049L34.155 19.4659L34.0366 19.4355L33.9313 19.4008L33.8392 19.3618L33.7559 19.3141L33.6858 19.262L33.6244 19.2056L33.5718 19.1406L33.5235 19.0799L33.4885 19.0105L33.4578 18.9411L33.4314 18.8717L33.4139 18.8023L33.4008 18.7242L33.392 18.6505L33.3876 18.5811V18.5073H33.3438Z" fill="white"/>
<path fill-rule="evenodd" clip-rule="evenodd" d="M34.5364 17.2451L34.4224 17.2625L34.3084 17.2928L34.1988 17.3275L34.0936 17.3752L33.9883 17.4273L33.8875 17.4923L33.7998 17.5617L33.7121 17.6398L33.6332 17.7222L33.563 17.8176L33.4972 17.9131L33.4446 18.0215L33.4008 18.1343L33.3744 18.2557L33.3525 18.3771L33.3438 18.5073H33.3876L33.392 18.3771L33.4139 18.26L33.4446 18.1473L33.4841 18.0388L33.5367 17.9347L33.5937 17.8437L33.6638 17.7482L33.7384 17.6658L33.8261 17.5964L33.9138 17.527L34.0059 17.4663L34.1111 17.4143L34.212 17.3666L34.3216 17.3319L34.4268 17.3015L34.5364 17.2842V17.2451Z" fill="white"/>
<path fill-rule="evenodd" clip-rule="evenodd" d="M35.2246 17.1758H35.1851L35.1413 17.1801L35.093 17.1845L35.0404 17.1888L34.9834 17.1931L34.9264 17.1975L34.865 17.2018L34.808 17.2105L34.7554 17.2192L34.7071 17.2235L34.6589 17.2278L34.6151 17.2322L34.5844 17.2365L34.5581 17.2408L34.5449 17.2452H34.5361V17.2842H34.5449L34.5624 17.2799L34.5844 17.2755L34.6151 17.2712L34.6589 17.2669L34.7071 17.2625L34.7554 17.2582L34.808 17.2495L34.865 17.2452L34.9264 17.2365L34.9834 17.2322L35.0404 17.2278L35.093 17.2235L35.1413 17.2192H35.1851H35.2246V17.1758Z" fill="white"/>
<path fill-rule="evenodd" clip-rule="evenodd" d="M35.6709 17.2105L35.6928 17.1931H35.6753L35.649 17.1888H35.5963L35.5306 17.1801H35.456H35.3815L35.3026 17.1758H35.2236V17.2192H35.3026H35.3815L35.456 17.2278H35.5306H35.5963L35.649 17.2322H35.6753H35.6928L35.7104 17.2192L35.6928 17.2322L35.7104 17.2365V17.2192L35.6709 17.2105Z" fill="white"/>
<path fill-rule="evenodd" clip-rule="evenodd" d="M35.707 16.998H35.7026L35.6982 17.0631L35.6894 17.1282L35.6763 17.1889L35.6719 17.2106L35.7113 17.2192L35.7201 17.1932L35.7289 17.1325L35.7376 17.0631L35.7464 16.998H35.707Z" fill="white"/>
<path fill-rule="evenodd" clip-rule="evenodd" d="M35.3076 16.6728V16.6771L35.3865 16.6814L35.4567 16.6988L35.5225 16.7292L35.5795 16.7682L35.6233 16.8159L35.6628 16.8723L35.6935 16.9287L35.7066 16.9981H35.7461L35.733 16.9243L35.7066 16.8506L35.6584 16.7899L35.6058 16.7378L35.5444 16.6901L35.4699 16.6598L35.3909 16.6424L35.3076 16.6294V16.6337V16.6728Z" fill="white"/>
<path fill-rule="evenodd" clip-rule="evenodd" d="M33.8828 16.8332L33.9135 16.8505L33.9486 16.8332L33.9924 16.8115L34.0494 16.7942L34.1196 16.7725L34.2029 16.7551L34.2862 16.7378L34.3827 16.7248L34.4792 16.7117L34.5844 16.6944L34.6896 16.6857L34.7949 16.677L34.9045 16.6727H35.0141H35.115H35.2158H35.3079V16.6337L35.2158 16.6293L35.115 16.625H35.0141L34.9045 16.6293L34.7949 16.638L34.6896 16.6467L34.5844 16.6597L34.4792 16.6727L34.3783 16.6814L34.2818 16.6987L34.1941 16.7161L34.1152 16.7334L34.0407 16.7508L33.9793 16.7725L33.9267 16.7942L33.8872 16.8202L33.9223 16.8375L33.8828 16.8332Z" fill="white"/>
<path fill-rule="evenodd" clip-rule="evenodd" d="M34.1284 16.022L34.1152 16.0393L33.8828 16.833L33.9223 16.8374L34.1547 16.0437L34.1415 16.061L34.1284 16.022L34.1196 16.0263L34.1152 16.0393L34.1284 16.022Z" fill="white"/>
<path fill-rule="evenodd" clip-rule="evenodd" d="M35.61 15.87L35.496 15.8657L35.382 15.8613H35.2768H35.1715H35.0707L34.9742 15.8657L34.8777 15.87L34.7813 15.8787L34.6936 15.883L34.6015 15.896L34.5182 15.909L34.4349 15.9264L34.3559 15.9437L34.277 15.9654L34.2025 15.9914L34.1279 16.0218L34.1411 16.0608L34.2156 16.0305L34.2902 16.0045L34.3647 15.9828L34.4436 15.9654L34.527 15.9481L34.6103 15.9351L34.6936 15.9221L34.7813 15.9177L34.8777 15.909L34.9742 15.9047H35.0707H35.1715H35.2768H35.382L35.496 15.909H35.61V15.87Z" fill="white"/>
<path fill-rule="evenodd" clip-rule="evenodd" d="M36.7495 16.9848L36.767 16.8503V16.7246L36.7451 16.6118L36.7056 16.5034L36.653 16.3993L36.5872 16.3082L36.5039 16.2258L36.425 16.152L36.3285 16.0913L36.2277 16.0306L36.1224 15.9872L36.0172 15.9439L35.9075 15.9178L35.8023 15.8918L35.7015 15.8788L35.6094 15.8701V15.9092L35.7015 15.9178L35.7979 15.9308L35.8988 15.9569L36.004 15.9872L36.1049 16.0263L36.2057 16.0696L36.3066 16.1217L36.3943 16.1867L36.4776 16.2561L36.5521 16.3342L36.6179 16.421L36.6661 16.5164L36.7012 16.6161L36.7275 16.7246V16.8503L36.71 16.9805L36.7495 16.9848Z" fill="white"/>
<path fill-rule="evenodd" clip-rule="evenodd" d="M36.3988 18.7241L36.7496 16.9848L36.7102 16.9805L36.3594 18.7197L36.3988 18.7241Z" fill="white"/>
<path fill-rule="evenodd" clip-rule="evenodd" d="M35.5756 17.861L35.5668 17.8437L35.558 17.8263L35.5317 17.8176L35.501 17.8046H35.4615L35.4177 17.8003H35.3695L35.3212 17.8046L35.2642 17.809L35.2116 17.8176L35.159 17.822L35.1107 17.8307L35.0581 17.8393L35.0187 17.848L34.9748 17.8567L34.9397 17.861L34.9178 17.8654L34.8915 17.874L34.8564 17.887L34.8213 17.9001L34.7775 17.9174L34.738 17.9391L34.6898 17.9608L34.6459 17.9911L34.6021 18.0215L34.5582 18.0562L34.5232 18.0909L34.4881 18.1343L34.4574 18.182L34.4355 18.2297L34.4135 18.2817L34.4048 18.3381L34.4004 18.4509L34.4179 18.542L34.4442 18.607L34.4837 18.6547L34.5319 18.6894L34.5889 18.7068L34.6459 18.7198H34.703H34.8038L34.8959 18.7068L34.9836 18.6894L35.0581 18.6678L35.1327 18.6417L35.1984 18.6114L35.2555 18.581L35.3081 18.542L35.3563 18.5029L35.3958 18.4596L35.4309 18.4205L35.4615 18.3772L35.4835 18.3381L35.501 18.2991L35.5142 18.26L35.5273 18.2253L35.5405 18.1299L35.558 18.0388L35.5668 17.9434L35.5756 17.861Z" fill="#FBB231"/>
<path fill-rule="evenodd" clip-rule="evenodd" d="M42.4336 19.0014L42.438 18.9234L42.4643 18.8366L42.5125 18.7585L42.5695 18.6891L42.6397 18.6328L42.7186 18.5937L42.8063 18.5677L42.8984 18.5547L42.9905 18.5677L43.0782 18.5937L43.1571 18.6328L43.2273 18.6891L43.2843 18.7585L43.3325 18.8366L43.3588 18.9234L43.3632 19.0014H43.2667L43.2623 18.9407L43.2404 18.8713L43.2097 18.8019L43.1659 18.7455L43.1133 18.7022L43.0475 18.6675L42.9729 18.6458L42.8984 18.6371L42.8239 18.6458L42.7493 18.6675L42.6835 18.7022L42.6309 18.7455L42.5871 18.8019L42.5564 18.8713L42.5344 18.9407L42.5301 19.0014H42.4336Z" fill="white"/>
<path fill-rule="evenodd" clip-rule="evenodd" d="M42.7314 19.0018V18.8022H42.9156L42.9551 18.8066L42.9902 18.8153L43.0165 18.8239L43.0428 18.8369L43.0559 18.8586L43.0691 18.876L43.0779 18.8977L43.0822 18.9237L43.0779 18.954L43.0691 18.9757L43.0603 18.9931L43.0559 19.0018H42.9156L42.9288 18.9974L42.9507 18.9931L42.9726 18.9887L42.9858 18.9801L42.9989 18.9714L43.0077 18.9627L43.0121 18.9454V18.9237V18.9063L43.0033 18.8933L42.9945 18.8847L42.9858 18.8803L42.9682 18.876L42.9507 18.8716H42.9332H42.9156H42.8148V19.0018H42.7314Z" fill="white"/>
<path fill-rule="evenodd" clip-rule="evenodd" d="M42.4331 19.0015L42.4287 19.0188L42.4375 19.1186L42.4638 19.2053L42.512 19.2834L42.569 19.3484L42.6392 19.4048L42.7181 19.4482L42.8058 19.4742L42.8979 19.4829L42.99 19.4742L43.0777 19.4482L43.1566 19.4048L43.2268 19.3484L43.2838 19.2834L43.332 19.2053L43.3583 19.1186L43.3671 19.0188L43.3627 19.0015H43.2662V19.0188L43.2618 19.1012L43.2399 19.1706L43.2092 19.2357L43.1654 19.2921L43.1128 19.3354L43.047 19.3745L42.9724 19.3962L42.8979 19.4005L42.8234 19.3962L42.7488 19.3745L42.683 19.3354L42.6304 19.2921L42.5866 19.2357L42.5559 19.1706L42.5339 19.1012L42.5296 19.0188V19.0015H42.4331Z" fill="white"/>
<path fill-rule="evenodd" clip-rule="evenodd" d="M42.7314 19.0015V19.201H42.8148V19.0362H42.8981L42.9989 19.201H43.0647L42.9638 19.0362H42.9858L43.0121 19.0318L43.0296 19.0232L43.0472 19.0101L43.0559 19.0015H42.9156L42.8981 19.0058H42.8148V19.0015H42.7314Z" fill="white"/>
<path d="M42.876 19.3789H42.9724H43.047L43.1128 19.3399L43.1654 19.2965L43.2092 19.2402L43.2399 19.1751V19.1057V19.0233V18.9452V18.8715L43.2092 18.8064L43.1654 18.75L43.1128 18.7067L43.047 18.6503H42.9724H42.8979H42.8234H42.7488L42.683 18.685L42.6304 18.7284L42.5866 18.7847L42.5559 18.8498V18.9235V19.0016V19.084V19.1534L42.5866 19.2185L42.6304 19.2749L42.683 19.3182L42.7488 19.3573H42.8234H42.8979M42.4287 19.0189V18.9235L42.455 18.8368L42.5033 18.7587L42.5603 18.6893L42.6304 18.6329L42.7093 18.5939L42.797 18.5679H42.8891H42.9812L43.0689 18.5939L43.1478 18.6329L43.218 18.6893L43.275 18.7587L43.3232 18.8368L43.3495 18.9235V19.0189V19.1144L43.3232 19.2055L43.275 19.2835L43.218 19.3486L43.1478 19.405L43.0689 19.4483L42.9812 19.4744H42.8891H42.797L42.7093 19.4483L42.6304 19.405L42.5603 19.3486L42.5339 19.2835L42.4857 19.2055L42.4594 19.1144V19.0189H42.4287ZM42.8453 19.2011H42.762V18.8021H42.9724H43.0075H43.0338H43.0601V18.8281V18.8541V18.8802H42.9724L43.0733 19.045H43.0075L42.9067 18.8802H42.8234V19.045L42.8453 19.2011ZM42.9067 18.8498H42.9374H42.9724H42.7927V18.9843H42.876L42.9067 18.8498Z" stroke="white" stroke-width="0.22" stroke-miterlimit="2.61"/>
<path fill-rule="evenodd" clip-rule="evenodd" d="M36.6318 19.4525H37.5702L37.9035 17.5788L37.9166 17.5051L37.9385 17.4357L37.9561 17.3619L37.9868 17.2882L38.0175 17.2188L38.0569 17.1451L38.1008 17.08L38.1534 17.0193L38.2148 16.9629L38.2806 16.9109L38.3595 16.8588L38.4428 16.8198L38.5393 16.7894L38.6489 16.7634L38.7629 16.7417L38.8945 16.7374H38.9427H38.9646H38.9778L39.1269 15.8916L39.0348 15.8959L38.9427 15.9046L38.8594 15.922L38.7804 15.9436L38.7059 15.974L38.6357 16.0044L38.57 16.0391L38.5086 16.0824L38.4472 16.1258L38.3902 16.1735L38.3376 16.2256L38.285 16.2776L38.2323 16.334L38.1841 16.3947L38.1359 16.4554L38.0876 16.5205L38.1885 15.9263H37.2545L36.6318 19.4525Z" fill="white"/>
<path d="M36.6318 19.4525H37.5702L37.9035 17.5788L37.9166 17.5051L37.9385 17.4357L37.9561 17.3619L37.9868 17.2882L38.0175 17.2188L38.0569 17.1451L38.1008 17.08L38.1534 17.0193L38.2148 16.9629L38.2806 16.9109L38.3595 16.8588L38.4428 16.8198L38.5393 16.7894L38.6489 16.7634L38.7629 16.7417L38.8945 16.7374H38.9427H38.9646H38.9778L39.1269 15.8916L39.0348 15.8959L38.9427 15.9046L38.8594 15.922L38.7804 15.9436L38.7059 15.974L38.6357 16.0044L38.57 16.0391L38.5086 16.0824L38.4472 16.1258L38.3902 16.1735L38.3376 16.2256L38.285 16.2776L38.2323 16.334L38.1841 16.3947L38.1359 16.4554L38.0876 16.5205L38.1885 15.9263H37.2545L36.6318 19.4525Z" stroke="white" stroke-width="0.22" stroke-miterlimit="2.61"/>
<path fill-rule="evenodd" clip-rule="evenodd" d="M27.8184 19.4525H28.7567H28.7699L29.09 17.5788L29.1031 17.5051L29.1207 17.4357L29.1382 17.3663L29.1601 17.3012L29.1865 17.2362L29.2215 17.1754L29.261 17.1147L29.3092 17.0583L29.3618 17.0106L29.4189 16.9586L29.4934 16.9195L29.5723 16.8848L29.6688 16.8545L29.7696 16.8285L29.8837 16.8111L30.0108 16.8024H30.024L30.0371 16.8068H30.0547H30.0722L30.0854 16.8111L30.0985 16.8154L30.1117 16.8198L30.1161 16.8068L30.1248 16.7677L30.138 16.707L30.1555 16.6333L30.1818 16.5465L30.2038 16.4554L30.2344 16.3644L30.2651 16.2733L30.2915 16.2082L30.3221 16.1475L30.3572 16.0824L30.3879 16.0261L30.4186 15.9783L30.4405 15.9393L30.4581 15.9176L30.4668 15.9046H30.4625H30.4493L30.4318 15.9003L30.4098 15.8959H30.3879L30.3616 15.8916H30.3353H30.3134L30.2081 15.8959L30.1161 15.9046L30.0284 15.922L29.9494 15.9436L29.8749 15.9697L29.8047 16.0044L29.739 16.0347L29.6819 16.0738L29.6249 16.1171L29.5723 16.1649L29.5197 16.2169L29.4715 16.2733L29.4189 16.3297L29.375 16.3904L29.3268 16.4554L29.2742 16.5205L29.3925 15.9263H28.441L27.8184 19.4525Z" fill="white"/>
<path d="M27.8184 19.4525H28.7567H28.7699L29.09 17.5788L29.1031 17.5051L29.1207 17.4357L29.1382 17.3663L29.1601 17.3012L29.1865 17.2362L29.2215 17.1754L29.261 17.1147L29.3092 17.0583L29.3618 17.0106L29.4189 16.9586L29.4934 16.9195L29.5723 16.8848L29.6688 16.8545L29.7696 16.8285L29.8837 16.8111L30.0108 16.8024H30.024L30.0371 16.8068H30.0547H30.0722L30.0854 16.8111L30.0985 16.8154L30.1117 16.8198L30.1161 16.8068L30.1248 16.7677L30.138 16.707L30.1555 16.6333L30.1818 16.5465L30.2038 16.4554L30.2344 16.3644L30.2651 16.2733L30.2915 16.2082L30.3221 16.1475L30.3572 16.0824L30.3879 16.0261L30.4186 15.9783L30.4405 15.9393L30.4581 15.9176L30.4668 15.9046H30.4625H30.4493L30.4318 15.9003L30.4098 15.8959H30.3879L30.3616 15.8916H30.3353H30.3134L30.2081 15.8959L30.1161 15.9046L30.0284 15.922L29.9494 15.9436L29.8749 15.9697L29.8047 16.0044L29.739 16.0347L29.6819 16.0738L29.6249 16.1171L29.5723 16.1649L29.5197 16.2169L29.4715 16.2733L29.4189 16.3297L29.375 16.3904L29.3268 16.4554L29.2742 16.5205L29.3925 15.9263H28.441L27.8184 19.4525Z" stroke="white" stroke-width="0.22" stroke-miterlimit="2.61"/>
<path fill-rule="evenodd" clip-rule="evenodd" d="M42.4375 22.9141V22.9011L42.4638 22.8187L42.512 22.7406L42.569 22.6756L42.6392 22.6235L42.7181 22.5845L42.8058 22.5628L42.8979 22.5498L42.99 22.5628L43.0777 22.5845L43.1566 22.6235L43.2268 22.6756L43.2838 22.7406L43.332 22.8187L43.3583 22.9011V22.9141H43.2619L43.2399 22.8491L43.2092 22.784L43.1654 22.7276L43.1128 22.6843L43.047 22.6452L42.9725 22.6235L42.8979 22.6149L42.8234 22.6235L42.7488 22.6452L42.6831 22.6843L42.6304 22.7276L42.5866 22.784L42.5559 22.8491L42.534 22.9141H42.4375Z" fill="#FBB231"/>
<path fill-rule="evenodd" clip-rule="evenodd" d="M42.7314 22.914V22.8013H42.9156H42.9551L42.9902 22.8056L43.0165 22.8143L43.0428 22.8273L43.0559 22.8446L43.0691 22.862L43.0779 22.888L43.0822 22.914H43.0121V22.901V22.8837L43.0033 22.8707L42.9945 22.862L42.9858 22.8577L42.9682 22.8533L42.9507 22.849H42.9332H42.9156H42.8148V22.914H42.7314Z" fill="#FBB231"/>
<path fill-rule="evenodd" clip-rule="evenodd" d="M42.4287 22.9878L42.4375 22.9141H42.534V22.9184L42.5296 22.9878H42.4287Z" fill="#FBB231"/>
<path fill-rule="evenodd" clip-rule="evenodd" d="M42.7314 22.9878V22.9141H42.8148V22.9835H42.8981L42.9288 22.9748L42.9507 22.9704L42.9726 22.9661L42.9858 22.9574L42.9989 22.9488L43.0077 22.9401L43.0121 22.9227V22.9141H43.0822L43.0779 22.9401L43.0691 22.9574L43.0603 22.9748L43.0472 22.9878H42.7314Z" fill="#FBB231"/>
<path fill-rule="evenodd" clip-rule="evenodd" d="M43.2661 22.9878L43.2617 22.9184V22.9141H43.3582L43.367 22.9878H43.2661Z" fill="#FBB231"/>
<path fill-rule="evenodd" clip-rule="evenodd" d="M42.4287 22.9878V22.9965L42.4375 23.0919L42.4638 23.183L42.512 23.261L42.569 23.3304L42.6392 23.3868L42.7181 23.4259L42.8058 23.4519L42.8979 23.4606L42.99 23.4519L43.0777 23.4259L43.1566 23.3868L43.2268 23.3304L43.2838 23.261L43.332 23.183L43.3583 23.0919L43.3671 22.9965V22.9878H43.2662V22.9965L43.2618 23.0789L43.2399 23.1483L43.2092 23.2133L43.1654 23.2697L43.1128 23.3131L43.047 23.3521L42.9724 23.3738L42.8979 23.3825L42.8234 23.3738L42.7488 23.3521L42.683 23.3131L42.6304 23.2697L42.5866 23.2133L42.5559 23.1483L42.5339 23.0789L42.5296 22.9965V22.9878H42.4287Z" fill="#FBB231"/>
<path fill-rule="evenodd" clip-rule="evenodd" d="M42.7314 22.9878V23.1786H42.8148V23.0138H42.8981L42.9989 23.1786H43.0647L42.9638 23.0138H42.9858L43.0121 23.0095L43.0296 23.0008L43.0472 22.9878H42.7314Z" fill="#FBB231"/>
<path fill-rule="evenodd" clip-rule="evenodd" d="M27.9188 16.9761L27.8925 16.7809L27.8443 16.6031L27.7785 16.4513L27.6952 16.3212L27.5987 16.2084L27.4891 16.1173L27.3663 16.0479L27.2392 15.9872L27.1032 15.9395L26.9673 15.9048H26.8314H26.6954H26.5639H26.2964L26.0552 15.9438L25.8404 16.0045L25.6474 16.087L25.4808 16.1867L25.3317 16.2951L25.2046 16.4209L25.0949 16.5554L24.9941 16.6551L24.9195 16.8026L24.8581 16.9457L24.8099 17.0845L24.7705 17.2233L24.7441 17.3534V17.4749V17.579V17.8479V18.0908L24.7836 18.312L24.8362 18.5072L24.9195 18.6806L25.016 18.8325L25.1256 18.9669L25.2572 19.0797L25.3975 19.1751L25.5466 19.2575L25.7044 19.3226L25.8667 19.3703L26.0333 19.4093H26.1999H26.3666H26.9936H27.0638H27.1295H27.1909H27.2479H27.3005H27.3532H27.4058H27.454H27.5066L27.5593 19.379L27.6119 19.3529L27.7478 18.5462L27.6513 18.6026L27.5593 18.6546L27.4628 18.6937L27.3663 18.7284L27.2786 18.7587H27.1865H27.0945H27.0068H26.9147H26.6516H26.5639H26.4806H26.3973H26.3096H26.2438L26.1473 18.6503L26.0772 18.6243L26.0202 18.5852L25.9588 18.5462L25.9061 18.4985L25.8711 18.4464L25.8272 18.3901L25.7878 18.338L25.7527 18.2729L25.7044 18.2166V18.1558V18.0951V17.9737V17.9303H27.8618V17.7308L27.9144 17.4532V17.206L27.9188 16.9761ZM27.0155 17.2797H25.8009V17.2363V17.1669V17.0975L25.8272 17.0325L25.8579 16.9761L25.8842 16.9197L25.9237 16.8633L25.9631 16.8156L26.007 16.7679L26.0508 16.7289L26.0991 16.6942L26.1473 16.6638L26.2043 16.6378H26.2613H26.3183H26.3797H26.4411H26.5025H26.5595H26.6121H26.6647L26.713 16.6638L26.7656 16.6942L26.8094 16.7245L26.8489 16.7636L26.8796 16.8113L26.9147 16.859L26.9366 16.9154L26.9629 16.9804V17.0455V17.1973L27.0155 17.2797Z" fill="white"/>
</svg>
