<svg width="41" height="37" viewBox="0 0 41 37" fill="none" xmlns="http://www.w3.org/2000/svg">
<path d="M20.5 37L16.6029 32.5L24.3971 32.5L20.5 37Z" fill="#05C2DF"/>
<path d="M13.584 18H11.776V8.784L8.504 16.904H6.6L3.328 8.872V18H1.52V6.8H4.296L7.552 14.8L10.808 6.8H13.584V18ZM17.8774 10.664C18.5067 10.312 19.2107 10.136 19.9894 10.136C20.768 10.136 21.472 10.312 22.1014 10.664C22.7307 11.0107 23.224 11.4933 23.5814 12.112C23.9387 12.7253 24.1174 13.4107 24.1174 14.168C24.1174 14.9253 23.9387 15.6133 23.5814 16.232C23.224 16.8453 22.7307 17.328 22.1014 17.68C21.472 18.0267 20.768 18.2 19.9894 18.2C19.2107 18.2 18.5067 18.024 17.8774 17.672C17.248 17.32 16.7547 16.8373 16.3974 16.224C16.0454 15.6107 15.8694 14.9253 15.8694 14.168C15.8694 13.4107 16.0454 12.7253 16.3974 12.112C16.7547 11.4987 17.248 11.016 17.8774 10.664ZM21.7094 12.4C21.2507 11.9413 20.6774 11.712 19.9894 11.712C19.3014 11.712 18.728 11.9413 18.2694 12.4C17.816 12.8587 17.5894 13.448 17.5894 14.168C17.5894 14.888 17.816 15.4773 18.2694 15.936C18.728 16.3947 19.3014 16.624 19.9894 16.624C20.6774 16.624 21.2507 16.3947 21.7094 15.936C22.168 15.4773 22.3974 14.888 22.3974 14.168C22.3974 13.448 22.168 12.8587 21.7094 12.4ZM30.067 10.136C30.563 10.136 30.9923 10.208 31.355 10.352L30.955 12.008C30.5977 11.8213 30.1737 11.728 29.683 11.728C29.139 11.728 28.699 11.9093 28.363 12.272C28.027 12.6347 27.859 13.1387 27.859 13.784V18H26.187V10.336H27.843V11.2C28.339 10.4907 29.0803 10.136 30.067 10.136ZM36.0135 10.136C37.0855 10.136 37.9575 10.5093 38.6295 11.256C39.3015 11.9973 39.6375 12.9653 39.6375 14.16C39.6375 14.4053 39.6268 14.6133 39.6055 14.784H33.9415C34.0428 15.4347 34.3015 15.9227 34.7175 16.248C35.1388 16.5733 35.6402 16.736 36.2215 16.736C37.0268 16.736 37.7655 16.4667 38.4375 15.928L39.2695 17.12C38.4268 17.84 37.3762 18.2 36.1175 18.2C34.9602 18.2 34.0162 17.832 33.2855 17.096C32.5602 16.3547 32.1975 15.3787 32.1975 14.168C32.1975 12.968 32.5495 11.9973 33.2535 11.256C33.9628 10.5093 34.8828 10.136 36.0135 10.136ZM35.9815 11.624C35.4055 11.624 34.9442 11.7947 34.5975 12.136C34.2508 12.472 34.0348 12.9307 33.9495 13.512H37.9255C37.8348 12.9147 37.6188 12.4507 37.2775 12.12C36.9415 11.7893 36.5095 11.624 35.9815 11.624Z" fill="#05C2DF"/>
</svg>
