<svg width="359" height="27" viewBox="0 0 359 27" fill="none" xmlns="http://www.w3.org/2000/svg">
<path d="M23.561 25.9988H17.783L6.29898 10.6268V25.9988H0.286977V0.798778H6.04698L17.531 16.1708V0.798778H23.561V25.9988ZM34.1427 25.9988H28.1307V0.798778H34.1427V25.9988ZM50.9348 0.330777C53.3588 0.330777 55.5608 0.864778 57.5408 1.93278C59.5208 3.00078 61.0508 4.48878 62.1308 6.39678L56.8568 9.42078C55.5008 7.20078 53.5028 6.09078 50.8628 6.09078C48.8588 6.09078 47.2028 6.77478 45.8948 8.14278C44.5868 9.49878 43.9328 11.2508 43.9328 13.3988C43.9328 15.6548 44.5988 17.4368 45.9308 18.7448C47.2748 20.0528 48.9248 20.7068 50.8808 20.7068C53.4608 20.7068 55.4888 19.6028 56.9648 17.3948L61.8968 20.8868C60.7328 22.6388 59.2028 24.0068 57.3068 24.9908C55.4228 25.9748 53.2988 26.4668 50.9348 26.4668C49.0148 26.4668 47.2328 26.1428 45.5888 25.4948C43.9448 24.8468 42.5408 23.9528 41.3768 22.8128C40.2248 21.6608 39.3188 20.2748 38.6588 18.6548C37.9988 17.0348 37.6688 15.2828 37.6688 13.3988C37.6688 11.5148 37.9988 9.76278 38.6588 8.14278C39.3188 6.52278 40.2248 5.14278 41.3768 4.00278C42.5408 2.85078 43.9448 1.95078 45.5888 1.30278C47.2328 0.654777 49.0148 0.330777 50.9348 0.330777ZM84.7978 25.9988H65.5018V0.798778H84.7258V6.21678H71.5138V10.5728H83.9518V15.9728H71.5138V20.5808H84.7978V25.9988ZM115.678 6.37878H108.226V25.9988H102.214V6.37878H94.7439V0.798778H115.678V6.37878ZM124.374 1.32078C126.03 0.660778 127.818 0.330777 129.738 0.330777C131.658 0.330777 133.44 0.660778 135.084 1.32078C136.74 1.98078 138.144 2.88678 139.296 4.03878C140.46 5.17878 141.372 6.55878 142.032 8.17878C142.692 9.79878 143.022 11.5388 143.022 13.3988C143.022 15.2588 142.692 16.9988 142.032 18.6188C141.372 20.2388 140.46 21.6248 139.296 22.7768C138.144 23.9168 136.74 24.8168 135.084 25.4768C133.44 26.1368 131.658 26.4668 129.738 26.4668C127.818 26.4668 126.03 26.1368 124.374 25.4768C122.73 24.8168 121.326 23.9168 120.162 22.7768C119.01 21.6248 118.104 20.2388 117.444 18.6188C116.784 16.9988 116.454 15.2588 116.454 13.3988C116.454 11.5388 116.784 9.79878 117.444 8.17878C118.104 6.55878 119.01 5.17878 120.162 4.03878C121.326 2.88678 122.73 1.98078 124.374 1.32078ZM134.778 8.12478C133.47 6.76878 131.79 6.09078 129.738 6.09078C127.686 6.09078 126 6.76878 124.68 8.12478C123.372 9.48078 122.718 11.2388 122.718 13.3988C122.718 15.5588 123.372 17.3168 124.68 18.6728C126 20.0288 127.686 20.7068 129.738 20.7068C131.79 20.7068 133.47 20.0288 134.778 18.6728C136.098 17.3168 136.758 15.5588 136.758 13.3988C136.758 11.2388 136.098 9.48078 134.778 8.12478ZM183.117 25.9988H177.105V8.75478L172.065 23.6228H165.675L160.635 8.80878V25.9988H154.623V0.798778H163.137L168.879 16.8008L174.585 0.798778H183.117V25.9988ZM207.001 25.9988H187.705V0.798778H206.929V6.21678H193.717V10.5728H206.155V15.9728H193.717V20.5808H207.001V25.9988ZM230.415 25.9988H211.119V0.798778H230.343V6.21678H217.131V10.5728H229.569V15.9728H217.131V20.5808H230.415V25.9988ZM253.631 6.37878H246.179V25.9988H240.167V6.37878H232.697V0.798778H253.631V6.37878Z" fill="white"/>
<path d="M277.187 25.9988H283.307V23.8388L277.187 17.7188V25.9988ZM288.311 1.26678L280.283 9.29478L272.399 1.41078L272.255 1.26678H263.579L277.223 14.9108L282.515 20.2028L283.343 21.0308V14.9108L296.987 1.26678H288.311ZM317.757 4.86678C315.417 2.52678 312.321 1.23078 309.009 1.23078C306.237 1.23078 303.609 2.13078 301.413 3.82278L300.981 4.18278L305.337 8.53878L305.661 8.32278C306.633 7.71078 307.785 7.38678 308.973 7.38678C310.629 7.38678 312.177 8.03478 313.365 9.22278C314.553 10.4108 315.201 11.9588 315.201 13.6148C315.201 14.8028 314.877 15.9548 314.265 16.9268L314.049 17.2508L318.405 21.6068L318.765 21.1748C320.457 18.9788 321.357 16.3508 321.357 13.5788C321.357 10.2668 320.061 7.17078 317.721 4.83078L317.757 4.86678ZM312.285 18.8348C311.313 19.4468 310.161 19.7708 308.973 19.7708C307.317 19.7708 305.769 19.1228 304.581 17.9348C303.393 16.7468 302.745 15.1988 302.745 13.5428C302.745 12.3548 303.069 11.2028 303.681 10.2308L303.897 9.90678L299.541 5.55078L299.181 5.98278C297.489 8.17878 296.589 10.8068 296.589 13.5788C296.589 16.8908 297.885 19.9868 300.225 22.3268C302.565 24.6668 305.661 25.9628 308.973 25.9628C311.745 25.9628 314.373 25.0628 316.569 23.3708L317.001 23.0108L312.645 18.6548L312.285 18.8348ZM343.573 1.26678V13.6508C343.573 15.3068 342.925 16.8548 341.737 18.0428C341.413 18.3668 341.053 18.6548 340.657 18.9068L340.153 19.2308L344.581 23.6588L344.941 23.4068C346.381 22.2908 347.569 20.8148 348.397 19.1588C349.261 17.4308 349.693 15.5588 349.693 13.6148V1.23078L343.573 1.26678ZM337.741 19.8068C337.597 19.8068 337.453 19.8068 337.309 19.8068C335.653 19.8068 334.105 19.1588 332.917 17.9708C331.729 16.7828 331.081 15.2348 331.081 13.5788V12.8948L324.925 6.73878V13.5428C324.925 17.6108 326.941 21.4268 330.289 23.7308C332.341 25.1348 334.753 25.8908 337.273 25.8908C338.965 25.8908 340.585 25.5668 342.133 24.9188L342.817 24.6308L337.921 19.7348L337.741 19.8068ZM331.045 1.15878H324.889V3.93078L331.045 10.0868V1.15878ZM353.297 1.01478V16.1348L358.445 21.2828V1.01478H353.297ZM353.297 25.9988H358.445V25.4948L353.297 20.3468V25.9988Z" fill="#05C2DF"/>
</svg>
