<svg width="285" height="27" viewBox="0 0 285 27" fill="none" xmlns="http://www.w3.org/2000/svg">
<path d="M8.162 1.322C9.818 0.661998 11.606 0.331998 13.526 0.331998C15.446 0.331998 17.228 0.661998 18.872 1.322C20.528 1.982 21.932 2.888 23.084 4.04C24.248 5.18 25.16 6.56 25.82 8.18C26.48 9.8 26.81 11.54 26.81 13.4C26.81 15.26 26.48 17 25.82 18.62C25.16 20.24 24.248 21.626 23.084 22.778C21.932 23.918 20.528 24.818 18.872 25.478C17.228 26.138 15.446 26.468 13.526 26.468C11.606 26.468 9.818 26.138 8.162 25.478C6.518 24.818 5.114 23.918 3.95 22.778C2.798 21.626 1.892 20.24 1.232 18.62C0.572 17 0.242 15.26 0.242 13.4C0.242 11.54 0.572 9.8 1.232 8.18C1.892 6.56 2.798 5.18 3.95 4.04C5.114 2.888 6.518 1.982 8.162 1.322ZM18.566 8.126C17.258 6.77 15.578 6.092 13.526 6.092C11.474 6.092 9.788 6.77 8.468 8.126C7.16 9.482 6.506 11.24 6.506 13.4C6.506 15.56 7.16 17.318 8.468 18.674C9.788 20.03 11.474 20.708 13.526 20.708C15.578 20.708 17.258 20.03 18.566 18.674C19.886 17.318 20.546 15.56 20.546 13.4C20.546 11.24 19.886 9.482 18.566 8.126ZM52.1411 15.83C52.1411 19.238 51.1691 21.866 49.2251 23.714C47.2811 25.55 44.5751 26.468 41.1071 26.468C37.6391 26.468 34.9331 25.55 32.9891 23.714C31.0571 21.878 30.0911 19.25 30.0911 15.83V0.799998H36.1211V15.596C36.1211 17.276 36.5651 18.548 37.4531 19.412C38.3411 20.264 39.5591 20.69 41.1071 20.69C42.6671 20.69 43.8911 20.264 44.7791 19.412C45.6671 18.548 46.1111 17.276 46.1111 15.596V0.799998H52.1411V15.83ZM67.4433 0.799998C70.5273 0.799998 72.8853 1.514 74.5173 2.942C76.1613 4.37 76.9833 6.344 76.9833 8.864C76.9833 10.868 76.3713 12.536 75.1473 13.868C73.9233 15.188 72.1893 16.028 69.9453 16.388L77.1813 26H70.0173L63.3753 16.568H62.4933V26H56.4813V0.799998H67.4433ZM62.4933 6.254V11.51H67.3713C68.4873 11.51 69.3453 11.288 69.9453 10.844C70.5573 10.4 70.8633 9.74 70.8633 8.864C70.8633 7.988 70.5573 7.334 69.9453 6.902C69.3333 6.47 68.4753 6.254 67.3713 6.254H62.4933Z" fill="white"/>
<path d="M109.759 8.54C109.759 7.928 109.687 7.316 109.543 6.74C108.715 3.5 105.799 1.232 102.451 1.232H88.3031V11.456L94.4231 17.576V16.856H101.083C102.127 16.856 102.955 17.684 102.955 18.728C102.955 19.772 102.127 20.6 101.083 20.6H94.4231V20.348L88.3031 14.228V25.928H102.451C102.631 25.928 102.811 25.928 102.991 25.928C106.123 25.676 108.715 23.48 109.471 20.456C109.615 19.88 109.687 19.268 109.687 18.656C109.687 16.748 108.931 14.912 107.599 13.544C108.931 12.176 109.687 10.34 109.687 8.432L109.759 8.54ZM94.3871 6.704H101.047C102.091 6.704 102.919 7.532 102.919 8.576C102.919 9.62 102.091 10.448 101.047 10.448H96.0431L94.4231 8.828L94.3871 6.704ZM119.49 19.88V18.152L113.37 12.032V26.036H133.998V19.916L119.49 19.88ZM133.998 16.748V10.628H123.342L120.138 7.424H133.998V1.304H113.334V9.296L120.822 16.784L133.998 16.748ZM137.628 26H143.748V17.9L137.628 11.78V26ZM154.44 6.56L154.296 6.704V17L138.744 1.448L138.6 1.304H137.628V9.008L143.748 15.128L147.672 19.052L154.404 25.784L154.656 26.036H160.416V0.583999L154.44 6.56ZM170.15 19.88V18.152L164.03 12.032V26.036H184.658V19.916L170.15 19.88ZM184.658 16.748V10.628H174.002L170.798 7.424H184.658V1.304H163.994V9.296L171.482 16.784L184.658 16.748ZM188.288 4.796V26H194.408V16.712H202.832V10.592H194.048L188.288 4.796ZM188.252 1.268V1.988L194.372 8.108V7.388H209.6V1.268H188.252ZM213.249 1.268V4.328L219.369 10.448V1.268H213.249ZM213.249 26H219.369V13.256L213.249 7.136V26ZM232.24 26H238.36V19.304L232.24 13.184V26ZM222.952 1.268V7.388H232.24V10.376L238.36 16.496V7.388H247.684V1.268H222.952ZM260.252 1.268L266.372 7.388H276.02V1.268H260.252ZM275.696 16.1L275.588 15.848C275.588 15.812 275.588 15.776 275.588 15.74L275.48 15.416L275.444 15.344C275.372 15.2 275.3 15.056 275.228 14.912L275.192 14.876C275.084 14.66 274.976 14.444 274.868 14.228L274.832 14.156C274.796 14.12 274.76 14.084 274.724 14.048C274.688 14.012 274.652 13.976 274.616 13.94C274.58 13.868 274.544 13.796 274.508 13.724L274.472 13.688C274.436 13.652 274.4 13.616 274.364 13.58C274.364 13.544 274.364 13.508 274.364 13.472L274.292 13.4C274.256 13.364 274.22 13.328 274.184 13.292C274.076 13.184 273.968 13.076 273.86 12.968C273.824 12.932 273.788 12.896 273.752 12.86C273.716 12.824 273.68 12.824 273.644 12.824L273.572 12.752C273.536 12.716 273.5 12.68 273.464 12.644C273.392 12.572 273.32 12.536 273.284 12.5C273.14 12.392 272.996 12.284 272.852 12.176L272.816 12.14C272.744 12.104 272.672 12.068 272.6 12.032C272.528 11.996 272.456 11.96 272.384 11.924L272.204 11.816C272.096 11.744 271.988 11.672 271.88 11.6C271.808 11.564 271.736 11.528 271.664 11.492C271.628 11.492 271.592 11.492 271.556 11.492C271.448 11.456 271.34 11.42 271.232 11.384H271.196C271.124 11.348 271.052 11.312 270.98 11.276H270.944C270.8 11.24 270.656 11.204 270.512 11.168H270.476C270.404 11.132 270.332 11.096 270.26 11.06C270.224 11.06 270.188 11.06 270.152 11.06L270.08 11.024H270.044C269.972 10.988 269.9 10.952 269.828 10.952H269.792C269.72 10.952 269.648 10.952 269.576 10.952H269.468C269.396 10.952 269.324 10.952 269.252 10.952H269.216C269.18 10.952 269.144 10.952 269.108 10.952C269.036 10.952 268.964 10.952 268.892 10.952C268.856 10.952 268.82 10.952 268.784 10.952H268.748C268.712 10.952 268.676 10.952 268.64 10.952C268.568 10.952 268.496 10.952 268.424 10.952H268.352C268.316 10.952 268.28 10.952 268.244 10.952H268.208C268.172 10.952 268.136 10.952 268.1 10.952H258.776C257.912 10.952 257.192 10.232 257.192 9.368C257.192 8.504 257.912 7.784 258.776 7.784H263.348L257.336 1.772L257.084 1.844C256.904 1.88 256.724 1.916 256.544 1.988C255.32 2.348 254.204 3.032 253.304 3.932C252.404 4.832 251.72 5.948 251.36 7.172C251.144 7.892 251.036 8.648 251.036 9.404C251.036 10.16 251.144 10.916 251.36 11.636C251.72 12.86 252.404 13.976 253.304 14.876C254.204 15.776 255.32 16.46 256.544 16.82C257.264 17.036 258.02 17.144 258.776 17.144H268.1C268.964 17.144 269.684 17.864 269.684 18.728C269.684 19.592 268.964 20.312 268.1 20.312H251.072V26.432H268.1C269.792 26.432 271.412 25.892 272.744 24.884C274.04 23.912 275.012 22.508 275.48 20.96C275.696 20.24 275.804 19.484 275.804 18.728C275.804 17.972 275.696 17.216 275.48 16.496L275.696 16.1ZM279.624 1.016V16.136L284.772 21.284V1.016H279.624ZM279.624 26H284.772V25.496L279.624 20.348V26Z" fill="#05C2DF"/>
</svg>
