<svg width="86" height="69" viewBox="0 0 86 69" fill="none" xmlns="http://www.w3.org/2000/svg">
<path opacity="0.45" d="M51.0001 7C46.1192 3.58873 40.9136 2.35207 35.0001 2.00004C29.0866 1.648 23.5606 3.00323 18.3212 5.81203C13.0818 8.62084 8.69828 12.8327 5.6452 17.9917C2.59211 23.1507 0.985816 29.0602 1.00022 35.0803C1.01462 41.1005 2.64917 47.002 5.72691 52.1458C8.80464 57.2896 13.2083 61.4798 18.4611 64.2627C23.7138 67.0456 29.6156 68.3151 35.5273 67.9339C41.4391 67.5526 47.1356 65.4354 52.0001 62" stroke="#05C2DF" stroke-width="2" stroke-miterlimit="1.51696"/>
<path d="M34.0307 61.1555C48.6178 61.1555 60.4431 49.3649 60.4431 34.8204C60.4431 20.276 48.6178 8.48535 34.0307 8.48535C19.4435 8.48535 7.61829 20.276 7.61829 34.8204C7.61829 49.3649 19.4435 61.1555 34.0307 61.1555Z" stroke="#05C2DF" stroke-miterlimit="10"/>
<path opacity="0.45" d="M86.0001 12H56.0001V14H86.0001V12Z" fill="#05C2DF"/>
<path opacity="0.45" d="M86.0001 56H56.0001V58H86.0001V56Z" fill="#05C2DF"/>
<path d="M45 35L27.75 45.3923L27.75 24.6077L45 35Z" fill="#05C2DF"/>
</svg>
