<svg width="248" height="69" viewBox="0 0 248 69" fill="none" xmlns="http://www.w3.org/2000/svg">
<path opacity="0.45" d="M51.0001 7C46.1192 3.58873 40.9136 2.35207 35.0001 2.00004C29.0866 1.648 23.5606 3.00323 18.3212 5.81203C13.0818 8.62084 8.69828 12.8327 5.6452 17.9917C2.59211 23.1507 0.985816 29.0602 1.00022 35.0803C1.01462 41.1005 2.64917 47.002 5.72691 52.1458C8.80464 57.2896 13.2083 61.4798 18.4611 64.2627C23.7138 67.0456 29.6156 68.3151 35.5273 67.9339C41.4391 67.5526 47.1356 65.4354 52.0001 62" stroke="#05C2DF" stroke-width="2" stroke-miterlimit="1.51696"/>
<path d="M34.0307 61.1555C48.6178 61.1555 60.4431 49.3649 60.4431 34.8204C60.4431 20.276 48.6178 8.48535 34.0307 8.48535C19.4435 8.48535 7.61829 20.276 7.61829 34.8204C7.61829 49.3649 19.4435 61.1555 34.0307 61.1555Z" stroke="#05C2DF" stroke-miterlimit="10"/>
<path opacity="0.45" d="M86.0001 12H56.0001V14H86.0001V12Z" fill="#05C2DF"/>
<path opacity="0.45" d="M86.0001 56H56.0001V58H86.0001V56Z" fill="#05C2DF"/>
<path d="M45 35L27.75 45.3923L27.75 24.6077L45 35Z" fill="white"/>
<path opacity="0.45" d="M91 12H89V14H91V12Z" fill="#05C2DF"/>
<path opacity="0.45" d="M88 12H86V14H88V12Z" fill="#05C2DF"/>
<path opacity="0.45" d="M94 12H92V14H94V12Z" fill="#05C2DF"/>
<path opacity="0.45" d="M97 12H95V14H97V12Z" fill="#05C2DF"/>
<path opacity="0.45" d="M100 12H98V14H100V12Z" fill="#05C2DF"/>
<path opacity="0.45" d="M104 12H102V14H104V12Z" fill="#05C2DF"/>
<path opacity="0.45" d="M108 12H106V14H108V12Z" fill="#05C2DF"/>
<path opacity="0.45" d="M112 12H110V14H112V12Z" fill="#05C2DF"/>
<path opacity="0.45" d="M117 12H115V14H117V12Z" fill="#05C2DF"/>
<path opacity="0.45" d="M122 12H120V14H122V12Z" fill="#05C2DF"/>
<path opacity="0.45" d="M127 12H125V14H127V12Z" fill="#05C2DF"/>
<path opacity="0.45" d="M132 12H130V14H132V12Z" fill="#05C2DF"/>
<path opacity="0.45" d="M137 12H135V14H137V12Z" fill="#05C2DF"/>
<path opacity="0.45" d="M142 12H140V14H142V12Z" fill="#05C2DF"/>
<path opacity="0.45" d="M153.6 12.23H152V13.83H153.6V12.23Z" fill="#05C2DF"/>
<path opacity="0.45" d="M159.6 12.23H158V13.83H159.6V12.23Z" fill="#05C2DF"/>
<path opacity="0.45" d="M165.6 12.23H164V13.83H165.6V12.23Z" fill="#05C2DF"/>
<path opacity="0.45" d="M171.3 12.4302H170V13.7302H171.3V12.4302Z" fill="#05C2DF"/>
<path opacity="0.45" d="M178.3 12.4302H177V13.7302H178.3V12.4302Z" fill="#05C2DF"/>
<path opacity="0.45" d="M185.3 12.4302H184V13.7302H185.3V12.4302Z" fill="#05C2DF"/>
<path opacity="0.45" d="M192.3 12.4302H191V13.7302H192.3V12.4302Z" fill="#05C2DF"/>
<path opacity="0.45" d="M200.3 12.4302H199V13.7302H200.3V12.4302Z" fill="#05C2DF"/>
<path opacity="0.45" d="M209.3 12.4302H208V13.7302H209.3V12.4302Z" fill="#05C2DF"/>
<path opacity="0.45" d="M147.6 12.23H146V13.83H147.6V12.23Z" fill="#05C2DF"/>
<path opacity="0.45" d="M248 12.5H247V13.5H248V12.5Z" fill="#05C2DF"/>
<path opacity="0.45" d="M234 12.5H233V13.5H234V12.5Z" fill="#05C2DF"/>
<path opacity="0.45" d="M221 12.5H220V13.5H221V12.5Z" fill="#05C2DF"/>
<path opacity="0.45" d="M91 56H89V58H91V56Z" fill="#05C2DF"/>
<path opacity="0.45" d="M88 56H86V58H88V56Z" fill="#05C2DF"/>
<path opacity="0.45" d="M94 56H92V58H94V56Z" fill="#05C2DF"/>
<path opacity="0.45" d="M97 56H95V58H97V56Z" fill="#05C2DF"/>
<path opacity="0.45" d="M100 56H98V58H100V56Z" fill="#05C2DF"/>
<path opacity="0.45" d="M104 56H102V58H104V56Z" fill="#05C2DF"/>
<path opacity="0.45" d="M108 56H106V58H108V56Z" fill="#05C2DF"/>
<path opacity="0.45" d="M112 56H110V58H112V56Z" fill="#05C2DF"/>
<path opacity="0.45" d="M117 56H115V58H117V56Z" fill="#05C2DF"/>
<path opacity="0.45" d="M122 56H120V58H122V56Z" fill="#05C2DF"/>
<path opacity="0.45" d="M127 56H125V58H127V56Z" fill="#05C2DF"/>
<path opacity="0.45" d="M132 56H130V58H132V56Z" fill="#05C2DF"/>
<path opacity="0.45" d="M137 56H135V58H137V56Z" fill="#05C2DF"/>
<path opacity="0.45" d="M142 56H140V58H142V56Z" fill="#05C2DF"/>
<path opacity="0.45" d="M153.6 56.23H152V57.83H153.6V56.23Z" fill="#05C2DF"/>
<path opacity="0.45" d="M159.6 56.23H158V57.83H159.6V56.23Z" fill="#05C2DF"/>
<path opacity="0.45" d="M165.6 56.23H164V57.83H165.6V56.23Z" fill="#05C2DF"/>
<path opacity="0.45" d="M171.3 56.4302H170V57.7302H171.3V56.4302Z" fill="#05C2DF"/>
<path opacity="0.45" d="M178.3 56.4302H177V57.7302H178.3V56.4302Z" fill="#05C2DF"/>
<path opacity="0.45" d="M185.3 56.4302H184V57.7302H185.3V56.4302Z" fill="#05C2DF"/>
<path opacity="0.45" d="M192.3 56.4302H191V57.7302H192.3V56.4302Z" fill="#05C2DF"/>
<path opacity="0.45" d="M200.3 56.4302H199V57.7302H200.3V56.4302Z" fill="#05C2DF"/>
<path opacity="0.45" d="M209.3 56.4302H208V57.7302H209.3V56.4302Z" fill="#05C2DF"/>
<path opacity="0.45" d="M147.6 56.23H146V57.83H147.6V56.23Z" fill="#05C2DF"/>
<path opacity="0.45" d="M248 56.5H247V57.5H248V56.5Z" fill="#05C2DF"/>
<path opacity="0.45" d="M234 56.5H233V57.5H234V56.5Z" fill="#05C2DF"/>
<path opacity="0.45" d="M221 56.5H220V57.5H221V56.5Z" fill="#05C2DF"/>
</svg>
