<svg width="237" height="69" viewBox="0 0 237 69" fill="none" xmlns="http://www.w3.org/2000/svg">
<path opacity="0.45" d="M51 7C46.1191 3.58873 40.9135 2.35207 35 2.00004C29.0865 1.648 23.5605 3.00323 18.3211 5.81203C13.0817 8.62084 8.69816 12.8327 5.64507 17.9917C2.59199 23.1507 0.985693 29.0602 1.0001 35.0803C1.0145 41.1005 2.64905 47.002 5.72678 52.1458C8.80452 57.2896 13.2082 61.4798 18.4609 64.2627C23.7137 67.0456 29.6155 68.3151 35.5272 67.9339C41.439 67.5526 47.1355 65.4354 52 62" stroke="#05C2DF" stroke-width="2" stroke-miterlimit="1.51696"/>
<path d="M34.0306 61.1555C48.6177 61.1555 60.4429 49.3649 60.4429 34.8204C60.4429 20.276 48.6177 8.48535 34.0306 8.48535C19.4434 8.48535 7.61816 20.276 7.61816 34.8204C7.61816 49.3649 19.4434 61.1555 34.0306 61.1555Z" stroke="#05C2DF" stroke-miterlimit="10"/>
<path opacity="0.45" d="M86 12H56V14H86V12Z" fill="#05C2DF"/>
<path opacity="0.45" d="M86 56H56V58H86V56Z" fill="#05C2DF"/>
<path d="M45 35L27.75 45.3923L27.75 24.6077L45 35Z" fill="#05C2DF"/>
<path opacity="0.45" d="M82.2238 12H80.2646V14H82.2238V12Z" fill="#05C2DF"/>
<path opacity="0.45" d="M79.2853 12H77.3262V14H79.2853V12Z" fill="#05C2DF"/>
<path opacity="0.45" d="M85.1633 12H83.2041V14H85.1633V12Z" fill="#05C2DF"/>
<path opacity="0.45" d="M88.1017 12H86.1426V14H88.1017V12Z" fill="#05C2DF"/>
<path opacity="0.45" d="M91.0403 12H89.0811V14H91.0403V12Z" fill="#05C2DF"/>
<path opacity="0.45" d="M94.9592 12H93V14H94.9592V12Z" fill="#05C2DF"/>
<path opacity="0.45" d="M98.8772 12H96.918V14H98.8772V12Z" fill="#05C2DF"/>
<path opacity="0.45" d="M102.795 12H100.836V14H102.795V12Z" fill="#05C2DF"/>
<path opacity="0.45" d="M107.694 12H105.734V14H107.694V12Z" fill="#05C2DF"/>
<path opacity="0.45" d="M112.591 12H110.632V14H112.591V12Z" fill="#05C2DF"/>
<path opacity="0.45" d="M117.489 12H115.53V14H117.489V12Z" fill="#05C2DF"/>
<path opacity="0.45" d="M122.387 12H120.428V14H122.387V12Z" fill="#05C2DF"/>
<path opacity="0.45" d="M127.285 12H125.326V14H127.285V12Z" fill="#05C2DF"/>
<path opacity="0.45" d="M132.184 12H130.225V14H132.184V12Z" fill="#05C2DF"/>
<path opacity="0.45" d="M143.547 12.23H141.979V13.83H143.547V12.23Z" fill="#05C2DF"/>
<path opacity="0.45" d="M149.424 12.23H147.856V13.83H149.424V12.23Z" fill="#05C2DF"/>
<path opacity="0.45" d="M155.302 12.23H153.734V13.83H155.302V12.23Z" fill="#05C2DF"/>
<path opacity="0.45" d="M160.886 12.4302H159.612V13.7302H160.886V12.4302Z" fill="#05C2DF"/>
<path opacity="0.45" d="M167.742 12.4302H166.469V13.7302H167.742V12.4302Z" fill="#05C2DF"/>
<path opacity="0.45" d="M174.6 12.4302H173.326V13.7302H174.6V12.4302Z" fill="#05C2DF"/>
<path opacity="0.45" d="M181.457 12.4302H180.184V13.7302H181.457V12.4302Z" fill="#05C2DF"/>
<path opacity="0.45" d="M189.293 12.4302H188.02V13.7302H189.293V12.4302Z" fill="#05C2DF"/>
<path opacity="0.45" d="M198.109 12.4302H196.836V13.7302H198.109V12.4302Z" fill="#05C2DF"/>
<path opacity="0.45" d="M137.669 12.23H136.102V13.83H137.669V12.23Z" fill="#05C2DF"/>
<path opacity="0.45" d="M236.02 12.5H235.04V13.5H236.02V12.5Z" fill="#05C2DF"/>
<path opacity="0.45" d="M222.306 12.5H221.326V13.5H222.306V12.5Z" fill="#05C2DF"/>
<path opacity="0.45" d="M209.571 12.5H208.592V13.5H209.571V12.5Z" fill="#05C2DF"/>
<path opacity="0.45" d="M82.2238 56H80.2646V58H82.2238V56Z" fill="#05C2DF"/>
<path opacity="0.45" d="M79.2853 56H77.3262V58H79.2853V56Z" fill="#05C2DF"/>
<path opacity="0.45" d="M85.1633 56H83.2041V58H85.1633V56Z" fill="#05C2DF"/>
<path opacity="0.45" d="M88.1017 56H86.1426V58H88.1017V56Z" fill="#05C2DF"/>
<path opacity="0.45" d="M91.0403 56H89.0811V58H91.0403V56Z" fill="#05C2DF"/>
<path opacity="0.45" d="M94.9592 56H93V58H94.9592V56Z" fill="#05C2DF"/>
<path opacity="0.45" d="M98.8772 56H96.918V58H98.8772V56Z" fill="#05C2DF"/>
<path opacity="0.45" d="M102.795 56H100.836V58H102.795V56Z" fill="#05C2DF"/>
<path opacity="0.45" d="M107.694 56H105.734V58H107.694V56Z" fill="#05C2DF"/>
<path opacity="0.45" d="M112.591 56H110.632V58H112.591V56Z" fill="#05C2DF"/>
<path opacity="0.45" d="M117.489 56H115.53V58H117.489V56Z" fill="#05C2DF"/>
<path opacity="0.45" d="M122.387 56H120.428V58H122.387V56Z" fill="#05C2DF"/>
<path opacity="0.45" d="M127.285 56H125.326V58H127.285V56Z" fill="#05C2DF"/>
<path opacity="0.45" d="M132.184 56H130.225V58H132.184V56Z" fill="#05C2DF"/>
<path opacity="0.45" d="M143.547 56.23H141.979V57.83H143.547V56.23Z" fill="#05C2DF"/>
<path opacity="0.45" d="M149.424 56.23H147.856V57.83H149.424V56.23Z" fill="#05C2DF"/>
<path opacity="0.45" d="M155.302 56.23H153.734V57.83H155.302V56.23Z" fill="#05C2DF"/>
<path opacity="0.45" d="M160.886 56.4302H159.612V57.7302H160.886V56.4302Z" fill="#05C2DF"/>
<path opacity="0.45" d="M167.742 56.4302H166.469V57.7302H167.742V56.4302Z" fill="#05C2DF"/>
<path opacity="0.45" d="M174.6 56.4302H173.326V57.7302H174.6V56.4302Z" fill="#05C2DF"/>
<path opacity="0.45" d="M181.457 56.4302H180.184V57.7302H181.457V56.4302Z" fill="#05C2DF"/>
<path opacity="0.45" d="M189.293 56.4302H188.02V57.7302H189.293V56.4302Z" fill="#05C2DF"/>
<path opacity="0.45" d="M198.109 56.4302H196.836V57.7302H198.109V56.4302Z" fill="#05C2DF"/>
<path opacity="0.45" d="M137.669 56.23H136.102V57.83H137.669V56.23Z" fill="#05C2DF"/>
<path opacity="0.45" d="M236.02 56.5H235.04V57.5H236.02V56.5Z" fill="#05C2DF"/>
<path opacity="0.45" d="M222.306 56.5H221.326V57.5H222.306V56.5Z" fill="#05C2DF"/>
<path opacity="0.45" d="M209.571 56.5H208.592V57.5H209.571V56.5Z" fill="#05C2DF"/>
</svg>
