<svg width="84" height="84" viewBox="0 0 84 84" fill="none" xmlns="http://www.w3.org/2000/svg">
<g clip-path="url(#clip0_1_10253)">
<path d="M76.2249 7.07864V80.6686H73.8934H63.5113H60.68H37.0845H34.2529H27.6461H24.8147H24.3709V78.8091C24.3709 77.7507 23.513 76.8934 22.4552 76.8934C21.3974 76.8934 20.5395 77.7507 20.5395 78.8091V80.6686H20.0956H17.2643H10.6575L8.96667 80.6685L8.32623 80.6685V27.8426C8.32623 27.3366 8.73611 26.9269 9.24193 26.9269H21.0397H21.5397V26.4269V14.6291C21.5397 14.1232 21.9495 13.7134 22.4554 13.7134H26.7026H27.2026V13.2134V7.07864C27.2026 6.57273 27.6125 6.16294 28.1183 6.16294H34.2531H34.7531V5.66294V1.4157C34.7531 0.909827 35.1631 0.5 35.6688 0.5C36.1745 0.5 36.5845 0.909828 36.5845 1.4157V5.66294V6.16294H37.0845H43.2194C43.7251 6.16294 44.1351 6.57277 44.1351 7.07864V13.2134V13.7134H44.6351H47.4665H47.9665V13.2134V7.07864C47.9665 6.57273 48.3764 6.16294 48.8822 6.16294H75.3092C75.8149 6.16294 76.2249 6.57277 76.2249 7.07864Z" stroke="#05C2DF" stroke-linecap="round"/>
<path d="M43.0001 77.5001V51.0733" stroke="#05C2DF" stroke-linecap="round"/>
<path d="M49.0001 77.4269V51" stroke="#05C2DF" stroke-linecap="round"/>
<path d="M55.0001 77.4269V51" stroke="#05C2DF" stroke-linecap="round"/>
<path d="M57.3229 16.5171C57.3229 17.1611 56.8011 17.6828 56.1572 17.6828C55.5133 17.6828 54.9915 17.1611 54.9915 16.5173V14.6296C54.9915 13.9856 55.5135 13.4639 56.1572 13.4639C56.8009 13.4639 57.3229 13.9856 57.3229 14.6296V16.5171Z" fill="#05C2DF" stroke="#05040B" stroke-width="0.5" stroke-linecap="round"/>
<path d="M62.9862 16.5171C62.9862 17.1611 62.4643 17.6828 61.8205 17.6828C61.1766 17.6828 60.6548 17.1611 60.6548 16.5173V14.6296C60.6548 13.9856 61.1768 13.4639 61.8205 13.4639C62.4642 13.4639 62.9862 13.9856 62.9862 14.6296V16.5171Z" fill="#05C2DF" stroke="#05040B" stroke-width="0.5" stroke-linecap="round"/>
<path d="M68.6494 16.5171C68.6494 17.1611 68.1276 17.6828 67.4837 17.6828C66.8398 17.6828 66.318 17.1611 66.318 16.5173V14.6296C66.318 13.9856 66.84 13.4639 67.4837 13.4639C68.1274 13.4639 68.6494 13.9856 68.6494 14.6296V16.5171Z" fill="#05C2DF" stroke="#05040B" stroke-width="0.5" stroke-linecap="round"/>
<path d="M57.3229 25.9548C57.3229 26.5988 56.8011 27.1205 56.1572 27.1205C55.5133 27.1205 54.9915 26.5988 54.9915 25.9548V24.0671C54.9915 23.4231 55.5135 22.9014 56.1572 22.9014C56.8009 22.9014 57.3229 23.4231 57.3229 24.0671V25.9548Z" fill="#05C2DF" stroke="#05040B" stroke-width="0.5" stroke-linecap="round"/>
<path d="M62.9862 25.9548C62.9862 26.5988 62.4643 27.1205 61.8205 27.1205C61.1766 27.1205 60.6548 26.5988 60.6548 25.9548V24.0671C60.6548 23.4231 61.1768 22.9014 61.8205 22.9014C62.4642 22.9014 62.9862 23.4231 62.9862 24.0671V25.9548Z" fill="#05C2DF" stroke="#05040B" stroke-width="0.5" stroke-linecap="round"/>
<path d="M68.6494 25.9548C68.6494 26.5988 68.1276 27.1205 67.4837 27.1205C66.8398 27.1205 66.318 26.5988 66.318 25.9548V24.0671C66.318 23.4231 66.84 22.9014 67.4837 22.9014C68.1274 22.9014 68.6494 23.4231 68.6494 24.0671V25.9548Z" fill="#05C2DF" stroke="#05040B" stroke-width="0.5" stroke-linecap="round"/>
<path d="M57.3229 35.3932C57.3229 36.0372 56.8011 36.5589 56.1572 36.5589C55.5134 36.5589 54.9915 36.0371 54.9915 35.3932V33.5055C54.9915 32.8616 55.5135 32.3398 56.1572 32.3398C56.8009 32.3398 57.3229 32.8616 57.3229 33.5055V35.3932Z" fill="#05C2DF" stroke="#05040B" stroke-width="0.5" stroke-linecap="round"/>
<path d="M62.9862 35.3932C62.9862 36.0372 62.4643 36.5589 61.8205 36.5589C61.1766 36.5589 60.6548 36.0371 60.6548 35.3932V33.5055C60.6548 32.8616 61.1768 32.3398 61.8205 32.3398C62.4642 32.3398 62.9862 32.8616 62.9862 33.5055V35.3932Z" fill="#05C2DF" stroke="#05040B" stroke-width="0.5" stroke-linecap="round"/>
<path d="M68.6494 35.3932C68.6494 36.0372 68.1276 36.5589 67.4837 36.5589C66.8398 36.5589 66.318 36.0371 66.318 35.3932V33.5055C66.318 32.8616 66.84 32.3398 67.4837 32.3398C68.1274 32.3398 68.6494 32.8616 68.6494 33.5055V35.3932Z" fill="#05C2DF" stroke="#05040B" stroke-width="0.5" stroke-linecap="round"/>
<path d="M17.6826 39.1686C17.6826 39.8126 17.1608 40.3343 16.5169 40.3343C15.8732 40.3343 15.3512 39.8125 15.3512 39.1686V37.2809C15.3512 36.637 15.8732 36.1152 16.5169 36.1152C17.1606 36.1152 17.6826 36.637 17.6826 37.2809V39.1686Z" fill="#05C2DF" stroke="#05040B" stroke-width="0.5" stroke-linecap="round"/>
<path d="M23.3457 39.1686C23.3457 39.8126 22.8239 40.3343 22.18 40.3343C21.5362 40.3343 21.0143 39.8125 21.0143 39.1686V37.2809C21.0143 36.637 21.5363 36.1152 22.18 36.1152C22.8238 36.1152 23.3457 36.637 23.3457 37.2809V39.1686Z" fill="#05C2DF" stroke="#05040B" stroke-width="0.5" stroke-linecap="round"/>
<path d="M29.0084 39.1686C29.0084 39.8126 28.4866 40.3343 27.8427 40.3343C27.1988 40.3343 26.677 39.8125 26.677 39.1686V37.2809C26.677 36.637 27.199 36.1152 27.8427 36.1152C28.4864 36.1152 29.0084 36.637 29.0084 37.2809V39.1686Z" fill="#05C2DF" stroke="#05040B" stroke-width="0.5" stroke-linecap="round"/>
<path d="M17.6826 48.6071C17.6826 49.2511 17.1608 49.7728 16.5169 49.7728C15.8732 49.7728 15.3512 49.2509 15.3512 48.6071V46.7194C15.3512 46.0754 15.8732 45.5537 16.5169 45.5537C17.1606 45.5537 17.6826 46.0754 17.6826 46.7194V48.6071Z" fill="#05C2DF" stroke="#05040B" stroke-width="0.5" stroke-linecap="round"/>
<path d="M23.3457 48.6071C23.3457 49.2511 22.8239 49.7728 22.18 49.7728C21.5362 49.7728 21.0143 49.251 21.0143 48.6071V46.7194C21.0143 46.0754 21.5363 45.5537 22.18 45.5537C22.8238 45.5537 23.3457 46.0754 23.3457 46.7194V48.6071Z" fill="#05C2DF" stroke="#05040B" stroke-width="0.5" stroke-linecap="round"/>
<path d="M29.0084 48.6071C29.0084 49.2511 28.4866 49.7728 27.8427 49.7728C27.1988 49.7728 26.677 49.251 26.677 48.6071V46.7194C26.677 46.0754 27.199 45.5537 27.8427 45.5537C28.4864 45.5537 29.0084 46.0754 29.0084 46.7194V48.6071Z" fill="#05C2DF" stroke="#05040B" stroke-width="0.5" stroke-linecap="round"/>
<path d="M17.6826 58.0446C17.6826 58.6886 17.1608 59.2103 16.5169 59.2103C15.8732 59.2103 15.3512 58.6886 15.3512 58.0446V56.1569C15.3512 55.5129 15.8732 54.9912 16.5169 54.9912C17.1606 54.9912 17.6826 55.5129 17.6826 56.1569V58.0446Z" fill="#05C2DF" stroke="#05040B" stroke-width="0.5" stroke-linecap="round"/>
<path d="M23.3457 58.0446C23.3457 58.6886 22.8239 59.2103 22.18 59.2103C21.5362 59.2103 21.0143 58.6886 21.0143 58.0446V56.1569C21.0143 55.5129 21.5363 54.9912 22.18 54.9912C22.8238 54.9912 23.3457 55.5129 23.3457 56.1569V58.0446Z" fill="#05C2DF" stroke="#05040B" stroke-width="0.5" stroke-linecap="round"/>
<path d="M29.0084 58.0446C29.0084 58.6886 28.4866 59.2103 27.8427 59.2103C27.1988 59.2103 26.677 58.6886 26.677 58.0446V56.1569C26.677 55.5129 27.199 54.9912 27.8427 54.9912C28.4864 54.9912 29.0084 55.5129 29.0084 56.1569V58.0446Z" fill="#05C2DF" stroke="#05040B" stroke-width="0.5" stroke-linecap="round"/>
<path d="M17.6826 67.4831C17.6826 68.1271 17.1608 68.6488 16.5169 68.6488C15.8732 68.6488 15.3512 68.1271 15.3512 67.4831V65.5954C15.3512 64.9514 15.8732 64.4297 16.5169 64.4297C17.1606 64.4297 17.6826 64.9514 17.6826 65.5954V67.4831Z" fill="#05C2DF" stroke="#05040B" stroke-width="0.5" stroke-linecap="round"/>
<path d="M23.3457 67.4831C23.3457 68.1271 22.8239 68.6488 22.18 68.6488C21.5362 68.6488 21.0143 68.1271 21.0143 67.4831V65.5954C21.0143 64.9514 21.5363 64.4297 22.18 64.4297C22.8238 64.4297 23.3457 64.9514 23.3457 65.5954V67.4831Z" fill="#05C2DF" stroke="#05040B" stroke-width="0.5" stroke-linecap="round"/>
<path d="M29.0084 67.4831C29.0084 68.1271 28.4866 68.6488 27.8427 68.6488C27.1988 68.6488 26.677 68.1271 26.677 67.4831V65.5954C26.677 64.9514 27.199 64.4297 27.8427 64.4297C28.4864 64.4297 29.0084 64.9514 29.0084 65.5954V67.4831Z" fill="#05C2DF" stroke="#05040B" stroke-width="0.5" stroke-linecap="round"/>
<path d="M68.6494 44.8317C68.6494 45.4757 68.1276 45.9974 67.4837 45.9974C66.8398 45.9974 66.318 45.4756 66.318 44.8317V42.944C66.318 42.3 66.84 41.7783 67.4837 41.7783C68.1274 41.7783 68.6494 42.3 68.6494 42.944V44.8317Z" fill="#05C2DF" stroke="#05040B" stroke-width="0.5" stroke-linecap="round"/>
<path d="M68.6494 54.2702C68.6494 54.9142 68.1276 55.4359 67.4837 55.4359C66.8398 55.4359 66.318 54.914 66.318 54.2702V52.3825C66.318 51.7385 66.84 51.2168 67.4837 51.2168C68.1274 51.2168 68.6494 51.7385 68.6494 52.3825V54.2702Z" fill="#05C2DF" stroke="#05040B" stroke-width="0.5" stroke-linecap="round"/>
<path d="M68.6494 63.7077C68.6494 64.3517 68.1276 64.8734 67.4837 64.8734C66.8398 64.8734 66.318 64.3515 66.318 63.7077V61.82C66.318 61.176 66.84 60.6543 67.4837 60.6543C68.1274 60.6543 68.6494 61.176 68.6494 61.82V63.7077Z" fill="#05C2DF" stroke="#05040B" stroke-width="0.5" stroke-linecap="round"/>
<path d="M68.6494 73.1462C68.6494 73.7902 68.1276 74.3119 67.4837 74.3119C66.8398 74.3119 66.318 73.79 66.318 73.1462V71.2585C66.318 70.6145 66.84 70.0928 67.4837 70.0928C68.1274 70.0928 68.6494 70.6145 68.6494 71.2585V73.1462Z" fill="#05C2DF" stroke="#05040B" stroke-width="0.5" stroke-linecap="round"/>
<path d="M41.326 20H30.0001" stroke="#05C2DF" stroke-linecap="round"/>
<path fill-rule="evenodd" clip-rule="evenodd" d="M56 42C55.4477 42 55 42.4477 55 43V44H57V43C57 42.4477 56.5523 42 56 42Z" fill="#05C2DF"/>
<path fill-rule="evenodd" clip-rule="evenodd" d="M62 42C61.4477 42 61 42.4477 61 43V44H63V43C63 42.4477 62.5523 42 62 42Z" fill="#05C2DF"/>
</g>
<defs>
<clipPath id="clip0_1_10253">
<rect width="84" height="84" fill="white"/>
</clipPath>
</defs>
</svg>
