<svg width="84" height="84" viewBox="0 0 84 84" fill="none" xmlns="http://www.w3.org/2000/svg">
<path d="M75.9497 81.1686V81.6686H76.4497H78.8092C79.3149 81.6686 79.7249 82.0784 79.7249 82.5843C79.7249 83.0902 79.315 83.5 78.8092 83.5H5.19109C4.68547 83.5 4.27539 83.0901 4.27539 82.5841C4.27539 82.0782 4.68527 81.6684 5.19109 81.6684H7.55096H8.05096V81.1684V27.8426C8.05096 27.3366 8.46084 26.9269 8.96666 26.9269H20.7644H21.2644V26.4269V14.6291C21.2644 14.1232 21.6743 13.7134 22.1801 13.7134H26.4273H26.9273V13.2134V7.07864C26.9273 6.57273 27.3372 6.16294 27.843 6.16294H33.9778H34.4778V5.66294V1.4157C34.4778 0.909827 34.8878 0.5 35.3935 0.5C35.8992 0.5 36.3092 0.909828 36.3092 1.4157V5.66294V6.16294H36.8092H42.9442C43.4499 6.16294 43.8599 6.57277 43.8599 7.07864V13.2134V13.7134H44.3599H47.1913H47.6913V13.2134V7.07864C47.6913 6.57273 48.1011 6.16294 48.6069 6.16294H75.034C75.5397 6.16294 75.9497 6.57277 75.9497 7.07864V81.1686ZM29.2586 7.99434H28.7586V8.49434V13.2134V13.7134H29.2586H41.5281H42.0281V13.2134V8.49434V7.99434H41.5281H29.2586ZM24.5395 81.6686H25.0395V81.1686V76.4495V75.9495H24.5395H19.8204H19.3204V76.4495V81.1686V81.6686H19.8204H20.7642H21.2642V81.1686V78.8091C21.2642 78.3032 21.6742 77.8934 22.1799 77.8934C22.6856 77.8934 23.0956 78.3032 23.0956 78.8091V81.1686V81.6686H23.5956H24.5395ZM33.9777 81.6686H34.4777V81.1686V47.2669V44.8314V29.2584V28.7584H33.9777H10.3822H9.88219V29.2584V81.1686V81.6686H10.3822H16.989H17.489V81.1686V75.0338C17.489 74.5279 17.8989 74.1181 18.4047 74.1181H25.9552C26.4609 74.1181 26.8709 74.528 26.8709 75.0338V81.1686V81.6686H27.3709H33.9777ZM23.0956 26.427V26.927H23.5956H35.3934C35.8992 26.927 36.3092 27.3369 36.3092 27.8429V28.3147V28.8147H36.8092H41.0565C41.5622 28.8147 41.9722 29.2246 41.9722 29.7304C41.9722 30.2363 41.5623 30.6461 41.0565 30.6461H36.8092H36.3092V31.1461V35.8652V36.3652H36.8092H41.0565C41.5622 36.3652 41.9722 36.775 41.9722 37.2809C41.9722 37.7868 41.5623 38.1966 41.0565 38.1966H36.8092H36.3092V38.6966V43.4157V43.9157H36.8092H47.1911H47.6911V43.4157V16.045V15.545H47.1911H23.5956H23.0956V16.045V26.427ZM60.4047 81.6686H60.9047V81.1686V46.2472V45.7472H60.4047H36.8092H36.3092V46.2472V47.2669V81.1686V81.6686H36.8092H60.4047ZM62.7361 81.1686V81.6686H63.2361H73.6181H73.6183H74.1183V81.1686V8.49434V7.99434H73.6183H50.0228H49.5228V8.49434V14.6293V43.4155V43.9155H50.0228H54.7419H55.2419V43.4155V42.9437C55.2419 42.4378 55.6519 42.028 56.1576 42.028C56.6633 42.028 57.0733 42.4378 57.0733 42.9437V43.4155V43.9155H57.5733H60.4047H60.9047V43.4155V42.9437C60.9047 42.4378 61.3147 42.028 61.8204 42.028C62.3261 42.028 62.7361 42.4378 62.7361 42.9437V44.8314V81.1686Z" stroke="#05C2DF"/>
<path d="M43.8587 76.9217C43.8587 77.4273 43.4488 77.8374 42.943 77.8374C42.4372 77.8374 42.0273 77.4274 42.0273 76.9218V50.4948C42.0273 49.9889 42.4373 49.5791 42.943 49.5791C43.4487 49.5791 43.8587 49.9889 43.8587 50.4948V76.9217Z" stroke="#05C2DF"/>
<path d="M47.6914 76.9219V76.9218V50.4948C47.6914 49.9889 48.1014 49.5791 48.6071 49.5791C49.1128 49.5791 49.5228 49.9889 49.5228 50.4948V76.9217C49.5228 77.4273 49.1128 77.8374 48.6071 77.8374C48.1012 77.8374 47.6913 77.4273 47.6914 76.9219Z" stroke="#05C2DF"/>
<path d="M55.1849 76.9217C55.1849 77.4273 54.7749 77.8374 54.2692 77.8374C53.7635 77.8374 53.3535 77.4274 53.3535 76.9218V50.4948C53.3535 49.9889 53.7635 49.5791 54.2692 49.5791C54.7749 49.5791 55.1849 49.9889 55.1849 50.4948V76.9217Z" stroke="#05C2DF"/>
<path d="M57.0736 16.5171C57.0736 17.023 56.6637 17.4328 56.1579 17.4328C55.652 17.4328 55.2422 17.023 55.2422 16.5173V14.6296C55.2422 14.1237 55.6522 13.7139 56.1579 13.7139C56.6636 13.7139 57.0736 14.1237 57.0736 14.6296V16.5171Z" stroke="#05C2DF"/>
<path d="M62.7357 16.5171C62.7357 17.023 62.3258 17.4328 61.82 17.4328C61.3141 17.4328 60.9043 17.023 60.9043 16.5173V14.6296C60.9043 14.1237 61.3143 13.7139 61.82 13.7139C62.3257 13.7139 62.7357 14.1237 62.7357 14.6296V16.5171Z" stroke="#05C2DF"/>
<path d="M68.3998 16.5171C68.3998 17.023 67.9899 17.4328 67.4841 17.4328C66.9782 17.4328 66.5684 17.023 66.5684 16.5173V14.6296C66.5684 14.1237 66.9784 13.7139 67.4841 13.7139C67.9898 13.7139 68.3998 14.1237 68.3998 14.6296V16.5171Z" stroke="#05C2DF"/>
<path d="M57.0736 25.9548C57.0736 26.4607 56.6637 26.8705 56.1579 26.8705C55.6521 26.8705 55.2422 26.4607 55.2422 25.9548V24.0671C55.2422 23.5612 55.6522 23.1514 56.1579 23.1514C56.6636 23.1514 57.0736 23.5612 57.0736 24.0671V25.9548Z" stroke="#05C2DF"/>
<path d="M62.7357 25.9548C62.7357 26.4607 62.3258 26.8705 61.82 26.8705C61.3142 26.8705 60.9043 26.4607 60.9043 25.9548V24.0671C60.9043 23.5612 61.3143 23.1514 61.82 23.1514C62.3257 23.1514 62.7357 23.5612 62.7357 24.0671V25.9548Z" stroke="#05C2DF"/>
<path d="M68.3998 25.9548C68.3998 26.4607 67.9899 26.8705 67.4841 26.8705C66.9782 26.8705 66.5684 26.4607 66.5684 25.9548V24.0671C66.5684 23.5612 66.9784 23.1514 67.4841 23.1514C67.9898 23.1514 68.3998 23.5612 68.3998 24.0671V25.9548Z" stroke="#05C2DF"/>
<path d="M57.0736 35.3932C57.0736 35.8992 56.6637 36.3089 56.1579 36.3089C55.6521 36.3089 55.2422 35.899 55.2422 35.3932V33.5055C55.2422 32.9997 55.6522 32.5898 56.1579 32.5898C56.6636 32.5898 57.0736 32.9997 57.0736 33.5055V35.3932Z" stroke="#05C2DF"/>
<path d="M62.7357 35.3932C62.7357 35.8992 62.3258 36.3089 61.82 36.3089C61.3142 36.3089 60.9043 35.899 60.9043 35.3932V33.5055C60.9043 32.9997 61.3143 32.5898 61.82 32.5898C62.3257 32.5898 62.7357 32.9997 62.7357 33.5055V35.3932Z" stroke="#05C2DF"/>
<path d="M68.3998 35.3932C68.3998 35.8992 67.9899 36.3089 67.4841 36.3089C66.9783 36.3089 66.5684 35.899 66.5684 35.3932V33.5055C66.5684 32.9997 66.9784 32.5898 67.4841 32.5898C67.9898 32.5898 68.3998 32.9997 68.3998 33.5055V35.3932Z" stroke="#05C2DF"/>
<path d="M17.433 39.1686C17.433 39.6745 17.0231 40.0843 16.5173 40.0843C16.0116 40.0843 15.6016 39.6744 15.6016 39.1686V37.2809C15.6016 36.7751 16.0116 36.3652 16.5173 36.3652C17.023 36.3652 17.433 36.7751 17.433 37.2809V39.1686Z" stroke="#05C2DF"/>
<path d="M23.0951 39.1686C23.0951 39.6745 22.6852 40.0843 22.1794 40.0843C21.6736 40.0843 21.2637 39.6744 21.2637 39.1686V37.2809C21.2637 36.7751 21.6737 36.3652 22.1794 36.3652C22.6851 36.3652 23.0951 36.7751 23.0951 37.2809V39.1686Z" stroke="#05C2DF"/>
<path d="M28.7591 39.1686C28.7591 39.6745 28.3492 40.0843 27.8434 40.0843C27.3376 40.0843 26.9277 39.6744 26.9277 39.1686V37.2809C26.9277 36.7751 27.3377 36.3652 27.8434 36.3652C28.3491 36.3652 28.7591 36.7751 28.7591 37.2809V39.1686Z" stroke="#05C2DF"/>
<path d="M17.433 48.6071C17.433 49.113 17.0231 49.5228 16.5173 49.5228C16.0116 49.5228 15.6016 49.1128 15.6016 48.6071V46.7194C15.6016 46.2135 16.0116 45.8037 16.5173 45.8037C17.023 45.8037 17.433 46.2135 17.433 46.7194V48.6071Z" stroke="#05C2DF"/>
<path d="M23.0951 48.6071C23.0951 49.113 22.6852 49.5228 22.1794 49.5228C21.6736 49.5228 21.2637 49.1129 21.2637 48.6071V46.7194C21.2637 46.2135 21.6737 45.8037 22.1794 45.8037C22.6851 45.8037 23.0951 46.2135 23.0951 46.7194V48.6071Z" stroke="#05C2DF"/>
<path d="M28.7591 48.6071C28.7591 49.113 28.3492 49.5228 27.8434 49.5228C27.3376 49.5228 26.9277 49.1129 26.9277 48.6071V46.7194C26.9277 46.2135 27.3377 45.8037 27.8434 45.8037C28.3491 45.8037 28.7591 46.2135 28.7591 46.7194V48.6071Z" stroke="#05C2DF"/>
<path d="M17.433 58.0446C17.433 58.5505 17.0231 58.9603 16.5173 58.9603C16.0116 58.9603 15.6016 58.5505 15.6016 58.0446V56.1569C15.6016 55.651 16.0116 55.2412 16.5173 55.2412C17.0229 55.2412 17.433 55.651 17.433 56.1569V58.0446Z" stroke="#05C2DF"/>
<path d="M23.0951 58.0446C23.0951 58.5505 22.6852 58.9603 22.1794 58.9603C21.6736 58.9603 21.2637 58.5505 21.2637 58.0446V56.1569C21.2637 55.651 21.6737 55.2412 22.1794 55.2412C22.6851 55.2412 23.0951 55.651 23.0951 56.1569V58.0446Z" stroke="#05C2DF"/>
<path d="M28.7591 58.0446C28.7591 58.5505 28.3492 58.9603 27.8434 58.9603C27.3376 58.9603 26.9277 58.5505 26.9277 58.0446V56.1569C26.9277 55.651 27.3377 55.2412 27.8434 55.2412C28.3491 55.2412 28.7591 55.651 28.7591 56.1569V58.0446Z" stroke="#05C2DF"/>
<path d="M17.433 67.4831C17.433 67.989 17.0231 68.3988 16.5173 68.3988C16.0116 68.3988 15.6016 67.989 15.6016 67.4831V65.5954C15.6016 65.0895 16.0116 64.6797 16.5173 64.6797C17.0229 64.6797 17.433 65.0895 17.433 65.5954V67.4831Z" stroke="#05C2DF"/>
<path d="M23.0951 67.4831C23.0951 67.989 22.6852 68.3988 22.1794 68.3988C21.6736 68.3988 21.2637 67.989 21.2637 67.4831V65.5954C21.2637 65.0895 21.6737 64.6797 22.1794 64.6797C22.6851 64.6797 23.0951 65.0895 23.0951 65.5954V67.4831Z" stroke="#05C2DF"/>
<path d="M28.7591 67.4831C28.7591 67.989 28.3492 68.3988 27.8434 68.3988C27.3376 68.3988 26.9277 67.989 26.9277 67.4831V65.5954C26.9277 65.0895 27.3377 64.6797 27.8434 64.6797C28.3491 64.6797 28.7591 65.0895 28.7591 65.5954V67.4831Z" stroke="#05C2DF"/>
<path d="M68.3998 44.8317C68.3998 45.3376 67.9899 45.7474 67.4841 45.7474C66.9783 45.7474 66.5684 45.3375 66.5684 44.8317V42.944C66.5684 42.4381 66.9784 42.0283 67.4841 42.0283C67.9898 42.0283 68.3998 42.4381 68.3998 42.944V44.8317Z" stroke="#05C2DF"/>
<path d="M68.3998 54.2702C68.3998 54.7761 67.9899 55.1859 67.4841 55.1859C66.9783 55.1859 66.5684 54.776 66.5684 54.2702V52.3825C66.5684 51.8766 66.9784 51.4668 67.4841 51.4668C67.9898 51.4668 68.3998 51.8766 68.3998 52.3825V54.2702Z" stroke="#05C2DF"/>
<path d="M68.3998 63.7077C68.3998 64.2136 67.9899 64.6234 67.4841 64.6234C66.9783 64.6234 66.5684 64.2135 66.5684 63.7077V61.82C66.5684 61.3141 66.9784 60.9043 67.4841 60.9043C67.9898 60.9043 68.3998 61.3141 68.3998 61.82V63.7077Z" stroke="#05C2DF"/>
<path d="M68.3998 73.1462C68.3998 73.6521 67.9899 74.0619 67.4841 74.0619C66.9783 74.0619 66.5684 73.6519 66.5684 73.1462V71.2585C66.5684 70.7526 66.9784 70.3428 67.4841 70.3428C67.9898 70.3428 68.3998 70.7526 68.3998 71.2585V73.1462Z" stroke="#05C2DF"/>
<path d="M41.0561 21.2637C41.5617 21.2637 41.9717 21.6735 41.9717 22.1794C41.9717 22.6853 41.5619 23.0951 41.0561 23.0951H29.7301C29.2245 23.0951 28.8145 22.6852 28.8145 22.1794C28.8145 21.6735 29.2243 21.2637 29.7301 21.2637H41.0561Z" stroke="#05C2DF"/>
</svg>
