<svg width="23" height="23" viewBox="0 0 23 23" fill="none" xmlns="http://www.w3.org/2000/svg">
<path d="M2.11253 13.5984C2.05625 13.9334 2.01696 14.2726 2.01696 14.6196C2.01696 18.8422 6.40409 22.2775 11.6923 22.2775C16.9805 22.2775 21.2824 18.8422 21.2824 14.6196C21.2824 14.2726 21.2431 13.9334 21.1868 13.5984C22.016 13.1277 22.5611 12.1982 22.5611 11.1388C22.5611 9.60301 21.4141 8.35406 20.0037 8.35406C19.3592 8.35406 18.7537 8.61712 18.2893 9.0758C16.6823 7.85587 14.5502 7.07993 12.1928 6.98203L13.4162 1.81458L16.1752 2.86573C16.2156 4.3634 17.3401 5.56938 18.725 5.56938C20.1354 5.56938 21.2824 4.32044 21.2824 2.78469C21.2824 1.24894 20.1354 0 18.725 0C17.7417 0 16.8962 0.613864 16.4685 1.50203L12.5258 0.000725179L10.8688 6.99508C8.63912 7.14737 6.54361 7.91152 5.01003 9.0758C4.54568 8.61712 3.94014 8.35406 3.29564 8.35406C1.88526 8.35406 0.738281 9.60301 0.738281 11.1388C0.738281 12.1982 1.28338 13.1277 2.11253 13.5984ZM15.5283 11.1388C16.5859 11.1388 17.4463 12.0757 17.4463 13.2273C17.4463 14.3789 16.5859 15.3158 15.5283 15.3158C14.4708 15.3158 13.6103 14.3789 13.6103 13.2273C13.6103 12.0757 14.4708 11.1388 15.5283 11.1388ZM15.2549 17.2888L15.8017 18.5465C14.6018 19.1658 13.1808 19.4928 11.6923 19.4928C10.2038 19.4928 8.69756 19.1658 7.49763 18.5465L8.0444 17.2886C10.1049 18.3507 13.1944 18.3507 15.2549 17.2888ZM7.77101 11.1388C8.82859 11.1388 9.68903 12.0757 9.68903 13.2273C9.68903 14.3789 8.82859 15.3158 7.77101 15.3158C6.71344 15.3158 5.853 14.3789 5.853 13.2273C5.853 12.0757 6.71344 11.1388 7.77101 11.1388Z" fill="white"/>
</svg>
