<svg width="23" height="23" viewBox="0 0 23 23" fill="none" xmlns="http://www.w3.org/2000/svg">
<path d="M2.10569 14.321C2.04942 14.6561 2.01012 14.9953 2.01012 15.3423C2.01012 19.5648 6.39726 23.0002 11.6855 23.0002C16.9737 23.0002 21.2755 19.5648 21.2755 15.3423C21.2755 14.9953 21.2363 14.6561 21.18 14.321C22.0091 13.8504 22.5542 12.9209 22.5542 11.8614C22.5542 10.3257 21.4072 9.07672 19.9969 9.07672C19.3524 9.07672 18.7468 9.33978 18.2825 9.79846C16.6755 8.57852 14.5433 7.80258 12.1859 7.70468L13.4093 2.53724L16.1683 3.58838C16.2088 5.08606 17.3333 6.29203 18.7182 6.29203C20.1286 6.29203 21.2755 5.04309 21.2755 3.50734C21.2755 1.9716 20.1286 0.722656 18.7182 0.722656C17.7349 0.722656 16.8894 1.33652 16.4617 2.22468L12.5189 0.723381L10.862 7.71774C8.63228 7.87002 6.53678 8.63418 5.0032 9.79846C4.53884 9.33978 3.9333 9.07672 3.2888 9.07672C1.87843 9.07672 0.731445 10.3257 0.731445 11.8614C0.731445 12.9209 1.27655 13.8504 2.10569 14.321V14.321ZM15.5215 11.8614C16.5791 11.8614 17.4395 12.7983 17.4395 13.9499C17.4395 15.1015 16.5791 16.0384 15.5215 16.0384C14.4639 16.0384 13.6035 15.1015 13.6035 13.9499C13.6035 12.7983 14.4639 11.8614 15.5215 11.8614V11.8614ZM15.2481 18.0115L15.7949 19.2691C14.595 19.8884 13.1739 20.2155 11.6855 20.2155C10.197 20.2155 8.69072 19.8884 7.49079 19.2691L8.03756 18.0113C10.0981 19.0733 13.1876 19.0733 15.2481 18.0115ZM7.76418 11.8614C8.82175 11.8614 9.6822 12.7983 9.6822 13.9499C9.6822 15.1015 8.82175 16.0384 7.76418 16.0384C6.7066 16.0384 5.84616 15.1015 5.84616 13.9499C5.84616 12.7983 6.7066 11.8614 7.76418 11.8614V11.8614Z" fill="#05C2DF"/>
</svg>
