<svg width="20" height="15" viewBox="0 0 20 15" fill="none" xmlns="http://www.w3.org/2000/svg">
<path d="M7.35418 14.67C6.5355 14.67 5.69284 14.6106 4.84513 14.4915C3.35206 14.2816 1.84066 13.5818 1.41297 13.3723L0.29126 12.8228L1.5057 12.4649C2.83324 12.0738 3.6408 11.8312 4.64046 11.4512C3.6395 11.0169 2.86805 10.2356 2.4967 9.22556L2.21417 8.45706L2.44585 8.48877C2.22616 8.29037 2.05269 8.08899 1.91822 7.90587C1.43998 7.25501 1.18678 6.45973 1.24066 5.7782L1.29381 5.10742L1.742 5.26298C1.55293 4.94306 1.41629 4.60139 1.33599 4.24328C1.14027 3.36996 1.30407 2.44215 1.79732 1.63081L2.18774 0.988634L2.70989 1.55057C4.36126 3.32803 6.45288 4.38241 8.93535 4.69108C8.83395 4.06481 8.90993 3.46042 9.1614 2.91867C9.45417 2.28788 9.97502 1.75299 10.6672 1.37172C11.4359 0.948384 12.3681 0.743254 13.2921 0.794116C14.2724 0.848084 15.1624 1.1772 15.8693 1.74652C16.2145 1.66615 16.4688 1.58034 16.8126 1.46438C17.0194 1.39462 17.254 1.31542 17.5475 1.22482L18.6291 0.890922L17.9238 2.69581C17.9703 2.69232 18.0182 2.68934 18.0684 2.6874L19.2233 2.64055L18.5407 3.47647C18.5015 3.52436 18.4916 3.53795 18.4777 3.55671C18.4227 3.631 18.3542 3.7234 17.4172 4.84444C17.1827 5.12515 17.0655 5.49076 17.0873 5.8741C17.1704 7.33085 16.9709 8.64886 16.4941 9.79138C16.0432 10.8723 15.3444 11.7997 14.4174 12.5479C13.2702 13.4735 11.8075 14.1073 10.0696 14.4313C9.21715 14.5903 8.3017 14.67 7.35418 14.67Z" fill="white"/>
</svg>
