<svg width="18" height="18" viewBox="0 0 18 18" fill="none" xmlns="http://www.w3.org/2000/svg">
<path d="M1.44305 10.7859C1.39748 11.0516 1.36567 11.3206 1.36567 11.5959C1.36567 14.9451 4.91793 17.6699 9.19979 17.6699C13.4816 17.6699 16.9649 14.9451 16.9649 11.5959C16.9649 11.3206 16.9331 11.0516 16.8875 10.7859C17.5589 10.4126 18.0002 9.67531 18.0002 8.83495C18.0002 7.61684 17.0715 6.62621 15.9295 6.62621C15.4077 6.62621 14.9174 6.83486 14.5414 7.19867C13.2402 6.23106 11.5138 5.6156 9.60503 5.53795L10.5956 1.43927L12.8296 2.27302C12.8623 3.46093 13.7728 4.41748 14.8942 4.41748C16.0362 4.41748 16.9649 3.42685 16.9649 2.20874C16.9649 0.990625 16.0362 0 14.8942 0C14.098 0 13.4134 0.4869 13.0671 1.19137L9.87465 0.000575192L8.53301 5.5483C6.72763 5.66909 5.0309 6.2752 3.78916 7.19867C3.41317 6.83486 2.92287 6.62621 2.40101 6.62621C1.25903 6.62621 0.330322 7.61684 0.330322 8.83495C0.330322 9.67531 0.771692 10.4126 1.44305 10.7859ZM12.3058 8.83495C13.1621 8.83495 13.8588 9.5781 13.8588 10.4915C13.8588 11.4049 13.1621 12.1481 12.3058 12.1481C11.4495 12.1481 10.7528 11.4049 10.7528 10.4915C10.7528 9.5781 11.4495 8.83495 12.3058 8.83495ZM12.0845 13.713L12.5272 14.7105C11.5556 15.2018 10.405 15.4612 9.19979 15.4612C7.99458 15.4612 6.77495 15.2018 5.80337 14.7105L6.24608 13.7129C7.9145 14.5552 10.416 14.5552 12.0845 13.713ZM6.02472 8.83495C6.88104 8.83495 7.57774 9.5781 7.57774 10.4915C7.57774 11.4049 6.88104 12.1481 6.02472 12.1481C5.16841 12.1481 4.47171 11.4049 4.47171 10.4915C4.47171 9.5781 5.16841 8.83495 6.02472 8.83495Z" fill="white"/>
</svg>
