<svg width="152" height="152" viewBox="0 0 152 152" fill="none" xmlns="http://www.w3.org/2000/svg">
<path d="M21.5436 63.8013H7.52734" stroke="#05C2DF"/>
<path d="M82.5162 63.4653V87.0837L78.3113 88.639L77.9609 67.1575" stroke="#05C2DF"/>
<path d="M58.6895 63.1299L59.0399 87.6323L63.2447 88.9749L62.8943 67.4933" stroke="#05C2DF"/>
<path d="M74.1056 56.7524H67.0975L62.8926 60.7802V67.1576L67.0975 71.8567H74.1056L77.9601 67.1576V60.7802L74.1056 56.7524Z" stroke="#05C2DF"/>
<path d="M135.628 63.8011C135.628 98.1699 106.536 126.068 70.6022 126.068C34.6688 126.068 5.57617 98.1699 5.57617 63.8011C5.57617 29.4324 34.6688 1.53467 70.6022 1.53467C106.536 1.53467 135.628 29.4324 135.628 63.8011Z" stroke="#05C2DF"/>
<path d="M133.525 63.8014C133.525 97.0579 105.374 124.054 70.6013 124.054C35.8291 124.054 7.67773 97.0579 7.67773 63.8014C7.67773 30.5449 35.8291 3.54883 70.6013 3.54883C105.374 3.54883 133.525 30.5449 133.525 63.8014Z" stroke="#05C2DF"/>
<path d="M120.211 64.1368C120.211 90.1637 98.1778 111.299 70.953 111.299C43.7283 111.299 21.6953 90.1637 21.6953 64.1368C21.6953 38.1099 43.7283 16.9746 70.953 16.9746C98.1778 16.9746 120.211 38.1099 120.211 64.1368Z" stroke="#05C2DF"/>
<path d="M118.107 64.1371C118.107 89.0518 97.0158 109.285 70.9522 109.285C44.8885 109.285 23.7969 89.0518 23.7969 64.1371C23.7969 41.8833 40.6214 23.3661 62.7899 19.6626C62.9 19.6442 63.0101 19.6262 63.1204 19.6085C65.6673 19.2009 68.2837 18.9888 70.9522 18.9888C73.3912 18.9888 75.7866 19.166 78.1253 19.5077C78.2575 19.527 78.3895 19.5469 78.5213 19.5672C100.982 23.0367 118.107 41.6853 118.107 64.1371Z" stroke="#05C2DF"/>
<path d="M113.2 64.1367C113.2 86.4562 94.3051 104.586 70.9508 104.586C47.5965 104.586 28.7012 86.4562 28.7012 64.1367C28.7012 41.8173 47.5965 23.6875 70.9508 23.6875C94.3051 23.6875 113.2 41.8173 113.2 64.1367Z" stroke="#05C2DF"/>
<path d="M104.791 64.1368C104.791 82.0073 89.6609 96.5304 70.9512 96.5304C52.2414 96.5304 37.1113 82.0073 37.1113 64.1368C37.1113 46.2663 52.2414 31.7432 70.9512 31.7432C89.6609 31.7432 104.791 46.2663 104.791 64.1368Z" stroke="#05C2DF"/>
<path d="M97.7818 63.4657C97.7818 73.8018 91.562 82.7602 82.4885 87.0773C82.3974 87.1207 82.306 87.1636 82.2144 87.206L82.4243 87.6598L82.2143 87.206C80.9451 87.7931 79.6215 88.2897 78.2528 88.6871C78.1555 88.7153 78.0581 88.743 77.9604 88.7703C75.5143 89.452 72.9269 89.8177 70.2493 89.8177C55.023 89.8177 42.7168 77.9994 42.7168 63.4657C42.7168 48.932 55.023 37.1138 70.2493 37.1138C85.4756 37.1138 97.7818 48.932 97.7818 63.4657Z" stroke="#05C2DF"/>
<path d="M82.5171 63.801C82.5171 57.3129 77.3766 52.0532 70.6033 52.0532C63.8299 52.0532 58.6895 57.3129 58.6895 63.801" stroke="#05C2DF"/>
<path d="M67.0977 56.7524L70.6017 63.8011L74.1058 56.7524" stroke="#05C2DF"/>
<path d="M61.4909 17.8173C59.0381 13.6776 55.1836 5.19687 59.3885 4.39131M77.9602 17.4816C80.4131 13.342 84.2676 4.86122 80.0627 4.05566" stroke="#05C2DF"/>
<line x1="70.752" y1="3.04883" x2="70.752" y2="23.1878" stroke="#05C2DF"/>
<path d="M117.557 79.241C122.526 79.2761 131.43 79.9228 130.056 83.8138M109.498 93.6739C112.014 97.7785 117.191 104.217 120.022 101.132" stroke="#05C2DF"/>
<line y1="-0.5" x2="20.8066" y2="-0.5" transform="matrix(-0.875092 -0.483957 0.516217 -0.856458 125.838 93.4966)" stroke="#05C2DF"/>
<path d="M33.1101 94.345C30.5886 98.4467 25.1446 105.816 22.3178 102.727M24.7004 80.5834C19.7312 80.6127 10.3656 81.7255 11.7348 85.6181M120.361 63.8009L133.676 63.8009" stroke="#05C2DF"/>
<path d="M15.5898 94.0098L33.7298 84.0406" stroke="#05C2DF"/>
<path d="M22.9472 33.5925C25.9841 29.3409 34.3004 19.8309 43.2708 15.8031C45.3732 14.7961 48.5269 16.81 47.1253 20.1665C46.7749 21.5091 39.0659 23.1874 28.2033 36.949C26.8017 38.2916 21.896 37.2846 22.9472 33.9281" stroke="#05C2DF"/>
<path d="M42.4226 21.5091C42.4226 22.8813 41.255 24.03 39.7689 24.03C38.2828 24.03 37.1152 22.8813 37.1152 21.5091C37.1152 20.137 38.2828 18.9883 39.7689 18.9883C41.255 18.9883 42.4226 20.137 42.4226 21.5091Z" stroke="#05C2DF"/>
<path d="M118.606 33.1814C115.569 28.9298 107.252 19.4197 98.2819 15.3919C96.1795 14.385 93.0258 16.3989 94.4275 19.7554C94.7779 21.098 102.487 22.7762 113.349 36.5378C114.751 37.8804 119.657 36.8735 118.606 33.517" stroke="#05C2DF"/>
<path d="M99.1321 21.098C99.1321 22.4702 100.3 23.6188 101.786 23.6188C103.272 23.6188 104.439 22.4702 104.439 21.098C104.439 19.7258 103.272 18.5771 101.786 18.5771C100.3 18.5771 99.1321 19.7258 99.1321 21.098Z" stroke="#05C2DF"/>
</svg>
