<svg width="20" height="15" viewBox="0 0 20 15" fill="none" xmlns="http://www.w3.org/2000/svg">
<path d="M7.35491 14.6701C6.53623 14.6701 5.69357 14.6107 4.84586 14.4916C3.3528 14.2817 1.84139 13.582 1.4137 13.3724L0.291992 12.8229L1.50643 12.4651C2.83397 12.074 3.64153 11.8313 4.64119 11.4513C3.64023 11.017 2.86878 10.2357 2.49743 9.22568L2.21491 8.45719L2.44659 8.48889C2.2269 8.29049 2.05342 8.08912 1.91895 7.90599C1.44071 7.25514 1.18751 6.45985 1.24139 5.77833L1.29454 5.10754L1.74274 5.2631C1.55367 4.94318 1.41703 4.60151 1.33672 4.24341C1.141 3.37008 1.3048 2.44227 1.79806 1.63094L2.18847 0.988756L2.71062 1.5507C4.36199 3.32815 6.45361 4.38253 8.93608 4.6912C8.83469 4.06494 8.91066 3.46055 9.16213 2.91879C9.45491 2.288 9.97575 1.75311 10.6679 1.37184C11.4366 0.948506 12.3688 0.743376 13.2928 0.794238C14.2731 0.848206 15.1631 1.17732 15.87 1.74664C16.2152 1.66627 16.4696 1.58046 16.8133 1.4645C17.0202 1.39475 17.2548 1.31554 17.5483 1.22495L18.6298 0.891044L17.9245 2.69593C17.971 2.69244 18.019 2.68946 18.0691 2.68752L19.224 2.64067L18.5414 3.47659C18.5023 3.52448 18.4923 3.53807 18.4784 3.55683C18.4234 3.63112 18.3549 3.72353 17.418 4.84456C17.1834 5.12527 17.0663 5.49088 17.0881 5.87423C17.1711 7.33098 16.9717 8.64899 16.4949 9.7915C16.0439 10.8724 15.3451 11.7998 14.4181 12.548C13.271 13.4736 11.8082 14.1074 10.0704 14.4315C9.21788 14.5904 8.30243 14.6701 7.35491 14.6701Z" fill="white"/>
</svg>
