<svg width="54" height="34" viewBox="0 0 54 34" fill="none" xmlns="http://www.w3.org/2000/svg">
<path d="M52.1286 0H1.79709C0.804585 0 0 0.804585 0 1.79709V31.9048C0 32.8973 0.804585 33.7019 1.79709 33.7019H52.1286C53.1211 33.7019 53.9256 32.8973 53.9256 31.9048V1.79709C53.9256 0.804585 53.1211 0 52.1286 0Z" fill="#F9F9F9"/>
<path d="M24.8151 21.9135H22.1797L23.8263 11.7974H26.4618L24.8151 21.9135Z" fill="#0066B2"/>
<path d="M19.9658 11.7972L17.455 18.7534L17.1584 17.2573L16.2685 12.7087C16.2168 12.426 16.0588 12.1739 15.8268 12.0043C15.5948 11.8348 15.3067 11.7606 15.0217 11.7972H10.8686L10.8213 11.9692C11.7936 12.2116 12.723 12.6017 13.5771 13.1257L15.8643 21.9263H18.6116L22.7861 11.7972H19.9658Z" fill="#0066B2"/>
<path d="M40.6843 21.9264H43.1048L40.9982 11.8103H38.8786C38.6223 11.7904 38.3662 11.8526 38.1475 11.9879C37.9288 12.1231 37.7588 12.3244 37.6619 12.5626L33.7324 21.9264H36.4797L37.03 20.426H40.3791L40.6843 21.9264ZM37.7866 18.3494L39.171 14.5618L39.9492 18.3494H37.7866Z" fill="#0066B2"/>
<path d="M33.9389 14.2305L34.3173 12.0378C33.5553 11.7704 32.7558 11.6253 31.9484 11.6079C30.6371 11.6079 27.5158 12.1883 27.5158 14.9656C27.5158 17.5796 31.1616 17.6097 31.1616 18.9854C31.1616 20.3612 27.8942 20.1118 26.8151 19.2434L26.4238 21.5177C27.3638 21.9121 28.3754 22.1068 29.3946 22.0895C31.1917 22.0895 33.9045 21.1566 33.9045 18.6243C33.9045 15.9932 30.2287 15.7481 30.2287 14.6045C30.2287 13.4609 32.8125 13.6071 33.9389 14.2305Z" fill="#0066B2"/>
<path d="M17.1584 17.2573L16.2685 12.7087C16.2168 12.426 16.0588 12.1739 15.8268 12.0043C15.5948 11.8348 15.3067 11.7606 15.0217 11.7972H10.8686L10.8213 11.9692C12.2503 12.3326 13.5836 13.0014 14.7293 13.9297C15.8189 14.8047 16.657 15.9529 17.1584 17.2573Z" fill="#F9A533"/>
</svg>
