<svg width="98" height="81" viewBox="0 0 98 81" fill="none" xmlns="http://www.w3.org/2000/svg">
<g id="&#208;&#160;&#208;&#181;&#209;&#129;&#209;&#131;&#209;&#128;&#209;&#129; 1">
<g id="Group 13">
<path id="Vector 2" d="M45.014 28.0801V21.0698M61.6463 35.3654H69.7563M31.9556 45.8121H36.3542M53.9487 60.52V53.5097" stroke="#05C2DF"/>
<rect id="Rectangle 8" x="36.7163" y="28.4424" width="24.567" height="24.567" rx="3.5" stroke="#05C2DF"/>
<rect id="Rectangle 8.1" x="41.3901" y="33.1162" width="15.4948" height="15.4948" rx="3.5" stroke="#05C2DF"/>
<rect id="Rectangle 8.2" x="69.981" y="1.50098" width="18.5189" height="18.5189" rx="3.5" stroke="#05C2DF"/>
<rect id="Rectangle 8.3" x="74.3799" y="5.89941" width="9.99656" height="9.99656" rx="2.5" stroke="#05C2DF"/>
<rect id="Rectangle 8.4" x="9.5" y="1.50098" width="18.5189" height="18.5189" rx="3.5" stroke="#05C2DF"/>
<rect id="Rectangle 8.5" x="13.8984" y="5.89941" width="9.99656" height="9.99656" rx="2.5" stroke="#05C2DF"/>
<rect id="Rectangle 8.6" x="10.3247" y="61.4321" width="18.5189" height="18.5189" rx="3.5" stroke="#05C2DF"/>
<rect id="Rectangle 8.7" x="14.7231" y="65.8311" width="9.99656" height="9.99656" rx="2.5" stroke="#05C2DF"/>
<rect id="Rectangle 8.8" x="69.981" y="61.4321" width="18.5189" height="18.5189" rx="3.5" stroke="#05C2DF"/>
<rect id="Rectangle 8.9" x="74.3799" y="65.8311" width="9.99656" height="9.99656" rx="2.5" stroke="#05C2DF"/>
<path id="Vector" d="M54.2231 28.0801V10.8979H69.3434" stroke="#05C2DF"/>
<path id="Vector_2" d="M36.354 38.1143L18.897 38.1143L18.897 20.5198" stroke="#05C2DF"/>
<path id="Vector_3" d="M61.7837 41.9634L78.9658 41.9634L78.9658 60.9325" stroke="#05C2DF"/>
<path id="Vector_4" d="M45.5635 53.5098L45.5635 70.6919L29.2061 70.6919" stroke="#05C2DF"/>
<circle id="Ellipse" cx="45.0138" cy="18.5953" r="1.97423" stroke="#05C2DF"/>
<circle id="Ellipse_2" cx="72.2301" cy="35.3653" r="1.97423" stroke="#05C2DF"/>
<circle id="Ellipse_3" cx="29.6188" cy="45.8121" r="1.97423" stroke="#05C2DF"/>
<circle id="Ellipse_4" cx="53.8111" cy="62.8566" r="1.97423" stroke="#05C2DF"/>
</g>
</g>
</svg>
