<svg width="80" height="80" viewBox="0 0 80 80" fill="none" xmlns="http://www.w3.org/2000/svg">
<path d="M36.0137 27.0787V20.0684M52.646 34.3639H60.756M22.9553 44.8106H27.3539M44.9484 59.5185V52.5082" stroke="#05C2DF"/>
<rect x="27.7165" y="27.4414" width="24.567" height="24.567" rx="3.5" stroke="#05C2DF"/>
<rect x="32.39" y="32.1152" width="15.4948" height="15.4948" rx="3.5" stroke="#05C2DF"/>
<rect x="60.9811" y="0.5" width="18.5189" height="18.5189" rx="3.5" stroke="#05C2DF"/>
<rect x="65.3797" y="4.89844" width="9.99656" height="9.99656" rx="2.5" stroke="#05C2DF"/>
<rect x="0.5" y="0.5" width="18.5189" height="18.5189" rx="3.5" stroke="#05C2DF"/>
<rect x="4.89862" y="4.89844" width="9.99656" height="9.99656" rx="2.5" stroke="#05C2DF"/>
<rect x="1.32477" y="60.4316" width="18.5189" height="18.5189" rx="3.5" stroke="#05C2DF"/>
<rect x="5.72339" y="64.8301" width="9.99656" height="9.99656" rx="2.5" stroke="#05C2DF"/>
<rect x="60.9811" y="60.4316" width="18.5189" height="18.5189" rx="3.5" stroke="#05C2DF"/>
<rect x="65.3797" y="64.8301" width="9.99656" height="9.99656" rx="2.5" stroke="#05C2DF"/>
<path d="M45.2234 27.0786V9.89648H60.3436" stroke="#05C2DF"/>
<path d="M27.354 37.1133L9.89691 37.1133L9.89692 19.5188" stroke="#05C2DF"/>
<path d="M52.7835 40.9619L69.9656 40.9619L69.9656 59.931" stroke="#05C2DF"/>
<path d="M36.5636 52.5083L36.5636 69.6904L20.2062 69.6904" stroke="#05C2DF"/>
<circle cx="36.0137" cy="17.5943" r="1.97423" stroke="#05C2DF"/>
<circle cx="63.2302" cy="34.3639" r="1.97423" stroke="#05C2DF"/>
<circle cx="20.6186" cy="44.8111" r="1.97423" stroke="#05C2DF"/>
<circle cx="44.811" cy="61.8561" r="1.97423" stroke="#05C2DF"/>
</svg>
