<svg width="113" height="82" viewBox="0 0 113 82" fill="none" xmlns="http://www.w3.org/2000/svg">
<circle cx="56.6544" cy="41.1562" r="13.5898" stroke="#05C2DF"/>
<path d="M71.0965 26.75C75.7661 29.839 78.8459 35.1377 78.8459 41.1556C78.8459 47.1736 75.7661 52.4722 71.0965 55.5613" stroke="#05C2DF"/>
<path d="M71.2729 55.4219L77.6133 63.5235" stroke="#05C2DF"/>
<path d="M77.437 63.6995C84.8657 58.8276 89.7656 50.4709 89.7656 40.9796C89.7656 31.4884 84.8657 23.1316 77.437 18.2598L71.0965 26.8898" stroke="#05C2DF"/>
<path d="M84.482 9.80664C94.4578 16.4158 101.038 27.7524 101.038 40.6281C101.038 53.5039 94.4578 64.8405 84.482 71.4496" stroke="#05C2DF"/>
<path d="M84.4818 9.98227L90.8222 1C103.77 9.53524 112.309 24.1757 112.309 40.8038C112.309 57.4318 103.77 72.0723 90.8222 80.6075L84.3057 71.4491" stroke="#05C2DF"/>
<path d="M42.2119 26.75C37.5424 29.839 34.4625 35.1377 34.4625 41.1556C34.4625 47.1736 37.5424 52.4722 42.2119 55.5613" stroke="#05C2DF"/>
<path d="M42.0364 55.4219L35.6959 63.5235" stroke="#05C2DF"/>
<path d="M35.8715 63.6995C28.4427 58.8276 23.5429 50.4709 23.5429 40.9796C23.5429 31.4884 28.4427 23.1316 35.8715 18.2598L42.2119 26.8898" stroke="#05C2DF"/>
<path d="M28.8272 9.80664C18.8514 16.4158 12.2717 27.7524 12.2717 40.6281C12.2717 53.5039 18.8514 64.8405 28.8272 71.4496" stroke="#05C2DF"/>
<path d="M28.8274 9.98227L22.487 1C9.53968 9.53524 1 24.1757 1 40.8038C1 57.4318 9.53968 72.0723 22.487 80.6075L29.0035 71.4491" stroke="#05C2DF"/>
</svg>
