<svg width="107" height="77" viewBox="0 0 107 77" fill="none" xmlns="http://www.w3.org/2000/svg">
<circle cx="53.6859" cy="38.9915" r="12.8303" stroke="#05C2DF"/>
<path d="M67.3489 25.3623C71.7667 28.2848 74.6806 33.2978 74.6806 38.9914C74.6806 44.685 71.7667 49.698 67.3489 52.6205" stroke="#05C2DF"/>
<path d="M67.5171 52.4884L73.5157 60.1533" stroke="#05C2DF"/>
<path d="M73.3475 60.3199C80.3759 55.7106 85.0116 47.8044 85.0116 38.8248C85.0116 29.8451 80.3759 21.9389 73.3475 17.3296L67.3489 25.4944" stroke="#05C2DF"/>
<path d="M80.014 9.33142C89.4521 15.5843 95.6772 26.3099 95.6772 38.4915C95.6772 50.6732 89.4521 61.3987 80.014 67.6516" stroke="#05C2DF"/>
<path d="M80.0143 9.49809L86.0129 1C98.2623 9.07515 106.342 22.9264 106.342 38.6582C106.342 54.3899 98.2623 68.2412 86.0129 76.3164L79.8477 67.6517" stroke="#05C2DF"/>
<path d="M40.0211 25.3623C35.6033 28.2848 32.6894 33.2978 32.6894 38.9914C32.6894 44.685 35.6033 49.698 40.0211 52.6205" stroke="#05C2DF"/>
<path d="M39.8567 52.4884L33.858 60.1533" stroke="#05C2DF"/>
<path d="M34.0225 60.3199C26.9941 55.7106 22.3584 47.8044 22.3584 38.8248C22.3584 29.8451 26.9941 21.9389 34.0225 17.3296L40.0211 25.4944" stroke="#05C2DF"/>
<path d="M27.3597 9.33142C17.9217 15.5843 11.6966 26.3099 11.6966 38.4915C11.6966 50.6732 17.9217 61.3987 27.3597 67.6516" stroke="#05C2DF"/>
<path d="M27.3594 9.49809L21.3607 1C9.11131 9.07515 1.03196 22.9264 1.03196 38.6582C1.03196 54.3899 9.11131 68.2412 21.3607 76.3164L27.526 67.6517" stroke="#05C2DF"/>
</svg>
