<svg width="135" height="2" viewBox="0 0 135 2" fill="none" xmlns="http://www.w3.org/2000/svg">
<path opacity="0.45" d="M5 0H3V2H5V0Z" fill="#05C2DF"/>
<path opacity="0.45" d="M2 0H0V2H2V0Z" fill="#05C2DF"/>
<path opacity="0.45" d="M8 0H6V2H8V0Z" fill="#05C2DF"/>
<path opacity="0.45" d="M11 0H9V2H11V0Z" fill="#05C2DF"/>
<path opacity="0.45" d="M14 0H12V2H14V0Z" fill="#05C2DF"/>
<path opacity="0.45" d="M18 0H16V2H18V0Z" fill="#05C2DF"/>
<path opacity="0.45" d="M22 0H20V2H22V0Z" fill="#05C2DF"/>
<path opacity="0.45" d="M26 0H24V2H26V0Z" fill="#05C2DF"/>
<path opacity="0.45" d="M31 0H29V2H31V0Z" fill="#05C2DF"/>
<path opacity="0.45" d="M36 0H34V2H36V0Z" fill="#05C2DF"/>
<path opacity="0.45" d="M41 0H39V2H41V0Z" fill="#05C2DF"/>
<path opacity="0.45" d="M46 0H44V2H46V0Z" fill="#05C2DF"/>
<path opacity="0.45" d="M51 0H49V2H51V0Z" fill="#05C2DF"/>
<path opacity="0.45" d="M56 0H54V2H56V0Z" fill="#05C2DF"/>
<path opacity="0.45" d="M67.6 0.230469H66V1.83047H67.6V0.230469Z" fill="#05C2DF"/>
<path opacity="0.45" d="M73.6 0.230469H72V1.83047H73.6V0.230469Z" fill="#05C2DF"/>
<path opacity="0.45" d="M79.6 0.230469H78V1.83047H79.6V0.230469Z" fill="#05C2DF"/>
<path opacity="0.45" d="M85.3 0.429688H84V1.72969H85.3V0.429688Z" fill="#05C2DF"/>
<path opacity="0.45" d="M92.3 0.429688H91V1.72969H92.3V0.429688Z" fill="#05C2DF"/>
<path opacity="0.45" d="M99.3 0.429688H98V1.72969H99.3V0.429688Z" fill="#05C2DF"/>
<path opacity="0.45" d="M106.3 0.429688H105V1.72969H106.3V0.429688Z" fill="#05C2DF"/>
<path opacity="0.45" d="M114.3 0.429688H113V1.72969H114.3V0.429688Z" fill="#05C2DF"/>
<path opacity="0.45" d="M123.3 0.429688H122V1.72969H123.3V0.429688Z" fill="#05C2DF"/>
<path opacity="0.45" d="M61.6 0.230469H60V1.83047H61.6V0.230469Z" fill="#05C2DF"/>
<path opacity="0.45" d="M135 0.5H134V1.5H135V0.5Z" fill="#05C2DF"/>
</svg>
