<svg width="99" height="81" viewBox="0 0 99 81" fill="none" xmlns="http://www.w3.org/2000/svg">
<g clip-path="url(#clip0_3495_4742)">
<path d="M63.2157 5.25319L50.1796 0.107422L1.25391 19.0257L49.9785 41.4999L98.7029 19.0177L65.8658 6.43209" stroke="#05C2DF" stroke-miterlimit="10"/>
<path d="M48.9326 15.9351L75.4747 28.0985V71.9291" stroke="#05C2DF" stroke-miterlimit="10"/>
<path d="M16.9785 26L16.9785 40" stroke="#05C2DF" stroke-miterlimit="10"/>
<path d="M17.0586 43.1493V56.7943C17.0586 56.7943 48.5598 83.9769 82.717 56.7943V26.3091" stroke="#05C2DF" stroke-miterlimit="10"/>
<path d="M75.475 80.9004C77.926 80.9004 79.9129 78.9041 79.9129 76.4416C79.9129 73.9791 77.926 71.9829 75.475 71.9829C73.024 71.9829 71.0371 73.9791 71.0371 76.4416C71.0371 78.9041 73.024 80.9004 75.475 80.9004Z" stroke="#05C2DF" stroke-miterlimit="10"/>
</g>
<defs>
<clipPath id="clip0_3495_4742">
<rect width="98" height="81" fill="white" transform="translate(0.978516)"/>
</clipPath>
</defs>
</svg>
