<svg width="33" height="21" viewBox="0 0 33 21" fill="none" xmlns="http://www.w3.org/2000/svg">
<path d="M1.27841 16V4.36364H8.57386V5.875H3.03409V9.42045H8.19318V10.9261H3.03409V14.4886H8.64205V16H1.27841ZM12.4815 10.8182V16H10.7827V7.27273H12.4134V8.69318H12.5213C12.7221 8.23106 13.0365 7.85985 13.4645 7.57955C13.8963 7.29924 14.4399 7.15909 15.0952 7.15909C15.6899 7.15909 16.2107 7.28409 16.6577 7.53409C17.1046 7.7803 17.4512 8.14773 17.6974 8.63636C17.9437 9.125 18.0668 9.72917 18.0668 10.4489V16H16.3679V10.6534C16.3679 10.0208 16.2031 9.52652 15.8736 9.17045C15.544 8.81061 15.0914 8.63068 14.5156 8.63068C14.1217 8.63068 13.7713 8.71591 13.4645 8.88636C13.1615 9.05682 12.9209 9.30682 12.7429 9.63636C12.5687 9.96212 12.4815 10.3561 12.4815 10.8182Z" fill="#05C2DF"/>
<path d="M28.5 17L24.6029 12.5L32.3971 12.5L28.5 17Z" fill="#05C2DF"/>
</svg>
