<svg width="70" height="82" viewBox="0 0 70 82" fill="none" xmlns="http://www.w3.org/2000/svg">
<path d="M69.2249 7.07864V80.6686H66.8934H56.5113H53.68H30.0845H27.2529H20.6461H17.8147H17.3709V78.8091C17.3709 77.7507 16.513 76.8934 15.4552 76.8934C14.3974 76.8934 13.5395 77.7507 13.5395 78.8091V80.6686H13.0956H10.2643H3.65746L1.96667 80.6685L1.32623 80.6685V27.8426C1.32623 27.3366 1.73611 26.9269 2.24193 26.9269H14.0397H14.5397V26.4269V14.6291C14.5397 14.1232 14.9495 13.7134 15.4554 13.7134H19.7026H20.2026V13.2134V7.07864C20.2026 6.57273 20.6125 6.16294 21.1183 6.16294H27.2531H27.7531V5.66294V1.4157C27.7531 0.909827 28.1631 0.5 28.6688 0.5C29.1745 0.5 29.5845 0.909828 29.5845 1.4157V5.66294V6.16294H30.0845H36.2194C36.7251 6.16294 37.1351 6.57277 37.1351 7.07864V13.2134V13.7134H37.6351H40.4665H40.9665V13.2134V7.07864C40.9665 6.57273 41.3764 6.16294 41.8822 6.16294H68.3092C68.8149 6.16294 69.2249 6.57277 69.2249 7.07864Z" stroke="#05C2DF" stroke-linecap="round"/>
<path d="M36.0001 77.5001V51.0733" stroke="#05C2DF" stroke-linecap="round"/>
<path d="M42.0001 77.4269V51" stroke="#05C2DF" stroke-linecap="round"/>
<path d="M48.0001 77.4269V51" stroke="#05C2DF" stroke-linecap="round"/>
<path d="M50.3229 16.5171C50.3229 17.1611 49.8011 17.6828 49.1572 17.6828C48.5133 17.6828 47.9915 17.1611 47.9915 16.5173V14.6296C47.9915 13.9856 48.5135 13.4639 49.1572 13.4639C49.8009 13.4639 50.3229 13.9856 50.3229 14.6296V16.5171Z" fill="#05C2DF" stroke="#05040B" stroke-width="0.5" stroke-linecap="round"/>
<path d="M55.9862 16.5171C55.9862 17.1611 55.4643 17.6828 54.8205 17.6828C54.1766 17.6828 53.6548 17.1611 53.6548 16.5173V14.6296C53.6548 13.9856 54.1768 13.4639 54.8205 13.4639C55.4642 13.4639 55.9862 13.9856 55.9862 14.6296V16.5171Z" fill="#05C2DF" stroke="#05040B" stroke-width="0.5" stroke-linecap="round"/>
<path d="M61.6494 16.5171C61.6494 17.1611 61.1276 17.6828 60.4837 17.6828C59.8398 17.6828 59.318 17.1611 59.318 16.5173V14.6296C59.318 13.9856 59.84 13.4639 60.4837 13.4639C61.1274 13.4639 61.6494 13.9856 61.6494 14.6296V16.5171Z" fill="#05C2DF" stroke="#05040B" stroke-width="0.5" stroke-linecap="round"/>
<path d="M50.3229 25.9548C50.3229 26.5988 49.8011 27.1205 49.1572 27.1205C48.5133 27.1205 47.9915 26.5988 47.9915 25.9548V24.0671C47.9915 23.4231 48.5135 22.9014 49.1572 22.9014C49.8009 22.9014 50.3229 23.4231 50.3229 24.0671V25.9548Z" fill="#05C2DF" stroke="#05040B" stroke-width="0.5" stroke-linecap="round"/>
<path d="M55.9862 25.9548C55.9862 26.5988 55.4643 27.1205 54.8205 27.1205C54.1766 27.1205 53.6548 26.5988 53.6548 25.9548V24.0671C53.6548 23.4231 54.1768 22.9014 54.8205 22.9014C55.4642 22.9014 55.9862 23.4231 55.9862 24.0671V25.9548Z" fill="#05C2DF" stroke="#05040B" stroke-width="0.5" stroke-linecap="round"/>
<path d="M61.6494 25.9548C61.6494 26.5988 61.1276 27.1205 60.4837 27.1205C59.8398 27.1205 59.318 26.5988 59.318 25.9548V24.0671C59.318 23.4231 59.84 22.9014 60.4837 22.9014C61.1274 22.9014 61.6494 23.4231 61.6494 24.0671V25.9548Z" fill="#05C2DF" stroke="#05040B" stroke-width="0.5" stroke-linecap="round"/>
<path d="M50.3229 35.3932C50.3229 36.0372 49.8011 36.5589 49.1572 36.5589C48.5134 36.5589 47.9915 36.0371 47.9915 35.3932V33.5055C47.9915 32.8616 48.5135 32.3398 49.1572 32.3398C49.8009 32.3398 50.3229 32.8616 50.3229 33.5055V35.3932Z" fill="#05C2DF" stroke="#05040B" stroke-width="0.5" stroke-linecap="round"/>
<path d="M55.9862 35.3932C55.9862 36.0372 55.4643 36.5589 54.8205 36.5589C54.1766 36.5589 53.6548 36.0371 53.6548 35.3932V33.5055C53.6548 32.8616 54.1768 32.3398 54.8205 32.3398C55.4642 32.3398 55.9862 32.8616 55.9862 33.5055V35.3932Z" fill="#05C2DF" stroke="#05040B" stroke-width="0.5" stroke-linecap="round"/>
<path d="M61.6494 35.3932C61.6494 36.0372 61.1276 36.5589 60.4837 36.5589C59.8398 36.5589 59.318 36.0371 59.318 35.3932V33.5055C59.318 32.8616 59.84 32.3398 60.4837 32.3398C61.1274 32.3398 61.6494 32.8616 61.6494 33.5055V35.3932Z" fill="#05C2DF" stroke="#05040B" stroke-width="0.5" stroke-linecap="round"/>
<path d="M10.6826 39.1686C10.6826 39.8126 10.1608 40.3343 9.51689 40.3343C8.87319 40.3343 8.3512 39.8125 8.3512 39.1686V37.2809C8.3512 36.637 8.87317 36.1152 9.51689 36.1152C10.1606 36.1152 10.6826 36.637 10.6826 37.2809V39.1686Z" fill="#05C2DF" stroke="#05040B" stroke-width="0.5" stroke-linecap="round"/>
<path d="M16.3457 39.1686C16.3457 39.8126 15.8239 40.3343 15.18 40.3343C14.5362 40.3343 14.0143 39.8125 14.0143 39.1686V37.2809C14.0143 36.637 14.5363 36.1152 15.18 36.1152C15.8238 36.1152 16.3457 36.637 16.3457 37.2809V39.1686Z" fill="#05C2DF" stroke="#05040B" stroke-width="0.5" stroke-linecap="round"/>
<path d="M22.0084 39.1686C22.0084 39.8126 21.4866 40.3343 20.8427 40.3343C20.1988 40.3343 19.677 39.8125 19.677 39.1686V37.2809C19.677 36.637 20.199 36.1152 20.8427 36.1152C21.4864 36.1152 22.0084 36.637 22.0084 37.2809V39.1686Z" fill="#05C2DF" stroke="#05040B" stroke-width="0.5" stroke-linecap="round"/>
<path d="M10.6826 48.6071C10.6826 49.2511 10.1608 49.7728 9.51689 49.7728C8.87319 49.7728 8.3512 49.2509 8.3512 48.6071V46.7194C8.3512 46.0754 8.87317 45.5537 9.51689 45.5537C10.1606 45.5537 10.6826 46.0754 10.6826 46.7194V48.6071Z" fill="#05C2DF" stroke="#05040B" stroke-width="0.5" stroke-linecap="round"/>
<path d="M16.3457 48.6071C16.3457 49.2511 15.8239 49.7728 15.18 49.7728C14.5362 49.7728 14.0143 49.251 14.0143 48.6071V46.7194C14.0143 46.0754 14.5363 45.5537 15.18 45.5537C15.8238 45.5537 16.3457 46.0754 16.3457 46.7194V48.6071Z" fill="#05C2DF" stroke="#05040B" stroke-width="0.5" stroke-linecap="round"/>
<path d="M22.0084 48.6071C22.0084 49.2511 21.4866 49.7728 20.8427 49.7728C20.1988 49.7728 19.677 49.251 19.677 48.6071V46.7194C19.677 46.0754 20.199 45.5537 20.8427 45.5537C21.4864 45.5537 22.0084 46.0754 22.0084 46.7194V48.6071Z" fill="#05C2DF" stroke="#05040B" stroke-width="0.5" stroke-linecap="round"/>
<path d="M10.6826 58.0446C10.6826 58.6886 10.1608 59.2103 9.51689 59.2103C8.87317 59.2103 8.3512 58.6886 8.3512 58.0446V56.1569C8.3512 55.5129 8.87317 54.9912 9.51689 54.9912C10.1606 54.9912 10.6826 55.5129 10.6826 56.1569V58.0446Z" fill="#05C2DF" stroke="#05040B" stroke-width="0.5" stroke-linecap="round"/>
<path d="M16.3457 58.0446C16.3457 58.6886 15.8239 59.2103 15.18 59.2103C14.5362 59.2103 14.0143 58.6886 14.0143 58.0446V56.1569C14.0143 55.5129 14.5363 54.9912 15.18 54.9912C15.8238 54.9912 16.3457 55.5129 16.3457 56.1569V58.0446Z" fill="#05C2DF" stroke="#05040B" stroke-width="0.5" stroke-linecap="round"/>
<path d="M22.0084 58.0446C22.0084 58.6886 21.4866 59.2103 20.8427 59.2103C20.1988 59.2103 19.677 58.6886 19.677 58.0446V56.1569C19.677 55.5129 20.199 54.9912 20.8427 54.9912C21.4864 54.9912 22.0084 55.5129 22.0084 56.1569V58.0446Z" fill="#05C2DF" stroke="#05040B" stroke-width="0.5" stroke-linecap="round"/>
<path d="M10.6826 67.4831C10.6826 68.1271 10.1608 68.6488 9.51689 68.6488C8.87317 68.6488 8.3512 68.1271 8.3512 67.4831V65.5954C8.3512 64.9514 8.87317 64.4297 9.51689 64.4297C10.1606 64.4297 10.6826 64.9514 10.6826 65.5954V67.4831Z" fill="#05C2DF" stroke="#05040B" stroke-width="0.5" stroke-linecap="round"/>
<path d="M16.3457 67.4831C16.3457 68.1271 15.8239 68.6488 15.18 68.6488C14.5362 68.6488 14.0143 68.1271 14.0143 67.4831V65.5954C14.0143 64.9514 14.5363 64.4297 15.18 64.4297C15.8238 64.4297 16.3457 64.9514 16.3457 65.5954V67.4831Z" fill="#05C2DF" stroke="#05040B" stroke-width="0.5" stroke-linecap="round"/>
<path d="M22.0084 67.4831C22.0084 68.1271 21.4866 68.6488 20.8427 68.6488C20.1988 68.6488 19.677 68.1271 19.677 67.4831V65.5954C19.677 64.9514 20.199 64.4297 20.8427 64.4297C21.4864 64.4297 22.0084 64.9514 22.0084 65.5954V67.4831Z" fill="#05C2DF" stroke="#05040B" stroke-width="0.5" stroke-linecap="round"/>
<path d="M61.6494 44.8317C61.6494 45.4757 61.1276 45.9974 60.4837 45.9974C59.8398 45.9974 59.318 45.4756 59.318 44.8317V42.944C59.318 42.3 59.84 41.7783 60.4837 41.7783C61.1274 41.7783 61.6494 42.3 61.6494 42.944V44.8317Z" fill="#05C2DF" stroke="#05040B" stroke-width="0.5" stroke-linecap="round"/>
<path d="M61.6494 54.2702C61.6494 54.9142 61.1276 55.4359 60.4837 55.4359C59.8398 55.4359 59.318 54.914 59.318 54.2702V52.3825C59.318 51.7385 59.84 51.2168 60.4837 51.2168C61.1274 51.2168 61.6494 51.7385 61.6494 52.3825V54.2702Z" fill="#05C2DF" stroke="#05040B" stroke-width="0.5" stroke-linecap="round"/>
<path d="M61.6494 63.7077C61.6494 64.3517 61.1276 64.8734 60.4837 64.8734C59.8398 64.8734 59.318 64.3515 59.318 63.7077V61.82C59.318 61.176 59.84 60.6543 60.4837 60.6543C61.1274 60.6543 61.6494 61.176 61.6494 61.82V63.7077Z" fill="#05C2DF" stroke="#05040B" stroke-width="0.5" stroke-linecap="round"/>
<path d="M61.6494 73.1462C61.6494 73.7902 61.1276 74.3119 60.4837 74.3119C59.8398 74.3119 59.318 73.79 59.318 73.1462V71.2585C59.318 70.6145 59.84 70.0928 60.4837 70.0928C61.1274 70.0928 61.6494 70.6145 61.6494 71.2585V73.1462Z" fill="#05C2DF" stroke="#05040B" stroke-width="0.5" stroke-linecap="round"/>
<path d="M34.326 20H23.0001" stroke="#05C2DF" stroke-linecap="round"/>
</svg>
