<svg width="98" height="81" viewBox="0 0 98 81" fill="none" xmlns="http://www.w3.org/2000/svg">
<g clip-path="url(#clip0_1_10240)">
<path d="M62.2376 5.25319L49.2014 0.107422L0.275757 19.0257L49.0004 41.4999L97.7247 19.0177L64.8876 6.43209" stroke="#05C2DF" stroke-miterlimit="10"/>
<path d="M47.9548 15.9346L74.4969 28.098V71.9286" stroke="#05C2DF" stroke-miterlimit="10"/>
<path d="M16.0004 26L16.0004 40" stroke="#05C2DF" stroke-miterlimit="10"/>
<path d="M16.0808 43.1498V56.7948C16.0808 56.7948 47.582 83.9774 81.7392 56.7948V26.3096" stroke="#05C2DF" stroke-miterlimit="10"/>
<path d="M74.4966 80.8999C76.9476 80.8999 78.9345 78.9036 78.9345 76.4412C78.9345 73.9787 76.9476 71.9824 74.4966 71.9824C72.0456 71.9824 70.0587 73.9787 70.0587 76.4412C70.0587 78.9036 72.0456 80.8999 74.4966 80.8999Z" stroke="#05C2DF" stroke-miterlimit="10"/>
</g>
<defs>
<clipPath id="clip0_1_10240">
<rect width="98" height="81" fill="white"/>
</clipPath>
</defs>
</svg>
