<svg width="84" height="83" viewBox="0 0 84 83" fill="none" xmlns="http://www.w3.org/2000/svg">
<g clip-path="url(#clip0_3495_4788)">
<path d="M73.2812 22.1334C73.2812 19.358 75.539 17.1001 78.3145 17.1001C81.0899 17.1001 83.3478 19.358 83.3478 22.1334C83.3478 24.9089 81.0899 27.1667 78.3145 27.1667C75.5391 27.1667 73.2812 24.9088 73.2812 22.1334Z" stroke="#05C2DF"/>
<path d="M1.34766 67.7833C1.34766 65.0079 3.60553 62.75 6.38094 62.75C9.15649 62.75 11.4142 65.0079 11.4142 67.7833C11.4142 70.5587 9.15649 72.8166 6.38094 72.8166C3.60553 72.8166 1.34766 70.5587 1.34766 67.7833Z" stroke="#05C2DF"/>
<path d="M74.8261 18.0434L64 12.6304" stroke="#05C2DF"/>
<path d="M58.0645 77.4664C58.0645 74.691 60.3222 72.4331 63.0977 72.4331C65.8733 72.4331 68.131 74.6911 68.131 77.4666C68.131 80.242 65.8733 82.4998 63.0977 82.4998C60.3222 82.4998 58.0645 80.2418 58.0645 77.4664Z" stroke="#05C2DF"/>
<path d="M59.3338 73.6048L49.2041 68.2041" stroke="#05C2DF"/>
<path d="M37.3145 42.8834C37.3145 40.108 39.5722 37.8501 42.3477 37.8501C45.1233 37.8501 47.381 40.108 47.381 42.8834C47.381 45.6588 45.1233 47.9167 42.3477 47.9167C39.5723 47.9167 37.3145 45.6589 37.3145 42.8834Z" stroke="#05C2DF"/>
<path d="M39.1003 38.6133L31.1611 32.4785" stroke="#05C2DF"/>
<path d="M52.5312 51.1835C52.5312 43.0697 59.1341 36.4668 67.248 36.4668C75.3618 36.4668 81.9647 43.0697 81.9647 51.1835C81.9647 59.2973 75.3618 65.9002 67.248 65.9002C59.1341 65.9002 52.5312 59.2973 52.5312 51.1835Z" stroke="#05C2DF"/>
<path d="M62.2139 47.0333C62.2139 44.2579 64.4716 42 67.2471 42C70.0227 42 72.2804 44.2579 72.2804 47.0333C72.2804 49.8087 70.0227 52.0666 67.2471 52.0666C64.4717 52.0666 62.2139 49.8088 62.2139 47.0333Z" stroke="#05C2DF"/>
<path d="M74.6066 63.916L74.6074 63.9155C74.879 63.759 75.0473 63.4669 75.0473 63.1522V59.5057C75.0473 57.494 73.3612 55.8335 71.2603 55.8335H63.2342C61.1334 55.8335 59.4473 57.4942 59.4473 59.5042V63.1507C59.4473 63.4662 59.6151 63.7577 59.888 63.916H74.6066ZM74.6066 63.916C72.3636 65.2141 69.8188 65.9002 67.2473 65.9002C64.6758 65.9002 62.1311 65.2141 59.8882 63.9161L74.6066 63.916Z" stroke="#05C2DF"/>
<path d="M19.3311 67.7836C19.3311 59.6698 25.9339 53.0669 34.0478 53.0669C42.1616 53.0669 48.7645 59.6696 48.7645 67.7834C48.7645 75.8973 42.1616 82.5002 34.0478 82.5002C25.9339 82.5002 19.3311 75.8974 19.3311 67.7836Z" stroke="#05C2DF"/>
<path d="M29.0146 63.6334C29.0146 60.858 31.2724 58.6001 34.0479 58.6001C36.8235 58.6001 39.0812 60.858 39.0812 63.6334C39.0812 66.4088 36.8233 68.6667 34.0479 68.6667C31.2725 68.6667 29.0146 66.4089 29.0146 63.6334Z" stroke="#05C2DF"/>
<path d="M41.4082 80.5151L41.4073 80.5156C39.1643 81.8137 36.6196 82.4998 34.048 82.4998C31.4766 82.4998 28.9319 81.8137 26.689 80.5157C26.416 80.3575 26.248 80.0659 26.248 79.7504V76.1039C26.248 74.0938 27.9342 72.4331 30.035 72.4331H38.0611C40.162 72.4331 41.848 74.0936 41.848 76.1053V79.7518C41.848 80.0666 41.6798 80.3586 41.4082 80.5151Z" stroke="#05C2DF"/>
<path d="M1.34766 33.2001C1.34766 25.0863 7.95055 18.4834 16.0644 18.4834C24.178 18.4834 30.7809 25.0863 30.7811 33.2001C30.7811 41.3139 24.1782 47.9168 16.0644 47.9168C7.95055 47.9168 1.34766 41.3139 1.34766 33.2001Z" stroke="#05C2DF"/>
<path d="M11.0312 29.0499C11.0312 26.2745 13.289 24.0166 16.0645 24.0166C18.8399 24.0166 21.0978 26.2745 21.0978 29.0499C21.0978 31.8253 18.8401 34.0832 16.0645 34.0832C13.2891 34.0832 11.0312 31.8253 11.0312 29.0499Z" stroke="#05C2DF"/>
<path d="M23.4248 45.9321L23.4239 45.9326C21.1809 47.2307 18.6362 47.9168 16.0646 47.9168C13.4932 47.9168 10.9485 47.2307 8.70559 45.9327C8.43256 45.7745 8.26465 45.4829 8.26465 45.1673V41.5208C8.26465 39.5108 9.95076 37.8501 12.0516 37.8501H20.0777C22.1784 37.8501 23.8646 39.5106 23.8646 41.5223V45.1688C23.8646 45.4835 23.6964 45.7756 23.4248 45.9321Z" stroke="#05C2DF"/>
<path d="M34.5479 15.2167C34.5479 7.10289 41.1507 0.5 49.2646 0.5C57.3782 0.5 63.9811 7.10289 63.9813 15.2167C63.9813 23.3306 57.3784 29.9334 49.2646 29.9334C41.1507 29.9334 34.5479 23.3306 34.5479 15.2167Z" stroke="#05C2DF"/>
<path d="M44.2305 11.0665C44.2305 8.29107 46.4882 6.0332 49.2638 6.0332C52.0391 6.0332 54.297 8.29122 54.297 11.0666C54.297 13.842 52.0392 16.0998 49.2638 16.0998C46.4883 16.0998 44.2305 13.8419 44.2305 11.0665Z" stroke="#05C2DF"/>
<path d="M56.624 27.9487L56.6232 27.9492C54.3802 29.2473 51.8354 29.9334 49.2639 29.9334C46.6924 29.9334 44.1478 29.2473 41.9048 27.9493C41.6318 27.7911 41.4639 27.4995 41.4639 27.1839V23.5374C41.4639 21.5274 43.15 19.8667 45.2508 19.8667H53.2769C55.3777 19.8667 57.0639 21.5271 57.0639 23.5389V27.1854C57.0639 27.5001 56.8956 27.7922 56.624 27.9487Z" stroke="#05C2DF"/>
<path d="M34.2515 14.4346L25.3867 21.652" stroke="#05C2DF"/>
<path d="M66.526 36.0867L59.3086 26.3433" stroke="#05C2DF"/>
<path d="M52.9615 56.2954L47.3994 60.6258" stroke="#05C2DF"/>
<path d="M19.192 67.4824H11.6738" stroke="#05C2DF"/>
<path d="M21.0978 5.53325V5.53328C21.0978 8.30869 18.8401 10.5666 16.0645 10.5666C13.2891 10.5666 11.0312 8.30884 11.0312 5.53328C11.0312 2.75788 13.2891 0.5 16.0647 0.5C18.8401 0.5 21.098 2.75787 21.0978 5.53325Z" stroke="#05C2DF"/>
<path d="M14.9209 10.8262V18.0436" stroke="#05C2DF"/>
</g>
<defs>
<clipPath id="clip0_3495_4788">
<rect width="83" height="83" fill="white" transform="translate(0.847656)"/>
</clipPath>
</defs>
</svg>
