<svg width="113" height="82" viewBox="0 0 113 82" fill="none" xmlns="http://www.w3.org/2000/svg">
<circle cx="56.6543" cy="41.156" r="13.5898" stroke="#05C2DF"/>
<path d="M71.0967 26.7504C75.7662 29.8394 78.8461 35.138 78.8461 41.156C78.8461 47.174 75.7662 52.4726 71.0967 55.5616" stroke="#05C2DF"/>
<path d="M71.2729 55.422L77.6134 63.5236" stroke="#05C2DF"/>
<path d="M77.4371 63.6997C84.8659 58.8278 89.7657 50.4711 89.7657 40.9799C89.7657 31.4886 84.8659 23.1319 77.4371 18.26L71.0967 26.89" stroke="#05C2DF"/>
<path d="M84.4819 9.80621C94.4577 16.4154 101.037 27.752 101.037 40.6277C101.037 53.5034 94.4577 64.8401 84.4819 71.4492" stroke="#05C2DF"/>
<path d="M84.4818 9.9823L90.8222 1.00003C103.77 9.53527 112.309 24.1757 112.309 40.8038C112.309 57.4319 103.77 72.0723 90.8222 80.6076L84.3057 71.4492" stroke="#05C2DF"/>
<path d="M42.2119 26.7504C37.5424 29.8394 34.4625 35.138 34.4625 41.156C34.4625 47.174 37.5424 52.4726 42.2119 55.5616" stroke="#05C2DF"/>
<path d="M42.0361 55.422L35.6957 63.5236" stroke="#05C2DF"/>
<path d="M35.8715 63.6997C28.4427 58.8278 23.5429 50.4711 23.5429 40.9799C23.5429 31.4886 28.4427 23.1319 35.8715 18.26L42.2119 26.89" stroke="#05C2DF"/>
<path d="M28.8271 9.80621C18.8513 16.4154 12.2716 27.752 12.2716 40.6277C12.2716 53.5034 18.8513 64.8401 28.8271 71.4492" stroke="#05C2DF"/>
<path d="M28.8273 9.9823L22.4869 1.00003C9.53955 9.53527 0.999881 24.1757 0.999881 40.8038C0.999881 57.4319 9.53955 72.0723 22.4869 80.6076L29.0034 71.4492" stroke="#05C2DF"/>
</svg>
