<svg width="130" height="18" viewBox="0 0 130 18" fill="none" xmlns="http://www.w3.org/2000/svg">
  <path d="M87.2163 3.78662H74.5638C73.1185 3.78662 71.9424 4.9627 71.9424 6.40801V14.7964C71.9424 16.2418 73.1185 17.4178 74.5638 17.4178H87.2163C88.6616 17.4178 89.8377 16.2418 89.8377 14.7964V6.40801C89.8377 4.9627 88.6616 3.78662 87.2163 3.78662ZM78.2687 14.2169V7.08998L84.5773 10.5946L78.2687 14.2169Z" fill="white"/>
  <path d="M79.3164 8.87207V12.4059L82.4447 10.6102L79.3164 8.87207Z" fill="white"/>
  <path d="M1.88535 11.1739V17.67H4.71337V11.1739H7.10148L7.57282 7.94382H4.71337V5.75452H7.57282V2.52441H4.71337C3.15391 2.52441 1.88535 3.97334 1.88535 5.75452V7.94382H0V11.1739H1.88535Z" fill="white"/>
  <path d="M37.3549 17.6701C36.5362 17.6701 35.6936 17.6107 34.8459 17.4916C33.3528 17.2817 31.8414 16.582 31.4137 16.3724L30.292 15.8229L31.5064 15.4651C32.834 15.074 33.6415 14.8313 34.6412 14.4513C33.6402 14.017 32.8688 13.2357 32.4974 12.2257L32.2149 11.4572L32.4466 11.4889C32.2269 11.2905 32.0534 11.0891 31.919 10.906C31.4407 10.2551 31.1875 9.45985 31.2414 8.77833L31.2945 8.10754L31.7427 8.2631C31.5537 7.94318 31.417 7.60151 31.3367 7.24341C31.141 6.37008 31.3048 5.44227 31.7981 4.63094L32.1885 3.98876L32.7106 4.5507C34.362 6.32815 36.4536 7.38253 38.9361 7.6912C38.8347 7.06494 38.9107 6.46055 39.1621 5.91879C39.4549 5.288 39.9758 4.75311 40.6679 4.37184C41.4366 3.94851 42.3688 3.74338 43.2928 3.79424C44.2731 3.84821 45.1631 4.17732 45.87 4.74664C46.2152 4.66627 46.4696 4.58046 46.8133 4.4645C47.0202 4.39475 47.2548 4.31554 47.5483 4.22495L48.6298 3.89104L47.9245 5.69593C47.971 5.69244 48.019 5.68946 48.0691 5.68752L49.224 5.64067L48.5414 6.47659C48.5023 6.52448 48.4923 6.53807 48.4784 6.55683C48.4234 6.63112 48.3549 6.72353 47.418 7.84456C47.1834 8.12527 47.0663 8.49088 47.0881 8.87423C47.1711 10.331 46.9717 11.649 46.4949 12.7915C46.0439 13.8724 45.3451 14.7998 44.4181 15.548C43.271 16.4736 41.8082 17.1074 40.0704 17.4315C39.2179 17.5904 38.3024 17.6701 37.3549 17.6701Z" fill="white"/>
  <path d="M113.443 10.7859C113.397 11.0516 113.365 11.3206 113.365 11.5959C113.365 14.9451 116.918 17.6699 121.2 17.6699C125.481 17.6699 128.965 14.9451 128.965 11.5959C128.965 11.3206 128.933 11.0516 128.887 10.7859C129.559 10.4126 130 9.67531 130 8.83495C130 7.61684 129.071 6.62621 127.929 6.62621C127.407 6.62621 126.917 6.83486 126.541 7.19867C125.24 6.23106 123.514 5.6156 121.605 5.53795L122.595 1.43927L124.829 2.27302C124.862 3.46093 125.773 4.41748 126.894 4.41748C128.036 4.41748 128.965 3.42685 128.965 2.20874C128.965 0.990625 128.036 0 126.894 0C126.098 0 125.413 0.4869 125.067 1.19137L121.874 0.000575192L120.533 5.5483C118.727 5.66909 117.031 6.2752 115.789 7.19867C115.413 6.83486 114.923 6.62621 114.401 6.62621C113.259 6.62621 112.33 7.61684 112.33 8.83495C112.33 9.67531 112.771 10.4126 113.443 10.7859ZM124.306 8.83495C125.162 8.83495 125.859 9.5781 125.859 10.4915C125.859 11.4049 125.162 12.1481 124.306 12.1481C123.449 12.1481 122.753 11.4049 122.753 10.4915C122.753 9.5781 123.449 8.83495 124.306 8.83495ZM124.084 13.713L124.527 14.7105C123.555 15.2018 122.405 15.4612 121.2 15.4612C119.994 15.4612 118.775 15.2018 117.803 14.7105L118.246 13.7129C119.914 14.5552 122.416 14.5552 124.084 13.713ZM118.024 8.83495C118.881 8.83495 119.577 9.5781 119.577 10.4915C119.577 11.4049 118.881 12.1481 118.024 12.1481C117.168 12.1481 116.471 11.4049 116.471 10.4915C116.471 9.5781 117.168 8.83495 118.024 8.83495Z" fill="white"/>
</svg>
