<svg xmlns="http://www.w3.org/2000/svg" width="24" height="24" fill="currentColor" xmlns:v="https://vecta.io/nano">
<path d="M5.882 13.546c-.036.211-.061.424-.061.642C5.82 16.841 8.635 19 12.027 19s6.152-2.159 6.152-4.812c0-.218-.025-.431-.061-.642.532-.296.882-.88.882-1.546 0-.965-.736-1.75-1.641-1.75-.413 0-.802.165-1.1.454-1.031-.767-2.399-1.254-3.911-1.316l.785-3.247 1.77.661c.026.941.747 1.699 1.636 1.699.905 0 1.641-.785 1.641-1.75S17.444 5 16.539 5c-.631 0-1.173.386-1.448.944L12.562 5l-1.063 4.396c-1.431.096-2.775.576-3.759 1.308-.298-.288-.686-.454-1.1-.454C5.736 10.25 5 11.035 5 12c0 .666.35 1.25.882 1.546h0zM14.488 12c.678 0 1.23.589 1.23 1.313s-.552 1.313-1.23 1.313-1.231-.589-1.231-1.312S13.81 12 14.488 12h0zm-.175 3.865l.351.79c-.77.389-1.681.595-2.636.595s-1.921-.206-2.691-.595l.351-.79c1.322.667 3.304.667 4.626 0zM9.512 12c.678 0 1.23.589 1.23 1.313s-.552 1.313-1.23 1.313-1.23-.589-1.23-1.312S8.833 12 9.512 12h0z">
</svg>
