<svg xmlns="http://www.w3.org/2000/svg" width="24" height="24" fill="currentColor" xmlns:v="https://vecta.io/nano">
<path d="M9.596 17a14.34 14.34 0 0 1-1.988-.141c-1.183-.166-2.38-.721-2.719-.887L4 15.536l.962-.284 2.484-.803c-.793-.344-1.404-.963-1.699-1.763l-.224-.609.184.025a3.08 3.08 0 0 1-.418-.462c-.379-.516-.58-1.146-.537-1.686l.042-.531.355.123a2.78 2.78 0 0 1-.322-.808c-.155-.692-.025-1.427.366-2.07l.309-.509.414.445c1.308 1.408 2.966 2.244 4.933 2.488a2.39 2.39 0 0 1 .179-1.404c.232-.5.645-.924 1.193-1.226.609-.335 1.348-.498 2.08-.458.777.043 1.482.304 2.042.755.273-.064.475-.132.747-.224l.582-.19.857-.265-.559 1.43.114-.007.915-.037-.541.662-.05.064c-.044.059-.098.132-.84 1.02a1.16 1.16 0 0 0-.261.816c.066 1.154-.092 2.198-.47 3.104-.357.856-.911 1.591-1.646 2.184-.909.733-2.068 1.236-3.445 1.492-.675.126-1.401.189-2.152.189h0z">
</svg>
