<svg width="83" height="83" viewBox="0 0 83 83" fill="none" xmlns="http://www.w3.org/2000/svg">
<g clip-path="url(#clip0_1_5837)">
<path d="M77.4668 17.0996C80.2422 17.0996 82.5 19.3574 82.5 22.1328C82.5 24.9084 80.2422 27.166 77.4668 27.166C74.6914 27.166 72.4336 24.9082 72.4336 22.1328C72.4336 19.3575 74.6913 17.0996 77.4668 17.0996Z" stroke="#05C2DF"/>
<path d="M5.5332 62.75C8.30873 62.75 10.5664 65.0078 10.5664 67.7832C10.5664 70.5586 8.30876 72.8164 5.5332 72.8164C2.75783 72.8164 0.5 70.5586 0.5 67.7832C0.500041 65.0079 2.75786 62.75 5.5332 62.75Z" stroke="#05C2DF"/>
<path d="M73.9784 18.0439L63.1523 12.6309" stroke="#05C2DF"/>
<path d="M62.25 72.4336C65.0255 72.4336 67.2831 74.6915 67.2832 77.4668C67.2832 80.2422 65.0256 82.5 62.25 82.5C59.4745 82.5 57.2168 80.2422 57.2168 77.4668C57.2168 74.6914 59.4745 72.4336 62.25 72.4336Z" stroke="#05C2DF"/>
<path d="M58.4861 73.6048L48.3564 68.2041" stroke="#05C2DF"/>
<path d="M41.5 37.8496C44.2755 37.8496 46.5332 40.1074 46.5332 42.8828C46.5332 45.6582 44.2756 47.916 41.5 47.916C38.7246 47.916 36.4668 45.6583 36.4668 42.8828C36.4668 40.1075 38.7245 37.8497 41.5 37.8496Z" stroke="#05C2DF"/>
<path d="M38.2526 38.6133L30.3135 32.4785" stroke="#05C2DF"/>
<path d="M66.4004 36.4668C74.5142 36.4668 81.1172 43.0698 81.1172 51.1836C81.1171 59.2974 74.5142 65.9003 66.4004 65.9004C58.2866 65.9004 51.6836 59.2974 51.6836 51.1836C51.6836 43.0698 58.2866 36.4668 66.4004 36.4668Z" stroke="#05C2DF"/>
<path d="M66.3994 42C69.1749 42 71.4326 44.2578 71.4326 47.0332C71.4326 49.8086 69.175 52.0664 66.3994 52.0664C63.624 52.0664 61.3662 49.8087 61.3662 47.0332C61.3663 44.2578 63.6239 42 66.3994 42Z" stroke="#05C2DF"/>
<path d="M62.3867 55.833H70.4131C72.5137 55.8333 74.199 57.4935 74.1992 59.5049V63.1514C74.1992 63.466 74.0313 63.7586 73.7598 63.915H73.7588C71.5158 65.2131 68.971 65.8994 66.3994 65.8994C63.8279 65.8994 61.283 65.2131 59.04 63.915C58.7674 63.7568 58.5997 63.4657 58.5996 63.1504V59.5039C58.5996 57.4938 60.2858 55.833 62.3867 55.833Z" stroke="#05C2DF"/>
<path d="M33.2002 53.0664C41.314 53.0664 47.917 59.6694 47.917 67.7832C47.9169 75.8969 41.3139 82.5 33.2002 82.5C25.0864 82.5 18.4834 75.897 18.4834 67.7832C18.4834 59.6694 25.0864 53.0664 33.2002 53.0664Z" stroke="#05C2DF"/>
<path d="M33.2002 58.5996C35.9757 58.5996 38.2334 60.8574 38.2334 63.6328C38.2334 66.4082 35.9756 68.666 33.2002 68.666C30.4248 68.666 28.167 66.4083 28.167 63.6328C28.167 60.8575 30.4247 58.5996 33.2002 58.5996Z" stroke="#05C2DF"/>
<path d="M29.1875 72.4336H37.2139C39.3144 72.4338 40.9998 74.0941 41 76.1055V79.752C41 80.0667 40.8321 80.3592 40.5605 80.5156H40.5596C38.3166 81.8137 35.7717 82.5 33.2002 82.5C30.6287 82.5 28.0838 81.8137 25.8408 80.5156C25.5682 80.3574 25.4004 80.0663 25.4004 79.751V76.1045L25.4053 75.917C25.5061 73.9921 27.1523 72.4336 29.1875 72.4336Z" stroke="#05C2DF"/>
<path d="M15.2168 18.4834C23.3304 18.4834 29.9334 25.0864 29.9336 33.2002C29.9336 41.314 23.3306 47.917 15.2168 47.917C7.10299 47.917 0.500042 41.314 0.5 33.2002C0.5 25.0864 7.10297 18.4834 15.2168 18.4834Z" stroke="#05C2DF"/>
<path d="M15.2168 24.0166C17.9922 24.0166 20.25 26.2744 20.25 29.0498C20.25 31.8252 17.9924 34.083 15.2168 34.083C12.4414 34.083 10.1836 31.8252 10.1836 29.0498C10.1836 26.2745 12.4413 24.0166 15.2168 24.0166Z" stroke="#05C2DF"/>
<path d="M11.2041 37.8496H19.2305C21.3309 37.8499 23.0164 39.5101 23.0166 41.5215V45.168C23.0166 45.4826 22.8487 45.7752 22.5771 45.9316H22.5762C20.3332 47.2297 17.7883 47.916 15.2168 47.916C12.6453 47.916 10.1004 47.2297 7.85742 45.9316C7.58481 45.7734 7.41704 45.4823 7.41699 45.167V41.5205L7.42188 41.333C7.52275 39.4081 9.16887 37.8496 11.2041 37.8496Z" stroke="#05C2DF"/>
<path d="M48.417 0.5C56.5306 0.500049 63.1336 7.10298 63.1338 15.2168C63.1337 23.3306 56.5307 29.9335 48.417 29.9336C40.3032 29.9336 33.7002 23.3306 33.7002 15.2168C33.7002 7.10297 40.3032 0.5 48.417 0.5Z" stroke="#05C2DF"/>
<path d="M48.416 6.0332C51.1913 6.0332 53.4491 8.29109 53.4492 11.0664C53.4492 13.8418 51.1914 16.0996 48.416 16.0996C45.6406 16.0996 43.3828 13.8418 43.3828 11.0664C43.3829 8.29105 45.6405 6.03325 48.416 6.0332Z" stroke="#05C2DF"/>
<path d="M44.4033 19.8672H52.4297C54.5301 19.8674 56.2156 21.5275 56.2158 23.5391V27.1855C56.2158 27.5002 56.0479 27.7928 55.7764 27.9492H55.7754C53.5324 29.2473 50.9876 29.9336 48.416 29.9336C45.8445 29.9336 43.2996 29.2473 41.0566 27.9492C40.784 27.791 40.6163 27.4999 40.6162 27.1846V23.5381C40.6162 21.528 42.3024 19.8672 44.4033 19.8672Z" stroke="#05C2DF"/>
<path d="M33.4038 14.4346L24.5391 21.652" stroke="#05C2DF"/>
<path d="M65.6783 36.0872L58.4609 26.3438" stroke="#05C2DF"/>
<path d="M52.1138 56.2959L46.5518 60.6263" stroke="#05C2DF"/>
<path d="M18.3444 67.4824H10.8262" stroke="#05C2DF"/>
<path d="M15.2168 0.5C17.9922 0.5 20.2501 2.75785 20.25 5.5332C20.25 8.30862 17.9924 10.5664 15.2168 10.5664C12.4414 10.5664 10.1836 8.30874 10.1836 5.5332C10.1836 2.75792 12.4414 0.500129 15.2168 0.5Z" stroke="#05C2DF"/>
<path d="M14.0732 10.8262V18.0436" stroke="#05C2DF"/>
</g>
<defs>
<clipPath id="clip0_1_5837">
<rect width="83" height="83" fill="white"/>
</clipPath>
</defs>
</svg>
