<svg xmlns="http://www.w3.org/2000/svg" width="27" height="18" fill="none" xmlns:v="https://vecta.io/nano"><rect width="27" height="18" rx="2" fill="#fff"/><g fill="#016fd0"><path fill-rule="evenodd" d="M26.74 13.35v1.956h-2.484l-.918-1.074-.954 1.074h-7.056V9.588H13L15.91 3h2.832l.684 1.494V3h3.516l.588 1.566L24.106 3h2.634v.93h-2.034l-.924 2.436-.246.66-1.182-3.096H20.32v4.8l-2.112-4.8H16.57l-2.124 4.8h1.392l.372-.924h2.328l.372.924h1.41 1.224V5.604l-.006-.63.24.63 1.17 3.126h1.164l1.176-3.126.228-.624v3.75h1.224v1.878l-1.356 1.362 1.356 1.38zm-10.428 1.026V9.594h4.008v1.038h-2.784v.84h2.73v1.032h-2.73v.834h2.784v1.038h-4.008zm10.056 0h-1.59l-1.452-1.56-1.458 1.56H20.32l2.238-2.382-2.238-2.4h1.596l1.44 1.554 1.446-1.554h1.566l-2.244 2.382 2.244 2.4z"/><path d="M17.374 4.956l-.24.6-.498 1.212h1.476l-.498-1.212-.24-.6z"/></g></svg>