<svg xmlns="http://www.w3.org/2000/svg" xmlns:xlink="http://www.w3.org/1999/xlink" width="55" height="34" fill="none" xmlns:v="https://vecta.io/nano"><style><![CDATA[.B{fill:#fff}.C{fill-rule:evenodd}.D{stroke:#fff}.E{stroke-width:.22}.F{stroke-miterlimit:2.61}.G{fill:#fbb231}]]></style><g clip-path="url(#A)"><path d="M53.167 0H1.833C.821 0 0 .812 0 1.813v30.374C0 33.188.821 34 1.833 34h51.334C54.179 34 55 33.188 55 32.187V1.813C55 .812 54.179 0 53.167 0z" fill="#f9f9f9"/><g class="C"><path d="M34.101 26.761l.509-.013.504-.035.491-.065.487-.087.478-.109.469-.13.46-.156.447-.174.438-.195.43-.217.412-.234.403-.256.386-.273.373-.291.359-.304.342-.325.329-.343.311-.356.289-.364.276-.386.259-.395.237-.412.219-.421.197-.434.175-.442.158-.455.136-.464.11-.473.083-.482.066-.49.035-.494.013-.503-.013-.503-.035-.494-.066-.486-.083-.477-.11-.473-.136-.46-.158-.455-.175-.438-.197-.434-.219-.421-.237-.403-.259-.399-.276-.382-.289-.364-.311-.356-.329-.343-.342-.321-.359-.308-.373-.286-.386-.273-.403-.256-.412-.234-.43-.213-.438-.2-.447-.173-.46-.156-.469-.13-.478-.108-.487-.087-.491-.061-.504-.035-.509-.017-.509.017-.5.035-.495.061-.487.087-.474.108-.469.13-.456.156-.447.173-.438.2-.421.213-.412.234-.403.256-.382.273-.377.286-.355.308-.342.321-.325.343-.311.356-.294.364-.272.382-.254.399-.237.403-.219.421-.197.434-.18.438-.149.455-.136.46-.11.473-.088.477-.061.486-.035.494-.013.503.013.503.035.494.061.49.088.482.11.473.136.464.149.455.18.442.197.434.219.421.237.412.254.395.272.386.294.364.311.356.325.343.342.325.355.304.377.291.382.273.403.256.412.234.421.217.438.195.447.174.456.156.469.13.474.109.487.087.495.065.5.035.509.013z" class="G"/><path d="M20.899 26.761l.504-.013.504-.035.495-.065.482-.087.478-.109.469-.13.456-.156.447-.174.438-.195.421-.217.412-.234.399-.256.39-.273.373-.291.355-.304.342-.325.324-.343.311-.356.294-.364.272-.386.259-.395.232-.412.219-.421.197-.434.18-.442.149-.455.136-.464.11-.473.083-.482.066-.49.035-.494.013-.503-.013-.503-.035-.494-.066-.486-.083-.477-.11-.473-.136-.46-.149-.455-.18-.438-.197-.434-.219-.421-.232-.403-.259-.399-.272-.382-.294-.364-.311-.356-.324-.343-.342-.321-.355-.308-.373-.286-.39-.273-.399-.256-.412-.234-.421-.213-.438-.2-.447-.173-.456-.156-.469-.13-.478-.108-.482-.087-.495-.061-.504-.035-.504-.017-.509.017-.504.035-.491.061-.487.087-.478.108-.469.13-.46.156-.447.173-.439.2-.43.213-.412.234-.403.256-.386.273-.373.286-.36.308-.342.321-.329.343-.307.356-.294.364-.276.382-.259.399-.237.403-.219.421-.197.434-.18.438-.154.455-.136.46-.11.473-.083.477-.066.486-.035.494-.013.503.013.503.035.494.066.49.083.482.11.473.136.464.154.455.18.442.197.434.219.421.237.412.259.395.276.386.294.364.307.356.329.343.342.325.36.304.373.291.386.273.403.256.412.234.43.217.439.195.447.174.46.156.469.13.478.109.487.087.491.065.504.035.509.013z" fill="#ec1c2e"/><g class="G"><path d="M26.345 10.987h5.244v-.534h-4.793l-.452.534zm-.785 1.175h6.029v-.529h-5.713l-.316.529zm-.587 1.175h6.617v-.529h-6.385l-.232.529zm-.404 1.18h7.02v-.529h-6.854l-.167.529zm.237 5.695h6.797v-.529H24.64l.167.529zm.499 1.18h6.297v-.529h-6.547l.25.529zm.706 1.175h5.591v-.529h-5.924l.333.529zm.973 1.179h4.617v-.534h-5.087l.469.534zm-2.648-8.054h7.253v-.529h-7.152l-.101.529zm4.42 3.344h2.762v-.529h-2.662l-.101.529zm.22-1.175h2.543v-.534h-2.442l-.101.534zm-4.824-.534h.719v.534h-.684l-.035-.534z"/></g><use xlink:href="#B" class="B"/></g><use xlink:href="#B" class="D E F"/><use xlink:href="#C" class="B C"/><g class="D E F"><use xlink:href="#C"/><path d="M25.678 17.913l-.013.052-.004.061.009.065.013.061.022.061.031.061.035.065.04.052.048.056.048.052.053.048.061.039.057.039.07.026.066.026.066.013.088.013.083.009.083.009.088.009.088.004h.088l.088-.004.092-.009.088-.013.092-.017.092-.017.088-.03.096-.035.092-.039.096-.052.096-.056-.131.807-.057.026-.053.03-.053.017-.048.022-.053.013-.053.017-.053.013-.057.013-.061.009-.066.004-.07.009-.075.004-.088.004h-.088l-.105.004h-.11l-.162-.004-.167-.017-.167-.022-.167-.039-.162-.048-.158-.065-.149-.082-.14-.095-.132-.113-.11-.135-.096-.152-.083-.174-.053-.195-.039-.221-.009-.243.018-.269.013-.104.018-.121.026-.13.039-.139.048-.143.061-.139.075-.143.092-.139.11-.134.127-.126.149-.108.167-.1.193-.082.215-.061.241-.039.268-.013.132.004.136.013.136.022.136.035.136.048.127.061.123.078.11.091.096.113.083.134.066.147.048.178.026.195.004.226-.022.247-.053.278-.018.2h-2.425l.153-.646h1.456l.009-.082-.004-.078-.009-.074-.009-.065-.026-.065-.022-.056-.035-.048-.031-.043-.04-.043-.044-.03-.048-.03-.053-.026-.053-.022-.053-.013-.057-.009-.061-.009-.061.004-.061.009-.057.017-.057.017-.057.026-.048.03-.048.035-.044.043-.044.043-.039.048-.035.056-.031.056-.031.056-.022.065-.022.069-.013.069-.131.681z"/></g><use xlink:href="#D" class="B C"/><use xlink:href="#D" class="D E F"/><use xlink:href="#E" class="B C"/><use xlink:href="#E" class="D E F"/><g class="C"><path d="M40.302 18.655l.092-.004.088-.022.079-.022.079-.039.066-.035.07-.052.061-.056.057-.061.048-.065.048-.074.044-.074.035-.078.035-.082.026-.087.022-.087.017-.091.018-.091.009-.095v-.091l-.004-.091-.009-.087-.013-.082-.022-.078-.026-.074-.035-.065-.039-.065-.044-.052-.048-.048-.057-.039-.061-.026-.061-.017-.07-.004-.092.004-.083.013-.075.03-.079.03-.066.043-.066.052-.057.056-.057.065-.048.069-.048.078-.044.078-.035.087-.035.087-.026.091-.026.095-.018.095-.017.143.004.156.026.165.044.152.066.134.088.108.11.074.132.026z" class="G"/><use xlink:href="#F" class="B"/></g><use xlink:href="#F" class="D E F"/><g class="C"><path d="M19.061 17.861l-.004-.013-.013-.017-.022-.013-.031-.004-.039-.009h-.044-.048-.053-.053l-.053.009-.057.004-.053.009-.048.009-.048.009-.039.009-.035.009-.026.009-.026.009-.035.013-.035.017-.044.017-.044.026-.048.022-.044.026-.044.035-.044.03-.039.039-.035.043-.035.039-.026.048-.018.052-.009.052-.004.113.018.091.031.065.044.048.053.035.057.017.053.013h.053.096l.092-.013.088-.013.075-.017.066-.026.066-.026.057-.03.048-.039.044-.03.04-.039.035-.039.026-.039.022-.039.022-.039.013-.035.013-.039.026-.096.022-.108.022-.104.017-.087z" fill="#ec1c2e"/><use xlink:href="#G" class="B"/></g><use xlink:href="#G" class="D E F"/><g class="C"><g class="B"><path d="M36.382 18.719l-.136.733h-.838l.009-.134v-.117-.091l.009-.039-.044.048-.048.052-.061.043-.066.048-.07.043-.079.039-.083.039-.083.035-.092.026-.092.026-.092.013-.096.013-.096.009-.092.004-.088-.013-.092-.013-.118-.026-.105-.035-.096-.043-.088-.048-.07-.052-.066-.061-.053-.065-.044-.065-.039-.069-.031-.069-.026-.074-.018-.074-.013-.074-.009-.078-.009-.069v-.074l.009-.13.017-.122.031-.113.044-.113.048-.104.066-.095.066-.091.079-.087.088-.074.088-.069.096-.061.105-.056.101-.043.11-.039.11-.026.114-.022h.009l.013-.004h.026l.031-.004.044-.009h.048l.048-.009.053-.004.057-.009.061-.004.057-.004.057-.009.053-.004h.048l.044-.004h.039.079l.079.004h.075.075l.066.004.053.004.026.004h.017l.004-.026.013-.056.009-.069.004-.065-.013-.069-.026-.069-.044-.056-.048-.052-.061-.039-.07-.03-.075-.022-.079-.004-.092-.004-.101-.004h-.101l-.11.004-.11.009-.105.009-.105.009-.105.013-.101.013-.092.017-.088.017-.079.013-.075.022-.061.022-.048.022-.035.017.232-.794.075-.026.079-.026.075-.026.079-.017.083-.013.083-.013.088-.013.088-.009.096-.004.097-.004.096-.004h.101.105.105l.114.004.114.004.092.004.101.017.101.022.11.03.101.039.101.048.101.056.092.061.088.074.075.078.066.087.053.1.035.108.022.108v.126l-.013.134-.351 1.735z"/><path d="M36.246 19.474l.018-.017.136-.733-.039-.004-.136.729.022-.017v.043l.013-.004.004-.013-.018.017z"/><path d="M35.387 19.452l.022.022h.838v-.043h-.838l.022.022h-.044v.022h.022l-.022-.022z"/><path d="M35.444 19.084l-.031-.026-.013.052-.004.091v.117l-.009.134h.044l.004-.134.009-.117-.004-.091v-.026l-.031-.026.035.026z"/><path d="M34.146 19.504l.096.013.088.009h.092l.096-.009.096-.013.096-.017.092-.026.092-.026.083-.035.088-.035.079-.043.07-.043.07-.048.061-.048.053-.052.044-.048-.035-.026-.044.048-.044.048-.061.048-.061.043-.07.039-.083.039-.079.043-.083.03-.088.026-.092.026-.092.017-.092.013-.096.004-.092.004-.088-.009-.088-.013-.009.039z"/><path d="M33.343 18.507v.074l.009.069.009.082.013.074.018.074.026.074.031.078.044.069.044.069.057.061.066.061.075.056.088.052.097.043.11.03.118.03.009-.039-.118-.03-.105-.035-.092-.039-.083-.048-.07-.052-.061-.056-.053-.065-.048-.061-.035-.069-.031-.069-.026-.069-.017-.069-.013-.078-.009-.074-.004-.069v-.074h-.044z"/><path d="M34.536 17.245l-.114.017-.114.03-.11.035-.105.048-.105.052-.101.065-.088.069-.088.078-.079.082-.07.095-.066.096-.053.108-.044.113-.026.121-.022.121-.009.13h.044l.004-.13.022-.117.031-.113.04-.109.053-.104.057-.091.07-.095.075-.082.088-.069.088-.069.092-.061.105-.052.101-.048.11-.035.105-.03.11-.017v-.039z"/><path d="M35.224 17.176h-.039l-.044.004-.048.004-.053.004-.057.004-.057.004-.061.004-.057.009-.053.009-.048.004-.048.004-.044.004-.031.004-.026.004-.013.004h-.009v.039h.009l.017-.004.022-.004.031-.004.044-.004.048-.004.048-.004.053-.009.057-.004.061-.009.057-.004.057-.004.053-.004.048-.004h.044.039v-.043z"/><path d="M35.671 17.211l.022-.017h-.018l-.026-.004h-.053l-.066-.009h-.075-.075l-.079-.004h-.079v.043h.079.079l.075.009h.075.066l.053.004h.026.018l.018-.013-.018.013.018.004v-.017l-.039-.009z"/><path d="M35.707 16.998h-.004l-.004.065-.009.065-.013.061-.004.022.039.009.009-.026.009-.061.009-.069.009-.065h-.039z"/><path d="M35.308 16.672v.004l.079.004.07.017.066.03.057.039.044.048.039.056.031.056.013.069h.039l-.013-.074-.026-.074-.048-.061-.053-.052-.061-.048-.075-.03-.079-.017-.083-.013v.004.039z"/><path d="M33.883 16.833l.031.017.035-.017.044-.022.057-.017.07-.022.083-.017.083-.017.096-.013.097-.013.105-.017.105-.009.105-.009.11-.004h.11.101.101.092v-.039l-.092-.004-.101-.004h-.101l-.11.004-.11.009-.105.009-.105.013-.105.013-.101.009-.096.017-.088.017-.079.017-.075.017-.061.022-.053.022-.04.026.035.017-.039-.004z"/><path d="M34.128 16.022l-.013.017-.232.794.039.004.232-.794-.013.017-.013-.039-.009.004-.004.013.013-.017z"/><path d="M35.61 15.87l-.114-.004-.114-.004h-.105-.105-.101l-.097.004-.096.004-.096.009-.088.004-.092.013-.083.013-.083.017-.079.017-.079.022-.075.026-.075.03.013.039.075-.03.075-.026.075-.022.079-.017.083-.017.083-.013.083-.013.088-.004.096-.009.096-.004h.097.101.105.105l.114.004h.114v-.039z"/><path d="M36.749 16.985l.017-.134v-.126l-.022-.113-.039-.108-.053-.104-.066-.091-.083-.082-.079-.074-.096-.061-.101-.061-.105-.043-.105-.043-.11-.026-.105-.026-.101-.013-.092-.009v.039l.092.009.096.013.101.026.105.03.101.039.101.043.101.052.088.065.083.069.075.078.066.087.048.095.035.1.026.108v.126l-.018.13.04.004z"/><path d="M36.399 18.724l.351-1.739-.039-.004-.351 1.739.04.004z"/></g><path d="M35.575 17.861l-.009-.017-.009-.017-.026-.009-.031-.013h-.04l-.044-.004h-.048l-.048.004-.057.004-.053.009-.053.004-.048.009-.053.009-.039.009-.044.009-.035.004-.022.004-.026.009-.035.013-.035.013-.044.017-.04.022-.048.022-.044.03-.044.03-.044.035-.035.035-.035.043-.031.048-.022.048-.022.052-.009.056-.004.113.017.091.026.065.04.048.048.035.057.017.057.013h.057.101l.092-.013.088-.017.075-.022.075-.026.066-.03.057-.03.053-.039.048-.039.039-.043.035-.039.031-.043.022-.039.018-.039.013-.039.013-.035.013-.096.017-.091.009-.095.009-.082z" class="G"/><g class="B"><path d="M42.433 19.001l.004-.078.026-.087.048-.078.057-.069.07-.056.079-.039.088-.026.092-.013.092.013.088.026.079.039.07.056.057.069.048.078.026.087.004.078h-.096l-.004-.061-.022-.069-.031-.069-.044-.056-.053-.043-.066-.035-.075-.022-.075-.009-.075.009-.075.022-.066.035-.053.043-.044.056-.031.069-.022.069-.004.061h-.096zm.298 0v-.2h.184l.04.004.035.009.026.009.026.013.013.022.013.017.009.022.004.026-.004.03-.009.022-.009.017-.004.009h-.14l.013-.004.022-.004.022-.004.013-.009.013-.009.009-.009.004-.017v-.022-.017l-.009-.013-.009-.009-.009-.004-.018-.004-.018-.004h-.017-.018-.101v.13h-.083z"/><path d="M42.433 19.002l-.004.017.009.1.026.087.048.078.057.065.07.056.079.043.088.026.092.009.092-.009.088-.026.079-.043.07-.056.057-.065.048-.078.026-.087.009-.1-.004-.017h-.096v.017l-.004.082-.022.069-.031.065-.044.056-.053.043-.066.039-.075.022-.075.004-.075-.004-.075-.022-.066-.039-.053-.043-.044-.056-.031-.065-.022-.069-.004-.082v-.017h-.097zm.298 0v.2h.083v-.165h.083l.101.165h.066l-.101-.165h.022l.026-.004.018-.009.018-.013.009-.009h-.14l-.017.004h-.083v-.004h-.083z"/></g></g><path d="M42.876 19.379h.096.075l.066-.039.053-.043.044-.056.031-.065v-.069-.082-.078-.074l-.031-.065-.044-.056-.053-.043-.066-.056h-.075-.075-.075-.075l-.066.035-.053.043-.044.056-.031.065v.074.078.082.069l.031.065.044.056.053.043.066.039h.075.075m-.469-.338v-.095l.026-.087.048-.078.057-.069.07-.056.079-.039.088-.026h.092.092l.088.026.079.039.07.056.057.069.048.078.026.087v.095.095l-.026.091-.048.078-.057.065-.07.056-.079.043-.088.026h-.092-.092l-.088-.026-.079-.043-.07-.056-.026-.065-.048-.078-.026-.091v-.095h-.031zm.417.182h-.083v-.399h.21.035.026.026v.026.026.026h-.088l.101.165h-.066l-.101-.165h-.083v.165l.022.156zm.061-.351h.031.035-.18v.134h.083l.031-.134z" class="D E F"/><use xlink:href="#H" class="B C"/><use xlink:href="#H" class="D E F"/><use xlink:href="#I" class="B C"/><use xlink:href="#I" class="D E F"/><g class="C"><g class="G"><path d="M42.438 22.914v-.013l.026-.082.048-.078.057-.065.07-.052.079-.039.088-.022.092-.013.092.013.088.022.079.039.07.052.057.065.048.078.026.082v.013h-.096l-.022-.065-.031-.065-.044-.056-.053-.043-.066-.039-.075-.022-.075-.009-.075.009-.075.022-.066.039-.053.043-.044.056-.031.065-.022.065h-.096zm.293 0v-.113h.184.04l.035.004.026.009.026.013.013.017.013.017.009.026.004.026h-.07V22.9v-.017l-.009-.013-.009-.009-.009-.004-.018-.004-.018-.004h-.017-.018-.101v.065h-.083z"/><path d="M42.429 22.988l.009-.074h.096v.004l-.004.069h-.101zm.302 0v-.074h.083v.069h.083l.031-.009.022-.004.022-.004.013-.009.013-.009.009-.009.004-.017v-.009h.07l-.004.026-.009.017-.009.017-.013.013h-.316zm.535 0l-.004-.069v-.004h.096l.009.074h-.101z"/><path d="M42.429 22.987v.009l.009.095.026.091.048.078.057.069.07.056.079.039.088.026.092.009.092-.009.088-.026.079-.039.07-.056.057-.069.048-.078.026-.091.009-.095v-.009h-.101v.009l-.004.082-.022.069-.031.065-.044.056-.053.043-.066.039-.075.022-.075.009-.075-.009-.075-.022-.066-.039-.053-.043-.044-.056-.031-.065-.022-.069-.004-.082v-.009h-.101zm.302 0v.191h.083v-.165h.083l.101.165h.066l-.101-.165h.022l.026-.004.018-.009.018-.013h-.316z"/></g><path d="M27.919 16.977l-.026-.195-.048-.178-.066-.152-.083-.13-.096-.113-.11-.091-.123-.069-.127-.061-.136-.048-.136-.035h-.136-.136-.132-.267l-.241.039-.215.061-.193.082-.167.1-.149.108-.127.126-.11.135-.101.1-.075.148-.061.143-.048.139-.039.139-.026.13v.122.104.269.243l.039.221.053.195.083.174.096.152.11.135.132.113.14.095.149.082.158.065.162.048.167.039h.167.167.627.07.066.061.057.053.053.053.048.053l.053-.03.053-.026.136-.807-.096.056-.092.052-.096.039-.097.035-.088.03h-.092-.092-.088-.092-.263-.088-.083-.083-.088-.066l-.096-.108-.07-.026-.057-.039-.061-.039-.053-.048-.035-.052-.044-.056-.039-.052-.035-.065-.048-.056v-.061-.061-.121-.043h2.157v-.2l.053-.278v-.247l.004-.23zm-.903.304h-1.215v-.043-.069-.069l.026-.065.031-.056.026-.056.04-.056.04-.048.044-.048.044-.039.048-.035.048-.03.057-.026h.057.057.061.061.061.057.053.053l.048.026.053.03.044.03.039.039.031.048.035.048.022.056.026.065v.065.152l.053.082z" class="B"/></g></g><defs><clipPath id="A"><path d="M0 0h55v34H0z" class="B"/></clipPath><path id="B" d="M22.81 16.686l-.048-.004-.044-.004-.044-.004-.044-.009-.04-.004-.044-.009-.044-.009-.048-.004-.044-.009h-.053l-.061-.004-.061-.004h-.07l-.079.004-.088.004-.096.009-.066.009-.061.013-.057.017-.048.017-.048.026-.044.026-.035.035-.031.026-.018.039-.017.035-.004.039v.039l.009.043.013.043.026.043.035.043.066.061.079.052.092.039.101.039.105.03.11.039.114.039.105.043.101.056.092.069.083.082.07.1.053.126.035.147.013.178-.013.208-.026.156-.039.134-.053.126-.066.109-.079.095-.083.078-.096.074-.101.065-.11.048-.11.043-.11.03-.118.03-.114.017-.11.009-.11.009-.101.004h-.145l-.131-.004h-.118l-.11-.004-.101-.004-.088-.004-.079-.009-.079-.009-.07-.004-.061-.013-.066-.013-.057-.017-.053-.013-.057-.017-.053-.022-.057-.017.149-.729.031.009.039.009.044.013.057.013.061.013.066.013.074.017.079.013.083.013.088.013.088.009.092.009.097.004.101.004h.092l.096-.004.097-.017.079-.03.061-.035.044-.043.035-.048.026-.052.018-.052.013-.052.004-.095-.031-.082-.057-.065-.083-.056-.097-.048-.118-.052-.127-.043-.132-.052-.131-.061-.127-.069-.118-.087-.105-.1-.083-.126-.061-.148-.031-.178.004-.213.018-.126.022-.126.035-.108.04-.108.053-.095.061-.087.07-.082.083-.074.096-.061.105-.052.118-.052.136-.035.149-.03.162-.022.18-.013.197-.004h.123l.114.004.101.004h.096l.083.009.075.004.066.009.061.004.057.009.044.009.044.009.04.004.035.009h.031l.031.009.026.004-.171.742z"/><path id="C" d="M23.599 15.129h.921l-.136.798h.557l-.123.746-.583-.017-.32 1.835-.004.065.018.056.035.043.04.035.061.026.066.017.075.013.079.009.075-.004.066-.004.061-.013.053-.013.044-.013.031-.009.017-.009h.009l-.118.612-.022.017-.026.013-.022.013-.022.013-.022.009-.031.009-.026.013-.031.009-.035.009-.031.009-.04.004-.039.009-.044.004-.053.009-.053.004-.057.009h-.254l-.132-.009-.114-.013-.11-.022-.088-.022-.079-.03-.061-.035-.057-.039-.044-.043-.035-.043-.022-.056-.018-.056-.009-.065-.004-.065v-.074l.013-.078.009-.082.636-3.591z"/><path id="D" d="M33.615 16.122l-.044-.022-.044-.017-.048-.026-.048-.022-.048-.022-.057-.017-.057-.022-.061-.017-.061-.017-.066-.013-.066-.013-.07-.009-.079-.009-.075-.004h-.083-.079-.083l-.088.004-.092.009-.092.017-.092.026-.092.039-.096.043-.092.061-.088.074-.088.082-.083.108-.079.121-.075.143-.07.165-.066.187-.048.208-.022.117-.013.117-.009.117.004.108.009.113.026.104.026.1.04.1.048.091.061.082.07.078.079.069.092.056.101.052.114.043.127.026.039.013.053.009.061.004.066.009.07.009h.079.083l.083-.009.088-.009.083-.017.083-.022.083-.026.083-.039.079-.043.07-.052.066-.056-.149.876-.022.017-.018.022-.026.022-.031.017-.039.026-.044.026-.053.022-.061.022-.079.022-.083.017-.101.013-.118.013-.127.004-.149.004-.171-.004-.189-.009-.153-.017-.153-.03-.149-.052-.154-.065-.149-.078-.14-.1-.132-.113-.123-.134-.11-.148-.092-.165-.083-.182-.057-.204-.039-.221-.013-.23.004-.26.04-.273.026-.134.026-.13.035-.13.035-.121.035-.113.044-.117.044-.108.044-.1.053-.104.048-.095.057-.091.061-.087.057-.082.07-.078.066-.074.07-.069.075-.065.079-.061.079-.056.083-.056.088-.048.092-.043.092-.039.097-.035.105-.035.101-.026.105-.022.114-.022.114-.017.118-.013.123-.004.127-.004.105.004.101.004.101.013.101.013.092.013.092.017.083.017.083.022.075.017.066.022.066.017.053.022.044.017.039.013.031.013.022.004-.167.911z"/><path id="E" d="M41.81 19.452h-.921l.066-.364v-.035l-.053.065-.061.061-.053.052-.061.048-.061.043-.057.035-.061.03-.061.03-.066.022-.061.017-.066.013-.066.013-.066.009-.061.004-.066.004h-.07l-.171-.013-.162-.035-.145-.056-.132-.074-.123-.095-.105-.113-.092-.121-.083-.139-.066-.148-.053-.156-.035-.16-.026-.169-.013-.169.004-.169.017-.169.031-.169.048-.191.061-.187.07-.169.083-.156.088-.148.097-.134.105-.117.11-.108.114-.095.123-.082.127-.074.127-.056.136-.043.132-.03.132-.022.136-.004.096.004.096.009.088.017.079.022.075.026.066.03.07.035.057.039.053.039.053.043.044.039.04.043.031.043.031.043.026.039.022.039.232-1.292h.903l-.75 4.307z"/><path id="F" d="M19.863 18.719l-.136.733h-.837l.022-.134.018-.121.013-.095.013-.048-.048.052-.053.052-.061.052-.07.043-.079.048-.083.039-.088.039-.092.035-.096.03-.097.022-.096.017-.096.013-.101.009-.092.004-.096-.013-.088-.013-.118-.026-.105-.035-.092-.043-.083-.048-.075-.052-.066-.061-.053-.065-.048-.065-.04-.069-.035-.069-.026-.074-.017-.074-.013-.074-.013-.078-.004-.069v-.074l.009-.13.022-.122.031-.113.044-.113.053-.104.061-.095.07-.091.079-.087.083-.074.092-.069.097-.061.101-.056.105-.043.11-.039.114-.026.118-.022h.004l.018-.004h.026l.035-.004.04-.009h.048l.048-.009.057-.004.057-.009.057-.004.061-.004.048-.009.057-.004h.048l.048-.004h.035.079l.079.004h.07.075l.061.004.044.004.035.004h.009l.009-.026.017-.056.018-.069.009-.065-.018-.069-.026-.069-.04-.056-.057-.052-.061-.039-.07-.03-.079-.022-.088-.004-.092-.004-.101-.004h-.101l-.11.004-.11.009-.105.009-.105.009-.105.013-.101.013-.096.017-.083.017-.083.013-.07.022-.061.022-.044.022-.039.017.237-.794.075-.026.07-.026.083-.026.079-.017.079-.013.088-.013.083-.013.092-.009.092-.004.096-.004.101-.004h.105.105.11l.114.004.118.004.092.004.101.017.105.022.105.03.101.039.101.048.101.056.092.061.083.074.075.078.066.087.048.1.035.108.018.108v.126l-.018.134-.333 1.735z"/><path id="G" d="M12.857 19.453h-.903l.754-4.324h1.574l.149 2.568 1.092-2.568h1.644l-.776 4.324h-.903l.574-3.231h-.04l-1.355 3.231h-1.022l-.004-.134-.026-.36-.026-.512-.035-.585-.035-.59-.026-.516-.026-.373-.004-.16h-.009-.022-.022l-.553 3.231z"/><path id="H" d="M36.632 19.453h.938l.333-1.874.013-.074.022-.069.018-.074.031-.074.031-.069.039-.074.044-.065.053-.061.061-.056.066-.052.079-.052.083-.039.096-.03.11-.026.114-.022.131-.004h.048.022.013l.149-.846-.092.004-.092.009-.083.017-.079.022-.075.03-.07.03-.066.035-.061.043-.061.043-.057.048-.053.052-.053.052-.053.056-.048.061-.048.061-.048.065.101-.594h-.934l-.623 3.526z"/><path id="I" d="M27.818 19.453h.938.013l.32-1.874.013-.074.018-.069.018-.069.022-.065.026-.065.035-.061.04-.061.048-.056.053-.048.057-.052.075-.039.079-.035.097-.03.101-.026.114-.017.127-.009h.013l.013.004h.018.018l.013.004.013.004.013.004.004-.013.009-.039.013-.061.018-.074.026-.087.022-.091.031-.091.031-.091.026-.065.031-.061.035-.065.031-.056.031-.048.022-.039.018-.022.009-.013h-.004-.013l-.018-.004-.022-.004h-.022l-.026-.004h-.026-.022l-.105.004-.092.009-.088.017-.079.022-.075.026-.07.035-.066.03-.057.039-.057.043-.053.048-.053.052-.048.056-.053.056-.044.061-.048.065-.053.065.118-.594h-.951l-.623 3.526z"/></defs></svg>