<svg xmlns="http://www.w3.org/2000/svg" width="54" height="34" fill="none" xmlns:v="https://vecta.io/nano"><path d="M52.129 0H1.797A1.8 1.8 0 0 0 0 1.797v30.108a1.8 1.8 0 0 0 1.797 1.797h50.332c.992 0 1.797-.805 1.797-1.797V1.797C53.926.805 53.121 0 52.129 0z" fill="#f9f9f9"/><path d="M24.816 21.913H22.18l1.647-10.116h2.635l-1.647 10.116zm-4.85-10.116l-2.511 6.956-.297-1.496-.89-4.549a1.12 1.12 0 0 0-1.247-.911h-4.153l-.047.172a9.81 9.81 0 0 1 2.756 1.156l2.287 8.801h2.747l4.175-10.129h-2.82zm20.718 10.129h2.421L40.998 11.81h-2.12a1.21 1.21 0 0 0-1.217.752l-3.929 9.364h2.747l.55-1.5h3.349l.305 1.5zm-2.898-3.577l1.384-3.788.778 3.788h-2.163zm-3.847-4.118l.378-2.193a7.65 7.65 0 0 0-2.369-.43c-1.311 0-4.433.58-4.433 3.358 0 2.614 3.646 2.644 3.646 4.02s-3.268 1.126-4.347.258l-.391 2.274a7.37 7.37 0 0 0 2.971.572c1.797 0 4.51-.933 4.51-3.465 0-2.631-3.676-2.876-3.676-4.02s2.584-.997 3.71-.374z" fill="#0066b2"/><path d="M17.159 17.257l-.89-4.549a1.12 1.12 0 0 0-.442-.704c-.232-.17-.52-.244-.805-.207h-4.153l-.047.172a10.2 10.2 0 0 1 3.908 1.96c1.09.875 1.928 2.023 2.429 3.328z" fill="#f9a533"/></svg>