<svg width="89" height="82" viewBox="0 0 89 82" fill="none" xmlns="http://www.w3.org/2000/svg">
<rect x="2.08081" y="2.11816" width="85.3669" height="60.2803" rx="3.5" stroke="#05C2DF"/>
<line x1="1.58081" y1="52.3446" x2="87.9477" y2="52.3446" stroke="#05C2DF"/>
<line x1="40.5215" y1="57.6107" x2="48.4741" y2="57.6107" stroke="#05C2DF" stroke-linecap="round"/>
<rect x="27.3555" y="62.9198" width="34.284" height="5.22378" stroke="#05C2DF"/>
<rect x="16.8235" y="74.4098" width="55.3491" height="5.22378" stroke="#05C2DF"/>
<path d="M18.1525 73.8884L26.9927 68.6647H62.0034L70.8436 73.8884H18.1525Z" stroke="#05C2DF"/>
<path d="M25.0804 13.9773L33.0804 36.341H33.1713L41.1713 13.9773H41.944L33.6258 37.2501H32.6258L24.3077 13.9773H25.0804ZM46.6173 37.2501V13.9773H53.4355C54.7385 13.9773 55.89 14.2538 56.89 14.8069C57.8976 15.3599 58.6855 16.1326 59.2537 17.1251C59.8294 18.1175 60.1173 19.2804 60.1173 20.6137C60.1173 21.9319 59.8294 23.0872 59.2537 24.0796C58.6855 25.0645 57.8976 25.8334 56.89 26.3864C55.89 26.9319 54.7385 27.2046 53.4355 27.2046H46.981V26.4773H53.4355C54.6022 26.4773 55.6325 26.2349 56.5264 25.7501C57.4204 25.2652 58.1211 24.5834 58.6287 23.7046C59.1363 22.8258 59.39 21.7955 59.39 20.6137C59.39 19.4243 59.1363 18.3864 58.6287 17.5001C58.1211 16.6137 57.4204 15.9281 56.5264 15.4432C55.6325 14.9508 54.6022 14.7046 53.4355 14.7046H47.3446V37.2501H46.6173ZM55.481 26.6592L61.2082 37.2501H60.39L54.6628 26.6592H55.481Z" fill="#05C2DF"/>
</svg>
