<svg width="107" height="78" viewBox="0 0 107 78" fill="none" xmlns="http://www.w3.org/2000/svg">
<circle cx="53.6542" cy="39.1371" r="12.8303" stroke="#05C2DF"/>
<path d="M67.3171 25.5079C71.735 28.4304 74.6488 33.4434 74.6488 39.137C74.6488 44.8306 71.735 49.8436 67.3171 52.7661" stroke="#05C2DF"/>
<path d="M67.4854 52.6341L73.484 60.299" stroke="#05C2DF"/>
<path d="M73.3158 60.4656C80.3441 55.8563 84.9798 47.9501 84.9798 38.9704C84.9798 29.9908 80.3441 22.0845 73.3158 17.4753L67.3171 25.6401" stroke="#05C2DF"/>
<path d="M79.9823 9.47711C89.4204 15.73 95.6454 26.4556 95.6454 38.6372C95.6454 50.8189 89.4204 61.5444 79.9823 67.7973" stroke="#05C2DF"/>
<path d="M79.9825 9.64372L85.9812 1.14563C98.2306 9.22078 106.31 23.0721 106.31 38.8038C106.31 54.5356 98.2306 68.3869 85.9812 76.462L79.8159 67.7973" stroke="#05C2DF"/>
<path d="M39.9894 25.5079C35.5716 28.4304 32.6577 33.4434 32.6577 39.137C32.6577 44.8306 35.5716 49.8436 39.9894 52.7661" stroke="#05C2DF"/>
<path d="M39.825 52.6341L33.8263 60.299" stroke="#05C2DF"/>
<path d="M33.9907 60.4656C26.9624 55.8563 22.3267 47.9501 22.3267 38.9704C22.3267 29.9908 26.9624 22.0845 33.9907 17.4753L39.9894 25.6401" stroke="#05C2DF"/>
<path d="M27.328 9.47711C17.8899 15.73 11.6649 26.4556 11.6649 38.6372C11.6649 50.8189 17.8899 61.5444 27.328 67.7973" stroke="#05C2DF"/>
<path d="M27.3276 9.64372L21.329 1.14563C9.07957 9.22078 1.00022 23.0721 1.00022 38.8038C1.00022 54.5356 9.07957 68.3869 21.329 76.462L27.4943 67.7973" stroke="#05C2DF"/>
</svg>
