<svg width="80" height="80" viewBox="0 0 80 80" fill="none" xmlns="http://www.w3.org/2000/svg">
<path d="M36.0137 27.0792V20.0688M52.646 34.3644H60.756M22.9553 44.8111H27.3539M44.9484 59.519V52.5087" stroke="#05C2DF"/>
<rect x="27.7166" y="27.4417" width="24.567" height="24.567" rx="3.5" stroke="#05C2DF"/>
<rect x="32.3901" y="32.1152" width="15.4948" height="15.4948" rx="3.5" stroke="#05C2DF"/>
<rect x="60.9812" y="0.500122" width="18.5189" height="18.5189" rx="3.5" stroke="#05C2DF"/>
<rect x="65.3796" y="4.89874" width="9.99656" height="9.99656" rx="2.5" stroke="#05C2DF"/>
<rect x="0.5" y="0.500122" width="18.5189" height="18.5189" rx="3.5" stroke="#05C2DF"/>
<rect x="4.89868" y="4.89874" width="9.99656" height="9.99656" rx="2.5" stroke="#05C2DF"/>
<rect x="1.32471" y="60.4314" width="18.5189" height="18.5189" rx="3.5" stroke="#05C2DF"/>
<rect x="5.72339" y="64.83" width="9.99656" height="9.99656" rx="2.5" stroke="#05C2DF"/>
<rect x="60.9812" y="60.4314" width="18.5189" height="18.5189" rx="3.5" stroke="#05C2DF"/>
<rect x="65.3796" y="64.83" width="9.99656" height="9.99656" rx="2.5" stroke="#05C2DF"/>
<path d="M45.2234 27.0792V9.89703H60.3437" stroke="#05C2DF"/>
<path d="M27.354 37.1135L9.89697 37.1135L9.89698 19.519" stroke="#05C2DF"/>
<path d="M52.7834 40.9623L69.9656 40.9623L69.9656 59.9314" stroke="#05C2DF"/>
<path d="M36.5635 52.5087L36.5635 69.6909L20.2061 69.6908" stroke="#05C2DF"/>
<circle cx="36.0138" cy="17.5946" r="1.97423" stroke="#05C2DF"/>
<circle cx="63.2303" cy="34.3644" r="1.97423" stroke="#05C2DF"/>
<circle cx="20.6185" cy="44.8111" r="1.97423" stroke="#05C2DF"/>
<circle cx="44.8109" cy="61.8558" r="1.97423" stroke="#05C2DF"/>
</svg>
