<svg width="16" height="11" viewBox="0 0 16 11" fill="none" xmlns="http://www.w3.org/2000/svg">
<path d="M6.21616 11C5.58076 11 4.92674 10.9529 4.2688 10.8586C3.10998 10.6923 1.93692 10.1378 1.60498 9.97183L0.734375 9.53644L1.67695 9.25292C2.7073 8.94304 3.33407 8.75078 4.10995 8.44972C3.33306 8.10559 2.73432 7.48656 2.4461 6.68633L2.22682 6.07745L2.40663 6.10257C2.23612 5.94538 2.10149 5.78582 1.99712 5.64073C1.62594 5.12505 1.42942 4.49494 1.47124 3.95497L1.51249 3.4235L1.86035 3.54675C1.71361 3.29327 1.60756 3.02257 1.54523 2.73884C1.39332 2.0469 1.52045 1.31178 1.90329 0.668958L2.2063 0.160153L2.61156 0.605383C3.89325 2.01367 5.51663 2.84907 7.44337 3.09363C7.36467 2.59743 7.42364 2.11857 7.61881 1.68934C7.84605 1.18956 8.2503 0.765756 8.7875 0.463672C9.38412 0.128263 10.1076 -0.0342637 10.8248 0.00603471C11.5856 0.048794 12.2764 0.309554 12.825 0.760629C13.093 0.696952 13.2904 0.628967 13.5572 0.537091C13.7177 0.481822 13.8998 0.419067 14.1276 0.347289L14.967 0.0827349L14.4196 1.51276C14.4557 1.50999 14.4929 1.50764 14.5318 1.5061L15.4282 1.46898L14.8984 2.13129C14.868 2.16923 14.8603 2.17999 14.8495 2.19486C14.8068 2.25372 14.7537 2.32693 14.0265 3.21514C13.8444 3.43755 13.7535 3.72722 13.7704 4.03095C13.8349 5.18514 13.6801 6.22941 13.31 7.13464C12.96 7.99106 12.4177 8.72586 11.6982 9.31865C10.8078 10.052 9.67256 10.5542 8.32372 10.8109C7.66208 10.9368 6.95157 11 6.21616 11Z" fill="white"/>
</svg>
