<?xml version="1.0" standalone="no"?>
<!DOCTYPE svg PUBLIC "-//W3C//DTD SVG 20010904//EN"
 "http://www.w3.org/TR/2001/REC-SVG-20010904/DTD/svg10.dtd">
<svg version="1.0" xmlns="http://www.w3.org/2000/svg"
 width="544.000000pt" height="544.000000pt" viewBox="0 0 544.000000 544.000000"
 preserveAspectRatio="xMidYMid meet">
<metadata>
Created by potrace 1.14, written by Peter Selinger 2001-2017
</metadata>
<g transform="translate(0.000000,544.000000) scale(0.100000,-0.100000)"
fill="#000000" stroke="none">
<path d="M0 2725 c0 -1405 3 -2555 6 -2555 4 0 19 12 34 28 14 15 129 126 254
247 125 121 278 270 340 330 232 225 591 573 671 650 45 44 183 178 306 297
123 120 289 280 369 358 248 241 588 571 696 675 57 55 203 197 325 315 122
118 257 249 299 290 81 79 558 542 665 645 250 242 576 558 671 650 125 122
509 494 592 574 l53 51 -1041 0 -1040 0 -795 -795 c-437 -437 -797 -795 -799
-795 -4 0 -8 58 -6 100 4 107 4 130 0 130 -3 0 -4 28 -2 62 1 35 2 110 1 168
0 58 0 114 0 125 5 89 5 125 0 125 -3 0 -3 20 1 45 4 25 4 48 0 50 -4 3 -4 22
0 44 4 22 4 45 -1 52 -4 7 -5 17 -3 21 3 5 5 29 4 53 -1 63 -1 62 -1 150 0 44
0 89 1 100 0 11 2 44 3 73 1 28 0 52 -3 52 -3 0 -4 28 -2 62 1 35 2 79 2 98
-1 19 -1 45 -1 58 l1 22 -800 0 -800 0 0 -2555z"/>
<path d="M2560 1920 l-480 -480 640 -640 640 -640 955 0 c525 0 955 2 955 5 0
3 -502 507 -1115 1120 l-1115 1115 -480 -480z"/>
</g>
</svg>
