<svg width="20" height="53" viewBox="0 0 20 53" fill="none" xmlns="http://www.w3.org/2000/svg">
<mask id="path-1-outside-1_1_141" maskUnits="userSpaceOnUse" x="-1" y="-1" width="22" height="55" fill="black">
<rect fill="white" x="-1" y="-1" width="22" height="55"/>
<path d="M19.8295 0.636362V53H13.4886V7.28409H13.1818L0.397727 15.7727V9.32954L13.4886 0.636362H19.8295Z"/>
</mask>
<path d="M19.8295 0.636362H20.8295V-0.363638H19.8295V0.636362ZM19.8295 53V54H20.8295V53H19.8295ZM13.4886 53H12.4886V54H13.4886V53ZM13.4886 7.28409H14.4886V6.28409H13.4886V7.28409ZM13.1818 7.28409V6.28409H12.8801L12.6287 6.45102L13.1818 7.28409ZM0.397727 15.7727H-0.602273V17.6371L0.950889 16.6058L0.397727 15.7727ZM0.397727 9.32954L-0.15547 8.49649L-0.602273 8.7932V9.32954H0.397727ZM13.4886 0.636362V-0.363638H13.1868L12.9354 -0.196688L13.4886 0.636362ZM18.8295 0.636362V53H20.8295V0.636362H18.8295ZM19.8295 52H13.4886V54H19.8295V52ZM14.4886 53V7.28409H12.4886V53H14.4886ZM13.4886 6.28409H13.1818V8.28409H13.4886V6.28409ZM12.6287 6.45102L-0.155434 14.9396L0.950889 16.6058L13.735 8.11716L12.6287 6.45102ZM1.39773 15.7727V9.32954H-0.602273V15.7727H1.39773ZM0.950925 10.1626L14.0418 1.46941L12.9354 -0.196688L-0.15547 8.49649L0.950925 10.1626ZM13.4886 1.63636H19.8295V-0.363638H13.4886V1.63636Z" fill="#05C2DF" mask="url(#path-1-outside-1_1_141)"/>
</svg>
