<svg width="34" height="54" viewBox="0 0 34 54" fill="none" xmlns="http://www.w3.org/2000/svg">
<mask id="path-1-outside-1_1_145" maskUnits="userSpaceOnUse" x="-1" y="-1" width="36" height="56" fill="black">
<rect fill="white" x="-1" y="-1" width="36" height="56"/>
<path d="M0.420455 54V49.3977L17.7045 30.4773C19.733 28.2614 21.4034 26.3352 22.7159 24.6989C24.0284 23.0455 25 21.4943 25.6307 20.0455C26.2784 18.5795 26.6023 17.0455 26.6023 15.4432C26.6023 13.6023 26.1591 12.0085 25.2727 10.6619C24.4034 9.31534 23.2102 8.27557 21.6932 7.54261C20.1761 6.80966 18.4716 6.44318 16.5795 6.44318C14.5682 6.44318 12.8125 6.86079 11.3125 7.69602C9.82955 8.5142 8.67898 9.66477 7.8608 11.1477C7.05966 12.6307 6.65909 14.3693 6.65909 16.3636H0.625C0.625 13.2955 1.33239 10.6023 2.74716 8.28409C4.16193 5.96591 6.08807 4.15909 8.52557 2.86363C10.9801 1.56818 13.733 0.920453 16.7841 0.920453C19.8523 0.920453 22.571 1.56818 24.9403 2.86363C27.3097 4.15909 29.1676 5.90625 30.5142 8.10511C31.8608 10.304 32.5341 12.75 32.5341 15.4432C32.5341 17.3693 32.1847 19.2528 31.4858 21.0938C30.804 22.9176 29.6108 24.9545 27.9062 27.2045C26.2188 29.4375 23.875 32.1648 20.875 35.3864L9.11364 47.9659V48.375H33.4545V54H0.420455Z"/>
</mask>
<path d="M0.420455 54H-0.579545V55H0.420455V54ZM0.420455 49.3977L-0.317858 48.7233L-0.579545 49.0097V49.3977H0.420455ZM17.7045 30.4773L16.9669 29.8021L16.9662 29.8028L17.7045 30.4773ZM22.7159 24.6989L23.496 25.3246L23.4991 25.3206L22.7159 24.6989ZM25.6307 20.0455L24.716 19.6413L24.7138 19.6463L25.6307 20.0455ZM25.2727 10.6619L24.4326 11.2043L24.4374 11.2117L25.2727 10.6619ZM21.6932 7.54261L22.1282 6.6422H22.1282L21.6932 7.54261ZM11.3125 7.69602L11.7956 8.57161L11.799 8.56971L11.3125 7.69602ZM7.8608 11.1477L6.98518 10.6646L6.98098 10.6724L7.8608 11.1477ZM6.65909 16.3636V17.3636H7.65909V16.3636H6.65909ZM0.625 16.3636H-0.375V17.3636H0.625V16.3636ZM2.74716 8.28409L3.60075 8.80503H3.60075L2.74716 8.28409ZM8.52557 2.86363L8.05881 1.97924L8.05626 1.9806L8.52557 2.86363ZM24.9403 2.86363L25.4201 1.98622L24.9403 2.86363ZM31.4858 21.0938L30.5509 20.7388L30.5491 20.7436L31.4858 21.0938ZM27.9062 27.2045L27.1092 26.6007L27.1084 26.6016L27.9062 27.2045ZM20.875 35.3864L21.6055 36.0693L21.6068 36.0679L20.875 35.3864ZM9.11364 47.9659L8.38317 47.283L8.11364 47.5712V47.9659H9.11364ZM9.11364 48.375H8.11364V49.375H9.11364V48.375ZM33.4545 48.375H34.4545V47.375H33.4545V48.375ZM33.4545 54V55H34.4545V54H33.4545ZM1.42045 54V49.3977H-0.579545V54H1.42045ZM1.15877 50.0722L18.4429 31.1517L16.9662 29.8028L-0.317858 48.7233L1.15877 50.0722ZM18.4422 31.1525C20.4796 28.9267 22.1655 26.9834 23.496 25.3245L21.9358 24.0732C20.6414 25.6871 18.9863 27.596 16.9669 29.8021L18.4422 31.1525ZM23.4991 25.3206C24.8488 23.6204 25.8728 21.9947 26.5476 20.4446L24.7138 19.6463C24.1272 20.994 23.208 22.4705 21.9327 24.0771L23.4991 25.3206ZM26.5454 20.4496C27.2493 18.8564 27.6023 17.1847 27.6023 15.4432H25.6023C25.6023 16.9062 25.3075 18.3027 24.716 19.6413L26.5454 20.4496ZM27.6023 15.4432C27.6023 13.4354 27.1165 11.6443 26.108 10.1121L24.4374 11.2117C25.2017 12.3728 25.6023 13.7692 25.6023 15.4432H27.6023ZM26.1129 10.1196C25.1388 8.61064 23.8018 7.45077 22.1282 6.6422L21.2582 8.44303C22.6187 9.10036 23.6681 10.02 24.4326 11.2043L26.1129 10.1196ZM22.1282 6.6422C20.4597 5.83604 18.6036 5.44318 16.5795 5.44318V7.44318C18.3396 7.44318 19.8926 7.78328 21.2582 8.44303L22.1282 6.6422ZM16.5795 5.44318C14.4273 5.44318 12.4985 5.89107 10.826 6.82233L11.799 8.56971C13.1265 7.83052 14.7091 7.44318 16.5795 7.44318V5.44318ZM10.8294 6.82044C9.18122 7.7298 7.89457 9.01644 6.98522 10.6646L8.73637 11.6308C9.46338 10.3131 10.4779 9.29861 11.7956 8.5716L10.8294 6.82044ZM6.98098 10.6724C6.08768 12.326 5.65909 14.2338 5.65909 16.3636H7.65909C7.65909 14.5049 8.03164 12.9354 8.74062 11.623L6.98098 10.6724ZM6.65909 15.3636H0.625V17.3636H6.65909V15.3636ZM1.625 16.3636C1.625 13.4548 2.2937 10.9467 3.60075 8.80503L1.89357 7.76315C0.371068 10.2578 -0.375 13.1361 -0.375 16.3636H1.625ZM3.60075 8.80503C4.92058 6.64241 6.71287 4.95948 8.99487 3.74667L8.05626 1.9806C5.46327 3.35869 3.40328 5.2894 1.89357 7.76315L3.60075 8.80503ZM8.99233 3.74802C11.2891 2.53583 13.8791 1.92045 16.7841 1.92045V-0.0795479C13.5868 -0.0795479 10.6711 0.600529 8.05881 1.97925L8.99233 3.74802ZM16.7841 1.92045C19.7077 1.92045 22.2574 2.53644 24.4606 3.74105L25.4201 1.98622C22.8846 0.59992 19.9968 -0.0795479 16.7841 -0.0795479V1.92045ZM24.4606 3.74105C26.6842 4.95684 28.4104 6.58459 29.6614 8.62736L31.367 7.58286C29.9248 5.22791 27.9351 3.36133 25.4201 1.98622L24.4606 3.74105ZM29.6614 8.62736C30.9073 10.6619 31.5341 12.9257 31.5341 15.4432H33.5341C33.5341 12.5743 32.8142 9.94608 31.367 7.58286L29.6614 8.62736ZM31.5341 15.4432C31.5341 17.2453 31.2077 19.0087 30.5509 20.7388L32.4207 21.4487C33.1616 19.497 33.5341 17.4933 33.5341 15.4432H31.5341ZM30.5491 20.7436C29.9128 22.4458 28.779 24.3965 27.1092 26.6007L28.7033 27.8084C30.4426 25.5125 31.6952 23.3895 32.4225 21.4439L30.5491 20.7436ZM27.1084 26.6016C25.4498 28.7965 23.1314 31.4959 20.1432 34.7049L21.6068 36.0679C24.6186 32.8336 26.9877 30.0785 28.7041 27.8075L27.1084 26.6016ZM20.1445 34.7034L8.38317 47.283L9.8441 48.6489L21.6055 36.0693L20.1445 34.7034ZM8.11364 47.9659V48.375H10.1136V47.9659H8.11364ZM9.11364 49.375H33.4545V47.375H9.11364V49.375ZM32.4545 48.375V54H34.4545V48.375H32.4545ZM33.4545 53H0.420455V55H33.4545V53Z" fill="#05C2DF" mask="url(#path-1-outside-1_1_145)"/>
</svg>
