<svg width="36" height="55" viewBox="0 0 36 55" fill="none" xmlns="http://www.w3.org/2000/svg">
<mask id="path-1-outside-1_1_149" maskUnits="userSpaceOnUse" x="-1" y="-1" width="38" height="57" fill="black">
<rect fill="white" x="-1" y="-1" width="38" height="57"/>
<path d="M18.1136 54.7159C14.7386 54.7159 11.7301 54.1364 9.08807 52.9773C6.46307 51.8182 4.375 50.2074 2.82386 48.1449C1.28977 46.0653 0.454546 43.6534 0.318182 40.9091H6.76136C6.89773 42.5966 7.47727 44.054 8.5 45.2812C9.52273 46.4915 10.8608 47.429 12.5142 48.0938C14.1676 48.7585 16 49.0909 18.0114 49.0909C20.2614 49.0909 22.2557 48.6989 23.9943 47.9148C25.733 47.1307 27.0966 46.0398 28.0852 44.642C29.0739 43.2443 29.5682 41.625 29.5682 39.7841C29.5682 37.858 29.0909 36.1619 28.1364 34.696C27.1818 33.2131 25.7841 32.054 23.9432 31.2188C22.1023 30.3835 19.8523 29.9659 17.1932 29.9659H13V24.3409H17.1932C19.2727 24.3409 21.0966 23.9659 22.6648 23.2159C24.25 22.4659 25.4858 21.4091 26.3722 20.0455C27.2756 18.6818 27.7273 17.0795 27.7273 15.2386C27.7273 13.4659 27.3352 11.9233 26.5511 10.6108C25.767 9.29829 24.6591 8.27557 23.2273 7.54261C21.8125 6.80966 20.142 6.44318 18.2159 6.44318C16.4091 6.44318 14.7045 6.77557 13.1023 7.44034C11.517 8.08807 10.2216 9.03409 9.21591 10.2784C8.21023 11.5057 7.66477 12.9886 7.57955 14.7273H1.44318C1.54545 11.983 2.37216 9.57954 3.9233 7.51704C5.47443 5.4375 7.50284 3.81818 10.0085 2.65909C12.5313 1.5 15.3011 0.920453 18.3182 0.920453C21.5568 0.920453 24.3352 1.5767 26.6534 2.8892C28.9716 4.18466 30.7528 5.89773 31.9972 8.02841C33.2415 10.1591 33.8636 12.4602 33.8636 14.9318C33.8636 17.8807 33.0881 20.3949 31.5369 22.4744C30.0028 24.554 27.9148 25.9943 25.2727 26.7955V27.2045C28.5795 27.75 31.1619 29.1562 33.0199 31.4233C34.8778 33.6733 35.8068 36.4602 35.8068 39.7841C35.8068 42.6307 35.0313 45.1875 33.4801 47.4545C31.946 49.7045 29.8494 51.4773 27.1903 52.7727C24.5313 54.0682 21.5057 54.7159 18.1136 54.7159Z"/>
</mask>
<path d="M9.08807 52.9773L8.68414 53.8921L8.68632 53.893L9.08807 52.9773ZM2.82386 48.1449L2.01911 48.7386L2.02466 48.7459L2.82386 48.1449ZM0.318182 40.9091V39.9091H-0.732741L-0.680586 40.9587L0.318182 40.9091ZM6.76136 40.9091L7.75811 40.8285L7.68382 39.9091H6.76136V40.9091ZM8.5 45.2812L7.73176 45.9214L7.73621 45.9267L8.5 45.2812ZM12.5142 48.0938L12.1412 49.0216L12.5142 48.0938ZM28.0852 44.642L27.2688 44.0646L28.0852 44.642ZM28.1364 34.696L27.2955 35.2373L27.2984 35.2417L28.1364 34.696ZM23.9432 31.2188L23.53 32.1294L23.9432 31.2188ZM13 29.9659H12V30.9659H13V29.9659ZM13 24.3409V23.3409H12V24.3409H13ZM22.6648 23.2159L22.2371 22.312L22.2333 22.3138L22.6648 23.2159ZM26.3722 20.0455L25.5385 19.4931L25.5337 19.5005L26.3722 20.0455ZM26.5511 10.6108L27.4096 10.0979V10.0979L26.5511 10.6108ZM23.2273 7.54261L22.7673 8.43054L22.7716 8.43276L23.2273 7.54261ZM13.1023 7.44034L13.4805 8.36606L13.4855 8.364L13.1023 7.44034ZM9.21591 10.2784L9.98941 10.9122L9.99365 10.907L9.21591 10.2784ZM7.57955 14.7273V15.7273H8.53173L8.57835 14.7762L7.57955 14.7273ZM1.44318 14.7273L0.443876 14.69L0.405221 15.7273H1.44318V14.7273ZM3.9233 7.51704L4.72251 8.1181L4.72487 8.11494L3.9233 7.51704ZM10.0085 2.65909L9.59102 1.75041L9.58868 1.75149L10.0085 2.65909ZM26.6534 2.8892L26.1607 3.75942L26.1656 3.76215L26.6534 2.8892ZM31.9972 8.02841L31.1336 8.53271V8.53271L31.9972 8.02841ZM31.5369 22.4744L30.7353 21.8765L30.7322 21.8808L31.5369 22.4744ZM25.2727 26.7955L24.9825 25.8385L24.2727 26.0537V26.7955H25.2727ZM25.2727 27.2045H24.2727V28.0531L25.11 28.1912L25.2727 27.2045ZM33.0199 31.4233L32.2464 32.0572L32.2488 32.06L33.0199 31.4233ZM33.4801 47.4545L32.6548 46.8899L32.6539 46.8912L33.4801 47.4545ZM27.1903 52.7727L27.6283 53.6717L27.1903 52.7727ZM18.1136 53.7159C14.8537 53.7159 11.9855 53.1564 9.48982 52.0615L8.68632 53.893C11.4747 55.1163 14.6236 55.7159 18.1136 55.7159V53.7159ZM9.492 52.0625C7.00554 50.9646 5.0603 49.4549 3.62307 47.5438L2.02466 48.7459C3.6897 50.9599 5.9206 52.6718 8.68414 53.8921L9.492 52.0625ZM3.62859 47.5512C2.21881 45.6402 1.4442 43.4204 1.31695 40.8595L-0.680586 40.9587C-0.535109 43.8865 0.360734 46.4905 2.01914 48.7385L3.62859 47.5512ZM0.318182 41.9091H6.76136V39.9091H0.318182V41.9091ZM5.76461 40.9896C5.91654 42.8698 6.56885 44.5259 7.73178 45.9214L9.26822 44.6411C8.3857 43.582 7.87891 42.3234 7.75811 40.8285L5.76461 40.9896ZM7.73621 45.9267C8.87675 47.2764 10.3555 48.3036 12.1412 49.0216L12.8872 47.1659C11.366 46.5543 10.1687 45.7066 9.26379 44.6358L7.73621 45.9267ZM12.1412 49.0216C13.9275 49.7398 15.8885 50.0909 18.0114 50.0909V48.0909C16.1115 48.0909 14.4078 47.7773 12.8872 47.1659L12.1412 49.0216ZM18.0114 50.0909C20.3779 50.0909 22.5164 49.6783 24.4054 48.8264L23.5832 47.0032C21.9949 47.7195 20.1448 48.0909 18.0114 48.0909V50.0909ZM24.4054 48.8264C26.2875 47.9776 27.7987 46.7789 28.9016 45.2195L27.2688 44.0646C26.3945 45.3007 25.1784 46.2838 23.5832 47.0032L24.4054 48.8264ZM28.9016 45.2195C30.0189 43.64 30.5682 41.8154 30.5682 39.7841H28.5682C28.5682 41.4346 28.1289 42.8487 27.2688 44.0646L28.9016 45.2195ZM30.5682 39.7841C30.5682 37.6846 30.0452 35.7949 28.9744 34.1503L27.2984 35.2417C28.1366 36.529 28.5682 38.0314 28.5682 39.7841H30.5682ZM28.9772 34.1548C27.904 32.4875 26.3461 31.2109 24.3563 30.3081L23.53 32.1294C25.2221 32.8971 26.4596 33.9387 27.2955 35.2373L28.9772 34.1548ZM24.3564 30.3081C22.3516 29.3985 19.9519 28.9659 17.1932 28.9659V30.9659C19.7527 30.9659 21.853 31.3685 23.53 32.1294L24.3564 30.3081ZM17.1932 28.9659H13V30.9659H17.1932V28.9659ZM14 29.9659V24.3409H12V29.9659H14ZM13 25.3409H17.1932V23.3409H13V25.3409ZM17.1932 25.3409C19.3931 25.3409 21.3695 24.9439 23.0962 24.118L22.2333 22.3138C20.8237 22.9879 19.1524 23.3409 17.1932 23.3409V25.3409ZM23.0924 24.1198C24.8316 23.297 26.2153 22.1217 27.2106 20.5904L25.5337 19.5005C24.7563 20.6965 23.6684 21.6348 22.2371 22.312L23.0924 24.1198ZM27.2058 20.5977C28.231 19.0503 28.7273 17.2505 28.7273 15.2386H26.7273C26.7273 16.9086 26.3202 18.3133 25.5385 19.4932L27.2058 20.5977ZM28.7273 15.2386C28.7273 13.3145 28.3002 11.5888 27.4096 10.0979L25.6927 11.1236C26.3702 12.2578 26.7273 13.6173 26.7273 15.2386H28.7273ZM27.4096 10.0979C26.5242 8.61581 25.2727 7.46624 23.6829 6.65246L22.7716 8.43276C24.0455 9.08489 25.0099 9.98078 25.6927 11.1236L27.4096 10.0979ZM23.6873 6.6547C22.1036 5.83424 20.269 5.44318 18.2159 5.44318V7.44318C20.0151 7.44318 21.5214 7.78507 22.7673 8.43053L23.6873 6.6547ZM18.2159 5.44318C16.2831 5.44318 14.4478 5.79942 12.7191 6.51668L13.4855 8.364C14.9612 7.75172 16.535 7.44318 18.2159 7.44318V5.44318ZM12.724 6.51464C10.994 7.22151 9.55727 8.26518 8.43817 9.64982L9.99365 10.907C10.8859 9.803 12.0401 8.95462 13.4805 8.36605L12.724 6.51464ZM8.44243 9.64459C7.28763 11.0538 6.67539 12.7475 6.58075 14.6783L8.57835 14.7762C8.65415 13.2297 9.13282 11.9575 9.98939 10.9122L8.44243 9.64459ZM7.57955 13.7273H1.44318V15.7273H7.57955V13.7273ZM2.44249 14.7645C2.53767 12.2103 3.30209 10.0068 4.7225 8.1181L3.12409 6.91599C1.44222 9.15231 0.553235 11.7556 0.443876 14.69L2.44249 14.7645ZM4.72487 8.11494C6.17013 6.17734 8.06372 4.66054 10.4284 3.56669L9.58868 1.75149C6.94196 2.97582 4.77873 4.69766 3.12172 6.91915L4.72487 8.11494ZM10.426 3.56777C12.8068 2.47392 15.4326 1.92045 18.3182 1.92045V-0.0795479C15.1697 -0.0795479 12.2558 0.526079 9.59102 1.75041L10.426 3.56777ZM18.3182 1.92045C21.4212 1.92045 24.0221 2.54856 26.1607 3.75941L27.1461 2.019C24.6484 0.604849 21.6924 -0.0795479 18.3182 -0.0795479V1.92045ZM26.1656 3.76215C28.3402 4.97735 29.9862 6.56799 31.1336 8.53271L32.8607 7.52411C31.5194 5.22746 29.603 3.39196 27.1412 2.01626L26.1656 3.76215ZM31.1336 8.53271C32.2884 10.5101 32.8636 12.6371 32.8636 14.9318H34.8636C34.8636 12.2833 34.1945 9.8081 32.8607 7.52411L31.1336 8.53271ZM32.8636 14.9318C32.8636 17.696 32.1404 19.9928 30.7354 21.8765L32.3385 23.0723C34.0357 20.7969 34.8636 18.0654 34.8636 14.9318H32.8636ZM30.7322 21.8808C29.335 23.7748 27.4334 25.0953 24.9825 25.8385L25.5629 27.7524C28.3961 26.8933 30.6707 25.3332 32.3417 23.0681L30.7322 21.8808ZM24.2727 26.7955V27.2045H26.2727V26.7955H24.2727ZM25.11 28.1912C28.2138 28.7032 30.5645 30.0048 32.2464 32.0572L33.7933 30.7894C31.7594 28.3077 28.9453 26.7968 25.4355 26.2179L25.11 28.1912ZM32.2488 32.06C33.9384 34.1061 34.8068 36.6584 34.8068 39.7841H36.8068C36.8068 36.262 35.8173 33.2405 33.791 30.7866L32.2488 32.06ZM34.8068 39.7841C34.8068 42.4369 34.0878 44.7954 32.6548 46.8899L34.3054 48.0192C35.9747 45.5796 36.8068 42.8244 36.8068 39.7841H34.8068ZM32.6539 46.8912C31.2262 48.9852 29.2689 50.6477 26.7524 51.8737L27.6283 53.6717C30.4299 52.3068 32.6659 50.4239 34.3063 48.0179L32.6539 46.8912ZM26.7524 51.8737C24.2484 53.0936 21.3762 53.7159 18.1136 53.7159V55.7159C21.6351 55.7159 24.8141 55.0428 27.6283 53.6717L26.7524 51.8737Z" fill="#05C2DF" mask="url(#path-1-outside-1_1_149)"/>
</svg>
