<svg width="77.890625" height="16.582764" viewBox="0 0 77.8906 16.5828" fill="none" xmlns="http://www.w3.org/2000/svg" xmlns:xlink="http://www.w3.org/1999/xlink">
	<desc>
			Created with Pixso.
	</desc>
	<defs/>
	<path d="M33 0.185791L33 5.18579L38.5 5.18579L38.5 16.1858L43.5 11.6858L43.5 5.18579L49.5 5.18579L49.5 0.185791L33 0.185791Z" fill="#FFFFFF" fill-opacity="1.000000" fill-rule="evenodd"/>
	<path d="M5 0.185791L0 0.185791L0 16.1858L16.5 0.185791L10 0.185791L5 5.18579L5 0.185791ZM9.5 9.18579L6.5 12.1858L10.5 16.1858L16.5 16.1858L9.5 9.18579Z" fill="#FFFFFF" fill-opacity="1.000000" fill-rule="evenodd"/>
	<path d="M18 0.185791L18 16.1858L22.5 11.6858L28.5 11.6858L25 8.18579L22.5 8.18579L22.5 5.18579L24 5.18579L34.5 16.1858L34.5 10.1858L25 0.185791L18 0.185791Z" fill="#FFFFFF" fill-opacity="1.000000" fill-rule="evenodd"/>
	<path d="M53 0.185791L59 15.1858L64.5 0.185791" stroke="#05C2DF" stroke-opacity="1.000000" stroke-width="1.000000"/>
	<path d="M67 16.1858L67 8.68579L67 0.685791L72.5 0.685791C77.5 0.685791 79 8.68579 71.5 8.68579L67 8.68579M71.5 8.68579L77.5 16.1858" stroke="#05C2DF" stroke-opacity="1.000000" stroke-width="1.000000"/>
</svg>
