<svg width="80" height="80" viewBox="0 0 80 80" fill="none" xmlns="http://www.w3.org/2000/svg">
<path d="M36.0135 27.0796V20.0693M52.6458 34.3649H60.7558M22.9551 44.8116H27.3537M44.9482 59.5195V52.5092" stroke="#05C2DF"/>
<rect x="27.7168" y="27.4419" width="24.567" height="24.567" rx="3.5" stroke="#05C2DF"/>
<rect x="32.3896" y="32.1157" width="15.4948" height="15.4948" rx="3.5" stroke="#05C2DF"/>
<rect x="60.9814" y="0.500488" width="18.5189" height="18.5189" rx="3.5" stroke="#05C2DF"/>
<rect x="65.3799" y="4.89893" width="9.99656" height="9.99656" rx="2.5" stroke="#05C2DF"/>
<rect x="0.5" y="0.500488" width="18.5189" height="18.5189" rx="3.5" stroke="#05C2DF"/>
<rect x="4.89844" y="4.89893" width="9.99656" height="9.99656" rx="2.5" stroke="#05C2DF"/>
<rect x="1.3252" y="60.4316" width="18.5189" height="18.5189" rx="3.5" stroke="#05C2DF"/>
<rect x="5.72363" y="64.8306" width="9.99656" height="9.99656" rx="2.5" stroke="#05C2DF"/>
<rect x="60.9814" y="60.4316" width="18.5189" height="18.5189" rx="3.5" stroke="#05C2DF"/>
<rect x="65.3799" y="64.8306" width="9.99656" height="9.99656" rx="2.5" stroke="#05C2DF"/>
<path d="M45.2236 27.0796V9.89746H60.3439" stroke="#05C2DF"/>
<path d="M27.3535 37.1138L9.89648 37.1138L9.89649 19.5193" stroke="#05C2DF"/>
<path d="M52.7837 40.9629L69.9658 40.9629L69.9658 59.932" stroke="#05C2DF"/>
<path d="M36.5635 52.5093L36.5635 69.6914L20.2061 69.6914" stroke="#05C2DF"/>
<circle cx="36.0133" cy="17.5948" r="1.97423" stroke="#05C2DF"/>
<circle cx="63.2301" cy="34.3649" r="1.97423" stroke="#05C2DF"/>
<circle cx="20.6188" cy="44.8116" r="1.97423" stroke="#05C2DF"/>
<circle cx="44.8111" cy="61.8561" r="1.97423" stroke="#05C2DF"/>
</svg>
