<svg width="17.669922" height="17.669891" viewBox="0 0 17.6699 17.6699" fill="none" xmlns="http://www.w3.org/2000/svg" xmlns:xlink="http://www.w3.org/1999/xlink">
	<desc>
			Created with Pixso.
	</desc>
	<defs/>
	<path id="Vector" d="M1.11279 10.7859C1.06714 11.0516 1.0354 11.3206 1.0354 11.5959C1.0354 14.9451 4.58765 17.6699 8.86938 17.6699C13.1514 17.6699 16.6345 14.9451 16.6345 11.5959C16.6345 11.3206 16.6028 11.0516 16.5571 10.7859C17.2285 10.4126 17.6699 9.67529 17.6699 8.83496C17.6699 7.61685 16.7412 6.62622 15.5991 6.62622C15.0774 6.62622 14.5872 6.83487 14.2112 7.19867C12.9099 6.23105 11.1836 5.6156 9.27466 5.53796L10.2654 1.43927L12.4993 2.27301C12.532 3.46094 13.4426 4.41748 14.564 4.41748C15.7058 4.41748 16.6345 3.42685 16.6345 2.20874C16.6345 0.990631 15.7058 0 14.564 0C13.7676 0 13.083 0.486908 12.7368 1.19138L9.54443 0.000579834L8.20264 5.54831C6.39722 5.6691 4.70068 6.27521 3.45874 7.19867C3.08276 6.83487 2.59253 6.62622 2.0708 6.62622C0.928711 6.62622 0 7.61685 0 8.83496C0 9.67529 0.441406 10.4126 1.11279 10.7859ZM11.9756 8.83496C12.8318 8.83496 13.5286 9.57809 13.5286 10.4915C13.5286 11.4049 12.8318 12.1481 11.9756 12.1481C11.1191 12.1481 10.4224 11.4049 10.4224 10.4915C10.4224 9.57809 11.1191 8.83496 11.9756 8.83496ZM11.7542 13.713L12.1968 14.7105C11.2253 15.2018 10.0747 15.4612 8.86938 15.4612C7.66431 15.4612 6.44458 15.2018 5.47314 14.7105L5.91577 13.7129C7.58423 14.5552 10.0857 14.5552 11.7542 13.713ZM5.69434 8.83496C6.55078 8.83496 7.24731 9.57809 7.24731 10.4915C7.24731 11.4049 6.55078 12.1481 5.69434 12.1481C4.83813 12.1481 4.14136 11.4049 4.14136 10.4915C4.14136 9.57809 4.83813 8.83496 5.69434 8.83496Z" fill="#FFFFFF" fill-opacity="1.000000" fill-rule="nonzero"/>
</svg>
