<svg width="17" height="14" viewBox="0 0 17 14" fill="none" xmlns="http://www.w3.org/2000/svg">
<path d="M6.34214 13.8835C5.60701 13.8835 4.85034 13.8241 4.08914 13.705C2.74845 13.4951 1.39128 12.7953 1.00724 12.5858L0 12.0363L1.09051 11.6784C2.28257 11.2873 3.00771 11.0447 3.90536 10.6647C3.00655 10.2304 2.31383 9.44905 1.98037 8.43906L1.72668 7.67057L1.93472 7.70227C1.73744 7.50387 1.58168 7.3025 1.46093 7.11937C1.03149 6.46851 0.804132 5.67323 0.85251 4.9917L0.900239 4.32092L1.30269 4.47648C1.13292 4.15656 1.01022 3.81489 0.938111 3.45678C0.762369 2.58346 0.909447 1.65565 1.35237 0.844316L1.70294 0.202135L2.17181 0.764076C3.65465 2.54153 5.53282 3.59591 7.76195 3.90458C7.6709 3.27831 7.73912 2.67392 7.96493 2.13217C8.22783 1.50138 8.69552 0.966488 9.31704 0.585217C10.0073 0.161885 10.8444 -0.0432454 11.6741 0.00761663C12.5543 0.0615847 13.3535 0.390699 13.9883 0.960017C14.2982 0.879648 14.5266 0.793842 14.8353 0.677882C15.0211 0.608125 15.2317 0.52892 15.4952 0.438326L16.4664 0.104423L15.8331 1.90931C15.8749 1.90582 15.9179 1.90284 15.9629 1.9009L17 1.85405L16.387 2.68997C16.3519 2.73786 16.3429 2.75145 16.3305 2.77021C16.2811 2.8445 16.2196 2.93691 15.3782 4.05794C15.1676 4.33865 15.0624 4.70426 15.082 5.0876C15.1566 6.54435 14.9775 7.86237 14.5493 9.00488C14.1444 10.0858 13.5169 11.0132 12.6845 11.7614C11.6545 12.687 10.341 13.3208 8.78047 13.6448C8.01499 13.8038 7.19296 13.8835 6.34214 13.8835V13.8835Z" fill="white"/>
</svg>
