<svg width="24" height="18" viewBox="0 0 24 18" fill="none" xmlns="http://www.w3.org/2000/svg">
<path d="M9.13403 18.0003C8.12294 18.0003 7.08224 17.9254 6.03529 17.7753C4.19131 17.5107 2.32468 16.6284 1.79648 16.3643L0.411133 15.6714L1.911 15.2203C3.55055 14.7272 4.54791 14.4213 5.78252 13.9422C4.5463 13.3946 3.59354 12.4096 3.13491 11.1362L2.78599 10.1673L3.07212 10.2073C2.80079 9.95716 2.58655 9.70328 2.42047 9.47239C1.82984 8.65183 1.51713 7.64916 1.58366 6.78992L1.64931 5.94423L2.20284 6.14035C1.96933 5.737 1.80058 5.30624 1.7014 4.85476C1.45969 3.7537 1.66198 2.58396 2.27116 1.56106L2.75334 0.751425L3.39821 1.4599C5.4377 3.70084 8.0209 5.03016 11.0868 5.41932C10.9616 4.62975 11.0554 3.86776 11.366 3.18474C11.7276 2.38946 12.3708 1.71509 13.2257 1.2344C14.175 0.70068 15.3263 0.44206 16.4675 0.506185C17.6782 0.574226 18.7774 0.98916 19.6504 1.70693C20.0768 1.60561 20.3909 1.49743 20.8155 1.35123C21.0709 1.26328 21.3606 1.16342 21.7231 1.04921L23.0588 0.628234L22.1878 2.90377C22.2452 2.89936 22.3045 2.89561 22.3664 2.89316L23.7927 2.83409L22.9497 3.88799C22.9013 3.94836 22.889 3.9655 22.8719 3.98916C22.8039 4.08281 22.7194 4.19931 21.5622 5.61267C21.2725 5.96658 21.1278 6.42753 21.1548 6.91083C21.2573 8.74744 21.011 10.4091 20.4221 11.8496C19.8652 13.2124 19.0022 14.3816 17.8573 15.3249C16.4405 16.4919 14.634 17.2909 12.4877 17.6995C11.4349 17.8998 10.3042 18.0003 9.13403 18.0003Z" fill="white"/>
</svg>
