<svg width="24" height="19" viewBox="0 0 24 19" fill="none" xmlns="http://www.w3.org/2000/svg">
<path d="M9.14038 18.2777C8.12929 18.2777 7.08858 18.2028 6.04164 18.0527C4.19766 17.788 2.33103 16.9058 1.80283 16.6416L0.41748 15.9488L1.91735 15.4976C3.5569 15.0045 4.55425 14.6986 5.78886 14.2195C4.55265 13.672 3.59989 12.6869 3.14126 11.4136L2.79233 10.4447L3.07847 10.4846C2.80714 10.2345 2.5929 9.98062 2.42682 9.74974C1.83618 8.92917 1.52347 7.92651 1.59001 7.06727L1.65566 6.22157L2.20919 6.4177C1.97568 6.01435 1.80693 5.58359 1.70775 5.1321C1.46603 4.03105 1.66832 2.8613 2.27751 1.83841L2.75969 1.02877L3.40455 1.73724C5.44404 3.97818 8.02725 5.30751 11.0932 5.69666C10.9679 4.90709 11.0618 4.1451 11.3723 3.46208C11.7339 2.66681 12.3772 1.99244 13.232 1.51174C14.1814 0.978024 15.3327 0.719404 16.4738 0.783529C17.6845 0.851569 18.7838 1.2665 19.6568 1.98428C20.0831 1.88295 20.3973 1.77477 20.8218 1.62857C21.0773 1.54063 21.367 1.44077 21.7294 1.32655L23.0652 0.905578L22.1941 3.18111C22.2516 3.1767 22.3108 3.17295 22.3727 3.1705L23.7991 3.11144L22.956 4.16534C22.9077 4.22571 22.8954 4.24284 22.8782 4.2665C22.8103 4.36016 22.7257 4.47666 21.5685 5.89001C21.2788 6.24392 21.1342 6.70487 21.1611 7.18817C21.2637 9.02479 21.0173 10.6865 20.4285 12.1269C19.8715 13.4897 19.0085 14.659 17.8636 15.6022C16.4469 16.7692 14.6404 17.5682 12.494 17.9768C11.4412 18.1772 10.3106 18.2777 9.14038 18.2777Z" fill="white"/>
</svg>
