<svg width="18.932129" height="13.883484" viewBox="0 0 18.9321 13.8835" fill="none" xmlns="http://www.w3.org/2000/svg" xmlns:xlink="http://www.w3.org/1999/xlink">
	<desc>
			Created with Pixso.
	</desc>
	<defs/>
	<path id="Vector" d="M7.06299 13.8835C6.24414 13.8835 5.40161 13.8241 4.55396 13.705C3.06079 13.4951 1.54932 12.7953 1.12183 12.5858L0 12.0363L1.21436 11.6784C2.54199 11.2873 3.34961 11.0447 4.34912 10.6647C3.34814 10.2303 2.5769 9.44907 2.20532 8.43906L1.92285 7.67056L2.15454 7.70227C1.93481 7.50388 1.76147 7.30249 1.62695 7.11935C1.14868 6.46851 0.895508 5.67322 0.949463 4.9917L1.00244 4.32092L1.45068 4.47647C1.26172 4.15656 1.125 3.81488 1.04468 3.45679C0.849121 2.58347 1.0127 1.65564 1.5061 0.84433L1.89648 0.202148L2.4187 0.764069C4.07007 2.54153 6.16162 3.59592 8.64404 3.90457C8.54272 3.27832 8.61865 2.67392 8.87012 2.13217C9.16284 1.50137 9.68384 0.966492 10.376 0.585205C11.1445 0.161896 12.0769 -0.0432434 13.0007 0.00762939C13.9812 0.0615845 14.8711 0.390686 15.5781 0.960022C15.9233 0.879639 16.1775 0.793854 16.5212 0.677887C16.7283 0.608124 16.9626 0.528931 17.2563 0.438324L18.3379 0.104431L17.6326 1.9093C17.679 1.90582 17.7271 1.90283 17.7771 1.90091L18.9321 1.85403L18.2495 2.68997C18.2102 2.73785 18.2002 2.75143 18.1865 2.7702C18.1313 2.84451 18.063 2.93692 17.126 4.05795C16.8914 4.33865 16.7742 4.70425 16.7961 5.08762C16.8792 6.54434 16.6797 7.86237 16.2029 9.00488C15.752 10.0858 15.0532 11.0132 14.1262 11.7614C12.979 12.687 11.5164 13.3208 9.77832 13.6448C8.92578 13.8038 8.0105 13.8835 7.06299 13.8835Z" fill="#FFFFFF" fill-opacity="1.000000" fill-rule="nonzero"/>
</svg>
