<svg width="18" height="18" viewBox="0 0 18 18" fill="none" xmlns="http://www.w3.org/2000/svg">
<path d="M1.11273 10.7859C1.06716 11.0516 1.03535 11.3206 1.03535 11.5959C1.03535 14.9451 4.58761 17.6699 8.86946 17.6699C13.1513 17.6699 16.6346 14.9451 16.6346 11.5959C16.6346 11.3206 16.6027 11.0516 16.5572 10.7859C17.2285 10.4126 17.6699 9.67531 17.6699 8.83495C17.6699 7.61684 16.7412 6.62621 15.5992 6.62621C15.0774 6.62621 14.5871 6.83486 14.2111 7.19867C12.9099 6.23106 11.1835 5.6156 9.2747 5.53795L10.2653 1.43927L12.4992 2.27302C12.532 3.46093 13.4425 4.41748 14.5639 4.41748C15.7058 4.41748 16.6346 3.42685 16.6346 2.20874C16.6346 0.990625 15.7058 0 14.5639 0C13.7677 0 13.0831 0.4869 12.7368 1.19137L9.54432 0.000575192L8.20269 5.5483C6.39731 5.66909 4.70058 6.2752 3.45884 7.19867C3.08285 6.83486 2.59254 6.62621 2.07069 6.62621C0.928711 6.62621 0 7.61684 0 8.83495C0 9.67531 0.44137 10.4126 1.11273 10.7859ZM11.9755 8.83495C12.8318 8.83495 13.5285 9.5781 13.5285 10.4915C13.5285 11.4049 12.8318 12.1481 11.9755 12.1481C11.1192 12.1481 10.4225 11.4049 10.4225 10.4915C10.4225 9.5781 11.1192 8.83495 11.9755 8.83495ZM11.7541 13.713L12.1969 14.7105C11.2253 15.2018 10.0747 15.4612 8.86946 15.4612C7.66426 15.4612 6.44462 15.2018 5.47304 14.7105L5.91576 13.7129C7.58418 14.5552 10.0857 14.5552 11.7541 13.713ZM5.6944 8.83495C6.55072 8.83495 7.24742 9.5781 7.24742 10.4915C7.24742 11.4049 6.55072 12.1481 5.6944 12.1481C4.83809 12.1481 4.14138 11.4049 4.14138 10.4915C4.14138 9.5781 4.83809 8.83495 5.6944 8.83495Z" fill="white"/>
</svg>
