<svg width="236" height="260" viewBox="0 0 236 260" fill="none" xmlns="http://www.w3.org/2000/svg">
<mask id="path-1-outside-1_3495_3196" maskUnits="userSpaceOnUse" x="12.9898" y="4.50169" width="41.0976" height="253.315" fill="black">
<rect fill="white" x="12.9898" y="4.50169" width="41.0976" height="253.315"/>
<path d="M15.0919 17.1264L15.007 6.8995L50.0105 18.1322L50.118 31.0863L15.3057 42.8983L15.2209 32.6713L40.4521 24.8254L40.4498 24.5527L15.0919 17.1264ZM28.8483 15.1031L29.0078 34.3297L21.9172 34.3886L21.7576 15.162L28.8483 15.1031ZM15.3336 46.2604L50.2415 45.9707L50.3671 61.1066C50.3891 63.7656 50.0497 66.0014 49.3488 67.8141C48.648 69.6382 47.6481 71.0158 46.3489 71.9471C45.0499 72.8897 43.514 73.3684 41.7413 73.3831C40.4573 73.3938 39.2845 73.1194 38.223 72.56C37.1616 72.012 36.2688 71.2353 35.5445 70.2299C34.8316 69.2244 34.3332 68.0467 34.0492 66.6967L33.7084 66.6995C33.664 68.1999 33.2946 69.5667 32.6003 70.7998C31.9173 72.0328 30.9652 73.018 29.744 73.7554C28.5342 74.4927 27.1054 74.8682 25.4578 74.8819C23.5487 74.8977 21.8458 74.4118 20.3489 73.4242C18.8521 72.448 17.67 71.0486 16.8026 69.2262C15.9352 67.4038 15.4909 65.2256 15.4699 62.6916L15.3336 46.2604ZM22.9801 55.6745L23.0169 60.1062C23.0301 61.697 23.3355 62.8877 23.9329 63.6783C24.5418 64.4687 25.4314 64.859 26.6018 64.8493C27.42 64.8425 28.1116 64.6493 28.6767 64.2696C29.2417 63.8899 29.6691 63.3522 29.9588 62.6566C30.2486 61.9724 30.3894 61.1473 30.3814 60.1815L30.3435 55.6134L22.9801 55.6745ZM36.207 55.5648L36.2392 59.451C36.2461 60.2805 36.3829 61.0124 36.6495 61.6465C36.9161 62.2807 37.2952 62.7719 37.7867 63.1201C38.2897 63.4796 38.8992 63.6564 39.6151 63.6504C40.6946 63.6415 41.5152 63.2483 42.077 62.4709C42.6501 61.6934 42.9317 60.7137 42.9219 59.5319L42.8886 55.5093L36.207 55.5648ZM33.3341 111.994C29.4479 112.026 26.1633 111.298 23.4804 109.809C20.8089 108.319 18.775 106.296 17.3787 103.74C15.9938 101.183 15.2883 98.325 15.2621 95.166C15.2357 91.9843 15.8993 89.1037 17.2529 86.5242C18.618 83.956 20.6238 81.9052 23.2703 80.3718C25.9282 78.8497 29.1889 78.0726 33.0524 78.0406C36.9386 78.0083 40.2175 78.7312 42.8889 80.2091C45.5718 81.6982 47.6057 83.7155 48.9905 86.2609C50.3867 88.8176 51.0981 91.6868 51.1245 94.8685C51.1507 98.0275 50.487 100.897 49.1333 103.476C47.791 106.056 45.791 108.112 43.1332 109.646C40.4867 111.179 37.2203 111.962 33.3341 111.994ZM33.2532 102.244C35.3441 102.227 37.1031 101.934 38.5302 101.365C39.9688 100.808 41.0529 99.9863 41.7826 98.9007C42.5237 97.8263 42.8878 96.5051 42.8748 94.937C42.8617 93.3688 42.4758 92.0481 41.7168 90.9748C40.9694 89.9128 39.8718 89.1094 38.424 88.5646C36.9877 88.031 35.2241 87.7729 33.1333 87.7903C31.0425 87.8076 29.2777 88.095 27.8391 88.6524C26.412 89.2211 25.3279 90.0426 24.5867 91.117C23.8571 92.2026 23.4988 93.5295 23.5118 95.0976C23.5248 96.6657 23.905 97.9808 24.6525 99.0428C25.4114 100.116 26.509 100.92 27.9453 101.453C29.3931 101.998 31.1624 102.262 33.2532 102.244ZM50.9958 136.892L51.0745 146.369L28.7116 146.555C26.0526 146.577 23.7463 145.96 21.7926 144.703C19.8504 143.458 18.3415 141.709 17.2659 139.456C16.2018 137.204 15.6573 134.583 15.6325 131.595C15.6075 128.583 16.1083 125.943 17.135 123.673C18.173 121.403 19.6527 119.629 21.574 118.352C23.5067 117.086 25.8026 116.442 28.4616 116.419L50.8244 116.234L50.9031 125.711L29.3584 125.89C28.2788 125.899 27.3149 126.145 26.4667 126.63C25.6297 127.114 24.9761 127.778 24.5059 128.623C24.0357 129.479 23.8051 130.447 23.814 131.527C23.8231 132.618 24.0697 133.582 24.5539 134.418C25.0382 135.255 25.7027 135.909 26.5476 136.379C27.4038 136.849 28.3716 137.08 29.4511 137.071L50.9958 136.892ZM43.4678 149.982L51.1039 149.919L51.3556 180.259L43.7195 180.322L43.6324 169.822L16.3606 170.049L16.2831 160.708L43.5549 160.482L43.4678 149.982ZM51.636 214.046L51.7146 223.523L29.3517 223.708C26.6927 223.73 24.3864 223.113 22.4327 221.857C20.4905 220.611 18.9816 218.862 17.9061 216.61C16.8419 214.357 16.2974 211.737 16.2726 208.748C16.2476 205.737 16.7485 203.096 17.7751 200.826C18.8131 198.556 20.2928 196.783 22.2141 195.505C24.1468 194.239 26.4427 193.595 29.1017 193.573L51.4646 193.388L51.5432 202.864L29.9985 203.043C28.919 203.052 27.9551 203.299 27.1068 203.783C26.2699 204.267 25.6163 204.932 25.146 205.777C24.6758 206.633 24.4452 207.601 24.4541 208.68C24.4632 209.771 24.7098 210.735 25.1941 211.572C25.6783 212.409 26.3428 213.063 27.1877 213.533C28.0439 214.003 29.0117 214.234 30.0912 214.225L51.636 214.046ZM40.9994 246.935C42.1349 246.835 43.0177 246.401 43.6477 245.635C44.2779 244.879 44.5866 243.735 44.5738 242.201C44.5657 241.223 44.4398 240.423 44.196 239.8C43.9636 239.189 43.6473 238.737 43.2472 238.444C42.847 238.152 42.3912 238.003 41.8798 237.996C41.4591 237.976 41.0791 238.053 40.7396 238.227C40.4116 238.411 40.1128 238.698 39.8433 239.086C39.5851 239.475 39.3506 239.971 39.1397 240.575C38.9288 241.179 38.7416 241.897 38.578 242.728L37.9881 245.596C37.5951 247.531 37.0691 249.189 36.41 250.57C35.751 251.95 34.9706 253.082 34.0688 253.964C33.1784 254.847 32.1724 255.497 31.0508 255.916C29.9293 256.345 28.7039 256.571 27.3745 256.594C25.079 256.602 23.1311 256.044 21.5308 254.921C19.9306 253.798 18.7069 252.183 17.8598 250.076C17.0129 247.981 16.5771 245.456 16.5526 242.501C16.5275 239.467 16.9543 236.816 17.8333 234.547C18.7123 232.29 20.0784 230.528 21.9316 229.263C23.7963 228.009 26.1887 227.364 29.109 227.328L29.1837 236.328C28.116 236.394 27.2205 236.668 26.4972 237.152C25.7739 237.635 25.2284 238.31 24.8606 239.177C24.4928 240.055 24.314 241.096 24.324 242.3C24.3324 243.312 24.4644 244.157 24.72 244.837C24.9757 245.517 25.3265 246.031 25.7726 246.38C26.2187 246.728 26.7259 246.906 27.2941 246.912C27.8281 246.897 28.2926 246.717 28.6874 246.372C29.0938 246.039 29.4529 245.491 29.7647 244.727C30.088 243.963 30.3862 242.932 30.6596 241.634L31.3807 238.151C32.0255 235.055 33.1245 232.608 34.6779 230.811C36.2426 229.025 38.3887 228.126 41.1159 228.115C43.3317 228.085 45.274 228.66 46.943 229.84C48.6233 231.03 49.9383 232.684 50.8877 234.801C51.8372 236.93 52.3234 239.375 52.3463 242.136C52.3697 244.954 51.9183 247.396 50.9922 249.46C50.0662 251.525 48.7498 253.121 47.0432 254.249C45.348 255.388 43.3585 255.973 41.0746 256.003L40.9994 246.935Z"/>
</mask>
<path d="M15.0919 17.1264L14.0919 17.1347L14.0981 17.8774L14.8108 18.0861L15.0919 17.1264ZM15.007 6.8995L15.3126 5.94732L13.9956 5.52469L14.0071 6.90779L15.007 6.8995ZM50.0105 18.1322L51.0105 18.1239L51.0045 17.4009L50.3161 17.18L50.0105 18.1322ZM50.118 31.0863L50.4393 32.0333L51.124 31.801L51.118 31.078L50.118 31.0863ZM15.3057 42.8983L14.3057 42.9066L14.3172 44.2897L15.627 43.8452L15.3057 42.8983ZM15.2209 32.6713L14.9239 31.7164L14.2147 31.937L14.2209 32.6796L15.2209 32.6713ZM40.4521 24.8254L40.749 25.7803L41.4582 25.5597L41.4521 24.8171L40.4521 24.8254ZM40.4498 24.5527L41.4498 24.5444L41.4436 23.8017L40.7309 23.593L40.4498 24.5527ZM28.8483 15.1031L29.8483 15.0948L29.84 14.0949L28.84 14.1032L28.8483 15.1031ZM29.0078 34.3297L29.0161 35.3297L30.0161 35.3214L30.0078 34.3214L29.0078 34.3297ZM21.9172 34.3886L20.9172 34.3969L20.9255 35.3968L21.9255 35.3885L21.9172 34.3886ZM21.7576 15.162L21.7493 14.162L20.7494 14.1703L20.7577 15.1703L21.7576 15.162ZM16.0919 17.1181L16.007 6.8912L14.0071 6.90779L14.0919 17.1347L16.0919 17.1181ZM14.7015 7.85167L49.705 19.0844L50.3161 17.18L15.3126 5.94732L14.7015 7.85167ZM49.0106 18.1405L49.118 31.0946L51.118 31.078L51.0105 18.1239L49.0106 18.1405ZM49.7967 30.1393L14.9844 41.9513L15.627 43.8452L50.4393 32.0333L49.7967 30.1393ZM16.3057 42.89L16.2208 32.663L14.2209 32.6796L14.3057 42.9066L16.3057 42.89ZM15.5178 33.6262L40.749 25.7803L40.1552 23.8705L14.9239 31.7164L15.5178 33.6262ZM41.4521 24.8171L41.4498 24.5444L39.4499 24.561L39.4521 24.8337L41.4521 24.8171ZM40.7309 23.593L15.3729 16.1667L14.8108 18.0861L40.1688 25.5124L40.7309 23.593ZM27.8483 15.1114L28.0079 34.338L30.0078 34.3214L29.8483 15.0948L27.8483 15.1114ZM28.9995 33.3298L21.9089 33.3886L21.9255 35.3885L29.0161 35.3297L28.9995 33.3298ZM22.9171 34.3803L22.7576 15.1537L20.7577 15.1703L20.9172 34.3969L22.9171 34.3803ZM21.7659 16.1619L28.8566 16.1031L28.84 14.1032L21.7493 14.162L21.7659 16.1619ZM15.3336 46.2604L15.3253 45.2604L14.3253 45.2687L14.3336 46.2687L15.3336 46.2604ZM50.2415 45.9707L51.2415 45.9624L51.2332 44.9625L50.2332 44.9708L50.2415 45.9707ZM49.3488 67.8141L48.4161 67.4535L48.4153 67.4555L49.3488 67.8141ZM46.3489 71.9471L45.7663 71.1343L45.7616 71.1377L46.3489 71.9471ZM38.223 72.56L38.6893 71.6753L38.6818 71.6715L38.223 72.56ZM35.5445 70.2299L34.7287 70.8083L34.7331 70.8144L35.5445 70.2299ZM34.0492 66.6967L35.0278 66.4909L34.8594 65.6899L34.041 65.6967L34.0492 66.6967ZM33.7084 66.6995L33.7001 65.6996L32.7372 65.7075L32.7088 66.67L33.7084 66.6995ZM32.6003 70.7998L31.7289 70.3091L31.7255 70.3152L32.6003 70.7998ZM29.744 73.7554L29.2271 72.8994L29.2236 72.9015L29.744 73.7554ZM20.3489 73.4242L20.8996 72.5895L20.8952 72.5866L20.3489 73.4242ZM16.8026 69.2262L17.7055 68.7965L16.8026 69.2262ZM22.9801 55.6745L22.9719 54.6746L21.9719 54.6828L21.9802 55.6828L22.9801 55.6745ZM23.9329 63.6783L23.1351 64.2812L23.1407 64.2885L23.9329 63.6783ZM29.9588 62.6566L29.0379 62.2666L29.0356 62.2722L29.9588 62.6566ZM30.3435 55.6134L31.3435 55.6051L31.3352 54.6052L30.3352 54.6135L30.3435 55.6134ZM36.207 55.5648L36.1987 54.5648L35.1987 54.5731L35.207 55.5731L36.207 55.5648ZM36.6495 61.6465L35.7276 62.0341L35.7276 62.0341L36.6495 61.6465ZM37.7867 63.1201L38.3682 62.3065L38.3648 62.3041L37.7867 63.1201ZM42.077 62.4709L41.272 61.8775L41.2664 61.8852L42.077 62.4709ZM42.8886 55.5093L43.8885 55.501L43.8802 54.5011L42.8803 54.5094L42.8886 55.5093ZM15.3419 47.2603L50.2498 46.9707L50.2332 44.9708L15.3253 45.2604L15.3419 47.2603ZM49.2415 45.979L49.3671 61.1149L51.367 61.0983L51.2415 45.9624L49.2415 45.979ZM49.3671 61.1149C49.3885 63.6912 49.0581 65.7931 48.4161 67.4535L50.2815 68.1748C51.0413 66.2098 51.3898 63.84 51.367 61.0983L49.3671 61.1149ZM48.4153 67.4555C47.7689 69.138 46.8744 70.34 45.7663 71.1344L46.9315 72.7599C48.4217 71.6917 49.5271 70.1383 50.2823 68.1728L48.4153 67.4555ZM45.7616 71.1377C44.6486 71.9454 43.3204 72.37 41.7331 72.3832L41.7496 74.3831C43.7077 74.3668 45.4512 73.8341 46.9362 72.7565L45.7616 71.1377ZM41.7331 72.3832C40.6023 72.3925 39.5943 72.1523 38.6892 71.6753L37.7568 73.4447C38.9747 74.0865 40.3123 74.395 41.7496 74.3831L41.7331 72.3832ZM38.6818 71.6715C37.7655 71.1983 36.9918 70.528 36.3559 69.6454L34.7331 70.8144C35.5458 71.9425 36.5577 72.8256 37.7643 73.4486L38.6818 71.6715ZM36.3603 69.6515C35.7355 68.7703 35.2869 67.7228 35.0278 66.4909L33.0707 66.9025C33.3794 68.3705 33.9277 69.6784 34.7288 70.8083L36.3603 69.6515ZM34.041 65.6967L33.7001 65.6996L33.7166 67.6995L34.0575 67.6967L34.041 65.6967ZM32.7088 66.67C32.6689 68.0187 32.339 69.2257 31.7289 70.3091L33.4716 71.2904C34.2502 69.9077 34.6591 68.3812 34.7079 66.7291L32.7088 66.67ZM31.7255 70.3152C31.1284 71.3933 30.3005 72.2512 29.2271 72.8994L30.2609 74.6114C31.63 73.7847 32.7063 72.6722 33.475 71.2843L31.7255 70.3152ZM29.2236 72.9015C28.1918 73.5303 26.9462 73.8695 25.4495 73.8819L25.4661 75.8819C27.2646 75.8669 28.8766 75.4551 30.2644 74.6093L29.2236 72.9015ZM25.4495 73.8819C23.7256 73.8962 22.2198 73.4606 20.8996 72.5895L19.7982 74.2589C21.4718 75.3631 23.3719 75.8992 25.4661 75.8819L25.4495 73.8819ZM20.8952 72.5866C19.5718 71.7235 18.5044 70.4747 17.7055 68.7965L15.8997 69.656C16.8357 71.6225 18.1324 73.1725 19.8026 74.2618L20.8952 72.5866ZM17.7055 68.7965C16.9147 67.135 16.49 65.1076 16.4699 62.6833L14.47 62.6999C14.4919 65.3436 14.9556 67.6727 15.8997 69.656L17.7055 68.7965ZM16.4699 62.6833L16.3336 46.2521L14.3336 46.2687L14.47 62.6999L16.4699 62.6833ZM21.9802 55.6828L22.017 60.1145L24.0169 60.0979L23.9801 55.6662L21.9802 55.6828ZM22.017 60.1145C22.0309 61.8 22.3508 63.2434 23.1352 64.2812L24.7307 63.0753C24.3201 62.532 24.0293 61.5941 24.0169 60.0979L22.017 60.1145ZM23.1407 64.2885C23.9752 65.3718 25.1879 65.8611 26.6101 65.8493L26.5936 63.8494C25.675 63.857 25.1084 63.5655 24.7252 63.068L23.1407 64.2885ZM26.6101 65.8493C27.5841 65.8412 28.4765 65.6089 29.2344 65.0996L28.1189 63.4396C27.7467 63.6897 27.2559 63.8439 26.5936 63.8494L26.6101 65.8493ZM29.2344 65.0996C29.9795 64.5989 30.5252 63.8977 30.8819 63.0411L29.0356 62.2722C28.813 62.8067 28.5039 63.1809 28.1189 63.4396L29.2344 65.0996ZM30.8796 63.0466C31.2361 62.2047 31.3902 61.2366 31.3814 60.1732L29.3815 60.1897C29.3887 61.058 29.261 61.74 29.0379 62.2667L30.8796 63.0466ZM31.3814 60.1732L31.3435 55.6051L29.3436 55.6217L29.3815 60.1897L31.3814 60.1732ZM30.3352 54.6135L22.9719 54.6746L22.9884 56.6745L30.3518 56.6134L30.3352 54.6135ZM35.207 55.5731L35.2392 59.4593L37.2392 59.4427L37.2069 55.5565L35.207 55.5731ZM35.2392 59.4593C35.247 60.3929 35.4013 61.2578 35.7276 62.0341L37.5713 61.259C37.3644 60.7669 37.2452 60.1681 37.2392 59.4427L35.2392 59.4593ZM35.7276 62.0341C36.0561 62.8154 36.5441 63.4653 37.2087 63.9361L38.3648 62.3041C38.0463 62.0785 37.7761 61.746 37.5713 61.259L35.7276 62.0341ZM37.2053 63.9337C37.9064 64.4348 38.7307 64.6578 39.6234 64.6504L39.6068 62.6505C39.0676 62.6549 38.6731 62.5244 38.3682 62.3065L37.2053 63.9337ZM39.6234 64.6504C40.975 64.6392 42.1141 64.1269 42.8875 63.0565L41.2664 61.8852C40.9163 62.3697 40.4142 62.6438 39.6068 62.6505L39.6234 64.6504ZM42.8819 63.0642C43.6099 62.0765 43.9331 60.8723 43.9219 59.5236L41.922 59.5402C41.9304 60.5551 41.6902 61.3102 41.272 61.8775L42.8819 63.0642ZM43.9219 59.5236L43.8885 55.501L41.8886 55.5176L41.922 59.5402L43.9219 59.5236ZM42.8803 54.5094L36.1987 54.5648L36.2153 56.5647L42.8969 56.5093L42.8803 54.5094ZM23.4804 109.809L22.9935 110.682L22.9951 110.683L23.4804 109.809ZM17.3787 103.74L16.4994 104.216L16.5011 104.219L17.3787 103.74ZM17.2529 86.5242L16.3699 86.0549L16.3675 86.0596L17.2529 86.5242ZM23.2703 80.3718L22.7733 79.504L22.769 79.5066L23.2703 80.3718ZM42.8889 80.2091L43.3742 79.3347L43.373 79.334L42.8889 80.2091ZM48.9905 86.2609L48.1121 86.7388L48.1128 86.7402L48.9905 86.2609ZM49.1333 103.476L48.2478 103.012L48.2462 103.015L49.1333 103.476ZM43.1332 109.646L42.6334 108.779L42.6318 108.78L43.1332 109.646ZM38.5302 101.365L38.1689 100.433L38.16 100.436L38.5302 101.365ZM41.7826 98.9007L40.9594 98.3328L40.9526 98.3429L41.7826 98.9007ZM41.7168 90.9748L40.8991 91.5504L40.9003 91.5522L41.7168 90.9748ZM38.424 88.5646L38.7762 87.6286L38.7722 87.6272L38.424 88.5646ZM27.8391 88.6524L27.4778 87.7199L27.469 87.7234L27.8391 88.6524ZM24.5867 91.117L23.7635 90.5491L23.7568 90.5591L24.5867 91.117ZM24.6525 99.0428L23.8347 99.6184L23.836 99.6202L24.6525 99.0428ZM27.9453 101.453L28.2976 100.517L28.2936 100.516L27.9453 101.453ZM33.3258 110.994C29.567 111.025 26.4626 110.32 23.9657 108.934L22.9951 110.683C25.8641 112.275 29.3288 113.027 33.3424 112.994L33.3258 110.994ZM23.9673 108.935C21.452 107.533 19.5576 105.643 18.2564 103.26L16.5011 104.219C17.9924 106.95 20.1658 109.106 22.9935 110.682L23.9673 108.935ZM18.258 103.263C16.9576 100.863 16.287 98.1677 16.262 95.1578L14.2621 95.1743C14.2895 98.4824 15.03 101.503 16.4994 104.216L18.258 103.263ZM16.262 95.1578C16.2369 92.1252 16.8682 89.4094 18.1384 86.9889L16.3675 86.0596C14.9304 88.798 14.2345 91.8435 14.2621 95.1743L16.262 95.1578ZM18.1359 86.9936C19.4087 84.5991 21.2781 82.6818 23.7716 81.2371L22.769 79.5066C19.9695 81.1286 17.8274 83.3129 16.3699 86.0549L18.1359 86.9936ZM23.7672 81.2396C26.2422 79.8223 29.3247 79.0716 33.0607 79.0406L33.0441 77.0406C29.0532 77.0737 25.6142 77.8772 22.7733 79.504L23.7672 81.2396ZM33.0607 79.0406C36.8209 79.0094 39.9198 79.7093 42.4049 81.0841L43.373 79.334C40.5152 77.753 37.0564 77.0073 33.0441 77.0406L33.0607 79.0406ZM42.4036 81.0834C44.9307 82.4861 46.8234 84.3702 48.1121 86.7388L49.8689 85.783C48.3879 83.0608 46.2129 80.9103 43.3742 79.3347L42.4036 81.0834ZM48.1128 86.7402C49.423 89.1393 50.0993 91.8442 50.1245 94.8768L52.1244 94.8602C52.0968 91.5294 51.3505 88.4959 49.8681 85.7816L48.1128 86.7402ZM50.1245 94.8768C50.1495 97.8854 49.5186 100.59 48.2478 103.012L50.0188 103.941C51.4553 101.203 52.1519 98.1696 52.1244 94.8602L50.1245 94.8768ZM48.2462 103.015C46.9969 105.415 45.1358 107.336 42.6334 108.779L43.6329 110.512C46.4462 108.889 48.5852 106.696 50.0204 103.938L48.2462 103.015ZM42.6318 108.78C40.1706 110.206 37.0848 110.963 33.3258 110.994L33.3424 112.994C37.3559 112.961 40.8028 112.152 43.6345 110.511L42.6318 108.78ZM33.2615 103.244C35.4345 103.226 37.3247 102.922 38.9004 102.294L38.16 100.436C36.8814 100.946 35.2537 101.228 33.2449 101.244L33.2615 103.244ZM38.8915 102.298C40.4859 101.68 41.7494 100.743 42.6126 99.4585L40.9526 98.3429C40.3565 99.2298 39.4518 99.9357 38.1689 100.433L38.8915 102.298ZM42.6058 99.4685C43.4855 98.1931 43.8891 96.6602 43.8747 94.9287L41.8748 94.9453C41.8864 96.35 41.5619 97.4596 40.9594 98.3329L42.6058 99.4685ZM43.8747 94.9287C43.8603 93.1968 43.4313 91.6674 42.5333 90.3975L40.9003 91.5522C41.5203 92.4289 41.8631 93.5409 41.8748 94.9453L43.8747 94.9287ZM42.5346 90.3993C41.651 89.1438 40.3752 88.2304 38.7762 87.6287L38.0718 89.5005C39.3683 89.9884 40.2877 90.6818 40.8991 91.5504L42.5346 90.3993ZM38.7722 87.6272C37.1886 87.0389 35.2961 86.7723 33.125 86.7903L33.1416 88.7902C35.1522 88.7735 36.7868 89.0231 38.0758 89.502L38.7722 87.6272ZM33.125 86.7903C30.9535 86.8083 29.0613 87.1064 27.4778 87.7199L28.2004 89.5848C29.4942 89.0835 31.1314 88.8069 33.1416 88.7902L33.125 86.7903ZM27.469 87.7234C25.8916 88.3519 24.6354 89.2853 23.7636 90.5491L25.4099 91.6848C26.0203 90.7999 26.9323 90.0902 28.2093 89.5814L27.469 87.7234ZM23.7568 90.5591C22.8939 91.843 22.4975 93.377 22.5118 95.1059L24.5117 95.0893C24.5001 93.6819 24.8203 92.5622 25.4167 91.6748L23.7568 90.5591ZM22.5118 95.1059C22.5262 96.8344 22.9478 98.3583 23.8347 99.6184L25.4703 98.4673C24.8622 97.6033 24.5234 96.4971 24.5117 95.0893L22.5118 95.1059ZM23.836 99.6202C24.7295 100.884 26.0041 101.799 27.5971 102.39L28.2936 100.516C27.014 100.04 26.0933 99.3484 25.469 98.4655L23.836 99.6202ZM27.5931 102.389C29.1888 102.989 31.0882 103.262 33.2615 103.244L33.2449 101.244C31.2366 101.261 29.5974 101.006 28.2976 100.517L27.5931 102.389ZM50.9958 136.892L51.9958 136.884L51.9875 135.884L50.9875 135.892L50.9958 136.892ZM51.0745 146.369L51.0828 147.369L52.0827 147.361L52.0744 146.361L51.0745 146.369ZM21.7926 144.703L22.3335 143.862L22.3323 143.861L21.7926 144.703ZM17.2659 139.456L16.3618 139.884L16.3635 139.887L17.2659 139.456ZM17.135 123.673L16.2256 123.257L16.2239 123.261L17.135 123.673ZM21.574 118.352L21.026 117.515L21.0203 117.519L21.574 118.352ZM50.8244 116.234L51.8244 116.226L51.8161 115.226L50.8161 115.234L50.8244 116.234ZM50.9031 125.711L50.9114 126.711L51.9113 126.703L51.903 125.703L50.9031 125.711ZM26.4667 126.63L25.9708 125.761L25.9659 125.764L26.4667 126.63ZM24.5059 128.623L23.6321 128.137L23.6293 128.142L24.5059 128.623ZM24.5539 134.418L23.6884 134.919L24.5539 134.418ZM26.5476 136.379L26.0612 137.253L26.0662 137.256L26.5476 136.379ZM49.9959 136.901L50.0745 146.378L52.0744 146.361L51.9958 136.884L49.9959 136.901ZM51.0662 145.369L28.7033 145.555L28.7199 147.555L51.0828 147.369L51.0662 145.369ZM28.7033 145.555C26.21 145.576 24.1007 144.999 22.3335 143.862L21.2516 145.544C23.3918 146.921 25.8952 147.578 28.7199 147.555L28.7033 145.555ZM22.3323 143.861C20.5597 142.725 19.1705 141.124 18.1684 139.025L16.3635 139.887C17.5125 142.294 19.141 144.191 21.2528 145.545L22.3323 143.861ZM18.1701 139.029C17.179 136.931 16.6563 134.458 16.6324 131.586L14.6325 131.603C14.6583 134.708 15.2246 137.476 16.3618 139.884L18.1701 139.029ZM16.6324 131.586C16.6084 128.69 17.0903 126.198 18.0461 124.085L16.2239 123.261C15.1263 125.687 14.6066 128.476 14.6325 131.603L16.6324 131.586ZM18.0444 124.089C19.0116 121.974 20.3741 120.35 22.1276 119.184L21.0203 117.519C18.9312 118.908 17.3344 120.832 16.2256 123.257L18.0444 124.089ZM22.1219 119.188C23.8711 118.042 25.9731 117.44 28.4699 117.419L28.4533 115.42C25.6321 115.443 23.1423 116.129 21.026 117.515L22.1219 119.188ZM28.4699 117.419L50.8327 117.234L50.8161 115.234L28.4533 115.42L28.4699 117.419ZM49.8245 116.242L49.9031 125.719L51.903 125.703L51.8244 116.226L49.8245 116.242ZM50.8948 124.711L29.3501 124.89L29.3666 126.89L50.9114 126.711L50.8948 124.711ZM29.3501 124.89C28.1179 124.9 26.9829 125.183 25.9708 125.761L26.9625 127.498C27.647 127.107 28.4398 126.897 29.3666 126.89L29.3501 124.89ZM25.9659 125.764C24.9727 126.339 24.1902 127.134 23.6321 128.137L25.3796 129.11C25.7621 128.422 26.2868 127.889 26.9675 127.495L25.9659 125.764ZM23.6293 128.142C23.0684 129.163 22.8038 130.303 22.8141 131.535L24.814 131.518C24.8063 130.592 25.003 129.795 25.3824 129.105L23.6293 128.142ZM22.8141 131.535C22.8244 132.776 23.1068 133.914 23.6884 134.919L25.4195 133.918C25.0326 133.249 24.8218 132.459 24.814 131.518L22.8141 131.535ZM23.6884 134.919C24.263 135.912 25.0586 136.695 26.0612 137.253L27.0339 135.505C26.3468 135.123 25.8133 134.598 25.4195 133.918L23.6884 134.919ZM26.0662 137.256C27.0877 137.817 28.2272 138.081 29.4594 138.071L29.4428 136.071C28.516 136.079 27.7198 135.882 27.0289 135.503L26.0662 137.256ZM29.4594 138.071L51.0041 137.892L50.9875 135.892L29.4428 136.071L29.4594 138.071ZM43.4678 149.982L43.4595 148.982L42.4595 148.991L42.4678 149.991L43.4678 149.982ZM51.1039 149.919L52.1039 149.911L52.0956 148.911L51.0956 148.919L51.1039 149.919ZM51.3556 180.259L51.3639 181.259L52.3639 181.25L52.3556 180.25L51.3556 180.259ZM43.7195 180.322L42.7196 180.33L42.7279 181.33L43.7278 181.322L43.7195 180.322ZM43.6324 169.822L44.6324 169.814L44.6241 168.814L43.6241 168.822L43.6324 169.822ZM16.3606 170.049L15.3607 170.057L15.369 171.057L16.3689 171.049L16.3606 170.049ZM16.2831 160.708L16.2748 159.708L15.2749 159.716L15.2832 160.716L16.2831 160.708ZM43.5549 160.482L43.5632 161.482L44.5632 161.474L44.5549 160.474L43.5549 160.482ZM43.4761 150.982L51.1122 150.919L51.0956 148.919L43.4595 148.982L43.4761 150.982ZM50.1039 149.927L50.3557 180.267L52.3556 180.25L52.1039 149.911L50.1039 149.927ZM51.3473 179.259L43.7112 179.322L43.7278 181.322L51.3639 181.259L51.3473 179.259ZM44.7195 180.314L44.6324 169.814L42.6325 169.831L42.7196 180.33L44.7195 180.314ZM43.6241 168.822L16.3523 169.049L16.3689 171.049L43.6407 170.822L43.6241 168.822ZM17.3606 170.04L17.2831 160.7L15.2832 160.716L15.3607 170.057L17.3606 170.04ZM16.2914 161.708L43.5632 161.482L43.5466 159.482L16.2748 159.708L16.2914 161.708ZM44.5549 160.474L44.4678 149.974L42.4678 149.991L42.555 160.49L44.5549 160.474ZM51.636 214.046L52.6359 214.038L52.6276 213.038L51.6277 213.046L51.636 214.046ZM51.7146 223.523L51.7229 224.523L52.7228 224.515L52.7145 223.515L51.7146 223.523ZM22.4327 221.857L22.9736 221.016L22.9725 221.015L22.4327 221.857ZM17.9061 216.61L17.0019 217.037L17.0037 217.041L17.9061 216.61ZM17.7751 200.826L16.8657 200.411L16.864 200.414L17.7751 200.826ZM22.2141 195.505L21.6661 194.669L21.6604 194.673L22.2141 195.505ZM51.4646 193.388L52.4645 193.379L52.4562 192.379L51.4563 192.388L51.4646 193.388ZM51.5432 202.864L51.5515 203.864L52.5514 203.856L52.5431 202.856L51.5432 202.864ZM27.1068 203.783L26.6109 202.915L26.606 202.918L27.1068 203.783ZM25.146 205.777L24.2722 205.29L24.2694 205.295L25.146 205.777ZM25.1941 211.572L24.3285 212.073L25.1941 211.572ZM27.1877 213.533L26.7013 214.407L26.7063 214.409L27.1877 213.533ZM50.636 214.054L50.7146 223.531L52.7145 223.515L52.6359 214.038L50.636 214.054ZM51.7063 222.523L29.3434 222.708L29.36 224.708L51.7229 224.523L51.7063 222.523ZM29.3434 222.708C26.8501 222.729 24.7408 222.152 22.9736 221.016L21.8917 222.698C24.0319 224.074 26.5353 224.732 29.36 224.708L29.3434 222.708ZM22.9725 221.015C21.1999 219.878 19.8106 218.278 18.8085 216.179L17.0037 217.041C18.1526 219.447 19.7811 221.344 21.8929 222.698L22.9725 221.015ZM18.8102 216.183C17.8191 214.085 17.2964 211.612 17.2726 208.74L15.2726 208.757C15.2984 211.861 15.8647 214.63 17.0019 217.037L18.8102 216.183ZM17.2726 208.74C17.2485 205.844 17.7305 203.352 18.6863 201.238L16.864 200.414C15.7665 202.841 15.2467 205.63 15.2726 208.757L17.2726 208.74ZM18.6845 201.242C19.6517 199.127 21.0142 197.504 22.7677 196.338L21.6604 194.673C19.5713 196.061 17.9746 197.986 16.8657 200.411L18.6845 201.242ZM22.762 196.342C24.5112 195.196 26.6132 194.594 29.11 194.573L29.0934 192.573C26.2722 192.597 23.7825 193.282 21.6661 194.669L22.762 196.342ZM29.11 194.573L51.4729 194.388L51.4563 192.388L29.0934 192.573L29.11 194.573ZM50.4646 193.396L50.5432 202.873L52.5431 202.856L52.4645 193.379L50.4646 193.396ZM51.5349 201.865L29.9902 202.043L30.0068 204.043L51.5515 203.864L51.5349 201.865ZM29.9902 202.043C28.758 202.054 27.623 202.337 26.611 202.915L27.6026 204.652C28.2871 204.261 29.0799 204.051 30.0068 204.043L29.9902 202.043ZM26.606 202.918C25.6128 203.492 24.8303 204.288 24.2722 205.29L26.0197 206.263C26.4022 205.576 26.9269 205.043 27.6076 204.649L26.606 202.918ZM24.2694 205.295C23.7085 206.317 23.4439 207.456 23.4542 208.689L25.4541 208.672C25.4464 207.745 25.6431 206.949 26.0225 206.258L24.2694 205.295ZM23.4542 208.689C23.4645 209.93 23.747 211.068 24.3285 212.073L26.0596 211.071C25.6727 210.402 25.4619 209.612 25.4541 208.672L23.4542 208.689ZM24.3285 212.073C24.9031 213.066 25.6987 213.848 26.7013 214.407L27.674 212.659C26.9869 212.277 26.4534 211.752 26.0596 211.071L24.3285 212.073ZM26.7063 214.409C27.7278 214.97 28.8673 215.235 30.0995 215.225L30.0829 213.225C29.1561 213.232 28.3599 213.036 27.669 212.656L26.7063 214.409ZM30.0995 215.225L51.6442 215.046L51.6277 213.046L30.0829 213.225L30.0995 215.225ZM40.9994 246.935L40.9113 245.939L39.9917 246.02L39.9994 246.943L40.9994 246.935ZM43.6477 245.635L42.8799 244.994L42.8752 245L43.6477 245.635ZM44.196 239.8L43.2611 240.155L43.2647 240.165L44.196 239.8ZM43.2472 238.444L43.8368 237.637L43.8368 237.637L43.2472 238.444ZM41.8798 237.996L41.8341 238.995L41.85 238.995L41.8658 238.995L41.8798 237.996ZM40.7396 238.227L40.285 237.336L40.2669 237.345L40.2493 237.355L40.7396 238.227ZM39.8433 239.086L39.0216 238.517L39.0159 238.525L39.0104 238.533L39.8433 239.086ZM38.578 242.728L39.5575 242.929L39.5592 242.921L38.578 242.728ZM37.9881 245.596L37.0086 245.395L37.0082 245.397L37.9881 245.596ZM34.0688 253.964L33.3694 253.25L33.3649 253.254L34.0688 253.964ZM31.0508 255.916L30.7012 254.979L30.6929 254.982L31.0508 255.916ZM27.3745 256.594L27.3778 257.594L27.3913 257.594L27.3745 256.594ZM21.5308 254.921L20.9564 255.739L21.5308 254.921ZM17.8598 250.076L18.7877 249.703L18.787 249.701L17.8598 250.076ZM17.8333 234.547L16.9014 234.184L16.9008 234.186L17.8333 234.547ZM21.9316 229.263L21.3735 228.433L21.3677 228.437L21.9316 229.263ZM29.109 227.328L30.109 227.32L30.1006 226.316L29.0968 226.329L29.109 227.328ZM29.1837 236.328L29.2451 237.326L30.1915 237.268L30.1836 236.32L29.1837 236.328ZM26.4972 237.152L25.9417 236.32L25.9417 236.32L26.4972 237.152ZM24.8606 239.177L23.94 238.786L23.9382 238.79L24.8606 239.177ZM24.72 244.837L23.784 245.189L24.72 244.837ZM25.7726 246.38L25.1569 247.167L25.7726 246.38ZM27.2941 246.912L27.2824 247.912L27.3031 247.913L27.3237 247.912L27.2941 246.912ZM28.6874 246.372L28.0537 245.599L28.0419 245.609L28.0304 245.619L28.6874 246.372ZM29.7647 244.727L28.8437 244.337L28.8389 244.349L29.7647 244.727ZM30.6596 241.634L31.6381 241.84L31.6388 241.837L30.6596 241.634ZM31.3807 238.151L30.4017 237.947L30.4015 237.948L31.3807 238.151ZM34.6779 230.811L33.9257 230.152L33.9213 230.157L34.6779 230.811ZM41.1159 228.115L41.1201 229.115L41.1294 229.115L41.1159 228.115ZM46.943 229.84L47.5211 229.024L47.5201 229.023L46.943 229.84ZM50.8877 234.801L51.8009 234.394L51.8001 234.392L50.8877 234.801ZM50.9922 249.46L50.0798 249.051L50.9922 249.46ZM47.0432 254.249L46.4918 253.414L46.4854 253.419L47.0432 254.249ZM41.0746 256.003L40.0746 256.011L40.083 257.016L41.0879 257.003L41.0746 256.003ZM41.0874 247.931C42.447 247.811 43.5941 247.275 44.4203 246.27L42.8752 245C42.4414 245.528 41.8228 245.858 40.9113 245.939L41.0874 247.931ZM44.4156 246.275C45.2624 245.26 45.5874 243.837 45.5738 242.192L43.5739 242.209C43.5857 243.632 43.2933 244.498 42.8799 244.994L44.4156 246.275ZM45.5738 242.192C45.5651 241.144 45.4309 240.212 45.1272 239.436L43.2647 240.165C43.4487 240.635 43.5663 241.302 43.5739 242.209L45.5738 242.192ZM45.1308 239.445C44.8513 238.709 44.4363 238.074 43.8368 237.637L42.6575 239.252C42.8583 239.399 43.0759 239.668 43.2611 240.155L45.1308 239.445ZM43.8368 237.637C43.2636 237.218 42.6052 237.006 41.8937 236.996L41.8658 238.995C42.1772 239 42.4304 239.086 42.6575 239.252L43.8368 237.637ZM41.9255 236.997C41.3501 236.97 40.7948 237.076 40.285 237.336L41.1942 239.117C41.3634 239.031 41.5682 238.982 41.8341 238.995L41.9255 236.997ZM40.2493 237.355C39.76 237.63 39.3558 238.035 39.0216 238.517L40.665 239.656C40.8698 239.361 41.0631 239.192 41.2299 239.098L40.2493 237.355ZM39.0104 238.533C38.6924 239.011 38.4246 239.59 38.1956 240.246L40.0838 240.905C40.2766 240.353 40.4778 239.938 40.6762 239.64L39.0104 238.533ZM38.1956 240.246C37.9651 240.906 37.7668 241.671 37.5968 242.535L39.5592 242.921C39.7163 242.122 39.8925 241.453 40.0838 240.905L38.1956 240.246ZM37.5985 242.526L37.0086 245.395L38.9676 245.798L39.5575 242.929L37.5985 242.526ZM37.0082 245.397C36.6269 247.274 36.1229 248.85 35.5076 250.139L37.3125 251.001C38.0152 249.529 38.5633 247.789 38.9681 245.795L37.0082 245.397ZM35.5076 250.139C34.8887 251.435 34.1717 252.464 33.3694 253.25L34.7682 254.679C35.7695 253.699 36.6133 252.465 37.3125 251.001L35.5076 250.139ZM33.3649 253.254C32.5703 254.041 31.6837 254.612 30.7013 254.979L31.4003 256.853C32.661 256.382 33.7864 255.652 34.7727 254.675L33.3649 253.254ZM30.6929 254.982C29.6915 255.366 28.5828 255.573 27.3576 255.594L27.3913 257.594C28.8249 257.57 30.1672 257.325 31.4086 256.849L30.6929 254.982ZM27.3711 255.594C25.2454 255.601 23.5084 255.087 22.1053 254.102L20.9564 255.739C22.7538 257.001 24.9126 257.602 27.3778 257.594L27.3711 255.594ZM22.1053 254.102C20.6877 253.107 19.5744 251.66 18.7877 249.703L16.932 250.449C17.8394 252.706 19.1734 254.488 20.9564 255.739L22.1053 254.102ZM18.787 249.701C17.9991 247.752 17.5764 245.358 17.5526 242.493L15.5527 242.51C15.5779 245.553 16.0267 248.209 16.9327 250.451L18.787 249.701ZM17.5526 242.493C17.5282 239.555 17.9422 237.034 18.7657 234.908L16.9008 234.186C15.9665 236.598 15.5267 239.379 15.5527 242.51L17.5526 242.493ZM18.7651 234.91C19.5771 232.825 20.8222 231.231 22.4955 230.089L21.3677 228.437C19.3346 229.825 17.8475 231.755 16.9014 234.184L18.7651 234.91ZM22.4897 230.093C24.1509 228.976 26.338 228.362 29.1212 228.328L29.0968 226.329C26.0395 226.366 23.4416 227.042 21.3735 228.433L22.4897 230.093ZM28.109 227.337L28.1837 236.336L30.1836 236.32L30.109 227.32L28.109 227.337ZM29.1223 235.33C27.9184 235.404 26.8423 235.718 25.9417 236.32L27.0528 237.983C27.5987 237.618 28.3137 237.384 29.2451 237.326L29.1223 235.33ZM25.9417 236.32C25.043 236.921 24.3774 237.755 23.94 238.786L25.7811 239.567C26.0794 238.864 26.5049 238.349 27.0528 237.983L25.9417 236.32ZM23.9382 238.79C23.5062 239.822 23.3132 241.003 23.324 242.309L25.3239 242.292C25.3148 241.188 25.4794 240.288 25.7829 239.563L23.9382 238.79ZM23.324 242.309C23.333 243.395 23.4743 244.366 23.784 245.189L25.656 244.485C25.4545 243.949 25.3317 243.229 25.3239 242.292L23.324 242.309ZM23.784 245.189C24.0864 245.993 24.5304 246.678 25.1569 247.167L26.3884 245.592C26.1226 245.384 25.865 245.041 25.656 244.485L23.784 245.189ZM25.1569 247.167C25.7764 247.652 26.496 247.903 27.2824 247.912L27.3058 245.912C26.9558 245.908 26.6611 245.805 26.3884 245.592L25.1569 247.167ZM27.3237 247.912C28.084 247.889 28.7715 247.626 29.3445 247.126L28.0304 245.619C27.8137 245.807 27.5722 245.904 27.2646 245.913L27.3237 247.912ZM29.3212 247.146C29.9095 246.664 30.3483 245.943 30.6906 245.105L28.8389 244.349C28.5575 245.039 28.2781 245.415 28.0537 245.599L29.3212 247.146ZM30.6857 245.117C31.0442 244.269 31.3584 243.168 31.6381 241.84L29.681 241.428C29.4141 242.696 29.1317 243.657 28.8438 244.337L30.6857 245.117ZM31.6388 241.837L32.3599 238.354L30.4015 237.948L29.6803 241.432L31.6388 241.837ZM32.3597 238.355C32.9809 235.372 34.0231 233.097 35.4344 231.465L33.9213 230.157C32.2259 232.118 31.0701 234.737 30.4017 237.947L32.3597 238.355ZM35.43 231.47C36.7768 229.933 38.6323 229.125 41.1201 229.115L41.1118 227.115C38.145 227.127 35.7085 228.117 33.9258 230.152L35.43 231.47ZM41.1294 229.115C43.1527 229.088 44.8842 229.609 46.3658 230.656L47.5201 229.023C45.6638 227.711 43.5107 227.083 41.1025 227.115L41.1294 229.115ZM46.3648 230.656C47.8817 231.73 49.0894 233.235 49.9752 235.211L51.8001 234.392C50.7871 232.133 49.365 230.33 47.5211 229.024L46.3648 230.656ZM49.9744 235.209C50.8585 237.191 51.3244 239.496 51.3463 242.144L53.3463 242.128C53.3224 239.254 52.8159 236.669 51.8009 234.394L49.9744 235.209ZM51.3463 242.144C51.3688 244.853 50.9344 247.146 50.0798 249.051L51.9046 249.869C52.9022 247.645 53.3705 245.055 53.3463 242.128L51.3463 242.144ZM50.0798 249.051C49.2228 250.961 48.0237 252.402 46.4918 253.414L47.5945 255.083C49.4759 253.84 50.9095 252.088 51.9046 249.869L50.0798 249.051ZM46.4854 253.419C44.9701 254.437 43.1749 254.975 41.0613 255.003L41.0879 257.003C43.5421 256.97 45.726 256.339 47.6009 255.079L46.4854 253.419ZM42.0746 255.995L41.9993 246.927L39.9994 246.943L40.0746 256.011L42.0746 255.995Z" fill="#05C2DF" mask="url(#path-1-outside-1_3495_3196)"/>
<mask id="path-3-outside-2_3495_3196" maskUnits="userSpaceOnUse" x="182.992" y="3.50157" width="41.0976" height="253.315" fill="black">
<rect fill="white" x="182.992" y="3.50157" width="41.0976" height="253.315"/>
<path d="M185.094 16.1263L185.009 5.89937L220.012 17.1321L220.12 30.0862L185.308 41.8981L185.223 31.6712L210.454 23.8253L210.452 23.5525L185.094 16.1263ZM198.85 14.103L199.01 33.3296L191.919 33.3884L191.759 14.1618L198.85 14.103ZM185.335 45.2602L220.243 44.9706L220.369 60.1065C220.391 62.7655 220.052 65.0013 219.351 66.814C218.65 68.6381 217.65 70.0157 216.351 70.947C215.052 71.8896 213.516 72.3683 211.743 72.383C210.459 72.3936 209.286 72.1193 208.225 71.5599C207.163 71.0119 206.271 70.2351 205.546 69.2298C204.833 68.2243 204.335 67.0465 204.051 65.6966L203.71 65.6994C203.666 67.1998 203.296 68.5666 202.602 69.7997C201.919 71.0326 200.967 72.0178 199.746 72.7553C198.536 73.4926 197.107 73.8681 195.46 73.8818C193.551 73.8976 191.848 73.4117 190.351 72.4241C188.854 71.4479 187.672 70.0485 186.804 68.2261C185.937 66.4037 185.493 64.2255 185.472 61.6915L185.335 45.2602ZM192.982 54.6744L193.019 59.1061C193.032 60.6969 193.337 61.8876 193.935 62.6781C194.544 63.4686 195.433 63.8589 196.604 63.8492C197.422 63.8424 198.113 63.6492 198.678 63.2695C199.244 62.8898 199.671 62.3521 199.961 61.6565C200.25 60.9723 200.391 60.1472 200.383 59.1813L200.345 54.6133L192.982 54.6744ZM206.209 54.5647L206.241 58.4509C206.248 59.2804 206.385 60.0122 206.651 60.6464C206.918 61.2806 207.297 61.7718 207.789 62.12C208.292 62.4795 208.901 62.6562 209.617 62.6503C210.696 62.6413 211.517 62.2482 212.079 61.4707C212.652 60.6932 212.934 59.7136 212.924 58.5318L212.89 54.5092L206.209 54.5647ZM203.336 110.994C199.45 111.026 196.165 110.298 193.482 108.808C190.811 107.319 188.777 105.296 187.381 102.74C185.996 100.183 185.29 97.3249 185.264 94.1659C185.237 90.9842 185.901 88.1036 187.255 85.5241C188.62 82.9559 190.626 80.9051 193.272 79.3717C195.93 77.8496 199.191 77.0725 203.054 77.0405C206.94 77.0082 210.219 77.731 212.891 79.2089C215.574 80.6981 217.608 82.7154 218.992 85.2608C220.389 87.8175 221.1 90.6867 221.126 93.8684C221.153 97.0274 220.489 99.8966 219.135 102.476C217.793 105.056 215.793 107.112 213.135 108.645C210.489 110.179 207.222 110.962 203.336 110.994ZM203.255 101.244C205.346 101.227 207.105 100.934 208.532 100.365C209.971 99.8077 211.055 98.9862 211.784 97.9006C212.526 96.8262 212.89 95.505 212.877 93.9368C212.864 92.3687 212.478 91.048 211.719 89.9747C210.971 88.9127 209.874 88.1093 208.426 87.5644C206.99 87.0309 205.226 86.7728 203.135 86.7901C201.044 86.8075 199.28 87.0949 197.841 87.6523C196.414 88.2209 195.33 89.0425 194.589 90.1168C193.859 91.2025 193.501 92.5294 193.514 94.0975C193.527 95.6656 193.907 96.9807 194.654 98.0427C195.413 99.116 196.511 99.9194 197.947 100.453C199.395 100.998 201.164 101.262 203.255 101.244ZM220.998 135.892L221.076 145.369L198.713 145.555C196.054 145.577 193.748 144.96 191.794 143.703C189.852 142.458 188.343 140.709 187.268 138.456C186.204 136.204 185.659 133.583 185.634 130.595C185.609 127.583 186.11 124.943 187.137 122.673C188.175 120.403 189.655 118.629 191.576 117.352C193.509 116.085 195.804 115.441 198.463 115.419L220.826 115.234L220.905 124.711L199.36 124.89C198.281 124.898 197.317 125.145 196.468 125.629C195.632 126.114 194.978 126.778 194.508 127.623C194.038 128.479 193.807 129.447 193.816 130.527C193.825 131.617 194.072 132.581 194.556 133.418C195.04 134.255 195.705 134.909 196.549 135.379C197.406 135.849 198.373 136.08 199.453 136.071L220.998 135.892ZM213.47 148.982L221.106 148.919L221.357 179.259L213.721 179.322L213.634 168.822L186.362 169.049L186.285 159.708L213.557 159.482L213.47 148.982ZM221.638 213.046L221.716 222.523L199.354 222.708C196.695 222.73 194.388 222.113 192.435 220.857C190.492 219.611 188.983 217.862 187.908 215.61C186.844 213.357 186.299 210.737 186.274 207.748C186.249 204.737 186.75 202.096 187.777 199.826C188.815 197.556 190.295 195.783 192.216 194.505C194.149 193.239 196.445 192.595 199.104 192.573L221.466 192.387L221.545 201.864L200 202.043C198.921 202.052 197.957 202.299 197.109 202.783C196.272 203.267 195.618 203.932 195.148 204.777C194.678 205.633 194.447 206.601 194.456 207.68C194.465 208.771 194.712 209.735 195.196 210.572C195.68 211.409 196.345 212.062 197.19 212.533C198.046 213.003 199.014 213.234 200.093 213.225L221.638 213.046ZM211.001 245.935C212.137 245.835 213.02 245.401 213.65 244.634C214.28 243.879 214.588 242.735 214.576 241.201C214.568 240.223 214.442 239.423 214.198 238.8C213.965 238.188 213.649 237.737 213.249 237.444C212.849 237.152 212.393 237.003 211.882 236.995C211.461 236.976 211.081 237.053 210.741 237.227C210.413 237.411 210.115 237.698 209.845 238.086C209.587 238.475 209.352 238.971 209.142 239.575C208.931 240.179 208.743 240.897 208.58 241.728L207.99 244.596C207.597 246.531 207.071 248.189 206.412 249.57C205.753 250.95 204.972 252.082 204.071 252.964C203.18 253.847 202.174 254.497 201.053 254.915C199.931 255.345 198.706 255.571 197.376 255.594C195.081 255.601 193.133 255.044 191.533 253.921C189.932 252.797 188.709 251.183 187.862 249.076C187.015 246.981 186.579 244.456 186.554 241.501C186.529 238.467 186.956 235.816 187.835 233.547C188.714 231.29 190.08 229.528 191.933 228.263C193.798 227.009 196.191 226.364 199.111 226.328L199.186 235.328C198.118 235.394 197.222 235.668 196.499 236.151C195.776 236.635 195.23 237.31 194.862 238.176C194.495 239.055 194.316 240.096 194.326 241.3C194.334 242.312 194.466 243.157 194.722 243.837C194.978 244.517 195.328 245.031 195.774 245.379C196.221 245.728 196.728 245.906 197.296 245.912C197.83 245.896 198.294 245.716 198.689 245.372C199.096 245.039 199.455 244.491 199.767 243.727C200.09 242.963 200.388 241.932 200.661 240.634L201.383 237.151C202.027 234.054 203.126 231.608 204.68 229.811C206.244 228.025 208.391 227.126 211.118 227.115C213.334 227.085 215.276 227.66 216.945 228.84C218.625 230.03 219.94 231.684 220.889 233.801C221.839 235.93 222.325 238.375 222.348 241.136C222.372 243.954 221.92 246.395 220.994 248.46C220.068 250.525 218.752 252.121 217.045 253.249C215.35 254.388 213.36 254.972 211.076 255.003L211.001 245.935Z"/>
</mask>
<path d="M185.094 16.1263L184.094 16.1346L184.1 16.8773L184.813 17.086L185.094 16.1263ZM185.009 5.89937L185.314 4.9472L183.997 4.52457L184.009 5.90767L185.009 5.89937ZM220.012 17.1321L221.012 17.1238L221.006 16.4008L220.318 16.1799L220.012 17.1321ZM220.12 30.0862L220.441 31.0332L221.126 30.8009L221.12 30.0779L220.12 30.0862ZM185.308 41.8981L184.308 41.9064L184.319 43.2895L185.629 42.8451L185.308 41.8981ZM185.223 31.6712L184.926 30.7163L184.217 30.9369L184.223 31.6795L185.223 31.6712ZM210.454 23.8253L210.751 24.7802L211.46 24.5596L211.454 23.817L210.454 23.8253ZM210.452 23.5525L211.452 23.5442L211.445 22.8016L210.733 22.5928L210.452 23.5525ZM198.85 14.103L199.85 14.0947L199.842 13.0947L198.842 13.103L198.85 14.103ZM199.01 33.3296L199.018 34.3296L200.018 34.3213L200.01 33.3213L199.01 33.3296ZM191.919 33.3884L190.919 33.3967L190.927 34.3967L191.927 34.3884L191.919 33.3884ZM191.759 14.1618L191.751 13.1619L190.751 13.1702L190.76 14.1701L191.759 14.1618ZM186.094 16.118L186.009 5.89108L184.009 5.90767L184.094 16.1346L186.094 16.118ZM184.703 6.85155L219.707 18.0843L220.318 16.1799L185.314 4.9472L184.703 6.85155ZM219.012 17.1404L219.12 30.0945L221.12 30.0779L221.012 17.1238L219.012 17.1404ZM219.799 29.1392L184.986 40.9512L185.629 42.8451L220.441 31.0332L219.799 29.1392ZM186.308 41.8898L186.223 31.6629L184.223 31.6795L184.308 41.9064L186.308 41.8898ZM185.52 32.6261L210.751 24.7802L210.157 22.8704L184.926 30.7163L185.52 32.6261ZM211.454 23.817L211.452 23.5442L209.452 23.5608L209.454 23.8336L211.454 23.817ZM210.733 22.5928L185.375 15.1666L184.813 17.086L210.171 24.5122L210.733 22.5928ZM197.85 14.1113L198.01 33.3379L200.01 33.3213L199.85 14.0947L197.85 14.1113ZM199.001 32.3297L191.911 32.3885L191.927 34.3884L199.018 34.3296L199.001 32.3297ZM192.919 33.3802L192.759 14.1535L190.76 14.1701L190.919 33.3967L192.919 33.3802ZM191.768 15.1618L198.858 15.103L198.842 13.103L191.751 13.1619L191.768 15.1618ZM185.335 45.2602L185.327 44.2603L184.327 44.2686L184.335 45.2685L185.335 45.2602ZM220.243 44.9706L221.243 44.9623L221.235 43.9624L220.235 43.9707L220.243 44.9706ZM219.351 66.814L218.418 66.4534L218.417 66.4554L219.351 66.814ZM216.351 70.947L215.768 70.1342L215.763 70.1376L216.351 70.947ZM208.225 71.5599L208.691 70.6752L208.684 70.6713L208.225 71.5599ZM205.546 69.2298L204.731 69.8082L204.735 69.8143L205.546 69.2298ZM204.051 65.6966L205.03 65.4908L204.861 64.6898L204.043 64.6966L204.051 65.6966ZM203.71 65.6994L203.702 64.6994L202.739 64.7074L202.711 65.6698L203.71 65.6994ZM202.602 69.7996L201.731 69.309L201.727 69.3151L202.602 69.7996ZM199.746 72.7553L199.229 71.8992L199.225 71.9014L199.746 72.7553ZM190.351 72.4241L190.901 71.5894L190.897 71.5865L190.351 72.4241ZM186.804 68.2261L187.707 67.7963L186.804 68.2261ZM192.982 54.6744L192.974 53.6744L191.974 53.6827L191.982 54.6827L192.982 54.6744ZM193.935 62.6781L193.137 63.2811L193.143 63.2884L193.935 62.6781ZM199.961 61.6565L199.04 61.2665L199.037 61.2721L199.961 61.6565ZM200.345 54.6133L201.345 54.605L201.337 53.605L200.337 53.6133L200.345 54.6133ZM206.209 54.5647L206.201 53.5647L205.201 53.573L205.209 54.573L206.209 54.5647ZM206.651 60.6464L205.729 61.034L205.729 61.034L206.651 60.6464ZM207.789 62.12L208.37 61.3064L208.367 61.304L207.789 62.12ZM212.079 61.4707L211.274 60.8774L211.268 60.8851L212.079 61.4707ZM212.89 54.5092L213.89 54.5009L213.882 53.501L212.882 53.5093L212.89 54.5092ZM185.344 46.2602L220.252 45.9706L220.235 43.9707L185.327 44.2603L185.344 46.2602ZM219.243 44.9789L219.369 60.1148L221.369 60.0982L221.243 44.9623L219.243 44.9789ZM219.369 60.1148C219.39 62.691 219.06 64.7929 218.418 66.4534L220.283 67.1746C221.043 65.2097 221.392 62.8399 221.369 60.0982L219.369 60.1148ZM218.417 66.4554C217.771 68.1379 216.876 69.3399 215.768 70.1342L216.933 71.7597C218.424 70.6916 219.529 69.1382 220.284 67.1726L218.417 66.4554ZM215.763 70.1376C214.65 70.9453 213.322 71.3699 211.735 71.383L211.751 73.383C213.709 73.3667 215.453 72.834 216.938 71.7564L215.763 70.1376ZM211.735 71.383C210.604 71.3924 209.596 71.1522 208.691 70.6752L207.759 72.4446C208.977 73.0864 210.314 73.3949 211.751 73.383L211.735 71.383ZM208.684 70.6713C207.767 70.1982 206.994 69.5279 206.358 68.6452L204.735 69.8143C205.548 70.9424 206.56 71.8255 207.766 72.4484L208.684 70.6713ZM206.362 68.6514C205.737 67.7702 205.289 66.7227 205.03 65.4908L203.072 65.9024C203.381 67.3704 203.93 68.6783 204.731 69.8081L206.362 68.6514ZM204.043 64.6966L203.702 64.6994L203.718 66.6994L204.059 66.6965L204.043 64.6966ZM202.711 65.6698C202.671 67.0186 202.341 68.2255 201.731 69.309L203.473 70.2903C204.252 68.9076 204.661 67.3811 204.71 65.729L202.711 65.6698ZM201.727 69.3151C201.13 70.3932 200.302 71.2511 199.229 71.8992L200.263 73.6113C201.632 72.7846 202.708 71.6721 203.477 70.2842L201.727 69.3151ZM199.225 71.9014C198.194 72.5302 196.948 72.8694 195.451 72.8818L195.468 74.8817C197.266 74.8668 198.878 74.455 200.266 73.6092L199.225 71.9014ZM195.451 72.8818C193.727 72.8961 192.222 72.4605 190.901 71.5894L189.8 73.2588C191.474 74.363 193.374 74.8991 195.468 74.8817L195.451 72.8818ZM190.897 71.5865C189.574 70.7234 188.506 69.4746 187.707 67.7963L185.901 68.6559C186.838 70.6224 188.134 72.1724 189.804 73.2617L190.897 71.5865ZM187.707 67.7963C186.917 66.1348 186.492 64.1075 186.472 61.6832L184.472 61.6998C184.494 64.3435 184.957 66.6726 185.901 68.6559L187.707 67.7963ZM186.472 61.6832L186.335 45.2519L184.335 45.2685L184.472 61.6998L186.472 61.6832ZM191.982 54.6827L192.019 59.1144L194.019 59.0978L193.982 54.6661L191.982 54.6827ZM192.019 59.1144C192.033 60.7999 192.353 62.2433 193.137 63.2811L194.733 62.0752C194.322 61.5319 194.031 60.5939 194.019 59.0978L192.019 59.1144ZM193.143 63.2884C193.977 64.3717 195.19 64.861 196.612 64.8492L196.595 62.8492C195.677 62.8569 195.11 62.5654 194.727 62.0679L193.143 63.2884ZM196.612 64.8492C197.586 64.8411 198.478 64.6088 199.236 64.0995L198.121 62.4395C197.749 62.6895 197.258 62.8438 196.595 62.8492L196.612 64.8492ZM199.236 64.0995C199.981 63.5988 200.527 62.8976 200.884 62.041L199.037 61.2721C198.815 61.8066 198.506 62.1808 198.121 62.4395L199.236 64.0995ZM200.881 62.0465C201.238 61.2046 201.392 60.2365 201.383 59.173L199.383 59.1896C199.391 60.0579 199.263 60.7399 199.04 61.2665L200.881 62.0465ZM201.383 59.173L201.345 54.605L199.345 54.6216L199.383 59.1896L201.383 59.173ZM200.337 53.6133L192.974 53.6744L192.99 55.6744L200.354 55.6133L200.337 53.6133ZM205.209 54.573L205.241 58.4592L207.241 58.4426L207.209 54.5564L205.209 54.573ZM205.241 58.4592C205.249 59.3928 205.403 60.2577 205.729 61.034L207.573 60.2588C207.366 59.7668 207.247 59.168 207.241 58.4426L205.241 58.4592ZM205.729 61.034C206.058 61.8153 206.546 62.4652 207.211 62.936L208.367 61.304C208.048 61.0784 207.778 60.7459 207.573 60.2588L205.729 61.034ZM207.207 62.9336C207.908 63.4346 208.733 63.6577 209.625 63.6503L209.609 61.6503C209.069 61.6548 208.675 61.5243 208.37 61.3064L207.207 62.9336ZM209.625 63.6503C210.977 63.639 212.116 63.1268 212.889 62.0564L211.268 60.8851C210.918 61.3695 210.416 61.6436 209.609 61.6503L209.625 63.6503ZM212.884 62.0641C213.612 61.0764 213.935 59.8722 213.924 58.5235L211.924 58.5401C211.932 59.555 211.692 60.31 211.274 60.8774L212.884 62.0641ZM213.924 58.5235L213.89 54.5009L211.89 54.5175L211.924 58.5401L213.924 58.5235ZM212.882 53.5093L206.201 53.5647L206.217 55.5646L212.899 55.5092L212.882 53.5093ZM193.482 108.808L192.995 109.682L192.997 109.683L193.482 108.808ZM187.381 102.74L186.501 103.216L186.503 103.219L187.381 102.74ZM187.255 85.5241L186.372 85.0548L186.369 85.0594L187.255 85.5241ZM193.272 79.3717L192.775 78.5039L192.771 78.5065L193.272 79.3717ZM212.891 79.2089L213.376 78.3346L213.375 78.3339L212.891 79.2089ZM218.992 85.2608L218.114 85.7387L218.115 85.7401L218.992 85.2608ZM219.135 102.476L218.25 102.011L218.248 102.014L219.135 102.476ZM213.135 108.645L212.635 107.779L212.634 107.78L213.135 108.645ZM208.532 100.365L208.171 99.4326L208.162 99.4362L208.532 100.365ZM211.784 97.9006L210.961 97.3327L210.954 97.3428L211.784 97.9006ZM211.719 89.9747L210.901 90.5503L210.902 90.5521L211.719 89.9747ZM208.426 87.5644L208.778 86.6285L208.774 86.627L208.426 87.5644ZM197.841 87.6523L197.48 86.7198L197.471 86.7233L197.841 87.6523ZM194.589 90.1168L193.765 89.549L193.759 89.559L194.589 90.1168ZM194.654 98.0427L193.837 98.6183L193.838 98.62L194.654 98.0427ZM197.947 100.453L198.299 99.517L198.295 99.5156L197.947 100.453ZM203.328 109.994C199.569 110.025 196.464 109.32 193.968 107.934L192.997 109.683C195.866 111.275 199.331 112.027 203.344 111.994L203.328 109.994ZM193.969 107.935C191.454 106.533 189.559 104.643 188.258 102.26L186.503 103.219C187.994 105.95 190.168 108.106 192.995 109.682L193.969 107.935ZM188.26 102.263C186.959 99.8625 186.289 97.1676 186.264 94.1576L184.264 94.1742C184.291 97.4822 185.032 100.503 186.501 103.216L188.26 102.263ZM186.264 94.1576C186.239 91.1251 186.87 88.4093 188.14 85.9888L186.369 85.0594C184.932 87.7979 184.236 90.8434 184.264 94.1742L186.264 94.1576ZM188.138 85.9935C189.411 83.599 191.28 81.6817 193.773 80.237L192.771 78.5065C189.971 80.1285 187.829 82.3128 186.372 85.0548L188.138 85.9935ZM193.769 80.2395C196.244 78.8221 199.326 78.0714 203.063 78.0404L203.046 76.0405C199.055 76.0736 195.616 76.8771 192.775 78.5039L193.769 80.2395ZM203.063 78.0404C206.823 78.0092 209.922 78.7092 212.407 80.084L213.375 78.3339C210.517 76.7529 207.058 76.0072 203.046 76.0405L203.063 78.0404ZM212.405 80.0833C214.933 81.486 216.825 83.3701 218.114 85.7387L219.871 84.7829C218.39 82.0607 216.215 79.9102 213.376 78.3346L212.405 80.0833ZM218.115 85.7401C219.425 88.1392 220.101 90.8441 220.126 93.8767L222.126 93.8601C222.099 90.5292 221.352 87.4958 219.87 84.7815L218.115 85.7401ZM220.126 93.8767C220.151 96.8852 219.52 99.5899 218.25 102.011L220.021 102.941C221.457 100.203 222.154 97.1695 222.126 93.8601L220.126 93.8767ZM218.248 102.014C216.999 104.415 215.138 106.335 212.635 107.779L213.635 109.512C216.448 107.888 218.587 105.696 220.022 102.938L218.248 102.014ZM212.634 107.78C210.172 109.206 207.087 109.963 203.328 109.994L203.344 111.994C207.358 111.961 210.805 111.151 213.636 109.511L212.634 107.78ZM203.263 102.244C205.436 102.226 207.327 101.922 208.902 101.294L208.162 99.4362C206.883 99.9457 205.255 100.228 203.247 100.244L203.263 102.244ZM208.893 101.298C210.488 100.68 211.751 99.7427 212.614 98.4584L210.954 97.3428C210.358 98.2297 209.454 98.9356 208.171 99.4327L208.893 101.298ZM212.608 98.4684C213.487 97.193 213.891 95.66 213.877 93.9285L211.877 93.9451C211.888 95.3499 211.564 96.4594 210.961 97.3328L212.608 98.4684ZM213.877 93.9285C213.862 92.1966 213.433 90.6672 212.535 89.3974L210.902 90.5521C211.522 91.4288 211.865 92.5408 211.877 93.9451L213.877 93.9285ZM212.536 89.3992C211.653 88.1437 210.377 87.2303 208.778 86.6285L208.074 88.5004C209.37 88.9883 210.29 89.6817 210.901 90.5503L212.536 89.3992ZM208.774 86.627C207.19 86.0388 205.298 85.7722 203.127 85.7902L203.143 87.7901C205.154 87.7734 206.789 88.023 208.078 88.5019L208.774 86.627ZM203.127 85.7902C200.955 85.8082 199.063 86.1063 197.48 86.7198L198.202 88.5847C199.496 88.0834 201.133 87.8068 203.143 87.7901L203.127 85.7902ZM197.471 86.7233C195.893 87.3518 194.637 88.2851 193.765 89.549L195.412 90.6847C196.022 89.7998 196.934 89.0901 198.211 88.5812L197.471 86.7233ZM193.759 89.559C192.896 90.8428 192.499 92.3769 192.514 94.1058L194.514 94.0892C194.502 92.6818 194.822 91.5621 195.419 90.6747L193.759 89.559ZM192.514 94.1058C192.528 95.8342 192.95 97.3581 193.837 98.6183L195.472 97.4671C194.864 96.6032 194.525 95.497 194.514 94.0892L192.514 94.1058ZM193.838 98.62C194.731 99.8837 196.006 100.799 197.599 101.39L198.295 99.5156C197.016 99.0402 196.095 98.3483 195.471 97.4653L193.838 98.62ZM197.595 101.389C199.191 101.989 201.09 102.262 203.263 102.244L203.247 100.244C201.238 100.261 199.599 100.006 198.299 99.517L197.595 101.389ZM220.998 135.892L221.998 135.884L221.989 134.884L220.989 134.892L220.998 135.892ZM221.076 145.369L221.085 146.369L222.085 146.361L222.076 145.361L221.076 145.369ZM191.794 143.703L192.335 142.862L192.334 142.861L191.794 143.703ZM187.268 138.456L186.364 138.883L186.365 138.887L187.268 138.456ZM187.137 122.673L186.227 122.257L186.226 122.261L187.137 122.673ZM191.576 117.352L191.028 116.515L191.022 116.519L191.576 117.352ZM220.826 115.234L221.826 115.226L221.818 114.226L220.818 114.234L220.826 115.234ZM220.905 124.711L220.913 125.711L221.913 125.702L221.905 124.702L220.905 124.711ZM196.468 125.629L195.973 124.761L195.968 124.764L196.468 125.629ZM194.508 127.623L193.634 127.137L193.631 127.142L194.508 127.623ZM194.556 133.418L193.69 133.919L194.556 133.418ZM196.549 135.379L196.063 136.253L196.068 136.256L196.549 135.379ZM219.998 135.901L220.076 145.377L222.076 145.361L221.998 135.884L219.998 135.901ZM221.068 144.369L198.705 144.555L198.722 146.555L221.085 146.369L221.068 144.369ZM198.705 144.555C196.212 144.575 194.103 143.999 192.335 142.862L191.253 144.544C193.394 145.92 195.897 146.578 198.722 146.555L198.705 144.555ZM192.334 142.861C190.562 141.725 189.172 140.124 188.17 138.025L186.365 138.887C187.514 141.293 189.143 143.191 191.255 144.545L192.334 142.861ZM188.172 138.029C187.181 135.931 186.658 133.458 186.634 130.586L184.634 130.603C184.66 133.708 185.226 136.476 186.364 138.883L188.172 138.029ZM186.634 130.586C186.61 127.69 187.092 125.198 188.048 123.085L186.226 122.261C185.128 124.687 184.608 127.476 184.634 130.603L186.634 130.586ZM188.046 123.089C189.013 120.973 190.376 119.35 192.129 118.184L191.022 116.519C188.933 117.908 187.336 119.832 186.227 122.257L188.046 123.089ZM192.124 118.188C193.873 117.042 195.975 116.44 198.472 116.419L198.455 114.419C195.634 114.443 193.144 115.129 191.028 116.515L192.124 118.188ZM198.472 116.419L220.835 116.234L220.818 114.234L198.455 114.419L198.472 116.419ZM219.826 115.242L219.905 124.719L221.905 124.702L221.826 115.226L219.826 115.242ZM220.897 123.711L199.352 123.89L199.368 125.889L220.913 125.711L220.897 123.711ZM199.352 123.89C198.12 123.9 196.985 124.183 195.973 124.761L196.964 126.498C197.649 126.107 198.442 125.897 199.368 125.889L199.352 123.89ZM195.968 124.764C194.975 125.339 194.192 126.134 193.634 127.137L195.381 128.109C195.764 127.422 196.289 126.889 196.969 126.495L195.968 124.764ZM193.631 127.142C193.07 128.163 192.806 129.303 192.816 130.535L194.816 130.518C194.808 129.591 195.005 128.795 195.384 128.104L193.631 127.142ZM192.816 130.535C192.826 131.776 193.109 132.914 193.69 133.919L195.421 132.918C195.034 132.249 194.824 131.459 194.816 130.518L192.816 130.535ZM193.69 133.919C194.265 134.912 195.06 135.695 196.063 136.253L197.036 134.505C196.349 134.123 195.815 133.598 195.421 132.918L193.69 133.919ZM196.068 136.256C197.09 136.817 198.229 137.081 199.461 137.071L199.445 135.071C198.518 135.079 197.722 134.882 197.031 134.503L196.068 136.256ZM199.461 137.071L221.006 136.892L220.989 134.892L199.445 135.071L199.461 137.071ZM213.47 148.982L213.461 147.982L212.461 147.99L212.47 148.99L213.47 148.982ZM221.106 148.919L222.106 148.91L222.097 147.91L221.097 147.919L221.106 148.919ZM221.357 179.259L221.366 180.259L222.366 180.25L222.357 179.25L221.357 179.259ZM213.721 179.322L212.721 179.33L212.73 180.33L213.73 180.322L213.721 179.322ZM213.634 168.822L214.634 168.814L214.626 167.814L213.626 167.822L213.634 168.822ZM186.362 169.049L185.362 169.057L185.371 170.057L186.371 170.049L186.362 169.049ZM186.285 159.708L186.277 158.708L185.277 158.716L185.285 159.716L186.285 159.708ZM213.557 159.482L213.565 160.482L214.565 160.473L214.557 159.473L213.557 159.482ZM213.478 149.982L221.114 149.919L221.097 147.919L213.461 147.982L213.478 149.982ZM220.106 148.927L220.357 179.267L222.357 179.25L222.106 148.91L220.106 148.927ZM221.349 178.259L213.713 178.322L213.73 180.322L221.366 180.259L221.349 178.259ZM214.721 179.314L214.634 168.814L212.634 168.831L212.721 179.33L214.721 179.314ZM213.626 167.822L186.354 168.049L186.371 170.049L213.643 169.822L213.626 167.822ZM187.362 169.04L187.285 159.7L185.285 159.716L185.362 169.057L187.362 169.04ZM186.293 160.708L213.565 160.482L213.548 158.482L186.277 158.708L186.293 160.708ZM214.557 159.473L214.47 148.974L212.47 148.99L212.557 159.49L214.557 159.473ZM221.638 213.046L222.638 213.038L222.629 212.038L221.629 212.046L221.638 213.046ZM221.716 222.523L221.725 223.523L222.725 223.514L222.716 222.514L221.716 222.523ZM192.435 220.857L192.975 220.015L192.974 220.015L192.435 220.857ZM187.908 215.61L187.004 216.037L187.005 216.041L187.908 215.61ZM187.777 199.826L186.868 199.41L186.866 199.414L187.777 199.826ZM192.216 194.505L191.668 193.669L191.662 193.672L192.216 194.505ZM221.466 192.387L222.466 192.379L222.458 191.379L221.458 191.387L221.466 192.387ZM221.545 201.864L221.553 202.864L222.553 202.856L222.545 201.856L221.545 201.864ZM197.109 202.783L196.613 201.915L196.608 201.917L197.109 202.783ZM195.148 204.777L194.274 204.29L194.271 204.295L195.148 204.777ZM195.196 210.572L194.33 211.073L195.196 210.572ZM197.189 212.533L196.703 213.406L196.708 213.409L197.189 212.533ZM220.638 213.054L220.716 222.531L222.716 222.514L222.638 213.038L220.638 213.054ZM221.708 221.523L199.345 221.708L199.362 223.708L221.725 223.523L221.708 221.523ZM199.345 221.708C196.852 221.729 194.743 221.152 192.975 220.015L191.894 221.698C194.034 223.074 196.537 223.732 199.362 223.708L199.345 221.708ZM192.974 220.015C191.202 218.878 189.812 217.278 188.81 215.179L187.005 216.041C188.154 218.447 189.783 220.344 191.895 221.698L192.974 220.015ZM188.812 215.183C187.821 213.085 187.298 210.612 187.274 207.74L185.274 207.756C185.3 210.861 185.867 213.63 187.004 216.037L188.812 215.183ZM187.274 207.74C187.25 204.844 187.732 202.352 188.688 200.238L186.866 199.414C185.768 201.841 185.249 204.63 185.274 207.756L187.274 207.74ZM188.686 200.242C189.654 198.127 191.016 196.504 192.77 195.338L191.662 193.672C189.573 195.061 187.976 196.985 186.868 199.41L188.686 200.242ZM192.764 195.342C194.513 194.196 196.615 193.594 199.112 193.573L199.095 191.573C196.274 191.596 193.784 192.282 191.668 193.669L192.764 195.342ZM199.112 193.573L221.475 193.387L221.458 191.387L199.095 191.573L199.112 193.573ZM220.466 192.396L220.545 201.873L222.545 201.856L222.466 192.379L220.466 192.396ZM221.537 200.864L199.992 201.043L200.009 203.043L221.553 202.864L221.537 200.864ZM199.992 201.043C198.76 201.053 197.625 201.337 196.613 201.915L197.604 203.651C198.289 203.261 199.082 203.051 200.009 203.043L199.992 201.043ZM196.608 201.917C195.615 202.492 194.832 203.288 194.274 204.29L196.022 205.263C196.404 204.576 196.929 204.042 197.609 203.649L196.608 201.917ZM194.271 204.295C193.71 205.317 193.446 206.456 193.456 207.689L195.456 207.672C195.448 206.745 195.645 205.949 196.024 205.258L194.271 204.295ZM193.456 207.689C193.466 208.93 193.749 210.068 194.33 211.073L196.061 210.071C195.675 209.402 195.464 208.612 195.456 207.672L193.456 207.689ZM194.33 211.073C194.905 212.066 195.701 212.848 196.703 213.406L197.676 211.659C196.989 211.276 196.455 210.752 196.061 210.071L194.33 211.073ZM196.708 213.409C197.73 213.97 198.869 214.235 200.101 214.225L200.085 212.225C199.158 212.232 198.362 212.036 197.671 211.656L196.708 213.409ZM200.101 214.225L221.646 214.046L221.629 212.046L200.085 212.225L200.101 214.225ZM211.001 245.935L210.913 244.939L209.994 245.02L210.001 245.943L211.001 245.935ZM213.65 244.634L212.882 243.994L212.877 244L213.65 244.634ZM214.198 238.8L213.263 239.155L213.267 239.165L214.198 238.8ZM213.249 237.444L213.839 236.637L213.839 236.637L213.249 237.444ZM211.882 236.995L211.836 237.994L211.852 237.995L211.868 237.995L211.882 236.995ZM210.741 237.227L210.287 236.336L210.269 236.345L210.251 236.355L210.741 237.227ZM209.845 238.086L209.023 237.516L209.018 237.525L209.012 237.533L209.845 238.086ZM208.58 241.728L209.559 241.929L209.561 241.921L208.58 241.728ZM207.99 244.596L207.01 244.395L207.01 244.397L207.99 244.596ZM204.071 252.964L203.371 252.25L203.367 252.254L204.071 252.964ZM201.053 254.915L200.703 253.979L200.695 253.982L201.053 254.915ZM197.376 255.594L197.38 256.594L197.393 256.594L197.376 255.594ZM191.533 253.921L190.958 254.739L191.533 253.921ZM187.862 249.076L188.789 248.703L188.789 248.701L187.862 249.076ZM187.835 233.547L186.903 233.184L186.903 233.186L187.835 233.547ZM191.933 228.263L191.375 227.433L191.37 227.437L191.933 228.263ZM199.111 226.328L200.111 226.32L200.102 225.316L199.099 225.328L199.111 226.328ZM199.186 235.328L199.247 236.326L200.193 236.268L200.185 235.32L199.186 235.328ZM196.499 236.151L195.943 235.32L195.943 235.32L196.499 236.151ZM194.862 238.176L193.942 237.786L193.94 237.79L194.862 238.176ZM194.722 243.837L193.786 244.189L194.722 243.837ZM195.774 245.379L195.159 246.167L195.774 245.379ZM197.296 245.912L197.284 246.912L197.305 246.912L197.326 246.912L197.296 245.912ZM198.689 245.372L198.056 244.599L198.044 244.608L198.032 244.618L198.689 245.372ZM199.767 243.727L198.846 243.337L198.841 243.349L199.767 243.727ZM200.661 240.634L201.64 240.84L201.641 240.837L200.661 240.634ZM201.383 237.151L200.404 236.947L200.403 236.948L201.383 237.151ZM204.68 229.811L203.928 229.152L203.923 229.157L204.68 229.811ZM211.118 227.115L211.122 228.115L211.131 228.115L211.118 227.115ZM216.945 228.84L217.523 228.024L217.522 228.023L216.945 228.84ZM220.889 233.801L221.803 233.394L221.802 233.392L220.889 233.801ZM220.994 248.46L220.082 248.051L220.994 248.46ZM217.045 253.249L216.494 252.414L216.487 252.419L217.045 253.249ZM211.076 255.003L210.076 255.011L210.085 256.016L211.09 256.003L211.076 255.003ZM211.089 246.931C212.449 246.811 213.596 246.275 214.422 245.269L212.877 244C212.443 244.527 211.825 244.858 210.913 244.939L211.089 246.931ZM214.417 245.275C215.264 244.26 215.589 242.837 215.576 241.192L213.576 241.209C213.588 242.632 213.295 243.498 212.882 243.994L214.417 245.275ZM215.576 241.192C215.567 240.144 215.433 239.212 215.129 238.436L213.267 239.165C213.45 239.635 213.568 240.302 213.576 241.209L215.576 241.192ZM215.133 238.445C214.853 237.709 214.438 237.074 213.839 236.637L212.659 238.252C212.86 238.399 213.078 238.668 213.263 239.155L215.133 238.445ZM213.839 236.637C213.265 236.218 212.607 236.005 211.896 235.996L211.868 237.995C212.179 238 212.432 238.086 212.659 238.252L213.839 236.637ZM211.927 235.997C211.352 235.97 210.797 236.076 210.287 236.336L211.196 238.117C211.365 238.031 211.57 237.982 211.836 237.994L211.927 235.997ZM210.251 236.355C209.762 236.63 209.358 237.034 209.023 237.516L210.667 238.656C210.872 238.361 211.065 238.192 211.232 238.098L210.251 236.355ZM209.012 237.533C208.694 238.011 208.426 238.589 208.197 239.245L210.086 239.905C210.278 239.353 210.48 238.938 210.678 238.64L209.012 237.533ZM208.197 239.245C207.967 239.906 207.769 240.671 207.599 241.534L209.561 241.921C209.718 241.122 209.894 240.453 210.086 239.905L208.197 239.245ZM207.6 241.526L207.01 244.395L208.969 244.798L209.559 241.929L207.6 241.526ZM207.01 244.397C206.629 246.274 206.125 247.85 205.509 249.139L207.314 250.001C208.017 248.528 208.565 246.789 208.97 244.795L207.01 244.397ZM205.509 249.139C204.891 250.435 204.174 251.464 203.371 252.25L204.77 253.679C205.771 252.699 206.615 251.465 207.314 250.001L205.509 249.139ZM203.367 252.254C202.572 253.041 201.686 253.612 200.703 253.979L201.402 255.852C202.663 255.382 203.788 254.652 204.775 253.675L203.367 252.254ZM200.695 253.982C199.693 254.365 198.585 254.573 197.359 254.594L197.393 256.594C198.827 256.569 200.169 256.325 201.41 255.849L200.695 253.982ZM197.373 254.594C195.247 254.601 193.51 254.087 192.107 253.102L190.958 254.739C192.756 256.001 194.914 256.602 197.38 256.594L197.373 254.594ZM192.107 253.102C190.69 252.107 189.576 250.66 188.789 248.703L186.934 249.449C187.841 251.705 189.175 253.488 190.958 254.739L192.107 253.102ZM188.789 248.701C188.001 246.752 187.578 244.358 187.554 241.493L185.554 241.51C185.58 244.553 186.028 247.209 186.935 249.451L188.789 248.701ZM187.554 241.493C187.53 238.555 187.944 236.034 188.768 233.908L186.903 233.186C185.968 235.598 185.529 238.379 185.554 241.51L187.554 241.493ZM188.767 233.91C189.579 231.825 190.824 230.231 192.497 229.089L191.37 227.437C189.336 228.825 187.849 230.755 186.903 233.184L188.767 233.91ZM192.492 229.093C194.153 227.975 196.34 227.362 199.123 227.328L199.099 225.328C196.041 225.366 193.443 226.042 191.375 227.433L192.492 229.093ZM198.111 226.337L198.186 235.336L200.185 235.32L200.111 226.32L198.111 226.337ZM199.124 234.33C197.92 234.404 196.844 234.718 195.943 235.32L197.055 236.983C197.601 236.618 198.315 236.383 199.247 236.326L199.124 234.33ZM195.943 235.32C195.045 235.92 194.379 236.755 193.942 237.786L195.783 238.567C196.081 237.864 196.507 237.349 197.055 236.983L195.943 235.32ZM193.94 237.79C193.508 238.822 193.315 240.003 193.326 241.309L195.326 241.292C195.317 240.188 195.481 239.288 195.785 238.563L193.94 237.79ZM193.326 241.309C193.335 242.395 193.476 243.365 193.786 244.189L195.658 243.485C195.456 242.949 195.334 242.229 195.326 241.292L193.326 241.309ZM193.786 244.189C194.088 244.993 194.532 245.678 195.159 246.167L196.39 244.591C196.124 244.384 195.867 244.041 195.658 243.485L193.786 244.189ZM195.159 246.167C195.778 246.651 196.498 246.903 197.284 246.912L197.308 244.912C196.958 244.908 196.663 244.805 196.39 244.591L195.159 246.167ZM197.326 246.912C198.086 246.889 198.773 246.626 199.346 246.126L198.032 244.618C197.815 244.807 197.574 244.904 197.266 244.913L197.326 246.912ZM199.323 246.146C199.911 245.664 200.35 244.943 200.692 244.105L198.841 243.349C198.559 244.038 198.28 244.415 198.056 244.599L199.323 246.146ZM200.688 244.116C201.046 243.269 201.36 242.168 201.64 240.84L199.683 240.428C199.416 241.695 199.133 242.657 198.846 243.337L200.688 244.116ZM201.641 240.837L202.362 237.353L200.403 236.948L199.682 240.431L201.641 240.837ZM202.362 237.355C202.983 234.372 204.025 232.097 205.436 230.465L203.923 229.157C202.228 231.118 201.072 233.737 200.404 236.947L202.362 237.355ZM205.432 230.47C206.779 228.933 208.634 228.125 211.122 228.115L211.114 226.115C208.147 226.127 205.71 227.117 203.928 229.152L205.432 230.47ZM211.131 228.115C213.154 228.088 214.886 228.609 216.368 229.656L217.522 228.023C215.666 226.711 213.513 226.083 211.104 226.115L211.131 228.115ZM216.367 229.655C217.883 230.73 219.091 232.235 219.977 234.21L221.802 233.392C220.789 231.133 219.367 229.33 217.523 228.024L216.367 229.655ZM219.976 234.209C220.86 236.191 221.326 238.496 221.348 241.144L223.348 241.128C223.324 238.254 222.818 235.669 221.803 233.394L219.976 234.209ZM221.348 241.144C221.371 243.853 220.936 246.146 220.082 248.051L221.906 248.869C222.904 246.645 223.372 244.055 223.348 241.128L221.348 241.144ZM220.082 248.051C219.225 249.961 218.026 251.402 216.494 252.414L217.596 254.083C219.478 252.84 220.911 251.088 221.906 248.869L220.082 248.051ZM216.487 252.419C214.972 253.437 213.177 253.975 211.063 254.003L211.09 256.003C213.544 255.97 215.728 255.339 217.603 254.079L216.487 252.419ZM212.076 254.994L212.001 245.927L210.001 245.943L210.076 255.011L212.076 254.994Z" fill="#05C2DF" fill-opacity="0.2" mask="url(#path-3-outside-2_3495_3196)"/>
<mask id="path-5-outside-3_3495_3196" maskUnits="userSpaceOnUse" x="96.9066" y="2.50999" width="41.0976" height="253.315" fill="black">
<rect fill="white" x="96.9066" y="2.50999" width="41.0976" height="253.315"/>
<path d="M135.902 243.2L135.987 253.427L100.983 242.194L100.876 229.24L135.688 217.428L135.773 227.655L110.542 235.501L110.544 235.774L135.902 243.2ZM122.146 245.223L121.986 225.997L129.077 225.938L129.236 245.165L122.146 245.223ZM135.66 214.066L100.753 214.356L100.627 199.22C100.605 196.561 100.944 194.325 101.645 192.512C102.346 190.688 103.346 189.311 104.645 188.379C105.944 187.437 107.48 186.958 109.253 186.943C110.537 186.933 111.709 187.207 112.771 187.767C113.832 188.315 114.725 189.091 115.45 190.097C116.162 191.102 116.661 192.28 116.945 193.63L117.286 193.627C117.33 192.127 117.699 190.76 118.394 189.527C119.077 188.294 120.029 187.309 121.25 186.571C122.46 185.834 123.889 185.458 125.536 185.445C127.445 185.429 129.148 185.915 130.645 186.902C132.142 187.879 133.324 189.278 134.191 191.1C135.059 192.923 135.503 195.101 135.524 197.635L135.66 214.066ZM128.014 204.652L127.977 200.22C127.964 198.63 127.659 197.439 127.061 196.648C126.452 195.858 125.563 195.467 124.392 195.477C123.574 195.484 122.882 195.677 122.317 196.057C121.752 196.437 121.325 196.974 121.035 197.67C120.745 198.354 120.605 199.179 120.613 200.145L120.65 204.713L128.014 204.652ZM114.787 204.762L114.755 200.876C114.748 200.046 114.611 199.314 114.345 198.68C114.078 198.046 113.699 197.555 113.207 197.206C112.704 196.847 112.095 196.67 111.379 196.676C110.299 196.685 109.479 197.078 108.917 197.856C108.344 198.633 108.062 199.613 108.072 200.795L108.105 204.817L114.787 204.762ZM117.66 148.333C121.546 148.3 124.831 149.029 127.514 150.518C130.185 152.007 132.219 154.03 133.615 156.587C135 159.144 135.706 162.002 135.732 165.16C135.758 168.342 135.095 171.223 133.741 173.802C132.376 176.371 130.37 178.421 127.724 179.955C125.066 181.477 121.805 182.254 117.942 182.286C114.055 182.318 110.777 181.595 108.105 180.117C105.422 178.628 103.388 176.611 102.004 174.066C100.607 171.509 99.896 168.64 99.8696 165.458C99.8433 162.299 100.507 159.43 101.861 156.85C103.203 154.271 105.203 152.214 107.861 150.681C110.507 149.148 113.774 148.365 117.66 148.333ZM117.741 158.082C115.65 158.1 113.891 158.393 112.464 158.961C111.025 159.519 109.941 160.34 109.211 161.426C108.47 162.5 108.106 163.821 108.119 165.39C108.132 166.958 108.518 168.278 109.277 169.352C110.025 170.414 111.122 171.217 112.57 171.762C114.006 172.296 115.77 172.554 117.861 172.536C119.952 172.519 121.716 172.232 123.155 171.674C124.582 171.105 125.666 170.284 126.407 169.21C127.137 168.124 127.495 166.797 127.482 165.229C127.469 163.661 127.089 162.346 126.342 161.284C125.583 160.21 124.485 159.407 123.049 158.873C121.601 158.329 119.832 158.065 117.741 158.082ZM99.9982 123.434L99.9196 113.957L122.282 113.772C124.941 113.75 127.248 114.367 129.201 115.623C131.144 116.869 132.653 118.618 133.728 120.87C134.792 123.123 135.337 125.743 135.362 128.732C135.387 131.743 134.886 134.384 133.859 136.654C132.821 138.924 131.341 140.698 129.42 141.975C127.487 143.241 125.191 143.885 122.532 143.907L100.17 144.093L100.091 134.616L121.636 134.437C122.715 134.428 123.679 134.181 124.527 133.697C125.364 133.213 126.018 132.548 126.488 131.703C126.958 130.847 127.189 129.879 127.18 128.8C127.171 127.709 126.924 126.745 126.44 125.908C125.956 125.071 125.291 124.418 124.446 123.947C123.59 123.477 122.622 123.247 121.543 123.255L99.9982 123.434ZM107.526 110.344L99.8901 110.408L99.6384 80.0678L107.275 80.0044L107.362 90.5041L134.633 90.2778L134.711 99.6184L107.439 99.8447L107.526 110.344ZM99.3581 46.2806L99.2795 36.8037L121.642 36.6181C124.301 36.5961 126.608 37.2133 128.561 38.4699C130.504 39.7152 132.012 41.4641 133.088 43.7166C134.152 45.9692 134.697 48.5898 134.721 51.5783C134.746 54.5896 134.246 57.2302 133.219 59.5001C132.181 61.7702 130.701 63.5439 128.78 64.8213C126.847 66.0873 124.551 66.7314 121.892 66.7535L99.5295 66.939L99.4509 57.462L120.996 57.2833C122.075 57.2743 123.039 57.0277 123.887 56.5434C124.724 56.0591 125.378 55.3946 125.848 54.5498C126.318 53.6936 126.549 52.7257 126.54 51.6462C126.531 50.5553 126.284 49.5914 125.8 48.7545C125.316 47.9176 124.651 47.264 123.806 46.7937C122.95 46.3235 121.982 46.0929 120.903 46.1019L99.3581 46.2806ZM109.995 13.3915C108.859 13.4919 107.976 13.9253 107.346 14.6919C106.716 15.4472 106.407 16.5918 106.42 18.1259C106.428 19.1031 106.554 19.9032 106.798 20.5262C107.03 21.138 107.347 21.5899 107.747 21.8821C108.147 22.1742 108.603 22.3238 109.114 22.331C109.535 22.3502 109.915 22.2732 110.254 22.0999C110.582 21.9153 110.881 21.6288 111.151 21.2402C111.409 20.8516 111.643 20.3554 111.854 19.7513C112.065 19.1473 112.252 18.4298 112.416 17.5988L113.006 14.7302C113.399 12.7951 113.925 11.1372 114.584 9.75673C115.243 8.37622 116.023 7.2447 116.925 6.36219C117.816 5.47977 118.822 4.82936 119.943 4.41095C121.065 3.98117 122.29 3.75509 123.62 3.7327C125.915 3.72502 127.863 4.28274 129.463 5.40587C131.063 6.52899 132.287 8.1439 133.134 10.2506C133.981 12.3459 134.417 14.8708 134.441 17.8252C134.467 20.8592 134.04 23.5106 133.161 25.7793C132.282 28.0367 130.916 29.7981 129.062 31.0635C127.198 32.3176 124.805 32.9625 121.885 32.9981L121.81 23.9984C122.878 23.9327 123.774 23.6582 124.497 23.175C125.22 22.6917 125.766 22.0167 126.133 21.1499C126.501 20.2719 126.68 19.2306 126.67 18.0261C126.662 17.0147 126.53 16.1692 126.274 15.4895C126.018 14.8098 125.668 14.2956 125.221 13.947C124.775 13.5984 124.268 13.4208 123.7 13.4142C123.166 13.43 122.701 13.61 122.307 13.9542C121.9 14.2871 121.541 14.8355 121.229 15.5995C120.906 16.3636 120.608 17.3945 120.334 18.6923L119.613 22.1757C118.969 25.272 117.87 27.7187 116.316 29.5158C114.751 31.3015 112.605 32.2001 109.878 32.2113C107.662 32.2411 105.72 31.6663 104.051 30.4869C102.371 29.2962 101.056 27.6423 100.106 25.5251C99.1569 23.3966 98.6707 20.9516 98.6477 18.1904C98.6244 15.3723 99.0757 12.931 100.002 10.8664C100.928 8.80181 102.244 7.20561 103.951 6.07777C105.646 4.93867 107.636 4.35396 109.919 4.32365L109.995 13.3915Z"/>
</mask>
<path d="M135.902 243.2L136.902 243.192L136.896 242.449L136.183 242.24L135.902 243.2ZM135.987 253.427L135.681 254.379L136.998 254.802L136.987 253.419L135.987 253.427ZM100.983 242.194L99.9835 242.203L99.9895 242.926L100.678 243.147L100.983 242.194ZM100.876 229.24L100.555 228.293L99.8701 228.526L99.8761 229.249L100.876 229.24ZM135.688 217.428L136.688 217.42L136.677 216.037L135.367 216.481L135.688 217.428ZM135.773 227.655L136.07 228.61L136.779 228.39L136.773 227.647L135.773 227.655ZM110.542 235.501L110.245 234.546L109.536 234.767L109.542 235.509L110.542 235.501ZM110.544 235.774L109.544 235.782L109.55 236.525L110.263 236.734L110.544 235.774ZM122.146 245.223L121.146 245.232L121.154 246.232L122.154 246.223L122.146 245.223ZM121.986 225.997L121.978 224.997L120.978 225.005L120.986 226.005L121.986 225.997ZM129.077 225.938L130.077 225.93L130.069 224.93L129.069 224.938L129.077 225.938ZM129.236 245.165L129.245 246.165L130.245 246.156L130.236 245.156L129.236 245.165ZM134.902 243.208L134.987 253.435L136.987 253.419L136.902 243.192L134.902 243.208ZM136.293 252.475L101.289 241.242L100.678 243.147L135.681 254.379L136.293 252.475ZM101.983 242.186L101.876 229.232L99.8761 229.249L99.9835 242.203L101.983 242.186ZM101.197 230.187L136.01 218.375L135.367 216.481L100.555 228.293L101.197 230.187ZM134.688 217.437L134.773 227.663L136.773 227.647L136.688 217.42L134.688 217.437ZM135.476 226.7L110.245 234.546L110.839 236.456L136.07 228.61L135.476 226.7ZM109.542 235.509L109.544 235.782L111.544 235.766L111.542 235.493L109.542 235.509ZM110.263 236.734L135.621 244.16L136.183 242.24L110.825 234.814L110.263 236.734ZM123.146 245.215L122.986 225.989L120.986 226.005L121.146 245.232L123.146 245.215ZM121.994 226.997L129.085 226.938L129.069 224.938L121.978 224.997L121.994 226.997ZM128.077 225.946L128.236 245.173L130.236 245.156L130.077 225.93L128.077 225.946ZM129.228 244.165L122.137 244.223L122.154 246.223L129.245 246.165L129.228 244.165ZM135.66 214.066L135.669 215.066L136.669 215.058L136.66 214.058L135.66 214.066ZM100.753 214.356L99.7526 214.364L99.7609 215.364L100.761 215.356L100.753 214.356ZM101.645 192.512L102.578 192.873L102.579 192.871L101.645 192.512ZM104.645 188.379L105.228 189.192L105.232 189.189L104.645 188.379ZM112.771 187.767L112.305 188.651L112.312 188.655L112.771 187.767ZM115.45 190.097L116.265 189.518L116.261 189.512L115.45 190.097ZM116.945 193.63L115.966 193.836L116.135 194.637L116.953 194.63L116.945 193.63ZM117.286 193.627L117.294 194.627L118.257 194.619L118.285 193.657L117.286 193.627ZM118.394 189.527L119.265 190.017L119.269 190.011L118.394 189.527ZM121.25 186.571L121.767 187.427L121.77 187.425L121.25 186.571ZM130.645 186.902L130.094 187.737L130.099 187.74L130.645 186.902ZM134.191 191.1L133.288 191.53L134.191 191.1ZM128.014 204.652L128.022 205.652L129.022 205.644L129.014 204.644L128.014 204.652ZM127.061 196.648L127.859 196.045L127.853 196.038L127.061 196.648ZM121.035 197.67L121.956 198.06L121.958 198.054L121.035 197.67ZM120.65 204.713L119.651 204.721L119.659 205.721L120.659 205.713L120.65 204.713ZM114.787 204.762L114.795 205.762L115.795 205.753L115.787 204.753L114.787 204.762ZM114.345 198.68L115.266 198.292L115.266 198.292L114.345 198.68ZM113.207 197.206L112.626 198.02L112.629 198.022L113.207 197.206ZM108.917 197.856L109.722 198.449L109.728 198.441L108.917 197.856ZM108.105 204.817L107.106 204.825L107.114 205.825L108.114 205.817L108.105 204.817ZM135.652 213.066L100.744 213.356L100.761 215.356L135.669 215.066L135.652 213.066ZM101.752 214.348L101.627 199.212L99.627 199.228L99.7526 214.364L101.752 214.348ZM101.627 199.212C101.606 196.635 101.936 194.533 102.578 192.873L100.713 192.152C99.9527 194.117 99.6042 196.487 99.627 199.228L101.627 199.212ZM102.579 192.871C103.225 191.189 104.12 189.987 105.228 189.192L104.063 187.567C102.572 188.635 101.467 190.188 100.712 192.154L102.579 192.871ZM105.232 189.189C106.345 188.381 107.674 187.957 109.261 187.943L109.244 185.943C107.286 185.96 105.543 186.492 104.058 187.57L105.232 189.189ZM109.261 187.943C110.392 187.934 111.4 188.174 112.305 188.651L113.237 186.882C112.019 186.24 110.682 185.932 109.244 185.943L109.261 187.943ZM112.312 188.655C113.228 189.128 114.002 189.799 114.638 190.681L116.261 189.512C115.448 188.384 114.436 187.501 113.23 186.878L112.312 188.655ZM114.634 190.675C115.258 191.556 115.707 192.604 115.966 193.836L117.923 193.424C117.615 191.956 117.066 190.648 116.265 189.518L114.634 190.675ZM116.953 194.63L117.294 194.627L117.277 192.627L116.936 192.63L116.953 194.63ZM118.285 193.657C118.325 192.308 118.655 191.101 119.265 190.017L117.522 189.036C116.744 190.419 116.335 191.945 116.286 193.597L118.285 193.657ZM119.269 190.011C119.866 188.933 120.694 188.075 121.767 187.427L120.733 185.715C119.364 186.542 118.288 187.654 117.519 189.042L119.269 190.011ZM121.77 187.425C122.802 186.796 124.048 186.457 125.545 186.445L125.528 184.445C123.729 184.46 122.117 184.871 120.73 185.717L121.77 187.425ZM125.545 186.445C127.268 186.43 128.774 186.866 130.094 187.737L131.196 186.068C129.522 184.963 127.622 184.427 125.528 184.445L125.545 186.445ZM130.099 187.74C131.422 188.603 132.49 189.852 133.288 191.53L135.094 190.671C134.158 188.704 132.862 187.154 131.191 186.065L130.099 187.74ZM133.288 191.53C134.079 193.192 134.504 195.219 134.524 197.643L136.524 197.627C136.502 194.983 136.038 192.654 135.094 190.671L133.288 191.53ZM134.524 197.643L134.66 214.074L136.66 214.058L136.524 197.627L134.524 197.643ZM129.014 204.644L128.977 200.212L126.977 200.229L127.014 204.66L129.014 204.644ZM128.977 200.212C128.963 198.527 128.643 197.083 127.859 196.045L126.263 197.251C126.674 197.795 126.965 198.732 126.977 200.229L128.977 200.212ZM127.853 196.038C127.019 194.955 125.806 194.465 124.384 194.477L124.4 196.477C125.319 196.47 125.886 196.761 126.269 197.259L127.853 196.038ZM124.384 194.477C123.41 194.485 122.518 194.718 121.76 195.227L122.875 196.887C123.247 196.637 123.738 196.483 124.4 196.477L124.384 194.477ZM121.76 195.227C121.015 195.728 120.469 196.429 120.112 197.285L121.958 198.054C122.181 197.52 122.49 197.146 122.875 196.887L121.76 195.227ZM120.114 197.28C119.758 198.122 119.604 199.09 119.613 200.153L121.613 200.137C121.605 199.268 121.733 198.587 121.956 198.06L120.114 197.28ZM119.613 200.153L119.651 204.721L121.65 204.705L121.613 200.137L119.613 200.153ZM120.659 205.713L128.022 205.652L128.006 203.652L120.642 203.713L120.659 205.713ZM115.787 204.753L115.755 200.867L113.755 200.884L113.787 204.77L115.787 204.753ZM115.755 200.867C115.747 199.934 115.593 199.069 115.266 198.292L113.423 199.068C113.63 199.56 113.749 200.158 113.755 200.884L115.755 200.867ZM115.266 198.292C114.938 197.511 114.45 196.861 113.785 196.39L112.629 198.022C112.948 198.248 113.218 198.58 113.423 199.068L115.266 198.292ZM113.789 196.393C113.088 195.892 112.263 195.669 111.371 195.676L111.387 197.676C111.926 197.672 112.321 197.802 112.626 198.02L113.789 196.393ZM111.371 195.676C110.019 195.687 108.88 196.2 108.107 197.27L109.728 198.441C110.078 197.957 110.58 197.683 111.387 197.676L111.371 195.676ZM108.112 197.262C107.384 198.25 107.061 199.454 107.072 200.803L109.072 200.786C109.064 199.771 109.304 199.016 109.722 198.449L108.112 197.262ZM107.072 200.803L107.106 204.825L109.105 204.809L109.072 200.786L107.072 200.803ZM108.114 205.817L114.795 205.762L114.779 203.762L108.097 203.817L108.114 205.817ZM127.514 150.518L128.001 149.644L127.999 149.644L127.514 150.518ZM133.615 156.587L134.495 156.111L134.493 156.108L133.615 156.587ZM133.741 173.802L134.624 174.272L134.627 174.267L133.741 173.802ZM127.724 179.955L128.221 180.823L128.225 180.82L127.724 179.955ZM108.105 180.117L107.62 180.992L107.621 180.993L108.105 180.117ZM102.004 174.066L102.882 173.588L102.881 173.586L102.004 174.066ZM101.861 156.85L102.746 157.315L102.748 157.312L101.861 156.85ZM107.861 150.681L108.361 151.547L108.362 151.546L107.861 150.681ZM112.464 158.961L112.825 159.894L112.834 159.89L112.464 158.961ZM109.211 161.426L110.035 161.994L110.041 161.984L109.211 161.426ZM109.277 169.352L110.095 168.776L110.094 168.774L109.277 169.352ZM112.57 171.762L112.218 172.698L112.222 172.699L112.57 171.762ZM123.155 171.674L123.516 172.607L123.525 172.603L123.155 171.674ZM126.407 169.21L127.23 169.777L127.237 169.767L126.407 169.21ZM126.342 161.284L127.159 160.708L127.158 160.706L126.342 161.284ZM123.049 158.873L122.696 159.809L122.7 159.811L123.049 158.873ZM117.668 149.333C121.427 149.301 124.531 150.006 127.028 151.392L127.999 149.644C125.13 148.051 121.665 147.299 117.652 147.333L117.668 149.333ZM127.027 151.391C129.542 152.794 131.436 154.684 132.738 157.066L134.493 156.108C133.002 153.377 130.828 151.221 128.001 149.644L127.027 151.391ZM132.736 157.063C134.036 159.464 134.707 162.159 134.732 165.169L136.732 165.152C136.704 161.844 135.964 158.823 134.495 156.111L132.736 157.063ZM134.732 165.169C134.757 168.201 134.126 170.917 132.856 173.338L134.627 174.267C136.064 171.528 136.76 168.483 136.732 165.152L134.732 165.169ZM132.858 173.333C131.585 175.727 129.716 177.645 127.222 179.089L128.225 180.82C131.025 179.198 133.167 177.014 134.624 174.272L132.858 173.333ZM127.227 179.087C124.752 180.504 121.669 181.255 117.933 181.286L117.95 183.286C121.941 183.253 125.38 182.449 128.221 180.823L127.227 179.087ZM117.933 181.286C114.173 181.317 111.074 180.617 108.589 179.242L107.621 180.993C110.479 182.574 113.938 183.319 117.95 183.286L117.933 181.286ZM108.59 179.243C106.063 177.84 104.171 175.956 102.882 173.588L101.125 174.544C102.606 177.266 104.781 179.416 107.62 180.992L108.59 179.243ZM102.881 173.586C101.571 171.187 100.895 168.482 100.87 165.45L98.8696 165.466C98.8972 168.797 99.6436 171.831 101.126 174.545L102.881 173.586ZM100.87 165.45C100.845 162.441 101.475 159.737 102.746 157.315L100.975 156.386C99.5387 159.123 98.8421 162.157 98.8696 165.466L100.87 165.45ZM102.748 157.312C103.997 154.911 105.858 152.991 108.361 151.547L107.361 149.815C104.548 151.438 102.409 153.631 100.974 156.389L102.748 157.312ZM108.362 151.546C110.823 150.12 113.909 149.364 117.668 149.333L117.652 147.333C113.638 147.366 110.191 148.175 107.36 149.816L108.362 151.546ZM117.733 157.082C115.56 157.1 113.669 157.404 112.094 158.032L112.834 159.89C114.113 159.381 115.74 159.099 117.749 159.082L117.733 157.082ZM112.103 158.029C110.508 158.647 109.245 159.584 108.381 160.868L110.041 161.984C110.637 161.097 111.542 160.391 112.825 159.894L112.103 158.029ZM108.388 160.858C107.508 162.133 107.105 163.666 107.119 165.398L109.119 165.381C109.108 163.977 109.432 162.867 110.035 161.994L108.388 160.858ZM107.119 165.398C107.134 167.13 107.563 168.659 108.461 169.929L110.094 168.774C109.474 167.898 109.131 166.786 109.119 165.381L107.119 165.398ZM108.459 169.927C109.343 171.183 110.619 172.096 112.218 172.698L112.922 170.826C111.626 170.338 110.706 169.645 110.095 168.776L108.459 169.927ZM112.222 172.699C113.805 173.288 115.698 173.554 117.869 173.536L117.852 171.536C115.842 171.553 114.207 171.303 112.918 170.825L112.222 172.699ZM117.869 173.536C120.04 173.518 121.933 173.22 123.516 172.607L122.794 170.742C121.5 171.243 119.863 171.52 117.852 171.536L117.869 173.536ZM123.525 172.603C125.102 171.975 126.359 171.041 127.23 169.777L125.584 168.642C124.974 169.527 124.062 170.236 122.785 170.745L123.525 172.603ZM127.237 169.767C128.1 168.484 128.497 166.949 128.482 165.221L126.482 165.237C126.494 166.645 126.174 167.764 125.577 168.652L127.237 169.767ZM128.482 165.221C128.468 163.492 128.046 161.968 127.159 160.708L125.524 161.859C126.132 162.723 126.471 163.829 126.482 165.237L128.482 165.221ZM127.158 160.706C126.264 159.443 124.99 158.528 123.397 157.936L122.7 159.811C123.98 160.286 124.901 160.978 125.525 161.861L127.158 160.706ZM123.401 157.938C121.805 157.337 119.906 157.064 117.733 157.082L117.749 159.082C119.757 159.066 121.397 159.32 122.696 159.809L123.401 157.938ZM99.9982 123.434L98.9982 123.443L99.0065 124.442L100.006 124.434L99.9982 123.434ZM99.9196 113.957L99.9113 112.957L98.9113 112.966L98.9196 113.966L99.9196 113.957ZM129.201 115.623L128.66 116.465L128.662 116.465L129.201 115.623ZM133.728 120.87L134.632 120.443L134.63 120.439L133.728 120.87ZM133.859 136.654L134.768 137.07L134.77 137.066L133.859 136.654ZM129.42 141.975L129.968 142.811L129.974 142.808L129.42 141.975ZM100.17 144.093L99.1696 144.101L99.1779 145.101L100.178 145.093L100.17 144.093ZM100.091 134.616L100.083 133.616L99.0827 133.624L99.091 134.624L100.091 134.616ZM124.527 133.697L125.023 134.565L125.028 134.563L124.527 133.697ZM126.488 131.703L127.362 132.19L127.365 132.185L126.488 131.703ZM126.44 125.908L127.306 125.407L126.44 125.908ZM124.446 123.947L124.933 123.074L124.928 123.071L124.446 123.947ZM100.998 123.426L100.92 113.949L98.9196 113.966L98.9982 123.443L100.998 123.426ZM99.9279 114.957L122.291 114.772L122.274 112.772L99.9113 112.957L99.9279 114.957ZM122.291 114.772C124.784 114.751 126.893 115.328 128.66 116.465L129.742 114.782C127.602 113.406 125.099 112.748 122.274 112.772L122.291 114.772ZM128.662 116.465C130.434 117.602 131.824 119.202 132.826 121.301L134.63 120.439C133.482 118.033 131.853 116.136 129.741 114.782L128.662 116.465ZM132.824 121.297C133.815 123.395 134.338 125.868 134.362 128.74L136.362 128.724C136.336 125.619 135.769 122.85 134.632 120.443L132.824 121.297ZM134.362 128.74C134.386 131.636 133.904 134.128 132.948 136.242L134.77 137.066C135.868 134.639 136.387 131.85 136.362 128.724L134.362 128.74ZM132.95 136.238C131.982 138.353 130.62 139.976 128.866 141.142L129.974 142.808C132.063 141.419 133.66 139.495 134.768 137.07L132.95 136.238ZM128.872 141.138C127.123 142.284 125.021 142.886 122.524 142.907L122.541 144.907C125.362 144.884 127.852 144.198 129.968 142.811L128.872 141.138ZM122.524 142.907L100.161 143.093L100.178 145.093L122.541 144.907L122.524 142.907ZM101.17 144.084L101.091 134.607L99.091 134.624L99.1696 144.101L101.17 144.084ZM100.099 135.616L121.644 135.437L121.627 133.437L100.083 133.616L100.099 135.616ZM121.644 135.437C122.876 135.427 124.011 135.143 125.023 134.565L124.032 132.829C123.347 133.219 122.554 133.429 121.627 133.437L121.644 135.437ZM125.028 134.563C126.021 133.988 126.804 133.192 127.362 132.19L125.614 131.217C125.232 131.904 124.707 132.438 124.027 132.831L125.028 134.563ZM127.365 132.185C127.926 131.163 128.19 130.024 128.18 128.791L126.18 128.808C126.188 129.735 125.991 130.531 125.612 131.222L127.365 132.185ZM128.18 128.791C128.17 127.55 127.887 126.412 127.306 125.407L125.575 126.409C125.961 127.078 126.172 127.868 126.18 128.808L128.18 128.791ZM127.306 125.407C126.731 124.414 125.935 123.632 124.933 123.074L123.96 124.821C124.647 125.204 125.181 125.728 125.575 126.409L127.306 125.407ZM124.928 123.071C123.906 122.51 122.767 122.245 121.535 122.256L121.551 124.255C122.478 124.248 123.274 124.444 123.965 124.824L124.928 123.071ZM121.535 122.256L99.9899 122.434L100.006 124.434L121.551 124.255L121.535 122.256ZM107.526 110.344L107.535 111.344L108.534 111.336L108.526 110.336L107.526 110.344ZM99.8901 110.408L98.8902 110.416L98.8984 111.416L99.8984 111.408L99.8901 110.408ZM99.6384 80.0678L99.6301 79.0678L98.6301 79.0761L98.6384 80.0761L99.6384 80.0678ZM107.275 80.0044L108.274 79.9961L108.266 78.9962L107.266 79.0045L107.275 80.0044ZM107.362 90.5041L106.362 90.5124L106.37 91.5123L107.37 91.5041L107.362 90.5041ZM134.633 90.2778L135.633 90.2695L135.625 89.2696L134.625 89.2779L134.633 90.2778ZM134.711 99.6184L134.719 100.618L135.719 100.61L135.711 99.6101L134.711 99.6184ZM107.439 99.8447L107.431 98.8447L106.431 98.853L106.439 99.853L107.439 99.8447ZM107.518 109.344L99.8818 109.408L99.8984 111.408L107.535 111.344L107.518 109.344ZM100.89 110.399L100.638 80.0595L98.6384 80.0761L98.8902 110.416L100.89 110.399ZM99.6467 81.0678L107.283 81.0044L107.266 79.0045L99.6301 79.0678L99.6467 81.0678ZM106.275 80.0127L106.362 90.5124L108.362 90.4958L108.274 79.9961L106.275 80.0127ZM107.37 91.5041L134.642 91.2778L134.625 89.2779L107.353 89.5041L107.37 91.5041ZM133.633 90.2861L133.711 99.6267L135.711 99.6101L135.633 90.2695L133.633 90.2861ZM134.703 98.6184L107.431 98.8447L107.447 100.845L134.719 100.618L134.703 98.6184ZM106.439 99.853L106.526 110.353L108.526 110.336L108.439 99.8364L106.439 99.853ZM99.3581 46.2806L98.3581 46.2889L98.3664 47.2889L99.3664 47.2806L99.3581 46.2806ZM99.2795 36.8037L99.2712 35.8037L98.2712 35.812L98.2795 36.812L99.2795 36.8037ZM128.561 38.4699L128.02 39.3109L128.022 39.3117L128.561 38.4699ZM133.088 43.7166L133.992 43.2894L133.99 43.2857L133.088 43.7166ZM133.219 59.5002L134.128 59.916L134.13 59.9122L133.219 59.5002ZM128.78 64.8213L129.328 65.6578L129.334 65.654L128.78 64.8213ZM99.5295 66.939L98.5295 66.9473L98.5378 67.9473L99.5378 67.939L99.5295 66.939ZM99.4509 57.462L99.4426 56.4621L98.4426 56.4704L98.4509 57.4703L99.4509 57.462ZM123.887 56.5434L124.383 57.4118L124.388 57.4089L123.887 56.5434ZM125.848 54.5498L126.722 55.0362L126.725 55.0311L125.848 54.5498ZM125.8 48.7545L126.666 48.2537L125.8 48.7545ZM123.806 46.7937L124.293 45.9199L124.288 45.9172L123.806 46.7937ZM100.358 46.2723L100.279 36.7954L98.2795 36.812L98.3581 46.2889L100.358 46.2723ZM99.2878 37.8036L121.651 37.6181L121.634 35.6182L99.2712 35.8037L99.2878 37.8036ZM121.651 37.6181C124.144 37.5974 126.253 38.1743 128.02 39.3109L129.102 37.6288C126.962 36.2523 124.459 35.5947 121.634 35.6182L121.651 37.6181ZM128.022 39.3117C129.794 40.4482 131.183 42.0487 132.186 44.1475L133.99 43.2857C132.841 40.8794 131.213 38.9821 129.101 37.6281L128.022 39.3117ZM132.184 44.1438C133.175 46.2418 133.698 48.7145 133.721 51.5866L135.721 51.57C135.696 48.4651 135.129 45.6966 133.992 43.2894L132.184 44.1438ZM133.721 51.5866C133.746 54.4827 133.264 56.9748 132.308 59.0881L134.13 59.9122C135.228 57.4856 135.747 54.6965 135.721 51.57L133.721 51.5866ZM132.309 59.0843C131.342 61.1994 129.98 62.8227 128.226 63.9885L129.334 65.654C131.423 64.2651 133.019 62.341 134.128 59.916L132.309 59.0843ZM128.232 63.9847C126.483 65.1306 124.381 65.7328 121.884 65.7535L121.901 67.7534C124.722 67.73 127.212 67.0441 129.328 65.6578L128.232 63.9847ZM121.884 65.7535L99.5212 65.939L99.5378 67.939L121.901 67.7534L121.884 65.7535ZM100.529 66.9307L100.451 57.4537L98.4509 57.4703L98.5295 66.9473L100.529 66.9307ZM99.4591 58.462L121.004 58.2833L120.987 56.2833L99.4426 56.4621L99.4591 58.462ZM121.004 58.2833C122.236 58.273 123.371 57.9896 124.383 57.4118L123.391 55.675C122.707 56.0658 121.914 56.2756 120.987 56.2833L121.004 58.2833ZM124.388 57.4089C125.381 56.8343 126.164 56.0387 126.722 55.0361L124.974 54.0634C124.592 54.7505 124.067 55.284 123.386 55.6778L124.388 57.4089ZM126.725 55.0311C127.286 54.0096 127.55 52.8701 127.54 51.6379L125.54 51.6545C125.548 52.5813 125.351 53.3775 124.972 54.0684L126.725 55.0311ZM127.54 51.6379C127.53 50.3966 127.247 49.2588 126.666 48.2537L124.934 49.2553C125.321 49.924 125.532 50.7141 125.54 51.6545L127.54 51.6379ZM126.666 48.2537C126.091 47.2605 125.295 46.4781 124.293 45.92L123.32 47.6675C124.007 48.0499 124.541 48.5747 124.934 49.2553L126.666 48.2537ZM124.288 45.9172C123.266 45.3562 122.127 45.0917 120.895 45.1019L120.911 47.1018C121.838 47.0941 122.634 47.2908 123.325 47.6702L124.288 45.9172ZM120.895 45.1019L99.3498 45.2807L99.3664 47.2806L120.911 47.1018L120.895 45.1019ZM109.995 13.3915L110.083 14.3876L111.002 14.3064L110.995 13.3832L109.995 13.3915ZM107.346 14.6919L108.114 15.3326L108.119 15.3269L107.346 14.6919ZM106.798 20.5262L107.733 20.1711L107.729 20.1618L106.798 20.5262ZM107.747 21.8821L107.157 22.6897L107.157 22.6897L107.747 21.8821ZM109.114 22.3309L109.16 21.332L109.144 21.3313L109.128 21.331L109.114 22.3309ZM110.254 22.0999L110.709 22.9906L110.727 22.9814L110.745 22.9714L110.254 22.0999ZM111.151 21.2402L111.972 21.81L111.978 21.8019L111.984 21.7936L111.151 21.2402ZM112.416 17.5988L111.436 17.3974L111.435 17.4057L112.416 17.5988ZM113.006 14.7302L113.985 14.9316L113.986 14.9293L113.006 14.7302ZM116.925 6.36218L117.625 7.07691L117.629 7.07249L116.925 6.36218ZM119.943 4.41095L120.293 5.34791L120.301 5.34473L119.943 4.41095ZM123.62 3.7327L123.616 2.7326L123.603 2.73284L123.62 3.7327ZM129.463 5.40587L130.038 4.58734L129.463 5.40587ZM133.134 10.2506L132.206 10.6236L132.207 10.6253L133.134 10.2506ZM133.161 25.7793L134.093 26.1422L134.093 26.1406L133.161 25.7793ZM129.062 31.0635L129.621 31.8933L129.626 31.8893L129.062 31.0635ZM121.885 32.9981L120.885 33.0064L120.893 34.0103L121.897 33.998L121.885 32.9981ZM121.81 23.9984L121.749 23.0003L120.803 23.0585L120.81 24.0067L121.81 23.9984ZM124.497 23.1749L125.052 24.0064L125.052 24.0064L124.497 23.1749ZM126.133 21.1499L127.054 21.5406L127.056 21.5362L126.133 21.1499ZM126.274 15.4895L127.21 15.1375L126.274 15.4895ZM125.221 13.947L125.837 13.1591L125.221 13.947ZM123.7 13.4142L123.712 12.4142L123.691 12.414L123.67 12.4146L123.7 13.4142ZM122.307 13.9542L122.94 14.7277L122.952 14.718L122.964 14.708L122.307 13.9542ZM121.229 15.5995L122.15 15.9891L122.155 15.9775L121.229 15.5995ZM120.334 18.6923L119.356 18.4862L119.355 18.4896L120.334 18.6923ZM119.613 22.1757L120.592 22.3795L120.593 22.3784L119.613 22.1757ZM116.316 29.5158L117.068 30.1748L117.073 30.1697L116.316 29.5158ZM109.878 32.2113L109.874 31.2113L109.865 31.2114L109.878 32.2113ZM104.051 30.4869L103.473 31.3028L103.474 31.3035L104.051 30.4869ZM100.106 25.5251L99.1931 25.9325L99.1939 25.9343L100.106 25.5251ZM100.002 10.8664L100.914 11.2757L100.002 10.8664ZM103.951 6.07777L104.502 6.91207L104.509 6.90778L103.951 6.07777ZM109.919 4.32365L110.919 4.31535L110.911 3.3104L109.906 3.32374L109.919 4.32365ZM109.907 12.3954C108.547 12.5155 107.4 13.0517 106.574 14.057L108.119 15.3269C108.553 14.799 109.171 14.4682 110.083 14.3876L109.907 12.3954ZM106.578 14.0513C105.732 15.0663 105.407 16.4892 105.42 18.1342L107.42 18.1176C107.408 16.6945 107.701 15.8281 108.114 15.3326L106.578 14.0513ZM105.42 18.1342C105.429 19.1822 105.563 20.1146 105.867 20.8907L107.729 20.1618C107.545 19.6918 107.428 19.0241 107.42 18.1176L105.42 18.1342ZM105.863 20.8813C106.143 21.6172 106.558 22.252 107.157 22.6897L108.337 21.0744C108.136 20.9278 107.918 20.6588 107.733 20.1712L105.863 20.8813ZM107.157 22.6897C107.73 23.1082 108.389 23.3209 109.1 23.3309L109.128 21.331C108.817 21.3267 108.564 21.2402 108.337 21.0744L107.157 22.6897ZM109.069 23.3299C109.644 23.3562 110.199 23.2508 110.709 22.9906L109.8 21.2092C109.631 21.2955 109.426 21.3442 109.16 21.332L109.069 23.3299ZM110.745 22.9714C111.234 22.6962 111.638 22.2919 111.972 21.81L110.329 20.6703C110.124 20.9656 109.931 21.1345 109.764 21.2283L110.745 22.9714ZM111.984 21.7936C112.302 21.3151 112.569 20.737 112.798 20.0809L110.91 19.4217C110.717 19.9738 110.516 20.3882 110.318 20.6867L111.984 21.7936ZM112.798 20.0809C113.029 19.4207 113.227 18.6554 113.397 17.792L111.435 17.4057C111.278 18.2042 111.102 18.8738 110.91 19.4217L112.798 20.0809ZM113.396 17.8003L113.985 14.9316L112.026 14.5288L111.437 17.3974L113.396 17.8003ZM113.986 14.9293C114.367 13.0524 114.871 11.4765 115.486 10.1875L113.682 9.32592C112.979 10.798 112.431 12.5378 112.026 14.5312L113.986 14.9293ZM115.486 10.1875C116.105 8.89104 116.822 7.86207 117.625 7.07689L116.226 5.64749C115.225 6.62734 114.381 7.86139 113.682 9.32592L115.486 10.1875ZM117.629 7.07249C118.424 6.28507 119.31 5.71438 120.293 5.34787L119.594 3.47402C118.333 3.94434 117.208 4.67448 116.221 5.65189L117.629 7.07249ZM120.301 5.34473C121.303 4.96094 122.411 4.7532 123.636 4.73255L123.603 2.73284C122.169 2.75699 120.827 3.00141 119.585 3.47716L120.301 5.34473ZM123.623 4.73269C125.749 4.72559 127.486 5.23965 128.889 6.2244L130.038 4.58734C128.24 3.32582 126.081 2.72445 123.616 2.7327L123.623 4.73269ZM128.889 6.2244C130.306 7.21932 131.42 8.66688 132.206 10.6236L134.062 9.87753C133.155 7.62092 131.821 5.83866 130.038 4.58734L128.889 6.2244ZM132.207 10.6253C132.995 12.5744 133.418 14.9681 133.441 17.8335L135.441 17.8169C135.416 14.7735 134.967 12.1174 134.061 9.87582L132.207 10.6253ZM133.441 17.8335C133.466 20.7713 133.052 23.2923 132.228 25.4181L134.093 26.1406C135.028 23.7289 135.467 20.9472 135.441 17.8169L133.441 17.8335ZM132.229 25.4164C131.417 27.5016 130.172 29.0951 128.499 30.2376L129.626 31.8893C131.659 30.5011 133.147 28.5717 134.093 26.1422L132.229 25.4164ZM128.504 30.2337C126.843 31.351 124.656 31.9642 121.873 31.9982L121.897 33.998C124.955 33.9608 127.552 33.2843 129.621 31.8933L128.504 30.2337ZM122.885 32.9898L122.81 23.9901L120.81 24.0067L120.885 33.0064L122.885 32.9898ZM121.872 24.9965C123.076 24.9225 124.152 24.6082 125.052 24.0064L123.941 22.3435C123.395 22.7083 122.68 22.943 121.749 23.0003L121.872 24.9965ZM125.052 24.0064C125.951 23.4059 126.617 22.5712 127.054 21.5406L125.213 20.7593C124.915 21.4621 124.489 21.9774 123.941 22.3435L125.052 24.0064ZM127.056 21.5362C127.488 20.5048 127.681 19.3231 127.67 18.0178L125.67 18.0344C125.679 19.1381 125.515 20.0389 125.211 20.7637L127.056 21.5362ZM127.67 18.0178C127.661 16.9317 127.52 15.961 127.21 15.1375L125.338 15.8415C125.54 16.3774 125.662 17.0978 125.67 18.0344L127.67 18.0178ZM127.21 15.1375C126.908 14.3336 126.464 13.6486 125.837 13.1591L124.606 14.735C124.871 14.9426 125.129 15.2859 125.338 15.8415L127.21 15.1375ZM125.837 13.1591C125.218 12.675 124.498 12.4235 123.712 12.4142L123.688 14.4141C124.038 14.4182 124.333 14.5219 124.606 14.735L125.837 13.1591ZM123.67 12.4146C122.91 12.4371 122.223 12.7009 121.65 13.2003L122.964 14.708C123.18 14.5191 123.422 14.4229 123.729 14.4137L123.67 12.4146ZM121.673 13.1807C121.085 13.6627 120.646 14.3831 120.303 15.2216L122.155 15.9775C122.437 15.288 122.716 14.9115 122.94 14.7277L121.673 13.1807ZM120.308 15.2099C119.95 16.0575 119.636 17.1581 119.356 18.4862L121.313 18.8984C121.58 17.631 121.862 16.6697 122.15 15.9891L120.308 15.2099ZM119.355 18.4896L118.634 21.9729L120.593 22.3784L121.314 18.895L119.355 18.4896ZM118.634 21.9718C118.013 24.9549 116.971 27.2291 115.56 28.8618L117.073 30.1697C118.768 28.2083 119.924 25.5892 120.592 22.3795L118.634 21.9718ZM115.564 28.8567C114.217 30.3938 112.362 31.2011 109.874 31.2113L109.882 33.2113C112.849 33.1991 115.286 32.2093 117.068 30.1748L115.564 28.8567ZM109.865 31.2114C107.841 31.2386 106.11 30.7172 104.628 29.6702L103.474 31.3035C105.33 32.6153 107.483 33.2436 109.892 33.2112L109.865 31.2114ZM104.629 29.6709C103.112 28.5962 101.905 27.0912 101.019 25.1159L99.1939 25.9343C100.207 28.1934 101.629 29.9963 103.473 31.3028L104.629 29.6709ZM101.02 25.1177C100.136 23.1358 99.6697 20.8308 99.6477 18.1821L97.6478 18.1987C97.6716 21.0725 98.1782 23.6573 99.1931 25.9325L101.02 25.1177ZM99.6477 18.1821C99.6252 15.4735 100.06 13.1809 100.914 11.2757L99.0894 10.4571C98.0918 12.681 97.6235 15.2711 97.6478 18.1987L99.6477 18.1821ZM100.914 11.2757C101.771 9.36511 102.97 7.92441 104.502 6.91206L103.4 5.24349C101.518 6.4868 100.085 8.2385 99.0894 10.4571L100.914 11.2757ZM104.509 6.90778C106.024 5.88951 107.819 5.35162 109.933 5.32356L109.906 3.32374C107.452 3.35631 105.268 3.98783 103.393 5.24776L104.509 6.90778ZM108.919 4.33194L108.995 13.3998L110.995 13.3832L110.919 4.31535L108.919 4.33194Z" fill="#05C2DF" fill-opacity="0.5" mask="url(#path-5-outside-3_3495_3196)"/>
</svg>
