<svg width="394" height="46" viewBox="0 0 394 46" fill="none" xmlns="http://www.w3.org/2000/svg">
<path d="M31.0809 37H25.0689V19.756L20.0289 34.624H13.6389L8.59891 19.81V37H2.58691V11.8H11.1009L16.8429 27.802L22.5489 11.8H31.0809V37ZM42.5449 12.322C44.2009 11.662 45.9889 11.332 47.9089 11.332C49.8289 11.332 51.6109 11.662 53.2549 12.322C54.9109 12.982 56.3149 13.888 57.4669 15.04C58.6309 16.18 59.5429 17.56 60.2029 19.18C60.8629 20.8 61.1929 22.54 61.1929 24.4C61.1929 26.26 60.8629 28 60.2029 29.62C59.5429 31.24 58.6309 32.626 57.4669 33.778C56.3149 34.918 54.9109 35.818 53.2549 36.478C51.6109 37.138 49.8289 37.468 47.9089 37.468C45.9889 37.468 44.2009 37.138 42.5449 36.478C40.9009 35.818 39.4969 34.918 38.3329 33.778C37.1809 32.626 36.2749 31.24 35.6149 29.62C34.9549 28 34.6249 26.26 34.6249 24.4C34.6249 22.54 34.9549 20.8 35.6149 19.18C36.2749 17.56 37.1809 16.18 38.3329 15.04C39.4969 13.888 40.9009 12.982 42.5449 12.322ZM52.9489 19.126C51.6409 17.77 49.9609 17.092 47.9089 17.092C45.8569 17.092 44.1709 17.77 42.8509 19.126C41.5429 20.482 40.8889 22.24 40.8889 24.4C40.8889 26.56 41.5429 28.318 42.8509 29.674C44.1709 31.03 45.8569 31.708 47.9089 31.708C49.9609 31.708 51.6409 31.03 52.9489 29.674C54.2689 28.318 54.9289 26.56 54.9289 24.4C54.9289 22.24 54.2689 20.482 52.9489 19.126ZM75.67 11.8C78.754 11.8 81.112 12.514 82.744 13.942C84.388 15.37 85.21 17.344 85.21 19.864C85.21 21.868 84.598 23.536 83.374 24.868C82.15 26.188 80.416 27.028 78.172 27.388L85.408 37H78.244L71.602 27.568H70.72V37H64.708V11.8H75.67ZM70.72 17.254V22.51H75.598C76.714 22.51 77.572 22.288 78.172 21.844C78.784 21.4 79.09 20.74 79.09 19.864C79.09 18.988 78.784 18.334 78.172 17.902C77.56 17.47 76.702 17.254 75.598 17.254H70.72ZM108.262 37H88.9658V11.8H108.19V17.218H94.9778V21.574H107.416V26.974H94.9778V31.582H108.262V37ZM139.142 17.38H131.69V37H125.678V17.38H118.208V11.8H139.142V17.38ZM147.888 21.502H158.49V11.8H164.502V37H158.49V27.064H147.888V37H141.876V11.8H147.888V21.502ZM193.531 37H187.123L185.215 31.708H175.207L173.299 37H167.017L176.683 11.8H183.865L193.531 37ZM177.151 26.272H183.271L180.211 17.776L177.151 26.272ZM219.29 37H213.512L202.028 21.628V37H196.016V11.8H201.776L213.26 27.172V11.8H219.29V37Z" fill="white"/>
<path d="M238.804 20.944C238.984 20.692 239.2 20.44 239.416 20.224C240.604 19.036 242.152 18.388 243.808 18.388C245.464 18.388 247.012 19.036 248.2 20.224C248.776 20.8 249.244 21.484 249.568 22.24L249.712 22.528H256.048L255.904 21.916C255.22 18.856 253.42 16.192 250.828 14.428C248.776 12.988 246.364 12.232 243.844 12.232C240.208 12.232 236.752 13.816 234.412 16.588L234.124 16.948L238.516 21.34L238.804 20.944ZM245.176 26.632L247.408 29.728C246.364 30.448 245.14 30.844 243.844 30.844C242.188 30.844 240.64 30.196 239.452 29.008C238.264 27.82 237.616 26.272 237.616 24.616C237.616 24.292 237.652 23.968 237.688 23.644L237.724 23.392L232.972 18.64L232.684 19.288C231.892 20.944 231.496 22.744 231.496 24.616C231.496 27.928 232.792 31.024 235.132 33.364C237.472 35.704 240.568 37 243.88 37C246.076 37 248.236 36.424 250.108 35.308V36.964H256.228V26.704L245.176 26.632ZM259.796 37H266.96L273.944 25.516L270.38 19.612L259.796 37ZM275.096 11.836L271.532 17.704L281.72 34.588L283.196 37.036H290.36L275.096 11.836ZM293.968 37H300.088V28.9L293.968 22.78V37ZM317.728 12.268L306.316 23.68L294.904 12.268H293.932V19.972L300.052 26.092L306.28 32.356L312.508 26.092V37H318.628V12.268H317.728ZM322.304 12.268V15.328L328.424 21.448V12.268H322.304ZM322.304 37H328.424V24.256L322.304 18.136V37ZM332.007 37H338.127V28.9L332.007 22.78V37ZM348.819 17.56L348.675 17.704V28L333.123 12.448L332.979 12.304H332.007V20.008L338.127 26.128L342.051 30.052L348.783 36.784L349.035 37.036H354.795V11.584L348.819 17.56ZM365.753 20.944C365.933 20.692 366.149 20.44 366.365 20.224C367.553 19.036 369.101 18.388 370.757 18.388C372.413 18.388 373.961 19.036 375.149 20.224C375.725 20.8 376.193 21.484 376.517 22.24L376.661 22.528H382.997L382.853 21.916C382.169 18.856 380.369 16.192 377.777 14.428C375.725 12.988 373.313 12.232 370.793 12.232C367.157 12.232 363.701 13.816 361.361 16.588L361.073 16.948L365.465 21.34L365.753 20.944ZM372.125 26.632L374.357 29.728C373.313 30.448 372.089 30.844 370.793 30.844C369.137 30.844 367.589 30.196 366.401 29.008C365.213 27.82 364.565 26.272 364.565 24.616C364.565 24.292 364.601 23.968 364.637 23.644L364.673 23.392L359.921 18.64L359.633 19.288C358.841 20.944 358.445 22.744 358.445 24.616C358.445 27.928 359.741 31.024 362.081 33.364C364.421 35.704 367.517 37 370.829 37C373.025 37 375.185 36.424 377.057 35.308V36.964H383.177V26.704L372.125 26.632ZM386.745 12.016V27.136L391.893 32.284V12.016H386.745ZM386.745 37H391.893V36.496L386.745 31.348V37Z" fill="#05C2DF"/>
<path d="M277 30H282V34H274L277 30Z" fill="#05C2DF"/>
</svg>
