<svg width="221" height="69" fill="none" xmlns="http://www.w3.org/2000/svg"><path d="M107.278 40V28.364h4.148c.905 0 1.655.164 2.25.494.595.33 1.04.78 1.335 1.352.296.568.444 1.209.444 1.92 0 .717-.15 1.36-.449 1.932a3.254 3.254 0 0 1-1.341 1.353c-.595.33-1.343.494-2.245.494h-2.852V34.42h2.693c.572 0 1.036-.098 1.392-.295.356-.2.618-.474.785-.818.166-.345.25-.737.25-1.176 0-.44-.084-.83-.25-1.17a1.794 1.794 0 0 0-.79-.802c-.356-.193-.826-.29-1.409-.29h-2.205V40h-1.756Zm11.797-11.636V40h-1.699V28.364h1.699Zm4.826 11.83a3.564 3.564 0 0 1-1.5-.308 2.527 2.527 0 0 1-1.063-.903c-.258-.394-.386-.877-.386-1.449 0-.492.094-.898.284-1.216.189-.318.445-.57.767-.755a4.013 4.013 0 0 1 1.079-.421c.398-.095.803-.167 1.216-.216l1.273-.148c.326-.041.563-.108.71-.198.148-.091.222-.24.222-.444v-.04c0-.496-.14-.88-.421-1.153-.276-.273-.689-.409-1.238-.409-.572 0-1.023.127-1.353.38-.325.25-.551.53-.676.836l-1.596-.364c.189-.53.466-.958.829-1.284a3.37 3.37 0 0 1 1.267-.716c.478-.151.98-.227 1.506-.227.349 0 .718.042 1.108.125.394.08.761.227 1.102.443.345.216.627.525.847.926.22.398.329.915.329 1.552V40h-1.659v-1.193h-.068c-.11.22-.275.435-.494.648-.22.212-.502.388-.847.528-.344.14-.757.21-1.238.21Zm.369-1.364c.47 0 .871-.093 1.204-.279.338-.186.593-.428.767-.727.179-.303.268-.627.268-.972v-1.125c-.061.06-.179.118-.353.17-.17.05-.365.093-.585.131-.22.035-.434.067-.642.097-.208.026-.383.05-.523.068-.329.042-.63.112-.903.21-.269.099-.485.24-.648.427-.159.181-.239.424-.239.727 0 .42.156.738.466.954.311.212.707.319 1.188.319Zm6.962 4.443c-.254 0-.485-.021-.694-.063a2.2 2.2 0 0 1-.466-.125l.41-1.392c.31.084.587.12.829.108a.99.99 0 0 0 .642-.273c.19-.17.356-.448.5-.835l.21-.58-3.193-8.84h1.818l2.211 6.772h.09l2.211-6.772h1.824l-3.597 9.892a3.968 3.968 0 0 1-.636 1.153 2.476 2.476 0 0 1-.921.716c-.356.16-.769.239-1.238.239Zm13.376-14.91 3.239 9.478h.13l3.239-9.477h1.898L148.926 40h-2.028l-4.188-11.636h1.898ZM154.658 40v-8.727h1.699V40h-1.699Zm.858-10.074a1.08 1.08 0 0 1-.762-.295.961.961 0 0 1-.312-.716.95.95 0 0 1 .312-.716c.212-.2.466-.301.762-.301.295 0 .547.1.755.3a.941.941 0 0 1 .318.717.953.953 0 0 1-.318.716c-.208.197-.46.295-.755.295Zm6.393 10.244c-.704 0-1.333-.18-1.886-.54-.55-.363-.981-.88-1.296-1.55-.31-.675-.466-1.483-.466-2.427 0-.943.158-1.75.472-2.42.318-.67.754-1.184 1.307-1.54a3.398 3.398 0 0 1 1.88-.534c.542 0 .978.091 1.307.273.334.178.591.386.773.625.186.238.33.449.432.63h.102v-4.323h1.699V40h-1.659v-1.358h-.142c-.102.186-.25.398-.443.636-.19.239-.451.447-.784.625-.334.178-.766.267-1.296.267Zm.375-1.448c.489 0 .902-.13 1.239-.387.341-.261.598-.623.772-1.085.178-.462.267-1 .267-1.614 0-.606-.087-1.136-.261-1.59-.174-.455-.43-.81-.767-1.063-.337-.254-.754-.38-1.25-.38-.511 0-.937.132-1.278.397-.341.265-.599.627-.773 1.085-.17.459-.256.976-.256 1.551 0 .584.087 1.108.262 1.574.174.466.431.835.772 1.108.345.27.769.404 1.273.404Zm10.135 1.454c-.86 0-1.6-.184-2.222-.551a3.738 3.738 0 0 1-1.431-1.563c-.334-.674-.5-1.463-.5-2.369 0-.894.166-1.682.5-2.363a3.876 3.876 0 0 1 1.409-1.597c.606-.383 1.314-.574 2.125-.574.492 0 .969.082 1.432.244.462.163.876.419 1.244.767.367.349.657.802.869 1.358.212.553.318 1.226.318 2.017v.603h-6.937v-1.273h5.273c0-.447-.091-.843-.273-1.188a2.067 2.067 0 0 0-.767-.823c-.326-.201-.709-.301-1.148-.301-.477 0-.894.117-1.25.352a2.364 2.364 0 0 0-.818.909 2.629 2.629 0 0 0-.284 1.21v.994c0 .584.102 1.08.307 1.489.208.41.498.722.869.938.371.212.805.318 1.301.318.322 0 .616-.046.881-.137a1.825 1.825 0 0 0 1.13-1.108l1.608.29a2.896 2.896 0 0 1-.693 1.245 3.354 3.354 0 0 1-1.244.823c-.496.194-1.063.29-1.699.29Zm9.305 0c-.818 0-1.532-.187-2.142-.562a3.797 3.797 0 0 1-1.42-1.574c-.337-.675-.506-1.462-.506-2.364 0-.905.169-1.697.506-2.375a3.79 3.79 0 0 1 1.42-1.58c.61-.374 1.324-.562 2.142-.562.819 0 1.533.188 2.142.563.61.375 1.084.901 1.421 1.58.337.677.506 1.469.506 2.374 0 .902-.169 1.69-.506 2.364a3.792 3.792 0 0 1-1.421 1.574c-.609.375-1.323.562-2.142.562Zm.006-1.426c.53 0 .97-.14 1.318-.42.349-.28.606-.654.773-1.12.17-.466.256-.979.256-1.54 0-.556-.086-1.068-.256-1.534a2.498 2.498 0 0 0-.773-1.13c-.348-.284-.788-.426-1.318-.426-.534 0-.977.142-1.329.426a2.54 2.54 0 0 0-.779 1.13c-.167.466-.25.978-.25 1.534 0 .561.083 1.074.25 1.54.171.466.43.84.779 1.12.352.28.795.42 1.329.42Z" fill="#fff"/><path opacity=".45" d="M86 12H56v2h30v-2ZM86 56H56v2h30v-2Z" fill="#05C2DF"/><path opacity=".45" d="M51 7c-4.88-3.411-10.087-4.648-16-5-5.913-.352-11.44 1.003-16.679 3.812a32.697 32.697 0 0 0-12.676 12.18A33.408 33.408 0 0 0 1 35.08a33.404 33.404 0 0 0 4.727 17.066A32.69 32.69 0 0 0 18.46 64.263a32.036 32.036 0 0 0 17.066 3.67C41.44 67.554 47.135 65.436 52 62" stroke="#05C2DF" stroke-width="2" stroke-miterlimit="1.517"/><path d="M34.03 61.156c14.588 0 26.413-11.791 26.413-26.336 0-14.544-11.825-26.335-26.412-26.335-14.588 0-26.413 11.791-26.413 26.335 0 14.545 11.825 26.336 26.413 26.336Z" stroke="#05C2DF" stroke-miterlimit="10"/><path d="M45 35 27.75 45.392V24.608L45 35Z" fill="#FFF"/><path opacity=".45" d="M91 12h-2v2h2v-2ZM88 12h-2v2h2v-2ZM94 12h-2v2h2v-2ZM97 12h-2v2h2v-2ZM100 12h-2v2h2v-2ZM104 12h-2v2h2v-2ZM108 12h-2v2h2v-2ZM112 12h-2v2h2v-2ZM117 12h-2v2h2v-2ZM122 12h-2v2h2v-2ZM127 12h-2v2h2v-2ZM132 12h-2v2h2v-2ZM137 12h-2v2h2v-2ZM142 12h-2v2h2v-2ZM153.6 12.23H152v1.6h1.6v-1.6ZM159.6 12.23H158v1.6h1.6v-1.6ZM165.6 12.23H164v1.6h1.6v-1.6ZM171.3 12.43H170v1.3h1.3v-1.3ZM178.3 12.43H177v1.3h1.3v-1.3ZM185.3 12.43H184v1.3h1.3v-1.3ZM192.3 12.43H191v1.3h1.3v-1.3ZM200.3 12.43H199v1.3h1.3v-1.3ZM209.3 12.43H208v1.3h1.3v-1.3ZM147.6 12.23H146v1.6h1.6v-1.6ZM221 12.5h-1v1h1v-1ZM91 56h-2v2h2v-2ZM88 56h-2v2h2v-2ZM94 56h-2v2h2v-2ZM97 56h-2v2h2v-2ZM100 56h-2v2h2v-2ZM104 56h-2v2h2v-2ZM108 56h-2v2h2v-2ZM112 56h-2v2h2v-2ZM117 56h-2v2h2v-2ZM122 56h-2v2h2v-2ZM127 56h-2v2h2v-2ZM132 56h-2v2h2v-2ZM137 56h-2v2h2v-2ZM142 56h-2v2h2v-2ZM153.6 56.23H152v1.6h1.6v-1.6ZM159.6 56.23H158v1.6h1.6v-1.6ZM165.6 56.23H164v1.6h1.6v-1.6ZM171.3 56.43H170v1.3h1.3v-1.3ZM178.3 56.43H177v1.3h1.3v-1.3ZM185.3 56.43H184v1.3h1.3v-1.3ZM192.3 56.43H191v1.3h1.3v-1.3ZM200.3 56.43H199v1.3h1.3v-1.3ZM209.3 56.43H208v1.3h1.3v-1.3ZM147.6 56.23H146v1.6h1.6v-1.6ZM221 56.5h-1v1h1v-1Z" fill="#05C2DF"/></svg>