<svg width="83" height="83" viewBox="0 0 83 83" fill="none" xmlns="http://www.w3.org/2000/svg">
<g clip-path="url(#clip0)">
<path d="M72.4336 22.1333C72.4336 19.3578 74.6913 17.1 77.4669 17.1C80.2423 17.1 82.5001 19.3579 82.5001 22.1333C82.5001 24.9088 80.2423 27.1665 77.4669 27.1665C74.6915 27.1665 72.4336 24.9087 72.4336 22.1333Z" stroke="#05C2DF"/>
<path d="M0.5 67.7833C0.5 65.0079 2.75787 62.75 5.53328 62.75C8.30884 62.75 10.5666 65.0079 10.5666 67.7833C10.5666 70.5587 8.30884 72.8166 5.53328 72.8166C2.75787 72.8166 0.5 70.5587 0.5 67.7833Z" stroke="#05C2DF"/>
<path d="M73.9784 18.0435L63.1523 12.6304" stroke="#05C2DF"/>
<path d="M57.2168 77.4666C57.2168 74.6912 59.4745 72.4333 62.2501 72.4333C65.0256 72.4333 67.2834 74.6913 67.2834 77.4667C67.2834 80.2422 65.0256 82.5 62.2501 82.5C59.4745 82.5 57.2168 80.242 57.2168 77.4666Z" stroke="#05C2DF"/>
<path d="M58.4871 73.605L48.3574 68.2043" stroke="#05C2DF"/>
<path d="M36.4668 42.8833C36.4668 40.1078 38.7245 37.85 41.5001 37.85C44.2756 37.85 46.5334 40.1078 46.5334 42.8833C46.5334 45.6587 44.2756 47.9165 41.5001 47.9165C38.7247 47.9165 36.4668 45.6588 36.4668 42.8833Z" stroke="#05C2DF"/>
<path d="M38.2516 38.6131L30.3125 32.4783" stroke="#05C2DF"/>
<path d="M51.6836 51.1835C51.6836 43.0696 58.2865 36.4667 66.4003 36.4667C74.5141 36.4667 81.117 43.0696 81.117 51.1835C81.117 59.2973 74.5141 65.9002 66.4003 65.9002C58.2865 65.9002 51.6836 59.2973 51.6836 51.1835Z" stroke="#05C2DF"/>
<path d="M61.3672 47.0333C61.3672 44.2579 63.6249 42 66.4005 42C69.176 42 71.4337 44.2579 71.4337 47.0333C71.4337 49.8087 69.176 52.0666 66.4005 52.0666C63.6251 52.0666 61.3672 49.8088 61.3672 47.0333Z" stroke="#05C2DF"/>
<path d="M73.7589 63.9158L73.7598 63.9153C74.0313 63.7588 74.1996 63.4666 74.1996 63.152V59.5055C74.1996 57.4938 72.5135 55.8333 70.4126 55.8333H62.3866C60.2857 55.8333 58.5996 57.4939 58.5996 59.504V63.1505C58.5996 63.466 58.7674 63.7575 59.0403 63.9158H73.7589ZM73.7589 63.9158C71.5159 65.2139 68.9712 65.9 66.3996 65.9C63.8282 65.9 61.2835 65.2139 59.0406 63.9159L73.7589 63.9158Z" stroke="#05C2DF"/>
<path d="M18.4844 67.7834C18.4844 59.6696 25.0873 53.0667 33.2011 53.0667C41.3149 53.0667 47.9178 59.6694 47.9178 67.7833C47.9178 75.8971 41.3149 82.5 33.2011 82.5C25.0873 82.5 18.4844 75.8972 18.4844 67.7834Z" stroke="#05C2DF"/>
<path d="M28.166 63.6333C28.166 60.8578 30.4237 58.6 33.1993 58.6C35.9749 58.6 38.2326 60.8578 38.2326 63.6333C38.2326 66.4087 35.9747 68.6665 33.1993 68.6665C30.4239 68.6665 28.166 66.4088 28.166 63.6333Z" stroke="#05C2DF"/>
<path d="M40.5606 80.5153L40.5597 80.5158C38.3167 81.8139 35.7719 82.5 33.2004 82.5C30.6289 82.5 28.0843 81.8139 25.8413 80.5159C25.5683 80.3577 25.4004 80.0661 25.4004 79.7505V76.104C25.4004 74.0939 27.0865 72.4333 29.1874 72.4333H37.2134C39.3143 72.4333 41.0004 74.0938 41.0004 76.1055V79.752C41.0004 80.0668 40.8321 80.3588 40.5606 80.5153Z" stroke="#05C2DF"/>
<path d="M0.5 33.2C0.5 25.0862 7.10289 18.4833 15.2167 18.4833C23.3304 18.4833 29.9333 25.0862 29.9334 33.2C29.9334 41.3138 23.3306 47.9167 15.2167 47.9167C7.10289 47.9167 0.5 41.3138 0.5 33.2Z" stroke="#05C2DF"/>
<path d="M10.1836 29.05C10.1836 26.2746 12.4413 24.0167 15.2169 24.0167C17.9923 24.0167 20.2502 26.2746 20.2502 29.05C20.2502 31.8254 17.9924 34.0833 15.2169 34.0833C12.4415 34.0833 10.1836 31.8254 10.1836 29.05Z" stroke="#05C2DF"/>
<path d="M22.5762 45.9319L22.5753 45.9325C20.3323 47.2305 17.7876 47.9167 15.216 47.9167C12.6446 47.9167 10.0999 47.2306 7.85696 45.9326C7.58393 45.7744 7.41602 45.4828 7.41602 45.1672V41.5207C7.41602 39.5106 9.10213 37.85 11.203 37.85H19.229C21.3298 37.85 23.016 39.5105 23.016 41.5222V45.1687C23.016 45.4833 22.8477 45.7755 22.5762 45.9319Z" stroke="#05C2DF"/>
<path d="M33.6992 15.2167C33.6992 7.10289 40.3021 0.5 48.4159 0.5C56.5296 0.5 63.1325 7.10289 63.1326 15.2167C63.1326 23.3306 56.5297 29.9334 48.4159 29.9334C40.3021 29.9334 33.6992 23.3306 33.6992 15.2167Z" stroke="#05C2DF"/>
<path d="M43.3828 11.0666C43.3828 8.29116 45.6405 6.03329 48.4161 6.03329C51.1915 6.03329 53.4494 8.29131 53.4494 11.0667C53.4494 13.8421 51.1915 16.0999 48.4161 16.0999C45.6407 16.0999 43.3828 13.842 43.3828 11.0666Z" stroke="#05C2DF"/>
<path d="M55.7774 27.9487L55.7765 27.9492C53.5335 29.2473 50.9887 29.9334 48.4172 29.9334C45.8457 29.9334 43.3011 29.2473 41.0581 27.9493C40.7851 27.7911 40.6172 27.4996 40.6172 27.184V23.5375C40.6172 21.5274 42.3033 19.8667 44.4042 19.8667H52.4302C54.531 19.8667 56.2172 21.5271 56.2172 23.5389V27.1854C56.2172 27.5001 56.0489 27.7923 55.7774 27.9487Z" stroke="#05C2DF"/>
<path d="M33.4038 14.4348L24.5391 21.6522" stroke="#05C2DF"/>
<path d="M65.6783 36.087L58.4609 26.3435" stroke="#05C2DF"/>
<path d="M52.1148 56.2957L46.5527 60.6261" stroke="#05C2DF"/>
<path d="M18.3444 67.4826H10.8262" stroke="#05C2DF"/>
<path d="M20.2502 5.53325V5.53328C20.2502 8.30869 17.9924 10.5666 15.2169 10.5666C12.4415 10.5666 10.1836 8.30884 10.1836 5.53328C10.1836 2.75788 12.4415 0.5 15.217 0.5C17.9924 0.5 20.2503 2.75787 20.2502 5.53325Z" stroke="#05C2DF"/>
<path d="M14.0742 10.8261V18.0435" stroke="#05C2DF"/>
</g>
<defs>
<clipPath id="clip0">
<rect width="83" height="83" fill="white"/>
</clipPath>
</defs>
</svg>
