<svg width="113" height="82" viewBox="0 0 113 82" fill="none" xmlns="http://www.w3.org/2000/svg">
<circle cx="56.6543" cy="41.156" r="13.5898" stroke="#05C2DF"/>
<path d="M71.0957 26.7503C75.7652 29.8394 78.8451 35.138 78.8451 41.156C78.8451 47.1739 75.7652 52.4726 71.0957 55.5616" stroke="#05C2DF"/>
<path d="M71.2734 55.422L77.6139 63.5236" stroke="#05C2DF"/>
<path d="M77.4361 63.6997C84.8649 58.8278 89.7647 50.4711 89.7647 40.9798C89.7647 31.4886 84.8649 23.1319 77.4361 18.26L71.0957 26.89" stroke="#05C2DF"/>
<path d="M84.4824 9.80618C94.4582 16.4153 101.038 27.752 101.038 40.6277C101.038 53.5034 94.4582 64.84 84.4824 71.4492" stroke="#05C2DF"/>
<path d="M84.4828 9.98227L90.8232 1C103.771 9.53524 112.31 24.1757 112.31 40.8038C112.31 57.4318 103.771 72.0723 90.8232 80.6075L84.3066 71.4491" stroke="#05C2DF"/>
<path d="M42.2109 26.7503C37.5414 29.8394 34.4615 35.138 34.4615 41.156C34.4615 47.1739 37.5414 52.4726 42.2109 55.5616" stroke="#05C2DF"/>
<path d="M42.0371 55.422L35.6967 63.5236" stroke="#05C2DF"/>
<path d="M35.8705 63.6997C28.4417 58.8278 23.5419 50.4711 23.5419 40.9798C23.5419 31.4886 28.4417 23.1319 35.8705 18.26L42.2109 26.89" stroke="#05C2DF"/>
<path d="M28.8281 9.80618C18.8523 16.4153 12.2726 27.752 12.2726 40.6277C12.2726 53.5034 18.8523 64.84 28.8281 71.4492" stroke="#05C2DF"/>
<path d="M28.8278 9.98227L22.4874 1C9.54004 9.53524 1.00037 24.1757 1.00037 40.8038C1.00037 57.4318 9.54004 72.0723 22.4874 80.6075L29.0039 71.4491" stroke="#05C2DF"/>
</svg>
