<svg width="52" height="334" viewBox="0 0 52 334" fill="none" xmlns="http://www.w3.org/2000/svg">
<mask id="path-1-outside-1_1_10677" maskUnits="userSpaceOnUse" x="-1.03724" y="-1.30357" width="53.7858" height="336.412" fill="black">
<rect fill="white" x="-1.03724" y="-1.30357" width="53.7858" height="336.412"/>
<path d="M50.6234 319.611L50.7366 333.247L4.06524 318.27L3.92194 300.998L50.3383 285.249L50.4515 298.885L16.8098 309.346L16.8128 309.709L50.6234 319.611ZM32.2815 322.309L32.0688 296.673L41.5231 296.595L41.7358 322.23L32.2815 322.309ZM50.3011 280.766L3.75728 281.152L3.58985 260.971C3.56044 257.426 4.01299 254.444 4.94752 252.027C5.88192 249.595 7.21521 247.758 8.94739 246.517C10.6794 245.26 12.7273 244.622 15.0908 244.602C16.8029 244.588 18.3666 244.954 19.7819 245.7C21.1971 246.43 22.3875 247.466 23.3532 248.806C24.3038 250.147 24.9684 251.717 25.3469 253.517L25.8015 253.514C25.8606 251.513 26.3531 249.691 27.2789 248.047C28.1895 246.403 29.459 245.089 31.0872 244.106C32.7004 243.123 34.6054 242.622 36.8023 242.604C39.3476 242.583 41.6182 243.231 43.6141 244.547C45.6098 245.849 47.1859 247.715 48.3425 250.145C49.499 252.575 50.0913 255.479 50.1194 258.857L50.3011 280.766ZM40.1057 268.214L40.0567 262.305C40.0391 260.184 39.632 258.596 38.8353 257.542C38.0235 256.488 36.8374 255.968 35.2768 255.981C34.1859 255.99 33.2638 256.247 32.5104 256.753C31.757 257.26 31.1872 257.977 30.8009 258.904C30.4145 259.816 30.2267 260.917 30.2374 262.204L30.2879 268.295L40.1057 268.214ZM22.47 268.36L22.427 263.178C22.4178 262.072 22.2355 261.096 21.88 260.251C21.5245 259.405 21.019 258.75 20.3636 258.286C19.6929 257.807 18.8804 257.571 17.9258 257.579C16.4865 257.591 15.3923 258.115 14.6433 259.152C13.8792 260.188 13.5036 261.495 13.5167 263.07L13.5612 268.434L22.47 268.36ZM26.3005 193.121C31.4821 193.078 35.8615 194.049 39.4387 196.035C43.0008 198.021 45.7126 200.718 47.5743 204.127C49.4208 207.536 50.3616 211.346 50.3965 215.558C50.4317 219.801 49.5469 223.641 47.742 227.081C45.9219 230.505 43.2475 233.239 39.7189 235.284C36.175 237.313 31.8274 238.349 26.6761 238.392C21.4944 238.435 17.1226 237.471 13.5607 235.501C9.98351 233.515 7.2717 230.826 5.4253 227.432C3.56362 224.023 2.61518 220.197 2.57999 215.955C2.54504 211.743 3.43 207.917 5.23486 204.478C7.02457 201.039 9.69131 198.297 13.2351 196.252C16.7637 194.208 21.1188 193.164 26.3005 193.121ZM26.4083 206.121C23.6205 206.144 21.2752 206.534 19.3723 207.293C17.4542 208.036 16.0087 209.131 15.0358 210.579C14.0477 212.011 13.5623 213.773 13.5796 215.864C13.597 217.955 14.1116 219.715 15.1235 221.147C16.1201 222.563 17.5836 223.634 19.5139 224.36C21.429 225.072 23.7804 225.416 26.5682 225.393C29.356 225.369 31.7089 224.986 33.6271 224.243C35.53 223.485 36.9755 222.39 37.9636 220.957C38.9365 219.51 39.4143 217.74 39.3969 215.649C39.3796 213.559 38.8726 211.805 37.8759 210.389C36.864 208.958 35.4005 207.887 33.4855 207.176C31.5552 206.449 29.1961 206.097 26.4083 206.121ZM2.7515 159.923L2.64667 147.287L32.4638 147.04C36.0092 147.01 39.0843 147.833 41.6892 149.509C44.2788 151.169 46.2906 153.501 47.7247 156.505C49.1436 159.508 49.8696 163.002 49.9026 166.987C49.936 171.002 49.2682 174.523 47.8993 177.549C46.5153 180.576 44.5424 182.941 41.9807 184.644C39.4037 186.332 36.3425 187.191 32.7972 187.22L2.98003 187.468L2.87519 174.832L31.6015 174.593C33.0408 174.581 34.326 174.253 35.4571 173.607C36.573 172.961 37.4444 172.075 38.0715 170.949C38.6984 169.807 39.0059 168.517 38.9939 167.077C38.9819 165.623 38.653 164.338 38.0074 163.222C37.3617 162.106 36.4757 161.234 35.3492 160.607C34.2076 159.98 32.9171 159.673 31.4778 159.685L2.7515 159.923ZM12.7889 142.47L2.6074 142.554L2.27178 102.101L12.4533 102.017L12.5694 116.016L48.9318 115.715L49.0351 128.169L12.6727 128.47L12.7889 142.47ZM1.89803 57.0517L1.79319 44.4158L31.6103 44.1684C35.1557 44.139 38.2308 44.962 40.8357 46.6374C43.4253 48.2978 45.4372 50.6297 46.8712 53.633C48.2901 56.6365 49.0161 60.1306 49.0492 64.1153C49.0825 68.1304 48.4147 71.6512 47.0458 74.6778C45.6618 77.7045 43.6889 80.0694 41.1272 81.7726C38.5502 83.4607 35.489 84.3194 31.9437 84.3489L2.12655 84.5962L2.02172 71.9603L30.748 71.722C32.1873 71.71 33.4725 71.3812 34.6036 70.7354C35.7195 70.0898 36.5909 69.2037 37.218 68.0773C37.8449 66.9357 38.1524 65.6452 38.1404 64.2058C38.1284 62.7513 37.7995 61.4662 37.1539 60.3503C36.5082 59.2344 35.6222 58.3629 34.4957 57.7359C33.3541 57.1089 32.0637 56.8015 30.6243 56.8134L1.89803 57.0517ZM16.0802 13.1996C14.5661 13.3334 13.389 13.9113 12.549 14.9335C11.7088 15.9405 11.2972 17.4667 11.3142 19.5121C11.325 20.8151 11.4929 21.8819 11.818 22.7126C12.1278 23.5282 12.5495 24.1308 13.0831 24.5203C13.6166 24.9098 14.2244 25.1093 14.9063 25.1188C15.4671 25.1445 15.9739 25.0418 16.4265 24.8108C16.8639 24.5647 17.2622 24.1826 17.6216 23.6644C17.9658 23.1464 18.2785 22.4847 18.5597 21.6793C18.8409 20.8739 19.0905 19.9173 19.3086 18.8094L20.0951 14.9845C20.6192 12.4043 21.3206 10.1939 22.1993 8.35322C23.078 6.51253 24.1185 5.00385 25.3209 3.82716C26.5082 2.65061 27.8495 1.78339 29.3449 1.2255C30.8402 0.652474 32.4741 0.35103 34.2467 0.321171C37.3073 0.310931 39.9045 1.05456 42.0382 2.55206C44.1719 4.04957 45.8034 6.20277 46.9328 9.01168C48.0621 11.8054 48.6431 15.1719 48.6758 19.1112C48.7093 23.1565 48.1402 26.6917 46.9683 29.7166C45.7962 32.7265 43.9747 35.075 41.5038 36.7622C39.0176 38.4344 35.8276 39.2942 31.934 39.3417L31.8344 27.3421C33.258 27.2545 34.4519 26.8886 35.4163 26.2442C36.3807 25.5998 37.1081 24.6998 37.5985 23.5442C38.0888 22.3734 38.3273 20.985 38.314 19.379C38.3028 18.0306 38.1268 16.9032 37.7859 15.9969C37.4451 15.0906 36.9772 14.4051 36.3825 13.9403C35.7877 13.4755 35.1114 13.2387 34.3538 13.2298C33.6418 13.2509 33.0226 13.4909 32.496 13.9498C31.9543 14.3937 31.4755 15.125 31.0596 16.1436C30.6287 17.1624 30.231 18.5369 29.8665 20.2673L28.905 24.9118C28.0453 29.0403 26.5799 32.3025 24.5088 34.6986C22.4224 37.0796 19.5611 38.2776 15.9247 38.2927C12.9704 38.3323 10.3806 37.5659 8.15536 35.9934C5.91484 34.4059 4.16163 32.2007 2.89574 29.3777C1.62973 26.5396 0.981451 23.2798 0.950906 19.5981C0.919732 15.8406 1.52154 12.5855 2.75632 9.83275C3.9911 7.07999 5.74623 4.95172 8.02171 3.44794C10.2819 1.92914 12.9346 1.14953 15.9799 1.10911L16.0802 13.1996Z"/>
</mask>
<path d="M50.6234 319.611L51.6234 319.603L51.6172 318.86L50.9045 318.651L50.6234 319.611ZM50.7366 333.247L50.431 334.199L51.748 334.622L51.7365 333.239L50.7366 333.247ZM4.06524 318.27L3.06527 318.278L3.07127 319.001L3.75968 319.222L4.06524 318.27ZM3.92194 300.998L3.60063 300.051L2.91597 300.283L2.92197 301.006L3.92194 300.998ZM50.3383 285.249L51.3383 285.24L51.3268 283.857L50.017 284.302L50.3383 285.249ZM50.4515 298.885L50.7484 299.839L51.4576 299.619L51.4514 298.876L50.4515 298.885ZM16.8098 309.346L16.5129 308.391L15.8037 308.611L15.8099 309.354L16.8098 309.346ZM16.8128 309.709L15.8129 309.718L15.819 310.46L16.5318 310.669L16.8128 309.709ZM32.2815 322.309L31.2816 322.317L31.2899 323.317L32.2898 323.309L32.2815 322.309ZM32.0688 296.673L32.0606 295.673L31.0606 295.682L31.0689 296.682L32.0688 296.673ZM41.5231 296.595L42.523 296.587L42.5147 295.587L41.5148 295.595L41.5231 296.595ZM41.7358 322.23L41.744 323.23L42.744 323.222L42.7357 322.222L41.7358 322.23ZM49.6235 319.619L49.7366 333.255L51.7365 333.239L51.6234 319.603L49.6235 319.619ZM51.0421 332.295L4.37079 317.318L3.75968 319.222L50.431 334.199L51.0421 332.295ZM5.0652 318.262L4.9219 300.99L2.92197 301.006L3.06527 318.278L5.0652 318.262ZM4.24325 301.945L50.6596 286.196L50.017 284.302L3.60063 300.051L4.24325 301.945ZM49.3384 285.257L49.4515 298.893L51.4514 298.876L51.3383 285.24L49.3384 285.257ZM50.1545 297.93L16.5129 308.391L17.1068 310.301L50.7484 299.839L50.1545 297.93ZM15.8099 309.354L15.8129 309.718L17.8128 309.701L17.8098 309.337L15.8099 309.354ZM16.5318 310.669L50.3424 320.571L50.9045 318.651L17.0939 308.75L16.5318 310.669ZM33.2815 322.3L33.0688 296.665L31.0689 296.682L31.2816 322.317L33.2815 322.3ZM32.0771 297.673L41.5314 297.595L41.5148 295.595L32.0606 295.673L32.0771 297.673ZM40.5231 296.603L40.7358 322.239L42.7357 322.222L42.523 296.587L40.5231 296.603ZM41.7275 321.23L32.2732 321.309L32.2898 323.309L41.744 323.23L41.7275 321.23ZM50.3011 280.766L50.3094 281.766L51.3094 281.757L51.3011 280.758L50.3011 280.766ZM3.75728 281.152L2.75732 281.16L2.76562 282.16L3.76558 282.152L3.75728 281.152ZM4.94752 252.027L5.88023 252.388L5.881 252.386L4.94752 252.027ZM8.94739 246.517L9.53001 247.33L9.5347 247.326L8.94739 246.517ZM19.7819 245.7L19.3157 246.584L19.3231 246.588L19.7819 245.7ZM23.3532 248.806L24.169 248.228L24.1646 248.222L23.3532 248.806ZM25.3469 253.517L24.3684 253.723L24.5368 254.524L25.3552 254.517L25.3469 253.517ZM25.8015 253.514L25.8098 254.514L26.7726 254.506L26.801 253.543L25.8015 253.514ZM27.2789 248.047L28.1503 248.537L28.1537 248.531L27.2789 248.047ZM31.0872 244.106L31.6042 244.962L31.6077 244.96L31.0872 244.106ZM43.6141 244.547L43.0633 245.382L43.0678 245.385L43.6141 244.547ZM48.3425 250.145L47.4396 250.574L48.3425 250.145ZM40.1057 268.214L40.114 269.214L41.114 269.205L41.1057 268.205L40.1057 268.214ZM38.8353 257.542L39.6331 256.939L39.6276 256.932L38.8353 257.542ZM30.8009 258.904L31.7218 259.294L31.7241 259.289L30.8009 258.904ZM30.2879 268.295L29.2879 268.303L29.2962 269.303L30.2962 269.295L30.2879 268.295ZM22.47 268.36L22.4783 269.36L23.4782 269.352L23.47 268.352L22.47 268.36ZM21.88 260.251L22.8018 259.863L21.88 260.251ZM20.3636 258.286L19.7822 259.1L19.7856 259.102L20.3636 258.286ZM14.6433 259.152L15.4483 259.745L15.4539 259.737L14.6433 259.152ZM13.5612 268.434L12.5612 268.442L12.5695 269.442L13.5695 269.434L13.5612 268.434ZM50.2928 279.766L3.74899 280.152L3.76558 282.152L50.3094 281.766L50.2928 279.766ZM4.75725 281.144L4.58982 260.963L2.58989 260.979L2.75732 281.16L4.75725 281.144ZM4.58982 260.963C4.56109 257.5 5.00458 254.653 5.88023 252.388L4.01482 251.667C3.02141 254.236 2.55979 257.351 2.58989 260.979L4.58982 260.963ZM5.881 252.386C6.76103 250.096 7.98884 248.434 9.53 247.33L8.36478 245.704C6.44159 247.083 5.00281 249.095 4.01404 251.669L5.881 252.386ZM9.5347 247.326C11.0807 246.204 12.9209 245.62 15.0991 245.602L15.0825 243.602C12.5336 243.623 10.2782 244.316 8.36009 245.707L9.5347 247.326ZM15.0991 245.602C16.6578 245.589 18.0568 245.921 19.3157 246.584L20.2481 244.815C18.6764 243.987 16.9479 243.587 15.0825 243.602L15.0991 245.602ZM19.3231 246.588C20.5932 247.244 21.6646 248.173 22.5419 249.391L24.1646 248.222C23.1105 246.759 21.801 245.617 20.2407 244.811L19.3231 246.588ZM22.5375 249.385C23.3999 250.601 24.0146 252.041 24.3684 253.723L26.3255 253.312C25.9221 251.394 25.2077 249.693 24.169 248.228L22.5375 249.385ZM25.3552 254.517L25.8098 254.514L25.7932 252.514L25.3387 252.517L25.3552 254.517ZM26.801 253.543C26.8557 251.694 27.3087 250.032 28.1503 248.537L26.4075 247.556C25.3975 249.35 24.8656 251.332 24.8019 253.484L26.801 253.543ZM28.1537 248.531C28.9785 247.042 30.1237 245.856 31.6042 244.962L30.5703 243.25C28.7942 244.322 27.4006 245.763 26.4041 247.562L28.1537 248.531ZM31.6077 244.96C33.0428 244.085 34.7646 243.621 36.8105 243.604L36.794 241.604C34.4462 241.623 32.358 242.16 30.5668 243.252L31.6077 244.96ZM36.8105 243.604C39.1708 243.584 41.2442 244.182 43.0634 245.382L44.1648 243.713C41.9922 242.279 39.5245 241.581 36.794 241.604L36.8105 243.604ZM43.0678 245.385C44.8901 246.573 46.3516 248.289 47.4396 250.574L49.2454 249.715C48.0203 247.141 46.3295 245.124 44.1604 243.71L43.0678 245.385ZM47.4396 250.574C48.5195 252.843 49.0923 255.597 49.1194 258.866L51.1193 258.849C51.0904 255.361 50.4786 252.306 49.2454 249.715L47.4396 250.574ZM49.1194 258.866L49.3012 280.774L51.3011 280.758L51.1193 258.849L49.1194 258.866ZM41.1057 268.205L41.0567 262.296L39.0568 262.313L39.1058 268.222L41.1057 268.205ZM41.0567 262.296C41.0383 260.081 40.6167 258.24 39.6331 256.939L38.0376 258.145C38.6473 258.952 39.0399 260.287 39.0568 262.313L41.0567 262.296ZM39.6276 256.932C38.5901 255.585 37.0809 254.966 35.2685 254.981L35.2851 256.98C36.5938 256.97 37.4569 257.391 38.0431 258.152L39.6276 256.932ZM35.2685 254.981C34.0219 254.991 32.899 255.288 31.9527 255.923L33.0682 257.584C33.6287 257.207 34.35 256.988 35.2851 256.98L35.2685 254.981ZM31.9527 255.923C31.0192 256.551 30.3311 257.431 29.8778 258.52L31.7241 259.289C32.0432 258.522 32.4948 257.969 33.0682 257.584L31.9527 255.923ZM29.8801 258.514C29.4269 259.584 29.2259 260.827 29.2374 262.213L31.2373 262.196C31.2275 261.006 31.4021 260.049 31.7217 259.294L29.8801 258.514ZM29.2374 262.213L29.2879 268.303L31.2879 268.287L31.2373 262.196L29.2374 262.213ZM30.2962 269.295L40.114 269.214L40.0974 267.214L30.2796 267.295L30.2962 269.295ZM23.47 268.352L23.427 263.17L21.427 263.187L21.47 268.368L23.47 268.352ZM23.427 263.17C23.4169 261.96 23.2171 260.851 22.8018 259.863L20.9581 260.638C21.2539 261.342 21.4187 262.185 21.427 263.187L23.427 263.17ZM22.8018 259.863C22.3844 258.871 21.7701 258.057 20.9417 257.47L19.7856 259.102C20.2679 259.444 20.6645 259.94 20.9581 260.638L22.8018 259.863ZM20.9451 257.473C20.0763 256.852 19.0488 256.57 17.9175 256.579L17.9341 258.579C18.7119 258.573 19.3096 258.762 19.7822 259.1L20.9451 257.473ZM17.9175 256.579C16.2061 256.593 14.7935 257.237 13.8328 258.566L15.4539 259.737C15.9912 258.994 16.7669 258.589 17.9341 258.579L17.9175 256.579ZM13.8384 258.558C12.9193 259.805 12.5023 261.336 12.5167 263.079L14.5167 263.062C14.505 261.653 14.839 260.572 15.4483 259.745L13.8384 258.558ZM12.5167 263.079L12.5612 268.442L14.5612 268.426L14.5167 263.062L12.5167 263.079ZM13.5695 269.434L22.4783 269.36L22.4617 267.36L13.5529 267.434L13.5695 269.434ZM39.4387 196.035L39.9256 195.161L39.924 195.16L39.4387 196.035ZM47.5743 204.127L48.4536 203.65L48.452 203.647L47.5743 204.127ZM47.742 227.081L48.6251 227.55L48.6275 227.545L47.742 227.081ZM39.7189 235.284L40.2159 236.152L40.2202 236.149L39.7189 235.284ZM13.5607 235.501L13.0754 236.375L13.0766 236.376L13.5607 235.501ZM5.4253 227.432L6.30372 226.954L6.30295 226.952L5.4253 227.432ZM5.23486 204.478L6.12035 204.943L6.12194 204.94L5.23486 204.478ZM13.2351 196.252L13.7348 197.118L13.7364 197.117L13.2351 196.252ZM19.3723 207.293L19.7336 208.225L19.7425 208.222L19.3723 207.293ZM15.0358 210.579L15.859 211.147L15.8658 211.137L15.0358 210.579ZM15.1235 221.147L15.9413 220.571L15.94 220.569L15.1235 221.147ZM19.5139 224.36L19.1617 225.296L19.1657 225.298L19.5139 224.36ZM33.6271 224.243L33.9884 225.176L33.9973 225.172L33.6271 224.243ZM37.9636 220.957L38.7868 221.525L38.7936 221.515L37.9636 220.957ZM37.8759 210.389L38.6937 209.814L38.6924 209.812L37.8759 210.389ZM33.4855 207.176L33.1333 208.111L33.1373 208.113L33.4855 207.176ZM26.3088 194.121C31.363 194.079 35.5623 195.027 38.9534 196.909L39.924 195.16C36.1608 193.072 31.6012 192.077 26.2922 192.121L26.3088 194.121ZM38.9518 196.908C42.3577 198.807 44.9301 201.371 46.6967 204.606L48.452 203.647C46.4952 200.064 43.6439 197.234 39.9256 195.161L38.9518 196.908ZM46.695 204.603C48.4571 207.856 49.3629 211.504 49.3966 215.567L51.3965 215.55C51.3603 211.189 50.3846 207.215 48.4536 203.65L46.695 204.603ZM49.3966 215.567C49.4305 219.66 48.578 223.336 46.8565 226.616L48.6275 227.545C50.5158 223.947 51.4329 219.941 51.3965 215.55L49.3966 215.567ZM46.859 226.611C45.1312 229.862 42.5932 232.463 39.2176 234.419L40.2202 236.149C43.9018 234.016 46.7126 231.148 48.625 227.55L46.859 226.611ZM39.222 234.416C35.861 236.341 31.6916 237.351 26.6678 237.392L26.6844 239.392C31.9631 239.348 36.489 238.286 40.2158 236.152L39.222 234.416ZM26.6678 237.392C21.6122 237.434 17.4203 236.493 14.0448 234.626L13.0766 236.376C16.8249 238.45 21.3766 239.436 26.6844 239.392L26.6678 237.392ZM14.046 234.627C10.6246 232.727 8.05394 230.171 6.30372 226.954L4.54688 227.91C6.48947 231.48 9.34243 234.303 13.0754 236.375L14.046 234.627ZM6.30295 226.952C4.52733 223.701 3.61391 220.04 3.57995 215.947L1.58002 215.963C1.61646 220.355 2.59991 224.345 4.54765 227.911L6.30295 226.952ZM3.57995 215.947C3.54626 211.885 4.39837 208.224 6.12035 204.943L4.34938 204.013C2.46164 207.611 1.54383 211.601 1.58002 215.963L3.57995 215.947ZM6.12194 204.94C7.81875 201.679 10.3465 199.073 13.7348 197.118L12.7353 195.386C9.03612 197.52 6.2304 200.399 4.34779 204.016L6.12194 204.94ZM13.7364 197.117C17.0798 195.18 21.2543 194.163 26.3088 194.121L26.2922 192.121C20.9833 192.165 16.4476 193.235 12.7337 195.387L13.7364 197.117ZM26.4 205.121C23.5301 205.144 21.0536 205.546 19.0022 206.364L19.7425 208.222C21.4968 207.523 23.7109 207.143 26.4166 207.121L26.4 205.121ZM19.011 206.36C16.9371 207.164 15.3123 208.375 14.2059 210.021L15.8658 211.137C16.7051 209.888 17.9712 208.908 19.7336 208.225L19.011 206.36ZM14.2127 210.011C13.0858 211.644 12.5609 213.618 12.5796 215.872L14.5796 215.855C14.5636 213.928 15.0095 212.378 15.859 211.147L14.2127 210.011ZM12.5796 215.872C12.5984 218.127 13.1561 220.096 14.307 221.724L15.94 220.569C15.0671 219.335 14.5956 217.782 14.5796 215.855L12.5796 215.872ZM14.3057 221.722C15.4385 223.332 17.0802 224.513 19.1617 225.296L19.8662 223.424C18.0871 222.755 16.8018 221.794 15.9413 220.571L14.3057 221.722ZM19.1657 225.298C21.2281 226.064 23.7085 226.416 26.5765 226.393L26.5599 224.393C23.8524 224.415 21.6299 224.079 19.8622 223.423L19.1657 225.298ZM26.5765 226.393C29.4449 226.369 31.9254 225.975 33.9884 225.176L33.2658 223.311C31.4925 223.998 29.2671 224.37 26.5599 224.393L26.5765 226.393ZM33.9973 225.172C36.0503 224.354 37.6679 223.147 38.7868 221.525L37.1405 220.389C36.283 221.632 35.0096 222.616 33.2569 223.314L33.9973 225.172ZM38.7936 221.515C39.8997 219.869 40.4156 217.893 40.3969 215.641L38.3969 215.658C38.413 217.588 37.9733 219.15 37.1337 220.399L38.7936 221.515ZM40.3969 215.641C40.3782 213.39 39.8298 211.428 38.6937 209.814L37.0582 210.965C37.9154 212.183 38.3809 213.727 38.3969 215.658L40.3969 215.641ZM38.6924 209.812C37.5459 208.19 35.9055 207.008 33.8337 206.238L33.1373 208.113C34.8956 208.766 36.1821 209.726 37.0594 210.967L38.6924 209.812ZM33.8377 206.24C31.7595 205.458 29.2703 205.097 26.4 205.121L26.4166 207.121C29.1219 207.098 31.3508 207.441 33.1333 208.111L33.8377 206.24ZM2.7515 159.923L1.75154 159.931L1.75984 160.931L2.7598 160.923L2.7515 159.923ZM2.64667 147.287L2.63837 146.287L1.63841 146.296L1.6467 147.296L2.64667 147.287ZM41.6892 149.509L41.1482 150.35L41.1494 150.351L41.6892 149.509ZM47.7247 156.505L48.6289 156.077L48.6271 156.074L47.7247 156.505ZM47.8993 177.549L48.8087 177.965L48.8104 177.961L47.8993 177.549ZM41.9807 184.644L42.5287 185.481L42.5343 185.477L41.9807 184.644ZM2.98003 187.468L1.98006 187.476L1.98836 188.476L2.98833 188.468L2.98003 187.468ZM2.87519 174.832L2.8669 173.832L1.86693 173.84L1.87523 174.84L2.87519 174.832ZM35.4571 173.607L35.9529 174.475L35.9579 174.472L35.4571 173.607ZM38.0715 170.949L38.9452 171.435L38.948 171.43L38.0715 170.949ZM38.0074 163.222L38.8729 162.721L38.0074 163.222ZM35.3492 160.607L35.8356 159.734L35.8306 159.731L35.3492 160.607ZM3.75147 159.915L3.64664 147.279L1.6467 147.296L1.75154 159.931L3.75147 159.915ZM2.65497 148.287L32.4721 148.04L32.4555 146.04L2.63837 146.287L2.65497 148.287ZM32.4721 148.04C35.8518 148.012 38.7298 148.794 41.1482 150.35L42.2301 148.668C39.4388 146.872 36.1666 146.009 32.4555 146.04L32.4721 148.04ZM41.1494 150.351C43.5694 151.902 45.4617 154.086 46.8223 156.935L48.6271 156.074C47.1196 152.916 44.9882 150.436 42.2289 148.667L41.1494 150.351ZM46.8205 156.932C48.1664 159.781 48.8706 163.127 48.9027 166.995L50.9026 166.979C50.8686 162.877 50.1208 159.235 48.6289 156.077L46.8205 156.932ZM48.9027 166.995C48.935 170.895 48.2862 174.267 46.9881 177.137L48.8104 177.961C50.2502 174.778 50.9369 171.109 50.9026 166.979L48.9027 166.995ZM46.9899 177.133C45.6767 180.005 43.8209 182.22 41.427 183.811L42.5343 185.477C45.2638 183.662 47.3538 181.147 48.8087 177.965L46.9899 177.133ZM41.4327 183.808C39.0393 185.375 36.172 186.192 32.7889 186.22L32.8055 188.22C36.513 188.19 39.768 187.289 42.5286 185.481L41.4327 183.808ZM32.7889 186.22L2.97173 186.468L2.98833 188.468L32.8055 188.22L32.7889 186.22ZM3.97999 187.459L3.87516 174.823L1.87523 174.84L1.98006 187.476L3.97999 187.459ZM2.88349 175.832L31.6098 175.593L31.5932 173.593L2.8669 173.832L2.88349 175.832ZM31.6098 175.593C33.2018 175.58 34.6581 175.215 35.9529 174.475L34.9612 172.738C33.994 173.291 32.8799 173.583 31.5932 173.593L31.6098 175.593ZM35.9579 174.472C37.23 173.736 38.2304 172.719 38.9452 171.435L37.1977 170.462C36.6585 171.431 35.9159 172.186 34.9563 172.741L35.9579 174.472ZM38.948 171.43C39.6657 170.123 40.0071 168.661 39.9939 167.069L37.994 167.086C38.0046 168.372 37.7311 169.491 37.1949 170.467L38.948 171.43ZM39.9939 167.069C39.9806 165.464 39.6159 164.005 38.8729 162.721L37.1418 163.723C37.6901 164.67 37.9831 165.782 37.994 167.086L39.9939 167.069ZM38.8729 162.721C38.1369 161.449 37.1198 160.448 35.8356 159.734L34.8628 161.481C35.8316 162.02 36.5866 162.763 37.1418 163.723L38.8729 162.721ZM35.8306 159.731C34.5236 159.013 33.0615 158.672 31.4695 158.685L31.4861 160.685C32.7728 160.674 33.8916 160.948 34.8679 161.484L35.8306 159.731ZM31.4695 158.685L2.74321 158.923L2.7598 160.923L31.4861 160.685L31.4695 158.685ZM12.7889 142.47L12.7972 143.47L13.7971 143.462L13.7888 142.462L12.7889 142.47ZM2.6074 142.554L1.60744 142.563L1.61574 143.563L2.6157 143.554L2.6074 142.554ZM2.27178 102.101L2.26349 101.101L1.26352 101.11L1.27182 102.11L2.27178 102.101ZM12.4533 102.017L13.4532 102.009L13.4449 101.009L12.445 101.017L12.4533 102.017ZM12.5694 116.016L11.5694 116.025L11.5777 117.025L12.5777 117.016L12.5694 116.016ZM48.9318 115.715L49.9318 115.706L49.9235 114.706L48.9235 114.715L48.9318 115.715ZM49.0351 128.169L49.0434 129.169L50.0434 129.16L50.0351 128.16L49.0351 128.169ZM12.6727 128.47L12.6644 127.471L11.6645 127.479L11.6728 128.479L12.6727 128.47ZM12.7806 141.47L2.59911 141.554L2.6157 143.554L12.7972 143.47L12.7806 141.47ZM3.60737 142.546L3.27175 102.093L1.27182 102.11L1.60744 142.563L3.60737 142.546ZM2.28008 103.101L12.4615 103.017L12.445 101.017L2.26349 101.101L2.28008 103.101ZM11.4533 102.025L11.5694 116.025L13.5694 116.008L13.4532 102.009L11.4533 102.025ZM12.5777 117.016L48.9401 116.715L48.9235 114.715L12.5611 115.016L12.5777 117.016ZM47.9318 115.723L48.0351 128.177L50.0351 128.16L49.9318 115.706L47.9318 115.723ZM49.0268 127.169L12.6644 127.471L12.681 129.47L49.0434 129.169L49.0268 127.169ZM11.6728 128.479L11.7889 142.478L13.7888 142.462L13.6727 128.462L11.6728 128.479ZM1.89803 57.0517L0.898062 57.06L0.906358 58.06L1.90632 58.0517L1.89803 57.0517ZM1.79319 44.4158L1.7849 43.4158L0.784931 43.4241L0.793227 44.4241L1.79319 44.4158ZM40.8357 46.6374L40.2947 47.4785L40.2959 47.4793L40.8357 46.6374ZM46.8712 53.633L47.7754 53.2059L47.7736 53.2022L46.8712 53.633ZM47.0458 74.6778L47.9553 75.0936L47.957 75.0899L47.0458 74.6778ZM41.1272 81.7726L41.6752 82.6091L41.6808 82.6053L41.1272 81.7726ZM2.12655 84.5962L1.12659 84.6045L1.13488 85.6045L2.13485 85.5962L2.12655 84.5962ZM2.02172 71.9603L2.01342 70.9604L1.01346 70.9686L1.02175 71.9686L2.02172 71.9603ZM34.6036 70.7354L35.0994 71.6039L35.1044 71.601L34.6036 70.7354ZM37.218 68.0773L38.0918 68.5636L38.0945 68.5586L37.218 68.0773ZM37.1539 60.3502L38.0194 59.8495L37.1539 60.3502ZM34.4957 57.7359L34.9821 56.8621L34.9771 56.8593L34.4957 57.7359ZM2.89799 57.0434L2.79316 44.4075L0.793227 44.4241L0.898062 57.06L2.89799 57.0434ZM1.80149 45.4158L31.6186 45.1684L31.6021 43.1684L1.7849 43.4158L1.80149 45.4158ZM31.6186 45.1684C34.9983 45.1403 37.8763 45.923 40.2947 47.4785L41.3766 45.7964C38.5853 44.001 35.3131 43.1377 31.6021 43.1684L31.6186 45.1684ZM40.2959 47.4793C42.7159 49.0309 44.6082 51.2144 45.9688 54.0639L47.7736 53.2022C46.2661 50.045 44.1347 47.5647 41.3754 45.7956L40.2959 47.4793ZM45.967 54.0602C47.3129 56.9091 48.0171 60.2554 48.0492 64.1236L50.0491 64.107C50.0151 60.0059 49.2673 56.3639 47.7754 53.2059L45.967 54.0602ZM48.0492 64.1236C48.0816 68.0235 47.4327 71.3958 46.1347 74.2657L47.957 75.0899C49.3967 71.9066 50.0834 68.2372 50.0491 64.107L48.0492 64.1236ZM46.1364 74.2619C44.8232 77.1337 42.9675 79.3482 40.5736 80.9398L41.6808 82.6053C44.4104 80.7906 46.5004 78.2753 47.9552 75.0936L46.1364 74.2619ZM40.5792 80.9361C38.1858 82.5039 35.3185 83.3208 31.9354 83.3489L31.952 85.3488C35.6595 85.3181 38.9146 84.4175 41.6752 82.6091L40.5792 80.9361ZM31.9354 83.3489L2.11826 83.5963L2.13485 85.5962L31.952 85.3488L31.9354 83.3489ZM3.12652 84.5879L3.02168 71.952L1.02175 71.9686L1.12659 84.6045L3.12652 84.5879ZM2.03001 72.9603L30.7563 72.722L30.7397 70.722L2.01342 70.9604L2.03001 72.9603ZM30.7563 72.722C32.3483 72.7087 33.8046 72.3431 35.0994 71.6038L34.1078 69.867C33.1405 70.4192 32.0264 70.7113 30.7397 70.722L30.7563 72.722ZM35.1044 71.601C36.3765 70.8649 37.3769 69.8478 38.0917 68.5636L36.3442 67.5909C35.805 68.5596 35.0624 69.3146 34.1028 69.8698L35.1044 71.601ZM38.0945 68.5586C38.8122 67.2517 39.1536 65.7896 39.1404 64.1975L37.1405 64.2141C37.1512 65.5008 36.8776 66.6196 36.3415 67.5959L38.0945 68.5586ZM39.1404 64.1975C39.1271 62.5926 38.7624 61.1335 38.0194 59.8495L36.2883 60.8511C36.8367 61.7988 37.1297 62.9101 37.1405 64.2141L39.1404 64.1975ZM38.0194 59.8495C37.2834 58.5773 36.2663 57.577 34.9821 56.8621L34.0094 58.6096C34.9781 59.1488 35.7331 59.8914 36.2883 60.8511L38.0194 59.8495ZM34.9771 56.8593C33.6702 56.1416 32.208 55.8002 30.616 55.8134L30.6326 57.8133C31.9193 57.8027 33.0381 58.0763 34.0144 58.6124L34.9771 56.8593ZM30.616 55.8134L1.88973 56.0517L1.90632 58.0517L30.6326 57.8133L30.616 55.8134ZM16.0802 13.1996L16.1682 14.1957L17.0878 14.1145L17.0801 13.1913L16.0802 13.1996ZM12.549 14.9335L13.3168 15.5741L13.3215 15.5684L12.549 14.9335ZM11.818 22.7126L12.7529 22.3575L12.7493 22.3481L11.818 22.7126ZM13.0831 24.5203L12.4934 25.328L12.4934 25.328L13.0831 24.5203ZM14.9063 25.1188L14.952 24.1199L14.9361 24.1192L14.9202 24.1189L14.9063 25.1188ZM16.4265 24.8108L16.8811 25.7014L16.8992 25.6922L16.9168 25.6823L16.4265 24.8108ZM17.6216 23.6644L18.4433 24.2343L18.449 24.2262L18.4545 24.2179L17.6216 23.6644ZM19.3086 18.8094L18.3291 18.6079L18.3275 18.6162L19.3086 18.8094ZM20.0951 14.9845L21.0746 15.1859L21.0751 15.1836L20.0951 14.9845ZM22.1993 8.35323L23.1017 8.78402L22.1993 8.35323ZM25.3209 3.82717L26.0203 4.54189L26.0248 4.53745L25.3209 3.82717ZM29.3449 1.22549L29.6945 2.16248L29.7028 2.15929L29.3449 1.22549ZM34.2467 0.321179L34.2433 -0.678919L34.2298 -0.678685L34.2467 0.321179ZM42.0382 2.55206L42.6126 1.73354L42.0382 2.55206ZM46.9328 9.01167L46.005 9.38474L46.0057 9.38644L46.9328 9.01167ZM46.9683 29.7166L47.9001 30.0795L47.9007 30.0779L46.9683 29.7166ZM41.5038 36.7622L42.0619 37.592L42.0677 37.5881L41.5038 36.7622ZM31.934 39.3417L30.934 39.35L30.9423 40.3539L31.9461 40.3416L31.934 39.3417ZM31.8344 27.3421L31.773 26.344L30.8266 26.4022L30.8344 27.3504L31.8344 27.3421ZM35.4163 26.2442L35.9719 27.0756L35.4163 26.2442ZM37.5985 23.5442L38.5191 23.9348L38.5209 23.9305L37.5985 23.5442ZM37.7859 15.9969L38.7219 15.6449L37.7859 15.9969ZM36.3825 13.9403L36.9982 13.1523L36.3825 13.9403ZM34.3538 13.2298L34.3655 12.2299L34.3448 12.2296L34.3242 12.2302L34.3538 13.2298ZM32.496 13.9498L33.1298 14.7233L33.1416 14.7137L33.1531 14.7036L32.496 13.9498ZM31.0596 16.1436L31.9807 16.5332L31.9855 16.5215L31.0596 16.1436ZM29.8665 20.2673L28.888 20.0612L28.8873 20.0646L29.8665 20.2673ZM28.905 24.9118L29.884 25.1156L29.8843 25.1145L28.905 24.9118ZM24.5088 34.6986L25.2609 35.3577L25.2654 35.3526L24.5088 34.6986ZM15.9247 38.2927L15.9206 37.2926L15.9113 37.2927L15.9247 38.2927ZM8.15536 35.9934L7.57722 36.8093L7.57825 36.8101L8.15536 35.9934ZM2.89574 29.3777L1.98248 29.7851L1.98329 29.7869L2.89574 29.3777ZM2.75632 9.83276L3.66873 10.242L2.75632 9.83276ZM8.02171 3.44794L8.57307 4.28223L8.57946 4.27794L8.02171 3.44794ZM15.9799 1.1091L16.9798 1.10081L16.9715 0.0958688L15.9666 0.109211L15.9799 1.1091ZM15.9921 12.2035C14.2539 12.3571 12.8126 13.0377 11.7764 14.2986L13.3215 15.5684C13.9654 14.785 14.8782 14.3097 16.1682 14.1957L15.9921 12.2035ZM11.7811 14.2929C10.7243 15.5596 10.2963 17.3641 10.3142 19.5204L12.3142 19.5038C12.2981 17.5694 12.6933 16.3214 13.3168 15.5741L11.7811 14.2929ZM10.3142 19.5204C10.3256 20.8941 10.5018 22.0933 10.8868 23.077L12.7493 22.3481C12.4841 21.6705 12.3244 20.736 12.3142 19.5038L10.3142 19.5204ZM10.8832 23.0676C11.2402 24.0074 11.7605 24.7929 12.4934 25.328L13.6727 23.7126C13.3385 23.4687 13.0155 23.049 12.7529 22.3575L10.8832 23.0676ZM12.4934 25.328C13.2 25.8438 14.0104 26.1065 14.8924 26.1187L14.9202 24.1189C14.4383 24.1122 14.0332 23.9758 13.6727 23.7126L12.4934 25.328ZM14.8606 26.1178C15.5762 26.1505 16.2581 26.0194 16.8811 25.7014L15.9719 23.9201C15.6896 24.0642 15.3581 24.1385 14.952 24.1199L14.8606 26.1178ZM16.9168 25.6823C17.5154 25.3455 18.0193 24.8458 18.4433 24.2343L16.7999 23.0946C16.5052 23.5194 16.2123 23.7839 15.9362 23.9392L16.9168 25.6823ZM18.4545 24.2179C18.8585 23.6098 19.2044 22.8663 19.5038 22.009L17.6156 21.3497C17.3525 22.1031 17.0731 22.683 16.7887 23.111L18.4545 24.2179ZM19.5038 22.009C19.8046 21.1474 20.0653 20.1429 20.2898 19.0025L18.3275 18.6162C18.1158 19.6917 17.8772 20.6004 17.6156 21.3497L19.5038 22.009ZM20.2881 19.0108L21.0746 15.1859L19.1156 14.7831L18.3291 18.608L20.2881 19.0108ZM21.0751 15.1836C21.5873 12.6616 22.2667 10.5332 23.1017 8.78402L21.2968 7.92241C20.3744 9.85462 19.651 12.1471 19.1151 14.7855L21.0751 15.1836ZM23.1017 8.78402C23.9403 7.02737 24.9174 5.6212 26.0203 4.54189L24.6215 3.11246C23.3196 4.38649 22.2156 5.99769 21.2968 7.92241L23.1017 8.78402ZM26.0248 4.53745C27.1162 3.45588 28.3381 2.6684 29.6944 2.16245L28.9954 0.288572C27.3608 0.898376 25.9001 1.84531 24.617 3.11686L26.0248 4.53745ZM29.7028 2.15929C31.0781 1.63224 32.5952 1.34914 34.2635 1.32104L34.2298 -0.678685C32.3531 -0.647062 30.6024 -0.32729 28.9871 0.291723L29.7028 2.15929ZM34.25 1.32116C37.1409 1.31148 39.5272 2.01147 41.4637 3.3706L42.6126 1.73354C40.2818 0.0976407 37.4737 -0.689637 34.2433 -0.678828L34.25 1.32116ZM41.4637 3.3706C43.4148 4.7399 44.9359 6.72576 46.005 9.38474L47.8607 8.63864C46.671 5.67981 44.929 3.35925 42.6126 1.73354L41.4637 3.3706ZM46.0057 9.38644C47.0759 12.034 47.6439 15.2692 47.6758 19.1195L49.6758 19.1029C49.6423 15.0747 49.0484 11.5769 47.86 8.63693L46.0057 9.38644ZM47.6758 19.1195C47.7086 23.0686 47.1523 26.4734 46.0358 29.3554L47.9007 30.0779C49.128 26.91 49.7101 23.2445 49.6758 19.1029L47.6758 19.1195ZM46.0364 29.3538C44.9314 32.1914 43.2309 34.372 40.9399 35.9364L42.0677 37.5881C44.7185 35.778 46.661 33.2615 47.9001 30.0795L46.0364 29.3538ZM40.9457 35.9324C38.6629 37.4678 35.6784 38.296 31.9218 38.3418L31.9461 40.3416C35.9769 40.2925 39.3722 39.401 42.0619 37.592L40.9457 35.9324ZM32.9339 39.3334L32.8344 27.3338L30.8344 27.3504L30.934 39.35L32.9339 39.3334ZM31.8958 28.3402C33.4556 28.2443 34.8301 27.8386 35.9719 27.0756L34.8607 25.4127C34.0737 25.9386 33.0603 26.2648 31.773 26.344L31.8958 28.3402ZM35.9719 27.0756C37.1117 26.3141 37.9591 25.2544 38.5191 23.9348L36.678 23.1535C36.2571 24.1452 35.6497 24.8855 34.8607 25.4127L35.9719 27.0756ZM38.5209 23.9305C39.0754 22.6063 39.3281 21.0775 39.314 19.3707L37.314 19.3873C37.3265 20.8925 37.1023 22.1404 36.6762 23.1579L38.5209 23.9305ZM39.314 19.3707C39.3022 17.9475 39.1169 16.695 38.7219 15.6449L36.8499 16.3489C37.1367 17.1114 37.3035 18.1136 37.314 19.3873L39.314 19.3707ZM38.7219 15.6449C38.3344 14.6145 37.7733 13.7581 36.9982 13.1523L35.7667 14.7283C36.1811 15.0521 36.5558 15.5667 36.8499 16.3489L38.7219 15.6449ZM36.9982 13.1523C36.23 12.5521 35.3414 12.2413 34.3655 12.2299L34.3421 14.2297C34.8815 14.2361 35.3453 14.3989 35.7667 14.7283L36.9982 13.1523ZM34.3242 12.2302C33.3859 12.258 32.5437 12.5817 31.839 13.196L33.1531 14.7036C33.5015 14.4 33.8977 14.2437 34.3833 14.2294L34.3242 12.2302ZM31.8623 13.1763C31.1385 13.7693 30.5801 14.6725 30.1338 15.7657L31.9855 16.5215C32.3709 15.5775 32.77 15.0181 33.1298 14.7233L31.8623 13.1763ZM30.1387 15.754C29.6724 16.8562 29.2589 18.3005 28.888 20.0612L30.8451 20.4734C31.2031 18.7734 31.585 17.4685 31.9806 16.5332L30.1387 15.754ZM28.8873 20.0646L27.9258 24.7091L29.8843 25.1145L30.8458 20.47L28.8873 20.0646ZM27.926 24.7079C27.0899 28.7231 25.6813 31.8129 23.7523 34.0447L25.2654 35.3526C27.4785 32.7921 29.0007 29.3574 29.884 25.1156L27.926 24.7079ZM23.7567 34.0396C21.8883 36.1719 19.3174 37.2786 15.9206 37.2927L15.9288 39.2927C19.8047 39.2767 22.9566 37.9874 25.2609 35.3576L23.7567 34.0396ZM15.9113 37.2927C13.1494 37.3298 10.7704 36.6169 8.73247 35.1768L7.57825 36.8101C9.99079 38.5149 12.7914 39.3348 15.9381 39.2926L15.9113 37.2927ZM8.73349 35.1775C6.65653 33.7058 5.01045 31.6496 3.8082 28.9686L1.98329 29.7869C3.31281 32.7518 5.17314 35.1059 7.57722 36.8093L8.73349 35.1775ZM3.809 28.9703C2.60841 26.2789 1.98048 23.1589 1.95087 19.5898L-0.04906 19.6064C-0.0175811 23.4006 0.651051 26.8004 1.98249 29.7851L3.809 28.9703ZM1.95087 19.5898C1.92061 15.9419 2.50543 12.8354 3.66873 10.242L1.8439 9.42347C0.537639 12.3356 -0.0811424 15.7394 -0.04906 19.6064L1.95087 19.5898ZM3.66873 10.242C4.83441 7.64329 6.47232 5.6705 8.57305 4.2822L7.47037 2.61365C5.02014 4.23291 3.14778 6.51668 1.8439 9.42347L3.66873 10.242ZM8.57946 4.27794C10.6599 2.87999 13.1183 2.14716 15.9931 2.10903L15.9666 0.109211C12.751 0.151881 9.90398 0.978294 7.46396 2.61792L8.57946 4.27794ZM14.9799 1.1174L15.0802 13.2079L17.0801 13.1913L16.9798 1.10081L14.9799 1.1174Z" fill="#05C2DF" fill-opacity="0.5" mask="url(#path-1-outside-1_1_10677)"/>
</svg>
