<svg width="51" height="335" viewBox="0 0 51 335" fill="none" xmlns="http://www.w3.org/2000/svg">
<mask id="path-1-outside-1_1_398" maskUnits="userSpaceOnUse" x="-1.0143" y="-0.867258" width="53.7858" height="336.412" fill="black">
<rect fill="white" x="-1.0143" y="-0.867258" width="53.7858" height="336.412"/>
<path d="M1.11083 14.6297L0.997701 0.993758L47.669 15.9707L47.8123 33.2428L1.39593 48.9921L1.28279 35.3562L34.9244 24.8949L34.9214 24.5313L1.11083 14.6297ZM19.4527 11.9319L19.6654 37.5674L10.2112 37.6459L9.9985 12.0104L19.4527 11.9319ZM1.43312 53.4749L47.977 53.0888L48.1444 73.2699C48.1738 76.8152 47.7213 79.7963 46.7867 82.2133C45.8523 84.6453 44.519 86.4822 42.7869 87.7239C41.0548 88.9808 39.007 89.619 36.6434 89.6386C34.9314 89.6528 33.3677 89.287 31.9524 88.5411C30.5372 87.8104 29.3467 86.7748 28.381 85.4343C27.4305 84.0936 26.7659 82.5233 26.3873 80.7234L25.9328 80.7271C25.8736 82.7277 25.3811 84.55 24.4554 86.1941C23.5447 87.8381 22.2753 89.1517 20.647 90.1349C19.0339 91.1181 17.1289 91.6187 14.932 91.637C12.3866 91.6581 10.116 91.0102 8.12019 89.6934C6.12448 88.3917 4.54834 86.526 3.39177 84.0961C2.23521 81.6662 1.64291 78.7619 1.61488 75.3832L1.43312 53.4749ZM11.6285 66.0271L11.6775 71.936C11.6951 74.0571 12.1023 75.6447 12.8989 76.6988C13.7107 77.7527 14.8969 78.2732 16.4574 78.2602C17.5483 78.2512 18.4705 77.9935 19.2239 77.4872C19.9773 76.981 20.5471 76.2641 20.9333 75.3366C21.3197 74.4243 21.5076 73.3242 21.4969 72.0364L21.4464 65.9457L11.6285 66.0271ZM29.2643 65.8808L29.3073 71.0624C29.3164 72.1685 29.4988 73.1443 29.8543 73.9898C30.2098 74.8354 30.7153 75.4903 31.3706 75.9546C32.0413 76.4339 32.8539 76.6696 33.8084 76.6617C35.2478 76.6497 36.3419 76.1255 37.0909 75.0889C37.8551 74.0522 38.2306 72.746 38.2176 71.1703L38.1731 65.8069L29.2643 65.8808ZM25.4338 141.12C20.2522 141.163 15.8727 140.191 12.2955 138.206C8.73349 136.22 6.02162 133.523 4.15995 130.114C2.31342 126.705 1.37268 122.894 1.33774 118.682C1.30254 114.44 2.18737 110.599 3.99223 107.16C5.81237 103.736 8.48675 101.001 12.0154 98.9569C15.5593 96.9274 19.9069 95.8913 25.0582 95.8485C30.2398 95.8056 34.6116 96.7693 38.1736 98.7398C41.7508 100.725 44.4626 103.415 46.309 106.809C48.1706 110.218 49.1191 114.043 49.1543 118.286C49.1892 122.498 48.3043 126.323 46.4994 129.763C44.7097 133.202 42.043 135.944 38.4992 137.988C34.9706 140.033 30.6154 141.077 25.4338 141.12ZM25.326 128.12C28.1137 128.097 30.4591 127.706 32.3619 126.948C34.2801 126.205 35.7256 125.11 36.6984 123.662C37.6866 122.23 38.172 120.468 38.1547 118.377C38.1373 116.286 37.6227 114.525 36.6108 113.094C35.6141 111.678 34.1507 110.607 32.2203 109.881C30.3053 109.169 27.9538 108.825 25.1661 108.848C22.3783 108.871 20.0253 109.254 18.1072 109.998C16.2043 110.756 14.7588 111.851 13.7706 113.284C12.7978 114.731 12.32 116.5 12.3374 118.591C12.3547 120.682 12.8617 122.435 13.8583 123.852C14.8702 125.283 16.3337 126.354 18.2488 127.065C20.1791 127.792 22.5382 128.143 25.326 128.12ZM48.9828 174.318L49.0876 186.953L19.2704 187.201C15.7251 187.23 12.65 186.407 10.0451 184.732C7.45547 183.071 5.44363 180.74 4.00958 177.736C2.59067 174.733 1.86469 171.239 1.83163 167.254C1.79832 163.239 2.4661 159.718 3.83498 156.691C5.219 153.665 7.19188 151.3 9.75359 149.597C12.3306 147.909 15.3917 147.05 18.9371 147.02L48.7542 146.773L48.8591 159.409L20.1328 159.647C18.6934 159.659 17.4082 159.988 16.2772 160.634C15.1613 161.28 14.2898 162.166 13.6628 163.292C13.0359 164.434 12.7284 165.724 12.7403 167.163C12.7524 168.618 13.0813 169.903 13.7269 171.019C14.3726 172.135 15.2586 173.006 16.3851 173.633C17.5267 174.26 18.8171 174.568 20.2565 174.556L48.9828 174.318ZM38.9454 191.771L49.1269 191.686L49.4625 232.139L39.281 232.224L39.1649 218.224L2.80249 218.526L2.69916 206.072L39.0615 205.77L38.9454 191.771ZM49.8362 277.189L49.9411 289.825L20.1239 290.072C16.5786 290.102 13.5035 289.279 10.8986 287.603C8.30896 285.943 6.29712 283.611 4.86306 280.608C3.44416 277.604 2.71817 274.11 2.68511 270.125C2.6518 266.11 3.31959 262.59 4.68846 259.563C6.07249 256.536 8.04536 254.171 10.6071 252.468C13.1841 250.78 16.2452 249.921 19.7906 249.892L49.6077 249.644L49.7126 262.28L20.9863 262.519C19.5469 262.531 18.2617 262.86 17.1307 263.505C16.0148 264.151 15.1433 265.037 14.5163 266.163C13.8894 267.305 13.5819 268.596 13.5938 270.035C13.6059 271.489 13.9348 272.775 14.5804 273.89C15.226 275.006 16.1121 275.878 17.2385 276.505C18.3801 277.132 19.6706 277.439 21.11 277.427L49.8362 277.189ZM35.6541 321.041C37.1682 320.907 38.3453 320.329 39.1853 319.307C40.0255 318.3 40.4371 316.774 40.4201 314.729C40.4093 313.426 40.2413 312.359 39.9163 311.528C39.6064 310.713 39.1848 310.11 38.6512 309.72C38.1177 309.331 37.5099 309.131 36.828 309.122C36.2672 309.096 35.7604 309.199 35.3078 309.43C34.8704 309.676 34.4721 310.058 34.1127 310.576C33.7685 311.094 33.4558 311.756 33.1746 312.561C32.8934 313.367 32.6437 314.323 32.4256 315.431L31.6392 319.256C31.1151 321.836 30.4137 324.047 29.535 325.888C28.6563 327.728 27.6158 329.237 26.4134 330.414C25.2261 331.59 23.8848 332.457 22.3894 333.015C20.8941 333.588 19.2601 333.89 17.4876 333.92C14.427 333.93 11.8298 333.186 9.69611 331.689C7.5624 330.191 5.93084 328.038 4.80144 325.229C3.67216 322.435 3.09118 319.069 3.0585 315.13C3.02493 311.084 3.59411 307.549 4.76602 304.524C5.93806 301.514 7.75955 299.166 10.2305 297.479C12.7167 295.806 15.9066 294.946 19.8003 294.899L19.8999 306.899C18.4763 306.986 17.2823 307.352 16.318 307.997C15.3536 308.641 14.6262 309.541 14.1357 310.697C13.6454 311.867 13.4069 313.256 13.4203 314.862C13.4315 316.21 13.6075 317.338 13.9483 318.244C14.2892 319.15 14.757 319.836 15.3518 320.3C15.9466 320.765 16.6228 321.002 17.3805 321.011C18.0925 320.99 18.7117 320.75 19.2382 320.291C19.78 319.847 20.2588 319.116 20.6746 318.097C21.1056 317.078 21.5033 315.704 21.8677 313.973L22.8292 309.329C23.689 305.2 25.1544 301.938 27.2255 299.542C29.3118 297.161 32.1732 295.963 35.8096 295.948C38.7639 295.908 41.3537 296.675 43.5789 298.247C45.8194 299.835 47.5726 302.04 48.8385 304.863C50.1045 307.701 50.7528 310.961 50.7834 314.643C50.8145 318.4 50.2127 321.655 48.978 324.408C47.7432 327.161 45.9881 329.289 43.7126 330.793C41.4524 332.312 38.7997 333.091 35.7544 333.132L35.6541 321.041Z"/>
</mask>
<path d="M1.11083 14.6297L0.110868 14.6379L0.117029 15.3806L0.829784 15.5893L1.11083 14.6297ZM0.997701 0.993758L1.30326 0.0415835L-0.0137393 -0.381044L-0.00226429 1.00205L0.997701 0.993758ZM47.669 15.9707L48.669 15.9624L48.663 15.2394L47.9746 15.0185L47.669 15.9707ZM47.8123 33.2428L48.1336 34.1898L48.8183 33.9575L48.8123 33.2345L47.8123 33.2428ZM1.39593 48.9921L0.39596 49.0004L0.407435 50.3835L1.71724 49.9391L1.39593 48.9921ZM1.28279 35.3562L0.98586 34.4013L0.276667 34.6218L0.282828 35.3645L1.28279 35.3562ZM34.9244 24.8949L35.2214 25.8498L35.9306 25.6293L35.9244 24.8866L34.9244 24.8949ZM34.9214 24.5313L35.9214 24.523L35.9152 23.7804L35.2025 23.5716L34.9214 24.5313ZM19.4527 11.9319L20.4527 11.9236L20.4444 10.9237L19.4444 10.932L19.4527 11.9319ZM19.6654 37.5674L19.6737 38.5674L20.6737 38.5591L20.6654 37.5591L19.6654 37.5674ZM10.2112 37.6459L9.21122 37.6542L9.21952 38.6541L10.2195 38.6458L10.2112 37.6459ZM9.9985 12.0104L9.9902 11.0104L8.99024 11.0187L8.99854 12.0187L9.9985 12.0104ZM2.1108 14.6214L1.99767 0.985462L-0.00226429 1.00205L0.110868 14.6379L2.1108 14.6214ZM0.692144 1.94593L47.3635 16.9229L47.9746 15.0185L1.30326 0.0415835L0.692144 1.94593ZM46.6691 15.979L46.8124 33.2511L48.8123 33.2345L48.669 15.9624L46.6691 15.979ZM47.491 32.2959L1.07461 48.0451L1.71724 49.9391L48.1336 34.1898L47.491 32.2959ZM2.39589 48.9838L2.28276 35.3479L0.282828 35.3645L0.39596 49.0004L2.39589 48.9838ZM1.57973 36.3111L35.2214 25.8498L34.6275 23.94L0.98586 34.4013L1.57973 36.3111ZM35.9244 24.8866L35.9214 24.523L33.9215 24.5396L33.9245 24.9032L35.9244 24.8866ZM35.2025 23.5716L1.39188 13.67L0.829784 15.5893L34.6404 25.491L35.2025 23.5716ZM18.4528 11.9402L18.6654 37.5757L20.6654 37.5591L20.4527 11.9236L18.4528 11.9402ZM19.6571 36.5675L10.2029 36.6459L10.2195 38.6458L19.6737 38.5674L19.6571 36.5675ZM11.2112 37.6376L10.9985 12.0021L8.99854 12.0187L9.21122 37.6542L11.2112 37.6376ZM10.0068 13.0103L19.461 12.9319L19.4444 10.932L9.9902 11.0104L10.0068 13.0103ZM1.43312 53.4749L1.42482 52.4749L0.424856 52.4832L0.433152 53.4832L1.43312 53.4749ZM47.977 53.0888L48.9769 53.0805L48.9686 52.0805L47.9687 52.0888L47.977 53.0888ZM46.7867 82.2133L45.854 81.8526L45.8533 81.8546L46.7867 82.2133ZM42.7869 87.7239L42.2042 86.9111L42.1996 86.9145L42.7869 87.7239ZM31.9524 88.5411L32.4186 87.6564L32.4111 87.6526L31.9524 88.5411ZM28.381 85.4343L27.5652 86.0127L27.5696 86.0188L28.381 85.4343ZM26.3873 80.7234L27.3659 80.5175L27.1974 79.7166L26.379 79.7234L26.3873 80.7234ZM25.9328 80.7271L25.9245 79.7272L24.9617 79.7352L24.9332 80.6976L25.9328 80.7271ZM24.4554 86.1941L23.584 85.7035L23.5806 85.7096L24.4554 86.1941ZM20.647 90.1349L20.1301 89.2789L20.1266 89.281L20.647 90.1349ZM8.12019 89.6934L8.67092 88.8587L8.66649 88.8558L8.12019 89.6934ZM3.39177 84.0961L4.29471 83.6663L3.39177 84.0961ZM11.6285 66.0271L11.6202 65.0272L10.6203 65.0355L10.6285 66.0354L11.6285 66.0271ZM12.8989 76.6988L12.1011 77.3018L12.1067 77.309L12.8989 76.6988ZM20.9333 75.3366L20.0125 74.9466L20.0102 74.9522L20.9333 75.3366ZM21.4464 65.9457L22.4463 65.9374L22.438 64.9374L21.4381 64.9457L21.4464 65.9457ZM29.2643 65.8808L29.256 64.8808L28.256 64.8891L28.2643 65.8891L29.2643 65.8808ZM29.8543 73.9898L28.9325 74.3774L29.8543 73.9898ZM31.3706 75.9546L31.9521 75.141L31.9487 75.1386L31.3706 75.9546ZM37.0909 75.0889L36.2859 74.4955L36.2804 74.5032L37.0909 75.0889ZM38.1731 65.8069L39.173 65.7986L39.1647 64.7986L38.1648 64.8069L38.1731 65.8069ZM1.44141 54.4749L47.9853 54.0887L47.9687 52.0888L1.42482 52.4749L1.44141 54.4749ZM46.977 53.097L47.1444 73.2782L49.1444 73.2616L48.9769 53.0805L46.977 53.097ZM47.1444 73.2782C47.1732 76.7408 46.7297 79.588 45.854 81.8526L47.7194 82.5739C48.7129 80.0047 49.1745 76.8896 49.1444 73.2616L47.1444 73.2782ZM45.8533 81.8546C44.9732 84.1452 43.7454 85.8064 42.2043 86.9112L43.3695 88.5367C45.2927 87.1581 46.7314 85.1455 47.7202 82.5719L45.8533 81.8546ZM42.1996 86.9145C40.6535 88.0364 38.8134 88.6205 36.6352 88.6386L36.6517 90.6385C39.2006 90.6174 41.4561 89.9251 43.3742 88.5333L42.1996 86.9145ZM36.6352 88.6386C35.0764 88.6515 33.6775 88.3199 32.4186 87.6564L31.4862 89.4258C33.0579 90.2541 34.7864 90.654 36.6517 90.6385L36.6352 88.6386ZM32.4111 87.6526C31.1411 86.9968 30.0697 86.0675 29.1924 84.8497L27.5696 86.0188C28.6238 87.482 29.9333 88.624 31.4936 89.4296L32.4111 87.6526ZM29.1968 84.8559C28.3344 83.6396 27.7197 82.1995 27.3659 80.5175L25.4087 80.9292C25.8121 82.8472 26.5265 84.5477 27.5653 86.0127L29.1968 84.8559ZM26.379 79.7234L25.9245 79.7272L25.9411 81.7271L26.3956 81.7233L26.379 79.7234ZM24.9332 80.6976C24.8785 82.5464 24.4255 84.209 23.584 85.7035L25.3267 86.6848C26.3368 84.8911 26.8687 82.9089 26.9323 80.7567L24.9332 80.6976ZM23.5806 85.7096C22.7558 87.1986 21.6105 88.3849 20.1301 89.2789L21.1639 90.991C22.94 89.9185 24.3337 88.4776 25.3301 86.6787L23.5806 85.7096ZM20.1266 89.281C18.6915 90.1557 16.9697 90.62 14.9237 90.637L14.9403 92.6369C17.2881 92.6174 19.3763 92.0805 21.1674 90.9889L20.1266 89.281ZM14.9237 90.637C12.5635 90.6566 10.4901 90.0589 8.67091 88.8587L7.56948 90.5281C9.74202 91.9615 12.2098 92.6596 14.9403 92.6369L14.9237 90.637ZM8.66649 88.8558C6.84415 87.6672 5.38267 85.9521 4.29471 83.6663L2.48884 84.5259C3.714 87.0999 5.4048 89.1162 7.57389 90.531L8.66649 88.8558ZM4.29471 83.6663C3.21474 81.3973 2.64197 78.6439 2.61485 75.3749L0.614918 75.3915C0.643859 78.8799 1.25568 81.9351 2.48884 84.5259L4.29471 83.6663ZM2.61485 75.3749L2.43308 53.4666L0.433152 53.4832L0.614918 75.3915L2.61485 75.3749ZM10.6285 66.0354L10.6776 71.9443L12.6775 71.9277L12.6285 66.0188L10.6285 66.0354ZM10.6776 71.9443C10.696 74.1601 11.1176 76.0004 12.1011 77.3017L13.6967 76.0958C13.0869 75.289 12.6943 73.9542 12.6775 71.9277L10.6776 71.9443ZM12.1067 77.309C13.1441 78.6558 14.6533 79.2752 16.4657 79.2602L16.4492 77.2602C15.1405 77.2711 14.2773 76.8495 13.6911 76.0885L12.1067 77.309ZM16.4657 79.2602C17.7124 79.2498 18.8353 78.9531 19.7816 78.3172L18.6661 76.6572C18.1056 77.0339 17.3842 77.2525 16.4492 77.2602L16.4657 79.2602ZM19.7816 78.3172C20.7151 77.69 21.4032 76.8096 21.8565 75.7211L20.0102 74.9522C19.691 75.7186 19.2394 76.272 18.6661 76.6572L19.7816 78.3172ZM21.8542 75.7266C22.3073 74.6566 22.5084 73.4135 22.4969 72.0281L20.4969 72.0447C20.5068 73.2349 20.3321 74.1919 20.0125 74.9466L21.8542 75.7266ZM22.4969 72.0281L22.4463 65.9374L20.4464 65.954L20.4969 72.0447L22.4969 72.0281ZM21.4381 64.9457L11.6202 65.0272L11.6368 67.0271L21.4547 66.9456L21.4381 64.9457ZM28.2643 65.8891L28.3073 71.0707L30.3072 71.0541L30.2642 65.8725L28.2643 65.8891ZM28.3073 71.0707C28.3173 72.2809 28.5172 73.3897 28.9325 74.3774L30.7761 73.6022C30.4804 72.8988 30.3155 72.0561 30.3072 71.0541L28.3073 71.0707ZM28.9325 74.3774C29.3498 75.3701 29.9641 76.1837 30.7926 76.7706L31.9487 75.1386C31.4664 74.7969 31.0698 74.3007 30.7761 73.6022L28.9325 74.3774ZM30.7892 76.7682C31.658 77.389 32.6855 77.671 33.8167 77.6616L33.8001 75.6617C33.0224 75.6681 32.4247 75.4787 31.9521 75.141L30.7892 76.7682ZM33.8167 77.6616C35.5282 77.6474 36.9408 77.0041 37.9015 75.6746L36.2804 74.5032C35.7431 75.2468 34.9673 75.652 33.8001 75.6617L33.8167 77.6616ZM37.8959 75.6823C38.8149 74.4354 39.232 72.9047 39.2175 71.162L37.2176 71.1786C37.2293 72.5874 36.8952 73.669 36.286 74.4956L37.8959 75.6823ZM39.2175 71.162L39.173 65.7986L37.1731 65.8152L37.2176 71.1786L39.2175 71.162ZM38.1648 64.8069L29.256 64.8808L29.2726 66.8808L38.1814 66.8069L38.1648 64.8069ZM12.2955 138.206L11.8086 139.079L11.8102 139.08L12.2955 138.206ZM4.15994 130.114L3.28064 130.59L3.2823 130.593L4.15994 130.114ZM3.99223 107.16L3.10921 106.691L3.10675 106.695L3.99223 107.16ZM12.0154 98.9569L11.5184 98.0891L11.514 98.0916L12.0154 98.9569ZM38.1736 98.7398L38.6589 97.8655L38.6576 97.8648L38.1736 98.7398ZM46.309 106.809L45.4305 107.287L45.4313 107.288L46.309 106.809ZM46.4994 129.763L45.6139 129.298L45.6123 129.301L46.4994 129.763ZM38.4992 137.988L37.9994 137.122L37.9979 137.123L38.4992 137.988ZM32.3619 126.948L32.0006 126.016L31.9918 126.019L32.3619 126.948ZM36.6984 123.662L35.8752 123.094L35.8685 123.104L36.6984 123.662ZM36.6108 113.094L35.793 113.67L35.7943 113.672L36.6108 113.094ZM32.2203 109.881L32.5725 108.945L32.5686 108.943L32.2203 109.881ZM18.1072 109.998L17.7459 109.065L17.737 109.069L18.1072 109.998ZM13.7706 113.284L12.9474 112.716L12.9407 112.726L13.7706 113.284ZM13.8583 123.852L13.0406 124.427L13.0418 124.429L13.8583 123.852ZM18.2488 127.065L18.601 126.129L18.597 126.128L18.2488 127.065ZM25.4255 140.12C20.3713 140.162 16.172 139.214 12.7809 137.332L11.8102 139.08C15.5735 141.169 20.133 142.164 25.4421 142.12L25.4255 140.12ZM12.7824 137.332C9.37659 135.434 6.8042 132.87 5.03759 129.635L3.2823 130.593C5.23905 134.176 8.09039 137.007 11.8086 139.079L12.7824 137.332ZM5.03924 129.638C3.27721 126.385 2.37141 122.737 2.3377 118.674L0.337773 118.691C0.373955 123.052 1.34963 127.025 3.28065 130.59L5.03924 129.638ZM2.3377 118.674C2.30375 114.581 3.15628 110.905 4.87771 107.625L3.10675 106.695C1.21846 110.294 0.301339 114.299 0.337773 118.691L2.3377 118.674ZM4.87525 107.629C6.60303 104.379 9.14106 101.778 12.5167 99.8221L11.514 98.0916C7.83243 100.225 5.02171 103.093 3.10922 106.691L4.87525 107.629ZM12.5123 99.8246C15.8733 97.8999 20.0426 96.8902 25.0665 96.8485L25.0499 94.8486C19.7711 94.8924 15.2452 95.9549 11.5184 98.0891L12.5123 99.8246ZM25.0665 96.8485C30.1221 96.8066 34.3139 97.7474 37.6895 99.6149L38.6576 97.8648C34.9093 95.7912 30.3576 94.8045 25.0499 94.8486L25.0665 96.8485ZM37.6882 99.6142C41.1097 101.513 43.6803 104.07 45.4305 107.287L47.1874 106.331C45.2448 102.76 42.3918 99.9375 38.6589 97.8655L37.6882 99.6142ZM45.4313 107.288C47.2069 110.54 48.1203 114.201 48.1543 118.294L50.1542 118.277C50.1178 113.886 49.1343 109.896 47.1866 106.33L45.4313 107.288ZM48.1543 118.294C48.188 122.356 47.3359 126.017 45.6139 129.298L47.3849 130.227C49.2726 126.63 50.1904 122.64 50.1542 118.277L48.1543 118.294ZM45.6123 129.301C43.9155 132.562 41.3878 135.167 37.9994 137.122L38.9989 138.855C42.6981 136.72 45.5039 133.842 47.3865 130.224L45.6123 129.301ZM37.9979 137.123C34.6545 139.06 30.4799 140.078 25.4255 140.12L25.4421 142.12C30.751 142.076 35.2867 141.006 39.0005 138.854L37.9979 137.123ZM25.3342 129.12C28.2041 129.096 30.6807 128.695 32.7321 127.877L31.9918 126.019C30.2374 126.718 28.0233 127.098 25.3177 127.12L25.3342 129.12ZM32.7232 127.881C34.7971 127.077 36.422 125.866 37.5284 124.22L35.8685 123.104C35.0292 124.353 33.763 125.333 32.0006 126.016L32.7232 127.881ZM37.5216 124.23C38.6484 122.596 39.1733 120.623 39.1546 118.369L37.1547 118.385C37.1707 120.313 36.7248 121.863 35.8753 123.094L37.5216 124.23ZM39.1546 118.369C39.1359 116.114 38.5782 114.144 37.4273 112.517L35.7943 113.672C36.6672 114.906 37.1387 116.458 37.1547 118.385L39.1546 118.369ZM37.4285 112.519C36.2958 110.909 34.6541 109.728 32.5725 108.945L31.8681 110.816C33.6472 111.486 34.9325 112.447 35.793 113.67L37.4285 112.519ZM32.5686 108.943C30.5062 108.177 28.0258 107.824 25.1578 107.848L25.1744 109.848C27.8819 109.826 30.1043 110.161 31.8721 110.818L32.5686 108.943ZM25.1578 107.848C22.2893 107.872 19.8088 108.266 17.7459 109.065L18.4685 110.93C20.2418 110.243 22.4672 109.871 25.1744 109.848L25.1578 107.848ZM17.737 109.069C15.684 109.887 14.0664 111.094 12.9475 112.716L14.5938 113.852C15.4512 112.609 16.7247 111.625 18.4773 110.927L17.737 109.069ZM12.9407 112.726C11.8346 114.372 11.3187 116.348 11.3374 118.6L13.3373 118.583C13.3213 116.653 13.7609 115.091 14.6006 113.842L12.9407 112.726ZM11.3374 118.6C11.3561 120.851 11.9045 122.813 13.0406 124.427L14.6761 123.276C13.8189 122.058 13.3533 120.513 13.3373 118.583L11.3374 118.6ZM13.0418 124.429C14.1883 126.05 15.8288 127.233 17.9005 128.003L18.597 126.128C16.8386 125.475 15.5521 124.515 14.6748 123.274L13.0418 124.429ZM17.8966 128.001C19.9748 128.783 22.464 129.144 25.3342 129.12L25.3177 127.12C22.6124 127.143 20.3834 126.8 18.601 126.129L17.8966 128.001ZM48.9828 174.318L49.9827 174.309L49.9744 173.309L48.9745 173.318L48.9828 174.318ZM49.0876 186.953L49.0959 187.953L50.0959 187.945L50.0876 186.945L49.0876 186.953ZM10.0451 184.732L10.586 183.891L10.5848 183.89L10.0451 184.732ZM4.00958 177.736L3.10539 178.163L3.10717 178.167L4.00958 177.736ZM3.83498 156.691L2.92554 156.276L2.92383 156.279L3.83498 156.691ZM9.75359 149.597L9.20561 148.76L9.19995 148.764L9.75359 149.597ZM48.7542 146.773L49.7542 146.765L49.7459 145.765L48.7459 145.773L48.7542 146.773ZM48.8591 159.409L48.8674 160.409L49.8673 160.401L49.859 159.401L48.8591 159.409ZM16.2772 160.634L15.7814 159.765L15.7764 159.768L16.2772 160.634ZM13.6628 163.292L12.789 162.806L12.7863 162.811L13.6628 163.292ZM13.7269 171.019L12.8614 171.52L13.7269 171.019ZM16.3851 173.633L15.8987 174.507L15.9037 174.51L16.3851 173.633ZM47.9828 174.326L48.0876 186.962L50.0876 186.945L49.9827 174.309L47.9828 174.326ZM49.0793 185.954L19.2621 186.201L19.2787 188.201L49.0959 187.953L49.0793 185.954ZM19.2621 186.201C15.8825 186.229 13.0045 185.446 10.586 183.891L9.50415 185.573C12.2955 187.368 15.5677 188.232 19.2787 188.201L19.2621 186.201ZM10.5848 183.89C8.16484 182.338 6.27261 180.155 4.91198 177.305L3.10717 178.167C4.61465 181.324 6.7461 183.805 9.50534 185.574L10.5848 183.89ZM4.91376 177.309C3.56786 174.46 2.86368 171.114 2.83159 167.246L0.83166 167.262C0.865686 171.363 1.61348 175.005 3.1054 178.163L4.91376 177.309ZM2.83159 167.246C2.79924 163.346 3.4481 159.974 4.74612 157.104L2.92383 156.279C1.4841 159.463 0.797393 163.132 0.83166 167.262L2.83159 167.246ZM4.74441 157.107C6.05757 154.236 7.91332 152.021 10.3072 150.429L9.19995 148.764C6.47043 150.579 4.38044 153.094 2.92554 156.276L4.74441 157.107ZM10.3016 150.433C12.6949 148.865 15.5622 148.048 18.9454 148.02L18.9288 146.02C15.2212 146.051 11.9662 146.952 9.20563 148.76L10.3016 150.433ZM18.9454 148.02L48.7625 147.773L48.7459 145.773L18.9288 146.02L18.9454 148.02ZM47.7543 146.781L47.8591 159.417L49.859 159.401L49.7542 146.765L47.7543 146.781ZM48.8508 158.409L20.1245 158.647L20.1411 160.647L48.8674 160.409L48.8508 158.409ZM20.1245 158.647C18.5325 158.661 17.0762 159.026 15.7814 159.765L16.773 161.502C17.7403 160.95 18.8544 160.658 20.1411 160.647L20.1245 158.647ZM15.7764 159.768C14.5042 160.504 13.5039 161.521 12.7891 162.806L14.5366 163.778C15.0758 162.81 15.8184 162.055 16.778 161.499L15.7764 159.768ZM12.7863 162.811C12.0686 164.118 11.7272 165.58 11.7404 167.172L13.7403 167.155C13.7296 165.868 14.0032 164.75 14.5393 163.773L12.7863 162.811ZM11.7404 167.172C11.7537 168.777 12.1184 170.236 12.8614 171.52L14.5925 170.518C14.0441 169.57 13.7511 168.459 13.7403 167.155L11.7404 167.172ZM12.8614 171.52C13.5974 172.792 14.6145 173.792 15.8987 174.507L16.8714 172.76C15.9027 172.22 15.1477 171.478 14.5925 170.518L12.8614 171.52ZM15.9037 174.51C17.2106 175.228 18.6728 175.569 20.2648 175.556L20.2482 173.556C18.9615 173.567 17.8427 173.293 16.8664 172.757L15.9037 174.51ZM20.2648 175.556L48.9911 175.318L48.9745 173.318L20.2482 173.556L20.2648 175.556ZM38.9454 191.771L38.9371 190.771L37.9371 190.779L37.9454 191.779L38.9454 191.771ZM49.1269 191.686L50.1268 191.678L50.1185 190.678L49.1186 190.686L49.1269 191.686ZM49.4625 232.139L49.4708 233.139L50.4708 233.131L50.4625 232.131L49.4625 232.139ZM39.281 232.224L38.2811 232.232L38.2894 233.232L39.2893 233.224L39.281 232.224ZM39.1649 218.224L40.1648 218.216L40.1565 217.216L39.1566 217.224L39.1649 218.224ZM2.80249 218.526L1.80252 218.534L1.81082 219.534L2.81078 219.526L2.80249 218.526ZM2.69916 206.072L2.69086 205.072L1.6909 205.08L1.69919 206.08L2.69916 206.072ZM39.0615 205.77L39.0698 206.77L40.0698 206.762L40.0615 205.762L39.0615 205.77ZM38.9537 192.771L49.1352 192.686L49.1186 190.686L38.9371 190.771L38.9537 192.771ZM48.1269 191.695L48.4625 232.148L50.4625 232.131L50.1268 191.678L48.1269 191.695ZM49.4542 231.139L39.2727 231.224L39.2893 233.224L49.4708 233.139L49.4542 231.139ZM40.281 232.216L40.1648 218.216L38.1649 218.233L38.2811 232.232L40.281 232.216ZM39.1566 217.224L2.79419 217.526L2.81078 219.526L39.1732 219.224L39.1566 217.224ZM3.80245 218.518L3.69912 206.064L1.69919 206.08L1.80252 218.534L3.80245 218.518ZM2.70746 207.072L39.0698 206.77L39.0532 204.77L2.69086 205.072L2.70746 207.072ZM40.0615 205.762L39.9454 191.762L37.9454 191.779L38.0616 205.779L40.0615 205.762ZM49.8363 277.189L50.8362 277.181L50.8279 276.181L49.828 276.189L49.8363 277.189ZM49.9411 289.825L49.9494 290.825L50.9493 290.817L50.9411 289.817L49.9411 289.825ZM10.8986 287.603L11.4395 286.762L11.4383 286.761L10.8986 287.603ZM4.86306 280.608L3.95888 281.035L3.96065 281.039L4.86306 280.608ZM4.68846 259.563L3.77902 259.147L3.77732 259.151L4.68846 259.563ZM10.6071 252.468L10.0591 251.632L10.0534 251.635L10.6071 252.468ZM49.6077 249.644L50.6077 249.636L50.5994 248.636L49.5994 248.645L49.6077 249.644ZM49.7126 262.28L49.7209 263.28L50.7208 263.272L50.7125 262.272L49.7126 262.28ZM17.1307 263.505L16.6349 262.637L16.6299 262.64L17.1307 263.505ZM14.5163 266.163L13.6425 265.677L13.6398 265.682L14.5163 266.163ZM14.5804 273.89L13.7148 274.391L14.5804 273.89ZM17.2385 276.505L16.7522 277.379L16.7572 277.381L17.2385 276.505ZM48.8363 277.197L48.9411 289.833L50.9411 289.817L50.8362 277.181L48.8363 277.197ZM49.9328 288.825L20.1156 289.072L20.1322 291.072L49.9494 290.825L49.9328 288.825ZM20.1156 289.072C16.736 289.1 13.858 288.318 11.4395 286.762L10.3576 288.444C13.149 290.24 16.4212 291.103 20.1322 291.072L20.1156 289.072ZM11.4383 286.761C9.01833 285.21 7.1261 283.026 5.76547 280.177L3.96065 281.039C5.46814 284.196 7.59958 286.676 10.3588 288.445L11.4383 286.761ZM5.76724 280.181C4.42135 277.332 3.71717 273.985 3.68508 270.117L1.68515 270.134C1.71917 274.235 2.46697 277.877 3.95888 281.035L5.76724 280.181ZM3.68508 270.117C3.65272 266.217 4.30159 262.845 5.59961 259.975L3.77732 259.151C2.33759 262.334 1.65088 266.003 1.68515 270.134L3.68508 270.117ZM5.59789 259.979C6.91105 257.107 8.7668 254.892 11.1607 253.301L10.0534 251.635C7.32392 253.45 5.23392 255.965 3.77903 259.147L5.59789 259.979ZM11.155 253.305C13.5484 251.737 16.4157 250.92 19.7989 250.892L19.7823 248.892C16.0747 248.923 12.8197 249.823 10.0591 251.632L11.155 253.305ZM19.7989 250.892L49.616 250.644L49.5994 248.645L19.7823 248.892L19.7989 250.892ZM48.6078 249.653L48.7126 262.289L50.7125 262.272L50.6077 249.636L48.6078 249.653ZM49.7043 261.28L20.978 261.519L20.9946 263.519L49.7209 263.28L49.7043 261.28ZM20.978 261.519C19.386 261.532 17.9297 261.898 16.6349 262.637L17.6265 264.374C18.5938 263.822 19.7079 263.529 20.9946 263.519L20.978 261.519ZM16.6299 262.64C15.3577 263.376 14.3574 264.393 13.6425 265.677L15.39 266.65C15.9293 265.681 16.6719 264.926 17.6315 264.371L16.6299 262.64ZM13.6398 265.682C12.9221 266.989 12.5807 268.451 12.5939 270.043L14.5938 270.027C14.5831 268.74 14.8567 267.621 15.3928 266.645L13.6398 265.682ZM12.5939 270.043C12.6072 271.648 12.9719 273.107 13.7148 274.391L15.446 273.39C14.8976 272.442 14.6046 271.331 14.5938 270.027L12.5939 270.043ZM13.7148 274.391C14.4509 275.663 15.468 276.664 16.7522 277.379L17.7249 275.631C16.7562 275.092 16.0012 274.349 15.446 273.39L13.7148 274.391ZM16.7572 277.381C18.0641 278.099 19.5262 278.441 21.1183 278.427L21.1017 276.427C19.815 276.438 18.6962 276.164 17.7199 275.628L16.7572 277.381ZM21.1183 278.427L49.8445 278.189L49.828 276.189L21.1017 276.427L21.1183 278.427ZM35.6541 321.041L35.5661 320.045L34.6465 320.126L34.6542 321.049L35.6541 321.041ZM39.1853 319.307L38.4174 318.667L38.4127 318.672L39.1853 319.307ZM39.9163 311.528L38.9814 311.883L38.985 311.893L39.9163 311.528ZM38.6512 309.72L39.2409 308.913L39.2409 308.913L38.6512 309.72ZM36.828 309.122L36.7823 310.121L36.7982 310.122L36.8141 310.122L36.828 309.122ZM35.3078 309.43L34.8532 308.539L34.8351 308.548L34.8175 308.558L35.3078 309.43ZM34.1127 310.576L33.291 310.006L33.2853 310.015L33.2798 310.023L34.1127 310.576ZM32.4257 315.431L33.4052 315.633L33.4068 315.624L32.4257 315.431ZM31.6392 319.256L30.6597 319.055L30.6592 319.057L31.6392 319.256ZM29.535 325.887L28.6326 325.457L29.535 325.887ZM26.4134 330.414L25.7139 329.699L25.7095 329.703L26.4134 330.414ZM22.3894 333.015L22.0398 332.078L22.0315 332.081L22.3894 333.015ZM17.4876 333.92L17.491 334.92L17.5045 334.919L17.4876 333.92ZM9.6961 331.689L9.12164 332.507L9.6961 331.689ZM4.80144 325.229L5.72925 324.856L5.72856 324.854L4.80144 325.229ZM4.76602 304.524L3.83418 304.161L3.83355 304.163L4.76602 304.524ZM10.2305 297.479L9.67237 296.649L9.66658 296.653L10.2305 297.479ZM19.8003 294.899L20.8003 294.891L20.792 293.887L19.7881 293.899L19.8003 294.899ZM19.8999 306.899L19.9613 307.897L20.9077 307.839L20.8998 306.89L19.8999 306.899ZM16.318 307.997L15.7624 307.165L16.318 307.997ZM14.1357 310.697L13.2152 310.306L13.2134 310.31L14.1357 310.697ZM13.9483 318.244L13.0124 318.596L13.9483 318.244ZM15.3518 320.3L14.7361 321.088L15.3518 320.3ZM17.3805 321.011L17.3688 322.011L17.3894 322.011L17.4101 322.01L17.3805 321.011ZM19.2382 320.291L18.6045 319.517L18.5927 319.527L18.5812 319.537L19.2382 320.291ZM20.6746 318.097L19.7536 317.708L19.7488 317.719L20.6746 318.097ZM21.8677 313.973L22.8463 314.18L22.847 314.176L21.8677 313.973ZM22.8292 309.329L21.8502 309.125L21.85 309.126L22.8292 309.329ZM27.2255 299.542L26.4733 298.883L26.4689 298.888L27.2255 299.542ZM35.8096 295.948L35.8137 296.948L35.823 296.948L35.8096 295.948ZM43.5789 298.247L44.1571 297.431L44.156 297.431L43.5789 298.247ZM48.8385 304.863L49.7518 304.456L49.751 304.454L48.8385 304.863ZM48.978 324.408L48.0656 323.999L48.978 324.408ZM43.7126 330.793L43.1612 329.958L43.1548 329.963L43.7126 330.793ZM35.7544 333.132L34.7545 333.14L34.7628 334.145L35.7677 334.132L35.7544 333.132ZM35.7421 322.037C37.4803 321.884 38.9216 321.203 39.9579 319.942L38.4127 318.672C37.7689 319.456 36.8561 319.931 35.5661 320.045L35.7421 322.037ZM39.9532 319.948C41.01 318.681 41.438 316.877 41.4201 314.72L39.4201 314.737C39.4362 316.671 39.0409 317.919 38.4175 318.667L39.9532 319.948ZM41.4201 314.72C41.4087 313.347 41.2325 312.147 40.8475 311.164L38.985 311.893C39.2502 312.57 39.4099 313.505 39.4201 314.737L41.4201 314.72ZM40.8511 311.173C40.4941 310.233 39.9738 309.448 39.2409 308.913L38.0616 310.528C38.3958 310.772 38.7188 311.192 38.9814 311.883L40.8511 311.173ZM39.2409 308.913C38.5343 308.397 37.7239 308.134 36.8419 308.122L36.8141 310.122C37.296 310.129 37.7011 310.265 38.0616 310.528L39.2409 308.913ZM36.8737 308.123C36.1581 308.09 35.4761 308.221 34.8532 308.539L35.7624 310.321C36.0447 310.177 36.3762 310.102 36.7823 310.121L36.8737 308.123ZM34.8175 308.558C34.2188 308.895 33.715 309.395 33.291 310.006L34.9344 311.146C35.2291 310.721 35.522 310.457 35.7981 310.301L34.8175 308.558ZM33.2798 310.023C32.8758 310.631 32.5298 311.374 32.2305 312.232L34.1187 312.891C34.3818 312.138 34.6612 311.558 34.9456 311.13L33.2798 310.023ZM32.2305 312.232C31.9297 313.093 31.669 314.098 31.4445 315.238L33.4068 315.624C33.6185 314.549 33.8571 313.64 34.1187 312.891L32.2305 312.232ZM31.4461 315.23L30.6597 319.055L32.6187 319.458L33.4052 315.633L31.4461 315.23ZM30.6592 319.057C30.1469 321.579 29.4676 323.708 28.6326 325.457L30.4375 326.318C31.3599 324.386 32.0833 322.094 32.6192 319.455L30.6592 319.057ZM28.6326 325.457C27.794 327.213 26.8169 328.62 25.714 329.699L27.1128 331.128C28.4147 329.854 29.5187 328.243 30.4375 326.318L28.6326 325.457ZM25.7095 329.703C24.6181 330.785 23.3961 331.572 22.0398 332.078L22.7389 333.952C24.3734 333.342 25.8342 332.395 27.1173 331.124L25.7095 329.703ZM22.0315 332.081C20.6562 332.608 19.1391 332.892 17.4708 332.92L17.5045 334.919C19.3812 334.888 21.1319 334.568 22.7472 333.949L22.0315 332.081ZM17.4843 332.92C14.5934 332.929 12.2071 332.229 10.2706 330.87L9.12164 332.507C11.4525 334.143 14.2606 334.93 17.491 334.92L17.4843 332.92ZM10.2706 330.87C8.31953 329.501 6.79837 327.515 5.72925 324.856L3.87362 325.602C5.06331 328.561 6.80527 330.881 9.12164 332.507L10.2706 330.87ZM5.72856 324.854C4.65839 322.207 4.0904 318.971 4.05846 315.121L2.05853 315.138C2.09195 319.166 2.68593 322.664 3.87431 325.604L5.72856 324.854ZM4.05846 315.121C4.0257 311.172 4.58196 307.767 5.69849 304.885L3.83355 304.163C2.60626 307.331 2.02417 310.996 2.05853 315.138L4.05846 315.121ZM5.69786 304.887C6.80285 302.049 8.50335 299.869 10.7944 298.304L9.66658 296.653C7.01574 298.463 5.07327 300.979 3.83418 304.161L5.69786 304.887ZM10.7886 298.308C13.0713 296.773 16.0559 295.945 19.8125 295.899L19.7881 293.899C15.7574 293.948 12.3621 294.84 9.67239 296.649L10.7886 298.308ZM18.8004 294.907L18.8999 306.907L20.8998 306.89L20.8003 294.891L18.8004 294.907ZM19.8385 305.9C18.2787 305.996 16.9041 306.402 15.7624 307.165L16.8735 308.828C17.6605 308.302 18.674 307.976 19.9613 307.897L19.8385 305.9ZM15.7624 307.165C14.6226 307.927 13.7752 308.986 13.2152 310.306L15.0563 311.087C15.4771 310.096 16.0845 309.355 16.8735 308.828L15.7624 307.165ZM13.2134 310.31C12.6588 311.634 12.4061 313.163 12.4203 314.87L14.4202 314.853C14.4077 313.348 14.632 312.1 15.0581 311.083L13.2134 310.31ZM12.4203 314.87C12.4321 316.293 12.6174 317.546 13.0124 318.596L14.8843 317.892C14.5976 317.129 14.4308 316.127 14.4202 314.853L12.4203 314.87ZM13.0124 318.596C13.3999 319.626 13.9609 320.483 14.7361 321.088L15.9675 319.512C15.5531 319.189 15.1785 318.674 14.8843 317.892L13.0124 318.596ZM14.7361 321.088C15.5043 321.689 16.3929 321.999 17.3688 322.011L17.3922 320.011C16.8528 320.005 16.3889 319.842 15.9675 319.512L14.7361 321.088ZM17.4101 322.01C18.3484 321.983 19.1906 321.659 19.8953 321.045L18.5812 319.537C18.2328 319.841 17.8366 319.997 17.3509 320.011L17.4101 322.01ZM19.872 321.064C20.5958 320.471 21.1542 319.568 21.6005 318.475L19.7488 317.719C19.3634 318.663 18.9643 319.223 18.6045 319.517L19.872 321.064ZM21.5956 318.487C22.0619 317.384 22.4754 315.94 22.8463 314.18L20.8892 313.767C20.5312 315.467 20.1493 316.772 19.7536 317.708L21.5956 318.487ZM22.847 314.176L23.8085 309.532L21.85 309.126L20.8885 313.771L22.847 314.176ZM23.8082 309.533C24.6444 305.518 26.053 302.428 27.982 300.196L26.4689 298.888C24.2558 301.449 22.7335 304.883 21.8502 309.125L23.8082 309.533ZM27.9776 300.201C29.846 298.069 32.4168 296.962 35.8137 296.948L35.8054 294.948C31.9296 294.964 28.7777 296.253 26.4734 298.883L27.9776 300.201ZM35.823 296.948C38.5849 296.911 40.9639 297.624 43.0018 299.064L44.156 297.431C41.7435 295.726 38.9429 294.906 35.7962 294.948L35.823 296.948ZM43.0008 299.063C45.0778 300.535 46.7238 302.591 47.9261 305.272L49.751 304.454C48.4215 301.489 46.5611 299.135 44.1571 297.431L43.0008 299.063ZM47.9253 305.27C49.1259 307.962 49.7538 311.082 49.7834 314.651L51.7833 314.634C51.7519 310.84 51.0832 307.44 49.7518 304.456L47.9253 305.27ZM49.7834 314.651C49.8137 318.299 49.2288 321.405 48.0656 323.999L49.8904 324.817C51.1966 321.905 51.8154 318.501 51.7833 314.634L49.7834 314.651ZM48.0656 323.999C46.8999 326.597 45.262 328.57 43.1612 329.959L44.2639 331.627C46.7141 330.008 48.5865 327.724 49.8904 324.817L48.0656 323.999ZM43.1548 329.963C41.0744 331.361 38.616 332.094 35.7412 332.132L35.7677 334.132C38.9833 334.089 41.8303 333.262 44.2703 331.623L43.1548 329.963ZM36.7544 333.123L36.6541 321.033L34.6542 321.049L34.7545 333.14L36.7544 333.123Z" fill="#05C2DF" fill-opacity="0.05" mask="url(#path-1-outside-1_1_398)"/>
</svg>
