<svg width="51" height="334" viewBox="0 0 51 334" fill="none" xmlns="http://www.w3.org/2000/svg">
<mask id="path-1-outside-1_1_10675" maskUnits="userSpaceOnUse" x="-1.00764" y="-1.15779" width="53.7858" height="336.412" fill="black">
<rect fill="white" x="-1.00764" y="-1.15779" width="53.7858" height="336.412"/>
<path d="M1.11749 14.3391L1.00435 0.703231L47.6757 15.6802L47.819 32.9523L1.40258 48.7016L1.28945 35.0657L34.9311 24.6044L34.9281 24.2408L1.11749 14.3391ZM19.4594 11.6414L19.6721 37.2769L10.2178 37.3553L10.0052 11.7198L19.4594 11.6414ZM1.43977 53.1844L47.9836 52.7982L48.1511 72.9793C48.1805 76.5247 47.7279 79.5058 46.7934 81.9227C45.859 84.3548 44.5257 86.1917 42.7935 87.4334C41.0615 88.6902 39.0137 89.3284 36.6501 89.3481C34.938 89.3623 33.3743 88.9964 31.959 88.2506C30.5438 87.5199 29.3534 86.4843 28.3877 85.1437C27.4371 83.8031 26.7725 82.2328 26.394 80.4328L25.9394 80.4366C25.8803 82.4372 25.3878 84.2595 24.462 85.9036C23.5514 87.5476 22.2819 88.8612 20.6537 89.8444C19.0406 90.8275 17.1356 91.3282 14.9387 91.3464C12.3933 91.3675 10.1227 90.7197 8.12685 89.4029C6.13113 88.1012 4.55499 86.2354 3.39843 83.8055C2.24186 81.3757 1.64957 78.4714 1.62154 75.0927L1.43977 53.1844ZM11.6352 65.7366L11.6842 71.6455C11.7018 73.7666 12.1089 75.3542 12.9056 76.4082C13.7174 77.4621 14.9035 77.9826 16.4641 77.9697C17.555 77.9606 18.4771 77.703 19.2305 77.1967C19.9839 76.6904 20.5537 75.9736 20.94 75.0461C21.3264 74.1338 21.5142 73.0337 21.5035 71.7458L21.453 65.6551L11.6352 65.7366ZM29.2709 65.5903L29.3139 70.7719C29.3231 71.8779 29.5054 72.8537 29.8609 73.6993C30.2165 74.5449 30.7219 75.1998 31.3773 75.6641C32.048 76.1434 32.8606 76.379 33.8151 76.3711C35.2544 76.3592 36.3486 75.8349 37.0976 74.7984C37.8617 73.7617 38.2373 72.4555 38.2242 70.8798L38.1797 65.5164L29.2709 65.5903ZM25.4405 140.829C20.2588 140.872 15.8794 139.901 12.3022 137.915C8.74014 135.93 6.02828 133.232 4.1666 129.823C2.32007 126.414 1.37933 122.604 1.34439 118.392C1.30919 114.15 2.19402 110.309 3.99889 106.87C5.81902 103.445 8.4934 100.711 12.022 98.6663C15.5659 96.6369 19.9135 95.6008 25.0649 95.558C30.2465 95.515 34.6183 96.4788 38.1802 98.4493C41.7574 100.435 44.4692 103.125 46.3156 106.518C48.1773 109.927 49.1257 113.753 49.1609 117.995C49.1959 122.207 48.3109 126.033 46.5061 129.472C44.7163 132.911 42.0496 135.653 38.5058 137.698C34.9772 139.742 30.6221 140.786 25.4405 140.829ZM25.3326 127.83C28.1204 127.807 30.4657 127.416 32.3686 126.658C34.2867 125.914 35.7322 124.819 36.7051 123.371C37.6933 121.939 38.1787 120.177 38.1613 118.087C38.144 115.996 37.6293 114.235 36.6174 112.804C35.6208 111.388 34.1573 110.316 32.227 109.59C30.3119 108.879 27.9605 108.534 25.1727 108.558C22.3849 108.581 20.032 108.964 18.1138 109.707C16.211 110.465 14.7654 111.561 13.7773 112.993C12.8044 114.441 12.3267 116.21 12.344 118.301C12.3614 120.392 12.8683 122.145 13.865 123.561C14.8769 124.992 16.3404 126.063 18.2554 126.775C20.1858 127.501 22.5448 127.853 25.3326 127.83ZM48.9894 174.027L49.0943 186.663L19.2771 186.91C15.7318 186.94 12.6566 186.117 10.0517 184.441C7.46213 182.781 5.45029 180.449 4.01623 177.446C2.59732 174.442 1.87134 170.948 1.83828 166.963C1.80497 162.948 2.47275 159.428 3.84163 156.401C5.22566 153.374 7.19853 151.009 9.76024 149.306C12.3372 147.618 15.3984 146.759 18.9437 146.73L48.7609 146.483L48.8657 159.118L20.1394 159.357C18.7001 159.369 17.4149 159.698 16.2839 160.343C15.168 160.989 14.2965 161.875 13.6695 163.001C13.0425 164.143 12.7351 165.434 12.747 166.873C12.7591 168.327 13.0879 169.613 13.7336 170.728C14.3792 171.844 15.2653 172.716 16.3917 173.343C17.5333 173.97 18.8238 174.277 20.2631 174.265L48.9894 174.027ZM38.952 191.48L49.1335 191.396L49.4691 231.849L39.2877 231.933L39.1715 217.934L2.80914 218.236L2.70581 205.781L39.0682 205.48L38.952 191.48ZM49.8429 276.898L49.9477 289.534L20.1306 289.782C16.5852 289.811 13.5101 288.988 10.9052 287.313C8.31561 285.652 6.30377 283.321 4.86972 280.317C3.45081 277.314 2.72483 273.82 2.69177 269.835C2.65846 265.82 3.32624 262.299 4.69511 259.272C6.07914 256.246 8.05201 253.881 10.6137 252.178C13.1907 250.49 16.2519 249.631 19.7972 249.601L49.6144 249.354L49.7192 261.99L20.9929 262.228C19.5536 262.24 18.2684 262.569 17.1373 263.215C16.0214 263.86 15.15 264.746 14.5229 265.873C13.896 267.015 13.5885 268.305 13.6005 269.744C13.6126 271.199 13.9414 272.484 14.587 273.6C15.2327 274.716 16.1187 275.587 17.2452 276.214C18.3868 276.841 19.6773 277.149 21.1166 277.137L49.8429 276.898ZM35.6608 320.751C37.1749 320.617 38.3519 320.039 39.192 319.017C40.0321 318.01 40.4437 316.483 40.4267 314.438C40.4159 313.135 40.248 312.068 39.9229 311.238C39.6131 310.422 39.1914 309.819 38.6579 309.43C38.1243 309.04 37.5166 308.841 36.8347 308.831C36.2738 308.806 35.7671 308.908 35.3144 309.139C34.8771 309.385 34.4787 309.768 34.1194 310.286C33.7752 310.804 33.4625 311.465 33.1812 312.271C32.9 313.076 32.6504 314.033 32.4323 315.141L31.6458 318.966C31.1218 321.546 30.4204 323.756 29.5417 325.597C28.663 327.438 27.6224 328.946 26.42 330.123C25.2328 331.3 23.8914 332.167 22.396 332.725C20.9007 333.298 19.2668 333.599 17.4943 333.629C14.4336 333.639 11.8365 332.896 9.70276 331.398C7.56905 329.901 5.93749 327.747 4.80809 324.939C3.67881 322.145 3.09783 318.778 3.06515 314.839C3.03159 310.794 3.60076 307.259 4.77268 304.234C5.94472 301.224 7.7662 298.875 10.2371 297.188C12.7234 295.516 15.9133 294.656 19.807 294.608L19.9065 306.608C18.483 306.696 17.289 307.062 16.3246 307.706C15.3602 308.35 14.6328 309.25 14.1424 310.406C13.6521 311.577 13.4136 312.965 13.4269 314.571C13.4381 315.92 13.6141 317.047 13.955 317.953C14.2959 318.86 14.7637 319.545 15.3585 320.01C15.9533 320.475 16.6295 320.712 17.3872 320.72C18.0991 320.699 18.7184 320.459 19.2449 320C19.7867 319.556 20.2655 318.825 20.6813 317.807C21.1122 316.788 21.5099 315.413 21.8744 313.683L22.8359 309.038C23.6956 304.91 25.161 301.648 27.2321 299.252C29.3185 296.871 32.1799 295.673 35.8162 295.658C38.7706 295.618 41.3603 296.384 43.5856 297.957C45.8261 299.544 47.5793 301.75 48.8452 304.572C50.1112 307.411 50.7595 310.67 50.79 314.352C50.8212 318.11 50.2194 321.365 48.9846 324.117C47.7498 326.87 45.9947 328.998 43.7192 330.502C41.459 332.021 38.8063 332.801 35.7611 332.841L35.6608 320.751Z"/>
</mask>
<path d="M1.11749 14.3391L0.117521 14.3474L0.123682 15.0901L0.836437 15.2988L1.11749 14.3391ZM1.00435 0.703231L1.30991 -0.248944L-0.00708651 -0.671571L0.00438854 0.711527L1.00435 0.703231ZM47.6757 15.6802L48.6756 15.6719L48.6696 14.9489L47.9812 14.728L47.6757 15.6802ZM47.819 32.9523L48.1403 33.8993L48.8249 33.667L48.8189 32.944L47.819 32.9523ZM1.40258 48.7016L0.402613 48.7099L0.414088 50.093L1.72389 49.6486L1.40258 48.7016ZM1.28945 35.0657L0.992513 34.1108L0.28332 34.3313L0.289481 35.074L1.28945 35.0657ZM34.9311 24.6044L35.228 25.5593L35.9372 25.3388L35.9311 24.5961L34.9311 24.6044ZM34.9281 24.2408L35.928 24.2325L35.9219 23.4898L35.2091 23.2811L34.9281 24.2408ZM19.4594 11.6414L20.4593 11.6331L20.451 10.6331L19.4511 10.6414L19.4594 11.6414ZM19.6721 37.2769L19.6804 38.2769L20.6803 38.2686L20.672 37.2686L19.6721 37.2769ZM10.2178 37.3553L9.21788 37.3636L9.22617 38.3636L10.2261 38.3553L10.2178 37.3553ZM10.0052 11.7198L9.99686 10.7199L8.99689 10.7282L9.00519 11.7281L10.0052 11.7198ZM2.11745 14.3308L2.00432 0.694934L0.00438854 0.711527L0.117521 14.3474L2.11745 14.3308ZM0.698797 1.6554L47.3701 16.6324L47.9812 14.728L1.30991 -0.248944L0.698797 1.6554ZM46.6757 15.6885L46.819 32.9606L48.8189 32.944L48.6756 15.6719L46.6757 15.6885ZM47.4977 32.0053L1.08127 47.7546L1.72389 49.6486L48.1403 33.8993L47.4977 32.0053ZM2.40254 48.6933L2.28941 35.0574L0.289481 35.074L0.402613 48.7099L2.40254 48.6933ZM1.58638 36.0206L35.228 25.5593L34.6341 23.6495L0.992513 34.1108L1.58638 36.0206ZM35.9311 24.5961L35.928 24.2325L33.9281 24.2491L33.9311 24.6127L35.9311 24.5961ZM35.2091 23.2811L1.39854 13.3794L0.836437 15.2988L34.647 25.2005L35.2091 23.2811ZM18.4594 11.6497L18.6721 37.2852L20.672 37.2686L20.4593 11.6331L18.4594 11.6497ZM19.6638 36.2769L10.2095 36.3554L10.2261 38.3553L19.6804 38.2769L19.6638 36.2769ZM11.2178 37.347L11.0051 11.7115L9.00519 11.7281L9.21788 37.3636L11.2178 37.347ZM10.0135 12.7198L19.4677 12.6414L19.4511 10.6414L9.99686 10.7199L10.0135 12.7198ZM1.43977 53.1844L1.43147 52.1844L0.431509 52.1927L0.439805 53.1927L1.43977 53.1844ZM47.9836 52.7982L48.9836 52.7899L48.9753 51.79L47.9753 51.7983L47.9836 52.7982ZM46.7934 81.9227L45.8607 81.5621L45.8599 81.5641L46.7934 81.9227ZM42.7935 87.4334L42.2109 86.6206L42.2062 86.624L42.7935 87.4334ZM31.959 88.2506L32.4252 87.3659L32.4178 87.362L31.959 88.2506ZM28.3877 85.1437L27.5719 85.7221L27.5763 85.7282L28.3877 85.1437ZM26.394 80.4328L27.3726 80.227L27.2041 79.4261L26.3857 79.4329L26.394 80.4328ZM25.9394 80.4366L25.9311 79.4366L24.9683 79.4446L24.9399 80.407L25.9394 80.4366ZM24.462 85.9036L23.5906 85.4129L23.5873 85.419L24.462 85.9036ZM20.6537 89.8444L20.1367 88.9884L20.1332 88.9905L20.6537 89.8444ZM8.12685 89.4029L8.67757 88.5682L8.67315 88.5653L8.12685 89.4029ZM3.39843 83.8056L4.30136 83.3758L3.39843 83.8056ZM11.6352 65.7366L11.6269 64.7366L10.6269 64.7449L10.6352 65.7449L11.6352 65.7366ZM12.9056 76.4082L12.1078 77.0112L12.1133 77.0185L12.9056 76.4082ZM20.94 75.0461L20.0192 74.6561L20.0169 74.6616L20.94 75.0461ZM21.453 65.6551L22.453 65.6468L22.4447 64.6469L21.4447 64.6552L21.453 65.6551ZM29.2709 65.5903L29.2626 64.5903L28.2627 64.5986L28.271 65.5986L29.2709 65.5903ZM29.8609 73.6993L28.9391 74.0869L29.8609 73.6993ZM31.3773 75.6641L31.9587 74.8505L31.9554 74.8481L31.3773 75.6641ZM37.0976 74.7984L36.2926 74.205L36.287 74.2127L37.0976 74.7984ZM38.1797 65.5164L39.1797 65.5081L39.1714 64.5081L38.1714 64.5164L38.1797 65.5164ZM1.44807 54.1843L47.9919 53.7982L47.9753 51.7983L1.43147 52.1844L1.44807 54.1843ZM46.9837 52.8065L47.1511 72.9876L49.151 72.971L48.9836 52.7899L46.9837 52.8065ZM47.1511 72.9876C47.1798 76.4503 46.7363 79.2975 45.8607 81.5621L47.7261 82.2834C48.7195 79.7142 49.1811 76.5991 49.151 72.971L47.1511 72.9876ZM45.8599 81.5641C44.9799 83.8547 43.7521 85.5159 42.2109 86.6206L43.3761 88.2461C45.2993 86.8675 46.7381 84.855 47.7269 82.2814L45.8599 81.5641ZM42.2062 86.624C40.6602 87.7459 38.82 88.33 36.6418 88.3481L36.6584 90.348C39.2073 90.3269 41.4627 89.6346 43.3808 88.2428L42.2062 86.624ZM36.6418 88.3481C35.0831 88.361 33.6841 88.0293 32.4252 87.3659L31.4928 89.1352C33.0646 89.9635 34.793 90.3635 36.6584 90.348L36.6418 88.3481ZM32.4178 87.362C31.1477 86.7062 30.0763 85.777 29.199 84.5592L27.5763 85.7282C28.6304 87.1915 29.9399 88.3335 31.5002 89.1391L32.4178 87.362ZM29.2034 84.5653C28.341 83.349 27.7263 81.9089 27.3726 80.227L25.4154 80.6387C25.8188 82.5566 26.5332 84.2571 27.5719 85.7221L29.2034 84.5653ZM26.3857 79.4329L25.9311 79.4366L25.9477 81.4366L26.4023 81.4328L26.3857 79.4329ZM24.9399 80.407C24.8852 82.2559 24.4322 83.9185 23.5907 85.4129L25.3334 86.3943C26.3434 84.6005 26.8754 82.6184 26.939 80.4662L24.9399 80.407ZM23.5873 85.419C22.7624 86.9081 21.6172 88.0944 20.1367 88.9884L21.1706 90.7005C22.9467 89.628 24.3403 88.187 25.3368 86.3882L23.5873 85.419ZM20.1332 88.9905C18.6982 89.8651 16.9764 90.3295 14.9304 90.3465L14.947 92.3464C17.2948 92.3269 19.383 91.7899 21.1741 90.6983L20.1332 88.9905ZM14.9304 90.3465C12.5701 90.366 10.4967 89.7684 8.67756 88.5682L7.57613 90.2376C9.74867 91.671 12.2165 92.3691 14.947 92.3464L14.9304 90.3465ZM8.67315 88.5653C6.85081 87.3767 5.38933 85.6615 4.30136 83.3758L2.49549 84.2353C3.72065 86.8093 5.41145 88.8257 7.58055 90.2405L8.67315 88.5653ZM4.30136 83.3758C3.22139 81.1068 2.64862 78.3534 2.6215 75.0844L0.621571 75.101C0.650512 78.5894 1.26234 81.6445 2.49549 84.2353L4.30136 83.3758ZM2.6215 75.0844L2.43974 53.1761L0.439805 53.1927L0.621571 75.101L2.6215 75.0844ZM10.6352 65.7449L10.6842 71.6538L12.6842 71.6372L12.6351 65.7283L10.6352 65.7449ZM10.6842 71.6538C10.7026 73.8696 11.1243 75.7099 12.1078 77.0112L13.7033 75.8053C13.0936 74.9985 12.701 73.6637 12.6842 71.6372L10.6842 71.6538ZM12.1133 77.0185C13.1508 78.3653 14.66 78.9847 16.4724 78.9696L16.4558 76.9697C15.1471 76.9806 14.284 76.559 13.6978 75.798L12.1133 77.0185ZM16.4724 78.9696C17.7191 78.9593 18.842 78.6626 19.7883 78.0267L18.6728 76.3667C18.1123 76.7433 17.3909 76.962 16.4558 76.9697L16.4724 78.9696ZM19.7883 78.0267C20.7217 77.3994 21.4098 76.5191 21.8631 75.4305L20.0169 74.6616C19.6977 75.4281 19.2461 75.9814 18.6728 76.3667L19.7883 78.0267ZM21.8608 75.4361C22.314 74.3661 22.515 73.123 22.5035 71.7375L20.5036 71.7541C20.5135 72.9444 20.3388 73.9014 20.0192 74.6561L21.8608 75.4361ZM22.5035 71.7375L22.453 65.6468L20.453 65.6634L20.5036 71.7541L22.5035 71.7375ZM21.4447 64.6552L11.6269 64.7366L11.6435 66.7366L21.4613 66.6551L21.4447 64.6552ZM28.271 65.5986L28.3139 70.7802L30.3139 70.7636L30.2709 65.582L28.271 65.5986ZM28.3139 70.7802C28.324 71.9904 28.5238 73.0992 28.9391 74.0869L30.7828 73.3117C30.487 72.6083 30.3222 71.7655 30.3139 70.7636L28.3139 70.7802ZM28.9391 74.0869C29.3565 75.0795 29.9708 75.8932 30.7993 76.4801L31.9554 74.8481C31.473 74.5064 31.0765 74.0102 30.7828 73.3117L28.9391 74.0869ZM30.7959 76.4776C31.6646 77.0985 32.6921 77.3805 33.8234 77.3711L33.8068 75.3712C33.029 75.3776 32.4313 75.1882 31.9587 74.8505L30.7959 76.4776ZM33.8234 77.3711C35.5348 77.3569 36.9475 76.7136 37.9081 75.3841L36.287 74.2127C35.7497 74.9563 34.974 75.3615 33.8068 75.3712L33.8234 77.3711ZM37.9025 75.3917C38.8216 74.1449 39.2386 72.6141 39.2242 70.8715L37.2242 70.8881C37.2359 72.2969 36.9019 73.3785 36.2926 74.205L37.9025 75.3917ZM39.2242 70.8715L39.1797 65.5081L37.1797 65.5247L37.2242 70.8881L39.2242 70.8715ZM38.1714 64.5164L29.2626 64.5903L29.2792 66.5902L38.188 66.5163L38.1714 64.5164ZM12.3022 137.915L11.8153 138.789L11.8169 138.79L12.3022 137.915ZM4.1666 129.823L3.2873 130.3L3.28895 130.303L4.1666 129.823ZM3.99889 106.87L3.11586 106.4L3.1134 106.405L3.99889 106.87ZM12.022 98.6663L11.5251 97.7985L11.5207 97.8011L12.022 98.6663ZM38.1802 98.4493L38.6655 97.575L38.6643 97.5743L38.1802 98.4493ZM46.3156 106.518L45.4372 106.996L45.438 106.998L46.3156 106.518ZM46.5061 129.472L45.6206 129.008L45.619 129.011L46.5061 129.472ZM38.5058 137.698L38.0061 136.832L38.0045 136.833L38.5058 137.698ZM32.3686 126.658L32.0073 125.725L31.9984 125.729L32.3686 126.658ZM36.7051 123.371L35.8819 122.804L35.8751 122.814L36.7051 123.371ZM36.6174 112.804L35.7997 113.379L35.8009 113.381L36.6174 112.804ZM32.227 109.59L32.5792 108.654L32.5752 108.653L32.227 109.59ZM18.1138 109.707L17.7525 108.775L17.7437 108.778L18.1138 109.707ZM13.7773 112.993L12.9541 112.425L12.9473 112.435L13.7773 112.993ZM13.865 123.561L13.0472 124.137L13.0485 124.138L13.865 123.561ZM18.2554 126.775L18.6076 125.839L18.6037 125.837L18.2554 126.775ZM25.4322 139.829C20.378 139.871 16.1786 138.923 12.7875 137.041L11.8169 138.79C15.5801 140.879 20.1397 141.873 25.4488 141.829L25.4322 139.829ZM12.7891 137.042C9.38324 135.143 6.81085 132.579 5.04425 129.344L3.28895 130.303C5.2457 133.886 8.09704 136.716 11.8153 138.789L12.7891 137.042ZM5.04589 129.347C3.28386 126.094 2.37807 122.447 2.34436 118.384L0.344426 118.4C0.380608 122.761 1.35629 126.735 3.2873 130.3L5.04589 129.347ZM2.34436 118.384C2.3104 114.291 3.16294 110.615 4.88437 107.334L3.1134 106.405C1.22511 110.003 0.307992 114.009 0.344426 118.4L2.34436 118.384ZM4.8819 107.339C6.60969 104.088 9.14772 101.487 12.5233 99.5316L11.5207 97.8011C7.83908 99.9342 5.02836 102.802 3.11588 106.4L4.8819 107.339ZM12.519 99.5341C15.8799 97.6094 20.0493 96.5997 25.0732 96.558L25.0566 94.5581C19.7778 94.6019 15.2519 95.6643 11.5251 97.7986L12.519 99.5341ZM25.0732 96.558C30.1287 96.516 34.3206 97.4569 37.6961 99.3243L38.6643 97.5743C34.916 95.5007 30.3643 94.514 25.0566 94.5581L25.0732 96.558ZM37.6949 99.3237C41.1163 101.223 43.687 103.779 45.4372 106.996L47.194 106.041C45.2514 102.47 42.3985 99.647 38.6655 97.575L37.6949 99.3237ZM45.438 106.998C47.2136 110.249 48.127 113.91 48.161 118.004L50.1609 117.987C50.1245 113.596 49.141 109.606 47.1933 106.039L45.438 106.998ZM48.161 118.004C48.1947 122.065 47.3425 125.726 45.6206 129.008L47.3915 129.937C49.2793 126.34 50.1971 122.349 50.1609 117.987L48.161 118.004ZM45.619 129.011C43.9222 132.271 41.3944 134.877 38.0061 136.832L39.0056 138.564C42.7048 136.43 45.5105 133.552 47.3931 129.934L45.619 129.011ZM38.0045 136.833C34.6611 138.77 30.4866 139.787 25.4322 139.829L25.4488 141.829C30.7576 141.785 35.2933 140.715 39.0072 138.563L38.0045 136.833ZM25.3409 128.83C28.2108 128.806 30.6873 128.404 32.7387 127.587L31.9984 125.729C30.2441 126.428 28.03 126.807 25.3243 126.83L25.3409 128.83ZM32.7299 127.59C34.8038 126.786 36.4286 125.576 37.5351 123.929L35.8751 122.814C35.0358 124.062 33.7697 125.042 32.0073 125.725L32.7299 127.59ZM37.5283 123.939C38.6551 122.306 39.18 120.332 39.1613 118.078L37.1613 118.095C37.1773 120.022 36.7314 121.572 35.8819 122.804L37.5283 123.939ZM39.1613 118.078C39.1426 115.824 38.5848 113.854 37.4339 112.226L35.8009 113.381C36.6738 114.615 37.1454 116.168 37.1613 118.095L39.1613 118.078ZM37.4352 112.228C36.3024 110.619 34.6608 109.437 32.5792 108.654L31.8748 110.526C33.6539 111.195 34.9392 112.157 35.7997 113.379L37.4352 112.228ZM32.5752 108.653C30.5128 107.886 28.0324 107.534 25.1644 107.558L25.181 109.558C27.8886 109.535 30.111 109.871 31.8787 110.527L32.5752 108.653ZM25.1644 107.558C22.296 107.581 19.8155 107.975 17.7525 108.775L18.4751 110.64C20.2485 109.952 22.4739 109.58 25.181 109.558L25.1644 107.558ZM17.7437 108.778C15.6906 109.596 14.073 110.803 12.9541 112.425L14.6005 113.561C15.4579 112.318 16.7313 111.334 18.484 110.636L17.7437 108.778ZM12.9473 112.435C11.8413 114.081 11.3254 116.057 11.344 118.309L13.344 118.292C13.328 116.362 13.7676 114.8 14.6073 113.551L12.9473 112.435ZM11.344 118.309C11.3627 120.56 11.9112 122.522 13.0472 124.137L14.6827 122.985C13.8255 121.768 13.36 120.223 13.344 118.292L11.344 118.309ZM13.0485 124.138C14.195 125.76 15.8355 126.942 17.9072 127.712L18.6037 125.837C16.8453 125.184 15.5588 124.224 14.6815 122.984L13.0485 124.138ZM17.9032 127.711C19.9814 128.493 22.4706 128.853 25.3409 128.83L25.3243 126.83C22.619 126.852 20.3901 126.51 18.6076 125.839L17.9032 127.711ZM48.9894 174.027L49.9894 174.019L49.9811 173.019L48.9811 173.027L48.9894 174.027ZM49.0943 186.663L49.1025 187.663L50.1025 187.655L50.0942 186.655L49.0943 186.663ZM10.0517 184.441L10.5927 183.6L10.5915 183.599L10.0517 184.441ZM4.01623 177.446L3.11204 177.873L3.11382 177.877L4.01623 177.446ZM3.84163 156.401L2.93219 155.985L2.93049 155.989L3.84163 156.401ZM9.76024 149.306L9.21227 148.47L9.2066 148.473L9.76024 149.306ZM48.7609 146.483L49.7609 146.474L49.7526 145.474L48.7526 145.483L48.7609 146.483ZM48.8657 159.118L48.874 160.118L49.874 160.11L49.8657 159.11L48.8657 159.118ZM16.2839 160.343L15.788 159.475L15.7831 159.478L16.2839 160.343ZM13.6695 163.001L12.7957 162.515L12.7929 162.52L13.6695 163.001ZM13.7336 170.728L12.868 171.229L13.7336 170.728ZM16.3917 173.343L15.9053 174.217L15.9104 174.219L16.3917 173.343ZM47.9895 174.035L48.0943 186.671L50.0942 186.655L49.9894 174.019L47.9895 174.035ZM49.086 185.663L19.2688 185.91L19.2854 187.91L49.1025 187.663L49.086 185.663ZM19.2688 185.91C15.8892 185.938 13.0111 185.156 10.5927 183.6L9.5108 185.282C12.3022 187.078 15.5744 187.941 19.2854 187.91L19.2688 185.91ZM10.5915 183.599C8.1715 182.048 6.27926 179.864 4.91864 177.015L3.11382 177.877C4.62131 181.034 6.75275 183.514 9.51199 185.283L10.5915 183.599ZM4.92041 177.019C3.57452 174.17 2.87034 170.823 2.83824 166.955L0.838313 166.972C0.872339 171.073 1.62013 174.715 3.11205 177.873L4.92041 177.019ZM2.83824 166.955C2.80589 163.055 3.45475 159.683 4.75277 156.813L2.93049 155.989C1.49075 159.172 0.804046 162.841 0.838313 166.972L2.83824 166.955ZM4.75106 156.817C6.06422 153.945 7.91997 151.73 10.3139 150.139L9.2066 148.473C6.47709 150.288 4.38709 152.803 2.9322 155.985L4.75106 156.817ZM10.3082 150.143C12.7016 148.575 15.5689 147.758 18.952 147.73L18.9354 145.73C15.2279 145.761 11.9729 146.661 9.21228 148.47L10.3082 150.143ZM18.952 147.73L48.7692 147.482L48.7526 145.483L18.9354 145.73L18.952 147.73ZM47.7609 146.491L47.8658 159.127L49.8657 159.11L49.7609 146.474L47.7609 146.491ZM48.8574 158.118L20.1311 158.357L20.1477 160.357L48.874 160.118L48.8574 158.118ZM20.1311 158.357C18.5391 158.37 17.0829 158.736 15.788 159.475L16.7797 161.212C17.7469 160.659 18.8611 160.367 20.1477 160.357L20.1311 158.357ZM15.7831 159.478C14.5109 160.214 13.5106 161.231 12.7957 162.515L14.5432 163.488C15.0824 162.519 15.825 161.764 16.7847 161.209L15.7831 159.478ZM12.7929 162.52C12.0752 163.827 11.7338 165.289 11.747 166.881L13.747 166.865C13.7363 165.578 14.0099 164.459 14.546 163.483L12.7929 162.52ZM11.747 166.881C11.7603 168.486 12.125 169.945 12.868 171.229L14.5991 170.228C14.0508 169.28 13.7578 168.169 13.747 166.865L11.747 166.881ZM12.868 171.229C13.6041 172.501 14.6211 173.502 15.9053 174.217L16.8781 172.469C15.9094 171.93 15.1544 171.187 14.5991 170.228L12.868 171.229ZM15.9104 174.219C17.2173 174.937 18.6794 175.279 20.2714 175.265L20.2548 173.265C18.9682 173.276 17.8493 173.002 16.8731 172.466L15.9104 174.219ZM20.2714 175.265L48.9977 175.027L48.9811 173.027L20.2548 173.265L20.2714 175.265ZM38.952 191.48L38.9438 190.48L37.9438 190.489L37.9521 191.489L38.952 191.48ZM49.1335 191.396L50.1335 191.387L50.1252 190.387L49.1252 190.396L49.1335 191.396ZM49.4691 231.849L49.4774 232.849L50.4774 232.841L50.4691 231.841L49.4691 231.849ZM39.2877 231.933L38.2877 231.942L38.296 232.942L39.296 232.933L39.2877 231.933ZM39.1715 217.934L40.1715 217.926L40.1632 216.926L39.1632 216.934L39.1715 217.934ZM2.80914 218.236L1.80917 218.244L1.81747 219.244L2.81744 219.235L2.80914 218.236ZM2.70581 205.781L2.69752 204.781L1.69755 204.79L1.70585 205.79L2.70581 205.781ZM39.0682 205.48L39.0765 206.48L40.0765 206.471L40.0682 205.471L39.0682 205.48ZM38.9603 192.48L49.1418 192.396L49.1252 190.396L38.9438 190.48L38.9603 192.48ZM48.1336 191.404L48.4692 231.857L50.4691 231.841L50.1335 191.387L48.1336 191.404ZM49.4608 230.849L39.2794 230.933L39.296 232.933L49.4774 232.849L49.4608 230.849ZM40.2876 231.925L40.1715 217.926L38.1716 217.942L38.2877 231.942L40.2876 231.925ZM39.1632 216.934L2.80084 217.236L2.81744 219.235L39.1798 218.934L39.1632 216.934ZM3.8091 218.227L3.70578 205.773L1.70585 205.79L1.80917 218.244L3.8091 218.227ZM2.71411 206.781L39.0765 206.48L39.0599 204.48L2.69752 204.781L2.71411 206.781ZM40.0682 205.471L39.952 191.472L37.9521 191.489L38.0682 205.488L40.0682 205.471ZM49.8429 276.898L50.8429 276.89L50.8346 275.89L49.8346 275.899L49.8429 276.898ZM49.9477 289.534L49.956 290.534L50.956 290.526L50.9477 289.526L49.9477 289.534ZM10.9052 287.313L11.4462 286.472L11.445 286.471L10.9052 287.313ZM4.86972 280.317L3.96553 280.744L3.96731 280.748L4.86972 280.317ZM4.69512 259.272L3.78567 258.857L3.78397 258.86L4.69512 259.272ZM10.6137 252.178L10.0658 251.341L10.0601 251.345L10.6137 252.178ZM49.6144 249.354L50.6143 249.346L50.606 248.346L49.6061 248.354L49.6144 249.354ZM49.7192 261.99L49.7275 262.99L50.7275 262.982L50.7192 261.982L49.7192 261.99ZM17.1373 263.215L16.6415 262.346L16.6365 262.349L17.1373 263.215ZM14.5229 265.873L13.6492 265.387L13.6464 265.392L14.5229 265.873ZM14.5871 273.6L13.7215 274.101L14.5871 273.6ZM17.2452 276.214L16.7588 277.088L16.7638 277.091L17.2452 276.214ZM48.8429 276.907L48.9478 289.543L50.9477 289.526L50.8429 276.89L48.8429 276.907ZM49.9394 288.534L20.1223 288.782L20.1389 290.782L49.956 290.534L49.9394 288.534ZM20.1223 288.782C16.7426 288.81 13.8646 288.027 11.4462 286.472L10.3643 288.154C13.1557 289.949 16.4278 290.813 20.1389 290.782L20.1223 288.782ZM11.445 286.471C9.02498 284.919 7.13275 282.736 5.77212 279.886L3.96731 280.748C5.47479 283.905 7.60624 286.385 10.3655 288.155L11.445 286.471ZM5.7739 279.89C4.428 277.041 3.72382 273.695 3.69173 269.827L1.6918 269.843C1.72583 273.944 2.47362 277.586 3.96554 280.744L5.7739 279.89ZM3.69173 269.827C3.65938 265.927 4.30824 262.554 5.60626 259.685L3.78397 258.86C2.34424 262.044 1.65753 265.713 1.6918 269.843L3.69173 269.827ZM5.60455 259.688C6.91771 256.817 8.77346 254.602 11.1674 253.01L10.0601 251.345C7.33057 253.16 5.24058 255.675 3.78568 258.857L5.60455 259.688ZM11.1617 253.014C13.5551 251.446 16.4224 250.629 19.8055 250.601L19.7889 248.601C16.0814 248.632 12.8264 249.533 10.0658 251.341L11.1617 253.014ZM19.8055 250.601L49.6227 250.354L49.6061 248.354L19.7889 248.601L19.8055 250.601ZM48.6144 249.362L48.7192 261.998L50.7192 261.982L50.6143 249.346L48.6144 249.362ZM49.7109 260.99L20.9846 261.228L21.0012 263.228L49.7275 262.99L49.7109 260.99ZM20.9846 261.228C19.3926 261.241 17.9364 261.607 16.6415 262.346L17.6332 264.083C18.6004 263.531 19.7146 263.239 21.0012 263.228L20.9846 261.228ZM16.6365 262.349C15.3644 263.085 14.364 264.102 13.6492 265.387L15.3967 266.359C15.9359 265.391 16.6785 264.636 17.6381 264.08L16.6365 262.349ZM13.6464 265.392C12.9287 266.698 12.5873 268.161 12.6005 269.753L14.6004 269.736C14.5898 268.449 14.8633 267.331 15.3995 266.354L13.6464 265.392ZM12.6005 269.753C12.6138 271.358 12.9785 272.817 13.7215 274.101L15.4526 273.099C14.9043 272.151 14.6113 271.04 14.6004 269.736L12.6005 269.753ZM13.7215 274.101C14.4575 275.373 15.4746 276.373 16.7588 277.088L17.7316 275.341C16.7629 274.801 16.0078 274.059 15.4526 273.099L13.7215 274.101ZM16.7638 277.091C18.0708 277.809 19.5329 278.15 21.1249 278.137L21.1083 276.137C19.8217 276.148 18.7028 275.874 17.7265 275.338L16.7638 277.091ZM21.1249 278.137L49.8512 277.898L49.8346 275.899L21.1083 276.137L21.1249 278.137ZM35.6608 320.751L35.5728 319.754L34.6531 319.836L34.6608 320.759L35.6608 320.751ZM39.192 319.017L38.4241 318.376L38.4194 318.382L39.192 319.017ZM39.9229 311.238L38.988 311.593L38.9917 311.602L39.9229 311.238ZM38.6579 309.43L39.2475 308.622L39.2475 308.622L38.6579 309.43ZM36.8347 308.831L36.789 309.83L36.8048 309.831L36.8207 309.831L36.8347 308.831ZM35.3144 309.139L34.8598 308.249L34.8418 308.258L34.8241 308.268L35.3144 309.139ZM34.1194 310.286L33.2976 309.716L33.292 309.724L33.2865 309.732L34.1194 310.286ZM32.4323 315.141L33.4118 315.342L33.4135 315.334L32.4323 315.141ZM31.6458 318.966L30.6663 318.764L30.6658 318.767L31.6458 318.966ZM29.5417 325.597L28.6392 325.166L29.5417 325.597ZM26.42 330.123L25.7206 329.408L25.7161 329.413L26.42 330.123ZM22.396 332.725L22.0465 331.788L22.0382 331.791L22.396 332.725ZM17.4943 333.629L17.4976 334.629L17.5111 334.629L17.4943 333.629ZM9.70276 331.398L9.12829 332.217L9.70276 331.398ZM4.80809 324.939L5.7359 324.565L5.73521 324.564L4.80809 324.939ZM4.77268 304.234L3.84083 303.871L3.8402 303.872L4.77268 304.234ZM10.2371 297.188L9.67903 296.358L9.67323 296.362L10.2371 297.188ZM19.807 294.608L20.8069 294.6L20.7986 293.596L19.7948 293.609L19.807 294.608ZM19.9065 306.608L19.9679 307.606L20.9144 307.548L20.9065 306.6L19.9065 306.608ZM16.3246 307.706L15.769 306.875L16.3246 307.706ZM14.1424 310.406L13.2218 310.015L13.22 310.02L14.1424 310.406ZM13.955 317.953L13.019 318.305L13.955 317.953ZM15.3585 320.01L14.7427 320.798L15.3585 320.01ZM17.3872 320.72L17.3755 321.72L17.3961 321.721L17.4167 321.72L17.3872 320.72ZM19.2449 320L18.6111 319.227L18.5993 319.237L18.5878 319.247L19.2449 320ZM20.6813 317.807L19.7602 317.417L19.7555 317.429L20.6813 317.807ZM21.8744 313.683L22.8529 313.889L22.8536 313.886L21.8744 313.683ZM22.8359 309.038L21.8569 308.835L21.8567 308.836L22.8359 309.038ZM27.2321 299.252L26.48 298.593L26.4756 298.598L27.2321 299.252ZM35.8162 295.658L35.8204 296.658L35.8297 296.657L35.8162 295.658ZM43.5856 297.957L44.1637 297.141L44.1627 297.14L43.5856 297.957ZM48.8452 304.572L49.7584 304.165L49.7576 304.163L48.8452 304.572ZM48.9846 324.117L48.0722 323.708L48.9846 324.117ZM43.7192 330.502L43.1679 329.668L43.1615 329.672L43.7192 330.502ZM35.7611 332.841L34.7611 332.849L34.7695 333.854L35.7744 333.841L35.7611 332.841ZM35.7488 321.747C37.487 321.593 38.9283 320.913 39.9645 319.652L38.4194 318.382C37.7756 319.165 36.8627 319.64 35.5728 319.754L35.7488 321.747ZM39.9598 319.657C41.0166 318.391 41.4446 316.586 41.4267 314.43L39.4268 314.446C39.4428 316.381 39.0476 317.629 38.4241 318.376L39.9598 319.657ZM41.4267 314.43C41.4153 313.056 41.2391 311.857 40.8541 310.873L38.9917 311.602C39.2569 312.28 39.4166 313.214 39.4268 314.446L41.4267 314.43ZM40.8577 310.883C40.5008 309.943 39.9804 309.157 39.2475 308.622L38.0682 310.238C38.4024 310.482 38.7254 310.901 38.9881 311.593L40.8577 310.883ZM39.2475 308.622C38.5409 308.106 37.7305 307.844 36.8486 307.831L36.8207 309.831C37.3026 309.838 37.7077 309.974 38.0682 310.238L39.2475 308.622ZM36.8803 307.832C36.1648 307.8 35.4828 307.931 34.8598 308.249L35.769 310.03C36.0514 309.886 36.3829 309.812 36.789 309.83L36.8803 307.832ZM34.8241 308.268C34.2255 308.605 33.7217 309.104 33.2976 309.716L34.9411 310.856C35.2357 310.431 35.5286 310.166 35.8048 310.011L34.8241 308.268ZM33.2865 309.732C32.8824 310.34 32.5365 311.084 32.2371 311.941L34.1254 312.601C34.3884 311.847 34.6679 311.267 34.9523 310.839L33.2865 309.732ZM32.2371 311.941C31.9363 312.803 31.6756 313.807 31.4511 314.948L33.4135 315.334C33.6252 314.259 33.8638 313.35 34.1254 312.601L32.2371 311.941ZM31.4528 314.939L30.6663 318.764L32.6253 319.167L33.4118 315.342L31.4528 314.939ZM30.6658 318.767C30.1536 321.289 29.4742 323.417 28.6392 325.166L30.4441 326.028C31.3665 324.096 32.0899 321.803 32.6258 319.165L30.6658 318.767ZM28.6392 325.166C27.8006 326.923 26.8235 328.329 25.7206 329.408L27.1194 330.838C28.4213 329.564 29.5253 327.953 30.4441 326.028L28.6392 325.166ZM25.7161 329.413C24.6247 330.494 23.4028 331.282 22.0465 331.788L22.7455 333.662C24.3801 333.052 25.8408 332.105 27.1239 330.833L25.7161 329.413ZM22.0382 331.791C20.6629 332.318 19.1457 332.601 17.4774 332.629L17.5111 334.629C19.3879 334.597 21.1386 334.277 22.7539 333.658L22.0382 331.791ZM17.4909 332.629C14.6 332.639 12.2138 331.939 10.2772 330.58L9.12829 332.217C11.4592 333.853 14.2673 334.64 17.4976 334.629L17.4909 332.629ZM10.2772 330.58C8.32618 329.21 6.80502 327.224 5.7359 324.565L3.88028 325.312C5.06996 328.27 6.81192 330.591 9.12829 332.217L10.2772 330.58ZM5.73521 324.564C4.66504 321.916 4.09706 318.681 4.06511 314.831L2.06518 314.847C2.0986 318.876 2.69258 322.373 3.88096 325.313L5.73521 324.564ZM4.06511 314.831C4.03235 310.882 4.58861 307.477 5.70514 304.595L3.8402 303.872C2.61291 307.04 2.03082 310.706 2.06518 314.847L4.06511 314.831ZM5.70452 304.596C6.8095 301.759 8.51001 299.578 10.801 298.014L9.67323 296.362C7.0224 298.172 5.07993 300.689 3.84083 303.871L5.70452 304.596ZM10.7952 298.018C13.078 296.482 16.0626 295.654 19.8192 295.608L19.7948 293.609C15.764 293.658 12.3687 294.549 9.67904 296.358L10.7952 298.018ZM18.807 294.617L18.9066 306.616L20.9065 306.6L20.8069 294.6L18.807 294.617ZM19.8451 305.61C18.2853 305.706 16.9108 306.112 15.769 306.875L16.8802 308.537C17.6672 308.012 18.6806 307.685 19.9679 307.606L19.8451 305.61ZM15.769 306.875C14.6293 307.636 13.7819 308.696 13.2219 310.015L15.0629 310.797C15.4838 309.805 16.0912 309.065 16.8802 308.537L15.769 306.875ZM13.22 310.02C12.6655 311.344 12.4128 312.873 12.427 314.579L14.4269 314.563C14.4144 313.058 14.6387 311.81 15.0648 310.792L13.22 310.02ZM12.427 314.579C12.4388 316.003 12.6241 317.255 13.019 318.305L14.891 317.601C14.6042 316.839 14.4375 315.837 14.4269 314.563L12.427 314.579ZM13.019 318.305C13.4065 319.336 13.9676 320.192 14.7427 320.798L15.9742 319.222C15.5598 318.898 15.1852 318.383 14.891 317.601L13.019 318.305ZM14.7427 320.798C15.5109 321.398 16.3996 321.709 17.3755 321.72L17.3989 319.72C16.8594 319.714 16.3956 319.551 15.9742 319.222L14.7427 320.798ZM17.4167 321.72C18.355 321.692 19.1973 321.368 19.902 320.754L18.5878 319.247C18.2395 319.55 17.8433 319.706 17.3576 319.721L17.4167 321.72ZM19.8787 320.774C20.6024 320.181 21.1609 319.278 21.6071 318.185L19.7555 317.429C19.3701 318.373 18.971 318.932 18.6111 319.227L19.8787 320.774ZM21.6023 318.196C22.0685 317.094 22.4821 315.65 22.8529 313.889L20.8959 313.477C20.5378 315.177 20.156 316.482 19.7603 317.417L21.6023 318.196ZM22.8536 313.886L23.8151 309.241L21.8567 308.836L20.8952 313.48L22.8536 313.886ZM23.8149 309.242C24.651 305.227 26.0596 302.137 27.9887 299.906L26.4756 298.598C24.2624 301.158 22.7402 304.593 21.8569 308.835L23.8149 309.242ZM27.9842 299.911C29.8527 297.778 32.4235 296.672 35.8204 296.658L35.8121 294.658C31.9362 294.674 28.7843 295.963 26.48 298.593L27.9842 299.911ZM35.8297 296.657C38.5915 296.62 40.9705 297.333 43.0085 298.773L44.1627 297.14C41.7501 295.435 38.9496 294.615 35.8028 294.658L35.8297 296.657ZM43.0074 298.773C45.0844 300.244 46.7305 302.301 47.9327 304.982L49.7576 304.163C48.4281 301.198 46.5678 298.844 44.1637 297.141L43.0074 298.773ZM47.9319 304.98C49.1325 307.671 49.7605 310.791 49.7901 314.36L51.79 314.344C51.7585 310.55 51.0899 307.15 49.7584 304.165L47.9319 304.98ZM49.7901 314.36C49.8203 318.008 49.2355 321.115 48.0722 323.708L49.897 324.527C51.2033 321.615 51.8221 318.211 51.79 314.344L49.7901 314.36ZM48.0722 323.708C46.9065 326.307 45.2686 328.28 43.1679 329.668L44.2706 331.337C46.7208 329.717 48.5932 327.434 49.897 324.527L48.0722 323.708ZM43.1615 329.672C41.0811 331.07 38.6227 331.803 35.7478 331.841L35.7744 333.841C38.9899 333.798 41.837 332.972 44.277 331.332L43.1615 329.672ZM36.761 332.833L36.6607 320.742L34.6608 320.759L34.7611 332.849L36.761 332.833Z" fill="#05C2DF" fill-opacity="0.2" mask="url(#path-1-outside-1_1_10675)"/>
</svg>
