<svg width="52" height="334" viewBox="0 0 52 334" fill="none" xmlns="http://www.w3.org/2000/svg">
<mask id="path-1-outside-1_1_400" maskUnits="userSpaceOnUse" x="-1.04395" y="-1.01256" width="53.7858" height="336.412" fill="black">
<rect fill="white" x="-1.04395" y="-1.01256" width="53.7858" height="336.412"/>
<path d="M50.6167 319.902L50.7298 333.538L4.05852 318.561L3.91522 301.289L50.3316 285.54L50.4447 299.176L16.8031 309.637L16.8061 310L50.6167 319.902ZM32.2748 322.6L32.0621 296.964L41.5164 296.886L41.729 322.521L32.2748 322.6ZM50.2944 281.057L3.75057 281.443L3.58314 261.262C3.55372 257.717 4.00628 254.735 4.94081 252.318C5.87521 249.886 7.2085 248.05 8.94068 246.808C10.6727 245.551 12.7205 244.913 15.0841 244.893C16.7962 244.879 18.3599 245.245 19.7752 245.991C21.1904 246.721 22.3808 247.757 23.3465 249.097C24.2971 250.438 24.9617 252.008 25.3402 253.808L25.7948 253.805C25.8539 251.804 26.3464 249.982 27.2722 248.338C28.1828 246.694 29.4523 245.38 31.0805 244.397C32.6936 243.414 34.5986 242.913 36.7955 242.895C39.3409 242.874 41.6115 243.522 43.6074 244.838C45.6031 246.14 47.1792 248.006 48.3358 250.436C49.4923 252.866 50.0846 255.77 50.1127 259.148L50.2944 281.057ZM40.099 268.505L40.05 262.596C40.0324 260.475 39.6253 258.887 38.8286 257.833C38.0168 256.779 36.8307 256.259 35.2701 256.272C34.1792 256.281 33.2571 256.538 32.5037 257.045C31.7503 257.551 31.1805 258.268 30.7942 259.195C30.4078 260.107 30.22 261.208 30.2307 262.495L30.2812 268.586L40.099 268.505ZM22.4633 268.651L22.4203 263.469C22.4111 262.363 22.2288 261.387 21.8733 260.542C21.5177 259.696 21.0123 259.041 20.3569 258.577C19.6862 258.098 18.8736 257.862 17.9191 257.87C16.4798 257.882 15.3856 258.406 14.6366 259.443C13.8725 260.48 13.4969 261.786 13.51 263.361L13.5545 268.725L22.4633 268.651ZM26.2937 193.412C31.4754 193.369 35.8548 194.34 39.432 196.326C42.9941 198.312 45.7059 201.009 47.5676 204.418C49.4141 207.827 50.3549 211.637 50.3898 215.849C50.425 220.092 49.5402 223.932 47.7353 227.372C45.9152 230.796 43.2408 233.53 39.7122 235.575C36.1683 237.604 31.8207 238.64 26.6693 238.683C21.4877 238.726 17.1159 237.762 13.554 235.792C9.97679 233.806 7.26499 231.117 5.41859 227.723C3.55691 224.314 2.60847 220.488 2.57327 216.246C2.53833 212.034 3.42329 208.208 5.22815 204.769C7.01786 201.33 9.6846 198.588 13.2284 196.543C16.757 194.499 21.1121 193.455 26.2937 193.412ZM26.4016 206.412C23.6138 206.435 21.2685 206.825 19.3656 207.584C17.4475 208.327 16.002 209.422 15.0291 210.87C14.041 212.302 13.5555 214.064 13.5729 216.155C13.5902 218.246 14.1049 220.006 15.1168 221.438C16.1134 222.854 17.5769 223.925 19.5072 224.651C21.4223 225.363 23.7737 225.707 26.5615 225.684C29.3493 225.661 31.7022 225.277 33.6204 224.534C35.5232 223.776 36.9688 222.681 37.9569 221.248C38.9298 219.801 39.4075 218.031 39.3902 215.941C39.3728 213.85 38.8659 212.096 37.8692 210.68C36.8573 209.249 35.3938 208.178 33.4788 207.467C31.5484 206.74 29.1894 206.388 26.4016 206.412ZM2.74479 160.214L2.63996 147.578L32.4571 147.331C36.0024 147.301 39.0776 148.124 41.6825 149.8C44.2721 151.46 46.2839 153.792 47.718 156.796C49.1369 159.799 49.8629 163.293 49.8959 167.278C49.9292 171.293 49.2615 174.814 47.8926 177.84C46.5085 180.867 44.5357 183.232 41.974 184.935C39.397 186.623 36.3358 187.482 32.7905 187.511L2.97332 187.759L2.86848 175.123L31.5948 174.884C33.0341 174.873 34.3193 174.544 35.4504 173.898C36.5662 173.252 37.4377 172.366 38.0648 171.24C38.6917 170.098 38.9992 168.808 38.9872 167.368C38.9751 165.914 38.6463 164.629 38.0006 163.513C37.355 162.397 36.469 161.525 35.3425 160.898C34.2009 160.271 32.9104 159.964 31.4711 159.976L2.74479 160.214ZM12.7822 142.761L2.60069 142.845L2.26507 102.392L12.4465 102.308L12.5627 116.307L48.9251 116.006L49.0284 128.46L12.666 128.761L12.7822 142.761ZM1.89131 57.3427L1.78648 44.7068L31.6036 44.4594C35.149 44.43 38.2241 45.253 40.829 46.9284C43.4186 48.5888 45.4304 50.9207 46.8645 53.9241C48.2834 56.9275 49.0094 60.4216 49.0424 64.4064C49.0758 68.4214 48.408 71.9422 47.0391 74.9688C45.6551 77.9955 43.6822 80.3605 41.1205 82.0636C38.5435 83.7517 35.4823 84.6105 31.937 84.6399L2.11984 84.8872L2.015 72.2513L30.7413 72.013C32.1806 72.001 33.4658 71.6722 34.5969 71.0264C35.7128 70.3808 36.5842 69.4947 37.2113 68.3683C37.8382 67.2267 38.1457 65.9362 38.1337 64.4969C38.1217 63.0424 37.7928 61.7572 37.1472 60.6413C36.5015 59.5254 35.6155 58.6539 34.489 58.0269C33.3474 57.4 32.0569 57.0925 30.6176 57.1044L1.89131 57.3427ZM16.0734 13.4906C14.5594 13.6244 13.3823 14.2024 12.5423 15.2245C11.7021 16.2315 11.2905 17.7577 11.3075 19.8031C11.3183 21.1061 11.4862 22.1729 11.8113 23.0036C12.1211 23.8192 12.5428 24.4218 13.0764 24.8113C13.6099 25.2009 14.2176 25.4004 14.8996 25.4099C15.4604 25.4355 15.9671 25.3328 16.4198 25.1018C16.8572 24.8557 17.2555 24.4736 17.6149 23.9555C17.9591 23.4374 18.2718 22.7757 18.553 21.9703C18.8342 21.1649 19.0838 20.2083 19.3019 19.1004L20.0884 15.2756C20.6125 12.6954 21.3138 10.4849 22.1925 8.64423C23.0712 6.80355 24.1118 5.29486 25.3142 4.11818C26.5014 2.94162 27.8428 2.0744 29.3382 1.51652C30.8335 0.94349 32.4674 0.642045 34.24 0.612187C37.3006 0.601947 39.8978 1.34558 42.0315 2.84308C44.1652 4.34058 45.7967 6.49379 46.9261 9.30269C48.0554 12.0965 48.6364 15.463 48.6691 19.4022C48.7026 23.4475 48.1335 26.9827 46.9615 30.0077C45.7895 33.0175 43.968 35.366 41.4971 37.0532C39.0109 38.7254 35.8209 39.5853 31.9272 39.6327L31.8277 27.6331C33.2513 27.5456 34.4452 27.1796 35.4096 26.5352C36.374 25.8908 37.1014 24.9908 37.5918 23.8352C38.0821 22.6644 38.3206 21.276 38.3073 19.67C38.2961 18.3216 38.1201 17.1942 37.7792 16.2879C37.4384 15.3816 36.9705 14.6961 36.3757 14.2313C35.781 13.7665 35.1047 13.5297 34.3471 13.5208C33.6351 13.5419 33.0158 13.7819 32.4893 14.2408C31.9475 14.6847 31.4687 15.416 31.0529 16.4346C30.622 17.4534 30.2243 18.8279 29.8598 20.5583L28.8983 25.2028C28.0386 29.3313 26.5732 32.5936 24.5021 34.9896C22.4157 37.3706 19.5543 38.5687 15.918 38.5837C12.9637 38.6233 10.3739 37.8569 8.14864 36.2844C5.90812 34.6969 4.15492 32.4917 2.88903 29.6687C1.62302 26.8307 0.974737 23.5708 0.944192 19.8891C0.913018 16.1316 1.51482 12.8765 2.7496 10.1238C3.98438 7.371 5.73951 5.24273 8.015 3.73896C10.2752 2.22015 12.9279 1.44054 15.9731 1.40012L16.0734 13.4906Z"/>
</mask>
<path d="M50.6167 319.902L51.6167 319.894L51.6105 319.151L50.8978 318.942L50.6167 319.902ZM50.7298 333.538L50.4243 334.49L51.7413 334.913L51.7298 333.53L50.7298 333.538ZM4.05852 318.561L3.05856 318.569L3.06455 319.292L3.75297 319.513L4.05852 318.561ZM3.91522 301.289L3.59391 300.342L2.90926 300.574L2.91526 301.297L3.91522 301.289ZM50.3316 285.54L51.3316 285.531L51.3201 284.148L50.0103 284.593L50.3316 285.54ZM50.4447 299.176L50.7417 300.13L51.4509 299.91L51.4447 299.167L50.4447 299.176ZM16.8031 309.637L16.5062 308.682L15.797 308.902L15.8031 309.645L16.8031 309.637ZM16.8061 310L15.8062 310.009L15.8123 310.751L16.5251 310.96L16.8061 310ZM32.2748 322.6L31.2749 322.608L31.2832 323.608L32.2831 323.6L32.2748 322.6ZM32.0621 296.964L32.0538 295.964L31.0539 295.973L31.0622 296.973L32.0621 296.964ZM41.5164 296.886L42.5163 296.878L42.508 295.878L41.5081 295.886L41.5164 296.886ZM41.729 322.521L41.7373 323.521L42.7373 323.513L42.729 322.513L41.729 322.521ZM49.6167 319.91L49.7299 333.546L51.7298 333.53L51.6167 319.894L49.6167 319.91ZM51.0354 332.586L4.36408 317.609L3.75297 319.513L50.4243 334.49L51.0354 332.586ZM5.05849 318.553L4.91519 301.281L2.91526 301.297L3.05856 318.569L5.05849 318.553ZM4.23653 302.236L50.6529 286.487L50.0103 284.593L3.59391 300.342L4.23653 302.236ZM49.3317 285.548L49.4448 299.184L51.4447 299.167L51.3316 285.531L49.3317 285.548ZM50.1478 298.221L16.5062 308.682L17.1 310.592L50.7417 300.13L50.1478 298.221ZM15.8031 309.645L15.8062 310.009L17.8061 309.992L17.8031 309.629L15.8031 309.645ZM16.5251 310.96L50.3357 320.862L50.8978 318.942L17.0872 309.041L16.5251 310.96ZM33.2748 322.592L33.0621 296.956L31.0622 296.973L31.2749 322.608L33.2748 322.592ZM32.0704 297.964L41.5246 297.886L41.5081 295.886L32.0538 295.964L32.0704 297.964ZM40.5164 296.894L40.7291 322.53L42.729 322.513L42.5163 296.878L40.5164 296.894ZM41.7207 321.521L32.2665 321.6L32.2831 323.6L41.7373 323.521L41.7207 321.521ZM50.2944 281.057L50.3027 282.057L51.3027 282.049L51.2944 281.049L50.2944 281.057ZM3.75057 281.443L2.75061 281.451L2.7589 282.451L3.75887 282.443L3.75057 281.443ZM4.94081 252.318L5.87351 252.679L5.87428 252.677L4.94081 252.318ZM8.94068 246.808L9.5233 247.621L9.52798 247.617L8.94068 246.808ZM19.7752 245.991L19.309 246.875L19.3164 246.879L19.7752 245.991ZM23.3465 249.097L24.1623 248.519L24.1579 248.513L23.3465 249.097ZM25.3402 253.808L24.3616 254.014L24.5301 254.815L25.3485 254.808L25.3402 253.808ZM25.7948 253.805L25.8031 254.805L26.7659 254.797L26.7943 253.834L25.7948 253.805ZM27.2722 248.338L28.1436 248.828L28.1469 248.822L27.2722 248.338ZM31.0805 244.397L31.5975 245.253L31.601 245.251L31.0805 244.397ZM43.6074 244.838L43.0566 245.673L43.0611 245.676L43.6074 244.838ZM48.3358 250.436L47.4328 250.865L48.3358 250.436ZM40.099 268.505L40.1073 269.505L41.1073 269.496L41.099 268.496L40.099 268.505ZM38.8286 257.833L39.6264 257.23L39.6209 257.223L38.8286 257.833ZM30.7942 259.195L31.715 259.585L31.7173 259.58L30.7942 259.195ZM30.2812 268.586L29.2812 268.594L29.2895 269.594L30.2895 269.586L30.2812 268.586ZM22.4633 268.651L22.4716 269.651L23.4715 269.643L23.4632 268.643L22.4633 268.651ZM21.8733 260.542L22.7951 260.154L21.8733 260.542ZM20.3569 258.577L19.7755 259.391L19.7788 259.393L20.3569 258.577ZM14.6366 259.443L15.4416 260.036L15.4471 260.029L14.6366 259.443ZM13.5545 268.725L12.5545 268.733L12.5628 269.733L13.5628 269.725L13.5545 268.725ZM50.2861 280.057L3.74227 280.443L3.75887 282.443L50.3027 282.057L50.2861 280.057ZM4.75054 281.435L4.5831 261.254L2.58317 261.27L2.75061 281.451L4.75054 281.435ZM4.5831 261.254C4.55438 257.791 4.99787 254.944 5.87351 252.679L4.0081 251.958C3.0147 254.527 2.55307 257.642 2.58317 261.27L4.5831 261.254ZM5.87428 252.677C6.75431 250.387 7.98212 248.725 9.52329 247.621L8.35807 245.995C6.43487 247.374 4.9961 249.386 4.00733 251.96L5.87428 252.677ZM9.52798 247.617C11.074 246.495 12.9142 245.911 15.0924 245.893L15.0758 243.893C12.5269 243.914 10.2715 244.607 8.35338 245.998L9.52798 247.617ZM15.0924 245.893C16.6511 245.88 18.0501 246.212 19.309 246.875L20.2414 245.106C18.6696 244.278 16.9412 243.878 15.0758 243.893L15.0924 245.893ZM19.3164 246.879C20.5865 247.535 21.6579 248.464 22.5352 249.682L24.1579 248.513C23.1038 247.05 21.7943 245.908 20.234 245.102L19.3164 246.879ZM22.5308 249.676C23.3932 250.892 24.0079 252.332 24.3616 254.014L26.3188 253.603C25.9154 251.685 25.201 249.984 24.1623 248.519L22.5308 249.676ZM25.3485 254.808L25.8031 254.805L25.7865 252.805L25.3319 252.808L25.3485 254.808ZM26.7943 253.834C26.849 251.985 27.302 250.323 28.1435 248.828L26.4008 247.847C25.3908 249.641 24.8588 251.623 24.7952 253.775L26.7943 253.834ZM28.1469 248.822C28.9718 247.333 30.117 246.147 31.5975 245.253L30.5636 243.541C28.7875 244.613 27.3939 246.054 26.3974 247.853L28.1469 248.822ZM31.601 245.251C33.036 244.376 34.7578 243.912 36.8038 243.895L36.7872 241.895C34.4394 241.914 32.3512 242.451 30.5601 243.543L31.601 245.251ZM36.8038 243.895C39.1641 243.875 41.2375 244.473 43.0566 245.673L44.1581 244.004C41.9855 242.57 39.5177 241.872 36.7872 241.895L36.8038 243.895ZM43.0611 245.676C44.8834 246.865 46.3449 248.58 47.4328 250.865L49.2387 250.006C48.0135 247.432 46.3227 245.416 44.1537 244.001L43.0611 245.676ZM47.4328 250.865C48.5128 253.134 49.0856 255.888 49.1127 259.157L51.1126 259.14C51.0837 255.652 50.4719 252.597 49.2387 250.006L47.4328 250.865ZM49.1127 259.157L49.2945 281.065L51.2944 281.049L51.1126 259.14L49.1127 259.157ZM41.099 268.496L41.05 262.587L39.05 262.604L39.0991 268.513L41.099 268.496ZM41.05 262.587C41.0316 260.372 40.6099 258.531 39.6264 257.23L38.0309 258.436C38.6406 259.243 39.0332 260.578 39.05 262.604L41.05 262.587ZM39.6209 257.223C38.5834 255.876 37.0742 255.257 35.2618 255.272L35.2784 257.272C36.5871 257.261 37.4502 257.682 38.0364 258.443L39.6209 257.223ZM35.2618 255.272C34.0151 255.282 32.8922 255.579 31.9459 256.215L33.0614 257.875C33.6219 257.498 34.3433 257.279 35.2784 257.272L35.2618 255.272ZM31.9459 256.215C31.0125 256.842 30.3244 257.722 29.8711 258.811L31.7173 259.58C32.0365 258.813 32.4881 258.26 33.0614 257.875L31.9459 256.215ZM29.8734 258.805C29.4202 259.875 29.2192 261.118 29.2307 262.504L31.2306 262.487C31.2207 261.297 31.3954 260.34 31.715 259.585L29.8734 258.805ZM29.2307 262.504L29.2812 268.594L31.2811 268.578L31.2306 262.487L29.2307 262.504ZM30.2895 269.586L40.1073 269.505L40.0907 267.505L30.2729 267.586L30.2895 269.586ZM23.4632 268.643L23.4202 263.461L21.4203 263.478L21.4633 268.659L23.4632 268.643ZM23.4202 263.461C23.4102 262.251 23.2104 261.142 22.7951 260.154L20.9514 260.93C21.2472 261.633 21.412 262.476 21.4203 263.478L23.4202 263.461ZM22.7951 260.154C22.3777 259.162 21.7634 258.348 20.9349 257.761L19.7788 259.393C20.2612 259.735 20.6577 260.231 20.9514 260.93L22.7951 260.154ZM20.9383 257.764C20.0696 257.143 19.0421 256.861 17.9108 256.87L17.9274 258.87C18.7052 258.864 19.3029 259.053 19.7755 259.391L20.9383 257.764ZM17.9108 256.87C16.1994 256.884 14.7867 257.528 13.8261 258.857L15.4471 260.029C15.9845 259.285 16.7602 258.88 17.9274 258.87L17.9108 256.87ZM13.8317 258.849C12.9126 260.096 12.4956 261.627 12.51 263.37L14.51 263.353C14.4983 261.944 14.8323 260.863 15.4416 260.036L13.8317 258.849ZM12.51 263.37L12.5545 268.733L14.5545 268.717L14.51 263.353L12.51 263.37ZM13.5628 269.725L22.4716 269.651L22.455 267.651L13.5462 267.725L13.5628 269.725ZM39.432 196.326L39.9189 195.452L39.9173 195.452L39.432 196.326ZM47.5676 204.418L48.4469 203.941L48.4453 203.938L47.5676 204.418ZM47.7353 227.372L48.6183 227.841L48.6208 227.836L47.7353 227.372ZM39.7122 235.575L40.2091 236.443L40.2135 236.44L39.7122 235.575ZM13.554 235.792L13.0687 236.666L13.0699 236.667L13.554 235.792ZM5.41859 227.723L6.29701 227.245L6.29624 227.243L5.41859 227.723ZM5.22815 204.769L6.11364 205.234L6.11523 205.231L5.22815 204.769ZM13.2284 196.543L13.7281 197.409L13.7297 197.408L13.2284 196.543ZM19.3656 207.584L19.7269 208.516L19.7358 208.513L19.3656 207.584ZM15.0291 210.87L15.8523 211.438L15.8591 211.428L15.0291 210.87ZM15.1168 221.438L15.9345 220.862L15.9333 220.86L15.1168 221.438ZM19.5072 224.651L19.155 225.587L19.159 225.589L19.5072 224.651ZM33.6204 224.534L33.9817 225.467L33.9905 225.463L33.6204 224.534ZM37.9569 221.248L38.7801 221.816L38.7869 221.806L37.9569 221.248ZM37.8692 210.68L38.687 210.105L38.6857 210.103L37.8692 210.68ZM33.4788 207.467L33.1266 208.402L33.1305 208.404L33.4788 207.467ZM26.302 194.412C31.3563 194.37 35.5556 195.318 38.9467 197.2L39.9173 195.452C36.1541 193.363 31.5945 192.368 26.2855 192.412L26.302 194.412ZM38.9451 197.199C42.351 199.098 44.9234 201.662 46.69 204.897L48.4453 203.938C46.4885 200.355 43.6372 197.525 39.9189 195.452L38.9451 197.199ZM46.6883 204.894C48.4503 208.147 49.3561 211.795 49.3898 215.858L51.3898 215.841C51.3536 211.48 50.3779 207.506 48.4469 203.941L46.6883 204.894ZM49.3898 215.858C49.4238 219.951 48.5713 223.627 46.8498 226.907L48.6208 227.836C50.5091 224.238 51.4262 220.232 51.3898 215.841L49.3898 215.858ZM46.8523 226.902C45.1245 230.153 42.5865 232.754 39.2109 234.71L40.2135 236.44C43.8951 234.307 46.7058 231.439 48.6183 227.841L46.8523 226.902ZM39.2152 234.707C35.8543 236.632 31.6849 237.642 26.661 237.683L26.6776 239.683C31.9564 239.639 36.4823 238.577 40.2091 236.443L39.2152 234.707ZM26.661 237.683C21.6055 237.725 17.4136 236.784 14.0381 234.917L13.0699 236.667C16.8182 238.741 21.3699 239.727 26.6776 239.683L26.661 237.683ZM14.0393 234.918C10.6179 233.018 8.04722 230.462 6.29701 227.245L4.54017 228.201C6.48275 231.771 9.33571 234.594 13.0687 236.666L14.0393 234.918ZM6.29624 227.243C4.52062 223.992 3.6072 220.331 3.57324 216.238L1.57331 216.254C1.60974 220.646 2.5932 224.636 4.54094 228.202L6.29624 227.243ZM3.57324 216.238C3.53954 212.176 4.39165 208.515 6.11363 205.234L4.34267 204.304C2.45492 207.902 1.53712 211.892 1.57331 216.254L3.57324 216.238ZM6.11523 205.231C7.81204 201.97 10.3398 199.364 13.7281 197.409L12.7286 195.677C9.02941 197.811 6.22369 200.69 4.34107 204.307L6.11523 205.231ZM13.7297 197.408C17.0731 195.471 21.2476 194.454 26.302 194.412L26.2855 192.412C20.9766 192.456 16.4409 193.526 12.727 195.678L13.7297 197.408ZM26.3933 205.412C23.5234 205.435 21.0469 205.837 18.9955 206.655L19.7358 208.513C21.4901 207.814 23.7042 207.434 26.4099 207.412L26.3933 205.412ZM19.0043 206.651C16.9304 207.455 15.3056 208.666 14.1991 210.312L15.8591 211.428C16.6984 210.179 17.9645 209.199 19.7269 208.516L19.0043 206.651ZM14.2059 210.302C13.0791 211.935 12.5542 213.909 12.5729 216.163L14.5729 216.146C14.5569 214.219 15.0028 212.669 15.8523 211.438L14.2059 210.302ZM12.5729 216.163C12.5916 218.418 13.1494 220.387 14.3003 222.015L15.9333 220.86C15.0604 219.626 14.5889 218.073 14.5729 216.146L12.5729 216.163ZM14.299 222.013C15.4318 223.623 17.0734 224.804 19.155 225.587L19.8594 223.715C18.0803 223.046 16.795 222.085 15.9345 220.862L14.299 222.013ZM19.159 225.589C21.2214 226.355 23.7018 226.707 26.5698 226.684L26.5532 224.684C23.8456 224.706 21.6232 224.37 19.8555 223.714L19.159 225.589ZM26.5698 226.684C29.4382 226.66 31.9187 226.266 33.9817 225.467L33.2591 223.602C31.4857 224.289 29.2603 224.661 26.5532 224.684L26.5698 226.684ZM33.9905 225.463C36.0436 224.645 37.6612 223.438 38.7801 221.816L37.1338 220.68C36.2763 221.923 35.0029 222.907 33.2502 223.605L33.9905 225.463ZM38.7869 221.806C39.8929 220.16 40.4088 218.184 40.3902 215.932L38.3902 215.949C38.4062 217.879 37.9666 219.441 37.1269 220.69L38.7869 221.806ZM40.3902 215.932C40.3715 213.681 39.823 211.719 38.687 210.105L37.0515 211.256C37.9087 212.474 38.3742 214.018 38.3902 215.949L40.3902 215.932ZM38.6857 210.103C37.5392 208.481 35.8987 207.299 33.827 206.529L33.1305 208.404C34.8889 209.057 36.1754 210.017 37.0527 211.258L38.6857 210.103ZM33.831 206.531C31.7528 205.749 29.2636 205.388 26.3933 205.412L26.4099 207.412C29.1152 207.389 31.3441 207.732 33.1266 208.402L33.831 206.531ZM2.74479 160.214L1.74483 160.222L1.75312 161.222L2.75309 161.214L2.74479 160.214ZM2.63996 147.578L2.63166 146.578L1.63169 146.587L1.63999 147.587L2.63996 147.578ZM41.6825 149.8L41.1415 150.641L41.1427 150.642L41.6825 149.8ZM47.718 156.796L48.6222 156.368L48.6204 156.365L47.718 156.796ZM47.8926 177.84L48.802 178.256L48.8037 178.252L47.8926 177.84ZM41.974 184.935L42.5219 185.772L42.5276 185.768L41.974 184.935ZM2.97332 187.759L1.97335 187.767L1.98165 188.767L2.98161 188.759L2.97332 187.759ZM2.86848 175.123L2.86018 174.123L1.86022 174.131L1.86851 175.131L2.86848 175.123ZM35.4504 173.898L35.9462 174.766L35.9512 174.763L35.4504 173.898ZM38.0647 171.24L38.9385 171.726L38.9413 171.721L38.0647 171.24ZM38.0006 163.513L38.8662 163.012L38.0006 163.513ZM35.3425 160.898L35.8289 160.025L35.8238 160.022L35.3425 160.898ZM3.74476 160.206L3.63992 147.57L1.63999 147.587L1.74483 160.222L3.74476 160.206ZM2.64825 148.578L32.4654 148.331L32.4488 146.331L2.63166 146.578L2.64825 148.578ZM32.4654 148.331C35.845 148.303 38.7231 149.085 41.1415 150.641L42.2234 148.959C39.432 147.163 36.1598 146.3 32.4488 146.331L32.4654 148.331ZM41.1427 150.642C43.5627 152.193 45.4549 154.377 46.8156 157.226L48.6204 156.365C47.1129 153.208 44.9815 150.727 42.2222 148.958L41.1427 150.642ZM46.8138 157.223C48.1597 160.072 48.8639 163.418 48.896 167.286L50.8959 167.27C50.8619 163.168 50.1141 159.526 48.6222 156.368L46.8138 157.223ZM48.896 167.286C48.9283 171.186 48.2795 174.558 46.9814 177.428L48.8037 178.252C50.2435 175.069 50.9302 171.4 50.8959 167.27L48.896 167.286ZM46.9831 177.424C45.67 180.296 43.8142 182.511 41.4203 184.102L42.5276 185.768C45.2571 183.953 47.3471 181.438 48.802 178.256L46.9831 177.424ZM41.426 184.099C39.0326 185.666 36.1653 186.483 32.7822 186.511L32.7988 188.511C36.5063 188.481 39.7613 187.58 42.5219 185.772L41.426 184.099ZM32.7822 186.511L2.96502 186.759L2.98161 188.759L32.7988 188.511L32.7822 186.511ZM3.97328 187.75L3.86845 175.114L1.86851 175.131L1.97335 187.767L3.97328 187.75ZM2.87678 176.123L31.6031 175.884L31.5865 173.884L2.86018 174.123L2.87678 176.123ZM31.6031 175.884C33.1951 175.871 34.6513 175.506 35.9462 174.766L34.9545 173.029C33.9873 173.582 32.8731 173.874 31.5865 173.884L31.6031 175.884ZM35.9512 174.763C37.2233 174.027 38.2237 173.01 38.9385 171.726L37.191 170.753C36.6518 171.722 35.9092 172.477 34.9495 173.032L35.9512 174.763ZM38.9413 171.721C39.659 170.414 40.0004 168.952 39.9872 167.36L37.9872 167.377C37.9979 168.663 37.7244 169.782 37.1882 170.758L38.9413 171.721ZM39.9872 167.36C39.9739 165.755 39.6092 164.296 38.8662 163.012L37.1351 164.014C37.6834 164.961 37.9764 166.073 37.9872 167.377L39.9872 167.36ZM38.8662 163.012C38.1301 161.74 37.1131 160.739 35.8289 160.025L34.8561 161.772C35.8248 162.311 36.5799 163.054 37.1351 164.014L38.8662 163.012ZM35.8238 160.022C34.5169 159.304 33.0548 158.963 31.4628 158.976L31.4794 160.976C32.766 160.965 33.8849 161.239 34.8612 161.775L35.8238 160.022ZM31.4628 158.976L2.73649 159.214L2.75309 161.214L31.4794 160.976L31.4628 158.976ZM12.7822 142.761L12.7905 143.761L13.7904 143.753L13.7821 142.753L12.7822 142.761ZM2.60069 142.845L1.60072 142.854L1.60902 143.854L2.60899 143.845L2.60069 142.845ZM2.26507 102.392L2.25677 101.392L1.25681 101.401L1.2651 102.401L2.26507 102.392ZM12.4465 102.308L13.4465 102.3L13.4382 101.3L12.4382 101.308L12.4465 102.308ZM12.5627 116.307L11.5627 116.316L11.571 117.316L12.571 117.307L12.5627 116.307ZM48.9251 116.006L49.925 115.997L49.9167 114.997L48.9168 115.006L48.9251 116.006ZM49.0284 128.46L49.0367 129.46L50.0367 129.451L50.0284 128.452L49.0284 128.46ZM12.666 128.761L12.6577 127.762L11.6578 127.77L11.666 128.77L12.666 128.761ZM12.7739 141.761L2.59239 141.846L2.60899 143.845L12.7905 143.761L12.7739 141.761ZM3.60066 142.837L3.26503 102.384L1.2651 102.401L1.60072 142.854L3.60066 142.837ZM2.27337 103.392L12.4548 103.308L12.4382 101.308L2.25677 101.392L2.27337 103.392ZM11.4466 102.316L11.5627 116.316L13.5627 116.299L13.4465 102.3L11.4466 102.316ZM12.571 117.307L48.9334 117.006L48.9168 115.006L12.5544 115.307L12.571 117.307ZM47.9251 116.014L48.0284 128.468L50.0284 128.452L49.925 115.997L47.9251 116.014ZM49.0201 127.46L12.6577 127.762L12.6743 129.761L49.0367 129.46L49.0201 127.46ZM11.666 128.77L11.7822 142.769L13.7821 142.753L13.666 128.753L11.666 128.77ZM1.89131 57.3427L0.891348 57.351L0.899644 58.351L1.89961 58.3427L1.89131 57.3427ZM1.78648 44.7068L1.77818 43.7068L0.778217 43.7151L0.786513 44.7151L1.78648 44.7068ZM40.829 46.9284L40.288 47.7695L40.2892 47.7703L40.829 46.9284ZM46.8645 53.9241L47.7687 53.4969L47.7669 53.4932L46.8645 53.9241ZM47.0391 74.9688L47.9485 75.3846L47.9502 75.3809L47.0391 74.9688ZM41.1205 82.0636L41.6685 82.9001L41.6741 82.8963L41.1205 82.0636ZM2.11984 84.8872L1.11987 84.8955L1.12817 85.8955L2.12813 85.8872L2.11984 84.8872ZM2.015 72.2513L2.00671 71.2514L1.00674 71.2597L1.01504 72.2596L2.015 72.2513ZM34.5969 71.0264L35.0927 71.8949L35.0977 71.892L34.5969 71.0264ZM37.2113 68.3683L38.085 68.8546L38.0878 68.8496L37.2113 68.3683ZM37.1472 60.6413L38.0127 60.1405L37.1472 60.6413ZM34.489 58.0269L34.9754 57.1531L34.9704 57.1503L34.489 58.0269ZM2.89128 57.3344L2.78644 44.6985L0.786513 44.7151L0.891348 57.351L2.89128 57.3344ZM1.79478 45.7068L31.6119 45.4594L31.5953 43.4595L1.77818 43.7068L1.79478 45.7068ZM31.6119 45.4594C34.9916 45.4314 37.8696 46.214 40.288 47.7695L41.3699 46.0874C38.5786 44.292 35.3064 43.4287 31.5953 43.4595L31.6119 45.4594ZM40.2892 47.7703C42.7092 49.3219 44.6015 51.5054 45.9621 54.3549L47.7669 53.4932C46.2594 50.336 44.128 47.8558 41.3687 46.0866L40.2892 47.7703ZM45.9603 54.3512C47.3062 57.2001 48.0104 60.5464 48.0425 64.4146L50.0424 64.3981C50.0084 60.2969 49.2606 56.6549 47.7687 53.4969L45.9603 54.3512ZM48.0425 64.4146C48.0748 68.3145 47.426 71.6868 46.128 74.5567L47.9502 75.3809C49.39 72.1976 50.0767 68.5283 50.0424 64.3981L48.0425 64.4146ZM46.1297 74.5529C44.8165 77.4247 42.9608 79.6393 40.5668 81.2308L41.6741 82.8963C44.4036 81.0817 46.4936 78.5664 47.9485 75.3846L46.1297 74.5529ZM40.5725 81.2271C38.1791 82.7949 35.3118 83.6118 31.9287 83.6399L31.9453 85.6398C35.6528 85.6091 38.9079 84.7085 41.6684 82.9001L40.5725 81.2271ZM31.9287 83.6399L2.11154 83.8873L2.12813 85.8872L31.9453 85.6398L31.9287 83.6399ZM3.1198 84.879L3.01497 72.243L1.01504 72.2596L1.11987 84.8955L3.1198 84.879ZM2.0233 73.2513L30.7496 73.013L30.733 71.013L2.00671 71.2514L2.0233 73.2513ZM30.7496 73.013C32.3416 72.9998 33.7979 72.6341 35.0927 71.8948L34.101 70.158C33.1338 70.7102 32.0197 71.0024 30.733 71.013L30.7496 73.013ZM35.0977 71.892C36.3698 71.1559 37.3702 70.1389 38.085 68.8546L36.3375 67.8819C35.7983 68.8506 35.0557 69.6056 34.0961 70.1609L35.0977 71.892ZM38.0878 68.8496C38.8055 67.5427 39.1469 66.0806 39.1337 64.4886L37.1338 64.5052C37.1444 65.7918 36.8709 66.9106 36.3347 67.8869L38.0878 68.8496ZM39.1337 64.4886C39.1204 62.8836 38.7557 61.4245 38.0127 60.1405L36.2816 61.1421C36.8299 62.0898 37.1229 63.2011 37.1338 64.5052L39.1337 64.4886ZM38.0127 60.1405C37.2767 58.8683 36.2596 57.868 34.9754 57.1531L34.0026 58.9006C34.9714 59.4398 35.7264 60.1825 36.2816 61.1421L38.0127 60.1405ZM34.9704 57.1503C33.6634 56.4327 32.2013 56.0912 30.6093 56.1044L30.6259 58.1044C31.9126 58.0937 33.0314 58.3673 34.0077 58.9034L34.9704 57.1503ZM30.6093 56.1044L1.88302 56.3428L1.89961 58.3427L30.6259 58.1044L30.6093 56.1044ZM16.0734 13.4906L16.1615 14.4867L17.0811 14.4055L17.0734 13.4823L16.0734 13.4906ZM12.5423 15.2245L13.3101 15.8652L13.3148 15.8594L12.5423 15.2245ZM11.8113 23.0036L12.7462 22.6485L12.7425 22.6391L11.8113 23.0036ZM13.0764 24.8113L12.4867 25.619L12.4867 25.619L13.0764 24.8113ZM14.8996 25.4099L14.9453 24.4109L14.9294 24.4102L14.9135 24.4099L14.8996 25.4099ZM16.4198 25.1018L16.8744 25.9925L16.8925 25.9832L16.9101 25.9733L16.4198 25.1018ZM17.6149 23.9555L18.4366 24.5253L18.4423 24.5172L18.4478 24.5089L17.6149 23.9555ZM19.3019 19.1004L18.3224 18.899L18.3207 18.9072L19.3019 19.1004ZM20.0884 15.2755L21.0679 15.477L21.0684 15.4746L20.0884 15.2755ZM22.1925 8.64424L23.095 9.07503L22.1925 8.64424ZM25.3142 4.11819L26.0136 4.8329L26.0181 4.82847L25.3142 4.11819ZM29.3382 1.51651L29.6877 2.45349L29.696 2.45031L29.3382 1.51651ZM34.24 0.612195L34.2366 -0.387904L34.2231 -0.38767L34.24 0.612195ZM42.0315 2.84307L42.6059 2.02456L42.0315 2.84307ZM46.9261 9.30269L45.9983 9.67575L45.999 9.67746L46.9261 9.30269ZM46.9615 30.0077L47.8934 30.3705L47.894 30.3689L46.9615 30.0077ZM41.4971 37.0532L42.0552 37.883L42.061 37.8791L41.4971 37.0532ZM31.9272 39.6327L30.9273 39.641L30.9356 40.6449L31.9394 40.6327L31.9272 39.6327ZM31.8277 27.6331L31.7663 26.635L30.8199 26.6932L30.8277 27.6414L31.8277 27.6331ZM35.4096 26.5352L35.9652 27.3667L35.4096 26.5352ZM37.5918 23.8352L38.5124 24.2258L38.5142 24.2215L37.5918 23.8352ZM37.7792 16.2879L38.7152 15.9359L37.7792 16.2879ZM36.3757 14.2313L36.9915 13.4434L36.3757 14.2313ZM34.3471 13.5208L34.3588 12.5209L34.3381 12.5207L34.3175 12.5213L34.3471 13.5208ZM32.4893 14.2408L33.1231 15.0144L33.1349 15.0047L33.1464 14.9947L32.4893 14.2408ZM31.0529 16.4346L31.974 16.8242L31.9788 16.8125L31.0529 16.4346ZM29.8598 20.5583L28.8813 20.3522L28.8806 20.3556L29.8598 20.5583ZM28.8983 25.2028L29.8773 25.4067L29.8776 25.4055L28.8983 25.2028ZM24.5021 34.9896L25.2542 35.6487L25.2586 35.6436L24.5021 34.9896ZM15.918 38.5837L15.9139 37.5837L15.9046 37.5838L15.918 38.5837ZM8.14864 36.2844L7.57051 37.1004L7.57153 37.1011L8.14864 36.2844ZM2.88903 29.6687L1.97577 30.0761L1.97657 30.0779L2.88903 29.6687ZM2.7496 10.1238L3.66201 10.533L2.7496 10.1238ZM8.015 3.73896L8.56636 4.57325L8.57274 4.56896L8.015 3.73896ZM15.9731 1.40012L16.9731 1.39182L16.9648 0.386884L15.9599 0.400227L15.9731 1.40012ZM15.9854 12.4945C14.2472 12.6481 12.8059 13.3287 11.7697 14.5896L13.3148 15.8594C13.9587 15.076 14.8715 14.6007 16.1615 14.4867L15.9854 12.4945ZM11.7744 14.5839C10.7176 15.8506 10.2896 17.6551 10.3075 19.8114L12.3074 19.7948C12.2914 17.8604 12.6866 16.6124 13.3101 15.8652L11.7744 14.5839ZM10.3075 19.8114C10.3189 21.1851 10.4951 22.3843 10.8801 23.368L12.7425 22.6391C12.4773 21.9615 12.3177 21.027 12.3074 19.7948L10.3075 19.8114ZM10.8765 23.3587C11.2334 24.2984 11.7538 25.0839 12.4867 25.619L13.666 24.0037C13.3318 23.7597 13.0088 23.34 12.7461 22.6485L10.8765 23.3587ZM12.4867 25.619C13.1933 26.1348 14.0037 26.3975 14.8856 26.4098L14.9135 24.4099C14.4316 24.4032 14.0265 24.2669 13.666 24.0037L12.4867 25.619ZM14.8539 26.4088C15.5694 26.4415 16.2514 26.3104 16.8744 25.9925L15.9652 24.2111C15.6829 24.3552 15.3514 24.4295 14.9453 24.4109L14.8539 26.4088ZM16.9101 25.9733C17.5087 25.6365 18.0125 25.1368 18.4366 24.5253L16.7931 23.3856C16.4985 23.8104 16.2056 24.0749 15.9295 24.2302L16.9101 25.9733ZM18.4478 24.5089C18.8518 23.9008 19.1977 23.1573 19.4971 22.3L17.6089 21.6407C17.3458 22.3941 17.0664 22.974 16.782 23.402L18.4478 24.5089ZM19.4971 22.3C19.7979 21.4384 20.0586 20.4339 20.2831 19.2935L18.3207 18.9072C18.109 19.9827 17.8705 20.8915 17.6089 21.6407L19.4971 22.3ZM20.2814 19.3018L21.0679 15.477L19.1089 15.0741L18.3224 18.899L20.2814 19.3018ZM21.0684 15.4746C21.5806 12.9527 22.26 10.8242 23.095 9.07503L21.2901 8.21342C20.3677 10.1456 19.6443 12.4381 19.1084 15.0765L21.0684 15.4746ZM23.095 9.07503C23.9336 7.31838 24.9107 5.91222 26.0136 4.8329L24.6148 3.40348C23.3129 4.67751 22.2089 6.28871 21.2901 8.21342L23.095 9.07503ZM26.0181 4.82847C27.1095 3.7469 28.3314 2.95942 29.6877 2.45346L28.9887 0.579588C27.3541 1.18939 25.8934 2.13633 24.6103 3.40788L26.0181 4.82847ZM29.696 2.45031C31.0714 1.92326 32.5885 1.64015 34.2568 1.61206L34.2231 -0.38767C32.3464 -0.356046 30.5956 -0.036274 28.9804 0.582739L29.696 2.45031ZM34.2433 1.61217C37.1342 1.6025 39.5205 2.30248 41.457 3.66162L42.6059 2.02456C40.275 0.388656 37.467 -0.398621 34.2366 -0.387812L34.2433 1.61217ZM41.457 3.66162C43.408 5.03091 44.9292 7.01678 45.9983 9.67575L47.8539 8.92965C46.6643 5.97082 44.9223 3.65026 42.6059 2.02456L41.457 3.66162ZM45.999 9.67746C47.0692 12.325 47.6372 15.5602 47.6691 19.4105L49.669 19.3939C49.6356 15.3657 49.0416 11.8679 47.8533 8.92795L45.999 9.67746ZM47.6691 19.4105C47.7019 23.3596 47.1456 26.7644 46.0291 29.6464L47.894 30.3689C49.1213 27.201 49.7034 23.5355 49.669 19.3939L47.6691 19.4105ZM46.0297 29.6448C44.9247 32.4824 43.2242 34.663 40.9332 36.2274L42.061 37.8791C44.7118 36.069 46.6543 33.5525 47.8934 30.3705L46.0297 29.6448ZM40.939 36.2235C38.6562 37.7588 35.6716 38.587 31.9151 38.6328L31.9394 40.6327C35.9702 40.5835 39.3655 39.6921 42.0552 37.883L40.939 36.2235ZM32.9272 39.6244L32.8277 27.6248L30.8277 27.6414L30.9273 39.641L32.9272 39.6244ZM31.8891 28.6313C33.4489 28.5353 34.8234 28.1296 35.9652 27.3667L34.854 25.7037C34.067 26.2296 33.0536 26.5558 31.7663 26.635L31.8891 28.6313ZM35.9652 27.3667C37.105 26.6051 37.9524 25.5454 38.5124 24.2258L36.6713 23.4445C36.2504 24.4362 35.643 25.1765 34.854 25.7037L35.9652 27.3667ZM38.5142 24.2215C39.0687 22.8974 39.3214 21.3685 39.3073 19.6617L37.3073 19.6783C37.3198 21.1835 37.0955 22.4314 36.6694 23.4489L38.5142 24.2215ZM39.3073 19.6617C39.2955 18.2385 39.1102 16.986 38.7152 15.9359L36.8432 16.6399C37.13 17.4024 37.2968 18.4046 37.3073 19.6783L39.3073 19.6617ZM38.7152 15.9359C38.3277 14.9055 37.7666 14.0491 36.9915 13.4434L35.76 15.0193C36.1744 15.3431 36.549 15.8578 36.8432 16.6399L38.7152 15.9359ZM36.9915 13.4434C36.2233 12.8431 35.3347 12.5323 34.3588 12.5209L34.3354 14.5208C34.8748 14.5271 35.3386 14.69 35.76 15.0193L36.9915 13.4434ZM34.3175 12.5213C33.3792 12.549 32.5369 12.8727 31.8323 13.487L33.1464 14.9947C33.4947 14.691 33.891 14.5348 34.3766 14.5204L34.3175 12.5213ZM31.8556 13.4673C31.1318 14.0603 30.5733 14.9635 30.1271 16.0567L31.9788 16.8125C32.3641 15.8685 32.7633 15.3092 33.1231 15.0144L31.8556 13.4673ZM30.1319 16.045C29.6657 17.1473 29.2521 18.5915 28.8813 20.3522L30.8384 20.7644C31.1964 19.0644 31.5783 17.7595 31.9739 16.8242L30.1319 16.045ZM28.8806 20.3556L27.9191 25.0001L29.8776 25.4055L30.8391 20.761L28.8806 20.3556ZM27.9193 24.9989C27.0832 29.0142 25.6746 32.104 23.7456 34.3357L25.2586 35.6436C27.4718 33.0832 28.994 29.6484 29.8773 25.4067L27.9193 24.9989ZM23.75 34.3306C21.8816 36.4629 19.3107 37.5697 15.9139 37.5837L15.9221 39.5837C19.798 39.5677 22.9499 38.2784 25.2542 35.6486L23.75 34.3306ZM15.9046 37.5838C13.1427 37.6209 10.7637 36.9079 8.72575 35.4678L7.57153 37.1011C9.98408 38.806 12.7846 39.6258 15.9314 39.5836L15.9046 37.5838ZM8.72678 35.4685C6.64981 33.9968 5.00373 31.9406 3.80149 29.2596L1.97657 30.0779C3.3061 33.0428 5.16643 35.397 7.57051 37.1004L8.72678 35.4685ZM3.80229 29.2614C2.6017 26.5699 1.97377 23.4499 1.94416 19.8808L-0.0557738 19.8974C-0.024295 23.6916 0.644337 27.0914 1.97577 30.0761L3.80229 29.2614ZM1.94416 19.8808C1.91389 16.2329 2.49872 13.1264 3.66201 10.533L1.83719 9.71449C0.530926 12.6266 -0.0878563 16.0304 -0.0557738 19.8974L1.94416 19.8808ZM3.66201 10.533C4.8277 7.93431 6.4656 5.96152 8.56634 4.57322L7.46365 2.90467C5.01343 4.52393 3.14107 6.8077 1.83719 9.71449L3.66201 10.533ZM8.57274 4.56896C10.6531 3.171 13.1115 2.43818 15.9864 2.40004L15.9599 0.400227C12.7443 0.442897 9.89726 1.26931 7.45725 2.90893L8.57274 4.56896ZM14.9732 1.40842L15.0735 13.4989L17.0734 13.4823L16.9731 1.39182L14.9732 1.40842Z" fill="#05C2DF" fill-opacity="0.1" mask="url(#path-1-outside-1_1_400)"/>
</svg>
