<svg width="88" height="80" viewBox="0 0 88 80" fill="none" xmlns="http://www.w3.org/2000/svg">
<rect x="2.06152" y="1.91992" width="84.3965" height="59.5917" rx="3.5" stroke="#05C2DF"/>
<line x1="1.56152" y1="51.5713" x2="86.958" y2="51.5713" stroke="#05C2DF"/>
<line x1="40.0723" y1="56.7783" x2="47.9243" y2="56.7783" stroke="#05C2DF" stroke-linecap="round"/>
<rect x="27.0557" y="62.0381" width="33.8876" height="5.15385" stroke="#05C2DF"/>
<rect x="16.6416" y="73.3994" width="54.716" height="5.15385" stroke="#05C2DF"/>
<path d="M17.9706 72.8726L26.6925 67.7188H61.3067L70.0286 72.8726H17.9706Z" stroke="#05C2DF"/>
<path d="M24.8182 13.7273L32.8182 36.0909H32.9091L40.9091 13.7273H41.6818L33.3636 37H32.3636L24.0455 13.7273H24.8182ZM46.3551 37V13.7273H53.1733C54.4763 13.7273 55.6278 14.0038 56.6278 14.5568C57.6354 15.1098 58.4233 15.8826 58.9915 16.875C59.5672 17.8674 59.8551 19.0303 59.8551 20.3636C59.8551 21.6818 59.5672 22.8371 58.9915 23.8295C58.4233 24.8144 57.6354 25.5833 56.6278 26.1364C55.6278 26.6818 54.4763 26.9545 53.1733 26.9545H46.7188V26.2273H53.1733C54.34 26.2273 55.3703 25.9848 56.2642 25.5C57.1581 25.0152 57.8589 24.3333 58.3665 23.4545C58.8741 22.5758 59.1278 21.5455 59.1278 20.3636C59.1278 19.1742 58.8741 18.1364 58.3665 17.25C57.8589 16.3636 57.1581 15.678 56.2642 15.1932C55.3703 14.7008 54.34 14.4545 53.1733 14.4545H47.0824V37H46.3551ZM55.2188 26.4091L60.946 37H60.1278L54.4006 26.4091H55.2188Z" fill="#05C2DF"/>
</svg>
