<svg xmlns="http://www.w3.org/2000/svg" width="98" height="81" fill="none" stroke="#05c2df" xmlns:v="https://vecta.io/nano"><path d="M45.014 28.079v-7.01m16.632 14.296h8.11M31.955 45.811h4.399m17.594 14.708v-7.01"/><rect x="36.717" y="28.441" width="24.567" height="24.567" rx="3.5"/><rect x="41.39" y="33.115" width="15.495" height="15.495" rx="3.5"/><rect x="69.981" y="1.5" width="18.519" height="18.519" rx="3.5"/><rect x="74.38" y="5.898" width="9.997" height="9.997" rx="2.5"/><rect x="9.5" y="1.5" width="18.519" height="18.519" rx="3.5"/><rect x="13.899" y="5.898" width="9.997" height="9.997" rx="2.5"/><rect x="10.325" y="61.432" width="18.519" height="18.519" rx="3.5"/><rect x="14.723" y="65.83" width="9.997" height="9.997" rx="2.5"/><rect x="69.981" y="61.432" width="18.519" height="18.519" rx="3.5"/><rect x="74.38" y="65.83" width="9.997" height="9.997" rx="2.5"/><path d="M54.223 28.079V10.897h15.12M36.354 38.113H18.897V20.519m42.887 21.443h17.182v18.969m-33.402-7.423V70.69H29.206"/><circle cx="45.014" cy="18.594" r="1.974"/><circle cx="72.23" cy="35.364" r="1.974"/><circle cx="29.619" cy="45.811" r="1.974"/><circle cx="53.811" cy="62.856" r="1.974"/></svg>