<svg xmlns="http://www.w3.org/2000/svg" width="88" height="80" fill="none" xmlns:v="https://vecta.io/nano"><g stroke="#05c2df"><rect x="2.062" y="1.92" width="84.397" height="59.592" rx="3.5"/><path d="M1.562 51.571h85.396"/><path stroke-linecap="round" d="M40.072 56.778h7.852"/><path d="M27.056 62.038h33.888v5.154H27.056zM16.642 73.399h54.716v5.154H16.642zm1.329-.526l8.722-5.154h34.614l8.722 5.154H17.971z"/></g><path d="M24.818 13.727l8 22.364h.091l8-22.364h.773L33.364 37h-1l-8.318-23.273h.773zM46.355 37V13.727h6.818c1.303 0 2.455.277 3.455.83 1.008.553 1.795 1.326 2.364 2.318.576.992.864 2.155.864 3.489 0 1.318-.288 2.473-.864 3.466a6.02 6.02 0 0 1-2.364 2.307c-1 .545-2.151.818-3.455.818h-6.454v-.727h6.454c1.167 0 2.197-.242 3.091-.727a5.3 5.3 0 0 0 2.102-2.046c.508-.879.761-1.909.761-3.091 0-1.189-.254-2.227-.761-3.114a5.28 5.28 0 0 0-2.102-2.057c-.894-.492-1.924-.739-3.091-.739h-6.091V37h-.727zm8.864-10.591L60.946 37h-.818l-5.727-10.591h.818z" fill="#05c2df"/></svg>