<svg xmlns="http://www.w3.org/2000/svg" width="113" height="82" fill="none" stroke="#05c2df" xmlns:v="https://vecta.io/nano"><circle cx="56.654" cy="41.156" r="13.59"/><path d="M71.097 26.75c4.67 3.089 7.749 8.388 7.749 14.406s-3.08 11.317-7.749 14.406"/><path d="M71.273 55.422l6.34 8.102"/><path d="M77.437 63.7c7.429-4.872 12.329-13.229 12.329-22.72s-4.9-17.848-12.329-22.72l-6.34 8.63M84.482 9.807c9.976 6.609 16.556 17.946 16.556 30.821S94.458 64.84 84.482 71.45"/><path d="M84.482 9.982L90.822 1c12.948 8.535 21.487 23.176 21.487 39.804s-8.539 31.268-21.487 39.804l-6.516-9.158m-42.094-44.7c-4.669 3.089-7.749 8.388-7.749 14.406s3.08 11.317 7.749 14.406"/><path d="M42.036 55.422l-6.34 8.102"/><path d="M35.872 63.7c-7.429-4.872-12.329-13.229-12.329-22.72s4.9-17.848 12.329-22.72l6.34 8.63M28.827 9.807c-9.976 6.609-16.556 17.946-16.556 30.821s6.58 24.212 16.556 30.822"/><path d="M28.827 9.982L22.487 1C9.54 9.535 1 24.176 1 40.804s8.54 31.268 21.487 39.804l6.517-9.158"/></svg>